<svg width="78" height="70" viewBox="0 0 78 70" fill="none" xmlns="http://www.w3.org/2000/svg">
<g clip-path="url(#clip0_1_336)">
<path d="M50.7233 7.53484V65.1491C50.7233 67.2144 49.0482 68.8895 46.9828 68.8895H4.85083C2.78548 68.8895 1.11035 67.2144 1.11035 65.1491V4.85083C1.11035 2.78548 2.78548 1.11035 4.85083 1.11035H57.1002" stroke="#03336B" stroke-width="2.22081" stroke-linecap="round" stroke-linejoin="round"/>
<path d="M70.1395 51.05H55.2632" stroke="#03336B" stroke-width="2.22081" stroke-linecap="round" stroke-linejoin="round"/>
<path d="M57.0971 1.11035C53.5755 1.11035 50.7202 3.96568 50.7202 7.48726" stroke="#03336B" stroke-width="2.22081" stroke-linecap="round" stroke-linejoin="round"/>
<path d="M69.7621 9.12431H76.0502V44.762C76.0502 48.236 73.2361 51.0501 69.7621 51.0501C66.2882 51.0501 63.4741 48.236 63.4741 44.762V7.48725C63.4741 3.96568 60.6187 1.11035 57.0972 1.11035" stroke="#03336B" stroke-width="2.22081" stroke-linecap="round" stroke-linejoin="round"/>
<path d="M6.67822 13.5247H25.4885" stroke="#03336B" stroke-width="2.22081" stroke-linecap="round" stroke-linejoin="round"/>
<path d="M33.4009 13.5247H44.4415" stroke="#03336B" stroke-width="2.22081" stroke-linecap="round" stroke-linejoin="round"/>
<path d="M6.67822 23.1091H22.8743" stroke="#03336B" stroke-width="2.22081" stroke-linecap="round" stroke-linejoin="round"/>
<path d="M34.0862 23.1091H44.4415" stroke="#03336B" stroke-width="2.22081" stroke-linecap="round" stroke-linejoin="round"/>
<path d="M6.67822 32.6967H44.4415" stroke="#03336B" stroke-width="2.22081" stroke-linecap="round" stroke-linejoin="round"/>
<path d="M36.4511 53.1386C39.5689 51.8472 41.0495 48.2728 39.7581 45.155C38.4666 42.0372 34.8922 40.5566 31.7744 41.8481C28.6566 43.1395 27.1761 46.7139 28.4675 49.8317C29.7589 52.9495 33.3333 54.43 36.4511 53.1386Z" stroke="#03336B" stroke-width="2.22081" stroke-linecap="round" stroke-linejoin="round"/>
<path d="M38.8135 55.771V63.0902L34.1149 59.5369L29.4099 63.0902V55.771" stroke="#03336B" stroke-width="2.22081" stroke-linecap="round" stroke-linejoin="round"/>
<path d="M8.92139 47.17H20.1016" stroke="#03336B" stroke-width="2.22081" stroke-linecap="round" stroke-linejoin="round"/>
<path d="M8.92139 57.3033H20.1016" stroke="#03336B" stroke-width="2.22081" stroke-linecap="round" stroke-linejoin="round"/>
</g>
<defs>
<clipPath id="clip0_1_336">
<rect width="77.1637" height="70" fill="white"/>
</clipPath>
</defs>
</svg>
