<svg width="41" height="40" viewBox="0 0 41 40" fill="none" xmlns="http://www.w3.org/2000/svg">
<rect x="1.73584" y="1" width="38" height="38" rx="19" fill="#E5F1FF"/>
<rect x="1.73584" y="1" width="38" height="38" rx="19" stroke="#42A5F5" stroke-width="2"/>
<g clip-path="url(#clip0_41_861)">
<path d="M12.5188 10.826L20.7358 9L28.9528 10.826C29.1749 10.8754 29.3735 10.999 29.5159 11.1764C29.6582 11.3538 29.7358 11.5745 29.7358 11.802V21.789C29.7358 22.7767 29.4918 23.7492 29.0257 24.62C28.5596 25.4908 27.8857 26.2331 27.0638 26.781L20.7358 31L14.4078 26.781C13.5861 26.2332 12.9123 25.4911 12.4462 24.6205C11.9801 23.7498 11.7361 22.7776 11.7358 21.79V11.802C11.7359 11.5745 11.8135 11.3538 11.9558 11.1764C12.0982 10.999 12.2968 10.8754 12.5188 10.826V10.826ZM20.7358 19C21.3989 19 22.0348 18.7366 22.5036 18.2678C22.9724 17.7989 23.2358 17.163 23.2358 16.5C23.2358 15.837 22.9724 15.2011 22.5036 14.7322C22.0348 14.2634 21.3989 14 20.7358 14C20.0728 14 19.4369 14.2634 18.9681 14.7322C18.4992 15.2011 18.2358 15.837 18.2358 16.5C18.2358 17.163 18.4992 17.7989 18.9681 18.2678C19.4369 18.7366 20.0728 19 20.7358 19ZM16.2628 24H25.2088C25.0876 22.8984 24.5642 21.8803 23.7388 21.1407C22.9134 20.4012 21.8441 19.9922 20.7358 19.9922C19.6276 19.9922 18.5583 20.4012 17.7329 21.1407C16.9075 21.8803 16.3841 22.8984 16.2628 24V24Z" fill="#1976D2"/>
</g>
<defs>
<clipPath id="clip0_41_861">
<rect width="24" height="24" fill="white" transform="translate(8.73584 8)"/>
</clipPath>
</defs>
</svg>
