<svg width="339" height="220" viewBox="0 0 339 220" fill="none" xmlns="http://www.w3.org/2000/svg">
<rect x="-0.5" y="0.5" width="338" height="209" rx="39.5" transform="matrix(-1 0 0 1 338 2)" stroke="url(#paint0_linear_317_994)"/>
<rect x="16.5" y="20.5" width="306" height="173" rx="29.5" stroke="url(#paint1_linear_317_994)"/>
<rect x="35.5" y="43.5" width="267" height="127" rx="19.5" stroke="url(#paint2_linear_317_994)"/>
<g filter="url(#filter0_d_317_994)">
<circle cx="107" cy="34" r="24" fill="#C7F5FF"/>
<circle cx="107" cy="34" r="23.5" stroke="#9FC4CC"/>
</g>
<g clip-path="url(#clip0_317_994)">
<path d="M102.58 25.4099C102.58 25.1999 102.65 24.8299 102.64 24.4099C102.633 24.0753 102.606 23.7414 102.56 23.4099C102.49 22.9699 102.62 22.6099 102.41 22.4099C102.298 22.3668 102.176 22.3507 102.057 22.3628C101.937 22.375 101.821 22.4151 101.72 22.4799C101.5 22.6999 101.53 23.1699 101.49 23.7299C101.475 24.0064 101.475 24.2834 101.49 24.5599V25.2699C101.484 25.4723 101.532 25.6726 101.63 25.8499C101.686 25.9048 101.753 25.9474 101.826 25.9749C101.9 26.0024 101.978 26.0141 102.056 26.0094C102.134 26.0047 102.211 25.9836 102.28 25.9475C102.35 25.9114 102.411 25.8611 102.46 25.7999C102.528 25.6804 102.569 25.5472 102.58 25.4099Z" fill="black"/>
<path d="M120 30.3999C119.94 28.7999 119.82 27.1999 119.69 25.5899C119.677 24.8395 119.61 24.0909 119.49 23.3499C119.406 22.9851 119.242 22.6435 119.01 22.3499C118.871 22.1856 118.701 22.0498 118.51 21.9499C118.145 21.7953 117.767 21.6748 117.38 21.5899C116.85 21.4502 116.312 21.3401 115.77 21.2599C114.97 21.1499 114.16 21.0799 113.35 21.0299C111.72 20.9101 110.084 20.8767 108.45 20.9299C106.11 20.9999 106.39 21.0499 98.92 21.7199C98.4936 21.7505 98.0694 21.8072 97.65 21.8899C97.4011 21.9963 97.179 22.1569 97 22.3599C96.827 22.5518 96.6822 22.7673 96.57 22.9999C96.3348 23.5377 96.1798 24.1071 96.11 24.6899C96.0246 25.5238 95.9879 26.3618 96 27.1999V31.1999C96.07 33.1999 96.18 35.1999 96.26 37.1399C96.26 38.1399 96.17 39.3999 96.32 40.5199C96.4038 41.0375 96.5728 41.5376 96.82 41.9999C96.96 42.272 97.1896 42.4874 97.47 42.6099C97.7903 42.7385 98.1268 42.8227 98.47 42.8599C98.97 42.9299 99.47 42.9699 99.97 42.9999C100.7 42.9999 101.44 42.9999 102.16 43.0499C103.83 43.0499 105.49 43.0499 107.16 42.9899C109.63 42.8899 112.1 42.7099 114.58 42.5499C115.605 42.5781 116.63 42.5413 117.65 42.4399C118.199 42.3662 118.712 42.1253 119.12 41.7499C119.424 41.4132 119.634 41.003 119.73 40.5599C119.843 40.0035 119.903 39.4377 119.91 38.8699L120 33.6299V30.3999ZM96.85 24.7799C96.8983 24.2697 97.0266 23.7703 97.23 23.2999C97.3036 23.1302 97.4013 22.9719 97.52 22.8299C97.6341 22.6997 97.7736 22.5942 97.93 22.5199C97.93 22.5199 107.8 21.6899 108.47 21.6699C110.068 21.6365 111.667 21.6832 113.26 21.8099C114.04 21.8699 114.83 21.9499 115.6 22.0699C116.11 22.1599 116.6 22.2599 117.11 22.3999C117.396 22.4665 117.677 22.5534 117.95 22.6599C118.077 22.7032 118.191 22.779 118.28 22.8799C118.477 23.1778 118.591 23.5231 118.61 23.8799C118.71 24.5199 118.68 25.2199 118.72 25.7099V25.7699H118.65C118.65 25.6999 118.27 25.7699 118.15 25.7699H117.15L114.05 25.8699C113.18 25.8699 111.81 25.9199 110.2 25.9599C109.2 25.9599 108.08 26.0199 106.96 26.0599C106.96 26.0599 99.48 26.4999 98.66 26.5499L96.8 26.6099C96.7819 25.9995 96.7986 25.3885 96.85 24.7799ZM118.94 33.5999L118.73 38.8599C118.733 39.3539 118.682 39.8467 118.58 40.3299C118.529 40.5827 118.411 40.8173 118.24 41.0099C117.882 41.2744 117.445 41.4116 117 41.3999C116.08 41.4899 115 41.3999 114.44 41.4499C111.97 41.5999 109.51 41.7799 107.05 41.8799C105.42 41.9999 103.79 41.9999 102.14 41.9999H99.98C99.51 41.9999 99.04 41.9499 98.58 41.8899C98.3816 41.8522 98.1873 41.7953 98 41.7199C97.9495 41.7165 97.9008 41.7 97.8587 41.6719C97.8166 41.6438 97.7826 41.6052 97.76 41.5599C97.5128 41.047 97.3733 40.4889 97.35 39.9199C97.27 38.9199 97.35 37.9199 97.29 37.0699C97.18 35.0699 97.03 33.0699 96.92 31.1499C96.8452 29.8446 96.8052 28.5374 96.8 27.2299H98.67H106.38C107.72 27.2299 109.04 27.1399 110.24 27.0799C111.85 26.9899 113.24 26.8799 114.1 26.7999L117.16 26.5299H118.16H118.7C118.78 27.8799 118.86 29.2199 118.89 30.5299C119 31.4899 119 32.5399 118.94 33.5999Z" fill="black"/>
<path d="M105.82 24.6399C105.8 25.0213 105.917 25.3973 106.15 25.6999C106.3 25.8499 106.73 25.8799 106.85 25.6999C106.933 25.394 106.964 25.0761 106.94 24.7599C106.96 24.3835 106.96 24.0063 106.94 23.6299C106.87 22.9999 107.05 22.6299 106.62 22.3399C106.511 22.2961 106.393 22.2795 106.276 22.2917C106.16 22.3039 106.047 22.3445 105.95 22.4099C105.65 22.7299 105.83 22.9499 105.81 23.4999C105.789 23.8797 105.792 24.2605 105.82 24.6399Z" fill="black"/>
<path d="M112.59 31.6499C112.483 31.597 112.365 31.5695 112.245 31.5695C112.125 31.5695 112.007 31.597 111.9 31.6499C111.478 31.8513 111.082 32.1032 110.72 32.3999C110.039 32.9335 109.413 33.5331 108.85 34.1899C108.267 34.8613 107.789 35.6164 107.43 36.4299C107.245 36.7823 107.1 37.1547 107 37.5399C106.979 37.6821 106.987 37.827 107.023 37.9661C107.059 38.1052 107.123 38.2356 107.21 38.3499C107.65 38.9399 108.46 38.9799 109.35 38.4199C111.198 37.056 112.434 35.0188 112.79 32.7499C112.827 32.5013 112.827 32.2485 112.79 31.9999C112.783 31.9309 112.761 31.8641 112.727 31.8039C112.692 31.7436 112.646 31.6912 112.59 31.6499ZM109.73 37.0599C109.368 37.3787 108.946 37.6233 108.49 37.7799C108.32 37.7799 108.17 37.8599 108.1 37.7799L108.48 36.8999C108.734 36.3379 109.053 35.8076 109.43 35.3199C110.019 34.5467 110.689 33.8393 111.43 33.2099C111.43 33.1599 111.75 33.0499 111.99 32.9199C111.935 33.7324 111.705 34.5232 111.314 35.238C110.924 35.9527 110.384 36.5743 109.73 37.0599Z" fill="black"/>
<path d="M108.14 31.69C108.185 31.6862 108.228 31.6736 108.268 31.653C108.308 31.6323 108.343 31.6039 108.372 31.5695C108.401 31.5351 108.423 31.4954 108.436 31.4525C108.449 31.4097 108.454 31.3647 108.45 31.32C108.45 31 108.56 30.7 108.6 30.32C108.61 30.1868 108.61 30.0531 108.6 29.92C108.61 29.7968 108.61 29.6731 108.6 29.55C108.563 29.3677 108.516 29.1874 108.46 29.01V28.82C108.26 28.58 108.11 28.51 107.98 28.59C107.85 28.67 107.83 28.59 107.79 28.71C107.679 28.9921 107.592 29.2832 107.53 29.58C107.51 29.7728 107.51 29.9672 107.53 30.16C107.588 30.5576 107.682 30.9492 107.81 31.33C107.807 31.3755 107.814 31.421 107.829 31.4639C107.844 31.5069 107.868 31.5463 107.899 31.5799C107.93 31.6134 107.967 31.6405 108.008 31.6594C108.05 31.6783 108.094 31.6887 108.14 31.69Z" fill="black"/>
<path d="M103.49 32.6399C103.26 32.4999 103 32.4099 102.76 32.2899C102.454 32.1139 102.112 32.0081 101.76 31.9799C101.47 31.8899 101.19 32.1599 101.6 32.5999C101.76 32.7699 102.22 33.1699 102.29 33.2299C102.514 33.382 102.748 33.5189 102.99 33.6399C103.36 33.8099 103.75 33.8799 104.13 34.0299C104.206 34.0789 104.298 34.0959 104.386 34.0772C104.474 34.0584 104.551 34.0055 104.6 33.9299C104.646 33.8509 104.66 33.7573 104.64 33.6682C104.619 33.579 104.566 33.501 104.49 33.4499C104.182 33.1495 103.848 32.8784 103.49 32.6399Z" fill="black"/>
<path d="M114.47 34.3499C114.61 34.4199 114.56 34.4499 115.47 33.8999C115.55 33.8499 115.63 33.8099 115.71 33.7499C115.82 33.661 115.924 33.5641 116.02 33.4599C116.32 33.1299 116.53 32.7799 116.67 32.6199C116.708 32.5957 116.74 32.5641 116.765 32.5271C116.79 32.49 116.807 32.4482 116.816 32.4042C116.824 32.3603 116.824 32.315 116.814 32.2713C116.804 32.2276 116.786 32.1863 116.76 32.1499C116.735 32.1119 116.702 32.0793 116.664 32.0542C116.626 32.029 116.584 32.0117 116.539 32.0033C116.494 31.9949 116.448 31.9956 116.404 32.0053C116.359 32.015 116.317 32.0336 116.28 32.0599C115.971 32.182 115.676 32.3362 115.4 32.5199C115.222 32.6345 115.061 32.7724 114.92 32.9299C114.705 33.1908 114.526 33.4802 114.39 33.7899C114.34 33.8899 114.3 33.9399 114.3 33.9799C114.31 34.1999 114.36 34.3199 114.47 34.3499Z" fill="black"/>
<path d="M117.32 38C117.164 37.9219 117 37.8615 116.83 37.82C116.562 37.7417 116.288 37.6881 116.01 37.66C115.877 37.6448 115.743 37.6448 115.61 37.66L115.22 37.77C114.972 37.8003 114.732 37.8748 114.51 37.99C114.42 37.99 114.41 38.09 114.38 38.12C114.35 38.15 114.32 38.47 114.68 38.58C114.81 38.58 115.16 38.68 115.24 38.7C115.32 38.72 115.65 38.78 115.87 38.79C115.99 38.8049 116.11 38.8049 116.23 38.79C116.557 38.7118 116.894 38.6782 117.23 38.69C117.321 38.69 117.409 38.6545 117.474 38.591C117.539 38.5275 117.577 38.441 117.58 38.35C117.58 38.26 117.5 38.13 117.32 38Z" fill="black"/>
<path d="M102.93 37.9999C102.708 37.8861 102.468 37.8117 102.22 37.7799L101.83 37.6699C101.697 37.655 101.563 37.655 101.43 37.6699C101.152 37.6981 100.878 37.7516 100.61 37.8299C100.44 37.8714 100.276 37.9318 100.12 38.0099C99.94 38.1299 99.86 38.2599 99.88 38.3599C99.88 38.6699 99.98 38.6599 101.21 38.7999C101.33 38.8149 101.45 38.8149 101.57 38.7999C101.78 38.7999 101.98 38.7399 102.19 38.7099C102.4 38.6799 102.63 38.6299 102.76 38.5899C103.11 38.4799 103.12 38.2199 103.06 38.1299C103 38.0399 103 37.9999 102.93 37.9999Z" fill="black"/>
</g>
<g filter="url(#filter1_d_317_994)">
<circle cx="116" cy="105" r="29" fill="#04FED1"/>
<circle cx="116" cy="105" r="28.5" stroke="#9FC4CC"/>
</g>
<path fill-rule="evenodd" clip-rule="evenodd" d="M111 114.06C110.822 113.724 110.605 113.411 110.354 113.125C110.006 112.766 109.619 112.447 109.199 112.176C109.666 111.693 110.025 111.116 110.25 110.482C110.475 109.849 110.562 109.175 110.505 108.505C110.498 107.359 110.036 106.262 109.222 105.455C108.407 104.649 107.306 104.198 106.16 104.201C104.934 104.171 103.745 104.625 102.85 105.463C101.955 106.302 101.425 107.458 101.375 108.684C101.353 109.456 101.556 110.218 101.958 110.877C102.361 111.536 102.947 112.064 103.644 112.396C103.066 112.702 102.518 113.061 102.007 113.469C101.518 113.891 101.092 114.382 100.742 114.926C100.428 115.401 100.212 115.934 100.108 116.494C100.004 117.054 100.014 117.629 100.137 118.185C100.137 118.245 100.15 118.305 100.173 118.36C100.197 118.415 100.232 118.465 100.276 118.506C100.32 118.548 100.372 118.579 100.428 118.6C100.485 118.62 100.545 118.629 100.605 118.625C100.721 118.608 100.825 118.547 100.897 118.455C100.968 118.363 101.002 118.246 100.99 118.13C100.984 117.492 101.176 116.867 101.54 116.343C101.894 115.797 102.299 115.286 102.75 114.816C103.424 114.074 104.125 113.331 104.702 112.768C105.121 112.872 105.55 112.932 105.981 112.946C106.073 112.929 106.155 112.881 106.214 112.809C106.274 112.737 106.306 112.647 106.306 112.554C106.306 112.462 106.274 112.371 106.214 112.3C106.155 112.228 106.073 112.18 105.981 112.163C103.547 111.915 102.489 110.375 102.612 108.739C102.706 107.872 103.133 107.075 103.802 106.516C104.471 105.957 105.331 105.679 106.201 105.741C106.995 105.727 107.763 106.026 108.337 106.575C108.912 107.123 109.246 107.876 109.267 108.67C109.431 109.475 109.272 110.313 108.825 111.002C108.377 111.691 107.677 112.177 106.875 112.355C106.757 112.369 106.649 112.429 106.574 112.521C106.5 112.614 106.465 112.732 106.476 112.85C106.496 112.964 106.558 113.067 106.65 113.138C106.741 113.209 106.856 113.244 106.971 113.235C107.451 113.182 107.917 113.042 108.346 112.823C108.675 113.21 108.978 113.619 109.254 114.046C109.419 114.294 109.57 114.555 109.707 114.803C109.845 115.05 110.01 115.311 110.147 115.573C110.486 116.222 110.771 116.898 111 117.594C111.026 117.707 111.095 117.806 111.193 117.87C111.29 117.934 111.408 117.958 111.522 117.938C111.58 117.928 111.636 117.906 111.685 117.874C111.734 117.842 111.776 117.8 111.808 117.751C111.841 117.702 111.863 117.647 111.872 117.589C111.882 117.531 111.88 117.472 111.866 117.415C111.82 116.614 111.681 115.82 111.454 115.05C111.331 114.708 111.179 114.376 111 114.06Z" fill="#455173"/>
<path fill-rule="evenodd" clip-rule="evenodd" d="M132.574 115.05C132.46 114.708 132.317 114.377 132.148 114.06C131.97 113.744 131.758 113.449 131.515 113.18C131.167 112.821 130.78 112.502 130.36 112.231C130.84 111.754 131.211 111.179 131.448 110.546C131.686 109.912 131.783 109.235 131.735 108.56C131.728 107.414 131.266 106.317 130.452 105.51C129.637 104.704 128.536 104.253 127.39 104.256C126.168 104.219 124.98 104.661 124.081 105.489C123.181 106.316 122.642 107.463 122.578 108.684C122.543 109.446 122.73 110.202 123.116 110.861C123.501 111.519 124.069 112.053 124.75 112.396C124.17 112.698 123.622 113.058 123.114 113.469C122.62 113.887 122.194 114.379 121.849 114.926C121.534 115.401 121.318 115.934 121.214 116.494C121.11 117.054 121.12 117.629 121.244 118.185C121.27 118.29 121.335 118.382 121.425 118.442C121.516 118.503 121.625 118.528 121.733 118.513C121.84 118.497 121.938 118.443 122.008 118.359C122.077 118.276 122.114 118.17 122.11 118.061C122.116 117.423 122.312 116.8 122.674 116.274C123.014 115.754 123.401 115.266 123.829 114.816C124.503 114.074 125.204 113.331 125.781 112.767C126.2 112.872 126.629 112.932 127.06 112.946C127.151 112.929 127.234 112.88 127.293 112.809C127.353 112.737 127.385 112.647 127.385 112.554C127.385 112.461 127.353 112.371 127.293 112.3C127.234 112.228 127.151 112.18 127.06 112.162C124.75 111.915 123.65 110.375 123.774 108.739C123.868 107.872 124.294 107.075 124.963 106.516C125.633 105.957 126.493 105.679 127.363 105.741C128.157 105.726 128.924 106.026 129.499 106.574C130.073 107.123 130.407 107.876 130.429 108.67C130.591 109.483 130.424 110.327 129.966 111.018C129.507 111.708 128.794 112.189 127.981 112.355C127.923 112.361 127.868 112.379 127.817 112.407C127.766 112.435 127.721 112.473 127.684 112.518C127.648 112.563 127.621 112.615 127.604 112.671C127.588 112.727 127.583 112.785 127.589 112.843C127.596 112.901 127.613 112.957 127.641 113.008C127.669 113.059 127.707 113.104 127.752 113.14C127.798 113.177 127.85 113.204 127.905 113.22C127.961 113.236 128.02 113.241 128.078 113.235C128.557 113.182 129.023 113.042 129.453 112.822C129.781 113.21 130.084 113.619 130.36 114.046C130.525 114.294 130.676 114.555 130.814 114.802C130.951 115.05 131.116 115.311 131.254 115.572C131.588 116.222 131.868 116.898 132.093 117.594C132.119 117.707 132.188 117.806 132.285 117.87C132.382 117.934 132.5 117.958 132.615 117.937C132.672 117.926 132.726 117.903 132.774 117.871C132.823 117.838 132.864 117.797 132.896 117.748C132.928 117.699 132.95 117.645 132.961 117.588C132.971 117.531 132.971 117.472 132.959 117.415C132.921 116.615 132.792 115.821 132.574 115.05Z" fill="#455173"/>
<path fill-rule="evenodd" clip-rule="evenodd" d="M117.779 95.8688C117.572 96.2813 117.394 96.6938 117.174 97.2438L116.72 98.44L116.404 99.375L116.197 100.063L115.317 99.2788L114.217 98.3163L112.471 96.7075C112.435 96.6709 112.393 96.6419 112.345 96.622C112.298 96.6022 112.247 96.592 112.196 96.592C112.145 96.592 112.094 96.6022 112.047 96.622C112 96.6419 111.957 96.6709 111.921 96.7075C111.885 96.7434 111.856 96.7862 111.836 96.8334C111.816 96.8806 111.806 96.9313 111.806 96.9825C111.806 97.0338 111.816 97.0845 111.836 97.1317C111.856 97.1789 111.885 97.2217 111.921 97.2575L113.544 99.045L114.547 100.09L115.537 101.149C115.675 101.286 115.812 101.644 115.936 101.754C116.071 101.87 116.24 101.937 116.417 101.946C116.531 101.946 116.644 101.92 116.746 101.87C116.849 101.82 116.938 101.747 117.009 101.658C117.163 101.471 117.288 101.263 117.38 101.039C117.559 100.64 117.682 100.159 117.792 99.8563L118.122 98.9213L118.576 97.7938L119.731 95.25C120.311 94.1213 120.973 93.0367 121.711 92.005C122.447 90.9948 123.296 90.0722 124.241 89.255C124.332 89.1821 124.391 89.0759 124.404 88.9599C124.417 88.8439 124.383 88.7275 124.31 88.6363C124.237 88.5451 124.131 88.4867 124.015 88.4738C123.899 88.4609 123.782 88.4946 123.691 88.5675C122.623 89.3658 121.653 90.2891 120.804 91.3175C119.946 92.3423 119.169 93.4318 118.48 94.5763C118.205 95.0575 117.985 95.4563 117.779 95.8688Z" fill="#455173"/>
<path fill-rule="evenodd" clip-rule="evenodd" d="M127.239 96.0613C126.983 95.4073 126.646 94.7882 126.235 94.2188C125.641 93.4053 125.003 92.625 124.324 91.8813C124.258 91.8029 124.164 91.7538 124.062 91.7448C123.96 91.7357 123.859 91.7675 123.781 91.8332C123.702 91.8988 123.653 91.9929 123.644 92.0948C123.635 92.1966 123.667 92.2979 123.732 92.3763C124.366 93.1223 124.958 93.9027 125.506 94.7138C125.863 95.233 126.15 95.797 126.359 96.3913C126.723 97.2986 126.81 98.2934 126.609 99.2502C126.409 100.207 125.929 101.083 125.231 101.768C124.078 102.752 122.734 103.487 121.284 103.927C119.834 104.367 118.308 104.502 116.802 104.325C112.76 104.119 110.024 103.101 108.374 101.671C107.644 101.106 107.101 100.334 106.817 99.4561C106.532 98.578 106.519 97.6346 106.779 96.7488C107.81 93.2563 112.567 90.3001 119.484 91.3588C119.542 91.3687 119.601 91.3672 119.658 91.3542C119.715 91.3413 119.769 91.3172 119.817 91.2834C119.865 91.2496 119.906 91.2066 119.937 91.1571C119.968 91.1075 119.989 91.0522 119.999 90.9944C120.009 90.9366 120.008 90.8775 119.995 90.8203C119.982 90.7631 119.958 90.709 119.924 90.6611C119.89 90.6133 119.847 90.5725 119.798 90.5412C119.748 90.5099 119.693 90.4887 119.635 90.4788C112.004 89.1038 106.751 92.5001 105.5 96.3501C104.647 98.9763 105.5 101.85 108.786 103.789C111.23 105.075 113.945 105.763 116.706 105.796C118.413 105.941 120.132 105.73 121.753 105.176C123.375 104.622 124.863 103.738 126.125 102.579C126.934 101.724 127.472 100.649 127.67 99.4889C127.868 98.3289 127.718 97.1361 127.239 96.0613Z" fill="#455173"/>
<g filter="url(#filter2_d_317_994)">
<circle cx="35" cy="35" r="36" transform="matrix(-1 0 0 1 297 69)" fill="#0044CC" stroke="url(#paint3_linear_317_994)" stroke-width="2"/>
<path fill-rule="evenodd" clip-rule="evenodd" d="M252.157 106.465C254.703 107.496 257.451 108.132 260.325 108.296C260.82 108.325 261.32 108.339 261.822 108.339C262.325 108.339 262.824 108.325 263.32 108.296C266.195 108.132 268.943 107.496 271.489 106.465C276.832 104.301 281.284 100.397 284.143 95.4553C279.687 87.7533 271.36 82.5714 261.822 82.5714C252.285 82.5714 243.957 87.7533 239.502 95.4553C242.361 100.397 246.813 104.302 252.157 106.465Z" fill="white"/>
<path d="M271.489 108.47C272.105 108.221 272.708 107.949 273.299 107.654C275.219 109.007 276.843 110.692 278.065 112.614C275.987 115.881 272.751 118.462 268.868 119.892C267.018 120.574 265.02 120.994 262.931 121.103H260.754C258.665 120.994 254.994 123.064 260.325 128.286C256.441 126.855 247.697 115.881 245.62 112.614C246.838 110.697 248.456 109.017 250.369 107.666C250.953 107.956 251.549 108.225 252.157 108.471C254.703 109.502 257.451 110.138 260.325 110.302C260.82 110.331 261.32 110.345 261.822 110.345C262.325 110.345 262.825 110.331 263.32 110.302C266.195 110.138 268.943 109.502 271.489 108.47Z" fill="white"/>
<rect width="21.573" height="7.70465" rx="3.85233" transform="matrix(-1 0 0 1 272.586 92.1594)" fill="#162550"/>
<circle cx="1.41252" cy="1.41252" r="1.41252" transform="matrix(-1 0 0 1 257.262 94.5564)" fill="#04FED1"/>
<circle cx="1.41252" cy="1.41252" r="1.41252" transform="matrix(-1 0 0 1 263.255 113.561)" fill="#162550"/>
<circle cx="1.41252" cy="1.41252" r="1.41252" transform="matrix(-1 0 0 1 268.905 94.5564)" fill="#04FED1"/>
<circle cx="1.41252" cy="1.41252" r="1.41252" transform="matrix(-1 0 0 1 268.905 113.561)" fill="#162550"/>
<circle cx="1.41252" cy="1.41252" r="1.41252" transform="matrix(-1 0 0 1 257.604 113.561)" fill="#162550"/>
</g>
<g filter="url(#filter3_d_317_994)">
<circle cx="45" cy="144" r="24" fill="#FFC7C7"/>
<circle cx="45" cy="144" r="23.5" stroke="#CC9F9F"/>
</g>
<g clip-path="url(#clip1_317_994)">
<path d="M35.0716 138.167V136.475C35.0716 135.95 35.0716 135.308 35.0016 134.783C34.8966 133.418 34.7216 132.123 34.5699 130.817C34.5684 130.763 34.5564 130.71 34.5344 130.661C34.5125 130.612 34.4812 130.568 34.4421 130.531C34.4031 130.494 34.3573 130.466 34.3071 130.447C34.257 130.427 34.2036 130.418 34.1499 130.42C34.0963 130.421 34.0435 130.434 33.9945 130.455C33.9456 130.477 33.9014 130.509 33.8646 130.548C33.8277 130.587 33.799 130.633 33.7799 130.683C33.7608 130.733 33.7517 130.786 33.7533 130.84C33.6833 132.158 33.5783 133.5 33.5316 134.783V136.463C33.5316 136.977 33.6133 137.63 33.6133 138.143C33.6133 140.722 34.7799 140.757 34.9899 140.068C35.0747 139.438 35.102 138.802 35.0716 138.167Z" fill="black"/>
<path d="M44.3116 138.482C44.2183 138.972 44.23 143.148 44.1366 145.587C44.055 147.442 44.02 149.297 44.0083 151.152C43.9966 153.007 44.0083 155.165 44.1716 157.172C44.1747 157.293 44.2252 157.409 44.3124 157.494C44.3996 157.579 44.5165 157.627 44.6383 157.627C44.7611 157.621 44.8768 157.568 44.9615 157.479C45.0463 157.39 45.0934 157.271 45.0933 157.148C45.0933 154.815 45.3383 152.388 45.4783 150.008C45.5833 148.422 45.665 146.812 45.665 145.213C45.6299 142.928 45.4741 140.646 45.1983 138.377C45.1166 137.98 44.3816 138.062 44.3116 138.482Z" fill="black"/>
<path d="M34.7566 151.128C34.7567 151.022 34.7153 150.92 34.6412 150.844C34.5671 150.767 34.4662 150.723 34.36 150.72C34.2517 150.72 34.1478 150.763 34.0712 150.84C33.9946 150.916 33.9516 151.02 33.9516 151.128C33.835 151.898 33.6833 152.633 33.6016 153.403V154.383V155.363C33.6716 156.122 33.7883 156.868 33.87 157.697C33.8875 157.806 33.9435 157.906 34.0279 157.978C34.1124 158.05 34.2198 158.09 34.3308 158.09C34.4418 158.09 34.5492 158.05 34.6337 157.978C34.7181 157.906 34.7741 157.806 34.7916 157.697C34.8733 156.927 35.0016 156.18 35.06 155.363V154.383C35.0832 154.057 35.0832 153.73 35.06 153.403C35.025 152.633 34.8733 151.898 34.7566 151.128Z" fill="black"/>
<path d="M55.3133 137.595V135.915C55.3133 135.402 55.3133 134.748 55.2433 134.223C55.1267 132.905 54.9517 131.61 54.8 130.303C54.8 130.195 54.757 130.091 54.6804 130.015C54.6038 129.938 54.5 129.895 54.3917 129.895C54.2834 129.895 54.1795 129.938 54.1029 130.015C54.0263 130.091 53.9833 130.195 53.9833 130.303C53.9133 131.622 53.7967 132.917 53.7617 134.235V135.927C53.7617 136.452 53.8433 137.093 53.8433 137.607C53.8433 140.185 55.01 140.22 55.2083 139.532C55.3105 138.892 55.3457 138.242 55.3133 137.595Z" fill="black"/>
<path d="M34.9083 141.27C34.5691 141.231 34.2259 141.251 33.8933 141.328C31.4083 141.807 30.4866 143.662 30.8366 145.295C31.77 149.658 40.3333 149.402 38.8166 144.21C38.5447 143.379 38.0241 142.651 37.3251 142.125C36.6261 141.599 35.7825 141.301 34.9083 141.27ZM32.1666 145.085C32.015 143.918 32.7383 142.857 34.5 142.752C35.154 142.663 35.8189 142.799 36.3851 143.138C36.9513 143.478 37.3851 144 37.615 144.618C38.945 148.34 32.575 148.515 32.1666 145.085Z" fill="black"/>
<path d="M44.1717 130.49C41.3133 130.805 40.31 132.823 40.6717 134.585C40.853 135.384 41.2955 136.101 41.9294 136.62C42.5632 137.14 43.3522 137.434 44.1717 137.455C46.575 137.642 49.6667 137.175 48.5933 133.5C48.3002 132.575 47.7049 131.776 46.9031 131.23C46.1013 130.684 45.1394 130.424 44.1717 130.49ZM45 136.685C44.2994 136.752 43.5998 136.548 43.046 136.113C42.4921 135.679 42.1266 135.048 42.025 134.352C41.8733 133.185 42.5967 132.123 44.3583 132.018C45.0133 131.934 45.6774 132.074 46.2428 132.415C46.8083 132.756 47.2419 133.278 47.4733 133.897C48.5583 137 45 136.673 45 136.685Z" fill="black"/>
<path d="M55.1499 140.745C54.81 140.716 54.4677 140.74 54.1349 140.815C51.6499 141.293 50.7283 143.148 51.0783 144.782C52.0116 149.145 60.5749 148.888 59.0583 143.697C58.7869 142.864 58.2667 142.135 57.5678 141.607C56.869 141.079 56.0251 140.778 55.1499 140.745ZM52.3616 144.56C52.2099 143.393 52.9333 142.332 54.6949 142.227C55.3536 142.137 56.0231 142.274 56.5934 142.616C57.1638 142.957 57.601 143.482 57.8333 144.105C59.1866 147.827 52.8166 148.002 52.3616 144.56Z" fill="black"/>
<path d="M54.9983 150.615C54.9984 150.509 54.957 150.407 54.8829 150.33C54.8088 150.254 54.7079 150.21 54.6017 150.207C54.548 150.207 54.4949 150.217 54.4454 150.238C54.3959 150.258 54.3508 150.288 54.3129 150.326C54.275 150.364 54.2449 150.409 54.2244 150.459C54.2039 150.508 54.1933 150.561 54.1933 150.615C54.0767 151.373 53.925 152.12 53.8433 152.89V153.87V154.838C53.9133 155.608 54.03 156.355 54.1117 157.172C54.1292 157.281 54.1852 157.381 54.2696 157.453C54.3541 157.525 54.4615 157.565 54.5725 157.565C54.6835 157.565 54.7909 157.525 54.8754 157.453C54.9598 157.381 55.0158 157.281 55.0333 157.172C55.115 156.402 55.2433 155.655 55.3017 154.838V153.87C55.3249 153.544 55.3249 153.216 55.3017 152.89C55.2667 152.167 55.115 151.385 54.9983 150.615Z" fill="black"/>
</g>
<g filter="url(#filter4_d_317_994)">
<circle cx="45" cy="70" r="24" fill="#FFF9C7"/>
<circle cx="45" cy="70" r="23.5" stroke="#CCC89F"/>
</g>
<g clip-path="url(#clip2_317_994)">
<path fill-rule="evenodd" clip-rule="evenodd" d="M57 57.68C56.4669 57.2777 55.8061 57.0823 55.14 57.13C54.8982 57.1567 54.6621 57.2208 54.44 57.32C54.1453 57.4844 53.8731 57.686 53.63 57.92C53.597 57.9517 53.5708 57.9898 53.5528 58.0319C53.5349 58.074 53.5257 58.1192 53.5257 58.165C53.5257 58.2107 53.5349 58.256 53.5528 58.2981C53.5708 58.3402 53.597 58.3783 53.63 58.41C53.6608 58.4427 53.698 58.4687 53.7393 58.4865C53.7805 58.5043 53.825 58.5135 53.87 58.5135C53.9149 58.5135 53.9594 58.5043 54.0006 58.4865C54.0419 58.4687 54.0791 58.4427 54.11 58.41C54.2747 58.2585 54.452 58.1214 54.64 58C54.8189 57.9024 55.0167 57.8444 55.22 57.83C55.6873 57.8291 56.1401 57.9918 56.5 58.29C56.6821 58.4052 56.8354 58.5607 56.9481 58.7445C57.0608 58.9282 57.1298 59.1354 57.15 59.35C57.1536 59.6968 57.0747 60.0396 56.92 60.35C56.7586 60.6673 56.5532 60.9602 56.31 61.22L55.1 62.58C54.8 62.26 54.49 61.94 54.16 61.64C54 61.49 53.83 61.36 53.67 61.22L53.34 61L52.5 60.51L52.34 60.39L52.61 60L53.29 59.15C53.3139 59.1173 53.3307 59.0799 53.3393 59.0403C53.348 59.0007 53.3482 58.9597 53.34 58.92C53.34 58.77 53.19 58.54 52.89 58.72C52.6 58.5 52.35 58.24 52.07 58.02C51.8997 57.8922 51.7151 57.7849 51.52 57.7C51.3615 57.634 51.1916 57.6 51.02 57.6C50.8483 57.6 50.6784 57.634 50.52 57.7C50.2129 57.8509 49.9298 58.0463 49.68 58.28C49.3501 58.5731 49.0395 58.8871 48.75 59.22C48.3498 59.7248 47.9792 60.2523 47.64 60.8C47.5758 60.8654 47.5399 60.9534 47.5399 61.045C47.5399 61.1366 47.5758 61.2246 47.64 61.29C47.7037 61.3535 47.79 61.3892 47.88 61.3892C47.9699 61.3892 48.0562 61.3535 48.12 61.29C48.42 60.98 48.73 60.7 49.03 60.42C49.4772 59.9972 49.948 59.5999 50.44 59.23C50.58 59.11 50.75 58.96 50.93 58.83C51.11 58.7 51.09 58.67 51.2 58.69C51.3299 58.7092 51.4574 58.7427 51.58 58.79C51.86 58.92 52.13 59.09 52.41 59.23L52.06 59.64C50.67 61.27 47.62 64.84 46.37 66.46C46.0866 66.7867 45.8662 67.163 45.72 67.57C45.72 67.85 45.59 69.86 45.61 70.68C45.5982 70.7796 45.5982 70.8803 45.61 70.98C45.4566 71.0735 45.3096 71.1771 45.17 71.29C45.0825 71.3658 45.0022 71.4495 44.93 71.54C44.8609 71.6293 44.7975 71.7228 44.74 71.82C44.19 72.72 44.31 72.82 44.32 72.82C44.3338 72.8965 44.3769 72.9646 44.44 73.01C44.4975 73.0633 44.5717 73.0951 44.65 73.1C44.65 73.1 44.8 73.19 45.59 72.49C45.6797 72.4203 45.7603 72.3397 45.83 72.25C45.9062 72.1675 45.9732 72.0769 46.03 71.98C46.1069 71.8486 46.1738 71.7115 46.23 71.57C46.4514 71.6108 46.6785 71.6108 46.9 71.57C47.7638 71.3698 48.6126 71.1091 49.44 70.79C49.6049 70.7257 49.7499 70.6187 49.86 70.48C50.11 70.21 50.6 69.64 51.21 68.89C52.97 66.73 55.78 63.12 56.91 61.81C57.201 61.4794 57.4434 61.109 57.63 60.71C57.8509 60.2962 57.9773 59.8385 58 59.37C57.9683 59.0319 57.8623 58.7051 57.6894 58.4129C57.5165 58.1207 57.281 57.8704 57 57.68ZM49.24 69.53L49.05 69.73C48.319 70.0328 47.5627 70.2704 46.79 70.44V67.71C46.88 67.71 46.17 68.2 51.88 60.92L52.01 61.05L52.55 61.7C52.8115 62.0179 53.1103 62.3033 53.44 62.55C53.7984 62.7884 54.1726 63.0022 54.56 63.19C53.71 64.19 52.73 65.33 51.83 66.41C50.73 67.76 49.73 69 49.24 69.53Z" fill="black"/>
<path fill-rule="evenodd" clip-rule="evenodd" d="M52.63 74.53L51.93 72.93C51.9217 72.8863 51.9041 72.8449 51.8784 72.8086C51.8527 72.7722 51.8195 72.7419 51.781 72.7196C51.7425 72.6972 51.6997 72.6835 51.6554 72.6792C51.6111 72.6749 51.5664 72.6801 51.5243 72.6946C51.4823 72.7091 51.4438 72.7325 51.4116 72.7632C51.3794 72.7939 51.3542 72.8311 51.3376 72.8724C51.3211 72.9137 51.3136 72.9581 51.3158 73.0026C51.3179 73.047 51.3296 73.0905 51.35 73.13L52.04 74.83C52.58 75.91 53.04 76.46 53.26 76.9C53.4013 77.119 53.4515 77.3845 53.4 77.64C53.4 77.69 53.3 77.7 53.2 77.76C52.8511 77.9452 52.482 78.0895 52.1 78.19C49.7722 78.8013 47.3972 79.2161 45 79.43C42.6291 79.7299 40.2356 79.8102 37.85 79.67C37.5124 79.6416 37.1779 79.5848 36.85 79.5C36.7534 79.4639 36.6598 79.4205 36.57 79.37C36.4528 79.1602 36.3492 78.9431 36.26 78.72C36.163 78.5121 36.0892 78.2941 36.04 78.07C35.5557 75.3091 35.2484 72.5201 35.12 69.72C34.9128 67.0306 34.9128 64.3293 35.12 61.64C36.05 61.42 37.31 61.21 38.72 61.03C40.61 60.79 42.72 60.62 44.72 60.55C44.7655 60.55 44.8105 60.5409 44.8524 60.5232C44.8944 60.5055 44.9323 60.4795 44.964 60.4469C44.9957 60.4143 45.0205 60.3756 45.037 60.3332C45.0535 60.2908 45.0613 60.2455 45.06 60.2C45.0574 60.1089 45.0194 60.0224 44.954 59.9589C44.8886 59.8954 44.8011 59.8599 44.71 59.86C42.71 59.86 40.58 60.02 38.66 60.21C37.316 60.3358 35.9804 60.5395 34.66 60.82C34.5735 60.842 34.4954 60.8888 34.435 60.9545C34.3746 61.0202 34.3347 61.102 34.32 61.19C33.983 64.0404 33.906 66.9156 34.09 69.78C34.1984 72.6374 34.5024 75.4841 35 78.3C35.0591 78.5441 35.1326 78.7845 35.22 79.02C35.3552 79.3419 35.5087 79.6557 35.68 79.96C35.8974 80.2097 36.1643 80.4116 36.4638 80.5528C36.7634 80.6939 37.089 80.7713 37.42 80.78C39.3989 80.9491 41.3903 80.9055 43.36 80.65C46.6777 80.3714 49.9505 79.7 53.11 78.65C53.79 78.36 54.11 78.01 54.18 77.74C54.2402 77.4526 54.2159 77.1539 54.11 76.88C53.87 76.39 53.34 75.88 52.63 74.53Z" fill="black"/>
<path fill-rule="evenodd" clip-rule="evenodd" d="M43.67 68.63C43.6398 68.5342 43.5747 68.4533 43.4877 68.4033C43.4006 68.3533 43.2979 68.3378 43.2 68.36C43.12 68.36 43.2 68.28 42.85 68.36C42.08 68.45 40.85 68.66 39.79 68.81C39.47 68.86 39.16 68.9 38.88 68.96C38.23 69.08 37.74 69.22 37.55 69.24C37.486 69.2523 37.4283 69.2864 37.3868 69.3366C37.3453 69.3868 37.3226 69.4499 37.3226 69.515C37.3226 69.5801 37.3453 69.6432 37.3868 69.6934C37.4283 69.7436 37.486 69.7778 37.55 69.79C38.0492 69.8692 38.5546 69.9027 39.06 69.89C39.51 69.89 40.06 69.83 40.53 69.78C41.3174 69.7044 42.0991 69.5775 42.87 69.4C43.6 69.16 43.73 68.85 43.67 68.63Z" fill="black"/>
<path fill-rule="evenodd" clip-rule="evenodd" d="M39.45 64.77C38.7724 64.9195 38.1046 65.1098 37.45 65.34C37.3781 65.3589 37.3162 65.4048 37.2771 65.4681C37.238 65.5313 37.2247 65.6072 37.24 65.68C37.2588 65.7515 37.3051 65.8126 37.3688 65.85C37.4325 65.8875 37.5084 65.8983 37.58 65.88C38.47 65.74 39.33 65.71 40.23 65.64C41.47 65.53 42.76 65.4 44.23 65.21C44.61 65.16 45.01 65.13 45.41 65.04C45.5379 65.0442 45.6658 65.0308 45.79 65C45.85 65 45.87 64.93 45.93 64.89C46.0275 64.8728 46.1145 64.8183 46.1724 64.738C46.2303 64.6577 46.2545 64.5579 46.24 64.46C46.18 64 45.38 64 45.3 64C43.59 64.12 42.14 64.33 40.79 64.51C40.33 64.61 39.89 64.67 39.45 64.77Z" fill="black"/>
<path fill-rule="evenodd" clip-rule="evenodd" d="M42.81 72.84C42.68 72.84 42.52 72.84 42.34 72.89L41.04 73.09C40.36 73.2 39.64 73.31 39.09 73.45C38.7851 73.527 38.4847 73.6204 38.19 73.73H38.13C38.0811 73.7152 38.0289 73.7152 37.98 73.73C37.98 73.73 37.85 74.22 38.26 74.26C38.43 74.26 38.76 74.32 39.26 74.32C39.9292 74.2984 40.5967 74.2416 41.26 74.15C41.75 74.09 42.26 74.02 42.59 73.95C42.7323 73.9271 42.8726 73.8937 43.01 73.85C43.181 73.7788 43.3396 73.6809 43.48 73.56C43.5716 73.511 43.6405 73.4283 43.6723 73.3294C43.704 73.2305 43.696 73.1231 43.65 73.03C43.56 73 43.52 72.86 42.81 72.84Z" fill="black"/>
</g>
<g filter="url(#filter5_d_317_994)">
<circle cx="107" cy="178" r="24" fill="#CFFFC7"/>
<circle cx="107" cy="178" r="23.5" stroke="#9FC4CC"/>
</g>
<g clip-path="url(#clip3_317_994)">
<path d="M115.43 176.27C115.388 176.228 115.338 176.194 115.283 176.171C115.228 176.148 115.17 176.136 115.11 176.136C115.05 176.136 114.992 176.148 114.937 176.171C114.882 176.194 114.832 176.228 114.79 176.27C114.459 176.58 114.151 176.914 113.87 177.27C113.44 177.79 113.05 178.35 112.65 178.86C111.81 179.96 110.97 181.05 110.09 182.12C109.51 182.83 108.91 183.53 108.29 184.21C107.84 184.72 107.29 185.44 106.64 186.07C106.288 186.464 105.892 186.816 105.46 187.12C104.98 187.333 104.46 187.443 103.935 187.443C103.41 187.443 102.89 187.333 102.41 187.12C101.364 186.782 100.434 186.154 99.73 185.31C99.4864 184.984 99.3232 184.604 99.2537 184.203C99.1842 183.802 99.2103 183.389 99.33 183C99.7769 181.718 100.385 180.498 101.14 179.37C101.4 178.91 101.66 178.46 101.94 178.01C102.22 177.56 102.49 177.12 102.79 176.69L104.23 174.69C104.97 173.69 105.72 172.69 106.56 171.69C107.1 171.066 107.703 170.5 108.36 170C108.64 169.79 108.92 169.55 109.21 169.36C109.374 169.247 109.552 169.156 109.74 169.09C110.299 168.93 110.891 168.93 111.45 169.09C112.038 169.251 112.596 169.508 113.1 169.85C113.351 170.019 113.548 170.257 113.665 170.536C113.782 170.815 113.815 171.123 113.76 171.42C113.559 172.48 113.091 173.471 112.4 174.3L111.6 175.3L110.6 176.64L109.25 178.45L107.6 180.67C107.278 181.106 106.927 181.52 106.55 181.91C106.181 182.295 105.765 182.631 105.31 182.91C105.043 183.048 104.75 183.128 104.45 183.143C104.15 183.159 103.85 183.11 103.57 183C103.306 182.937 103.072 182.784 102.909 182.566C102.747 182.349 102.666 182.081 102.68 181.81C102.747 181.354 102.918 180.919 103.18 180.54C103.6 179.85 104.18 179.19 104.54 178.67C104.9 178.15 105.39 177.44 105.85 176.85C106.151 176.471 106.486 176.119 106.85 175.8C106.902 175.767 106.946 175.722 106.98 175.67C107.013 175.618 107.035 175.56 107.044 175.498C107.053 175.437 107.048 175.375 107.03 175.315C107.013 175.256 106.983 175.201 106.942 175.155C106.901 175.108 106.851 175.071 106.794 175.046C106.738 175.02 106.677 175.007 106.615 175.008C106.553 175.008 106.492 175.022 106.436 175.049C106.38 175.075 106.33 175.113 106.29 175.16C105.9 175.518 105.542 175.91 105.22 176.33C104.76 176.93 104.34 177.58 103.91 178.18C103.48 178.78 102.91 179.4 102.52 180.12C102.195 180.606 101.987 181.161 101.91 181.74C101.88 182.105 101.958 182.472 102.136 182.792C102.314 183.113 102.584 183.373 102.91 183.54C103.342 183.791 103.83 183.929 104.33 183.943C104.829 183.957 105.324 183.846 105.77 183.62C106.184 183.38 106.569 183.095 106.92 182.77C107.428 182.285 107.897 181.76 108.32 181.2L109.9 179L111.29 177.16L112.29 175.86L113.09 174.86C113.89 173.905 114.434 172.763 114.67 171.54C114.752 171.075 114.696 170.597 114.51 170.163C114.323 169.73 114.014 169.36 113.62 169.1C113.03 168.693 112.374 168.391 111.68 168.21C110.955 168.001 110.185 168.001 109.46 168.21C109.189 168.298 108.933 168.426 108.7 168.59C108.4 168.79 108.11 169.04 107.82 169.26C107.117 169.801 106.471 170.41 105.89 171.08C105.04 172.08 104.29 173.14 103.54 174.17L102.11 176.24C101.81 176.69 101.52 177.14 101.24 177.6C100.96 178.06 100.71 178.53 100.45 179C99.6683 180.195 99.0432 181.486 98.59 182.84C98.4434 183.341 98.4177 183.87 98.5151 184.382C98.6124 184.895 98.83 185.378 99.15 185.79C99.9365 186.745 100.976 187.459 102.15 187.85C102.737 188.1 103.371 188.222 104.009 188.208C104.647 188.194 105.274 188.045 105.85 187.77C106.21 187.523 106.545 187.242 106.85 186.93C107.57 186.23 108.3 185.35 108.85 184.77C109.4 184.19 110.09 183.38 110.69 182.67C111.59 181.6 112.45 180.51 113.31 179.42C113.71 178.91 114.11 178.37 114.53 177.85C114.796 177.521 115.083 177.211 115.39 176.92C115.435 176.88 115.472 176.831 115.499 176.777C115.526 176.723 115.541 176.664 115.545 176.603C115.549 176.543 115.54 176.482 115.521 176.425C115.501 176.368 115.47 176.315 115.43 176.27Z" fill="black"/>
<path d="M97.44 181.37C97.44 181.56 96.53 181.18 95.73 181.6C94.67 182.17 94.88 180.81 95.64 180.71C96.65 180.57 97.53 180.94 97.44 181.37Z" fill="black"/>
<path d="M100.31 174.82C100.38 174.63 99.57 174.11 99.1 173.33C98.47 172.33 97.96 173.59 98.57 174.06C99.37 174.69 100.17 175.23 100.31 174.82Z" fill="black"/>
<path d="M104.76 169.25C104.56 169.25 104.63 168.33 103.95 167.72C103.06 166.91 104.41 166.65 104.77 167.33C105.24 168.23 105.19 169.19 104.76 169.25Z" fill="black"/>
<path d="M108.44 186.75C108.27 186.87 108.97 187.52 108.89 188.42C108.78 189.62 109.95 188.89 109.75 188.16C109.47 187.17 108.79 186.51 108.44 186.75Z" fill="black"/>
<path d="M113.34 181.55C113.49 181.42 114.28 181.95 115.18 182.09C116.37 182.26 115.39 183.23 114.72 182.86C113.83 182.37 113 181.84 113.34 181.55Z" fill="black"/>
<path d="M116.56 175.05C116.56 175.25 117.46 174.83 118.28 175.23C119.36 175.76 119.1 174.41 118.34 174.33C117.32 174.23 116.46 174.63 116.56 175.05Z" fill="black"/>
</g>
<g filter="url(#filter6_d_317_994)">
<circle cx="116" cy="105" r="34.5" stroke="url(#paint4_linear_317_994)" shape-rendering="crispEdges"/>
</g>
<g filter="url(#filter7_d_317_994)">
<circle cx="116" cy="105" r="40.5" stroke="url(#paint5_linear_317_994)" shape-rendering="crispEdges"/>
</g>
<path d="M156 89H221" stroke="url(#paint6_linear_317_994)" stroke-width="2" stroke-linecap="round"/>
<path d="M222 112H161" stroke="url(#paint7_linear_317_994)" stroke-width="2" stroke-linecap="round"/>
<path d="M221 96H166" stroke="url(#paint8_linear_317_994)" stroke-width="2" stroke-linecap="round"/>
<path d="M160 104H212" stroke="url(#paint9_linear_317_994)" stroke-width="2" stroke-linecap="round"/>
<path d="M159 120H214" stroke="url(#paint10_linear_317_994)" stroke-width="2" stroke-linecap="round"/>
<path fill-rule="evenodd" clip-rule="evenodd" d="M250 174.465C258.284 174.465 265 167.749 265 159.465C265 151.181 258.284 144.465 250 144.465H197.497L181.809 132.612C179.832 131.119 177 132.528 177 135.005V156.303C177 156.642 177.056 156.967 177.159 157.27C177.054 157.987 177 158.72 177 159.465C177 167.749 183.716 174.465 192 174.465H250Z" fill="#99BBFF"/>
<path d="M189.572 154.773V153.545H196.89V154.773H193.94V163H192.518V154.773H189.572ZM197.659 163V155.909H198.994V157.036H199.067C199.197 156.654 199.424 156.354 199.751 156.135C200.08 155.914 200.452 155.803 200.868 155.803C200.954 155.803 201.056 155.806 201.172 155.812C201.293 155.818 201.386 155.826 201.454 155.835V157.156C201.399 157.14 201.3 157.123 201.159 157.105C201.017 157.083 200.876 157.072 200.734 157.072C200.408 157.072 200.117 157.142 199.861 157.28C199.609 157.416 199.409 157.605 199.261 157.848C199.114 158.088 199.04 158.362 199.04 158.67V163H197.659ZM204.649 163.157C204.199 163.157 203.793 163.074 203.43 162.908C203.067 162.738 202.779 162.494 202.567 162.174C202.357 161.854 202.253 161.461 202.253 160.996C202.253 160.596 202.33 160.267 202.484 160.009C202.637 159.75 202.845 159.545 203.107 159.395C203.368 159.244 203.661 159.13 203.984 159.053C204.307 158.976 204.636 158.917 204.972 158.877C205.397 158.828 205.741 158.788 206.006 158.757C206.271 158.724 206.463 158.67 206.583 158.596C206.703 158.522 206.763 158.402 206.763 158.236V158.203C206.763 157.8 206.649 157.488 206.421 157.266C206.197 157.045 205.861 156.934 205.415 156.934C204.95 156.934 204.584 157.037 204.316 157.243C204.052 157.446 203.869 157.673 203.767 157.922L202.47 157.626C202.624 157.196 202.848 156.848 203.144 156.583C203.442 156.315 203.785 156.121 204.173 156.001C204.561 155.878 204.969 155.817 205.397 155.817C205.68 155.817 205.98 155.851 206.297 155.918C206.617 155.983 206.915 156.103 207.192 156.278C207.472 156.454 207.702 156.705 207.88 157.031C208.059 157.354 208.148 157.774 208.148 158.291V163H206.8V162.031H206.745C206.655 162.209 206.521 162.384 206.343 162.557C206.164 162.729 205.935 162.872 205.655 162.986C205.375 163.1 205.04 163.157 204.649 163.157ZM204.949 162.049C205.33 162.049 205.657 161.974 205.927 161.823C206.201 161.672 206.409 161.475 206.551 161.232C206.695 160.986 206.768 160.723 206.768 160.442V159.528C206.718 159.578 206.623 159.624 206.481 159.667C206.343 159.707 206.184 159.742 206.006 159.773C205.827 159.801 205.654 159.827 205.484 159.852C205.315 159.873 205.173 159.892 205.06 159.907C204.792 159.941 204.547 159.998 204.326 160.078C204.107 160.158 203.932 160.273 203.799 160.424C203.67 160.572 203.605 160.769 203.605 161.015C203.605 161.357 203.732 161.615 203.984 161.79C204.236 161.963 204.558 162.049 204.949 162.049ZM209.987 163V155.909H211.367V163H209.987ZM210.684 154.815C210.444 154.815 210.237 154.735 210.065 154.575C209.896 154.412 209.811 154.218 209.811 153.993C209.811 153.766 209.896 153.572 210.065 153.412C210.237 153.248 210.444 153.167 210.684 153.167C210.924 153.167 211.128 153.248 211.298 153.412C211.47 153.572 211.556 153.766 211.556 153.993C211.556 154.218 211.47 154.412 211.298 154.575C211.128 154.735 210.924 154.815 210.684 154.815ZM214.604 158.79V163H213.224V155.909H214.549V157.063H214.636C214.8 156.688 215.055 156.386 215.403 156.158C215.754 155.931 216.195 155.817 216.728 155.817C217.211 155.817 217.634 155.918 217.997 156.121C218.36 156.321 218.642 156.62 218.842 157.017C219.042 157.414 219.142 157.905 219.142 158.49V163H217.762V158.656C217.762 158.142 217.628 157.74 217.36 157.451C217.092 157.159 216.725 157.012 216.257 157.012C215.937 157.012 215.652 157.082 215.403 157.22C215.157 157.359 214.961 157.562 214.816 157.83C214.675 158.094 214.604 158.414 214.604 158.79ZM226.497 163.157C226.048 163.157 225.642 163.074 225.279 162.908C224.915 162.738 224.628 162.494 224.415 162.174C224.206 161.854 224.101 161.461 224.101 160.996C224.101 160.596 224.178 160.267 224.332 160.009C224.486 159.75 224.694 159.545 224.955 159.395C225.217 159.244 225.509 159.13 225.833 159.053C226.156 158.976 226.485 158.917 226.82 158.877C227.245 158.828 227.59 158.788 227.855 158.757C228.119 158.724 228.312 158.67 228.432 158.596C228.552 158.522 228.612 158.402 228.612 158.236V158.203C228.612 157.8 228.498 157.488 228.27 157.266C228.045 157.045 227.71 156.934 227.264 156.934C226.799 156.934 226.433 157.037 226.165 157.243C225.9 157.446 225.717 157.673 225.616 157.922L224.318 157.626C224.472 157.196 224.697 156.848 224.992 156.583C225.291 156.315 225.634 156.121 226.022 156.001C226.41 155.878 226.817 155.817 227.245 155.817C227.528 155.817 227.828 155.851 228.145 155.918C228.465 155.983 228.764 156.103 229.041 156.278C229.321 156.454 229.55 156.705 229.729 157.031C229.907 157.354 229.997 157.774 229.997 158.291V163H228.649V162.031H228.593C228.504 162.209 228.37 162.384 228.192 162.557C228.013 162.729 227.784 162.872 227.504 162.986C227.224 163.1 226.888 163.157 226.497 163.157ZM226.797 162.049C227.179 162.049 227.505 161.974 227.776 161.823C228.05 161.672 228.258 161.475 228.399 161.232C228.544 160.986 228.616 160.723 228.616 160.442V159.528C228.567 159.578 228.472 159.624 228.33 159.667C228.192 159.707 228.033 159.742 227.855 159.773C227.676 159.801 227.502 159.827 227.333 159.852C227.164 159.873 227.022 159.892 226.908 159.907C226.64 159.941 226.396 159.998 226.174 160.078C225.956 160.158 225.78 160.273 225.648 160.424C225.519 160.572 225.454 160.769 225.454 161.015C225.454 161.357 225.58 161.615 225.833 161.79C226.085 161.963 226.407 162.049 226.797 162.049ZM231.946 163V153.545H233.326V157.059H233.409C233.489 156.911 233.605 156.74 233.756 156.546C233.906 156.352 234.116 156.183 234.383 156.038C234.651 155.891 235.005 155.817 235.445 155.817C236.018 155.817 236.529 155.961 236.978 156.251C237.427 156.54 237.78 156.957 238.035 157.502C238.294 158.047 238.423 158.702 238.423 159.468C238.423 160.235 238.295 160.892 238.04 161.44C237.784 161.984 237.433 162.404 236.987 162.7C236.541 162.992 236.032 163.138 235.459 163.138C235.028 163.138 234.676 163.066 234.402 162.922C234.131 162.777 233.919 162.608 233.765 162.414C233.611 162.22 233.492 162.047 233.409 161.897H233.294V163H231.946ZM233.299 159.455C233.299 159.953 233.371 160.39 233.516 160.766C233.66 161.141 233.869 161.435 234.143 161.647C234.417 161.857 234.753 161.961 235.15 161.961C235.562 161.961 235.907 161.852 236.184 161.634C236.461 161.412 236.67 161.112 236.812 160.733C236.956 160.355 237.029 159.929 237.029 159.455C237.029 158.987 236.958 158.567 236.816 158.194C236.678 157.822 236.469 157.528 236.188 157.312C235.911 157.097 235.565 156.989 235.15 156.989C234.75 156.989 234.411 157.092 234.134 157.299C233.86 157.505 233.652 157.793 233.511 158.162C233.369 158.531 233.299 158.962 233.299 159.455ZM242.96 163.143C242.295 163.143 241.715 162.991 241.219 162.686C240.724 162.381 240.339 161.955 240.065 161.407C239.791 160.859 239.654 160.219 239.654 159.487C239.654 158.751 239.791 158.108 240.065 157.557C240.339 157.006 240.724 156.578 241.219 156.274C241.715 155.969 242.295 155.817 242.96 155.817C243.624 155.817 244.205 155.969 244.7 156.274C245.196 156.578 245.58 157.006 245.854 157.557C246.128 158.108 246.265 158.751 246.265 159.487C246.265 160.219 246.128 160.859 245.854 161.407C245.58 161.955 245.196 162.381 244.7 162.686C244.205 162.991 243.624 163.143 242.96 163.143ZM242.964 161.984C243.395 161.984 243.752 161.871 244.035 161.643C244.318 161.415 244.528 161.112 244.663 160.733C244.802 160.355 244.871 159.938 244.871 159.482C244.871 159.03 244.802 158.614 244.663 158.236C244.528 157.854 244.318 157.548 244.035 157.317C243.752 157.086 243.395 156.971 242.964 156.971C242.53 156.971 242.17 157.086 241.884 157.317C241.601 157.548 241.39 157.854 241.252 158.236C241.116 158.614 241.048 159.03 241.048 159.482C241.048 159.938 241.116 160.355 241.252 160.733C241.39 161.112 241.601 161.415 241.884 161.643C242.17 161.871 242.53 161.984 242.964 161.984ZM251.116 155.909V157.017H247.243V155.909H251.116ZM248.281 154.21H249.662V160.918C249.662 161.186 249.702 161.387 249.782 161.523C249.862 161.655 249.965 161.746 250.091 161.795C250.22 161.841 250.36 161.864 250.511 161.864C250.622 161.864 250.719 161.857 250.802 161.841C250.885 161.826 250.95 161.814 250.996 161.804L251.245 162.945C251.165 162.975 251.051 163.006 250.903 163.037C250.756 163.071 250.571 163.089 250.35 163.092C249.986 163.098 249.648 163.034 249.334 162.898C249.02 162.763 248.766 162.554 248.572 162.271C248.378 161.987 248.281 161.632 248.281 161.204V154.21Z" fill="#444444"/>
<defs>
<filter id="filter0_d_317_994" x="69" y="0" width="76" height="76" filterUnits="userSpaceOnUse" color-interpolation-filters="sRGB">
<feFlood flood-opacity="0" result="BackgroundImageFix"/>
<feColorMatrix in="SourceAlpha" type="matrix" values="0 0 0 0 0 0 0 0 0 0 0 0 0 0 0 0 0 0 127 0" result="hardAlpha"/>
<feOffset dy="4"/>
<feGaussianBlur stdDeviation="7"/>
<feComposite in2="hardAlpha" operator="out"/>
<feColorMatrix type="matrix" values="0 0 0 0 0.282353 0 0 0 0 0.0470588 0 0 0 0 0.658824 0 0 0 0.15 0"/>
<feBlend mode="normal" in2="BackgroundImageFix" result="effect1_dropShadow_317_994"/>
<feBlend mode="normal" in="SourceGraphic" in2="effect1_dropShadow_317_994" result="shape"/>
</filter>
<filter id="filter1_d_317_994" x="73" y="66" width="86" height="86" filterUnits="userSpaceOnUse" color-interpolation-filters="sRGB">
<feFlood flood-opacity="0" result="BackgroundImageFix"/>
<feColorMatrix in="SourceAlpha" type="matrix" values="0 0 0 0 0 0 0 0 0 0 0 0 0 0 0 0 0 0 127 0" result="hardAlpha"/>
<feOffset dy="4"/>
<feGaussianBlur stdDeviation="7"/>
<feComposite in2="hardAlpha" operator="out"/>
<feColorMatrix type="matrix" values="0 0 0 0 0.282353 0 0 0 0 0.0470588 0 0 0 0 0.658824 0 0 0 0.15 0"/>
<feBlend mode="normal" in2="BackgroundImageFix" result="effect1_dropShadow_317_994"/>
<feBlend mode="normal" in="SourceGraphic" in2="effect1_dropShadow_317_994" result="shape"/>
</filter>
<filter id="filter2_d_317_994" x="191" y="37" width="142" height="142" filterUnits="userSpaceOnUse" color-interpolation-filters="sRGB">
<feFlood flood-opacity="0" result="BackgroundImageFix"/>
<feColorMatrix in="SourceAlpha" type="matrix" values="0 0 0 0 0 0 0 0 0 0 0 0 0 0 0 0 0 0 127 0" result="hardAlpha"/>
<feOffset dy="4"/>
<feGaussianBlur stdDeviation="17"/>
<feComposite in2="hardAlpha" operator="out"/>
<feColorMatrix type="matrix" values="0 0 0 0 0 0 0 0 0 0.166667 0 0 0 0 0.5 0 0 0 0.2 0"/>
<feBlend mode="normal" in2="BackgroundImageFix" result="effect1_dropShadow_317_994"/>
<feBlend mode="normal" in="SourceGraphic" in2="effect1_dropShadow_317_994" result="shape"/>
</filter>
<filter id="filter3_d_317_994" x="7" y="110" width="76" height="76" filterUnits="userSpaceOnUse" color-interpolation-filters="sRGB">
<feFlood flood-opacity="0" result="BackgroundImageFix"/>
<feColorMatrix in="SourceAlpha" type="matrix" values="0 0 0 0 0 0 0 0 0 0 0 0 0 0 0 0 0 0 127 0" result="hardAlpha"/>
<feOffset dy="4"/>
<feGaussianBlur stdDeviation="7"/>
<feComposite in2="hardAlpha" operator="out"/>
<feColorMatrix type="matrix" values="0 0 0 0 0 0 0 0 0 0 0 0 0 0 0 0 0 0 0.15 0"/>
<feBlend mode="normal" in2="BackgroundImageFix" result="effect1_dropShadow_317_994"/>
<feBlend mode="normal" in="SourceGraphic" in2="effect1_dropShadow_317_994" result="shape"/>
</filter>
<filter id="filter4_d_317_994" x="7" y="36" width="76" height="76" filterUnits="userSpaceOnUse" color-interpolation-filters="sRGB">
<feFlood flood-opacity="0" result="BackgroundImageFix"/>
<feColorMatrix in="SourceAlpha" type="matrix" values="0 0 0 0 0 0 0 0 0 0 0 0 0 0 0 0 0 0 127 0" result="hardAlpha"/>
<feOffset dy="4"/>
<feGaussianBlur stdDeviation="7"/>
<feComposite in2="hardAlpha" operator="out"/>
<feColorMatrix type="matrix" values="0 0 0 0 0 0 0 0 0 0 0 0 0 0 0 0 0 0 0.15 0"/>
<feBlend mode="normal" in2="BackgroundImageFix" result="effect1_dropShadow_317_994"/>
<feBlend mode="normal" in="SourceGraphic" in2="effect1_dropShadow_317_994" result="shape"/>
</filter>
<filter id="filter5_d_317_994" x="69" y="144" width="76" height="76" filterUnits="userSpaceOnUse" color-interpolation-filters="sRGB">
<feFlood flood-opacity="0" result="BackgroundImageFix"/>
<feColorMatrix in="SourceAlpha" type="matrix" values="0 0 0 0 0 0 0 0 0 0 0 0 0 0 0 0 0 0 127 0" result="hardAlpha"/>
<feOffset dy="4"/>
<feGaussianBlur stdDeviation="7"/>
<feComposite in2="hardAlpha" operator="out"/>
<feColorMatrix type="matrix" values="0 0 0 0 0.282353 0 0 0 0 0.0470588 0 0 0 0 0.658824 0 0 0 0.15 0"/>
<feBlend mode="normal" in2="BackgroundImageFix" result="effect1_dropShadow_317_994"/>
<feBlend mode="normal" in="SourceGraphic" in2="effect1_dropShadow_317_994" result="shape"/>
</filter>
<filter id="filter6_d_317_994" x="67" y="60" width="98" height="98" filterUnits="userSpaceOnUse" color-interpolation-filters="sRGB">
<feFlood flood-opacity="0" result="BackgroundImageFix"/>
<feColorMatrix in="SourceAlpha" type="matrix" values="0 0 0 0 0 0 0 0 0 0 0 0 0 0 0 0 0 0 127 0" result="hardAlpha"/>
<feOffset dy="4"/>
<feGaussianBlur stdDeviation="7"/>
<feComposite in2="hardAlpha" operator="out"/>
<feColorMatrix type="matrix" values="0 0 0 0 0 0 0 0 0 0 0 0 0 0 0 0 0 0 0.15 0"/>
<feBlend mode="normal" in2="BackgroundImageFix" result="effect1_dropShadow_317_994"/>
<feBlend mode="normal" in="SourceGraphic" in2="effect1_dropShadow_317_994" result="shape"/>
</filter>
<filter id="filter7_d_317_994" x="61" y="54" width="110" height="110" filterUnits="userSpaceOnUse" color-interpolation-filters="sRGB">
<feFlood flood-opacity="0" result="BackgroundImageFix"/>
<feColorMatrix in="SourceAlpha" type="matrix" values="0 0 0 0 0 0 0 0 0 0 0 0 0 0 0 0 0 0 127 0" result="hardAlpha"/>
<feOffset dy="4"/>
<feGaussianBlur stdDeviation="7"/>
<feComposite in2="hardAlpha" operator="out"/>
<feColorMatrix type="matrix" values="0 0 0 0 0 0 0 0 0 0 0 0 0 0 0 0 0 0 0.15 0"/>
<feBlend mode="normal" in2="BackgroundImageFix" result="effect1_dropShadow_317_994"/>
<feBlend mode="normal" in="SourceGraphic" in2="effect1_dropShadow_317_994" result="shape"/>
</filter>
<linearGradient id="paint0_linear_317_994" x1="19.5" y1="1.45712e-05" x2="349.353" y2="109.85" gradientUnits="userSpaceOnUse">
<stop stop-color="#7AB8FF"/>
<stop offset="0.525043" stop-color="#FEFEFE"/>
<stop offset="1" stop-color="#8CC1FE"/>
</linearGradient>
<linearGradient id="paint1_linear_317_994" x1="33.6593" y1="20" x2="326.683" y2="126.658" gradientUnits="userSpaceOnUse">
<stop stop-color="#7AB8FF"/>
<stop offset="0.525043" stop-color="#FEFEFE"/>
<stop offset="1" stop-color="#8CC1FE"/>
</linearGradient>
<linearGradient id="paint2_linear_317_994" x1="50.4159" y1="43" x2="294.556" y2="148.454" gradientUnits="userSpaceOnUse">
<stop stop-color="#7AB8FF"/>
<stop offset="0.525043" stop-color="#FEFEFE"/>
<stop offset="1" stop-color="#8CC1FE"/>
</linearGradient>
<linearGradient id="paint3_linear_317_994" x1="4.02655" y1="4.85707e-06" x2="76.6029" y2="14.9726" gradientUnits="userSpaceOnUse">
<stop stop-color="#7AB8FF"/>
<stop offset="0.525043" stop-color="#FEFEFE"/>
<stop offset="1" stop-color="#8CC1FE"/>
</linearGradient>
<linearGradient id="paint4_linear_317_994" x1="85.0265" y1="70" x2="157.603" y2="84.9726" gradientUnits="userSpaceOnUse">
<stop stop-color="#7AB8FF"/>
<stop offset="0.525043" stop-color="#FEFEFE"/>
<stop offset="1" stop-color="#8CC1FE"/>
</linearGradient>
<linearGradient id="paint5_linear_317_994" x1="79.7168" y1="64" x2="164.735" y2="81.5393" gradientUnits="userSpaceOnUse">
<stop stop-color="#7AB8FF"/>
<stop offset="0.525043" stop-color="#FEFEFE"/>
<stop offset="1" stop-color="#8CC1FE"/>
</linearGradient>
<linearGradient id="paint6_linear_317_994" x1="156" y1="89.5" x2="221" y2="89.5" gradientUnits="userSpaceOnUse">
<stop stop-color="#04FED1" stop-opacity="0.5"/>
<stop offset="1" stop-color="#0044CC" stop-opacity="0.7"/>
</linearGradient>
<linearGradient id="paint7_linear_317_994" x1="222" y1="112.5" x2="161" y2="112.5" gradientUnits="userSpaceOnUse">
<stop stop-color="#04FED1" stop-opacity="0.5"/>
<stop offset="1" stop-color="#0044CC" stop-opacity="0.7"/>
</linearGradient>
<linearGradient id="paint8_linear_317_994" x1="221" y1="96.5" x2="166" y2="96.5" gradientUnits="userSpaceOnUse">
<stop stop-color="#04FED1" stop-opacity="0.5"/>
<stop offset="1" stop-color="#0044CC" stop-opacity="0.7"/>
</linearGradient>
<linearGradient id="paint9_linear_317_994" x1="160" y1="104.5" x2="212" y2="104.5" gradientUnits="userSpaceOnUse">
<stop stop-color="#04FED1" stop-opacity="0.5"/>
<stop offset="1" stop-color="#0044CC" stop-opacity="0.7"/>
</linearGradient>
<linearGradient id="paint10_linear_317_994" x1="159" y1="120.5" x2="214" y2="120.5" gradientUnits="userSpaceOnUse">
<stop stop-color="#04FED1" stop-opacity="0.5"/>
<stop offset="1" stop-color="#0044CC" stop-opacity="0.7"/>
</linearGradient>
<clipPath id="clip0_317_994">
<rect width="24" height="24" fill="white" transform="translate(96 20)"/>
</clipPath>
<clipPath id="clip1_317_994">
<rect width="28" height="28" fill="white" transform="translate(31 130)"/>
</clipPath>
<clipPath id="clip2_317_994">
<rect width="24" height="24" fill="white" transform="translate(34 57)"/>
</clipPath>
<clipPath id="clip3_317_994">
<rect width="24" height="24" fill="white" transform="translate(95 166)"/>
</clipPath>
</defs>
</svg>
