<svg width="339" height="220" viewBox="0 0 339 220" fill="none" xmlns="http://www.w3.org/2000/svg">
<rect x="-0.5" y="0.5" width="338" height="209" rx="39.5" transform="matrix(-1 0 0 1 338 2)" stroke="url(#paint0_linear_396_3435)"/>
<rect x="16.5" y="20.5" width="306" height="173" rx="29.5" stroke="url(#paint1_linear_396_3435)"/>
<rect x="35.5" y="43.5" width="267" height="127" rx="19.5" stroke="url(#paint2_linear_396_3435)"/>
<g filter="url(#filter0_d_396_3435)">
<circle cx="107" cy="34" r="24" fill="#C7F5FF"/>
<circle cx="107" cy="34" r="23.5" stroke="#9FC4CC"/>
</g>
<g clip-path="url(#clip0_396_3435)">
<path d="M102.58 25.4099C102.58 25.1999 102.65 24.8299 102.64 24.4099C102.633 24.0753 102.606 23.7414 102.56 23.4099C102.49 22.9699 102.62 22.6099 102.41 22.4099C102.297 22.3668 102.176 22.3507 102.057 22.3628C101.937 22.375 101.821 22.4151 101.72 22.4799C101.5 22.6999 101.53 23.1699 101.49 23.7299C101.475 24.0064 101.475 24.2834 101.49 24.5599V25.2699C101.484 25.4723 101.532 25.6726 101.63 25.8499C101.686 25.9048 101.753 25.9474 101.826 25.9749C101.899 26.0024 101.978 26.0141 102.056 26.0094C102.134 26.0047 102.211 25.9836 102.28 25.9475C102.35 25.9114 102.411 25.8611 102.46 25.7999C102.528 25.6804 102.569 25.5472 102.58 25.4099Z" fill="black"/>
<path d="M120 30.3999C119.94 28.7999 119.82 27.1999 119.69 25.5899C119.677 24.8395 119.61 24.0909 119.49 23.3499C119.407 22.9851 119.243 22.6435 119.01 22.3499C118.871 22.1856 118.701 22.0498 118.51 21.9499C118.146 21.7953 117.767 21.6748 117.38 21.5899C116.85 21.4502 116.313 21.3401 115.77 21.2599C114.97 21.1499 114.16 21.0799 113.35 21.0299C111.72 20.9101 110.084 20.8767 108.45 20.9299C106.11 20.9999 106.39 21.0499 98.9203 21.7199C98.4939 21.7505 98.0697 21.8072 97.6503 21.8899C97.4014 21.9963 97.1793 22.1569 97.0003 22.3599C96.8273 22.5518 96.6825 22.7673 96.5703 22.9999C96.3351 23.5377 96.1801 24.1071 96.1103 24.6899C96.0249 25.5238 95.9882 26.3618 96.0003 27.1999V31.1999C96.0703 33.1999 96.1803 35.1999 96.2603 37.1399C96.2603 38.1399 96.1703 39.3999 96.3203 40.5199C96.4041 41.0375 96.5731 41.5376 96.8203 41.9999C96.9603 42.272 97.1899 42.4874 97.4703 42.6099C97.7907 42.7385 98.1271 42.8227 98.4703 42.8599C98.9703 42.9299 99.4703 42.9699 99.9703 42.9999C100.7 42.9999 101.44 42.9999 102.16 43.0499C103.83 43.0499 105.49 43.0499 107.16 42.9899C109.63 42.8899 112.1 42.7099 114.58 42.5499C115.605 42.5781 116.63 42.5413 117.65 42.4399C118.199 42.3662 118.713 42.1253 119.12 41.7499C119.424 41.4132 119.634 41.003 119.73 40.5599C119.843 40.0035 119.903 39.4377 119.91 38.8699L120 33.6299V30.3999ZM96.8503 24.7799C96.8986 24.2697 97.0269 23.7703 97.2303 23.2999C97.3039 23.1302 97.4016 22.9719 97.5203 22.8299C97.6344 22.6997 97.7739 22.5942 97.9303 22.5199C97.9303 22.5199 107.8 21.6899 108.47 21.6699C110.068 21.6365 111.667 21.6832 113.26 21.8099C114.04 21.8699 114.83 21.9499 115.6 22.0699C116.11 22.1599 116.6 22.2599 117.11 22.3999C117.396 22.4665 117.677 22.5534 117.95 22.6599C118.078 22.7032 118.191 22.779 118.28 22.8799C118.478 23.1778 118.592 23.5231 118.61 23.8799C118.71 24.5199 118.68 25.2199 118.72 25.7099V25.7699H118.65C118.65 25.6999 118.27 25.7699 118.15 25.7699H117.15L114.05 25.8699C113.18 25.8699 111.81 25.9199 110.2 25.9599C109.2 25.9599 108.08 26.0199 106.96 26.0599C106.96 26.0599 99.4803 26.4999 98.6603 26.5499L96.8003 26.6099C96.7822 25.9995 96.7989 25.3885 96.8503 24.7799ZM118.94 33.5999L118.73 38.8599C118.733 39.3539 118.683 39.8467 118.58 40.3299C118.529 40.5827 118.412 40.8173 118.24 41.0099C117.882 41.2744 117.446 41.4116 117 41.3999C116.08 41.4899 115 41.3999 114.44 41.4499C111.97 41.5999 109.51 41.7799 107.05 41.8799C105.42 41.9999 103.79 41.9999 102.14 41.9999H99.9803C99.5103 41.9999 99.0403 41.9499 98.5803 41.8899C98.3819 41.8522 98.1877 41.7953 98.0003 41.7199C97.9498 41.7165 97.9011 41.7 97.859 41.6719C97.8169 41.6438 97.7829 41.6052 97.7603 41.5599C97.5131 41.047 97.3736 40.4889 97.3503 39.9199C97.2703 38.9199 97.3503 37.9199 97.2903 37.0699C97.1803 35.0699 97.0303 33.0699 96.9203 31.1499C96.8455 29.8446 96.8055 28.5374 96.8003 27.2299H98.6703H106.38C107.72 27.2299 109.04 27.1399 110.24 27.0799C111.85 26.9899 113.24 26.8799 114.1 26.7999L117.16 26.5299H118.16H118.7C118.78 27.8799 118.86 29.2199 118.89 30.5299C119 31.4899 119 32.5399 118.94 33.5999Z" fill="black"/>
<path d="M105.82 24.6399C105.8 25.0213 105.917 25.3973 106.15 25.6999C106.3 25.8499 106.73 25.8799 106.85 25.6999C106.933 25.394 106.964 25.0761 106.94 24.7599C106.96 24.3835 106.96 24.0063 106.94 23.6299C106.87 22.9999 107.05 22.6299 106.62 22.3399C106.511 22.2961 106.393 22.2795 106.276 22.2917C106.159 22.3039 106.047 22.3445 105.95 22.4099C105.65 22.7299 105.83 22.9499 105.81 23.4999C105.789 23.8797 105.792 24.2605 105.82 24.6399Z" fill="black"/>
<path d="M112.59 31.6499C112.483 31.597 112.365 31.5695 112.245 31.5695C112.126 31.5695 112.008 31.597 111.9 31.6499C111.478 31.8513 111.082 32.1032 110.72 32.3999C110.04 32.9335 109.413 33.5331 108.85 34.1899C108.268 34.8613 107.789 35.6164 107.43 36.4299C107.245 36.7823 107.101 37.1547 107 37.5399C106.98 37.6821 106.988 37.827 107.024 37.9661C107.06 38.1052 107.123 38.2356 107.21 38.3499C107.65 38.9399 108.46 38.9799 109.35 38.4199C111.198 37.056 112.434 35.0188 112.79 32.7499C112.828 32.5013 112.828 32.2485 112.79 31.9999C112.783 31.9309 112.762 31.8641 112.727 31.8039C112.693 31.7436 112.646 31.6912 112.59 31.6499ZM109.73 37.0599C109.368 37.3787 108.947 37.6233 108.49 37.7799C108.32 37.7799 108.17 37.8599 108.1 37.7799L108.48 36.8999C108.734 36.3379 109.053 35.8076 109.43 35.3199C110.019 34.5467 110.69 33.8393 111.43 33.2099C111.43 33.1599 111.75 33.0499 111.99 32.9199C111.936 33.7324 111.705 34.5232 111.315 35.238C110.925 35.9527 110.384 36.5743 109.73 37.0599Z" fill="black"/>
<path d="M108.141 31.69C108.185 31.6862 108.229 31.6736 108.269 31.653C108.309 31.6323 108.344 31.6039 108.373 31.5695C108.401 31.5351 108.423 31.4954 108.437 31.4525C108.45 31.4097 108.455 31.3647 108.451 31.32C108.451 31 108.561 30.7 108.601 30.32C108.611 30.1868 108.611 30.0531 108.601 29.92C108.611 29.7968 108.611 29.6731 108.601 29.55C108.563 29.3677 108.517 29.1874 108.461 29.01V28.82C108.261 28.58 108.111 28.51 107.981 28.59C107.851 28.67 107.831 28.59 107.791 28.71C107.68 28.9921 107.593 29.2832 107.531 29.58C107.511 29.7728 107.511 29.9672 107.531 30.16C107.588 30.5576 107.682 30.9492 107.811 31.33C107.808 31.3755 107.814 31.421 107.83 31.4639C107.845 31.5069 107.869 31.5463 107.899 31.5799C107.93 31.6134 107.967 31.6405 108.009 31.6594C108.05 31.6783 108.095 31.6887 108.141 31.69Z" fill="black"/>
<path d="M103.49 32.6399C103.26 32.4999 103 32.4099 102.76 32.2899C102.453 32.1139 102.112 32.0081 101.76 31.9799C101.47 31.8899 101.19 32.1599 101.6 32.5999C101.76 32.7699 102.22 33.1699 102.29 33.2299C102.514 33.382 102.748 33.5189 102.99 33.6399C103.36 33.8099 103.75 33.8799 104.13 34.0299C104.205 34.0789 104.297 34.0959 104.386 34.0772C104.474 34.0584 104.551 34.0055 104.6 33.9299C104.646 33.8509 104.66 33.7573 104.64 33.6682C104.619 33.579 104.566 33.501 104.49 33.4499C104.182 33.1495 103.848 32.8784 103.49 32.6399Z" fill="black"/>
<path d="M114.471 34.3499C114.611 34.4199 114.561 34.4499 115.471 33.8999C115.551 33.8499 115.631 33.8099 115.711 33.7499C115.821 33.661 115.925 33.5641 116.021 33.4599C116.321 33.1299 116.531 32.7799 116.671 32.6199C116.708 32.5957 116.741 32.5641 116.766 32.5271C116.791 32.49 116.808 32.4482 116.817 32.4042C116.825 32.3603 116.824 32.315 116.815 32.2713C116.805 32.2276 116.787 32.1863 116.761 32.1499C116.736 32.1119 116.703 32.0793 116.665 32.0542C116.627 32.029 116.585 32.0117 116.54 32.0033C116.495 31.9949 116.449 31.9956 116.405 32.0053C116.36 32.015 116.318 32.0336 116.281 32.0599C115.972 32.182 115.677 32.3362 115.401 32.5199C115.223 32.6345 115.062 32.7724 114.921 32.9299C114.705 33.1908 114.527 33.4802 114.391 33.7899C114.341 33.8899 114.301 33.9399 114.301 33.9799C114.311 34.1999 114.361 34.3199 114.471 34.3499Z" fill="black"/>
<path d="M117.32 38C117.164 37.9219 116.999 37.8615 116.83 37.82C116.562 37.7417 116.288 37.6881 116.01 37.66C115.877 37.6448 115.743 37.6448 115.61 37.66L115.22 37.77C114.972 37.8003 114.732 37.8748 114.51 37.99C114.42 37.99 114.41 38.09 114.38 38.12C114.35 38.15 114.32 38.47 114.68 38.58C114.81 38.58 115.16 38.68 115.24 38.7C115.32 38.72 115.65 38.78 115.87 38.79C115.989 38.8049 116.11 38.8049 116.23 38.79C116.557 38.7118 116.894 38.6782 117.23 38.69C117.321 38.69 117.409 38.6545 117.474 38.591C117.539 38.5275 117.577 38.441 117.58 38.35C117.58 38.26 117.5 38.13 117.32 38Z" fill="black"/>
<path d="M102.93 37.9999C102.708 37.8861 102.468 37.8117 102.22 37.7799L101.83 37.6699C101.697 37.655 101.563 37.655 101.43 37.6699C101.152 37.6981 100.878 37.7516 100.61 37.8299C100.44 37.8714 100.276 37.9318 100.12 38.0099C99.94 38.1299 99.86 38.2599 99.88 38.3599C99.88 38.6699 99.98 38.6599 101.21 38.7999C101.329 38.8149 101.45 38.8149 101.57 38.7999C101.78 38.7999 101.98 38.7399 102.19 38.7099C102.4 38.6799 102.63 38.6299 102.76 38.5899C103.11 38.4799 103.12 38.2199 103.06 38.1299C103 38.0399 103 37.9999 102.93 37.9999Z" fill="black"/>
</g>
<g filter="url(#filter1_d_396_3435)">
<circle cx="116" cy="105" r="29" fill="#04FED1"/>
<circle cx="116" cy="105" r="28.5" stroke="#9FC4CC"/>
</g>
<path fill-rule="evenodd" clip-rule="evenodd" d="M111 114.06C110.822 113.724 110.605 113.411 110.354 113.125C110.007 112.766 109.619 112.447 109.199 112.176C109.667 111.693 110.025 111.116 110.25 110.482C110.476 109.849 110.563 109.175 110.505 108.505C110.498 107.359 110.037 106.262 109.222 105.455C108.408 104.649 107.307 104.198 106.16 104.201C104.934 104.171 103.745 104.625 102.85 105.463C101.955 106.302 101.425 107.458 101.375 108.684C101.353 109.456 101.556 110.218 101.959 110.877C102.361 111.536 102.947 112.064 103.644 112.396C103.066 112.702 102.518 113.061 102.008 113.469C101.518 113.891 101.092 114.382 100.743 114.926C100.428 115.401 100.212 115.934 100.108 116.494C100.004 117.054 100.014 117.629 100.138 118.185C100.138 118.245 100.15 118.305 100.174 118.36C100.198 118.415 100.232 118.465 100.276 118.506C100.32 118.548 100.372 118.579 100.428 118.6C100.485 118.62 100.545 118.629 100.605 118.625C100.721 118.608 100.825 118.547 100.897 118.455C100.969 118.363 101.002 118.246 100.99 118.13C100.984 117.492 101.176 116.867 101.54 116.343C101.895 115.797 102.3 115.286 102.75 114.816C103.424 114.074 104.125 113.331 104.703 112.768C105.122 112.872 105.55 112.932 105.982 112.946C106.073 112.929 106.155 112.881 106.215 112.809C106.274 112.737 106.307 112.647 106.307 112.554C106.307 112.462 106.274 112.371 106.215 112.3C106.155 112.228 106.073 112.18 105.982 112.163C103.548 111.915 102.489 110.375 102.613 108.739C102.707 107.872 103.133 107.075 103.802 106.516C104.472 105.957 105.332 105.679 106.202 105.741C106.996 105.727 107.763 106.026 108.338 106.575C108.912 107.123 109.246 107.876 109.268 108.67C109.431 109.475 109.273 110.313 108.825 111.002C108.378 111.691 107.677 112.177 106.875 112.355C106.757 112.369 106.649 112.429 106.575 112.521C106.5 112.614 106.465 112.732 106.477 112.85C106.497 112.964 106.558 113.067 106.65 113.138C106.741 113.209 106.856 113.244 106.972 113.235C107.451 113.182 107.917 113.042 108.347 112.823C108.675 113.21 108.978 113.619 109.254 114.046C109.419 114.294 109.57 114.555 109.708 114.803C109.845 115.05 110.01 115.311 110.148 115.573C110.486 116.222 110.771 116.898 111 117.594C111.027 117.707 111.096 117.806 111.193 117.87C111.29 117.934 111.408 117.958 111.523 117.938C111.581 117.928 111.636 117.906 111.685 117.874C111.734 117.842 111.777 117.8 111.809 117.751C111.841 117.702 111.863 117.647 111.873 117.589C111.883 117.531 111.881 117.472 111.867 117.415C111.82 116.614 111.682 115.82 111.454 115.05C111.332 114.708 111.18 114.376 111 114.06Z" fill="#455173"/>
<path fill-rule="evenodd" clip-rule="evenodd" d="M132.574 115.05C132.461 114.708 132.318 114.377 132.148 114.06C131.97 113.744 131.758 113.449 131.515 113.18C131.168 112.821 130.78 112.502 130.36 112.231C130.84 111.754 131.212 111.179 131.449 110.546C131.686 109.912 131.784 109.235 131.735 108.56C131.728 107.414 131.267 106.317 130.452 105.51C129.638 104.704 128.537 104.253 127.39 104.256C126.169 104.219 124.981 104.661 124.081 105.489C123.182 106.316 122.642 107.463 122.578 108.684C122.544 109.446 122.731 110.202 123.116 110.861C123.502 111.519 124.069 112.053 124.75 112.396C124.171 112.698 123.623 113.058 123.114 113.469C122.621 113.887 122.194 114.379 121.849 114.926C121.534 115.401 121.319 115.934 121.215 116.494C121.111 117.054 121.121 117.629 121.244 118.185C121.271 118.29 121.336 118.382 121.426 118.442C121.516 118.503 121.625 118.528 121.733 118.513C121.841 118.497 121.939 118.443 122.008 118.359C122.078 118.276 122.114 118.17 122.11 118.061C122.116 117.423 122.312 116.8 122.674 116.274C123.015 115.754 123.401 115.266 123.829 114.816C124.503 114.074 125.204 113.331 125.782 112.767C126.2 112.872 126.629 112.932 127.06 112.946C127.152 112.929 127.234 112.88 127.294 112.809C127.353 112.737 127.386 112.647 127.386 112.554C127.386 112.461 127.353 112.371 127.294 112.3C127.234 112.228 127.152 112.18 127.06 112.162C124.75 111.915 123.65 110.375 123.774 108.739C123.868 107.872 124.295 107.075 124.964 106.516C125.633 105.957 126.493 105.679 127.363 105.741C128.157 105.726 128.925 106.026 129.499 106.574C130.073 107.123 130.408 107.876 130.429 108.67C130.591 109.483 130.425 110.327 129.966 111.018C129.508 111.708 128.794 112.189 127.982 112.355C127.924 112.361 127.868 112.379 127.817 112.407C127.766 112.435 127.721 112.473 127.685 112.518C127.648 112.563 127.621 112.615 127.605 112.671C127.589 112.727 127.584 112.785 127.59 112.843C127.596 112.901 127.614 112.957 127.642 113.008C127.67 113.059 127.707 113.104 127.753 113.14C127.798 113.177 127.85 113.204 127.906 113.22C127.962 113.236 128.02 113.241 128.078 113.235C128.558 113.182 129.023 113.042 129.453 112.822C129.782 113.21 130.085 113.619 130.36 114.046C130.525 114.294 130.677 114.555 130.814 114.802C130.952 115.05 131.117 115.311 131.254 115.572C131.588 116.222 131.869 116.898 132.093 117.594C132.119 117.707 132.188 117.806 132.286 117.87C132.383 117.934 132.501 117.958 132.615 117.937C132.673 117.926 132.727 117.903 132.775 117.871C132.823 117.838 132.864 117.797 132.896 117.748C132.928 117.699 132.95 117.645 132.961 117.588C132.972 117.531 132.971 117.472 132.959 117.415C132.922 116.615 132.793 115.821 132.574 115.05Z" fill="#455173"/>
<path fill-rule="evenodd" clip-rule="evenodd" d="M117.779 95.8688C117.572 96.2813 117.394 96.6938 117.174 97.2438L116.72 98.44L116.404 99.375L116.197 100.063L115.317 99.2788L114.217 98.3163L112.471 96.7075C112.435 96.6709 112.393 96.6419 112.345 96.622C112.298 96.6022 112.247 96.592 112.196 96.592C112.145 96.592 112.094 96.6022 112.047 96.622C112 96.6419 111.957 96.6709 111.921 96.7075C111.885 96.7434 111.856 96.7862 111.836 96.8334C111.816 96.8806 111.806 96.9313 111.806 96.9825C111.806 97.0338 111.816 97.0845 111.836 97.1317C111.856 97.1789 111.885 97.2217 111.921 97.2575L113.544 99.045L114.547 100.09L115.537 101.149C115.675 101.286 115.812 101.644 115.936 101.754C116.071 101.87 116.24 101.937 116.417 101.946C116.531 101.946 116.644 101.92 116.746 101.87C116.849 101.82 116.938 101.747 117.009 101.658C117.163 101.471 117.288 101.263 117.38 101.039C117.559 100.64 117.682 100.159 117.792 99.8563L118.122 98.9213L118.576 97.7938L119.731 95.25C120.311 94.1213 120.973 93.0367 121.711 92.005C122.447 90.9948 123.296 90.0722 124.241 89.255C124.332 89.1821 124.391 89.0759 124.404 88.9599C124.417 88.8439 124.383 88.7275 124.31 88.6363C124.237 88.5451 124.131 88.4867 124.015 88.4738C123.899 88.4609 123.782 88.4946 123.691 88.5675C122.623 89.3658 121.653 90.2891 120.804 91.3175C119.946 92.3423 119.169 93.4318 118.48 94.5763C118.205 95.0575 117.985 95.4563 117.779 95.8688Z" fill="#455173"/>
<path fill-rule="evenodd" clip-rule="evenodd" d="M127.239 96.0613C126.984 95.4073 126.646 94.7882 126.236 94.2188C125.642 93.4053 125.004 92.625 124.324 91.8813C124.259 91.8029 124.165 91.7538 124.063 91.7448C123.961 91.7357 123.86 91.7675 123.781 91.8332C123.703 91.8988 123.654 91.9929 123.645 92.0948C123.636 92.1966 123.667 92.2979 123.733 92.3763C124.367 93.1223 124.959 93.9027 125.507 94.7138C125.864 95.233 126.15 95.797 126.359 96.3913C126.723 97.2986 126.81 98.2934 126.61 99.2502C126.409 100.207 125.93 101.083 125.232 101.768C124.079 102.752 122.735 103.487 121.285 103.927C119.834 104.367 118.308 104.502 116.803 104.325C112.761 104.119 110.024 103.101 108.374 101.671C107.645 101.106 107.102 100.334 106.818 99.4561C106.533 98.578 106.52 97.6346 106.779 96.7488C107.811 93.2563 112.568 90.3001 119.484 91.3588C119.542 91.3687 119.601 91.3672 119.658 91.3542C119.716 91.3413 119.77 91.3172 119.818 91.2834C119.865 91.2496 119.906 91.2066 119.937 91.1571C119.969 91.1075 119.99 91.0522 120 90.9944C120.01 90.9366 120.008 90.8775 119.995 90.8203C119.982 90.7631 119.958 90.709 119.925 90.6611C119.891 90.6133 119.848 90.5725 119.798 90.5412C119.749 90.5099 119.693 90.4887 119.636 90.4788C112.004 89.1038 106.752 92.5001 105.501 96.3501C104.648 98.9763 105.501 101.85 108.787 103.789C111.231 105.075 113.945 105.763 116.707 105.796C118.414 105.941 120.133 105.73 121.754 105.176C123.375 104.622 124.864 103.738 126.126 102.579C126.935 101.724 127.472 100.649 127.67 99.4889C127.869 98.3289 127.719 97.1361 127.239 96.0613Z" fill="#455173"/>
<g filter="url(#filter2_d_396_3435)">
<circle cx="35" cy="35" r="36" transform="matrix(-1 0 0 1 297 69)" fill="#0044CC" stroke="url(#paint3_linear_396_3435)" stroke-width="2"/>
<path fill-rule="evenodd" clip-rule="evenodd" d="M252.157 106.465C254.703 107.496 257.45 108.132 260.324 108.296C260.82 108.325 261.319 108.339 261.822 108.339C262.325 108.339 262.824 108.325 263.32 108.296C266.194 108.132 268.943 107.496 271.489 106.465C276.832 104.301 281.284 100.397 284.143 95.4553C279.687 87.7533 271.36 82.5714 261.822 82.5714C252.284 82.5714 243.957 87.7533 239.502 95.4553C242.36 100.397 246.813 104.302 252.157 106.465Z" fill="white"/>
<path d="M271.489 108.47C272.104 108.221 272.708 107.949 273.299 107.654C275.219 109.007 276.842 110.692 278.064 112.614C275.987 115.881 272.751 118.462 268.868 119.892C267.017 120.574 265.02 120.994 262.93 121.103H260.753C258.665 120.994 254.993 123.064 260.324 128.286C256.44 126.855 247.697 115.881 245.619 112.614C246.838 110.697 248.456 109.017 250.368 107.666C250.952 107.956 251.549 108.225 252.157 108.471C254.703 109.502 257.45 110.138 260.324 110.302C260.82 110.331 261.319 110.345 261.822 110.345C262.325 110.345 262.824 110.331 263.32 110.302C266.194 110.138 268.943 109.502 271.489 108.47Z" fill="white"/>
<rect width="21.573" height="7.70465" rx="3.85233" transform="matrix(-1 0 0 1 272.585 92.1594)" fill="#162550"/>
<circle cx="1.41252" cy="1.41252" r="1.41252" transform="matrix(-1 0 0 1 257.262 94.5564)" fill="#04FED1"/>
<circle cx="1.41252" cy="1.41252" r="1.41252" transform="matrix(-1 0 0 1 263.254 113.561)" fill="#162550"/>
<circle cx="1.41252" cy="1.41252" r="1.41252" transform="matrix(-1 0 0 1 268.904 94.5564)" fill="#04FED1"/>
<circle cx="1.41252" cy="1.41252" r="1.41252" transform="matrix(-1 0 0 1 268.904 113.561)" fill="#162550"/>
<circle cx="1.41252" cy="1.41252" r="1.41252" transform="matrix(-1 0 0 1 257.604 113.561)" fill="#162550"/>
</g>
<g filter="url(#filter3_d_396_3435)">
<circle cx="45" cy="144" r="24" fill="#FFC7C7"/>
<circle cx="45" cy="144" r="23.5" stroke="#CC9F9F"/>
</g>
<g clip-path="url(#clip1_396_3435)">
<path d="M35.0722 138.167V136.475C35.0722 135.95 35.0722 135.308 35.0022 134.783C34.8972 133.418 34.7222 132.123 34.5706 130.817C34.569 130.763 34.557 130.71 34.5351 130.661C34.5131 130.612 34.4818 130.568 34.4428 130.531C34.4038 130.494 34.3579 130.466 34.3077 130.447C34.2576 130.427 34.2042 130.418 34.1506 130.42C34.0969 130.421 34.0441 130.434 33.9952 130.455C33.9462 130.477 33.902 130.509 33.8652 130.548C33.8284 130.587 33.7996 130.633 33.7805 130.683C33.7614 130.733 33.7523 130.786 33.7539 130.84C33.6839 132.158 33.5789 133.5 33.5322 134.783V136.463C33.5322 136.977 33.6139 137.63 33.6139 138.143C33.6139 140.722 34.7806 140.757 34.9906 140.068C35.0753 139.438 35.1026 138.802 35.0722 138.167Z" fill="black"/>
<path d="M44.3125 138.482C44.2192 138.972 44.2308 143.148 44.1375 145.587C44.0558 147.442 44.0208 149.297 44.0092 151.152C43.9975 153.007 44.0092 155.165 44.1725 157.172C44.1755 157.293 44.226 157.409 44.3132 157.494C44.4004 157.579 44.5174 157.627 44.6392 157.627C44.7619 157.621 44.8777 157.568 44.9624 157.479C45.0471 157.39 45.0943 157.271 45.0942 157.148C45.0942 154.815 45.3392 152.388 45.4792 150.008C45.5842 148.422 45.6658 146.812 45.6658 145.213C45.6307 142.928 45.475 140.646 45.1992 138.377C45.1175 137.98 44.3825 138.062 44.3125 138.482Z" fill="black"/>
<path d="M34.7575 151.128C34.7576 151.022 34.7162 150.92 34.6421 150.844C34.568 150.767 34.4671 150.723 34.3609 150.72C34.2526 150.72 34.1487 150.763 34.0721 150.84C33.9956 150.916 33.9525 151.02 33.9525 151.128C33.8359 151.898 33.6842 152.633 33.6025 153.403V154.383V155.363C33.6725 156.122 33.7892 156.868 33.8709 157.697C33.8884 157.806 33.9444 157.906 34.0288 157.978C34.1133 158.05 34.2207 158.09 34.3317 158.09C34.4427 158.09 34.5501 158.05 34.6346 157.978C34.719 157.906 34.775 157.806 34.7925 157.697C34.8742 156.927 35.0025 156.18 35.0609 155.363V154.383C35.0842 154.057 35.0842 153.73 35.0609 153.403C35.0259 152.633 34.8742 151.898 34.7575 151.128Z" fill="black"/>
<path d="M55.3134 137.595V135.915C55.3134 135.402 55.3134 134.748 55.2434 134.223C55.1267 132.905 54.9517 131.61 54.8001 130.303C54.8001 130.195 54.757 130.091 54.6805 130.015C54.6039 129.938 54.5 129.895 54.3917 129.895C54.2834 129.895 54.1796 129.938 54.103 130.015C54.0264 130.091 53.9834 130.195 53.9834 130.303C53.9134 131.622 53.7967 132.917 53.7617 134.235V135.927C53.7617 136.452 53.8434 137.093 53.8434 137.607C53.8434 140.185 55.0101 140.22 55.2084 139.532C55.3105 138.892 55.3457 138.242 55.3134 137.595Z" fill="black"/>
<path d="M34.9088 141.27C34.5696 141.231 34.2263 141.251 33.8938 141.328C31.4088 141.807 30.4871 143.662 30.8371 145.295C31.7705 149.658 40.3338 149.402 38.8171 144.21C38.5452 143.379 38.0246 142.651 37.3256 142.125C36.6266 141.599 35.7829 141.301 34.9088 141.27ZM32.1671 145.085C32.0155 143.918 32.7388 142.857 34.5005 142.752C35.1545 142.663 35.8194 142.799 36.3856 143.138C36.9518 143.478 37.3856 144 37.6155 144.618C38.9455 148.34 32.5755 148.515 32.1671 145.085Z" fill="black"/>
<path d="M44.1723 130.49C41.314 130.805 40.3107 132.823 40.6723 134.585C40.8536 135.384 41.2962 136.101 41.93 136.62C42.5639 137.14 43.3529 137.434 44.1723 137.455C46.5757 137.642 49.6673 137.175 48.594 133.5C48.3008 132.575 47.7056 131.776 46.9038 131.23C46.102 130.684 45.14 130.424 44.1723 130.49ZM45.0007 136.685C44.3001 136.752 43.6004 136.548 43.0466 136.113C42.4928 135.679 42.1273 135.048 42.0257 134.352C41.874 133.185 42.5973 132.123 44.359 132.018C45.0139 131.934 45.6781 132.074 46.2435 132.415C46.809 132.756 47.2426 133.278 47.474 133.897C48.559 137 45.0007 136.673 45.0007 136.685Z" fill="black"/>
<path d="M55.15 140.745C54.8101 140.716 54.4678 140.74 54.135 140.815C51.65 141.293 50.7283 143.148 51.0783 144.782C52.0117 149.145 60.575 148.888 59.0583 143.697C58.7869 142.864 58.2667 142.135 57.5679 141.607C56.869 141.079 56.0251 140.778 55.15 140.745ZM52.3617 144.56C52.21 143.393 52.9333 142.332 54.695 142.227C55.3536 142.137 56.0231 142.274 56.5935 142.616C57.1638 142.957 57.6011 143.482 57.8333 144.105C59.1867 147.827 52.8167 148.002 52.3617 144.56Z" fill="black"/>
<path d="M54.9987 150.615C54.9988 150.509 54.9574 150.407 54.8833 150.33C54.8092 150.254 54.7083 150.21 54.6021 150.207C54.5485 150.207 54.4954 150.217 54.4458 150.238C54.3963 150.258 54.3513 150.288 54.3133 150.326C54.2754 150.364 54.2454 150.409 54.2248 150.459C54.2043 150.508 54.1937 150.561 54.1937 150.615C54.0771 151.373 53.9254 152.12 53.8438 152.89V153.87V154.838C53.9138 155.608 54.0304 156.355 54.1121 157.172C54.1296 157.281 54.1856 157.381 54.2701 157.453C54.3545 157.525 54.4619 157.565 54.5729 157.565C54.6839 157.565 54.7913 157.525 54.8758 157.453C54.9602 157.381 55.0163 157.281 55.0338 157.172C55.1154 156.402 55.2438 155.655 55.3021 154.838V153.87C55.3254 153.544 55.3254 153.216 55.3021 152.89C55.2671 152.167 55.1154 151.385 54.9987 150.615Z" fill="black"/>
</g>
<g filter="url(#filter4_d_396_3435)">
<circle cx="45" cy="70" r="24" fill="#FFF9C7"/>
<circle cx="45" cy="70" r="23.5" stroke="#CCC89F"/>
</g>
<g clip-path="url(#clip2_396_3435)">
<path fill-rule="evenodd" clip-rule="evenodd" d="M57.0006 57.68C56.4675 57.2777 55.8067 57.0823 55.1406 57.13C54.8988 57.1567 54.6627 57.2208 54.4406 57.32C54.1459 57.4844 53.8737 57.686 53.6306 57.92C53.5976 57.9517 53.5714 57.9898 53.5535 58.0319C53.5355 58.074 53.5263 58.1192 53.5263 58.165C53.5263 58.2107 53.5355 58.256 53.5535 58.2981C53.5714 58.3402 53.5976 58.3783 53.6306 58.41C53.6614 58.4427 53.6986 58.4687 53.7399 58.4865C53.7812 58.5043 53.8256 58.5135 53.8706 58.5135C53.9155 58.5135 53.96 58.5043 54.0013 58.4865C54.0425 58.4687 54.0797 58.4427 54.1106 58.41C54.2753 58.2585 54.4526 58.1214 54.6406 58C54.8195 57.9024 55.0173 57.8444 55.2206 57.83C55.6879 57.8291 56.1407 57.9918 56.5006 58.29C56.6827 58.4052 56.836 58.5607 56.9487 58.7445C57.0614 58.9282 57.1305 59.1354 57.1506 59.35C57.1542 59.6968 57.0753 60.0396 56.9206 60.35C56.7592 60.6673 56.5539 60.9602 56.3106 61.22L55.1006 62.58C54.8006 62.26 54.4906 61.94 54.1606 61.64C54.0006 61.49 53.8306 61.36 53.6706 61.22L53.3406 61L52.5006 60.51L52.3406 60.39L52.6106 60L53.2906 59.15C53.3145 59.1173 53.3313 59.0799 53.34 59.0403C53.3486 59.0007 53.3488 58.9597 53.3406 58.92C53.3406 58.77 53.1906 58.54 52.8906 58.72C52.6006 58.5 52.3506 58.24 52.0706 58.02C51.9003 57.8922 51.7157 57.7849 51.5206 57.7C51.3621 57.634 51.1922 57.6 51.0206 57.6C50.8489 57.6 50.679 57.634 50.5206 57.7C50.2135 57.8509 49.9304 58.0463 49.6806 58.28C49.3508 58.5731 49.0401 58.8871 48.7506 59.22C48.3504 59.7248 47.9798 60.2523 47.6406 60.8C47.5764 60.8654 47.5405 60.9534 47.5405 61.045C47.5405 61.1366 47.5764 61.2246 47.6406 61.29C47.7043 61.3535 47.7906 61.3892 47.8806 61.3892C47.9705 61.3892 48.0568 61.3535 48.1206 61.29C48.4206 60.98 48.7306 60.7 49.0306 60.42C49.4779 59.9972 49.9486 59.5999 50.4406 59.23C50.5806 59.11 50.7506 58.96 50.9306 58.83C51.1106 58.7 51.0906 58.67 51.2006 58.69C51.3305 58.7092 51.458 58.7427 51.5806 58.79C51.8606 58.92 52.1306 59.09 52.4106 59.23L52.0606 59.64C50.6706 61.27 47.6206 64.84 46.3706 66.46C46.0872 66.7867 45.8668 67.163 45.7206 67.57C45.7206 67.85 45.5906 69.86 45.6106 70.68C45.5988 70.7796 45.5988 70.8803 45.6106 70.98C45.4572 71.0735 45.3102 71.1771 45.1706 71.29C45.0831 71.3658 45.0028 71.4495 44.9306 71.54C44.8615 71.6293 44.7981 71.7228 44.7406 71.82C44.1906 72.72 44.3106 72.82 44.3206 72.82C44.3344 72.8965 44.3775 72.9646 44.4406 73.01C44.4981 73.0633 44.5723 73.0951 44.6506 73.1C44.6506 73.1 44.8006 73.19 45.5906 72.49C45.6803 72.4203 45.7609 72.3397 45.8306 72.25C45.9068 72.1675 45.9738 72.0769 46.0306 71.98C46.1075 71.8486 46.1744 71.7115 46.2306 71.57C46.452 71.6108 46.6791 71.6108 46.9006 71.57C47.7645 71.3698 48.6132 71.1091 49.4406 70.79C49.6055 70.7257 49.7505 70.6187 49.8606 70.48C50.1106 70.21 50.6006 69.64 51.2106 68.89C52.9706 66.73 55.7806 63.12 56.9106 61.81C57.2016 61.4794 57.444 61.109 57.6306 60.71C57.8515 60.2962 57.9779 59.8385 58.0006 59.37C57.969 59.0319 57.8629 58.7051 57.69 58.4129C57.5171 58.1207 57.2817 57.8704 57.0006 57.68ZM49.2406 69.53L49.0506 69.73C48.3196 70.0328 47.5634 70.2704 46.7906 70.44V67.71C46.8806 67.71 46.1706 68.2 51.8806 60.92L52.0106 61.05L52.5506 61.7C52.8121 62.0179 53.1109 62.3033 53.4406 62.55C53.799 62.7884 54.1732 63.0022 54.5606 63.19C53.7106 64.19 52.7306 65.33 51.8306 66.41C50.7306 67.76 49.7306 69 49.2406 69.53Z" fill="black"/>
<path fill-rule="evenodd" clip-rule="evenodd" d="M52.6305 74.53L51.9305 72.93C51.9222 72.8863 51.9046 72.8449 51.8789 72.8086C51.8532 72.7722 51.8199 72.7419 51.7815 72.7196C51.743 72.6972 51.7001 72.6835 51.6559 72.6792C51.6116 72.6749 51.5669 72.6801 51.5248 72.6946C51.4828 72.7091 51.4443 72.7325 51.4121 72.7632C51.3799 72.7939 51.3547 72.8311 51.3381 72.8724C51.3216 72.9137 51.3141 72.9581 51.3162 73.0026C51.3184 73.047 51.3301 73.0905 51.3505 73.13L52.0405 74.83C52.5805 75.91 53.0405 76.46 53.2605 76.9C53.4018 77.119 53.452 77.3845 53.4005 77.64C53.4005 77.69 53.3005 77.7 53.2005 77.76C52.8516 77.9452 52.4825 78.0895 52.1005 78.19C49.7727 78.8013 47.3977 79.2161 45.0005 79.43C42.6296 79.7299 40.2361 79.8102 37.8505 79.67C37.5129 79.6416 37.1784 79.5848 36.8505 79.5C36.7539 79.4639 36.6603 79.4205 36.5705 79.37C36.4533 79.1602 36.3497 78.9431 36.2605 78.72C36.1635 78.5121 36.0897 78.2941 36.0405 78.07C35.5562 75.3091 35.2489 72.5201 35.1205 69.72C34.9133 67.0306 34.9133 64.3293 35.1205 61.64C36.0505 61.42 37.3105 61.21 38.7205 61.03C40.6105 60.79 42.7205 60.62 44.7205 60.55C44.766 60.55 44.811 60.5409 44.8529 60.5232C44.8949 60.5055 44.9328 60.4795 44.9645 60.4469C44.9962 60.4143 45.021 60.3756 45.0375 60.3332C45.054 60.2908 45.0618 60.2455 45.0605 60.2C45.0579 60.1089 45.0198 60.0224 44.9545 59.9589C44.8891 59.8954 44.8016 59.8599 44.7105 59.86C42.7105 59.86 40.5805 60.02 38.6605 60.21C37.3165 60.3358 35.9809 60.5395 34.6605 60.82C34.574 60.842 34.4959 60.8888 34.4355 60.9545C34.3751 61.0202 34.3352 61.102 34.3205 61.19C33.9835 64.0404 33.9065 66.9156 34.0905 69.78C34.1989 72.6374 34.5029 75.4841 35.0005 78.3C35.0596 78.5441 35.1331 78.7845 35.2205 79.02C35.3556 79.3419 35.5092 79.6557 35.6805 79.96C35.8979 80.2097 36.1648 80.4116 36.4643 80.5528C36.7639 80.6939 37.0895 80.7713 37.4205 80.78C39.3994 80.9491 41.3908 80.9055 43.3605 80.65C46.6781 80.3714 49.951 79.7 53.1105 78.65C53.7905 78.36 54.1105 78.01 54.1805 77.74C54.2407 77.4526 54.2164 77.1539 54.1105 76.88C53.8705 76.39 53.3405 75.88 52.6305 74.53Z" fill="black"/>
<path fill-rule="evenodd" clip-rule="evenodd" d="M43.6706 68.63C43.6404 68.5342 43.5753 68.4533 43.4883 68.4033C43.4012 68.3533 43.2985 68.3378 43.2006 68.36C43.1206 68.36 43.2006 68.28 42.8506 68.36C42.0806 68.45 40.8506 68.66 39.7906 68.81C39.4706 68.86 39.1606 68.9 38.8806 68.96C38.2306 69.08 37.7406 69.22 37.5506 69.24C37.4866 69.2523 37.4289 69.2864 37.3874 69.3366C37.3459 69.3868 37.3232 69.4499 37.3232 69.515C37.3232 69.5801 37.3459 69.6432 37.3874 69.6934C37.4289 69.7436 37.4866 69.7778 37.5506 69.79C38.0498 69.8692 38.5552 69.9027 39.0606 69.89C39.5106 69.89 40.0606 69.83 40.5306 69.78C41.318 69.7044 42.0997 69.5775 42.8706 69.4C43.6006 69.16 43.7306 68.85 43.6706 68.63Z" fill="black"/>
<path fill-rule="evenodd" clip-rule="evenodd" d="M39.4506 64.77C38.773 64.9195 38.1051 65.1098 37.4506 65.34C37.3786 65.3589 37.3167 65.4048 37.2776 65.4681C37.2386 65.5313 37.2253 65.6072 37.2406 65.68C37.2594 65.7515 37.3057 65.8126 37.3694 65.85C37.433 65.8875 37.509 65.8983 37.5806 65.88C38.4706 65.74 39.3306 65.71 40.2306 65.64C41.4706 65.53 42.7606 65.4 44.2306 65.21C44.6106 65.16 45.0106 65.13 45.4106 65.04C45.5385 65.0442 45.6663 65.0308 45.7906 65C45.8506 65 45.8706 64.93 45.9306 64.89C46.0281 64.8728 46.115 64.8183 46.1729 64.738C46.2308 64.6577 46.2551 64.5579 46.2406 64.46C46.1806 64 45.3806 64 45.3006 64C43.5906 64.12 42.1406 64.33 40.7906 64.51C40.3306 64.61 39.8906 64.67 39.4506 64.77Z" fill="black"/>
<path fill-rule="evenodd" clip-rule="evenodd" d="M42.8105 72.84C42.6805 72.84 42.5205 72.84 42.3405 72.89L41.0405 73.09C40.3605 73.2 39.6405 73.31 39.0905 73.45C38.7857 73.527 38.4852 73.6204 38.1905 73.73H38.1305C38.0816 73.7152 38.0294 73.7152 37.9805 73.73C37.9805 73.73 37.8505 74.22 38.2605 74.26C38.4305 74.26 38.7605 74.32 39.2605 74.32C39.9297 74.2984 40.5973 74.2416 41.2605 74.15C41.7505 74.09 42.2605 74.02 42.5905 73.95C42.7328 73.9271 42.8732 73.8937 43.0105 73.85C43.1815 73.7788 43.3402 73.6809 43.4805 73.56C43.5721 73.511 43.6411 73.4283 43.6728 73.3294C43.7045 73.2305 43.6965 73.1231 43.6505 73.03C43.5605 73 43.5205 72.86 42.8105 72.84Z" fill="black"/>
</g>
<g filter="url(#filter5_d_396_3435)">
<circle cx="107" cy="178" r="24" fill="#CFFFC7"/>
<circle cx="107" cy="178" r="23.5" stroke="#9FC4CC"/>
</g>
<g clip-path="url(#clip3_396_3435)">
<path d="M115.43 176.27C115.388 176.228 115.338 176.194 115.283 176.171C115.228 176.148 115.169 176.136 115.11 176.136C115.05 176.136 114.991 176.148 114.937 176.171C114.882 176.194 114.832 176.228 114.79 176.27C114.459 176.58 114.151 176.914 113.87 177.27C113.44 177.79 113.05 178.35 112.65 178.86C111.81 179.96 110.97 181.05 110.09 182.12C109.51 182.83 108.91 183.53 108.29 184.21C107.84 184.72 107.29 185.44 106.64 186.07C106.288 186.464 105.892 186.816 105.46 187.12C104.98 187.333 104.46 187.443 103.935 187.443C103.41 187.443 102.89 187.333 102.41 187.12C101.364 186.782 100.434 186.154 99.7299 185.31C99.4863 184.984 99.3231 184.604 99.2536 184.203C99.1841 183.802 99.2102 183.389 99.3299 183C99.7768 181.718 100.385 180.498 101.14 179.37C101.4 178.91 101.66 178.46 101.94 178.01C102.22 177.56 102.49 177.12 102.79 176.69L104.23 174.69C104.97 173.69 105.72 172.69 106.56 171.69C107.1 171.066 107.703 170.5 108.36 170C108.64 169.79 108.92 169.55 109.21 169.36C109.374 169.247 109.552 169.156 109.74 169.09C110.299 168.93 110.891 168.93 111.45 169.09C112.038 169.251 112.595 169.508 113.1 169.85C113.351 170.019 113.548 170.257 113.665 170.536C113.782 170.815 113.815 171.123 113.76 171.42C113.559 172.48 113.091 173.471 112.4 174.3L111.6 175.3L110.6 176.64L109.25 178.45L107.6 180.67C107.278 181.106 106.927 181.52 106.55 181.91C106.181 182.295 105.765 182.631 105.31 182.91C105.043 183.048 104.75 183.128 104.45 183.143C104.15 183.159 103.85 183.11 103.57 183C103.306 182.937 103.072 182.784 102.909 182.566C102.747 182.349 102.665 182.081 102.68 181.81C102.747 181.354 102.918 180.919 103.18 180.54C103.6 179.85 104.18 179.19 104.54 178.67C104.9 178.15 105.39 177.44 105.85 176.85C106.151 176.471 106.485 176.119 106.85 175.8C106.902 175.767 106.946 175.722 106.98 175.67C107.013 175.618 107.035 175.56 107.044 175.498C107.053 175.437 107.048 175.375 107.03 175.315C107.013 175.256 106.982 175.201 106.942 175.155C106.901 175.108 106.851 175.071 106.794 175.046C106.738 175.02 106.676 175.007 106.615 175.008C106.553 175.008 106.492 175.022 106.436 175.049C106.38 175.075 106.33 175.113 106.29 175.16C105.9 175.518 105.542 175.91 105.22 176.33C104.76 176.93 104.34 177.58 103.91 178.18C103.48 178.78 102.91 179.4 102.52 180.12C102.195 180.606 101.987 181.161 101.91 181.74C101.879 182.105 101.958 182.472 102.136 182.792C102.314 183.113 102.584 183.373 102.91 183.54C103.342 183.791 103.83 183.929 104.33 183.943C104.829 183.957 105.324 183.846 105.77 183.62C106.184 183.38 106.569 183.095 106.92 182.77C107.428 182.285 107.896 181.76 108.32 181.2L109.9 179L111.29 177.16L112.29 175.86L113.09 174.86C113.89 173.905 114.433 172.763 114.67 171.54C114.752 171.075 114.696 170.597 114.51 170.163C114.323 169.73 114.014 169.36 113.62 169.1C113.03 168.693 112.373 168.391 111.68 168.21C110.955 168.001 110.185 168.001 109.46 168.21C109.189 168.298 108.933 168.426 108.7 168.59C108.4 168.79 108.11 169.04 107.82 169.26C107.117 169.801 106.471 170.41 105.89 171.08C105.04 172.08 104.29 173.14 103.54 174.17L102.11 176.24C101.81 176.69 101.52 177.14 101.24 177.6C100.96 178.06 100.71 178.53 100.45 179C99.6682 180.195 99.043 181.486 98.5899 182.84C98.4433 183.341 98.4176 183.87 98.5149 184.382C98.6123 184.895 98.8299 185.378 99.1499 185.79C99.9363 186.745 100.976 187.459 102.15 187.85C102.737 188.1 103.371 188.222 104.008 188.208C104.646 188.194 105.274 188.045 105.85 187.77C106.21 187.523 106.544 187.242 106.85 186.93C107.57 186.23 108.3 185.35 108.85 184.77C109.4 184.19 110.09 183.38 110.69 182.67C111.59 181.6 112.45 180.51 113.31 179.42C113.71 178.91 114.11 178.37 114.53 177.85C114.796 177.521 115.083 177.211 115.39 176.92C115.435 176.88 115.472 176.831 115.499 176.777C115.525 176.723 115.541 176.664 115.545 176.603C115.548 176.543 115.54 176.482 115.52 176.425C115.501 176.368 115.47 176.315 115.43 176.27Z" fill="black"/>
<path d="M97.4402 181.37C97.4402 181.56 96.5302 181.18 95.7302 181.6C94.6702 182.17 94.8802 180.81 95.6402 180.71C96.6502 180.57 97.5302 180.94 97.4402 181.37Z" fill="black"/>
<path d="M100.31 174.82C100.38 174.63 99.5702 174.11 99.1002 173.33C98.4702 172.33 97.9602 173.59 98.5702 174.06C99.3702 174.69 100.17 175.23 100.31 174.82Z" fill="black"/>
<path d="M104.76 169.25C104.56 169.25 104.63 168.33 103.95 167.72C103.06 166.91 104.41 166.65 104.77 167.33C105.24 168.23 105.19 169.19 104.76 169.25Z" fill="black"/>
<path d="M108.44 186.75C108.27 186.87 108.97 187.52 108.89 188.42C108.78 189.62 109.95 188.89 109.75 188.16C109.47 187.17 108.79 186.51 108.44 186.75Z" fill="black"/>
<path d="M113.341 181.55C113.491 181.42 114.281 181.95 115.181 182.09C116.371 182.26 115.391 183.23 114.721 182.86C113.831 182.37 113.001 181.84 113.341 181.55Z" fill="black"/>
<path d="M116.561 175.05C116.561 175.25 117.461 174.83 118.281 175.23C119.361 175.76 119.101 174.41 118.341 174.33C117.321 174.23 116.461 174.63 116.561 175.05Z" fill="black"/>
</g>
<g filter="url(#filter6_d_396_3435)">
<circle cx="116" cy="105" r="34.5" stroke="url(#paint4_linear_396_3435)" shape-rendering="crispEdges"/>
</g>
<g filter="url(#filter7_d_396_3435)">
<circle cx="116" cy="105" r="40.5" stroke="url(#paint5_linear_396_3435)" shape-rendering="crispEdges"/>
</g>
<path d="M156 89H221" stroke="url(#paint6_linear_396_3435)" stroke-width="2" stroke-linecap="round"/>
<path d="M222 112H161" stroke="url(#paint7_linear_396_3435)" stroke-width="2" stroke-linecap="round"/>
<path d="M221 96H166" stroke="url(#paint8_linear_396_3435)" stroke-width="2" stroke-linecap="round"/>
<path d="M160 104H212" stroke="url(#paint9_linear_396_3435)" stroke-width="2" stroke-linecap="round"/>
<path d="M159 120H214" stroke="url(#paint10_linear_396_3435)" stroke-width="2" stroke-linecap="round"/>
<defs>
<filter id="filter0_d_396_3435" x="69" y="0" width="76" height="76" filterUnits="userSpaceOnUse" color-interpolation-filters="sRGB">
<feFlood flood-opacity="0" result="BackgroundImageFix"/>
<feColorMatrix in="SourceAlpha" type="matrix" values="0 0 0 0 0 0 0 0 0 0 0 0 0 0 0 0 0 0 127 0" result="hardAlpha"/>
<feOffset dy="4"/>
<feGaussianBlur stdDeviation="7"/>
<feComposite in2="hardAlpha" operator="out"/>
<feColorMatrix type="matrix" values="0 0 0 0 0.282353 0 0 0 0 0.0470588 0 0 0 0 0.658824 0 0 0 0.15 0"/>
<feBlend mode="normal" in2="BackgroundImageFix" result="effect1_dropShadow_396_3435"/>
<feBlend mode="normal" in="SourceGraphic" in2="effect1_dropShadow_396_3435" result="shape"/>
</filter>
<filter id="filter1_d_396_3435" x="73" y="66" width="86" height="86" filterUnits="userSpaceOnUse" color-interpolation-filters="sRGB">
<feFlood flood-opacity="0" result="BackgroundImageFix"/>
<feColorMatrix in="SourceAlpha" type="matrix" values="0 0 0 0 0 0 0 0 0 0 0 0 0 0 0 0 0 0 127 0" result="hardAlpha"/>
<feOffset dy="4"/>
<feGaussianBlur stdDeviation="7"/>
<feComposite in2="hardAlpha" operator="out"/>
<feColorMatrix type="matrix" values="0 0 0 0 0.282353 0 0 0 0 0.0470588 0 0 0 0 0.658824 0 0 0 0.15 0"/>
<feBlend mode="normal" in2="BackgroundImageFix" result="effect1_dropShadow_396_3435"/>
<feBlend mode="normal" in="SourceGraphic" in2="effect1_dropShadow_396_3435" result="shape"/>
</filter>
<filter id="filter2_d_396_3435" x="191" y="37" width="142" height="142" filterUnits="userSpaceOnUse" color-interpolation-filters="sRGB">
<feFlood flood-opacity="0" result="BackgroundImageFix"/>
<feColorMatrix in="SourceAlpha" type="matrix" values="0 0 0 0 0 0 0 0 0 0 0 0 0 0 0 0 0 0 127 0" result="hardAlpha"/>
<feOffset dy="4"/>
<feGaussianBlur stdDeviation="17"/>
<feComposite in2="hardAlpha" operator="out"/>
<feColorMatrix type="matrix" values="0 0 0 0 0 0 0 0 0 0.166667 0 0 0 0 0.5 0 0 0 0.2 0"/>
<feBlend mode="normal" in2="BackgroundImageFix" result="effect1_dropShadow_396_3435"/>
<feBlend mode="normal" in="SourceGraphic" in2="effect1_dropShadow_396_3435" result="shape"/>
</filter>
<filter id="filter3_d_396_3435" x="7" y="110" width="76" height="76" filterUnits="userSpaceOnUse" color-interpolation-filters="sRGB">
<feFlood flood-opacity="0" result="BackgroundImageFix"/>
<feColorMatrix in="SourceAlpha" type="matrix" values="0 0 0 0 0 0 0 0 0 0 0 0 0 0 0 0 0 0 127 0" result="hardAlpha"/>
<feOffset dy="4"/>
<feGaussianBlur stdDeviation="7"/>
<feComposite in2="hardAlpha" operator="out"/>
<feColorMatrix type="matrix" values="0 0 0 0 0 0 0 0 0 0 0 0 0 0 0 0 0 0 0.15 0"/>
<feBlend mode="normal" in2="BackgroundImageFix" result="effect1_dropShadow_396_3435"/>
<feBlend mode="normal" in="SourceGraphic" in2="effect1_dropShadow_396_3435" result="shape"/>
</filter>
<filter id="filter4_d_396_3435" x="7" y="36" width="76" height="76" filterUnits="userSpaceOnUse" color-interpolation-filters="sRGB">
<feFlood flood-opacity="0" result="BackgroundImageFix"/>
<feColorMatrix in="SourceAlpha" type="matrix" values="0 0 0 0 0 0 0 0 0 0 0 0 0 0 0 0 0 0 127 0" result="hardAlpha"/>
<feOffset dy="4"/>
<feGaussianBlur stdDeviation="7"/>
<feComposite in2="hardAlpha" operator="out"/>
<feColorMatrix type="matrix" values="0 0 0 0 0 0 0 0 0 0 0 0 0 0 0 0 0 0 0.15 0"/>
<feBlend mode="normal" in2="BackgroundImageFix" result="effect1_dropShadow_396_3435"/>
<feBlend mode="normal" in="SourceGraphic" in2="effect1_dropShadow_396_3435" result="shape"/>
</filter>
<filter id="filter5_d_396_3435" x="69" y="144" width="76" height="76" filterUnits="userSpaceOnUse" color-interpolation-filters="sRGB">
<feFlood flood-opacity="0" result="BackgroundImageFix"/>
<feColorMatrix in="SourceAlpha" type="matrix" values="0 0 0 0 0 0 0 0 0 0 0 0 0 0 0 0 0 0 127 0" result="hardAlpha"/>
<feOffset dy="4"/>
<feGaussianBlur stdDeviation="7"/>
<feComposite in2="hardAlpha" operator="out"/>
<feColorMatrix type="matrix" values="0 0 0 0 0.282353 0 0 0 0 0.0470588 0 0 0 0 0.658824 0 0 0 0.15 0"/>
<feBlend mode="normal" in2="BackgroundImageFix" result="effect1_dropShadow_396_3435"/>
<feBlend mode="normal" in="SourceGraphic" in2="effect1_dropShadow_396_3435" result="shape"/>
</filter>
<filter id="filter6_d_396_3435" x="67" y="60" width="98" height="98" filterUnits="userSpaceOnUse" color-interpolation-filters="sRGB">
<feFlood flood-opacity="0" result="BackgroundImageFix"/>
<feColorMatrix in="SourceAlpha" type="matrix" values="0 0 0 0 0 0 0 0 0 0 0 0 0 0 0 0 0 0 127 0" result="hardAlpha"/>
<feOffset dy="4"/>
<feGaussianBlur stdDeviation="7"/>
<feComposite in2="hardAlpha" operator="out"/>
<feColorMatrix type="matrix" values="0 0 0 0 0 0 0 0 0 0 0 0 0 0 0 0 0 0 0.15 0"/>
<feBlend mode="normal" in2="BackgroundImageFix" result="effect1_dropShadow_396_3435"/>
<feBlend mode="normal" in="SourceGraphic" in2="effect1_dropShadow_396_3435" result="shape"/>
</filter>
<filter id="filter7_d_396_3435" x="61" y="54" width="110" height="110" filterUnits="userSpaceOnUse" color-interpolation-filters="sRGB">
<feFlood flood-opacity="0" result="BackgroundImageFix"/>
<feColorMatrix in="SourceAlpha" type="matrix" values="0 0 0 0 0 0 0 0 0 0 0 0 0 0 0 0 0 0 127 0" result="hardAlpha"/>
<feOffset dy="4"/>
<feGaussianBlur stdDeviation="7"/>
<feComposite in2="hardAlpha" operator="out"/>
<feColorMatrix type="matrix" values="0 0 0 0 0 0 0 0 0 0 0 0 0 0 0 0 0 0 0.15 0"/>
<feBlend mode="normal" in2="BackgroundImageFix" result="effect1_dropShadow_396_3435"/>
<feBlend mode="normal" in="SourceGraphic" in2="effect1_dropShadow_396_3435" result="shape"/>
</filter>
<linearGradient id="paint0_linear_396_3435" x1="19.5" y1="1.45712e-05" x2="349.353" y2="109.85" gradientUnits="userSpaceOnUse">
<stop stop-color="#7AB8FF"/>
<stop offset="0.525043" stop-color="#FEFEFE"/>
<stop offset="1" stop-color="#8CC1FE"/>
</linearGradient>
<linearGradient id="paint1_linear_396_3435" x1="33.6593" y1="20" x2="326.683" y2="126.658" gradientUnits="userSpaceOnUse">
<stop stop-color="#7AB8FF"/>
<stop offset="0.525043" stop-color="#FEFEFE"/>
<stop offset="1" stop-color="#8CC1FE"/>
</linearGradient>
<linearGradient id="paint2_linear_396_3435" x1="50.4159" y1="43" x2="294.556" y2="148.454" gradientUnits="userSpaceOnUse">
<stop stop-color="#7AB8FF"/>
<stop offset="0.525043" stop-color="#FEFEFE"/>
<stop offset="1" stop-color="#8CC1FE"/>
</linearGradient>
<linearGradient id="paint3_linear_396_3435" x1="4.02655" y1="4.85707e-06" x2="76.6029" y2="14.9726" gradientUnits="userSpaceOnUse">
<stop stop-color="#7AB8FF"/>
<stop offset="0.525043" stop-color="#FEFEFE"/>
<stop offset="1" stop-color="#8CC1FE"/>
</linearGradient>
<linearGradient id="paint4_linear_396_3435" x1="85.0265" y1="70" x2="157.603" y2="84.9726" gradientUnits="userSpaceOnUse">
<stop stop-color="#7AB8FF"/>
<stop offset="0.525043" stop-color="#FEFEFE"/>
<stop offset="1" stop-color="#8CC1FE"/>
</linearGradient>
<linearGradient id="paint5_linear_396_3435" x1="79.7168" y1="64" x2="164.735" y2="81.5393" gradientUnits="userSpaceOnUse">
<stop stop-color="#7AB8FF"/>
<stop offset="0.525043" stop-color="#FEFEFE"/>
<stop offset="1" stop-color="#8CC1FE"/>
</linearGradient>
<linearGradient id="paint6_linear_396_3435" x1="156" y1="89.5" x2="221" y2="89.5" gradientUnits="userSpaceOnUse">
<stop stop-color="#04FED1" stop-opacity="0.5"/>
<stop offset="1" stop-color="#0044CC" stop-opacity="0.7"/>
</linearGradient>
<linearGradient id="paint7_linear_396_3435" x1="222" y1="112.5" x2="161" y2="112.5" gradientUnits="userSpaceOnUse">
<stop stop-color="#04FED1" stop-opacity="0.5"/>
<stop offset="1" stop-color="#0044CC" stop-opacity="0.7"/>
</linearGradient>
<linearGradient id="paint8_linear_396_3435" x1="221" y1="96.5" x2="166" y2="96.5" gradientUnits="userSpaceOnUse">
<stop stop-color="#04FED1" stop-opacity="0.5"/>
<stop offset="1" stop-color="#0044CC" stop-opacity="0.7"/>
</linearGradient>
<linearGradient id="paint9_linear_396_3435" x1="160" y1="104.5" x2="212" y2="104.5" gradientUnits="userSpaceOnUse">
<stop stop-color="#04FED1" stop-opacity="0.5"/>
<stop offset="1" stop-color="#0044CC" stop-opacity="0.7"/>
</linearGradient>
<linearGradient id="paint10_linear_396_3435" x1="159" y1="120.5" x2="214" y2="120.5" gradientUnits="userSpaceOnUse">
<stop stop-color="#04FED1" stop-opacity="0.5"/>
<stop offset="1" stop-color="#0044CC" stop-opacity="0.7"/>
</linearGradient>
<clipPath id="clip0_396_3435">
<rect width="24" height="24" fill="white" transform="translate(96 20)"/>
</clipPath>
<clipPath id="clip1_396_3435">
<rect width="28" height="28" fill="white" transform="translate(31 130)"/>
</clipPath>
<clipPath id="clip2_396_3435">
<rect width="24" height="24" fill="white" transform="translate(34 57)"/>
</clipPath>
<clipPath id="clip3_396_3435">
<rect width="24" height="24" fill="white" transform="translate(95 166)"/>
</clipPath>
</defs>
</svg>
