<svg width="339" height="210" viewBox="0 0 339 210" fill="none" xmlns="http://www.w3.org/2000/svg">
<rect x="-0.5" y="0.5" width="338" height="209" rx="39.5" transform="matrix(-1 0 0 1 338 0)" stroke="url(#paint0_linear_317_996)"/>
<rect x="-0.5" y="0.5" width="306" height="173" rx="29.5" transform="matrix(-1 0 0 1 322 18)" stroke="url(#paint1_linear_317_996)"/>
<rect x="-0.5" y="0.5" width="267" height="127" rx="19.5" transform="matrix(-1 0 0 1 303 41)" stroke="url(#paint2_linear_317_996)"/>
<g filter="url(#filter0_d_317_996)">
<circle cx="24" cy="24" r="24" transform="matrix(-1 0 0 1 77 135)" fill="#FFC7C7"/>
<circle cx="24" cy="24" r="23.5" transform="matrix(-1 0 0 1 77 135)" stroke="#CC9F9F"/>
</g>
<g filter="url(#filter1_d_317_996)">
<circle cx="113" cy="162" r="24" fill="#C7F5FF"/>
<circle cx="113" cy="162" r="23.5" stroke="#9FC4CC"/>
</g>
<g filter="url(#filter2_d_317_996)">
<circle cx="269" cy="161" r="24" fill="#CFFFC7"/>
<circle cx="269" cy="161" r="23.5" stroke="#9FC4CC"/>
</g>
<g clip-path="url(#clip0_317_996)">
<path fill-rule="evenodd" clip-rule="evenodd" d="M55.23 157.87C55.6649 158.081 56.1374 158.203 56.62 158.23C58.1936 158.404 59.7782 158.457 61.36 158.39C62.0916 158.363 62.8156 158.232 63.51 158C63.6807 157.952 63.8371 157.863 63.9659 157.741C64.0948 157.619 64.1922 157.468 64.25 157.3C64.349 156.682 64.3991 156.056 64.4 155.43C64.46 153.69 64.4 151.34 64.4 151.34C64.414 151.281 64.414 151.219 64.4 151.16C64.0999 150.378 63.5999 149.688 62.95 149.16C62.3472 148.667 61.6728 148.269 60.95 147.98C60.9073 147.97 60.8627 147.97 60.82 147.98H58.52C57.9982 147.984 57.4772 148.02 56.96 148.09C56.8785 148.105 56.8059 148.15 56.7574 148.217C56.7089 148.285 56.6883 148.368 56.7 148.45C56.705 148.527 56.7384 148.599 56.7939 148.653C56.8494 148.707 56.9229 148.738 57 148.74C57.4861 148.707 57.9739 148.707 58.46 148.74H59.55C59.4756 149.294 59.4355 149.851 59.43 150.41C59.4301 150.677 59.4468 150.945 59.48 151.21C59.5124 151.47 59.5867 151.723 59.7 151.96C59.7431 152.046 59.805 152.121 59.8812 152.18C59.9573 152.239 60.0458 152.28 60.14 152.3C60.4428 152.325 60.7472 152.325 61.05 152.3C61.4802 152.281 61.9083 152.227 62.33 152.14C62.3769 152.137 62.4228 152.126 62.465 152.105C62.5072 152.084 62.5448 152.055 62.5756 152.02C62.6064 151.984 62.6297 151.943 62.6442 151.899C62.6587 151.854 62.6641 151.807 62.66 151.76C62.6499 151.665 62.6037 151.578 62.5311 151.517C62.4585 151.455 62.365 151.424 62.27 151.43C61.95 151.43 61.61 151.43 61.27 151.34C60.93 151.25 60.87 151.28 60.7 151.24C60.65 150.98 60.61 150.62 60.54 150.24C60.43 149.67 60.3 149.09 60.23 148.77H60.62C61.2404 149.046 61.814 149.417 62.32 149.87C62.7683 150.299 63.1106 150.826 63.32 151.41C63.32 151.85 63.22 153.85 63.14 155.41C63.14 156.02 63.08 156.55 63.04 156.84C62.97 156.84 62.85 156.95 62.75 156.98C61.7077 157.169 60.6491 157.253 59.59 157.23C58.5051 157.246 57.4201 157.203 56.34 157.1H55.93C55.93 156.97 55.79 156.71 55.75 156.43C55.6038 155.102 55.5271 153.766 55.52 152.43C55.4342 151.369 55.5016 150.302 55.72 149.26C55.743 149.219 55.7577 149.173 55.7631 149.126C55.7685 149.079 55.7646 149.031 55.7516 148.986C55.7386 148.94 55.7168 148.898 55.6873 148.861C55.6579 148.824 55.6214 148.793 55.58 148.77C55.54 148.747 55.4958 148.732 55.45 148.726C55.4041 148.72 55.3575 148.723 55.3129 148.735C55.2683 148.747 55.2265 148.768 55.1899 148.796C55.1534 148.824 55.1228 148.86 55.1 148.9C54.7195 150.612 54.5715 152.368 54.66 154.12C54.6451 155.163 54.7052 156.206 54.84 157.24C54.8908 157.49 55.0291 157.713 55.23 157.87Z" fill="black"/>
<path fill-rule="evenodd" clip-rule="evenodd" d="M54.78 169.29C54.7961 169.806 54.8428 170.32 54.92 170.83C54.9517 171.065 55.0607 171.283 55.23 171.45C55.6649 171.661 56.1374 171.783 56.62 171.81C58.1936 171.984 59.7782 172.037 61.36 171.97C62.0896 171.956 62.8136 171.838 63.51 171.62C63.6806 171.572 63.8371 171.483 63.9659 171.361C64.0948 171.239 64.1922 171.088 64.25 170.92C64.349 170.301 64.3991 169.676 64.4 169.05C64.46 167.31 64.4 164.96 64.4 164.96C64.4148 164.901 64.4148 164.839 64.4 164.78C64.0998 163.998 63.5999 163.308 62.95 162.78C62.3472 162.287 61.6728 161.889 60.95 161.6C60.9073 161.59 60.8627 161.59 60.82 161.6H58.52C57.9982 161.604 57.4772 161.64 56.96 161.71C56.8785 161.725 56.8059 161.77 56.7574 161.837C56.7089 161.905 56.6883 161.988 56.7 162.07C56.7061 162.111 56.7203 162.15 56.7418 162.186C56.7632 162.221 56.7916 162.252 56.8252 162.276C56.8587 162.3 56.8968 162.317 56.9371 162.327C56.9774 162.336 57.0192 162.337 57.06 162.33C57.5461 162.297 58.0339 162.297 58.52 162.33H59.61C59.5222 162.883 59.4688 163.44 59.45 164C59.4498 164.264 59.4665 164.528 59.5 164.79C59.5329 165.053 59.6071 165.31 59.72 165.55C59.7617 165.636 59.8234 165.711 59.9 165.768C59.9765 165.826 60.0657 165.864 60.16 165.88C60.4626 165.911 60.7675 165.911 61.07 165.88C61.4998 165.856 61.9274 165.802 62.35 165.72C62.3969 165.717 62.4428 165.706 62.485 165.685C62.5272 165.664 62.5648 165.635 62.5956 165.6C62.6264 165.564 62.6497 165.523 62.6642 165.479C62.6787 165.434 62.6841 165.387 62.68 165.34C62.6699 165.245 62.6237 165.158 62.5511 165.097C62.4785 165.035 62.385 165.004 62.29 165.01C61.97 165.01 61.63 164.96 61.29 164.92C60.95 164.88 60.89 164.86 60.72 164.82C60.67 164.56 60.63 164.2 60.56 163.82C60.45 163.24 60.32 162.67 60.25 162.35H60.64C61.2604 162.626 61.834 162.997 62.34 163.45C62.7882 163.879 63.1306 164.406 63.34 164.99C63.34 165.43 63.24 167.43 63.16 168.99C63.16 169.6 63.1 170.13 63.06 170.42C62.99 170.42 62.87 170.53 62.77 170.56C61.7277 170.749 60.6691 170.833 59.61 170.81C58.5251 170.826 57.4401 170.783 56.36 170.68H55.95C55.95 170.55 55.81 170.29 55.77 170.01C55.6241 168.681 55.5474 167.346 55.54 166.01C55.4542 164.949 55.5216 163.882 55.74 162.84C55.763 162.799 55.7777 162.753 55.7831 162.706C55.7885 162.659 55.7846 162.611 55.7716 162.566C55.7586 162.52 55.7368 162.478 55.7073 162.441C55.6779 162.404 55.6414 162.373 55.6 162.35C55.56 162.327 55.5158 162.312 55.47 162.306C55.4241 162.3 55.3775 162.303 55.3329 162.315C55.2883 162.327 55.2465 162.348 55.2099 162.376C55.1734 162.404 55.1428 162.44 55.12 162.48C54.7395 164.192 54.5915 165.948 54.68 167.7V168.54L54.78 169.29Z" fill="black"/>
<path fill-rule="evenodd" clip-rule="evenodd" d="M42.31 152.65C42.3573 152.65 42.4041 152.641 42.4478 152.623C42.4915 152.604 42.5311 152.578 42.5646 152.545C42.598 152.511 42.6245 152.471 42.6426 152.428C42.6607 152.384 42.67 152.337 42.67 152.29C42.679 152.25 42.679 152.209 42.67 152.17V151.98C42.67 151.7 42.76 151.25 42.78 150.77C42.795 150.57 42.795 150.37 42.78 150.17C42.78 149.93 42.7 149.73 42.67 149.58C42.64 149.43 42.55 148.91 42.53 148.77C42.5229 148.727 42.5229 148.683 42.53 148.64C42.4 148.43 42.26 148.38 42.16 148.41C42.083 148.415 42.0106 148.448 41.957 148.504C41.9034 148.559 41.8723 148.633 41.87 148.71C41.8653 148.726 41.8653 148.744 41.87 148.76C41.73 148.76 41.69 149.38 41.65 149.58C41.5966 149.857 41.5698 150.138 41.57 150.42C41.5786 150.696 41.6121 150.97 41.67 151.24C41.7349 151.578 41.8184 151.911 41.92 152.24C42 152.58 42.26 152.65 42.31 152.65Z" fill="black"/>
<path fill-rule="evenodd" clip-rule="evenodd" d="M42.56 158.71C42.6538 158.71 42.7439 158.673 42.8111 158.608C42.8783 158.543 42.9174 158.454 42.92 158.36C42.935 158.308 42.935 158.252 42.92 158.2V158.06C42.89 157.8 43 157.4 43 157C43.0105 156.823 43.0105 156.646 43 156.47C43 156.25 42.9 156.08 42.88 155.95C42.86 155.82 42.75 155.41 42.72 155.23V155.17C42.73 155.144 42.73 155.116 42.72 155.09C42.72 155.01 42.19 154.75 42.08 155.21C42.03 155.4 41.93 155.82 41.9 155.95C41.8502 156.207 41.8268 156.468 41.83 156.73C41.849 156.984 41.8925 157.235 41.96 157.48C42.0331 157.79 42.13 158.094 42.25 158.39C42.29 158.66 42.5 158.72 42.56 158.71Z" fill="black"/>
<path fill-rule="evenodd" clip-rule="evenodd" d="M42.21 164.19C42.2013 164.242 42.204 164.294 42.2178 164.345C42.2317 164.395 42.2563 164.442 42.2901 164.482C42.3239 164.522 42.366 164.554 42.4135 164.576C42.461 164.598 42.5127 164.61 42.565 164.61C42.6173 164.61 42.6691 164.598 42.7165 164.576C42.764 164.554 42.8061 164.522 42.8399 164.482C42.8737 164.442 42.8984 164.395 42.9122 164.345C42.926 164.294 42.9287 164.242 42.92 164.19C43.0226 163.801 43.0764 163.402 43.08 163C43.08 162.75 43.02 162.51 43 162.28C42.98 162.05 42.9 161.47 42.73 161.49C42.7397 161.444 42.7397 161.396 42.73 161.35C42.73 160.98 42.33 161.12 42.25 161.14C42.155 161.227 42.0917 161.343 42.07 161.47C42.01 161.65 41.92 162.23 41.89 162.35C41.8753 162.6 41.8753 162.85 41.89 163.1C42 163.52 42.13 163.85 42.21 164.19Z" fill="black"/>
<path fill-rule="evenodd" clip-rule="evenodd" d="M45.28 168.34L44.17 168.23C43.9 168.23 43.64 168.15 43.4 168.1C43.2623 168.087 43.1274 168.054 43 168C43 168 43.11 168.09 43.06 168.11C42.77 168.21 42.95 167.17 42.89 166.95C42.83 166.73 42.89 166.28 42.73 166.26C42.7403 166.214 42.7403 166.166 42.73 166.12C42.7212 166.077 42.7033 166.037 42.6776 166.002C42.6518 165.967 42.6188 165.939 42.5808 165.918C42.5427 165.897 42.5006 165.884 42.4573 165.881C42.414 165.878 42.3706 165.885 42.33 165.9C42.2612 165.93 42.2022 165.979 42.1598 166.04C42.1173 166.102 42.0931 166.175 42.09 166.25V167.07C42.09 167.2 41.93 167.83 41.94 168.19C41.9464 168.413 42.0273 168.628 42.17 168.8C42.4888 169.079 42.8965 169.235 43.32 169.24C43.9916 169.221 44.6605 169.148 45.32 169.02C45.4039 169.006 45.4801 168.962 45.5351 168.897C45.59 168.832 45.6202 168.75 45.6202 168.665C45.6202 168.58 45.59 168.497 45.5351 168.432C45.4801 168.367 45.4039 168.324 45.32 168.31L45.28 168.34Z" fill="black"/>
<path fill-rule="evenodd" clip-rule="evenodd" d="M50.07 168.43C49.86 168.43 49.42 168.23 48.91 168.15C48.7535 168.14 48.5965 168.14 48.44 168.15H48.12C47.77 168.21 47.5 168.28 47.36 168.31H47.3C47.2538 168.3 47.2062 168.3 47.16 168.31C47.16 168.31 46.86 168.8 47.3 168.96C47.44 168.96 47.71 169.11 48.06 169.21C48.1638 169.245 48.2711 169.268 48.38 169.28C48.5363 169.295 48.6937 169.295 48.85 169.28C49.2609 169.248 49.6688 169.184 50.07 169.09C50.1637 169.087 50.2528 169.048 50.3181 168.981C50.3835 168.914 50.42 168.824 50.42 168.73C50.406 168.647 50.3633 168.571 50.2993 168.517C50.2354 168.462 50.1542 168.431 50.07 168.43Z" fill="black"/>
<path fill-rule="evenodd" clip-rule="evenodd" d="M47.23 154.16C47.2694 154.17 47.3106 154.17 47.35 154.16C47.4455 154.16 47.5371 154.122 47.6046 154.055C47.6721 153.987 47.71 153.895 47.71 153.8C47.71 153.74 47.63 153.49 47.26 153.39C46.8471 153.282 46.4255 153.212 46 153.18C45.7206 153.155 45.4394 153.155 45.16 153.18C44.6598 153.244 44.1734 153.389 43.72 153.61C43.6631 153.671 43.6314 153.751 43.6314 153.835C43.6314 153.918 43.6631 153.999 43.72 154.06C43.7541 154.1 43.7972 154.132 43.8458 154.153C43.8944 154.174 43.9472 154.183 44 154.18C44 154.18 44 154.18 44.06 154.18C44.27 154.18 44.67 154.32 45.17 154.36C45.4428 154.385 45.7172 154.385 45.99 154.36C46.52 154.31 46.99 154.18 47.19 154.17L47.23 154.16Z" fill="black"/>
<path fill-rule="evenodd" clip-rule="evenodd" d="M53.29 153.61C53.2874 153.516 53.2483 153.427 53.1811 153.362C53.1139 153.297 53.0238 153.26 52.93 153.26C52.5038 153.168 52.0733 153.098 51.64 153.05C51.3539 153.025 51.0661 153.025 50.78 153.05C50.22 153.05 49.78 153.25 49.53 153.26H49.41C49.3693 153.259 49.3287 153.265 49.2906 153.28C49.2525 153.294 49.2175 153.316 49.1878 153.344C49.1581 153.372 49.1342 153.405 49.1174 153.442C49.1006 153.479 49.0913 153.519 49.09 153.56C49.09 153.63 49.16 153.84 49.5 153.95C49.9307 154.1 50.3768 154.2 50.83 154.25C51.1161 154.275 51.4039 154.275 51.69 154.25C52.1075 154.189 52.5214 154.105 52.93 154C52.9799 154 53.0293 153.99 53.0751 153.97C53.1208 153.95 53.1619 153.921 53.1958 153.884C53.2296 153.848 53.2555 153.804 53.2717 153.757C53.2879 153.71 53.2942 153.66 53.29 153.61Z" fill="black"/>
<path fill-rule="evenodd" clip-rule="evenodd" d="M53.22 168.29C53.0704 168.275 52.9196 168.275 52.77 168.29C52.6702 168.28 52.5698 168.28 52.47 168.29C52.1607 168.301 51.8545 168.355 51.56 168.45C51.37 168.45 51.13 168.88 51.67 169.1C51.9107 169.206 52.1578 169.296 52.41 169.37C52.5069 169.405 52.6076 169.428 52.71 169.44C52.8596 169.455 53.0104 169.455 53.16 169.44C54.6 169.22 54.59 168.47 53.22 168.29Z" fill="black"/>
</g>
<g filter="url(#filter3_d_317_996)">
<circle cx="216" cy="163" r="24" fill="#FFF9C7"/>
<circle cx="216" cy="163" r="23.5" stroke="#CCC89F"/>
</g>
<g clip-path="url(#clip1_317_996)">
<path d="M120.42 160.71C120.401 160.622 120.348 160.545 120.274 160.495C120.2 160.445 120.109 160.425 120.02 160.44C119.975 160.447 119.932 160.463 119.893 160.488C119.855 160.512 119.821 160.544 119.795 160.581C119.769 160.618 119.751 160.66 119.741 160.705C119.732 160.749 119.731 160.795 119.74 160.84C119.877 161.857 119.933 162.884 119.91 163.91C119.91 166.82 119.64 170.39 119.63 171.25C119.63 171.54 119.31 171.64 118.97 171.77C118.32 172.01 117.47 172.12 116.97 172.26C115.832 172.547 114.671 172.728 113.5 172.8C111.74 172.92 109.96 172.86 108.13 172.8C107.33 172.8 105.85 172.86 104.53 172.75C103.836 172.739 103.153 172.575 102.53 172.27C102.474 172.066 102.43 171.859 102.4 171.65C102.274 170.321 102.231 168.985 102.27 167.65C102.27 164.83 102.45 161.57 102.61 160.03C102.622 159.195 102.699 158.363 102.84 157.54C102.943 157.095 103.215 156.707 103.6 156.46C104.797 155.956 106.081 155.691 107.38 155.68C109.98 155.51 112.84 155.68 113.47 155.68C113.541 155.667 113.606 155.629 113.653 155.574C113.699 155.518 113.725 155.448 113.725 155.375C113.725 155.302 113.699 155.232 113.653 155.176C113.606 155.121 113.541 155.083 113.47 155.07C111.087 154.898 108.696 154.875 106.31 155C105.227 155.035 104.16 155.28 103.17 155.72C102.878 155.898 102.624 156.131 102.423 156.408C102.223 156.684 102.079 156.998 102 157.33C101.812 158.209 101.695 159.102 101.65 160C101.43 161.8 101.14 165.91 101.13 169C101.088 170.206 101.179 171.414 101.4 172.6C101.458 172.847 101.595 173.068 101.79 173.23C102.39 173.617 103.078 173.848 103.79 173.9C105.223 174.031 106.663 174.064 108.1 174C109.96 174 111.77 174 113.55 173.86C114.784 173.759 116.005 173.545 117.2 173.22C118.048 173.053 118.879 172.805 119.68 172.48C119.921 172.379 120.129 172.212 120.279 171.997C120.43 171.783 120.517 171.531 120.53 171.27C120.53 170.41 120.7 166.84 120.65 163.93C120.655 162.852 120.578 161.776 120.42 160.71Z" fill="black"/>
<path d="M124.6 151.59C124.524 151.145 124.315 150.734 124 150.41C122.92 149.936 121.714 149.834 120.57 150.12C118.168 150.517 115.819 151.188 113.57 152.12C113.434 152.177 113.322 152.278 113.251 152.407C113.18 152.536 113.155 152.685 113.18 152.83C113.202 152.942 113.248 153.047 113.316 153.139C113.383 153.23 113.47 153.306 113.57 153.36C114.543 153.725 115.547 154.003 116.57 154.19C116.733 154.237 116.89 154.301 117.04 154.38C116.17 155.38 114.83 157.02 113.4 158.83C108.65 164.67 108.45 165 109.05 165.9C109.41 166.46 110.27 166.65 111.12 165.9C116.12 161.9 118.99 159.73 120.48 158.56L121 158.17C121.289 158.879 121.661 159.55 122.11 160.17C122.253 160.37 122.465 160.51 122.705 160.563C122.944 160.616 123.196 160.58 123.41 160.46C123.881 160.071 124.208 159.536 124.34 158.94C124.636 157.823 124.8 156.675 124.83 155.52C124.913 154.206 124.836 152.886 124.6 151.59ZM123.7 155.48C123.683 156.539 123.546 157.592 123.29 158.62C123.228 158.885 123.131 159.141 123 159.38C122.9 159.22 122.62 159.04 122.48 158.79C122.09 158.11 121.75 157.3 121.58 157.05C121.532 156.991 121.472 156.944 121.404 156.912C121.335 156.879 121.261 156.863 121.185 156.863C121.109 156.863 121.035 156.879 120.966 156.912C120.898 156.944 120.838 156.991 120.79 157.05C120.495 157.347 120.181 157.624 119.85 157.88C118.39 159 115.51 161.24 110.64 165.38C110.23 165.72 109.83 165.77 109.64 165.51C109.25 164.93 109.86 164.12 113.9 159.27C115.67 157.16 117.28 155.27 118.11 154.44C118.177 154.356 118.214 154.252 118.214 154.145C118.214 154.038 118.177 153.934 118.11 153.85C117.825 153.598 117.481 153.422 117.11 153.34C116.46 153.14 115.11 153.02 114.45 152.81C116.168 152.209 117.93 151.741 119.72 151.41C120.609 151.23 121.513 151.139 122.42 151.14C122.712 151.127 123.002 151.193 123.26 151.33C123.36 151.4 123.38 151.6 123.44 151.85C123.674 153.045 123.761 154.264 123.7 155.48Z" fill="black"/>
</g>
<g clip-path="url(#clip2_317_996)">
<path fill-rule="evenodd" clip-rule="evenodd" d="M225.9 155.49C225.871 154.392 225.751 153.298 225.54 152.22C225.48 151.839 225.298 151.488 225.02 151.22C224.138 150.865 223.2 150.666 222.25 150.63C218.766 150.314 215.267 150.194 211.77 150.27C209.427 150.271 207.087 150.448 204.77 150.8C204.05 150.871 203.366 151.149 202.8 151.6C202.425 152.313 202.219 153.104 202.2 153.91C201.982 156.691 201.935 159.483 202.06 162.27C202.119 165.417 202.433 168.554 203 171.65C203.077 172.084 203.259 172.493 203.53 172.84C204.083 173.179 204.712 173.374 205.36 173.41C207.571 173.659 209.795 173.772 212.02 173.75C216.174 173.805 220.327 173.578 224.45 173.07C224.489 173.065 224.527 173.052 224.561 173.032C224.595 173.013 224.625 172.986 224.648 172.954C224.672 172.922 224.688 172.886 224.697 172.847C224.706 172.809 224.707 172.769 224.7 172.73C224.688 172.649 224.644 172.577 224.578 172.528C224.513 172.479 224.431 172.459 224.35 172.47C220.248 172.902 216.122 173.056 212 172.93C209.817 172.912 207.636 172.765 205.47 172.49C205.013 172.465 204.566 172.342 204.16 172.13C203.913 171.596 203.773 171.018 203.75 170.43C203.414 167.712 203.223 164.978 203.18 162.24C203.075 159.492 203.135 156.741 203.36 154C203.363 153.43 203.479 152.866 203.7 152.34C203.791 152.273 203.892 152.223 204 152.19C204.447 152.047 204.906 151.94 205.37 151.87C208.232 151.508 211.115 151.341 214 151.37C217.27 151.37 220.55 151.45 222.62 151.67C223.239 151.699 223.851 151.81 224.44 152C224.31 152.11 224.62 152.42 224.69 152.81C224.925 154.37 225.058 155.943 225.09 157.52C225.25 161.93 225.16 167.8 225.09 171.52C225.09 171.611 225.125 171.699 225.189 171.764C225.252 171.829 225.339 171.867 225.43 171.87C225.521 171.87 225.609 171.835 225.674 171.771C225.739 171.708 225.777 171.621 225.78 171.53C225.92 167.21 226.12 160 225.9 155.49Z" fill="black"/>
<path fill-rule="evenodd" clip-rule="evenodd" d="M206.29 158.33C207 158.412 207.715 158.446 208.43 158.43C208.821 158.433 209.211 158.386 209.59 158.29C209.721 158.247 209.838 158.172 209.93 158.07C210.03 157.946 210.095 157.798 210.12 157.64C210.191 157.096 210.207 156.547 210.17 156C210.164 155.433 210.107 154.867 210 154.31C209.959 154.162 209.883 154.025 209.78 153.91C209.47 153.755 209.126 153.682 208.78 153.7C207.813 153.694 206.846 153.764 205.89 153.91C205.84 153.92 205.794 153.942 205.754 153.973C205.714 154.004 205.682 154.044 205.66 154.09C205.589 154.108 205.525 154.149 205.48 154.207C205.435 154.265 205.41 154.336 205.41 154.41C205.322 155.428 205.285 156.449 205.3 157.47C205.309 157.717 205.408 157.952 205.58 158.13C205.802 158.24 206.043 158.308 206.29 158.33ZM207.29 154.5C207.863 154.507 208.435 154.557 209 154.65C209.042 155.349 209.042 156.051 209 156.75V157.22C208.164 157.321 207.321 157.355 206.48 157.32H206.16C206.081 156.382 206.051 155.441 206.07 154.5C206.37 154.48 206.84 154.48 207.32 154.5H207.29Z" fill="black"/>
<path fill-rule="evenodd" clip-rule="evenodd" d="M205.69 164.23C205.92 164.347 206.172 164.415 206.43 164.43C207.14 164.511 207.855 164.547 208.57 164.54C208.962 164.541 209.352 164.49 209.73 164.39C209.859 164.344 209.976 164.269 210.07 164.17C210.167 164.044 210.232 163.896 210.26 163.74C210.328 163.186 210.345 162.627 210.31 162.07C210.287 161.514 210.213 160.962 210.09 160.42C210.061 160.267 209.984 160.127 209.87 160.02C209.561 159.865 209.216 159.792 208.87 159.81C207.91 159.798 206.95 159.861 206 160C205.95 160.005 205.902 160.024 205.862 160.053C205.821 160.083 205.79 160.124 205.77 160.17C205.698 160.189 205.635 160.23 205.588 160.288C205.541 160.345 205.514 160.416 205.51 160.49C205.51 161.35 205.36 162.88 205.41 163.56C205.409 163.685 205.433 163.809 205.481 163.924C205.529 164.039 205.6 164.143 205.69 164.23ZM207.45 160.6C208.016 160.613 208.581 160.663 209.14 160.75C209.187 161.443 209.187 162.137 209.14 162.83V163.3C208.304 163.401 207.461 163.435 206.62 163.4H206.3C206.2 162.77 206.18 161.4 206.16 160.57C206.51 160.59 207 160.59 207.45 160.6Z" fill="black"/>
<path fill-rule="evenodd" clip-rule="evenodd" d="M205.9 170.53C206.13 170.647 206.382 170.715 206.64 170.73C207.35 170.812 208.065 170.846 208.78 170.83C209.168 170.834 209.554 170.787 209.93 170.69C210.063 170.647 210.183 170.571 210.28 170.47C210.383 170.332 210.448 170.17 210.47 170C210.522 169.441 210.522 168.879 210.47 168.32C210.447 167.768 210.374 167.219 210.25 166.68C210.217 166.525 210.141 166.383 210.03 166.27C209.72 166.118 209.375 166.049 209.03 166.07C208.063 166.06 207.097 166.127 206.14 166.27C206.09 166.279 206.043 166.3 206.002 166.331C205.962 166.363 205.931 166.403 205.91 166.45C205.838 166.469 205.775 166.51 205.728 166.568C205.681 166.625 205.654 166.696 205.65 166.77C205.6 167.63 205.5 169.16 205.55 169.83C205.558 169.964 205.594 170.095 205.654 170.216C205.714 170.336 205.798 170.443 205.9 170.53ZM207.66 166.9C208.226 166.913 208.791 166.963 209.35 167.05C209.397 167.743 209.397 168.438 209.35 169.13V169.6C208.513 169.691 207.671 169.725 206.83 169.7C206.72 169.69 206.61 169.69 206.5 169.7C206.41 169.07 206.39 167.7 206.37 166.86C206.72 166.88 207.18 166.88 207.66 166.9Z" fill="black"/>
<path fill-rule="evenodd" clip-rule="evenodd" d="M215.82 155.55C215.98 155.55 216.37 155.43 216.49 155.42H218.19H219.06C219.7 155.42 220.34 155.32 220.99 155.34L223.11 155.4C223.2 155.4 223.287 155.364 223.35 155.3C223.414 155.237 223.45 155.15 223.45 155.06C223.45 154.969 223.415 154.881 223.351 154.816C223.288 154.751 223.201 154.713 223.11 154.71L221 154.31C220.612 154.258 220.221 154.232 219.83 154.23C219.27 154.23 218.71 154.29 218.15 154.3C217.895 154.322 217.641 154.359 217.39 154.41L216.39 154.67C216.26 154.67 215.5 155.01 215.49 155.02C215.48 155.03 215.33 155.65 215.82 155.55Z" fill="black"/>
<path fill-rule="evenodd" clip-rule="evenodd" d="M213.08 159.6C213.08 159.6 212.85 160.13 213.28 160.15H213.56C214.04 160.15 215.05 160.21 216.25 160.23H217.36C217.91 160.23 218.47 160.23 219.02 160.15C221.02 159.99 222.86 159.75 223.16 159.74C223.251 159.737 223.338 159.699 223.401 159.634C223.465 159.569 223.5 159.481 223.5 159.39C223.5 159.3 223.464 159.213 223.4 159.15C223.337 159.086 223.25 159.05 223.16 159.05C222.86 159 221 159 219 159C218.45 159 217.88 159 217.33 159.08L216.23 159.19C215.04 159.32 214.04 159.46 213.56 159.51C213.08 159.56 213.16 159.54 213.08 159.6Z" fill="black"/>
<path fill-rule="evenodd" clip-rule="evenodd" d="M223.16 164.54C223.25 164.54 223.337 164.504 223.4 164.44C223.464 164.377 223.5 164.29 223.5 164.2C223.5 164.109 223.465 164.021 223.401 163.956C223.338 163.891 223.251 163.853 223.16 163.85C222.86 163.85 221 163.77 218.97 163.85C218.42 163.85 217.85 163.85 217.3 163.93L216.2 164C215.01 164.13 214.01 164.26 213.53 164.32C212.63 164.41 213.04 164.94 213.28 164.95H213.56C214.04 164.95 215.05 165.01 216.25 165.03H217.36C217.91 165.03 218.47 165.03 219.02 164.95C221 164.8 222.86 164.56 223.16 164.54Z" fill="black"/>
<path fill-rule="evenodd" clip-rule="evenodd" d="M216.05 168.59H215.26L214.74 168.67C212.1 169.14 213.48 169.56 213.52 169.57C213.73 169.57 214.18 169.66 214.79 169.71C214.967 169.72 215.144 169.72 215.32 169.71C215.58 169.729 215.84 169.729 216.1 169.71C216.72 169.65 217.38 169.5 218.1 169.39C218.145 169.387 218.188 169.376 218.229 169.357C218.269 169.337 218.305 169.31 218.335 169.276C218.364 169.243 218.387 169.204 218.402 169.162C218.417 169.119 218.423 169.075 218.42 169.03C218.415 168.939 218.374 168.853 218.307 168.792C218.24 168.73 218.151 168.697 218.06 168.7C217.34 168.68 216.67 168.6 216.05 168.59Z" fill="black"/>
</g>
<g clip-path="url(#clip3_317_996)">
<path fill-rule="evenodd" clip-rule="evenodd" d="M279.08 162.55C278.707 162.18 278.255 161.897 277.758 161.724C277.262 161.551 276.733 161.492 276.21 161.55C275.315 161.699 274.486 162.114 273.83 162.74C272.949 163.626 272.168 164.605 271.5 165.66C271.136 166.149 270.802 166.66 270.5 167.19C270.294 167.559 270.127 167.947 270 168.35C269.727 169.187 269.692 170.084 269.9 170.94C270.083 171.565 270.47 172.111 271 172.49C271.316 172.754 271.701 172.925 272.109 172.981C272.518 173.038 272.934 172.979 273.31 172.81C274.61 172.24 275.67 170.32 276.37 169.35L277.28 168C277.497 167.626 277.674 167.23 277.81 166.82C277.916 166.524 277.98 166.214 278 165.9C278.028 165.593 277.965 165.284 277.819 165.012C277.673 164.74 277.451 164.517 277.18 164.37C276.912 164.248 276.618 164.195 276.325 164.216C276.031 164.237 275.748 164.331 275.5 164.49C275.194 164.69 274.923 164.94 274.7 165.23C274.4 165.628 274.126 166.046 273.88 166.48C273.7 166.77 273.54 167.07 273.37 167.37C273.2 167.67 272.93 168.28 272.71 168.74C272.693 168.773 272.683 168.81 272.68 168.847C272.678 168.885 272.683 168.922 272.695 168.957C272.707 168.993 272.726 169.026 272.751 169.053C272.776 169.081 272.806 169.104 272.84 169.12C272.873 169.137 272.91 169.147 272.947 169.15C272.985 169.152 273.022 169.147 273.057 169.135C273.093 169.123 273.126 169.104 273.153 169.079C273.181 169.054 273.204 169.024 273.22 168.99C273.45 168.55 273.68 168.1 273.92 167.67C274.16 167.24 274.24 167.1 274.42 166.83C274.669 166.427 274.943 166.039 275.24 165.67C275.415 165.453 275.629 165.27 275.87 165.13C276.01 165.04 276.17 164.987 276.336 164.975C276.502 164.962 276.668 164.992 276.82 165.06C276.951 165.144 277.055 165.264 277.119 165.406C277.183 165.548 277.204 165.706 277.18 165.86C277.15 166.145 277.079 166.425 276.97 166.69C276.853 166.973 276.709 167.244 276.54 167.5L275.62 168.77C274.987 169.802 274.216 170.744 273.33 171.57C273.098 171.775 272.799 171.888 272.49 171.888C272.181 171.888 271.882 171.775 271.65 171.57C271.256 171.253 271.005 170.793 270.95 170.29C270.878 169.739 270.929 169.179 271.1 168.65C271.208 168.304 271.348 167.969 271.52 167.65C271.785 167.154 272.082 166.677 272.41 166.22C273.007 165.208 273.715 164.266 274.52 163.41C275.021 162.891 275.671 162.541 276.38 162.41C276.769 162.355 277.165 162.389 277.539 162.508C277.913 162.628 278.255 162.83 278.54 163.1C278.85 163.36 279.1 163.684 279.273 164.05C279.445 164.416 279.536 164.815 279.54 165.22C279.501 165.832 279.362 166.433 279.13 167C278.812 167.823 278.434 168.622 278 169.39C277.958 169.467 277.947 169.558 277.972 169.642C277.996 169.726 278.053 169.798 278.13 169.84C278.207 169.882 278.298 169.893 278.382 169.868C278.466 169.844 278.538 169.787 278.58 169.71C279.059 168.906 279.483 168.071 279.85 167.21C280.095 166.607 280.243 165.969 280.29 165.32C280.299 164.799 280.195 164.281 279.986 163.803C279.777 163.326 279.468 162.898 279.08 162.55Z" fill="black"/>
<path fill-rule="evenodd" clip-rule="evenodd" d="M261 161.48C261.395 159.957 261.696 158.41 261.9 156.85C262.22 154.45 262.38 152.02 262.59 149.63L270 150.73C270.54 150.81 271.28 150.86 272 150.99L272.53 151.1L271.81 152.61C271.493 153.178 271.223 153.769 271 154.38C270.867 154.748 270.867 155.152 271 155.52C271.132 155.779 271.346 155.987 271.61 156.11C272.053 156.29 272.523 156.398 273 156.43C274 156.51 275 156.43 276 156.57C276.287 156.603 276.571 156.657 276.85 156.73V157.57C276.77 158.57 276.58 159.63 276.58 159.63C276.565 159.715 276.584 159.802 276.633 159.873C276.681 159.944 276.756 159.993 276.84 160.01C276.923 160.025 277.009 160.007 277.08 159.961C277.151 159.914 277.201 159.842 277.22 159.76C277.22 159.76 277.53 158.37 277.64 157.29C277.705 156.893 277.705 156.487 277.64 156.09C277.468 155.704 277.253 155.338 277 155C276.49 154.17 275.77 153.18 275.46 152.74C275.15 152.3 274.77 151.62 274.35 151.1C274.139 150.834 273.886 150.604 273.6 150.42C273.255 150.233 272.885 150.098 272.5 150.02C271.71 149.8 270.78 149.77 270.14 149.68C269.344 149.593 268.548 149.516 267.75 149.45C265.9 149.29 264.05 149.18 262.2 149C261.64 148.93 262.28 149.17 261 156.71C260.727 158.318 260.356 159.907 259.89 161.47L258.32 167.07C258.118 167.478 257.944 167.899 257.8 168.33C257.756 168.514 257.756 168.706 257.8 168.89C257.855 169.071 257.971 169.227 258.13 169.33C258.398 169.49 258.688 169.611 258.99 169.69C260.88 170.25 265.39 170.87 267.64 171.54C267.68 171.554 267.722 171.559 267.765 171.556C267.807 171.553 267.848 171.541 267.885 171.521C267.923 171.502 267.956 171.475 267.982 171.442C268.009 171.409 268.029 171.371 268.04 171.33C268.065 171.248 268.058 171.159 268.018 171.082C267.979 171.006 267.912 170.947 267.83 170.92C267.3 170.74 266.64 170.56 265.92 170.38C263.92 169.87 261.37 169.38 259.83 168.93C259.42 168.81 259.06 168.54 258.83 168.48L259.27 167.41C259.43 166.97 259.61 166.41 259.8 165.71C260.1 164.66 260.42 163.45 260.67 162.52M273.67 152C274.03 152.46 274.37 153 274.67 153.34C274.97 153.68 275.74 154.69 276.29 155.48L276.6 155.97L276.14 155.86C275.14 155.64 274.14 155.6 273.14 155.42C272.89 155.387 272.643 155.337 272.4 155.27C272.26 155.27 272.1 155.21 272.05 155.1C272.013 154.877 272.041 154.648 272.13 154.44C272.28 153.86 272.52 153.24 272.61 152.94L273.13 151.4C273.338 151.573 273.52 151.775 273.67 152Z" fill="black"/>
<path fill-rule="evenodd" clip-rule="evenodd" d="M261.83 161.7C262.56 161.13 263.27 160.54 264 160C264.12 159.9 264.38 159.69 264.65 159.51C264.92 159.33 265.09 159.4 265.08 159.28C265.271 159.336 265.437 159.456 265.55 159.62C265.755 159.857 265.94 160.111 266.1 160.38C266.1 160.38 267.32 162.38 268.1 163.47C268.32 163.803 268.55 164.137 268.79 164.47C268.842 164.54 268.919 164.587 269.006 164.6C269.092 164.613 269.18 164.591 269.25 164.54C269.301 164.518 269.344 164.482 269.377 164.437C269.409 164.393 269.429 164.34 269.434 164.285C269.439 164.23 269.429 164.174 269.406 164.124C269.382 164.074 269.346 164.031 269.3 164C269.09 163.68 268.89 163.36 268.7 163C268.51 162.64 268.21 162.1 267.97 161.64L270.76 159.8C270.96 159.68 271.18 159.54 271.41 159.43C271.555 159.344 271.721 159.299 271.89 159.3C272.186 159.34 272.468 159.454 272.71 159.63C273.133 159.96 273.516 160.339 273.85 160.76C273.875 160.793 273.906 160.821 273.941 160.842C273.977 160.864 274.016 160.877 274.057 160.883C274.098 160.888 274.14 160.886 274.18 160.875C274.22 160.864 274.257 160.846 274.29 160.82C274.325 160.796 274.356 160.765 274.379 160.729C274.402 160.693 274.417 160.653 274.423 160.61C274.43 160.568 274.428 160.525 274.417 160.484C274.406 160.442 274.387 160.404 274.36 160.37C274.049 159.871 273.68 159.411 273.26 159C272.923 158.688 272.514 158.465 272.07 158.35C271.77 158.291 271.459 158.311 271.17 158.41C270.819 158.534 270.483 158.698 270.17 158.9C269.82 159.123 269.485 159.37 269.17 159.64C268.64 160.09 268.17 160.57 267.65 161.05L267 159.82C266.79 159.414 266.528 159.038 266.22 158.7C265.954 158.416 265.603 158.227 265.22 158.16C264.934 158.154 264.653 158.23 264.41 158.38C264.055 158.618 263.72 158.886 263.41 159.18C262.83 159.71 262.51 160.05 261.95 160.6C261.39 161.15 261.31 161.55 261.83 161.7Z" fill="black"/>
<path fill-rule="evenodd" clip-rule="evenodd" d="M266.47 155.41C266.388 155.436 266.318 155.49 266.274 155.564C266.229 155.638 266.214 155.726 266.23 155.81C266.253 155.893 266.308 155.964 266.383 156.007C266.458 156.05 266.546 156.062 266.63 156.04C266.9 155.989 267.152 155.87 267.363 155.695C267.575 155.52 267.739 155.295 267.84 155.04C267.951 154.764 267.981 154.462 267.926 154.17C267.871 153.877 267.734 153.607 267.53 153.39C267.235 153.081 266.856 152.865 266.44 152.77C266.045 152.68 265.635 152.68 265.24 152.77C264.796 152.88 264.403 153.138 264.127 153.502C263.85 153.866 263.707 154.313 263.72 154.77C263.723 155.008 263.789 155.241 263.91 155.447C264.031 155.652 264.203 155.822 264.41 155.94C264.606 156.031 264.819 156.078 265.035 156.078C265.251 156.078 265.464 156.031 265.66 155.94C265.731 155.915 265.79 155.864 265.825 155.797C265.861 155.73 265.869 155.653 265.85 155.58C265.827 155.507 265.776 155.447 265.709 155.411C265.642 155.376 265.563 155.368 265.49 155.39C265.374 155.427 265.251 155.439 265.13 155.423C265.009 155.408 264.893 155.366 264.79 155.3C264.714 155.233 264.657 155.146 264.627 155.049C264.597 154.952 264.595 154.848 264.62 154.75C264.642 154.528 264.738 154.32 264.892 154.159C265.046 153.998 265.249 153.892 265.47 153.86C265.717 153.81 265.972 153.81 266.22 153.86C266.447 153.885 266.663 153.975 266.84 154.12C266.941 154.2 267.018 154.308 267.06 154.43C267.103 154.552 267.11 154.684 267.08 154.81C267.034 154.952 266.955 155.081 266.849 155.185C266.743 155.29 266.613 155.367 266.47 155.41Z" fill="black"/>
</g>
<path opacity="0.6" d="M60 133V133C60 130.073 60 128.61 60.1548 127.38C61.2824 118.427 68.334 111.375 77.2879 110.247C78.5172 110.093 79.9807 110.093 82.9075 110.093L142.093 110.093C145.019 110.093 146.483 110.093 147.712 109.938C156.666 108.81 163.718 101.758 164.845 92.8047C165 91.5753 165 90.1119 165 87.185V87.185C-nan -nan -nan -nan -nan -nanC-nan -nan -nan -nan -nan -nanC-nan -nan -nan -nan 165 87.185C165 87.185 165 83.9522 165 81" stroke="url(#paint3_linear_317_996)" stroke-width="2" stroke-linejoin="round"/>
<path opacity="0.6" d="M270 133V133C270 130.073 270 128.61 269.845 127.38C268.718 118.427 261.666 111.375 252.712 110.247C251.483 110.093 250.019 110.093 247.093 110.093L187.907 110.093C184.981 110.093 183.517 110.093 182.288 109.938C173.334 108.81 166.282 101.758 165.155 92.8047C165 91.5753 165 90.1119 165 87.185V87.185C-nan -nan -nan -nan -nan -nanC-nan -nan -nan -nan -nan -nanC-nan -nan -nan -nan 165 87.185C165 87.185 165 83.9522 165 81" stroke="url(#paint4_linear_317_996)" stroke-width="2" stroke-linejoin="round"/>
<path opacity="0.6" d="M113 133V133C113 130.073 113 128.61 113.155 127.38C114.282 118.427 121.334 111.375 130.288 110.247C131.517 110.093 132.981 110.093 135.907 110.093L142.093 110.093C145.019 110.093 146.483 110.093 147.712 109.938C156.666 108.81 163.718 101.758 164.845 92.8047C165 91.5753 165 90.1119 165 87.185V87.185C-nan -nan -nan -nan -nan -nanC-nan -nan -nan -nan -nan -nanC-nan -nan -nan -nan 165 87.185C165 87.185 165 83.9522 165 81" stroke="url(#paint5_linear_317_996)" stroke-width="2" stroke-linejoin="round"/>
<path opacity="0.6" d="M217 133V133C217 130.073 217 128.61 216.845 127.38C215.718 118.427 208.666 111.375 199.712 110.247C198.483 110.093 197.019 110.093 194.093 110.093L187.907 110.093C184.981 110.093 183.517 110.093 182.288 109.938C173.334 108.81 166.282 101.758 165.155 92.8047C165 91.5753 165 90.1119 165 87.185V87.185C-nan -nan -nan -nan -nan -nanC-nan -nan -nan -nan -nan -nanC-nan -nan -nan -nan 165 87.185C165 87.185 165 83.9522 165 81" stroke="url(#paint6_linear_317_996)" stroke-width="2" stroke-linejoin="round"/>
<g filter="url(#filter4_d_317_996)">
<circle cx="166" cy="80.0001" r="21.9268" fill="#04FED1"/>
<circle cx="166" cy="80.0001" r="21.5488" stroke="#9FC4CC" stroke-width="0.756098"/>
</g>
<g filter="url(#filter5_d_317_996)">
<circle cx="166" cy="80" r="26.0854" stroke="url(#paint7_linear_317_996)" stroke-width="0.756098" shape-rendering="crispEdges"/>
</g>
<g filter="url(#filter6_d_317_996)">
<circle cx="166" cy="80" r="30.622" stroke="url(#paint8_linear_317_996)" stroke-width="0.756098" shape-rendering="crispEdges"/>
</g>
<path d="M165.622 70.9268C164.628 78.272 163.822 79.0458 156.171 79.9999C163.822 80.9541 164.628 81.7279 165.622 89.0731C166.616 81.7279 167.422 80.9541 175.073 79.9999C167.422 79.0458 166.616 78.272 165.622 70.9268Z" fill="#455173"/>
<path d="M172.269 65.6342C171.689 69.9189 171.219 70.3703 166.756 70.9268C171.219 71.4834 171.689 71.9348 172.269 76.2195C172.849 71.9348 173.319 71.4834 177.782 70.9268C173.319 70.3703 172.849 69.9189 172.269 65.6342Z" fill="#455173"/>
<path fill-rule="evenodd" clip-rule="evenodd" d="M53 47C44.7157 47 38 53.7157 38 62C38 70.2843 44.7157 77 53 77H105.503L121.191 88.8534C123.168 90.3466 126 88.9368 126 86.4598V65.1622C126 64.8237 125.944 64.4983 125.841 64.1947C125.946 63.4783 126 62.7455 126 62C126 53.7157 119.284 47 111 47H53Z" fill="#99BBFF"/>
<path fill-rule="evenodd" clip-rule="evenodd" d="M298 30C306.284 30 313 36.7157 313 45C313 53.2843 306.284 60 298 60H243.497L227.809 71.8534C225.832 73.3466 223 71.9368 223 69.4598V48.1622C223 47.8237 223.056 47.4983 223.159 47.1947C223.054 46.4783 223 45.7455 223 45C223 36.7157 229.716 30 238 30H298Z" fill="#FFC7C7"/>
<path d="M55.8374 66H54.3232L57.7255 56.5455H59.3736L62.7759 66H61.2617L58.5888 58.2628H58.5149L55.8374 66ZM56.0913 62.2976H61.0032V63.4979H56.0913V62.2976ZM65.4108 61.7898V66H64.0305V58.9091H65.3554V60.0632H65.4431C65.6062 59.6877 65.8617 59.3861 66.2094 59.1584C66.5603 58.9306 67.0019 58.8168 67.5344 58.8168C68.0175 58.8168 68.4407 58.9183 68.8039 59.1214C69.1671 59.3215 69.4487 59.62 69.6487 60.017C69.8488 60.4141 69.9488 60.9049 69.9488 61.4897V66H68.5684V61.6559C68.5684 61.1419 68.4346 60.7403 68.1668 60.451C67.8991 60.1586 67.5313 60.0124 67.0635 60.0124C66.7434 60.0124 66.4587 60.0817 66.2094 60.2202C65.9632 60.3587 65.7678 60.5618 65.6231 60.8295C65.4816 61.0942 65.4108 61.4143 65.4108 61.7898ZM73.8635 66.157C73.4142 66.157 73.008 66.0739 72.6448 65.9077C72.2816 65.7384 71.9939 65.4937 71.7815 65.1737C71.5722 64.8536 71.4676 64.4612 71.4676 63.9964C71.4676 63.5964 71.5445 63.267 71.6984 63.0085C71.8523 62.75 72.06 62.5453 72.3216 62.3945C72.5832 62.2437 72.8756 62.1299 73.1988 62.0529C73.5219 61.976 73.8512 61.9175 74.1867 61.8775C74.6114 61.8282 74.9561 61.7882 75.2208 61.7575C75.4855 61.7236 75.6778 61.6697 75.7979 61.5959C75.9179 61.522 75.9779 61.402 75.9779 61.2358V61.2035C75.9779 60.8003 75.864 60.4879 75.6363 60.2663C75.4116 60.0447 75.0761 59.9339 74.6299 59.9339C74.1652 59.9339 73.7989 60.037 73.5312 60.2433C73.2665 60.4464 73.0834 60.6726 72.9818 60.9219L71.6846 60.6264C71.8385 60.1955 72.0631 59.8478 72.3586 59.5831C72.6571 59.3153 73.0003 59.1214 73.3881 59.0014C73.7758 58.8783 74.1836 58.8168 74.6114 58.8168C74.8946 58.8168 75.1946 58.8506 75.5116 58.9183C75.8317 58.983 76.1302 59.103 76.4072 59.2784C76.6873 59.4538 76.9166 59.7047 77.0951 60.0309C77.2736 60.354 77.3628 60.7741 77.3628 61.2912V66H76.0148V65.0305H75.9594C75.8702 65.209 75.7363 65.3845 75.5578 65.5568C75.3793 65.7292 75.15 65.8723 74.8699 65.9862C74.5899 66.1 74.2544 66.157 73.8635 66.157ZM74.1636 65.049C74.5452 65.049 74.8715 64.9736 75.1423 64.8228C75.4162 64.672 75.624 64.475 75.7655 64.2319C75.9102 63.9857 75.9825 63.7225 75.9825 63.4425V62.5284C75.9333 62.5777 75.8379 62.6238 75.6963 62.6669C75.5578 62.7069 75.3993 62.7423 75.2208 62.7731C75.0423 62.8008 74.8684 62.8269 74.6991 62.8516C74.5299 62.8731 74.3883 62.8916 74.2744 62.907C74.0067 62.9408 73.762 62.9978 73.5404 63.0778C73.3219 63.1578 73.1465 63.2732 73.0141 63.424C72.8849 63.5717 72.8202 63.7687 72.8202 64.0149C72.8202 64.3565 72.9464 64.6151 73.1988 64.7905C73.4511 64.9628 73.7728 65.049 74.1636 65.049ZM80.5817 56.5455V66H79.2013V56.5455H80.5817ZM83.3112 68.6591C83.105 68.6591 82.9172 68.6422 82.748 68.6083C82.5787 68.5775 82.4525 68.5437 82.3694 68.5067L82.7018 67.3757C82.9542 67.4434 83.1788 67.4727 83.3758 67.4634C83.5728 67.4542 83.7467 67.3803 83.8975 67.2418C84.0513 67.1033 84.1868 66.8771 84.3037 66.5632L84.4745 66.0923L81.8801 58.9091H83.3573L85.1531 64.4119H85.227L87.0228 58.9091H88.5047L85.5825 66.9464C85.4471 67.3157 85.2747 67.6281 85.0654 67.8835C84.8561 68.142 84.6069 68.3359 84.3176 68.4652C84.0283 68.5945 83.6928 68.6591 83.3112 68.6591ZM95.1155 60.6403L93.8644 60.8619C93.8121 60.7018 93.729 60.5495 93.6151 60.4048C93.5044 60.2602 93.3535 60.1417 93.1627 60.0494C92.9719 59.957 92.7334 59.9109 92.4472 59.9109C92.0563 59.9109 91.7301 59.9986 91.4685 60.174C91.2069 60.3464 91.0761 60.5695 91.0761 60.8434C91.0761 61.0804 91.1638 61.2712 91.3392 61.4158C91.5146 61.5605 91.7978 61.679 92.1887 61.7713L93.3151 62.0298C93.9675 62.1806 94.4538 62.413 94.7739 62.7269C95.094 63.0408 95.254 63.4486 95.254 63.9503C95.254 64.375 95.1309 64.7536 94.8847 65.0859C94.6415 65.4152 94.3015 65.6738 93.8644 65.8615C93.4305 66.0492 92.9273 66.1431 92.3548 66.1431C91.5608 66.1431 90.913 65.9738 90.4113 65.6353C89.9097 65.2937 89.6019 64.8089 89.488 64.1811L90.8222 63.978C90.9053 64.3258 91.0761 64.5889 91.3346 64.7674C91.5931 64.9428 91.9301 65.0305 92.3456 65.0305C92.798 65.0305 93.1597 64.9367 93.4305 64.7489C93.7013 64.5581 93.8367 64.3258 93.8367 64.0518C93.8367 63.8303 93.7536 63.6441 93.5874 63.4933C93.4243 63.3424 93.1735 63.2286 92.835 63.1516L91.6347 62.8885C90.973 62.7377 90.4836 62.4976 90.1666 62.1683C89.8527 61.839 89.6958 61.422 89.6958 60.9173C89.6958 60.4987 89.8127 60.1325 90.0466 59.8185C90.2805 59.5046 90.6037 59.2599 91.0161 59.0845C91.4285 58.906 91.9009 58.8168 92.4333 58.8168C93.1997 58.8168 93.8029 58.983 94.243 59.3153C94.6831 59.6446 94.9739 60.0863 95.1155 60.6403ZM96.7717 66V58.9091H98.152V66H96.7717ZM97.4688 57.815C97.2287 57.815 97.0225 57.735 96.8501 57.5749C96.6809 57.4118 96.5962 57.2179 96.5962 56.9933C96.5962 56.7655 96.6809 56.5716 96.8501 56.4116C97.0225 56.2485 97.2287 56.1669 97.4688 56.1669C97.7088 56.1669 97.9135 56.2485 98.0827 56.4116C98.2551 56.5716 98.3413 56.7655 98.3413 56.9933C98.3413 57.2179 98.2551 57.4118 98.0827 57.5749C97.9135 57.735 97.7088 57.815 97.4688 57.815ZM105.323 60.6403L104.071 60.8619C104.019 60.7018 103.936 60.5495 103.822 60.4048C103.711 60.2602 103.561 60.1417 103.37 60.0494C103.179 59.957 102.94 59.9109 102.654 59.9109C102.263 59.9109 101.937 59.9986 101.676 60.174C101.414 60.3464 101.283 60.5695 101.283 60.8434C101.283 61.0804 101.371 61.2712 101.546 61.4158C101.722 61.5605 102.005 61.679 102.396 61.7713L103.522 62.0298C104.175 62.1806 104.661 62.413 104.981 62.7269C105.301 63.0408 105.461 63.4486 105.461 63.9503C105.461 64.375 105.338 64.7536 105.092 65.0859C104.849 65.4152 104.508 65.6738 104.071 65.8615C103.638 66.0492 103.134 66.1431 102.562 66.1431C101.768 66.1431 101.12 65.9738 100.618 65.6353C100.117 65.2937 99.8089 64.8089 99.695 64.1811L101.029 63.978C101.112 64.3258 101.283 64.5889 101.542 64.7674C101.8 64.9428 102.137 65.0305 102.553 65.0305C103.005 65.0305 103.367 64.9367 103.638 64.7489C103.908 64.5581 104.044 64.3258 104.044 64.0518C104.044 63.8303 103.961 63.6441 103.794 63.4933C103.631 63.3424 103.381 63.2286 103.042 63.1516L101.842 62.8885C101.18 62.7377 100.691 62.4976 100.374 62.1683C100.06 61.839 99.9028 61.422 99.9028 60.9173C99.9028 60.4987 100.02 60.1325 100.254 59.8185C100.488 59.5046 100.811 59.2599 101.223 59.0845C101.636 58.906 102.108 58.8168 102.64 58.8168C103.407 58.8168 104.01 58.983 104.45 59.3153C104.89 59.6446 105.181 60.0863 105.323 60.6403Z" fill="#444444"/>
<path d="M238.039 48.2327V38.7781H241.409C242.141 38.7781 242.749 38.9043 243.232 39.1567C243.719 39.409 244.082 39.7584 244.322 40.2046C244.562 40.6478 244.682 41.1602 244.682 41.7419C244.682 42.3205 244.56 42.8298 244.317 43.27C244.077 43.707 243.714 44.0471 243.228 44.2902C242.744 44.5333 242.137 44.6549 241.404 44.6549H238.851V43.4269H241.275C241.737 43.4269 242.112 43.3607 242.401 43.2284C242.694 43.0961 242.908 42.9037 243.043 42.6513C243.178 42.399 243.246 42.0958 243.246 41.7419C243.246 41.3849 243.177 41.0756 243.038 40.814C242.903 40.5524 242.689 40.3523 242.397 40.2138C242.107 40.0723 241.727 40.0015 241.256 40.0015H239.465V48.2327H238.039ZM242.706 43.967L245.042 48.2327H243.417L241.127 43.967H242.706ZM249.274 48.3758C248.575 48.3758 247.974 48.2265 247.469 47.928C246.967 47.6264 246.58 47.2032 246.306 46.6584C246.035 46.1106 245.899 45.4689 245.899 44.7334C245.899 44.0071 246.035 43.3669 246.306 42.8129C246.58 42.2589 246.961 41.8265 247.451 41.5157C247.943 41.2048 248.518 41.0494 249.177 41.0494C249.577 41.0494 249.965 41.1156 250.34 41.2479C250.716 41.3803 251.053 41.588 251.351 41.8712C251.65 42.1543 251.885 42.5221 252.058 42.9745C252.23 43.4238 252.316 43.9701 252.316 44.6133V45.1027H246.68V44.0686H250.964C250.964 43.7054 250.89 43.3838 250.742 43.1038C250.594 42.8206 250.387 42.5975 250.119 42.4344C249.854 42.2713 249.543 42.1897 249.186 42.1897C248.799 42.1897 248.46 42.2851 248.171 42.4759C247.884 42.6637 247.663 42.9099 247.506 43.2146C247.352 43.5162 247.275 43.8439 247.275 44.1979V45.0057C247.275 45.4797 247.358 45.8829 247.524 46.2153C247.694 46.5477 247.929 46.8016 248.231 46.977C248.532 47.1493 248.885 47.2355 249.288 47.2355C249.55 47.2355 249.788 47.1986 250.003 47.1247C250.219 47.0478 250.405 46.9339 250.562 46.7831C250.719 46.6323 250.839 46.4461 250.922 46.2245L252.229 46.4599C252.124 46.8446 251.936 47.1816 251.665 47.4709C251.398 47.7572 251.061 47.9803 250.654 48.1403C250.251 48.2973 249.791 48.3758 249.274 48.3758ZM258.635 50.8918V47.1293H258.552C258.469 47.2801 258.349 47.4525 258.192 47.6464C258.038 47.8403 257.826 48.0095 257.555 48.1542C257.284 48.2988 256.933 48.3712 256.502 48.3712C255.93 48.3712 255.419 48.225 254.97 47.9326C254.523 47.6371 254.173 47.217 253.917 46.6723C253.665 46.1245 253.539 45.4674 253.539 44.7011C253.539 43.9347 253.666 43.2792 253.922 42.7344C254.18 42.1897 254.534 41.7727 254.983 41.4834C255.433 41.1941 255.942 41.0494 256.512 41.0494C256.952 41.0494 257.306 41.1233 257.573 41.271C257.844 41.4157 258.053 41.5849 258.201 41.7788C258.352 41.9727 258.469 42.1435 258.552 42.2913H258.667V41.1418H260.015V50.8918H258.635ZM256.807 47.194C257.204 47.194 257.539 47.0893 257.813 46.88C258.09 46.6677 258.3 46.3738 258.441 45.9983C258.586 45.6228 258.658 45.1858 258.658 44.6872C258.658 44.1948 258.587 43.7639 258.446 43.3946C258.304 43.0253 258.097 42.7375 257.823 42.5313C257.549 42.3251 257.21 42.222 256.807 42.222C256.392 42.222 256.045 42.3297 255.768 42.5452C255.491 42.7606 255.282 43.0545 255.14 43.4269C255.002 43.7993 254.933 44.2194 254.933 44.6872C254.933 45.1612 255.003 45.5874 255.145 45.966C255.287 46.3445 255.496 46.6446 255.773 46.8662C256.053 47.0847 256.398 47.194 256.807 47.194ZM266.363 45.292V41.1418H267.748V48.2327H266.391V47.0047H266.317C266.154 47.3832 265.892 47.6987 265.532 47.9511C265.175 48.2004 264.73 48.325 264.198 48.325C263.742 48.325 263.339 48.225 262.988 48.0249C262.641 47.8218 262.367 47.5217 262.167 47.1247C261.97 46.7277 261.871 46.2368 261.871 45.6521V41.1418H263.252V45.4859C263.252 45.9691 263.385 46.3538 263.653 46.64C263.921 46.9262 264.269 47.0693 264.697 47.0693C264.955 47.0693 265.212 47.0047 265.468 46.8754C265.726 46.7462 265.94 46.5507 266.109 46.2891C266.282 46.0275 266.366 45.6951 266.363 45.292ZM272.659 48.3758C271.96 48.3758 271.359 48.2265 270.854 47.928C270.352 47.6264 269.964 47.2032 269.69 46.6584C269.42 46.1106 269.284 45.4689 269.284 44.7334C269.284 44.0071 269.42 43.3669 269.69 42.8129C269.964 42.2589 270.346 41.8265 270.835 41.5157C271.328 41.2048 271.903 41.0494 272.562 41.0494C272.962 41.0494 273.35 41.1156 273.725 41.2479C274.101 41.3803 274.438 41.588 274.736 41.8712C275.035 42.1543 275.27 42.5221 275.443 42.9745C275.615 43.4238 275.701 43.9701 275.701 44.6133V45.1027H270.064V44.0686H274.348C274.348 43.7054 274.275 43.3838 274.127 43.1038C273.979 42.8206 273.771 42.5975 273.504 42.4344C273.239 42.2713 272.928 42.1897 272.571 42.1897C272.183 42.1897 271.845 42.2851 271.555 42.4759C271.269 42.6637 271.048 42.9099 270.891 43.2146C270.737 43.5162 270.66 43.8439 270.66 44.1979V45.0057C270.66 45.4797 270.743 45.8829 270.909 46.2153C271.078 46.5477 271.314 46.8016 271.616 46.977C271.917 47.1493 272.27 47.2355 272.673 47.2355C272.934 47.2355 273.173 47.1986 273.388 47.1247C273.604 47.0478 273.79 46.9339 273.947 46.7831C274.104 46.6323 274.224 46.4461 274.307 46.2245L275.613 46.4599C275.509 46.8446 275.321 47.1816 275.05 47.4709C274.782 47.7572 274.445 47.9803 274.039 48.1403C273.636 48.2973 273.176 48.3758 272.659 48.3758ZM282.546 42.8729L281.295 43.0945C281.243 42.9345 281.16 42.7821 281.046 42.6375C280.935 42.4928 280.784 42.3744 280.593 42.282C280.403 42.1897 280.164 42.1435 279.878 42.1435C279.487 42.1435 279.161 42.2312 278.899 42.4067C278.638 42.579 278.507 42.8021 278.507 43.0761C278.507 43.313 278.594 43.5039 278.77 43.6485C278.945 43.7932 279.228 43.9116 279.619 44.004L280.746 44.2625C281.398 44.4133 281.884 44.6457 282.205 44.9596C282.525 45.2735 282.685 45.6813 282.685 46.183C282.685 46.6077 282.562 46.9862 282.315 47.3186C282.072 47.6479 281.732 47.9064 281.295 48.0942C280.861 48.2819 280.358 48.3758 279.786 48.3758C278.991 48.3758 278.344 48.2065 277.842 47.868C277.34 47.5263 277.033 47.0416 276.919 46.4138L278.253 46.2106C278.336 46.5584 278.507 46.8216 278.765 47.0001C279.024 47.1755 279.361 47.2632 279.776 47.2632C280.229 47.2632 280.59 47.1693 280.861 46.9816C281.132 46.7908 281.267 46.5584 281.267 46.2845C281.267 46.0629 281.184 45.8767 281.018 45.7259C280.855 45.5751 280.604 45.4612 280.266 45.3843L279.065 45.1212C278.404 44.9704 277.914 44.7303 277.597 44.401C277.283 44.0717 277.126 43.6547 277.126 43.1499C277.126 42.7314 277.243 42.3651 277.477 42.0512C277.711 41.7373 278.034 41.4926 278.447 41.3172C278.859 41.1387 279.332 41.0494 279.864 41.0494C280.63 41.0494 281.234 41.2156 281.674 41.548C282.114 41.8773 282.405 42.319 282.546 42.8729ZM287.512 41.1418V42.2497H283.639V41.1418H287.512ZM284.678 39.4429H286.058V46.1506C286.058 46.4184 286.098 46.62 286.178 46.7554C286.258 46.8877 286.361 46.9785 286.487 47.0278C286.617 47.0739 286.757 47.097 286.908 47.097C287.018 47.097 287.115 47.0893 287.198 47.0739C287.282 47.0585 287.346 47.0462 287.392 47.037L287.642 48.1773C287.562 48.208 287.448 48.2388 287.3 48.2696C287.152 48.3035 286.968 48.3219 286.746 48.325C286.383 48.3312 286.044 48.2665 285.73 48.1311C285.416 47.9957 285.163 47.7864 284.969 47.5033C284.775 47.2201 284.678 46.8646 284.678 46.4369V39.4429ZM294.239 42.8729L292.987 43.0945C292.935 42.9345 292.852 42.7821 292.738 42.6375C292.627 42.4928 292.477 42.3744 292.286 42.282C292.095 42.1897 291.856 42.1435 291.57 42.1435C291.179 42.1435 290.853 42.2312 290.592 42.4067C290.33 42.579 290.199 42.8021 290.199 43.0761C290.199 43.313 290.287 43.5039 290.462 43.6485C290.638 43.7932 290.921 43.9116 291.312 44.004L292.438 44.2625C293.091 44.4133 293.577 44.6457 293.897 44.9596C294.217 45.2735 294.377 45.6813 294.377 46.183C294.377 46.6077 294.254 46.9862 294.008 47.3186C293.765 47.6479 293.425 47.9064 292.987 48.0942C292.554 48.2819 292.05 48.3758 291.478 48.3758C290.684 48.3758 290.036 48.2065 289.534 47.868C289.033 47.5263 288.725 47.0416 288.611 46.4138L289.945 46.2106C290.028 46.5584 290.199 46.8216 290.458 47.0001C290.716 47.1755 291.053 47.2632 291.469 47.2632C291.921 47.2632 292.283 47.1693 292.554 46.9816C292.824 46.7908 292.96 46.5584 292.96 46.2845C292.96 46.0629 292.877 45.8767 292.71 45.7259C292.547 45.5751 292.297 45.4612 291.958 45.3843L290.758 45.1212C290.096 44.9704 289.607 44.7303 289.29 44.401C288.976 44.0717 288.819 43.6547 288.819 43.1499C288.819 42.7314 288.936 42.3651 289.17 42.0512C289.404 41.7373 289.727 41.4926 290.139 41.3172C290.552 41.1387 291.024 41.0494 291.556 41.0494C292.323 41.0494 292.926 41.2156 293.366 41.548C293.806 41.8773 294.097 42.319 294.239 42.8729Z" fill="#444444"/>
<defs>
<filter id="filter0_d_317_996" x="15" y="125" width="76" height="76" filterUnits="userSpaceOnUse" color-interpolation-filters="sRGB">
<feFlood flood-opacity="0" result="BackgroundImageFix"/>
<feColorMatrix in="SourceAlpha" type="matrix" values="0 0 0 0 0 0 0 0 0 0 0 0 0 0 0 0 0 0 127 0" result="hardAlpha"/>
<feOffset dy="4"/>
<feGaussianBlur stdDeviation="7"/>
<feComposite in2="hardAlpha" operator="out"/>
<feColorMatrix type="matrix" values="0 0 0 0 0 0 0 0 0 0 0 0 0 0 0 0 0 0 0.15 0"/>
<feBlend mode="normal" in2="BackgroundImageFix" result="effect1_dropShadow_317_996"/>
<feBlend mode="normal" in="SourceGraphic" in2="effect1_dropShadow_317_996" result="shape"/>
</filter>
<filter id="filter1_d_317_996" x="75" y="128" width="76" height="76" filterUnits="userSpaceOnUse" color-interpolation-filters="sRGB">
<feFlood flood-opacity="0" result="BackgroundImageFix"/>
<feColorMatrix in="SourceAlpha" type="matrix" values="0 0 0 0 0 0 0 0 0 0 0 0 0 0 0 0 0 0 127 0" result="hardAlpha"/>
<feOffset dy="4"/>
<feGaussianBlur stdDeviation="7"/>
<feComposite in2="hardAlpha" operator="out"/>
<feColorMatrix type="matrix" values="0 0 0 0 0.282353 0 0 0 0 0.0470588 0 0 0 0 0.658824 0 0 0 0.15 0"/>
<feBlend mode="normal" in2="BackgroundImageFix" result="effect1_dropShadow_317_996"/>
<feBlend mode="normal" in="SourceGraphic" in2="effect1_dropShadow_317_996" result="shape"/>
</filter>
<filter id="filter2_d_317_996" x="231" y="127" width="76" height="76" filterUnits="userSpaceOnUse" color-interpolation-filters="sRGB">
<feFlood flood-opacity="0" result="BackgroundImageFix"/>
<feColorMatrix in="SourceAlpha" type="matrix" values="0 0 0 0 0 0 0 0 0 0 0 0 0 0 0 0 0 0 127 0" result="hardAlpha"/>
<feOffset dy="4"/>
<feGaussianBlur stdDeviation="7"/>
<feComposite in2="hardAlpha" operator="out"/>
<feColorMatrix type="matrix" values="0 0 0 0 0.282353 0 0 0 0 0.0470588 0 0 0 0 0.658824 0 0 0 0.15 0"/>
<feBlend mode="normal" in2="BackgroundImageFix" result="effect1_dropShadow_317_996"/>
<feBlend mode="normal" in="SourceGraphic" in2="effect1_dropShadow_317_996" result="shape"/>
</filter>
<filter id="filter3_d_317_996" x="178" y="129" width="76" height="76" filterUnits="userSpaceOnUse" color-interpolation-filters="sRGB">
<feFlood flood-opacity="0" result="BackgroundImageFix"/>
<feColorMatrix in="SourceAlpha" type="matrix" values="0 0 0 0 0 0 0 0 0 0 0 0 0 0 0 0 0 0 127 0" result="hardAlpha"/>
<feOffset dy="4"/>
<feGaussianBlur stdDeviation="7"/>
<feComposite in2="hardAlpha" operator="out"/>
<feColorMatrix type="matrix" values="0 0 0 0 0 0 0 0 0 0 0 0 0 0 0 0 0 0 0.15 0"/>
<feBlend mode="normal" in2="BackgroundImageFix" result="effect1_dropShadow_317_996"/>
<feBlend mode="normal" in="SourceGraphic" in2="effect1_dropShadow_317_996" result="shape"/>
</filter>
<filter id="filter4_d_317_996" x="133.488" y="50.5123" width="65.0244" height="65.0244" filterUnits="userSpaceOnUse" color-interpolation-filters="sRGB">
<feFlood flood-opacity="0" result="BackgroundImageFix"/>
<feColorMatrix in="SourceAlpha" type="matrix" values="0 0 0 0 0 0 0 0 0 0 0 0 0 0 0 0 0 0 127 0" result="hardAlpha"/>
<feOffset dy="3.02439"/>
<feGaussianBlur stdDeviation="5.29268"/>
<feComposite in2="hardAlpha" operator="out"/>
<feColorMatrix type="matrix" values="0 0 0 0 0.282353 0 0 0 0 0.0470588 0 0 0 0 0.658824 0 0 0 0.15 0"/>
<feBlend mode="normal" in2="BackgroundImageFix" result="effect1_dropShadow_317_996"/>
<feBlend mode="normal" in="SourceGraphic" in2="effect1_dropShadow_317_996" result="shape"/>
</filter>
<filter id="filter5_d_317_996" x="128.951" y="45.9756" width="74.0976" height="74.0976" filterUnits="userSpaceOnUse" color-interpolation-filters="sRGB">
<feFlood flood-opacity="0" result="BackgroundImageFix"/>
<feColorMatrix in="SourceAlpha" type="matrix" values="0 0 0 0 0 0 0 0 0 0 0 0 0 0 0 0 0 0 127 0" result="hardAlpha"/>
<feOffset dy="3.02439"/>
<feGaussianBlur stdDeviation="5.29268"/>
<feComposite in2="hardAlpha" operator="out"/>
<feColorMatrix type="matrix" values="0 0 0 0 0 0 0 0 0 0 0 0 0 0 0 0 0 0 0.15 0"/>
<feBlend mode="normal" in2="BackgroundImageFix" result="effect1_dropShadow_317_996"/>
<feBlend mode="normal" in="SourceGraphic" in2="effect1_dropShadow_317_996" result="shape"/>
</filter>
<filter id="filter6_d_317_996" x="124.415" y="41.439" width="83.1707" height="83.1707" filterUnits="userSpaceOnUse" color-interpolation-filters="sRGB">
<feFlood flood-opacity="0" result="BackgroundImageFix"/>
<feColorMatrix in="SourceAlpha" type="matrix" values="0 0 0 0 0 0 0 0 0 0 0 0 0 0 0 0 0 0 127 0" result="hardAlpha"/>
<feOffset dy="3.02439"/>
<feGaussianBlur stdDeviation="5.29268"/>
<feComposite in2="hardAlpha" operator="out"/>
<feColorMatrix type="matrix" values="0 0 0 0 0 0 0 0 0 0 0 0 0 0 0 0 0 0 0.15 0"/>
<feBlend mode="normal" in2="BackgroundImageFix" result="effect1_dropShadow_317_996"/>
<feBlend mode="normal" in="SourceGraphic" in2="effect1_dropShadow_317_996" result="shape"/>
</filter>
<linearGradient id="paint0_linear_317_996" x1="19.5" y1="1.45712e-05" x2="349.353" y2="109.85" gradientUnits="userSpaceOnUse">
<stop stop-color="#7AB8FF"/>
<stop offset="0.525043" stop-color="#FEFEFE"/>
<stop offset="1" stop-color="#8CC1FE"/>
</linearGradient>
<linearGradient id="paint1_linear_317_996" x1="17.6593" y1="1.20733e-05" x2="310.683" y2="106.658" gradientUnits="userSpaceOnUse">
<stop stop-color="#7AB8FF"/>
<stop offset="0.525043" stop-color="#FEFEFE"/>
<stop offset="1" stop-color="#8CC1FE"/>
</linearGradient>
<linearGradient id="paint2_linear_317_996" x1="15.4159" y1="8.8815e-06" x2="259.556" y2="105.454" gradientUnits="userSpaceOnUse">
<stop stop-color="#7AB8FF"/>
<stop offset="0.525043" stop-color="#FEFEFE"/>
<stop offset="1" stop-color="#8CC1FE"/>
</linearGradient>
<linearGradient id="paint3_linear_317_996" x1="112.5" y1="81" x2="112.5" y2="133" gradientUnits="userSpaceOnUse">
<stop stop-color="#04FED1" stop-opacity="0.5"/>
<stop offset="1" stop-color="#0044CC" stop-opacity="0.7"/>
</linearGradient>
<linearGradient id="paint4_linear_317_996" x1="217.5" y1="81" x2="217.5" y2="133" gradientUnits="userSpaceOnUse">
<stop stop-color="#04FED1" stop-opacity="0.5"/>
<stop offset="1" stop-color="#0044CC" stop-opacity="0.7"/>
</linearGradient>
<linearGradient id="paint5_linear_317_996" x1="139" y1="81" x2="139" y2="133" gradientUnits="userSpaceOnUse">
<stop stop-color="#04FED1" stop-opacity="0.5"/>
<stop offset="1" stop-color="#0044CC" stop-opacity="0.7"/>
</linearGradient>
<linearGradient id="paint6_linear_317_996" x1="191" y1="81" x2="191" y2="133" gradientUnits="userSpaceOnUse">
<stop stop-color="#04FED1" stop-opacity="0.5"/>
<stop offset="1" stop-color="#0044CC" stop-opacity="0.7"/>
</linearGradient>
<linearGradient id="paint7_linear_317_996" x1="142.581" y1="53.5366" x2="197.456" y2="64.8573" gradientUnits="userSpaceOnUse">
<stop stop-color="#7AB8FF"/>
<stop offset="0.525043" stop-color="#FEFEFE"/>
<stop offset="1" stop-color="#8CC1FE"/>
</linearGradient>
<linearGradient id="paint8_linear_317_996" x1="138.566" y1="49" x2="202.848" y2="62.2614" gradientUnits="userSpaceOnUse">
<stop stop-color="#7AB8FF"/>
<stop offset="0.525043" stop-color="#FEFEFE"/>
<stop offset="1" stop-color="#8CC1FE"/>
</linearGradient>
<clipPath id="clip0_317_996">
<rect width="24" height="24" fill="white" transform="translate(41 148)"/>
</clipPath>
<clipPath id="clip1_317_996">
<rect width="24" height="24" fill="white" transform="translate(101 150)"/>
</clipPath>
<clipPath id="clip2_317_996">
<rect width="24" height="24" fill="white" transform="translate(202 150)"/>
</clipPath>
<clipPath id="clip3_317_996">
<rect width="24" height="24" fill="white" transform="translate(257 149)"/>
</clipPath>
</defs>
</svg>
