<svg width="339" height="210" viewBox="0 0 339 210" fill="none" xmlns="http://www.w3.org/2000/svg">
<rect x="-0.5" y="0.5" width="338" height="209" rx="39.5" transform="matrix(-1 0 0 1 338 0)" stroke="url(#paint0_linear_396_3438)"/>
<rect x="16.5" y="18.5" width="306" height="173" rx="29.5" stroke="url(#paint1_linear_396_3438)"/>
<rect x="35.5" y="41.5" width="267" height="127" rx="19.5" stroke="url(#paint2_linear_396_3438)"/>
<g filter="url(#filter0_d_396_3438)">
<circle cx="89" cy="103" r="29" fill="#FFF9C7"/>
<circle cx="89" cy="103" r="28.5" stroke="#9FC4CC"/>
</g>
<g filter="url(#filter1_d_396_3438)">
<circle cx="257" cy="103" r="29" fill="#04FED1"/>
<circle cx="257" cy="103" r="28.5" stroke="#9FC4CC"/>
</g>
<g clip-path="url(#clip0_396_3438)">
<path d="M94.8278 107.485C94.4946 107.287 94.1078 107.198 93.7216 107.231C93.3354 107.264 92.9692 107.418 92.6745 107.669C92.5045 107.797 92.3486 107.938 92.207 108.066C92.2138 107.953 92.2138 107.839 92.207 107.726C92.1693 107.398 92.0496 107.084 91.859 106.814C91.6684 106.545 91.4129 106.327 91.1161 106.182C90.6885 106.073 90.2405 106.073 89.8128 106.182C89.4904 106.235 89.1876 106.372 88.9345 106.578C88.9475 105.438 88.8907 104.298 88.7645 103.164C88.6686 102.088 88.4107 101.033 87.9995 100.033C87.7456 99.506 87.3143 99.0848 86.7811 98.8434C86.4993 98.7036 86.189 98.6309 85.8745 98.6309C85.5599 98.6309 85.2496 98.7036 84.9678 98.8434C84.4218 99.1522 84.0158 99.6596 83.8345 100.26C83.549 101.263 83.4294 102.307 83.4803 103.348V107.202C83.4803 108.066 83.4803 108.944 83.6078 109.794C83.6078 110.177 83.7211 110.658 83.792 111.14C83.4945 110.956 83.2253 110.814 83.1828 110.772C82.1945 109.673 80.9186 108.874 79.4995 108.463C79.1093 108.397 78.7084 108.452 78.351 108.622C77.9936 108.792 77.6972 109.068 77.502 109.412C77.2609 109.816 77.18 110.296 77.2753 110.758C77.4754 111.566 77.7954 112.339 78.2245 113.053C79.0036 114.568 80.0803 115.603 80.7603 116.849C81.2421 117.676 81.4596 118.63 81.3836 119.583C81.3778 119.639 81.3832 119.694 81.3994 119.747C81.4157 119.8 81.4425 119.849 81.4782 119.892C81.5139 119.934 81.5578 119.969 81.6073 119.994C81.6568 120.019 81.7108 120.033 81.7661 120.037C81.8279 120.043 81.8903 120.036 81.9489 120.016C82.0076 119.995 82.061 119.962 82.1056 119.919C82.1502 119.876 82.1847 119.823 82.2068 119.765C82.229 119.707 82.2381 119.645 82.2336 119.583C82.3184 118.759 82.2168 117.926 81.9361 117.147C81.3553 115.546 80.0661 114.313 79.1878 112.571C78.8861 112.025 78.6393 111.451 78.4511 110.857C78.3942 110.727 78.3647 110.587 78.3647 110.446C78.3647 110.304 78.3942 110.165 78.4511 110.035C78.587 109.834 78.795 109.692 79.0322 109.639C79.2694 109.587 79.5177 109.627 79.7261 109.752C80.657 110.234 81.4923 110.882 82.1911 111.664C82.7013 112.227 83.2556 112.748 83.8486 113.223C83.9415 113.31 84.0551 113.372 84.1788 113.404C84.3024 113.435 84.432 113.435 84.5554 113.402C84.6787 113.369 84.7917 113.306 84.8837 113.217C84.9757 113.129 85.0436 113.019 85.0811 112.897C85.1901 112.534 85.238 112.156 85.2228 111.778C85.2228 111.055 85.0386 110.248 85.0103 109.681C84.982 109.114 85.0103 108.42 85.0103 107.797V103.32C85.0114 102.689 85.0635 102.059 85.1661 101.436C85.2511 100.968 85.3361 100.501 85.6761 100.317C85.7425 100.285 85.8151 100.269 85.8886 100.269C85.9621 100.269 86.0347 100.285 86.1011 100.317C86.2716 100.398 86.4109 100.532 86.4978 100.699C86.8396 101.543 87.0637 102.43 87.1636 103.334C87.3021 104.78 87.3589 106.232 87.3336 107.683C87.3336 108.264 87.4328 109.936 87.4753 110.63C87.463 110.766 87.4888 110.903 87.5498 111.025C87.6107 111.148 87.7046 111.25 87.8207 111.323C87.9368 111.395 88.0707 111.433 88.2073 111.433C88.344 111.433 88.478 111.396 88.5945 111.324C89.3311 111.112 88.8495 110.588 89.2603 109.114C89.7845 107.244 90.677 107.457 90.677 107.698C90.7953 108.031 90.8668 108.379 90.8895 108.732C90.9745 109.638 90.8895 110.573 90.8895 110.758C90.897 110.955 90.9303 111.15 90.9886 111.338C91.0457 111.502 91.1619 111.639 91.3145 111.721C91.418 111.771 91.5325 111.795 91.6475 111.789C91.7624 111.783 91.8739 111.747 91.9716 111.687C92.0693 111.626 92.1499 111.541 92.206 111.44C92.262 111.34 92.2916 111.227 92.292 111.112C92.2623 110.629 92.3397 110.145 92.5186 109.695C92.7195 109.262 93.0265 108.887 93.4111 108.604C93.5148 108.509 93.6454 108.449 93.785 108.431C93.9245 108.413 94.0661 108.439 94.1903 108.505C94.3419 108.589 94.472 108.707 94.5703 108.849C94.6686 108.992 94.7325 109.155 94.757 109.327C94.9008 110.235 94.9483 111.157 94.8986 112.075C94.8136 114.285 94.3461 116.325 94.3745 118.762C94.3745 118.889 94.4252 119.012 94.5156 119.102C94.6059 119.193 94.7284 119.243 94.8561 119.243C94.9839 119.243 95.1064 119.193 95.1967 119.102C95.2871 119.012 95.3378 118.889 95.3378 118.762C95.3378 116.339 95.8761 114.328 96.0178 112.132C96.0823 111.139 96.0491 110.143 95.9186 109.157C95.8687 108.816 95.7453 108.49 95.5569 108.201C95.3686 107.912 95.1198 107.668 94.8278 107.485Z" fill="#455173"/>
<path d="M72.4873 96.0809L72.4165 95.9817L74.2298 93.9842C74.7256 94.4092 75.434 95.0325 75.9581 95.4009C76.2383 95.6303 76.5767 95.7775 76.9356 95.8259C77.1256 95.8372 77.3142 95.7876 77.474 95.6842C77.8761 95.2566 78.2234 94.7808 78.5081 94.2675C79.3723 92.8509 80.6756 90.6975 81.469 89.7342C81.5139 89.6798 81.5663 89.632 81.6248 89.5925C82.3331 89.8334 83.1831 89.975 83.8348 90.145L83.7498 90.3859C82.0711 93.3704 80.2364 96.2644 78.2531 99.0559C78.1727 99.1593 78.1365 99.2904 78.1524 99.4205C78.1683 99.5506 78.2351 99.669 78.3381 99.75C78.3882 99.7895 78.4456 99.8186 78.507 99.8357C78.5685 99.8528 78.6326 99.8575 78.6959 99.8496C78.7591 99.8417 78.8202 99.8213 78.8755 99.7896C78.9308 99.7579 78.9793 99.7156 79.0181 99.665C80.534 97.8092 82.8998 94.2959 84.3023 92.0859C84.8406 91.2359 85.2373 90.57 85.3931 90.2442C85.4704 90.1179 85.5171 89.9752 85.5294 89.8276C85.5417 89.68 85.5193 89.5316 85.464 89.3942C85.2871 89.1389 85.0265 88.9535 84.7273 88.87C84.019 88.615 82.3331 88.19 81.5823 88.02C81.3022 88.0164 81.0256 88.0833 80.7781 88.2145C80.5305 88.3457 80.3199 88.537 80.1656 88.7709C79.0781 90.2798 78.0708 91.845 77.1481 93.46C77.0258 93.6604 76.917 93.8686 76.8223 94.0834C76.2131 93.7009 75.3206 92.9359 74.8815 92.6667C74.7593 92.5561 74.6159 92.4715 74.4601 92.4179C74.3042 92.3644 74.1392 92.343 73.9748 92.355C73.8511 92.3847 73.7382 92.4485 73.649 92.5392C73.4223 92.6667 72.5015 93.8 71.8356 94.6217C71.5321 94.9606 71.2528 95.3203 70.9998 95.6984C70.9461 95.8248 70.9296 95.9639 70.9522 96.0994C70.9748 96.2349 71.0355 96.3612 71.1273 96.4634C71.4459 96.8064 71.7866 97.1282 72.1473 97.4267C73.3656 98.4609 75.3348 99.9909 76.2415 100.643L76.709 100.968C76.8366 101.017 76.978 101.017 77.1056 100.968C78.3381 100.628 76.0148 99.75 72.4873 96.0809Z" fill="#455173"/>
<path d="M104.688 96.775C103.875 95.8819 102.999 95.0486 102.067 94.2817C101.977 94.2218 101.892 94.1555 101.812 94.0833L101.954 93.7717C102.478 92.7658 103.37 91.1792 103.753 90.3717C103.88 90.1211 103.947 89.8449 103.951 89.5642C103.939 89.4437 103.896 89.3283 103.827 89.2291C103.757 89.1299 103.663 89.0502 103.554 88.9975C102.696 88.5946 101.799 88.2813 100.877 88.0625C100.675 88.0141 100.465 88.0106 100.262 88.0522C100.059 88.0939 99.8675 88.1796 99.7011 88.3033C99.3328 88.7142 97.9161 90.8533 97.1794 91.8308C96.7119 91.25 95.8336 90.2442 95.3944 89.8333C95.2289 89.6379 95.0135 89.4911 94.7711 89.4083C94.6433 89.4083 94.5208 89.4591 94.4305 89.5494C94.3402 89.6398 94.2894 89.7623 94.2894 89.89C94.2889 89.9616 94.3053 90.0323 94.3373 90.0963C94.3693 90.1603 94.416 90.2158 94.4736 90.2583C94.4736 90.2583 94.5728 90.3717 94.6719 90.485C95.3094 91.2358 96.9244 93.1625 96.9953 93.1908C97.1077 93.2486 97.2366 93.266 97.3603 93.2402C97.4841 93.2145 97.5952 93.147 97.6753 93.0492L97.9161 92.6667C98.5253 91.8592 99.8711 89.9892 100.395 89.38C101.002 89.7029 101.65 89.9412 102.322 90.0883C101.812 91.08 100.764 92.7233 100.367 93.5308C100.206 93.8301 100.137 94.1701 100.169 94.5083C100.284 94.7597 100.448 94.9859 100.65 95.1742C101.231 95.7267 102.534 96.8458 103.158 97.5683L101.288 99.0275C100.448 97.9842 99.4977 97.0343 98.4544 96.1942C98.3065 96.118 98.1387 96.0893 97.9738 96.1121C97.809 96.1349 97.6552 96.2081 97.5336 96.3217C97.4628 96.3217 97.3353 96.52 97.1511 96.7183C96.6269 97.3417 95.6069 98.6308 94.9411 99.41C94.882 99.4786 94.8155 99.5403 94.7428 99.5942C94.4974 99.531 94.2598 99.4407 94.0344 99.325C93.5811 99.0275 93.1136 98.6733 92.8303 98.4467C93.6094 97.4408 95.4369 95.3158 95.5219 95.075C95.577 94.9192 95.577 94.7492 95.5219 94.5933C95.3656 94.385 95.1679 94.2114 94.9411 94.0833C93.7337 93.2486 92.6094 92.2998 91.5836 91.25L91.7253 91.08L93.5528 89.1817C93.5935 89.1421 93.6258 89.0947 93.6479 89.0424C93.67 88.9901 93.6814 88.9339 93.6814 88.8771C93.6814 88.8203 93.67 88.7641 93.6479 88.7118C93.6258 88.6595 93.5935 88.6121 93.5528 88.5725C93.4254 88.5073 93.28 88.4858 93.1392 88.5114C92.9984 88.537 92.8699 88.6083 92.7736 88.7142C92.4053 89.0542 91.6403 89.9608 91.1586 90.3717C91.0453 90.4708 90.7053 90.6833 90.6061 90.8958C90.5615 90.9785 90.5381 91.071 90.5381 91.165C90.5381 91.259 90.5615 91.3515 90.6061 91.4342C91.0137 92.1061 91.542 92.6969 92.1644 93.1767C92.9294 93.8283 93.7794 94.4658 94.2186 94.8625C93.6661 95.5 92.2494 96.9875 91.6403 97.6958C91.5103 97.8389 91.3963 97.9956 91.3003 98.1633C91.2457 98.2633 91.2171 98.3753 91.2171 98.4892C91.2171 98.603 91.2457 98.7151 91.3003 98.815C91.9309 99.5497 92.6603 100.193 93.4678 100.728C93.8823 101.032 94.3721 101.218 94.8844 101.266C95.2054 101.179 95.4921 100.996 95.7061 100.742C96.2869 100.147 97.4486 98.73 98.1286 97.9083C98.8511 98.56 99.8144 99.835 100.353 100.345C100.574 100.587 100.867 100.751 101.189 100.813C101.312 100.822 101.435 100.804 101.55 100.76C101.665 100.715 101.769 100.646 101.854 100.558C102.18 100.246 103.427 99.3817 104.164 98.7725C104.434 98.5626 104.673 98.3145 104.872 98.0358C104.962 97.8295 104.993 97.6019 104.96 97.3791C104.928 97.1562 104.833 96.9469 104.688 96.775Z" fill="#455173"/>
</g>
<g filter="url(#filter2_d_396_3438)">
<circle cx="89" cy="103" r="34.5" stroke="url(#paint3_linear_396_3438)" shape-rendering="crispEdges"/>
</g>
<g filter="url(#filter3_d_396_3438)">
<circle cx="257" cy="103" r="34.5" stroke="url(#paint4_linear_396_3438)" shape-rendering="crispEdges"/>
</g>
<g filter="url(#filter4_d_396_3438)">
<circle cx="89" cy="103" r="40.5" stroke="url(#paint5_linear_396_3438)" shape-rendering="crispEdges"/>
</g>
<g filter="url(#filter5_d_396_3438)">
<circle cx="257" cy="103" r="40.5" stroke="url(#paint6_linear_396_3438)" shape-rendering="crispEdges"/>
</g>
<path d="M138 130L138 78" stroke="url(#paint7_linear_396_3438)" stroke-width="2" stroke-linecap="round"/>
<path d="M178 125L178 81" stroke="url(#paint8_linear_396_3438)" stroke-width="2" stroke-linecap="round"/>
<path d="M161 69L161 118" stroke="url(#paint9_linear_396_3438)" stroke-width="2" stroke-linecap="round"/>
<path d="M201 74L201 115" stroke="url(#paint10_linear_396_3438)" stroke-width="2" stroke-linecap="round"/>
<path d="M145 72L145 117" stroke="url(#paint11_linear_396_3438)" stroke-width="2" stroke-linecap="round"/>
<path d="M185 76L185 114" stroke="url(#paint12_linear_396_3438)" stroke-width="2" stroke-linecap="round"/>
<path d="M153 131L153 89" stroke="url(#paint13_linear_396_3438)" stroke-width="2" stroke-linecap="round"/>
<path d="M193 126L193 91" stroke="url(#paint14_linear_396_3438)" stroke-width="2" stroke-linecap="round"/>
<path d="M169 130L169 86" stroke="url(#paint15_linear_396_3438)" stroke-width="2" stroke-linecap="round"/>
<path d="M252.5 94C251.186 103.715 250.119 104.738 240 106C250.119 107.262 251.186 108.285 252.5 118C253.814 108.285 254.881 107.262 265 106C254.881 104.738 253.814 103.715 252.5 94Z" fill="#455173"/>
<path d="M261.292 87C260.525 92.6669 259.903 93.2639 254 94C259.903 94.7361 260.525 95.3331 261.292 101C262.058 95.3331 262.68 94.7361 268.583 94C262.68 93.2639 262.058 92.6669 261.292 87Z" fill="#455173"/>
<defs>
<filter id="filter0_d_396_3438" x="46" y="64" width="86" height="86" filterUnits="userSpaceOnUse" color-interpolation-filters="sRGB">
<feFlood flood-opacity="0" result="BackgroundImageFix"/>
<feColorMatrix in="SourceAlpha" type="matrix" values="0 0 0 0 0 0 0 0 0 0 0 0 0 0 0 0 0 0 127 0" result="hardAlpha"/>
<feOffset dy="4"/>
<feGaussianBlur stdDeviation="7"/>
<feComposite in2="hardAlpha" operator="out"/>
<feColorMatrix type="matrix" values="0 0 0 0 0.282353 0 0 0 0 0.0470588 0 0 0 0 0.658824 0 0 0 0.15 0"/>
<feBlend mode="normal" in2="BackgroundImageFix" result="effect1_dropShadow_396_3438"/>
<feBlend mode="normal" in="SourceGraphic" in2="effect1_dropShadow_396_3438" result="shape"/>
</filter>
<filter id="filter1_d_396_3438" x="214" y="64" width="86" height="86" filterUnits="userSpaceOnUse" color-interpolation-filters="sRGB">
<feFlood flood-opacity="0" result="BackgroundImageFix"/>
<feColorMatrix in="SourceAlpha" type="matrix" values="0 0 0 0 0 0 0 0 0 0 0 0 0 0 0 0 0 0 127 0" result="hardAlpha"/>
<feOffset dy="4"/>
<feGaussianBlur stdDeviation="7"/>
<feComposite in2="hardAlpha" operator="out"/>
<feColorMatrix type="matrix" values="0 0 0 0 0.282353 0 0 0 0 0.0470588 0 0 0 0 0.658824 0 0 0 0.15 0"/>
<feBlend mode="normal" in2="BackgroundImageFix" result="effect1_dropShadow_396_3438"/>
<feBlend mode="normal" in="SourceGraphic" in2="effect1_dropShadow_396_3438" result="shape"/>
</filter>
<filter id="filter2_d_396_3438" x="40" y="58" width="98" height="98" filterUnits="userSpaceOnUse" color-interpolation-filters="sRGB">
<feFlood flood-opacity="0" result="BackgroundImageFix"/>
<feColorMatrix in="SourceAlpha" type="matrix" values="0 0 0 0 0 0 0 0 0 0 0 0 0 0 0 0 0 0 127 0" result="hardAlpha"/>
<feOffset dy="4"/>
<feGaussianBlur stdDeviation="7"/>
<feComposite in2="hardAlpha" operator="out"/>
<feColorMatrix type="matrix" values="0 0 0 0 0 0 0 0 0 0 0 0 0 0 0 0 0 0 0.15 0"/>
<feBlend mode="normal" in2="BackgroundImageFix" result="effect1_dropShadow_396_3438"/>
<feBlend mode="normal" in="SourceGraphic" in2="effect1_dropShadow_396_3438" result="shape"/>
</filter>
<filter id="filter3_d_396_3438" x="208" y="58" width="98" height="98" filterUnits="userSpaceOnUse" color-interpolation-filters="sRGB">
<feFlood flood-opacity="0" result="BackgroundImageFix"/>
<feColorMatrix in="SourceAlpha" type="matrix" values="0 0 0 0 0 0 0 0 0 0 0 0 0 0 0 0 0 0 127 0" result="hardAlpha"/>
<feOffset dy="4"/>
<feGaussianBlur stdDeviation="7"/>
<feComposite in2="hardAlpha" operator="out"/>
<feColorMatrix type="matrix" values="0 0 0 0 0 0 0 0 0 0 0 0 0 0 0 0 0 0 0.15 0"/>
<feBlend mode="normal" in2="BackgroundImageFix" result="effect1_dropShadow_396_3438"/>
<feBlend mode="normal" in="SourceGraphic" in2="effect1_dropShadow_396_3438" result="shape"/>
</filter>
<filter id="filter4_d_396_3438" x="34" y="52" width="110" height="110" filterUnits="userSpaceOnUse" color-interpolation-filters="sRGB">
<feFlood flood-opacity="0" result="BackgroundImageFix"/>
<feColorMatrix in="SourceAlpha" type="matrix" values="0 0 0 0 0 0 0 0 0 0 0 0 0 0 0 0 0 0 127 0" result="hardAlpha"/>
<feOffset dy="4"/>
<feGaussianBlur stdDeviation="7"/>
<feComposite in2="hardAlpha" operator="out"/>
<feColorMatrix type="matrix" values="0 0 0 0 0 0 0 0 0 0 0 0 0 0 0 0 0 0 0.15 0"/>
<feBlend mode="normal" in2="BackgroundImageFix" result="effect1_dropShadow_396_3438"/>
<feBlend mode="normal" in="SourceGraphic" in2="effect1_dropShadow_396_3438" result="shape"/>
</filter>
<filter id="filter5_d_396_3438" x="202" y="52" width="110" height="110" filterUnits="userSpaceOnUse" color-interpolation-filters="sRGB">
<feFlood flood-opacity="0" result="BackgroundImageFix"/>
<feColorMatrix in="SourceAlpha" type="matrix" values="0 0 0 0 0 0 0 0 0 0 0 0 0 0 0 0 0 0 127 0" result="hardAlpha"/>
<feOffset dy="4"/>
<feGaussianBlur stdDeviation="7"/>
<feComposite in2="hardAlpha" operator="out"/>
<feColorMatrix type="matrix" values="0 0 0 0 0 0 0 0 0 0 0 0 0 0 0 0 0 0 0.15 0"/>
<feBlend mode="normal" in2="BackgroundImageFix" result="effect1_dropShadow_396_3438"/>
<feBlend mode="normal" in="SourceGraphic" in2="effect1_dropShadow_396_3438" result="shape"/>
</filter>
<linearGradient id="paint0_linear_396_3438" x1="19.5" y1="1.45712e-05" x2="349.353" y2="109.85" gradientUnits="userSpaceOnUse">
<stop stop-color="#7AB8FF"/>
<stop offset="0.525043" stop-color="#FEFEFE"/>
<stop offset="1" stop-color="#8CC1FE"/>
</linearGradient>
<linearGradient id="paint1_linear_396_3438" x1="33.6593" y1="18" x2="326.683" y2="124.658" gradientUnits="userSpaceOnUse">
<stop stop-color="#7AB8FF"/>
<stop offset="0.525043" stop-color="#FEFEFE"/>
<stop offset="1" stop-color="#8CC1FE"/>
</linearGradient>
<linearGradient id="paint2_linear_396_3438" x1="50.4159" y1="41" x2="294.556" y2="146.454" gradientUnits="userSpaceOnUse">
<stop stop-color="#7AB8FF"/>
<stop offset="0.525043" stop-color="#FEFEFE"/>
<stop offset="1" stop-color="#8CC1FE"/>
</linearGradient>
<linearGradient id="paint3_linear_396_3438" x1="58.0265" y1="68" x2="130.603" y2="82.9726" gradientUnits="userSpaceOnUse">
<stop stop-color="#7AB8FF"/>
<stop offset="0.525043" stop-color="#FEFEFE"/>
<stop offset="1" stop-color="#8CC1FE"/>
</linearGradient>
<linearGradient id="paint4_linear_396_3438" x1="226.027" y1="68" x2="298.603" y2="82.9726" gradientUnits="userSpaceOnUse">
<stop stop-color="#7AB8FF"/>
<stop offset="0.525043" stop-color="#FEFEFE"/>
<stop offset="1" stop-color="#8CC1FE"/>
</linearGradient>
<linearGradient id="paint5_linear_396_3438" x1="52.7168" y1="62" x2="137.735" y2="79.5393" gradientUnits="userSpaceOnUse">
<stop stop-color="#7AB8FF"/>
<stop offset="0.525043" stop-color="#FEFEFE"/>
<stop offset="1" stop-color="#8CC1FE"/>
</linearGradient>
<linearGradient id="paint6_linear_396_3438" x1="220.717" y1="62" x2="305.735" y2="79.5393" gradientUnits="userSpaceOnUse">
<stop stop-color="#7AB8FF"/>
<stop offset="0.525043" stop-color="#FEFEFE"/>
<stop offset="1" stop-color="#8CC1FE"/>
</linearGradient>
<linearGradient id="paint7_linear_396_3438" x1="138.5" y1="130" x2="138.5" y2="78" gradientUnits="userSpaceOnUse">
<stop stop-color="#04FED1" stop-opacity="0.5"/>
<stop offset="1" stop-color="#0044CC" stop-opacity="0.7"/>
</linearGradient>
<linearGradient id="paint8_linear_396_3438" x1="178.5" y1="125" x2="178.5" y2="81" gradientUnits="userSpaceOnUse">
<stop stop-color="#04FED1" stop-opacity="0.5"/>
<stop offset="1" stop-color="#0044CC" stop-opacity="0.7"/>
</linearGradient>
<linearGradient id="paint9_linear_396_3438" x1="161.5" y1="69" x2="161.5" y2="118" gradientUnits="userSpaceOnUse">
<stop stop-color="#04FED1" stop-opacity="0.5"/>
<stop offset="1" stop-color="#0044CC" stop-opacity="0.7"/>
</linearGradient>
<linearGradient id="paint10_linear_396_3438" x1="201.5" y1="74" x2="201.5" y2="115" gradientUnits="userSpaceOnUse">
<stop stop-color="#04FED1" stop-opacity="0.5"/>
<stop offset="1" stop-color="#0044CC" stop-opacity="0.7"/>
</linearGradient>
<linearGradient id="paint11_linear_396_3438" x1="145.5" y1="72" x2="145.5" y2="117" gradientUnits="userSpaceOnUse">
<stop stop-color="#04FED1" stop-opacity="0.5"/>
<stop offset="1" stop-color="#0044CC" stop-opacity="0.7"/>
</linearGradient>
<linearGradient id="paint12_linear_396_3438" x1="185.5" y1="76" x2="185.5" y2="114" gradientUnits="userSpaceOnUse">
<stop stop-color="#04FED1" stop-opacity="0.5"/>
<stop offset="1" stop-color="#0044CC" stop-opacity="0.7"/>
</linearGradient>
<linearGradient id="paint13_linear_396_3438" x1="153.5" y1="131" x2="153.5" y2="89" gradientUnits="userSpaceOnUse">
<stop stop-color="#04FED1" stop-opacity="0.5"/>
<stop offset="1" stop-color="#0044CC" stop-opacity="0.7"/>
</linearGradient>
<linearGradient id="paint14_linear_396_3438" x1="193.5" y1="126" x2="193.5" y2="91" gradientUnits="userSpaceOnUse">
<stop stop-color="#04FED1" stop-opacity="0.5"/>
<stop offset="1" stop-color="#0044CC" stop-opacity="0.7"/>
</linearGradient>
<linearGradient id="paint15_linear_396_3438" x1="169.5" y1="130" x2="169.5" y2="86" gradientUnits="userSpaceOnUse">
<stop stop-color="#04FED1" stop-opacity="0.5"/>
<stop offset="1" stop-color="#0044CC" stop-opacity="0.7"/>
</linearGradient>
<clipPath id="clip0_396_3438">
<rect width="34" height="34" fill="white" transform="translate(71 87)"/>
</clipPath>
</defs>
</svg>
