<svg width="339" height="210" viewBox="0 0 339 210" fill="none" xmlns="http://www.w3.org/2000/svg">
<rect x="-0.5" y="0.5" width="338" height="209" rx="39.5" transform="matrix(-1 0 0 1 338 0)" stroke="url(#paint0_linear_396_3440)"/>
<rect x="-0.5" y="0.5" width="306" height="173" rx="29.5" transform="matrix(-1 0 0 1 322 18)" stroke="url(#paint1_linear_396_3440)"/>
<rect x="-0.5" y="0.5" width="267" height="127" rx="19.5" transform="matrix(-1 0 0 1 303 41)" stroke="url(#paint2_linear_396_3440)"/>
<g filter="url(#filter0_d_396_3440)">
<circle cx="24" cy="24" r="24" transform="matrix(-1 0 0 1 77 135)" fill="#FFC7C7"/>
<circle cx="24" cy="24" r="23.5" transform="matrix(-1 0 0 1 77 135)" stroke="#CC9F9F"/>
</g>
<g filter="url(#filter1_d_396_3440)">
<circle cx="113" cy="162" r="24" fill="#C7F5FF"/>
<circle cx="113" cy="162" r="23.5" stroke="#9FC4CC"/>
</g>
<g filter="url(#filter2_d_396_3440)">
<circle cx="269" cy="161" r="24" fill="#CFFFC7"/>
<circle cx="269" cy="161" r="23.5" stroke="#9FC4CC"/>
</g>
<g clip-path="url(#clip0_396_3440)">
<path fill-rule="evenodd" clip-rule="evenodd" d="M55.2306 157.87C55.6656 158.081 56.138 158.203 56.6206 158.23C58.1943 158.404 59.7789 158.457 61.3606 158.39C62.0922 158.363 62.8162 158.232 63.5106 158C63.6813 157.952 63.8377 157.863 63.9665 157.741C64.0954 157.619 64.1929 157.468 64.2506 157.3C64.3496 156.682 64.3997 156.056 64.4006 155.43C64.4606 153.69 64.4006 151.34 64.4006 151.34C64.4147 151.281 64.4147 151.219 64.4006 151.16C64.1005 150.378 63.6005 149.688 62.9506 149.16C62.3478 148.667 61.6734 148.269 60.9506 147.98C60.9079 147.97 60.8634 147.97 60.8206 147.98H58.5206C57.9988 147.984 57.4778 148.02 56.9606 148.09C56.8791 148.105 56.8065 148.15 56.758 148.217C56.7095 148.285 56.689 148.368 56.7006 148.45C56.7056 148.527 56.7391 148.599 56.7945 148.653C56.85 148.707 56.9235 148.738 57.0006 148.74C57.4867 148.707 57.9745 148.707 58.4606 148.74H59.5506C59.4762 149.294 59.4361 149.851 59.4306 150.41C59.4307 150.677 59.4474 150.945 59.4806 151.21C59.513 151.47 59.5873 151.723 59.7006 151.96C59.7437 152.046 59.8056 152.121 59.8818 152.18C59.958 152.239 60.0464 152.28 60.1406 152.3C60.4434 152.325 60.7478 152.325 61.0506 152.3C61.4809 152.281 61.9089 152.227 62.3306 152.14C62.3775 152.137 62.4234 152.126 62.4656 152.105C62.5078 152.084 62.5454 152.055 62.5762 152.02C62.607 151.984 62.6303 151.943 62.6449 151.899C62.6594 151.854 62.6647 151.807 62.6606 151.76C62.6505 151.665 62.6043 151.578 62.5317 151.517C62.4591 151.455 62.3656 151.424 62.2706 151.43C61.9506 151.43 61.6106 151.43 61.2706 151.34C60.9306 151.25 60.8706 151.28 60.7006 151.24C60.6506 150.98 60.6106 150.62 60.5406 150.24C60.4306 149.67 60.3006 149.09 60.2306 148.77H60.6206C61.241 149.046 61.8146 149.417 62.3206 149.87C62.7689 150.299 63.1112 150.826 63.3206 151.41C63.3206 151.85 63.2206 153.85 63.1406 155.41C63.1406 156.02 63.0806 156.55 63.0406 156.84C62.9706 156.84 62.8506 156.95 62.7506 156.98C61.7083 157.169 60.6497 157.253 59.5906 157.23C58.5057 157.246 57.4208 157.203 56.3406 157.1H55.9306C55.9306 156.97 55.7906 156.71 55.7506 156.43C55.6044 155.102 55.5277 153.766 55.5206 152.43C55.4348 151.369 55.5022 150.302 55.7206 149.26C55.7437 149.219 55.7583 149.173 55.7637 149.126C55.7691 149.079 55.7652 149.031 55.7522 148.986C55.7392 148.94 55.7174 148.898 55.6879 148.861C55.6585 148.824 55.622 148.793 55.5806 148.77C55.5406 148.747 55.4964 148.732 55.4506 148.726C55.4047 148.72 55.3582 148.723 55.3135 148.735C55.2689 148.747 55.2271 148.768 55.1906 148.796C55.154 148.824 55.1234 148.86 55.1006 148.9C54.7201 150.612 54.5721 152.368 54.6606 154.12C54.6457 155.163 54.7059 156.206 54.8406 157.24C54.8914 157.49 55.0297 157.713 55.2306 157.87Z" fill="black"/>
<path fill-rule="evenodd" clip-rule="evenodd" d="M54.7802 169.29C54.7962 169.806 54.843 170.32 54.9202 170.83C54.9518 171.065 55.0609 171.283 55.2302 171.45C55.6651 171.661 56.1376 171.783 56.6202 171.81C58.1938 171.984 59.7784 172.037 61.3602 171.97C62.0898 171.956 62.8137 171.838 63.5102 171.62C63.6808 171.572 63.8372 171.483 63.9661 171.361C64.0949 171.239 64.1924 171.088 64.2502 170.92C64.3491 170.301 64.3993 169.676 64.4002 169.05C64.4602 167.31 64.4002 164.96 64.4002 164.96C64.415 164.901 64.415 164.839 64.4002 164.78C64.1 163.998 63.6 163.308 62.9502 162.78C62.3473 162.287 61.6729 161.889 60.9502 161.6C60.9074 161.59 60.8629 161.59 60.8202 161.6H58.5202C57.9984 161.604 57.4773 161.64 56.9602 161.71C56.8787 161.725 56.806 161.77 56.7575 161.837C56.7091 161.905 56.6885 161.988 56.7002 162.07C56.7062 162.111 56.7204 162.15 56.7419 162.186C56.7634 162.221 56.7918 162.252 56.8253 162.276C56.8589 162.3 56.8969 162.317 56.9373 162.327C56.9776 162.336 57.0194 162.337 57.0602 162.33C57.5463 162.297 58.034 162.297 58.5202 162.33H59.6102C59.5224 162.883 59.4689 163.44 59.4502 164C59.4499 164.264 59.4666 164.528 59.5002 164.79C59.533 165.053 59.6073 165.31 59.7202 165.55C59.7619 165.636 59.8236 165.711 59.9001 165.768C59.9767 165.826 60.0658 165.864 60.1602 165.88C60.4627 165.911 60.7676 165.911 61.0702 165.88C61.4999 165.856 61.9276 165.802 62.3502 165.72C62.397 165.717 62.443 165.706 62.4852 165.685C62.5273 165.664 62.565 165.635 62.5957 165.6C62.6265 165.564 62.6499 165.523 62.6644 165.479C62.6789 165.434 62.6842 165.387 62.6802 165.34C62.67 165.245 62.6239 165.158 62.5513 165.097C62.4786 165.035 62.3851 165.004 62.2902 165.01C61.9702 165.01 61.6302 164.96 61.2902 164.92C60.9502 164.88 60.8902 164.86 60.7202 164.82C60.6702 164.56 60.6302 164.2 60.5602 163.82C60.4502 163.24 60.3202 162.67 60.2502 162.35H60.6402C61.2606 162.626 61.8341 162.997 62.3402 163.45C62.7884 163.879 63.1307 164.406 63.3402 164.99C63.3402 165.43 63.2402 167.43 63.1602 168.99C63.1602 169.6 63.1002 170.13 63.0602 170.42C62.9902 170.42 62.8702 170.53 62.7702 170.56C61.7279 170.749 60.6692 170.833 59.6102 170.81C58.5253 170.826 57.4403 170.783 56.3602 170.68H55.9502C55.9502 170.55 55.8102 170.29 55.7702 170.01C55.6243 168.681 55.5475 167.346 55.5402 166.01C55.4544 164.949 55.5217 163.882 55.7402 162.84C55.7632 162.799 55.7778 162.753 55.7833 162.706C55.7887 162.659 55.7848 162.611 55.7718 162.566C55.7588 162.52 55.7369 162.478 55.7075 162.441C55.678 162.404 55.6416 162.373 55.6002 162.35C55.5602 162.327 55.516 162.312 55.4701 162.306C55.4243 162.3 55.3777 162.303 55.3331 162.315C55.2884 162.327 55.2466 162.348 55.2101 162.376C55.1735 162.404 55.143 162.44 55.1202 162.48C54.7396 164.192 54.5916 165.948 54.6802 167.7V168.54L54.7802 169.29Z" fill="black"/>
<path fill-rule="evenodd" clip-rule="evenodd" d="M42.3103 152.65C42.3576 152.65 42.4044 152.641 42.4481 152.623C42.4918 152.604 42.5314 152.578 42.5649 152.545C42.5983 152.511 42.6248 152.471 42.6429 152.428C42.661 152.384 42.6703 152.337 42.6703 152.29C42.6793 152.25 42.6793 152.209 42.6703 152.17V151.98C42.6703 151.7 42.7603 151.25 42.7803 150.77C42.7953 150.57 42.7953 150.37 42.7803 150.17C42.7803 149.93 42.7003 149.73 42.6703 149.58C42.6403 149.43 42.5503 148.91 42.5303 148.77C42.5232 148.727 42.5232 148.683 42.5303 148.64C42.4003 148.43 42.2603 148.38 42.1603 148.41C42.0833 148.415 42.0109 148.448 41.9573 148.504C41.9037 148.559 41.8726 148.633 41.8703 148.71C41.8656 148.726 41.8656 148.744 41.8703 148.76C41.7303 148.76 41.6903 149.38 41.6503 149.58C41.5969 149.857 41.5701 150.138 41.5703 150.42C41.5789 150.696 41.6124 150.97 41.6703 151.24C41.7352 151.578 41.8187 151.911 41.9203 152.24C42.0003 152.58 42.2603 152.65 42.3103 152.65Z" fill="black"/>
<path fill-rule="evenodd" clip-rule="evenodd" d="M42.5604 158.71C42.6541 158.71 42.7442 158.673 42.8115 158.608C42.8787 158.543 42.9178 158.454 42.9204 158.36C42.9354 158.308 42.9354 158.252 42.9204 158.2V158.06C42.8904 157.8 43.0004 157.4 43.0004 157C43.0109 156.823 43.0109 156.646 43.0004 156.47C43.0004 156.25 42.9004 156.08 42.8804 155.95C42.8604 155.82 42.7504 155.41 42.7204 155.23V155.17C42.7304 155.144 42.7304 155.116 42.7204 155.09C42.7204 155.01 42.1904 154.75 42.0804 155.21C42.0304 155.4 41.9304 155.82 41.9004 155.95C41.8506 156.207 41.8271 156.468 41.8304 156.73C41.8493 156.984 41.8929 157.235 41.9604 157.48C42.0335 157.79 42.1304 158.094 42.2504 158.39C42.2904 158.66 42.5004 158.72 42.5604 158.71Z" fill="black"/>
<path fill-rule="evenodd" clip-rule="evenodd" d="M42.2099 164.19C42.2012 164.242 42.2039 164.294 42.2177 164.345C42.2316 164.395 42.2562 164.442 42.29 164.482C42.3238 164.522 42.3659 164.554 42.4134 164.576C42.4609 164.598 42.5126 164.61 42.5649 164.61C42.6173 164.61 42.669 164.598 42.7164 164.576C42.7639 164.554 42.806 164.522 42.8398 164.482C42.8736 164.442 42.8983 164.395 42.9121 164.345C42.9259 164.294 42.9286 164.242 42.9199 164.19C43.0225 163.801 43.0763 163.402 43.0799 163C43.0799 162.75 43.0199 162.51 42.9999 162.28C42.9799 162.05 42.8999 161.47 42.7299 161.49C42.7396 161.444 42.7396 161.396 42.7299 161.35C42.7299 160.98 42.3299 161.12 42.2499 161.14C42.1549 161.227 42.0916 161.343 42.0699 161.47C42.0099 161.65 41.9199 162.23 41.8899 162.35C41.8752 162.6 41.8752 162.85 41.8899 163.1C41.9999 163.52 42.1299 163.85 42.2099 164.19Z" fill="black"/>
<path fill-rule="evenodd" clip-rule="evenodd" d="M45.2799 168.34L44.1699 168.23C43.8999 168.23 43.6399 168.15 43.3999 168.1C43.2622 168.087 43.1273 168.054 42.9999 168C42.9999 168 43.1099 168.09 43.0599 168.11C42.7699 168.21 42.9499 167.17 42.8899 166.95C42.8299 166.73 42.8899 166.28 42.7299 166.26C42.7402 166.214 42.7402 166.166 42.7299 166.12C42.7211 166.077 42.7033 166.037 42.6775 166.002C42.6517 165.967 42.6187 165.939 42.5807 165.918C42.5426 165.897 42.5005 165.884 42.4572 165.881C42.4139 165.878 42.3705 165.885 42.3299 165.9C42.2611 165.93 42.2021 165.979 42.1597 166.04C42.1172 166.102 42.093 166.175 42.0899 166.25V167.07C42.0899 167.2 41.9299 167.83 41.9399 168.19C41.9463 168.413 42.0272 168.628 42.1699 168.8C42.4887 169.079 42.8964 169.235 43.3199 169.24C43.9915 169.221 44.6604 169.148 45.3199 169.02C45.4038 169.006 45.48 168.962 45.535 168.897C45.59 168.832 45.6201 168.75 45.6201 168.665C45.6201 168.58 45.59 168.497 45.535 168.432C45.48 168.367 45.4038 168.324 45.3199 168.31L45.2799 168.34Z" fill="black"/>
<path fill-rule="evenodd" clip-rule="evenodd" d="M50.0704 168.43C49.8604 168.43 49.4204 168.23 48.9104 168.15C48.7539 168.14 48.5969 168.14 48.4404 168.15H48.1204C47.7704 168.21 47.5004 168.28 47.3604 168.31H47.3004C47.2542 168.3 47.2066 168.3 47.1604 168.31C47.1604 168.31 46.8604 168.8 47.3004 168.96C47.4404 168.96 47.7104 169.11 48.0604 169.21C48.1642 169.245 48.2715 169.268 48.3804 169.28C48.5367 169.295 48.6941 169.295 48.8504 169.28C49.2613 169.248 49.6692 169.184 50.0704 169.09C50.1641 169.087 50.2532 169.048 50.3185 168.981C50.3839 168.914 50.4204 168.824 50.4204 168.73C50.4064 168.647 50.3637 168.571 50.2997 168.517C50.2358 168.462 50.1546 168.431 50.0704 168.43Z" fill="black"/>
<path fill-rule="evenodd" clip-rule="evenodd" d="M47.2304 154.16C47.2698 154.17 47.311 154.17 47.3504 154.16C47.4459 154.16 47.5375 154.122 47.605 154.055C47.6725 153.987 47.7104 153.895 47.7104 153.8C47.7104 153.74 47.6304 153.49 47.2604 153.39C46.8476 153.282 46.4259 153.212 46.0004 153.18C45.721 153.155 45.4399 153.155 45.1604 153.18C44.6602 153.244 44.1738 153.389 43.7204 153.61C43.6635 153.671 43.6318 153.751 43.6318 153.835C43.6318 153.918 43.6635 153.999 43.7204 154.06C43.7546 154.1 43.7976 154.132 43.8462 154.153C43.8948 154.174 43.9476 154.183 44.0004 154.18C44.0004 154.18 44.0004 154.18 44.0604 154.18C44.2704 154.18 44.6704 154.32 45.1704 154.36C45.4432 154.385 45.7177 154.385 45.9904 154.36C46.5204 154.31 46.9904 154.18 47.1904 154.17L47.2304 154.16Z" fill="black"/>
<path fill-rule="evenodd" clip-rule="evenodd" d="M53.2898 153.61C53.2872 153.516 53.2482 153.427 53.1809 153.362C53.1137 153.297 53.0236 153.26 52.9298 153.26C52.5037 153.168 52.0731 153.098 51.6398 153.05C51.3537 153.025 51.066 153.025 50.7798 153.05C50.2198 153.05 49.7798 153.25 49.5298 153.26H49.4098C49.3691 153.259 49.3286 153.265 49.2904 153.28C49.2523 153.294 49.2174 153.316 49.1877 153.344C49.1579 153.372 49.134 153.405 49.1172 153.442C49.1004 153.479 49.0911 153.519 49.0898 153.56C49.0898 153.63 49.1598 153.84 49.4998 153.95C49.9305 154.1 50.3767 154.2 50.8298 154.25C51.116 154.275 51.4037 154.275 51.6898 154.25C52.1073 154.189 52.5213 154.105 52.9298 154C52.9798 154 53.0292 153.99 53.0749 153.97C53.1207 153.95 53.1618 153.921 53.1956 153.884C53.2295 153.848 53.2553 153.804 53.2716 153.757C53.2878 153.71 53.294 153.66 53.2898 153.61Z" fill="black"/>
<path fill-rule="evenodd" clip-rule="evenodd" d="M53.2207 168.29C53.0711 168.275 52.9203 168.275 52.7707 168.29C52.6709 168.28 52.5705 168.28 52.4707 168.29C52.1614 168.301 51.8552 168.355 51.5607 168.45C51.3707 168.45 51.1307 168.88 51.6707 169.1C51.9114 169.206 52.1585 169.296 52.4107 169.37C52.5076 169.405 52.6083 169.428 52.7107 169.44C52.8603 169.455 53.0111 169.455 53.1607 169.44C54.6007 169.22 54.5907 168.47 53.2207 168.29Z" fill="black"/>
</g>
<g filter="url(#filter3_d_396_3440)">
<circle cx="216" cy="163" r="24" fill="#FFF9C7"/>
<circle cx="216" cy="163" r="23.5" stroke="#CCC89F"/>
</g>
<g clip-path="url(#clip1_396_3440)">
<path d="M120.42 160.71C120.401 160.622 120.349 160.545 120.274 160.495C120.2 160.445 120.109 160.425 120.02 160.44C119.975 160.447 119.932 160.463 119.893 160.488C119.855 160.512 119.822 160.544 119.795 160.581C119.769 160.618 119.751 160.66 119.741 160.705C119.732 160.749 119.732 160.795 119.74 160.84C119.877 161.857 119.934 162.884 119.91 163.91C119.91 166.82 119.64 170.39 119.63 171.25C119.63 171.54 119.31 171.64 118.97 171.77C118.32 172.01 117.47 172.12 116.97 172.26C115.833 172.547 114.671 172.728 113.5 172.8C111.74 172.92 109.96 172.86 108.13 172.8C107.33 172.8 105.85 172.86 104.53 172.75C103.836 172.739 103.154 172.575 102.53 172.27C102.474 172.066 102.431 171.859 102.4 171.65C102.275 170.321 102.231 168.985 102.27 167.65C102.27 164.83 102.45 161.57 102.61 160.03C102.622 159.195 102.699 158.363 102.84 157.54C102.943 157.095 103.215 156.707 103.6 156.46C104.797 155.956 106.081 155.691 107.38 155.68C109.98 155.51 112.84 155.68 113.47 155.68C113.542 155.667 113.606 155.629 113.653 155.574C113.699 155.518 113.725 155.448 113.725 155.375C113.725 155.302 113.699 155.232 113.653 155.176C113.606 155.121 113.542 155.083 113.47 155.07C111.087 154.898 108.696 154.875 106.31 155C105.227 155.035 104.161 155.28 103.17 155.72C102.878 155.898 102.624 156.131 102.424 156.408C102.223 156.684 102.079 156.998 102 157.33C101.812 158.209 101.695 159.102 101.65 160C101.43 161.8 101.14 165.91 101.13 169C101.088 170.206 101.179 171.414 101.4 172.6C101.458 172.847 101.595 173.068 101.79 173.23C102.39 173.617 103.078 173.848 103.79 173.9C105.223 174.031 106.663 174.064 108.1 174C109.96 174 111.77 174 113.55 173.86C114.784 173.759 116.006 173.545 117.2 173.22C118.048 173.053 118.879 172.805 119.68 172.48C119.921 172.379 120.129 172.212 120.279 171.997C120.43 171.783 120.517 171.531 120.53 171.27C120.53 170.41 120.7 166.84 120.65 163.93C120.655 162.852 120.578 161.776 120.42 160.71Z" fill="black"/>
<path d="M124.601 151.59C124.525 151.145 124.315 150.734 124.001 150.41C122.921 149.936 121.714 149.834 120.571 150.12C118.168 150.517 115.82 151.188 113.571 152.12C113.435 152.177 113.322 152.278 113.251 152.407C113.181 152.536 113.156 152.685 113.181 152.83C113.202 152.942 113.249 153.047 113.316 153.139C113.383 153.23 113.47 153.306 113.571 153.36C114.544 153.725 115.548 154.003 116.571 154.19C116.733 154.237 116.891 154.301 117.041 154.38C116.171 155.38 114.831 157.02 113.401 158.83C108.651 164.67 108.451 165 109.051 165.9C109.411 166.46 110.271 166.65 111.121 165.9C116.121 161.9 118.991 159.73 120.481 158.56L121.001 158.17C121.289 158.879 121.662 159.55 122.111 160.17C122.254 160.37 122.465 160.51 122.705 160.563C122.945 160.616 123.196 160.58 123.411 160.46C123.881 160.071 124.209 159.536 124.341 158.94C124.636 157.823 124.801 156.675 124.831 155.52C124.913 154.206 124.836 152.886 124.601 151.59ZM123.701 155.48C123.684 156.539 123.546 157.592 123.291 158.62C123.229 158.885 123.131 159.141 123.001 159.38C122.901 159.22 122.621 159.04 122.481 158.79C122.091 158.11 121.751 157.3 121.581 157.05C121.533 156.991 121.472 156.944 121.404 156.912C121.336 156.879 121.261 156.863 121.186 156.863C121.11 156.863 121.035 156.879 120.967 156.912C120.899 156.944 120.838 156.991 120.791 157.05C120.495 157.347 120.181 157.624 119.851 157.88C118.391 159 115.511 161.24 110.641 165.38C110.231 165.72 109.831 165.77 109.641 165.51C109.251 164.93 109.861 164.12 113.901 159.27C115.671 157.16 117.281 155.27 118.111 154.44C118.178 154.356 118.215 154.252 118.215 154.145C118.215 154.038 118.178 153.934 118.111 153.85C117.826 153.598 117.482 153.422 117.111 153.34C116.461 153.14 115.111 153.02 114.451 152.81C116.169 152.209 117.931 151.741 119.721 151.41C120.609 151.23 121.514 151.139 122.421 151.14C122.712 151.127 123.003 151.193 123.261 151.33C123.361 151.4 123.381 151.6 123.441 151.85C123.674 153.045 123.761 154.264 123.701 155.48Z" fill="black"/>
</g>
<g clip-path="url(#clip2_396_3440)">
<path fill-rule="evenodd" clip-rule="evenodd" d="M225.9 155.49C225.871 154.392 225.751 153.298 225.54 152.22C225.481 151.839 225.298 151.488 225.02 151.22C224.138 150.865 223.201 150.666 222.25 150.63C218.766 150.314 215.268 150.194 211.77 150.27C209.427 150.271 207.087 150.448 204.77 150.8C204.05 150.871 203.366 151.149 202.8 151.6C202.425 152.313 202.22 153.104 202.2 153.91C201.982 156.691 201.935 159.483 202.06 162.27C202.119 165.417 202.433 168.554 203 171.65C203.077 172.084 203.259 172.493 203.53 172.84C204.084 173.179 204.713 173.374 205.36 173.41C207.571 173.659 209.795 173.772 212.02 173.75C216.174 173.805 220.327 173.578 224.45 173.07C224.49 173.065 224.527 173.052 224.562 173.032C224.596 173.013 224.625 172.986 224.649 172.954C224.672 172.922 224.689 172.886 224.698 172.847C224.707 172.809 224.707 172.769 224.7 172.73C224.688 172.649 224.644 172.577 224.579 172.528C224.513 172.479 224.431 172.459 224.35 172.47C220.249 172.902 216.123 173.056 212 172.93C209.817 172.912 207.636 172.765 205.47 172.49C205.013 172.465 204.566 172.342 204.16 172.13C203.913 171.596 203.773 171.018 203.75 170.43C203.414 167.712 203.224 164.978 203.18 162.24C203.076 159.492 203.136 156.741 203.36 154C203.363 153.43 203.479 152.866 203.7 152.34C203.791 152.273 203.893 152.223 204 152.19C204.448 152.047 204.906 151.94 205.37 151.87C208.232 151.508 211.116 151.341 214 151.37C217.27 151.37 220.55 151.45 222.62 151.67C223.239 151.699 223.851 151.81 224.44 152C224.31 152.11 224.62 152.42 224.69 152.81C224.925 154.37 225.059 155.943 225.09 157.52C225.25 161.93 225.16 167.8 225.09 171.52C225.09 171.611 225.126 171.699 225.189 171.764C225.253 171.829 225.339 171.867 225.43 171.87C225.521 171.87 225.609 171.835 225.674 171.771C225.74 171.708 225.778 171.621 225.78 171.53C225.92 167.21 226.12 160 225.9 155.49Z" fill="black"/>
<path fill-rule="evenodd" clip-rule="evenodd" d="M206.29 158.33C207 158.412 207.715 158.446 208.43 158.43C208.821 158.433 209.211 158.386 209.59 158.29C209.721 158.247 209.838 158.172 209.93 158.07C210.03 157.946 210.096 157.798 210.12 157.64C210.191 157.096 210.208 156.547 210.17 156C210.164 155.433 210.107 154.867 210 154.31C209.959 154.162 209.883 154.025 209.78 153.91C209.471 153.755 209.126 153.682 208.78 153.7C207.813 153.694 206.846 153.764 205.89 153.91C205.841 153.92 205.794 153.942 205.754 153.973C205.714 154.004 205.682 154.044 205.66 154.09C205.589 154.108 205.525 154.149 205.48 154.207C205.435 154.265 205.41 154.336 205.41 154.41C205.322 155.428 205.285 156.449 205.3 157.47C205.309 157.717 205.408 157.952 205.58 158.13C205.802 158.24 206.043 158.308 206.29 158.33ZM207.29 154.5C207.863 154.507 208.435 154.557 209 154.65C209.043 155.349 209.043 156.051 209 156.75V157.22C208.164 157.321 207.321 157.355 206.48 157.32H206.16C206.082 156.382 206.051 155.441 206.07 154.5C206.37 154.48 206.84 154.48 207.32 154.5H207.29Z" fill="black"/>
<path fill-rule="evenodd" clip-rule="evenodd" d="M205.691 164.23C205.921 164.347 206.173 164.415 206.431 164.43C207.141 164.511 207.856 164.547 208.571 164.54C208.962 164.541 209.352 164.49 209.731 164.39C209.86 164.344 209.976 164.269 210.071 164.17C210.167 164.044 210.232 163.896 210.261 163.74C210.329 163.186 210.345 162.627 210.311 162.07C210.288 161.514 210.214 160.962 210.091 160.42C210.061 160.267 209.984 160.127 209.871 160.02C209.561 159.865 209.216 159.792 208.871 159.81C207.91 159.798 206.951 159.861 206.001 160C205.951 160.005 205.903 160.024 205.862 160.053C205.822 160.083 205.79 160.124 205.771 160.17C205.699 160.189 205.635 160.23 205.588 160.288C205.542 160.345 205.514 160.416 205.511 160.49C205.511 161.35 205.361 162.88 205.411 163.56C205.409 163.685 205.434 163.809 205.482 163.924C205.53 164.039 205.601 164.143 205.691 164.23ZM207.451 160.6C208.017 160.613 208.581 160.663 209.141 160.75C209.187 161.443 209.187 162.137 209.141 162.83V163.3C208.305 163.401 207.462 163.435 206.621 163.4H206.301C206.201 162.77 206.181 161.4 206.161 160.57C206.511 160.59 207.001 160.59 207.451 160.6Z" fill="black"/>
<path fill-rule="evenodd" clip-rule="evenodd" d="M205.901 170.53C206.131 170.647 206.383 170.715 206.641 170.73C207.351 170.812 208.066 170.846 208.781 170.83C209.169 170.834 209.555 170.787 209.931 170.69C210.064 170.647 210.184 170.571 210.281 170.47C210.383 170.332 210.449 170.17 210.471 170C210.522 169.441 210.522 168.879 210.471 168.32C210.448 167.768 210.374 167.219 210.251 166.68C210.218 166.525 210.142 166.383 210.031 166.27C209.72 166.118 209.376 166.049 209.031 166.07C208.064 166.06 207.097 166.127 206.141 166.27C206.091 166.279 206.043 166.3 206.003 166.331C205.963 166.363 205.931 166.403 205.911 166.45C205.839 166.469 205.775 166.51 205.729 166.568C205.682 166.625 205.655 166.696 205.651 166.77C205.601 167.63 205.501 169.16 205.551 169.83C205.559 169.964 205.594 170.095 205.654 170.216C205.715 170.336 205.798 170.443 205.901 170.53ZM207.661 166.9C208.227 166.913 208.791 166.963 209.351 167.05C209.397 167.743 209.397 168.438 209.351 169.13V169.6C208.514 169.691 207.672 169.725 206.831 169.7C206.721 169.69 206.611 169.69 206.501 169.7C206.411 169.07 206.391 167.7 206.371 166.86C206.721 166.88 207.181 166.88 207.661 166.9Z" fill="black"/>
<path fill-rule="evenodd" clip-rule="evenodd" d="M215.82 155.55C215.98 155.55 216.37 155.43 216.49 155.42H218.19H219.06C219.7 155.42 220.34 155.32 220.99 155.34L223.11 155.4C223.2 155.4 223.287 155.364 223.351 155.3C223.414 155.237 223.45 155.15 223.45 155.06C223.45 154.969 223.415 154.881 223.351 154.816C223.288 154.751 223.201 154.713 223.11 154.71L221 154.31C220.612 154.258 220.222 154.232 219.83 154.23C219.27 154.23 218.71 154.29 218.15 154.3C217.895 154.322 217.641 154.359 217.39 154.41L216.39 154.67C216.26 154.67 215.5 155.01 215.49 155.02C215.48 155.03 215.33 155.65 215.82 155.55Z" fill="black"/>
<path fill-rule="evenodd" clip-rule="evenodd" d="M213.08 159.6C213.08 159.6 212.85 160.13 213.28 160.15H213.56C214.04 160.15 215.05 160.21 216.25 160.23H217.36C217.91 160.23 218.47 160.23 219.02 160.15C221.02 159.99 222.86 159.75 223.16 159.74C223.251 159.737 223.338 159.699 223.401 159.634C223.465 159.569 223.5 159.481 223.5 159.39C223.5 159.3 223.464 159.213 223.4 159.15C223.337 159.086 223.25 159.05 223.16 159.05C222.86 159 221 159 219 159C218.45 159 217.88 159 217.33 159.08L216.23 159.19C215.04 159.32 214.04 159.46 213.56 159.51C213.08 159.56 213.16 159.54 213.08 159.6Z" fill="black"/>
<path fill-rule="evenodd" clip-rule="evenodd" d="M223.16 164.54C223.25 164.54 223.337 164.504 223.401 164.44C223.464 164.377 223.5 164.29 223.5 164.2C223.5 164.109 223.465 164.021 223.401 163.956C223.338 163.891 223.251 163.853 223.16 163.85C222.86 163.85 221 163.77 218.97 163.85C218.42 163.85 217.85 163.85 217.3 163.93L216.2 164C215.01 164.13 214.01 164.26 213.53 164.32C212.63 164.41 213.04 164.94 213.28 164.95H213.56C214.04 164.95 215.05 165.01 216.25 165.03H217.36C217.91 165.03 218.47 165.03 219.02 164.95C221 164.8 222.86 164.56 223.16 164.54Z" fill="black"/>
<path fill-rule="evenodd" clip-rule="evenodd" d="M216.05 168.59H215.26L214.74 168.67C212.1 169.14 213.48 169.56 213.52 169.57C213.73 169.57 214.18 169.66 214.79 169.71C214.966 169.72 215.143 169.72 215.32 169.71C215.58 169.729 215.84 169.729 216.1 169.71C216.72 169.65 217.38 169.5 218.1 169.39C218.145 169.387 218.188 169.376 218.229 169.357C218.269 169.337 218.305 169.31 218.335 169.276C218.364 169.243 218.387 169.204 218.402 169.162C218.416 169.119 218.423 169.075 218.42 169.03C218.415 168.939 218.374 168.853 218.307 168.792C218.24 168.73 218.151 168.697 218.06 168.7C217.34 168.68 216.67 168.6 216.05 168.59Z" fill="black"/>
</g>
<g clip-path="url(#clip3_396_3440)">
<path fill-rule="evenodd" clip-rule="evenodd" d="M279.08 162.55C278.706 162.18 278.255 161.897 277.758 161.724C277.261 161.551 276.732 161.492 276.21 161.55C275.315 161.699 274.486 162.114 273.83 162.74C272.949 163.626 272.168 164.605 271.5 165.66C271.136 166.149 270.802 166.66 270.5 167.19C270.294 167.559 270.126 167.947 270 168.35C269.726 169.187 269.692 170.084 269.9 170.94C270.082 171.565 270.47 172.111 271 172.49C271.316 172.754 271.7 172.925 272.109 172.981C272.517 173.038 272.933 172.979 273.31 172.81C274.61 172.24 275.67 170.32 276.37 169.35L277.28 168C277.496 167.626 277.674 167.23 277.81 166.82C277.915 166.524 277.979 166.214 278 165.9C278.027 165.593 277.964 165.284 277.819 165.012C277.673 164.74 277.451 164.517 277.18 164.37C276.912 164.248 276.618 164.195 276.324 164.216C276.031 164.237 275.747 164.331 275.5 164.49C275.193 164.69 274.923 164.94 274.7 165.23C274.4 165.628 274.126 166.046 273.88 166.48C273.7 166.77 273.54 167.07 273.37 167.37C273.2 167.67 272.93 168.28 272.71 168.74C272.693 168.773 272.683 168.81 272.68 168.847C272.677 168.885 272.682 168.922 272.694 168.957C272.706 168.993 272.726 169.026 272.751 169.053C272.775 169.081 272.806 169.104 272.84 169.12C272.873 169.137 272.909 169.147 272.947 169.15C272.984 169.152 273.022 169.147 273.057 169.135C273.093 169.123 273.125 169.104 273.153 169.079C273.181 169.054 273.204 169.024 273.22 168.99C273.45 168.55 273.68 168.1 273.92 167.67C274.16 167.24 274.24 167.1 274.42 166.83C274.669 166.427 274.943 166.039 275.24 165.67C275.415 165.453 275.628 165.27 275.87 165.13C276.01 165.04 276.17 164.987 276.336 164.975C276.502 164.962 276.668 164.992 276.82 165.06C276.951 165.144 277.055 165.264 277.119 165.406C277.183 165.548 277.204 165.706 277.18 165.86C277.15 166.145 277.079 166.425 276.97 166.69C276.853 166.973 276.709 167.244 276.54 167.5L275.62 168.77C274.986 169.802 274.216 170.744 273.33 171.57C273.098 171.775 272.799 171.888 272.49 171.888C272.18 171.888 271.882 171.775 271.65 171.57C271.256 171.253 271.004 170.793 270.95 170.29C270.878 169.739 270.929 169.179 271.1 168.65C271.207 168.304 271.348 167.969 271.52 167.65C271.784 167.154 272.082 166.677 272.41 166.22C273.007 165.208 273.715 164.266 274.52 163.41C275.02 162.891 275.671 162.541 276.38 162.41C276.768 162.355 277.164 162.389 277.538 162.508C277.912 162.628 278.255 162.83 278.54 163.1C278.85 163.36 279.1 163.684 279.272 164.05C279.445 164.416 279.536 164.815 279.54 165.22C279.501 165.832 279.362 166.433 279.13 167C278.811 167.823 278.434 168.622 278 169.39C277.957 169.467 277.947 169.558 277.971 169.642C277.996 169.726 278.053 169.798 278.13 169.84C278.207 169.882 278.297 169.893 278.382 169.868C278.466 169.844 278.537 169.787 278.58 169.71C279.058 168.906 279.483 168.071 279.85 167.21C280.095 166.607 280.243 165.969 280.29 165.32C280.298 164.799 280.195 164.281 279.986 163.803C279.777 163.326 279.468 162.898 279.08 162.55Z" fill="black"/>
<path fill-rule="evenodd" clip-rule="evenodd" d="M261 161.48C261.395 159.957 261.695 158.41 261.9 156.85C262.22 154.45 262.38 152.02 262.59 149.63L270 150.73C270.54 150.81 271.28 150.86 272 150.99L272.53 151.1L271.81 152.61C271.493 153.178 271.222 153.769 271 154.38C270.867 154.748 270.867 155.152 271 155.52C271.131 155.779 271.346 155.987 271.61 156.11C272.053 156.29 272.522 156.398 273 156.43C274 156.51 275 156.43 276 156.57C276.287 156.603 276.571 156.657 276.85 156.73V157.57C276.77 158.57 276.58 159.63 276.58 159.63C276.565 159.715 276.584 159.802 276.633 159.873C276.681 159.944 276.755 159.993 276.84 160.01C276.923 160.025 277.009 160.007 277.08 159.961C277.15 159.914 277.201 159.842 277.22 159.76C277.22 159.76 277.53 158.37 277.64 157.29C277.704 156.893 277.704 156.487 277.64 156.09C277.468 155.704 277.253 155.338 277 155C276.49 154.17 275.77 153.18 275.46 152.74C275.15 152.3 274.77 151.62 274.35 151.1C274.139 150.834 273.885 150.604 273.6 150.42C273.255 150.233 272.884 150.098 272.5 150.02C271.71 149.8 270.78 149.77 270.14 149.68C269.344 149.593 268.547 149.516 267.75 149.45C265.9 149.29 264.05 149.18 262.2 149C261.64 148.93 262.28 149.17 261 156.71C260.727 158.318 260.356 159.907 259.89 161.47L258.32 167.07C258.118 167.478 257.944 167.899 257.8 168.33C257.756 168.514 257.756 168.706 257.8 168.89C257.854 169.071 257.971 169.227 258.13 169.33C258.398 169.49 258.688 169.611 258.99 169.69C260.88 170.25 265.39 170.87 267.64 171.54C267.68 171.554 267.722 171.559 267.764 171.556C267.807 171.553 267.848 171.541 267.885 171.521C267.923 171.502 267.956 171.475 267.982 171.442C268.009 171.409 268.028 171.371 268.04 171.33C268.065 171.248 268.057 171.159 268.018 171.082C267.979 171.006 267.911 170.947 267.83 170.92C267.3 170.74 266.64 170.56 265.92 170.38C263.92 169.87 261.37 169.38 259.83 168.93C259.42 168.81 259.06 168.54 258.83 168.48L259.27 167.41C259.43 166.97 259.61 166.41 259.8 165.71C260.1 164.66 260.42 163.45 260.67 162.52M273.67 152C274.03 152.46 274.37 153 274.67 153.34C274.97 153.68 275.74 154.69 276.29 155.48L276.6 155.97L276.14 155.86C275.14 155.64 274.14 155.6 273.14 155.42C272.89 155.387 272.643 155.337 272.4 155.27C272.26 155.27 272.1 155.21 272.05 155.1C272.013 154.877 272.04 154.648 272.13 154.44C272.28 153.86 272.52 153.24 272.61 152.94L273.13 151.4C273.338 151.573 273.52 151.775 273.67 152Z" fill="black"/>
<path fill-rule="evenodd" clip-rule="evenodd" d="M261.83 161.7C262.56 161.13 263.27 160.54 264 160C264.12 159.9 264.38 159.69 264.65 159.51C264.92 159.33 265.09 159.4 265.08 159.28C265.271 159.336 265.437 159.456 265.55 159.62C265.755 159.857 265.939 160.111 266.1 160.38C266.1 160.38 267.32 162.38 268.1 163.47C268.32 163.803 268.55 164.137 268.79 164.47C268.842 164.54 268.919 164.587 269.005 164.6C269.092 164.613 269.18 164.591 269.25 164.54C269.301 164.518 269.344 164.482 269.377 164.437C269.409 164.393 269.429 164.34 269.434 164.285C269.439 164.23 269.429 164.174 269.406 164.124C269.382 164.074 269.346 164.031 269.3 164C269.09 163.68 268.89 163.36 268.7 163C268.51 162.64 268.21 162.1 267.97 161.64L270.76 159.8C270.96 159.68 271.18 159.54 271.41 159.43C271.555 159.344 271.721 159.299 271.89 159.3C272.186 159.34 272.468 159.454 272.71 159.63C273.133 159.96 273.516 160.339 273.85 160.76C273.875 160.793 273.906 160.821 273.941 160.842C273.977 160.864 274.016 160.877 274.057 160.883C274.098 160.888 274.14 160.886 274.18 160.875C274.22 160.864 274.257 160.846 274.29 160.82C274.325 160.796 274.356 160.765 274.379 160.729C274.402 160.693 274.417 160.653 274.423 160.61C274.43 160.568 274.428 160.525 274.417 160.484C274.406 160.442 274.386 160.404 274.36 160.37C274.049 159.871 273.68 159.411 273.26 159C272.923 158.688 272.514 158.465 272.07 158.35C271.77 158.291 271.459 158.311 271.17 158.41C270.819 158.534 270.483 158.698 270.17 158.9C269.82 159.123 269.485 159.37 269.17 159.64C268.64 160.09 268.17 160.57 267.65 161.05L267 159.82C266.79 159.414 266.528 159.038 266.22 158.7C265.954 158.416 265.603 158.227 265.22 158.16C264.934 158.154 264.653 158.23 264.41 158.38C264.055 158.618 263.72 158.886 263.41 159.18C262.83 159.71 262.51 160.05 261.95 160.6C261.39 161.15 261.31 161.55 261.83 161.7Z" fill="black"/>
<path fill-rule="evenodd" clip-rule="evenodd" d="M266.47 155.41C266.387 155.436 266.318 155.49 266.273 155.564C266.229 155.638 266.213 155.726 266.23 155.81C266.253 155.893 266.308 155.964 266.383 156.007C266.457 156.05 266.546 156.062 266.63 156.04C266.899 155.989 267.151 155.87 267.363 155.695C267.574 155.52 267.738 155.295 267.84 155.04C267.951 154.764 267.98 154.462 267.925 154.17C267.871 153.877 267.733 153.607 267.53 153.39C267.235 153.081 266.856 152.865 266.44 152.77C266.045 152.68 265.635 152.68 265.24 152.77C264.796 152.88 264.403 153.138 264.126 153.502C263.85 153.866 263.706 154.313 263.72 154.77C263.723 155.008 263.788 155.241 263.909 155.447C264.03 155.652 264.203 155.822 264.41 155.94C264.605 156.031 264.819 156.078 265.035 156.078C265.251 156.078 265.464 156.031 265.66 155.94C265.731 155.915 265.79 155.864 265.825 155.797C265.86 155.73 265.869 155.653 265.85 155.58C265.827 155.507 265.776 155.447 265.709 155.411C265.641 155.376 265.563 155.368 265.49 155.39C265.373 155.427 265.251 155.439 265.13 155.423C265.009 155.408 264.892 155.366 264.79 155.3C264.713 155.233 264.657 155.146 264.627 155.049C264.597 154.952 264.594 154.848 264.62 154.75C264.642 154.528 264.737 154.32 264.891 154.159C265.045 153.998 265.249 153.892 265.47 153.86C265.717 153.81 265.972 153.81 266.22 153.86C266.447 153.885 266.663 153.975 266.84 154.12C266.941 154.2 267.018 154.308 267.06 154.43C267.103 154.552 267.109 154.684 267.08 154.81C267.034 154.952 266.955 155.081 266.849 155.185C266.742 155.29 266.612 155.367 266.47 155.41Z" fill="black"/>
</g>
<path opacity="0.6" d="M60 133V133C60 130.073 60 128.61 60.1548 127.38C61.2824 118.427 68.334 111.375 77.2879 110.247C78.5172 110.093 79.9807 110.093 82.9075 110.093L142.093 110.093C145.019 110.093 146.483 110.093 147.712 109.938C156.666 108.81 163.718 101.758 164.845 92.8047C165 91.5753 165 90.1119 165 87.185V87.185C-nan -nan -nan -nan -nan -nanC-nan -nan -nan -nan -nan -nanC-nan -nan -nan -nan 165 87.185C165 87.185 165 83.9522 165 81" stroke="url(#paint3_linear_396_3440)" stroke-width="2" stroke-linejoin="round"/>
<path opacity="0.6" d="M270 133V133C270 130.073 270 128.61 269.845 127.38C268.718 118.427 261.666 111.375 252.712 110.247C251.483 110.093 250.019 110.093 247.093 110.093L187.907 110.093C184.981 110.093 183.517 110.093 182.288 109.938C173.334 108.81 166.282 101.758 165.155 92.8047C165 91.5753 165 90.1119 165 87.185V87.185C-nan -nan -nan -nan -nan -nanC-nan -nan -nan -nan -nan -nanC-nan -nan -nan -nan 165 87.185C165 87.185 165 83.9522 165 81" stroke="url(#paint4_linear_396_3440)" stroke-width="2" stroke-linejoin="round"/>
<path opacity="0.6" d="M113 133V133C113 130.073 113 128.61 113.155 127.38C114.282 118.427 121.334 111.375 130.288 110.247C131.517 110.093 132.981 110.093 135.907 110.093L142.093 110.093C145.019 110.093 146.483 110.093 147.712 109.938C156.666 108.81 163.718 101.758 164.845 92.8047C165 91.5753 165 90.1119 165 87.185V87.185C-nan -nan -nan -nan -nan -nanC-nan -nan -nan -nan -nan -nanC-nan -nan -nan -nan 165 87.185C165 87.185 165 83.9522 165 81" stroke="url(#paint5_linear_396_3440)" stroke-width="2" stroke-linejoin="round"/>
<path opacity="0.6" d="M217 133V133C217 130.073 217 128.61 216.845 127.38C215.718 118.427 208.666 111.375 199.712 110.247C198.483 110.093 197.019 110.093 194.093 110.093L187.907 110.093C184.981 110.093 183.517 110.093 182.288 109.938C173.334 108.81 166.282 101.758 165.155 92.8047C165 91.5753 165 90.1119 165 87.185V87.185C-nan -nan -nan -nan -nan -nanC-nan -nan -nan -nan -nan -nanC-nan -nan -nan -nan 165 87.185C165 87.185 165 83.9522 165 81" stroke="url(#paint6_linear_396_3440)" stroke-width="2" stroke-linejoin="round"/>
<g filter="url(#filter4_d_396_3440)">
<circle cx="166" cy="80.0001" r="21.9268" fill="#04FED1"/>
<circle cx="166" cy="80.0001" r="21.5488" stroke="#9FC4CC" stroke-width="0.756098"/>
</g>
<g filter="url(#filter5_d_396_3440)">
<circle cx="166" cy="80" r="26.0854" stroke="url(#paint7_linear_396_3440)" stroke-width="0.756098" shape-rendering="crispEdges"/>
</g>
<g filter="url(#filter6_d_396_3440)">
<circle cx="166" cy="80" r="30.622" stroke="url(#paint8_linear_396_3440)" stroke-width="0.756098" shape-rendering="crispEdges"/>
</g>
<path d="M165.622 70.9268C164.628 78.272 163.822 79.0458 156.171 79.9999C163.822 80.9541 164.628 81.7279 165.622 89.0731C166.616 81.7279 167.422 80.9541 175.073 79.9999C167.422 79.0458 166.616 78.272 165.622 70.9268Z" fill="#455173"/>
<path d="M172.269 65.6342C171.689 69.9189 171.219 70.3703 166.756 70.9268C171.219 71.4834 171.689 71.9348 172.269 76.2195C172.849 71.9348 173.319 71.4834 177.782 70.9268C173.319 70.3703 172.849 69.9189 172.269 65.6342Z" fill="#455173"/>
<defs>
<filter id="filter0_d_396_3440" x="15" y="125" width="76" height="76" filterUnits="userSpaceOnUse" color-interpolation-filters="sRGB">
<feFlood flood-opacity="0" result="BackgroundImageFix"/>
<feColorMatrix in="SourceAlpha" type="matrix" values="0 0 0 0 0 0 0 0 0 0 0 0 0 0 0 0 0 0 127 0" result="hardAlpha"/>
<feOffset dy="4"/>
<feGaussianBlur stdDeviation="7"/>
<feComposite in2="hardAlpha" operator="out"/>
<feColorMatrix type="matrix" values="0 0 0 0 0 0 0 0 0 0 0 0 0 0 0 0 0 0 0.15 0"/>
<feBlend mode="normal" in2="BackgroundImageFix" result="effect1_dropShadow_396_3440"/>
<feBlend mode="normal" in="SourceGraphic" in2="effect1_dropShadow_396_3440" result="shape"/>
</filter>
<filter id="filter1_d_396_3440" x="75" y="128" width="76" height="76" filterUnits="userSpaceOnUse" color-interpolation-filters="sRGB">
<feFlood flood-opacity="0" result="BackgroundImageFix"/>
<feColorMatrix in="SourceAlpha" type="matrix" values="0 0 0 0 0 0 0 0 0 0 0 0 0 0 0 0 0 0 127 0" result="hardAlpha"/>
<feOffset dy="4"/>
<feGaussianBlur stdDeviation="7"/>
<feComposite in2="hardAlpha" operator="out"/>
<feColorMatrix type="matrix" values="0 0 0 0 0.282353 0 0 0 0 0.0470588 0 0 0 0 0.658824 0 0 0 0.15 0"/>
<feBlend mode="normal" in2="BackgroundImageFix" result="effect1_dropShadow_396_3440"/>
<feBlend mode="normal" in="SourceGraphic" in2="effect1_dropShadow_396_3440" result="shape"/>
</filter>
<filter id="filter2_d_396_3440" x="231" y="127" width="76" height="76" filterUnits="userSpaceOnUse" color-interpolation-filters="sRGB">
<feFlood flood-opacity="0" result="BackgroundImageFix"/>
<feColorMatrix in="SourceAlpha" type="matrix" values="0 0 0 0 0 0 0 0 0 0 0 0 0 0 0 0 0 0 127 0" result="hardAlpha"/>
<feOffset dy="4"/>
<feGaussianBlur stdDeviation="7"/>
<feComposite in2="hardAlpha" operator="out"/>
<feColorMatrix type="matrix" values="0 0 0 0 0.282353 0 0 0 0 0.0470588 0 0 0 0 0.658824 0 0 0 0.15 0"/>
<feBlend mode="normal" in2="BackgroundImageFix" result="effect1_dropShadow_396_3440"/>
<feBlend mode="normal" in="SourceGraphic" in2="effect1_dropShadow_396_3440" result="shape"/>
</filter>
<filter id="filter3_d_396_3440" x="178" y="129" width="76" height="76" filterUnits="userSpaceOnUse" color-interpolation-filters="sRGB">
<feFlood flood-opacity="0" result="BackgroundImageFix"/>
<feColorMatrix in="SourceAlpha" type="matrix" values="0 0 0 0 0 0 0 0 0 0 0 0 0 0 0 0 0 0 127 0" result="hardAlpha"/>
<feOffset dy="4"/>
<feGaussianBlur stdDeviation="7"/>
<feComposite in2="hardAlpha" operator="out"/>
<feColorMatrix type="matrix" values="0 0 0 0 0 0 0 0 0 0 0 0 0 0 0 0 0 0 0.15 0"/>
<feBlend mode="normal" in2="BackgroundImageFix" result="effect1_dropShadow_396_3440"/>
<feBlend mode="normal" in="SourceGraphic" in2="effect1_dropShadow_396_3440" result="shape"/>
</filter>
<filter id="filter4_d_396_3440" x="133.488" y="50.5123" width="65.0242" height="65.0244" filterUnits="userSpaceOnUse" color-interpolation-filters="sRGB">
<feFlood flood-opacity="0" result="BackgroundImageFix"/>
<feColorMatrix in="SourceAlpha" type="matrix" values="0 0 0 0 0 0 0 0 0 0 0 0 0 0 0 0 0 0 127 0" result="hardAlpha"/>
<feOffset dy="3.02439"/>
<feGaussianBlur stdDeviation="5.29268"/>
<feComposite in2="hardAlpha" operator="out"/>
<feColorMatrix type="matrix" values="0 0 0 0 0.282353 0 0 0 0 0.0470588 0 0 0 0 0.658824 0 0 0 0.15 0"/>
<feBlend mode="normal" in2="BackgroundImageFix" result="effect1_dropShadow_396_3440"/>
<feBlend mode="normal" in="SourceGraphic" in2="effect1_dropShadow_396_3440" result="shape"/>
</filter>
<filter id="filter5_d_396_3440" x="128.951" y="45.9756" width="74.0975" height="74.0976" filterUnits="userSpaceOnUse" color-interpolation-filters="sRGB">
<feFlood flood-opacity="0" result="BackgroundImageFix"/>
<feColorMatrix in="SourceAlpha" type="matrix" values="0 0 0 0 0 0 0 0 0 0 0 0 0 0 0 0 0 0 127 0" result="hardAlpha"/>
<feOffset dy="3.02439"/>
<feGaussianBlur stdDeviation="5.29268"/>
<feComposite in2="hardAlpha" operator="out"/>
<feColorMatrix type="matrix" values="0 0 0 0 0 0 0 0 0 0 0 0 0 0 0 0 0 0 0.15 0"/>
<feBlend mode="normal" in2="BackgroundImageFix" result="effect1_dropShadow_396_3440"/>
<feBlend mode="normal" in="SourceGraphic" in2="effect1_dropShadow_396_3440" result="shape"/>
</filter>
<filter id="filter6_d_396_3440" x="124.415" y="41.439" width="83.1707" height="83.1707" filterUnits="userSpaceOnUse" color-interpolation-filters="sRGB">
<feFlood flood-opacity="0" result="BackgroundImageFix"/>
<feColorMatrix in="SourceAlpha" type="matrix" values="0 0 0 0 0 0 0 0 0 0 0 0 0 0 0 0 0 0 127 0" result="hardAlpha"/>
<feOffset dy="3.02439"/>
<feGaussianBlur stdDeviation="5.29268"/>
<feComposite in2="hardAlpha" operator="out"/>
<feColorMatrix type="matrix" values="0 0 0 0 0 0 0 0 0 0 0 0 0 0 0 0 0 0 0.15 0"/>
<feBlend mode="normal" in2="BackgroundImageFix" result="effect1_dropShadow_396_3440"/>
<feBlend mode="normal" in="SourceGraphic" in2="effect1_dropShadow_396_3440" result="shape"/>
</filter>
<linearGradient id="paint0_linear_396_3440" x1="19.5" y1="1.45712e-05" x2="349.353" y2="109.85" gradientUnits="userSpaceOnUse">
<stop stop-color="#7AB8FF"/>
<stop offset="0.525043" stop-color="#FEFEFE"/>
<stop offset="1" stop-color="#8CC1FE"/>
</linearGradient>
<linearGradient id="paint1_linear_396_3440" x1="17.6593" y1="1.20733e-05" x2="310.683" y2="106.658" gradientUnits="userSpaceOnUse">
<stop stop-color="#7AB8FF"/>
<stop offset="0.525043" stop-color="#FEFEFE"/>
<stop offset="1" stop-color="#8CC1FE"/>
</linearGradient>
<linearGradient id="paint2_linear_396_3440" x1="15.4159" y1="8.8815e-06" x2="259.556" y2="105.454" gradientUnits="userSpaceOnUse">
<stop stop-color="#7AB8FF"/>
<stop offset="0.525043" stop-color="#FEFEFE"/>
<stop offset="1" stop-color="#8CC1FE"/>
</linearGradient>
<linearGradient id="paint3_linear_396_3440" x1="112.5" y1="81" x2="112.5" y2="133" gradientUnits="userSpaceOnUse">
<stop stop-color="#04FED1" stop-opacity="0.5"/>
<stop offset="1" stop-color="#0044CC" stop-opacity="0.7"/>
</linearGradient>
<linearGradient id="paint4_linear_396_3440" x1="217.5" y1="81" x2="217.5" y2="133" gradientUnits="userSpaceOnUse">
<stop stop-color="#04FED1" stop-opacity="0.5"/>
<stop offset="1" stop-color="#0044CC" stop-opacity="0.7"/>
</linearGradient>
<linearGradient id="paint5_linear_396_3440" x1="139" y1="81" x2="139" y2="133" gradientUnits="userSpaceOnUse">
<stop stop-color="#04FED1" stop-opacity="0.5"/>
<stop offset="1" stop-color="#0044CC" stop-opacity="0.7"/>
</linearGradient>
<linearGradient id="paint6_linear_396_3440" x1="191" y1="81" x2="191" y2="133" gradientUnits="userSpaceOnUse">
<stop stop-color="#04FED1" stop-opacity="0.5"/>
<stop offset="1" stop-color="#0044CC" stop-opacity="0.7"/>
</linearGradient>
<linearGradient id="paint7_linear_396_3440" x1="142.581" y1="53.5366" x2="197.455" y2="64.8573" gradientUnits="userSpaceOnUse">
<stop stop-color="#7AB8FF"/>
<stop offset="0.525043" stop-color="#FEFEFE"/>
<stop offset="1" stop-color="#8CC1FE"/>
</linearGradient>
<linearGradient id="paint8_linear_396_3440" x1="138.566" y1="49" x2="202.848" y2="62.2614" gradientUnits="userSpaceOnUse">
<stop stop-color="#7AB8FF"/>
<stop offset="0.525043" stop-color="#FEFEFE"/>
<stop offset="1" stop-color="#8CC1FE"/>
</linearGradient>
<clipPath id="clip0_396_3440">
<rect width="24" height="24" fill="white" transform="translate(41 148)"/>
</clipPath>
<clipPath id="clip1_396_3440">
<rect width="24" height="24" fill="white" transform="translate(101 150)"/>
</clipPath>
<clipPath id="clip2_396_3440">
<rect width="24" height="24" fill="white" transform="translate(202 150)"/>
</clipPath>
<clipPath id="clip3_396_3440">
<rect width="24" height="24" fill="white" transform="translate(257 149)"/>
</clipPath>
</defs>
</svg>
