<svg width="49" height="49" viewBox="0 0 49 49" fill="none" xmlns="http://www.w3.org/2000/svg">
<g clip-path="url(#clip0_250_3672)">
<path d="M40.2288 14.2855C40.0944 13.524 39.7235 12.8242 39.1688 12.2855C38.5505 11.962 37.8664 11.7842 37.1688 11.7655C32.9723 11.5225 28.7653 11.5225 24.5688 11.7655C18.3888 12.0455 12.2088 12.8655 10.5688 14.0655C10.2873 14.2654 10.0939 14.5664 10.0288 14.9055C9.81864 16.0464 9.72483 17.2056 9.74882 18.3655C9.69538 23.255 9.92912 28.1434 10.4488 33.0055C10.4835 33.1673 10.5795 33.3094 10.7167 33.4019C10.8539 33.4945 11.0217 33.5303 11.1847 33.5018C11.3477 33.4733 11.4934 33.3828 11.5911 33.2493C11.6888 33.1157 11.731 32.9495 11.7088 32.7855C11.4668 30.4067 11.3534 28.0165 11.3688 25.6255C11.3688 22.5055 11.3688 19.1255 11.5688 17.0055C11.5592 16.879 11.5592 16.752 11.5688 16.6255C13.7288 18.1255 17.4488 20.6255 20.5688 22.4255C22.1762 23.4408 23.9721 24.1211 25.8488 24.4255C27.5168 23.8814 29.0601 23.0112 30.3888 21.8655C33.0642 19.822 35.5722 17.5682 37.8888 15.1255C37.9537 15.2796 38.0007 15.4406 38.0288 15.6055C38.2774 17.3344 38.4043 19.0787 38.4088 20.8255C38.4867 24.2571 38.3531 27.6903 38.0088 31.1055C38.0183 31.2453 38.0183 31.3856 38.0088 31.5255H37.1888C34.3888 31.8255 28.3488 32.2655 22.8088 32.6255C18.2088 32.9255 13.9488 33.1455 12.1488 33.1855C12.0552 33.1854 11.9625 33.2042 11.8762 33.2406C11.79 33.277 11.7119 33.3304 11.6466 33.3975C11.5814 33.4646 11.5302 33.5442 11.4963 33.6314C11.4623 33.7187 11.4461 33.8119 11.4488 33.9055C11.4488 34.0964 11.5247 34.2796 11.6597 34.4146C11.7947 34.5496 11.9779 34.6255 12.1688 34.6255C15.4488 34.6255 26.7688 34.2255 33.6088 33.8455C35.8688 33.7255 37.6088 33.6055 38.4888 33.5055C38.8293 33.4834 39.1622 33.3951 39.4688 33.2455C39.6737 33.1079 39.8336 32.9132 39.9288 32.6855C40.068 32.2689 40.1684 31.8405 40.2288 31.4055C40.6752 27.8834 40.889 24.3357 40.8688 20.7855C40.8764 18.6027 40.6619 16.4248 40.2288 14.2855ZM27.1888 21.1655C26.7395 21.5084 26.2311 21.766 25.6888 21.9255C25.2005 21.8597 24.727 21.7109 24.2888 21.4855C23.1688 21.0255 21.7088 20.3055 20.1488 19.4855C17.2088 18.0855 13.9688 16.2855 12.0688 15.2455C15.2864 14.4431 18.5929 14.0533 21.9088 14.0855C26.8323 13.8332 31.7654 13.8332 36.6888 14.0855C35.4488 15.2255 33.5088 16.7655 31.5488 18.2055C29.9888 19.3855 28.4088 20.4455 27.1888 21.1655Z" fill="url(#paint0_linear_250_3672)"/>
<path d="M6.14862 7.02599C5.9906 6.79504 5.80969 6.58062 5.60862 6.38599C5.42014 6.19796 5.21232 6.03036 4.98862 5.88599C4.44862 5.52599 3.88862 5.32599 3.32862 5.00599C3.27371 4.93514 3.20452 4.87661 3.12555 4.83421C3.04657 4.7918 2.95957 4.76645 2.87017 4.75981C2.78078 4.75318 2.69098 4.76539 2.60661 4.79567C2.52224 4.82594 2.44517 4.8736 2.38039 4.93557C2.31561 4.99753 2.26457 5.07241 2.23058 5.15535C2.19658 5.2383 2.18039 5.32746 2.18305 5.41706C2.18571 5.50666 2.20717 5.5947 2.24603 5.67549C2.28488 5.75627 2.34028 5.82798 2.40862 5.88599C2.73714 6.58883 3.13228 7.25856 3.58862 7.88599C3.86871 8.19524 4.18422 8.47046 4.52862 8.70599C5.02862 9.08599 5.56862 9.34599 6.06862 9.74599C6.20284 9.87553 6.38209 9.94792 6.56862 9.94792C6.75515 9.94792 6.9344 9.87553 7.06862 9.74599C7.13574 9.6791 7.189 9.59962 7.22534 9.5121C7.26168 9.42458 7.28039 9.33075 7.28039 9.23599C7.28039 9.14123 7.26168 9.0474 7.22534 8.95988C7.189 8.87236 7.13574 8.79288 7.06862 8.72599C6.81571 8.13184 6.5077 7.56269 6.14862 7.02599Z" fill="url(#paint1_linear_250_3672)"/>
<path d="M3.14877 24.0856C3.43404 24.1256 3.72349 24.1256 4.00877 24.0856C4.46877 24.0856 4.82877 23.8656 5.28877 23.8456C5.37807 23.8697 5.47127 23.8759 5.56298 23.8638C5.65468 23.8516 5.74307 23.8215 5.82304 23.775C5.90301 23.7285 5.97297 23.6666 6.02888 23.5929C6.08479 23.5192 6.12554 23.4351 6.14877 23.3456C6.17594 23.255 6.18447 23.1598 6.17383 23.0658C6.1632 22.9718 6.13362 22.881 6.08689 22.7987C6.04016 22.7165 5.97724 22.6446 5.90194 22.5873C5.82664 22.53 5.74051 22.4887 5.64877 22.4656C5.20661 22.1757 4.72027 21.9595 4.20877 21.8256C4.00672 21.7646 3.79898 21.7244 3.58877 21.7056C3.38926 21.6857 3.18827 21.6857 2.98877 21.7056C2.48877 21.8256 2.12877 22.0456 1.64877 22.2056C1.48231 22.2001 1.32026 22.2597 1.19703 22.3717C1.07379 22.4837 0.999085 22.6394 0.988767 22.8056C0.983359 22.8887 0.994732 22.972 1.02221 23.0505C1.04969 23.1291 1.0927 23.2014 1.14869 23.263C1.20469 23.3245 1.27251 23.3742 1.34812 23.409C1.42372 23.4439 1.50557 23.4631 1.58877 23.4656C2.08201 23.7341 2.60578 23.9423 3.14877 24.0856Z" fill="url(#paint2_linear_250_3672)"/>
<path d="M5.32831 39.3656C4.80831 39.6656 4.30831 39.8656 3.80831 40.1656C3.59298 40.2823 3.39168 40.4232 3.20831 40.5856C3.01557 40.7383 2.84108 40.9128 2.68831 41.1056C2.3352 41.5897 2.02725 42.1052 1.76831 42.6456C1.71026 42.7032 1.66418 42.7717 1.63274 42.8472C1.6013 42.9228 1.58511 43.0038 1.58511 43.0856C1.58511 43.1674 1.6013 43.2483 1.63274 43.3239C1.66418 43.3994 1.71026 43.4679 1.76831 43.5256C1.82594 43.5836 1.89448 43.6297 1.97 43.6611C2.04552 43.6926 2.12651 43.7087 2.20831 43.7087C2.29011 43.7087 2.3711 43.6926 2.44661 43.6611C2.52213 43.6297 2.59068 43.5836 2.64831 43.5256C3.20831 43.2456 3.70831 43.1056 4.22831 42.7856C4.43417 42.6637 4.62833 42.5231 4.80831 42.3656C4.98502 42.2022 5.15198 42.0285 5.30831 41.8456C5.68831 41.3656 5.96831 40.8856 6.30831 40.3856C6.37793 40.3201 6.43341 40.2411 6.47134 40.1534C6.50926 40.0657 6.52883 39.9711 6.52883 39.8756C6.52883 39.78 6.50926 39.6855 6.47134 39.5977C6.43341 39.51 6.37793 39.431 6.30831 39.3656C6.17512 39.2418 6.00008 39.1731 5.81831 39.1731C5.63654 39.1731 5.46149 39.2418 5.32831 39.3656Z" fill="url(#paint3_linear_250_3672)"/>
<path d="M44.1096 9.06572C44.6224 8.76941 45.1166 8.44214 45.5896 8.08572C45.7726 7.92939 45.9462 7.76243 46.1096 7.58572C46.2666 7.41962 46.4073 7.23879 46.5296 7.04572C46.8496 6.54572 47.0096 6.04572 47.3296 5.56572C47.4435 5.44354 47.5068 5.28274 47.5068 5.11572C47.5068 4.9487 47.4435 4.7879 47.3296 4.66572C47.2107 4.55319 47.0533 4.49048 46.8896 4.49048C46.7259 4.49048 46.5685 4.55319 46.4496 4.66572C45.8664 4.89897 45.3099 5.19399 44.7896 5.54572C44.5859 5.69269 44.4041 5.86776 44.2496 6.06572C44.092 6.24569 43.9514 6.43985 43.8296 6.64572C43.5096 7.14572 43.3096 7.64572 43.0296 8.16572C42.9631 8.2309 42.9102 8.30869 42.8741 8.39455C42.8381 8.4804 42.8195 8.57259 42.8195 8.66572C42.8195 8.75885 42.8381 8.85104 42.8741 8.93689C42.9102 9.02275 42.9631 9.10054 43.0296 9.16572C43.104 9.23655 43.1927 9.29062 43.2898 9.32431C43.3869 9.35801 43.49 9.37054 43.5923 9.36107C43.6946 9.3516 43.7937 9.32034 43.8829 9.2694C43.9721 9.21845 44.0494 9.14901 44.1096 9.06572Z" fill="url(#paint4_linear_250_3672)"/>
<path d="M48.2285 21.086C47.6485 21.086 47.1685 20.806 46.5885 20.726C46.3423 20.7062 46.0948 20.7062 45.8485 20.726C45.5956 20.7063 45.3415 20.7063 45.0885 20.726C44.4509 20.8286 43.8269 21.0031 43.2285 21.246C43.0404 21.2756 42.8717 21.3784 42.7592 21.5321C42.6468 21.6858 42.5998 21.8778 42.6285 22.066C42.6406 22.1603 42.6717 22.2512 42.72 22.3331C42.7683 22.415 42.8328 22.4862 42.9095 22.5423C42.9863 22.5985 43.0736 22.6384 43.1663 22.6596C43.259 22.6809 43.355 22.6831 43.4485 22.666C44.0285 22.666 44.5685 22.926 45.1485 23.006C45.5542 23.046 45.9628 23.046 46.3685 23.006C47.1134 22.8866 47.8312 22.6361 48.4885 22.266C48.5702 22.252 48.6481 22.2213 48.7173 22.1757C48.7865 22.1301 48.8455 22.0707 48.8906 22.0012C48.9357 21.9316 48.9659 21.8535 48.9793 21.7717C48.9927 21.69 48.9891 21.6063 48.9685 21.526C48.922 21.3738 48.8204 21.2444 48.6836 21.163C48.5467 21.0816 48.3845 21.0542 48.2285 21.086Z" fill="url(#paint5_linear_250_3672)"/>
<path d="M45.8286 39.2456C45.5766 38.9898 45.3095 38.7494 45.0286 38.5256L44.1286 37.9056C43.3686 37.4456 42.6086 37.0856 41.8286 36.7056C41.752 36.6493 41.6648 36.6092 41.5721 36.5877C41.4795 36.5662 41.3835 36.5638 41.2899 36.5807C41.1964 36.5975 41.1072 36.6332 41.0279 36.6857C40.9486 36.7381 40.8808 36.8061 40.8286 36.8856C40.7253 37.0438 40.6864 37.2355 40.7199 37.4214C40.7533 37.6073 40.8566 37.7734 41.0086 37.8856C41.6286 38.4856 42.1486 39.1456 42.7686 39.7456C43.174 40.1441 43.6086 40.5118 44.0686 40.8456C44.917 41.3579 45.799 41.8123 46.7086 42.2056C46.8423 42.3034 47.0087 42.3455 47.1728 42.3231C47.3369 42.3007 47.486 42.2156 47.5886 42.0856C47.6385 42.0192 47.6746 41.9433 47.6946 41.8626C47.7146 41.782 47.7182 41.6981 47.7051 41.616C47.6921 41.5339 47.6626 41.4552 47.6186 41.3847C47.5745 41.3143 47.5167 41.2533 47.4486 41.2056C46.9886 40.5456 46.4086 39.8656 45.8286 39.2456Z" fill="url(#paint6_linear_250_3672)"/>
</g>
<defs>
<linearGradient id="paint0_linear_250_3672" x1="25.3057" y1="11.5833" x2="25.3057" y2="34.6255" gradientUnits="userSpaceOnUse">
<stop stop-color="#01FFD1"/>
<stop offset="1" stop-color="#44E4E6"/>
</linearGradient>
<linearGradient id="paint1_linear_250_3672" x1="4.73158" y1="4.75806" x2="4.73158" y2="9.94792" gradientUnits="userSpaceOnUse">
<stop stop-color="#01FFD1"/>
<stop offset="1" stop-color="#44E4E6"/>
</linearGradient>
<linearGradient id="paint2_linear_250_3672" x1="3.58286" y1="21.6907" x2="3.58286" y2="24.1156" gradientUnits="userSpaceOnUse">
<stop stop-color="#01FFD1"/>
<stop offset="1" stop-color="#44E4E6"/>
</linearGradient>
<linearGradient id="paint3_linear_250_3672" x1="4.05697" y1="39.1731" x2="4.05697" y2="43.7087" gradientUnits="userSpaceOnUse">
<stop stop-color="#01FFD1"/>
<stop offset="1" stop-color="#44E4E6"/>
</linearGradient>
<linearGradient id="paint4_linear_250_3672" x1="45.1631" y1="4.49048" x2="45.1631" y2="9.36413" gradientUnits="userSpaceOnUse">
<stop stop-color="#01FFD1"/>
<stop offset="1" stop-color="#44E4E6"/>
</linearGradient>
<linearGradient id="paint5_linear_250_3672" x1="45.8037" y1="20.7112" x2="45.8037" y2="23.036" gradientUnits="userSpaceOnUse">
<stop stop-color="#01FFD1"/>
<stop offset="1" stop-color="#44E4E6"/>
</linearGradient>
<linearGradient id="paint6_linear_250_3672" x1="44.2105" y1="36.5696" x2="44.2105" y2="42.329" gradientUnits="userSpaceOnUse">
<stop stop-color="#01FFD1"/>
<stop offset="1" stop-color="#44E4E6"/>
</linearGradient>
<clipPath id="clip0_250_3672">
<rect width="48" height="48" fill="white" transform="translate(0.989258 0.0864258)"/>
</clipPath>
</defs>
</svg>
