<svg width="48" height="48" viewBox="0 0 48 48" fill="none" xmlns="http://www.w3.org/2000/svg">
<path fill-rule="evenodd" clip-rule="evenodd" d="M28.52 25.38C29.86 22.34 25.26 18.92 22.52 19.38C19.78 19.84 17.48 23.02 15.64 25.08C5.63998 37.46 6.81998 35.08 1.63998 41.76C1.58351 41.8296 1.54131 41.9097 1.51577 41.9956C1.49024 42.0815 1.48187 42.1716 1.49116 42.2607C1.50045 42.3499 1.5272 42.4363 1.56989 42.5151C1.61259 42.5939 1.67038 42.6636 1.73998 42.72C1.80958 42.7765 1.88963 42.8187 1.97554 42.8442C2.06145 42.8698 2.15155 42.8781 2.24069 42.8689C2.32984 42.8596 2.41628 42.8328 2.49509 42.7901C2.57389 42.7474 2.64352 42.6896 2.69998 42.62C6.69998 38 7.89998 37.38 17.96 26.22C19.2337 27.4391 20.7001 28.4392 22.3 29.18C18.56 33.18 14.6 39.18 8.05998 46.62C7.99038 46.6962 7.93647 46.7853 7.90131 46.8823C7.86616 46.9793 7.85045 47.0823 7.8551 47.1854C7.85974 47.2885 7.88464 47.3896 7.92837 47.4831C7.97211 47.5765 8.03382 47.6604 8.10998 47.73C8.18615 47.7996 8.27528 47.8535 8.37228 47.8887C8.46929 47.9239 8.57227 47.9396 8.67534 47.9349C8.77841 47.9303 8.87956 47.9054 8.97301 47.8616C9.06646 47.8179 9.15038 47.7562 9.21998 47.68C16.18 40.08 16.4 39.44 22.12 32.86C24.14 30.56 27.16 28.5 28.52 25.38ZM23.58 27.76C22.5698 26.259 21.0245 25.2002 19.26 24.8C19.7349 24.2819 20.2355 23.7879 20.76 23.32C22.62 21.66 23.56 21.7 25.14 22.94C25.52 23.22 26.28 23.96 26.12 24.32C25.4765 25.6037 24.6174 26.7672 23.58 27.76Z" fill="#04FED1"/>
<path fill-rule="evenodd" clip-rule="evenodd" d="M29.6 30.14C30.8463 30.5303 31.9019 31.372 32.56 32.5C32.88 33.2 32.56 33.66 33.24 34.5C33.3487 34.6433 33.491 34.7578 33.6543 34.8333C33.8176 34.9089 33.9969 34.9432 34.1765 34.9333C34.3562 34.9235 34.5306 34.8697 34.6847 34.7767C34.8387 34.6837 34.9676 34.5544 35.06 34.4C35.44 33.88 35.18 33.56 35.3 33.16C36.16 31.74 35.86 32.04 36.84 31.5C37.816 31.129 38.6636 30.4829 39.28 29.64C39.3754 29.4513 39.4303 29.2446 39.4413 29.0334C39.4523 28.8222 39.4191 28.611 39.3438 28.4133C39.2685 28.2157 39.1528 28.0359 39.004 27.8855C38.8553 27.7352 38.6768 27.6175 38.48 27.54C38.036 27.4091 37.6265 27.1816 37.2807 26.8739C36.935 26.5662 36.6615 26.1858 36.48 25.76L35.94 24.22C35.94 23.92 35.94 23.14 35.84 22.98C35.7831 22.7412 35.6532 22.526 35.4683 22.3644C35.2834 22.2029 35.0527 22.1031 34.8084 22.0789C34.564 22.0547 34.3182 22.1073 34.1052 22.2294C33.8922 22.3515 33.7226 22.537 33.62 22.76C32.34 25.58 32.66 27.28 29.34 28.08C29.1592 28.1187 29.0002 28.2254 28.896 28.3781C28.7917 28.5307 28.7502 28.7176 28.78 28.9C28.78 28.9 29.22 30 29.6 30.14ZM32.84 28.14C33.298 27.7505 33.6839 27.2834 33.98 26.76C34.3823 27.7019 35.0067 28.5322 35.8 29.18C32.4 31.18 35 31.6 32.82 30.02C30.64 28.44 30.78 29.84 32.84 28V28.14Z" fill="#04FED1"/>
<path fill-rule="evenodd" clip-rule="evenodd" d="M12.8 9.32001C12.52 10.48 13.92 10.18 16.18 11.6C16.8835 11.9966 17.4871 12.5488 17.9446 13.2143C18.4022 13.8798 18.7016 14.6411 18.82 15.44C19.28 16.48 20.04 17.02 20.92 16.24C21.48 15.72 21.24 14.88 21.36 14.48C21.6038 13.8972 21.9492 13.3622 22.38 12.9C23.42 11.7 26.38 11.38 27.44 9.66001C27.5617 9.44843 27.6334 9.21179 27.6496 8.96821C27.6658 8.72464 27.6261 8.48059 27.5334 8.25474C27.4408 8.0289 27.2977 7.82725 27.1151 7.66523C26.9325 7.50322 26.7152 7.38513 26.48 7.32001C25.9992 7.27746 25.5319 7.13868 25.1059 6.91192C24.6799 6.68515 24.3038 6.37504 24 6.00001C23.3141 5.32669 22.7807 4.51409 22.4357 3.61704C22.0907 2.71999 21.9421 1.75938 22 0.80001C21.9204 0.58357 21.7801 0.394647 21.596 0.25585C21.4118 0.117052 21.1915 0.0342598 20.9615 0.0173798C20.7316 0.000499714 20.5016 0.0502473 20.2991 0.160669C20.0967 0.271091 19.9303 0.43751 19.82 0.64001C17.7 4.50001 18 6.90001 12.66 8.00001C12.5266 8.06105 12.4157 8.16247 12.3431 8.28994C12.2704 8.41741 12.2397 8.56448 12.2551 8.71037C12.2706 8.85627 12.3315 8.99362 12.4293 9.10301C12.5271 9.2124 12.6567 9.28831 12.8 9.32001ZM20.1 4.66001C20.7914 6.52659 22.0684 8.11928 23.74 9.20001C22.0773 9.77313 20.6641 10.9037 19.74 12.4C18.4267 10.7494 16.6178 9.56451 14.58 9.02001C15.7809 8.78553 16.9083 8.26753 17.8685 7.50914C18.8287 6.75074 19.5937 5.77392 20.1 4.66001Z" fill="#04FED1"/>
<path fill-rule="evenodd" clip-rule="evenodd" d="M6.17998 29.52C7.37998 29.32 6.17998 28.4 6.99998 22.48C8.51998 12.48 12.74 12.66 11.4 11.22C11.2504 11.0734 11.0494 10.9913 10.84 10.9913C10.6306 10.9913 10.4295 11.0734 10.28 11.22C4.27998 16.04 3.55998 22.14 5.37998 29C5.42285 29.1718 5.52922 29.3209 5.67766 29.4174C5.82611 29.5139 6.0056 29.5506 6.17998 29.52Z" fill="#04FED1"/>
<path fill-rule="evenodd" clip-rule="evenodd" d="M29.06 6.47998C28.8965 6.51866 28.7523 6.6149 28.6538 6.75111C28.5554 6.88731 28.5092 7.0544 28.5237 7.22183C28.5383 7.38927 28.6126 7.54587 28.7331 7.66304C28.8536 7.78021 29.0122 7.85011 29.18 7.85998C35.18 7.51998 42.12 12.82 43.66 21.24C45.66 31.94 36.04 43.68 23.66 39.24C23.4727 39.1994 23.277 39.2274 23.1086 39.319C22.9402 39.4105 22.8103 39.5595 22.7424 39.7387C22.6746 39.918 22.6734 40.1157 22.739 40.2958C22.8046 40.4758 22.9327 40.6264 23.1 40.72C25.4549 41.782 28.0349 42.2482 30.6125 42.0772C33.1901 41.9063 35.686 41.1036 37.88 39.74C42.2578 36.8618 45.3315 32.3806 46.44 27.26C48.26 15.68 38.26 5.41998 29.06 6.47998Z" fill="#04FED1"/>
</svg>
