<svg width="56" height="56" viewBox="0 0 56 56" fill="none" xmlns="http://www.w3.org/2000/svg">
<g clip-path="url(#clip0_250_2830)">
<path fill-rule="evenodd" clip-rule="evenodd" d="M22.7267 42.6534C21.7735 42.4444 20.8375 42.1636 19.9267 41.8134C19.0344 41.4801 18.1815 41.0497 17.3833 40.5301C15.9955 39.6501 14.8445 38.4434 14.031 37.0157C13.2175 35.5879 12.7662 33.9826 12.7167 32.34C12.6068 29.0319 13.6364 25.7864 15.6333 23.1467C16.9073 21.3771 18.5566 19.9111 20.4633 18.8534C22.3937 17.8308 24.5149 17.2191 26.6933 17.0567C29.5888 16.8894 32.4683 17.5907 34.9627 19.0707C37.457 20.5507 39.4525 22.7419 40.6933 25.3634C41.4331 26.6024 41.9143 27.9784 42.1079 29.4084C42.3015 30.8384 42.2034 32.2928 41.8197 33.6839C41.436 35.075 40.7744 36.3739 39.8751 37.5024C38.9757 38.6309 37.8571 39.5656 36.5867 40.25C36.4814 40.3103 36.3893 40.391 36.3157 40.4874C36.2421 40.5838 36.1886 40.6939 36.1581 40.8113C36.1277 40.9287 36.121 41.051 36.1385 41.171C36.156 41.291 36.1973 41.4062 36.26 41.51C36.318 41.6145 36.3965 41.7061 36.4908 41.7795C36.5851 41.8528 36.6932 41.9064 36.8087 41.9369C36.9242 41.9674 37.0447 41.9742 37.1629 41.957C37.2811 41.9398 37.3947 41.8989 37.4967 41.8367C44.9867 37.73 45.85 30.38 43.0267 24.2434C41.6099 21.1198 39.3064 18.4814 36.4025 16.6561C33.4986 14.8308 30.1224 13.8991 26.6933 13.9767C24.066 14.1494 21.5088 14.8982 19.2033 16.17C16.352 17.7791 14.0239 20.1747 12.4972 23.071C10.9704 25.9672 10.3095 29.2417 10.5933 32.5034C10.7059 34.4525 11.2864 36.3459 12.2855 38.0233C13.2846 39.7007 14.673 41.1128 16.3333 42.14C17.2644 42.6783 18.2499 43.1163 19.2733 43.4467C20.263 43.7872 21.277 44.0524 22.3067 44.24C22.5231 44.2814 22.747 44.2361 22.9304 44.1139C23.1137 43.9917 23.2416 43.8024 23.2867 43.5867C23.3244 43.3895 23.2881 43.1853 23.1848 43.0132C23.0815 42.841 22.9184 42.7129 22.7267 42.6534Z" fill="#04FED1"/>
<path fill-rule="evenodd" clip-rule="evenodd" d="M27.7666 39.2C28.8219 38.9924 29.8059 38.5161 30.6234 37.8172C31.4408 37.1182 32.0642 36.2203 32.4333 35.21C32.4937 35.1052 32.532 34.9891 32.5459 34.8688C32.5598 34.7486 32.5489 34.6268 32.5139 34.511C32.4789 34.3951 32.4206 34.2877 32.3426 34.1952C32.2645 34.1027 32.1683 34.0272 32.06 33.9733C31.9551 33.9129 31.839 33.8746 31.7188 33.8607C31.5986 33.8469 31.4768 33.8577 31.3609 33.8927C31.2451 33.9277 31.1376 33.986 31.0451 34.0641C30.9527 34.1422 30.8772 34.2383 30.8233 34.3467C30.3689 35.0406 29.7171 35.5826 28.9519 35.9029C28.1867 36.2231 27.3432 36.3068 26.53 36.1433C26.0501 36.0875 25.5796 35.9699 25.13 35.7933C23.9212 35.4083 22.8774 34.6275 22.1666 33.5767C22.1282 33.4639 22.0649 33.3613 21.9814 33.2763C21.898 33.1914 21.7964 33.1263 21.6843 33.086C21.5723 33.0456 21.4526 33.031 21.3341 33.0433C21.2156 33.0555 21.1014 33.0943 21 33.1567C20.8022 33.2437 20.647 33.4054 20.5683 33.6066C20.4896 33.8078 20.4938 34.0319 20.58 34.23C21.0658 35.9817 22.1895 37.4882 23.73 38.4533C24.4448 38.8715 25.24 39.1339 26.0633 39.2233C26.629 39.3021 27.2033 39.2942 27.7666 39.2Z" fill="#04FED1"/>
<path fill-rule="evenodd" clip-rule="evenodd" d="M55.7433 29.0267C55.5979 28.408 55.3704 27.8116 55.0666 27.2534C54.5155 26.2727 53.7661 25.4177 52.8662 24.7428C51.9663 24.0678 50.9357 23.5878 49.84 23.3334C49.6615 21.961 49.3807 20.6039 49 19.2734C48.135 16.2882 46.6281 13.5281 44.5846 11.1864C42.5411 8.84466 40.0105 6.97787 37.17 5.71669C34.1655 4.58119 30.9616 4.06806 27.7528 4.20845C24.544 4.34883 21.3971 5.13981 18.5033 6.53336C15.5271 7.75151 12.896 9.68242 10.8412 12.1562C8.78653 14.63 7.37127 17.5709 6.71997 20.72C6.71997 21.28 6.71997 21.84 6.57997 22.4C5.39258 22.6215 4.26955 23.105 3.29271 23.8155C2.31587 24.5259 1.50982 25.4453 0.933304 26.5067C0.62958 27.0649 0.402001 27.6613 0.256637 28.28C-0.125829 29.5746 -0.125829 30.9521 0.256637 32.2467C0.604088 33.2223 1.18928 34.0959 1.95928 34.7885C2.72927 35.4811 3.65978 35.9708 4.66664 36.2134C5.13051 36.3589 5.60706 36.4605 6.08997 36.5167C6.56328 36.5632 7.04 36.5632 7.5133 36.5167C7.72692 36.5093 7.93153 36.4288 8.09291 36.2886C8.2543 36.1485 8.36269 35.9572 8.39997 35.7467C8.49462 35.7922 8.59829 35.8158 8.7033 35.8158C8.80832 35.8158 8.91199 35.7922 9.00664 35.7467C9.14947 35.6822 9.27001 35.5769 9.35306 35.444C9.43612 35.3112 9.47796 35.1567 9.4733 35C8.92687 32.7012 8.58333 30.3589 8.44664 28C8.31664 25.6941 8.4813 23.381 8.93664 21.1167C9.66903 18.4307 11.0342 15.9592 12.9178 13.9092C14.8015 11.8591 17.1488 10.29 19.7633 9.33336C22.296 8.11929 25.0464 7.4256 27.8519 7.29334C30.6575 7.16108 33.461 7.59294 36.0966 8.56336C38.5775 9.60884 40.805 11.1748 42.6285 13.1553C44.4521 15.1358 45.8291 17.4848 46.6666 20.0434C48.4329 25.3722 48.276 31.1515 46.2233 36.3767C46.178 36.4884 46.1553 36.6081 46.1567 36.7287C46.158 36.8492 46.1833 36.9683 46.231 37.0791C46.2788 37.1898 46.3481 37.2899 46.4349 37.3736C46.5217 37.4573 46.6243 37.523 46.7366 37.5667C46.8808 37.6131 47.0358 37.6131 47.18 37.5667C46.5315 38.9241 45.7499 40.2137 44.8466 41.4167C43.9841 42.5859 42.9722 43.637 41.8366 44.5434C40.0905 46.1153 37.8388 47.0094 35.49 47.0634C35.3862 46.8751 35.2192 46.7297 35.0185 46.6528C34.8177 46.5759 34.5963 46.5726 34.3933 46.6434C34.1646 46.7366 33.9822 46.9166 33.886 47.144C33.7898 47.3714 33.7876 47.6277 33.88 47.8567C33.88 48.16 33.88 48.37 33.5766 48.58C33.2033 48.8642 32.7597 49.0417 32.2933 49.0934C31.6418 49.2174 30.9701 49.1855 30.3333 49C29.6874 48.8419 29.0828 48.5475 28.56 48.1367C28.1633 47.8567 27.86 47.67 28 47.39C28.1756 47.0496 28.4529 46.7723 28.7933 46.5967L30.38 46.0834C30.8274 46.0098 31.2799 45.9708 31.7333 45.9667H33.18C33.3872 46.0004 33.5994 45.9506 33.77 45.8281C33.9406 45.7056 34.0556 45.5205 34.09 45.3134C34.1102 45.2076 34.1094 45.0989 34.0875 44.9935C34.0656 44.8881 34.023 44.788 33.9623 44.6991C33.9016 44.6102 33.8239 44.5342 33.7337 44.4754C33.6434 44.4166 33.5425 44.3763 33.4366 44.3567L30.3333 43.8434C29.9374 43.8084 29.5392 43.8084 29.1433 43.8434C28.7238 43.8758 28.3091 43.954 27.9066 44.0767C27.2453 44.2418 26.6369 44.5727 26.1389 45.0381C25.6408 45.5035 25.2695 46.0881 25.06 46.7367C24.9067 47.4751 24.9912 48.2432 25.3014 48.9306C25.6116 49.6181 26.1315 50.1897 26.7866 50.5634C27.7206 51.1799 28.7812 51.5786 29.89 51.73C30.9488 51.8372 32.0181 51.7015 33.0166 51.3334C33.9722 50.9734 34.7891 50.3199 35.35 49.4667C35.452 49.2502 35.5302 49.0233 35.5833 48.79C38.0017 49.1117 40.4591 48.6366 42.5833 47.4367C44.5171 46.312 46.1253 44.7038 47.25 42.77C48.2704 41.096 48.9891 39.2559 49.3733 37.3334H50.0266C50.5081 37.2579 50.9837 37.1487 51.45 37.0067C52.4226 36.7371 53.3151 36.2352 54.0508 35.5442C54.7865 34.8532 55.3433 33.9939 55.6733 33.04C56.0963 31.7391 56.1206 30.3415 55.7433 29.0267ZM6.36997 34.5334C6.03549 34.4213 5.7082 34.2889 5.38997 34.1367C4.84454 33.8704 4.36618 33.4846 3.99048 33.0079C3.61478 32.5312 3.35141 31.9759 3.21997 31.3834C3.06347 30.6135 3.06347 29.8199 3.21997 29.05C3.38215 28.0926 3.74711 27.1809 4.29038 26.3761C4.83365 25.5712 5.54269 24.8918 6.36997 24.3834C6.34677 25.6605 6.39351 26.938 6.50997 28.21C6.74321 30.5076 7.18049 32.7799 7.81664 35C7.67664 35 7.5833 34.8367 7.41997 34.8367L6.36997 34.5334ZM50.7033 34.86C47.18 36.5634 50.47 32.6667 50.0733 25.2467C51.5472 26.3212 52.5434 27.9286 52.85 29.7267C53.0034 30.4969 53.0034 31.2898 52.85 32.06C52.7192 32.6685 52.4488 33.2382 52.0601 33.7241C51.6713 34.21 51.1749 34.5989 50.61 34.86H50.7033Z" fill="#04FED1"/>
<path fill-rule="evenodd" clip-rule="evenodd" d="M20.6033 24.5233C20.1813 24.5116 19.7611 24.5829 19.3666 24.7333C18.4804 25.0818 17.6832 25.6239 17.0333 26.32C16.8516 26.4352 16.7227 26.6175 16.6747 26.8272C16.6266 27.0369 16.6633 27.2571 16.7766 27.44C17.1033 28.0233 21.4433 27.44 22.2833 27.44C22.6554 27.4547 23.024 27.5174 23.38 27.6267C23.592 27.7504 23.8434 27.7879 24.0823 27.7314C24.3211 27.675 24.5292 27.5289 24.6633 27.3233C24.7858 27.1149 24.8226 26.8671 24.766 26.6321C24.7094 26.3971 24.5639 26.1932 24.36 26.0633C23.6619 25.3678 22.7926 24.8688 21.84 24.6167C21.4361 24.5155 21.0178 24.4839 20.6033 24.5233Z" fill="#04FED1"/>
<path fill-rule="evenodd" clip-rule="evenodd" d="M37.52 27.44C37.6313 27.2543 37.6643 27.0321 37.6118 26.8221C37.5593 26.612 37.4256 26.4315 37.24 26.32C36.5966 25.6164 35.7975 25.073 34.9067 24.7333C34.5122 24.583 34.092 24.5116 33.67 24.5233C33.2451 24.4992 32.8192 24.5465 32.41 24.6633C31.4594 24.9205 30.5914 25.4188 29.89 26.11C29.69 26.2435 29.5492 26.4491 29.4971 26.6838C29.4449 26.9185 29.4854 27.1644 29.61 27.37C29.7401 27.5802 29.9483 27.7302 30.1889 27.7871C30.4295 27.844 30.6829 27.8031 30.8933 27.6733C31.2493 27.5641 31.6179 27.5013 31.99 27.4867C34.6267 27.2767 37.03 28.28 37.52 27.44Z" fill="#04FED1"/>
</g>
<defs>
<clipPath id="clip0_250_2830">
<rect width="56" height="56" fill="white"/>
</clipPath>
</defs>
</svg>
