<svg width="574" height="103" viewBox="0 0 574 103" fill="none" xmlns="http://www.w3.org/2000/svg">
<path d="M142.065 83.506C135.606 83.506 130.157 82.4947 125.721 80.472C121.284 78.3842 117.924 75.5785 115.64 72.0552C113.356 68.4667 112.215 64.3561 112.215 59.7236H127.776C127.776 61.5505 128.265 63.2469 129.244 64.8128C130.288 66.3788 131.854 67.6511 133.942 68.6298C136.03 69.5432 138.737 70 142.065 70C145.066 70 147.578 69.6085 149.601 68.8255C151.624 68.0426 153.157 66.966 154.201 65.5958C155.245 64.1604 155.767 62.5292 155.767 60.7023C155.767 58.4187 154.788 56.6244 152.831 55.3195C150.873 53.9493 147.709 53.0684 143.337 52.677L137.954 52.1876C130.843 51.6004 125.166 49.382 120.925 45.5325C116.684 41.6829 114.563 36.5937 114.563 30.2647C114.563 25.6975 115.64 21.75 117.793 18.4225C120.012 15.0949 123.078 12.5503 126.993 10.7886C130.908 8.96169 135.54 8.04824 140.89 8.04824C146.502 8.04824 151.297 9.02694 155.277 10.9843C159.323 12.8765 162.422 15.5842 164.575 19.1075C166.728 22.5656 167.805 26.6435 167.805 31.3413H152.146C152.146 29.5796 151.721 27.9811 150.873 26.5457C150.025 25.045 148.753 23.8379 147.056 22.9245C145.425 22.011 143.37 21.5543 140.89 21.5543C138.542 21.5543 136.552 21.9458 134.92 22.7287C133.355 23.5117 132.18 24.5883 131.397 25.9585C130.614 27.2634 130.223 28.6988 130.223 30.2647C130.223 32.2874 130.94 34.049 132.376 35.5497C133.811 37.0504 136.16 37.9312 139.422 38.1922L144.903 38.6816C150.123 39.1383 154.723 40.2801 158.703 42.107C162.683 43.8687 165.782 46.3154 168 49.4473C170.284 52.5138 171.426 56.2655 171.426 60.7023C171.426 65.2696 170.219 69.2822 167.805 72.7403C165.456 76.1331 162.096 78.7756 157.724 80.6678C153.353 82.5599 148.133 83.506 142.065 83.506ZM205.973 82.3316C200.558 82.3316 196.186 81.6791 192.859 80.3742C189.531 79.004 187.084 76.753 185.518 73.6211C184.018 70.4241 183.267 66.1178 183.267 60.7023V13.529H197.85V61.2895C197.85 63.8341 198.503 65.7915 199.807 67.1617C201.178 68.4667 203.102 69.1191 205.582 69.1191H213.509V82.3316H205.973ZM175.144 39.4645V28.0137H213.509V39.4645H175.144ZM256.243 81.6465V65.7915H253.601V48.5664C253.601 45.8261 252.948 43.7708 251.643 42.4006C250.338 41.0304 248.251 40.3453 245.38 40.3453C243.944 40.3453 242.052 40.378 239.703 40.4432C237.354 40.5085 234.94 40.6063 232.461 40.7368C229.982 40.8673 227.73 40.9978 225.708 41.1283V27.9159C227.209 27.7854 228.97 27.6549 230.993 27.5244C233.015 27.3939 235.103 27.296 237.257 27.2308C239.41 27.1655 241.432 27.1329 243.324 27.1329C248.805 27.1329 253.405 27.9158 257.124 29.4818C260.908 31.0477 263.779 33.4292 265.737 36.6263C267.694 39.7581 268.673 43.8034 268.673 48.7622V81.6465H256.243ZM239.116 83.0167C235.266 83.0167 231.874 82.3316 228.938 80.9614C226.067 79.5912 223.816 77.6338 222.185 75.0892C220.553 72.4793 219.738 69.3801 219.738 65.7915C219.738 61.8767 220.749 58.6797 222.772 56.2003C224.794 53.6557 227.633 51.7961 231.286 50.6217C234.94 49.382 239.149 48.7622 243.912 48.7622H255.362V57.4726H243.814C241.073 57.4726 238.953 58.1577 237.452 59.5279C236.017 60.8328 235.299 62.6271 235.299 64.9107C235.299 67.0639 236.017 68.8255 237.452 70.1957C238.953 71.5006 241.073 72.1531 243.814 72.1531C245.575 72.1531 247.141 71.8595 248.512 71.2723C249.947 70.6198 251.121 69.5432 252.035 68.0426C252.948 66.5419 253.47 64.454 253.601 61.7789L257.32 65.6937C256.994 69.4127 256.08 72.5446 254.58 75.0892C253.144 77.6338 251.121 79.5912 248.512 80.9614C245.967 82.3316 242.835 83.0167 239.116 83.0167ZM281.959 81.6465V28.0137H294.388V51.0132H294.095C294.095 43.4446 295.693 37.605 298.89 33.4944C302.152 29.3839 306.85 27.3286 312.983 27.3286H315.039V40.8347H311.124C306.818 40.8347 303.49 42.0091 301.141 44.358C298.792 46.6416 297.618 49.9692 297.618 54.3408V81.6465H281.959ZM360.93 81.6465L343.998 56.5918H336.462L358.287 28.0137H374.729L354.177 54.6344L354.373 47.0005L378.546 81.6465H360.93ZM323.152 81.6465V10.2014H338.811V81.6465H323.152ZM385.866 81.6465V10.2014H401.623V81.6465H385.866ZM379.504 21.75V10.2014H401.623V21.75H379.504ZM415.465 102.884V89.574H426.622C428.318 89.574 429.754 89.3456 430.928 88.8889C432.103 88.4974 433.049 87.8123 433.767 86.8336C434.484 85.8549 435.071 84.5173 435.528 82.8209L448.741 28.0137H463.617L448.643 85.9528C447.599 90.1286 446.131 93.4561 444.239 95.9355C442.412 98.4149 439.932 100.177 436.8 101.22C433.734 102.33 429.819 102.884 425.056 102.884H415.465ZM432.298 80.472V68.2383H443.651V80.472H432.298ZM425.839 80.472L409.397 28.0137H425.154L440.715 80.472H425.839ZM465.996 81.6465L489.583 10.2014H515.519L539.986 81.6465H523.348L503.578 21.2607L508.668 23.316H496.042L501.327 21.2607L482.047 81.6465H465.996ZM483.907 63.932L488.8 50.6217H516.791L521.782 63.932H483.907ZM549.502 81.6465V10.2014H565.552V81.6465H549.502Z" fill="url(#paint0_linear_270_621)"/>
<path fill-rule="evenodd" clip-rule="evenodd" d="M24.957 48.0121C29.9686 50.0412 35.3782 51.2928 41.0363 51.617C42.012 51.6729 42.9952 51.7013 43.985 51.7013C44.9748 51.7013 45.958 51.6729 46.9337 51.617C52.5931 51.2927 58.0039 50.0406 63.0165 48.0107C73.5358 43.7506 82.3011 36.0644 87.9287 26.336C79.1572 11.1726 62.7625 0.970703 43.985 0.970703C25.2075 0.970703 8.81282 11.1726 0.0412674 26.336C5.66947 36.0655 14.4362 43.7523 24.957 48.0121Z" fill="white"/>
<path d="M63.0165 51.9592C64.2284 51.4684 65.417 50.9321 66.5801 50.3525C70.3604 53.0155 73.5561 56.3321 75.9624 60.1161C71.8723 66.5478 65.5016 71.6294 57.8562 74.4459C54.213 75.7879 50.2804 76.6157 46.1672 76.8301H41.8809C37.7686 76.6158 30.5408 80.6898 41.0363 90.9707C33.3897 88.1545 16.1763 66.5486 12.0857 60.1161C14.4852 56.3429 17.6695 53.0344 21.4357 50.3753C22.5854 50.9467 23.7599 51.4759 24.957 51.9606C29.9686 53.9897 35.3783 55.2412 41.0363 55.5655C42.0121 55.6214 42.9952 55.6498 43.985 55.6498C44.9748 55.6498 45.958 55.6214 46.9338 55.5655C52.5931 55.2412 58.0039 53.9891 63.0165 51.9592Z" fill="white"/>
<rect width="42.4721" height="15.1686" rx="7.58431" transform="matrix(-1 0 0 1 65.1749 19.8467)" fill="#162550"/>
<ellipse cx="2.78091" cy="2.78091" rx="2.78091" ry="2.78091" transform="matrix(-1 0 0 1 35.0065 24.5659)" fill="#04FED1"/>
<ellipse cx="2.78091" cy="2.78091" rx="2.78091" ry="2.78091" transform="matrix(-1 0 0 1 46.8036 61.9824)" fill="#162550"/>
<ellipse cx="2.78091" cy="2.78091" rx="2.78091" ry="2.78091" transform="matrix(-1 0 0 1 57.9272 24.5659)" fill="#04FED1"/>
<ellipse cx="2.78091" cy="2.78091" rx="2.78091" ry="2.78091" transform="matrix(-1 0 0 1 57.9272 61.9824)" fill="#162550"/>
<ellipse cx="2.78091" cy="2.78091" rx="2.78091" ry="2.78091" transform="matrix(-1 0 0 1 35.6799 61.9824)" fill="#162550"/>
<defs>
<linearGradient id="paint0_linear_270_621" x1="341.479" y1="10.6465" x2="341.479" y2="81.6465" gradientUnits="userSpaceOnUse">
<stop stop-color="#01FFD1"/>
<stop offset="1" stop-color="#44E4E6"/>
</linearGradient>
</defs>
</svg>
