<svg width="66" height="51" viewBox="0 0 66 51" fill="none" xmlns="http://www.w3.org/2000/svg">
<path d="M0.00203778 50.92V0.0125397C1.3314 0.0125397 2.58583 -0.0104499 3.83568 0.0293086C4.12061 0.0376681 4.41983 0.228204 4.67775 0.391571C13.7126 6.07001 22.7455 11.7485 31.7635 17.4542C32.4292 17.875 32.8854 17.9337 33.6036 17.4814C42.4463 11.893 51.3426 6.38828 60.1618 0.76632C61.8582 -0.316183 63.5602 0.157046 65.3631 0V50.9093H54.513V19.1628C54.0833 19.3805 53.8112 19.4936 53.5665 19.6464C46.9605 23.7481 40.3483 27.8396 33.7652 31.9771C33.0363 32.4333 32.5383 32.4379 31.8155 31.9852C25.2518 27.8814 18.6641 23.8174 12.0795 19.7448C11.7629 19.5501 11.428 19.3847 10.9718 19.1334V50.92H0H0.00203778Z" fill="#CCFF00"/>
<path d="M18.5386 30.6095C20.4297 31.7839 22.1108 32.8247 23.7878 33.8697C26.4511 35.5278 29.1338 37.161 31.7635 38.8716C32.4944 39.3446 33.0052 39.286 33.7045 38.84C37.7038 36.2919 41.7322 33.7896 45.7524 31.2752C46.0347 31.0993 46.3345 30.9464 46.7866 30.6931C46.7866 33.1535 46.8034 35.4422 46.7616 37.7283C46.7575 37.9566 46.4476 38.2477 46.2106 38.3965C41.8851 41.0807 37.5529 43.7543 33.2019 46.3967C32.9527 46.5496 32.448 46.5475 32.1988 46.3967C27.8146 43.742 23.4468 41.0578 19.0917 38.3568C18.8404 38.1993 18.5682 37.8353 18.5641 37.5611C18.5218 35.3372 18.5407 33.1117 18.5407 30.6156L18.5386 30.6095Z" fill="#154406"/>
</svg>
