<svg width="350" height="100" viewBox="0 0 350 100" fill="none" xmlns="http://www.w3.org/2000/svg">
<rect width="350" height="100" fill="white"/>
<path d="M19.4365 74.92V24.0125C20.7658 24.0125 22.0203 23.9896 23.2701 24.0293C23.5551 24.0377 23.8543 24.2282 24.1122 24.3916C33.1471 30.07 42.1799 35.7485 51.198 41.4542C51.8637 41.875 52.3199 41.9337 53.0381 41.4814C61.8808 35.893 70.777 30.3883 79.5963 24.7663C81.2926 23.6838 82.9946 24.157 84.7975 24V74.9093H73.9475V43.1628C73.5178 43.3805 73.2456 43.4936 73.0009 43.6464C66.3949 47.7481 59.7827 51.8396 53.1996 55.9771C52.4707 56.4333 51.9727 56.4379 51.2499 55.9852C44.6862 51.8814 38.0985 47.8174 31.5139 43.7448C31.1974 43.5501 30.8625 43.3847 30.4063 43.1334V74.92H19.4344H19.4365Z" fill="#CCFF00"/>
<path d="M37.9731 54.6095C39.8642 55.7839 41.5453 56.8247 43.2222 57.8697C45.8856 59.5278 48.5682 61.161 51.1979 62.8716C51.9289 63.3446 52.4396 63.286 53.1389 62.84C57.1383 60.2919 61.1666 57.7896 65.1868 55.2752C65.4692 55.0993 65.7689 54.9464 66.221 54.6931C66.221 57.1535 66.2379 59.4422 66.1961 61.7283C66.192 61.9566 65.8821 62.2477 65.6451 62.3965C61.3195 65.0807 56.9874 67.7543 52.6364 70.3967C52.3871 70.5496 51.8825 70.5475 51.6332 70.3967C47.2491 67.742 42.8812 65.0578 38.5262 62.3568C38.2749 62.1993 38.0027 61.8353 37.9986 61.5611C37.9563 59.3372 37.9751 57.1117 37.9751 54.6156L37.9731 54.6095Z" fill="#154406"/>
<path d="M120.429 52.6804H116.586V36.0287L116.245 35.9884C115.222 39.7568 114.195 43.5218 113.179 47.2943C112.797 48.7058 112.355 50.1066 112.102 51.5386C111.862 52.9098 110.94 52.8013 109.974 52.7815C109.052 52.761 108.174 53.0043 107.817 51.6027C106.631 46.9802 105.284 42.3972 103.994 37.7986C103.862 37.3325 103.723 36.8664 103.312 36.434V52.6533H99.4824V29.079C101.201 29.079 102.822 28.9984 104.426 29.1398C104.808 29.1735 105.301 29.8961 105.439 30.3893C106.8 35.1442 108.094 39.9154 109.414 44.6801C109.572 45.2547 109.768 45.8146 110.099 46.8651C111.636 40.6586 113.054 34.9214 114.479 29.1538H120.429V52.6804Z" fill="black"/>
<path d="M185.572 29.0831V52.6295H181.737V35.7993C181.618 35.7829 181.5 35.7624 181.382 35.7459C181.166 36.4718 180.929 37.1944 180.737 37.9236C179.558 42.3775 178.36 46.8282 177.242 51.2961C176.961 52.41 176.512 52.9336 175.3 52.7922C174.24 52.6673 173.207 53.0726 172.791 51.3873C171.633 46.6999 170.221 42.0775 168.904 37.427C168.787 37.0086 168.641 36.5935 168.26 36.2046V52.6739H164.548V29.1036C166.233 29.1036 167.858 29.0091 169.455 29.1678C169.87 29.208 170.404 29.9816 170.556 30.5118C171.943 35.4319 173.257 40.375 174.598 45.309C174.726 45.7817 174.899 46.2412 175.141 46.9802C176.466 41.5809 177.799 36.4751 178.941 31.3249C179.322 29.5993 179.933 28.7756 181.811 29.0527C183.006 29.2286 184.252 29.0864 185.583 29.0864L185.572 29.0831Z" fill="black"/>
<path d="M251.425 52.7232H247.335C247.041 51.5082 246.849 50.2891 246.423 49.1546C246.247 48.6885 245.589 48.3811 245.113 48.0605C244.958 47.9552 244.674 48.0399 244.448 48.0432C243.101 48.0605 241.422 47.6009 240.5 48.2355C239.646 48.8233 239.656 50.6097 239.163 51.8148C239.001 52.2135 238.481 52.6591 238.069 52.7232C237.198 52.8621 236.286 52.7676 235.084 52.7676C236.907 44.8322 238.693 37.0481 240.5 29.1735H246.143C247.878 36.9231 249.628 44.7237 251.421 52.7199L251.425 52.7232ZM245.525 44.5889C244.765 40.9586 244.052 37.5512 243.341 34.1445C243.205 34.1445 243.07 34.1446 242.935 34.1478C242.229 37.5956 241.524 41.0433 240.797 44.5856H245.525V44.5889Z" fill="black"/>
<path d="M157.298 51.8995C155.846 45.6049 154.37 39.317 152.935 33.0191C152.033 29.0551 152.057 29.0889 147.957 29.0823C146.921 29.0823 146.462 29.3922 146.252 30.4025C145.77 32.7117 145.192 34.9978 144.648 37.2947C143.446 42.3734 142.244 47.4488 140.991 52.7265C141.659 52.7635 142.048 52.7972 142.433 52.8046C144.085 52.8292 145.094 52.0409 145.459 50.4403C145.641 49.6405 145.82 48.8365 145.989 48.0835H152.179C152.553 49.5525 152.502 51.315 153.357 52.156C154.154 52.9394 155.913 52.747 157.382 53.0068C157.332 52.3352 157.342 52.1083 157.294 51.8962L157.298 51.8995ZM150.24 44.565C149.184 44.5782 148.127 44.5683 146.715 44.5683C147.495 40.9619 148.231 37.5643 148.968 34.1676C149.069 34.1643 149.167 34.161 149.268 34.1577C150.001 37.5175 150.733 40.8772 151.51 44.4434C150.892 44.5042 150.568 44.5617 150.237 44.565H150.24Z" fill="black"/>
<path d="M223.106 46.7632C224.207 41.4856 225.365 36.2178 226.371 30.9229C226.645 29.481 227.158 28.8455 228.644 29.0724C229.292 29.1702 229.971 29.0888 230.808 29.0888C228.988 37.0546 227.216 44.8182 225.399 52.7741C223.866 52.7741 222.305 52.8144 220.748 52.7404C220.434 52.7265 219.939 52.3179 219.875 52.0146C218.253 44.5478 216.676 37.0719 215.096 29.5952C215.075 29.4941 215.13 29.3757 215.177 29.0856C216.147 29.0856 217.145 29.1324 218.142 29.0724C219.053 29.0149 219.394 29.3593 219.561 30.271C220.509 35.4681 221.532 40.6512 222.535 45.8417C222.596 46.1524 222.701 46.4525 222.785 46.7566C222.893 46.7599 223.001 46.7632 223.106 46.7665V46.7632Z" fill="black"/>
<path d="M296.184 52.7109V29.1637H307.923V32.419H300.278V38.9125H305.444V42.0832H300.18V49.4991H307.872V52.7076H296.188L296.184 52.7109Z" fill="black"/>
<path d="M329.993 29.0987C328.417 33.5025 327.018 37.7032 325.405 41.816C324.54 44.0142 324.135 46.1993 324.287 48.5356C324.371 49.8665 324.304 51.2106 324.304 52.659H320.177C320.129 52.382 320.039 52.1625 320.062 51.9603C320.781 46.034 318.627 40.7087 316.635 35.3423C315.895 33.3537 315.233 31.338 314.447 29.0781C315.662 29.0781 316.651 29.1431 317.635 29.0617C318.661 28.9737 319.104 29.3692 319.376 30.3614C320.262 33.6003 321.251 36.8113 322.342 40.5122C323.372 37.2166 324.243 34.387 325.141 31.5673C326.076 28.6326 325.378 29.1628 328.528 29.0987C328.917 29.0921 329.305 29.0987 330 29.0987H329.993Z" fill="black"/>
<path d="M277.274 29.1866H281.205V49.4916H288.945V52.6821H277.277V29.1866H277.274Z" fill="black"/>
<path d="M258.458 29.1866H262.449C262.449 29.9257 262.449 30.5809 262.449 31.236C262.463 36.8581 262.507 42.4778 262.467 48.0999C262.459 49.2787 262.824 49.6766 264.003 49.6297C266.009 49.5483 268.025 49.6059 270.149 49.6059V52.696H258.458V29.1866Z" fill="black"/>
<path d="M129.674 29.1801H133.585V52.6418H129.674V29.1801Z" fill="black"/>
<path d="M194.686 29.1801H198.485V52.6722H194.686V29.1801Z" fill="black"/>
<path d="M291.538 70.779V68.8537C304.357 69.1307 317.128 69.4078 329.899 69.6848C329.899 69.7456 329.899 69.8065 329.899 69.8673C317.162 70.1674 304.424 70.4715 291.538 70.7757V70.779Z" fill="black"/>
<path d="M137.577 68.8751V70.7387C124.651 70.4387 111.825 70.1411 99 69.841C99 69.7736 99 69.7095 99 69.6413C111.795 69.3881 124.593 69.1316 137.577 68.8718V68.8751Z" fill="black"/>
<path d="M155.828 73.0126V66.1072H157.11V71.8288H160.296V73.0126H155.828ZM164.051 73.0126L166.744 66.1072H167.947L170.621 73.0126H169.289L167.809 69.0864C167.776 69.0075 167.73 68.8825 167.671 68.7115C167.619 68.5405 167.559 68.3564 167.494 68.1591C167.428 67.9552 167.369 67.7678 167.316 67.5968C167.263 67.4192 167.224 67.291 167.198 67.2121L167.444 67.2022C167.405 67.3337 167.359 67.4817 167.306 67.6461C167.254 67.8105 167.198 67.9815 167.138 68.1591C167.079 68.3366 167.02 68.5076 166.961 68.6721C166.908 68.8365 166.859 68.9844 166.813 69.116L165.333 73.0126H164.051ZM165.274 71.4342L165.718 70.3195H168.865L169.338 71.4342H165.274ZM174.766 73.0126V66.1072H175.921L179.926 71.5032L179.709 71.5427C179.682 71.3586 179.659 71.1711 179.64 70.9804C179.62 70.7831 179.6 70.5792 179.58 70.3688C179.567 70.1583 179.554 69.938 179.541 69.7078C179.534 69.4777 179.528 69.2376 179.521 68.9877C179.515 68.7312 179.511 68.4616 179.511 68.1788V66.1072H180.784V73.0126H179.61L175.585 67.6954L175.842 67.6264C175.874 67.9947 175.901 68.3103 175.921 68.5734C175.947 68.8299 175.967 69.0535 175.98 69.2442C175.993 69.4284 176.003 69.5829 176.009 69.7078C176.022 69.8328 176.029 69.9479 176.029 70.0531C176.036 70.1518 176.039 70.2471 176.039 70.3392V73.0126H174.766ZM185.695 73.0126V66.1072H188.467C188.967 66.1072 189.417 66.1894 189.818 66.3538C190.226 66.5182 190.575 66.755 190.864 67.0641C191.16 67.3732 191.384 67.7382 191.535 68.1591C191.693 68.58 191.772 69.0469 191.772 69.5599C191.772 70.0729 191.693 70.5431 191.535 70.9705C191.384 71.3914 191.163 71.7564 190.874 72.0655C190.584 72.3681 190.236 72.6015 189.828 72.7659C189.42 72.9303 188.967 73.0126 188.467 73.0126H185.695ZM186.977 72.0162L186.879 71.8288H188.418C188.74 71.8288 189.026 71.7762 189.276 71.6709C189.532 71.5657 189.749 71.4145 189.927 71.2172C190.104 71.0199 190.239 70.7831 190.331 70.5069C190.423 70.2241 190.469 69.9084 190.469 69.5599C190.469 69.2113 190.423 68.8989 190.331 68.6227C190.239 68.3399 190.101 68.0999 189.917 67.9026C189.739 67.7053 189.526 67.554 189.276 67.4488C189.026 67.3436 188.74 67.291 188.418 67.291H186.849L186.977 67.1233V72.0162ZM205.106 73.1112C204.606 73.1112 204.149 73.0257 203.735 72.8547C203.321 72.6837 202.962 72.4404 202.66 72.1247C202.357 71.8025 202.121 71.4243 201.95 70.9903C201.785 70.5496 201.703 70.0696 201.703 69.55C201.703 69.0502 201.792 68.5866 201.969 68.1591C202.147 67.7316 202.393 67.3567 202.709 67.0345C203.025 66.7122 203.393 66.4623 203.814 66.2848C204.235 66.1072 204.692 66.0184 205.185 66.0184C205.521 66.0184 205.846 66.0678 206.162 66.1664C206.477 66.265 206.767 66.4032 207.03 66.5807C207.293 66.7517 207.513 66.9523 207.691 67.1825L206.872 68.0802C206.701 67.9026 206.524 67.7546 206.339 67.6363C206.162 67.5113 205.974 67.4192 205.777 67.36C205.586 67.2943 205.389 67.2614 205.185 67.2614C204.883 67.2614 204.597 67.3173 204.327 67.4291C204.064 67.5409 203.834 67.6987 203.636 67.9026C203.446 68.1065 203.294 68.3498 203.183 68.6326C203.071 68.9088 203.015 69.2179 203.015 69.5599C203.015 69.9084 203.068 70.2241 203.173 70.5069C203.285 70.7897 203.439 71.033 203.636 71.2369C203.84 71.4408 204.08 71.5986 204.357 71.7104C204.639 71.8156 204.948 71.8682 205.284 71.8682C205.501 71.8682 205.711 71.8386 205.915 71.7795C206.119 71.7203 206.306 71.6381 206.477 71.5328C206.655 71.421 206.816 71.2928 206.961 71.1481L207.592 72.1642C207.434 72.3417 207.224 72.5029 206.961 72.6476C206.698 72.7922 206.402 72.9073 206.073 72.9928C205.751 73.0717 205.429 73.1112 205.106 73.1112ZM211.978 73.0126V66.1072H213.26V71.8288H216.447V73.0126H211.978ZM220.97 73.0126V66.1072H225.489V67.2713H222.233V71.8485H225.528V73.0126H220.97ZM221.562 70.0531V68.9088H224.985V70.0531H221.562ZM229.425 73.0126L232.118 66.1072H233.321L235.995 73.0126H234.663L233.183 69.0864C233.15 69.0075 233.104 68.8825 233.045 68.7115C232.992 68.5405 232.933 68.3564 232.867 68.1591C232.802 67.9552 232.742 67.7678 232.69 67.5968C232.637 67.4192 232.598 67.291 232.571 67.2121L232.818 67.2022C232.779 67.3337 232.733 67.4817 232.68 67.6461C232.627 67.8105 232.571 67.9815 232.512 68.1591C232.453 68.3366 232.394 68.5076 232.335 68.6721C232.282 68.8365 232.233 68.9844 232.187 69.116L230.707 73.0126H229.425ZM230.648 71.4342L231.092 70.3195H234.239L234.712 71.4342H230.648ZM240.14 73.0126V66.1072H243.139C243.553 66.1072 243.932 66.2059 244.273 66.4032C244.615 66.5939 244.885 66.8569 245.082 67.1923C245.286 67.5212 245.388 67.8927 245.388 68.3071C245.388 68.7016 245.286 69.0666 245.082 69.402C244.885 69.7309 244.615 69.9939 244.273 70.1912C243.938 70.3819 243.56 70.4773 243.139 70.4773H241.393V73.0126H240.14ZM244.145 73.0126L242.389 69.8953L243.711 69.6487L245.664 73.0224L244.145 73.0126ZM241.393 69.3626H243.149C243.34 69.3626 243.504 69.3198 243.642 69.2343C243.787 69.1423 243.899 69.0173 243.978 68.8595C244.056 68.7016 244.096 68.5274 244.096 68.3366C244.096 68.1196 244.047 67.9322 243.948 67.7744C243.849 67.6165 243.711 67.4916 243.534 67.3995C243.356 67.3074 243.152 67.2614 242.922 67.2614H241.393V69.3626ZM249.869 73.0126V71.8781H251.004V67.2417H249.869V66.1072H253.421V67.2417H252.286V71.8781H253.421V73.0126H249.869ZM258.115 73.0126V66.1072H259.27L263.275 71.5032L263.058 71.5427C263.031 71.3586 263.008 71.1711 262.989 70.9804C262.969 70.7831 262.949 70.5792 262.929 70.3688C262.916 70.1583 262.903 69.938 262.89 69.7078C262.883 69.4777 262.877 69.2376 262.87 68.9877C262.864 68.7312 262.86 68.4616 262.86 68.1788V66.1072H264.133V73.0126H262.959L258.934 67.6954L259.191 67.6264C259.224 67.9947 259.25 68.3103 259.27 68.5734C259.296 68.8299 259.316 69.0535 259.329 69.2442C259.342 69.4284 259.352 69.5829 259.358 69.7078C259.372 69.8328 259.378 69.9479 259.378 70.0531C259.385 70.1518 259.388 70.2471 259.388 70.3392V73.0126H258.115ZM272.181 73.1112C271.661 73.1112 271.181 73.0224 270.741 72.8449C270.3 72.6607 269.915 72.4075 269.587 72.0853C269.264 71.763 269.014 71.3881 268.837 70.9607C268.659 70.5266 268.57 70.0564 268.57 69.55C268.57 69.0502 268.659 68.5866 268.837 68.1591C269.021 67.725 269.277 67.3502 269.606 67.0345C269.935 66.7122 270.32 66.4623 270.76 66.2848C271.208 66.1072 271.688 66.0184 272.201 66.0184C272.562 66.0184 272.911 66.0678 273.246 66.1664C273.582 66.265 273.884 66.4032 274.154 66.5807C274.424 66.7583 274.647 66.9589 274.825 67.1825L274.016 68.0308C273.832 67.8533 273.641 67.7053 273.444 67.5869C273.253 67.4685 273.052 67.3765 272.842 67.3107C272.631 67.2449 272.414 67.2121 272.191 67.2121C271.862 67.2121 271.556 67.2713 271.273 67.3896C270.997 67.508 270.754 67.6724 270.543 67.8829C270.34 68.0933 270.178 68.3399 270.06 68.6227C269.942 68.9055 269.882 69.2146 269.882 69.55C269.882 69.8723 269.942 70.1781 270.06 70.4674C270.185 70.7568 270.356 71.01 270.573 71.227C270.79 71.4441 271.04 71.615 271.323 71.74C271.612 71.8584 271.918 71.9176 272.24 71.9176C272.483 71.9176 272.71 71.8814 272.921 71.809C273.131 71.7367 273.319 71.6381 273.483 71.5131C273.648 71.3816 273.772 71.2303 273.858 71.0593C273.95 70.8883 273.996 70.7042 273.996 70.5069V70.2899L274.174 70.497H272.132V69.3527H275.259C275.272 69.4251 275.282 69.5073 275.288 69.5993C275.295 69.6848 275.298 69.7703 275.298 69.8558C275.305 69.9347 275.308 70.0038 275.308 70.063C275.308 70.5168 275.229 70.9311 275.071 71.3059C274.913 71.6742 274.69 71.9932 274.401 72.2628C274.118 72.5325 273.786 72.7429 273.404 72.8942C273.029 73.0389 272.622 73.1112 272.181 73.1112Z" fill="black"/>
</svg>
