<svg width="500" height="300" viewBox="0 0 500 300" fill="none" xmlns="http://www.w3.org/2000/svg">
<rect width="500" height="300" fill="black"/>
<path d="M185.261 156.897V57.0246C187.869 57.0246 190.33 56.9795 192.782 57.0575C193.341 57.0739 193.928 57.4477 194.434 57.7682C212.159 68.9084 229.88 80.0487 247.572 91.2424C248.878 92.068 249.773 92.183 251.182 91.2958C268.53 80.3321 285.983 69.5328 303.285 58.5034C306.613 56.3797 309.952 57.3081 313.489 57V156.876H292.203V94.5943C291.36 95.0215 290.826 95.2433 290.346 95.5432C277.386 103.59 264.414 111.617 251.499 119.734C250.069 120.629 249.092 120.638 247.674 119.75C234.797 111.699 221.873 103.726 208.955 95.7362C208.334 95.3542 207.677 95.0297 206.782 94.5368V156.897H185.257H185.261Z" fill="#CCFF00"/>
<path d="M221.627 117.051C225.337 119.355 228.635 121.397 231.925 123.447C237.15 126.7 242.413 129.904 247.572 133.26C249.006 134.188 250.008 134.073 251.38 133.198C259.226 128.199 267.129 123.29 275.016 118.357C275.57 118.012 276.158 117.712 277.045 117.215C277.045 122.042 277.078 126.532 276.996 131.017C276.988 131.465 276.38 132.036 275.915 132.328C267.429 137.594 258.93 142.839 250.394 148.023C249.905 148.323 248.915 148.319 248.426 148.023C239.825 142.815 231.256 137.549 222.712 132.25C222.219 131.941 221.685 131.227 221.677 130.689C221.594 126.326 221.631 121.96 221.631 117.063L221.627 117.051Z" fill="white"/>
<path d="M135.067 214.267H130.393V194.011L129.978 193.962C128.733 198.546 127.484 203.126 126.248 207.715C125.784 209.432 125.246 211.136 124.938 212.878C124.646 214.546 123.525 214.414 122.35 214.39C121.228 214.365 120.16 214.661 119.725 212.956C118.283 207.333 116.644 201.758 115.075 196.164C114.915 195.597 114.746 195.03 114.245 194.504V214.234H109.587V185.557C111.678 185.557 113.649 185.459 115.601 185.631C116.065 185.672 116.665 186.551 116.833 187.151C118.488 192.935 120.062 198.739 121.668 204.535C121.861 205.234 122.099 205.915 122.502 207.193C124.371 199.643 126.096 192.664 127.83 185.648H135.067V214.267Z" fill="white"/>
<path d="M214.311 185.562V214.205H209.645V193.732C209.501 193.712 209.357 193.687 209.214 193.667C208.951 194.55 208.663 195.429 208.429 196.316C206.995 201.734 205.537 207.148 204.177 212.583C203.836 213.938 203.29 214.575 201.815 214.403C200.526 214.251 199.269 214.744 198.763 212.694C197.354 206.992 195.637 201.369 194.035 195.712C193.892 195.203 193.715 194.698 193.251 194.225V214.259H188.736V185.587C190.786 185.587 192.762 185.472 194.705 185.665C195.21 185.714 195.859 186.655 196.044 187.3C197.732 193.285 199.33 199.298 200.961 205.3C201.117 205.875 201.327 206.434 201.622 207.333C203.233 200.765 204.855 194.554 206.244 188.289C206.708 186.19 207.451 185.188 209.735 185.525C211.189 185.739 212.705 185.566 214.324 185.566L214.311 185.562Z" fill="white"/>
<path d="M294.417 214.319H289.442C289.085 212.841 288.851 211.358 288.333 209.978C288.119 209.411 287.318 209.037 286.739 208.647C286.55 208.519 286.205 208.622 285.93 208.626C284.291 208.647 282.249 208.088 281.128 208.86C280.089 209.575 280.101 211.748 279.501 213.214C279.304 213.699 278.671 214.241 278.17 214.319C277.111 214.488 276.001 214.373 274.539 214.373C276.757 204.72 278.93 195.251 281.128 185.672H287.992C290.103 195.099 292.231 204.588 294.412 214.315L294.417 214.319ZM287.24 204.424C286.316 200.008 285.449 195.863 284.583 191.719C284.418 191.719 284.254 191.719 284.09 191.723C283.231 195.917 282.373 200.111 281.489 204.42H287.24V204.424Z" fill="white"/>
<path d="M179.916 213.317C178.15 205.66 176.355 198.011 174.609 190.35C173.512 185.528 173.541 185.569 168.554 185.561C167.293 185.561 166.735 185.938 166.48 187.167C165.893 189.976 165.19 192.757 164.529 195.551C163.066 201.729 161.604 207.903 160.08 214.323C160.893 214.368 161.366 214.409 161.834 214.418C163.844 214.448 165.071 213.489 165.515 211.542C165.736 210.569 165.954 209.591 166.16 208.675H173.689C174.145 210.462 174.083 212.606 175.123 213.629C176.092 214.582 178.232 214.348 180.019 214.664C179.958 213.847 179.97 213.571 179.912 213.313L179.916 213.317ZM171.331 204.395C170.046 204.411 168.76 204.399 167.043 204.399C167.992 200.012 168.887 195.879 169.783 191.747C169.906 191.743 170.025 191.739 170.148 191.735C171.04 195.822 171.931 199.909 172.876 204.247C172.124 204.321 171.73 204.391 171.327 204.395H171.331Z" fill="white"/>
<path d="M259.969 207.069C261.308 200.649 262.717 194.241 263.941 187.8C264.274 186.046 264.898 185.273 266.705 185.549C267.494 185.668 268.32 185.569 269.338 185.569C267.124 195.259 264.968 204.703 262.758 214.381C260.893 214.381 258.995 214.43 257.101 214.34C256.719 214.323 256.116 213.826 256.038 213.457C254.066 204.374 252.147 195.28 250.225 186.185C250.2 186.062 250.266 185.918 250.324 185.565C251.503 185.565 252.718 185.622 253.93 185.549C255.039 185.479 255.454 185.898 255.656 187.007C256.81 193.329 258.054 199.634 259.274 205.948C259.348 206.326 259.476 206.691 259.578 207.061C259.71 207.065 259.841 207.069 259.969 207.073V207.069Z" fill="white"/>
<path d="M348.865 214.304V185.66H363.144V189.62H353.844V197.519H360.129V201.376H353.725V210.397H363.082V214.3H348.869L348.865 214.304Z" fill="white"/>
<path d="M389.992 185.581C388.074 190.938 386.373 196.048 384.41 201.051C383.358 203.725 382.865 206.383 383.05 209.225C383.153 210.844 383.071 212.479 383.071 214.241H378.051C377.993 213.904 377.883 213.637 377.911 213.391C378.786 206.182 376.165 199.704 373.742 193.176C372.842 190.757 372.037 188.305 371.08 185.556C372.559 185.556 373.762 185.635 374.958 185.536C376.207 185.429 376.745 185.91 377.077 187.117C378.154 191.057 379.357 194.963 380.684 199.465C381.937 195.456 382.997 192.014 384.089 188.584C385.227 185.014 384.377 185.659 388.209 185.581C388.682 185.573 389.154 185.581 390 185.581H389.992Z" fill="white"/>
<path d="M325.861 185.688H330.643V210.388H340.058V214.269H325.865V185.688H325.861Z" fill="white"/>
<path d="M302.973 185.688H307.828C307.828 186.587 307.828 187.384 307.828 188.181C307.844 195.02 307.898 201.856 307.849 208.695C307.84 210.129 308.284 210.613 309.718 210.556C312.158 210.457 314.61 210.527 317.194 210.527V214.286H302.973V185.688Z" fill="white"/>
<path d="M146.314 185.68H151.071V214.22H146.314V185.68Z" fill="white"/>
<path d="M225.397 185.68H230.019V214.257H225.397V185.68Z" fill="white"/>
<path d="M343.213 236.283V233.941C358.806 234.278 374.342 234.615 389.877 234.952C389.877 235.026 389.877 235.1 389.877 235.174C374.383 235.539 358.888 235.909 343.213 236.279V236.283Z" fill="white"/>
<path d="M155.927 233.967V236.234C140.203 235.869 124.601 235.507 109 235.142C109 235.06 109 234.982 109 234.899C124.564 234.591 140.133 234.279 155.927 233.963V233.967Z" fill="white"/>
<path d="M178.128 239V230.6H179.688V237.56H183.564V239H178.128ZM188.131 239L191.407 230.6H192.871L196.123 239H194.503L192.703 234.224C192.663 234.128 192.607 233.976 192.535 233.768C192.471 233.56 192.399 233.336 192.319 233.096C192.239 232.848 192.167 232.62 192.103 232.412C192.039 232.196 191.991 232.04 191.959 231.944L192.259 231.932C192.211 232.092 192.155 232.272 192.091 232.472C192.027 232.672 191.959 232.88 191.887 233.096C191.815 233.312 191.743 233.52 191.671 233.72C191.607 233.92 191.547 234.1 191.491 234.26L189.691 239H188.131ZM189.619 237.08L190.159 235.724H193.987L194.563 237.08H189.619ZM201.166 239V230.6H202.57L207.442 237.164L207.178 237.212C207.146 236.988 207.118 236.76 207.094 236.528C207.07 236.288 207.046 236.04 207.022 235.784C207.006 235.528 206.99 235.26 206.974 234.98C206.966 234.7 206.958 234.408 206.95 234.104C206.942 233.792 206.938 233.464 206.938 233.12V230.6H208.486V239H207.058L202.162 232.532L202.474 232.448C202.514 232.896 202.546 233.28 202.57 233.6C202.602 233.912 202.626 234.184 202.642 234.416C202.658 234.64 202.67 234.828 202.678 234.98C202.694 235.132 202.702 235.272 202.702 235.4C202.71 235.52 202.714 235.636 202.714 235.748V239H201.166ZM214.46 239V230.6H217.832C218.44 230.6 218.988 230.7 219.476 230.9C219.972 231.1 220.396 231.388 220.748 231.764C221.108 232.14 221.38 232.584 221.564 233.096C221.756 233.608 221.852 234.176 221.852 234.8C221.852 235.424 221.756 235.996 221.564 236.516C221.38 237.028 221.112 237.472 220.76 237.848C220.408 238.216 219.984 238.5 219.488 238.7C218.992 238.9 218.44 239 217.832 239H214.46ZM216.02 237.788L215.9 237.56H217.772C218.164 237.56 218.512 237.496 218.816 237.368C219.128 237.24 219.392 237.056 219.608 236.816C219.824 236.576 219.988 236.288 220.1 235.952C220.212 235.608 220.268 235.224 220.268 234.8C220.268 234.376 220.212 233.996 220.1 233.66C219.988 233.316 219.82 233.024 219.596 232.784C219.38 232.544 219.12 232.36 218.816 232.232C218.512 232.104 218.164 232.04 217.772 232.04H215.864L216.02 231.836V237.788ZM238.073 239.12C237.465 239.12 236.909 239.016 236.405 238.808C235.901 238.6 235.465 238.304 235.097 237.92C234.729 237.528 234.441 237.068 234.233 236.54C234.033 236.004 233.933 235.42 233.933 234.788C233.933 234.18 234.041 233.616 234.257 233.096C234.473 232.576 234.773 232.12 235.157 231.728C235.541 231.336 235.989 231.032 236.501 230.816C237.013 230.6 237.569 230.492 238.169 230.492C238.577 230.492 238.973 230.552 239.357 230.672C239.741 230.792 240.093 230.96 240.413 231.176C240.733 231.384 241.001 231.628 241.217 231.908L240.221 233C240.013 232.784 239.797 232.604 239.573 232.46C239.357 232.308 239.129 232.196 238.889 232.124C238.657 232.044 238.417 232.004 238.169 232.004C237.801 232.004 237.453 232.072 237.125 232.208C236.805 232.344 236.525 232.536 236.285 232.784C236.053 233.032 235.869 233.328 235.733 233.672C235.597 234.008 235.529 234.384 235.529 234.8C235.529 235.224 235.593 235.608 235.721 235.952C235.857 236.296 236.045 236.592 236.285 236.84C236.533 237.088 236.825 237.28 237.161 237.416C237.505 237.544 237.881 237.608 238.289 237.608C238.553 237.608 238.809 237.572 239.057 237.5C239.305 237.428 239.533 237.328 239.741 237.2C239.957 237.064 240.153 236.908 240.329 236.732L241.097 237.968C240.905 238.184 240.649 238.38 240.329 238.556C240.009 238.732 239.649 238.872 239.249 238.976C238.857 239.072 238.465 239.12 238.073 239.12ZM246.432 239V230.6H247.992V237.56H251.868V239H246.432ZM257.371 239V230.6H262.867V232.016H258.907V237.584H262.915V239H257.371ZM258.091 235.4V234.008H262.255V235.4H258.091ZM267.655 239L270.931 230.6H272.395L275.647 239H274.027L272.227 234.224C272.187 234.128 272.131 233.976 272.059 233.768C271.995 233.56 271.923 233.336 271.843 233.096C271.763 232.848 271.691 232.62 271.627 232.412C271.563 232.196 271.515 232.04 271.483 231.944L271.783 231.932C271.735 232.092 271.679 232.272 271.615 232.472C271.551 232.672 271.483 232.88 271.411 233.096C271.339 233.312 271.267 233.52 271.195 233.72C271.131 233.92 271.071 234.1 271.015 234.26L269.215 239H267.655ZM269.143 237.08L269.683 235.724H273.511L274.087 237.08H269.143ZM280.69 239V230.6H284.338C284.842 230.6 285.302 230.72 285.718 230.96C286.134 231.192 286.462 231.512 286.702 231.92C286.95 232.32 287.074 232.772 287.074 233.276C287.074 233.756 286.95 234.2 286.702 234.608C286.462 235.008 286.134 235.328 285.718 235.568C285.31 235.8 284.85 235.916 284.338 235.916H282.214V239H280.69ZM285.562 239L283.426 235.208L285.034 234.908L287.41 239.012L285.562 239ZM282.214 234.56H284.35C284.582 234.56 284.782 234.508 284.95 234.404C285.126 234.292 285.262 234.14 285.358 233.948C285.454 233.756 285.502 233.544 285.502 233.312C285.502 233.048 285.442 232.82 285.322 232.628C285.202 232.436 285.034 232.284 284.818 232.172C284.602 232.06 284.354 232.004 284.074 232.004H282.214V234.56ZM292.525 239V237.62H293.905V231.98H292.525V230.6H296.845V231.98H295.465V237.62H296.845V239H292.525ZM302.556 239V230.6H303.96L308.832 237.164L308.568 237.212C308.536 236.988 308.508 236.76 308.484 236.528C308.46 236.288 308.436 236.04 308.412 235.784C308.396 235.528 308.38 235.26 308.364 234.98C308.356 234.7 308.348 234.408 308.34 234.104C308.332 233.792 308.328 233.464 308.328 233.12V230.6H309.876V239H308.448L303.552 232.532L303.864 232.448C303.904 232.896 303.936 233.28 303.96 233.6C303.992 233.912 304.016 234.184 304.032 234.416C304.048 234.64 304.06 234.828 304.068 234.98C304.084 235.132 304.092 235.272 304.092 235.4C304.1 235.52 304.104 235.636 304.104 235.748V239H302.556ZM319.666 239.12C319.034 239.12 318.45 239.012 317.914 238.796C317.378 238.572 316.91 238.264 316.51 237.872C316.118 237.48 315.814 237.024 315.598 236.504C315.382 235.976 315.274 235.404 315.274 234.788C315.274 234.18 315.382 233.616 315.598 233.096C315.822 232.568 316.134 232.112 316.534 231.728C316.934 231.336 317.402 231.032 317.938 230.816C318.482 230.6 319.066 230.492 319.69 230.492C320.13 230.492 320.554 230.552 320.962 230.672C321.37 230.792 321.738 230.96 322.066 231.176C322.394 231.392 322.666 231.636 322.882 231.908L321.898 232.94C321.674 232.724 321.442 232.544 321.202 232.4C320.97 232.256 320.726 232.144 320.47 232.064C320.214 231.984 319.95 231.944 319.678 231.944C319.278 231.944 318.906 232.016 318.562 232.16C318.226 232.304 317.93 232.504 317.674 232.76C317.426 233.016 317.23 233.316 317.086 233.66C316.942 234.004 316.87 234.38 316.87 234.788C316.87 235.18 316.942 235.552 317.086 235.904C317.238 236.256 317.446 236.564 317.71 236.828C317.974 237.092 318.278 237.3 318.622 237.452C318.974 237.596 319.346 237.668 319.738 237.668C320.034 237.668 320.31 237.624 320.566 237.536C320.822 237.448 321.05 237.328 321.25 237.176C321.45 237.016 321.602 236.832 321.706 236.624C321.818 236.416 321.874 236.192 321.874 235.952V235.688L322.09 235.94H319.606V234.548H323.41C323.426 234.636 323.438 234.736 323.446 234.848C323.454 234.952 323.458 235.056 323.458 235.16C323.466 235.256 323.47 235.34 323.47 235.412C323.47 235.964 323.374 236.468 323.182 236.924C322.99 237.372 322.718 237.76 322.366 238.088C322.022 238.416 321.618 238.672 321.154 238.856C320.698 239.032 320.202 239.12 319.666 239.12Z" fill="white"/>
</svg>
