<svg width="311" height="51" viewBox="0 0 311 51" fill="none" xmlns="http://www.w3.org/2000/svg">
<path d="M0.00203778 50.92V0.0125397C1.3314 0.0125397 2.58583 -0.0104499 3.83568 0.0293086C4.12061 0.0376681 4.41983 0.228204 4.67775 0.391571C13.7126 6.07001 22.7455 11.7485 31.7635 17.4542C32.4292 17.875 32.8854 17.9337 33.6036 17.4814C42.4463 11.893 51.3426 6.38828 60.1618 0.76632C61.8582 -0.316183 63.5602 0.157046 65.3631 0V50.9093H54.513V19.1628C54.0833 19.3805 53.8112 19.4936 53.5665 19.6464C46.9605 23.7481 40.3483 27.8396 33.7652 31.9771C33.0363 32.4333 32.5383 32.4379 31.8155 31.9852C25.2518 27.8814 18.6641 23.8174 12.0795 19.7448C11.7629 19.5501 11.428 19.3847 10.9718 19.1334V50.92H0H0.00203778Z" fill="#CCFF00"/>
<path d="M18.5386 30.6095C20.4297 31.7839 22.1108 32.8247 23.7878 33.8697C26.4511 35.5278 29.1338 37.161 31.7635 38.8716C32.4944 39.3446 33.0052 39.286 33.7045 38.84C37.7038 36.2919 41.7322 33.7896 45.7524 31.2752C46.0347 31.0993 46.3345 30.9464 46.7866 30.6931C46.7866 33.1535 46.8034 35.4422 46.7616 37.7283C46.7575 37.9566 46.4476 38.2477 46.2106 38.3965C41.8851 41.0808 37.5529 43.7543 33.2019 46.3967C32.9527 46.5496 32.448 46.5476 32.1988 46.3967C27.8146 43.742 23.4468 41.0578 19.0917 38.3568C18.8404 38.1993 18.5682 37.8353 18.5641 37.5611C18.5218 35.3372 18.5407 33.1117 18.5407 30.6156L18.5386 30.6095Z" fill="#154406"/>
<path d="M100.994 28.6804H97.1518V12.0287L96.8107 11.9884C95.7872 15.7568 94.7605 19.5218 93.7444 23.2943C93.363 24.7058 92.9207 26.1066 92.6675 27.5386C92.4274 28.9098 91.5059 28.8013 90.54 28.7816C89.6176 28.761 88.7397 29.0043 88.3821 27.6027C87.1966 22.9802 85.8493 18.3972 84.5595 13.7986C84.4279 13.3325 84.289 12.8664 83.8772 12.434V28.6533H80.048V5.07899C81.7669 5.07899 83.3872 4.99842 84.9919 5.13981C85.3733 5.17352 85.8665 5.89611 86.0047 6.38935C87.3652 11.1442 88.6591 15.9154 89.9793 20.6801C90.138 21.2547 90.3336 21.8146 90.6649 22.8652C92.2014 16.6586 93.6194 10.9214 95.0449 5.15379H100.994V28.6804Z" fill="black"/>
<path d="M166.138 5.08307V28.6295H162.302V11.7993C162.184 11.7829 162.065 11.7623 161.948 11.7459C161.732 12.4718 161.495 13.1944 161.303 13.9235C160.124 18.3775 158.925 22.8281 157.807 27.2961C157.527 28.41 157.078 28.9336 155.865 28.7922C154.806 28.6673 153.772 29.0725 153.356 27.3873C152.198 22.6999 150.787 18.0774 149.47 13.427C149.352 13.0086 149.207 12.5935 148.825 12.2046V28.6738H145.114V5.10363C146.799 5.10363 148.423 5.00908 150.021 5.16774C150.436 5.20802 150.969 5.98159 151.121 6.51182C152.509 11.4319 153.823 16.3749 155.163 21.309C155.292 21.7817 155.464 22.2412 155.707 22.9802C157.031 17.5809 158.365 12.4751 159.506 7.32484C159.888 5.59933 160.499 4.77562 162.376 5.05265C163.571 5.22857 164.818 5.08636 166.149 5.08636L166.138 5.08307Z" fill="black"/>
<path d="M231.99 28.7232H227.901C227.607 27.5082 227.415 26.2891 226.989 25.1546C226.813 24.6885 226.154 24.381 225.678 24.0604C225.523 23.9552 225.239 24.0399 225.013 24.0432C223.666 24.0604 221.987 23.6009 221.066 24.2355C220.212 24.8233 220.222 26.6097 219.728 27.8148C219.566 28.2135 219.046 28.6591 218.634 28.7232C217.764 28.8621 216.851 28.7676 215.649 28.7676C217.473 20.8322 219.259 13.0481 221.066 5.17352H226.709C228.444 12.9231 230.193 20.7237 231.986 28.7199L231.99 28.7232ZM226.09 20.5889C225.331 16.9586 224.618 13.5512 223.906 10.1445C223.77 10.1445 223.636 10.1445 223.501 10.1478C222.795 13.5956 222.089 17.0433 221.363 20.5856H226.09V20.5889Z" fill="black"/>
<path d="M137.863 27.8995C136.411 21.6049 134.936 15.317 133.5 9.01913C132.599 5.05514 132.622 5.08884 128.523 5.08227C127.486 5.08227 127.027 5.39219 126.818 6.40251C126.335 8.71168 125.757 10.9978 125.214 13.2947C124.011 18.3734 122.809 23.4488 121.557 28.7265C122.225 28.7635 122.614 28.7972 122.999 28.8046C124.651 28.8292 125.66 28.0409 126.025 26.4403C126.206 25.6405 126.385 24.8365 126.555 24.0835H132.744C133.119 25.5525 133.068 27.315 133.923 28.156C134.72 28.9394 136.479 28.747 137.948 29.0068C137.898 28.3352 137.907 28.1083 137.86 27.8962L137.863 27.8995ZM130.806 20.565C129.749 20.5782 128.692 20.5683 127.281 20.5683C128.061 16.9619 128.797 13.5643 129.533 10.1675C129.634 10.1643 129.732 10.161 129.833 10.1577C130.566 13.5175 131.299 16.8772 132.076 20.4433C131.458 20.5042 131.134 20.5617 130.802 20.565H130.806Z" fill="black"/>
<path d="M203.672 22.7632C204.772 17.4856 205.931 12.2178 206.937 6.92288C207.211 5.48098 207.724 4.84551 209.209 5.0724C209.858 5.17023 210.537 5.08885 211.374 5.08885C209.554 13.0546 207.781 20.8182 205.964 28.7742C204.431 28.7742 202.871 28.8144 201.314 28.7405C201 28.7265 200.504 28.3179 200.44 28.0146C198.819 20.5478 197.241 13.0719 195.661 5.59524C195.641 5.49412 195.695 5.37575 195.743 5.08556C196.712 5.08556 197.711 5.13241 198.707 5.0724C199.619 5.01486 199.96 5.35931 200.126 6.27098C201.075 11.4681 202.097 16.6512 203.1 21.8417C203.161 22.1524 203.266 22.4525 203.35 22.7567C203.459 22.7599 203.566 22.7632 203.672 22.7665V22.7632Z" fill="black"/>
<path d="M276.75 28.7109V5.16365H288.488V8.41902H280.843V14.9125H286.01V18.0832H280.745V25.4991H288.437V28.7076H276.753L276.75 28.7109Z" fill="black"/>
<path d="M310.559 5.09869C308.982 9.50249 307.584 13.7032 305.97 17.816C305.105 20.0142 304.7 22.1993 304.852 24.5356C304.937 25.8665 304.869 27.2106 304.869 28.6591H300.743C300.695 28.382 300.605 28.1625 300.628 27.9603C301.347 22.034 299.192 16.7087 297.2 11.3423C296.461 9.3537 295.799 7.338 295.012 5.07815C296.228 5.07815 297.217 5.14309 298.2 5.0617C299.227 4.97374 299.669 5.36916 299.942 6.36139C300.827 9.60033 301.816 12.8113 302.907 16.5122C303.937 13.2166 304.809 10.387 305.706 7.56736C306.642 4.63259 305.943 5.16281 309.093 5.09869C309.482 5.09212 309.87 5.09869 310.566 5.09869H310.559Z" fill="black"/>
<path d="M257.839 5.18666H261.77V25.4916H269.51V28.6821H257.842V5.18666H257.839Z" fill="black"/>
<path d="M239.024 5.18666H243.015C243.015 5.9257 243.015 6.58088 243.015 7.23606C243.028 12.8582 243.072 18.4778 243.032 24.0999C243.025 25.2787 243.39 25.6766 244.569 25.6297C246.574 25.5484 248.59 25.6059 250.714 25.6059V28.696H239.024V5.18666Z" fill="black"/>
<path d="M110.24 5.18008H114.151V28.6418H110.24V5.18008Z" fill="black"/>
<path d="M175.251 5.18008H179.051V28.6722H175.251V5.18008Z" fill="black"/>
<path d="M272.104 46.779V44.8537C284.922 45.1307 297.694 45.4078 310.464 45.6848C310.464 45.7457 310.464 45.8065 310.464 45.8673C297.727 46.1674 284.989 46.4715 272.104 46.7757V46.779Z" fill="black"/>
<path d="M118.143 44.8751V46.7387C105.216 46.4387 92.3906 46.1411 79.5656 45.841C79.5656 45.7736 79.5656 45.7095 79.5656 45.6413C92.3602 45.3881 105.159 45.1316 118.143 44.8718V44.8751Z" fill="black"/>
<path d="M136.393 49.0126V42.1072H137.676V47.8288H140.862V49.0126H136.393ZM144.616 49.0126L147.309 42.1072H148.513L151.186 49.0126H149.854L148.375 45.0864C148.342 45.0075 148.296 44.8825 148.237 44.7115C148.184 44.5405 148.125 44.3564 148.059 44.1591C147.993 43.9552 147.934 43.7678 147.882 43.5968C147.829 43.4192 147.789 43.291 147.763 43.2121L148.01 43.2022C147.97 43.3337 147.924 43.4817 147.872 43.6461C147.819 43.8105 147.763 43.9815 147.704 44.1591C147.645 44.3366 147.586 44.5076 147.526 44.6721C147.474 44.8365 147.424 44.9844 147.378 45.116L145.899 49.0126H144.616ZM145.84 47.4342L146.283 46.3195H149.43L149.904 47.4342H145.84ZM155.332 49.0126V42.1072H156.486L160.491 47.5032L160.274 47.5427C160.248 47.3586 160.225 47.1711 160.205 46.9804C160.185 46.7831 160.166 46.5792 160.146 46.3688C160.133 46.1583 160.12 45.938 160.106 45.7078C160.1 45.4777 160.093 45.2376 160.087 44.9877C160.08 44.7312 160.077 44.4616 160.077 44.1788V42.1072H161.349V49.0126H160.175L156.151 43.6954L156.407 43.6264C156.44 43.9947 156.466 44.3103 156.486 44.5734C156.512 44.8299 156.532 45.0535 156.545 45.2442C156.558 45.4284 156.568 45.5829 156.575 45.7078C156.588 45.8328 156.595 45.9479 156.595 46.0531C156.601 46.1518 156.604 46.2471 156.604 46.3392V49.0126H155.332ZM166.26 49.0126V42.1072H169.032C169.532 42.1072 169.983 42.1894 170.384 42.3538C170.792 42.5182 171.14 42.755 171.43 43.0641C171.725 43.3732 171.949 43.7382 172.1 44.1591C172.258 44.58 172.337 45.0469 172.337 45.5599C172.337 46.0729 172.258 46.5431 172.1 46.9705C171.949 47.3914 171.729 47.7564 171.439 48.0655C171.15 48.3681 170.802 48.6015 170.394 48.7659C169.986 48.9303 169.532 49.0126 169.032 49.0126H166.26ZM167.543 48.0162L167.444 47.8288H168.983C169.305 47.8288 169.591 47.7762 169.841 47.6709C170.098 47.5657 170.315 47.4145 170.492 47.2172C170.67 47.0199 170.805 46.7831 170.897 46.5069C170.989 46.2241 171.035 45.9084 171.035 45.5599C171.035 45.2113 170.989 44.8989 170.897 44.6227C170.805 44.3399 170.667 44.0999 170.483 43.9026C170.305 43.7053 170.091 43.554 169.841 43.4488C169.591 43.3436 169.305 43.291 168.983 43.291H167.415L167.543 43.1233V48.0162ZM185.672 49.1112C185.172 49.1112 184.715 49.0257 184.301 48.8547C183.886 48.6837 183.528 48.4404 183.225 48.1247C182.923 47.8025 182.686 47.4243 182.515 46.9903C182.351 46.5496 182.268 46.0696 182.268 45.55C182.268 45.0502 182.357 44.5866 182.535 44.1591C182.712 43.7316 182.959 43.3567 183.275 43.0345C183.59 42.7122 183.959 42.4623 184.38 42.2848C184.8 42.1072 185.258 42.0184 185.751 42.0184C186.086 42.0184 186.412 42.0678 186.727 42.1664C187.043 42.265 187.332 42.4032 187.595 42.5807C187.859 42.7517 188.079 42.9523 188.256 43.1825L187.438 44.0802C187.267 43.9026 187.089 43.7546 186.905 43.6363C186.727 43.5113 186.54 43.4192 186.343 43.36C186.152 43.2943 185.955 43.2614 185.751 43.2614C185.448 43.2614 185.162 43.3173 184.892 43.4291C184.629 43.5409 184.399 43.6987 184.202 43.9026C184.011 44.1065 183.86 44.3498 183.748 44.6326C183.636 44.9088 183.58 45.2179 183.58 45.5599C183.58 45.9084 183.633 46.2241 183.738 46.5069C183.85 46.7897 184.005 47.033 184.202 47.2369C184.406 47.4408 184.646 47.5986 184.922 47.7104C185.205 47.8156 185.514 47.8682 185.849 47.8682C186.066 47.8682 186.277 47.8386 186.481 47.7795C186.685 47.7203 186.872 47.6381 187.043 47.5328C187.221 47.421 187.382 47.2928 187.526 47.1481L188.158 48.1642C188 48.3417 187.789 48.5029 187.526 48.6476C187.263 48.7922 186.967 48.9073 186.639 48.9928C186.316 49.0717 185.994 49.1112 185.672 49.1112ZM192.543 49.0126V42.1072H193.826V47.8288H197.012V49.0126H192.543ZM201.536 49.0126V42.1072H206.054V43.2713H202.799V47.8485H206.094V49.0126H201.536ZM202.128 46.0531V44.9088H205.551V46.0531H202.128ZM209.99 49.0126L212.683 42.1072H213.887L216.56 49.0126H215.228L213.749 45.0864C213.716 45.0075 213.67 44.8825 213.61 44.7115C213.558 44.5405 213.499 44.3564 213.433 44.1591C213.367 43.9552 213.308 43.7678 213.255 43.5968C213.203 43.4192 213.163 43.291 213.137 43.2121L213.384 43.2022C213.344 43.3337 213.298 43.4817 213.245 43.6461C213.193 43.8105 213.137 43.9815 213.078 44.1591C213.019 44.3366 212.959 44.5076 212.9 44.6721C212.848 44.8365 212.798 44.9844 212.752 45.116L211.273 49.0126H209.99ZM211.213 47.4342L211.657 46.3195H214.804L215.278 47.4342H211.213ZM220.706 49.0126V42.1072H223.705C224.119 42.1072 224.497 42.2059 224.839 42.4032C225.181 42.5939 225.451 42.8569 225.648 43.1923C225.852 43.5212 225.954 43.8927 225.954 44.3071C225.954 44.7016 225.852 45.0666 225.648 45.402C225.451 45.7309 225.181 45.9939 224.839 46.1912C224.504 46.3819 224.126 46.4773 223.705 46.4773H221.959V49.0126H220.706ZM224.711 49.0126L222.955 45.8953L224.277 45.6487L226.23 49.0224L224.711 49.0126ZM221.959 45.3626H223.714C223.905 45.3626 224.07 45.3198 224.208 45.2343C224.352 45.1423 224.464 45.0173 224.543 44.8595C224.622 44.7016 224.662 44.5274 224.662 44.3366C224.662 44.1196 224.612 43.9322 224.514 43.7744C224.415 43.6165 224.277 43.4916 224.099 43.3995C223.922 43.3074 223.718 43.2614 223.488 43.2614H221.959V45.3626ZM230.435 49.0126V47.8781H231.569V43.2417H230.435V42.1072H233.986V43.2417H232.852V47.8781H233.986V49.0126H230.435ZM238.681 49.0126V42.1072H239.835L243.84 47.5032L243.623 47.5427C243.597 47.3586 243.574 47.1711 243.554 46.9804C243.534 46.7831 243.515 46.5792 243.495 46.3688C243.482 46.1583 243.469 45.938 243.456 45.7078C243.449 45.4777 243.442 45.2376 243.436 44.9877C243.429 44.7312 243.426 44.4616 243.426 44.1788V42.1072H244.698V49.0126H243.525L239.5 43.6954L239.756 43.6264C239.789 43.9947 239.815 44.3103 239.835 44.5734C239.861 44.8299 239.881 45.0535 239.894 45.2442C239.908 45.4284 239.917 45.5829 239.924 45.7078C239.937 45.8328 239.944 45.9479 239.944 46.0531C239.95 46.1518 239.954 46.2471 239.954 46.3392V49.0126H238.681ZM252.746 49.1112C252.227 49.1112 251.747 49.0224 251.306 48.8449C250.866 48.6607 250.481 48.4075 250.152 48.0853C249.83 47.763 249.58 47.3881 249.402 46.9607C249.225 46.5266 249.136 46.0564 249.136 45.55C249.136 45.0502 249.225 44.5866 249.402 44.1591C249.586 43.725 249.843 43.3502 250.172 43.0345C250.501 42.7122 250.885 42.4623 251.326 42.2848C251.773 42.1072 252.253 42.0184 252.766 42.0184C253.128 42.0184 253.476 42.0678 253.812 42.1664C254.147 42.265 254.45 42.4032 254.719 42.5807C254.989 42.7583 255.213 42.9589 255.39 43.1825L254.581 44.0308C254.397 43.8533 254.206 43.7053 254.009 43.5869C253.818 43.4685 253.618 43.3765 253.407 43.3107C253.197 43.2449 252.98 43.2121 252.756 43.2121C252.428 43.2121 252.122 43.2713 251.839 43.3896C251.563 43.508 251.319 43.6724 251.109 43.8829C250.905 44.0933 250.744 44.3399 250.626 44.6227C250.507 44.9055 250.448 45.2146 250.448 45.55C250.448 45.8723 250.507 46.1781 250.626 46.4674C250.751 46.7568 250.922 47.01 251.139 47.227C251.356 47.4441 251.605 47.615 251.888 47.74C252.178 47.8584 252.483 47.9176 252.806 47.9176C253.049 47.9176 253.276 47.8814 253.486 47.809C253.697 47.7367 253.884 47.6381 254.049 47.5131C254.213 47.3816 254.338 47.2303 254.423 47.0593C254.516 46.8883 254.562 46.7042 254.562 46.5069V46.2899L254.739 46.497H252.697V45.3527H255.824C255.837 45.4251 255.847 45.5073 255.854 45.5993C255.86 45.6848 255.864 45.7703 255.864 45.8558C255.87 45.9347 255.874 46.0038 255.874 46.063C255.874 46.5168 255.795 46.9311 255.637 47.3059C255.479 47.6742 255.255 47.9932 254.966 48.2628C254.683 48.5325 254.351 48.7429 253.97 48.8942C253.595 49.0389 253.187 49.1112 252.746 49.1112Z" fill="black"/>
</svg>
