<svg width="137" height="51" viewBox="0 0 137 51" fill="none" xmlns="http://www.w3.org/2000/svg">
<g clip-path="url(#clip0_20_501)">
<path d="M14.2165 0.509739L13.4811 3.0715C13.433 3.24577 13.2754 3.3634 13.096 3.3634H4.70965C4.4339 3.3634 4.21943 3.57688 4.21943 3.85136V9.59354C4.21943 9.86802 4.4339 10.0815 4.70965 10.0815H11.3452C11.5728 10.0815 11.7479 10.2558 11.7479 10.4823V13.0441C11.7479 13.2706 11.5728 13.4449 11.3452 13.4449H4.70965C4.4339 13.4449 4.21943 13.6584 4.21943 13.9329V19.675C4.21943 19.9495 4.4339 20.163 4.70965 20.163H14.7767L11.5815 23.4001C11.5027 23.4785 11.4065 23.5177 11.297 23.5177H0.402684C0.17508 23.5177 0 23.3434 0 23.1169V0.40082C0 0.17427 0.17508 0 0.402684 0H13.8313C14.0983 0 14.2953 0.252691 14.2165 0.509739Z" fill="white"/>
<path d="M55.868 0.488055V23.1213C55.868 23.3479 55.6929 23.5221 55.4653 23.5221H52.0425C51.8149 23.5221 51.6398 23.3479 51.6398 23.1213V1.16335C51.6398 0.97601 51.7755 0.810454 51.9637 0.771243L55.3865 0.087235C55.6317 0.0393108 55.868 0.222294 55.868 0.479342V0.488055Z" fill="white"/>
<path d="M99.1828 1.24164V4.20858C99.1828 4.43513 99.0077 4.6094 98.7801 4.6094H95.3573C95.1297 4.6094 94.9546 4.43513 94.9546 4.20858V1.24164C94.9546 1.01509 95.1297 0.84082 95.3573 0.84082H98.7801C99.0077 0.84082 99.1828 1.01509 99.1828 1.24164ZM99.1828 7.07532V23.1212C99.1828 23.3477 99.0077 23.522 98.7801 23.522H95.3573C95.1297 23.522 94.9546 23.3477 94.9546 23.1212V7.07532C94.9546 6.84877 95.1297 6.6745 95.3573 6.6745H98.7801C99.0077 6.6745 99.1828 6.84877 99.1828 7.07532Z" fill="white"/>
<path d="M120.486 11.3623L121.821 8.97484C122.215 8.26905 122.854 7.74189 123.62 7.49791L125.725 6.82261C126.04 6.72677 126.373 6.66577 126.71 6.66577H130.653C131.087 6.66577 131.498 6.76162 131.892 6.93153C132.549 7.21472 133.967 8.03814 134.645 8.44768C134.93 8.62195 135.188 8.83107 135.411 9.08376C135.98 9.73727 137.004 11.1009 137.004 12.4385V16.4031C137.004 16.6296 136.829 16.8039 136.602 16.8039H124.263C124.263 17.7319 124.587 18.5248 125.09 19.1827C125.58 19.8362 126.74 20.163 128.57 20.163C130.4 20.163 131.546 19.9495 132.05 19.5182C132.395 19.2132 132.619 18.93 132.719 18.6686C132.789 18.4813 132.986 18.3767 133.179 18.4333L135.893 19.1653C136.326 19.2829 136.462 19.5094 136.405 19.7142C136.12 20.6727 135.521 21.5266 134.606 22.2673C134.181 22.6114 132.649 23.1473 131.835 23.4131C131.503 23.522 131.157 23.5307 130.802 23.5307H126.959C126.495 23.5307 126.044 23.4218 125.624 23.2257L123.029 21.9928C122.429 21.7096 121.926 21.2478 121.615 20.664L120.486 18.6294C120.258 18.2286 120.14 17.7667 120.14 17.3093V12.6999C120.14 12.2293 120.258 11.7806 120.486 11.3711H120.494L120.486 11.3623ZM128.574 10.0771C126.753 10.0771 125.594 10.3995 125.095 11.0574C124.604 11.7109 124.267 12.5038 124.267 13.4361H132.789C132.789 12.5082 132.544 11.7152 132.041 11.0574C131.551 10.4039 130.391 10.0771 128.561 10.0771H128.57H128.574Z" fill="white"/>
<path d="M0.402684 27.4475H16.3656C16.6326 27.4475 16.8164 27.6915 16.7595 27.9485L16.1205 30.5103C16.0723 30.6846 15.9148 30.8153 15.7265 30.8153H4.62211C4.3945 30.8153 4.21942 30.9895 4.21942 31.2161V37.1369C4.21942 37.3634 4.3945 37.5377 4.62211 37.5377H14.7067C14.9343 37.5377 15.1094 37.712 15.1094 37.9385V40.5003C15.1094 40.7269 14.9343 40.9011 14.7067 40.9011H4.62211C4.3945 40.9011 4.21942 41.0754 4.21942 41.3019V50.5862C4.21942 50.8127 4.04434 50.987 3.81674 50.987H0.402684C0.17508 50.987 0 50.8127 0 50.5862V27.8658C0 27.6392 0.17508 27.4649 0.402684 27.4649V27.4475Z" fill="white"/>
<path d="M23.8809 11.859V18.3549C23.8809 18.4638 23.9203 18.5596 23.9991 18.6381L28.6693 23.3956C28.7481 23.474 28.8444 23.5132 28.9538 23.5132H33.8867L27.2687 16.7821C27.0323 16.5381 26.9054 16.2244 26.9054 15.8802V14.3162C26.9054 13.9851 27.0323 13.6627 27.2687 13.4143L33.913 6.66138H28.9801C28.8707 6.66138 28.7744 6.70059 28.6956 6.77901L23.9947 11.5627C23.9247 11.6411 23.8765 11.737 23.8765 11.8459V11.8546L23.8809 11.859Z" fill="white"/>
<path d="M22.8961 11.859V18.3549C22.8961 18.4638 22.8567 18.5596 22.7779 18.6381L18.1077 23.3956C18.0289 23.474 17.9326 23.5132 17.8232 23.5132H12.8903L19.5083 16.7821C19.7447 16.5381 19.8716 16.2244 19.8716 15.8802V14.3162C19.8716 13.9851 19.7447 13.6627 19.5083 13.4143L12.864 6.66138H17.7969C17.9063 6.66138 18.0026 6.70059 18.0814 6.77901L22.7823 11.5627C22.8523 11.6411 22.9005 11.737 22.9005 11.8459V11.8546L22.8961 11.859Z" fill="#00F0FF"/>
<path d="M108.571 23.2476L102.781 20.1064C101.835 19.5879 101.249 18.5989 101.249 17.5315V7.07099C101.249 6.84444 101.424 6.67017 101.651 6.67017H104.72C104.947 6.67017 105.122 6.84444 105.122 7.07099V16.5818C105.122 16.8257 105.258 17.0523 105.477 17.1699L108.987 19.0694C109.372 19.2742 109.841 19.2742 110.226 19.0694L113.881 17.0436C114.095 16.9259 114.227 16.6994 114.227 16.4554V7.07099C114.227 6.84444 114.402 6.67017 114.629 6.67017H117.697C117.925 6.67017 118.1 6.84444 118.1 7.07099V17.3965C118.1 18.4639 117.518 19.4398 116.586 19.9582L110.668 23.2476C110.02 23.6092 109.232 23.6092 108.585 23.2563L108.576 23.2476H108.571Z" fill="white"/>
<path d="M68.4125 23.5221H63.6459C63.1644 23.5221 62.6917 23.387 62.2803 23.1125L59.2514 21.1259C58.4241 20.5856 57.9252 19.6576 57.9252 18.6687V7.07538C57.9252 6.84883 58.1002 6.67456 58.3279 6.67456H61.453C61.6806 6.67456 61.8557 6.84883 61.8557 7.07538V17.9193C61.8557 18.1066 61.9345 18.2896 62.0702 18.4203L63.7597 19.9452C63.9961 20.1587 64.3025 20.2763 64.6264 20.2763H67.4101C67.734 20.2763 68.0404 20.1587 68.2768 19.9452L70.0932 18.2896C70.2333 18.1633 70.3077 17.9847 70.3077 17.7886V7.07538C70.3077 6.84883 70.4828 6.67456 70.7104 6.67456H73.8356C74.0632 6.67456 74.2382 6.84883 74.2382 7.07538V18.5423C74.2382 19.5226 73.7568 20.4288 72.9426 20.969L69.7868 23.0908C69.3754 23.3652 68.8939 23.5134 68.3993 23.5134L68.4081 23.5221H68.4125Z" fill="white"/>
<path d="M27.6538 50.9695H22.8873C22.4058 50.9695 21.9331 50.8344 21.5217 50.5599L18.4928 48.5733C17.6655 48.033 17.1666 47.105 17.1666 46.1161V34.5097C17.1666 34.2832 17.3416 34.1089 17.5692 34.1089H20.6944C20.922 34.1089 21.0971 34.2832 21.0971 34.5097V45.3536C21.0971 45.541 21.1759 45.724 21.3116 45.8547L23.0011 47.3795C23.2375 47.5974 23.5438 47.7106 23.8677 47.7106H26.6515C26.9754 47.7106 27.2818 47.593 27.5182 47.3795L29.339 45.7283C29.4747 45.602 29.5535 45.4233 29.5535 45.2273V34.5141C29.5535 34.2875 29.7285 34.1132 29.9561 34.1132H33.0813C33.3089 34.1132 33.484 34.2875 33.484 34.5141V45.981C33.484 46.9613 33.0025 47.8675 32.1884 48.4077L29.0326 50.5294C28.6212 50.8039 28.1397 50.952 27.6451 50.952L27.6538 50.9695Z" fill="white"/>
<path d="M46.046 34.1306H41.2795C40.798 34.1306 40.3253 34.2657 39.9138 34.5401L36.8849 36.5268C36.0577 37.0671 35.5587 37.995 35.5587 38.984V50.5904C35.5587 50.8169 35.7338 50.9912 35.9614 50.9912H39.0866C39.3142 50.9912 39.4893 50.8169 39.4893 50.5904V39.7465C39.4893 39.5591 39.568 39.3761 39.7037 39.2454L41.3933 37.7206C41.6296 37.5071 41.936 37.3895 42.2599 37.3895H45.0437C45.3676 37.3895 45.674 37.5071 45.9103 37.7206L47.7268 39.3761C47.8668 39.5025 47.9412 39.6811 47.9412 39.8772V50.5904C47.9412 50.8169 48.1163 50.9912 48.3439 50.9912H51.4691C51.6967 50.9912 51.8718 50.8169 51.8718 50.5904V39.1234C51.8718 38.1432 51.3903 37.237 50.5762 36.6967L47.4204 34.575C47.0089 34.3005 46.5275 34.1524 46.0329 34.1524L46.0416 34.135L46.046 34.1306Z" fill="white"/>
<path d="M131.319 44.4345V35.7733C131.319 35.6383 131.262 35.5075 131.161 35.4117L125.235 29.6303C125.134 29.5345 125.007 29.4822 124.88 29.4822H116.306C116.17 29.4822 116.039 29.5388 115.942 29.639L111.508 34.1395H122.924C123.011 34.1395 123.051 34.2354 122.994 34.2964L114.616 42.6352C114.27 42.9794 114.086 43.4281 114.086 43.9073V50.6211C114.086 50.8259 114.253 50.9827 114.45 50.9827H118.735C118.94 50.9827 119.098 50.8171 119.098 50.6211V45.9812C119.098 45.5019 119.286 45.0401 119.628 44.709L126.548 37.821C126.609 37.7643 126.714 37.8036 126.714 37.8907V49.3402L131.179 44.8092C131.275 44.7133 131.327 44.5826 131.327 44.4563L131.319 44.4345Z" fill="#00F0FF"/>
<path d="M49.1843 18.1501C49.5082 18.1501 49.6964 18.5117 49.5082 18.7775L47.1403 22.1235C46.5187 22.9948 45.5164 23.5133 44.4572 23.5133H39.1391C38.3513 23.5133 37.6072 23.1996 37.0557 22.6506L33.6722 19.2741C33.4052 19.0084 33.2608 18.6598 33.2608 18.2852V11.9461C33.2608 11.5758 33.4096 11.2229 33.6722 10.9571L37.0557 7.58065C37.6072 7.0317 38.3644 6.71802 39.1391 6.71802H44.4572C45.5164 6.71802 46.5231 7.23647 47.1403 8.10782L49.4995 11.4538C49.6877 11.7196 49.4995 12.0812 49.1756 12.0812H45.3501C45.2144 12.0812 45.0962 12.0115 45.0174 11.9069L44.2514 10.7698C44.1727 10.6609 44.0545 10.5955 43.9188 10.5955H39.6819C39.5724 10.5955 39.4674 10.6434 39.3886 10.7306L36.7536 13.6975C36.6836 13.7759 36.6574 13.8631 36.6574 13.9633V16.2723C36.6574 16.3682 36.6967 16.4684 36.7536 16.5381L39.3886 19.505C39.4674 19.5922 39.5768 19.6401 39.6819 19.6401H43.9188C44.0545 19.6401 44.1727 19.5704 44.2514 19.4658L45.0174 18.3287C45.0962 18.2198 45.2144 18.1545 45.3501 18.1545H49.1843V18.1501Z" fill="white"/>
<path d="M108.243 27.5434L104.82 28.2187C104.632 28.2579 104.496 28.4235 104.496 28.6195V34.854C104.151 34.6667 103.827 34.5011 103.603 34.4053C103.21 34.2397 102.789 34.1395 102.356 34.1395H98.4255C98.0929 34.1395 97.7558 34.1961 97.4319 34.2963L95.3266 34.9716C94.5606 35.2243 93.9085 35.7428 93.5189 36.4486L92.1927 38.8361C91.9651 39.2456 91.8381 39.6987 91.8381 40.1649V44.7743C91.8381 45.2361 91.9563 45.6936 92.1839 46.0944L93.3219 48.1377C93.6458 48.7172 94.1361 49.1746 94.7357 49.4578L95.1296 49.6451L96.7798 50.4294L97.34 50.6951C97.7515 50.8912 98.2067 50.987 98.6662 51.0001H102.518C102.873 51.0001 103.218 50.9914 103.551 50.8825C104.365 50.608 105.84 49.9806 106.322 49.7366C108.532 48.5821 108.72 45.2666 108.72 44.2471V27.9355C108.72 27.6828 108.484 27.4955 108.239 27.5434H108.243ZM103.849 46.6869C103.389 47.1574 102.098 47.6367 100.281 47.6367C100.115 47.6367 96.9986 47.1269 96.6047 46.5998C96.1013 45.9419 95.7293 45.2797 95.7293 44.3473V40.9927C95.7293 40.0647 96.1013 39.1454 96.6047 38.4875C96.9286 38.0475 98.2767 37.7643 99.209 37.6162C99.3753 37.6075 99.5329 37.577 99.7211 37.577C99.8962 37.5595 100.084 37.5595 100.281 37.5595C102.102 37.5595 103.21 38.0083 103.849 38.5398C104.558 39.128 104.645 45.8591 103.849 46.6913V46.6869Z" fill="white"/>
<path d="M70.3559 27.5434L66.933 28.2187C66.7448 28.2579 66.6091 28.4235 66.6091 28.6195V34.854C66.2634 34.6667 65.9395 34.5011 65.7162 34.4053C65.3223 34.2397 64.9021 34.1395 64.4688 34.1395H60.5382C60.2056 34.1395 59.8686 34.1961 59.5447 34.2963L57.4393 34.9716C56.6734 35.2243 56.0212 35.7428 55.6316 36.4486L54.3054 38.8361C54.0778 39.2456 53.9509 39.6987 53.9509 40.1649V44.7743C53.9509 45.2361 54.069 45.6936 54.2966 46.0944L55.439 48.1377C55.7629 48.7172 56.2532 49.1746 56.8528 49.4578L57.2467 49.6451L58.8969 50.4294L59.4571 50.6951C59.8686 50.8912 60.3238 50.987 60.7834 51.0001H64.6351C64.9897 51.0001 65.3354 50.9914 65.6681 50.8825C66.4822 50.608 67.9573 49.9806 68.4387 49.7366C70.6491 48.5821 70.8373 45.2666 70.8373 44.2471V27.9355C70.8373 27.6828 70.601 27.4955 70.3559 27.5434ZM65.9657 46.6869C65.5018 47.1574 64.2149 47.6367 62.3985 47.6367C62.2321 47.6367 59.1157 47.1269 58.7218 46.5998C58.2228 45.9419 57.8464 45.2797 57.8464 44.3473V40.9927C57.8464 40.0647 58.2184 39.1454 58.7218 38.4875C59.0457 38.0475 60.3938 37.7643 61.3261 37.6162C61.4924 37.6075 61.65 37.577 61.8382 37.577C62.0133 37.5595 62.2015 37.5595 62.3985 37.5595C64.2149 37.5595 65.3267 38.0083 65.9657 38.5398C66.6748 39.128 66.7623 45.8591 65.9657 46.6913V46.6869Z" fill="white"/>
<path d="M73.2359 38.8186L74.5753 36.4311C74.9692 35.7254 75.6083 35.1982 76.3742 34.9542L78.4796 34.2789C78.7947 34.1831 79.1274 34.1221 79.4644 34.1221H83.4081C83.8414 34.1221 84.2528 34.2179 84.6468 34.3878C85.3077 34.671 86.7215 35.4944 87.3999 35.904C87.6844 36.0782 87.9426 36.2874 88.1659 36.5401C88.7349 37.1936 89.7591 38.5572 89.7591 39.8948V43.8594C89.7591 44.0859 89.584 44.2602 89.3564 44.2602H77.0177C77.0177 45.1882 77.3416 45.9811 77.8449 46.639C78.3351 47.2925 79.495 47.6193 81.3246 47.6193C83.1542 47.6193 84.3054 47.4058 84.8043 46.9745C85.1501 46.6695 85.3734 46.3863 85.474 46.1249C85.5441 45.9376 85.741 45.833 85.938 45.8896L88.6517 46.6216C89.085 46.7392 89.2207 46.9657 89.1638 47.1705C88.8793 48.129 88.2797 48.9829 87.3649 49.7236C86.9403 50.0677 85.4084 50.6036 84.5942 50.8694C84.2616 50.9783 83.9158 50.987 83.5613 50.987H79.7183C79.2543 50.987 78.8035 50.8781 78.3789 50.682L75.7834 49.4491C75.1837 49.1659 74.6847 48.7041 74.3696 48.1203L73.2403 46.0857C73.0127 45.6849 72.8945 45.223 72.8945 44.7656V40.1562C72.8945 39.6856 73.0127 39.2369 73.2403 38.8274H73.2491L73.2359 38.8186ZM81.329 37.5378C79.5126 37.5378 78.3526 37.8602 77.8493 38.518C77.3591 39.1715 77.022 39.9645 77.022 40.8968H85.5441C85.5441 39.9688 85.2989 39.1759 84.7956 38.518C84.3054 37.8645 83.1455 37.5378 81.3159 37.5378H81.3246H81.329Z" fill="white"/>
<path d="M81.0051 10.7131C81.2896 10.4604 82.8522 10.1162 83.8852 9.9202C84.5155 9.80256 85.1545 9.81128 85.7717 9.95941C86.6252 10.1555 87.7588 10.4691 87.9558 10.7131C88.3409 11.0442 88.5773 11.3579 88.6648 11.6629C88.713 11.8197 88.8706 11.9156 89.0369 11.9156H92.2496C92.753 11.9156 92.9368 11.689 92.8886 11.4451C92.788 10.944 92.556 10.3602 92.2978 9.81128C91.7944 8.74388 90.8533 7.94224 89.711 7.63726L87.3824 7.03168C85.474 6.53065 83.4781 6.52194 81.5741 7.00118L79.3024 7.58063C78.1425 7.87253 77.4641 8.6001 76.9739 9.68493C76.6412 10.4299 76.3348 11.2708 76.3348 11.8459C76.3348 13.2139 76.7857 14.3031 77.7224 15.1047C79.0398 16.2113 81.2721 16.7777 84.5242 16.7777C87.947 16.769 90.0086 17.7188 88.0039 19.4963C87.7194 19.749 86.1568 20.0932 85.1239 20.2892C84.4936 20.4069 83.8545 20.3982 83.2374 20.25C82.3839 20.054 81.2502 19.7403 81.0532 19.4963C80.6681 19.1652 80.4361 18.8515 80.3442 18.5465C80.296 18.3897 80.1385 18.2939 79.9721 18.2939H76.7594C76.2561 18.2939 76.0722 18.5204 76.1204 18.7644C76.2167 19.2654 76.453 19.8492 76.7113 20.3982C77.2146 21.4656 78.1557 22.2672 79.2981 22.5722L81.6266 23.1778C83.535 23.6788 85.5309 23.6875 87.4349 23.2083L89.7066 22.6288C90.8665 22.3369 91.5449 21.6093 92.0351 20.5245C92.3678 19.7795 92.6742 18.9386 92.6742 18.3636C92.6742 16.9955 92.2233 15.9064 91.2867 15.1047C89.9692 13.9981 87.7369 13.4317 84.4848 13.4317C81.062 13.4404 79.0004 12.4907 81.0051 10.7131Z" fill="white"/>
</g>
<defs>
<clipPath id="clip0_20_501">
<rect width="137" height="51" fill="white"/>
</clipPath>
</defs>
</svg>
