<svg width="60" height="109" viewBox="0 0 60 109" fill="none" xmlns="http://www.w3.org/2000/svg">
<mask id="path-1-outside-1_1_4408" maskUnits="userSpaceOnUse" x="-1" y="-1" width="62" height="111" fill="black">
<rect fill="white" x="-1" y="-1" width="62" height="111"/>
<path d="M42.56 0.699991H59.36V109H37.31V36.85H0.259961V20.05L21.11 19.15C35.51 18.4 41.36 13.15 42.56 0.699991Z"/>
</mask>
<path d="M42.56 0.699991V-0.300009H41.6517L41.5646 0.60405L42.56 0.699991ZM59.36 0.699991H60.36V-0.300009H59.36V0.699991ZM59.36 109V110H60.36V109H59.36ZM37.31 109H36.31V110H37.31V109ZM37.31 36.85H38.31V35.85H37.31V36.85ZM0.259961 36.85H-0.740039V37.85H0.259961V36.85ZM0.259961 20.05L0.216836 19.0509L-0.740039 19.0922V20.05H0.259961ZM21.11 19.15L21.1531 20.1491L21.162 20.1486L21.11 19.15ZM42.56 1.69999H59.36V-0.300009H42.56V1.69999ZM58.36 0.699991V109H60.36V0.699991H58.36ZM59.36 108H37.31V110H59.36V108ZM38.31 109V36.85H36.31V109H38.31ZM37.31 35.85H0.259961V37.85H37.31V35.85ZM1.25996 36.85V20.05H-0.740039V36.85H1.25996ZM0.303086 21.0491L21.1531 20.1491L21.0668 18.1509L0.216836 19.0509L0.303086 21.0491ZM21.162 20.1486C28.447 19.7692 33.7789 18.2464 37.4405 15.0676C41.1247 11.8693 42.9429 7.15018 43.5553 0.795931L41.5646 0.60405C40.977 6.6998 39.2702 10.8307 36.1294 13.5574C32.966 16.3036 28.1729 17.7808 21.058 18.1513L21.162 20.1486Z" fill="white" mask="url(#path-1-outside-1_1_4408)"/>
</svg>
