<svg width="32" height="58" viewBox="0 0 32 58" fill="none" xmlns="http://www.w3.org/2000/svg">
<path d="M22.5653 0.239995V-0.760005H21.6571L21.5699 0.144054L22.5653 0.239995ZM31.5253 0.239995H32.5253V-0.760005H31.5253V0.239995ZM31.5253 58V59H32.5253V58H31.5253ZM19.7653 58H18.7653V59H19.7653V58ZM19.7653 19.52H20.7653V18.52H19.7653V19.52ZM0.00531252 19.52H-0.994687V20.52H0.00531252V19.52ZM0.00531252 10.56L-0.0378127 9.56093L-0.994687 9.60223V10.56H0.00531252ZM11.1253 10.08L11.1684 11.0791L11.1773 11.0786L11.1253 10.08ZM22.5653 1.24H31.5253V-0.760005H22.5653V1.24ZM30.5253 0.239995V58H32.5253V0.239995H30.5253ZM31.5253 57H19.7653V59H31.5253V57ZM20.7653 58V19.52H18.7653V58H20.7653ZM19.7653 18.52H0.00531252V20.52H19.7653V18.52ZM1.00531 19.52V10.56H-0.994687V19.52H1.00531ZM0.0484377 11.5591L11.1684 11.0791L11.0822 9.08093L-0.0378127 9.56093L0.0484377 11.5591ZM11.1773 11.0786C15.1024 10.8742 18.0717 10.0514 20.1409 8.25514C22.2325 6.43929 23.2282 3.78519 23.5607 0.335936L21.5699 0.144054C21.2624 3.3348 20.3781 5.4007 18.8298 6.74486C17.2589 8.10857 14.8282 8.88578 11.0733 9.08135L11.1773 11.0786Z" fill="white"/>
</svg>
