<svg width="108" height="110" viewBox="0 0 108 110" fill="none" xmlns="http://www.w3.org/2000/svg">
<mask id="path-1-outside-1_1_4410" maskUnits="userSpaceOnUse" x="-1" y="-1" width="110" height="112" fill="black">
<rect fill="white" x="-1" y="-1" width="110" height="112"/>
<path d="M2.67324 92.45L54.2732 64.4C72.2732 54.5 83.2232 49.4 83.2232 37.4C83.2232 26.75 72.7232 19.4 56.9732 19.4C37.6232 19.4 23.9732 30.65 20.9732 47L0.873242 41.9C5.22324 18.8 25.1732 0.649995 58.0232 0.649995C85.3232 0.649995 105.273 15.05 105.273 36.5C105.273 54.35 91.1732 64.55 70.0232 75.5L41.2232 90.95H107.823V110H2.67324V92.45Z"/>
</mask>
<path d="M2.67324 92.45L2.19564 91.5714L1.67324 91.8554V92.45H2.67324ZM54.2732 64.4L54.7509 65.2786L54.7552 65.2762L54.2732 64.4ZM20.9732 47L20.7273 47.9693L21.7638 48.2323L21.9568 47.1805L20.9732 47ZM0.873242 41.9L-0.109485 41.7149L-0.28335 42.6382L0.627304 42.8693L0.873242 41.9ZM70.0232 75.5L69.5635 74.612L69.557 74.6153L69.5505 74.6188L70.0232 75.5ZM41.2232 90.95L40.7505 90.0688L41.2232 91.95V90.95ZM107.823 90.95H108.823V89.95H107.823V90.95ZM107.823 110V111H108.823V110H107.823ZM2.67324 110H1.67324V111H2.67324V110ZM3.15084 93.3286L54.7508 65.2786L53.7956 63.5214L2.19564 91.5714L3.15084 93.3286ZM54.7552 65.2762C63.7001 60.3565 71.0494 56.5501 76.1251 52.4667C81.2665 48.3303 84.2233 43.7944 84.2233 37.4H82.2233C82.2233 43.0056 79.705 47.0197 74.8714 50.9083C69.9721 54.8499 62.8464 58.5435 53.7913 63.5238L54.7552 65.2762ZM84.2233 37.4C84.2233 31.7037 81.3996 26.913 76.5723 23.5831C71.768 20.2691 64.9906 18.4 56.9732 18.4V20.4C64.7059 20.4 71.0535 22.2059 75.4367 25.2294C79.7969 28.237 82.2233 32.4463 82.2233 37.4H84.2233ZM56.9732 18.4C37.1948 18.4 23.0862 29.9433 19.9897 46.8195L21.9568 47.1805C24.8603 31.3567 38.0517 20.4 56.9732 20.4V18.4ZM21.2192 46.0307L1.11918 40.9307L0.627304 42.8693L20.7273 47.9693L21.2192 46.0307ZM1.85597 42.0851C6.10572 19.5174 25.5907 1.64999 58.0232 1.64999V-0.350006C24.7558 -0.350006 4.34077 18.0826 -0.109485 41.7149L1.85597 42.0851ZM58.0232 1.64999C71.5076 1.64999 83.0961 5.2073 91.2869 11.3321C99.4586 17.4427 104.273 26.1193 104.273 36.5H106.273C106.273 25.4307 101.113 16.1823 92.4846 9.73039C83.8754 3.29269 71.8389 -0.350006 58.0232 -0.350006V1.64999ZM104.273 36.5C104.273 45.1136 100.889 51.8821 94.8735 57.8793C88.8217 63.9127 80.129 69.1419 69.5635 74.612L70.483 76.388C81.0675 70.9081 89.9998 65.5623 96.2855 59.2957C102.607 52.9929 106.273 45.7364 106.273 36.5H104.273ZM69.5505 74.6188L40.7505 90.0688L41.696 91.8312L70.496 76.3812L69.5505 74.6188ZM41.2232 91.95H107.823V89.95H41.2232V91.95ZM106.823 90.95V110H108.823V90.95H106.823ZM107.823 109H2.67324V111H107.823V109ZM3.67324 110V92.45H1.67324V110H3.67324Z" fill="white" mask="url(#path-1-outside-1_1_4410)"/>
</svg>
