<svg width="58" height="59" viewBox="0 0 58 59" fill="none" xmlns="http://www.w3.org/2000/svg">
<path d="M1.35906 49.64L0.881464 48.7614L0.359063 49.0454V49.64H1.35906ZM28.8791 34.68L29.3567 35.5586L29.361 35.5562L28.8791 34.68ZM11.1191 25.4L10.8731 26.3693L11.9096 26.6323L12.1026 25.5805L11.1191 25.4ZM0.399063 22.68L-0.583665 22.4949L-0.75753 23.4182L0.153124 23.6493L0.399063 22.68ZM37.2791 40.6L36.8193 39.712L36.8128 39.7153L36.8063 39.7188L37.2791 40.6ZM21.9191 48.84L21.4463 47.9588L21.9191 49.84V48.84ZM57.4391 48.84H58.4391V47.84H57.4391V48.84ZM57.4391 59V60H58.4391V59H57.4391ZM1.35906 59H0.359063V60H1.35906V59ZM1.83666 50.5186L29.3567 35.5586L28.4015 33.8014L0.881464 48.7614L1.83666 50.5186ZM29.361 35.5562C34.106 32.9465 38.0777 30.8901 40.8259 28.6791C43.6399 26.4153 45.3191 23.8744 45.3191 20.28H43.3191C43.3191 23.0856 42.0783 25.1047 39.5722 27.1208C37.0004 29.1899 33.2522 31.1335 28.3971 33.8038L29.361 35.5562ZM45.3191 20.28C45.3191 17.0687 43.7205 14.378 41.0369 12.5268C38.3763 10.6916 34.6615 9.68 30.3191 9.68V11.68C34.3767 11.68 37.6619 12.6284 39.9013 14.1732C42.1177 15.702 43.3191 17.8113 43.3191 20.28H45.3191ZM30.3191 9.68C19.5706 9.68 11.832 15.9733 10.1355 25.2195L12.1026 25.5805C13.6061 17.3867 20.4275 11.68 30.3191 11.68V9.68ZM11.365 24.4307L0.645001 21.7107L0.153124 23.6493L10.8731 26.3693L11.365 24.4307ZM1.38179 22.8651C3.60154 11.0774 13.7765 1.68 30.8791 1.68V-0.320004C12.9416 -0.320004 1.83659 9.64257 -0.583665 22.4949L1.38179 22.8651ZM30.8791 1.68C37.9934 1.68 44.0694 3.5573 48.3402 6.75085C52.592 9.93018 55.0791 14.4243 55.0791 19.8H57.0791C57.0791 13.7357 54.2462 8.66982 49.5379 5.14914C44.8487 1.6427 38.3247 -0.320004 30.8791 -0.320004V1.68ZM55.0791 19.8C55.0791 24.2486 53.3398 27.7446 50.203 30.8718C47.03 34.0352 42.4498 36.7969 36.8193 39.712L37.7388 41.488C43.3883 38.5631 48.2081 35.6848 51.6151 32.2882C55.0583 28.8554 57.0791 24.8714 57.0791 19.8H55.0791ZM36.8063 39.7188L21.4463 47.9588L22.3918 49.7212L37.7518 41.4812L36.8063 39.7188ZM21.9191 49.84H57.4391V47.84H21.9191V49.84ZM56.4391 48.84V59H58.4391V48.84H56.4391ZM57.4391 58H1.35906V60H57.4391V58ZM2.35906 59V49.64H0.359063V59H2.35906Z" fill="white"/>
</svg>
