<svg width="114" height="112" viewBox="0 0 114 112" fill="none" xmlns="http://www.w3.org/2000/svg">
<mask id="path-1-outside-1_1_4412" maskUnits="userSpaceOnUse" x="-2" y="-1" width="117" height="114" fill="black">
<rect fill="white" x="-2" y="-1" width="117" height="114"/>
<path d="M58.7295 111.65C27.9795 111.65 6.37949 98.45 0.0794922 79.55L20.0295 71C24.5295 83.6 39.2295 93.2 58.7295 93.2C76.8795 93.2 90.8295 87.5 90.8295 77.45C90.8295 67.4 77.6295 63.8 61.4295 63.8H41.6295V45.8H60.9795C77.1795 45.8 87.3795 41.75 87.3795 32.9C87.3795 24.5 76.4295 19.25 59.6295 19.25C40.5795 19.25 27.2295 28.25 23.1795 39.5L3.67949 32.15C9.82949 14.75 30.2295 0.649995 60.5295 0.649995C91.5795 0.649995 110.63 13.55 110.63 31.25C110.63 42.2 103.429 51.05 91.4295 54.2C105.529 57.65 113.929 65.75 113.929 79.1C113.929 96.5 92.9295 111.65 58.7295 111.65Z"/>
</mask>
<path d="M0.0794922 79.55L-0.314427 78.6309L-1.16016 78.9933L-0.869191 79.8662L0.0794922 79.55ZM20.0295 71L20.9712 70.6637L20.6134 69.6618L19.6356 70.0808L20.0295 71ZM41.6295 63.8H40.6295V64.8H41.6295V63.8ZM41.6295 45.8V44.8H40.6295V45.8H41.6295ZM23.1795 39.5L22.8268 40.4357L23.7766 40.7937L24.1204 39.8387L23.1795 39.5ZM3.67949 32.15L2.73665 31.8167L2.41024 32.7403L3.32679 33.0857L3.67949 32.15ZM91.4295 54.2L91.1756 53.2328L91.1918 55.1713L91.4295 54.2ZM58.7295 110.65C28.2145 110.65 7.13909 97.5665 1.02818 79.2338L-0.869191 79.8662C5.6199 99.3335 27.7445 112.65 58.7295 112.65V110.65ZM0.473412 80.4691L20.4234 71.9191L19.6356 70.0808L-0.314427 78.6309L0.473412 80.4691ZM19.0878 71.3363C23.7697 84.4457 38.9388 94.2 58.7295 94.2V92.2C39.5202 92.2 25.2893 82.7543 20.9712 70.6637L19.0878 71.3363ZM58.7295 94.2C67.8897 94.2 76.0737 92.7644 82.008 90.0002C87.9329 87.2404 91.8295 83.0322 91.8295 77.45H89.8295C89.8295 81.9178 86.7511 85.5846 81.1635 88.1873C75.5853 90.7856 67.7193 92.2 58.7295 92.2V94.2ZM91.8295 77.45C91.8295 71.8525 88.1015 68.1652 82.5798 65.9294C77.0783 63.7016 69.577 62.8 61.4295 62.8V64.8C69.482 64.8 76.6807 65.6984 81.8292 67.7831C86.9575 69.8598 89.8295 72.9975 89.8295 77.45H91.8295ZM61.4295 62.8H41.6295V64.8H61.4295V62.8ZM42.6295 63.8V45.8H40.6295V63.8H42.6295ZM41.6295 46.8H60.9795V44.8H41.6295V46.8ZM60.9795 46.8C69.135 46.8 75.9056 45.7848 80.6747 43.5762C85.495 41.3438 88.3795 37.8213 88.3795 32.9H86.3795C86.3795 36.8287 84.164 39.7561 79.8343 41.7613C75.4534 43.7902 69.024 44.8 60.9795 44.8V46.8ZM88.3795 32.9C88.3795 28.176 85.2749 24.4837 80.2433 22.0264C75.219 19.5727 68.1137 18.25 59.6295 18.25V20.25C67.9453 20.25 74.715 21.5523 79.3657 23.8236C84.009 26.0913 86.3795 29.224 86.3795 32.9H88.3795ZM59.6295 18.25C40.2983 18.25 26.4738 27.3969 22.2386 39.1613L24.1204 39.8387C27.9852 29.1031 40.8607 20.25 59.6295 20.25V18.25ZM23.5322 38.5643L4.03219 31.2143L3.32679 33.0857L22.8268 40.4357L23.5322 38.5643ZM4.62233 32.4832C10.589 15.602 30.5113 1.64999 60.5295 1.64999V-0.350006C29.9477 -0.350006 9.07001 13.898 2.73665 31.8167L4.62233 32.4832ZM60.5295 1.64999C75.9314 1.64999 88.254 4.85165 96.6908 10.1589C105.105 15.4523 109.63 22.811 109.63 31.25H111.63C111.63 21.989 106.629 14.0477 97.7557 8.46605C88.905 2.89835 76.1776 -0.350006 60.5295 -0.350006V1.64999ZM109.63 31.25C109.63 41.6866 102.796 50.1825 91.1756 53.2328L91.6834 55.1672C104.063 51.9175 111.63 42.7134 111.63 31.25H109.63ZM91.1918 55.1713C98.1203 56.8666 103.548 59.6808 107.237 63.621C110.909 67.5424 112.929 72.6526 112.929 79.1H114.929C114.929 72.1974 112.75 66.5826 108.697 62.254C104.661 57.9442 98.8387 54.9834 91.6672 53.2287L91.1918 55.1713ZM112.929 79.1C112.929 87.3573 107.951 95.2137 98.6239 101.052C89.2966 106.891 75.6933 110.65 58.7295 110.65V112.65C75.9657 112.65 89.9624 108.834 99.6851 102.748C109.408 96.6613 114.929 88.2427 114.929 79.1H112.929Z" fill="white" mask="url(#path-1-outside-1_1_4412)"/>
</svg>
