<svg width="62" height="60" viewBox="0 0 62 60" fill="none" xmlns="http://www.w3.org/2000/svg">
<path d="M0.609062 42.76L0.215143 41.8409L-0.630592 42.2033L-0.339621 43.0762L0.609062 42.76ZM11.2491 38.2L12.1908 37.8637L11.833 36.8618L10.8551 37.2809L11.2491 38.2ZM22.7691 34.36H21.7691V35.36H22.7691V34.36ZM22.7691 24.76V23.76H21.7691V24.76H22.7691ZM12.9291 21.4L12.5764 22.3357L13.5261 22.6937L13.87 21.7387L12.9291 21.4ZM2.52906 17.48L1.58622 17.1468L1.25981 18.0703L2.17636 18.4157L2.52906 17.48ZM49.3291 29.24L49.0752 28.2728L49.0914 30.2113L49.3291 29.24ZM31.8891 58.88C15.7241 58.88 4.72866 51.9565 1.55775 42.4438L-0.339621 43.0762C3.20947 53.7235 15.254 60.88 31.8891 60.88V58.88ZM1.00298 43.6791L11.643 39.1191L10.8551 37.2809L0.215143 41.8409L1.00298 43.6791ZM10.3073 38.5363C12.8892 45.7657 21.1984 51.04 31.8891 51.04V49.04C21.7797 49.04 14.4089 44.0743 12.1908 37.8637L10.3073 38.5363ZM31.8891 51.04C36.8142 51.04 41.2533 50.2694 44.5013 48.7565C47.74 47.2479 50.0091 44.8772 50.0091 41.64H48.0091C48.0091 43.7628 46.5582 45.5921 43.6568 46.9435C40.7648 48.2906 36.6439 49.04 31.8891 49.04V51.04ZM50.0091 41.64C50.0091 38.3875 47.8211 36.2927 44.7844 35.0631C41.7679 33.8416 37.6966 33.36 33.3291 33.36V35.36C37.6015 35.36 41.3703 35.8384 44.0337 36.9169C46.6771 37.9873 48.0091 39.5325 48.0091 41.64H50.0091ZM33.3291 33.36H22.7691V35.36H33.3291V33.36ZM23.7691 34.36V24.76H21.7691V34.36H23.7691ZM22.7691 25.76H33.0891V23.76H22.7691V25.76ZM33.0891 25.76C37.4645 25.76 41.1552 25.2173 43.7893 23.9974C46.4745 22.7538 48.1691 20.7363 48.1691 17.88H46.1691C46.1691 19.7437 45.1436 21.1662 42.9488 22.1826C40.7029 23.2227 37.3536 23.76 33.0891 23.76V25.76ZM48.1691 17.88C48.1691 15.116 46.342 13.0162 43.5679 11.6614C40.8011 10.3102 36.9332 9.6 32.3691 9.6V11.6C36.7649 11.6 40.297 12.2898 42.6902 13.4586C45.0761 14.6238 46.1691 16.164 46.1691 17.88H48.1691ZM32.3691 9.6C21.9278 9.6 14.3334 14.5469 11.9882 21.0613L13.87 21.7387C15.8448 16.2531 22.4903 11.6 32.3691 11.6V9.6ZM13.2818 20.4643L2.88176 16.5443L2.17636 18.4157L12.5764 22.3357L13.2818 20.4643ZM3.4719 17.8132C6.56855 9.05201 16.9709 1.68 32.8491 1.68V-0.320004C16.4073 -0.320004 5.04958 7.34799 1.58622 17.1468L3.4719 17.8132ZM32.8491 1.68C41.006 1.68 47.4836 3.37665 51.8866 6.14645C56.2675 8.90231 58.5691 12.691 58.5691 17H60.5691C60.5691 11.869 57.7907 7.49769 52.9515 4.45355C48.1346 1.42335 41.2521 -0.320004 32.8491 -0.320004V1.68ZM58.5691 17C58.5691 22.3266 55.0953 26.6925 49.0752 28.2728L49.583 30.2072C56.3629 28.4275 60.5691 23.3534 60.5691 17H58.5691ZM49.0914 30.2113C52.7298 31.1016 55.5322 32.5683 57.4191 34.5835C59.2885 36.5799 60.3291 39.1876 60.3291 42.52H62.3291C62.3291 38.7324 61.1297 35.6201 58.879 33.2165C56.646 30.8317 53.4483 29.2184 49.5667 28.2687L49.0914 30.2113ZM60.3291 42.52C60.3291 46.7173 57.8006 50.7762 52.9185 53.8324C48.0362 56.8886 40.8729 58.88 31.8891 58.88V60.88C41.1452 60.88 48.702 58.8314 53.9797 55.5276C59.2575 52.2238 62.3291 47.6027 62.3291 42.52H60.3291Z" fill="white"/>
</svg>
