<svg width="122" height="108" viewBox="0 0 122 108" fill="none" xmlns="http://www.w3.org/2000/svg">
<mask id="path-1-outside-1_1_4414" maskUnits="userSpaceOnUse" x="-1" y="-1" width="124" height="110" fill="black">
<rect fill="white" x="-1" y="-1" width="124" height="110"/>
<path d="M93.3068 108H72.1568V82.2H0.756836V65.1L64.6568 0.299992H93.3068V64.2H121.207V82.2H93.3068V108ZM26.4068 64.2H72.1568V18.3L26.4068 64.2Z"/>
</mask>
<path d="M93.3068 108V109H94.3068V108H93.3068ZM72.1568 108H71.1568V109H72.1568V108ZM72.1568 82.2H73.1568V81.2H72.1568V82.2ZM0.756836 82.2H-0.243164V83.2H0.756836V82.2ZM0.756836 65.1L0.0448018 64.3979L-0.243164 64.6899V65.1H0.756836ZM64.6568 0.299992V-0.700008H64.2385L63.9448 -0.402153L64.6568 0.299992ZM93.3068 0.299992H94.3068V-0.700008H93.3068V0.299992ZM93.3068 64.2H92.3068V65.2H93.3068V64.2ZM121.207 64.2H122.207V63.2H121.207V64.2ZM121.207 82.2V83.2H122.207V82.2H121.207ZM93.3068 82.2V81.2H92.3068V82.2H93.3068ZM26.4068 64.2L25.6986 63.494L23.9982 65.2H26.4068V64.2ZM72.1568 64.2V65.2H73.1568V64.2H72.1568ZM72.1568 18.3H73.1568V15.8802L71.4486 17.594L72.1568 18.3ZM93.3068 107H72.1568V109H93.3068V107ZM73.1568 108V82.2H71.1568V108H73.1568ZM72.1568 81.2H0.756836V83.2H72.1568V81.2ZM1.75684 82.2V65.1H-0.243164V82.2H1.75684ZM1.46887 65.8021L65.3689 1.00214L63.9448 -0.402153L0.0448018 64.3979L1.46887 65.8021ZM64.6568 1.29999H93.3068V-0.700008H64.6568V1.29999ZM92.3068 0.299992V64.2H94.3068V0.299992H92.3068ZM93.3068 65.2H121.207V63.2H93.3068V65.2ZM120.207 64.2V82.2H122.207V64.2H120.207ZM121.207 81.2H93.3068V83.2H121.207V81.2ZM92.3068 82.2V108H94.3068V82.2H92.3068ZM26.4068 65.2H72.1568V63.2H26.4068V65.2ZM73.1568 64.2V18.3H71.1568V64.2H73.1568ZM71.4486 17.594L25.6986 63.494L27.1151 64.9059L72.8651 19.0059L71.4486 17.594Z" fill="white" mask="url(#path-1-outside-1_1_4414)"/>
</svg>
