<svg width="114" height="110" viewBox="0 0 114 110" fill="none" xmlns="http://www.w3.org/2000/svg">
<mask id="path-1-outside-1_430_1031" maskUnits="userSpaceOnUse" x="-1" y="-1" width="116" height="112" fill="black">
<rect fill="white" x="-1" y="-1" width="116" height="112"/>
<path d="M25.0352 62.85L7.93516 58.2L14.9852 0.299992H104.835V19.35H31.6352L28.4852 42.75C35.0852 39 46.4852 34.8 61.9352 34.8C91.4852 34.8 113.535 48.9 113.535 71.7C113.535 94.65 89.6852 109.65 58.4852 109.65C28.9352 109.65 6.28516 97.35 0.285156 77.55L20.0852 69.15C25.7852 83.55 38.9852 91.2 58.6352 91.2C76.7852 91.2 91.3352 84.6 91.3352 72C91.3352 60 77.8352 52.65 57.7352 52.65C43.4852 52.65 32.6852 57 25.0352 62.85Z"/>
</mask>
<path d="M25.0352 62.85L24.7728 63.815L25.2499 63.9447L25.6426 63.6444L25.0352 62.85ZM7.93516 58.2L6.94249 58.0791L6.83792 58.9379L7.67276 59.165L7.93516 58.2ZM14.9852 0.299992V-0.700008H14.0995L13.9925 0.179123L14.9852 0.299992ZM104.835 0.299992H105.835V-0.700008H104.835V0.299992ZM104.835 19.35V20.35H105.835V19.35H104.835ZM31.6352 19.35V18.35H30.7608L30.6441 19.2166L31.6352 19.35ZM28.4852 42.75L27.4941 42.6166L27.2249 44.6162L28.9792 43.6195L28.4852 42.75ZM0.285156 77.55L-0.105394 76.6294L-0.932395 76.9803L-0.671868 77.84L0.285156 77.55ZM20.0852 69.15L21.015 68.782L20.6379 67.8293L19.6946 68.2294L20.0852 69.15ZM25.2976 61.885L8.19756 57.235L7.67276 59.165L24.7728 63.815L25.2976 61.885ZM8.92783 58.3209L15.9778 0.420861L13.9925 0.179123L6.94249 58.0791L8.92783 58.3209ZM14.9852 1.29999H104.835V-0.700008H14.9852V1.29999ZM103.835 0.299992V19.35H105.835V0.299992H103.835ZM104.835 18.35H31.6352V20.35H104.835V18.35ZM30.6441 19.2166L27.4941 42.6166L29.4762 42.8834L32.6262 19.4834L30.6441 19.2166ZM28.9792 43.6195C35.4361 39.9507 46.6668 35.8 61.9352 35.8V33.8C46.3035 33.8 34.7342 38.0493 27.9911 41.8805L28.9792 43.6195ZM61.9352 35.8C76.5652 35.8 89.2505 39.2923 98.2471 45.5221C107.218 51.7339 112.535 60.6674 112.535 71.7H114.535C114.535 59.9326 108.828 50.4161 99.3857 43.8779C89.9698 37.3577 76.8551 33.8 61.9352 33.8V35.8ZM112.535 71.7C112.535 82.7815 106.793 91.9816 97.1529 98.4509C87.4935 104.933 73.9385 108.65 58.4852 108.65V110.65C74.2319 110.65 88.2018 106.867 98.2674 100.112C108.353 93.3434 114.535 83.5685 114.535 71.7H112.535ZM58.4852 108.65C29.1298 108.65 7.05509 96.4426 1.24218 77.26L-0.671868 77.84C5.51522 98.2574 28.7405 110.65 58.4852 110.65V108.65ZM0.675706 78.4706L20.4757 70.0706L19.6946 68.2294L-0.105394 76.6294L0.675706 78.4706ZM19.1553 69.518C22.0857 76.9211 26.9592 82.6132 33.6311 86.4423C40.2896 90.2637 48.6855 92.2 58.6352 92.2V90.2C48.9348 90.2 40.9058 88.3113 34.6267 84.7077C28.3612 81.1118 23.7846 75.7789 21.015 68.782L19.1553 69.518ZM58.6352 92.2C67.811 92.2 76.1683 90.5348 82.2707 87.2027C88.4003 83.8557 92.3352 78.765 92.3352 72H90.3352C90.3352 77.835 86.9951 82.3443 81.3122 85.4473C75.602 88.5652 67.6094 90.2 58.6352 90.2V92.2ZM92.3352 72C92.3352 65.5534 88.6833 60.4229 82.5658 56.9551C76.4768 53.5033 67.8877 51.65 57.7352 51.65V53.65C67.6826 53.65 75.8936 55.4717 81.5795 58.6949C87.2371 61.9021 90.3352 66.4466 90.3352 72H92.3352ZM57.7352 51.65C43.2707 51.65 32.2562 56.0692 24.4277 62.0556L25.6426 63.6444C33.1141 57.9308 43.6996 53.65 57.7352 53.65V51.65Z" fill="white" mask="url(#path-1-outside-1_430_1031)"/>
</svg>
