<svg width="118" height="112" viewBox="0 0 118 112" fill="none" xmlns="http://www.w3.org/2000/svg">
<mask id="path-1-outside-1_430_1038" maskUnits="userSpaceOnUse" x="-1" y="-1" width="120" height="114" fill="black">
<rect fill="white" x="-1" y="-1" width="120" height="114"/>
<path d="M116.3 23.6L100.85 37.1C94.5498 26 80.2998 18.95 62.7498 18.95C38.1498 18.95 21.6498 33.5 21.1998 51.65C29.5998 42.8 44.5998 37.1 63.6498 37.1C95.5998 37.1 117.05 52.7 117.05 73.55C117.05 95.9 93.6498 111.65 60.4998 111.65C20.4498 111.65 0.499805 88.7 0.499805 58.25C0.499805 24.8 24.1998 0.649995 63.4998 0.649995C88.0998 0.649995 107.45 9.94999 116.3 23.6ZM95.1498 74.15C95.1498 62.6 80.7498 54.8 60.1998 54.8C39.3498 54.8 24.9498 62.6 24.9498 74.15C24.9498 85.85 39.0498 93.5 59.8998 93.5C80.4498 93.5 95.1498 85.85 95.1498 74.15Z"/>
</mask>
<path d="M116.3 23.6L116.958 24.353L117.61 23.7829L117.139 23.056L116.3 23.6ZM100.85 37.1L99.9801 37.5936L100.585 38.6593L101.508 37.853L100.85 37.1ZM21.1998 51.65L20.2001 51.6252L20.1357 54.2237L21.9251 52.3384L21.1998 51.65ZM115.642 22.847L100.192 36.347L101.508 37.853L116.958 24.353L115.642 22.847ZM101.719 36.6064C95.1861 25.0951 80.5303 17.95 62.7498 17.95V19.95C80.0693 19.95 93.9136 26.9049 99.9801 37.5936L101.719 36.6064ZM62.7498 17.95C37.7819 17.95 20.6675 32.7734 20.2001 51.6252L22.1995 51.6748C22.6321 34.2266 38.5177 19.95 62.7498 19.95V17.95ZM21.9251 52.3384C30.0748 43.7522 44.7696 38.1 63.6498 38.1V36.1C44.43 36.1 29.1249 41.8478 20.4745 50.9616L21.9251 52.3384ZM63.6498 38.1C79.4731 38.1 92.6099 41.9642 101.76 48.3273C110.895 54.6798 116.05 63.5066 116.05 73.55H118.05C118.05 62.7434 112.479 53.3452 102.902 46.6852C93.3397 40.0358 79.7765 36.1 63.6498 36.1V38.1ZM116.05 73.55C116.05 84.3317 110.42 93.5698 100.647 100.152C90.858 106.745 76.929 110.65 60.4998 110.65V112.65C77.2206 112.65 91.5666 108.68 101.765 101.811C111.98 94.9302 118.05 85.1183 118.05 73.55H116.05ZM60.4998 110.65C40.6649 110.65 25.9359 104.97 16.1717 95.6455C6.40987 86.3233 1.4998 73.2532 1.4998 58.25H-0.500195C-0.500195 73.6968 4.56474 87.3267 14.7904 97.092C25.0137 106.855 40.2847 112.65 60.4998 112.65V110.65ZM1.4998 58.25C1.4998 41.7694 7.33273 27.6433 17.9483 17.6338C28.5675 7.62095 44.0559 1.65 63.4998 1.65V-0.350005C43.6437 -0.350005 27.6321 5.75404 16.5763 16.1787C5.51688 26.6066 -0.500195 41.2806 -0.500195 58.25H1.4998ZM63.4998 1.65C87.8867 1.65 106.854 10.8698 115.461 24.144L117.139 23.056C108.045 9.03013 88.3129 -0.350005 63.4998 -0.350005V1.65ZM96.1498 74.15C96.1498 67.8908 92.2307 62.7708 85.8631 59.2676C79.5025 55.7683 70.5845 53.8 60.1998 53.8V55.8C70.3651 55.8 78.9221 57.7317 84.899 61.0199C90.8689 64.3042 94.1498 68.8592 94.1498 74.15H96.1498ZM60.1998 53.8C49.6671 53.8 40.6746 55.7676 34.2763 59.2664C27.8702 62.7694 23.9498 67.8897 23.9498 74.15H25.9498C25.9498 68.8603 29.2294 64.3056 35.2358 61.0211C41.25 57.7324 49.8825 55.8 60.1998 55.8V53.8ZM23.9498 74.15C23.9498 80.4735 27.7816 85.5974 34.1238 89.0885C40.4504 92.5711 49.3705 94.5 59.8998 94.5V92.5C49.5791 92.5 41.0242 90.6039 35.0883 87.3365C29.168 84.0776 25.9498 79.5265 25.9498 74.15H23.9498ZM59.8998 94.5C70.2816 94.5 79.2723 92.5702 85.7066 89.0922C92.1478 85.6104 96.1498 80.4909 96.1498 74.15H94.1498C94.1498 79.5091 90.8018 84.0646 84.7555 87.3328C78.7024 90.6048 70.068 92.5 59.8998 92.5V94.5Z" fill="white" mask="url(#path-1-outside-1_430_1038)"/>
</svg>
