<svg width="109" height="108" viewBox="0 0 109 108" fill="none" xmlns="http://www.w3.org/2000/svg">
<mask id="path-1-outside-1_430_1039" maskUnits="userSpaceOnUse" x="-1" y="-1" width="111" height="110" fill="black">
<rect fill="white" x="-1" y="-1" width="111" height="110"/>
<path d="M84.8557 19.05H19.4557V40.2H0.555664V0.299992H108.406V19.95C80.6557 45.75 67.0057 72 67.0057 108H44.5057C44.5057 68.1 62.6557 39.75 84.8557 19.05Z"/>
</mask>
<path d="M84.8557 19.05L85.5376 19.7814L87.3945 18.05H84.8557V19.05ZM19.4557 19.05V18.05H18.4557V19.05H19.4557ZM19.4557 40.2V41.2H20.4557V40.2H19.4557ZM0.555664 40.2H-0.444336V41.2H0.555664V40.2ZM0.555664 0.299992V-0.700008H-0.444336V0.299992H0.555664ZM108.406 0.299992H109.406V-0.700008H108.406V0.299992ZM108.406 19.95L109.087 20.6824L109.406 20.3857V19.95H108.406ZM67.0057 108V109H68.0057V108H67.0057ZM44.5057 108H43.5057V109H44.5057V108ZM84.8557 18.05H19.4557V20.05H84.8557V18.05ZM18.4557 19.05V40.2H20.4557V19.05H18.4557ZM19.4557 39.2H0.555664V41.2H19.4557V39.2ZM1.55566 40.2V0.299992H-0.444336V40.2H1.55566ZM0.555664 1.29999H108.406V-0.700008H0.555664V1.29999ZM107.406 0.299992V19.95H109.406V0.299992H107.406ZM107.725 19.2176C79.8134 45.1676 66.0057 71.6694 66.0057 108H68.0057C68.0057 72.3306 81.4979 46.3324 109.087 20.6824L107.725 19.2176ZM67.0057 107H44.5057V109H67.0057V107ZM45.5057 108C45.5057 68.449 63.4814 40.3474 85.5376 19.7814L84.1737 18.3186C61.83 39.1526 43.5057 67.751 43.5057 108H45.5057Z" fill="white" mask="url(#path-1-outside-1_430_1039)"/>
</svg>
