<svg width="118" height="112" viewBox="0 0 118 112" fill="none" xmlns="http://www.w3.org/2000/svg">
<mask id="path-1-outside-1_430_1040" maskUnits="userSpaceOnUse" x="-1" y="-1" width="120" height="114" fill="black">
<rect fill="white" x="-1" y="-1" width="120" height="114"/>
<path d="M59.0322 0.649995C87.2322 0.649995 110.032 11.15 110.032 30.95C110.032 42.65 101.632 49.25 90.6822 53.9C105.382 57.65 117.532 65.6 117.532 80C117.532 101 91.7322 111.65 59.0322 111.65C26.3322 111.65 0.532227 101 0.532227 80C0.532227 65.6 12.6822 57.65 27.3822 53.9C16.4322 49.25 7.88223 42.65 7.88223 30.95C7.88223 11.15 30.8322 0.649995 59.0322 0.649995ZM59.0322 45.5C76.4322 45.5 88.4322 41 88.4322 31.7C88.4322 22.55 76.4322 18.05 59.0322 18.05C41.6322 18.05 29.6322 22.55 29.6322 31.7C29.6322 41 41.6322 45.5 59.0322 45.5ZM59.0322 62.75C37.4322 62.75 22.7322 68 22.7322 78.2C22.7322 88.85 37.4322 94.1 59.0322 94.1C80.4822 94.1 95.3322 88.85 95.3322 78.2C95.3322 68 80.4822 62.75 59.0322 62.75Z"/>
</mask>
<path d="M90.6822 53.9L90.2914 52.9796L87.5658 54.137L90.435 54.869L90.6822 53.9ZM27.3822 53.9L27.6294 54.869L30.4987 54.137L27.7731 52.9796L27.3822 53.9ZM59.0322 1.65C73.0281 1.65 85.5946 4.25864 94.6234 9.25016C103.626 14.2271 109.032 21.5118 109.032 30.95H111.032C111.032 20.5882 105.039 12.7228 95.5911 7.49983C86.1698 2.29135 73.2363 -0.350005 59.0322 -0.350005V1.65ZM109.032 30.95C109.032 42.0138 101.152 48.3675 90.2914 52.9796L91.0731 54.8204C102.112 50.1325 111.032 43.2862 111.032 30.95H109.032ZM90.435 54.869C97.7014 56.7226 104.249 59.5944 108.962 63.7095C113.647 67.7997 116.532 73.1231 116.532 80H118.532C118.532 72.4769 115.343 66.6253 110.277 62.203C105.241 57.8056 98.3631 54.8274 90.9294 52.931L90.435 54.869ZM116.532 80C116.532 89.9977 110.423 97.6245 100.096 102.806C89.7485 107.999 75.2951 110.65 59.0322 110.65V112.65C75.4693 112.65 90.266 109.976 100.993 104.594C111.742 99.2005 118.532 91.0023 118.532 80H116.532ZM59.0322 110.65C42.7693 110.65 28.316 107.999 17.9682 102.806C7.64154 97.6245 1.53223 89.9977 1.53223 80H-0.467773C-0.467773 91.0023 6.32291 99.2005 17.0712 104.594C27.7985 109.976 42.5951 112.65 59.0322 112.65V110.65ZM1.53223 80C1.53223 73.1231 4.41762 67.7997 9.10241 63.7095C13.8158 59.5944 20.3631 56.7226 27.6294 54.869L27.135 52.931C19.7014 54.8274 12.8236 57.8056 7.78704 62.203C2.72184 66.6253 -0.467773 72.4769 -0.467773 80H1.53223ZM27.7731 52.9796C16.9027 48.3633 8.88223 42.0076 8.88223 30.95H6.88223C6.88223 43.2924 15.9618 50.1367 26.9914 54.8204L27.7731 52.9796ZM8.88223 30.95C8.88223 21.5147 14.3227 14.2295 23.3646 9.25099C32.4316 4.25862 45.0364 1.65 59.0322 1.65V-0.350005C44.8281 -0.350005 31.8579 2.29137 22.3999 7.499C12.9167 12.7205 6.88223 20.5853 6.88223 30.95H8.88223ZM59.0322 46.5C67.7942 46.5 75.3037 45.3705 80.6615 43.0021C86.0387 40.6252 89.4322 36.8953 89.4322 31.7H87.4322C87.4322 35.8047 84.8257 38.9748 79.8529 41.1729C74.8608 43.3795 67.6702 44.5 59.0322 44.5V46.5ZM89.4322 31.7C89.4322 26.5724 86.0296 22.8825 80.6587 20.5279C75.3025 18.1797 67.7947 17.05 59.0322 17.05V19.05C67.6698 19.05 74.862 20.1703 79.8557 22.3596C84.8349 24.5425 87.4322 27.6776 87.4322 31.7H89.4322ZM59.0322 17.05C50.2698 17.05 42.762 18.1797 37.4057 20.5279C32.0349 22.8825 28.6322 26.5724 28.6322 31.7H30.6322C30.6322 27.6776 33.2296 24.5425 38.2087 22.3596C43.2025 20.1703 50.3947 19.05 59.0322 19.05V17.05ZM28.6322 31.7C28.6322 36.8953 32.0257 40.6252 37.4029 43.0021C42.7608 45.3705 50.2702 46.5 59.0322 46.5V44.5C50.3942 44.5 43.2037 43.3795 38.2115 41.1729C33.2387 38.9748 30.6322 35.8047 30.6322 31.7H28.6322ZM59.0322 61.75C48.1736 61.75 38.9519 63.0666 32.4061 65.7234C25.8744 68.3745 21.7322 72.4984 21.7322 78.2H23.7322C23.7322 73.7016 26.94 70.1005 33.1583 67.5766C39.3625 65.0584 48.2908 63.75 59.0322 63.75V61.75ZM21.7322 78.2C21.7322 84.1075 25.8486 88.3509 32.3992 91.0675C38.9491 93.7838 48.1747 95.1 59.0322 95.1V93.1C48.2898 93.1 39.3654 91.7912 33.1653 89.22C26.9658 86.6491 23.7322 82.9425 23.7322 78.2H21.7322ZM59.0322 95.1C69.8157 95.1 79.0404 93.7835 85.6081 91.0679C92.1728 88.3534 96.3322 84.1116 96.3322 78.2H94.3322C94.3322 82.9384 91.0667 86.6466 84.8439 89.2196C78.624 91.7915 69.6988 93.1 59.0322 93.1V95.1ZM96.3322 78.2C96.3322 72.4943 92.1468 68.372 85.6011 65.723C79.0376 63.0668 69.8167 61.75 59.0322 61.75V63.75C69.6977 63.75 78.6269 65.0582 84.8508 67.577C91.0926 70.103 94.3322 73.7057 94.3322 78.2H96.3322Z" fill="white" mask="url(#path-1-outside-1_430_1040)"/>
</svg>
