<svg width="1440" height="1399" viewBox="0 0 1440 1399" fill="none" xmlns="http://www.w3.org/2000/svg">
<g clip-path="url(#clip0_273_986)">
<rect width="1440" height="1399" fill="#F9FDFF"/>
<g filter="url(#filter0_f_273_986)">
<circle cx="1104" cy="1025" r="507" fill="url(#paint0_linear_273_986)" fill-opacity="0.5"/>
</g>
<g filter="url(#filter1_f_273_986)">
<path d="M455.108 691.676C473.601 570.662 357 505.866 383.828 386.427C430.903 176.841 759.668 614.22 716.02 824.549C697.729 912.688 669.85 966.744 600.358 1023.86C474.234 1127.52 256.482 1169.5 182.539 1023.86C106.555 874.191 429.746 857.64 455.108 691.676Z" fill="#3B53F6" fill-opacity="0.2"/>
</g>
<g filter="url(#filter2_f_273_986)">
<circle cx="1440" cy="757" r="201" fill="#F9FDFF"/>
</g>
</g>
<defs>
<filter id="filter0_f_273_986" x="197" y="118" width="1814" height="1814" filterUnits="userSpaceOnUse" color-interpolation-filters="sRGB">
<feFlood flood-opacity="0" result="BackgroundImageFix"/>
<feBlend mode="normal" in="SourceGraphic" in2="BackgroundImageFix" result="shape"/>
<feGaussianBlur stdDeviation="200" result="effect1_foregroundBlur_273_986"/>
</filter>
<filter id="filter1_f_273_986" x="-229" y="-69" width="1349" height="1587" filterUnits="userSpaceOnUse" color-interpolation-filters="sRGB">
<feFlood flood-opacity="0" result="BackgroundImageFix"/>
<feBlend mode="normal" in="SourceGraphic" in2="BackgroundImageFix" result="shape"/>
<feGaussianBlur stdDeviation="200" result="effect1_foregroundBlur_273_986"/>
</filter>
<filter id="filter2_f_273_986" x="839" y="156" width="1202" height="1202" filterUnits="userSpaceOnUse" color-interpolation-filters="sRGB">
<feFlood flood-opacity="0" result="BackgroundImageFix"/>
<feBlend mode="normal" in="SourceGraphic" in2="BackgroundImageFix" result="shape"/>
<feGaussianBlur stdDeviation="200" result="effect1_foregroundBlur_273_986"/>
</filter>
<linearGradient id="paint0_linear_273_986" x1="1104" y1="518" x2="1104" y2="1532" gradientUnits="userSpaceOnUse">
<stop stop-color="#9DABC5" stop-opacity="0.25"/>
<stop offset="1" stop-color="#9DABC5"/>
</linearGradient>
<clipPath id="clip0_273_986">
<rect width="1440" height="1399" fill="white"/>
</clipPath>
</defs>
</svg>
