<svg width="1920" height="1080" viewBox="0 0 1920 1080" fill="none" xmlns="http://www.w3.org/2000/svg">
<g clip-path="url(#clip0_1_14068)">
<rect width="1920" height="1080" fill="#10131B"/>
<g opacity="0.8">
<g filter="url(#filter0_f_1_14068)">
<path d="M1344.8 904.443C1373.82 1128.98 1097.11 1340.98 726.74 1377.95C356.371 1414.93 -43.1753 793.896 -72.2015 569.36C-101.228 344.823 283.759 887.716 654.128 850.741C1024.5 813.765 1315.77 679.907 1344.8 904.443Z" fill="#3B53F6"/>
</g>
<g filter="url(#filter1_f_1_14068)">
<path d="M262.519 1015.48C155.03 909.678 148.887 828.923 95.2494 704.896C-8.28857 465.484 67.9674 308.259 -55.0939 73.3494C-306.193 -405.969 -740.405 1102.83 -122.798 1378.64C265.45 1552.02 1401.52 1593.58 1059.04 1378.64C922.261 1292.8 791.352 1301.86 636.883 1231.99C477.466 1159.89 372.211 1123.45 262.519 1015.48Z" fill="url(#paint0_linear_1_14068)"/>
</g>
<g filter="url(#filter2_f_1_14068)">
<path d="M1229.14 793.208C1057.4 805.492 945.042 870.802 835.339 1022.11C613.101 1328.64 1902.68 1420.24 1724.6 1085.28C1612.32 874.082 1448.51 777.518 1229.14 793.208Z" fill="#FF5C00"/>
</g>
<g filter="url(#filter3_f_1_14068)">
<path d="M1233.99 995.178C1091.26 1003.43 998.103 1049.73 907.491 1157.46C723.929 1375.69 1796.41 1445.02 1647.05 1205.26C1552.87 1054.09 1416.31 984.637 1233.99 995.178Z" fill="#FFE2D1"/>
</g>
</g>
</g>
<defs>
<filter id="filter0_f_1_14068" x="-393.747" y="194.754" width="2060.63" height="1504.78" filterUnits="userSpaceOnUse" color-interpolation-filters="sRGB">
<feFlood flood-opacity="0" result="BackgroundImageFix"/>
<feBlend mode="normal" in="SourceGraphic" in2="BackgroundImageFix" result="shape"/>
<feGaussianBlur stdDeviation="160" result="effect1_foregroundBlur_1_14068"/>
</filter>
<filter id="filter1_f_1_14068" x="-689" y="-270" width="2061.55" height="2044.67" filterUnits="userSpaceOnUse" color-interpolation-filters="sRGB">
<feFlood flood-opacity="0" result="BackgroundImageFix"/>
<feBlend mode="normal" in="SourceGraphic" in2="BackgroundImageFix" result="shape"/>
<feGaussianBlur stdDeviation="125" result="effect1_foregroundBlur_1_14068"/>
</filter>
<filter id="filter2_f_1_14068" x="489.503" y="471.564" width="1572.04" height="1146.14" filterUnits="userSpaceOnUse" color-interpolation-filters="sRGB">
<feFlood flood-opacity="0" result="BackgroundImageFix"/>
<feBlend mode="normal" in="SourceGraphic" in2="BackgroundImageFix" result="shape"/>
<feGaussianBlur stdDeviation="160" result="effect1_foregroundBlur_1_14068"/>
</filter>
<filter id="filter3_f_1_14068" x="566.282" y="674.137" width="1415.09" height="1001.74" filterUnits="userSpaceOnUse" color-interpolation-filters="sRGB">
<feFlood flood-opacity="0" result="BackgroundImageFix"/>
<feBlend mode="normal" in="SourceGraphic" in2="BackgroundImageFix" result="shape"/>
<feGaussianBlur stdDeviation="160" result="effect1_foregroundBlur_1_14068"/>
</filter>
<linearGradient id="paint0_linear_1_14068" x1="50.4452" y1="512.596" x2="250.819" y2="1348.55" gradientUnits="userSpaceOnUse">
<stop stop-color="#FF5C00"/>
<stop offset="1" stop-color="#020611"/>
</linearGradient>
<clipPath id="clip0_1_14068">
<rect width="1920" height="1080" fill="white"/>
</clipPath>
</defs>
</svg>
