<svg width="1920" height="1400" viewBox="0 0 1920 1400" fill="none" xmlns="http://www.w3.org/2000/svg">
<g clip-path="url(#clip0_317_983)">
<rect width="1920" height="1400" fill="#F9FDFF"/>
<g filter="url(#filter0_f_317_983)">
<circle cx="1260.85" cy="1491.66" r="622.33" fill="url(#paint0_linear_317_983)" fill-opacity="0.5"/>
</g>
<g filter="url(#filter1_f_317_983)">
<path d="M464.346 1082.51C487.045 933.97 343.921 854.435 376.851 707.827C434.635 450.565 838.186 987.437 784.61 1245.61C762.158 1353.8 727.937 1420.15 642.637 1490.26C487.823 1617.5 220.537 1669.03 129.775 1490.26C36.5051 1306.55 433.215 1286.23 464.346 1082.51Z" fill="#3B53F6" fill-opacity="0.2"/>
</g>
<g filter="url(#filter2_f_317_983)">
<circle cx="1673.28" cy="1162.7" r="246.723" fill="#F9FDFF"/>
</g>
<g style="mix-blend-mode:soft-light" clip-path="url(#clip1_317_983)">
<path d="M850.262 1748.9C735.343 1748.9 623.866 1726.41 518.921 1682.1C417.552 1639.28 326.512 1577.99 248.341 1499.91C170.17 1421.84 108.784 1330.92 65.9066 1229.69C21.5001 1124.89 -0.999939 1013.56 -0.999939 898.796C-0.999939 784.031 21.5001 672.705 65.8917 567.901C108.769 466.668 170.14 375.751 248.326 297.685C326.498 219.619 417.537 158.316 518.906 115.496C623.852 71.1498 735.343 48.6801 850.262 48.6801C965.182 48.6801 1076.66 71.1498 1181.6 115.482C1282.97 158.302 1374.01 219.59 1452.18 297.671C1530.35 375.737 1591.74 466.653 1634.62 567.886C1679.01 672.69 1701.51 784.016 1701.51 898.781C1701.51 1013.55 1679.01 1124.87 1634.62 1229.68C1591.74 1330.91 1530.37 1421.83 1452.18 1499.89C1374.01 1577.96 1282.97 1639.26 1181.6 1682.08C1076.66 1726.41 965.167 1748.88 850.262 1748.88V1748.9ZM850.262 50.1622C381.694 50.1622 0.484234 430.859 0.484234 898.796C0.484234 1366.73 381.694 1747.43 850.262 1747.43C1318.83 1747.43 1700.04 1366.73 1700.04 898.796C1700.04 430.859 1318.83 50.1622 850.262 50.1622Z" fill="black"/>
<path d="M298.951 1532.68C227.117 1460.95 170.452 1375.06 130.498 1277.37C90.5587 1179.7 69.3498 1075.16 67.4649 966.665C65.5207 854.345 84.4736 742.664 123.804 634.747C163.135 526.829 220.498 429.11 294.291 344.315C365.576 262.41 449.105 195.934 542.563 146.756C636.037 97.5622 734.749 68.141 835.94 59.3072C940.708 50.1622 1043.58 63.6055 1141.66 99.2518C1239.75 134.898 1327.2 190.643 1401.57 264.9C1473.41 336.622 1530.07 422.514 1570.03 520.204C1609.97 617.879 1631.17 722.417 1633.06 830.927C1635 943.246 1616.05 1054.93 1576.72 1162.85C1537.39 1270.76 1480.03 1368.48 1406.23 1453.28C1334.95 1535.18 1251.42 1601.66 1157.95 1650.84C1064.47 1700.03 965.76 1729.45 864.57 1738.28C759.787 1747.43 656.934 1733.99 558.845 1698.34C460.756 1662.69 373.308 1606.95 298.937 1532.69L298.951 1532.68ZM126.58 635.754C-33.533 1075.09 160.834 1550.51 559.869 1695.55C958.904 1840.6 1413.8 1601.17 1573.93 1161.84C1734.04 722.506 1539.68 247.084 1140.64 102.038C741.606 -43.0073 286.707 196.423 126.58 635.754Z" fill="black"/>
<path d="M1651.57 1190.06C1619.46 1278.14 1567.1 1355.9 1495.95 1421.13C1427.26 1484.11 1344.03 1532.84 1248.58 1565.95C1153.18 1599.06 1050.37 1614.89 942.993 1613.04C831.858 1611.11 720.679 1590.22 612.557 1550.91C504.435 1511.6 405.812 1456.26 319.448 1386.39C236.008 1318.89 167.439 1240.75 115.671 1154.16C63.8732 1067.53 31.4886 976.773 19.4074 884.434C6.89586 788.789 16.825 695.619 48.9276 607.534C81.0303 519.448 133.392 441.693 204.543 376.463C273.231 313.485 356.463 264.751 451.895 231.64C547.298 198.543 650.121 182.683 757.486 184.551C868.621 186.478 979.801 207.376 1087.92 246.684C1196.04 285.991 1294.67 341.335 1381.03 411.205C1464.47 478.703 1533.04 556.843 1584.81 643.432C1636.61 730.065 1668.99 820.819 1681.09 913.158C1693.6 1008.8 1683.67 1101.96 1651.57 1190.06ZM53.1278 609.046C-77.0786 966.324 174.563 1386.96 614.115 1546.73C1053.65 1706.49 1517.18 1545.81 1647.4 1188.53C1777.6 831.253 1525.96 410.612 1086.41 250.849C646.871 91.085 183.349 251.768 53.1278 609.046Z" fill="black"/>
<path d="M1589.39 1324.95C1547.7 1397.07 1487.67 1455.74 1410.95 1499.28C1336.95 1541.3 1250.63 1567.58 1154.38 1577.36C1058.22 1587.15 957.004 1579.97 853.527 1556.07C746.429 1531.33 641.587 1489.63 541.896 1432.16C442.204 1374.68 353.628 1304.84 278.618 1224.59C206.146 1147.05 149.317 1063.08 109.719 975.039C70.0919 886.909 49.7142 799.12 49.1503 714.102C48.5714 625.987 69.4241 544.734 111.114 472.611C152.805 400.489 212.84 341.824 289.557 298.278C363.557 256.259 449.877 229.98 546.125 220.197C642.285 210.415 743.506 217.574 846.982 241.496C954.08 266.234 1058.92 307.927 1158.61 365.406C1258.31 422.885 1346.88 492.725 1421.89 572.97C1494.36 650.517 1551.19 734.482 1590.79 822.523C1630.42 910.653 1650.8 998.442 1651.36 1083.46C1651.94 1171.58 1631.09 1252.83 1589.39 1324.95ZM116.265 475.591C34.7835 616.531 34.3827 793.058 115.137 972.623C196.039 1152.53 348.656 1313.91 544.864 1427.04C741.072 1540.18 957.33 1591.48 1153.79 1571.48C1349.89 1551.53 1502.78 1462.93 1584.26 1321.99C1665.74 1181.05 1666.14 1004.53 1585.39 824.954C1504.49 645.048 1351.87 483.668 1155.66 370.534C959.453 257.4 743.194 206.102 546.734 226.096C350.63 246.046 197.746 334.651 116.265 475.591Z" fill="black"/>
<path d="M1504.63 1447.14C1457.73 1502.96 1394.88 1542.5 1317.79 1564.68C1243.54 1586.05 1159.28 1590.48 1067.35 1577.84C975.571 1565.23 880.747 1536.23 785.508 1491.67C686.959 1445.56 592.283 1384.7 504.079 1310.8C415.875 1236.88 339.425 1154.32 276.837 1065.42C216.357 979.5 171.298 891.267 142.92 803.196C114.498 714.977 104.228 631.338 112.421 554.605C120.91 474.939 148.991 406.255 195.89 350.451C242.79 294.632 305.645 255.088 382.733 232.914C456.986 211.541 541.243 207.11 633.172 219.753C724.954 232.366 819.777 261.357 915.017 305.926C1013.57 352.037 1108.24 412.895 1196.45 486.811C1284.65 560.727 1361.1 643.284 1423.69 732.185C1484.17 818.106 1529.23 906.34 1557.6 994.411C1586.03 1082.63 1596.3 1166.27 1588.1 1243C1579.61 1322.65 1551.53 1391.35 1504.63 1447.16V1447.14ZM201.575 355.209C110.595 463.496 92.2803 621.778 150 800.928C207.912 980.671 335.358 1159.73 508.858 1305.12C682.358 1450.51 881.074 1544.76 1068.38 1570.5C1255.06 1596.16 1407.97 1550.66 1498.96 1442.37C1589.94 1334.08 1608.26 1175.8 1550.54 996.649C1492.63 816.906 1365.18 637.844 1191.68 492.458C1018.18 347.071 819.466 252.82 632.163 227.075C445.484 201.418 292.569 246.921 201.59 355.194L201.575 355.209Z" fill="black"/>
<path d="M1399.82 1552.85C1351.88 1593.02 1290.78 1614.49 1218.17 1616.67C1148.43 1618.78 1071.06 1603.05 988.201 1569.94C818.308 1502.06 644.066 1368.66 497.578 1194.31C351.09 1019.96 249.796 825.428 212.35 646.56C194.095 559.319 192.017 480.497 206.205 412.272C220.958 341.261 252.749 284.879 300.688 244.712C348.627 204.545 409.73 183.069 482.321 180.89C552.062 178.785 629.432 194.511 712.293 227.623C882.187 295.507 1056.43 428.902 1202.92 603.25C1349.4 777.599 1450.7 972.134 1488.14 1151C1506.4 1238.24 1508.46 1317.07 1494.29 1385.29C1479.54 1456.3 1447.75 1512.68 1399.81 1552.85H1399.82ZM306.417 251.545C115.715 411.353 204.528 831.713 504.405 1188.61C804.282 1545.5 1203.39 1705.84 1394.09 1546.05C1584.79 1386.24 1495.98 965.879 1196.1 608.986C896.242 252.079 497.118 91.7372 306.417 251.545Z" fill="black"/>
<path d="M1278.12 1638.86C1232.85 1664.96 1177.55 1670.36 1113.79 1654.88C1052.82 1640.09 986.628 1606.89 917.035 1556.23C774.465 1452.43 633.202 1286.73 519.262 1089.64C405.322 892.541 332.256 687.527 313.526 512.334C304.383 426.812 308.702 352.97 326.349 292.839C344.812 229.95 377.138 184.833 422.405 158.717C467.672 132.616 522.972 127.22 586.732 142.694C647.702 157.486 713.896 190.672 783.489 241.348C926.044 345.145 1067.32 510.852 1181.26 707.936C1295.2 905.036 1368.27 1110.05 1387 1285.24C1396.14 1370.76 1391.82 1444.61 1374.18 1504.74C1355.71 1567.63 1323.39 1612.74 1278.12 1638.85V1638.86ZM427.599 167.713C384.722 192.436 353.999 235.523 336.323 295.759C319.047 354.571 314.862 427.064 323.856 511.222C342.438 685.007 415.029 888.584 528.256 1084.45C641.498 1280.32 781.738 1444.89 923.15 1547.84C991.644 1597.7 1056.61 1630.32 1116.24 1644.79C1177.33 1659.61 1230.05 1654.59 1272.92 1629.86C1315.8 1605.14 1346.52 1562.05 1364.22 1501.82C1381.49 1443.01 1385.68 1370.51 1376.68 1286.36C1358.1 1112.57 1285.51 908.993 1172.28 713.124C1059.06 517.255 918.801 352.689 777.389 249.722C708.895 199.862 643.932 167.239 584.298 152.773C523.21 137.951 470.492 142.976 427.614 167.699L427.599 167.713Z" fill="black"/>
<path d="M1143.18 1702.51C1065.81 1730.62 962.852 1672.54 853.275 1538.92C745.02 1406.9 642.478 1216.44 564.544 1002.64C486.625 788.833 442.59 577.12 440.541 406.477C438.478 233.789 479.946 123.189 557.316 95.0721C634.686 66.9553 737.643 125.042 847.22 258.66C955.49 390.677 1058.02 581.136 1135.95 794.94C1213.87 1008.74 1257.91 1220.46 1259.95 1391.1C1262.02 1563.79 1220.55 1674.39 1143.16 1702.51H1143.18ZM561.398 106.218C525.317 119.335 497.519 152.566 478.789 204.99C460.325 256.644 451.45 324.394 452.43 406.344C454.463 575.667 498.246 786.003 575.72 998.591C653.194 1211.16 755.038 1400.39 862.477 1531.42C914.467 1594.83 964.87 1641.02 1012.26 1668.74C1060.36 1696.87 1103.05 1704.49 1139.13 1691.37C1175.21 1678.26 1203.01 1645.03 1221.74 1592.6C1240.2 1540.95 1249.07 1473.2 1248.09 1391.25C1246.06 1221.92 1202.28 1011.59 1124.8 799.001C1047.33 586.428 945.487 397.199 838.047 266.174C786.057 202.767 735.654 156.568 688.265 128.851C640.163 100.719 597.478 93.1008 561.398 106.218Z" fill="black"/>
<path d="M999.11 1741.83C967.512 1747.39 933.272 1729.53 897.31 1688.72C863.738 1650.63 829.647 1593.82 795.986 1519.9C727.091 1368.6 667.382 1161.93 627.829 937.955C588.291 713.984 573.627 499.38 586.54 333.673C592.847 252.701 605.433 187.693 623.941 140.412C643.754 89.7956 669.816 61.3082 701.414 55.7501C733.013 50.1919 767.252 68.0521 803.214 108.856C836.786 146.948 870.877 203.76 904.538 277.676C973.434 428.976 1033.14 635.651 1072.7 859.622C1112.23 1083.59 1126.91 1298.2 1113.98 1463.9C1107.68 1544.88 1095.09 1609.9 1076.58 1657.17C1056.77 1707.78 1030.69 1736.27 999.11 1741.83ZM703.73 68.897C650.151 78.3384 612.29 175.213 599.853 334.725C587.014 499.35 601.634 712.768 640.979 935.658C680.324 1158.55 739.691 1364.08 808.141 1514.39C874.454 1660.03 943.216 1738.14 996.794 1728.69C1050.37 1719.25 1088.23 1622.36 1100.67 1462.87C1113.51 1298.24 1098.89 1084.82 1059.55 861.934C1020.19 639.045 960.833 433.512 892.383 283.205C826.07 137.566 757.308 59.4555 703.73 68.897Z" fill="black"/>
<path d="M850.262 1755.57C827.643 1755.57 807.533 1732.19 788.743 1684.1C771.853 1640.83 756.715 1579.1 743.743 1500.59C717.191 1339.77 702.557 1126.06 702.557 898.781C702.557 671.505 717.176 457.79 743.743 296.974C756.715 218.463 771.853 156.716 788.743 113.466C807.518 65.3694 827.643 41.9955 850.262 41.9955C872.881 41.9955 893.006 65.3694 911.781 113.466C928.671 156.731 943.81 218.463 956.781 296.974C983.333 457.79 997.967 671.505 997.967 898.781C997.967 1126.06 983.348 1339.77 956.781 1500.59C943.81 1579.1 928.671 1640.85 911.781 1684.1C893.006 1732.18 872.881 1755.57 850.262 1755.57ZM850.262 56.832C835.124 56.832 818.189 78.8572 802.576 118.861C786.057 161.162 771.2 221.902 758.392 299.405C731.959 459.45 717.414 672.305 717.414 898.796C717.414 1125.29 731.974 1338.14 758.392 1498.19C771.185 1575.69 786.057 1636.43 802.576 1678.73C818.189 1718.73 835.124 1740.76 850.262 1740.76C865.401 1740.76 882.335 1718.73 897.949 1678.73C914.467 1636.43 929.324 1575.69 942.133 1498.19C968.566 1338.16 983.11 1125.29 983.11 898.796C983.11 672.305 968.551 459.45 942.133 299.405C929.339 221.902 914.467 161.162 897.949 118.861C882.335 78.8572 865.401 56.832 850.262 56.832Z" fill="black"/>
</g>
</g>
<defs>
<filter id="filter0_f_317_983" x="238.515" y="469.329" width="2044.66" height="2044.66" filterUnits="userSpaceOnUse" color-interpolation-filters="sRGB">
<feFlood flood-opacity="0" result="BackgroundImageFix"/>
<feBlend mode="normal" in="SourceGraphic" in2="BackgroundImageFix" result="shape"/>
<feGaussianBlur stdDeviation="200" result="effect1_foregroundBlur_317_983"/>
</filter>
<filter id="filter1_f_317_983" x="-284.39" y="239.791" width="1473.88" height="1766.02" filterUnits="userSpaceOnUse" color-interpolation-filters="sRGB">
<feFlood flood-opacity="0" result="BackgroundImageFix"/>
<feBlend mode="normal" in="SourceGraphic" in2="BackgroundImageFix" result="shape"/>
<feGaussianBlur stdDeviation="200" result="effect1_foregroundBlur_317_983"/>
</filter>
<filter id="filter2_f_317_983" x="1026.55" y="515.973" width="1293.45" height="1293.45" filterUnits="userSpaceOnUse" color-interpolation-filters="sRGB">
<feFlood flood-opacity="0" result="BackgroundImageFix"/>
<feBlend mode="normal" in="SourceGraphic" in2="BackgroundImageFix" result="shape"/>
<feGaussianBlur stdDeviation="200" result="effect1_foregroundBlur_317_983"/>
</filter>
<linearGradient id="paint0_linear_317_983" x1="1260.85" y1="869.329" x2="1260.85" y2="2113.99" gradientUnits="userSpaceOnUse">
<stop stop-color="#9DABC5" stop-opacity="0.25"/>
<stop offset="1" stop-color="#9DABC5"/>
</linearGradient>
<clipPath id="clip0_317_983">
<rect width="1920" height="1400" fill="white"/>
</clipPath>
<clipPath id="clip1_317_983">
<rect width="1702.51" height="1713.56" fill="white" transform="translate(-0.999939 42.0103)"/>
</clipPath>
</defs>
</svg>
