<svg width="32" height="32" viewBox="0 0 32 32" fill="none" xmlns="http://www.w3.org/2000/svg">
<path fill-rule="evenodd" clip-rule="evenodd" d="M22.8343 16.7257C21.0524 17.4472 19.129 17.8922 17.1172 18.0075C16.7703 18.0274 16.4207 18.0374 16.0688 18.0374C15.7169 18.0374 15.3673 18.0274 15.0204 18.0075C13.0081 17.8922 11.0843 17.447 9.30207 16.7252C5.5619 15.2105 2.44533 12.4777 0.444427 9.01872C3.56319 3.62732 9.39238 0 16.0688 0C22.7452 0 28.5744 3.62732 31.6931 9.01872C29.692 12.4781 26.575 15.2112 22.8343 16.7257Z" fill="#7B2CBF"/>
<path d="M9.30181 18.1293C8.87093 17.9548 8.44833 17.7641 8.03475 17.558C6.69067 18.5048 5.55443 19.6841 4.69885 21.0295C6.15311 23.3163 8.41823 25.1231 11.1366 26.1245C12.4319 26.6017 13.8302 26.896 15.2927 26.9722H16.8167C18.2788 26.896 20.8487 28.3445 17.117 32C19.8357 30.9986 25.956 23.3166 27.4105 21.0295C26.5573 19.6879 25.4251 18.5116 24.086 17.5661C23.6773 17.7693 23.2597 17.9574 22.834 18.1298C21.0521 18.8512 19.1287 19.2962 17.117 19.4115C16.77 19.4314 16.4205 19.4415 16.0685 19.4415C15.7166 19.4415 15.367 19.4314 15.0201 19.4115C13.0079 19.2962 11.0841 18.851 9.30181 18.1293Z" fill="#7B2CBF"/>
<rect x="8.53467" y="6.71164" width="15.1011" height="5.39326" rx="2.69663" fill="#162550"/>
<ellipse cx="20.2496" cy="9.37835" rx="0.988765" ry="0.988764" fill="#04FED1"/>
<ellipse cx="16.0547" cy="22.6816" rx="0.988765" ry="0.988764" fill="#162550"/>
<ellipse cx="12.1002" cy="9.37835" rx="0.988765" ry="0.988764" fill="#04FED1"/>
<ellipse cx="12.1002" cy="22.6816" rx="0.988765" ry="0.988764" fill="#162550"/>
<ellipse cx="20.0103" cy="22.6816" rx="0.988765" ry="0.988764" fill="#162550"/>
</svg>
