<svg width="152" height="72" viewBox="0 0 152 72" fill="none" xmlns="http://www.w3.org/2000/svg">
<rect x="104" y="24" width="48" height="48" rx="24" fill="#7B2CBF"/>
<path fill-rule="evenodd" clip-rule="evenodd" d="M135.548 48.2484C133.71 48.9924 131.727 49.4513 129.652 49.5702C129.294 49.5907 128.934 49.6011 128.571 49.6011C128.208 49.6011 127.848 49.5907 127.49 49.5702C125.415 49.4513 123.431 48.9922 121.593 48.2479C117.736 46.6859 114.522 43.8676 112.458 40.3006C115.675 34.7407 121.686 31 128.571 31C135.456 31 141.467 34.7407 144.684 40.3006C142.62 43.868 139.405 46.6865 135.548 48.2484Z" fill="white"/>
<path d="M121.593 49.6958C121.148 49.5158 120.712 49.3192 120.286 49.1067C118.9 50.0831 117.728 51.2992 116.846 52.6866C118.345 55.0449 120.681 56.9082 123.485 57.9409C124.82 58.433 126.262 58.7365 127.771 58.8151H129.342C130.85 58.7365 133.5 60.2303 129.652 63.9999C132.456 62.9673 138.767 55.0452 140.267 52.6866C139.387 51.3032 138.22 50.09 136.839 49.115C136.417 49.3246 135.987 49.5186 135.548 49.6963C133.71 50.4403 131.726 50.8992 129.652 51.0181C129.294 51.0386 128.934 51.049 128.571 51.049C128.208 51.049 127.847 51.0386 127.489 51.0181C125.414 50.8992 123.43 50.4401 121.593 49.6958Z" fill="white"/>
<rect x="120.801" y="37.9214" width="15.573" height="5.5618" rx="2.7809" fill="#162550"/>
<ellipse cx="132.882" cy="40.6714" rx="1.01966" ry="1.01966" fill="#04FED1"/>
<ellipse cx="128.556" cy="54.3904" rx="1.01966" ry="1.01966" fill="#162550"/>
<ellipse cx="124.478" cy="40.6714" rx="1.01966" ry="1.01966" fill="#04FED1"/>
<ellipse cx="124.478" cy="54.3904" rx="1.01966" ry="1.01966" fill="#162550"/>
<ellipse cx="132.636" cy="54.3904" rx="1.01966" ry="1.01966" fill="#162550"/>
<rect width="111" height="28" rx="10" fill="#7B2CBF"/>
<path d="M87 23.5L107.25 11.8087L107.25 35.1913L87 23.5Z" fill="#7B2CBF"/>
<path d="M11.5284 9.40625V8.27273H18.2827V9.40625H15.5597V17H14.2472V9.40625H11.5284ZM20.3271 17.1449C19.9124 17.1449 19.5374 17.0682 19.2021 16.9148C18.8669 16.7585 18.6013 16.5327 18.4053 16.2372C18.2121 15.9418 18.1155 15.5795 18.1155 15.1506C18.1155 14.7812 18.1865 14.4773 18.3286 14.2386C18.4706 14 18.6624 13.8111 18.9038 13.6719C19.1453 13.5327 19.4152 13.4276 19.7135 13.3565C20.0118 13.2855 20.3158 13.2315 20.6254 13.1946C21.0175 13.1491 21.3357 13.1122 21.58 13.0838C21.8243 13.0526 22.0019 13.0028 22.1127 12.9347C22.2235 12.8665 22.2788 12.7557 22.2788 12.6023V12.5724C22.2788 12.2003 22.1737 11.9119 21.9635 11.7074C21.7561 11.5028 21.4465 11.4006 21.0345 11.4006C20.6056 11.4006 20.2675 11.4957 20.0203 11.6861C19.776 11.8736 19.607 12.0824 19.5132 12.3125L18.3158 12.0398C18.4578 11.642 18.6652 11.321 18.9379 11.0767C19.2135 10.8295 19.5303 10.6506 19.8882 10.5398C20.2462 10.4261 20.6226 10.3693 21.0175 10.3693C21.2788 10.3693 21.5558 10.4006 21.8485 10.4631C22.1439 10.5227 22.4195 10.6335 22.6752 10.7955C22.9337 10.9574 23.1453 11.1889 23.3101 11.4901C23.4749 11.7884 23.5573 12.1761 23.5573 12.6534V17H22.3129V16.1051H22.2618C22.1794 16.2699 22.0558 16.4318 21.8911 16.5909C21.7263 16.75 21.5146 16.8821 21.2561 16.9872C20.9976 17.0923 20.6879 17.1449 20.3271 17.1449ZM20.6041 16.1222C20.9564 16.1222 21.2575 16.0526 21.5075 15.9134C21.7604 15.7741 21.9521 15.5923 22.0828 15.3679C22.2163 15.1406 22.2831 14.8977 22.2831 14.6392V13.7955C22.2377 13.8409 22.1496 13.8835 22.0189 13.9233C21.8911 13.9602 21.7448 13.9929 21.58 14.0213C21.4152 14.0469 21.2547 14.071 21.0985 14.0938C20.9422 14.1136 20.8115 14.1307 20.7064 14.1449C20.4592 14.1761 20.2334 14.2287 20.0288 14.3026C19.8271 14.3764 19.6652 14.483 19.5431 14.6222C19.4237 14.7585 19.3641 14.9403 19.3641 15.1676C19.3641 15.483 19.4806 15.7216 19.7135 15.8835C19.9465 16.0426 20.2433 16.1222 20.6041 16.1222ZM26.1685 8.27273V17H24.8943V8.27273H26.1685ZM28.6945 14.7798L28.686 13.2244H28.9076L31.5155 10.4545H33.0411L30.0667 13.608H29.8664L28.6945 14.7798ZM27.5226 17V8.27273H28.7968V17H27.5226ZM31.6562 17L29.3124 13.8892L30.1902 12.9986L33.2201 17H31.6562ZM39.7135 10.4545V11.4773H36.1382V10.4545H39.7135ZM37.097 8.88636H38.3712V15.0781C38.3712 15.3253 38.4081 15.5114 38.482 15.6364C38.5558 15.7585 38.651 15.8423 38.7675 15.8878C38.8868 15.9304 39.0161 15.9517 39.1553 15.9517C39.2575 15.9517 39.347 15.9446 39.4237 15.9304C39.5004 15.9162 39.5601 15.9048 39.6027 15.8963L39.8328 16.9489C39.7589 16.9773 39.6538 17.0057 39.5175 17.0341C39.3811 17.0653 39.2107 17.0824 39.0061 17.0852C38.6709 17.0909 38.3584 17.0312 38.0686 16.9062C37.7788 16.7812 37.5445 16.5881 37.3655 16.3267C37.1865 16.0653 37.097 15.7372 37.097 15.3423V8.88636ZM43.4497 17.1321C42.8361 17.1321 42.3006 16.9915 41.8432 16.7102C41.3858 16.429 41.0307 16.0355 40.7779 15.5298C40.525 15.0241 40.3986 14.4332 40.3986 13.7571C40.3986 13.0781 40.525 12.4844 40.7779 11.9759C41.0307 11.4673 41.3858 11.0724 41.8432 10.7912C42.3006 10.5099 42.8361 10.3693 43.4497 10.3693C44.0634 10.3693 44.5989 10.5099 45.0563 10.7912C45.5137 11.0724 45.8688 11.4673 46.1216 11.9759C46.3744 12.4844 46.5009 13.0781 46.5009 13.7571C46.5009 14.4332 46.3744 15.0241 46.1216 15.5298C45.8688 16.0355 45.5137 16.429 45.0563 16.7102C44.5989 16.9915 44.0634 17.1321 43.4497 17.1321ZM43.454 16.0625C43.8517 16.0625 44.1813 15.9574 44.4426 15.7472C44.704 15.5369 44.8972 15.2571 45.0222 14.9077C45.15 14.5582 45.2139 14.1733 45.2139 13.7528C45.2139 13.3352 45.15 12.9517 45.0222 12.6023C44.8972 12.25 44.704 11.9673 44.4426 11.7543C44.1813 11.5412 43.8517 11.4347 43.454 11.4347C43.0534 11.4347 42.721 11.5412 42.4568 11.7543C42.1955 11.9673 42.0009 12.25 41.873 12.6023C41.748 12.9517 41.6855 13.3352 41.6855 13.7528C41.6855 14.1733 41.748 14.5582 41.873 14.9077C42.0009 15.2571 42.1955 15.5369 42.4568 15.7472C42.721 15.9574 43.0534 16.0625 43.454 16.0625ZM51.2184 17H49.8206L52.9613 8.27273H54.4826L57.6232 17H56.2255L53.7581 9.85795H53.69L51.2184 17ZM51.4527 13.5824H55.9868V14.6903H51.4527V13.5824ZM59.8403 8.27273V17H58.5235V8.27273H59.8403ZM64.9509 17H63.5531L66.6938 8.27273H68.2151L71.3557 17H69.958L67.4906 9.85795H67.4225L64.9509 17ZM65.1852 13.5824H69.7193V14.6903H65.1852V13.5824ZM74.7926 19.5909C74.2727 19.5909 73.8252 19.5227 73.4502 19.3864C73.0781 19.25 72.7741 19.0696 72.5383 18.8452C72.3025 18.6207 72.1264 18.375 72.0099 18.108L73.1051 17.6562C73.1818 17.7812 73.284 17.9134 73.4119 18.0526C73.5426 18.1946 73.7187 18.3153 73.9403 18.4148C74.1647 18.5142 74.4531 18.5639 74.8054 18.5639C75.2883 18.5639 75.6875 18.446 76.0028 18.2102C76.3181 17.9773 76.4758 17.6051 76.4758 17.0938V15.8068H76.3948C76.3181 15.946 76.2073 16.1009 76.0625 16.2713C75.9204 16.4418 75.7244 16.5895 75.4744 16.7145C75.2244 16.8395 74.8991 16.902 74.4985 16.902C73.9815 16.902 73.5156 16.7812 73.1008 16.5398C72.6889 16.2955 72.3622 15.9361 72.1207 15.4616C71.8821 14.9844 71.7627 14.3977 71.7627 13.7017C71.7627 13.0057 71.8806 12.4091 72.1164 11.9119C72.3551 11.4148 72.6818 11.0341 73.0965 10.7699C73.5113 10.5028 73.9815 10.3693 74.5071 10.3693C74.9133 10.3693 75.2414 10.4375 75.4914 10.5739C75.7414 10.7074 75.936 10.8636 76.0752 11.0426C76.2173 11.2216 76.3267 11.3793 76.4034 11.5156H76.4971V10.4545H77.7457V17.1449C77.7457 17.7074 77.615 18.169 77.3537 18.5298C77.0923 18.8906 76.7386 19.1577 76.2926 19.331C75.8494 19.5043 75.3494 19.5909 74.7926 19.5909ZM74.7798 15.8452C75.1463 15.8452 75.4559 15.7599 75.7088 15.5895C75.9644 15.4162 76.1576 15.169 76.2883 14.848C76.4218 14.5241 76.4886 14.1364 76.4886 13.6847C76.4886 13.2443 76.4233 12.8565 76.2926 12.5213C76.1619 12.1861 75.9701 11.9247 75.7173 11.7372C75.4644 11.5469 75.1519 11.4517 74.7798 11.4517C74.3963 11.4517 74.0767 11.5511 73.821 11.75C73.5653 11.946 73.3721 12.2131 73.2414 12.5511C73.1136 12.8892 73.0497 13.267 73.0497 13.6847C73.0497 14.1136 73.115 14.4901 73.2457 14.8139C73.3764 15.1378 73.5696 15.3906 73.8252 15.5724C74.0838 15.7543 74.4019 15.8452 74.7798 15.8452ZM81.9155 17.1321C81.2706 17.1321 80.7152 16.9943 80.2493 16.7188C79.7863 16.4403 79.4283 16.0497 79.1755 15.5469C78.9255 15.0412 78.8005 14.4489 78.8005 13.7699C78.8005 13.0994 78.9255 12.5085 79.1755 11.9972C79.4283 11.4858 79.7806 11.0866 80.2323 10.7997C80.6868 10.5128 81.2181 10.3693 81.826 10.3693C82.1954 10.3693 82.5533 10.4304 82.8999 10.5526C83.2465 10.6747 83.5576 10.8665 83.8331 11.1278C84.1087 11.3892 84.326 11.7287 84.4851 12.1463C84.6442 12.5611 84.7238 13.0653 84.7238 13.6591V14.1108H79.5206V13.1562H83.4752C83.4752 12.821 83.407 12.5241 83.2706 12.2656C83.1343 12.0043 82.9425 11.7983 82.6954 11.6477C82.451 11.4972 82.1641 11.4219 81.8346 11.4219C81.4766 11.4219 81.1641 11.5099 80.8971 11.6861C80.6329 11.8594 80.4283 12.0866 80.2834 12.3679C80.1414 12.6463 80.0704 12.9489 80.0704 13.2756V14.0213C80.0704 14.4588 80.1471 14.831 80.3005 15.1378C80.4567 15.4446 80.674 15.679 80.9525 15.8409C81.2309 16 81.5562 16.0795 81.9283 16.0795C82.1698 16.0795 82.39 16.0455 82.5888 15.9773C82.7877 15.9062 82.9596 15.8011 83.1044 15.6619C83.2493 15.5227 83.3601 15.3509 83.4368 15.1463L84.6428 15.3636C84.5462 15.7187 84.3729 16.0298 84.1229 16.2969C83.8758 16.5611 83.5647 16.767 83.1897 16.9148C82.8175 17.0597 82.3928 17.1321 81.9155 17.1321ZM87.0516 13.1136V17H85.7775V10.4545H87.0005V11.5199H87.0814C87.232 11.1733 87.4678 10.8949 87.7888 10.6847C88.1127 10.4744 88.5204 10.3693 89.0118 10.3693C89.4579 10.3693 89.8485 10.4631 90.1837 10.6506C90.5189 10.8352 90.7789 11.1108 90.9636 11.4773C91.1482 11.8437 91.2405 12.2969 91.2405 12.8366V17H89.9664V12.9901C89.9664 12.5156 89.8428 12.1449 89.5957 11.8778C89.3485 11.608 89.009 11.473 88.5772 11.473C88.2817 11.473 88.0189 11.5369 87.7888 11.6648C87.5616 11.7926 87.3812 11.9801 87.2476 12.2273C87.117 12.4716 87.0516 12.767 87.0516 13.1136ZM95.6447 10.4545V11.4773H92.0695V10.4545H95.6447ZM93.0283 8.88636H94.3024V15.0781C94.3024 15.3253 94.3393 15.5114 94.4132 15.6364C94.4871 15.7585 94.5822 15.8423 94.6987 15.8878C94.818 15.9304 94.9473 15.9517 95.0865 15.9517C95.1888 15.9517 95.2783 15.9446 95.355 15.9304C95.4317 15.9162 95.4913 15.9048 95.5339 15.8963L95.7641 16.9489C95.6902 16.9773 95.5851 17.0057 95.4487 17.0341C95.3124 17.0653 95.1419 17.0824 94.9374 17.0852C94.6021 17.0909 94.2896 17.0312 93.9999 16.9062C93.7101 16.7812 93.4757 16.5881 93.2967 16.3267C93.1178 16.0653 93.0283 15.7372 93.0283 15.3423V8.88636Z" fill="white"/>
</svg>
