<?xml version="1.0" encoding="utf-8"?>
<!-- Generator: Adobe Illustrator 19.0.0, SVG Export Plug-In . SVG Version: 6.00 Build 0)  -->
<svg version="1.1" id="Layer_1" xmlns="http://www.w3.org/2000/svg" xmlns:xlink="http://www.w3.org/1999/xlink" x="0px" y="0px"
	 viewBox="0 0 50 50" style="enable-background:new 0 0 50 50;" xml:space="preserve">
<style type="text/css">
	.st0{fill:none;stroke:#FF6400;stroke-miterlimit:10;}
	.st1{fill:#FF6400;}
	.st2{fill:none;stroke:#FF6400;stroke-linejoin:round;stroke-miterlimit:10;}
</style>
<g id="XMLID_40_">
	<g id="XMLID_41_">
		<g id="XMLID_42_">
			<g id="XMLID_90_">
				<line id="XMLID_37_" class="st0" x1="-244.9" y1="-102.7" x2="-243.5" y2="-102.7"/>
				<line id="XMLID_36_" class="st0" x1="-247.1" y1="-122.1" x2="-247.1" y2="-125.7"/>
				<path id="XMLID_35_" class="st0" d="M-237-109.9v9.3c0,0.4-0.3,0.7-0.7,0.7h-8.6c-0.4,0-0.7-0.3-0.7-0.7v-10.1"/>
				<line id="XMLID_34_" class="st0" x1="-237" y1="-125.7" x2="-237" y2="-121.4"/>
			</g>
			<g id="XMLID_77_">
				<g id="XMLID_83_">
					<g id="XMLID_84_">
						<path id="XMLID_33_" class="st0" d="M-232-119.9h-1.4l-7.2-2.2h-6.5c-0.8,0-1.4,0.6-1.4,1.4s0.6,1.4,1.4,1.4h-1.4
							c-0.8,0-1.4,0.6-1.4,1.4s0.6,1.4,1.4,1.4h-1.4c-0.8,0-1.4,0.6-1.4,1.4s0.6,1.4,1.4,1.4h1.4c-0.8,0-1.4,0.6-1.4,1.4
							s0.6,1.4,1.4,1.4h6.5"/>
						<line id="XMLID_32_" class="st0" x1="-248.5" y1="-113.5" x2="-244.2" y2="-113.5"/>
						<line id="XMLID_31_" class="st0" x1="-248.5" y1="-116.3" x2="-244.2" y2="-116.3"/>
						<line id="XMLID_30_" class="st0" x1="-247.1" y1="-119.2" x2="-244.2" y2="-119.2"/>
						<path id="XMLID_29_" class="st0" d="M-244.9-109.1c0,0.8,0.6,1.4,1.4,1.4h2.9l2.9-1.4l2.9-2.2h2.9"/>
					</g>
				</g>
				<g id="XMLID_78_">
					<line id="XMLID_28_" class="st0" x1="-229.1" y1="-118.5" x2="-229.1" y2="-117.1"/>
					<line id="XMLID_27_" class="st0" x1="-209.7" y1="-120.6" x2="-206.1" y2="-120.6"/>
					<path id="XMLID_26_" class="st0" d="M-221.9-110.6h-9.3c-0.4,0-0.7-0.3-0.7-0.7v-8.6c0-0.4,0.3-0.7,0.7-0.7h10.1"/>
					<line id="XMLID_25_" class="st0" x1="-206.1" y1="-110.6" x2="-210.4" y2="-110.6"/>
				</g>
			</g>
			<g id="XMLID_64_">
				<g id="XMLID_70_">
					<g id="XMLID_71_">
						<path id="XMLID_24_" class="st0" d="M-211.8-105.6v-1.4l2.2-7.2v-6.5c0-0.8-0.6-1.4-1.4-1.4c-0.8,0-1.4,0.6-1.4,1.4v-1.4
							c0-0.8-0.6-1.4-1.4-1.4c-0.8,0-1.4,0.6-1.4,1.4v-1.4c0-0.8-0.6-1.4-1.4-1.4c-0.8,0-1.4,0.6-1.4,1.4v1.4c0-0.8-0.6-1.4-1.4-1.4
							c-0.8,0-1.4,0.6-1.4,1.4v6.5"/>
						<line id="XMLID_23_" class="st0" x1="-218.3" y1="-122.1" x2="-218.3" y2="-117.8"/>
						<line id="XMLID_22_" class="st0" x1="-215.4" y1="-122.1" x2="-215.4" y2="-117.8"/>
						<line id="XMLID_21_" class="st0" x1="-212.6" y1="-120.6" x2="-212.6" y2="-117.8"/>
						<path id="XMLID_20_" class="st0" d="M-222.6-118.5c-0.8,0-1.4,0.6-1.4,1.4v2.9l1.4,2.9l2.2,2.9v2.9"/>
					</g>
				</g>
				<g id="XMLID_65_">
					<line id="XMLID_19_" class="st0" x1="-214.7" y1="-102.7" x2="-213.3" y2="-102.7"/>
					<line id="XMLID_18_" class="st0" x1="-221.2" y1="-84" x2="-221.2" y2="-79.7"/>
					<path id="XMLID_17_" class="st0" d="M-211.1-96.2v-8.6c0-0.4-0.3-0.7-0.7-0.7h-8.6c-0.4,0-0.7,0.3-0.7,0.7v9.3"/>
					<line id="XMLID_16_" class="st0" x1="-211.1" y1="-79.7" x2="-211.1" y2="-84.7"/>
				</g>
			</g>
			<g id="XMLID_51_">
				<g id="XMLID_57_">
					<g id="XMLID_58_">
						<path id="XMLID_15_" class="st0" d="M-226.2-94.1h1.4l7.2-2.2h6.5c0.8,0,1.4,0.6,1.4,1.4s-0.6,1.4-1.4,1.4h1.4
							c0.8,0,1.4,0.6,1.4,1.4s-0.6,1.4-1.4,1.4h1.4c0.8,0,1.4,0.6,1.4,1.4s-0.6,1.4-1.4,1.4h-1.4c0.8,0,1.4,0.6,1.4,1.4
							s-0.6,1.4-1.4,1.4h-6.5"/>
						<line id="XMLID_14_" class="st0" x1="-209.7" y1="-87.6" x2="-214" y2="-87.6"/>
						<line id="XMLID_13_" class="st0" x1="-209.7" y1="-90.5" x2="-214" y2="-90.5"/>
						<line id="XMLID_12_" class="st0" x1="-211.1" y1="-93.3" x2="-214" y2="-93.3"/>
						<path id="XMLID_11_" class="st0" d="M-213.3-83.3c0,0.8-0.6,1.4-1.4,1.4h-2.9l-2.9-1.4l-2.9-2.2h-2.9"/>
					</g>
				</g>
				<g id="XMLID_52_">
					<line id="XMLID_10_" class="st0" x1="-229.1" y1="-92.6" x2="-229.1" y2="-91.2"/>
					<line id="XMLID_9_" class="st0" x1="-247.1" y1="-94.8" x2="-252.1" y2="-94.8"/>
					<path id="XMLID_8_" class="st0" d="M-237-84.7h10.1c0.4,0,0.7-0.3,0.7-0.7v-8.6c0-0.4-0.3-0.7-0.7-0.7h-9.3"/>
					<line id="XMLID_7_" class="st0" x1="-252.1" y1="-84.7" x2="-248.5" y2="-84.7"/>
				</g>
			</g>
			<g id="XMLID_44_">
				<g id="XMLID_45_">
					<path id="XMLID_6_" class="st0" d="M-246.3-99.8v1.4l-2.2,7.2v6.5c0,0.8,0.6,1.4,1.4,1.4c0.8,0,1.4-0.6,1.4-1.4v1.4
						c0,0.8,0.6,1.4,1.4,1.4c0.8,0,1.4-0.6,1.4-1.4v1.4c0,0.8,0.6,1.4,1.4,1.4c0.8,0,1.4-0.6,1.4-1.4v-1.4c0,0.8,0.6,1.4,1.4,1.4
						c0.8,0,1.4-0.6,1.4-1.4v-6.5"/>
					<line id="XMLID_5_" class="st0" x1="-239.9" y1="-83.3" x2="-239.9" y2="-87.6"/>
					<line id="XMLID_4_" class="st0" x1="-242.8" y1="-83.3" x2="-242.8" y2="-87.6"/>
					<line id="XMLID_3_" class="st0" x1="-245.6" y1="-84.7" x2="-245.6" y2="-87.6"/>
					<path id="XMLID_2_" class="st0" d="M-235.6-86.9c0.8,0,1.4-0.6,1.4-1.4v-2.9l-1.4-2.9l-2.2-2.9v-2.9"/>
				</g>
			</g>
			<line id="XMLID_1_" class="st0" x1="-247.1" y1="-99.8" x2="-237" y2="-99.8"/>
		</g>
	</g>
</g>
<rect id="XMLID_38_" x="-421.3" y="-145" class="st1" width="103.3" height="103.3"/>
<g id="XMLID_117_">
	<g id="XMLID_118_">
		<path id="XMLID_112_" class="st0" d="M-220.9-59.6h3c2.5,0,4.5,2,4.5,4.5v14.1"/>
		<path id="XMLID_111_" class="st0" d="M-237.3-59.6h-3c-2.5,0-4.5,2-4.5,4.5v14.1"/>
		<line id="XMLID_110_" class="st0" x1="-222.4" y1="-24" x2="-235.8" y2="-24"/>
		<g id="XMLID_129_">
			<line id="XMLID_109_" class="st0" x1="-229.8" y1="-40.3" x2="-228.4" y2="-40.3"/>
			<line id="XMLID_108_" class="st0" x1="-232.8" y1="-40.3" x2="-231.3" y2="-40.3"/>
			<line id="XMLID_107_" class="st0" x1="-226.9" y1="-40.3" x2="-225.4" y2="-40.3"/>
		</g>
		<g id="XMLID_126_">
			<path id="XMLID_106_" class="st0" d="M-225.4-63c0,2.6-1.5,4.8-3.7,4.8c-2.3,0-3.7-2.2-3.7-4.8c0-2.6,0.7-4.1,3.7-4.1
				S-225.4-65.5-225.4-63z"/>
			<path id="XMLID_105_" class="st0" d="M-226.9-58.9l5.2,3c0,0,0,0.3,0,1.5c0,1.2-0.7,2.2-1.5,2.2H-235c-0.7,0-1.5-1-1.5-2.2
				c0-1.2,0-1.5,0-1.5l5.2-3"/>
		</g>
		<g id="XMLID_123_">
			<path id="XMLID_104_" class="st0" d="M-241-34.8c0,2.6-1.5,4.8-3.7,4.8c-2.3,0-3.7-2.2-3.7-4.8c0-2.6,0.7-4.1,3.7-4.1
				S-241-37.4-241-34.8z"/>
			<path id="XMLID_103_" class="st0" d="M-242.4-30.7l5.2,3c0,0,0,0.3,0,1.5c0,1.2-0.7,2.2-1.5,2.2h-11.9c-0.7,0-1.5-1-1.5-2.2
				c0-1.2,0-1.5,0-1.5l5.2-3"/>
		</g>
		<g id="XMLID_120_">
			<path id="XMLID_102_" class="st0" d="M-209.8-34.8c0,2.6-1.5,4.8-3.7,4.8c-2.3,0-3.7-2.2-3.7-4.8c0-2.6,0.7-4.1,3.7-4.1
				S-209.8-37.4-209.8-34.8z"/>
			<path id="XMLID_101_" class="st0" d="M-211.3-30.7l5.2,3c0,0,0,0.3,0,1.5c0,1.2-0.7,2.2-1.5,2.2h-11.9c-0.7,0-1.5-1-1.5-2.2
				c0-1.2,0-1.5,0-1.5l5.2-3"/>
		</g>
		<circle id="XMLID_100_" class="st0" cx="-229.1" cy="-40.3" r="7.4"/>
	</g>
</g>
<g id="XMLID_139_">
	<g id="XMLID_140_">
		<g id="XMLID_153_">
			<g id="XMLID_160_">
				<path id="XMLID_137_" class="st0" d="M-172.5-70.7h-20c-1.2,0-2.2,1-2.2,2.2v19.3h8.9V-50c-1.3-0.8-2.2-2.1-2.2-3.7
					c0-2.5,2-4.5,4.5-4.5s4.5,2,4.5,4.5c0,1.6-0.9,2.9-2.2,3.7v0.7h8.9"/>
			</g>
			<g id="XMLID_158_">
				<path id="XMLID_136_" class="st0" d="M-194.8-47v20c0,1.2,1,2.2,2.2,2.2h19.3v-8.9h-0.7c-0.8,1.3-2.1,2.2-3.7,2.2
					c-2.5,0-4.5-2-4.5-4.5s2-4.5,4.5-4.5c1.6,0,2.9,0.9,3.7,2.2h0.7V-47"/>
			</g>
			<g id="XMLID_156_">
				<path id="XMLID_135_" class="st0" d="M-171-24.7h20c1.2,0,2.2-1,2.2-2.2v-19.3h-8.9v0.7c1.5,0.8,2.2,2.1,2.2,3.7
					c0,2.5-2,4.5-4.5,4.5s-4.5-2-4.5-4.5c0-1.6,0.7-2.9,2.2-3.7v-0.7h-8.9"/>
			</g>
			<g id="XMLID_154_">
				<path id="XMLID_134_" class="st0" d="M-148.8-48.5v-20c0-1.2-1-2.2-2.2-2.2h-19.3v8.9h0.7c0.8-1.3,2.1-2.2,3.7-2.2
					c2.5,0,4.5,2,4.5,4.5s-2,4.5-4.5,4.5c-1.6,0-2.9-0.9-3.7-2.2h-0.7v8.9"/>
			</g>
		</g>
		<line id="XMLID_133_" class="st0" x1="-172.5" y1="-67.8" x2="-174" y2="-67.8"/>
		<line id="XMLID_132_" class="st0" x1="-175.5" y1="-67.8" x2="-177" y2="-67.8"/>
		<line id="XMLID_131_" class="st0" x1="-178.5" y1="-67.8" x2="-179.9" y2="-67.8"/>
		<line id="XMLID_130_" class="st0" x1="-163.6" y1="-27.7" x2="-165.1" y2="-27.7"/>
		<line id="XMLID_128_" class="st0" x1="-166.6" y1="-27.7" x2="-168.1" y2="-27.7"/>
		<line id="XMLID_127_" class="st0" x1="-169.6" y1="-27.7" x2="-171" y2="-27.7"/>
		<line id="XMLID_125_" class="st0" x1="-191.8" y1="-47" x2="-191.8" y2="-45.5"/>
		<line id="XMLID_124_" class="st0" x1="-191.8" y1="-44" x2="-191.8" y2="-42.5"/>
		<line id="XMLID_122_" class="st0" x1="-191.8" y1="-41.1" x2="-191.8" y2="-39.6"/>
		<line id="XMLID_121_" class="st0" x1="-151.7" y1="-55.9" x2="-151.7" y2="-54.4"/>
		<line id="XMLID_119_" class="st0" x1="-151.7" y1="-52.9" x2="-151.7" y2="-51.5"/>
		<line id="XMLID_113_" class="st0" x1="-151.7" y1="-50" x2="-151.7" y2="-48.5"/>
	</g>
</g>
<g id="XMLID_62_">
	<g id="XMLID_63_">
		<g id="XMLID_80_">
			<path id="XMLID_85_" class="st0" d="M-113.3-95.8c0,1.2,1,2.2,2.2,2.2c1.2,0,2.2-1,2.2-2.2c0-1.2-2.2-2.2-2.2-2.2s-2.2-1-2.2-2.2
				c0-1.2,1-2.2,2.2-2.2c1.2,0,2.2,1,2.2,2.2"/>
			<line id="XMLID_82_" class="st0" x1="-111.2" y1="-102.3" x2="-111.2" y2="-104.4"/>
			<line id="XMLID_81_" class="st0" x1="-111.2" y1="-93.7" x2="-111.2" y2="-91.5"/>
		</g>
		<circle id="XMLID_79_" class="st0" cx="-111.2" cy="-98" r="11.5"/>
		<circle id="XMLID_76_" class="st0" cx="-111.2" cy="-98" r="14.4"/>
		<circle id="XMLID_75_" class="st0" cx="-111.2" cy="-98" r="17.3"/>
		<circle id="XMLID_74_" class="st0" cx="-111.2" cy="-98" r="20.1"/>
		<line id="XMLID_73_" class="st0" x1="-88.2" y1="-98" x2="-103.3" y2="-98"/>
		<line id="XMLID_72_" class="st0" x1="-111.2" y1="-89.4" x2="-111.2" y2="-75"/>
		<line id="XMLID_69_" class="st0" x1="-119.1" y1="-98" x2="-134.2" y2="-98"/>
		<line id="XMLID_68_" class="st0" x1="-111.2" y1="-106.6" x2="-111.2" y2="-121"/>
		<line id="XMLID_67_" class="st0" x1="-117.6" y1="-98" x2="-116.2" y2="-98"/>
		<line id="XMLID_66_" class="st0" x1="-104.7" y1="-98" x2="-106.1" y2="-98"/>
	</g>
</g>
<g id="XMLID_114_">
	<g id="XMLID_115_">
		<g id="XMLID_116_">
			<path id="XMLID_99_" class="st2" d="M36,43.6h10.2c0,0-1.5,4.4-7.3,4.4S17,48,11.1,48s-7.3-4.4-7.3-4.4H14"/>
			<path id="XMLID_98_" class="st0" d="M21.3,17.3h18.3c0,14.6-5.8,17.5-5.8,23.4H16.2c0-5.8-5.8-8.8-5.8-23.4H17"/>
			<path id="XMLID_97_" class="st0" d="M43.3,36.3V21.7H44c1.2,0,2.2,1,2.2,2.2v5.8v4.4c0,1.2-1,2.2-2.2,2.2H43.3z"/>
			<line id="XMLID_96_" class="st0" x1="19.2" y1="16.6" x2="19.2" y2="21.7"/>
			<rect id="XMLID_95_" x="17" y="21.7" class="st0" width="4.4" height="5.8"/>
			<line id="XMLID_94_" class="st0" x1="43.3" y1="21.7" x2="39.6" y2="21.7"/>
			<line id="XMLID_93_" class="st0" x1="43.3" y1="36.3" x2="35.2" y2="36.3"/>
			<polyline id="XMLID_92_" class="st0" points="16.2,40.7 16.2,43.6 33.8,43.6 33.8,40.7 			"/>
			<line id="XMLID_91_" class="st0" x1="24.3" y1="37.8" x2="25.7" y2="37.8"/>
			<line id="XMLID_89_" class="st0" x1="21.3" y1="37.8" x2="22.8" y2="37.8"/>
			<line id="XMLID_88_" class="st0" x1="27.2" y1="37.8" x2="28.7" y2="37.8"/>
			<path id="XMLID_87_" class="st0" d="M29.4,2c0,1.2-1,2.2-2.2,2.2h-11c-1.2,0-2.2,1-2.2,2.2c0,1.2,1,2.2,2.2,2.2H33
				c1.2,0,2.2,1,2.2,2.2c0,1.2-1,2.2-2.2,2.2h-4.4c-1.2,0-2.2,1-2.2,2.2"/>
			<path id="XMLID_86_" class="st0" d="M20.6,4.2c-1.2,0-2.2,1-2.2,2.2c0,1.2,1,2.2,2.2,2.2"/>
			<path id="XMLID_39_" class="st0" d="M29.4,13h-5.1c-1.2,0-2.2,1-2.2,2.2"/>
		</g>
	</g>
</g>
<g id="XMLID_46_">
	<path id="XMLID_149_" class="st0" d="M-174-122.8c-8.5,0-15.3,6.9-15.3,15.3L-193-98v1.5h3.7v6.6c0,2.4,2,4.4,4.4,4.4h4.4v8.8"/>
	<g id="XMLID_60_">
		<line id="XMLID_148_" class="st2" x1="-180.5" y1="-85.6" x2="-178.3" y2="-85.6"/>
	</g>
	<g id="XMLID_56_">
		<line id="XMLID_147_" class="st2" x1="-160.1" y1="-85.6" x2="-162.3" y2="-85.6"/>
	</g>
	<path id="XMLID_146_" class="st0" d="M-158.6-106.7"/>
	<circle id="XMLID_145_" class="st0" cx="-170.3" cy="-95.8" r="2.2"/>
	<path id="XMLID_144_" class="st0" d="M-172.5-96c-5.4-1-9.5-5.8-9.5-11.5c0-8.5,6.9-15.3,15.3-15.3c8.5,0,15.3,6.9,15.3,15.3
		l3.7,9.5v1.5h-3.7v6.6c0,2.4-2,4.4-4.4,4.4h-4.4v8.8"/>
	<line id="XMLID_143_" class="st0" x1="-174.7" y1="-107.5" x2="-174.7" y2="-106"/>
	<line id="XMLID_142_" class="st0" x1="-174.7" y1="-104.5" x2="-174.7" y2="-103.1"/>
	<path id="XMLID_141_" class="st0" d="M-174.7-108.9c0-4.4,3.6-8,8-8c4.4,0,8,3.6,8,8v2.9c0,8.5-5.8,13.1-5.8,20.4v8.8"/>
	<circle id="XMLID_138_" class="st0" cx="-166.7" cy="-108.9" r="5.1"/>
</g>
</svg>
