<?xml version="1.0" encoding="utf-8"?>
<!-- Generator: Adobe Illustrator 19.0.0, SVG Export Plug-In . SVG Version: 6.00 Build 0)  -->
<svg version="1.1" id="Layer_1" xmlns="http://www.w3.org/2000/svg" xmlns:xlink="http://www.w3.org/1999/xlink" x="0px" y="0px"
	 viewBox="0 0 200 130" style="enable-background:new 0 0 200 130;" xml:space="preserve">
<style type="text/css">
	.st0{fill:#FF6400;}
	.st1{fill:none;stroke:#FF6400;stroke-width:2;stroke-miterlimit:10;}
	.st2{fill:none;stroke:#FF6400;stroke-width:2;stroke-linecap:round;stroke-miterlimit:10;}
	.st3{fill:none;stroke:#FF6400;stroke-width:2;stroke-linecap:round;stroke-linejoin:round;stroke-miterlimit:10;}
</style>
<g id="XMLID_40_">
	<g id="XMLID_41_">
		<g id="XMLID_42_">
			<g id="XMLID_61_">
				<path id="XMLID_62_" class="st0" d="M-50.4-54h-2v-14.2c0-6.2,5.1-11.3,11.3-11.3v2c-5.1,0-9.3,4.2-9.3,9.3V-54z"/>
				<path id="XMLID_60_" class="st0" d="M-6.5-54h-2v-14.2c0-5.1-4.2-9.3-9.3-9.3v-2c6.2,0,11.3,5.1,11.3,11.3V-54z"/>
			</g>
			<g id="XMLID_58_">
				<polygon id="XMLID_59_" class="st0" points="11.5,-15.6 -2.4,-15.6 -2.4,-17.6 9.5,-17.6 9.5,-38.8 -7.5,-38.8 -7.5,-40.8 
					11.5,-40.8 				"/>
				<polygon id="XMLID_57_" class="st0" points="-56.6,-15.6 -70.5,-15.6 -70.5,-40.8 -51.4,-40.8 -51.4,-38.8 -68.5,-38.8 
					-68.5,-17.6 -56.6,-17.6 				"/>
			</g>
			<g id="XMLID_52_">
				<g id="XMLID_54_">
					<path id="XMLID_56_" class="st0" d="M-7.5-15.6h-43.9c-0.6,0-1-0.4-1-1v-27.1c0-2.7,2.2-4.9,4.9-4.9h36.1
						c2.7,0,4.9,2.2,4.9,4.9v27.1C-6.5-16-7-15.6-7.5-15.6z M-50.4-17.6h41.9v-26.1c0-1.6-1.3-2.9-2.9-2.9h-36.1
						c-1.6,0-2.9,1.3-2.9,2.9V-17.6z"/>
					<path id="XMLID_55_" class="st0" d="M-6.6-16.1L-8.4-17l3.8-7.5v-6.5h-2.9v-2h3.9c0.6,0,1,0.4,1,1v7.7c0,0.2,0,0.3-0.1,0.4
						L-6.6-16.1z"/>
					<path id="XMLID_53_" class="st0" d="M-52.3-16.1l-3.9-7.7c-0.1-0.1-0.1-0.3-0.1-0.4v-7.7c0-0.6,0.4-1,1-1h3.9v2h-2.9v6.5
						l3.8,7.5L-52.3-16.1z"/>
				</g>
				<path id="XMLID_50_" class="st0" d="M-29.5-27.2c-2.7,0-4.9-2.2-4.9-4.9s2.2-4.9,4.9-4.9s4.9,2.2,4.9,4.9S-26.8-27.2-29.5-27.2z
					 M-29.5-34.9c-1.6,0-2.9,1.3-2.9,2.9s1.3,2.9,2.9,2.9s2.9-1.3,2.9-2.9S-27.9-34.9-29.5-34.9z"/>
			</g>
			<g id="XMLID_43_">
				<path id="XMLID_51_" class="st0" d="M-20.4-59.2"/>
				<path id="XMLID_49_" class="st0" d="M-56.9-39.8h-2v-2.6c0-10.1,5.4-12.2,11.6-14.6c2.3-0.9,4.6-1.7,6.9-3.1l1,1.7
					c-2.5,1.4-5,2.4-7.2,3.2c-6,2.3-10.3,3.9-10.3,12.7V-39.8z"/>
				<path id="XMLID_48_" class="st0" d="M-0.1-39.8h-2v-3.9c0-8.3-3.8-9.5-9.6-11.4c-2.5-0.8-5.2-1.7-8-3.2l1-1.7
					c2.6,1.5,5.1,2.3,7.6,3.1c5.9,1.9,11,3.5,11,13.3V-39.8z"/>
				<path id="XMLID_47_" class="st0" d="M-24.1-52.8l-5.4-2.7l-5.4,2.7l-6.3-6.3l3.4-5.1l8.2,1.4l8.2-1.4l3.4,5.1L-24.1-52.8z
					 M-29.5-57.7l5,2.5l4.1-4.1l-1.8-2.7l-7.3,1.2l-7.3-1.2l-1.8,2.7l4.1,4.1L-29.5-57.7z"/>
				<rect id="XMLID_46_" x="-24" y="-68.2" class="st0" width="2" height="5.2"/>
				<rect id="XMLID_45_" x="-36.9" y="-68.2" class="st0" width="2" height="5.2"/>
				<path id="XMLID_44_" class="st0" d="M-29.5-65.9c-0.2,0-4.1,0-6.9-1.4l-0.1-0.1c-0.2-0.1-4.3-2.9-5.6-12.3l0-0.1V-85
					c0-8.4,4.2-12.6,12.6-12.6s12.6,4.2,12.6,12.6l0,5.3c-1.3,9.4-5.4,12.2-5.6,12.3l-0.1,0.1C-25.3-65.9-29.3-65.9-29.5-65.9z
					 M-35.4-69.1c2.3,1.1,5.9,1.1,5.9,1.1c0,0,3.6,0,5.9-1.1c0.4-0.3,3.5-3,4.7-10.8V-85c0-7.2-3.4-10.6-10.6-10.6
					S-40.1-92.2-40.1-85v5.1C-38.9-72.1-35.8-69.4-35.4-69.1z"/>
				<polygon id="XMLID_36_" class="st0" points="-23,-81.3 -35.9,-86.5 -40.6,-84.1 -41.5,-85.9 -36,-88.7 -23.1,-83.5 -18.3,-85.9 
					-17.4,-84.1 				"/>
			</g>
		</g>
	</g>
</g>
<g id="XMLID_38_">
	<g id="XMLID_39_">
		<path id="XMLID_35_" class="st0" d="M-140.7-29.2h-2v-1.1L-170-76.6l1.7-1l27.4,46.6c0.1,0.2,0.1,0.3,0.1,0.5V-29.2z"/>
		<path id="XMLID_34_" class="st0" d="M-225.7-27.8h-2v-1.4c0-0.2,0-0.3,0.1-0.5l27.4-48l1.7,1l-27.3,47.8V-27.8z"/>
		<rect id="XMLID_33_" x="-174.6" y="-38.4" class="st0" width="27.4" height="2"/>
		<rect id="XMLID_32_" x="-221.2" y="-38.4" class="st0" width="27.4" height="2"/>
		<rect id="XMLID_31_" x="-174.6" y="-46.6" class="st0" width="23.3" height="2"/>
		<rect id="XMLID_30_" x="-217.1" y="-46.6" class="st0" width="23.3" height="2"/>
		<rect id="XMLID_29_" x="-174.6" y="-54.8" class="st0" width="19.2" height="2"/>
		<rect id="XMLID_28_" x="-213" y="-54.8" class="st0" width="19.2" height="2"/>
		<rect id="XMLID_27_" x="-174.6" y="-63.1" class="st0" width="13.7" height="2"/>
		<rect id="XMLID_26_" x="-207.5" y="-63.1" class="st0" width="13.7" height="2"/>
		<rect id="XMLID_25_" x="-174.6" y="-71.3" class="st0" width="9.6" height="2"/>
		<rect id="XMLID_24_" x="-203.4" y="-71.3" class="st0" width="9.6" height="2"/>
		<path id="XMLID_23_" class="st0" d="M-177.7-27.8h-2v-53.5c0-0.6,0.4-1,1-1h5.1l-10.6-18.9l-10.6,18.9h5.1c0.6,0,1,0.4,1,1v53.5
			h-2v-52.5h-5.9c-0.4,0-0.7-0.2-0.9-0.5s-0.2-0.7,0-1l12.3-21.9c0.4-0.6,1.4-0.6,1.7,0l12.3,21.9c0.2,0.3,0.2,0.7,0,1
			s-0.5,0.5-0.9,0.5h-5.9V-27.8z"/>
		<rect id="XMLID_22_" x="-185.6" y="-35.7" class="st0" width="2.7" height="2"/>
		<rect id="XMLID_21_" x="-185.6" y="-30.2" class="st0" width="2.7" height="2"/>
		<rect id="XMLID_20_" x="-185.6" y="-41.1" class="st0" width="2.7" height="2"/>
		<rect id="XMLID_19_" x="-185.6" y="-46.6" class="st0" width="2.7" height="2"/>
		<rect id="XMLID_18_" x="-185.6" y="-52.1" class="st0" width="2.7" height="2"/>
		<rect id="XMLID_17_" x="-185.6" y="-57.6" class="st0" width="2.7" height="2"/>
		<rect id="XMLID_16_" x="-185.6" y="-63.1" class="st0" width="2.7" height="2"/>
		<rect id="XMLID_15_" x="-185.6" y="-74" class="st0" width="2.7" height="2"/>
		<rect id="XMLID_37_" x="-185.6" y="-79.5" class="st0" width="2.7" height="2"/>
		<rect id="XMLID_84_" x="-185.6" y="-68.6" class="st0" width="2.7" height="2"/>
	</g>
</g>
<g id="XMLID_64_">
	<g id="XMLID_65_">
		<path id="XMLID_81_" class="st0" d="M-101.9,158.1h-106.5v-92h106.5V158.1z M-203.6,153.3h96.8V71h-96.8V153.3z"/>
		<path id="XMLID_78_" class="st0" d="M-104.3,71H-206c-1.1,0-2.1-0.8-2.4-1.9l-9.7-43.6c-0.2-0.7,0-1.5,0.5-2
			c0.5-0.6,1.2-0.9,1.9-0.9h121c0.7,0,1.4,0.3,1.9,0.9c0.5,0.6,0.6,1.3,0.5,2l-9.7,43.6C-102.2,70.2-103.2,71-104.3,71z M-204,66.2
			h97.8l8.6-38.7h-115L-204,66.2z"/>
		<path id="XMLID_77_" class="st0" d="M-104.3,71H-206c-0.6,0-1.3-0.3-1.7-0.7l-24.2-24.2c-0.7-0.7-0.9-1.7-0.5-2.6
			c0.4-0.9,1.3-1.5,2.2-1.5h12.1v4.8h-6.3l19.4,19.4h99.6L-86,46.8h-6.3V42h12.1c1,0,1.9,0.6,2.2,1.5c0.4,0.9,0.2,1.9-0.5,2.6
			l-24.2,24.2C-103.1,70.7-103.7,71-104.3,71z"/>
		<rect id="XMLID_76_" x="-232.6" y="78.3" class="st0" width="19.4" height="4.8"/>
		<rect id="XMLID_75_" x="-227.8" y="92.8" class="st0" width="33.9" height="4.8"/>
		<rect id="XMLID_74_" x="-232.6" y="109.7" class="st0" width="19.4" height="4.8"/>
		<rect id="XMLID_73_" x="-222.9" y="126.7" class="st0" width="24.2" height="4.8"/>
		<rect id="XMLID_72_" x="-227.8" y="143.6" class="st0" width="14.5" height="4.8"/>
		<path id="XMLID_71_" class="st0" d="M-128.5,131.5h-53.2c-1.3,0-2.4-1.1-2.4-2.4V95.2c0-1.3,1.1-2.4,2.4-2.4h33.9v4.8h-31.5v29
			h48.4v-16.9h4.8v19.4C-126.1,130.4-127.2,131.5-128.5,131.5z"/>
		<path id="XMLID_70_" class="st0" d="M-152.7,119.4c-0.6,0-1.2-0.2-1.7-0.7l-12.1-12.1l3.4-3.4l10.4,10.4l24.9-24.9l3.4,3.4
			l-26.6,26.6C-151.5,119.2-152.1,119.4-152.7,119.4z"/>
		<rect id="XMLID_69_" x="-206" y="32.3" class="st0" width="101.6" height="4.8"/>
		<rect id="XMLID_68_" x="-184.2" y="83.1" class="st0" width="4.8" height="4.8"/>
		<rect id="XMLID_67_" x="-174.5" y="83.1" class="st0" width="4.8" height="4.8"/>
		<rect id="XMLID_66_" x="-164.8" y="83.1" class="st0" width="4.8" height="4.8"/>
	</g>
</g>
<g id="XMLID_63_">
	<g id="XMLID_93_">
		<g id="XMLID_94_">
			<g id="XMLID_97_">
				<line id="XMLID_112_" class="st1" x1="85.2" y1="45.7" x2="114.8" y2="45.7"/>
				<polyline id="XMLID_111_" class="st2" points="134.1,66.5 129.6,70.9 129.6,73.9 123.7,79.8 				"/>
				<path id="XMLID_110_" class="st2" d="M98.5,79.8l16.3,16.3c0,0,1.5,1.5,3,1.5c2.5,0,4.4-2,4.4-4.4c0-1.5-1.5-3-1.5-3l-16.3-16.3
					"/>
				<path id="XMLID_109_" class="st2" d="M113.3,94.6c0,0,1.5,1.5,1.5,3c0,2.5-2,4.4-4.4,4.4c-1.5,0-3-1.5-3-1.5L92.6,85.7"/>
				<path id="XMLID_108_" class="st2" d="M104.4,97.6c0,0,1.5,1.5,1.5,3c0,2.5-2,4.4-4.4,4.4c-1.5,0-3-1.5-3-1.5L71.9,76.9v-4.4
					l-5.9-5.9"/>
				<path id="XMLID_107_" class="st2" d="M79.3,85.7c0,0-1.5,1.5-3,1.5c-2.5,0-4.4-2-4.4-4.4c0-1.5,1.5-3,1.5-3"/>
				<path id="XMLID_106_" class="st2" d="M85.2,91.7c0,0-1.5,1.5-3,1.5c-2.5,0-4.4-2-4.4-4.4c0-1.5,1.5-3,1.5-3"/>
				<path id="XMLID_105_" class="st2" d="M91.1,97.6c0,0-1.5,1.5-3,1.5c-2.5,0-4.4-2-4.4-4.4c0-1.5,1.5-3,1.5-3"/>
				<path id="XMLID_104_" class="st2" d="M97,103.5c0,0-1.5,1.5-3,1.5c-2.5,0-4.4-2-4.4-4.4c0-1.5,1.5-3,1.5-3"/>
				<path id="XMLID_103_" class="st2" d="M95.6,45.7l-8.9,8.9c0,0-1.5,1.5-1.5,3c0,2.5,2,4.4,4.4,4.4c1.5,0,3-1.5,3-1.5l7.4-7.4h4.4
					V62l19.3,19.3c0,0,1.5,1.5,1.5,3c0,2.5-2,4.4-4.4,4.4c-1.5,0-3-1.5-3-1.5"/>
				<path id="XMLID_102_" class="st1" d="M116.3,60.6c0,2.5-2,4.4-4.4,4.4h-4.4"/>
				<polyline id="XMLID_101_" class="st3" points="145.9,59.1 138.5,66.5 135.6,66.5 111.9,42.8 111.9,39.8 126.7,25 				"/>
				<polyline id="XMLID_100_" class="st3" points="54.1,59.1 61.5,66.5 64.4,66.5 88.1,42.8 88.1,39.8 73.3,25 				"/>
				<line id="XMLID_99_" class="st2" x1="137" y1="56.1" x2="140" y2="53.1"/>
				<line id="XMLID_98_" class="st2" x1="60" y1="53.1" x2="63" y2="56.1"/>
			</g>
			<path id="XMLID_96_" class="st2" d="M94.1,84.3"/>
			<path id="XMLID_95_" class="st2" d="M91.1,87.2"/>
		</g>
	</g>
</g>
</svg>
