<?xml version="1.0" encoding="utf-8"?>
<!-- Generator: Adobe Illustrator 19.0.0, SVG Export Plug-In . SVG Version: 6.00 Build 0)  -->
<svg version="1.1" id="Layer_1" xmlns="http://www.w3.org/2000/svg" xmlns:xlink="http://www.w3.org/1999/xlink" x="0px" y="0px"
	 viewBox="0 0 200 130" style="enable-background:new 0 0 200 130;" xml:space="preserve">
<style type="text/css">
	.st0{opacity:0.15;fill:none;stroke:#FF6400;stroke-width:2;stroke-linejoin:round;stroke-miterlimit:10;}
	.st1{fill:none;stroke:#FF6400;stroke-width:2;stroke-miterlimit:10;}
	.st2{fill:none;stroke:#FF6400;stroke-width:2;stroke-linejoin:round;stroke-miterlimit:10;}
</style>
<circle id="XMLID_330_" class="st0" cx="69.9" cy="65" r="60"/>
<circle id="XMLID_331_" class="st0" cx="128.1" cy="65" r="60"/>
<text id="XMLID_285_" transform="matrix(1 0 0 1 -226.8293 264.7831)" style="fill:#231F20; font-family:'MyriadPro-Regular'; font-size:12px;">1. Interview</text>
<text id="XMLID_284_" transform="matrix(1 0 0 1 -70.5527 264.7831)" style="fill:#231F20; font-family:'MyriadPro-Regular'; font-size:12px;">2. Research</text>
<text id="XMLID_283_" transform="matrix(1 0 0 1 72.6819 264.7831)" style="fill:#231F20; font-family:'MyriadPro-Regular'; font-size:12px;">3. Sitemap</text>
<text id="XMLID_282_" transform="matrix(1 0 0 1 218.8304 264.7831)" style="fill:#231F20; font-family:'MyriadPro-Regular'; font-size:12px;">4. Prototype</text>
<text id="XMLID_281_" transform="matrix(1 0 0 1 368.1098 264.7831)" style="fill:#231F20; font-family:'MyriadPro-Regular'; font-size:12px;">5. Moodboard</text>
<g id="XMLID_263_">
	<g id="XMLID_264_">
		<g id="XMLID_278_">
			<path id="XMLID_280_" class="st1" d="M-173.4,186.6c0,5.1-2.8,9.4-7.3,9.4s-7.3-4.4-7.3-9.4s1.5-8,7.3-8
				S-173.4,181.5-173.4,186.6z"/>
			<path id="XMLID_279_" class="st1" d="M-176.3,194.6l8.7,5.8c0,0,0,0.5,0,2.9c0,2.4-1.5,4.4-2.9,4.4h-20.3c-1.5,0-2.9-1.9-2.9-4.4
				c0-2.4,0-2.9,0-2.9l8.7-5.8"/>
		</g>
		<path id="XMLID_277_" class="st1" d="M-208.2,193.1v-24.7c0-1.6,1.3-2.9,2.9-2.9h16"/>
		<path id="XMLID_276_" class="st1" d="M-180.7,220.7h-24.7c-1.6,0-2.9-1.3-2.9-2.9v-16"/>
		<path id="XMLID_275_" class="st1" d="M-153.1,193.1v24.7c0,1.6-1.3,2.9-2.9,2.9h-16"/>
		<path id="XMLID_274_" class="st1" d="M-180.7,165.5h24.7c1.6,0,2.9,1.3,2.9,2.9v16"/>
		<line id="XMLID_273_" class="st1" x1="-203.9" y1="171.3" x2="-201" y2="171.3"/>
		<line id="XMLID_272_" class="st1" x1="-160.3" y1="171.3" x2="-157.4" y2="171.3"/>
		<line id="XMLID_271_" class="st1" x1="-203.9" y1="214.9" x2="-201" y2="214.9"/>
		<line id="XMLID_270_" class="st1" x1="-160.3" y1="214.9" x2="-157.4" y2="214.9"/>
		<circle id="XMLID_269_" class="st1" cx="-180.7" cy="158.3" r="7.3"/>
		<circle id="XMLID_268_" class="st1" cx="-145.8" cy="193.1" r="7.3"/>
		<circle id="XMLID_267_" class="st1" cx="-180.7" cy="228" r="7.3"/>
		<circle id="XMLID_266_" class="st1" cx="-215.5" cy="193.1" r="7.3"/>
		<circle id="XMLID_265_" class="st1" cx="-180.7" cy="193.1" r="45"/>
	</g>
</g>
<g id="XMLID_223_">
	<g id="XMLID_224_">
		<g id="XMLID_225_">
			<polyline id="XMLID_262_" class="st2" points="-38.6,188.8 -69.1,188.8 -69.1,151 -13.9,151 -13.9,172.8 			"/>
			<line id="XMLID_261_" class="st2" x1="-63.3" y1="167" x2="-63.3" y2="169.9"/>
			<line id="XMLID_260_" class="st2" x1="-63.3" y1="161.2" x2="-63.3" y2="164.1"/>
			<line id="XMLID_259_" class="st2" x1="-57.5" y1="158.3" x2="-57.5" y2="169.9"/>
			<line id="XMLID_258_" class="st2" x1="-51.7" y1="167" x2="-51.7" y2="169.9"/>
			<line id="XMLID_257_" class="st2" x1="-45.9" y1="158.3" x2="-45.9" y2="169.9"/>
			<line id="XMLID_256_" class="st2" x1="-37.2" y1="158.3" x2="-37.2" y2="169.9"/>
			<line id="XMLID_255_" class="st2" x1="-31.3" y1="158.3" x2="-31.3" y2="161.2"/>
			<line id="XMLID_254_" class="st2" x1="-25.5" y1="158.3" x2="-25.5" y2="161.2"/>
			<line id="XMLID_253_" class="st2" x1="-31.3" y1="164.1" x2="-31.3" y2="167"/>
			<line id="XMLID_252_" class="st2" x1="-25.5" y1="167" x2="-25.5" y2="172.8"/>
			<line id="XMLID_251_" class="st2" x1="-19.7" y1="158.3" x2="-19.7" y2="169.9"/>
			<path id="XMLID_250_" class="st2" d="M-69.1,184.4"/>
			<path id="XMLID_249_" class="st2" d="M-69.1,172.8"/>
			<line id="XMLID_248_" class="st2" x1="-31.3" y1="169.9" x2="-31.3" y2="178.6"/>
			<line id="XMLID_247_" class="st2" x1="-63.3" y1="172.8" x2="-63.3" y2="184.4"/>
			<line id="XMLID_246_" class="st2" x1="-57.5" y1="181.5" x2="-57.5" y2="184.4"/>
			<line id="XMLID_245_" class="st2" x1="-43" y1="181.5" x2="-43" y2="184.4"/>
			<line id="XMLID_244_" class="st2" x1="-37.2" y1="178.6" x2="-37.2" y2="181.5"/>
			<line id="XMLID_243_" class="st2" x1="-37.2" y1="172.8" x2="-37.2" y2="175.7"/>
			<line id="XMLID_242_" class="st2" x1="-57.5" y1="172.8" x2="-57.5" y2="175.7"/>
			<line id="XMLID_241_" class="st2" x1="-48.8" y1="172.8" x2="-48.8" y2="184.4"/>
			<line id="XMLID_240_" class="st2" x1="-8.1" y1="155.4" x2="-8.1" y2="151"/>
			<line id="XMLID_239_" class="st2" x1="-74.9" y1="155.4" x2="-74.9" y2="151"/>
			<line id="XMLID_238_" class="st2" x1="-74.9" y1="190.2" x2="-74.9" y2="187.3"/>
			<g id="XMLID_235_">
				<path id="XMLID_237_" class="st2" d="M-13.9,209.1v27.6c0,2.4-2,4.4-4.4,4.4c-2.4,0-4.4-2-4.4-4.4v-27.6"/>
				<circle id="XMLID_236_" class="st2" cx="-18.3" cy="193.1" r="16"/>
			</g>
			<line id="XMLID_234_" class="st2" x1="-70.5" y1="209.1" x2="-50.2" y2="209.1"/>
			<line id="XMLID_233_" class="st2" x1="-70.5" y1="214.9" x2="-35.7" y2="214.9"/>
			<line id="XMLID_232_" class="st2" x1="-70.5" y1="220.7" x2="-35.7" y2="220.7"/>
			<polyline id="XMLID_231_" class="st2" points="-29.9,232.3 -80.7,232.3 -80.7,174.2 -76.3,174.2 			"/>
			<line id="XMLID_230_" class="st2" x1="-9.6" y1="232.3" x2="-6.7" y2="232.3"/>
			<line id="XMLID_229_" class="st2" x1="-9.6" y1="226.5" x2="-6.7" y2="226.5"/>
			<line id="XMLID_228_" class="st2" x1="-9.6" y1="220.7" x2="-6.7" y2="220.7"/>
			<polyline id="XMLID_227_" class="st2" points="-2.3,175.7 -2.3,151 -80.7,151 -80.7,168.4 -76.3,168.4 			"/>
			<path id="XMLID_226_" class="st2" d="M-28.4,193.1c0-5.6,4.5-10.2,10.2-10.2"/>
		</g>
	</g>
</g>
<g id="XMLID_175_">
	<g id="XMLID_176_">
		<g id="XMLID_177_">
			<g id="XMLID_190_">
				<rect id="XMLID_222_" x="196.2" y="154.6" class="st1" width="11.6" height="11.6"/>
				<rect id="XMLID_221_" x="274.6" y="154.6" class="st1" width="11.6" height="11.6"/>
				<rect id="XMLID_220_" x="196.2" y="233" class="st1" width="11.6" height="11.6"/>
				<rect id="XMLID_219_" x="274.6" y="233" class="st1" width="11.6" height="11.6"/>
				<line id="XMLID_218_" class="st1" x1="212.2" y1="160.4" x2="218" y2="160.4"/>
				<line id="XMLID_217_" class="st1" x1="220.9" y1="160.4" x2="226.7" y2="160.4"/>
				<line id="XMLID_216_" class="st1" x1="229.6" y1="160.4" x2="235.4" y2="160.4"/>
				<line id="XMLID_215_" class="st1" x1="238.3" y1="160.4" x2="244.1" y2="160.4"/>
				<line id="XMLID_214_" class="st1" x1="247.1" y1="160.4" x2="252.9" y2="160.4"/>
				<line id="XMLID_213_" class="st1" x1="255.8" y1="160.4" x2="261.6" y2="160.4"/>
				<line id="XMLID_212_" class="st1" x1="264.5" y1="160.4" x2="270.3" y2="160.4"/>
				<line id="XMLID_211_" class="st1" x1="212.2" y1="238.8" x2="218" y2="238.8"/>
				<line id="XMLID_210_" class="st1" x1="220.9" y1="238.8" x2="226.7" y2="238.8"/>
				<line id="XMLID_209_" class="st1" x1="229.6" y1="238.8" x2="235.4" y2="238.8"/>
				<line id="XMLID_208_" class="st1" x1="238.3" y1="238.8" x2="244.1" y2="238.8"/>
				<line id="XMLID_207_" class="st1" x1="247.1" y1="238.8" x2="252.9" y2="238.8"/>
				<line id="XMLID_206_" class="st1" x1="255.8" y1="238.8" x2="261.6" y2="238.8"/>
				<line id="XMLID_205_" class="st1" x1="264.5" y1="238.8" x2="270.3" y2="238.8"/>
				<line id="XMLID_204_" class="st1" x1="280.4" y1="170.6" x2="280.4" y2="176.4"/>
				<line id="XMLID_203_" class="st1" x1="280.4" y1="179.3" x2="280.4" y2="185.1"/>
				<line id="XMLID_202_" class="st1" x1="280.4" y1="188" x2="280.4" y2="193.8"/>
				<line id="XMLID_201_" class="st1" x1="280.4" y1="196.7" x2="280.4" y2="202.5"/>
				<line id="XMLID_200_" class="st1" x1="280.4" y1="205.4" x2="280.4" y2="211.2"/>
				<line id="XMLID_199_" class="st1" x1="280.4" y1="214.1" x2="280.4" y2="219.9"/>
				<line id="XMLID_198_" class="st1" x1="280.4" y1="222.8" x2="280.4" y2="228.6"/>
				<line id="XMLID_197_" class="st1" x1="202.1" y1="170.6" x2="202.1" y2="176.4"/>
				<line id="XMLID_196_" class="st1" x1="202.1" y1="179.3" x2="202.1" y2="185.1"/>
				<line id="XMLID_195_" class="st1" x1="202.1" y1="188" x2="202.1" y2="193.8"/>
				<line id="XMLID_194_" class="st1" x1="202.1" y1="196.7" x2="202.1" y2="202.5"/>
				<line id="XMLID_193_" class="st1" x1="202.1" y1="205.4" x2="202.1" y2="211.2"/>
				<line id="XMLID_192_" class="st1" x1="202.1" y1="214.1" x2="202.1" y2="219.9"/>
				<line id="XMLID_191_" class="st1" x1="202.1" y1="222.8" x2="202.1" y2="228.6"/>
			</g>
			<g id="XMLID_183_">
				<line id="XMLID_189_" class="st1" x1="216.6" y1="224.3" x2="265.9" y2="174.9"/>
				<line id="XMLID_188_" class="st1" x1="216.6" y1="174.9" x2="265.9" y2="224.3"/>
				<polyline id="XMLID_187_" class="st1" points="229.6,224.3 216.6,224.3 216.6,211.2 				"/>
				<polyline id="XMLID_186_" class="st1" points="229.6,174.9 216.6,174.9 216.6,188 				"/>
				<polyline id="XMLID_185_" class="st1" points="252.9,224.3 265.9,224.3 265.9,211.2 				"/>
				<polyline id="XMLID_184_" class="st1" points="252.9,174.9 265.9,174.9 265.9,188 				"/>
			</g>
			<circle id="XMLID_182_" class="st1" cx="241.2" cy="199.6" r="21.8"/>
			<line id="XMLID_181_" class="st1" x1="252.9" y1="199.6" x2="255.8" y2="199.6"/>
			<line id="XMLID_180_" class="st1" x1="239.8" y1="212.6" x2="242.7" y2="212.6"/>
			<line id="XMLID_179_" class="st1" x1="226.7" y1="199.6" x2="229.6" y2="199.6"/>
			<line id="XMLID_178_" class="st1" x1="239.8" y1="186.5" x2="242.7" y2="186.5"/>
		</g>
	</g>
</g>
<g id="XMLID_152_">
	<g id="XMLID_153_">
		<g id="XMLID_154_">
			<path id="XMLID_174_" class="st1" d="M98.7,348.8v29c0,3.2-2.6,5.8-5.8,5.8s-5.8-2.6-5.8-5.8v-24.7"/>
			<path id="XMLID_173_" class="st1" d="M82.8,348.8c-1.6,0-2.9-1.3-2.9-2.9s1.3-2.9,2.9-2.9h20.3c1.6,0,2.9,1.3,2.9,2.9
				s-1.3,2.9-2.9,2.9H82.8z"/>
			<line id="XMLID_172_" class="st1" x1="92.9" y1="361.9" x2="92.9" y2="364.8"/>
			<line id="XMLID_171_" class="st1" x1="92.9" y1="367.7" x2="92.9" y2="370.6"/>
			<line id="XMLID_170_" class="st1" x1="92.9" y1="373.5" x2="92.9" y2="376.4"/>
			<circle id="XMLID_169_" class="st1" cx="92.9" cy="318.3" r="24.7"/>
			<path id="XMLID_168_" class="st1" d="M127.8,328.5v-29c0-3.2,2.6-5.8,5.8-5.8c3.2,0,5.8,2.6,5.8,5.8v24.7"/>
			<path id="XMLID_167_" class="st1" d="M143.7,328.5c1.6,0,2.9,1.3,2.9,2.9s-1.3,2.9-2.9,2.9h-20.3c-1.6,0-2.9-1.3-2.9-2.9
				s1.3-2.9,2.9-2.9H143.7z"/>
			<line id="XMLID_166_" class="st1" x1="133.6" y1="315.4" x2="133.6" y2="312.5"/>
			<line id="XMLID_165_" class="st1" x1="133.6" y1="309.6" x2="133.6" y2="306.7"/>
			<line id="XMLID_164_" class="st1" x1="133.6" y1="303.8" x2="133.6" y2="300.9"/>
			<circle id="XMLID_163_" class="st1" cx="133.6" cy="359" r="24.7"/>
			<g id="XMLID_160_">
				<path id="XMLID_162_" class="st1" d="M98.7,330v-17.4c0-2.4-2-4.4-4.4-4.4h-2.9c-2.4,0-4.4,2-4.4,4.4V330"/>
				<line id="XMLID_161_" class="st1" x1="98.7" y1="319.8" x2="87.1" y2="319.8"/>
			</g>
			<g id="XMLID_157_">
				<line id="XMLID_159_" class="st1" x1="127.8" y1="357.5" x2="133.6" y2="357.5"/>
				<path id="XMLID_158_" class="st1" d="M133.6,348.8h-5.8v20.3h5.8c3.2,0,5.8-2.6,5.8-5.8c0-3.2-2.6-5.8-5.8-5.8
					c2.4,0,4.4-2,4.4-4.4C137.9,350.8,136,348.8,133.6,348.8z"/>
			</g>
			<circle id="XMLID_156_" class="st1" cx="92.9" cy="318.3" r="18.9"/>
			<circle id="XMLID_155_" class="st1" cx="133.6" cy="359" r="18.9"/>
		</g>
	</g>
</g>
<g id="XMLID_123_">
	<g id="XMLID_124_">
		<g id="XMLID_125_">
			<g id="XMLID_150_">
				<rect id="XMLID_151_" x="-156" y="353.9" class="st1" width="5.8" height="5.8"/>
			</g>
			<g id="XMLID_148_">
				<rect id="XMLID_149_" x="-173.4" y="374.2" class="st1" width="5.8" height="5.8"/>
			</g>
			<g id="XMLID_146_">
				<rect id="XMLID_147_" x="-208.2" y="333.6" class="st1" width="5.8" height="5.8"/>
			</g>
			<g id="XMLID_144_">
				<rect id="XMLID_145_" x="-190.8" y="353.9" class="st1" width="5.8" height="5.8"/>
			</g>
			<g id="XMLID_142_">
				<rect id="XMLID_143_" x="-225.7" y="353.9" class="st1" width="5.8" height="5.8"/>
			</g>
			<g id="XMLID_139_">
				<g id="XMLID_140_">
					<polygon id="XMLID_141_" class="st1" points="-201,378.6 -190.8,377.1 -189.4,375.7 -212.6,367 -203.9,390.2 -202.4,388.7 
											"/>
				</g>
			</g>
			<line id="XMLID_138_" class="st1" x1="-206.8" y1="356.8" x2="-203.9" y2="356.8"/>
			<line id="XMLID_137_" class="st1" x1="-201" y1="356.8" x2="-198.1" y2="356.8"/>
			<line id="XMLID_136_" class="st1" x1="-212.6" y1="356.8" x2="-209.7" y2="356.8"/>
			<line id="XMLID_135_" class="st1" x1="-171.9" y1="356.8" x2="-169" y2="356.8"/>
			<line id="XMLID_134_" class="st1" x1="-166.1" y1="356.8" x2="-163.2" y2="356.8"/>
			<line id="XMLID_133_" class="st1" x1="-177.8" y1="356.8" x2="-174.9" y2="356.8"/>
			<circle id="XMLID_132_" class="st1" cx="-187.9" cy="356.8" r="45"/>
			<path id="XMLID_131_" class="st1" d="M-202.4,336.7c8.2,1.4,14.5,8.5,14.5,17.2"/>
			<path id="XMLID_130_" class="st1" d="M-222.8,353.9c0-8.6,6.3-15.8,14.5-17.2"/>
			<path id="XMLID_129_" class="st1" d="M-173.4,376.9c-8.2-1.4-14.5-8.5-14.5-17.2"/>
			<path id="XMLID_128_" class="st1" d="M-153.1,359.7c0,8.6-6.3,15.8-14.5,17.2"/>
			<line id="XMLID_127_" class="st1" x1="-208.2" y1="336.5" x2="-222.8" y2="336.5"/>
			<line id="XMLID_126_" class="st1" x1="-187.9" y1="336.5" x2="-202.4" y2="336.5"/>
		</g>
	</g>
</g>
<g id="XMLID_99_">
	<g id="XMLID_100_">
		<rect id="XMLID_122_" x="90" y="145.2" class="st1" width="37.7" height="11.6"/>
		<rect id="XMLID_121_" x="92.9" y="165.5" class="st1" width="31.9" height="5.8"/>
		<rect id="XMLID_120_" x="92.9" y="177.1" class="st1" width="31.9" height="5.8"/>
		<rect id="XMLID_119_" x="92.9" y="188.8" class="st1" width="31.9" height="5.8"/>
		<rect id="XMLID_118_" x="92.9" y="200.4" class="st1" width="31.9" height="5.8"/>
		<rect id="XMLID_117_" x="92.9" y="212" class="st1" width="31.9" height="5.8"/>
		<rect id="XMLID_116_" x="92.9" y="226.5" class="st1" width="31.9" height="8.7"/>
		<rect id="XMLID_115_" x="130.7" y="226.5" class="st1" width="23.2" height="8.7"/>
		<rect id="XMLID_114_" x="63.9" y="226.5" class="st1" width="23.2" height="8.7"/>
		<line id="XMLID_113_" class="st1" x1="108.9" y1="156.8" x2="108.9" y2="165.5"/>
		<line id="XMLID_112_" class="st1" x1="108.9" y1="217.8" x2="108.9" y2="226.5"/>
		<line id="XMLID_111_" class="st1" x1="130.7" y1="230.9" x2="124.9" y2="230.9"/>
		<line id="XMLID_110_" class="st1" x1="92.9" y1="230.9" x2="87.1" y2="230.9"/>
		<line id="XMLID_109_" class="st1" x1="107.4" y1="151" x2="110.4" y2="151"/>
		<line id="XMLID_108_" class="st1" x1="113.3" y1="151" x2="116.2" y2="151"/>
		<line id="XMLID_107_" class="st1" x1="101.6" y1="151" x2="104.5" y2="151"/>
		<path id="XMLID_106_" class="st1" d="M88.6,214.9h-5.8c-0.8,0-1.5-0.6-1.5-1.5v-43.5c0-0.8,0.7-1.5,1.5-1.5h5.8"/>
		<path id="XMLID_105_" class="st1" d="M88.6,191.7H74.1c-0.8,0-1.5-0.6-1.5-1.5v-37.7c0-0.8,0.7-1.5,1.5-1.5h11.6"/>
		<path id="XMLID_104_" class="st1" d="M75.5,222.1v-17.4c0-0.8,0.7-1.5,1.5-1.5h11.6"/>
		<path id="XMLID_103_" class="st1" d="M142.3,222.1v-29c0-0.8-0.7-1.5-1.5-1.5h-11.6"/>
		<path id="XMLID_102_" class="st1" d="M132.1,151h11.6c0.8,0,1.5,0.6,1.5,1.5v26.1c0,0.8-0.7,1.5-1.5,1.5h-14.5"/>
		<path id="XMLID_101_" class="st1" d="M129.2,168.4h5.8c0.8,0,1.5,0.6,1.5,1.5v43.5c0,0.8-0.7,1.5-1.5,1.5h-5.8"/>
	</g>
</g>
<g id="XMLID_65_">
	<g id="XMLID_66_">
		<g id="XMLID_67_">
			<g id="XMLID_95_">
				<g id="XMLID_96_">
					<polyline id="XMLID_98_" class="st2" points="407.1,228 440.5,228 440.5,222.1 					"/>
					<polyline id="XMLID_97_" class="st2" points="356.3,222.1 356.3,228 386.8,228 					"/>
				</g>
			</g>
			<polyline id="XMLID_94_" class="st2" points="386.8,222.1 353.4,222.1 353.4,159.7 386.8,159.7 			"/>
			<polyline id="XMLID_93_" class="st2" points="437.6,159.7 443.4,159.7 443.4,222.1 407.1,222.1 			"/>
			<line id="XMLID_92_" class="st2" x1="407.1" y1="159.7" x2="426" y2="159.7"/>
			<line id="XMLID_91_" class="st2" x1="357.8" y1="171.3" x2="386.8" y2="171.3"/>
			<line id="XMLID_90_" class="st2" x1="357.8" y1="213.4" x2="386.8" y2="213.4"/>
			<line id="XMLID_89_" class="st2" x1="357.8" y1="207.6" x2="386.8" y2="207.6"/>
			<line id="XMLID_88_" class="st2" x1="357.8" y1="201.8" x2="386.8" y2="201.8"/>
			<line id="XMLID_87_" class="st2" x1="407.1" y1="196" x2="439.1" y2="196"/>
			<line id="XMLID_86_" class="st2" x1="407.1" y1="201.8" x2="439.1" y2="201.8"/>
			<line id="XMLID_85_" class="st2" x1="407.1" y1="207.6" x2="439.1" y2="207.6"/>
			<line id="XMLID_84_" class="st2" x1="407.1" y1="213.4" x2="439.1" y2="213.4"/>
			<g id="XMLID_79_">
				<polyline id="XMLID_83_" class="st2" points="391.2,225.1 391.2,159.7 402.8,159.7 402.8,225.1 				"/>
				<line id="XMLID_82_" class="st2" x1="397" y1="159.7" x2="397" y2="225.1"/>
				<polygon id="XMLID_81_" class="st2" points="397,238.1 391.2,225.1 402.8,225.1 				"/>
				<path id="XMLID_80_" class="st2" d="M391.2,152.5v7.3h11.6v-7.3c0-2.4-2-4.4-4.4-4.4h-2.9C393.1,148.1,391.2,150.1,391.2,152.5z
					"/>
			</g>
			<polygon id="XMLID_78_" class="st2" points="437.6,185.9 431.8,180.1 426,185.9 426,156.8 437.6,156.8 			"/>
			<rect id="XMLID_77_" x="359.2" y="177.1" class="st2" width="26.1" height="18.9"/>
			<line id="XMLID_76_" class="st2" x1="407.1" y1="168.4" x2="421.6" y2="168.4"/>
			<line id="XMLID_75_" class="st2" x1="407.1" y1="174.2" x2="421.6" y2="174.2"/>
			<line id="XMLID_74_" class="st2" x1="407.1" y1="180.1" x2="421.6" y2="180.1"/>
			<line id="XMLID_73_" class="st2" x1="407.1" y1="190.2" x2="410" y2="190.2"/>
			<line id="XMLID_72_" class="st2" x1="412.9" y1="190.2" x2="415.8" y2="190.2"/>
			<line id="XMLID_71_" class="st2" x1="418.7" y1="190.2" x2="421.6" y2="190.2"/>
			<line id="XMLID_70_" class="st2" x1="357.8" y1="165.5" x2="360.7" y2="165.5"/>
			<line id="XMLID_69_" class="st2" x1="363.6" y1="165.5" x2="366.5" y2="165.5"/>
			<line id="XMLID_68_" class="st2" x1="369.4" y1="165.5" x2="372.3" y2="165.5"/>
		</g>
	</g>
</g>
<g id="XMLID_37_">
	<g id="XMLID_38_">
		<g id="XMLID_52_">
			<line id="XMLID_64_" class="st1" x1="-18.3" y1="372" x2="-18.3" y2="383.7"/>
			<line id="XMLID_63_" class="st1" x1="-35.7" y1="383.7" x2="-35.7" y2="372"/>
			<line id="XMLID_62_" class="st1" x1="-40.1" y1="383.7" x2="-13.9" y2="383.7"/>
			<line id="XMLID_61_" class="st1" x1="-40.1" y1="360.4" x2="-8.1" y2="360.4"/>
			<line id="XMLID_60_" class="st1" x1="-28.4" y1="366.2" x2="-25.5" y2="366.2"/>
			<polyline id="XMLID_59_" class="st1" points="-67.6,332.9 -67.6,311.1 10.7,311.1 10.7,344.5 			"/>
			<line id="XMLID_58_" class="st1" x1="-44.4" y1="311.1" x2="-44.4" y2="332.9"/>
			<line id="XMLID_57_" class="st1" x1="-67.6" y1="325.6" x2="10.7" y2="325.6"/>
			<line id="XMLID_56_" class="st1" x1="-27" y1="311.1" x2="-27" y2="354.6"/>
			<polyline id="XMLID_55_" class="st1" points="-9.6,311.1 -9.6,354.6 -40.1,354.6 			"/>
			<line id="XMLID_54_" class="st1" x1="-8.1" y1="372" x2="-40.1" y2="372"/>
			<path id="XMLID_53_" class="st1" d="M-73.4,332.9v-26.1c0-0.8,0.7-1.5,1.5-1.5h87.1c0.8,0,1.5,0.6,1.5,1.5v37.7"/>
		</g>
		<g id="XMLID_47_">
			<line id="XMLID_51_" class="st1" x1="-44.4" y1="372" x2="-73.4" y2="372"/>
			<path id="XMLID_50_" class="st1" d="M-44.4,382.2c0,0.8-0.7,1.5-1.5,1.5H-72c-0.8,0-1.5-0.6-1.5-1.5v-43.5c0-0.8,0.7-1.5,1.5-1.5
				h26.1c0.8,0,1.5,0.6,1.5,1.5V382.2z"/>
			<line id="XMLID_49_" class="st1" x1="-61.8" y1="343" x2="-61.8" y2="372"/>
			<line id="XMLID_48_" class="st1" x1="-73.4" y1="351.7" x2="-44.4" y2="351.7"/>
		</g>
		<line id="XMLID_46_" class="st1" x1="-73.4" y1="343" x2="-44.4" y2="343"/>
		<path id="XMLID_45_" class="st1" d="M16.6,382.2c0,0.8-0.6,1.5-1.5,1.5H-2.3c-0.8,0-1.5-0.6-1.5-1.5v-31.9c0-0.8,0.7-1.5,1.5-1.5
			h17.4c0.8,0,1.5,0.6,1.5,1.5V382.2z"/>
		<line id="XMLID_44_" class="st1" x1="0.6" y1="372" x2="12.2" y2="372"/>
		<line id="XMLID_43_" class="st1" x1="-3.8" y1="377.9" x2="16.6" y2="377.9"/>
		<line id="XMLID_42_" class="st1" x1="-63.3" y1="377.9" x2="-54.6" y2="377.9"/>
		<line id="XMLID_41_" class="st1" x1="0.6" y1="360.4" x2="12.2" y2="360.4"/>
		<line id="XMLID_40_" class="st1" x1="0.6" y1="366.2" x2="12.2" y2="366.2"/>
		<line id="XMLID_39_" class="st1" x1="-3.8" y1="354.6" x2="16.6" y2="354.6"/>
	</g>
</g>
<g id="XMLID_26_">
	<g id="XMLID_27_">
		<path id="XMLID_36_" class="st2" d="M85.5,96.9L68.1,79.5c0,0,36.3-59.5,76.9-59.5C145,60.6,85.5,96.9,85.5,96.9z"/>
		<polyline id="XMLID_35_" class="st2" points="82.6,94 78.2,98.4 66.6,86.8 71,82.4 		"/>
		<path id="XMLID_34_" class="st2" d="M63.7,91.1C55,99.8,55,110,55,110s10.2,0,18.9-8.7"/>
		<circle id="XMLID_33_" class="st2" cx="120.3" cy="44.7" r="5.8"/>
		<circle id="XMLID_32_" class="st2" cx="107.3" cy="57.7" r="5.8"/>
		<circle id="XMLID_31_" class="st2" cx="94.2" cy="70.8" r="5.8"/>
		<polyline id="XMLID_30_" class="st2" points="131.9,54.8 107.3,110 92.7,110 92.7,98.4 		"/>
		<polyline id="XMLID_29_" class="st2" points="110.2,33.1 55,57.7 55,72.3 66.6,72.3 		"/>
		<path id="XMLID_28_" class="st2" d="M142.1,34.5c-6.4,0-11.6-5.2-11.6-11.6"/>
	</g>
</g>
<g id="XMLID_2_">
	<g id="XMLID_3_">
		<g id="XMLID_4_">
			<line id="XMLID_25_" class="st2" x1="378.7" y1="346.6" x2="428.1" y2="346.6"/>
			<path id="XMLID_24_" class="st2" d="M384.5,335h-10.2c-8.8,0-16,5.7-16,14.5v5.8c0,1.6,1.3,2.9,2.9,2.9h18.9
				c1.6,0,2.9-1.3,2.9-2.9v-8.7"/>
			<path id="XMLID_23_" class="st2" d="M423.7,346.6v8.7c0,1.6,1.3,2.9,2.9,2.9h18.9c1.6,0,2.9-1.3,2.9-2.9v-5.8
				c0-8.8-7.1-14.5-16-14.5h-10.2"/>
			<g id="XMLID_20_">
				<path id="XMLID_22_" class="st2" d="M410.7,314c0,5.1-2.8,9.4-7.3,9.4c-4.4,0-7.3-4.4-7.3-9.4c0-5.1,1.5-8,7.3-8
					C409.2,306,410.7,308.9,410.7,314z"/>
				<path id="XMLID_21_" class="st2" d="M407.8,322l10.2,5.8c0,0,0,0.5,0,2.9c0,2.4-1.5,4.4-2.9,4.4h-23.2c-1.5,0-2.9-1.9-2.9-4.4
					c0-2.4,0-2.9,0-2.9l10.2-5.8"/>
			</g>
			<g id="XMLID_17_">
				<path id="XMLID_19_" class="st2" d="M380.2,375c0,5.1-2.8,9.4-7.3,9.4s-7.3-4.4-7.3-9.4c0-5.1,1.5-8,7.3-8
					S380.2,369.9,380.2,375z"/>
				<path id="XMLID_18_" class="st2" d="M377.3,382.9l10.2,5.8c0,0,0,0.5,0,2.9c0,2.4-1.5,4.4-2.9,4.4h-23.2c-1.5,0-2.9-1.9-2.9-4.4
					c0-2.4,0-2.9,0-2.9l10.2-5.8"/>
			</g>
			<g id="XMLID_14_">
				<path id="XMLID_16_" class="st2" d="M441.2,375c0,5.1-2.8,9.4-7.3,9.4s-7.3-4.4-7.3-9.4c0-5.1,1.5-8,7.3-8
					S441.2,369.9,441.2,375z"/>
				<path id="XMLID_15_" class="st2" d="M438.3,382.9l10.2,5.8c0,0,0,0.5,0,2.9c0,2.4-1.5,4.4-2.9,4.4h-23.2c-1.5,0-2.9-1.9-2.9-4.4
					c0-2.4,0-2.9,0-2.9l10.2-5.8"/>
			</g>
			<line id="XMLID_13_" class="st2" x1="396.2" y1="352.5" x2="399.1" y2="352.5"/>
			<line id="XMLID_12_" class="st2" x1="402" y1="352.5" x2="404.9" y2="352.5"/>
			<line id="XMLID_11_" class="st2" x1="407.8" y1="352.5" x2="410.7" y2="352.5"/>
			<path id="XMLID_10_" class="st2" d="M397.6,356.8v17.4c0,0.8-0.6,1.5-1.5,1.5h-11.6"/>
			<path id="XMLID_9_" class="st2" d="M409.2,356.8v17.4c0,0.8,0.6,1.5,1.5,1.5h11.6"/>
			<line id="XMLID_8_" class="st2" x1="403.4" y1="356.8" x2="403.4" y2="377.1"/>
			<line id="XMLID_7_" class="st2" x1="358.4" y1="352.5" x2="383.1" y2="352.5"/>
			<line id="XMLID_6_" class="st2" x1="423.7" y1="352.5" x2="448.4" y2="352.5"/>
			<line id="XMLID_5_" class="st2" x1="384.5" y1="396" x2="422.3" y2="396"/>
		</g>
	</g>
</g>
<text id="XMLID_289_" transform="matrix(1 0 0 1 -210.3604 417.6666)" style="fill:#231F20; font-family:'MyriadPro-Regular'; font-size:12px;">6. Design</text>
<text id="XMLID_288_" transform="matrix(1 0 0 1 -72.0418 417.6666)" style="fill:#231F20; font-family:'MyriadPro-Regular'; font-size:12px;">7. Development</text>
<text id="XMLID_287_" transform="matrix(1 0 0 1 85.8866 417.6666)" style="fill:#231F20; font-family:'MyriadPro-Regular'; font-size:12px;">8. Testing</text>
<text id="XMLID_286_" transform="matrix(1 0 0 1 235.6176 417.6666)" style="fill:#231F20; font-family:'MyriadPro-Regular'; font-size:12px;">9. Launch</text>
<text id="XMLID_1_" transform="matrix(1 0 0 1 384.6148 417.6666)" style="fill:#231F20; font-family:'MyriadPro-Regular'; font-size:12px;">10. Support</text>
</svg>
