<?xml version="1.0" encoding="utf-8"?>
<!-- Generator: Adobe Illustrator 19.0.0, SVG Export Plug-In . SVG Version: 6.00 Build 0)  -->
<svg version="1.1" id="Layer_1" xmlns="http://www.w3.org/2000/svg" xmlns:xlink="http://www.w3.org/1999/xlink" x="0px" y="0px"
	 viewBox="-137 139 24 24" style="enable-background:new -137 139 24 24;" xml:space="preserve">
<style type="text/css">
	.st0{fill:#FFFFFF;}
</style>
<g>
	<g>
		<path class="st0" d="M-118.1,159.8h-13.8v-11.9h13.8V159.8z M-131.3,159.1h12.5v-10.6h-12.5V159.1z"/>
		<path class="st0" d="M-118.4,148.5h-13.1c-0.1,0-0.3-0.1-0.3-0.2l-1.3-5.6c0-0.1,0-0.2,0.1-0.3c0.1-0.1,0.1-0.1,0.2-0.1h15.6
			c0.1,0,0.2,0,0.2,0.1c0.1,0.1,0.1,0.2,0.1,0.3l-1.3,5.6C-118.2,148.4-118.3,148.5-118.4,148.5z M-131.3,147.9h12.6l1.1-5h-14.8
			L-131.3,147.9z"/>
		<path class="st0" d="M-118.4,148.5h-13.1c-0.1,0-0.2,0-0.2-0.1l-3.1-3.1c-0.1-0.1-0.1-0.2-0.1-0.3c0-0.1,0.2-0.2,0.3-0.2h1.6v0.6
			h-0.8l2.5,2.5h12.9l2.5-2.5h-0.8v-0.6h1.6c0.1,0,0.2,0.1,0.3,0.2c0,0.1,0,0.3-0.1,0.3l-3.1,3.1
			C-118.3,148.5-118.4,148.5-118.4,148.5z"/>
		<rect x="-135" y="149.4" class="st0" width="2.5" height="0.6"/>
		<rect x="-134.4" y="151.3" class="st0" width="4.4" height="0.6"/>
		<rect x="-135" y="153.5" class="st0" width="2.5" height="0.6"/>
		<rect x="-133.8" y="155.7" class="st0" width="3.1" height="0.6"/>
		<rect x="-134.4" y="157.9" class="st0" width="1.9" height="0.6"/>
		<path class="st0" d="M-121.6,156.3h-6.9c-0.2,0-0.3-0.1-0.3-0.3v-4.4c0-0.2,0.1-0.3,0.3-0.3h4.4v0.6h-4.1v3.8h6.3v-2.2h0.6v2.5
			C-121.3,156.2-121.4,156.3-121.6,156.3z"/>
		<path class="st0" d="M-124.7,154.8c-0.1,0-0.2,0-0.2-0.1l-1.6-1.6l0.4-0.4l1.3,1.3l3.2-3.2l0.4,0.4l-3.4,3.4
			C-124.5,154.7-124.6,154.8-124.7,154.8z"/>
		<rect x="-131.6" y="143.5" class="st0" width="13.1" height="0.6"/>
		<rect x="-128.8" y="150.1" class="st0" width="0.6" height="0.6"/>
		<rect x="-127.5" y="150.1" class="st0" width="0.6" height="0.6"/>
		<rect x="-126.3" y="150.1" class="st0" width="0.6" height="0.6"/>
	</g>
</g>
</svg>
