<?xml version="1.0" encoding="utf-8"?>
<!-- Generator: Adobe Illustrator 19.0.0, SVG Export Plug-In . SVG Version: 6.00 Build 0)  -->
<svg version="1.1" id="Layer_1" xmlns="http://www.w3.org/2000/svg" xmlns:xlink="http://www.w3.org/1999/xlink" x="0px" y="0px"
	 viewBox="-137 139 24 24" style="enable-background:new -137 139 24 24;" xml:space="preserve">
<style type="text/css">
	.st0{fill:#FFFFFF;}
</style>
<g>
	<g>
		<rect x="-135" y="160.4" class="st0" width="20" height="0.6"/>
		<polygon class="st0" points="-115.9,160.7 -116.6,160.7 -116.6,141.6 -133.4,141.6 -133.4,160.7 -134.1,160.7 -134.1,141 
			-115.9,141 		"/>
		<rect x="-133.8" y="143.5" class="st0" width="17.5" height="0.6"/>
		<rect x="-132.8" y="142.3" class="st0" width="0.6" height="0.6"/>
		<rect x="-131.6" y="142.3" class="st0" width="0.6" height="0.6"/>
		<rect x="-130.3" y="142.3" class="st0" width="0.6" height="0.6"/>
		<rect x="-129.1" y="141.3" class="st0" width="0.6" height="2.5"/>
		<rect x="-127.8" y="142.3" class="st0" width="10.6" height="0.6"/>
		<path class="st0" d="M-117.2,149.1h-15.6v-4.4h15.6V149.1z M-132.2,148.5h14.4v-3.1h-14.4V148.5z"/>
		<rect x="-125.3" y="146.6" class="st0" width="0.6" height="0.6"/>
		<rect x="-126.6" y="146.6" class="st0" width="0.6" height="0.6"/>
		<rect x="-124.1" y="146.6" class="st0" width="0.6" height="0.6"/>
		<path class="st0" d="M-128.1,153.5h-4.7v-3.1h4.7V153.5z M-132.2,152.9h3.4V151h-3.4V152.9z"/>
		<path class="st0" d="M-122.5,153.5h-5v-3.1h5V153.5z M-126.9,152.9h3.8V151h-3.8V152.9z"/>
		<path class="st0" d="M-117.2,153.5h-4.7v-3.1h4.7V153.5z M-121.3,152.9h3.4V151h-3.4V152.9z"/>
		<rect x="-132.8" y="154.1" class="st0" width="4.7" height="0.6"/>
		<rect x="-132.8" y="155.4" class="st0" width="4.7" height="0.6"/>
		<rect x="-132.8" y="156.6" class="st0" width="4.7" height="0.6"/>
		<rect x="-127.5" y="154.1" class="st0" width="4.7" height="0.6"/>
		<rect x="-127.5" y="155.4" class="st0" width="4.7" height="0.6"/>
		<rect x="-127.5" y="156.6" class="st0" width="4.7" height="0.6"/>
		<rect x="-121.9" y="154.1" class="st0" width="4.7" height="0.6"/>
		<rect x="-121.9" y="155.4" class="st0" width="4.7" height="0.6"/>
		<rect x="-121.9" y="156.6" class="st0" width="4.7" height="0.6"/>
		<rect x="-132.8" y="159.1" class="st0" width="15.6" height="0.6"/>
	</g>
</g>
</svg>
