<?xml version="1.0" encoding="utf-8"?>
<!-- Generator: Adobe Illustrator 19.0.0, SVG Export Plug-In . SVG Version: 6.00 Build 0)  -->
<svg version="1.1" id="Layer_1" xmlns="http://www.w3.org/2000/svg" xmlns:xlink="http://www.w3.org/1999/xlink" x="0px" y="0px"
	 viewBox="0 0 64 64" style="enable-background:new 0 0 64 64;" xml:space="preserve">
<style type="text/css">
	.st0{fill:#FF6400;}
	.st1{fill:none;stroke:#FF6400;stroke-width:2;stroke-miterlimit:10;}
	.st2{fill:none;stroke:#FF6400;stroke-width:2;stroke-linecap:round;stroke-miterlimit:10;}
	.st3{fill:none;stroke:#FF6400;stroke-width:2;stroke-linecap:round;stroke-linejoin:round;stroke-miterlimit:10;}
	.st4{fill:none;stroke:#F16522;stroke-width:2;stroke-miterlimit:10;}
	.st5{fill:none;stroke:#F16522;stroke-width:2;stroke-linejoin:round;stroke-miterlimit:10;}
	.st6{fill:none;stroke:#F16522;stroke-width:2;stroke-linecap:round;stroke-linejoin:round;stroke-miterlimit:10;}
</style>
<g id="XMLID_40_">
	<g id="XMLID_41_">
		<g id="XMLID_42_">
			<g id="XMLID_61_">
				<path id="XMLID_62_" class="st0" d="M-118.4-87h-2v-14.2c0-6.2,5.1-11.3,11.3-11.3v2c-5.1,0-9.3,4.2-9.3,9.3V-87z"/>
				<path id="XMLID_60_" class="st0" d="M-74.5-87h-2v-14.2c0-5.1-4.2-9.3-9.3-9.3v-2c6.2,0,11.3,5.1,11.3,11.3V-87z"/>
			</g>
			<g id="XMLID_58_">
				<polygon id="XMLID_59_" class="st0" points="-56.5,-48.6 -70.4,-48.6 -70.4,-50.6 -58.5,-50.6 -58.5,-71.8 -75.5,-71.8 
					-75.5,-73.8 -56.5,-73.8 				"/>
				<polygon id="XMLID_57_" class="st0" points="-124.6,-48.6 -138.5,-48.6 -138.5,-73.8 -119.4,-73.8 -119.4,-71.8 -136.5,-71.8 
					-136.5,-50.6 -124.6,-50.6 				"/>
			</g>
			<g id="XMLID_52_">
				<g id="XMLID_54_">
					<path id="XMLID_56_" class="st0" d="M-75.5-48.6h-43.9c-0.6,0-1-0.4-1-1v-27.1c0-2.7,2.2-4.9,4.9-4.9h36.1
						c2.7,0,4.9,2.2,4.9,4.9v27.1C-74.5-49-75-48.6-75.5-48.6z M-118.4-50.6h41.9v-26.1c0-1.6-1.3-2.9-2.9-2.9h-36.1
						c-1.6,0-2.9,1.3-2.9,2.9V-50.6z"/>
					<path id="XMLID_55_" class="st0" d="M-74.6-49.1l-1.8-0.9l3.8-7.5v-6.5h-2.9v-2h3.9c0.6,0,1,0.4,1,1v7.7c0,0.2,0,0.3-0.1,0.4
						L-74.6-49.1z"/>
					<path id="XMLID_53_" class="st0" d="M-120.3-49.1l-3.9-7.7c-0.1-0.1-0.1-0.3-0.1-0.4v-7.7c0-0.6,0.4-1,1-1h3.9v2h-2.9v6.5
						l3.8,7.5L-120.3-49.1z"/>
				</g>
				<path id="XMLID_50_" class="st0" d="M-97.5-60.2c-2.7,0-4.9-2.2-4.9-4.9s2.2-4.9,4.9-4.9s4.9,2.2,4.9,4.9S-94.8-60.2-97.5-60.2z
					 M-97.5-67.9c-1.6,0-2.9,1.3-2.9,2.9s1.3,2.9,2.9,2.9s2.9-1.3,2.9-2.9S-95.9-67.9-97.5-67.9z"/>
			</g>
			<g id="XMLID_43_">
				<path id="XMLID_51_" class="st0" d="M-88.4-92.2"/>
				<path id="XMLID_49_" class="st0" d="M-124.9-72.8h-2v-2.6c0-10.1,5.4-12.2,11.6-14.6c2.3-0.9,4.6-1.7,6.9-3.1l1,1.7
					c-2.5,1.4-5,2.4-7.2,3.2c-6,2.3-10.3,3.9-10.3,12.7V-72.8z"/>
				<path id="XMLID_48_" class="st0" d="M-68.1-72.8h-2v-3.9c0-8.3-3.8-9.5-9.6-11.4c-2.5-0.8-5.2-1.7-8-3.2l1-1.7
					c2.6,1.5,5.1,2.3,7.6,3.1c5.9,1.9,11,3.5,11,13.3V-72.8z"/>
				<path id="XMLID_47_" class="st0" d="M-92.1-85.8l-5.4-2.7l-5.4,2.7l-6.3-6.3l3.4-5.1l8.2,1.4l8.2-1.4l3.4,5.1L-92.1-85.8z
					 M-97.5-90.7l5,2.5l4.1-4.1l-1.8-2.7l-7.3,1.2l-7.3-1.2l-1.8,2.7l4.1,4.1L-97.5-90.7z"/>
				<rect id="XMLID_46_" x="-92" y="-101.2" class="st0" width="2" height="5.2"/>
				<rect id="XMLID_45_" x="-104.9" y="-101.2" class="st0" width="2" height="5.2"/>
				<path id="XMLID_44_" class="st0" d="M-97.5-98.9c-0.2,0-4.1,0-6.9-1.4l-0.1-0.1c-0.2-0.1-4.3-2.9-5.6-12.3l0-0.1v-5.2
					c0-8.4,4.2-12.6,12.6-12.6s12.6,4.2,12.6,12.6l0,5.3c-1.3,9.4-5.4,12.2-5.6,12.3l-0.1,0.1C-93.3-98.9-97.3-98.9-97.5-98.9z
					 M-103.4-102.1c2.3,1.1,5.9,1.1,5.9,1.1c0,0,3.6,0,5.9-1.1c0.4-0.3,3.5-3,4.7-10.8v-5.1c0-7.2-3.4-10.6-10.6-10.6
					s-10.6,3.4-10.6,10.6v5.1C-106.9-105.1-103.8-102.4-103.4-102.1z"/>
				<polygon id="XMLID_36_" class="st0" points="-91,-114.3 -103.9,-119.5 -108.6,-117.1 -109.5,-118.9 -104,-121.7 -91.1,-116.5 
					-86.3,-118.9 -85.4,-117.1 				"/>
			</g>
		</g>
	</g>
</g>
<g id="XMLID_38_">
	<g id="XMLID_39_">
		<path id="XMLID_35_" class="st0" d="M-208.7-62.2h-2v-1.1l-27.3-46.4l1.7-1l27.4,46.6c0.1,0.2,0.1,0.3,0.1,0.5V-62.2z"/>
		<path id="XMLID_34_" class="st0" d="M-293.7-60.8h-2v-1.4c0-0.2,0-0.3,0.1-0.5l27.4-48l1.7,1l-27.3,47.8V-60.8z"/>
		<rect id="XMLID_33_" x="-242.6" y="-71.4" class="st0" width="27.4" height="2"/>
		<rect id="XMLID_32_" x="-289.2" y="-71.4" class="st0" width="27.4" height="2"/>
		<rect id="XMLID_31_" x="-242.6" y="-79.6" class="st0" width="23.3" height="2"/>
		<rect id="XMLID_30_" x="-285.1" y="-79.6" class="st0" width="23.3" height="2"/>
		<rect id="XMLID_29_" x="-242.6" y="-87.8" class="st0" width="19.2" height="2"/>
		<rect id="XMLID_28_" x="-281" y="-87.8" class="st0" width="19.2" height="2"/>
		<rect id="XMLID_27_" x="-242.6" y="-96.1" class="st0" width="13.7" height="2"/>
		<rect id="XMLID_26_" x="-275.5" y="-96.1" class="st0" width="13.7" height="2"/>
		<rect id="XMLID_25_" x="-242.6" y="-104.3" class="st0" width="9.6" height="2"/>
		<rect id="XMLID_24_" x="-271.4" y="-104.3" class="st0" width="9.6" height="2"/>
		<path id="XMLID_23_" class="st0" d="M-245.7-60.8h-2v-53.5c0-0.6,0.4-1,1-1h5.1l-10.6-18.9l-10.6,18.9h5.1c0.6,0,1,0.4,1,1v53.5
			h-2v-52.5h-5.9c-0.4,0-0.7-0.2-0.9-0.5s-0.2-0.7,0-1l12.3-21.9c0.4-0.6,1.4-0.6,1.7,0l12.3,21.9c0.2,0.3,0.2,0.7,0,1
			s-0.5,0.5-0.9,0.5h-5.9V-60.8z"/>
		<rect id="XMLID_22_" x="-253.6" y="-68.7" class="st0" width="2.7" height="2"/>
		<rect id="XMLID_21_" x="-253.6" y="-63.2" class="st0" width="2.7" height="2"/>
		<rect id="XMLID_20_" x="-253.6" y="-74.1" class="st0" width="2.7" height="2"/>
		<rect id="XMLID_19_" x="-253.6" y="-79.6" class="st0" width="2.7" height="2"/>
		<rect id="XMLID_18_" x="-253.6" y="-85.1" class="st0" width="2.7" height="2"/>
		<rect id="XMLID_17_" x="-253.6" y="-90.6" class="st0" width="2.7" height="2"/>
		<rect id="XMLID_16_" x="-253.6" y="-96.1" class="st0" width="2.7" height="2"/>
		<rect id="XMLID_15_" x="-253.6" y="-107" class="st0" width="2.7" height="2"/>
		<rect id="XMLID_37_" x="-253.6" y="-112.5" class="st0" width="2.7" height="2"/>
		<rect id="XMLID_84_" x="-253.6" y="-101.6" class="st0" width="2.7" height="2"/>
	</g>
</g>
<g id="XMLID_64_">
	<g id="XMLID_65_">
		<path id="XMLID_81_" class="st0" d="M-169.9,125.1h-106.5v-92h106.5V125.1z M-271.6,120.3h96.8V38h-96.8V120.3z"/>
		<path id="XMLID_78_" class="st0" d="M-172.3,38H-274c-1.1,0-2.1-0.8-2.4-1.9L-286-7.5c-0.2-0.7,0-1.5,0.5-2
			c0.5-0.6,1.2-0.9,1.9-0.9h121c0.7,0,1.4,0.3,1.9,0.9c0.5,0.6,0.6,1.3,0.5,2l-9.7,43.6C-170.2,37.2-171.2,38-172.3,38z M-272,33.2
			h97.8l8.6-38.7h-115L-272,33.2z"/>
		<path id="XMLID_77_" class="st0" d="M-172.3,38H-274c-0.6,0-1.3-0.3-1.7-0.7l-24.2-24.2c-0.7-0.7-0.9-1.7-0.5-2.6
			c0.4-0.9,1.3-1.5,2.2-1.5h12.1v4.8h-6.3l19.4,19.4h99.6l19.4-19.4h-6.3V9h12.1c1,0,1.9,0.6,2.2,1.5c0.4,0.9,0.2,1.9-0.5,2.6
			l-24.2,24.2C-171.1,37.7-171.7,38-172.3,38z"/>
		<rect id="XMLID_76_" x="-300.6" y="45.3" class="st0" width="19.4" height="4.8"/>
		<rect id="XMLID_75_" x="-295.8" y="59.8" class="st0" width="33.9" height="4.8"/>
		<rect id="XMLID_74_" x="-300.6" y="76.7" class="st0" width="19.4" height="4.8"/>
		<rect id="XMLID_73_" x="-290.9" y="93.7" class="st0" width="24.2" height="4.8"/>
		<rect id="XMLID_72_" x="-295.8" y="110.6" class="st0" width="14.5" height="4.8"/>
		<path id="XMLID_71_" class="st0" d="M-196.5,98.5h-53.2c-1.3,0-2.4-1.1-2.4-2.4V62.2c0-1.3,1.1-2.4,2.4-2.4h33.9v4.8h-31.5v29
			h48.4V76.7h4.8v19.4C-194.1,97.4-195.2,98.5-196.5,98.5z"/>
		<path id="XMLID_70_" class="st0" d="M-220.7,86.4c-0.6,0-1.2-0.2-1.7-0.7l-12.1-12.1l3.4-3.4l10.4,10.4l24.9-24.9l3.4,3.4
			L-219,85.7C-219.5,86.2-220.1,86.4-220.7,86.4z"/>
		<rect id="XMLID_69_" x="-274" y="-0.7" class="st0" width="101.6" height="4.8"/>
		<rect id="XMLID_68_" x="-252.2" y="50.1" class="st0" width="4.8" height="4.8"/>
		<rect id="XMLID_67_" x="-242.5" y="50.1" class="st0" width="4.8" height="4.8"/>
		<rect id="XMLID_66_" x="-232.8" y="50.1" class="st0" width="4.8" height="4.8"/>
	</g>
</g>
<g id="XMLID_63_">
	<g id="XMLID_93_">
		<g id="XMLID_94_">
			<g id="XMLID_97_">
				<line id="XMLID_112_" class="st1" x1="-388.6" y1="-65" x2="-359" y2="-65"/>
				<polyline id="XMLID_111_" class="st2" points="-339.8,-44.2 -344.2,-39.8 -344.2,-36.8 -350.1,-30.9 				"/>
				<path id="XMLID_110_" class="st2" d="M-375.3-30.9l16.3,16.3c0,0,1.5,1.5,3,1.5c2.5,0,4.4-2,4.4-4.4c0-1.5-1.5-3-1.5-3
					l-16.3-16.3"/>
				<path id="XMLID_109_" class="st2" d="M-360.5-16.1c0,0,1.5,1.5,1.5,3c0,2.5-2,4.4-4.4,4.4c-1.5,0-3-1.5-3-1.5L-381.2-25"/>
				<path id="XMLID_108_" class="st2" d="M-369.4-13.1c0,0,1.5,1.5,1.5,3c0,2.5-2,4.4-4.4,4.4c-1.5,0-3-1.5-3-1.5L-402-33.9v-4.4
					l-5.9-5.9"/>
				<path id="XMLID_107_" class="st2" d="M-394.6-25c0,0-1.5,1.5-3,1.5c-2.5,0-4.4-2-4.4-4.4c0-1.5,1.5-3,1.5-3"/>
				<path id="XMLID_106_" class="st2" d="M-388.6-19.1c0,0-1.5,1.5-3,1.5c-2.5,0-4.4-2-4.4-4.4c0-1.5,1.5-3,1.5-3"/>
				<path id="XMLID_105_" class="st2" d="M-382.7-13.1c0,0-1.5,1.5-3,1.5c-2.5,0-4.4-2-4.4-4.4c0-1.5,1.5-3,1.5-3"/>
				<path id="XMLID_104_" class="st2" d="M-376.8-7.2c0,0-1.5,1.5-3,1.5c-2.5,0-4.4-2-4.4-4.4c0-1.5,1.5-3,1.5-3"/>
				<path id="XMLID_103_" class="st2" d="M-378.3-65l-8.9,8.9c0,0-1.5,1.5-1.5,3c0,2.5,2,4.4,4.4,4.4c1.5,0,3-1.5,3-1.5l7.4-7.4h4.4
					v8.9l19.3,19.3c0,0,1.5,1.5,1.5,3c0,2.5-2,4.4-4.4,4.4c-1.5,0-3-1.5-3-1.5"/>
				<path id="XMLID_102_" class="st1" d="M-357.5-50.2c0,2.5-2,4.4-4.4,4.4h-4.4"/>
				<polyline id="XMLID_101_" class="st3" points="-327.9,-51.7 -335.3,-44.2 -338.3,-44.2 -362,-67.9 -362,-70.9 -347.2,-85.7 				
					"/>
				<polyline id="XMLID_100_" class="st3" points="-419.8,-51.7 -412.4,-44.2 -409.4,-44.2 -385.7,-67.9 -385.7,-70.9 -400.5,-85.7 
									"/>
				<line id="XMLID_99_" class="st2" x1="-336.8" y1="-54.6" x2="-333.8" y2="-57.6"/>
				<line id="XMLID_98_" class="st2" x1="-413.8" y1="-57.6" x2="-410.9" y2="-54.6"/>
			</g>
			<path id="XMLID_96_" class="st2" d="M-379.8-26.5"/>
			<path id="XMLID_95_" class="st2" d="M-382.7-23.5"/>
		</g>
	</g>
</g>
<g id="XMLID_213_">
	<g id="XMLID_214_">
		<g id="XMLID_221_">
			<line id="XMLID_230_" class="st4" x1="-85.1" y1="132.2" x2="-85.1" y2="135"/>
			<line id="XMLID_229_" class="st4" x1="-89.8" y1="131.2" x2="-89.8" y2="134.1"/>
			<line id="XMLID_228_" class="st4" x1="-94.6" y1="129.3" x2="-94.6" y2="133.1"/>
			<path id="XMLID_227_" class="st4" d="M-100.3,159.8V156c0-0.5,0.4-1,1-1h18.1c0.5,0,1,0.4,1,1v3.8"/>
			<path id="XMLID_226_" class="st5" d="M-83.2,130.3c1.6,0,2.9,1.3,2.9,2.9v6.7c0,6.7-1.9,10.5-1.9,12.4v2.9"/>
			<path id="XMLID_225_" class="st5" d="M-87.9,128.4c1.6,0,2.9,1.3,2.9,2.9v1.9"/>
			<path id="XMLID_224_" class="st5" d="M-92.7,126.4c1.6,0,2.9,1.3,2.9,2.9v1.9"/>
			<path id="XMLID_223_" class="st6" d="M-100.3,137.9v-20c0-1.6,1.3-2.9,2.9-2.9c1.6,0,2.9,1.3,2.9,2.9v11.4"/>
			<path id="XMLID_222_" class="st5" d="M-98.4,155v-2.9l-5.7-7.6c0,0-3.1-11.7-3.8-12.4c-1-1,0-2.9,1.9-2.9s2.9,2.9,2.9,2.9
				l2.9,5.7"/>
		</g>
		<path id="XMLID_220_" class="st5" d="M-100.3,123.9c-2.3-1.1-3.8-3.4-3.8-6c0-3.7,3-6.7,6.7-6.7c3.7,0,6.7,3,6.7,6.7
			c0,2.7-1.6,5-3.8,6"/>
		<path id="XMLID_219_" class="st5" d="M-106.2,123.6c-1.1-1.6-1.7-3.6-1.7-5.7c0-5.8,4.7-10.5,10.5-10.5c5.8,0,10.5,4.7,10.5,10.5
			c0,2.1-0.6,4.1-1.7,5.7"/>
		<path id="XMLID_218_" class="st5" d="M-111.8,117.9c0-7.9,6.4-14.3,14.3-14.3s14.3,6.4,14.3,14.3"/>
		<path id="XMLID_217_" class="st5" d="M-111.8,136h-12.4c-0.5,0-1-0.4-1-1v-34.3c0-0.5,0.4-1,1-1h53.3c0.5,0,1,0.4,1,1V135
			c0,0.5-0.4,1-1,1h-6.7"/>
		<line id="XMLID_216_" class="st5" x1="-121.3" y1="136" x2="-121.3" y2="102.6"/>
		<line id="XMLID_215_" class="st5" x1="-73.7" y1="133.1" x2="-73.7" y2="99.8"/>
	</g>
</g>
<g id="XMLID_172_">
	<g id="XMLID_173_">
		<line id="XMLID_212_" class="st4" x1="-7.7" y1="169.7" x2="-3.8" y2="169.7"/>
		<line id="XMLID_211_" class="st4" x1="-7.7" y1="173.6" x2="-3.8" y2="173.6"/>
		<line id="XMLID_210_" class="st4" x1="-7.7" y1="177.5" x2="-3.8" y2="177.5"/>
		<line id="XMLID_209_" class="st4" x1="-7.7" y1="181.3" x2="-3.8" y2="181.3"/>
		<line id="XMLID_208_" class="st4" x1="-7.7" y1="185.2" x2="-3.8" y2="185.2"/>
		<line id="XMLID_207_" class="st4" x1="-7.7" y1="189.1" x2="-3.8" y2="189.1"/>
		<line id="XMLID_206_" class="st4" x1="-7.7" y1="193" x2="-3.8" y2="193"/>
		<line id="XMLID_205_" class="st4" x1="-7.7" y1="196.8" x2="-3.8" y2="196.8"/>
		<line id="XMLID_204_" class="st4" x1="-7.7" y1="200.7" x2="-3.8" y2="200.7"/>
		<line id="XMLID_203_" class="st4" x1="0.1" y1="169.7" x2="7.8" y2="169.7"/>
		<line id="XMLID_202_" class="st4" x1="0.1" y1="173.6" x2="13.6" y2="173.6"/>
		<line id="XMLID_201_" class="st4" x1="0.1" y1="177.5" x2="13.6" y2="177.5"/>
		<line id="XMLID_200_" class="st4" x1="15.5" y1="177.5" x2="25.2" y2="177.5"/>
		<line id="XMLID_199_" class="st4" x1="5.9" y1="181.3" x2="13.6" y2="181.3"/>
		<line id="XMLID_198_" class="st4" x1="15.5" y1="181.3" x2="21.4" y2="181.3"/>
		<line id="XMLID_197_" class="st4" x1="5.9" y1="185.2" x2="13.6" y2="185.2"/>
		<line id="XMLID_196_" class="st4" x1="15.5" y1="185.2" x2="25.2" y2="185.2"/>
		<line id="XMLID_195_" class="st4" x1="5.9" y1="189.1" x2="13.6" y2="189.1"/>
		<line id="XMLID_194_" class="st4" x1="15.5" y1="189.1" x2="23.3" y2="189.1"/>
		<line id="XMLID_193_" class="st4" x1="0.1" y1="193" x2="13.6" y2="193"/>
		<line id="XMLID_192_" class="st4" x1="0.1" y1="196.8" x2="13.6" y2="196.8"/>
		<line id="XMLID_191_" class="st4" x1="15.5" y1="196.8" x2="25.2" y2="196.8"/>
		<line id="XMLID_190_" class="st4" x1="21.4" y1="200.7" x2="15.5" y2="200.7"/>
		<line id="XMLID_189_" class="st4" x1="13.6" y1="200.7" x2="5.9" y2="200.7"/>
		<line id="XMLID_188_" class="st4" x1="27.2" y1="196.8" x2="31" y2="196.8"/>
		<line id="XMLID_187_" class="st4" x1="25.2" y1="189.1" x2="34.9" y2="189.1"/>
		<polyline id="XMLID_186_" class="st4" points="17.5,210.4 -16.4,210.4 -16.4,152.3 39.7,152.3 39.7,168.8 		"/>
		<line id="XMLID_185_" class="st4" x1="-16.4" y1="160" x2="39.7" y2="160"/>
		<line id="XMLID_184_" class="st4" x1="-13.5" y1="156.2" x2="-11.5" y2="156.2"/>
		<line id="XMLID_183_" class="st4" x1="-9.6" y1="156.2" x2="-7.7" y2="156.2"/>
		<line id="XMLID_182_" class="st4" x1="-5.7" y1="156.2" x2="-3.8" y2="156.2"/>
		<line id="XMLID_181_" class="st4" x1="-0.9" y1="152.3" x2="-0.9" y2="160"/>
		<line id="XMLID_180_" class="st4" x1="2" y1="156.2" x2="36.8" y2="156.2"/>
		<polyline id="XMLID_179_" class="st4" points="17.5,206.5 -12.5,206.5 -12.5,163.9 35.9,163.9 35.9,168.8 		"/>
		<line id="XMLID_178_" class="st4" x1="33.9" y1="208.4" x2="30.1" y2="208.4"/>
		<line id="XMLID_177_" class="st4" x1="33.9" y1="175.5" x2="30.1" y2="175.5"/>
		<path id="XMLID_176_" class="st4" d="M20.4,174.6v-1c0-1.1,0.9-1.9,1.9-1.9h19.4c1.1,0,1.9,0.9,1.9,1.9v36.8
			c0,1.1-0.9,1.9-1.9,1.9H22.3c-1.1,0-1.9-0.9-1.9-1.9v-5.8h23.2"/>
		<line id="XMLID_175_" class="st4" x1="23.3" y1="181.3" x2="30.1" y2="181.3"/>
		<line id="XMLID_174_" class="st4" x1="23.3" y1="200.7" x2="33" y2="200.7"/>
	</g>
</g>
<g id="XMLID_138_">
	<g id="XMLID_167_">
		<path id="XMLID_171_" class="st4" d="M40.4,42.3c0,1-0.8,1.9-1.9,1.9H25.4c-1,0-1.9-0.8-1.9-1.9V31.1c0-1,0.8-1.9,1.9-1.9h13.1
			c1,0,1.9,0.8,1.9,1.9V42.3z"/>
		<path id="XMLID_170_" class="st4" d="M25.4,29.2v-3.8c0-3.1,2.5-5.6,5.6-5.6h1.9c3.1,0,5.6,2.5,5.6,5.6v3.8"/>
		<circle id="XMLID_169_" class="st4" cx="32" cy="34.8" r="0.9"/>
		<line id="XMLID_168_" class="st4" x1="32" y1="35.8" x2="32" y2="40.4"/>
	</g>
	<g id="XMLID_164_">
		<line id="XMLID_166_" class="st4" x1="17" y1="32" x2="8.6" y2="32"/>
		<circle id="XMLID_165_" class="st4" cx="5.8" cy="32" r="2.8"/>
	</g>
	<g id="XMLID_161_">
		<line id="XMLID_163_" class="st4" x1="47" y1="32" x2="55.4" y2="32"/>
		<circle id="XMLID_162_" class="st4" cx="58.3" cy="32" r="2.8"/>
	</g>
	<g id="XMLID_158_">
		<path id="XMLID_160_" class="st4" d="M43.3,38.6H47c2.1,0,3.8,1.7,3.8,3.8v5.6"/>
		<circle id="XMLID_159_" class="st4" cx="50.8" cy="50.8" r="2.8"/>
	</g>
	<g id="XMLID_155_">
		<path id="XMLID_157_" class="st4" d="M20.8,38.6H17c-2.1,0-3.8,1.7-3.8,3.8v5.6"/>
		<circle id="XMLID_156_" class="st4" cx="13.3" cy="50.8" r="2.8"/>
	</g>
	<g id="XMLID_152_">
		<path id="XMLID_154_" class="st4" d="M43.3,25.4H47c2.1,0,3.8-1.7,3.8-3.8v-5.6"/>
		<circle id="XMLID_153_" class="st4" cx="50.8" cy="13.3" r="2.8"/>
	</g>
	<g id="XMLID_149_">
		<path id="XMLID_151_" class="st4" d="M20.8,25.4H17c-2.1,0-3.8-1.7-3.8-3.8v-5.6"/>
		<circle id="XMLID_150_" class="st4" cx="13.3" cy="13.3" r="2.8"/>
	</g>
	<circle id="XMLID_148_" class="st4" cx="26.4" cy="50.8" r="2.8"/>
	<line id="XMLID_147_" class="st4" x1="26.4" y1="53.6" x2="26.4" y2="62"/>
	<circle id="XMLID_146_" class="st4" cx="37.6" cy="50.8" r="2.8"/>
	<line id="XMLID_145_" class="st4" x1="37.6" y1="53.6" x2="37.6" y2="62"/>
	<circle id="XMLID_144_" class="st4" cx="26.4" cy="13.3" r="2.8"/>
	<line id="XMLID_143_" class="st4" x1="26.4" y1="10.4" x2="26.4" y2="2"/>
	<circle id="XMLID_142_" class="st4" cx="37.6" cy="13.3" r="2.8"/>
	<line id="XMLID_141_" class="st4" x1="37.6" y1="10.4" x2="37.6" y2="2"/>
	<line id="XMLID_140_" class="st4" x1="43.3" y1="32" x2="45.1" y2="32"/>
	<line id="XMLID_139_" class="st4" x1="20.8" y1="32" x2="18.9" y2="32"/>
</g>
</svg>
