<?xml version="1.0" encoding="utf-8"?>
<!-- Generator: Adobe Illustrator 19.0.0, SVG Export Plug-In . SVG Version: 6.00 Build 0)  -->
<svg version="1.1" id="Layer_1" xmlns="http://www.w3.org/2000/svg" xmlns:xlink="http://www.w3.org/1999/xlink" x="0px" y="0px"
	 viewBox="0 0 64 64" style="enable-background:new 0 0 64 64;" xml:space="preserve">
<style type="text/css">
	.st0{fill:none;stroke:#FF6400;stroke-width:2;stroke-miterlimit:10;}
	.st1{fill:none;stroke:#FF6400;stroke-width:2;stroke-linejoin:round;stroke-miterlimit:10;}
</style>
<g>
	<g>
		<g>
			<g>
				<path class="st0" d="M23,15c-4.4,0-8,3.6-8,8v11"/>
				<path class="st0" d="M41,15c4.4,0,8,3.6,8,8v11"/>
			</g>
			<g>
				<polyline class="st0" points="49,45 63,45 63,63 53,63 				"/>
				<polyline class="st0" points="11,63 1,63 1,45 15,45 				"/>
			</g>
			<g>
				<g>
					<path class="st1" d="M49,42v21H15V42c0-1.7,1.3-3,3-3h28C47.7,39,49,40.3,49,42z"/>
					<polyline class="st1" points="49,63 52,57 52,51 49,51 					"/>
					<polyline class="st1" points="15,63 12,57 12,51 15,51 					"/>
				</g>
				<circle class="st1" cx="32" cy="51" r="3"/>
			</g>
			<g>
				<path class="st0" d="M39,30"/>
				<path class="st0" d="M10,45v-2c0-10,7-9,14-13"/>
				<path class="st0" d="M40,30c7,4,14,2,14,12v3"/>
				<polygon class="st0" points="36,34 32,32 28,34 24,30 26,27 32,28 38,27 40,30 				"/>
				<line class="st0" x1="37" y1="23" x2="37" y2="27"/>
				<line class="st0" x1="27" y1="27" x2="27" y2="23"/>
				<path class="st0" d="M41,10c0-6.1-2.9-9-9-9c-6.1,0-9,2.9-9,9v4c1,7,4,9,4,9c2,1,5,1,5,1s3,0,5-1c0,0,3-2,4-9V10z"/>
				<polyline class="st0" points="23,10 27,8 32,10 37,12 41,10 				"/>
			</g>
		</g>
	</g>
</g>
<g id="XMLID_27_">
</g>
<g id="XMLID_28_">
</g>
<g id="XMLID_29_">
</g>
<g id="XMLID_30_">
</g>
<g id="XMLID_31_">
</g>
<g id="XMLID_32_">
</g>
<g id="XMLID_33_">
</g>
<g id="XMLID_34_">
</g>
<g id="XMLID_35_">
</g>
<g id="XMLID_36_">
</g>
<g id="XMLID_37_">
</g>
<g id="XMLID_38_">
</g>
<g id="XMLID_39_">
</g>
<g id="XMLID_40_">
</g>
<g id="XMLID_41_">
</g>
</svg>
