<?xml version="1.0" encoding="utf-8"?>
<!-- Generator: Adobe Illustrator 19.0.0, SVG Export Plug-In . SVG Version: 6.00 Build 0)  -->
<svg version="1.1" id="Layer_1" xmlns="http://www.w3.org/2000/svg" xmlns:xlink="http://www.w3.org/1999/xlink" x="0px" y="0px"
	 viewBox="0 0 400 240" style="enable-background:new 0 0 400 240;" xml:space="preserve">
<style type="text/css">
	.st0{fill:#FF6400;}
	.st1{fill:none;stroke:#FF6400;stroke-width:2;stroke-miterlimit:10;}
	.st2{fill:none;stroke:#FF6400;stroke-width:2;stroke-linecap:round;stroke-miterlimit:10;}
	.st3{fill:none;stroke:#FF6400;stroke-width:2;stroke-linecap:round;stroke-linejoin:round;stroke-miterlimit:10;}
	.st4{fill:none;stroke:#F16522;stroke-width:2;stroke-miterlimit:10;}
	.st5{fill:none;stroke:#F16522;stroke-width:2;stroke-linejoin:round;stroke-miterlimit:10;}
	.st6{fill:none;stroke:#F16522;stroke-width:2;stroke-linecap:round;stroke-linejoin:round;stroke-miterlimit:10;}
	.st7{opacity:0.15;fill:none;stroke:#FF6400;stroke-width:2;stroke-linejoin:round;stroke-miterlimit:10;}
	.st8{fill:none;stroke:#FF6400;stroke-width:4;stroke-linejoin:round;stroke-miterlimit:10;}
</style>
<g id="XMLID_40_">
	<g id="XMLID_41_">
		<g id="XMLID_42_">
			<g id="XMLID_61_">
				<path id="XMLID_62_" class="st0" d="M-595.3-38.3h-2v-14.2c0-6.2,5.1-11.3,11.3-11.3v2c-5.1,0-9.3,4.2-9.3,9.3V-38.3z"/>
				<path id="XMLID_60_" class="st0" d="M-551.4-38.3h-2v-14.2c0-5.1-4.2-9.3-9.3-9.3v-2c6.2,0,11.3,5.1,11.3,11.3V-38.3z"/>
			</g>
			<g id="XMLID_58_">
				<polygon id="XMLID_59_" class="st0" points="-533.3,0.2 -547.2,0.2 -547.2,-1.8 -535.3,-1.8 -535.3,-23.1 -552.4,-23.1 
					-552.4,-25.1 -533.3,-25.1 				"/>
				<polygon id="XMLID_57_" class="st0" points="-601.4,0.2 -615.3,0.2 -615.3,-25.1 -596.3,-25.1 -596.3,-23.1 -613.3,-23.1 
					-613.3,-1.8 -601.4,-1.8 				"/>
			</g>
			<g id="XMLID_52_">
				<g id="XMLID_54_">
					<path id="XMLID_56_" class="st0" d="M-552.4,0.2h-43.9c-0.6,0-1-0.4-1-1v-27.1c0-2.7,2.2-4.9,4.9-4.9h36.1
						c2.7,0,4.9,2.2,4.9,4.9v27.1C-551.4-0.3-551.8,0.2-552.4,0.2z M-595.3-1.8h41.9v-26.1c0-1.6-1.3-2.9-2.9-2.9h-36.1
						c-1.6,0-2.9,1.3-2.9,2.9V-1.8z"/>
					<path id="XMLID_55_" class="st0" d="M-551.5-0.4l-1.8-0.9l3.8-7.5v-6.5h-2.9v-2h3.9c0.6,0,1,0.4,1,1v7.7c0,0.2,0,0.3-0.1,0.4
						L-551.5-0.4z"/>
					<path id="XMLID_53_" class="st0" d="M-597.2-0.4l-3.9-7.7c-0.1-0.1-0.1-0.3-0.1-0.4v-7.7c0-0.6,0.4-1,1-1h3.9v2h-2.9v6.5
						l3.8,7.5L-597.2-0.4z"/>
				</g>
				<path id="XMLID_50_" class="st0" d="M-574.3-11.5c-2.7,0-4.9-2.2-4.9-4.9s2.2-4.9,4.9-4.9s4.9,2.2,4.9,4.9
					S-571.7-11.5-574.3-11.5z M-574.3-19.2c-1.6,0-2.9,1.3-2.9,2.9s1.3,2.9,2.9,2.9s2.9-1.3,2.9-2.9S-572.8-19.2-574.3-19.2z"/>
			</g>
			<g id="XMLID_43_">
				<path id="XMLID_51_" class="st0" d="M-565.3-43.4"/>
				<path id="XMLID_49_" class="st0" d="M-601.7-24.1h-2v-2.6c0-10.1,5.4-12.2,11.6-14.6c2.3-0.9,4.6-1.7,6.9-3.1l1,1.7
					c-2.5,1.4-5,2.4-7.2,3.2c-6,2.3-10.3,3.9-10.3,12.7V-24.1z"/>
				<path id="XMLID_48_" class="st0" d="M-544.9-24.1h-2v-3.9c0-8.3-3.8-9.5-9.6-11.4c-2.5-0.8-5.2-1.7-8-3.2l1-1.7
					c2.6,1.5,5.1,2.3,7.6,3.1c5.9,1.9,11,3.5,11,13.3V-24.1z"/>
				<path id="XMLID_47_" class="st0" d="M-569-37l-5.4-2.7l-5.4,2.7l-6.3-6.3l3.4-5.1l8.2,1.4l8.2-1.4l3.4,5.1L-569-37z M-574.3-42
					l5,2.5l4.1-4.1l-1.8-2.7l-7.3,1.2l-7.3-1.2l-1.8,2.7l4.1,4.1L-574.3-42z"/>
				<rect id="XMLID_46_" x="-568.9" y="-52.5" class="st0" width="2" height="5.2"/>
				<rect id="XMLID_45_" x="-581.8" y="-52.5" class="st0" width="2" height="5.2"/>
				<path id="XMLID_44_" class="st0" d="M-574.3-50.2c-0.2,0-4.1,0-6.9-1.4l-0.1-0.1c-0.2-0.1-4.3-2.9-5.6-12.3l0-0.1v-5.2
					c0-8.4,4.2-12.6,12.6-12.6s12.6,4.2,12.6,12.6l0,5.3c-1.3,9.4-5.4,12.2-5.6,12.3l-0.1,0.1C-570.2-50.2-574.2-50.2-574.3-50.2z
					 M-580.3-53.3c2.3,1.1,5.9,1.1,5.9,1.1c0,0,3.6,0,5.9-1.1c0.4-0.3,3.5-3,4.7-10.8v-5.1c0-7.2-3.4-10.6-10.6-10.6
					s-10.6,3.4-10.6,10.6v5.1C-583.8-56.3-580.7-53.6-580.3-53.3z"/>
				<polygon id="XMLID_36_" class="st0" points="-567.8,-65.6 -580.7,-70.7 -585.5,-68.3 -586.4,-70.1 -580.8,-72.9 -567.9,-67.7 
					-563.2,-70.1 -562.3,-68.3 				"/>
			</g>
		</g>
	</g>
</g>
<g id="XMLID_38_">
	<g id="XMLID_39_">
		<path id="XMLID_35_" class="st0" d="M-685.6-13.4h-2v-1.1l-27.3-46.4l1.7-1l27.4,46.6c0.1,0.2,0.1,0.3,0.1,0.5V-13.4z"/>
		<path id="XMLID_34_" class="st0" d="M-770.6-12.1h-2v-1.4c0-0.2,0-0.3,0.1-0.5l27.4-48l1.7,1l-27.3,47.8V-12.1z"/>
		<rect id="XMLID_33_" x="-719.5" y="-22.6" class="st0" width="27.4" height="2"/>
		<rect id="XMLID_32_" x="-766.1" y="-22.6" class="st0" width="27.4" height="2"/>
		<rect id="XMLID_31_" x="-719.5" y="-30.9" class="st0" width="23.3" height="2"/>
		<rect id="XMLID_30_" x="-762" y="-30.9" class="st0" width="23.3" height="2"/>
		<rect id="XMLID_29_" x="-719.5" y="-39.1" class="st0" width="19.2" height="2"/>
		<rect id="XMLID_28_" x="-757.9" y="-39.1" class="st0" width="19.2" height="2"/>
		<rect id="XMLID_27_" x="-719.5" y="-47.3" class="st0" width="13.7" height="2"/>
		<rect id="XMLID_26_" x="-752.4" y="-47.3" class="st0" width="13.7" height="2"/>
		<rect id="XMLID_25_" x="-719.5" y="-55.6" class="st0" width="9.6" height="2"/>
		<rect id="XMLID_24_" x="-748.3" y="-55.6" class="st0" width="9.6" height="2"/>
		<path id="XMLID_23_" class="st0" d="M-722.6-12.1h-2v-53.5c0-0.6,0.4-1,1-1h5.1l-10.6-18.9l-10.6,18.9h5.1c0.6,0,1,0.4,1,1v53.5
			h-2v-52.5h-5.9c-0.4,0-0.7-0.2-0.9-0.5s-0.2-0.7,0-1l12.3-21.9c0.4-0.6,1.4-0.6,1.7,0l12.3,21.9c0.2,0.3,0.2,0.7,0,1
			s-0.5,0.5-0.9,0.5h-5.9V-12.1z"/>
		<rect id="XMLID_22_" x="-730.4" y="-19.9" class="st0" width="2.7" height="2"/>
		<rect id="XMLID_21_" x="-730.4" y="-14.4" class="st0" width="2.7" height="2"/>
		<rect id="XMLID_20_" x="-730.4" y="-25.4" class="st0" width="2.7" height="2"/>
		<rect id="XMLID_19_" x="-730.4" y="-30.9" class="st0" width="2.7" height="2"/>
		<rect id="XMLID_18_" x="-730.4" y="-36.4" class="st0" width="2.7" height="2"/>
		<rect id="XMLID_17_" x="-730.4" y="-41.8" class="st0" width="2.7" height="2"/>
		<rect id="XMLID_16_" x="-730.4" y="-47.3" class="st0" width="2.7" height="2"/>
		<rect id="XMLID_15_" x="-730.4" y="-58.3" class="st0" width="2.7" height="2"/>
		<rect id="XMLID_37_" x="-730.4" y="-63.8" class="st0" width="2.7" height="2"/>
		<rect id="XMLID_84_" x="-730.4" y="-52.8" class="st0" width="2.7" height="2"/>
	</g>
</g>
<g id="XMLID_64_">
	<g id="XMLID_65_">
		<path id="XMLID_81_" class="st0" d="M-646.8,173.9h-106.5v-92h106.5V173.9z M-748.4,169h96.8V86.8h-96.8V169z"/>
		<path id="XMLID_78_" class="st0" d="M-649.2,86.8h-101.6c-1.1,0-2.1-0.8-2.4-1.9l-9.7-43.6c-0.2-0.7,0-1.5,0.5-2
			c0.5-0.6,1.2-0.9,1.9-0.9h121c0.7,0,1.4,0.3,1.9,0.9c0.5,0.6,0.6,1.3,0.5,2l-9.7,43.6C-647.1,86-648.1,86.8-649.2,86.8z
			 M-748.9,81.9h97.8l8.6-38.7h-115L-748.9,81.9z"/>
		<path id="XMLID_77_" class="st0" d="M-649.2,86.8h-101.6c-0.6,0-1.3-0.3-1.7-0.7l-24.2-24.2c-0.7-0.7-0.9-1.7-0.5-2.6
			c0.4-0.9,1.3-1.5,2.2-1.5h12.1v4.8h-6.3l19.4,19.4h99.6l19.4-19.4h-6.3v-4.8h12.1c1,0,1.9,0.6,2.2,1.5c0.4,0.9,0.2,1.9-0.5,2.6
			L-647.5,86C-648,86.5-648.6,86.8-649.2,86.8z"/>
		<rect id="XMLID_76_" x="-777.5" y="94" class="st0" width="19.4" height="4.8"/>
		<rect id="XMLID_75_" x="-772.6" y="108.5" class="st0" width="33.9" height="4.8"/>
		<rect id="XMLID_74_" x="-777.5" y="125.5" class="st0" width="19.4" height="4.8"/>
		<rect id="XMLID_73_" x="-767.8" y="142.4" class="st0" width="24.2" height="4.8"/>
		<rect id="XMLID_72_" x="-772.6" y="159.3" class="st0" width="14.5" height="4.8"/>
		<path id="XMLID_71_" class="st0" d="M-673.4,147.2h-53.2c-1.3,0-2.4-1.1-2.4-2.4v-33.9c0-1.3,1.1-2.4,2.4-2.4h33.9v4.8h-31.5v29
			h48.4v-16.9h4.8v19.4C-671,146.2-672.1,147.2-673.4,147.2z"/>
		<path id="XMLID_70_" class="st0" d="M-697.6,135.1c-0.6,0-1.2-0.2-1.7-0.7l-12.1-12.1l3.4-3.4l10.4,10.4l24.9-24.9l3.4,3.4
			l-26.6,26.6C-696.4,134.9-697,135.1-697.6,135.1z"/>
		<rect id="XMLID_69_" x="-750.8" y="48" class="st0" width="101.6" height="4.8"/>
		<rect id="XMLID_68_" x="-729.1" y="98.8" class="st0" width="4.8" height="4.8"/>
		<rect id="XMLID_67_" x="-719.4" y="98.8" class="st0" width="4.8" height="4.8"/>
		<rect id="XMLID_66_" x="-709.7" y="98.8" class="st0" width="4.8" height="4.8"/>
	</g>
</g>
<g id="XMLID_63_">
	<g id="XMLID_93_">
		<g id="XMLID_94_">
			<g id="XMLID_97_">
				<line id="XMLID_112_" class="st1" x1="-865.5" y1="-16.2" x2="-835.9" y2="-16.2"/>
				<polyline id="XMLID_111_" class="st2" points="-816.6,4.5 -821.1,8.9 -821.1,11.9 -827,17.8 				"/>
				<path id="XMLID_110_" class="st2" d="M-852.2,17.8l16.3,16.3c0,0,1.5,1.5,3,1.5c2.5,0,4.4-2,4.4-4.4c0-1.5-1.5-3-1.5-3
					l-16.3-16.3"/>
				<path id="XMLID_109_" class="st2" d="M-837.4,32.7c0,0,1.5,1.5,1.5,3c0,2.5-2,4.4-4.4,4.4c-1.5,0-3-1.5-3-1.5l-14.8-14.8"/>
				<path id="XMLID_108_" class="st2" d="M-846.3,35.6c0,0,1.5,1.5,1.5,3c0,2.5-2,4.4-4.4,4.4c-1.5,0-3-1.5-3-1.5l-26.7-26.7v-4.4
					l-5.9-5.9"/>
				<path id="XMLID_107_" class="st2" d="M-871.4,23.8c0,0-1.5,1.5-3,1.5c-2.5,0-4.4-2-4.4-4.4c0-1.5,1.5-3,1.5-3"/>
				<path id="XMLID_106_" class="st2" d="M-865.5,29.7c0,0-1.5,1.5-3,1.5c-2.5,0-4.4-2-4.4-4.4c0-1.5,1.5-3,1.5-3"/>
				<path id="XMLID_105_" class="st2" d="M-859.6,35.6c0,0-1.5,1.5-3,1.5c-2.5,0-4.4-2-4.4-4.4c0-1.5,1.5-3,1.5-3"/>
				<path id="XMLID_104_" class="st2" d="M-853.7,41.5c0,0-1.5,1.5-3,1.5c-2.5,0-4.4-2-4.4-4.4c0-1.5,1.5-3,1.5-3"/>
				<path id="XMLID_103_" class="st2" d="M-855.1-16.2l-8.9,8.9c0,0-1.5,1.5-1.5,3c0,2.5,2,4.4,4.4,4.4c1.5,0,3-1.5,3-1.5l7.4-7.4
					h4.4v8.9l19.3,19.3c0,0,1.5,1.5,1.5,3c0,2.5-2,4.4-4.4,4.4c-1.5,0-3-1.5-3-1.5"/>
				<path id="XMLID_102_" class="st1" d="M-834.4-1.4c0,2.5-2,4.4-4.4,4.4h-4.4"/>
				<polyline id="XMLID_101_" class="st3" points="-804.8,-2.9 -812.2,4.5 -815.1,4.5 -838.9,-19.2 -838.9,-22.2 -824,-37 				"/>
				<polyline id="XMLID_100_" class="st3" points="-896.6,-2.9 -889.2,4.5 -886.3,4.5 -862.6,-19.2 -862.6,-22.2 -877.4,-37 				"/>
				<line id="XMLID_99_" class="st2" x1="-813.7" y1="-5.9" x2="-810.7" y2="-8.8"/>
				<line id="XMLID_98_" class="st2" x1="-890.7" y1="-8.8" x2="-887.7" y2="-5.9"/>
			</g>
			<path id="XMLID_96_" class="st2" d="M-856.6,22.3"/>
			<path id="XMLID_95_" class="st2" d="M-859.6,25.2"/>
		</g>
	</g>
</g>
<g id="XMLID_213_">
	<g id="XMLID_214_">
		<g id="XMLID_221_">
			<line id="XMLID_230_" class="st4" x1="-562" y1="180.9" x2="-562" y2="183.8"/>
			<line id="XMLID_229_" class="st4" x1="-566.7" y1="180" x2="-566.7" y2="182.8"/>
			<line id="XMLID_228_" class="st4" x1="-571.5" y1="178.1" x2="-571.5" y2="181.9"/>
			<path id="XMLID_227_" class="st4" d="M-577.2,208.5v-3.8c0-0.5,0.4-1,1-1h18.1c0.5,0,1,0.4,1,1v3.8"/>
			<path id="XMLID_226_" class="st5" d="M-560.1,179c1.6,0,2.9,1.3,2.9,2.9v6.7c0,6.7-1.9,10.5-1.9,12.4v2.9"/>
			<path id="XMLID_225_" class="st5" d="M-564.8,177.1c1.6,0,2.9,1.3,2.9,2.9v1.9"/>
			<path id="XMLID_224_" class="st5" d="M-569.6,175.2c1.6,0,2.9,1.3,2.9,2.9v1.9"/>
			<path id="XMLID_223_" class="st6" d="M-577.2,186.6v-20c0-1.6,1.3-2.9,2.9-2.9c1.6,0,2.9,1.3,2.9,2.9v11.4"/>
			<path id="XMLID_222_" class="st5" d="M-575.3,203.8v-2.9l-5.7-7.6c0,0-3.1-11.7-3.8-12.4c-1-1,0-2.9,1.9-2.9
				c1.9,0,2.9,2.9,2.9,2.9l2.9,5.7"/>
		</g>
		<path id="XMLID_220_" class="st5" d="M-577.2,172.6c-2.3-1.1-3.8-3.4-3.8-6c0-3.7,3-6.7,6.7-6.7c3.7,0,6.7,3,6.7,6.7
			c0,2.7-1.6,5-3.8,6"/>
		<path id="XMLID_219_" class="st5" d="M-583.1,172.3c-1.1-1.6-1.7-3.6-1.7-5.7c0-5.8,4.7-10.5,10.5-10.5s10.5,4.7,10.5,10.5
			c0,2.1-0.6,4.1-1.7,5.7"/>
		<path id="XMLID_218_" class="st5" d="M-588.6,166.6c0-7.9,6.4-14.3,14.3-14.3s14.3,6.4,14.3,14.3"/>
		<path id="XMLID_217_" class="st5" d="M-588.6,184.7H-601c-0.5,0-1-0.4-1-1v-34.3c0-0.5,0.4-1,1-1h53.3c0.5,0,1,0.4,1,1v34.3
			c0,0.5-0.4,1-1,1h-6.7"/>
		<line id="XMLID_216_" class="st5" x1="-598.1" y1="184.7" x2="-598.1" y2="151.4"/>
		<line id="XMLID_215_" class="st5" x1="-550.5" y1="181.9" x2="-550.5" y2="148.5"/>
	</g>
</g>
<g id="XMLID_172_">
	<g id="XMLID_173_">
		<line id="XMLID_212_" class="st4" x1="-484.5" y1="218.5" x2="-480.7" y2="218.5"/>
		<line id="XMLID_211_" class="st4" x1="-484.5" y1="222.3" x2="-480.7" y2="222.3"/>
		<line id="XMLID_210_" class="st4" x1="-484.5" y1="226.2" x2="-480.7" y2="226.2"/>
		<line id="XMLID_209_" class="st4" x1="-484.5" y1="230.1" x2="-480.7" y2="230.1"/>
		<line id="XMLID_208_" class="st4" x1="-484.5" y1="234" x2="-480.7" y2="234"/>
		<line id="XMLID_207_" class="st4" x1="-484.5" y1="237.8" x2="-480.7" y2="237.8"/>
		<line id="XMLID_206_" class="st4" x1="-484.5" y1="241.7" x2="-480.7" y2="241.7"/>
		<line id="XMLID_205_" class="st4" x1="-484.5" y1="245.6" x2="-480.7" y2="245.6"/>
		<line id="XMLID_204_" class="st4" x1="-484.5" y1="249.4" x2="-480.7" y2="249.4"/>
		<line id="XMLID_203_" class="st4" x1="-476.8" y1="218.5" x2="-469.1" y2="218.5"/>
		<line id="XMLID_202_" class="st4" x1="-476.8" y1="222.3" x2="-463.3" y2="222.3"/>
		<line id="XMLID_201_" class="st4" x1="-476.8" y1="226.2" x2="-463.3" y2="226.2"/>
		<line id="XMLID_200_" class="st4" x1="-461.3" y1="226.2" x2="-451.6" y2="226.2"/>
		<line id="XMLID_199_" class="st4" x1="-471" y1="230.1" x2="-463.3" y2="230.1"/>
		<line id="XMLID_198_" class="st4" x1="-461.3" y1="230.1" x2="-455.5" y2="230.1"/>
		<line id="XMLID_197_" class="st4" x1="-471" y1="234" x2="-463.3" y2="234"/>
		<line id="XMLID_196_" class="st4" x1="-461.3" y1="234" x2="-451.6" y2="234"/>
		<line id="XMLID_195_" class="st4" x1="-471" y1="237.8" x2="-463.3" y2="237.8"/>
		<line id="XMLID_194_" class="st4" x1="-461.3" y1="237.8" x2="-453.6" y2="237.8"/>
		<line id="XMLID_193_" class="st4" x1="-476.8" y1="241.7" x2="-463.3" y2="241.7"/>
		<line id="XMLID_192_" class="st4" x1="-476.8" y1="245.6" x2="-463.3" y2="245.6"/>
		<line id="XMLID_191_" class="st4" x1="-461.3" y1="245.6" x2="-451.6" y2="245.6"/>
		<line id="XMLID_190_" class="st4" x1="-455.5" y1="249.4" x2="-461.3" y2="249.4"/>
		<line id="XMLID_189_" class="st4" x1="-463.3" y1="249.4" x2="-471" y2="249.4"/>
		<line id="XMLID_188_" class="st4" x1="-449.7" y1="245.6" x2="-445.8" y2="245.6"/>
		<line id="XMLID_187_" class="st4" x1="-451.6" y1="237.8" x2="-442" y2="237.8"/>
		<polyline id="XMLID_186_" class="st4" points="-459.4,259.1 -493.3,259.1 -493.3,201.1 -437.1,201.1 -437.1,217.5 		"/>
		<line id="XMLID_185_" class="st4" x1="-493.3" y1="208.8" x2="-437.1" y2="208.8"/>
		<line id="XMLID_184_" class="st4" x1="-490.4" y1="204.9" x2="-488.4" y2="204.9"/>
		<line id="XMLID_183_" class="st4" x1="-486.5" y1="204.9" x2="-484.5" y2="204.9"/>
		<line id="XMLID_182_" class="st4" x1="-482.6" y1="204.9" x2="-480.7" y2="204.9"/>
		<line id="XMLID_181_" class="st4" x1="-477.8" y1="201.1" x2="-477.8" y2="208.8"/>
		<line id="XMLID_180_" class="st4" x1="-474.9" y1="204.9" x2="-440" y2="204.9"/>
		<polyline id="XMLID_179_" class="st4" points="-459.4,255.2 -489.4,255.2 -489.4,212.7 -441,212.7 -441,217.5 		"/>
		<line id="XMLID_178_" class="st4" x1="-442.9" y1="257.2" x2="-446.8" y2="257.2"/>
		<line id="XMLID_177_" class="st4" x1="-442.9" y1="224.3" x2="-446.8" y2="224.3"/>
		<path id="XMLID_176_" class="st4" d="M-456.5,223.3v-1c0-1.1,0.9-1.9,1.9-1.9h19.4c1.1,0,1.9,0.9,1.9,1.9v36.8
			c0,1.1-0.9,1.9-1.9,1.9h-19.4c-1.1,0-1.9-0.9-1.9-1.9v-5.8h23.2"/>
		<line id="XMLID_175_" class="st4" x1="-453.6" y1="230.1" x2="-446.8" y2="230.1"/>
		<line id="XMLID_174_" class="st4" x1="-453.6" y1="249.4" x2="-443.9" y2="249.4"/>
	</g>
</g>
<g id="XMLID_138_">
	<g id="XMLID_167_">
		<path id="XMLID_171_" class="st4" d="M-767.3,248.1c0,1-0.8,1.9-1.9,1.9h-13.1c-1,0-1.9-0.8-1.9-1.9v-11.3c0-1,0.8-1.9,1.9-1.9
			h13.1c1,0,1.9,0.8,1.9,1.9V248.1z"/>
		<path id="XMLID_170_" class="st4" d="M-782.3,235v-3.8c0-3.1,2.5-5.6,5.6-5.6h1.9c3.1,0,5.6,2.5,5.6,5.6v3.8"/>
		<circle id="XMLID_169_" class="st4" cx="-775.7" cy="240.6" r="0.9"/>
		<line id="XMLID_168_" class="st4" x1="-775.7" y1="241.6" x2="-775.7" y2="246.3"/>
	</g>
	<g id="XMLID_164_">
		<line id="XMLID_166_" class="st4" x1="-790.7" y1="237.8" x2="-799.2" y2="237.8"/>
		<circle id="XMLID_165_" class="st4" cx="-802" cy="237.8" r="2.8"/>
	</g>
	<g id="XMLID_161_">
		<line id="XMLID_163_" class="st4" x1="-760.7" y1="237.8" x2="-752.3" y2="237.8"/>
		<circle id="XMLID_162_" class="st4" cx="-749.5" cy="237.8" r="2.8"/>
	</g>
	<g id="XMLID_158_">
		<path id="XMLID_160_" class="st4" d="M-764.5,244.4h3.8c2.1,0,3.8,1.7,3.8,3.8v5.6"/>
		<circle id="XMLID_159_" class="st4" cx="-757" cy="256.6" r="2.8"/>
	</g>
	<g id="XMLID_155_">
		<path id="XMLID_157_" class="st4" d="M-787,244.4h-3.8c-2.1,0-3.8,1.7-3.8,3.8v5.6"/>
		<circle id="XMLID_156_" class="st4" cx="-794.5" cy="256.6" r="2.8"/>
	</g>
	<g id="XMLID_152_">
		<path id="XMLID_154_" class="st4" d="M-764.5,231.3h3.8c2.1,0,3.8-1.7,3.8-3.8v-5.6"/>
		<circle id="XMLID_153_" class="st4" cx="-757" cy="219.1" r="2.8"/>
	</g>
	<g id="XMLID_149_">
		<path id="XMLID_151_" class="st4" d="M-787,231.3h-3.8c-2.1,0-3.8-1.7-3.8-3.8v-5.6"/>
		<circle id="XMLID_150_" class="st4" cx="-794.5" cy="219.1" r="2.8"/>
	</g>
	<circle id="XMLID_148_" class="st4" cx="-781.3" cy="256.6" r="2.8"/>
	<line id="XMLID_147_" class="st4" x1="-781.3" y1="259.4" x2="-781.3" y2="267.8"/>
	<circle id="XMLID_146_" class="st4" cx="-770.1" cy="256.6" r="2.8"/>
	<line id="XMLID_145_" class="st4" x1="-770.1" y1="259.4" x2="-770.1" y2="267.8"/>
	<circle id="XMLID_144_" class="st4" cx="-781.3" cy="219.1" r="2.8"/>
	<line id="XMLID_143_" class="st4" x1="-781.3" y1="216.3" x2="-781.3" y2="207.8"/>
	<circle id="XMLID_142_" class="st4" cx="-770.1" cy="219.1" r="2.8"/>
	<line id="XMLID_141_" class="st4" x1="-770.1" y1="216.3" x2="-770.1" y2="207.8"/>
	<line id="XMLID_140_" class="st4" x1="-764.5" y1="237.8" x2="-762.6" y2="237.8"/>
	<line id="XMLID_139_" class="st4" x1="-787" y1="237.8" x2="-788.8" y2="237.8"/>
</g>
<circle id="XMLID_330_" class="st7" cx="125" cy="120" r="115"/>
<circle id="XMLID_331_" class="st7" cx="275" cy="120" r="115"/>
<g id="XMLID_309_">
	<g id="XMLID_310_">
		<g id="XMLID_311_">
			<line id="XMLID_329_" class="st8" x1="200.6" y1="158.3" x2="200.6" y2="220.2"/>
			<polyline id="XMLID_328_" class="st8" points="235,158.3 255.6,216.8 255.6,220.2 			"/>
			<polyline id="XMLID_327_" class="st8" points="166.2,158.3 145.6,216.8 145.6,220.2 			"/>
			<polyline id="XMLID_326_" class="st8" points="293.4,58.6 293.4,158.3 107.8,158.3 107.8,58.6 			"/>
			<polygon id="XMLID_325_" class="st8" points="94.1,48.3 94.1,34.6 176.6,34.6 183.4,20.8 217.8,20.8 224.7,34.6 307.2,34.6 
				307.2,48.3 			"/>
			<line id="XMLID_324_" class="st8" x1="190.3" y1="34.6" x2="210.9" y2="34.6"/>
			<line id="XMLID_323_" class="st8" x1="90.6" y1="220.2" x2="310.6" y2="220.2"/>
			<circle id="XMLID_322_" class="st8" cx="180" cy="79.3" r="3.4"/>
			<circle id="XMLID_321_" class="st8" cx="214.4" cy="127.4" r="3.4"/>
			<path id="XMLID_320_" class="st8" d="M197.2,86.1v-6.9c0-9.5-7.7-17.2-17.2-17.2c-9.5,0-17.2,7.7-17.2,17.2v20.6
				c0,9.5-7.7,17.2-17.2,17.2H125"/>
			<path id="XMLID_319_" class="st8" d="M276.2,89.6h-27.5c-9.5,0-17.2,7.7-17.2,17.2v20.6c0,9.5-7.7,17.2-17.2,17.2
				c-9.5,0-17.2-7.7-17.2-17.2v-6.9"/>
			<polyline id="XMLID_318_" class="st8" points="262.5,103.3 276.2,89.6 262.5,75.8 			"/>
			<line id="XMLID_317_" class="st8" x1="197.2" y1="93" x2="197.2" y2="99.9"/>
			<line id="XMLID_316_" class="st8" x1="197.2" y1="106.8" x2="197.2" y2="113.6"/>
			<line id="XMLID_315_" class="st8" x1="118.1" y1="62.1" x2="125" y2="62.1"/>
			<line id="XMLID_314_" class="st8" x1="276.2" y1="62.1" x2="283.1" y2="62.1"/>
			<line id="XMLID_313_" class="st8" x1="276.2" y1="144.6" x2="283.1" y2="144.6"/>
			<line id="XMLID_312_" class="st8" x1="118.1" y1="144.6" x2="125" y2="144.6"/>
		</g>
	</g>
</g>
</svg>
