<?xml version="1.0" encoding="utf-8"?>
<!-- Generator: Adobe Illustrator 19.0.0, SVG Export Plug-In . SVG Version: 6.00 Build 0)  -->
<svg version="1.1" id="Layer_1" xmlns="http://www.w3.org/2000/svg" xmlns:xlink="http://www.w3.org/1999/xlink" x="0px" y="0px"
	 viewBox="0 0 50 50" style="enable-background:new 0 0 50 50;" xml:space="preserve">
<style type="text/css">
	.st0{fill:none;stroke:#FF6400;stroke-miterlimit:10;}
	.st1{fill:#FF6400;}
</style>
<g>
	<g>
		<g>
			<g>
				<line id="XMLID_37_" class="st0" x1="9.2" y1="25" x2="10.6" y2="25"/>
				<line id="XMLID_36_" class="st0" x1="7" y1="5.6" x2="7" y2="2"/>
				<path id="XMLID_35_" class="st0" d="M17.1,17.8v9.3c0,0.4-0.3,0.7-0.7,0.7H7.8c-0.4,0-0.7-0.3-0.7-0.7V17.1"/>
				<line id="XMLID_34_" class="st0" x1="17.1" y1="2" x2="17.1" y2="6.3"/>
			</g>
			<g>
				<g>
					<g>
						<path id="XMLID_33_" class="st0" d="M22.1,7.8h-1.4l-7.2-2.2H7C6.2,5.6,5.6,6.2,5.6,7S6.2,8.5,7,8.5H5.6
							c-0.8,0-1.4,0.6-1.4,1.4s0.6,1.4,1.4,1.4H4.2c-0.8,0-1.4,0.6-1.4,1.4s0.6,1.4,1.4,1.4h1.4c-0.8,0-1.4,0.6-1.4,1.4
							s0.6,1.4,1.4,1.4h6.5"/>
						<line id="XMLID_32_" class="st0" x1="5.6" y1="14.2" x2="9.9" y2="14.2"/>
						<line id="XMLID_31_" class="st0" x1="5.6" y1="11.3" x2="9.9" y2="11.3"/>
						<line id="XMLID_30_" class="st0" x1="7" y1="8.5" x2="9.9" y2="8.5"/>
						<path id="XMLID_29_" class="st0" d="M9.2,18.5c0,0.8,0.6,1.4,1.4,1.4h2.9l2.9-1.4l2.9-2.2h2.9"/>
					</g>
				</g>
				<g>
					<line id="XMLID_28_" class="st0" x1="25" y1="9.2" x2="25" y2="10.6"/>
					<line id="XMLID_27_" class="st0" x1="44.4" y1="7" x2="48" y2="7"/>
					<path id="XMLID_26_" class="st0" d="M32.2,17.1h-9.3c-0.4,0-0.7-0.3-0.7-0.7V7.8c0-0.4,0.3-0.7,0.7-0.7h10.1"/>
					<line id="XMLID_25_" class="st0" x1="48" y1="17.1" x2="43.7" y2="17.1"/>
				</g>
			</g>
			<g>
				<g>
					<g>
						<path id="XMLID_24_" class="st0" d="M42.3,22.1v-1.4l2.2-7.2V7c0-0.8-0.6-1.4-1.4-1.4c-0.8,0-1.4,0.6-1.4,1.4V5.6
							c0-0.8-0.6-1.4-1.4-1.4c-0.8,0-1.4,0.6-1.4,1.4V4.2c0-0.8-0.6-1.4-1.4-1.4c-0.8,0-1.4,0.6-1.4,1.4v1.4c0-0.8-0.6-1.4-1.4-1.4
							c-0.8,0-1.4,0.6-1.4,1.4v6.5"/>
						<line id="XMLID_23_" class="st0" x1="35.8" y1="5.6" x2="35.8" y2="9.9"/>
						<line id="XMLID_22_" class="st0" x1="38.7" y1="5.6" x2="38.7" y2="9.9"/>
						<line id="XMLID_21_" class="st0" x1="41.5" y1="7" x2="41.5" y2="9.9"/>
						<path id="XMLID_20_" class="st0" d="M31.5,9.2c-0.8,0-1.4,0.6-1.4,1.4v2.9l1.4,2.9l2.2,2.9v2.9"/>
					</g>
				</g>
				<g>
					<line id="XMLID_19_" class="st0" x1="39.4" y1="25" x2="40.8" y2="25"/>
					<line id="XMLID_18_" class="st0" x1="32.9" y1="43.7" x2="32.9" y2="48"/>
					<path id="XMLID_17_" class="st0" d="M43,31.5v-8.6c0-0.4-0.3-0.7-0.7-0.7h-8.6c-0.4,0-0.7,0.3-0.7,0.7v9.3"/>
					<line id="XMLID_16_" class="st0" x1="43" y1="48" x2="43" y2="43"/>
				</g>
			</g>
			<g>
				<g>
					<g>
						<path id="XMLID_15_" class="st0" d="M27.9,33.6h1.4l7.2-2.2H43c0.8,0,1.4,0.6,1.4,1.4s-0.6,1.4-1.4,1.4h1.4
							c0.8,0,1.4,0.6,1.4,1.4s-0.6,1.4-1.4,1.4h1.4c0.8,0,1.4,0.6,1.4,1.4s-0.6,1.4-1.4,1.4h-1.4c0.8,0,1.4,0.6,1.4,1.4
							S45.2,43,44.4,43h-6.5"/>
						<line id="XMLID_14_" class="st0" x1="44.4" y1="40.1" x2="40.1" y2="40.1"/>
						<line id="XMLID_13_" class="st0" x1="44.4" y1="37.2" x2="40.1" y2="37.2"/>
						<line id="XMLID_12_" class="st0" x1="43" y1="34.3" x2="40.1" y2="34.3"/>
						<path id="XMLID_11_" class="st0" d="M40.8,44.4c0,0.8-0.6,1.4-1.4,1.4h-2.9l-2.9-1.4l-2.9-2.2h-2.9"/>
					</g>
				</g>
				<g>
					<line id="XMLID_10_" class="st0" x1="25" y1="35.1" x2="25" y2="36.5"/>
					<line id="XMLID_9_" class="st0" x1="7" y1="32.9" x2="2" y2="32.9"/>
					<path id="XMLID_8_" class="st0" d="M17.1,43h10.1c0.4,0,0.7-0.3,0.7-0.7v-8.6c0-0.4-0.3-0.7-0.7-0.7h-9.3"/>
					<line id="XMLID_7_" class="st0" x1="2" y1="43" x2="5.6" y2="43"/>
				</g>
			</g>
			<g>
				<g>
					<path id="XMLID_6_" class="st0" d="M7.8,27.9v1.4l-2.2,7.2V43c0,0.8,0.6,1.4,1.4,1.4c0.8,0,1.4-0.6,1.4-1.4v1.4
						c0,0.8,0.6,1.4,1.4,1.4c0.8,0,1.4-0.6,1.4-1.4v1.4c0,0.8,0.6,1.4,1.4,1.4c0.8,0,1.4-0.6,1.4-1.4v-1.4c0,0.8,0.6,1.4,1.4,1.4
						c0.8,0,1.4-0.6,1.4-1.4v-6.5"/>
					<line id="XMLID_5_" class="st0" x1="14.2" y1="44.4" x2="14.2" y2="40.1"/>
					<line id="XMLID_4_" class="st0" x1="11.3" y1="44.4" x2="11.3" y2="40.1"/>
					<line id="XMLID_3_" class="st0" x1="8.5" y1="43" x2="8.5" y2="40.1"/>
					<path id="XMLID_2_" class="st0" d="M18.5,40.8c0.8,0,1.4-0.6,1.4-1.4v-2.9l-1.4-2.9l-2.2-2.9v-2.9"/>
				</g>
			</g>
			<line id="XMLID_1_" class="st0" x1="7" y1="27.9" x2="17.1" y2="27.9"/>
		</g>
	</g>
</g>
<rect id="XMLID_38_" x="-40.5" y="8.5" class="st1" width="21.7" height="21.7"/>
</svg>
