<?xml version="1.0" encoding="utf-8"?>
<!-- Generator: Adobe Illustrator 19.0.0, SVG Export Plug-In . SVG Version: 6.00 Build 0)  -->
<svg version="1.1" id="Layer_1" xmlns="http://www.w3.org/2000/svg" xmlns:xlink="http://www.w3.org/1999/xlink" x="0px" y="0px"
	 viewBox="0 0 50 50" style="enable-background:new 0 0 50 50;" xml:space="preserve">
<style type="text/css">
	.st0{fill:none;stroke:#FF6400;stroke-width:2;stroke-linejoin:round;stroke-miterlimit:10;}
	.st1{fill:none;stroke:#FF6400;stroke-width:2;stroke-linecap:round;stroke-linejoin:round;stroke-miterlimit:10;}
	.st2{fill:none;stroke:#FF6400;stroke-width:2;stroke-miterlimit:10;}
</style>
<g id="XMLID_2_">
	<polyline id="XMLID_8_" class="st0" points="-307.4,71.6 -307.4,36.7 -304.5,36.7 -304.5,71.6 	"/>
	<polyline id="XMLID_7_" class="st1" points="-328.9,82.7 -305.9,70.8 -282.9,82.7 	"/>
	<polyline id="XMLID_6_" class="st0" points="-304.5,48.6 -296.3,48.6 -300,52.3 -286.6,52.3 -291.8,47.1 -286.6,41.9 -294.1,41.9 	
		"/>
	<polyline id="XMLID_5_" class="st0" points="-296.3,48.6 -296.3,39.7 -304.5,39.7 	"/>
	<line id="XMLID_4_" class="st0" x1="-300" y1="52.3" x2="-300" y2="48.6"/>
	<path id="XMLID_3_" class="st2" d="M-297,75.3c0,2-4,3.7-8.9,3.7s-8.9-1.7-8.9-3.7"/>
</g>
<g id="XMLID_34_">
	<g id="XMLID_35_">
		<path id="XMLID_49_" class="st2" d="M-238.7,153.1c-0.8-1.9-1.8-3.7-3.1-5.3c-0.5,0.4-1.2,0.7-1.9,0.7c-1.6,0-3-1.3-3-3
			c0-0.7,0.3-1.4,0.7-1.9c-1.6-1.2-3.4-2.3-5.3-3.1c-0.4,1.2-1.5,2-2.8,2c-1.6,0-3-1.3-3-3c0-0.2,0-0.4,0.1-0.5c-1-0.1-2-0.2-3-0.2
			s-2,0.1-3,0.2c0,0.2,0.1,0.4,0.1,0.5c0,1.6-1.3,3-3,3c-1.3,0-2.4-0.8-2.8-2c-1.9,0.8-3.7,1.8-5.3,3.1c0.4,0.5,0.7,1.2,0.7,1.9
			c0,1.6-1.3,3-3,3c-0.7,0-1.4-0.3-1.9-0.7c-1.2,1.6-2.3,3.4-3.1,5.3"/>
		<path id="XMLID_48_" class="st2" d="M-281.2,170.6c0.8,1.9,1.8,3.7,3.1,5.3c0.5-0.4,1.2-0.7,1.9-0.7c1.6,0,3,1.3,3,3
			c0,0.7-0.3,1.4-0.7,1.9c1.6,1.2,3.4,2.3,5.3,3.1c0.4-1.2,1.5-2,2.8-2c1.6,0,3,1.3,3,3c0,0.2,0,0.4-0.1,0.5c1,0.1,2,0.2,3,0.2
			s2-0.1,3-0.2c0-0.2-0.1-0.4-0.1-0.5c0-1.6,1.3-3,3-3c1.3,0,2.4,0.8,2.8,2c1.9-0.8,3.7-1.8,5.3-3.1c-0.4-0.5-0.7-1.2-0.7-1.9
			c0-1.6,1.3-3,3-3c0.7,0,1.4,0.3,1.9,0.7c1.2-1.6,2.3-3.4,3.1-5.3"/>
		<g id="XMLID_44_">
			<g id="XMLID_45_">
				<path id="XMLID_47_" class="st0" d="M-236.9,161.8c0,0-10.3,12.6-23,12.6c-12.7,0-23-12.6-23-12.6s10.3-12.6,23-12.6
					C-247.2,149.2-236.9,161.8-236.9,161.8z"/>
				<circle id="XMLID_46_" class="st0" cx="-259.9" cy="161.8" r="12.6"/>
			</g>
		</g>
		<circle id="XMLID_43_" class="st0" cx="-259.9" cy="161.8" r="8.2"/>
		<path id="XMLID_42_" class="st0" d="M-264.4,161.8c0-2.5,2-4.5,4.5-4.5"/>
		<line id="XMLID_41_" class="st2" x1="-260.7" y1="144" x2="-259.2" y2="144"/>
		<line id="XMLID_40_" class="st2" x1="-251.8" y1="146.3" x2="-250.3" y2="146.3"/>
		<line id="XMLID_39_" class="st2" x1="-269.6" y1="146.3" x2="-268.1" y2="146.3"/>
		<line id="XMLID_38_" class="st2" x1="-260.7" y1="179.6" x2="-259.2" y2="179.6"/>
		<line id="XMLID_37_" class="st2" x1="-251.8" y1="177.4" x2="-250.3" y2="177.4"/>
		<line id="XMLID_36_" class="st2" x1="-269.6" y1="177.4" x2="-268.1" y2="177.4"/>
	</g>
</g>
<g id="XMLID_50_">
	<g id="XMLID_51_">
		<g id="XMLID_52_">
			<g id="XMLID_55_">
				<line id="XMLID_70_" class="st1" x1="17.6" y1="15.4" x2="32.4" y2="15.4"/>
				<polyline id="XMLID_69_" class="st1" points="42.1,25.7 39.8,28 39.8,29.5 36.9,32.4 				"/>
				<path id="XMLID_68_" class="st1" d="M24.3,32.4l8.2,8.2c0,0,0.7,0.7,1.5,0.7c1.2,0,2.2-1,2.2-2.2c0-0.7-0.7-1.5-0.7-1.5
					l-8.2-8.2"/>
				<path id="XMLID_67_" class="st1" d="M31.7,39.8c0,0,0.7,0.7,0.7,1.5c0,1.2-1,2.2-2.2,2.2c-0.7,0-1.5-0.7-1.5-0.7l-7.4-7.4"/>
				<path id="XMLID_66_" class="st1" d="M27.2,41.3c0,0,0.7,0.7,0.7,1.5c0,1.2-1,2.2-2.2,2.2c-0.7,0-1.5-0.7-1.5-0.7L10.9,30.9v-2.2
					l-3-3"/>
				<path id="XMLID_65_" class="st1" d="M14.6,35.4c0,0-0.7,0.7-1.5,0.7c-1.2,0-2.2-1-2.2-2.2c0-0.7,0.7-1.5,0.7-1.5"/>
				<path id="XMLID_64_" class="st1" d="M17.6,38.4c0,0-0.7,0.7-1.5,0.7c-1.2,0-2.2-1-2.2-2.2c0-0.7,0.7-1.5,0.7-1.5"/>
				<path id="XMLID_63_" class="st1" d="M20.5,41.3c0,0-0.7,0.7-1.5,0.7c-1.2,0-2.2-1-2.2-2.2c0-0.7,0.7-1.5,0.7-1.5"/>
				<path id="XMLID_62_" class="st1" d="M23.5,44.3c0,0-0.7,0.7-1.5,0.7c-1.2,0-2.2-1-2.2-2.2c0-0.7,0.7-1.5,0.7-1.5"/>
				<path id="XMLID_61_" class="st1" d="M22.8,15.4l-4.5,4.5c0,0-0.7,0.7-0.7,1.5c0,1.2,1,2.2,2.2,2.2c0.7,0,1.5-0.7,1.5-0.7
					l3.7-3.7h2.2v4.5l9.6,9.6c0,0,0.7,0.7,0.7,1.5c0,1.2-1,2.2-2.2,2.2c-0.7,0-1.5-0.7-1.5-0.7"/>
				<path id="XMLID_60_" class="st1" d="M33.2,22.8c0,1.2-1,2.2-2.2,2.2h-2.2"/>
				<polyline id="XMLID_59_" class="st1" points="48,22 44.3,25.7 42.8,25.7 30.9,13.9 30.9,12.4 38.4,5 				"/>
				<polyline id="XMLID_58_" class="st1" points="2,22 5.7,25.7 7.2,25.7 19.1,13.9 19.1,12.4 11.6,5 				"/>
				<line id="XMLID_57_" class="st1" x1="43.5" y1="20.5" x2="45" y2="19.1"/>
				<line id="XMLID_56_" class="st1" x1="5" y1="19.1" x2="6.5" y2="20.5"/>
			</g>
			<path id="XMLID_54_" class="st1" d="M22,34.6"/>
			<path id="XMLID_53_" class="st1" d="M20.5,36.1"/>
		</g>
	</g>
</g>
</svg>
