<svg width="390" height="436" viewBox="0 0 390 436" fill="none" xmlns="http://www.w3.org/2000/svg">
<g clip-path="url(#clip0_1_5303)">
<rect width="390" height="436" fill="#3B53F6"/>
<path d="M273.849 307.512C273.791 307.512 273.734 307.517 273.677 307.517C273.619 307.517 273.562 307.512 273.505 307.512C265.696 307.512 259.369 313.958 259.369 321.905C259.369 322.927 259.391 323.948 259.673 324.891C261.102 329.637 267.023 343.286 267.023 343.286H280.33C280.33 343.286 286.256 329.637 287.68 324.891C287.962 323.948 287.984 322.931 287.984 321.905C287.984 313.958 281.657 307.512 273.849 307.512Z" fill="#3B53F6"/>
<path d="M280.908 344.166H266.446L266.216 343.638C265.974 343.079 260.255 329.888 258.831 325.146C258.514 324.093 258.487 323.015 258.487 321.91C258.487 313.487 265.224 306.636 273.505 306.636C273.549 306.636 273.593 306.636 273.637 306.636H273.685H273.716C273.76 306.636 273.804 306.636 273.849 306.636C282.129 306.636 288.866 313.487 288.866 321.91C288.866 323.015 288.839 324.089 288.522 325.146C287.098 329.888 281.379 343.079 281.137 343.638L280.908 344.166ZM267.601 342.405H279.748C280.85 339.847 285.599 328.752 286.833 324.635C287.08 323.807 287.102 322.874 287.102 321.905C287.102 314.455 281.154 308.393 273.849 308.393H273.685H273.5C266.19 308.393 260.247 314.455 260.247 321.905C260.247 322.874 260.269 323.812 260.515 324.635C261.754 328.752 266.503 339.847 267.601 342.405Z" fill="#231F20"/>
<path d="M78.6668 233.555L75.4614 232.088L75.4967 232.009C76.0655 230.842 81.0213 220.262 79.0548 208.106C77.1281 196.169 76.0655 189.591 80.9155 181.204C83.2479 177.171 86.418 175.934 88.6711 175.608C91.2636 175.233 94.0898 175.832 96.6383 177.303C99.0986 178.721 101.14 181.182 102.242 184.057C103.389 187.047 103.336 189.988 102.092 192.136L99.0368 190.375C99.7335 189.173 99.6982 187.28 98.9442 185.316C98.1374 183.216 96.6162 181.358 94.8702 180.354C93.693 179.676 87.6393 176.616 83.971 182.965C79.9102 189.992 80.5539 195.258 82.538 207.547C84.6764 220.777 79.2885 232.291 78.6668 233.559V233.555Z" fill="#231F20"/>
<path d="M158.736 232.397L158.079 229.944L156.275 223.226C156.253 223.23 156.236 223.234 156.214 223.239C153.647 223.926 152.025 226.206 152.545 228.359L153.312 231.217L153.37 231.428L146.915 233.154L127.532 221.979L126.201 224.282L143.277 234.127L116.704 241.238L113.882 246.116L154.397 235.276L154.732 236.518H154.736C155.363 238.645 157.911 239.811 160.477 239.124C160.499 239.12 160.517 239.111 160.534 239.107L158.731 232.388L158.736 232.397Z" fill="#231F20"/>
<path d="M112.052 247.525L116.122 240.489L140.989 233.836L124.993 224.612L127.206 220.786L147.034 232.216L152.285 230.812L151.571 228.157L151.602 228.117C151.276 225.687 153.008 223.296 155.755 222.459L156.663 221.275L161.809 240.445L160.513 240.036C157.686 240.709 154.935 239.481 154.018 237.161L153.983 237.143L153.767 236.364L112.048 247.53L112.052 247.525ZM117.281 241.999L115.707 244.72L155.019 234.202L155.579 236.276C156.006 237.72 157.647 238.587 159.441 238.42L155.667 224.361C154.04 225.101 153.044 226.682 153.401 228.152L153.449 228.355L154.441 232.053L146.783 234.101L127.85 223.186L127.4 223.961L145.557 234.431L117.281 241.995V241.999Z" fill="#231F20"/>
<path d="M99.6733 191.251L73.2188 237.007L107.584 256.82L134.039 211.064L99.6733 191.251Z" fill="#231F20"/>
<path d="M107.903 258.022L72.0088 237.328L99.3452 190.045L135.24 210.739L107.903 258.022ZM74.4206 236.685L107.259 255.618L132.832 211.386L99.9933 192.453L74.4206 236.685Z" fill="#231F20"/>
<path d="M100.522 196.822L85.0352 223.608L86.5625 224.489L102.049 197.702L100.522 196.822Z" fill="white"/>
<path d="M82.8816 227.326L80.5117 231.425L82.0391 232.306L84.409 228.207L82.8816 227.326Z" fill="white"/>
<path d="M109.87 253.055C109.755 252.989 109.539 252.866 109.539 252.866L109.486 252.835L75.6289 233.313L75.576 233.282C75.576 233.282 75.36 233.158 75.2453 233.092C74.1916 232.485 72.8424 232.846 72.2339 233.898C71.6255 234.95 71.987 236.298 73.0408 236.905C73.1554 236.971 73.3715 237.095 73.3715 237.095L73.4244 237.125L107.282 256.648L107.335 256.679C107.335 256.679 107.551 256.802 107.665 256.868C108.719 257.476 110.068 257.115 110.677 256.062C111.285 255.01 110.924 253.663 109.87 253.055Z" fill="#3B53F6"/>
<path d="M108.763 258.044C108.238 258.044 107.709 257.912 107.224 257.63L72.6041 237.672C71.8898 237.258 71.3783 236.593 71.1667 235.8C70.9551 235.003 71.0609 234.176 71.4753 233.462C72.3263 231.992 74.2178 231.485 75.6904 232.335L110.311 252.298C111.783 253.148 112.29 255.037 111.439 256.507C110.866 257.493 109.83 258.048 108.763 258.048V258.044ZM74.1472 233.682C73.6887 233.682 73.2434 233.92 73.0009 234.343C72.8245 234.647 72.776 235.003 72.8686 235.347C72.9612 235.69 73.1772 235.972 73.4859 236.148L108.106 256.107C108.737 256.472 109.548 256.252 109.914 255.622C110.28 254.993 110.059 254.182 109.429 253.817L74.8086 233.854C74.6014 233.735 74.3721 233.678 74.1516 233.678L74.1472 233.682Z" fill="#231F20"/>
<path d="M388 429.993H0V431.754H388V429.993Z" fill="#231F20"/>
<path d="M149.909 434.836H61.7271V436.597H149.909V434.836Z" fill="#231F20"/>
<path d="M313.046 434.836H154.318V436.597H313.046V434.836Z" fill="#231F20"/>
<path d="M82.8242 201.977C84.3233 201.977 85.5446 200.537 85.5446 198.763C85.5446 196.989 84.3189 195.628 82.8154 195.628C82.8154 195.628 79.1514 195.628 79.5262 195.628C79.751 195.628 83.2519 195.628 83.2519 195.628H85.4432C86.9423 195.628 88.1592 194.188 88.1592 192.414C88.1592 190.639 86.9423 189.2 85.4432 189.2C85.4432 189.2 79.072 189.165 79.4468 189.165C79.6717 189.165 88.0798 189.169 88.0798 189.169C89.5789 189.169 90.7958 187.729 90.7958 185.955C90.7958 184.18 89.5789 182.741 88.0798 182.741C88.0798 182.741 78.9574 182.67 79.3322 182.67C79.557 182.67 100.35 182.679 100.35 182.679C101.849 182.679 103.066 181.239 103.066 179.465C103.066 177.69 101.849 176.251 100.35 176.251H67.5335L78.5474 165.261C79.6099 164.002 79.6099 161.968 78.5474 160.713C77.4848 159.458 75.5492 159.771 74.7026 160.713L69.4823 164.407L52.763 176.246C52.763 176.246 50.0646 178.575 49.0902 181.068H46.6079L46.6696 199.243H49.465C49.928 200.238 50.629 200.995 51.5725 201.308C54.0372 202.118 82.8198 201.977 82.8198 201.977H82.8242Z" fill="white"/>
<path d="M77.5597 202.866C68.9752 202.866 53.2392 202.778 51.2992 202.14C50.3292 201.819 49.5223 201.127 48.9315 200.119H45.7878L45.7217 180.183H48.5082C49.681 177.752 52.0708 175.67 52.181 175.577L52.2471 175.524L74.1206 160.044C74.76 159.383 75.7696 158.982 76.7484 159C77.7317 159.013 78.6091 159.418 79.222 160.14C80.5667 161.734 80.5667 164.231 79.222 165.825L79.169 165.882L69.6586 175.366H100.346C102.33 175.366 103.944 177.202 103.944 179.46C103.944 181.719 102.33 183.555 100.346 183.555C100.346 183.555 95.8354 183.555 90.9942 183.555C91.4219 184.229 91.6776 185.061 91.6776 185.955C91.6776 188.099 90.2182 189.865 88.3708 190.036C88.7941 190.706 89.041 191.529 89.041 192.414C89.041 194.532 87.6213 196.28 85.8047 196.487C86.1971 197.129 86.422 197.909 86.422 198.763C86.422 201.022 84.8083 202.858 82.8242 202.858C82.1275 202.858 80.1743 202.871 77.5597 202.871V202.866ZM47.5515 198.358H50.0294L50.2675 198.869C50.5364 199.45 51.0346 200.198 51.8547 200.471C53.5522 201.03 71.7485 201.149 82.8198 201.096C83.8339 201.096 84.654 200.049 84.654 198.763C84.654 197.477 83.8427 196.509 82.8065 196.509H80.0068C79.9715 196.509 79.9406 196.509 79.9054 196.509L79.5174 196.491C79.05 196.447 78.6091 196.275 78.6091 195.628V194.747H85.4344C86.4485 194.747 87.2685 193.7 87.2685 192.414C87.2685 191.128 86.444 190.08 85.4344 190.08L80.3551 190.054C80.1787 190.054 80.0156 190.054 79.8613 190.05C79.6144 190.05 79.4645 190.05 79.4336 190.05V190.027C78.8472 189.966 78.5341 189.781 78.5341 189.169V188.288H79.4336C79.6585 188.288 88.0666 188.293 88.0666 188.293C89.0763 188.293 89.9008 187.245 89.9008 185.959C89.9008 184.674 89.0763 183.626 88.0666 183.626L79.6761 183.56C79.6232 183.56 79.5659 183.56 79.4997 183.56H79.319V183.546C78.9133 183.502 78.4239 183.331 78.4239 182.675V181.798H79.319C79.5438 181.798 100.337 181.807 100.337 181.807C101.347 181.807 102.171 180.759 102.171 179.474C102.171 178.188 101.347 177.14 100.337 177.14H65.3906L77.886 164.68C78.6444 163.751 78.6355 162.21 77.864 161.294C77.5112 160.876 77.0439 160.783 76.7132 160.779C76.2105 160.77 75.6418 160.986 75.3508 161.312L75.2846 161.386L69.9849 165.138L53.3009 176.951C53.0143 177.202 50.7304 179.28 49.9015 181.398L49.681 181.957H47.4853L47.5382 198.371L47.5515 198.358Z" fill="#231F20"/>
<path d="M8.47412 202.637H42.0229V176.321H8.84448" fill="#3B53F6"/>
<path d="M42.9047 203.518H8.47412V201.757H41.1411V177.202H8.84448V175.44H42.9047V203.518Z" fill="#231F20"/>
<path d="M42.0225 201.145H46.6961V177.818H42.0577C42.0577 183.071 42.0577 193.286 42.0225 201.145Z" fill="white"/>
<path d="M47.5779 202.025H41.1406V201.14C41.1803 193.316 41.1803 183.172 41.1803 177.818V176.938H47.5823V202.025H47.5779ZM42.9087 200.264H45.8143V178.699H42.9395C42.9395 184.013 42.9395 192.991 42.9087 200.264Z" fill="#231F20"/>
<path d="M12.5084 180.055H9.22363V181.816H12.5084V180.055Z" fill="#231F20"/>
<path d="M15.271 180.051L15.2651 181.812L37.6896 181.887L37.6955 180.125L15.271 180.051Z" fill="#231F20"/>
<path d="M326.273 434.836H317.455V436.597H326.273V434.836Z" fill="#231F20"/>
<path d="M194.882 374.076H193.118V431.314H194.882V374.076Z" fill="#231F20"/>
<path d="M106.7 396.09H104.937V431.314H106.7V396.09Z" fill="#231F20"/>
<path d="M274.695 355.284H272.932V431.3H274.695V355.284Z" fill="#231F20"/>
<path d="M273.813 431.754C267.252 431.754 261.913 426.422 261.913 419.87C261.913 413.319 267.252 407.987 273.813 407.987V409.748C268.227 409.748 263.677 414.287 263.677 419.87C263.677 425.453 268.222 429.993 273.813 429.993V431.754Z" fill="#231F20"/>
<path d="M293.646 407.991H273.373V409.752H293.646V407.991Z" fill="#231F20"/>
<path d="M293.641 409.752V407.991C299.227 407.991 303.778 403.452 303.778 397.869V387.306H305.541V397.869C305.541 404.42 300.202 409.752 293.641 409.752Z" fill="#231F20"/>
<path d="M173.801 249.793H172.038C172.038 247.503 171.346 245.302 170.036 243.431L171.482 242.422C172.999 244.593 173.801 247.138 173.801 249.793Z" fill="#231F20"/>
<path d="M173.863 241.225C172.805 239.569 171.465 238.143 169.882 236.972C167.488 235.206 164.657 234.149 161.694 233.912L161.835 232.155C165.129 232.415 168.273 233.59 170.931 235.554C172.686 236.848 174.172 238.438 175.349 240.274L173.863 241.22V241.225Z" fill="#231F20"/>
<path d="M182.457 249.793H180.693C180.693 243.241 177.541 237.007 172.259 233.106C168.837 230.579 164.776 229.183 160.513 229.064L160.561 227.303C165.186 227.43 169.591 228.945 173.308 231.688C179.035 235.915 182.457 242.682 182.457 249.788V249.793Z" fill="#231F20"/>
<path d="M186.786 249.793H185.023C185.023 243.395 182.642 237.271 178.321 232.555L179.621 231.366C184.242 236.408 186.786 242.951 186.786 249.793Z" fill="#231F20"/>
<path d="M110.986 408.335C107.912 411.403 107.088 420.011 107.088 420.011C107.088 420.011 115.703 419.188 118.781 416.119C121.858 413.05 122.678 404.442 122.678 404.442C122.678 404.442 114.063 405.266 110.986 408.335Z" fill="white"/>
<path d="M106.109 420.989L106.211 419.928C106.246 419.562 107.101 410.972 110.364 407.714C113.627 404.456 122.229 403.602 122.595 403.566L123.658 403.465L123.556 404.526C123.521 404.892 122.666 413.482 119.403 416.74C116.14 419.998 107.538 420.852 107.172 420.887L106.109 420.989ZM121.669 405.455C119.315 405.785 113.808 406.763 111.612 408.96C109.579 410.99 108.495 416.168 108.098 418.999C110.452 418.668 115.959 417.691 118.155 415.494C120.188 413.464 121.272 408.286 121.669 405.455Z" fill="#231F20"/>
<path d="M100.699 408.335C103.772 411.403 104.597 420.011 104.597 420.011C104.597 420.011 95.9815 419.188 92.904 416.119C89.8309 413.05 89.0063 404.442 89.0063 404.442C89.0063 404.442 97.6217 405.266 100.699 408.335Z" fill="white"/>
<path d="M105.576 420.989L104.513 420.887C104.147 420.852 95.5448 419.998 92.2821 416.74C89.0194 413.482 88.164 404.892 88.1288 404.526L88.0273 403.465L89.0899 403.566C89.4559 403.602 98.058 404.456 101.321 407.714C104.583 410.972 105.439 419.562 105.474 419.928L105.576 420.989ZM90.0203 405.451C90.3509 407.802 91.3298 413.301 93.5299 415.494C95.5625 417.524 100.748 418.607 103.583 418.999C103.252 416.647 102.273 411.148 100.073 408.956C98.0404 406.926 92.8553 405.843 90.0203 405.451Z" fill="#231F20"/>
<path d="M199.141 408.335C196.068 411.403 195.243 420.011 195.243 420.011C195.243 420.011 203.859 419.188 206.936 416.119C210.009 413.05 210.834 404.442 210.834 404.442C210.834 404.442 202.218 405.266 199.141 408.335Z" fill="white"/>
<path d="M194.265 420.989L194.366 419.928C194.401 419.562 195.257 410.972 198.519 407.714C201.782 404.456 210.384 403.602 210.75 403.566L211.813 403.465L211.711 404.526C211.676 404.892 210.821 413.482 207.558 416.74C204.295 419.998 195.693 420.852 195.327 420.887L194.265 420.989ZM209.824 405.455C207.47 405.785 201.963 406.763 199.767 408.96C197.735 410.99 196.65 416.168 196.258 418.999C198.612 418.668 204.119 417.691 206.315 415.494C208.347 413.464 209.432 408.286 209.824 405.455Z" fill="#231F20"/>
<path d="M188.859 408.335C191.932 411.403 192.757 420.011 192.757 420.011C192.757 420.011 184.141 419.188 181.064 416.119C177.991 413.05 177.166 404.442 177.166 404.442C177.166 404.442 185.781 405.266 188.859 408.335Z" fill="white"/>
<path d="M193.736 420.989L192.673 420.887C192.307 420.852 183.705 419.998 180.442 416.74C177.18 413.482 176.324 404.892 176.289 404.526L176.188 403.465L177.25 403.566C177.616 403.602 186.218 404.456 189.481 407.714C192.744 410.972 193.599 419.562 193.634 419.928L193.736 420.989ZM178.18 405.451C178.511 407.802 179.49 413.301 181.69 415.494C183.723 417.524 188.908 418.607 191.743 418.999C191.412 416.647 190.433 411.148 188.233 408.956C186.201 406.926 181.015 405.843 178.18 405.451Z" fill="#231F20"/>
<path d="M199.141 387.201C196.068 390.27 195.243 398.877 195.243 398.877C195.243 398.877 203.859 398.054 206.936 394.985C210.009 391.916 210.834 383.309 210.834 383.309C210.834 383.309 202.218 384.132 199.141 387.201Z" fill="white"/>
<path d="M194.265 399.855L194.366 398.794C194.401 398.428 195.257 389.838 198.519 386.58C201.782 383.322 210.384 382.468 210.75 382.432L211.813 382.331L211.711 383.392C211.676 383.758 210.821 392.348 207.558 395.606C204.295 398.864 195.693 399.718 195.327 399.753L194.265 399.855ZM209.824 384.321C207.47 384.651 201.963 385.629 199.767 387.826C197.735 389.856 196.65 395.034 196.258 397.865C198.612 397.534 204.119 396.557 206.315 394.36C208.347 392.33 209.432 387.152 209.824 384.321Z" fill="#231F20"/>
<path d="M188.859 387.201C191.932 390.27 192.757 398.877 192.757 398.877C192.757 398.877 184.141 398.054 181.064 394.985C177.991 391.916 177.166 383.309 177.166 383.309C177.166 383.309 185.781 384.132 188.859 387.201Z" fill="#231F20"/>
<path d="M193.736 399.855L192.673 399.753C192.307 399.718 183.705 398.864 180.442 395.606C177.18 392.348 176.324 383.758 176.289 383.392L176.188 382.331L177.25 382.432C177.616 382.468 186.218 383.322 189.481 386.58C192.744 389.838 193.599 398.428 193.634 398.794L193.736 399.855ZM178.18 384.317C178.511 386.668 179.49 392.167 181.69 394.36C183.723 396.39 188.908 397.473 191.743 397.865C191.412 395.513 190.433 390.014 188.233 387.822C186.201 385.792 181.015 384.709 178.18 384.317Z" fill="#231F20"/>
<path d="M269.246 387.201C272.319 390.27 273.143 398.877 273.143 398.877C273.143 398.877 264.528 398.054 261.45 394.985C258.377 391.916 257.553 383.309 257.553 383.309C257.553 383.309 266.168 384.132 269.246 387.201Z" fill="#231F20"/>
<path d="M274.122 399.855L273.059 399.753C272.693 399.718 264.091 398.864 260.829 395.606C257.566 392.348 256.71 383.758 256.675 383.392L256.574 382.331L257.636 382.432C258.002 382.468 266.604 383.322 269.867 386.58C273.13 389.838 273.985 398.428 274.021 398.794L274.122 399.855ZM258.567 384.317C258.897 386.668 259.876 392.167 262.076 394.36C264.109 396.39 269.294 397.473 272.129 397.865C271.798 395.513 270.82 390.014 268.624 387.822C266.591 385.792 261.406 384.709 258.571 384.317H258.567Z" fill="#231F20"/>
<path d="M268.897 364.605C271.97 367.674 272.795 376.281 272.795 376.281C272.795 376.281 264.179 375.458 261.102 372.389C258.029 369.32 257.204 360.713 257.204 360.713C257.204 360.713 265.819 361.536 268.897 364.605Z" fill="white"/>
<path d="M273.774 377.259L272.711 377.157C272.345 377.122 263.743 376.268 260.48 373.01C257.218 369.752 256.362 361.162 256.327 360.796L256.226 359.735L257.288 359.836C257.654 359.872 266.256 360.726 269.519 363.984C272.782 367.242 273.637 375.832 273.672 376.198L273.774 377.259ZM258.219 361.721C258.549 364.072 259.528 369.571 261.728 371.764C263.761 373.794 268.946 374.877 271.781 375.269C271.45 372.917 270.471 367.418 268.271 365.226C266.239 363.196 261.054 362.113 258.219 361.721Z" fill="#231F20"/>
<path d="M49.1616 362.866L47.8389 361.703L79.2448 326.18L139.076 326.136L166.077 295.681L223.1 295.822L272.747 247.179L273.981 248.438L223.819 297.588L166.871 297.447L139.87 327.898H139.477L80.0429 327.942L49.1616 362.866Z" fill="white"/>
<path d="M274.245 261.017H272.482V248.689H260.136V246.928H274.245V261.017Z" fill="white"/>
<path d="M291.811 396.975C294.884 400.044 295.709 408.652 295.709 408.652C295.709 408.652 287.093 407.828 284.016 404.76C280.943 401.691 280.118 393.083 280.118 393.083C280.118 393.083 288.734 393.906 291.811 396.975Z" fill="white"/>
<path d="M296.688 409.625L295.625 409.523C295.259 409.488 286.657 408.634 283.394 405.376C280.132 402.118 279.276 393.528 279.241 393.162L279.14 392.101L280.202 392.202C280.568 392.238 289.17 393.092 292.433 396.35C295.696 399.608 296.551 408.198 296.586 408.564L296.688 409.625ZM281.133 394.087C281.463 396.438 282.442 401.937 284.642 404.13C286.675 406.16 291.86 407.243 294.695 407.635C294.364 405.283 293.385 399.784 291.185 397.592C289.153 395.562 283.968 394.479 281.133 394.087Z" fill="#231F20"/>
<path d="M233.682 368.836C234.899 368.836 235.886 367.85 235.886 366.635C235.886 365.419 234.899 364.433 233.682 364.433C232.464 364.433 231.477 365.419 231.477 366.635C231.477 367.85 232.464 368.836 233.682 368.836Z" fill="black"/>
<path d="M60.7266 408.312H38.6812V410.074H60.7266V408.312Z" fill="#231F20"/>
<path d="M346.929 421.416C345.351 421.416 344.063 420.13 344.063 418.554C344.063 416.978 345.351 415.692 346.929 415.692C348.508 415.692 349.795 416.978 349.795 418.554C349.795 420.13 348.508 421.416 346.929 421.416ZM346.929 417.013C346.078 417.013 345.386 417.704 345.386 418.554C345.386 419.404 346.078 420.095 346.929 420.095C347.78 420.095 348.473 419.404 348.473 418.554C348.473 417.704 347.78 417.013 346.929 417.013Z" fill="white"/>
<path d="M312.719 321.368L309.267 317.921L312.719 314.473L316.172 317.921L312.719 321.368ZM311.763 317.921L312.719 318.876L313.676 317.921L312.719 316.965L311.763 317.921Z" fill="#231F20"/>
<path d="M331.065 418.686H304.611V420.447H331.065V418.686Z" fill="#231F20"/>
<path d="M361.298 386.91H339.253V388.671H361.298V386.91Z" fill="#231F20"/>
<path d="M344.425 368.347H342.661V374.952H344.425V368.347Z" fill="#231F20"/>
<path d="M346.85 371.033H340.236V372.794H346.85V371.033Z" fill="#231F20"/>
<path d="M157.211 356.508L153.758 353.06L157.211 349.613L160.663 353.06L157.211 356.508ZM156.254 353.06L157.211 354.016L158.167 353.06L157.211 352.105L156.254 353.06Z" fill="#231F20"/>
<path d="M351.219 321.513H329.174V323.274H351.219V321.513Z" fill="#231F20"/>
<path d="M141.735 378.707C140.156 378.707 138.869 377.422 138.869 375.846C138.869 374.269 140.156 372.984 141.735 372.984C143.313 372.984 144.6 374.269 144.6 375.846C144.6 377.422 143.313 378.707 141.735 378.707ZM141.735 374.305C140.884 374.305 140.191 374.996 140.191 375.846C140.191 376.695 140.884 377.387 141.735 377.387C142.586 377.387 143.278 376.695 143.278 375.846C143.278 374.996 142.586 374.305 141.735 374.305Z" fill="white"/>
<path d="M248.051 401.814H226.006V403.575H248.051V401.814Z" fill="#231F20"/>
<path d="M161.822 388.614C163.04 388.614 164.027 387.628 164.027 386.412C164.027 385.197 163.04 384.211 161.822 384.211C160.605 384.211 159.618 385.197 159.618 386.412C159.618 387.628 160.605 388.614 161.822 388.614Z" fill="black"/>
<path d="M361.298 347.438C362.516 347.438 363.503 346.452 363.503 345.236C363.503 344.021 362.516 343.035 361.298 343.035C360.081 343.035 359.094 344.021 359.094 345.236C359.094 346.452 360.081 347.438 361.298 347.438Z" fill="black"/>
<path d="M251.437 354.386H229.392V356.147H251.437V354.386Z" fill="#231F20"/>
<path d="M242.068 389.547L238.929 386.412L242.068 383.278L245.207 386.412L242.068 389.547ZM240.798 386.412L242.068 387.681L243.338 386.412L242.068 385.144L240.798 386.412Z" fill="white"/>
<path d="M182.457 249.793H180.693V258.304H182.457V249.793Z" fill="#231F20"/>
<path d="M167.51 240.837C166.046 239.759 164.326 239.05 162.532 238.786L162.787 237.042C164.864 237.35 166.861 238.169 168.555 239.42L167.505 240.837H167.51Z" fill="#231F20"/>
<path d="M178.127 253.755H176.363C176.363 253.205 176.359 249.317 176.346 249.057C176.293 247.877 176.107 246.706 175.799 245.579L177.501 245.112C177.845 246.367 178.052 247.67 178.109 248.978C178.122 249.273 178.127 253.707 178.127 253.751V253.755Z" fill="#231F20"/>
<path d="M174.635 229.244C170.213 225.982 164.962 224.256 159.45 224.256V222.495C165.345 222.495 170.958 224.339 175.684 227.827L174.635 229.244Z" fill="#231F20"/>
<path d="M279.497 348.01H268.2C266.931 348.01 265.899 346.808 265.899 345.329C265.899 343.849 266.931 342.647 268.2 342.647H279.497C280.766 342.647 281.798 343.849 281.798 345.329C281.798 346.808 280.766 348.01 279.497 348.01ZM268.2 344.413C267.954 344.413 267.663 344.814 267.663 345.333C267.663 345.853 267.954 346.253 268.2 346.253H279.497C279.743 346.253 280.034 345.853 280.034 345.333C280.034 344.814 279.743 344.413 279.497 344.413H268.2Z" fill="#231F20"/>
<path d="M279.497 351.607H268.2C266.931 351.607 265.899 350.405 265.899 348.926C265.899 347.447 266.931 346.245 268.2 346.245H279.497C280.766 346.245 281.798 347.447 281.798 348.926C281.798 350.405 280.766 351.607 279.497 351.607ZM268.2 348.01C267.954 348.01 267.663 348.411 267.663 348.93C267.663 349.45 267.954 349.851 268.2 349.851H279.497C279.743 349.851 280.034 349.45 280.034 348.93C280.034 348.411 279.743 348.01 279.497 348.01H268.2Z" fill="#231F20"/>
<path d="M274.078 356.164H273.381C268.624 356.164 267.177 351.968 267.05 350.846L266.961 350.066L267.729 349.859L268.496 349.683L268.553 349.846H280.625L280.643 350.705C280.656 351.308 280.264 352.977 278.967 354.302C277.759 355.535 276.115 356.16 274.073 356.16L274.078 356.164ZM269.122 351.607C269.611 352.721 270.784 354.403 273.385 354.403H274.082C277.094 354.403 278.235 352.695 278.654 351.607H269.126H269.122Z" fill="#231F20"/>
<path d="M277.601 344.382H270.097L268.201 323.125L271.578 321.654L273.805 322.702L275.952 321.659L279.497 323.112L277.601 344.387V344.382ZM271.71 342.621H275.987L277.623 324.248L276.014 323.587L273.822 324.657L271.552 323.592L270.07 324.234L271.71 342.625V342.621Z" fill="#231F20"/>
<path d="M273.849 301.04C274.433 301.04 274.907 300.567 274.907 299.983C274.907 299.399 274.433 298.926 273.849 298.926C273.264 298.926 272.791 299.399 272.791 299.983C272.791 300.567 273.264 301.04 273.849 301.04Z" fill="#231F20"/>
<path d="M267.125 300.969C267.323 301.52 267.041 302.123 266.494 302.325C265.943 302.524 265.339 302.242 265.136 301.696C264.938 301.145 265.22 300.542 265.767 300.34C266.318 300.142 266.922 300.423 267.125 300.969Z" fill="#231F20"/>
<path d="M260.149 304.549C260.524 304.998 260.467 305.663 260.017 306.037C259.567 306.411 258.902 306.354 258.527 305.905C258.152 305.456 258.209 304.791 258.659 304.417C259.109 304.042 259.775 304.1 260.149 304.549Z" fill="#231F20"/>
<path d="M254.823 310.299C255.331 310.59 255.502 311.237 255.211 311.743C254.92 312.249 254.272 312.421 253.765 312.131C253.258 311.84 253.086 311.193 253.377 310.686C253.668 310.18 254.316 310.008 254.823 310.299Z" fill="#231F20"/>
<path d="M251.79 317.52C252.367 317.621 252.751 318.167 252.65 318.744C252.548 319.321 252.001 319.704 251.424 319.602C250.846 319.501 250.463 318.955 250.564 318.378C250.666 317.802 251.212 317.419 251.79 317.52Z" fill="#231F20"/>
<path d="M251.411 325.344C251.988 325.243 252.535 325.626 252.636 326.202C252.738 326.779 252.354 327.325 251.777 327.426C251.199 327.528 250.652 327.145 250.551 326.568C250.45 325.991 250.833 325.445 251.411 325.344Z" fill="#231F20"/>
<path d="M253.73 332.824C254.237 332.534 254.885 332.705 255.176 333.212C255.467 333.718 255.295 334.365 254.788 334.656C254.281 334.947 253.633 334.775 253.342 334.269C253.051 333.762 253.223 333.115 253.73 332.824Z" fill="#231F20"/>
<path d="M258.474 339.063C258.849 338.614 259.519 338.557 259.964 338.931C260.414 339.306 260.471 339.975 260.097 340.42C259.722 340.869 259.052 340.926 258.606 340.552C258.157 340.177 258.099 339.508 258.474 339.063Z" fill="#231F20"/>
<path d="M287.477 340.468C287.102 340.019 287.16 339.354 287.609 338.98C288.059 338.605 288.725 338.663 289.1 339.112C289.474 339.561 289.417 340.226 288.967 340.6C288.518 340.974 287.852 340.917 287.477 340.468Z" fill="#231F20"/>
<path d="M292.803 334.718C292.296 334.427 292.124 333.78 292.415 333.274C292.706 332.767 293.354 332.596 293.862 332.886C294.369 333.177 294.541 333.824 294.25 334.33C293.959 334.837 293.31 335.008 292.803 334.718Z" fill="#231F20"/>
<path d="M295.837 327.497C295.259 327.395 294.876 326.85 294.977 326.273C295.079 325.696 295.625 325.313 296.203 325.414C296.78 325.515 297.164 326.061 297.063 326.638C296.961 327.215 296.415 327.598 295.837 327.497Z" fill="#231F20"/>
<path d="M296.221 319.673C295.643 319.774 295.096 319.391 294.995 318.814C294.893 318.238 295.277 317.692 295.855 317.59C296.432 317.489 296.979 317.872 297.08 318.449C297.182 319.026 296.798 319.572 296.221 319.673Z" fill="#231F20"/>
<path d="M293.897 312.192C293.39 312.483 292.742 312.311 292.451 311.805C292.16 311.299 292.331 310.651 292.839 310.361C293.346 310.07 293.994 310.242 294.285 310.748C294.576 311.255 294.404 311.902 293.897 312.192Z" fill="#231F20"/>
<path d="M289.152 305.953C288.778 306.403 288.107 306.46 287.662 306.086C287.212 305.711 287.155 305.042 287.53 304.597C287.905 304.148 288.575 304.091 289.02 304.465C289.465 304.84 289.527 305.509 289.152 305.953Z" fill="#231F20"/>
<path d="M282.557 301.713C282.358 302.264 281.75 302.545 281.199 302.343C280.648 302.145 280.365 301.537 280.568 300.987C280.767 300.436 281.375 300.155 281.926 300.357C282.477 300.555 282.759 301.163 282.557 301.713Z" fill="#231F20"/>
<path d="M285.533 321.32H283.769C283.769 316.428 279.783 312.448 274.885 312.448V310.687C280.758 310.687 285.533 315.455 285.533 321.32Z" fill="#231F20"/>
<path d="M278.743 364.605C275.67 367.674 274.845 376.281 274.845 376.281C274.845 376.281 283.461 375.458 286.538 372.389C289.611 369.32 290.436 360.713 290.436 360.713C290.436 360.713 281.82 361.536 278.743 364.605Z" fill="white"/>
<path d="M273.866 377.259L273.968 376.198C274.003 375.832 274.858 367.242 278.121 363.984C281.384 360.726 289.986 359.872 290.352 359.836L291.414 359.735L291.313 360.796C291.278 361.162 290.422 369.752 287.16 373.01C283.897 376.268 275.295 377.122 274.929 377.157L273.866 377.259ZM289.426 361.725C287.071 362.055 281.564 363.033 279.369 365.23C277.336 367.26 276.252 372.438 275.859 375.269C278.214 374.938 283.721 373.961 285.916 371.764C287.949 369.734 289.033 364.556 289.426 361.725Z" fill="#231F20"/>
<path d="M298.659 391.093C298.659 386.751 304.17 380.085 304.17 380.085C304.17 380.085 309.681 386.751 309.681 391.093C309.681 395.434 304.17 402.1 304.17 402.1C304.17 402.1 298.659 395.434 298.659 391.093Z" fill="white"/>
<path d="M304.17 403.483L303.491 402.659C303.257 402.378 297.777 395.698 297.777 391.093C297.777 386.487 303.257 379.808 303.491 379.526L304.17 378.703L304.849 379.526C305.083 379.808 310.563 386.487 310.563 391.093C310.563 395.698 305.083 402.378 304.849 402.659L304.17 403.483ZM304.17 381.512C302.737 383.405 299.536 387.989 299.536 391.093C299.536 393.964 302.437 398.393 304.161 400.674C305.594 398.78 308.795 394.197 308.795 391.093C308.795 388.222 305.894 383.793 304.17 381.512Z" fill="#231F20"/>
<path d="M199.815 366.947H188.519C187.25 366.947 186.218 365.745 186.218 364.266C186.218 362.786 187.25 361.589 188.519 361.589H199.815C201.085 361.589 202.117 362.791 202.117 364.266C202.117 365.741 201.085 366.947 199.815 366.947ZM188.519 363.35C188.272 363.35 187.981 363.751 187.981 364.266C187.981 364.781 188.272 365.186 188.519 365.186H199.815C200.062 365.186 200.353 364.785 200.353 364.266C200.353 363.746 200.062 363.35 199.815 363.35H188.519Z" fill="#231F20"/>
<path d="M199.815 370.544H188.519C187.25 370.544 186.218 369.342 186.218 367.867C186.218 366.392 187.25 365.186 188.519 365.186H199.815C201.085 365.186 202.117 366.388 202.117 367.867C202.117 369.347 201.085 370.544 199.815 370.544ZM188.519 366.947C188.272 366.947 187.981 367.348 187.981 367.867C187.981 368.387 188.272 368.783 188.519 368.783H199.815C200.062 368.783 200.353 368.383 200.353 367.867C200.353 367.352 200.062 366.947 199.815 366.947H188.519Z" fill="#231F20"/>
<path d="M194.397 375.101H193.7C188.943 375.101 187.497 370.905 187.369 369.782L187.281 369.003L188.048 368.796L188.815 368.62L188.872 368.783H200.945L200.962 369.642C200.975 370.245 200.583 371.918 199.287 373.239C198.079 374.472 196.434 375.097 194.393 375.097L194.397 375.101ZM189.441 370.544C189.931 371.658 191.103 373.34 193.705 373.34H194.401C197.413 373.34 198.555 371.632 198.974 370.544H189.446H189.441Z" fill="#231F20"/>
<path d="M106.047 397.851H105.351C100.593 397.851 99.1472 393.655 99.0193 392.532L98.9312 391.753L99.6983 391.546L100.466 391.37L100.523 391.533H112.595L112.617 392.392C112.63 392.995 112.242 394.664 110.942 395.989C109.733 397.222 108.084 397.851 106.047 397.851ZM101.092 393.294C101.581 394.408 102.754 396.09 105.355 396.09H106.052C109.063 396.09 110.205 394.382 110.624 393.294H101.096H101.092Z" fill="#231F20"/>
<path d="M105.756 376.726C100.959 376.726 97.0703 380.609 97.0703 385.4C97.0703 388.284 98.4856 390.837 100.659 392.414H110.853C113.022 390.837 114.442 388.288 114.442 385.4C114.442 380.609 110.553 376.726 105.756 376.726Z" fill="#3B53F6"/>
<path d="M111.14 393.294H100.373L100.14 393.127C97.666 391.331 96.189 388.442 96.189 385.404C96.189 380.138 100.479 375.85 105.757 375.85C111.034 375.85 115.324 380.134 115.324 385.404C115.324 388.442 113.847 391.331 111.374 393.127L111.14 393.294ZM100.955 391.533H110.558C112.441 390.058 113.561 387.786 113.561 385.4C113.561 381.103 110.06 377.607 105.757 377.607C101.453 377.607 97.9526 381.103 97.9526 385.4C97.9526 387.786 99.0681 390.058 100.955 391.533Z" fill="#231F20"/>
<path d="M187.677 362.469H200.812C202.099 358.916 204.123 353.228 204.837 350.692C205.053 349.93 205.067 349.111 205.067 348.283C205.067 341.868 200.278 336.664 194.375 336.664C194.33 336.664 194.286 336.664 194.242 336.668C194.198 336.668 194.154 336.664 194.11 336.664C188.206 336.664 183.418 341.868 183.418 348.283C183.418 349.111 183.436 349.93 183.647 350.692C184.362 353.228 186.385 358.916 187.673 362.469H187.677Z" fill="#3B53F6"/>
<path d="M201.429 363.35H187.06L186.848 362.769C185.389 358.736 183.502 353.408 182.801 350.929C182.558 350.062 182.536 349.181 182.536 348.283C182.536 341.393 187.73 335.783 194.11 335.783C194.15 335.783 194.185 335.783 194.225 335.783C194.295 335.783 194.335 335.783 194.375 335.783C200.759 335.783 205.948 341.393 205.948 348.283C205.948 349.146 205.926 350.062 205.684 350.929C204.987 353.399 203.1 358.731 201.641 362.769L201.429 363.35ZM188.294 361.589H200.19C201.403 358.234 203.307 352.858 203.986 350.454C204.172 349.802 204.185 349.054 204.185 348.283C204.185 342.361 199.785 337.544 194.375 337.544H194.255H194.141C188.704 337.544 184.304 342.361 184.304 348.283C184.304 349.054 184.317 349.802 184.503 350.454C185.182 352.862 187.086 358.234 188.299 361.589H188.294Z" fill="#231F20"/>
<path d="M110.593 384.775C109.751 381.292 106.974 380.913 105.818 380.913V379.152C108.345 379.152 111.378 380.521 112.304 384.361L110.589 384.775H110.593Z" fill="#231F20"/>
<path d="M202.271 347.909H200.508C200.508 344.492 197.726 341.714 194.304 341.714V339.953C198.7 339.953 202.271 343.524 202.271 347.909Z" fill="#231F20"/>
</g>
<defs>
<clipPath id="clip0_1_5303">
<rect width="390" height="436" fill="white"/>
</clipPath>
</defs>
</svg>
