<svg width="328" height="114" viewBox="0 0 328 114" fill="none" xmlns="http://www.w3.org/2000/svg">
<mask id="path-1-outside-1_1_9617" maskUnits="userSpaceOnUse" x="-1" y="-1" width="331" height="115" fill="black">
<rect fill="white" x="-1" y="-1" width="331" height="115"/>
<path d="M86.12 44.56V50.32C86.12 61.84 82.32 71.28 74.72 78.64C67.12 85.92 57.2 89.56 44.96 89.56C32 89.56 21.28 85.36 12.8 76.96C4.4 68.56 0.2 58.24 0.2 46C0.2 33.84 4.4 23.56 12.8 15.16C21.28 6.67999 31.76 2.43999 44.24 2.43999C52.08 2.43999 59.24 4.23999 65.72 7.83999C72.2 11.44 77.24 16.28 80.84 22.36L68.96 29.2C66.72 25.2 63.4 22 59 19.6C54.6 17.12 49.68 15.88 44.24 15.88C35.44 15.88 28.2 18.76 22.52 24.52C16.84 30.28 14 37.48 14 46.12C14 54.76 16.84 61.92 22.52 67.6C28.28 73.28 35.8 76.12 45.08 76.12C52.52 76.12 58.56 74.4 63.2 70.96C67.92 67.44 70.92 62.76 72.2 56.92H44.12V44.56H86.12ZM112.536 16.6C110.936 18.2 109.016 19 106.776 19C104.536 19 102.576 18.2 100.896 16.6C99.2959 14.92 98.4959 12.96 98.4959 10.72C98.4959 8.47999 99.2959 6.55999 100.896 4.96C102.496 3.27999 104.456 2.43999 106.776 2.43999C109.096 2.43999 111.056 3.27999 112.656 4.96C114.256 6.55999 115.056 8.47999 115.056 10.72C115.056 12.96 114.216 14.92 112.536 16.6ZM100.296 88V28H113.256V88H100.296ZM130.704 88V0.399998H143.664V88H130.704ZM174.072 38.08C177.352 30.64 183.512 26.92 192.552 26.92V40.96C187.592 40.64 183.272 41.84 179.592 44.56C175.912 47.2 174.072 51.6 174.072 57.76V88H161.112V28H174.072V38.08ZM230.035 89.56C221.235 89.56 213.755 86.52 207.595 80.44C201.435 74.36 198.355 66.88 198.355 58C198.355 49.12 201.435 41.64 207.595 35.56C213.755 29.48 221.235 26.44 230.035 26.44C238.915 26.44 246.395 29.48 252.475 35.56C258.635 41.64 261.715 49.12 261.715 58C261.715 66.88 258.635 74.36 252.475 80.44C246.395 86.52 238.915 89.56 230.035 89.56ZM216.715 71.56C220.315 75.16 224.755 76.96 230.035 76.96C235.315 76.96 239.755 75.16 243.355 71.56C246.955 67.96 248.755 63.44 248.755 58C248.755 52.56 246.955 48.04 243.355 44.44C239.755 40.84 235.315 39.04 230.035 39.04C224.755 39.04 220.315 40.84 216.715 44.44C213.115 48.04 211.315 52.56 211.315 58C211.315 63.44 213.115 67.96 216.715 71.56ZM313.93 28H327.73L304.69 89.92C298.93 105.44 289.17 112.8 275.41 112V99.88C279.49 100.12 282.77 99.24 285.25 97.24C287.73 95.32 289.77 92.28 291.37 88.12L291.97 86.92L266.53 28H280.69L298.57 71.56L313.93 28Z"/>
</mask>
<path d="M86.12 44.56H87.12V43.56H86.12V44.56ZM74.72 78.64L75.4118 79.3622L75.4157 79.3584L74.72 78.64ZM12.8 76.96L12.0929 77.6671L12.0963 77.6704L12.8 76.96ZM12.8 15.16L12.0929 14.4529L12.8 15.16ZM80.84 22.36L81.339 23.2266L82.2162 22.7215L81.7005 21.8505L80.84 22.36ZM68.96 29.2L68.0875 29.6886L68.582 30.5716L69.459 30.0666L68.96 29.2ZM59 19.6L58.5089 20.4712L58.5212 20.4779L59 19.6ZM22.52 24.52L21.808 23.8178L22.52 24.52ZM22.52 67.6L21.8129 68.3071L21.8179 68.312L22.52 67.6ZM63.2 70.96L63.7956 71.7633L63.7978 71.7616L63.2 70.96ZM72.2 56.92L73.1768 57.1341L73.4429 55.92H72.2V56.92ZM44.12 56.92H43.12V57.92H44.12V56.92ZM44.12 44.56V43.56H43.12V44.56H44.12ZM85.12 44.56V50.32H87.12V44.56H85.12ZM85.12 50.32C85.12 61.5959 81.4115 70.7678 74.0243 77.9216L75.4157 79.3584C83.2285 71.7922 87.12 62.0841 87.12 50.32H85.12ZM74.0283 77.9179C66.6446 84.9906 56.9874 88.56 44.96 88.56V90.56C57.4127 90.56 67.5954 86.8494 75.4117 79.3621L74.0283 77.9179ZM44.96 88.56C32.2387 88.56 21.7795 84.4472 13.5037 76.2495L12.0963 77.6704C20.7805 86.2728 31.7613 90.56 44.96 90.56V88.56ZM13.5071 76.2529C5.30092 68.0467 1.2 57.9838 1.2 46H-0.8C-0.8 58.4962 3.49908 69.0733 12.0929 77.6671L13.5071 76.2529ZM1.2 46C1.2 34.0982 5.29955 24.0747 13.5071 15.8671L12.0929 14.4529C3.50045 23.0453 -0.8 33.5818 -0.8 46H1.2ZM13.5071 15.8671C21.7912 7.58297 32.0132 3.43999 44.24 3.43999V1.43999C31.5068 1.43999 20.7688 5.77701 12.0929 14.4529L13.5071 15.8671ZM44.24 3.43999C51.9202 3.43999 58.9115 5.20147 65.2344 8.71415L66.2057 6.96584C59.5685 3.27852 52.2398 1.43999 44.24 1.43999V3.43999ZM65.2344 8.71415C71.5672 12.2324 76.4744 16.9498 79.9795 22.8695L81.7005 21.8505C78.0056 15.6102 72.8328 10.6476 66.2057 6.96584L65.2344 8.71415ZM80.341 21.4934L68.461 28.3334L69.459 30.0666L81.339 23.2266L80.341 21.4934ZM69.8325 28.7114C67.492 24.532 64.0281 21.2035 59.4789 18.7221L58.5212 20.4779C62.7719 22.7965 65.948 25.868 68.0875 29.6886L69.8325 28.7114ZM59.491 18.7288C54.9297 16.1579 49.8384 14.88 44.24 14.88V16.88C49.5216 16.88 54.2703 18.0821 58.509 20.4711L59.491 18.7288ZM44.24 14.88C35.1983 14.88 27.6934 17.8496 21.808 23.8178L23.232 25.2221C28.7066 19.6704 35.6817 16.88 44.24 16.88V14.88ZM21.808 23.8178C15.93 29.7786 13 37.237 13 46.12H15C15 37.723 17.75 30.7814 23.232 25.2221L21.808 23.8178ZM13 46.12C13 55.0031 15.9302 62.4245 21.8129 68.3071L23.2271 66.8929C17.7498 61.4155 15 54.517 15 46.12H13ZM21.8179 68.312C27.7928 74.204 35.5791 77.12 45.08 77.12V75.12C36.0209 75.12 28.7672 72.356 23.2221 66.888L21.8179 68.312ZM45.08 77.12C52.6725 77.12 58.9394 75.3636 63.7956 71.7633L62.6044 70.1567C58.1806 73.4364 52.3675 75.12 45.08 75.12V77.12ZM63.7978 71.7616C68.714 68.0954 71.8462 63.2052 73.1768 57.1341L71.2232 56.7059C69.9938 62.3148 67.126 66.7847 62.6022 70.1584L63.7978 71.7616ZM72.2 55.92H44.12V57.92H72.2V55.92ZM45.12 56.92V44.56H43.12V56.92H45.12ZM44.12 45.56H86.12V43.56H44.12V45.56ZM112.536 16.6L113.243 17.3071L112.536 16.6ZM100.896 16.6L100.172 17.2896L100.189 17.3073L100.206 17.3241L100.896 16.6ZM100.896 4.96L101.603 5.6671L101.612 5.65848L101.62 5.64965L100.896 4.96ZM112.656 4.96L111.932 5.64965L111.94 5.65848L111.949 5.6671L112.656 4.96ZM100.296 88H99.2959V89H100.296V88ZM100.296 28V27H99.2959V28H100.296ZM113.256 28H114.256V27H113.256V28ZM113.256 88V89H114.256V88H113.256ZM111.829 15.8929C110.414 17.3075 108.748 18 106.776 18V20C109.284 20 111.458 19.0925 113.243 17.3071L111.829 15.8929ZM106.776 18C104.803 18 103.087 17.3058 101.586 15.8759L100.206 17.3241C102.065 19.0942 104.269 20 106.776 20V18ZM101.62 15.9103C100.19 14.4089 99.4959 12.6932 99.4959 10.72H97.4959C97.4959 13.2268 98.4017 15.4311 100.172 17.2896L101.62 15.9103ZM99.4959 10.72C99.4959 8.74822 100.188 7.08171 101.603 5.6671L100.189 4.25289C98.4034 6.03828 97.4959 8.21177 97.4959 10.72H99.4959ZM101.62 5.64965C103.031 4.16783 104.73 3.43999 106.776 3.43999V1.43999C104.182 1.43999 101.961 2.39216 100.172 4.27034L101.62 5.64965ZM106.776 3.43999C108.822 3.43999 110.521 4.16783 111.932 5.64965L113.38 4.27034C111.591 2.39216 109.37 1.43999 106.776 1.43999V3.43999ZM111.949 5.6671C113.363 7.08171 114.056 8.74822 114.056 10.72H116.056C116.056 8.21177 115.148 6.03828 113.363 4.25289L111.949 5.6671ZM114.056 10.72C114.056 12.6774 113.334 14.3878 111.829 15.8929L113.243 17.3071C115.098 15.4522 116.056 13.2425 116.056 10.72H114.056ZM101.296 88V28H99.2959V88H101.296ZM100.296 29H113.256V27H100.296V29ZM112.256 28V88H114.256V28H112.256ZM113.256 87H100.296V89H113.256V87ZM130.704 88H129.704V89H130.704V88ZM130.704 0.399998V-0.600002H129.704V0.399998H130.704ZM143.664 0.399998H144.664V-0.600002H143.664V0.399998ZM143.664 88V89H144.664V88H143.664ZM131.704 88V0.399998H129.704V88H131.704ZM130.704 1.4H143.664V-0.600002H130.704V1.4ZM142.664 0.399998V88H144.664V0.399998H142.664ZM143.664 87H130.704V89H143.664V87ZM174.072 38.08H173.072L174.987 38.4834L174.072 38.08ZM192.552 26.92H193.552V25.92H192.552V26.92ZM192.552 40.96L192.487 41.9579L193.552 42.0266V40.96H192.552ZM179.592 44.56L180.174 45.3725L180.18 45.3684L180.186 45.3642L179.592 44.56ZM174.072 88V89H175.072V88H174.072ZM161.112 88H160.112V89H161.112V88ZM161.112 28V27H160.112V28H161.112ZM174.072 28H175.072V27H174.072V28ZM174.987 38.4834C176.555 34.9262 178.787 32.3062 181.669 30.566C184.557 28.8215 188.168 27.92 192.552 27.92V25.92C187.896 25.92 183.906 26.8784 180.635 28.854C177.356 30.8338 174.868 33.7938 173.157 37.6766L174.987 38.4834ZM191.552 26.92V40.96H193.552V26.92H191.552ZM192.616 39.9621C187.442 39.6283 182.884 40.883 178.997 43.7558L180.186 45.3642C183.659 42.797 187.741 41.6517 192.487 41.9579L192.616 39.9621ZM179.009 43.7475C174.979 46.6383 173.072 51.4037 173.072 57.76H175.072C175.072 51.7963 176.844 47.7617 180.174 45.3725L179.009 43.7475ZM173.072 57.76V88H175.072V57.76H173.072ZM174.072 87H161.112V89H174.072V87ZM162.112 88V28H160.112V88H162.112ZM161.112 29H174.072V27H161.112V29ZM173.072 28V38.08H175.072V28H173.072ZM207.595 80.44L206.892 81.1517L207.595 80.44ZM207.595 35.56L208.297 36.2717L207.595 35.56ZM252.475 35.56L251.768 36.2671L251.772 36.2717L252.475 35.56ZM252.475 80.44L251.772 79.7283L251.768 79.7329L252.475 80.44ZM243.355 71.56L244.062 72.2671L243.355 71.56ZM216.715 44.44L217.422 45.1471L216.715 44.44ZM230.035 88.56C221.493 88.56 214.267 85.6201 208.297 79.7283L206.892 81.1517C213.243 87.4199 220.977 90.56 230.035 90.56V88.56ZM208.297 79.7283C202.333 73.8416 199.355 66.6203 199.355 58H197.355C197.355 67.1397 200.536 74.8784 206.892 81.1517L208.297 79.7283ZM199.355 58C199.355 49.3797 202.333 42.1584 208.297 36.2717L206.892 34.8483C200.536 41.1216 197.355 48.8603 197.355 58H199.355ZM208.297 36.2717C214.267 30.3799 221.493 27.44 230.035 27.44V25.44C220.977 25.44 213.243 28.5801 206.892 34.8483L208.297 36.2717ZM230.035 27.44C238.659 27.44 245.882 30.3814 251.768 36.2671L253.182 34.8529C246.908 28.5786 239.17 25.44 230.035 25.44V27.44ZM251.772 36.2717C257.736 42.1584 260.715 49.3797 260.715 58H262.715C262.715 48.8603 259.533 41.1216 253.177 34.8483L251.772 36.2717ZM260.715 58C260.715 66.6203 257.736 73.8416 251.772 79.7283L253.177 81.1517C259.533 74.8784 262.715 67.1397 262.715 58H260.715ZM251.768 79.7329C245.882 85.6186 238.659 88.56 230.035 88.56V90.56C239.17 90.56 246.908 87.4214 253.182 81.1471L251.768 79.7329ZM216.008 72.2671C219.803 76.0623 224.5 77.96 230.035 77.96V75.96C225.009 75.96 220.827 74.2577 217.422 70.8529L216.008 72.2671ZM230.035 77.96C235.569 77.96 240.267 76.0623 244.062 72.2671L242.648 70.8529C239.243 74.2577 235.06 75.96 230.035 75.96V77.96ZM244.062 72.2671C247.863 68.4658 249.755 63.6851 249.755 58H247.755C247.755 63.1949 246.046 67.4542 242.648 70.8529L244.062 72.2671ZM249.755 58C249.755 52.3149 247.863 47.5342 244.062 43.7329L242.648 45.1471C246.046 48.5458 247.755 52.8051 247.755 58H249.755ZM244.062 43.7329C240.267 39.9377 235.569 38.04 230.035 38.04V40.04C235.06 40.04 239.243 41.7423 242.648 45.1471L244.062 43.7329ZM230.035 38.04C224.5 38.04 219.803 39.9377 216.008 43.7329L217.422 45.1471C220.827 41.7423 225.009 40.04 230.035 40.04V38.04ZM216.008 43.7329C212.206 47.5342 210.315 52.3149 210.315 58H212.315C212.315 52.8051 214.023 48.5458 217.422 45.1471L216.008 43.7329ZM210.315 58C210.315 63.6851 212.206 68.4658 216.008 72.2671L217.422 70.8529C214.023 67.4542 212.315 63.1949 212.315 58H210.315ZM313.93 28V27H313.222L312.987 27.6674L313.93 28ZM327.73 28L328.667 28.3487L329.169 27H327.73V28ZM304.69 89.92L303.752 89.5713L303.752 89.5721L304.69 89.92ZM275.41 112H274.41V112.944L275.352 112.998L275.41 112ZM275.41 99.88L275.468 98.8817L274.41 98.8195V99.88H275.41ZM285.25 97.24L284.638 96.4493L284.63 96.4554L284.622 96.4616L285.25 97.24ZM291.37 88.12L290.475 87.6728L290.454 87.716L290.436 87.761L291.37 88.12ZM291.97 86.92L292.864 87.3672L293.072 86.9509L292.888 86.5236L291.97 86.92ZM266.53 28V27H265.009L265.612 28.3964L266.53 28ZM280.69 28L281.615 27.6203L281.36 27H280.69V28ZM298.57 71.56L297.645 71.9397L298.641 74.3661L299.513 71.8925L298.57 71.56ZM313.93 29H327.73V27H313.93V29ZM326.792 27.6513L303.752 89.5713L305.627 90.2687L328.667 28.3487L326.792 27.6513ZM303.752 89.5721C300.916 97.2145 297.13 102.751 292.448 106.282C287.781 109.8 282.143 111.39 275.468 111.002L275.352 112.998C282.436 113.41 288.558 111.719 293.652 107.878C298.729 104.049 302.704 98.1455 305.627 90.2679L303.752 89.5721ZM276.41 112V99.88H274.41V112H276.41ZM275.351 100.878C279.607 101.129 283.154 100.215 285.877 98.0184L284.622 96.4616C282.385 98.2653 279.373 99.1114 275.468 98.8817L275.351 100.878ZM285.862 98.0307C288.535 95.9613 290.664 92.7414 292.303 88.479L290.436 87.761C288.876 91.8186 286.924 94.6787 284.638 96.4493L285.862 98.0307ZM292.264 88.5672L292.864 87.3672L291.075 86.4728L290.475 87.6728L292.264 88.5672ZM292.888 86.5236L267.448 27.6036L265.612 28.3964L291.052 87.3164L292.888 86.5236ZM266.53 29H280.69V27H266.53V29ZM279.765 28.3797L297.645 71.9397L299.495 71.1803L281.615 27.6203L279.765 28.3797ZM299.513 71.8925L314.873 28.3326L312.987 27.6674L297.627 71.2274L299.513 71.8925Z" fill="white" mask="url(#path-1-outside-1_1_9617)"/>
</svg>
