<svg width="303" height="112" viewBox="0 0 303 112" fill="none" xmlns="http://www.w3.org/2000/svg">
<path d="M76.7143 110.475C76.9554 108.479 77.1643 106.42 77.4376 104.376C78.6591 95.4123 79.8806 86.4488 81.1664 77.4853C81.3914 75.9726 81.1021 75.3772 79.4306 75.3772C67.8905 75.4254 56.3504 75.4254 44.8263 75.3772C43.3477 75.3772 42.8012 75.876 42.5923 77.3404C41.1136 87.9776 39.5385 98.5986 38.0437 109.236C37.883 110.427 37.5133 110.942 36.2436 110.925C24.5749 110.893 12.9062 110.893 1.23755 110.893C0.932168 110.893 0.610717 110.829 -0.0161133 110.748C0.401773 107.594 0.787515 104.521 1.2054 101.463C3.23054 87.0925 5.23962 72.7219 7.2969 58.3513C9.33812 44.0773 11.4276 29.8033 13.4527 15.5132C13.6134 14.3223 13.9349 13.8395 15.2207 13.8395C26.8251 13.8878 38.4295 13.8395 50.0178 13.8556C50.3875 13.8556 50.7571 13.9683 51.3679 14.0648C50.8857 17.6856 50.4357 21.1938 49.9535 24.7181C48.9731 32.0079 47.9926 39.2978 46.9801 46.5877C46.7872 47.9395 47.1408 48.4705 48.5713 48.4705C60.2399 48.4384 71.9086 48.4384 83.5773 48.4705C85.056 48.4705 85.4096 47.7625 85.5864 46.4751C86.9686 36.2885 88.4312 26.102 89.8456 15.9155C90.0063 14.7246 90.1992 13.92 91.7904 13.9361C108.859 14.0005 125.945 13.9683 143.014 13.9683C143.399 13.9683 143.769 14.0005 144.187 14.2419C141.39 14.9982 138.578 15.6741 135.813 16.5109C128.452 18.7317 121.573 21.9341 115.658 26.9388C109.101 32.4907 105.002 39.4588 103.507 47.9717C103.186 49.8062 103.764 50.2246 105.5 50.2085C114.951 50.1442 124.402 50.112 133.852 50.2085C135.942 50.2246 136.906 49.6131 137.613 47.5855C140.281 39.7806 147.948 34.9207 155.631 35.8219C158.459 36.1598 160.372 37.6242 161.369 40.1668C162.429 42.8704 162.51 45.7187 160.356 47.859C156.772 51.4316 153.155 55.0846 149.105 58.0617C132.358 70.3402 115.449 82.4096 98.5409 94.495C96.8854 95.6859 95.905 96.925 95.696 99.0331C95.3746 102.461 94.7638 105.872 94.1691 109.268C94.0727 109.831 93.3494 110.732 92.9155 110.732C87.7722 110.829 82.6129 110.781 77.4697 110.748C77.2929 110.748 77.1161 110.62 76.6982 110.459L76.7143 110.475Z" fill="white"/>
<path d="M239.288 -2.08057e-05C240.992 5.79327 241.346 11.6992 240.381 17.6856C239.015 26.2307 235.27 33.8907 231.477 41.5508C228.166 48.2613 224.679 54.9236 221.946 61.8595C217.639 72.7541 223.119 86.2396 233.535 91.0673C245.975 96.8445 262.819 91.8075 266.692 74.2346C268.669 65.2389 267.046 56.4846 264.474 47.859C261.276 37.061 256.309 27.0353 250.829 17.2511C250.202 16.1407 249.623 14.9982 248.755 13.4211C252.452 13.6464 255.666 13.759 258.881 14.0648C266.339 14.7568 273.555 16.4465 280.225 19.9225C290.93 25.4905 297.793 34.3252 301.007 45.8313C304.302 57.6432 303.482 69.3425 298.548 80.575C293.132 92.8857 283.295 100.481 271.064 105.197C260.215 109.381 248.916 111.456 237.263 111.569C225.9 111.682 214.778 110.298 204.041 106.484C201.036 105.422 198.159 104.006 195.298 102.606C194.816 102.38 194.382 101.399 194.446 100.803C194.912 96.3295 195.41 91.8719 196.085 87.4304C196.359 85.6763 195.764 85.0004 194.141 84.9039C192.517 84.8073 190.878 84.582 189.271 84.6303C178.406 84.9682 167.524 85.3545 156.659 85.7246C156.161 85.7407 155.663 85.7246 154.634 85.7246C155.518 85.0809 156 84.7108 156.499 84.3728C165.435 78.2899 174.58 72.4805 183.211 65.9952C187.519 62.7606 191.264 58.5605 194.542 54.2477C200.136 46.9095 200.811 38.7185 196.825 30.3182C196.166 28.9182 196.359 28.2423 197.612 27.325C207.754 19.9225 219.069 15.6901 231.525 14.4349C233.438 14.2418 235.045 13.4372 235.736 11.6992C236.829 8.9474 237.649 6.08293 238.453 3.23457C238.742 2.20465 238.662 1.07818 238.742 -0.0161133C238.919 -0.0161133 239.096 -0.0161133 239.272 -0.0161133L239.288 -2.08057e-05Z" fill="white"/>
<path d="M242.471 88.8627C251.214 85.1936 258.913 80.3658 262.401 70.6299C263.622 79.3681 253.786 88.6213 242.471 88.8627Z" fill="white"/>
</svg>
