<svg id="Layer_1" data-name="Layer 1" xmlns="http://www.w3.org/2000/svg" viewBox="0 0 916.62 299.39"><defs><style>.cls-1{fill:#231f20;stroke:#231f20;stroke-miterlimit:10;}</style></defs><title>saphytelogo</title><polyline class="cls-1" points="257.43 206.56 44.73 107.86 0.5 128.17 0.5 140.45 200.84 232.56 166.67 248.25 0.5 171.48 0.5 221.26 166.67 298.84 334.35 221.25 334.35 171.28 334.35 171.23 334.35 159 134.15 66.79 168.18 51.15 334.35 127.92 334.35 78.14 168.18 0.55 0.5 78.14 0.5 128.17 77.3 92.89 289.88 191.66"/><polygon class="cls-1" points="44.73 107.86 0.5 128.17 0.5 140.45 46.92 161.69 100.53 133.58 44.73 107.86"/><polyline class="cls-1" points="77.3 92.89 133.81 119.15 189.46 92.25 133.96 66.63"/><polygon class="cls-1" points="289.88 191.61 334.35 172.01 334.35 159 289.06 138.2 235.41 166.35 289.88 191.61"/><polyline class="cls-1" points="257.43 206.56 200.34 180.2 145.53 207.16 200.84 232.56"/><path class="cls-1" d="M428.9,245.54V224.15h16.21v2.34H431.54V233h12.67v2.31H431.54v7.92h14v2.34Z" transform="translate(-45.24 -21.24)"/><path class="cls-1" d="M452.57,245.54V224.15h2.65l10.13,13.32,1.35,1.77a14.19,14.19,0,0,1,1.09,1.6l.37.65V224.15h2.64v21.39h-2.64l-9.83-12.93-1.5-2q-.8-1.05-1.2-1.67l-.4-.62v17.2Z" transform="translate(-45.24 -21.24)"/><path class="cls-1" d="M479.1,245.54V224.15h8.12a10.93,10.93,0,0,1,8.1,3.1,10.88,10.88,0,0,1,0,15.18,10.92,10.92,0,0,1-8.1,3.1Zm2.64-2.34h5.31a8.43,8.43,0,0,0,6.21-2.36,8.74,8.74,0,0,0,0-12,8.43,8.43,0,0,0-6.21-2.36h-5.31Z" transform="translate(-45.24 -21.24)"/><path class="cls-1" d="M505.74,245.54V224.15h2.64v19h13.5v2.34Z" transform="translate(-45.24 -21.24)"/><path class="cls-1" d="M528.88,245.54V224.15h16.21v2.34H531.52V233h12.67v2.31H531.52v7.92h14v2.34Z" transform="translate(-45.24 -21.24)"/><path class="cls-1" d="M551.55,242.6l1.19-2a9.54,9.54,0,0,0,7.13,2.87,7.65,7.65,0,0,0,3.91-1,3.16,3.16,0,0,0,1.73-2.88,2.5,2.5,0,0,0-.33-1.27,3.44,3.44,0,0,0-.76-.94,5,5,0,0,0-1.24-.71,11.24,11.24,0,0,0-1.42-.51l-1.6-.44-2.27-.63a17.8,17.8,0,0,1-2-.73,6.48,6.48,0,0,1-1.83-1.07,5.14,5.14,0,0,1-1.12-1.52,4.62,4.62,0,0,1-.48-2.13,4.93,4.93,0,0,1,2.23-4.24,8.86,8.86,0,0,1,5.23-1.57,11.76,11.76,0,0,1,7.26,2.41l-1.22,2a9.68,9.68,0,0,0-6-2,6.35,6.35,0,0,0-3.19.85,2.72,2.72,0,0,0-1.5,2.5,2.25,2.25,0,0,0,.32,1.18,3.35,3.35,0,0,0,.73.87,4.41,4.41,0,0,0,1.21.66,13.32,13.32,0,0,0,1.42.48l1.71.46,2.28.61a12,12,0,0,1,2.08.79,6.82,6.82,0,0,1,1.76,1.17,5.44,5.44,0,0,1,1.12,1.6,5,5,0,0,1,.46,2.16,5.25,5.25,0,0,1-2.51,4.67,10.59,10.59,0,0,1-5.91,1.63A11.13,11.13,0,0,1,551.55,242.6Z" transform="translate(-45.24 -21.24)"/><path class="cls-1" d="M574.63,242.6l1.19-2a9.54,9.54,0,0,0,7.13,2.87,7.65,7.65,0,0,0,3.91-1,3.16,3.16,0,0,0,1.73-2.88,2.5,2.5,0,0,0-.33-1.27,3.44,3.44,0,0,0-.76-.94,5,5,0,0,0-1.24-.71,11.24,11.24,0,0,0-1.42-.51l-1.6-.44-2.27-.63a17.8,17.8,0,0,1-2-.73,6.48,6.48,0,0,1-1.83-1.07,5.14,5.14,0,0,1-1.12-1.52,4.62,4.62,0,0,1-.48-2.13,4.93,4.93,0,0,1,2.23-4.24,8.86,8.86,0,0,1,5.23-1.57,11.76,11.76,0,0,1,7.26,2.41l-1.22,2a9.68,9.68,0,0,0-6-2,6.35,6.35,0,0,0-3.19.85,2.72,2.72,0,0,0-1.5,2.5,2.25,2.25,0,0,0,.32,1.18,3.35,3.35,0,0,0,.73.87,4.41,4.41,0,0,0,1.21.66,13.32,13.32,0,0,0,1.42.48l1.71.46,2.28.61a12,12,0,0,1,2.08.79,6.82,6.82,0,0,1,1.76,1.17,5.44,5.44,0,0,1,1.12,1.6,5,5,0,0,1,.46,2.16,5.25,5.25,0,0,1-2.51,4.67,10.59,10.59,0,0,1-5.91,1.63A11.13,11.13,0,0,1,574.63,242.6Z" transform="translate(-45.24 -21.24)"/><path class="cls-1" d="M610,245.54V224.15h8.78a9.44,9.44,0,0,1,6.7,2.28,8,8,0,0,1,0,11.49,9.49,9.49,0,0,1-6.73,2.28h-6.11v5.35Zm2.64-7.69h6.37a6.14,6.14,0,0,0,4.44-1.63,5.66,5.66,0,0,0,0-8.09,6.1,6.1,0,0,0-4.41-1.63h-6.4Z" transform="translate(-45.24 -21.24)"/><path class="cls-1" d="M637.53,227a11.36,11.36,0,0,1,15.84,0,11.05,11.05,0,0,1,0,15.61,11.4,11.4,0,0,1-15.88,0,11.06,11.06,0,0,1,0-15.61Zm2,13.9a8.29,8.29,0,0,0,11.92,0,8.88,8.88,0,0,0,0-12.2,8.33,8.33,0,0,0-11.92,0,8.88,8.88,0,0,0,0,12.2Z" transform="translate(-45.24 -21.24)"/><path class="cls-1" d="M662.22,242.6l1.19-2a9.54,9.54,0,0,0,7.13,2.87,7.65,7.65,0,0,0,3.91-1,3.16,3.16,0,0,0,1.73-2.88,2.5,2.5,0,0,0-.33-1.27,3.44,3.44,0,0,0-.76-.94,5,5,0,0,0-1.24-.71,11.24,11.24,0,0,0-1.42-.51l-1.6-.44-2.27-.63a17.8,17.8,0,0,1-2-.73,6.48,6.48,0,0,1-1.83-1.07,5.14,5.14,0,0,1-1.12-1.52,4.62,4.62,0,0,1-.48-2.13,4.93,4.93,0,0,1,2.23-4.24,8.86,8.86,0,0,1,5.23-1.57,11.76,11.76,0,0,1,7.26,2.41l-1.22,2a9.68,9.68,0,0,0-6-2,6.35,6.35,0,0,0-3.19.85,2.72,2.72,0,0,0-1.5,2.5,2.25,2.25,0,0,0,.32,1.18,3.35,3.35,0,0,0,.73.87,4.41,4.41,0,0,0,1.21.66,13.32,13.32,0,0,0,1.42.48l1.71.46,2.28.61a12,12,0,0,1,2.08.79,6.82,6.82,0,0,1,1.76,1.17,5.44,5.44,0,0,1,1.12,1.6,5,5,0,0,1,.46,2.16,5.25,5.25,0,0,1-2.51,4.67,10.59,10.59,0,0,1-5.91,1.63A11.13,11.13,0,0,1,662.22,242.6Z" transform="translate(-45.24 -21.24)"/><path class="cls-1" d="M685.29,242.6l1.19-2a9.54,9.54,0,0,0,7.13,2.87,7.65,7.65,0,0,0,3.91-1,3.16,3.16,0,0,0,1.73-2.88,2.5,2.5,0,0,0-.33-1.27,3.44,3.44,0,0,0-.76-.94,5,5,0,0,0-1.24-.71,11.24,11.24,0,0,0-1.42-.51l-1.6-.44-2.27-.63a17.8,17.8,0,0,1-2-.73,6.48,6.48,0,0,1-1.83-1.07,5.14,5.14,0,0,1-1.12-1.52,4.62,4.62,0,0,1-.48-2.13,4.93,4.93,0,0,1,2.23-4.24,8.86,8.86,0,0,1,5.23-1.57,11.76,11.76,0,0,1,7.26,2.41l-1.22,2a9.68,9.68,0,0,0-6-2,6.35,6.35,0,0,0-3.19.85,2.72,2.72,0,0,0-1.5,2.5,2.25,2.25,0,0,0,.32,1.18,3.35,3.35,0,0,0,.73.87,4.41,4.41,0,0,0,1.21.66,13.32,13.32,0,0,0,1.42.48l1.71.46,2.28.61a12,12,0,0,1,2.08.79,6.82,6.82,0,0,1,1.76,1.17,5.44,5.44,0,0,1,1.12,1.6,5,5,0,0,1,.46,2.16,5.25,5.25,0,0,1-2.51,4.67,10.59,10.59,0,0,1-5.91,1.63A11.13,11.13,0,0,1,685.29,242.6Z" transform="translate(-45.24 -21.24)"/><path class="cls-1" d="M709.36,245.54V224.15H712v21.39Z" transform="translate(-45.24 -21.24)"/><path class="cls-1" d="M720.31,245.54V224.15h9.93a6.52,6.52,0,0,1,4.31,1.39,4.68,4.68,0,0,1,1.67,3.8,4.36,4.36,0,0,1-.73,2.41,3.56,3.56,0,0,1-1.68,1.49,5.17,5.17,0,0,1,3.22,1.95,5.92,5.92,0,0,1,1.3,3.83,5.79,5.79,0,0,1-2.21,4.75,9.08,9.08,0,0,1-5.87,1.78ZM723,232.4h7.43a3.07,3.07,0,0,0,2.25-.81,2.81,2.81,0,0,0,.83-2.1,2.84,2.84,0,0,0-.89-2.16,3.51,3.51,0,0,0-2.51-.84H723Zm0,10.79h7.13a6.4,6.4,0,0,0,4-1.14,3.62,3.62,0,0,0,1.49-3,4,4,0,0,0-1.27-3.12,5.14,5.14,0,0,0-3.61-1.17H723Z" transform="translate(-45.24 -21.24)"/><path class="cls-1" d="M745.63,245.54V224.15h2.64v21.39Z" transform="translate(-45.24 -21.24)"/><path class="cls-1" d="M756.59,245.54V224.15h2.64v19h13.5v2.34Z" transform="translate(-45.24 -21.24)"/><path class="cls-1" d="M779.72,245.54V224.15h2.64v21.39Z" transform="translate(-45.24 -21.24)"/><path class="cls-1" d="M796.76,245.54v-19h-7.92v-2.34h18.48v2.34H799.4v19Z" transform="translate(-45.24 -21.24)"/><path class="cls-1" d="M813.79,245.54V224.15h2.64v21.39Z" transform="translate(-45.24 -21.24)"/><path class="cls-1" d="M824.74,245.54V224.15H841v2.34H827.38V233h12.67v2.31H827.38v7.92h14v2.34Z" transform="translate(-45.24 -21.24)"/><path class="cls-1" d="M847.42,242.6l1.19-2a9.54,9.54,0,0,0,7.13,2.87,7.65,7.65,0,0,0,3.91-1,3.16,3.16,0,0,0,1.73-2.88,2.5,2.5,0,0,0-.33-1.27,3.44,3.44,0,0,0-.76-.94,5,5,0,0,0-1.24-.71,11.24,11.24,0,0,0-1.42-.51l-1.6-.44-2.27-.63a17.8,17.8,0,0,1-2-.73,6.48,6.48,0,0,1-1.83-1.07,5.14,5.14,0,0,1-1.12-1.52,4.62,4.62,0,0,1-.48-2.13,4.93,4.93,0,0,1,2.23-4.24,8.86,8.86,0,0,1,5.23-1.57,11.76,11.76,0,0,1,7.26,2.41l-1.22,2a9.68,9.68,0,0,0-6-2,6.35,6.35,0,0,0-3.19.85,2.72,2.72,0,0,0-1.5,2.5,2.25,2.25,0,0,0,.32,1.18,3.35,3.35,0,0,0,.73.87,4.41,4.41,0,0,0,1.21.66,13.32,13.32,0,0,0,1.42.48l1.71.46,2.28.61a12,12,0,0,1,2.08.79,6.82,6.82,0,0,1,1.76,1.17,5.44,5.44,0,0,1,1.12,1.6,5,5,0,0,1,.46,2.16,5.25,5.25,0,0,1-2.51,4.67,10.59,10.59,0,0,1-5.91,1.63A11.13,11.13,0,0,1,847.42,242.6Z" transform="translate(-45.24 -21.24)"/><path class="cls-1" d="M431.24,159.15l3.84-4.28q12.55,14.48,32.2,14.48A50.07,50.07,0,0,0,481,167.5a26.45,26.45,0,0,0,11.59-6.94,17.13,17.13,0,0,0,5.1-12.62,15,15,0,0,0-1.7-7.16,17.4,17.4,0,0,0-4.06-5.17,26.91,26.91,0,0,0-6.65-3.84,59.25,59.25,0,0,0-7.42-2.71l-8.68-2.4q-17-4.43-22.89-7.83-10.49-6.05-10.49-17.58,0-11.08,9.6-18a36.83,36.83,0,0,1,22.16-6.94A47.72,47.72,0,0,1,498.3,87.36l-3.69,4.43a40.92,40.92,0,0,0-27-9.9,32.51,32.51,0,0,0-17.43,5Q442,92,442,101.15a15.7,15.7,0,0,0,1,5.63,10.68,10.68,0,0,0,3.47,4.52q2.51,2,4.28,3.19a28.37,28.37,0,0,0,6.19,2.67q4.42,1.48,6.28,2l7.29,2,10,2.77a67.68,67.68,0,0,1,8.76,3.26A28.09,28.09,0,0,1,497.1,132a23.33,23.33,0,0,1,4.74,6.59,20.49,20.49,0,0,1,2.08,9.38q0,12.85-10.86,19.94T467.43,175Q445.72,175,431.24,159.15Z" transform="translate(-45.24 -21.24)"/><path class="cls-1" d="M528.21,164.17a38.05,38.05,0,0,1,0-52A32.94,32.94,0,0,1,553,101.4a31.58,31.58,0,0,1,17.21,4.8A33,33,0,0,1,582,119.42V102.87h5.61v70.6H582V156.93a32.93,32.93,0,0,1-11.89,13.22A31.56,31.56,0,0,1,553,175,32.93,32.93,0,0,1,528.21,164.17Zm4.06-48.23a33.56,33.56,0,0,0,0,44.46A26.9,26.9,0,0,0,553,169.64a27.27,27.27,0,0,0,20.61-9q8.49-9,8.49-22.45a31.84,31.84,0,0,0-8.42-22.23,27.78,27.78,0,0,0-41.36,0Z" transform="translate(-45.24 -21.24)"/><path class="cls-1" d="M608.34,193.71V102.87H614v16.54a31.69,31.69,0,0,1,29.1-18,32.94,32.94,0,0,1,24.74,10.78,38,38,0,0,1,0,52A32.93,32.93,0,0,1,643.05,175a31.49,31.49,0,0,1-29.1-18v36.78Zm14-77.77a33.56,33.56,0,0,0,0,44.46,27.78,27.78,0,0,0,41.36,0,33.56,33.56,0,0,0,0-44.46,27.78,27.78,0,0,0-41.36,0Z" transform="translate(-45.24 -21.24)"/><path class="cls-1" d="M695,173.48V76.29h5.61v39.44q7.83-14.32,25.41-14.33,12.11,0,19.35,6.87t7.24,19.13v46.08H747V129q0-22.3-21.71-22.3-10.93,0-17.8,7.24a23.37,23.37,0,0,0-6.87,16.54v43Z" transform="translate(-45.24 -21.24)"/><path class="cls-1" d="M775.54,195.19v-5.32q6.35,0,10.33-2.73t8.27-12l1.62-3.57-34.25-68.65h6.35l25.32,51.84,5.29,10.84,5-11,23.45-51.65h6.2l-34,74.45a51.55,51.55,0,0,1-5.69,10,18.17,18.17,0,0,1-6.13,5.39,21.91,21.91,0,0,1-5.69,2.07A35.15,35.15,0,0,1,775.54,195.19Z" transform="translate(-45.24 -21.24)"/><path class="cls-1" d="M850.58,151.47V108.19H839.8v-5.32h10.78V85.29h5.61v17.58h27.33v5.32H856.19v43.28q0,18.17,12.7,18.17a19.91,19.91,0,0,0,6.72-1.18,17.2,17.2,0,0,0,4.8-2.36l1.63-1,2.51,4.58A24.31,24.31,0,0,1,868.89,175a17.55,17.55,0,0,1-13.15-5.32Q850.58,164.32,850.58,151.47Z" transform="translate(-45.24 -21.24)"/><path class="cls-1" d="M903.75,164.17a35.67,35.67,0,0,1-10.64-26,36.63,36.63,0,0,1,10.12-26q10.12-10.78,24.3-10.78,13.88,0,23.86,10.71a36.12,36.12,0,0,1,10,25.48l-.15,3.1H899a31.36,31.36,0,0,0,9.68,20.6,28.63,28.63,0,0,0,20.6,8.35,29.89,29.89,0,0,0,23.34-10.49l3.84,3.69Q945.11,175,929.3,175A34.6,34.6,0,0,1,903.75,164.17ZM899,135.37H955.3a31.89,31.89,0,0,0-8.86-20.31,25.3,25.3,0,0,0-18.91-8.35,26.16,26.16,0,0,0-19.28,8.35A32,32,0,0,0,899,135.37Z" transform="translate(-45.24 -21.24)"/></svg>