<?xml version="1.0" encoding="utf-8"?>
<!-- Generator: Adobe Illustrator 19.0.0, SVG Export Plug-In . SVG Version: 6.00 Build 0)  -->
<svg version="1.1" id="Layer_1" xmlns="http://www.w3.org/2000/svg" xmlns:xlink="http://www.w3.org/1999/xlink" x="0px" y="0px"
	 viewBox="0 0 757.1 234.2" style="enable-background:new 0 0 757.1 234.2;" xml:space="preserve">
<style type="text/css">
	.st0{fill:#AE3131;}
	.st1{fill:url(#SVGID_1_);}
	.st2{fill:url(#SVGID_2_);}
	.st3{fill:url(#SVGID_3_);}
	.st4{fill:#151515;}
</style>
<g>
	<g>
		<path class="st0" d="M228.6,135.6c-0.4-1-1.1-1.9-2.2-2.4c-1.1-0.6-2.5-0.8-4.1-0.8c-1.6,0.1-3.1,0.6-4.5,1.7
			c-9.4,10.8-18.6,21.1-27.7,33.6c-9.1,12.5-17.5,26.3-25.2,38.7c0.1-9.1,1.3-18.3,3.3-27.4c2.1-9.1,4.9-18.1,8.4-27
			c3.5-8.9,7.5-17.5,12.1-26c4.5-8.5,9.3-16.6,14.2-24.2c0.3-0.9,0.3-1.7-0.9-2.9l0,0c0,0,0,0,0,0c-0.2-0.2-0.4-0.4-0.7-0.7
			c0,0,0,0,0,0c-2.1-1.8-8.1-6.4-18.9-9.8c-0.2-0.1-0.3-0.1-0.5-0.1c-0.1,0-0.2,0-0.2-0.1l0,0c-1.9-0.5-3.6-0.4-5.3,0.2
			c-19.3,15.4-36.1,32.3-50.3,50.6c-14.2,18.4-25.3,37.9-33.1,58.7c1.9-9.6,5.8-19.2,9.5-28.9c21.1-56.1,60.8-123.1,64.7-132.1
			c0.6-2,1-2.2,1.1-6.2c0-2.2-0.4-4.3-1.4-6.6c-0.9-2.2-2.3-4.7-4.5-7.1c-2.2-2.5-5.2-5.1-9.3-8c-5.7-3.8-11.9-6.3-18.6-7.4
			c-4.5-0.8-9.2-1.2-13.9-1.2c-2.4,0-4.8,0.1-7.3,0.3c-7.4,0.6-14.8,1.8-22.3,3.6C83.2,5.7,76,7.7,69.1,9.8
			c-6.9,2.1-13.4,4.1-19.4,6.1c-6,2-11.2,3.3-15.5,4.1c-6,1-11.6,1.5-17.1,1.4C11.6,21.2,6,19.8,0,17c0.4,0.3,1.2,1.1,2.3,2.6
			c1.1,1.5,2.6,3.2,4.6,5.2c1.9,2,4.3,3.9,7.1,6c2.8,2,6.2,3.6,10.2,4.8c3.9,1.2,8.6,1.7,13.8,1.7c5.3-0.1,11.3-1.1,18-3.2
			c2.2-0.7,5.4-1.8,9.6-3.3c4.2-1.6,8.9-3.3,14.1-5.2c5.2-1.9,10.7-3.8,16.5-5.8c5.8-2,11.4-3.6,16.7-5.1c5.4-1.4,10.3-2.5,14.8-3.1
			c4.5-0.7,8.2-0.6,10.9,0.1c2.8,0.7,4.3,2.2,4.7,4.6c0.4,2.3-0.9,5.7-3.7,10.2c-12.5,20.2-37.7,65.1-54.9,110.3
			c-8.1,21.3-14.5,43.2-20,65.2c-0.6,2-0.1,4.3,1.5,7.1c1.6,2.8,3.7,5.4,6.5,7.9c2.8,2.5,5.8,4.5,9.3,6.1c2.7,1.2,5.3,1.8,7.7,1.7
			l0,0c2.7,0.5,5.2-1.7,7.3-4.5c1-1.3,1.9-2.7,2.7-4.3c0.7-1.4,1.3-2.9,1.9-4.4c0-0.1,0-0.1,0-0.1c5.6-13,11.1-24.5,16.5-34.7
			c3.9-6.2,7.6-12.3,11.1-18.4c3.8-6.5,7.7-12.8,11.9-18.9c9-12.4,16.8-20.7,22.4-25.9c2.9-2.6,6-5.1,9.3-7.5
			c-5.1,9.1-9.9,18-14.4,26.5c-4.5,8.5-8.4,17.2-11.5,26c-3.1,8.8-5.3,18-6.6,27.5c-1.3,9.5-1.2,19.9,0.3,31.1
			c0.1,1.6,1.3,3.5,3.3,5.8c2.1,2.3,4.4,4.4,7,6.3c2.6,1.9,5.1,3.3,7.5,4.3c2.4,1,3.9,0.9,4.5-0.1c3.9-7.8,8.1-16,12.6-24.4
			c4.5-8.5,9.4-16.8,14.7-25c5.3-8.2,11-16.2,17.2-23.9c6.2-7.7,12.9-14.7,20.2-21.1C228.7,137.8,229,136.7,228.6,135.6z"/>
		<linearGradient id="SVGID_1_" gradientUnits="userSpaceOnUse" x1="2.575979e-005" y1="18.8255" x2="143.4174" y2="18.8255">
			<stop  offset="0" style="stop-color:#AE3131"/>
			<stop  offset="1" style="stop-color:#E0773B"/>
		</linearGradient>
		<path class="st1" d="M120.3,0c0,0,23.2,5.8,23.1,16.2c0,0,0-8.4-21.5-3.7c0,0-24.9,5.9-51.9,17.2c0,0-56.4,24.5-70.1-12.7
			c0,0,21.8,7.6,53.9-2.5C53.9,14.5,96.4-0.5,120.3,0z"/>
		<linearGradient id="SVGID_2_" gradientUnits="userSpaceOnUse" x1="91.6685" y1="176.7078" x2="141.1904" y2="176.7078">
			<stop  offset="0" style="stop-color:#E0773B"/>
			<stop  offset="8.844864e-002" style="stop-color:#D56A39"/>
			<stop  offset="0.3084" style="stop-color:#C35236"/>
			<stop  offset="0.5323" style="stop-color:#B74033"/>
			<stop  offset="0.7607" style="stop-color:#B03531"/>
			<stop  offset="1" style="stop-color:#AE3131"/>
		</linearGradient>
		<path class="st2" d="M92.8,197.6c0,0-2.5,10.8,0,26.7c0,0,4.6,0,12.5-19.9c0,0,9.1-22.6,36-64.8l-7.3-10.4
			C133.9,129.1,105.3,160.9,92.8,197.6z"/>
		<linearGradient id="SVGID_3_" gradientUnits="userSpaceOnUse" x1="164.8054" y1="184.1483" x2="219.4014" y2="184.1483">
			<stop  offset="0" style="stop-color:#E0773B"/>
			<stop  offset="8.844864e-002" style="stop-color:#D56A39"/>
			<stop  offset="0.3084" style="stop-color:#C35236"/>
			<stop  offset="0.5323" style="stop-color:#B74033"/>
			<stop  offset="0.7607" style="stop-color:#B03531"/>
			<stop  offset="1" style="stop-color:#AE3131"/>
		</linearGradient>
		<path class="st3" d="M164.9,206.4c0,0-0.6,7.7,2,19.4c0,0,25-51.9,52.5-78.9l-8.9-4.4C210.5,142.5,187.1,167.8,164.9,206.4z"/>
	</g>
	<g>
		<g>
			<path class="st4" d="M301.3,121.8h45.5V132h-56.8V36.1h11.3V121.8z"/>
			<path class="st4" d="M422.1,100h-55.8c0.7,7,3.4,12.6,8.2,16.9c4.8,4.3,10.7,6.4,17.6,6.4c8,0,15.3-3.2,21.6-9.6l6.5,7.6
				c-7.7,8.2-17.2,12.3-28.3,12.3c-10.7,0-19.6-3.5-26.7-10.6c-7.2-7.1-10.7-15.8-10.7-26.3c0-10.4,3.5-19.1,10.5-26.3
				c7-7.2,15.5-10.7,25.7-10.7c9.2,0,16.9,3,23,9s9.2,13.7,9.2,23C423,94.6,422.7,97.4,422.1,100z M375.1,75.4
				c-4.4,3.7-7.1,8.6-8.3,14.7h44.7c-0.1-6.3-2.2-11.3-6.2-14.9c-4-3.6-9-5.4-14.9-5.4S379.4,71.7,375.1,75.4z"/>
			<path class="st4" d="M499,61.3l-33.3,72.3h-4.1l-33.4-72.3h11.9l23.5,53.3L487,61.3H499z"/>
			<path class="st4" d="M571.7,100H516c0.7,7,3.4,12.6,8.2,16.9c4.8,4.3,10.7,6.4,17.6,6.4c8,0,15.3-3.2,21.6-9.6l6.5,7.6
				c-7.7,8.2-17.2,12.3-28.3,12.3c-10.7,0-19.6-3.5-26.7-10.6c-7.2-7.1-10.8-15.8-10.8-26.3c0-10.4,3.5-19.1,10.5-26.3
				c7-7.2,15.5-10.7,25.7-10.7c9.2,0,16.9,3,23,9s9.2,13.7,9.2,23C572.6,94.6,572.3,97.4,571.7,100z M524.7,75.4
				c-4.4,3.7-7.1,8.6-8.3,14.7h44.7c-0.1-6.3-2.2-11.3-6.2-14.9c-4-3.6-9-5.4-14.9-5.4C534.2,69.8,529,71.7,524.7,75.4z"/>
			<path class="st4" d="M626.9,61.3v9.9h-4.2c-6.1,0-11.3,1.8-15.7,5.5c-4.4,3.7-6.5,8.8-6.5,15.3V132h-11.2V61.3h10.5v10.2
				c5.3-7.2,12.6-10.7,21.9-10.7C623.3,60.7,625,60.9,626.9,61.3z"/>
			<path class="st4" d="M683,67.1c5,4.9,7.6,12.1,7.6,21.4V132h-10.5v-9.2c-5.3,7.2-13.3,10.7-23.8,10.7c-7.3,0-13.2-1.8-17.8-5.4
				c-4.6-3.6-6.9-8.4-6.9-14.5c0-6,2.3-10.8,7-14.4c4.6-3.6,10.8-5.4,18.4-5.4h22.4v-6.1c0-5.8-1.5-10.2-4.6-13.3
				c-3.1-3-7.2-4.6-12.6-4.6c-7.9,0-14.8,3.8-20.6,11.3l-7.4-6.1c6.5-10.4,16.1-15.5,28.8-15.5C671.3,59.7,678,62.1,683,67.1z
				 M673,118.6c4.3-3.8,6.4-8.4,6.4-13.8v-1.7h-21.1c-10.2,0-15.3,3.3-15.3,10c0,3.6,1.4,6.3,4.2,8.3c2.8,1.9,6.3,2.9,10.5,2.9
				C663.6,124.3,668.7,122.4,673,118.6z"/>
			<path class="st4" d="M756.4,70.8l-6.8,7c-5-5.2-10.8-7.8-17.4-7.8c-3.5,0-6.3,0.8-8.5,2.3c-2.2,1.5-3.3,3.7-3.3,6.5
				c0,2.3,0.9,4.2,2.6,5.6c1.7,1.4,4.7,3,8.9,4.7l6.5,2.8c6.6,2.8,11.4,5.8,14.3,8.9c3,3.1,4.4,7.1,4.4,12c0,6.6-2.4,11.7-7.2,15.3
				c-4.8,3.6-10.7,5.4-17.6,5.4c-11.5,0-20.7-4.6-27.6-13.8l7.1-7.4c6.9,7.3,13.7,10.9,20.3,10.9c3.9,0,7.1-0.9,9.7-2.7
				c2.6-1.8,3.8-4.2,3.8-7.3c0-2.8-1-5-2.9-6.5c-1.9-1.5-5.1-3.1-9.4-4.9l-6.8-2.9c-5.9-2.5-10.3-5.2-13.2-8.1
				c-2.9-2.9-4.4-6.7-4.4-11.5c0-6.2,2.3-11,6.8-14.5c4.6-3.5,10.2-5.2,17-5.2C742.5,59.7,750.4,63.4,756.4,70.8z"/>
		</g>
	</g>
	<g>
		<g>
			<path class="st4" d="M303.6,187.1c0.8,1.1,1.2,2.4,1.2,3.9c0,2-0.7,3.7-2,4.9c-1.4,1.3-3.2,1.9-5.5,1.9h-9.8v-23.8h8.2
				c2.1,0,3.7,0.6,4.9,1.7s1.8,2.6,1.8,4.3c0,2-0.8,3.6-2.3,4.7C301.6,185.2,302.8,186,303.6,187.1z M290.3,176.6v7.4h5.1
				c1.3,0,2.4-0.3,3.1-1c0.7-0.7,1.1-1.6,1.1-2.7s-0.4-2-1.1-2.7c-0.7-0.7-1.8-1-3.1-1H290.3z M300.6,194.1c0.9-0.8,1.3-1.9,1.3-3.2
				c0-1.3-0.4-2.4-1.3-3.2c-0.9-0.8-2.1-1.2-3.6-1.2h-6.7v8.8h6.7C298.6,195.3,299.8,194.9,300.6,194.1z"/>
			<path class="st4" d="M320.5,188v9.9h-2.8V188l-8.2-13.9h3.2l6.5,11.2l6.5-11.2h3.1L320.5,188z"/>
			<path class="st4" d="M352.1,195.3h11.3v2.5h-14.1v-23.8h2.8V195.3z"/>
			<path class="st4" d="M390.1,177.2c2.4,2.4,3.6,5.3,3.6,8.7c0,3.5-1.2,6.4-3.6,8.7c-2.4,2.4-5.3,3.5-8.7,3.5
				c-3.5,0-6.4-1.2-8.7-3.5c-2.4-2.4-3.6-5.3-3.6-8.7c0-3.5,1.2-6.4,3.6-8.7c2.4-2.4,5.3-3.5,8.7-3.5
				C384.8,173.7,387.7,174.9,390.1,177.2z M374.7,179c-1.8,1.8-2.7,4.1-2.7,6.9c0,2.8,0.9,5.1,2.7,6.9c1.8,1.8,4,2.8,6.7,2.8
				c2.7,0,4.9-0.9,6.7-2.8c1.8-1.8,2.7-4.2,2.7-6.9c0-2.7-0.9-5-2.7-6.9c-1.8-1.8-4-2.8-6.7-2.8C378.7,176.3,376.5,177.2,374.7,179z
				"/>
			<path class="st4" d="M410.5,188v9.9h-2.8V188l-8.2-13.9h3.2l6.5,11.2l6.5-11.2h3.1L410.5,188z"/>
			<path class="st4" d="M429.8,197.8H427v-23.8h2.8V197.8z"/>
			<path class="st4" d="M456.5,175.1c1.7,0.9,3.1,2.2,4.1,3.7l-2.1,1.7c-1.9-2.8-4.5-4.2-7.7-4.2c-2.7,0-4.9,0.9-6.7,2.8
				c-1.8,1.8-2.7,4.2-2.7,6.9c0,2.8,0.9,5.1,2.7,6.9c1.8,1.8,4.1,2.8,6.7,2.8c3.3,0,5.8-1.4,7.7-4.2l2.1,1.7c-1,1.6-2.3,2.8-4.1,3.7
				c-1.7,0.9-3.7,1.4-5.8,1.4c-3.5,0-6.4-1.2-8.8-3.5c-2.4-2.4-3.6-5.3-3.6-8.7c0-3.5,1.2-6.4,3.6-8.7s5.3-3.5,8.8-3.5
				C452.9,173.7,454.8,174.1,456.5,175.1z"/>
			<path class="st4" d="M483.4,193h-11.6l-2.1,4.8h-3l10.3-24.2h1l10.3,24.2h-3L483.4,193z M477.6,178.8l-4.8,11.7h9.5L477.6,178.8z
				"/>
		</g>
	</g>
</g>
</svg>
