<svg width="15" height="17" viewBox="0 0 15 17" fill="none" xmlns="http://www.w3.org/2000/svg">
<path fill-rule="evenodd" clip-rule="evenodd" d="M4.09739 0.141942C3.8135 0.168421 3.53006 0.198451 3.24718 0.231901L1.94347 0.380355C1.6691 0.411598 1.472 0.659345 1.50325 0.933714C1.53449 1.20808 1.78224 1.40518 2.05661 1.37393L2.7956 1.28979C2.74948 1.41612 2.71615 1.54402 2.69095 1.66978C2.63358 1.95602 2.61262 2.26447 2.59327 2.54926L2.5927 2.55753L2.59261 2.55892L2.59261 2.55892L2.11877 9.83192L1.04832 9.72807C0.773466 9.7014 0.529038 9.9026 0.502372 10.1774C0.475707 10.4523 0.676901 10.6967 0.951753 10.7234L2.48225 10.8719C3.19543 10.9437 3.91152 10.9997 4.62925 11.0386C4.63011 11.0458 4.63113 11.0531 4.63231 11.0603L4.7922 12.0425L4.79225 12.0428L4.79957 12.0886C4.84965 12.4029 4.9203 12.8465 5.21441 13.1814C5.55177 13.5655 6.07245 13.7086 6.76009 13.7086H7.35697V16.4999C7.35697 16.7761 7.58083 16.9999 7.85697 16.9999C8.13311 16.9999 8.35697 16.7761 8.35697 16.4999V13.7086H8.72581C9.41936 13.7086 9.93834 13.557 10.2736 13.1704C10.5633 12.8362 10.6352 12.3983 10.6852 12.094L10.6933 12.0451L10.6934 12.0441L10.8534 11.0727C10.8573 11.0493 10.8595 11.026 10.86 11.0029C12.0881 10.9397 13.3147 10.8464 14.5359 10.7232C14.8107 10.6955 15.0109 10.4503 14.9832 10.1755C14.9555 9.90078 14.7103 9.70053 14.4355 9.72826C14.076 9.76454 13.716 9.79819 13.3556 9.8292L12.8819 2.55892L12.8818 2.55753L12.8813 2.54924C12.8619 2.26445 12.841 1.95602 12.7836 1.66978C12.7584 1.54408 12.7251 1.41624 12.679 1.28997C12.93 1.3161 13.1807 1.34401 13.4312 1.37367C13.7054 1.40615 13.9541 1.21018 13.9866 0.935957C14.019 0.661731 13.8231 0.413097 13.5488 0.380616C12.8644 0.29954 12.1779 0.231418 11.4903 0.176248C11.1207 0.0553223 10.6733 0 10.143 0H7.09264H5.33156C4.85429 0 4.44412 0.0448155 4.09739 0.141942ZM7.09264 1C8.48581 1 9.88318 1.05416 11.2764 1.16246C11.4555 1.23644 11.557 1.32584 11.6207 1.40885C11.7019 1.51448 11.7613 1.65793 11.8031 1.86629C11.8459 2.07964 11.8636 2.32353 11.8841 2.62476L11.8841 2.62533L12.3586 9.9082C10.5675 10.038 8.76938 10.1029 6.97717 10.1029C5.688 10.1029 4.39795 10.0419 3.11467 9.92746L3.5904 2.62533L3.59045 2.62464C3.61092 2.32347 3.62869 2.07962 3.67145 1.8663C3.71321 1.65793 3.77267 1.51449 3.85381 1.40885C3.92767 1.31268 4.05216 1.20792 4.28936 1.12853C5.22187 1.04438 6.15764 1 7.09264 1ZM5.77932 11.8825L5.64902 11.0821C6.09144 11.0958 6.53426 11.1029 6.97717 11.1029C7.93174 11.1029 8.88796 11.0847 9.84397 11.0484L9.70689 11.8807L9.70683 11.881C9.64338 12.2617 9.60374 12.4165 9.51804 12.5153C9.46185 12.5801 9.30084 12.7086 8.72581 12.7086H8.20104C8.1114 12.6235 7.99028 12.5714 7.85697 12.5714C7.72366 12.5714 7.60253 12.6235 7.5129 12.7086H6.76009C6.17917 12.7086 6.01985 12.583 5.96579 12.5215C5.88316 12.4274 5.84277 12.2759 5.77944 11.8832L5.77932 11.8825Z" fill="white"/>
</svg>
