<svg width="908" height="608" viewBox="0 0 908 608" fill="none" xmlns="http://www.w3.org/2000/svg">
<g filter="url(#filter0_d_267_202)">
<rect x="4" width="900" height="600" rx="20" fill="black"/>
</g>
<path d="M579.25 133.869L555.059 158.06L538.205 174.915C533.796 179.324 526.647 179.324 522.238 174.915L534.017 186.693C538.426 191.102 545.574 191.102 549.983 186.693L566.838 169.839L573.333 163.344C573.333 163.344 587.454 142.074 583.044 137.665L579.25 133.869Z" fill="url(#paint0_linear_267_202)"/>
<path d="M542 171.119L528.94 158.059L512.086 141.205C507.677 136.796 507.677 129.647 512.086 125.238L500.307 137.017C495.898 141.426 495.898 148.574 500.307 152.983L517.161 169.838L522.237 174.914C526.647 179.323 533.795 179.323 538.204 174.914L542 171.119Z" fill="url(#paint1_linear_267_202)"/>
<path d="M530.476 107.357L555.06 131.941L571.915 148.795C576.324 153.204 576.324 160.352 571.915 164.762L583.693 152.983C588.102 148.574 588.102 141.426 583.693 137.017L566.838 120.162L560.485 113.809C560.485 113.809 538.721 99.1928 534.312 103.602L530.476 107.357Z" fill="url(#paint2_linear_267_202)"/>
<path d="M549.983 103.307C545.574 98.8977 538.426 98.8977 534.017 103.307L512.086 125.237C507.677 129.647 507.677 136.795 512.086 141.204L515.881 144.999L528.941 131.939L545.795 115.084C550.204 110.675 557.352 110.675 561.762 115.084L549.983 103.307Z" fill="url(#paint3_linear_267_202)"/>
<path d="M579.25 133.869L555.059 158.06L538.205 174.915C533.796 179.324 526.647 179.324 522.238 174.915L534.017 186.693C538.426 191.102 545.574 191.102 549.983 186.693L566.838 169.839L573.333 163.344C573.333 163.344 587.454 142.074 583.044 137.665L579.25 133.869Z" fill="url(#paint4_linear_267_202)"/>
<path d="M542 171.119L528.94 158.059L512.086 141.205C507.677 136.796 507.677 129.647 512.086 125.238L500.307 137.017C495.898 141.426 495.898 148.574 500.307 152.983L517.161 169.838L522.237 174.914C526.647 179.323 533.795 179.323 538.204 174.914L542 171.119Z" fill="url(#paint5_linear_267_202)"/>
<path d="M530.476 107.357L555.06 131.941L571.915 148.795C576.324 153.204 576.324 160.352 571.915 164.762L583.693 152.983C588.102 148.574 588.102 141.426 583.693 137.017L566.838 120.162L560.485 113.809C560.485 113.809 538.721 99.1928 534.312 103.602L530.476 107.357Z" fill="url(#paint6_linear_267_202)"/>
<path d="M549.983 103.307C545.574 98.8977 538.426 98.8977 534.017 103.307L512.086 125.237C507.677 129.647 507.677 136.795 512.086 141.204L515.881 144.999L528.941 131.939L545.795 115.084C550.204 110.675 557.352 110.675 561.762 115.084L549.983 103.307Z" fill="url(#paint7_linear_267_202)"/>
<path d="M601.378 123.136H613.09V141.504H631.202V123.136H642.914V168H631.202V150.72H613.09V168H601.378V123.136ZM663.66 123.136H675.692L694.508 168H682.028L669.356 134.848L656.428 168H644.396L663.66 123.136ZM655.916 151.104H682.092V159.936H655.916V151.104ZM688.028 123.136H700.636L710.748 160.768H708.188L718.3 123.136H729.756L739.996 160.768H737.436L747.484 123.136H759.516L744.348 168H732.316L722.46 132.48L725.148 132.544L715.164 168H703.132L688.028 123.136ZM792.11 136.512C790.532 135.531 788.846 134.699 787.054 134.016C785.305 133.291 783.598 132.736 781.934 132.352C780.313 131.925 778.884 131.712 777.646 131.712C776.238 131.712 775.108 131.989 774.254 132.544C773.401 133.056 772.974 133.867 772.974 134.976C772.974 136.085 773.38 137.003 774.19 137.728C775.044 138.411 776.174 138.987 777.582 139.456C778.99 139.925 780.548 140.395 782.254 140.864C783.961 141.333 785.646 141.888 787.31 142.528C788.974 143.168 790.51 144 791.918 145.024C793.326 146.005 794.457 147.285 795.31 148.864C796.164 150.443 796.59 152.405 796.59 154.752C796.59 157.781 795.78 160.341 794.158 162.432C792.537 164.48 790.361 166.037 787.63 167.104C784.9 168.128 781.87 168.64 778.542 168.64C776.025 168.64 773.508 168.363 770.99 167.808C768.516 167.211 766.148 166.379 763.886 165.312C761.668 164.203 759.662 162.901 757.87 161.408L762.414 152.384C763.95 153.749 765.678 154.944 767.598 155.968C769.518 156.992 771.46 157.803 773.422 158.4C775.385 158.955 777.134 159.232 778.67 159.232C780.42 159.232 781.785 158.912 782.766 158.272C783.79 157.589 784.302 156.608 784.302 155.328C784.302 154.219 783.876 153.323 783.022 152.64C782.169 151.915 781.038 151.317 779.63 150.848C778.222 150.379 776.665 149.931 774.958 149.504C773.294 149.035 771.609 148.501 769.902 147.904C768.238 147.264 766.702 146.475 765.294 145.536C763.886 144.555 762.756 143.296 761.902 141.76C761.092 140.224 760.686 138.304 760.686 136C760.686 133.227 761.412 130.816 762.862 128.768C764.356 126.677 766.446 125.077 769.134 123.968C771.865 122.816 775.022 122.24 778.606 122.24C781.892 122.24 785.113 122.709 788.27 123.648C791.428 124.587 794.18 125.803 796.526 127.296L792.11 136.512ZM820.173 123.136C826.147 123.136 830.755 124.523 833.997 127.296C837.24 130.027 838.861 133.888 838.861 138.88C838.861 144.128 837.24 148.224 833.997 151.168C830.755 154.069 826.147 155.52 820.173 155.52H811.725V168H800.013V123.136H820.173ZM820.173 146.304C822.605 146.304 824.461 145.707 825.741 144.512C827.064 143.317 827.725 141.547 827.725 139.2C827.725 136.939 827.064 135.232 825.741 134.08C824.461 132.928 822.605 132.352 820.173 132.352H811.725V146.304H820.173ZM818.125 151.232H829.517L840.205 168H826.957L818.125 151.232Z" fill="white"/>
<path d="M700.75 409.87L676.559 434.061L659.705 450.915C655.296 455.324 648.147 455.324 643.738 450.915L655.517 462.693C659.926 467.103 667.074 467.103 671.483 462.693L688.338 445.839L694.833 439.344C694.833 439.344 708.954 418.074 704.544 413.665L700.75 409.87Z" fill="url(#paint8_linear_267_202)"/>
<path d="M663.5 447.119L650.44 434.059L633.586 417.205C629.177 412.796 629.177 405.647 633.586 401.238L621.807 413.017C617.398 417.426 617.398 424.574 621.807 428.983L638.661 445.838L643.737 450.914C648.147 455.323 655.295 455.323 659.704 450.914L663.5 447.119Z" fill="url(#paint9_linear_267_202)"/>
<path d="M651.976 383.357L676.56 407.941L693.415 424.795C697.824 429.204 697.824 436.352 693.415 440.762L705.193 428.983C709.602 424.574 709.602 417.426 705.193 413.017L688.338 396.162L681.985 389.809C681.985 389.809 660.221 375.193 655.812 379.602L651.976 383.357Z" fill="url(#paint10_linear_267_202)"/>
<path d="M671.483 379.307C667.074 374.898 659.926 374.898 655.517 379.307L633.586 401.237C629.177 405.647 629.177 412.795 633.586 417.204L637.381 420.999L650.441 407.939L667.295 391.084C671.704 386.675 678.852 386.675 683.262 391.084L671.483 379.307Z" fill="url(#paint11_linear_267_202)"/>
<path d="M700.75 409.87L676.559 434.061L659.705 450.915C655.296 455.324 648.147 455.324 643.738 450.915L655.517 462.693C659.926 467.103 667.074 467.103 671.483 462.693L688.338 445.839L694.833 439.344C694.833 439.344 708.954 418.074 704.544 413.665L700.75 409.87Z" fill="url(#paint12_linear_267_202)"/>
<path d="M663.5 447.119L650.44 434.059L633.586 417.205C629.177 412.796 629.177 405.647 633.586 401.238L621.807 413.017C617.398 417.426 617.398 424.574 621.807 428.983L638.661 445.838L643.737 450.914C648.147 455.323 655.295 455.323 659.704 450.914L663.5 447.119Z" fill="url(#paint13_linear_267_202)"/>
<path d="M651.976 383.357L676.56 407.941L693.415 424.795C697.824 429.204 697.824 436.352 693.415 440.762L705.193 428.983C709.602 424.574 709.602 417.426 705.193 413.017L688.338 396.162L681.985 389.809C681.985 389.809 660.221 375.193 655.812 379.602L651.976 383.357Z" fill="url(#paint14_linear_267_202)"/>
<path d="M671.483 379.307C667.074 374.898 659.926 374.898 655.517 379.307L633.586 401.237C629.177 405.647 629.177 412.795 633.586 417.204L637.381 420.999L650.441 407.939L667.295 391.084C671.704 386.675 678.852 386.675 683.262 391.084L671.483 379.307Z" fill="url(#paint15_linear_267_202)"/>
<path d="M545.378 483.136H557.09V501.504H575.202V483.136H586.914V528H575.202V510.72H557.09V528H545.378V483.136ZM607.66 483.136H619.692L638.508 528H626.028L613.356 494.848L600.428 528H588.396L607.66 483.136ZM599.916 511.104H626.092V519.936H599.916V511.104ZM632.028 483.136H644.636L654.748 520.768H652.188L662.3 483.136H673.756L683.996 520.768H681.436L691.484 483.136H703.516L688.348 528H676.316L666.46 492.48L669.148 492.544L659.164 528H647.132L632.028 483.136ZM736.11 496.512C734.532 495.531 732.846 494.699 731.054 494.016C729.305 493.291 727.598 492.736 725.934 492.352C724.313 491.925 722.884 491.712 721.646 491.712C720.238 491.712 719.108 491.989 718.254 492.544C717.401 493.056 716.974 493.867 716.974 494.976C716.974 496.085 717.38 497.003 718.19 497.728C719.044 498.411 720.174 498.987 721.582 499.456C722.99 499.925 724.548 500.395 726.254 500.864C727.961 501.333 729.646 501.888 731.31 502.528C732.974 503.168 734.51 504 735.918 505.024C737.326 506.005 738.457 507.285 739.31 508.864C740.164 510.443 740.59 512.405 740.59 514.752C740.59 517.781 739.78 520.341 738.158 522.432C736.537 524.48 734.361 526.037 731.63 527.104C728.9 528.128 725.87 528.64 722.542 528.64C720.025 528.64 717.508 528.363 714.99 527.808C712.516 527.211 710.148 526.379 707.886 525.312C705.668 524.203 703.662 522.901 701.87 521.408L706.414 512.384C707.95 513.749 709.678 514.944 711.598 515.968C713.518 516.992 715.46 517.803 717.422 518.4C719.385 518.955 721.134 519.232 722.67 519.232C724.42 519.232 725.785 518.912 726.766 518.272C727.79 517.589 728.302 516.608 728.302 515.328C728.302 514.219 727.876 513.323 727.022 512.64C726.169 511.915 725.038 511.317 723.63 510.848C722.222 510.379 720.665 509.931 718.958 509.504C717.294 509.035 715.609 508.501 713.902 507.904C712.238 507.264 710.702 506.475 709.294 505.536C707.886 504.555 706.756 503.296 705.902 501.76C705.092 500.224 704.686 498.304 704.686 496C704.686 493.227 705.412 490.816 706.862 488.768C708.356 486.677 710.446 485.077 713.134 483.968C715.865 482.816 719.022 482.24 722.606 482.24C725.892 482.24 729.113 482.709 732.27 483.648C735.428 484.587 738.18 485.803 740.526 487.296L736.11 496.512ZM764.173 483.136C770.147 483.136 774.755 484.523 777.997 487.296C781.24 490.027 782.861 493.888 782.861 498.88C782.861 504.128 781.24 508.224 777.997 511.168C774.755 514.069 770.147 515.52 764.173 515.52H755.725V528H744.013V483.136H764.173ZM764.173 506.304C766.605 506.304 768.461 505.707 769.741 504.512C771.064 503.317 771.725 501.547 771.725 499.2C771.725 496.939 771.064 495.232 769.741 494.08C768.461 492.928 766.605 492.352 764.173 492.352H755.725V506.304H764.173ZM762.125 511.232H773.517L784.205 528H770.957L762.125 511.232Z" fill="white"/>
<line x1="454.5" y1="-2.18557e-08" x2="454.5" y2="600" stroke="white" stroke-opacity="0.5"/>
<line x1="904" y1="300.5" x2="454" y2="300.5" stroke="white" stroke-opacity="0.5"/>
<path d="M369.944 262.1L287.021 345.024L229.245 402.799C214.131 417.913 189.628 417.913 174.514 402.799L214.889 443.174C230.003 458.289 254.506 458.289 269.621 443.174L327.396 385.399L349.66 363.135C349.66 363.135 398.065 290.224 382.951 275.11L369.944 262.1Z" fill="url(#paint16_linear_267_202)"/>
<path d="M242.255 389.787L197.486 345.021L139.714 287.245C124.6 272.131 124.6 247.625 139.714 232.514L99.3355 272.889C84.2215 288.003 84.2215 312.506 99.3355 327.62L157.111 385.396L174.511 402.796C189.625 417.91 214.128 417.91 229.242 402.796L242.255 389.787Z" fill="url(#paint17_linear_267_202)"/>
<path d="M202.753 171.219L287.024 255.489L344.799 313.264C359.913 328.378 359.913 352.881 344.799 367.995L385.174 327.62C400.288 312.506 400.288 288.003 385.174 272.889L327.399 215.114L305.62 193.335C305.62 193.335 231.015 143.233 215.901 158.347L202.753 171.219Z" fill="url(#paint18_linear_267_202)"/>
<path d="M269.621 157.336C254.506 142.221 230.003 142.221 214.889 157.336L139.714 232.511C124.6 247.625 124.6 272.128 139.714 287.242L152.723 300.252L197.489 255.483L255.264 197.707C270.378 182.593 294.882 182.593 309.996 197.707L269.621 157.336Z" fill="url(#paint19_linear_267_202)"/>
<path d="M369.944 262.1L287.021 345.024L229.245 402.799C214.131 417.913 189.628 417.913 174.514 402.799L214.889 443.174C230.003 458.289 254.506 458.289 269.621 443.174L327.396 385.399L349.66 363.135C349.66 363.135 398.065 290.224 382.951 275.11L369.944 262.1Z" fill="url(#paint20_linear_267_202)"/>
<path d="M242.255 389.787L197.486 345.021L139.714 287.245C124.6 272.131 124.6 247.625 139.714 232.514L99.3355 272.889C84.2215 288.003 84.2215 312.506 99.3355 327.62L157.111 385.396L174.511 402.796C189.625 417.91 214.128 417.91 229.242 402.796L242.255 389.787Z" fill="url(#paint21_linear_267_202)"/>
<path d="M202.753 171.219L287.024 255.489L344.799 313.264C359.913 328.378 359.913 352.881 344.799 367.995L385.174 327.62C400.288 312.506 400.288 288.003 385.174 272.889L327.399 215.114L305.62 193.335C305.62 193.335 231.015 143.233 215.901 158.347L202.753 171.219Z" fill="url(#paint22_linear_267_202)"/>
<path d="M269.621 157.336C254.506 142.221 230.003 142.221 214.889 157.336L139.714 232.511C124.6 247.625 124.6 272.128 139.714 287.242L152.723 300.252L197.489 255.483L255.264 197.707C270.378 182.593 294.882 182.593 309.996 197.707L269.621 157.336Z" fill="url(#paint23_linear_267_202)"/>
<defs>
<filter id="filter0_d_267_202" x="0" y="0" width="908" height="608" filterUnits="userSpaceOnUse" color-interpolation-filters="sRGB">
<feFlood flood-opacity="0" result="BackgroundImageFix"/>
<feColorMatrix in="SourceAlpha" type="matrix" values="0 0 0 0 0 0 0 0 0 0 0 0 0 0 0 0 0 0 127 0" result="hardAlpha"/>
<feOffset dy="4"/>
<feGaussianBlur stdDeviation="2"/>
<feComposite in2="hardAlpha" operator="out"/>
<feColorMatrix type="matrix" values="0 0 0 0 0 0 0 0 0 0 0 0 0 0 0 0 0 0 0.25 0"/>
<feBlend mode="normal" in2="BackgroundImageFix" result="effect1_dropShadow_267_202"/>
<feBlend mode="normal" in="SourceGraphic" in2="effect1_dropShadow_267_202" result="shape"/>
</filter>
<linearGradient id="paint0_linear_267_202" x1="583.898" y1="161.934" x2="522.239" y2="161.934" gradientUnits="userSpaceOnUse">
<stop stop-color="#398000"/>
<stop offset="0.8" stop-color="#79FE0C"/>
</linearGradient>
<linearGradient id="paint1_linear_267_202" x1="542" y1="151.729" x2="497" y2="151.729" gradientUnits="userSpaceOnUse">
<stop stop-color="#398000"/>
<stop offset="0.8" stop-color="#79FE0C"/>
</linearGradient>
<linearGradient id="paint2_linear_267_202" x1="580.38" y1="133.767" x2="530.477" y2="133.767" gradientUnits="userSpaceOnUse">
<stop stop-color="#79FE0C"/>
<stop offset="1" stop-color="#398000"/>
</linearGradient>
<linearGradient id="paint3_linear_267_202" x1="561.762" y1="122.499" x2="508.78" y2="122.499" gradientUnits="userSpaceOnUse">
<stop offset="0.2" stop-color="#79FE0C"/>
<stop offset="1" stop-color="#398000"/>
</linearGradient>
<linearGradient id="paint4_linear_267_202" x1="574.453" y1="150.031" x2="535.945" y2="188.539" gradientUnits="userSpaceOnUse">
<stop stop-color="#398000"/>
<stop offset="0.5" stop-color="#6DE60B"/>
<stop offset="0.8" stop-color="#79FE0C"/>
</linearGradient>
<linearGradient id="paint5_linear_267_202" x1="536.82" y1="176.14" x2="499.334" y2="138.653" gradientUnits="userSpaceOnUse">
<stop stop-color="#398000"/>
<stop offset="0.5" stop-color="#6DE60B"/>
<stop offset="0.8" stop-color="#79FE0C"/>
</linearGradient>
<linearGradient id="paint6_linear_267_202" x1="584.08" y1="151.781" x2="546.301" y2="114.003" gradientUnits="userSpaceOnUse">
<stop stop-color="#79FE0C"/>
<stop offset="0.5" stop-color="#6DE60B"/>
<stop offset="1" stop-color="#398000"/>
</linearGradient>
<linearGradient id="paint7_linear_267_202" x1="551.115" y1="106.126" x2="514.066" y2="143.175" gradientUnits="userSpaceOnUse">
<stop offset="0.2" stop-color="#79FE0C"/>
<stop offset="0.5" stop-color="#6DE60B"/>
<stop offset="1" stop-color="#398000"/>
</linearGradient>
<linearGradient id="paint8_linear_267_202" x1="705.398" y1="437.935" x2="643.739" y2="437.935" gradientUnits="userSpaceOnUse">
<stop stop-color="#398000"/>
<stop offset="0.8" stop-color="#79FE0C"/>
</linearGradient>
<linearGradient id="paint9_linear_267_202" x1="663.5" y1="427.729" x2="618.5" y2="427.729" gradientUnits="userSpaceOnUse">
<stop stop-color="#398000"/>
<stop offset="0.8" stop-color="#79FE0C"/>
</linearGradient>
<linearGradient id="paint10_linear_267_202" x1="701.88" y1="409.767" x2="651.977" y2="409.767" gradientUnits="userSpaceOnUse">
<stop stop-color="#79FE0C"/>
<stop offset="1" stop-color="#398000"/>
</linearGradient>
<linearGradient id="paint11_linear_267_202" x1="683.262" y1="398.499" x2="630.28" y2="398.499" gradientUnits="userSpaceOnUse">
<stop offset="0.2" stop-color="#79FE0C"/>
<stop offset="1" stop-color="#398000"/>
</linearGradient>
<linearGradient id="paint12_linear_267_202" x1="695.953" y1="426.031" x2="657.445" y2="464.539" gradientUnits="userSpaceOnUse">
<stop stop-color="#398000"/>
<stop offset="0.5" stop-color="#6DE60B"/>
<stop offset="0.8" stop-color="#79FE0C"/>
</linearGradient>
<linearGradient id="paint13_linear_267_202" x1="658.32" y1="452.14" x2="620.834" y2="414.653" gradientUnits="userSpaceOnUse">
<stop stop-color="#398000"/>
<stop offset="0.5" stop-color="#6DE60B"/>
<stop offset="0.8" stop-color="#79FE0C"/>
</linearGradient>
<linearGradient id="paint14_linear_267_202" x1="705.58" y1="427.781" x2="667.801" y2="390.003" gradientUnits="userSpaceOnUse">
<stop stop-color="#79FE0C"/>
<stop offset="0.5" stop-color="#6DE60B"/>
<stop offset="1" stop-color="#398000"/>
</linearGradient>
<linearGradient id="paint15_linear_267_202" x1="672.615" y1="382.126" x2="635.566" y2="419.175" gradientUnits="userSpaceOnUse">
<stop offset="0.2" stop-color="#79FE0C"/>
<stop offset="0.5" stop-color="#6DE60B"/>
<stop offset="1" stop-color="#398000"/>
</linearGradient>
<linearGradient id="paint16_linear_267_202" x1="385.876" y1="358.304" x2="174.515" y2="358.304" gradientUnits="userSpaceOnUse">
<stop stop-color="#398000"/>
<stop offset="0.8" stop-color="#79FE0C"/>
</linearGradient>
<linearGradient id="paint17_linear_267_202" x1="242.256" y1="323.322" x2="88.0009" y2="323.322" gradientUnits="userSpaceOnUse">
<stop stop-color="#398000"/>
<stop offset="0.8" stop-color="#79FE0C"/>
</linearGradient>
<linearGradient id="paint18_linear_267_202" x1="373.819" y1="261.749" x2="202.755" y2="261.749" gradientUnits="userSpaceOnUse">
<stop stop-color="#79FE0C"/>
<stop offset="1" stop-color="#398000"/>
</linearGradient>
<linearGradient id="paint19_linear_267_202" x1="309.997" y1="223.125" x2="128.379" y2="223.125" gradientUnits="userSpaceOnUse">
<stop offset="0.2" stop-color="#79FE0C"/>
<stop offset="1" stop-color="#398000"/>
</linearGradient>
<linearGradient id="paint20_linear_267_202" x1="353.5" y1="317.5" x2="221.5" y2="449.5" gradientUnits="userSpaceOnUse">
<stop stop-color="#398000"/>
<stop offset="0.5" stop-color="#6DE60B"/>
<stop offset="0.8" stop-color="#79FE0C"/>
</linearGradient>
<linearGradient id="paint21_linear_267_202" x1="224.5" y1="407" x2="96" y2="278.5" gradientUnits="userSpaceOnUse">
<stop stop-color="#398000"/>
<stop offset="0.5" stop-color="#6DE60B"/>
<stop offset="0.8" stop-color="#79FE0C"/>
</linearGradient>
<linearGradient id="paint22_linear_267_202" x1="386.5" y1="323.5" x2="257" y2="194" gradientUnits="userSpaceOnUse">
<stop stop-color="#79FE0C"/>
<stop offset="0.5" stop-color="#6DE60B"/>
<stop offset="1" stop-color="#398000"/>
</linearGradient>
<linearGradient id="paint23_linear_267_202" x1="273.5" y1="167" x2="146.5" y2="294" gradientUnits="userSpaceOnUse">
<stop offset="0.2" stop-color="#79FE0C"/>
<stop offset="0.5" stop-color="#6DE60B"/>
<stop offset="1" stop-color="#398000"/>
</linearGradient>
</defs>
</svg>
