<svg width="234" height="119" viewBox="0 0 234 119" fill="none" xmlns="http://www.w3.org/2000/svg">
<path d="M147.197 27.2588L127.727 46.7282L114.163 60.2931C110.614 63.8417 104.861 63.8417 101.312 60.2931L110.792 69.7726C114.341 73.3212 120.094 73.3212 123.642 69.7726L137.207 56.2077L142.434 50.9804C142.434 50.9804 153.799 33.8618 150.251 30.3132L147.197 27.2588Z" fill="url(#paint0_linear_261_309)"/>
<path d="M117.217 57.2379L106.706 46.7274L93.1417 33.1626C89.5931 29.614 89.5931 23.8602 93.1417 20.3124L83.6614 29.7919C80.1129 33.3405 80.1129 39.0935 83.6614 42.6421L97.2263 56.207L101.312 60.2923C104.86 63.8409 110.613 63.8409 114.162 60.2923L117.217 57.2379Z" fill="url(#paint1_linear_261_309)"/>
<path d="M107.943 5.92094L127.728 25.7065L141.293 39.2714C144.842 42.82 144.842 48.573 141.293 52.1216L150.773 42.642C154.321 39.0934 154.321 33.3404 150.773 29.7919L137.208 16.227L132.094 11.1137C132.094 11.1137 114.578 -0.649735 111.029 2.89884L107.943 5.92094Z" fill="url(#paint2_linear_261_309)"/>
<path d="M123.642 2.66143C120.094 -0.887145 114.34 -0.887145 110.792 2.66143L93.1417 20.3117C89.5931 23.8603 89.5931 29.6133 93.1417 33.1619L96.1961 36.2163L106.707 25.7051L120.271 12.1402C123.82 8.59166 129.573 8.59166 133.122 12.1402L123.642 2.66143Z" fill="url(#paint3_linear_261_309)"/>
<path d="M147.197 27.2588L127.727 46.7282L114.163 60.2931C110.614 63.8417 104.861 63.8417 101.312 60.2931L110.792 69.7726C114.341 73.3212 120.094 73.3212 123.642 69.7726L137.207 56.2077L142.434 50.9804C142.434 50.9804 153.799 33.8618 150.251 30.3132L147.197 27.2588Z" fill="url(#paint4_linear_261_309)"/>
<path d="M117.217 57.2379L106.706 46.7274L93.1417 33.1626C89.5931 29.614 89.5931 23.8602 93.1417 20.3124L83.6614 29.7919C80.1129 33.3405 80.1129 39.0935 83.6614 42.6421L97.2263 56.207L101.312 60.2923C104.86 63.8409 110.613 63.8409 114.162 60.2923L117.217 57.2379Z" fill="url(#paint5_linear_261_309)"/>
<path d="M107.943 5.92094L127.728 25.7065L141.293 39.2714C144.842 42.82 144.842 48.573 141.293 52.1216L150.773 42.642C154.321 39.0934 154.321 33.3404 150.773 29.7919L137.208 16.227L132.094 11.1137C132.094 11.1137 114.578 -0.649736 111.029 2.89884L107.943 5.92094Z" fill="url(#paint6_linear_261_309)"/>
<path d="M123.642 2.66143C120.094 -0.887145 114.34 -0.887145 110.792 2.66143L93.1417 20.3117C89.5931 23.8603 89.5931 29.6133 93.1417 33.1619L96.1961 36.2163L106.707 25.7051L120.271 12.1402C123.82 8.59166 129.573 8.59166 133.122 12.1402L123.642 2.66143Z" fill="url(#paint7_linear_261_309)"/>
<path d="M9.666 95.4H12.6V108H9.666V102.942H4.32V108H1.368V95.4H4.32V100.278H9.666V95.4ZM24.7382 108L23.8022 105.732H17.5922L16.6562 108H13.5062L19.1582 95.4H22.3082L27.9242 108H24.7382ZM20.7242 98.226L18.6542 103.194H22.7582L20.7242 98.226ZM42.6462 95.4H45.8682L41.4582 108H38.6682L37.4802 104.49L36.0402 100.26L34.6362 104.49L33.4302 108H30.6942L26.2662 95.4H29.4882L31.0722 100.422L32.0982 104.004L34.9602 95.4H37.0842L40.0182 104.058L41.1162 100.422L42.6462 95.4ZM51.5145 108.288C50.4825 108.288 49.4865 108.132 48.5265 107.82C47.5785 107.508 46.7565 107.07 46.0605 106.506L47.5905 104.364C48.7065 105.24 50.0085 105.678 51.4965 105.678C52.2405 105.678 52.8285 105.552 53.2605 105.3C53.7045 105.048 53.9265 104.706 53.9265 104.274C53.9265 103.866 53.7225 103.548 53.3145 103.32C52.9065 103.092 52.2585 102.93 51.3705 102.834C49.6545 102.642 48.3945 102.24 47.5905 101.628C46.7985 101.016 46.4025 100.14 46.4025 99C46.4025 98.232 46.6185 97.554 47.0505 96.966C47.4825 96.378 48.0885 95.922 48.8685 95.598C49.6485 95.274 50.5485 95.112 51.5685 95.112C52.4445 95.112 53.2965 95.238 54.1245 95.49C54.9645 95.742 55.7025 96.096 56.3385 96.552L54.9525 98.622C53.9685 97.938 52.8825 97.596 51.6945 97.596C50.9625 97.596 50.3745 97.716 49.9305 97.956C49.4985 98.196 49.2825 98.52 49.2825 98.928C49.2825 99.324 49.4685 99.63 49.8405 99.846C50.2245 100.062 50.8605 100.224 51.7485 100.332C53.4525 100.524 54.7245 100.95 55.5645 101.61C56.4045 102.258 56.8245 103.152 56.8245 104.292C56.8245 105.084 56.6025 105.786 56.1585 106.398C55.7145 106.998 55.0905 107.466 54.2865 107.802C53.4825 108.126 52.5585 108.288 51.5145 108.288ZM63.0197 103.842H61.3097V108H58.3577V95.4H64.4957C65.4077 95.4 66.2057 95.58 66.8897 95.94C67.5737 96.288 68.1017 96.786 68.4737 97.434C68.8457 98.082 69.0317 98.826 69.0317 99.666C69.0317 100.626 68.7797 101.448 68.2757 102.132C67.7837 102.816 67.0817 103.302 66.1697 103.59L69.7337 108H66.2237L63.0197 103.842ZM66.1157 99.702C66.1157 99.138 65.9417 98.7 65.5937 98.388C65.2577 98.076 64.7777 97.92 64.1537 97.92H61.2917V101.466H64.1537C64.7897 101.466 65.2757 101.316 65.6117 101.016C65.9477 100.704 66.1157 100.266 66.1157 99.702ZM75.278 102.663C75.278 101.065 75.489 99.5966 75.9108 98.2585C76.337 96.9162 76.9698 95.6761 77.8093 94.5384H79.989C79.6651 94.9602 79.3625 95.478 79.0813 96.0916C78.8 96.701 78.555 97.37 78.3462 98.0987C78.1417 98.8232 77.9797 99.5753 77.8604 100.355C77.7454 101.135 77.6878 101.904 77.6878 102.663C77.6878 103.673 77.788 104.695 77.9883 105.731C78.1928 106.766 78.4677 107.725 78.8128 108.607C79.1623 109.494 79.5543 110.218 79.989 110.781H77.8093C76.9698 109.643 76.337 108.405 75.9108 107.067C75.489 105.724 75.278 104.256 75.278 102.663ZM90.9118 97.974H84.5578V100.98H90.5518V103.482H84.5578V108H81.6058V95.4H90.9118V97.974ZM96.4935 108.198C95.5095 108.198 94.6455 108.006 93.9015 107.622C93.1695 107.226 92.6055 106.68 92.2095 105.984C91.8135 105.288 91.6155 104.478 91.6155 103.554C91.6155 102.63 91.8135 101.82 92.2095 101.124C92.6055 100.428 93.1695 99.888 93.9015 99.504C94.6455 99.108 95.5095 98.91 96.4935 98.91C97.4775 98.91 98.3415 99.108 99.0855 99.504C99.8295 99.888 100.4 100.428 100.796 101.124C101.192 101.82 101.39 102.63 101.39 103.554C101.39 104.478 101.192 105.288 100.796 105.984C100.4 106.68 99.8295 107.226 99.0855 107.622C98.3415 108.006 97.4775 108.198 96.4935 108.198ZM96.4935 105.804C97.1175 105.804 97.6215 105.594 98.0055 105.174C98.3895 104.754 98.5815 104.214 98.5815 103.554C98.5815 102.894 98.3895 102.354 98.0055 101.934C97.6215 101.514 97.1175 101.304 96.4935 101.304C95.8815 101.304 95.3835 101.514 94.9995 101.934C94.6155 102.354 94.4235 102.894 94.4235 103.554C94.4235 104.214 94.6155 104.754 94.9995 105.174C95.3835 105.594 95.8815 105.804 96.4935 105.804ZM111.586 99.108V108H109.138L108.958 106.974C108.622 107.37 108.208 107.676 107.716 107.892C107.236 108.096 106.708 108.198 106.132 108.198C105.04 108.198 104.17 107.838 103.522 107.118C102.874 106.398 102.55 105.402 102.55 104.13V99.108H105.376V103.968C105.376 104.544 105.514 104.994 105.79 105.318C106.078 105.642 106.468 105.804 106.96 105.804C107.5 105.804 107.932 105.618 108.256 105.246C108.592 104.862 108.76 104.37 108.76 103.77V99.108H111.586ZM118.845 98.91C119.949 98.91 120.825 99.27 121.473 99.99C122.133 100.71 122.463 101.706 122.463 102.978V108H119.637V103.14C119.637 102.564 119.493 102.114 119.205 101.79C118.917 101.466 118.521 101.304 118.017 101.304C117.465 101.304 117.021 101.49 116.685 101.862C116.349 102.234 116.181 102.72 116.181 103.32V108H113.355V99.108H115.803L115.983 100.152C116.331 99.756 116.745 99.45 117.225 99.234C117.717 99.018 118.257 98.91 118.845 98.91ZM133.446 95.4V108H130.998L130.818 106.938C130.062 107.766 129.078 108.18 127.866 108.18C127.038 108.18 126.3 107.988 125.652 107.604C125.016 107.208 124.518 106.662 124.158 105.966C123.798 105.258 123.618 104.454 123.618 103.554C123.618 102.654 123.798 101.856 124.158 101.16C124.518 100.452 125.016 99.906 125.652 99.522C126.3 99.126 127.038 98.928 127.866 98.928C128.958 98.928 129.876 99.27 130.62 99.954V95.4H133.446ZM128.532 105.804C129.156 105.804 129.666 105.6 130.062 105.192C130.458 104.772 130.656 104.226 130.656 103.554C130.656 102.882 130.458 102.342 130.062 101.934C129.666 101.514 129.156 101.304 128.532 101.304C127.908 101.304 127.398 101.514 127.002 101.934C126.618 102.354 126.426 102.894 126.426 103.554C126.426 104.214 126.618 104.754 127.002 105.174C127.398 105.594 127.908 105.804 128.532 105.804ZM144.546 99.108V108H142.098L141.918 106.938C141.162 107.766 140.178 108.18 138.966 108.18C138.138 108.18 137.4 107.988 136.752 107.604C136.116 107.208 135.618 106.662 135.258 105.966C134.898 105.258 134.718 104.454 134.718 103.554C134.718 102.654 134.898 101.856 135.258 101.16C135.618 100.452 136.116 99.906 136.752 99.522C137.4 99.126 138.138 98.928 138.966 98.928C139.566 98.928 140.118 99.036 140.622 99.252C141.126 99.456 141.558 99.756 141.918 100.152L142.098 99.108H144.546ZM139.632 105.804C140.256 105.804 140.766 105.6 141.162 105.192C141.558 104.772 141.756 104.226 141.756 103.554C141.756 102.882 141.558 102.342 141.162 101.934C140.766 101.514 140.256 101.304 139.632 101.304C139.008 101.304 138.498 101.514 138.102 101.934C137.718 102.354 137.526 102.894 137.526 103.554C137.526 104.214 137.718 104.754 138.102 105.174C138.498 105.594 139.008 105.804 139.632 105.804ZM152.678 107.658C151.982 108.006 151.196 108.18 150.32 108.18C149.348 108.18 148.58 107.91 148.016 107.37C147.452 106.818 147.17 105.936 147.17 104.724V101.358H145.658V99.108H147.17V96.894L149.978 96.588V99.108H152.192V101.358H149.978V104.724C149.978 105.084 150.068 105.354 150.248 105.534C150.428 105.702 150.674 105.786 150.986 105.786C151.334 105.786 151.676 105.702 152.012 105.534L152.678 107.658ZM154.997 98.226C154.505 98.226 154.103 98.082 153.791 97.794C153.491 97.506 153.341 97.14 153.341 96.696C153.341 96.24 153.497 95.868 153.809 95.58C154.121 95.292 154.517 95.148 154.997 95.148C155.477 95.148 155.873 95.292 156.185 95.58C156.497 95.868 156.653 96.24 156.653 96.696C156.653 97.14 156.497 97.506 156.185 97.794C155.885 98.082 155.489 98.226 154.997 98.226ZM153.575 99.108H156.401V108H153.575V99.108ZM162.546 108.198C161.562 108.198 160.698 108.006 159.954 107.622C159.222 107.226 158.658 106.68 158.262 105.984C157.866 105.288 157.668 104.478 157.668 103.554C157.668 102.63 157.866 101.82 158.262 101.124C158.658 100.428 159.222 99.888 159.954 99.504C160.698 99.108 161.562 98.91 162.546 98.91C163.53 98.91 164.394 99.108 165.138 99.504C165.882 99.888 166.452 100.428 166.848 101.124C167.244 101.82 167.442 102.63 167.442 103.554C167.442 104.478 167.244 105.288 166.848 105.984C166.452 106.68 165.882 107.226 165.138 107.622C164.394 108.006 163.53 108.198 162.546 108.198ZM162.546 105.804C163.17 105.804 163.674 105.594 164.058 105.174C164.442 104.754 164.634 104.214 164.634 103.554C164.634 102.894 164.442 102.354 164.058 101.934C163.674 101.514 163.17 101.304 162.546 101.304C161.934 101.304 161.436 101.514 161.052 101.934C160.668 102.354 160.476 102.894 160.476 103.554C160.476 104.214 160.668 104.754 161.052 105.174C161.436 105.594 161.934 105.804 162.546 105.804ZM174.2 98.91C175.304 98.91 176.18 99.27 176.828 99.99C177.488 100.71 177.818 101.706 177.818 102.978V108H174.992V103.14C174.992 102.564 174.848 102.114 174.56 101.79C174.272 101.466 173.876 101.304 173.372 101.304C172.82 101.304 172.376 101.49 172.04 101.862C171.704 102.234 171.536 102.72 171.536 103.32V108H168.71V99.108H171.158L171.338 100.152C171.686 99.756 172.1 99.45 172.58 99.234C173.072 99.018 173.612 98.91 174.2 98.91ZM183.733 101.455C183.733 103.048 183.52 104.516 183.094 105.859C182.672 107.197 182.042 108.435 181.202 109.572H179.022C179.351 109.151 179.653 108.635 179.93 108.026C180.211 107.416 180.454 106.747 180.659 106.018C180.868 105.29 181.03 104.536 181.145 103.756C181.264 102.976 181.324 102.209 181.324 101.455C181.324 100.445 181.221 99.4219 181.017 98.3864C180.816 97.3509 180.542 96.3899 180.192 95.5036C179.847 94.6172 179.457 93.8928 179.022 93.3303H181.202C182.042 94.468 182.672 95.7081 183.094 97.0504C183.52 98.3885 183.733 99.8565 183.733 101.455ZM189.96 96.897V94.9091H200.404V96.897H196.358V108H194.006V96.897H189.96ZM200.936 108V98.1818H203.18V99.8182H203.282C203.461 99.2514 203.768 98.8146 204.203 98.5078C204.641 98.1967 205.142 98.0412 205.705 98.0412C205.832 98.0412 205.975 98.0476 206.133 98.0604C206.295 98.0689 206.429 98.0838 206.536 98.1051V100.234C206.438 100.2 206.282 100.17 206.069 100.144C205.86 100.114 205.658 100.099 205.462 100.099C205.04 100.099 204.661 100.191 204.324 100.374C203.992 100.553 203.73 100.803 203.538 101.122C203.346 101.442 203.25 101.81 203.25 102.228V108H200.936ZM213.971 103.871V98.1818H216.285V108H214.041V106.255H213.939C213.717 106.805 213.353 107.254 212.846 107.604C212.343 107.953 211.723 108.128 210.986 108.128C210.342 108.128 209.773 107.985 209.279 107.7C208.789 107.41 208.405 106.99 208.128 106.44C207.851 105.886 207.713 105.217 207.713 104.433V98.1818H210.027V104.075C210.027 104.697 210.197 105.192 210.538 105.558C210.879 105.925 211.327 106.108 211.881 106.108C212.221 106.108 212.552 106.025 212.871 105.859C213.191 105.692 213.453 105.445 213.658 105.117C213.866 104.785 213.971 104.369 213.971 103.871ZM226.064 100.777L223.955 101.007C223.895 100.794 223.791 100.594 223.641 100.406C223.497 100.219 223.301 100.067 223.053 99.9524C222.806 99.8374 222.504 99.7798 222.146 99.7798C221.664 99.7798 221.259 99.8842 220.931 100.093C220.607 100.302 220.448 100.572 220.452 100.905C220.448 101.19 220.552 101.423 220.765 101.602C220.982 101.781 221.34 101.928 221.839 102.043L223.514 102.401C224.443 102.601 225.133 102.918 225.585 103.353C226.041 103.788 226.271 104.357 226.275 105.06C226.271 105.678 226.09 106.223 225.732 106.696C225.378 107.165 224.886 107.531 224.255 107.795C223.624 108.06 222.9 108.192 222.082 108.192C220.88 108.192 219.913 107.94 219.18 107.438C218.447 106.93 218.01 106.225 217.869 105.322L220.126 105.104C220.228 105.548 220.445 105.882 220.778 106.108C221.11 106.334 221.543 106.447 222.075 106.447C222.625 106.447 223.066 106.334 223.399 106.108C223.735 105.882 223.904 105.603 223.904 105.271C223.904 104.989 223.795 104.757 223.578 104.574C223.364 104.391 223.032 104.25 222.58 104.152L220.906 103.8C219.964 103.604 219.267 103.274 218.815 102.81C218.364 102.341 218.14 101.749 218.144 101.033C218.14 100.428 218.304 99.9034 218.636 99.4602C218.973 99.0128 219.44 98.6676 220.036 98.4247C220.637 98.1776 221.33 98.054 222.114 98.054C223.264 98.054 224.17 98.299 224.83 98.7891C225.495 99.2791 225.906 99.9418 226.064 100.777ZM232.726 98.1818V99.9716H227.082V98.1818H232.726ZM228.475 95.8295H230.789V105.047C230.789 105.358 230.836 105.597 230.93 105.763C231.028 105.925 231.155 106.036 231.313 106.095C231.471 106.155 231.645 106.185 231.837 106.185C231.982 106.185 232.114 106.174 232.233 106.153C232.357 106.131 232.451 106.112 232.515 106.095L232.905 107.904C232.781 107.947 232.604 107.994 232.374 108.045C232.148 108.096 231.871 108.126 231.543 108.134C230.964 108.151 230.442 108.064 229.977 107.872C229.513 107.676 229.144 107.374 228.871 106.964C228.603 106.555 228.471 106.044 228.475 105.43V95.8295Z" fill="white"/>
<defs>
<linearGradient id="paint0_linear_261_309" x1="150.937" y1="49.8462" x2="101.313" y2="49.8462" gradientUnits="userSpaceOnUse">
<stop stop-color="#398000"/>
<stop offset="0.8" stop-color="#79FE0C"/>
</linearGradient>
<linearGradient id="paint1_linear_261_309" x1="117.217" y1="41.6329" x2="81.0002" y2="41.6329" gradientUnits="userSpaceOnUse">
<stop stop-color="#398000"/>
<stop offset="0.8" stop-color="#79FE0C"/>
</linearGradient>
<linearGradient id="paint2_linear_261_309" x1="148.106" y1="27.1764" x2="107.943" y2="27.1764" gradientUnits="userSpaceOnUse">
<stop stop-color="#79FE0C"/>
<stop offset="1" stop-color="#398000"/>
</linearGradient>
<linearGradient id="paint3_linear_261_309" x1="133.122" y1="18.108" x2="90.4805" y2="18.108" gradientUnits="userSpaceOnUse">
<stop offset="0.2" stop-color="#79FE0C"/>
<stop offset="1" stop-color="#398000"/>
</linearGradient>
<linearGradient id="paint4_linear_261_309" x1="143.336" y1="40.2659" x2="112.344" y2="71.2578" gradientUnits="userSpaceOnUse">
<stop stop-color="#398000"/>
<stop offset="0.5" stop-color="#6DE60B"/>
<stop offset="0.8" stop-color="#79FE0C"/>
</linearGradient>
<linearGradient id="paint5_linear_261_309" x1="113.048" y1="61.2793" x2="82.8783" y2="31.1092" gradientUnits="userSpaceOnUse">
<stop stop-color="#398000"/>
<stop offset="0.5" stop-color="#6DE60B"/>
<stop offset="0.8" stop-color="#79FE0C"/>
</linearGradient>
<linearGradient id="paint6_linear_261_309" x1="151.084" y1="41.6746" x2="120.679" y2="11.2697" gradientUnits="userSpaceOnUse">
<stop stop-color="#79FE0C"/>
<stop offset="0.5" stop-color="#6DE60B"/>
<stop offset="1" stop-color="#398000"/>
</linearGradient>
<linearGradient id="paint7_linear_261_309" x1="124.553" y1="4.93052" x2="94.735" y2="34.7485" gradientUnits="userSpaceOnUse">
<stop offset="0.2" stop-color="#79FE0C"/>
<stop offset="0.5" stop-color="#6DE60B"/>
<stop offset="1" stop-color="#398000"/>
</linearGradient>
</defs>
</svg>
