<?xml version="1.0" encoding="utf-8"?>
<!-- Generator: Adobe Illustrator 19.0.0, SVG Export Plug-In . SVG Version: 6.00 Build 0)  -->
<svg version="1.1" id="Layer_1" xmlns="http://www.w3.org/2000/svg" xmlns:xlink="http://www.w3.org/1999/xlink" x="0px" y="0px"
	 viewBox="0 0 165 38" style="enable-background:new 0 0 165 38;" xml:space="preserve">
<style type="text/css">
	.st0{fill:#FFFFFF;}
</style>
<g id="XMLID_2_">
	<g id="XMLID_108_">
		<path id="XMLID_127_" class="st0" d="M3.5,37.1l-2.3-5.6h0.7l1.9,4.9l1.9-4.9h0.7l-2.3,5.6H3.5z"/>
		<path id="XMLID_125_" class="st0" d="M24.8,32.1v1.8h2.8v0.6h-2.8v1.9H28v0.6h-3.9v-5.6h3.8v0.6H24.8z"/>
		<path id="XMLID_123_" class="st0" d="M50.3,37.1l-3.4-4.5v4.5h-0.6v-5.6H47l3.4,4.5v-4.5H51v5.6H50.3z"/>
		<path id="XMLID_121_" class="st0" d="M71.6,32.1v5H71v-5h-1.8v-0.6h4.3v0.6H71.6z"/>
		<path id="XMLID_119_" class="st0" d="M96.3,34.8c0,1.5-0.9,2.3-2.3,2.3c-1.5,0-2.4-0.9-2.4-2.3v-3.3h0.6v3.3
			c0,1.1,0.7,1.7,1.7,1.7c1.1,0,1.7-0.6,1.7-1.7v-3.3h0.6V34.8z"/>
		<path id="XMLID_116_" class="st0" d="M117.5,35.3c-0.1,0-0.2,0-0.4,0h-1.5v1.8h-0.6v-5.6h2.1c1.4,0,2.2,0.7,2.2,1.9
			c0,0.9-0.4,1.6-1.3,1.8l1.3,1.9h-0.7L117.5,35.3z M117.1,34.7c1,0,1.6-0.4,1.6-1.3c0-0.8-0.6-1.3-1.6-1.3h-1.5v2.6H117.1z"/>
		<path id="XMLID_114_" class="st0" d="M138.5,32.1v1.8h2.8v0.6h-2.8v1.9h3.3v0.6h-3.9v-5.6h3.8v0.6H138.5z"/>
		<path id="XMLID_109_" class="st0" d="M163.6,32l-0.3,0.6c-0.5-0.3-1.1-0.5-1.5-0.5c-0.7,0-1.2,0.3-1.2,0.7c0,1.4,3.2,0.7,3.1,2.7
			c0,0.9-0.8,1.5-2,1.5c-0.8,0-1.6-0.4-2.1-0.9l0.3-0.6c0.5,0.5,1.2,0.8,1.9,0.8c0.8,0,1.3-0.3,1.3-0.9c0-1.5-3.1-0.7-3.1-2.7
			c0-0.9,0.8-1.4,1.9-1.4C162.5,31.5,163.2,31.7,163.6,32z"/>
	</g>
	<path id="XMLID_107_" class="st0" d="M158.3,16.3c2.8-1.3,4.7-4.1,4.7-7.3c0-4.5-3.6-8.1-8.1-8.1h-14.3v0.1v3.4v18h3.5v-18h10.8
		c2.5,0,4.6,2.1,4.6,4.6s-2.1,4.6-4.6,4.6v3.5l5.3,5.3h4.3L158.3,16.3z"/>
	<g id="XMLID_73_">
		<g id="XMLID_79_">
			<path id="XMLID_85_" class="st0" d="M112.6,0.9v3.5h17.9V0.9H112.6z M112.6,13.4h17.9V9.9h-17.9V13.4z M112.6,22.4h17.9v-3.5
				h-17.9V22.4z"/>
		</g>
	</g>
	<path id="XMLID_72_" class="st0" d="M100.8,0.9H82.6v3.5h14.9L83.4,18.5c-1.4,1.4-0.4,3.9,1.6,3.9h17.4v-3.5H88l14.3-14.3
		C103.7,3.2,102.7,0.9,100.8,0.9z"/>
	<g id="XMLID_37_">
		<g id="XMLID_71_">
			<path id="XMLID_74_" class="st0" d="M55.6,0.9v3.5h17.9V0.9H55.6z M55.6,13.4h17.9V9.9H55.6V13.4z M55.6,22.4h17.9v-3.5H55.6
				V22.4z"/>
		</g>
	</g>
	<polygon id="XMLID_31_" class="st0" points="32.1,18.9 32.1,0.9 28.6,0.9 28.6,18.9 28.6,22.3 28.6,22.4 46.5,22.4 46.5,18.9 	"/>
	<g id="XMLID_3_">
		<g id="XMLID_51_">
			<path id="XMLID_52_" class="st0" d="M0.6,0.9v3.5h17.9V0.9H0.6z M0.6,13.4h17.9V9.9H0.6V13.4z M0.6,22.4h17.9v-3.5H0.6V22.4z"/>
		</g>
	</g>
</g>
</svg>
