<?xml version="1.0" encoding="utf-8"?>
<!-- Generator: Adobe Illustrator 16.0.0, SVG Export Plug-In . SVG Version: 6.00 Build 0)  -->
<!DOCTYPE svg PUBLIC "-//W3C//DTD SVG 1.1//EN" "http://www.w3.org/Graphics/SVG/1.1/DTD/svg11.dtd">
<svg version="1.1" id="Layer_1" xmlns="http://www.w3.org/2000/svg" xmlns:xlink="http://www.w3.org/1999/xlink" x="0px" y="0px"
	 width="92.25px" height="82.458px" viewBox="0 0 92.25 82.458" enable-background="new 0 0 92.25 82.458" xml:space="preserve">
<g>
	<path fill="#E8EBF9" d="M81.044,53.185H58.842c-2.694,0-4.901-2.205-4.901-4.9V12.224c0-2.697,2.207-4.902,4.901-4.902h22.202
		c2.697,0,4.902,2.205,4.902,4.902v36.061C85.946,50.979,83.741,53.185,81.044,53.185"/>
	<path fill="#E8EBF9" d="M12.583,75.136H7.941c-0.901,0-1.638-0.736-1.638-1.639v-4.643c0-0.9,0.736-1.637,1.638-1.637h4.642
		c0.901,0,1.64,0.736,1.64,1.637v4.643C14.223,74.399,13.484,75.136,12.583,75.136"/>
</g>
<g>
	<path fill="none" stroke="#173665" stroke-width="2" stroke-miterlimit="10" d="M34.25,28.501h25.625
		c0.553,0,1.375,0.176,1.375,0.729v32c0,0.553-0.822,1.271-1.375,1.271h-29l-9.625,9.729v-9.729h-5.375
		c-0.553,0-0.625-0.719-0.625-1.271v-32c0-0.553,0.072-0.729,0.625-0.729H28.25"/>
	<path fill="none" stroke="#173665" stroke-width="2" stroke-miterlimit="10" d="M58.25,54.501H31.875
		c-0.553,0-0.625-0.719-0.625-1.271v-32c0-0.553,0.072-0.729,0.625-0.729h29L71.25,10.229v10.271h4.625
		c0.553,0,1.375,0.176,1.375,0.729v32c0,0.553-0.822,1.271-1.375,1.271H64.25"/>
	<polygon fill="none" stroke="#5F78FB" stroke-width="2" stroke-miterlimit="10" points="41.25,47.229 41.25,35.229 53.25,41.229 	
		"/>
</g>
</svg>
