<?xml version="1.0" encoding="utf-8"?>
<!-- Generator: Adobe Illustrator 16.0.0, SVG Export Plug-In . SVG Version: 6.00 Build 0)  -->
<!DOCTYPE svg PUBLIC "-//W3C//DTD SVG 1.1//EN" "http://www.w3.org/Graphics/SVG/1.1/DTD/svg11.dtd">
<svg version="1.1" id="Layer_1" xmlns="http://www.w3.org/2000/svg" xmlns:xlink="http://www.w3.org/1999/xlink" x="0px" y="0px"
	 width="92.25px" height="82.458px" viewBox="0 0 92.25 82.458" enable-background="new 0 0 92.25 82.458" xml:space="preserve">
<g>
	<path fill="#E8EBF9" d="M81.044,53.185H58.842c-2.694,0-4.901-2.205-4.901-4.9V12.224c0-2.697,2.207-4.902,4.901-4.902h22.202
		c2.697,0,4.902,2.205,4.902,4.902v36.061C85.946,50.979,83.741,53.185,81.044,53.185"/>
	<path fill="#E8EBF9" d="M12.583,75.136H7.941c-0.901,0-1.638-0.736-1.638-1.639v-4.643c0-0.9,0.736-1.637,1.638-1.637h4.642
		c0.901,0,1.64,0.736,1.64,1.637v4.643C14.223,74.399,13.484,75.136,12.583,75.136"/>
</g>
<g>
	<g>
		<g>
			<line fill="none" stroke="#173665" stroke-width="2" stroke-miterlimit="10" x1="77.25" y1="21.001" x2="77.25" y2="51.001"/>
			<polyline fill="none" stroke="#5F78FB" stroke-width="2" stroke-miterlimit="10" points="70.25,10.001 77.25,10.001 
				77.25,17.001 			"/>
			<polyline fill="none" stroke="#173665" stroke-width="2" stroke-miterlimit="10" points="15.25,24.001 15.25,10.001 
				66.25,10.001 			"/>
			<line fill="none" stroke="#173665" stroke-width="2" stroke-miterlimit="10" x1="18.25" y1="46.001" x2="74.25" y2="46.001"/>
			<polyline fill="none" stroke="#5F78FB" stroke-width="2" stroke-miterlimit="10" points="15.25,51.001 15.25,30.228 
				23.063,22.228 33.969,33.228 47.922,19.228 57.898,29.228 77.074,10.115 			"/>
			<g>
				<polyline fill="none" stroke="#173665" stroke-width="2" stroke-miterlimit="10" points="27.875,63.228 34.875,67.228 
					34.875,67.228 42.875,63.228 				"/>
				<path fill="none" stroke="#173665" stroke-width="2" stroke-miterlimit="10" d="M70.063,63.228l7.188,4c0,0,0,0.344,0,2
					c0,1.658-1.375,2.773-2.375,2.773h-58c-1,0-1.625-1.115-1.625-2.773c0-1.656,0-2,0-2l6.906-4"/>
				<polyline fill="none" stroke="#173665" stroke-width="2" stroke-miterlimit="10" points="48.875,63.228 56.875,67.228 
					56.875,67.228 63.875,63.228 				"/>
				<path fill="none" stroke="#173665" stroke-width="2" stroke-miterlimit="10" d="M29.875,57.728c0,3.5-1.963,6.5-5,6.5
					s-5-3-5-6.5s1-5.5,5-5.5S29.875,54.228,29.875,57.728z"/>
				<path fill="none" stroke="#173665" stroke-width="2" stroke-miterlimit="10" d="M50.875,57.728c0,3.5-1.963,6.5-5,6.5
					s-5-3-5-6.5s1-5.5,5-5.5S50.875,54.228,50.875,57.728z"/>
				<path fill="none" stroke="#173665" stroke-width="2" stroke-miterlimit="10" d="M71.875,57.728c0,3.5-1.963,6.5-5,6.5
					s-5-3-5-6.5s1-5.5,5-5.5S71.875,54.228,71.875,57.728z"/>
				<line fill="none" stroke="#173665" stroke-width="2" stroke-miterlimit="10" x1="35.25" y1="67.001" x2="35.25" y2="70.001"/>
				<line fill="none" stroke="#173665" stroke-width="2" stroke-miterlimit="10" x1="57.25" y1="67.001" x2="57.25" y2="70.001"/>
			</g>
			<line fill="none" stroke="#173665" stroke-width="2" stroke-miterlimit="10" x1="22.25" y1="42.001" x2="30.25" y2="42.001"/>
			<line fill="none" stroke="#173665" stroke-width="2" stroke-miterlimit="10" x1="22.25" y1="38.001" x2="30.25" y2="38.001"/>
			<line fill="none" stroke="#173665" stroke-width="2" stroke-miterlimit="10" x1="32.25" y1="42.001" x2="40.25" y2="42.001"/>
			<line fill="none" stroke="#173665" stroke-width="2" stroke-miterlimit="10" x1="32.25" y1="38.001" x2="40.25" y2="38.001"/>
			<line fill="none" stroke="#173665" stroke-width="2" stroke-miterlimit="10" x1="42.25" y1="42.001" x2="50.25" y2="42.001"/>
			<line fill="none" stroke="#173665" stroke-width="2" stroke-miterlimit="10" x1="42.25" y1="38.001" x2="50.25" y2="38.001"/>
			<line fill="none" stroke="#173665" stroke-width="2" stroke-miterlimit="10" x1="42.25" y1="34.001" x2="50.25" y2="34.001"/>
			<line fill="none" stroke="#173665" stroke-width="2" stroke-miterlimit="10" x1="42.25" y1="30.001" x2="50.25" y2="30.001"/>
			<line fill="none" stroke="#173665" stroke-width="2" stroke-miterlimit="10" x1="52.25" y1="42.001" x2="60.25" y2="42.001"/>
			<line fill="none" stroke="#173665" stroke-width="2" stroke-miterlimit="10" x1="52.25" y1="38.001" x2="60.25" y2="38.001"/>
			<line fill="none" stroke="#173665" stroke-width="2" stroke-miterlimit="10" x1="52.25" y1="34.001" x2="60.25" y2="34.001"/>
			<line fill="none" stroke="#173665" stroke-width="2" stroke-miterlimit="10" x1="62.25" y1="42.001" x2="70.25" y2="42.001"/>
			<line fill="none" stroke="#173665" stroke-width="2" stroke-miterlimit="10" x1="62.25" y1="38.001" x2="70.25" y2="38.001"/>
			<line fill="none" stroke="#173665" stroke-width="2" stroke-miterlimit="10" x1="62.25" y1="34.001" x2="70.25" y2="34.001"/>
			<line fill="none" stroke="#173665" stroke-width="2" stroke-miterlimit="10" x1="62.25" y1="30.001" x2="70.25" y2="30.001"/>
			<line fill="none" stroke="#173665" stroke-width="2" stroke-miterlimit="10" x1="22.25" y1="34.001" x2="30.25" y2="34.001"/>
		</g>
	</g>
</g>
</svg>
