<svg width="63" height="63" viewBox="0 0 63 63" fill="none" xmlns="http://www.w3.org/2000/svg">
<rect x="0.5" y="0.5" width="62" height="62" rx="9.5" stroke="#B2B2B2"/>
<g clip-path="url(#clip0_1_166)">
<path d="M21.3292 30.4336L23.7927 31.2369C24.0695 31.327 24.2565 31.6054 24.1975 31.8883C24.1408 32.1605 23.9026 32.337 23.6449 32.337C23.5866 32.337 23.5275 32.3278 23.4691 32.3088L20.9779 31.4963C20.6823 31.4 20.5213 31.0837 20.6183 30.7902C20.7153 30.4968 21.034 30.337 21.3295 30.4333L21.3292 30.4336Z" fill="#353844"/>
<path d="M46.4072 39.739C44.6796 39.739 43.2789 41.1295 43.2789 42.8446C43.2789 44.5597 44.6796 45.9502 46.4072 45.9502C48.1347 45.9502 49.5354 44.5597 49.5354 42.8446C49.5354 41.1295 48.1347 39.739 46.4072 39.739ZM46.4072 43.7521C45.9025 43.7521 45.4931 43.3457 45.4931 42.8443C45.4931 42.3429 45.9025 41.9368 46.4072 41.9368C46.9119 41.9368 47.3216 42.3432 47.3216 42.8443C47.3216 43.3453 46.9122 43.7521 46.4072 43.7521Z" fill="#353844"/>
<path d="M11.8412 44.0134C11.4018 44.0134 11.1689 44.5197 11.4467 44.8577C12.0193 45.5546 12.8902 46 13.8673 46C14.8444 46 15.715 45.5546 16.2876 44.8577C16.5654 44.5197 16.3325 44.0134 15.8931 44.0134H11.8412Z" fill="#353844"/>
<path d="M15.4666 29.0218H18.8231C19.3044 29.0218 19.7309 28.7133 19.8787 28.2584L21.5667 23.0555C21.6907 22.673 21.4034 22.2813 20.9987 22.2813H18.2399C17.7988 22.2813 17.3994 22.541 17.2232 22.9425L14.9193 28.1926C14.7475 28.5839 15.0364 29.0218 15.4666 29.0218Z" fill="#353844"/>
<path d="M52.8708 41.8045H50.9816C50.7514 41.8045 50.5805 42.0085 50.6154 42.2342C50.6461 42.4333 50.6629 42.637 50.6629 42.8446C50.6629 43.0824 50.6415 43.3149 50.6023 43.5415C50.5623 43.7717 50.7326 43.984 50.9678 43.984H52.9022C53.583 43.984 54.1207 43.3657 53.9762 42.6651C53.871 42.1556 53.3947 41.8042 52.8708 41.8042V41.8045Z" fill="#353844"/>
<path d="M14.5179 41.2618L13.9452 38.7847C13.8198 38.2423 13.2726 37.9004 12.7279 38.0311C10.9229 38.464 9.49613 39.8585 9.03265 41.6391C8.86738 42.2741 9.35164 42.8944 10.0124 42.8944H14.1989C14.6782 42.8944 14.9767 42.3972 14.7692 41.9682C14.6623 41.7472 14.5766 41.5114 14.5179 41.2618Z" fill="#353844"/>
<path d="M18.1049 30.1411H15.3379C14.7689 30.1411 14.2853 30.5672 14.2325 31.1295C14.0666 32.899 14.152 34.6753 14.502 36.1899L15.1822 39.1325L15.6157 41.0074C15.9017 42.2243 17.0853 42.8944 17.4811 42.8944H41.3274C41.5197 42.8944 41.7127 42.8446 41.8674 42.731C42.0429 42.6019 42.1709 42.413 42.2042 42.1998C42.5179 40.1755 44.2824 38.6203 46.4078 38.6203C47.8151 38.6203 49.0617 39.3044 49.8362 40.353C49.99 40.5613 50.2334 40.6854 50.4937 40.6854H52.02C52.4208 40.6854 52.7461 40.3629 52.7461 39.9646V31.2759C52.7461 30.6491 52.2345 30.1411 51.6031 30.1411H44.2633C43.2763 30.1411 42.3886 30.7375 42.0211 31.647L40.7164 34.879C40.3493 35.7884 39.4616 36.3848 38.4746 36.3848H34.9993C34.3679 36.3848 33.8563 35.8769 33.8563 35.25V22.297C33.8563 21.6702 34.3679 21.1623 34.9993 21.1623H42.665C43.5531 21.1623 44.2729 21.8769 44.2729 22.7585V27.887C44.2729 28.5138 44.7845 29.0218 45.4159 29.0218H51.6027C52.2341 29.0218 52.7458 28.5138 52.7458 27.887V19.4734C52.7458 17.6859 51.3197 16.2214 49.5202 16.1637C42.7604 15.9479 30.3058 15.5189 16.8606 18.203C16.384 18.2983 16.1214 18.7539 16.2926 19.2058C16.7386 20.3828 17.873 21.1623 19.1401 21.1623H31.5854C32.2168 21.1623 32.7284 21.6702 32.7284 22.297V35.2258C32.7284 35.8526 32.2168 36.3606 31.5854 36.3606H27.2063C26.5749 36.3606 26.0632 36.8685 26.0632 37.4953V40.6399C26.0632 41.2667 25.5516 41.7747 24.9202 41.7747H21.375C20.5467 41.7747 19.8586 41.141 19.7962 40.3213L19.3482 34.4372C19.3324 34.2305 19.3245 34.0236 19.3245 33.8166V31.3516C19.3245 30.6828 18.7785 30.1408 18.1049 30.1408V30.1411Z" fill="#353844"/>
</g>
<defs>
<clipPath id="clip0_1_166">
<rect width="45" height="30" fill="white" transform="translate(9 16)"/>
</clipPath>
</defs>
</svg>
