<svg width="40" height="37" viewBox="0 0 40 37" fill="none" xmlns="http://www.w3.org/2000/svg">
<path d="M26.5834 30.7471C28.862 30.7471 30.7082 28.9001 30.7082 26.6224C30.7082 24.3446 28.8611 22.4976 26.5834 22.4976C26.4507 22.4976 26.3198 22.5048 26.1898 22.5174C26.4407 21.9505 26.5834 21.3239 26.5834 20.664C26.5834 18.1326 24.5314 16.0806 22 16.0806C20.8589 16.0806 19.818 16.5004 19.0154 17.1901C18.3022 14.6985 16.0119 12.873 13.2909 12.873C10.0003 12.873 7.33256 15.5408 7.33256 18.8314C7.33256 19.4868 7.44269 20.1151 7.63769 20.7055C5.14242 21.008 3.20776 23.1295 3.20776 25.7069C3.20776 28.4911 5.46471 30.7489 8.24978 30.7489H26.5834V30.7471Z" stroke="#818490" stroke-width="2" stroke-linecap="round" stroke-linejoin="round"/>
<path d="M30.8717 22.0262H33.0547C35.1184 22.0262 36.7922 20.3524 36.7922 18.2887C36.7922 16.2249 35.1184 14.5512 33.0547 14.5512C32.9355 14.5512 32.8163 14.5566 32.6972 14.5674C32.9247 14.0528 33.0547 13.4895 33.0547 12.8882C33.0547 10.597 31.1967 8.73907 28.9001 8.73907C27.8655 8.73907 26.923 9.11824 26.1972 9.74116C25.5526 7.48241 23.478 5.83032 21.0134 5.83032C18.0884 5.83032 15.7105 8.14866 15.6184 11.052" stroke="#818490" stroke-width="2" stroke-linecap="round" stroke-linejoin="round"/>
</svg>
