<svg width="114" height="23" viewBox="0 0 114 23" fill="none" xmlns="http://www.w3.org/2000/svg">
<path d="M45.321 13.4729C43.1587 13.4729 41.4399 12.4749 41.4399 10.5714C41.4399 8.77866 42.9924 7.85459 45.2656 7.59585L49.5348 7.11534V6.87508C49.5348 5.65531 48.5368 4.84213 46.6517 4.84213C45.0068 4.84213 43.6023 5.61835 43.1957 6.72723L41.8096 6.09886C42.4195 4.4725 44.4339 3.41907 46.6886 3.41907C49.4793 3.41907 51.1427 4.65732 51.1427 6.89356V11.2552C51.1427 11.9759 51.6232 12.1792 52.6951 11.939V13.2696C50.847 13.6208 49.849 12.937 49.6826 11.8096L49.6641 11.7172C48.7955 12.8261 47.1507 13.4729 45.321 13.4729ZM49.5348 9.40703V8.446L45.5058 8.90803C44.0643 9.07436 43.0663 9.44399 43.0663 10.5529C43.0663 11.5509 44.0088 12.1053 45.4504 12.1053C47.354 12.1053 49.5348 11.2182 49.5348 9.40703Z" fill="white"/>
<path d="M30.3113 10.9964L31.531 9.97995C32.3997 11.4215 33.8782 12.0683 35.7448 12.0683C37.4266 12.0683 38.7203 11.5878 38.7203 10.4974C38.7203 9.35158 37.5745 9.31462 35.2088 9.05588C32.8063 8.77866 30.9027 8.39055 30.9027 6.41305C30.9027 4.63884 32.6954 3.41907 35.2828 3.41907C37.6114 3.41907 39.3487 4.34314 40.1249 5.58139L38.9975 6.5609C38.2767 5.41505 36.9276 4.80517 35.2273 4.80517C33.5086 4.80517 32.5106 5.37809 32.5106 6.2652C32.5106 7.22623 33.4901 7.33711 35.56 7.57737C38.1474 7.87307 40.3651 8.09485 40.3651 10.3681C40.3651 12.401 38.1659 13.4729 35.7633 13.4729C33.3237 13.4729 31.2538 12.6228 30.3113 10.9964Z" fill="white"/>
<path d="M27.3408 1.92206V0H29.152V1.92206H27.3408ZM29.0781 3.60387V13.2696H27.4147V3.60387H29.0781Z" fill="white"/>
<path d="M21.3152 13.2696H19.6149L14.6619 3.60388H16.51L20.4835 11.4585L24.4385 3.60388H26.2497L21.3152 13.2696Z" fill="white"/>
<path d="M13.2573 13.2697V11.0889H15.3642V13.2697H13.2573Z" fill="white"/>
<path d="M7.04365 12.0314C8.91027 12.0314 10.2409 11.0703 10.6845 9.72121L12.0336 10.4235C11.4607 12.0499 9.64952 13.4729 7.04365 13.4729C3.84638 13.4729 1.55469 11.403 1.55469 8.446C1.55469 5.58139 3.79093 3.41907 7.04365 3.41907C10.204 3.41907 12.1815 5.52594 12.1815 8.22422V8.87107H3.1256C3.3289 10.7931 4.91829 12.0314 7.04365 12.0314ZM6.96972 4.82365C5.10311 4.82365 3.56916 5.85861 3.19953 7.59585H10.5551C10.4442 6.28368 9.13204 4.82365 6.96972 4.82365Z" fill="white"/>
<path d="M2.8 16.971H3.505L5.33 20.561H4.65L4.195 19.661H2.11L1.655 20.561H0.97L2.8 16.971ZM3.155 17.601L2.395 19.101H3.915L3.155 17.601ZM7.27664 20.561H6.64664V16.971H10.0516V17.531H7.27664V18.506H9.76664V19.066H7.27664V20.561ZM13.3561 16.916C14.2811 16.916 14.9811 17.331 15.2561 18.021L14.7261 18.316C14.4961 17.776 14.0211 17.481 13.3611 17.481C12.4861 17.481 11.8661 17.996 11.8661 18.761C11.8661 19.531 12.4761 20.051 13.3311 20.051C14.0461 20.051 14.7111 19.696 14.7411 19.186H13.0261V18.626H15.3061V20.561H14.7061V20.101C14.4911 20.381 13.9611 20.616 13.3311 20.616C12.0961 20.616 11.2061 19.826 11.2061 18.756C11.2061 17.691 12.1211 16.916 13.3561 16.916ZM19.9737 16.971H20.6137V20.561H19.9737V18.991H17.5337V20.561H16.8937V16.971H17.5337V18.431H19.9737V16.971ZM23.7531 16.971H24.4581L26.2831 20.561H25.6031L25.1481 19.661H23.0631L22.6081 20.561H21.9231L23.7531 16.971ZM24.1081 17.601L23.3481 19.101H24.8681L24.1081 17.601ZM31.2248 16.971V20.561H30.6648L28.2148 17.776V20.561H27.5998V16.971H28.2598L30.6098 19.636V16.971H31.2248ZM33.5464 16.971V20.561H32.9064V16.971H33.5464ZM34.8398 19.706L35.2998 19.281C35.7048 19.881 36.3548 20.061 36.8948 20.061C37.5398 20.061 38.0048 19.846 38.0048 19.526C38.0048 19.146 37.7048 19.116 36.6548 18.996C35.7398 18.891 35.0898 18.741 35.0898 18.041C35.0898 17.391 35.7298 16.916 36.7298 16.916C37.5248 16.916 38.2448 17.216 38.5498 17.686L38.0898 18.071C37.8298 17.686 37.3298 17.471 36.7048 17.471C35.9948 17.471 35.6948 17.716 35.6948 17.976C35.6948 18.261 35.9248 18.331 36.8648 18.441C37.9548 18.566 38.6298 18.686 38.6298 19.451C38.6298 20.216 37.8548 20.616 36.8798 20.616C35.9948 20.616 35.1748 20.251 34.8398 19.706ZM43.595 17.531H41.975V20.561H41.335V17.531H39.715V16.971H43.595V17.531ZM45.882 16.971H46.587L48.412 20.561H47.732L47.277 19.661H45.192L44.737 20.561H44.052L45.882 16.971ZM46.237 17.601L45.477 19.101H46.997L46.237 17.601ZM53.3537 16.971V20.561H52.7937L50.3437 17.776V20.561H49.7287V16.971H50.3887L52.7387 19.636V16.971H53.3537Z" fill="white"/>
<path d="M66.7347 9.12882C64.9101 9.12882 64 8.22425 64 6.41513C64 5.56971 64.2227 4.87712 64.6681 4.33241C65.15 3.74826 65.816 3.45496 66.6662 3.45496C68.2016 3.45496 68.9683 4.35459 68.9683 6.15633V9.12635H66.7368L66.7347 9.12882ZM67.6534 6.34858C67.6534 5.23697 67.2893 4.67994 66.5612 4.67994C66.1865 4.67994 65.8888 4.83029 65.6682 5.12606C65.4519 5.4169 65.3449 5.79401 65.3449 6.26231C65.3449 7.35913 65.8567 7.90877 66.8803 7.90877H67.6534V6.34858Z" fill="white"/>
<path d="M68.8218 11.9977L68.9224 10.7654C69.2051 10.8566 69.4814 10.9034 69.749 10.9034C70.1174 10.9034 70.3893 10.7875 70.5607 10.5583C70.7577 10.2971 70.8541 9.86572 70.8541 9.26185V3.60524H72.1989V7.90624H73.2011V9.12876H72.1989V9.17559C72.1989 11.1326 71.3573 12.1111 69.6784 12.1111C69.3786 12.1111 69.0937 12.0717 68.8218 11.9953V11.9977ZM71.0189 2.39012C70.8797 2.23238 70.8091 2.04013 70.8091 1.8109C70.8091 1.58168 70.8797 1.39683 71.0189 1.23662C71.156 1.07887 71.3209 1 71.5179 1C71.7149 1 71.8777 1.07887 72.0169 1.23662C72.1539 1.39683 72.2203 1.58908 72.2203 1.8109C72.2203 2.03273 72.1518 2.22498 72.0169 2.38519C71.8777 2.54294 71.7106 2.61934 71.5179 2.61934C71.3252 2.61934 71.156 2.54294 71.0189 2.39012Z" fill="white"/>
<path d="M73.0427 7.90622H79.7832V3.60522H81.1281V9.12874H73.0427V7.90622ZM79.22 11.453C79.0872 11.6107 78.9245 11.6872 78.7317 11.6872C78.539 11.6872 78.3827 11.6107 78.2542 11.4579C78.1236 11.3051 78.0593 11.1153 78.0593 10.891C78.0593 10.6667 78.1236 10.4868 78.2542 10.3291C78.387 10.1713 78.5454 10.0949 78.7317 10.0949C78.9181 10.0949 79.0872 10.1713 79.22 10.3241C79.3506 10.4819 79.4149 10.6692 79.4149 10.891C79.4149 11.1129 79.3506 11.3002 79.22 11.453ZM80.9054 11.453C80.7726 11.6107 80.612 11.6872 80.4278 11.6872C80.2436 11.6872 80.0787 11.6107 79.9503 11.4579C79.8218 11.3051 79.7554 11.1153 79.7554 10.891C79.7554 10.6667 79.8196 10.4868 79.9503 10.3291C80.083 10.1713 80.2436 10.0949 80.4278 10.0949C80.612 10.0949 80.7769 10.1713 80.9054 10.3241C81.0338 10.4819 81.1002 10.6692 81.1002 10.891C81.1002 11.1129 81.036 11.2953 80.9054 11.453Z" fill="white"/>
<path d="M82.4103 11.9337L82.496 10.6668C83.0271 10.7999 83.5582 10.8664 84.085 10.8664C85.2649 10.8664 85.8538 10.3464 85.8538 9.30626V9.1288H85.0572C83.2326 9.1288 82.3225 8.22177 82.3225 6.40524C82.3225 5.57216 82.5388 4.88695 82.9692 4.3521C83.4532 3.75563 84.1406 3.4574 85.0272 3.4574C85.8281 3.4574 86.5391 3.59296 87.1601 3.86408V9.15344C87.1601 10.026 86.9117 10.7161 86.417 11.2288C85.8645 11.8031 85.0486 12.089 83.965 12.089C83.4532 12.089 82.935 12.0372 82.4103 11.9337ZM85.8517 4.89188C85.5926 4.75139 85.2692 4.67992 84.8794 4.67992C84.4897 4.67992 84.207 4.83027 83.9864 5.12604C83.7702 5.41688 83.6631 5.79398 83.6631 6.26229C83.6631 7.3591 84.1749 7.90874 85.1985 7.90874H85.8517V4.89188Z" fill="white"/>
<path d="M88.1086 6.71581V5.50562H95.4423V6.71581H88.1086Z" fill="white"/>
<path d="M100.434 10.408C99.1021 10.408 98.1299 10.0974 97.5196 9.47383C96.9649 8.91186 96.6865 8.06399 96.6865 6.93267C96.6865 6.25979 96.7743 5.6436 96.9499 5.08657L98.3911 4.81791C98.1577 5.40206 98.0421 6.05029 98.0421 6.75767C98.0421 7.61048 98.2263 8.22173 98.5946 8.59391C98.9843 8.99074 99.6418 9.19038 100.573 9.19038H101.271V4.96086C101.903 4.81051 107.406 4.73657 108.14 4.73657C108.997 4.73657 109.616 4.96826 109.995 5.43163C110.331 5.84571 110.498 6.47669 110.498 7.32949V8.99813H109.192V7.49463C109.192 6.92774 109.108 6.53091 108.943 6.30169C108.776 6.07247 108.483 5.95663 108.061 5.95663C107.836 5.95663 102.79 5.97881 102.567 6.02564V10.408H100.434Z" fill="white"/>
<path d="M111.835 2.12634H113.18V10.4079H111.835V2.12634Z" fill="white"/>
<path d="M67.124 19.5325L67.126 19.5344C67.1259 20.8274 66.5874 21.4728 65.5127 21.4729C64.5049 21.4729 64 20.8625 64 19.6409C64 19.246 64.0455 18.8632 64.1367 18.4885L64.917 18.3274C64.8089 18.7548 64.7539 19.1674 64.7539 19.5637C64.7539 20.3929 65.0258 20.8068 65.5674 20.8069C66.109 20.8069 66.37 20.3987 66.3701 19.5833V16.9583H67.124V19.5325ZM68.5391 19.3186H73.957V16.9583H74.7119V19.3186H79.5479C79.7375 19.3186 79.8699 19.265 79.9443 19.1555C80.0248 19.0406 80.0644 18.828 80.0645 18.5198V17.345H80.8184V18.5383C80.8184 18.849 80.841 19.0601 80.8877 19.1711C80.9417 19.3036 83.1104 19.3702 83.2764 19.3704C83.5815 19.3704 83.7354 19.0958 83.7354 18.5452V17.0881H84.4629V18.7063C84.4629 18.9579 84.5091 19.1245 84.6016 19.2043C84.6924 19.2814 86.9341 19.3206 87.2031 19.3206H87.3506C87.3782 19.0798 87.3926 18.8208 87.3926 18.5461C87.3926 17.9524 87.3375 17.3762 87.2246 16.8176L87.9619 16.7043C88.0844 17.2819 88.1475 17.8771 88.1475 18.4885C88.1475 18.7278 88.1371 19.005 88.1191 19.3186H93.5244V16.9583H94.2783V19.9905H87.1182C86.8071 19.9905 84.5117 19.9598 84.3604 19.9016C84.1983 19.8367 84.0758 19.7179 83.9941 19.5461C83.8584 19.8762 83.5695 20.0403 83.1299 20.0403C82.7203 20.0402 80.4041 19.8733 80.3057 19.5393C80.188 19.8396 79.9345 19.9904 79.543 19.9905H67.7852V15.4446H68.5391V19.3186ZM95.6836 19.3186H100.501C101.028 19.3186 101.472 19.2529 101.834 19.1204C101.326 18.5833 100.925 18.2696 100.633 18.179L100.694 17.5715C101.282 17.0953 101.833 16.8567 102.35 16.8567C102.752 16.8567 103.061 16.9627 103.274 17.175C103.463 17.3643 103.557 17.6102 103.557 17.9143C103.557 18.3716 103.362 18.7846 102.973 19.1526C103.178 19.2634 103.391 19.3185 103.61 19.3186H108.354C108.487 19.3186 108.594 19.3338 108.673 19.3635C108.46 19.189 108.354 18.8817 108.354 18.4407C108.355 17.9998 108.477 17.6412 108.724 17.3518C108.995 17.0355 109.369 16.8772 109.842 16.8772C110.704 16.8773 111.135 17.371 111.135 18.3596V19.9905H103.524C103.094 19.9905 102.7 19.8556 102.345 19.5891C101.815 19.8556 101.185 19.9905 100.455 19.9905H94.9297V15.4446H95.6836V19.3186ZM112.515 19.9905H111.76V15.4446H112.515V19.9905ZM109.786 17.5481C109.576 17.5481 109.408 17.6307 109.283 17.7942C109.164 17.9538 109.104 18.1612 109.104 18.4182C109.104 19.0201 109.39 19.3215 109.962 19.3215H110.397V18.4651L110.398 18.4641C110.398 17.854 110.195 17.5481 109.786 17.5481ZM102.262 17.4807C102.025 17.4808 101.736 17.6092 101.393 17.8674C101.542 17.9353 101.895 18.2322 102.452 18.7581V18.759C102.689 18.5494 102.808 18.303 102.808 18.0217C102.808 17.8621 102.763 17.7344 102.673 17.637C102.576 17.5316 102.438 17.4807 102.262 17.4807ZM65.5137 16.8772C65.6241 16.8772 65.7137 16.9209 65.793 17.0061C65.8698 17.094 65.9072 17.1989 65.9072 17.3206C65.9072 17.4423 65.8686 17.5467 65.793 17.636C65.715 17.7224 65.6217 17.7649 65.5137 17.7649C65.4056 17.7649 65.3103 17.7228 65.2334 17.6389C65.1554 17.5523 65.1162 17.4463 65.1162 17.3206C65.1163 17.1951 65.1556 17.0939 65.2334 17.0061C65.3115 16.9182 65.4032 16.8772 65.5137 16.8772ZM73.75 15.593C73.8533 15.593 73.9499 15.6367 74.0244 15.7219C74.0976 15.8058 74.1338 15.9104 74.1338 16.0334C74.1337 16.1562 74.0975 16.2547 74.0244 16.3411C73.9499 16.4276 73.8581 16.47 73.75 16.47C73.6421 16.4698 73.5544 16.4262 73.4824 16.3411C73.4094 16.2574 73.3731 16.1549 73.373 16.0334C73.373 15.9118 73.4092 15.8071 73.4824 15.7219C73.5568 15.6355 73.6469 15.5931 73.75 15.593ZM74.7002 15.593C74.8035 15.593 74.8967 15.6367 74.9688 15.7219C75.0419 15.8058 75.0781 15.9104 75.0781 16.0334C75.078 16.1562 75.0417 16.2547 74.9688 16.3411C74.8943 16.4276 74.8035 16.47 74.7002 16.47C74.5971 16.4698 74.5046 16.4262 74.4326 16.3411C74.3608 16.2573 74.3233 16.1549 74.3232 16.0334C74.3232 15.9118 74.3594 15.8071 74.4326 15.7219C74.507 15.6355 74.5971 15.5931 74.7002 15.593ZM93.9023 15.5295C94.0105 15.5295 94.1045 15.5732 94.1826 15.6584C94.2594 15.7463 94.2969 15.8522 94.2969 15.9739C94.2968 16.0953 94.258 16.2006 94.1826 16.2883C94.1045 16.3749 94.0105 16.4172 93.9023 16.4172C93.7944 16.4172 93.6999 16.375 93.623 16.2913C93.5463 16.2048 93.5089 16.0995 93.5088 15.9739C93.5088 15.8481 93.5474 15.7477 93.623 15.6584C93.7011 15.572 93.7943 15.5296 93.9023 15.5295ZM109.77 15.5042C109.88 15.5042 109.97 15.547 110.046 15.6321C110.124 15.72 110.163 15.8259 110.163 15.9475C110.163 16.0692 110.124 16.1737 110.046 16.2629C109.969 16.3495 109.878 16.3918 109.77 16.3918C109.661 16.3918 109.566 16.3497 109.489 16.2659C109.411 16.1779 109.372 16.072 109.372 15.9475C109.372 15.8232 109.411 15.72 109.489 15.6321C109.567 15.5442 109.659 15.5042 109.77 15.5042ZM102.256 15.4875C102.364 15.4875 102.459 15.5324 102.536 15.6204C102.614 15.7069 102.653 15.8114 102.653 15.9358C102.653 16.0601 102.614 16.162 102.536 16.2512C102.459 16.3378 102.366 16.3792 102.256 16.3792C102.145 16.3791 102.055 16.3363 101.979 16.2512C101.901 16.1647 101.862 16.0602 101.862 15.9358C101.862 15.8114 101.901 15.7069 101.979 15.6204C102.056 15.5324 102.148 15.4876 102.256 15.4875Z" fill="white"/>
</svg>
