<svg width="140" height="16" viewBox="0 0 140 16" fill="none" xmlns="http://www.w3.org/2000/svg">
<path d="M125.708 9.61722H126.508C127.042 9.61722 127.413 9.4818 127.622 9.21097C127.847 8.92451 127.96 8.39847 127.96 7.63284V4.71878H130.078V7.67972C130.078 8.45055 130.144 8.97399 130.275 9.25003C130.426 9.57816 130.73 9.74222 131.185 9.74222C132.043 9.74222 132.472 9.05993 132.472 7.69534V4.07816H134.512V8.09378C134.512 8.71878 134.642 9.13024 134.904 9.32816C135.155 9.52086 135.657 9.61722 136.41 9.61722H136.826C136.905 9.01826 136.944 8.37763 136.944 7.69534C136.944 6.22138 136.787 4.7917 136.473 3.40628L138.545 3.12503C138.89 4.55732 139.063 6.03388 139.063 7.55472C139.063 8.90368 138.981 10.1459 138.819 11.2813H136.167C135.294 11.2813 134.645 11.2084 134.221 11.0625C133.766 10.9011 133.424 10.6068 133.193 10.1797C132.812 10.9974 132.003 11.4063 130.769 11.4063C129.623 11.4063 128.912 10.9922 128.635 10.1641C128.305 10.9089 127.591 11.2813 126.493 11.2813H125.708V9.61722Z" fill="#C59714"/>
<path d="M109.183 9.61722H122.248V3.75784H124.366V9.61722H125.943V11.2813H109.183V9.61722ZM121.667 13.6797C121.667 13.9818 121.565 14.237 121.361 14.4453C121.152 14.6589 120.895 14.7657 120.592 14.7657C120.294 14.7657 120.043 14.6615 119.839 14.4532C119.635 14.2448 119.533 13.987 119.533 13.6797C119.533 13.3828 119.635 13.1276 119.839 12.9141C120.048 12.7006 120.299 12.5938 120.592 12.5938C120.895 12.5938 121.152 12.6979 121.361 12.9063C121.565 13.1198 121.667 13.3776 121.667 13.6797ZM124.319 13.6797C124.319 13.9766 124.217 14.2318 124.013 14.4453C123.804 14.6589 123.553 14.7657 123.26 14.7657C122.962 14.7657 122.71 14.6615 122.506 14.4532C122.302 14.2448 122.2 13.987 122.2 13.6797C122.2 13.3828 122.302 13.1276 122.506 12.9141C122.716 12.7006 122.967 12.5938 123.26 12.5938C123.558 12.5938 123.809 12.6979 124.013 12.9063C124.217 13.1198 124.319 13.3776 124.319 13.6797Z" fill="#C59714"/>
<path d="M105.699 3.05176e-05H107.818V9.61722H109.427V11.2813H105.699V3.05176e-05Z" fill="#C59714"/>
<path d="M85.0005 9.61722H101.266C101.318 9.19013 101.345 8.78388 101.345 8.39847C101.345 7.3568 101.109 6.59118 100.638 6.10159C100.136 5.58597 99.3202 5.32816 98.1904 5.32816C97.594 5.32816 96.9794 5.37243 96.3464 5.46097V3.81253C97.0997 3.71357 97.785 3.66409 98.4022 3.66409C100.176 3.66409 101.468 4.05732 102.278 4.84378C103.058 5.59378 103.447 6.75263 103.447 8.32034C103.447 9.20576 103.356 10.1927 103.173 11.2813H85.0005V9.61722Z" fill="#C59714"/>
<path d="M69.4018 9.61722H81.6972V3.75784H83.8157V9.61722H85.2438V11.2813H69.4018V9.61722ZM81.1165 2.54691C80.8184 2.54691 80.5673 2.44013 80.3633 2.22659C80.1593 2.01826 80.0573 1.76305 80.0573 1.46097C80.0573 1.15888 80.1593 0.901072 80.3633 0.687531C80.5725 0.473989 80.8236 0.367218 81.1165 0.367218C81.4199 0.367218 81.6762 0.473989 81.8855 0.687531C82.0895 0.895864 82.1915 1.15368 82.1915 1.46097C82.1915 1.75784 82.0895 2.01305 81.8855 2.22659C81.6762 2.44013 81.4199 2.54691 81.1165 2.54691ZM83.7843 2.54691C83.4862 2.54691 83.2351 2.44013 83.0311 2.22659C82.8271 2.01826 82.7251 1.76305 82.7251 1.46097C82.7251 1.15888 82.8271 0.901072 83.0311 0.687531C83.2403 0.473989 83.4914 0.367218 83.7843 0.367218C84.0825 0.367218 84.3336 0.473989 84.5376 0.687531C84.7416 0.895864 84.8436 1.15368 84.8436 1.46097C84.8436 1.75784 84.7416 2.01305 84.5376 2.22659C84.3283 2.44013 84.0773 2.54691 83.7843 2.54691Z" fill="#C59714"/>
<path d="M60.0332 11.2813C57.9355 11.2813 56.4055 10.8568 55.443 10.0078C54.5694 9.24222 54.1326 8.08857 54.1326 6.54691C54.1326 5.63024 54.2712 4.7917 54.5485 4.03128L56.8161 3.66409C56.4499 4.46097 56.2669 5.34118 56.2669 6.30472C56.2669 7.46618 56.5572 8.29951 57.1378 8.80472C57.7498 9.34638 58.7882 9.61722 60.2529 9.61722H61.3514V3.85941C62.3452 3.65628 63.4202 3.55472 64.5762 3.55472C65.9258 3.55472 66.8988 3.86982 67.4951 4.50003C68.0234 5.06253 68.2876 5.92451 68.2876 7.08597V9.61722H69.6372V11.2813H66.2318V7.31253C66.2318 6.5417 66.1011 6.00003 65.8395 5.68753C65.578 5.37503 65.115 5.21878 64.4507 5.21878C64.095 5.21878 63.7419 5.25003 63.3914 5.31253V11.2813H60.0332ZM62.0262 13.6797C62.0262 13.9766 61.9215 14.2318 61.7123 14.4453C61.5083 14.6589 61.2572 14.7657 60.959 14.7657C60.6661 14.7657 60.415 14.6615 60.2058 14.4532C60.0018 14.2448 59.8998 13.987 59.8998 13.6797C59.8998 13.3828 60.0018 13.1276 60.2058 12.9141C60.415 12.7006 60.6661 12.5938 60.959 12.5938C61.2572 12.5938 61.5083 12.6979 61.7123 12.9063C61.9215 13.1198 62.0262 13.3776 62.0262 13.6797ZM59.3741 13.6797C59.3741 13.9818 59.2694 14.237 59.0602 14.4453C58.851 14.6589 58.5946 14.7657 58.2912 14.7657C57.9983 14.7657 57.7472 14.6615 57.538 14.4532C57.334 14.2448 57.232 13.987 57.232 13.6797C57.232 13.3828 57.334 13.1276 57.538 12.9141C57.7472 12.7006 57.9983 12.5938 58.2912 12.5938C58.5999 12.5938 58.8562 12.6979 59.0602 12.9063C59.2694 13.1198 59.3741 13.3776 59.3741 13.6797Z" fill="#C59714"/>
<path d="M43.9715 15.3125C43.1659 15.3125 42.3499 15.2422 41.5234 15.1016L41.6568 13.375C42.4937 13.5573 43.3281 13.6485 44.1598 13.6485C46.0168 13.6485 46.9453 12.9401 46.9453 11.5235V11.2813H45.6898C42.818 11.2813 41.3821 10.0443 41.3821 7.57034C41.3821 6.43493 41.7222 5.50263 42.4022 4.77347C43.1659 3.96097 44.2461 3.55472 45.6428 3.55472C46.9034 3.55472 48.0228 3.73961 49.001 4.10941V11.3125C49.001 12.5 48.6113 13.4427 47.8319 14.1407C46.9636 14.9219 45.6768 15.3125 43.9715 15.3125ZM46.9453 5.50784C46.5373 5.31513 46.0272 5.21878 45.4152 5.21878C44.8241 5.21878 44.3559 5.42191 44.0107 5.82816C43.6707 6.22399 43.5007 6.73961 43.5007 7.37503C43.5007 8.86982 44.3062 9.61722 45.9174 9.61722H46.9453V5.50784Z" fill="#C59714"/>
<path d="M14.3668 9.61722H37.4746V3.75784H39.5931V11.2813H14.3668V9.61722ZM39.5461 13.6797C39.5461 13.9766 39.444 14.2318 39.24 14.4453C39.0308 14.6589 38.7797 14.7657 38.4868 14.7657C38.1886 14.7657 37.9375 14.6615 37.7335 14.4532C37.5295 14.2448 37.4275 13.987 37.4275 13.6797C37.4275 13.3828 37.5295 13.1276 37.7335 12.9141C37.9428 12.7006 38.1938 12.5938 38.4868 12.5938C38.7849 12.5938 39.036 12.6979 39.24 12.9063C39.444 13.1198 39.5461 13.3776 39.5461 13.6797ZM36.894 13.6797C36.894 13.9818 36.792 14.237 36.5879 14.4453C36.3787 14.6589 36.1224 14.7657 35.819 14.7657C35.5208 14.7657 35.2697 14.6615 35.0657 14.4532C34.8617 14.2448 34.7597 13.987 34.7597 13.6797C34.7597 13.3828 34.8617 13.1276 35.0657 12.9141C35.275 12.7006 35.5261 12.5938 35.819 12.5938C36.1224 12.5938 36.3787 12.6979 36.5879 12.9063C36.792 13.1198 36.894 13.3776 36.894 13.6797Z" fill="#C59714"/>
<path d="M9.06266 15.3438C8.59188 15.3438 8.14201 15.2917 7.71307 15.1875L7.87 13.5078C8.31463 13.6328 8.7488 13.6953 9.17251 13.6953C9.75315 13.6953 10.1795 13.5391 10.4515 13.2266C10.7601 12.8724 10.9144 12.2839 10.9144 11.461V3.75784H13.033V9.61722H14.6101V11.2813H13.033V11.3438C13.033 14.0104 11.7095 15.3438 9.06266 15.3438ZM11.958 2.41409C11.6494 2.41409 11.3878 2.30993 11.1734 2.10159C10.9537 1.88805 10.8438 1.62503 10.8438 1.31253C10.8438 1.01045 10.9537 0.750031 11.1734 0.531281C11.3878 0.317739 11.6494 0.210968 11.958 0.210968C12.2614 0.210968 12.5229 0.317739 12.7426 0.531281C12.9571 0.750031 13.0643 1.01045 13.0643 1.31253C13.0643 1.61461 12.9571 1.87503 12.7426 2.09378C12.5229 2.30732 12.2614 2.41409 11.958 2.41409Z" fill="#C59714"/>
<path d="M4.3077 11.2813C1.4359 11.2813 0 10.0495 0 7.58597C0 6.43493 0.350474 5.48961 1.05142 4.75003C1.80991 3.95316 2.85872 3.55472 4.19785 3.55472C6.61455 3.55472 7.8229 4.78128 7.8229 7.23441V11.2813H4.3077ZM5.75144 7.49222C5.75144 5.97659 5.17865 5.21878 4.03307 5.21878C3.44197 5.21878 2.9738 5.42191 2.62856 5.82816C2.28855 6.22399 2.11854 6.73961 2.11854 7.37503C2.11854 8.86982 2.92411 9.61722 4.53524 9.61722H5.75144V7.49222Z" fill="#C59714"/>
</svg>
