<?xml version="1.0" encoding="utf-8"?>
<!-- Generator: Adobe Illustrator 19.0.0, SVG Export Plug-In . SVG Version: 6.00 Build 0)  -->
<svg version="1.1" id="Layer_1" xmlns="http://www.w3.org/2000/svg" xmlns:xlink="http://www.w3.org/1999/xlink" x="0px" y="0px"
	 viewBox="121 -13.7 292.1 77.7" style="enable-background:new 121 -13.7 292.1 77.7;" xml:space="preserve">
<style type="text/css">
	.st0{clip-path:url(#SVGID_2_);}
	.st1{clip-path:url(#SVGID_4_);fill:#050000;}
	.st2{clip-path:url(#SVGID_6_);}
	.st3{clip-path:url(#SVGID_8_);}
	.st4{clip-path:url(#SVGID_10_);}
	.st5{clip-path:url(#SVGID_12_);}
	.st6{clip-path:url(#SVGID_14_);}
	.st7{clip-path:url(#SVGID_16_);}
	.st8{clip-path:url(#SVGID_18_);}
	.st9{clip-path:url(#SVGID_20_);}
	.st10{clip-path:url(#SVGID_22_);}
	.st11{clip-path:url(#SVGID_24_);fill:none;stroke:#C3996B;stroke-width:0.401;stroke-miterlimit:10;}
</style>
<g id="XMLID_2_">
	<g>
		<defs>
			<rect id="SVGID_1_" x="122.7" y="-10.1" width="289.4" height="69"/>
		</defs>
		<clipPath id="SVGID_2_">
			<use xlink:href="#SVGID_1_"  style="overflow:visible;"/>
		</clipPath>
		<path id="XMLID_22_" class="st0" d="M215,12.8c-1.7,3.1-11.1,20.3-14,26c-1.1,2.1-2.3,2.1-4.4,1.3c6.2-11.4,12.2-22.5,18.6-34.3
			c6.3,11.6,12.5,22.9,18.5,34.1c-2.3,1-3.3,0.7-4.2-1.1C224.9,30.7,215.5,13.4,215,12.8"/>
	</g>
	<g>
		<defs>
			<rect id="SVGID_3_" x="122.7" y="-10.1" width="289.4" height="69"/>
		</defs>
		<clipPath id="SVGID_4_">
			<use xlink:href="#SVGID_3_"  style="overflow:visible;"/>
		</clipPath>
		<path id="XMLID_21_" class="st1" d="M301.3,39.7c6.2-11.4,12.2-22.5,18.6-34.3c6.3,11.6,12.5,22.9,18.6,34.3
			c-2.1,0.5-3.4,0.6-4.4-1.3c-4.2-8.1-8.7-16.1-13.1-24.1c-0.4-0.6-0.6-1.2-1.2-2.1c-0.6,1-1,1.6-1.3,2.2
			C314.4,22.2,310,30,305.9,38C304.8,39.9,303.6,40.3,301.3,39.7"/>
	</g>
	<g>
		<defs>
			<rect id="SVGID_5_" x="122.7" y="-10.1" width="289.4" height="69"/>
		</defs>
		<clipPath id="SVGID_6_">
			<use xlink:href="#SVGID_5_"  style="overflow:visible;"/>
		</clipPath>
		<path id="XMLID_20_" class="st2" d="M355.3,37.7c0.7-1.6,1.5-2.2,3.4-1.2c7.5,3.4,15.7-0.4,18.4-8.1c2.4-7.1-2.2-15.5-9.7-17.3
			c-3.1-0.7-6.3-0.6-9.2,1.1c-1.2,0.7-1.8,0.5-2.4-0.6c-0.7-1.3,0.2-1.6,1.1-2.1c8-4.1,17.9-1,22,7.1s1,18-7,22.2
			c-5.1,2.7-10.2,2.5-15.3,0c-0.2-0.1-0.6-0.4-0.8-0.5C355.4,38.1,355.4,37.8,355.3,37.7"/>
	</g>
	<g>
		<defs>
			<rect id="SVGID_7_" x="122.7" y="-10.1" width="289.4" height="69"/>
		</defs>
		<clipPath id="SVGID_8_">
			<use xlink:href="#SVGID_7_"  style="overflow:visible;"/>
		</clipPath>
		<path id="XMLID_19_" class="st3" d="M179.7,37.1c-4.5,4.5-14.7,3.6-20.2-1.7c-6.4-6.1-6.7-16.6-0.6-23.1c5.4-5.9,15.6-7,20.8-2.4
			c-0.7,2.3-1,2.4-3,1.5c-5.7-2.8-12.2-1.2-16.3,3.9c-3.9,4.8-4,11.7-0.4,16.5c4.1,5.2,10.5,6.9,16.5,4.1
			C178.8,34.8,178.8,34.8,179.7,37.1"/>
	</g>
	<g>
		<defs>
			<rect id="SVGID_9_" x="122.7" y="-10.1" width="289.4" height="69"/>
		</defs>
		<clipPath id="SVGID_10_">
			<use xlink:href="#SVGID_9_"  style="overflow:visible;"/>
		</clipPath>
		<path id="XMLID_16_" class="st4" d="M232.4,51.9h2.5c1.9,0,3.3,1.3,3.3,3.4s-1.3,3.6-3.4,3.6h-2.5v-7H232.4z M233.5,57.9h1.5
			c1.6,0,2.3-1.1,2.3-2.7c0-1.3-0.7-2.5-2.3-2.5h-1.5V57.9z"/>
	</g>
	<g>
		<defs>
			<rect id="SVGID_11_" x="122.7" y="-10.1" width="289.4" height="69"/>
		</defs>
		<clipPath id="SVGID_12_">
			<use xlink:href="#SVGID_11_"  style="overflow:visible;"/>
		</clipPath>
		<path id="XMLID_15_" class="st5" d="M250.8,51.9v4.2c0,1.6,0.8,2.1,1.7,2.1c1,0,1.7-0.5,1.7-2.1v-4.2h1.1V56
			c0,2.3-1.3,2.9-2.8,2.9c-1.5,0-2.8-0.7-2.8-2.9v-4.2h1.1V51.9z"/>
	</g>
	<g>
		<defs>
			<rect id="SVGID_13_" x="122.7" y="-10.1" width="289.4" height="69"/>
		</defs>
		<clipPath id="SVGID_14_">
			<use xlink:href="#SVGID_13_"  style="overflow:visible;"/>
		</clipPath>
		<path id="XMLID_11_" class="st6" d="M267.3,51.9h2.8c1.6,0,2.2,0.8,2.2,1.8c0,0.8-0.5,1.3-1,1.6c0.5,0.1,1.2,0.6,1.2,1.7
			c0,1.3-1,2.1-2.3,2.1h-2.8v-7.1H267.3z M269.8,54.7c1,0,1.3-0.4,1.3-1.1c0-0.6-0.5-1-1.2-1h-1.7v2.1H269.8z M268.2,57.9h1.7
			c0.8,0,1.5-0.4,1.5-1.2c0-0.7-0.5-1.2-1.6-1.2h-1.6V57.9L268.2,57.9z"/>
	</g>
	<g>
		<defs>
			<rect id="SVGID_15_" x="122.7" y="-10.1" width="289.4" height="69"/>
		</defs>
		<clipPath id="SVGID_16_">
			<use xlink:href="#SVGID_15_"  style="overflow:visible;"/>
		</clipPath>
		<path id="XMLID_8_" class="st7" d="M285.1,56.9l-0.7,2.1h-1.1l2.4-7h1.3l2.5,7h-1.1l-0.7-2.1C287.7,56.9,285.1,56.9,285.1,56.9z
			 M287.5,56c-0.6-1.8-1-2.8-1.1-3.3l0,0c-0.1,0.6-0.6,1.8-1.1,3.3H287.5z"/>
	</g>
	<g>
		<defs>
			<rect id="SVGID_17_" x="122.7" y="-10.1" width="289.4" height="69"/>
		</defs>
		<clipPath id="SVGID_18_">
			<use xlink:href="#SVGID_17_"  style="overflow:visible;"/>
		</clipPath>
		<rect id="XMLID_7_" x="300.8" y="51.9" class="st8" width="1.1" height="7"/>
	</g>
	<g>
		<defs>
			<rect id="SVGID_19_" x="122.7" y="-10.1" width="289.4" height="69"/>
		</defs>
		<clipPath id="SVGID_20_">
			<use xlink:href="#SVGID_19_"  style="overflow:visible;"/>
		</clipPath>
		<path id="XMLID_6_" class="st9" d="M257.6,29.5v-3.9v-4.8V9.1h9.3c6.4,0,10.1,2.7,10.1,8.1s-3.6,8.4-10.1,8.4h-2.8v3.9h2.8
			c0.8,0,1.6,0,2.4-0.1c1-0.1,2.8-0.5,3.6-0.7c5.2-1.5,7.9-5.6,7.9-11.5c0-7.5-5.1-11.9-13.9-11.9h-13.4v35.4h4v-6.8v-4.4H257.6z"/>
	</g>
	<g>
		<defs>
			<rect id="SVGID_21_" x="122.7" y="-10.1" width="289.4" height="69"/>
		</defs>
		<clipPath id="SVGID_22_">
			<use xlink:href="#SVGID_21_"  style="overflow:visible;"/>
		</clipPath>
		<polygon id="XMLID_5_" class="st10" points="276.6,33.8 272.2,33.8 276.7,40.6 281.3,40.6 		"/>
	</g>
	<g>
		<defs>
			<rect id="SVGID_23_" x="122.7" y="-10.1" width="289.4" height="69"/>
		</defs>
		<clipPath id="SVGID_24_">
			<use xlink:href="#SVGID_23_"  style="overflow:visible;"/>
		</clipPath>
		<polyline id="XMLID_4_" class="st11" points="338.6,55.2 410.6,55.2 410.6,-8.7 124.2,-8.7 124.2,55.2 196.2,55.2 		"/>
	</g>
</g>
</svg>
