<svg width="16" height="17" viewBox="0 0 16 17" fill="none" xmlns="http://www.w3.org/2000/svg">
<path d="M11.0133 4.26666L8.94665 2.66666C8.67998 2.4 8.07998 2.26666 7.67998 2.26666H5.14665C4.34665 2.26666 3.47998 2.86666 3.27998 3.66666L1.67998 8.53333C1.34665 9.46666 1.94665 10.2667 2.94665 10.2667H5.61332C6.01332 10.2667 6.34665 10.6 6.27998 11.0667L5.94665 13.2C5.81332 13.8 6.21332 14.4667 6.81332 14.6667C7.34665 14.8667 8.01332 14.6 8.27998 14.2L11.0133 10.1333" stroke="#444444" stroke-miterlimit="10"/>
<path d="M14.4134 4.26667V10.8C14.4134 11.7333 14.0134 12.0667 13.0801 12.0667H12.4134C11.4801 12.0667 11.0801 11.7333 11.0801 10.8V4.26667C11.0801 3.33333 11.4801 3 12.4134 3H13.0801C14.0134 3 14.4134 3.33333 14.4134 4.26667Z" stroke="#444444" stroke-linecap="round" stroke-linejoin="round"/>
</svg>
