<svg width="16" height="17" viewBox="0 0 16 17" fill="none" xmlns="http://www.w3.org/2000/svg">
<path d="M4.98633 12.7333L7.053 14.3333C7.31967 14.6 7.91967 14.7333 8.31967 14.7333H10.853C11.653 14.7333 12.5197 14.1333 12.7197 13.3333L14.3197 8.46667C14.653 7.53333 14.053 6.73333 13.053 6.73333H10.3864C9.98633 6.73333 9.653 6.4 9.71967 5.93333L10.053 3.8C10.1864 3.2 9.78633 2.53333 9.18633 2.33333C8.653 2.13333 7.98633 2.4 7.71967 2.8L4.98633 6.86667" stroke="white" stroke-miterlimit="10"/>
<path d="M1.58691 12.7333V6.19999C1.58691 5.26665 1.98691 4.93332 2.92024 4.93332H3.58691C4.52024 4.93332 4.92024 5.26665 4.92024 6.19999V12.7333C4.92024 13.6667 4.52024 14 3.58691 14H2.92024C1.98691 14 1.58691 13.6667 1.58691 12.7333Z" stroke="white" stroke-linecap="round" stroke-linejoin="round"/>
</svg>
