<svg width="584" height="582" viewBox="0 0 584 582" fill="none" xmlns="http://www.w3.org/2000/svg">
<g clip-path="url(#clip0_1_268)">
<path d="M0 0H584V582H0V0Z" fill="#242424"/>
<g filter="url(#filter0_f_1_268)">
<circle cx="95" cy="27" r="300" fill="#D0592D" fill-opacity="0.4"/>
</g>
<path d="M-200.844 1167.14C299.894 939.888 470.77 689.276 532.697 499.156C601.804 286.973 566.164 55.0669 640.765 40.6653C688.533 31.4403 747.311 118.037 856.894 307.866C1189.2 883.5 1196.73 1036.37 1338.31 1076.04C1536.64 1131.66 1658.91 869.998 1963.77 875.638C2187.69 879.79 2368.88 1025.48 2491 1154.98" stroke="url(#paint0_linear_1_268)" stroke-miterlimit="10"/>
<path d="M-212.868 1144.29C273.771 921.936 454.462 678.334 521.3 500.152C595.99 301.028 560.716 81.1018 634.541 70.7003C682.003 64.0081 739.676 149.123 845.527 332.448C1167.22 889.486 1177.2 1044.26 1317.69 1081.97C1517.17 1134.78 1634.11 854.184 1942.2 850.364C1948.92 850.281 1955.53 850.281 1962.15 850.447C2180.75 856.087 2364.53 1001.85 2489.26 1130.55" stroke="url(#paint1_linear_1_268)" stroke-miterlimit="10"/>
<path d="M-224.853 1121.45C247.649 904.005 438.013 667.829 509.934 501.163C590.095 315.388 555.321 107.164 628.347 100.749C675.518 96.5967 732.093 180.238 834.183 357.05C1145.18 895.465 1157.56 1052.64 1297.12 1087.9C1497.57 1138.56 1609.42 838.233 1920.69 825.084C1927.52 824.793 1934.32 824.502 1941.13 824.537C2163.34 825.672 2356.67 974.442 2487.56 1106.12" stroke="url(#paint2_linear_1_268)" stroke-miterlimit="10"/>
<path d="M-236.866 1098.6C221.568 886.012 421.306 657.829 498.549 502.173C583.957 330.053 549.937 133.248 622.126 130.805C669.029 129.213 724.44 211.346 822.82 381.646C1123.17 901.5 1137.99 1060.74 1276.53 1093.83C1478.05 1141.97 1584.75 822.163 1899.15 799.803C1906.13 799.305 1913.1 798.827 1920.05 798.62C2145.86 791.935 2348.75 947.03 2485.8 1081.67" stroke="url(#paint3_linear_1_268)" stroke-miterlimit="10"/>
<path d="M-248.874 1075.76C195.46 868.081 404.267 648.362 487.16 503.184C577.471 345.015 544.586 159.359 615.917 160.861C662.558 161.837 716.82 242.46 811.468 406.248C1101.16 907.507 1118.44 1068.82 1255.94 1099.76C1458.59 1145.35 1560.11 805.976 1877.62 774.495C1884.75 773.803 1891.88 773.111 1899.04 772.682C2128.43 759.934 2340.89 919.604 2484.12 1057.23" stroke="url(#paint4_linear_1_268)" stroke-miterlimit="10"/>
<path d="M-260.883 1052.91C169.36 850.143 386.795 639.469 475.793 504.201C570.493 360.254 539.235 185.491 609.723 190.91C656.118 194.481 709.208 273.568 800.124 430.85C1079.17 913.514 1098.91 1076.88 1235.37 1105.69C1439.14 1148.7 1535.49 789.679 1856.1 749.235C1863.38 748.315 1870.67 747.38 1878.01 746.785C2110.98 728.031 2333.06 892.213 2482.42 1032.82" stroke="url(#paint5_linear_1_268)" stroke-miterlimit="10"/>
<path d="M-272.883 1030.07C143.252 832.184 368.756 631.143 464.397 505.211C562.792 375.645 533.929 211.657 603.499 220.965C649.663 227.138 701.573 304.703 788.75 455.446C1057.15 919.514 1079.38 1084.91 1214.78 1111.61C1419.69 1152.02 1510.86 773.284 1834.55 723.954C1842.02 722.819 1849.44 721.657 1856.94 720.875C2093.47 696.155 2325.16 864.821 2480.68 1008.38" stroke="url(#paint6_linear_1_268)" stroke-miterlimit="10"/>
<path d="M-284.892 1007.22C117.145 814.232 327.885 603.067 453.015 506.222C528.802 375.376 528.616 237.858 597.29 251.014C643.222 259.817 693.953 335.79 777.398 480.083C1035.14 925.556 1059.85 1092.96 1194.19 1117.58C1400.26 1155.34 1486.23 756.827 1813.01 698.708C1820.61 697.359 1828.22 695.975 1835.91 694.992C2076.01 664.369 2317.33 837.43 2478.98 983.979" stroke="url(#paint7_linear_1_268)" stroke-miterlimit="10"/>
<path d="M-296.902 984.38C91.0426 796.281 307.477 590.742 441.631 507.232C518.374 388.005 523.3 264.094 591.079 281.07C636.787 292.516 686.324 366.884 766.037 504.651C1013.09 931.528 1040.34 1100.91 1173.61 1123.48C1380.84 1158.56 1461.59 740.211 1791.48 673.393C1799.23 671.822 1806.99 670.217 1814.87 669.04C2058.55 632.562 2309.42 809.99 2477.27 959.508" stroke="url(#paint8_linear_1_268)" stroke-miterlimit="10"/>
<path d="M-308.911 961.535C64.935 778.329 287.065 578.43 430.242 508.242C507.94 400.628 517.987 290.357 584.87 311.119C630.347 325.229 678.704 397.999 754.678 529.246C991.116 937.556 1020.84 1108.86 1153.03 1129.39C1361.43 1161.77 1436.93 723.546 1769.95 648.099C1777.84 646.313 1785.77 644.493 1793.83 643.116C2041.08 600.818 2301.55 782.571 2475.55 935.064" stroke="url(#paint9_linear_1_268)" stroke-miterlimit="10"/>
<path d="M-320.914 938.691C38.8406 760.377 266.658 566.112 418.859 509.26C497.512 413.265 512.664 316.662 578.651 341.174C623.897 357.977 671.083 429.12 743.325 553.828C969.104 943.521 1001.34 1116.78 1132.44 1135.31C1342.02 1164.94 1412.25 706.798 1748.41 622.804C1756.47 620.79 1764.55 618.77 1772.78 617.185C2023.63 569.108 2293.67 755.152 2473.83 910.614" stroke="url(#paint10_linear_1_268)" stroke-miterlimit="10"/>
<path d="M-332.924 915.839C12.7162 742.432 246.265 553.793 407.483 510.298C487.092 425.923 507.334 343.008 572.433 371.258C617.432 390.774 663.454 460.255 731.956 578.478C947.085 949.577 981.836 1124.73 1111.86 1141.28C1322.64 1168.13 1387.55 690.065 1726.88 597.572C1735.09 595.337 1743.3 593.102 1751.74 591.344C2006.19 537.516 2285.8 727.809 2472.12 886.247" stroke="url(#paint11_linear_1_268)" stroke-miterlimit="10"/>
<path d="M-344.933 892.995C-13.384 724.48 225.83 541.475 396.094 511.28C476.658 438.525 501.968 369.334 566.231 401.279C610.969 423.522 655.834 491.342 720.605 603.053C925.112 955.556 962.357 1132.58 1091.27 1147.18C1303.24 1171.19 1362.81 673.165 1705.35 572.264C1713.7 569.8 1722.1 567.364 1730.72 565.378C1988.78 505.862 2277.95 700.328 2470.42 861.769" stroke="url(#paint12_linear_1_268)" stroke-miterlimit="10"/>
<path d="M-356.918 870.15C-39.4912 706.529 205.418 529.163 384.713 512.305C466.225 451.169 496.588 395.701 560.022 431.335C604.492 456.318 648.214 522.45 709.253 627.649C903.08 961.563 942.87 1140.46 1070.69 1153.12C1283.87 1174.25 1338.05 656.223 1683.81 546.983C1692.32 544.291 1700.88 541.648 1709.66 539.461C1971.34 474.242 2270.05 672.943 2468.73 837.333" stroke="url(#paint13_linear_1_268)" stroke-miterlimit="10"/>
<path d="M-368.942 847.306C-65.5991 688.577 185.012 516.845 373.331 513.308C455.798 463.792 491.192 422.075 553.813 461.404C597.991 489.135 640.594 553.572 697.864 652.265C881.04 967.584 923.352 1148.29 1050.07 1159.05C1264.45 1177.28 1313.22 639.324 1662.24 521.71C1670.9 518.796 1679.64 515.952 1688.58 513.557C1953.91 442.677 2262.15 645.552 2466.94 812.911" stroke="url(#paint14_linear_1_268)" stroke-miterlimit="10"/>
<path d="M-380.951 824.461C-91.7067 670.625 164.6 504.526 361.942 514.318C445.372 476.422 485.766 448.463 547.604 491.439C591.476 521.931 632.967 584.672 686.542 676.853C859.06 973.57 903.895 1156.08 1029.53 1164.97C1245.11 1180.23 1288.43 622.292 1640.74 496.45C1649.55 493.308 1658.45 490.263 1667.61 487.668C1936.55 411.113 2254.3 618.126 2465.26 788.433" stroke="url(#paint15_linear_1_268)" stroke-miterlimit="10"/>
<path d="M-392.961 801.616C-117.809 652.68 144.185 492.235 350.559 515.329C434.899 489.031 480.317 474.865 541.393 521.495C584.936 554.748 625.345 615.78 675.181 701.428C837.048 979.55 884.406 1163.84 1008.94 1170.87C1225.72 1183.12 1263.57 605.226 1619.21 471.107C1628.16 467.73 1637.23 464.491 1646.53 461.688C1919.18 379.583 2246.45 590.721 2463.54 764.024" stroke="url(#paint16_linear_1_268)" stroke-miterlimit="10"/>
<path d="M-404.97 778.744C-143.916 634.701 123.772 479.868 339.17 516.319C424.503 501.654 474.846 501.232 535.168 551.516C578.384 587.503 617.718 646.86 663.814 726.024C815.03 985.543 864.911 1171.59 988.347 1176.8C1206.34 1186.02 1238.67 588.181 1597.68 445.868C1606.77 442.255 1616.01 438.823 1625.49 435.812C1901.82 348.081 2238.55 563.323 2461.82 739.622" stroke="url(#paint17_linear_1_268)" stroke-miterlimit="10"/>
<path d="M-416.973 755.906C-170.026 616.804 100.529 554.471 327.794 517.356C412.836 503.467 469.367 527.661 528.965 581.599C571.829 620.354 610.104 678.002 652.468 750.654C793.026 991.591 845.422 1179.36 967.768 1182.76C1186.95 1188.84 1213.75 571.073 1576.14 420.566C1585.38 416.732 1594.8 413.099 1604.44 409.881C1884.48 316.572 2230.66 535.903 2460.11 715.151" stroke="url(#paint18_linear_1_268)" stroke-miterlimit="10"/>
<path d="M-428.981 733.069C-196.111 598.811 77.8099 474.74 316.412 518.353C402.484 534.09 463.859 554.042 522.756 611.642C565.255 653.165 602.477 709.096 641.109 775.242C771.024 997.584 825.92 1187.05 947.184 1188.67C1167.54 1191.6 1188.79 553.932 1554.6 395.272C1564 391.203 1573.58 387.396 1583.4 383.957C1867.36 285.61 2222.8 508.491 2458.42 690.715" stroke="url(#paint19_linear_1_268)" stroke-miterlimit="10"/>
<path d="M-440.991 710.231C-222.235 580.866 59.2388 452.622 305.029 519.371C392.213 543.052 458.335 580.444 516.545 641.697C558.663 685.989 594.855 740.218 629.748 799.845C749.012 1003.6 806.416 1195.23 926.598 1194.6C1148.13 1193.44 1163.54 536.298 1533.07 369.998C1542.6 365.68 1552.36 361.696 1562.36 358.047C1849.95 253.886 2214.93 481.079 2456.68 666.272" stroke="url(#paint20_linear_1_268)" stroke-miterlimit="10"/>
<path d="M-453 687.393C-248.343 562.928 42.125 430.643 293.64 520.395C672.8 655.718 705.603 1203.72 906.021 1200.53C1134.49 1196.91 1139.16 483.993 1541.32 332.136C1832.54 222.169 2207.09 453.674 2454.97 641.85" stroke="url(#paint21_linear_1_268)" stroke-miterlimit="10"/>
</g>
<defs>
<filter id="filter0_f_1_268" x="-505" y="-573" width="1200" height="1200" filterUnits="userSpaceOnUse" color-interpolation-filters="sRGB">
<feFlood flood-opacity="0" result="BackgroundImageFix"/>
<feBlend mode="normal" in="SourceGraphic" in2="BackgroundImageFix" result="shape"/>
<feGaussianBlur stdDeviation="150" result="effect1_foregroundBlur_1_268"/>
</filter>
<linearGradient id="paint0_linear_1_268" x1="1145.08" y1="40.0001" x2="1145.08" y2="1167.14" gradientUnits="userSpaceOnUse">
<stop stop-color="#CE7B5C"/>
<stop offset="0.35" stop-color="#6A2D17" stop-opacity="0"/>
</linearGradient>
<linearGradient id="paint1_linear_1_268" x1="1138.2" y1="70.3347" x2="1138.2" y2="1144.29" gradientUnits="userSpaceOnUse">
<stop stop-color="#CE7B5C"/>
<stop offset="0.35" stop-color="#6A2D17" stop-opacity="0"/>
</linearGradient>
<linearGradient id="paint2_linear_1_268" x1="1131.35" y1="100.602" x2="1131.35" y2="1121.45" gradientUnits="userSpaceOnUse">
<stop stop-color="#CE7B5C"/>
<stop offset="0.35" stop-color="#6A2D17" stop-opacity="0"/>
</linearGradient>
<linearGradient id="paint3_linear_1_268" x1="1124.47" y1="130.782" x2="1124.47" y2="1098.76" gradientUnits="userSpaceOnUse">
<stop stop-color="#CE7B5C"/>
<stop offset="0.35" stop-color="#6A2D17" stop-opacity="0"/>
</linearGradient>
<linearGradient id="paint4_linear_1_268" x1="1117.63" y1="160.852" x2="1117.63" y2="1103.97" gradientUnits="userSpaceOnUse">
<stop stop-color="#CE7B5C"/>
<stop offset="0.35" stop-color="#6A2D17" stop-opacity="0"/>
</linearGradient>
<linearGradient id="paint5_linear_1_268" x1="1110.77" y1="190.787" x2="1110.77" y2="1109.26" gradientUnits="userSpaceOnUse">
<stop stop-color="#CE7B5C"/>
<stop offset="0.35" stop-color="#6A2D17" stop-opacity="0"/>
</linearGradient>
<linearGradient id="paint6_linear_1_268" x1="1103.9" y1="220.586" x2="1103.9" y2="1114.62" gradientUnits="userSpaceOnUse">
<stop stop-color="#CE7B5C"/>
<stop offset="0.35" stop-color="#6A2D17" stop-opacity="0"/>
</linearGradient>
<linearGradient id="paint7_linear_1_268" x1="1097.05" y1="250.139" x2="1097.05" y2="1120.1" gradientUnits="userSpaceOnUse">
<stop stop-color="#CE7B5C"/>
<stop offset="0.35" stop-color="#6A2D17" stop-opacity="0"/>
</linearGradient>
<linearGradient id="paint8_linear_1_268" x1="1090.18" y1="279.502" x2="1090.18" y2="1125.56" gradientUnits="userSpaceOnUse">
<stop stop-color="#CE7B5C"/>
<stop offset="0.35" stop-color="#6A2D17" stop-opacity="0"/>
</linearGradient>
<linearGradient id="paint9_linear_1_268" x1="1083.32" y1="308.581" x2="1083.32" y2="1131.1" gradientUnits="userSpaceOnUse">
<stop stop-color="#CE7B5C"/>
<stop offset="0.35" stop-color="#6A2D17" stop-opacity="0"/>
</linearGradient>
<linearGradient id="paint10_linear_1_268" x1="1076.46" y1="337.317" x2="1076.46" y2="1136.68" gradientUnits="userSpaceOnUse">
<stop stop-color="#CE7B5C"/>
<stop offset="0.35" stop-color="#6A2D17" stop-opacity="0"/>
</linearGradient>
<linearGradient id="paint11_linear_1_268" x1="1069.6" y1="365.624" x2="1069.6" y2="1142.37" gradientUnits="userSpaceOnUse">
<stop stop-color="#CE7B5C"/>
<stop offset="0.35" stop-color="#6A2D17" stop-opacity="0"/>
</linearGradient>
<linearGradient id="paint12_linear_1_268" x1="1062.74" y1="393.275" x2="1062.74" y2="1148.02" gradientUnits="userSpaceOnUse">
<stop stop-color="#CE7B5C"/>
<stop offset="0.35" stop-color="#6A2D17" stop-opacity="0"/>
</linearGradient>
<linearGradient id="paint13_linear_1_268" x1="1055.9" y1="420.134" x2="1055.9" y2="1153.74" gradientUnits="userSpaceOnUse">
<stop stop-color="#CE7B5C"/>
<stop offset="0.35" stop-color="#6A2D17" stop-opacity="0"/>
</linearGradient>
<linearGradient id="paint14_linear_1_268" x1="1049" y1="445.821" x2="1049" y2="1159.51" gradientUnits="userSpaceOnUse">
<stop stop-color="#CE7B5C"/>
<stop offset="0.35" stop-color="#6A2D17" stop-opacity="0"/>
</linearGradient>
<linearGradient id="paint15_linear_1_268" x1="1042.15" y1="469.758" x2="1042.15" y2="1165.28" gradientUnits="userSpaceOnUse">
<stop stop-color="#CE7B5C"/>
<stop offset="0.35" stop-color="#6A2D17" stop-opacity="0"/>
</linearGradient>
<linearGradient id="paint16_linear_1_268" x1="1035.29" y1="443.41" x2="1035.29" y2="1171.06" gradientUnits="userSpaceOnUse">
<stop stop-color="#CE7B5C"/>
<stop offset="0.35" stop-color="#6A2D17" stop-opacity="0"/>
</linearGradient>
<linearGradient id="paint17_linear_1_268" x1="1028.43" y1="415.568" x2="1028.43" y2="1176.9" gradientUnits="userSpaceOnUse">
<stop stop-color="#CE7B5C"/>
<stop offset="0.35" stop-color="#6A2D17" stop-opacity="0"/>
</linearGradient>
<linearGradient id="paint18_linear_1_268" x1="1021.57" y1="387.643" x2="1021.57" y2="1182.8" gradientUnits="userSpaceOnUse">
<stop stop-color="#CE7B5C"/>
<stop offset="0.35" stop-color="#6A2D17" stop-opacity="0"/>
</linearGradient>
<linearGradient id="paint19_linear_1_268" x1="1014.72" y1="359.872" x2="1014.72" y2="1188.68" gradientUnits="userSpaceOnUse">
<stop stop-color="#CE7B5C"/>
<stop offset="0.35" stop-color="#6A2D17" stop-opacity="0"/>
</linearGradient>
<linearGradient id="paint20_linear_1_268" x1="1007.84" y1="331.804" x2="1007.84" y2="1194.61" gradientUnits="userSpaceOnUse">
<stop stop-color="#CE7B5C"/>
<stop offset="0.35" stop-color="#6A2D17" stop-opacity="0"/>
</linearGradient>
<linearGradient id="paint21_linear_1_268" x1="1000.98" y1="303.7" x2="1000.98" y2="1200.55" gradientUnits="userSpaceOnUse">
<stop stop-color="#CE7B5C"/>
<stop offset="0.35" stop-color="#6A2D17" stop-opacity="0"/>
</linearGradient>
<clipPath id="clip0_1_268">
<path d="M0 0H584V582H0V0Z" fill="white"/>
</clipPath>
</defs>
</svg>
