<svg width="176" height="33" viewBox="0 0 176 33" fill="none" xmlns="http://www.w3.org/2000/svg">
<path d="M108.258 9.91248V5.13392H110.701C112.378 5.13392 113.436 6.06567 113.436 7.5232C113.436 8.98072 112.378 9.91248 110.701 9.91248H108.258ZM109.217 9.0739H110.701C111.792 9.0739 112.438 8.46161 112.438 7.5232C112.438 6.57814 111.792 5.9725 110.701 5.9725H109.217V9.0739ZM115.315 5.13392V9.91248H114.336V5.13392H115.315ZM117.461 8.13549V9.91248H116.482V5.13392H119.484C120.569 5.13392 121.301 5.65304 121.301 6.63803C121.301 7.37013 120.875 7.85597 120.196 8.04232L121.414 9.91248H120.289L119.165 8.13549H117.461ZM117.461 7.31688H119.431C120.003 7.31688 120.329 7.07063 120.329 6.64469C120.329 6.21209 120.003 5.96584 119.431 5.96584H117.461V7.31688ZM122.19 5.13392H126.816V5.97915H123.155V7.04401H126.436V7.88259H123.155V9.06724H126.816V9.91248H122.19V5.13392ZM127.437 7.5232C127.437 6.10561 128.641 5.06071 130.259 5.06071C131.51 5.06071 132.428 5.62642 132.794 6.56483L131.949 6.99077C131.676 6.31858 131.104 5.91926 130.265 5.91926C129.22 5.91926 128.435 6.55817 128.435 7.5232C128.435 8.48823 129.22 9.12714 130.265 9.12714C131.104 9.12714 131.676 8.72782 131.949 8.05563L132.794 8.48157C132.428 9.41998 131.51 9.98568 130.259 9.98568C128.641 9.98568 127.437 8.94079 127.437 7.5232ZM138.394 5.97915H136.284V9.91248H135.299V5.97915H133.189V5.13392H138.394V5.97915ZM141.395 5.06071C143.025 5.06071 144.217 6.10561 144.217 7.5232C144.217 8.94079 143.025 9.98568 141.395 9.98568C139.757 9.98568 138.573 8.94079 138.573 7.5232C138.573 6.10561 139.757 5.06071 141.395 5.06071ZM141.395 5.91926C140.323 5.91926 139.578 6.55817 139.578 7.5232C139.578 8.48823 140.323 9.12714 141.395 9.12714C142.466 9.12714 143.212 8.48823 143.212 7.5232C143.212 6.55817 142.466 5.91926 141.395 5.91926ZM146.097 8.13549V9.91248H145.119V5.13392H148.12C149.205 5.13392 149.937 5.65304 149.937 6.63803C149.937 7.37013 149.511 7.85597 148.832 8.04232L150.05 9.91248H148.926L147.801 8.13549H146.097ZM146.097 7.31688H148.067C148.639 7.31688 148.966 7.07063 148.966 6.64469C148.966 6.21209 148.639 5.96584 148.067 5.96584H146.097V7.31688ZM152.77 5.13392H153.868L156.277 9.91248H155.219L154.667 8.80103H151.965L151.406 9.91248H150.361L152.77 5.13392ZM153.316 6.09895L152.377 7.96911H154.247L153.316 6.09895ZM161.043 5.97915H158.933V9.91248H157.948V5.97915H155.838V5.13392H161.043V5.97915ZM161.917 5.13392H166.543V5.97915H162.882V7.04401H166.163V7.88259H162.882V9.06724H166.543V9.91248H161.917V5.13392ZM172.273 7.98866C172.273 8.31363 172.186 8.63535 172.013 8.95382C171.842 9.27229 171.603 9.52468 171.295 9.71099C170.987 9.89731 170.688 9.99047 170.398 9.99047C170.101 9.99047 169.859 9.89623 169.67 9.70775C169.484 9.5171 169.391 9.2712 169.391 8.97007C169.391 8.6516 169.482 8.33204 169.664 8.01141C169.848 7.69077 170.093 7.43729 170.398 7.25098C170.706 7.06466 171.002 6.97151 171.288 6.97151C171.574 6.97151 171.809 7.06575 171.994 7.25423C172.18 7.44271 172.273 7.68752 172.273 7.98866ZM171.734 7.76443C171.734 7.56295 171.684 7.40913 171.584 7.30297C171.487 7.19465 171.36 7.14049 171.204 7.14049C170.885 7.14049 170.592 7.36905 170.323 7.82617C170.057 8.28113 169.924 8.73392 169.924 9.18454C169.924 9.39036 169.976 9.54959 170.08 9.66225C170.184 9.77274 170.315 9.82798 170.473 9.82798C170.778 9.82798 171.064 9.60159 171.331 9.1488C171.599 8.69384 171.734 8.23239 171.734 7.76443ZM174.829 7.0495L174.77 7.26398H174.296L173.938 8.68409C173.78 9.3102 173.621 9.7944 173.461 10.1367C173.233 10.6198 172.988 10.9535 172.726 11.1376C172.527 11.2784 172.327 11.3488 172.128 11.3488C171.998 11.3488 171.888 11.3098 171.797 11.2319C171.73 11.1777 171.696 11.1073 171.696 11.0206C171.696 10.9513 171.724 10.8906 171.78 10.8386C171.835 10.7888 171.902 10.7639 171.982 10.7639C172.04 10.7639 172.09 10.7823 172.131 10.8191C172.17 10.856 172.19 10.8982 172.19 10.9459C172.19 10.9935 172.167 11.038 172.122 11.0791C172.087 11.1094 172.07 11.1322 172.07 11.1474C172.07 11.1669 172.077 11.182 172.092 11.1929C172.112 11.208 172.142 11.2156 172.183 11.2156C172.277 11.2156 172.375 11.1864 172.479 11.1279C172.581 11.0694 172.672 10.9816 172.752 10.8646C172.832 10.7498 172.908 10.583 172.98 10.3642C173.01 10.2732 173.091 9.97314 173.223 9.46402L173.789 7.26398H173.223L173.269 7.0495C173.449 7.0495 173.574 7.03758 173.646 7.01375C173.717 6.98775 173.782 6.94009 173.841 6.87076C173.901 6.79927 173.979 6.66712 174.075 6.4743C174.203 6.21433 174.325 6.01285 174.442 5.86986C174.602 5.67705 174.77 5.53298 174.946 5.43765C175.123 5.34016 175.29 5.29142 175.446 5.29142C175.611 5.29142 175.743 5.33366 175.843 5.41815C175.942 5.50048 175.992 5.59039 175.992 5.68788C175.992 5.7637 175.967 5.82761 175.917 5.87961C175.867 5.9316 175.804 5.9576 175.726 5.9576C175.658 5.9576 175.603 5.9381 175.56 5.89911C175.519 5.86011 175.498 5.81353 175.498 5.75937C175.498 5.72471 175.512 5.68246 175.54 5.63263C175.568 5.58064 175.583 5.54597 175.583 5.52864C175.583 5.49831 175.573 5.47556 175.553 5.4604C175.525 5.43873 175.484 5.4279 175.43 5.4279C175.293 5.4279 175.171 5.47123 175.063 5.55789C174.917 5.67271 174.787 5.85253 174.673 6.09734C174.614 6.22516 174.507 6.54255 174.351 7.0495H174.829Z" fill="white"/>
<path d="M107.992 16.5232C107.992 15.1056 109.197 14.0607 110.814 14.0607C112.065 14.0607 112.983 14.6264 113.35 15.5648L112.504 15.9908C112.231 15.3186 111.659 14.9193 110.82 14.9193C109.776 14.9193 108.99 15.5582 108.99 16.5232C108.99 17.4882 109.776 18.1271 110.82 18.1271C111.659 18.1271 112.231 17.7278 112.504 17.0556L113.35 17.4816C112.983 18.42 112.065 18.9857 110.814 18.9857C109.197 18.9857 107.992 17.9408 107.992 16.5232ZM116.71 14.0607C118.341 14.0607 119.532 15.1056 119.532 16.5232C119.532 17.9408 118.341 18.9857 116.71 18.9857C115.073 18.9857 113.888 17.9408 113.888 16.5232C113.888 15.1056 115.073 14.0607 116.71 14.0607ZM116.71 14.9193C115.639 14.9193 114.893 15.5582 114.893 16.5232C114.893 17.4882 115.639 18.1271 116.71 18.1271C117.782 18.1271 118.527 17.4882 118.527 16.5232C118.527 15.5582 117.782 14.9193 116.71 14.9193ZM125.366 14.1339V18.9125H124.501L121.379 15.3785V18.9125H120.434V14.1339H121.432L124.414 17.5082V14.1339H125.366ZM126.033 17.8742L126.692 17.1887C127.237 17.9208 128.102 18.1471 128.808 18.1471C129.607 18.1471 130.172 17.9075 130.172 17.5215C130.172 17.0689 129.78 17.029 128.435 16.8826C127.264 16.7495 126.365 16.5299 126.365 15.5848C126.365 14.6797 127.251 14.0607 128.608 14.0607C129.673 14.0607 130.632 14.4401 131.064 15.0124L130.412 15.638C130.046 15.1655 129.367 14.8926 128.555 14.8926C127.703 14.8926 127.317 15.1655 127.317 15.485C127.317 15.831 127.637 15.9109 128.848 16.0507C130.206 16.2037 131.164 16.3834 131.164 17.415C131.164 18.4599 130.119 18.9857 128.768 18.9857C127.63 18.9857 126.499 18.5464 126.033 17.8742ZM134.354 18.979C132.677 18.979 131.898 18.0473 131.898 16.6563V14.1339H132.877V16.6031C132.877 17.5015 133.263 18.1205 134.354 18.1205C135.439 18.1205 135.825 17.5015 135.825 16.6031V14.1339H136.81V16.6563C136.81 18.0473 136.025 18.979 134.354 18.979ZM137.85 18.9125V14.1339H138.828V18.0672H142.189V18.9125H137.85ZM145.027 14.1339H146.125L148.534 18.9125H147.476L146.923 17.801H144.221L143.662 18.9125H142.617L145.027 14.1339ZM145.572 15.099L144.634 16.9691H146.504L145.572 15.099ZM150.224 17.1355V18.9125H149.246V14.1339H152.247C153.332 14.1339 154.064 14.653 154.064 15.638C154.064 16.3701 153.638 16.856 152.96 17.0423L154.177 18.9125H153.053L151.928 17.1355H150.224ZM150.224 16.3169H152.194C152.767 16.3169 153.093 16.0706 153.093 15.6447C153.093 15.2121 152.767 14.9658 152.194 14.9658H150.224V16.3169Z" fill="white"/>
<path d="M110.202 23.1339H111.3L113.709 27.9125H112.651L112.098 26.801H109.396L108.837 27.9125H107.792L110.202 23.1339ZM110.747 24.099L109.809 25.9691H111.679L110.747 24.099ZM115.386 27.9125H114.421V23.1339H118.973V23.9792H115.386V25.1705H118.594V26.0157H115.386V27.9125ZM120.84 27.9125H119.875V23.1339H124.427V23.9792H120.84V25.1705H124.048V26.0157H120.84V27.9125ZM126.532 23.1339H127.63L130.039 27.9125H128.981L128.429 26.801H125.727L125.168 27.9125H124.123L126.532 23.1339ZM127.078 24.099L126.139 25.9691H128.009L127.078 24.099ZM131.73 23.1339V27.9125H130.751V23.1339H131.73ZM133.876 26.1355V27.9125H132.897V23.1339H135.899C136.984 23.1339 137.716 23.653 137.716 24.638C137.716 25.3701 137.29 25.856 136.611 26.0423L137.829 27.9125H136.704L135.579 26.1355H133.876ZM133.876 25.3169H135.846C136.418 25.3169 136.744 25.0706 136.744 24.6447C136.744 24.2121 136.418 23.9658 135.846 23.9658H133.876V25.3169ZM138.106 26.8742L138.765 26.1887C139.311 26.9208 140.176 27.1471 140.881 27.1471C141.68 27.1471 142.246 26.9075 142.246 26.5215C142.246 26.0689 141.853 26.029 140.509 25.8826C139.337 25.7495 138.439 25.5299 138.439 24.5848C138.439 23.6797 139.324 23.0607 140.682 23.0607C141.746 23.0607 142.705 23.4401 143.137 24.0124L142.485 24.638C142.119 24.1655 141.44 23.8926 140.628 23.8926C139.776 23.8926 139.39 24.1655 139.39 24.485C139.39 24.831 139.71 24.9109 140.921 25.0507C142.279 25.2037 143.237 25.3834 143.237 26.415C143.237 27.4599 142.192 27.9857 140.841 27.9857C139.703 27.9857 138.572 27.5464 138.106 26.8742Z" fill="white"/>
<g clip-path="url(#clip0_725_6729)">
<path d="M25.4935 9.32625C25.2553 9.32625 25.0627 9.26845 24.9155 9.15461C24.7684 9.04077 24.6703 8.89715 24.6178 8.72726C24.5635 8.85687 24.4899 8.95845 24.3989 9.03726C24.3078 9.11433 24.1922 9.17562 24.0538 9.21766C23.9155 9.26144 23.7473 9.28947 23.5512 9.30523C23.355 9.32099 23.1238 9.32625 22.8611 9.32625H3.47475C3.12096 9.32625 2.82497 9.30173 2.58853 9.25094C2.35209 9.2019 2.16119 9.12308 2.01582 9.01625C1.87045 8.90941 1.76712 8.7728 1.70582 8.60291C1.64452 8.43478 1.61475 8.22636 1.61475 7.98291V6.55726H2.36785V7.70794C2.36785 7.89885 2.39062 8.04947 2.43791 8.16156C2.4852 8.27365 2.56226 8.36122 2.6726 8.42077C2.78294 8.48031 2.93181 8.51885 3.12271 8.53636C3.31186 8.55387 3.55706 8.56263 3.85655 8.56263H22.8489C23.052 8.56263 23.2237 8.55563 23.3655 8.54337C23.5074 8.53111 23.6195 8.50133 23.7018 8.45404C23.7841 8.40676 23.8437 8.3402 23.8805 8.25438C23.9172 8.16681 23.9365 8.04596 23.9365 7.89184V5.78139H24.6949V7.55031C24.6949 7.70444 24.7054 7.84455 24.7264 7.97065C24.7474 8.09676 24.7877 8.20184 24.849 8.28766C24.9103 8.37348 24.9926 8.44003 25.0977 8.49082C25.2028 8.54161 25.3341 8.56613 25.4918 8.56613C25.7405 8.56613 25.863 8.68873 25.863 8.93393C25.863 9.08805 25.8333 9.19314 25.7737 9.24743C25.7142 9.30173 25.6196 9.32975 25.4918 9.32975L25.4935 9.32625ZM4.27689 4.77608C4.27689 4.64122 4.32418 4.52563 4.41876 4.43105C4.51333 4.33647 4.62893 4.28918 4.76379 4.28918C4.89864 4.28918 5.01424 4.33647 5.10881 4.43105C5.20339 4.52563 5.25068 4.64122 5.25068 4.77608C5.25068 4.91094 5.20339 5.02653 5.10881 5.12111C5.01424 5.21568 4.89864 5.26297 4.76379 5.26297C4.62893 5.26297 4.51333 5.21568 4.41876 5.12111C4.32418 5.02653 4.27689 4.91094 4.27689 4.77608ZM5.47486 4.77608C5.47486 4.64122 5.52215 4.52563 5.61672 4.43105C5.7113 4.33647 5.82689 4.28918 5.96175 4.28918C6.09661 4.28918 6.2122 4.33647 6.30678 4.43105C6.40136 4.52563 6.44864 4.64122 6.44864 4.77608C6.44864 4.91094 6.40136 5.02653 6.30678 5.12111C6.2122 5.21568 6.09661 5.26297 5.96175 5.26297C5.82689 5.26297 5.7113 5.21568 5.61672 5.12111C5.52215 5.02653 5.47486 4.91094 5.47486 4.77608Z" fill="white"/>
<path d="M25.8262 8.56253C26.0294 8.56253 26.201 8.55552 26.3411 8.54326C26.4812 8.531 26.5933 8.50123 26.6774 8.45394C26.7615 8.40665 26.821 8.3401 26.8578 8.25428C26.8946 8.16671 26.9138 8.04586 26.9138 7.89174V6.2349H27.6669V7.54846C27.6669 7.70259 27.6757 7.8427 27.6932 7.9688C27.7107 8.0949 27.7545 8.19999 27.8228 8.28581C27.8929 8.37163 27.9875 8.43818 28.1083 8.48897C28.2292 8.53976 28.399 8.56428 28.618 8.56428C28.7493 8.56428 33.0193 8.55728 33.1226 8.54502C33.2259 8.53276 33.3117 8.50298 33.3783 8.45569C33.4466 8.40841 33.4956 8.34185 33.5289 8.25603C33.5605 8.16846 33.578 8.04761 33.578 7.89349V6.24191H34.3311V7.55197C34.3311 7.70609 34.3416 7.8462 34.3643 7.9723C34.3871 8.09841 34.4274 8.20349 34.4869 8.28931C34.5465 8.37513 34.6271 8.44168 34.7304 8.49247C34.8337 8.54326 34.9633 8.56778 35.121 8.56778H40.0459V5.78479H40.8043V9.3314H35.121C34.8863 9.3314 34.6954 9.2736 34.5482 9.15976C34.4011 9.04592 34.3066 8.9023 34.261 8.73242C34.1489 8.98287 33.9755 9.14575 33.7408 9.22106C33.5062 9.29637 29.0733 9.3314 28.7458 9.3314C28.5339 9.3314 28.357 9.31389 28.2169 9.28061C28.0768 9.24733 27.9612 9.20004 27.8684 9.14225C27.7773 9.08445 27.7037 9.0179 27.6512 8.94434C27.5986 8.87078 27.5531 8.79547 27.5128 8.72191C27.462 8.85151 27.3937 8.9531 27.3097 9.03191C27.2256 9.10897 27.1188 9.17202 26.9892 9.21756C26.8578 9.26485 26.6967 9.29462 26.5005 9.30863C26.3043 9.32264 26.0749 9.32965 25.8069 9.32965H25.4969C25.2518 9.32965 25.1292 9.20705 25.1292 8.96185C25.1292 8.80773 25.1589 8.70264 25.2167 8.64835C25.2745 8.59406 25.3673 8.56603 25.4969 8.56603H25.821L25.8262 8.56253Z" fill="white"/>
<path d="M59.3746 8.93045C59.3746 9.08457 43.7099 9.18966 43.6521 9.24395C43.5943 9.29824 43.5015 9.32627 43.3719 9.32627H43.1355C42.9358 9.32627 42.7554 9.307 42.5943 9.26672C42.4331 9.22644 42.2948 9.15813 42.1809 9.0583C42.0671 8.96022 41.9778 8.82887 41.913 8.66774C41.8482 8.50485 41.8167 8.30169 41.8167 8.05649V2.75146H42.5698V7.85333C42.5698 8.11079 42.61 8.29468 42.6906 8.40152C42.7712 8.51011 42.9481 8.56265 43.2213 8.56265H43.3719C43.6171 8.56265 59.3746 8.68525 59.3746 8.93045Z" fill="white"/>
<path d="M43.3771 9.32627C43.1319 9.32627 43.0093 9.20367 43.0093 8.95848C43.0093 8.80435 43.0391 8.69927 43.0968 8.64497C43.1546 8.59068 43.2475 8.56266 43.3771 8.56266H60.8089V5.77966H61.562V9.32627H43.3753H43.3771ZM59.3832 10.7186C59.3832 10.5838 59.4305 10.4682 59.5233 10.3736C59.6162 10.279 59.7318 10.2318 59.8666 10.2318C60.0015 10.2318 60.1171 10.279 60.2152 10.3736C60.3132 10.4682 60.3605 10.5838 60.3605 10.7186C60.3605 10.8535 60.3115 10.9691 60.2152 11.0637C60.1188 11.1582 60.0032 11.2055 59.8666 11.2055C59.73 11.2055 59.6162 11.1582 59.5233 11.0637C59.4305 10.9691 59.3832 10.8535 59.3832 10.7186ZM60.5777 10.7186C60.5777 10.5838 60.6267 10.4682 60.7231 10.3736C60.8194 10.279 60.935 10.2318 61.0716 10.2318C61.2082 10.2318 61.322 10.279 61.4149 10.3736C61.5077 10.4682 61.555 10.5838 61.555 10.7186C61.555 10.8535 61.5077 10.9691 61.4149 11.0637C61.322 11.1582 61.2065 11.2055 61.0716 11.2055C60.9367 11.2055 60.8211 11.1582 60.7231 11.0637C60.6267 10.9691 60.5777 10.8535 60.5777 10.7186Z" fill="white"/>
<path d="M63.5656 6.24023H64.3047V8.81131C64.3047 9.26492 64.2802 9.64848 64.2294 9.95848C64.1786 10.2685 64.0805 10.5189 63.9317 10.7098C63.7828 10.899 63.5796 11.0374 63.3187 11.1232C63.0577 11.209 62.7214 11.251 62.3081 11.251V10.4874C62.6076 10.4874 62.8423 10.4559 63.0104 10.3911C63.1803 10.3263 63.3047 10.2229 63.387 10.0793C63.4693 9.93571 63.5183 9.75182 63.5376 9.52588C63.5551 9.29995 63.5639 9.02848 63.5639 8.70973V6.24023H63.5656Z" fill="white"/>
<path d="M28.979 16.9133H29.718V19.4844C29.718 19.938 29.6935 20.3216 29.6427 20.6316C29.5919 20.9416 29.4939 21.192 29.345 21.3829C29.1961 21.5721 28.993 21.7104 28.732 21.7963C28.471 21.8821 28.1348 21.9241 27.7214 21.9241V21.1605C28.0209 21.1605 28.2556 21.129 28.4238 21.0642C28.5936 20.9994 28.718 20.896 28.8003 20.7524C28.8826 20.6088 28.9317 20.4249 28.9509 20.199C28.9684 19.973 28.9772 19.7016 28.9772 19.3828V16.9133H28.979Z" fill="white"/>
<path d="M33.9949 19.9993C33.9686 20.3723 33.8898 20.6823 33.7584 20.9293C33.6271 21.1762 33.4484 21.3724 33.2225 21.5195C32.9965 21.6666 32.7251 21.77 32.4081 21.8313C32.0911 21.8926 31.739 21.9223 31.352 21.9223H30.9649V21.1587H31.2504C31.5376 21.1587 31.8003 21.1447 32.0403 21.1184C32.2802 21.0904 32.4886 21.0361 32.6638 20.9521C32.8389 20.868 32.9773 20.7506 33.0771 20.5965C33.1769 20.4442 33.2312 20.2445 33.2417 19.9993H32.1979C31.9474 19.9993 31.7163 19.9713 31.5043 19.917C31.2942 19.8627 31.1085 19.7716 30.9509 19.6438C30.7933 19.5159 30.6707 19.353 30.5813 19.1516C30.492 18.9502 30.4482 18.6997 30.4482 18.4003C30.4482 18.1463 30.4903 17.8994 30.5708 17.6594C30.6514 17.4195 30.7723 17.2075 30.9299 17.0236C31.0875 16.8397 31.2784 16.6909 31.5026 16.577C31.7268 16.4632 31.9825 16.4054 32.2732 16.4054C32.592 16.4054 32.8617 16.4632 33.0806 16.577C33.2995 16.6909 33.4799 16.852 33.62 17.0604C33.7602 17.2688 33.86 17.521 33.9213 17.817C33.9826 18.113 34.0124 18.4423 34.0124 18.8031V19.2374H57.6214C57.8701 19.2374 57.9927 19.36 57.9927 19.6052C57.9927 19.7594 57.9629 19.8644 57.9034 19.9187C57.8438 19.973 57.7493 20.001 57.6214 20.001H33.9931L33.9949 19.9993ZM31.1873 18.3232C31.1873 18.6384 31.2767 18.8696 31.4571 19.0168C31.6375 19.1639 31.9019 19.2357 32.2487 19.2357H33.24V18.6262C33.24 18.1726 33.1629 17.81 33.0088 17.5386C32.8547 17.2688 32.5902 17.1322 32.2172 17.1322C32.0403 17.1322 31.8879 17.1673 31.7583 17.2391C31.6287 17.3091 31.5236 17.4019 31.4413 17.5175C31.359 17.6331 31.2959 17.7592 31.2521 17.8993C31.2084 18.0395 31.1873 18.1796 31.1873 18.3214V18.3232Z" fill="white"/>
<path d="M57.6319 19.9993C57.3867 19.9993 34.2996 19.8767 34.2996 19.6315C34.2996 19.4774 57.2939 19.3723 57.3516 19.318C57.4094 19.2637 57.5023 19.2357 57.6319 19.2357H58.0137C58.0837 19.2357 58.1608 19.2269 58.2414 19.2094C58.3219 19.1919 58.4007 19.1516 58.4813 19.0886C58.5601 19.0255 58.6389 18.9397 58.716 18.8329C58.7931 18.7243 58.8666 18.5807 58.9332 18.4003C59.075 18.008 59.2239 17.6892 59.3798 17.4457C59.5357 17.2023 59.695 17.0149 59.8579 16.8835C60.0208 16.7522 60.1872 16.6646 60.3553 16.6208C60.5235 16.577 60.6933 16.556 60.8597 16.556C61.0909 16.556 61.3063 16.5998 61.5025 16.6891C61.6987 16.7785 61.8703 16.9028 62.0139 17.0657C62.1593 17.2286 62.2714 17.4212 62.3537 17.6454C62.436 17.8696 62.4763 18.1218 62.4763 18.402C62.4763 18.9274 62.3484 19.3443 62.0945 19.656C61.8405 19.966 61.4482 20.1219 60.921 20.1219C60.6303 20.1219 60.3396 20.0729 60.0436 19.9748C59.7493 19.8767 59.4446 19.7103 59.1328 19.4756C59.0523 19.5982 58.9717 19.6946 58.8894 19.7646C58.8071 19.8347 58.7195 19.8872 58.6267 19.9222C58.5339 19.9555 58.4375 19.9783 58.3412 19.987C58.2449 19.9958 58.1398 20.0011 58.0277 20.0011H57.6319V19.9993ZM61.7144 18.3722C61.7144 18.2339 61.6952 18.1008 61.6549 17.9712C61.6146 17.8416 61.5568 17.7295 61.478 17.6331C61.3992 17.5368 61.3081 17.458 61.1978 17.3985C61.0874 17.3389 60.9596 17.3091 60.8107 17.3091C60.5497 17.3091 60.3115 17.423 60.0979 17.6524C59.8842 17.8818 59.6828 18.2812 59.4971 18.8504C59.7231 18.9957 59.9472 19.1131 60.1714 19.2024C60.3956 19.2935 60.625 19.3373 60.8597 19.3373C61.1172 19.3373 61.3239 19.2637 61.4797 19.1148C61.6356 18.966 61.7144 18.719 61.7144 18.3705V18.3722Z" fill="white"/>
<path d="M64.3049 13.4246V19.9994H63.5518V13.4246H64.3049Z" fill="white"/>
<path d="M5.90401 28.1258C5.97232 28.1994 6.03011 28.3027 6.0774 28.4358C6.12644 28.5672 6.14921 28.695 6.14921 28.8176C6.14921 29.0015 6.09492 29.1819 5.98808 29.3606C5.87949 29.5392 5.7061 29.6986 5.46791 29.837C5.22972 29.9753 4.91972 30.0857 4.53616 30.168C4.1526 30.2503 3.68147 30.2906 3.12102 30.2906C2.49927 30.2906 1.98785 30.2345 1.58678 30.1207C1.18571 30.0086 0.866949 29.8527 0.630508 29.6548C0.394068 29.4569 0.229435 29.224 0.138362 28.956C0.0472881 28.688 0 28.4008 0 28.0908V26.6652H0.749605V27.9507C0.749605 28.4954 0.937006 28.8947 1.31006 29.1487C1.68311 29.4026 2.29435 29.5305 3.14028 29.5305C3.45554 29.5305 3.75503 29.5147 4.03701 29.4814C4.31898 29.4482 4.56593 29.4009 4.77785 29.3361C4.98977 29.2713 5.15616 29.1889 5.27701 29.0891C5.39785 28.9893 5.4574 28.8754 5.4574 28.7458C5.4574 28.6075 5.38559 28.4831 5.24198 28.371C5.09836 28.2589 4.92147 28.1626 4.7078 28.0803C4.49588 27.998 4.26994 27.9227 4.03175 27.8561C3.79356 27.7878 3.58164 27.7265 3.39949 27.6722V26.9226C4.17887 27.2134 4.91797 27.357 5.61678 27.357H6.54503C6.79373 27.357 16.6489 27.4796 16.6489 27.7248C16.6489 27.8789 6.88831 27.984 6.82876 28.0383C6.76921 28.0926 6.67463 28.1206 6.54678 28.1206H5.90401V28.1258Z" fill="white"/>
<path d="M6.56091 28.1258C6.31571 28.1258 6.19312 28.0032 6.19312 27.758C6.19312 27.6039 6.22289 27.4988 6.28069 27.4445C6.33848 27.3902 6.43131 27.3622 6.56091 27.3622H17.0309C17.1412 27.3622 17.2393 27.3552 17.3251 27.3429C17.4127 27.3307 17.4845 27.3009 17.5423 27.2536C17.6001 27.2063 17.6456 27.1398 17.6771 27.054C17.7087 26.9681 17.7262 26.8455 17.7262 26.6914V21.551H18.4845V26.3481C18.4845 26.6599 18.5476 26.9086 18.6737 27.089C18.7998 27.2711 19.0012 27.3622 19.2779 27.3622C19.5231 27.3622 19.6457 27.4848 19.6457 27.73C19.6457 27.8841 19.6159 27.9892 19.5581 28.0435C19.5003 28.0978 19.4075 28.1258 19.2779 28.1258C19.0397 28.1258 18.8488 28.068 18.7035 27.9542C18.5581 27.8403 18.4618 27.6967 18.4127 27.5268C18.3006 27.7773 18.1237 27.9402 17.882 28.0155C17.6403 28.089 17.3286 28.1258 16.945 28.1258H6.56091Z" fill="white"/>
<path d="M19.6071 27.3623C19.8103 27.3623 19.9819 27.3552 20.122 27.343C20.2622 27.3307 20.3743 27.3009 20.4583 27.2537C20.5424 27.2064 20.6019 27.1398 20.6387 27.054C20.6755 26.9664 20.6948 26.8456 20.6948 26.6915V25.0399H21.4479V26.3499C21.4479 26.5041 21.4566 26.6442 21.4741 26.7703C21.4917 26.8964 21.5354 27.0015 21.6037 27.0873C21.672 27.1731 21.7701 27.2397 21.8962 27.2904C22.0223 27.3395 26.3431 27.3658 26.5567 27.3658C26.6916 27.3658 26.8089 27.3587 26.9088 27.3465C27.0086 27.3342 27.0927 27.3045 27.1592 27.2572C27.2258 27.2099 27.2766 27.1433 27.3098 27.0575C27.3414 26.9699 27.3589 26.8491 27.3589 26.695V25.0434H28.112V26.3534C28.112 26.5076 28.1225 26.6477 28.1453 26.7738C28.168 26.8999 28.2118 27.005 28.2749 27.0908C28.3379 27.1766 28.4272 27.2432 28.5411 27.2939C28.6549 27.3447 28.8038 27.3693 28.9912 27.3693C29.098 27.3693 33.3452 27.3622 33.431 27.35C33.5168 27.3377 33.5904 27.308 33.65 27.2607C33.7113 27.2134 33.7585 27.1468 33.7918 27.061C33.8251 26.9734 33.8426 26.8526 33.8426 26.6985V24.588H34.5957V26.3569C34.5957 26.5111 34.6062 26.6512 34.629 26.7773C34.6518 26.9034 34.6938 27.0085 34.7551 27.0943C34.8164 27.1801 34.8987 27.2467 35.002 27.2974C35.1054 27.3465 35.2367 27.3728 35.3979 27.3728C35.6466 27.3728 35.7692 27.4954 35.7692 27.7406C35.7692 27.8947 35.7394 27.9998 35.6798 28.0541C35.6203 28.1084 35.5257 28.1364 35.3979 28.1364C35.1597 28.1364 34.967 28.0786 34.8181 27.9647C34.6693 27.8509 34.5712 27.7073 34.5239 27.5374C34.4696 27.667 34.3926 27.7686 34.2945 27.8474C34.1964 27.9245 34.0913 27.9858 33.981 28.0278C33.8706 28.0716 33.762 28.0996 33.657 28.1154C33.5519 28.1294 33.4626 28.1364 33.389 28.1364C33.1893 28.1364 28.8669 28.1171 28.7267 28.0803C28.5866 28.0435 28.471 27.9963 28.3782 27.9385C28.2871 27.8807 28.2153 27.8159 28.1628 27.7458C28.112 27.674 28.0717 27.6057 28.0419 27.5374C27.9298 27.7878 27.7582 27.9507 27.527 28.026C27.2958 28.0996 27.0226 28.1364 26.7039 28.1364C26.4884 28.1364 22.1554 28.1189 22.0136 28.0856C21.87 28.0523 21.7526 28.005 21.6615 27.9472C21.5705 27.8894 21.4952 27.8229 21.4391 27.7493C21.3831 27.6758 21.3358 27.6004 21.2972 27.5269C21.2465 27.6565 21.1782 27.7581 21.0941 27.8369C21.01 27.9139 20.9032 27.977 20.7736 28.0225C20.6422 28.0698 20.4811 28.0996 20.2849 28.1136C20.0905 28.1276 19.8593 28.1346 19.5914 28.1346H19.2814C19.0362 28.1346 18.9136 28.012 18.9136 27.7668C18.9136 27.6127 18.9433 27.5076 19.0011 27.4533C19.0589 27.399 19.1518 27.371 19.2814 27.371H19.6054L19.6071 27.3623Z" fill="white"/>
<path d="M35.41 28.1258C35.1648 28.1258 35.0422 28.0032 35.0422 27.758C35.0422 27.6039 35.072 27.4988 35.1298 27.4445C35.1876 27.3902 35.2804 27.3622 35.41 27.3622H43.0742V24.5792H43.8326V28.1258H35.41ZM42.9376 23.0275C42.9376 22.8926 42.9849 22.7788 43.0795 22.6842C43.174 22.5914 43.2896 22.5441 43.4245 22.5441C43.5594 22.5441 43.6749 22.5914 43.7695 22.6842C43.8641 22.777 43.9114 22.8926 43.9114 23.0275C43.9114 23.1623 43.8641 23.2832 43.7695 23.3777C43.6749 23.4723 43.5594 23.5196 43.4245 23.5196C43.2896 23.5196 43.174 23.4723 43.0795 23.3777C42.9849 23.2832 42.9376 23.1658 42.9376 23.0275Z" fill="white"/>
<path d="M47.8608 28.1259C47.8345 28.4989 47.7557 28.8089 47.6244 29.0559C47.493 29.3028 47.3144 29.499 47.0884 29.6461C46.8625 29.7932 46.591 29.8966 46.274 29.9579C45.957 30.0192 45.605 30.0489 45.2179 30.0489H44.8309V29.2853H45.1164C45.4036 29.2853 45.6663 29.2713 45.9062 29.245C46.1462 29.217 46.3546 29.1627 46.5297 29.0786C46.7049 28.9946 46.8432 28.8772 46.9431 28.7231C47.0429 28.5707 47.0972 28.3711 47.1077 28.1259H46.0639C45.8134 28.1259 45.5822 28.0979 45.3703 28.0436C45.1601 27.9893 44.9745 27.8982 44.8169 27.7703C44.6592 27.6425 44.5366 27.4796 44.4473 27.2782C44.358 27.0768 44.3142 26.8263 44.3142 26.5268C44.3142 26.2729 44.3562 26.0259 44.4368 25.786C44.5191 25.5461 44.6382 25.3341 44.7958 25.1502C44.9535 24.9663 45.1444 24.8175 45.3686 24.7036C45.5927 24.5898 45.8484 24.532 46.1392 24.532C46.4579 24.532 46.7277 24.5898 46.9466 24.7036C47.1655 24.8175 47.3459 24.9786 47.486 25.187C47.6261 25.3954 47.726 25.6459 47.7873 25.9436C47.8486 26.2396 47.8783 26.5689 47.8783 26.9297V27.364H48.5211C48.7698 27.364 60.3764 27.4866 60.3764 27.7318C60.3764 27.8859 60.3466 27.991 60.2871 28.0453C60.2275 28.0996 48.6507 28.1276 48.5211 28.1276H47.8591L47.8608 28.1259ZM45.0533 26.448C45.0533 26.7633 45.1426 26.9945 45.323 27.1416C45.5034 27.2887 45.7679 27.3605 46.1147 27.3605H47.106V26.751C47.106 26.2974 47.0289 25.9349 46.8748 25.6634C46.7207 25.3937 46.4562 25.2571 46.0831 25.2571C45.9062 25.2571 45.7539 25.2921 45.6243 25.3639C45.4947 25.4357 45.3896 25.5268 45.3073 25.6424C45.2249 25.758 45.1619 25.8841 45.1181 26.0242C45.0743 26.1643 45.0533 26.3044 45.0533 26.4463V26.448Z" fill="white"/>
<path d="M48.5333 28.1258C48.2881 28.1258 48.1655 28.0032 48.1655 27.758C48.1655 27.6039 48.1953 27.4988 48.2531 27.4445C48.3109 27.3902 48.4037 27.3622 48.5333 27.3622H61.0647C60.9999 27.2326 60.9438 27.0907 60.893 26.9349C60.8422 26.779 60.8177 26.5986 60.8177 26.3954C60.8177 26.1537 60.858 25.9173 60.9368 25.6826C61.0156 25.4479 61.133 25.243 61.2871 25.0626C61.4412 24.8822 61.6304 24.7351 61.8546 24.6212C62.0787 24.5074 62.338 24.4496 62.6357 24.4496C62.9702 24.4496 63.2452 24.5109 63.4624 24.6353C63.6778 24.7596 63.8494 24.9155 63.9773 25.1064C64.1051 25.2973 64.1909 25.5057 64.2382 25.7351C64.2855 25.9646 64.3083 26.1888 64.3083 26.4112V28.1258H48.5351H48.5333ZM61.4412 23.0275C61.4412 22.8926 61.4903 22.7788 61.5866 22.6842C61.6829 22.5914 61.7985 22.5441 61.9351 22.5441C62.0717 22.5441 62.1856 22.5914 62.2784 22.6842C62.3712 22.777 62.4185 22.8926 62.4185 23.0275C62.4185 23.1623 62.3712 23.2832 62.2784 23.3777C62.1856 23.4723 62.07 23.5196 61.9351 23.5196C61.8003 23.5196 61.6847 23.4723 61.5866 23.3777C61.4903 23.2832 61.4412 23.1658 61.4412 23.0275ZM61.5376 26.2693C61.5376 26.6459 61.6479 26.9226 61.8686 27.0977C62.0893 27.2729 62.359 27.3604 62.6777 27.3604H63.5622V26.4375C63.5622 26.2886 63.5482 26.1397 63.5219 25.9908C63.4939 25.8402 63.4448 25.7071 63.3713 25.588C63.2995 25.4689 63.1979 25.3708 63.0665 25.2938C62.9369 25.2167 62.7723 25.1782 62.5761 25.1782C62.2504 25.1782 61.9964 25.285 61.8125 25.4987C61.6286 25.7124 61.5376 25.9698 61.5376 26.2693ZM62.6427 23.0275C62.6427 22.8926 62.69 22.7788 62.7846 22.6842C62.8791 22.5914 62.9947 22.5441 63.1296 22.5441C63.2645 22.5441 63.3765 22.5914 63.4729 22.6842C63.5692 22.777 63.6182 22.8926 63.6182 23.0275C63.6182 23.1623 63.5692 23.2832 63.4729 23.3777C63.3765 23.4723 63.261 23.5196 63.1296 23.5196C62.9982 23.5196 62.8791 23.4723 62.7846 23.3777C62.69 23.2832 62.6427 23.1658 62.6427 23.0275Z" fill="white"/>
</g>
<g clip-path="url(#clip1_725_6729)">
<rect x="70.582" y="0.999878" width="31" height="31" fill="#5064BA"/>
<g clip-path="url(#clip2_725_6729)">
<path d="M96.4448 28.2046C96.1958 29.975 100.111 28.8738 99.7674 30.6912L99.6255 31.1632C98.2881 30.7325 97.8435 31.258 96.8321 31.2906L94.8281 31.1775C97.1638 30.9048 98.4439 30.1751 99.5261 30.5736C99.0398 29.4781 95.5299 30.5099 96.4444 28.205L96.4448 28.2046Z" fill="white"/>
<path d="M95.4239 30.1959C95.6644 25.8955 87.7457 28.6835 88.6663 24.7637C89.2049 27.5525 93.8301 24.7637 93.8755 27.2846C93.5483 26.4913 92.4114 26.5815 91.2466 26.7019C93.0449 27.1005 95.9887 27.0645 95.4235 30.1955L95.4239 30.1959Z" fill="white"/>
<path d="M83.37 31.4657C84.6596 28.4042 76.5364 27.9109 77.8991 24.5391C77.958 26.8893 82.6224 25.4353 82.128 28.4213C82.0327 27.0106 80.4286 27.002 79.0381 26.4773C81.1051 28.0926 84.833 28.9926 83.37 31.4657Z" fill="white"/>
<path d="M94.6043 30.2183C94.5225 31.8124 92.2817 31.4551 92.6228 29.7186C91.7942 29.6071 91.6016 30.3343 91.0278 30.8872C91.0278 30.8872 90.3967 31.4968 90.1374 30.8051L89.9341 30.0452C89.2601 28.4434 87.7535 28.0955 86.7056 27.5173C85.9278 27.0882 85.5912 26.4484 85.7556 24.9213C85.6987 28.2176 89.6029 26.7134 90.2384 30.3482C90.611 30.9104 91.1411 30.3319 91.404 29.957C91.1226 29.9317 90.8707 29.8529 90.8008 29.4462C90.7881 29.3735 90.7901 29.2984 90.8036 29.2257L90.8777 28.8276C90.8977 28.719 90.9439 28.6157 91.0163 28.5324C91.5104 27.9628 92.1034 28.5504 92.2257 29.2033C92.2698 29.6875 92.2294 30.2437 92.15 30.8337C92.3766 29.2094 91.4691 28.3989 90.9137 29.1094C91.5198 29.8966 92.1099 28.9228 92.6801 29.1216C92.7205 29.1359 92.7471 29.1747 92.7434 29.2176L92.6997 29.7149C92.7978 30.9145 94.2538 30.9525 94.5381 30.1375C94.5311 29.9644 94.4873 29.8076 94.3998 29.67C94.2632 29.2935 93.8628 29.1404 93.3201 29.1077C93.7185 29.5365 94.5143 28.9272 94.6706 29.1722C94.6861 29.1963 94.6906 29.2261 94.6877 29.2551L94.7012 29.7933C94.4186 29.465 94.1475 29.7394 93.8199 29.797C93.4727 29.8578 93.0624 29.7414 93.0935 29.1306L93.2052 28.5202C93.945 28.7602 94.7998 28.8636 94.6051 30.2179L94.6043 30.2183Z" fill="white"/>
<path d="M93.3067 24.7637C92.9248 26.8245 84.2834 26.7146 83.8764 30.4217C83.7791 31.9754 85.4338 31.3021 85.8866 30.4683C85.8391 30.8121 85.8694 31.0179 85.9471 31.1392C85.9917 31.209 86.087 31.2208 86.1483 31.1649C86.4718 30.8713 86.4996 30.2948 86.7352 30.0661C86.6514 31.0032 87.208 31.1506 87.6955 31.3837L87.7998 30.5904L88.6341 31.1289L88.7061 30.9064C89.3425 31.6304 89.8284 30.004 90.4827 29.7431L90.5437 29.2009C90.0472 29.2981 89.3466 31.0207 88.864 30.4495C88.812 30.3879 88.7908 30.3062 88.7994 30.2257C88.9151 29.1568 88.1049 29.3303 87.7822 28.4757C87.6002 29.3499 87.9106 29.2613 88.6738 30.1045C88.6979 30.256 88.7 30.4115 88.6738 30.5728C88.0538 30.1045 87.5597 30.0612 87.5303 29.414C87.255 30.3127 87.7225 30.3964 87.7025 30.8076C87.219 30.5851 86.6718 30.4356 86.8383 29.4712C86.4542 29.6949 86.4714 30.5593 86.1078 30.6737C86.0105 30.6737 85.9884 30.5696 85.9892 30.4332L86.0199 29.8374C84.9136 31.365 84.0057 30.7737 83.9644 30.3997C85.2261 27.0813 93.6846 27.5848 93.3076 24.7633L93.3067 24.7637Z" fill="white"/>
<path d="M85.9237 27.6824L86.0087 27.2569C86.0157 27.2222 85.9846 27.1916 85.9503 27.1993C85.4231 27.319 85.1294 27.8996 84.6624 28.1756C84.2244 28.4345 83.7103 28.4165 83.4833 28.0213C83.3487 27.7869 83.3671 27.4962 83.5095 27.2663C83.6616 27.0209 83.8759 26.8735 84.2832 26.7151C83.8608 26.8449 83.5246 26.9511 83.2682 27.673C82.9336 28.677 83.8313 29.1295 84.5601 28.6946C85.0157 28.4227 85.3568 27.7555 85.8779 27.7212C85.9004 27.7195 85.9196 27.704 85.9241 27.682L85.9237 27.6824Z" fill="white"/>
<path d="M79.4257 31.5201C81.1912 28.6995 75.454 28.3332 77.5468 25.5559C76.4945 26.7041 76.6867 27.5113 77.2556 28.2075C77.8998 28.9963 79.4527 29.7427 79.579 30.7337C79.2874 30.4745 78.9026 30.463 78.6032 30.6423C79.0588 29.8109 79.1819 29.0882 79.0997 28.6027C79.6355 29.1021 80.078 29.7281 79.8821 30.4655C79.66 31.249 79.9046 31.6614 80.6228 30.3581C80.3708 31.1412 80.8996 31.227 81.3503 31.4662C81.4019 31.4936 81.4661 31.4707 81.4878 31.4168L81.7115 30.864L82.547 31.3001C82.6243 31.3405 82.7192 31.3033 82.7486 31.2217L82.9016 30.8007C82.9131 30.7668 82.9229 30.7178 82.9315 30.6619C82.9732 30.3867 82.8861 30.1078 82.6955 29.9044C82.4828 29.6778 82.1765 29.37 81.8796 29.1401C81.8427 29.1115 81.7888 29.1262 81.772 29.1699L81.6313 29.5312C81.6178 29.5655 81.6289 29.6039 81.6579 29.6264C81.855 29.777 82.5867 30.3569 82.7421 30.7958C82.2231 30.4953 81.5941 30.4271 81.4955 29.7971C81.4927 29.7791 81.4681 29.7754 81.4599 29.7917C81.0964 30.4977 81.3855 30.5288 81.4963 30.9269C81.0444 30.7015 80.6277 30.6492 80.8301 29.8763C80.8367 29.8522 80.8072 29.8334 80.7888 29.8505C80.5978 30.0245 80.4477 30.4385 80.2894 30.5953C80.1332 30.7497 80.0121 30.7795 79.995 30.5422C79.9909 30.4847 79.9999 30.4267 80.0162 30.3711C80.8178 27.6436 76.0426 27.0201 76.7804 25.1051C75.4262 27.2312 79.3132 27.5619 79.0028 29.4573C78.9758 29.6219 78.9165 29.7795 78.8359 29.9261L78.4453 30.637C78.3541 30.8031 78.2736 30.975 78.2049 31.1514L78.0605 31.5214C78.6682 30.9069 79.2764 30.9371 79.4265 31.5214L79.4257 31.5201Z" fill="white"/>
<path d="M76.051 26.2605C76.0011 27.2511 77.1626 27.1572 76.8055 28.1253L76.6374 28.6361C76.1581 28.4062 75.5679 28.2764 75.7782 27.4202C75.3127 27.944 74.4662 28.0616 74.7058 27.0433C74.6056 27.0612 74.4981 27.1707 74.3844 27.3642C74.2285 28.779 78.5895 28.8664 77.9462 30.8574L77.7805 31.378C77.0828 30.5691 76.1238 30.9402 75.161 29.9754L74.5905 28.6463C75.9839 30.4523 76.4088 29.7998 77.8251 30.7716C77.2121 29.0526 73.6445 29.3025 74.2858 27.3993C74.3987 26.902 74.6101 26.6113 74.9123 26.4916L74.8248 26.9759C74.9111 27.6362 75.7704 27.1515 76.0002 26.8314C75.7659 27.4067 75.9626 27.833 76.6837 28.0788C76.4055 27.45 75.5549 27.3561 76.051 26.2601V26.2605Z" fill="white"/>
<path d="M73.8625 28.7938C72.9684 30.2237 75.8702 29.6827 75.2477 30.9489C75.2375 30.9693 75.2232 30.9881 75.2068 31.0044L74.8256 31.385C74.6849 30.8497 72.9848 31.9089 71.3967 30.7435C73.2637 31.267 73.7602 30.6296 74.9111 30.8133C74.8305 30.4095 74.1933 30.3152 73.6829 30.0457C73.231 29.8069 73.112 29.3418 73.8621 28.7942L73.8625 28.7938Z" fill="white"/>
<path d="M73.0542 29.8917C73.3503 28.7044 71.8129 27.8093 72.6379 27.0911C73.4403 26.7244 73.691 26.7943 74.0583 26.4121C74.8676 25.5795 74.7928 24.2145 76.2786 24.1953C74.2067 23.1794 74.3372 26.7093 72.2628 26.1728C72.7835 25.4039 72.9246 24.3697 74.1237 24.2386C74.4832 24.7139 73.9155 25.4938 72.8828 25.3468C72.2816 25.2222 71.7561 23.5873 73.6665 23.5865L74.1127 23.6625C74.219 22.8524 72.8195 22.9871 72.0821 21.6348C71.6637 20.8676 71.8003 20.6593 71.5005 19.5879C71.3733 20.1697 71.379 20.7565 71.5005 21.3481C72.2236 22.8393 73.5307 22.6743 73.5928 23.4261C71.1917 23.119 71.5426 25.2888 72.7831 25.4035C73.6546 25.6587 74.2178 25.5309 74.5773 25.1504C74.9175 24.6592 74.7368 24.3052 74.0971 24.1463C72.624 23.749 72.2587 25.3639 71.6813 26.074C72.2105 26.3492 72.7912 26.4125 73.3961 26.3753C72.9246 26.8089 72.2289 26.6187 71.9401 27.183C71.7127 28.1588 72.7945 28.6088 72.5332 29.7349L73.0542 29.8909V29.8917Z" fill="white"/>
<path d="M74.9826 23.5768L75.5118 23.687C75.5069 23.1154 73.8374 22.0378 74.399 21.6532C74.4844 21.5948 74.5908 21.5752 74.6934 21.5899L75.0116 21.6352C75.0595 21.6422 75.0934 21.5915 75.0705 21.5491C74.8861 21.211 74.2501 20.9419 73.9295 20.4993C73.6947 20.1747 73.7524 19.8039 74.2207 19.6578L74.6272 19.7002C74.6967 19.7076 74.7499 19.639 74.7249 19.5737C74.5384 19.0878 74.3204 18.541 74.5405 18.2356C74.7257 18.7652 73.9029 19.1592 73.2612 19.0947C72.6911 18.842 71.9921 18.1347 71.7418 17.2054C71.5602 16.5313 71.3476 15.5056 71.2866 14.1455C71.1402 14.653 71.1214 15.4346 71.1586 16.3378C71.1639 16.4643 71.1758 16.5905 71.1995 16.715C71.44 17.9902 72.2371 18.9992 73.3197 19.176C74.2542 19.4067 74.8705 19.1192 75.165 18.3071C75.1908 18.2356 75.1466 18.1576 75.0722 18.1413L74.7368 18.0678C74.6272 18.0437 74.5151 18.0327 74.4031 18.0412C73.4092 18.1172 74.2955 19.4695 74.1683 19.5475C73.1921 19.4544 73.0845 19.9509 73.4403 20.4511C73.691 20.8035 74.5503 21.2596 74.5532 21.487C73.6006 21.2935 73.6526 21.7814 73.9969 22.2432C74.3442 22.7087 74.976 23.1725 74.9822 23.5768H74.9826Z" fill="white"/>
<path d="M76.0743 15.5026C74.5827 14.8412 74.3283 15.8995 73.8347 16.6255C73.7345 16.2695 73.5672 15.904 73.8196 15.5978C73.8875 15.5153 73.9811 15.4594 74.0817 15.4218C75.7033 14.8142 75.2845 10.0917 77.1025 9.78786C77.4104 10.1443 78.1188 11.56 76.1802 12.5068C76.433 12.4999 76.6722 12.468 76.8959 12.4084C77.3961 12.2745 77.808 11.907 77.9515 11.4105C78.2002 10.5506 77.5548 9.82584 77.0403 9.65189C75.1087 9.14232 75.0535 13.6383 74.1157 14.8346C74.0277 14.9469 73.9112 15.0343 73.7795 15.0898C73.4539 15.2274 73.3096 15.3185 73.2413 15.5753C73.0969 16.1163 73.8261 17.2327 72.8523 18.1894C72.8221 18.2188 72.8311 18.2694 72.8695 18.2869L73.3386 18.5029C73.3726 18.5185 73.413 18.5127 73.4396 18.4866C74.4204 17.5283 74.1733 15.3532 76.0751 15.5026H76.0743Z" fill="white"/>
<path d="M72.3373 15.6783L72.8792 15.8237C73.0354 14.9425 72.1017 14.6024 71.7475 13.8691C71.3774 13.1027 71.1978 12.4918 71.132 11.8928C71.132 12.2926 71.1042 12.872 71.1762 13.3497C71.1995 13.504 71.3136 13.8768 71.4592 14.0732C71.943 14.7269 72.6248 15.1544 72.3373 15.6783Z" fill="white"/>
<path d="M72.5893 14.1299L73.1431 14.2871C73.4993 14.2557 72.9018 13.546 73.3177 13.2283C73.267 13.6101 73.1063 13.8294 72.764 13.7812C72.0254 13.2463 71.5456 11.8347 71.1375 10.1807L71.2368 11.9189C71.2409 11.9924 71.2556 12.065 71.2818 12.134C71.6119 13.0103 72.0364 13.7277 72.7701 13.9266C73.6371 14.1523 73.7627 13.7191 73.8572 13.2585C73.8654 13.2185 73.8416 13.1785 73.8024 13.1667L73.5431 13.0883C73.3918 13.0425 73.2331 13.0234 73.076 13.0385C72.1754 13.1267 73.1366 14.0348 72.5893 14.1299Z" fill="white"/>
<path d="M72.419 12.0423L72.9785 12.2052C73.3768 12.1962 72.8783 11.411 73.2349 11.0415C73.2059 11.3873 73.1858 11.7397 72.7106 11.7511C71.9196 11.0284 71.4824 9.57809 71.2947 7.6145V9.73693C71.2947 9.87534 71.3155 10.0129 71.3581 10.1444C71.6141 10.9349 71.9564 11.616 72.6235 11.8847L73.1829 12.001C73.7702 11.9308 73.9216 11.1624 73.457 10.9361L73.0958 10.8549C72.1335 10.6981 72.9789 12.0896 72.4198 12.0419L72.419 12.0423Z" fill="white"/>
<path d="M72.5479 10.2905L73.0133 10.442C73.0371 10.4498 73.0628 10.4359 73.0686 10.4118C73.3508 9.24852 72.2036 8.64789 71.7709 7.70754C71.476 7.06648 71.4686 6.46259 71.5365 5.03552C71.2416 5.66433 71.1279 6.69737 71.1811 7.15101C71.3345 8.46782 73.0522 9.56578 72.5287 10.2228C72.5099 10.2464 72.5197 10.2812 72.5483 10.2905H72.5479Z" fill="white"/>
<path d="M72.9016 8.32984L73.2575 8.51399C73.2959 8.534 73.3433 8.514 73.356 8.47235C73.6873 7.39848 72.6501 6.75579 72.1229 5.0968C72.0477 4.86039 71.8747 3.96169 71.8002 2.78247C71.6019 3.71915 71.6375 4.1883 71.6968 4.91674C71.7802 5.93997 73.2411 7.23352 72.8681 8.24614C72.8562 8.2784 72.871 8.31433 72.9016 8.33025V8.32984Z" fill="white"/>
<path d="M73.691 7.51558L74.2153 7.72505C74.3131 6.91046 73.361 6.20938 73.0191 5.24249C72.7316 4.42912 72.8309 3.98488 73.3532 3.86973C73.6743 3.79909 73.9998 3.89995 74.2706 4.08614C74.8125 4.45852 75.1707 4.99096 75.1707 4.99096C75.1707 4.99096 74.7356 4.27233 74.1765 3.93874C73.9013 3.77459 73.5937 3.66761 73.2747 3.63903C72.2281 3.54512 72.213 4.37073 72.5757 5.21717C72.9831 6.16773 73.8289 6.74305 73.6906 7.51599L73.691 7.51558Z" fill="white"/>
<path d="M71.8522 9.63769C73.3008 10.5119 75.1715 4.99065 78.0307 7.43319C75.7686 6.04573 75.9752 10.5319 73.9478 9.11545C74.7773 9.34002 75.2394 8.42744 75.8533 7.43237C74.3985 8.34945 73.1695 10.6605 71.8518 9.63769H71.8522Z" fill="white"/>
<path d="M91.0569 28.167L91.1101 27.6636L90.5089 27.5403L90.4602 28.0654L91.0569 28.167Z" fill="white"/>
<path d="M92.9456 28.5068L92.9983 28.0037L92.3975 27.88L92.3489 28.4055L92.9456 28.5068Z" fill="white"/>
<path d="M90.3018 29.0375L90.5631 28.6043L90.0711 28.238L89.8044 28.6933L90.3018 29.0375Z" fill="white"/>
<path d="M86.2731 29.7798L86.5434 29.3519L86.0592 28.9758L85.7827 29.4254L86.2731 29.7798Z" fill="white"/>
<path d="M84.5065 27.8837L84.7768 27.4558L84.2922 27.0797L84.0161 27.5293L84.5065 27.8837Z" fill="white"/>
<path d="M85.5353 30.0072L85.8056 29.5793L85.321 29.2032L85.0449 29.6528L85.5353 30.0072Z" fill="white"/>
<path d="M76.4039 30.7208L76.0305 31.0935L76.4579 31.5202L76.8313 31.1475L76.4039 30.7208Z" fill="white"/>
<path d="M75.6229 30.6686L75.2495 31.0414L75.6769 31.4681L76.0503 31.0954L75.6229 30.6686Z" fill="white"/>
<path d="M71.8916 28.9163L71.4604 29.3468L71.8879 29.7735L72.3191 29.343L71.8916 28.9163Z" fill="white"/>
<path d="M72.8743 20.3239L72.4431 20.7544L72.8705 21.1811L73.3017 20.7506L72.8743 20.3239Z" fill="white"/>
<path d="M71.4558 18.4192L71.2317 18.6429L71.4538 18.8647L71.6779 18.6409L71.4558 18.4192Z" fill="white"/>
<path d="M71.4587 18.8989L71.2346 19.1227L71.4567 19.3444L71.6808 19.1207L71.4587 18.8989Z" fill="white"/>
<path d="M72.9624 21.1666L72.5312 21.597L72.9587 22.0238L73.3899 21.5933L72.9624 21.1666Z" fill="white"/>
<path d="M76.0472 22.726L75.616 23.1565L76.0434 23.5832L76.4746 23.1527L76.0472 22.726Z" fill="white"/>
<path d="M72.4775 16.0105L72.26 16.4908L72.8108 16.7395L73.0283 16.2592L72.4775 16.0105Z" fill="white"/>
<path d="M72.7866 16.8188L72.5691 17.2991L73.1199 17.5477L73.3374 17.0674L72.7866 16.8188Z" fill="white"/>
<path d="M73.841 10.0424L73.4814 10.4285L73.9241 10.8394L74.2837 10.4534L73.841 10.0424Z" fill="white"/>
<path d="M74.0906 4.64398L73.7104 5.00977L74.1299 5.44432L74.5101 5.07854L74.0906 4.64398Z" fill="white"/>
<path d="M74.0535 5.42304L73.6733 5.78882L74.0928 6.22337L74.473 5.85759L74.0535 5.42304Z" fill="white"/>
<path d="M72.1458 16.5347L71.9282 17.015L72.479 17.2636L72.6965 16.7833L72.1458 16.5347Z" fill="white"/>
<path d="M77.6272 6.64635C77.9384 7.01751 78.2644 6.98403 78.3675 6.77333C77.6096 5.97671 75.7815 6.79743 75.4146 5.31238C75.3328 4.95756 75.341 4.60395 75.5373 4.25403L75.6588 4.67296C75.86 5.30095 76.5859 5.52797 77.3814 5.70191C77.3082 5.62474 77.2563 5.47693 77.217 5.28502C77.217 5.28502 77.4374 5.69702 77.8476 5.71253L77.9069 6.06613C76.9512 5.86769 75.8804 5.85013 75.5802 4.626C75.5017 4.74401 75.4629 4.97675 75.4518 5.29033C76.1745 6.57938 78.0419 5.53573 78.4296 6.74475C78.6047 7.27066 77.9061 7.57445 77.6264 6.64635H77.6272Z" fill="white"/>
<path d="M75.5511 16.378L75.8811 16.5005C75.4411 16.946 74.9474 17.2126 74.311 17.002C74.5319 17.28 74.7679 17.4948 75.0362 17.6467C76.1678 18.2979 76.2795 16.8374 77.2201 16.819C77.2762 17.1853 77.016 17.5275 76.4471 17.4319L77.0729 17.5711C77.4582 17.4956 77.8042 17.0158 77.2802 16.7594C76.2451 16.3229 75.9376 17.9464 75.0787 17.6071C74.8848 17.4629 74.7139 17.318 74.6362 17.1714C75.574 17.4082 76.093 16.7259 76.6525 16.1331L76.3056 15.9554C76.0803 16.2739 75.8316 16.436 75.5515 16.3785L75.5511 16.378Z" fill="white"/>
<path d="M75.2816 19.8157L75.579 19.9259C75.1827 20.3273 74.7381 20.567 74.1655 20.3771C74.3647 20.6274 74.577 20.821 74.8187 20.9573C75.8374 21.5437 75.9381 20.2289 76.7846 20.2122C76.835 20.5417 76.601 20.85 76.0886 20.7638L76.6517 20.8892C76.9985 20.8214 77.3102 20.3894 76.8382 20.1583C75.9062 19.7651 75.6293 21.2268 74.8563 20.9214C74.6817 20.7916 74.5279 20.6613 74.4579 20.529C75.3025 20.7422 75.7696 20.1281 76.2734 19.5944L75.961 19.4343C75.7581 19.721 75.5344 19.8671 75.2816 19.8153V19.8157Z" fill="white"/>
<path d="M86.4534 26.2712L86.6465 25.8396C87.0722 26.2091 87.3806 26.682 87.2268 27.2646C88.4002 25.8939 87.3495 25.5697 87.2174 25.0981C87.718 24.7894 88.311 25.2631 88.1004 25.9923L88.1969 25.566C88.2828 25.1871 88.0378 24.8025 87.6538 24.7416C87.4587 24.7106 87.271 24.7702 87.1908 24.9642C86.8252 25.6522 87.5659 25.7559 87.6612 26.279C87.6841 26.4047 87.6546 26.5342 87.5876 26.6432C87.5291 26.7379 87.4473 26.8457 87.3732 26.8906C87.4779 26.1953 86.8187 25.5946 86.2927 25.1585L86.1667 25.4725C86.4661 25.6567 86.5569 26.0087 86.4543 26.2704L86.4534 26.2712Z" fill="white"/>
<path d="M75.2023 25.887L75.5262 25.9576C75.5262 25.9576 75.354 26.281 75.0326 26.1573C74.7111 26.0336 74.6481 26.0209 74.7516 25.8062C74.8551 25.5914 75.3667 25.6318 75.3667 25.6318C75.3667 25.6318 75.7209 25.6722 75.8575 25.2831C75.9941 24.894 76.2358 24.1905 77.3372 24.5089C77.3372 24.5089 76.5278 24.2827 76.1683 25.3954C76.0346 25.8094 75.5786 25.7339 75.5786 25.7339C75.5786 25.7339 74.9544 25.691 75.0416 26.0622L75.2023 25.887Z" fill="white"/>
<path d="M73.3307 28.3782C73.0092 28.2544 72.6612 28.0082 72.765 27.7935C72.8563 27.6044 73.0718 27.7722 73.1221 27.8155C73.1319 27.8237 73.1429 27.8302 73.1552 27.8335C73.2104 27.8482 73.3515 27.8482 73.4178 27.4933C73.5053 27.0234 73.7442 26.9776 74.2059 27.1361C74.2059 27.1361 73.8583 26.9977 73.7421 27.5844C73.6374 28.114 73.264 27.9752 73.1577 27.9233C73.1331 27.9115 73.1037 27.9176 73.0865 27.9388C73.0452 27.9886 73.0268 28.1099 73.3311 28.3786L73.3307 28.3782Z" fill="white"/>
<path d="M96.5557 30.4071C96.2576 30.579 95.847 30.6953 95.7447 30.4798C95.6547 30.2903 95.9206 30.2282 95.986 30.216C95.9987 30.2135 96.0106 30.209 96.0212 30.2013C96.0674 30.1678 96.1562 30.058 95.9206 29.7836C95.6089 29.4206 95.7235 29.2062 96.1365 28.9465C96.1365 28.9465 95.8102 29.1299 96.195 29.5884C96.5422 30.0024 96.1999 30.2054 96.0924 30.2556C96.0678 30.267 96.0543 30.294 96.0596 30.3205C96.0723 30.3838 96.1557 30.4744 96.5557 30.4063V30.4071Z" fill="white"/>
<path d="M101.238 31.3445C100.939 31.5164 100.529 31.6327 100.427 31.4171C100.337 31.2277 100.602 31.1656 100.668 31.1534C100.681 31.1509 100.692 31.1464 100.703 31.1387C100.749 31.1052 100.838 30.9953 100.602 30.721C100.291 30.358 100.405 30.1436 100.818 29.8839C100.818 29.8839 100.492 30.0672 100.877 30.5258C101.224 30.9398 100.882 31.1427 100.774 31.193C100.75 31.2044 100.736 31.2314 100.742 31.2579C100.754 31.3212 100.838 31.4118 101.238 31.3436V31.3445Z" fill="white"/>
<path d="M72.7204 13.0111C72.5458 12.7751 72.426 12.4436 72.6403 12.348C72.8288 12.2639 72.893 12.4795 72.9057 12.5326C72.9082 12.5428 72.9131 12.5526 72.9204 12.5608C72.9544 12.5971 73.0648 12.6641 73.3364 12.4558C73.6959 12.1802 73.911 12.2631 74.174 12.5893C74.174 12.5893 73.9879 12.3309 73.5339 12.6714C73.1237 12.9789 72.918 12.7082 72.8669 12.6224C72.855 12.6028 72.828 12.593 72.8014 12.5987C72.7384 12.6126 72.6489 12.6857 72.7204 13.0115V13.0111Z" fill="white"/>
<path d="M73.2579 29.9877C73.2538 29.9803 73.2448 29.9779 73.2374 29.9824C73.192 30.0105 73.0399 30.1 73.0423 30.1049C73.0513 30.1208 73.0603 30.1367 73.0697 30.153C73.0252 30.1775 72.9785 30.2 72.9405 30.2322C72.6792 30.4552 72.9372 30.8219 72.9372 30.8219C72.9372 30.8219 73.0775 30.7296 73.1294 30.6957C73.1421 30.6871 73.1544 30.6777 73.1658 30.6671C73.4767 30.3747 73.3724 30.1914 73.2583 29.9881L73.2579 29.9877ZM73.0804 30.1714C73.1503 30.2964 73.2096 30.4278 73.118 30.5993C73.0575 30.4629 72.9597 30.3278 73.0804 30.1714Z" fill="white"/>
<path d="M85.096 25.9552C85.0886 25.9511 85.0796 25.9536 85.0759 25.9609C85.0518 26.0087 84.9679 26.1639 84.9724 26.1663C84.9884 26.1753 85.0043 26.1843 85.0207 26.1933C84.9953 26.2374 84.9667 26.2806 84.9512 26.328C84.8432 26.6538 85.2542 26.8343 85.2542 26.8343C85.2542 26.8343 85.3262 26.6832 85.3532 26.6269C85.3598 26.613 85.3655 26.5987 85.3696 26.584C85.4841 26.1733 85.2996 26.0704 85.0964 25.9552H85.096ZM85.0395 26.2043C85.1643 26.2749 85.2833 26.357 85.2935 26.5505C85.1708 26.4652 85.017 26.4003 85.0395 26.2043Z" fill="white"/>
<path d="M71.5394 30.4642C71.3627 29.9411 72.1586 29.913 72.523 30.2976C72.5553 30.3319 72.2768 29.9379 71.8559 29.8881C71.4367 29.8382 71.3271 30.0914 71.402 30.3135C71.411 30.3397 71.5022 30.425 71.5189 30.443C71.5238 30.4483 71.5373 30.4581 71.5398 30.4646L71.5394 30.4642Z" fill="white"/>
<path d="M72.0937 31.2465C72.0937 31.2465 71.8446 31.0673 71.3673 31.3837C71.4536 30.9321 71.2573 30.9403 71.151 30.9272C71.1195 30.9231 71.0794 30.926 71.0496 30.9158C71.2765 30.995 71.1641 31.3188 71.1412 31.4882C71.153 31.4899 71.344 31.5135 71.344 31.5135C71.6655 31.2755 72.0937 31.2469 72.0941 31.2469L72.0937 31.2465Z" fill="white"/>
<path d="M81.616 25.6456C81.589 26.6546 83.3157 26.6877 82.9877 28.1833C82.9636 26.9469 81.2741 26.9241 81.616 25.6456Z" fill="white"/>
<path d="M77.025 8.38906C76.0177 8.47481 76.1776 10.1918 74.6521 10.0329C75.8799 9.87125 75.7146 8.19225 77.025 8.38906Z" fill="white"/>
<path d="M79.384 25.8449C79.4797 25.5399 79.3501 25.3154 79.0368 25.1565C79.0012 25.1386 78.9881 25.0945 79.0082 25.0602L79.1063 24.8919C79.1526 24.8131 79.2438 24.7707 79.3329 24.7894C79.7112 24.8691 80.7365 25.0883 81.5377 25.141C82.7549 25.2214 85.6631 24.3309 85.2673 25.2953C85.1073 26.0854 83.0653 26.0062 82.5001 25.9593C82.8727 25.8372 84.8509 25.7143 85.138 25.337C84.9335 24.6404 82.8862 25.9736 79.5885 25.2002C79.6437 25.4452 79.5358 25.6506 79.384 25.8449Z" fill="white"/>
<path d="M76.8018 18.2405C77.1109 18.3242 77.3302 18.1854 77.477 17.8669C77.4938 17.8305 77.5371 17.8158 77.5723 17.8342L77.7449 17.9257C77.8254 17.9686 77.8717 18.058 77.8565 18.1478C77.7919 18.5284 77.6132 19.5598 77.5923 20.3613C77.5604 21.5785 78.4491 24.8013 77.468 24.4448C76.9919 24.2664 76.9134 23.7805 76.9384 23.215C77.0754 23.5821 77.2283 23.9536 77.4553 24.346C78.144 24.1145 76.8128 21.7393 77.4553 18.4189C77.2124 18.4838 77.0026 18.3842 76.8018 18.2405Z" fill="white"/>
<path d="M76.8186 12.6719C77.1278 12.7556 77.347 12.6168 77.4938 12.2983C77.5106 12.2619 77.554 12.2472 77.5891 12.2656L77.7617 12.3571C77.8423 12.3999 77.8885 12.4894 77.8734 12.5792C77.8087 12.9597 77.63 13.9912 77.6092 14.7927C77.5773 16.0099 78.3453 16.8142 77.3646 16.4578C76.8885 16.2794 76.9617 15.5558 76.9867 14.9903C77.1237 15.3574 77.2742 15.9727 77.5012 16.3655C77.794 15.8192 76.9548 15.4864 77.4726 12.8503C77.2296 12.9152 77.0198 12.8156 76.819 12.6719H76.8186Z" fill="white"/>
<path d="M80.8716 28.5811C80.7996 28.7758 80.7362 28.9608 80.717 29.1004C80.7145 29.1184 80.7186 29.1372 80.7284 29.1527C80.8033 29.2744 80.9349 29.216 81.0953 29.0665L81.0143 29.3728C81.0065 29.4018 80.9914 29.4287 80.9705 29.4504C80.7006 29.7329 80.5493 29.5239 80.6352 29.2176C80.6867 29.0114 80.7709 28.7979 80.872 28.5811H80.8716Z" fill="white"/>
<path d="M88.3274 25.9359C88.2554 26.1307 88.192 26.3156 88.1728 26.4553C88.1703 26.4733 88.1744 26.492 88.1842 26.5076C88.2591 26.6292 88.3908 26.5708 88.5511 26.4214L88.4701 26.7276C88.4623 26.7566 88.4472 26.7836 88.4263 26.8052C88.1564 27.0878 88.0051 26.8787 88.091 26.5725C88.1425 26.3663 88.2268 26.1527 88.3278 25.9359H88.3274Z" fill="white"/>
<path d="M89.9255 30.4507C89.8535 30.6455 89.7901 30.8304 89.7709 30.9701C89.7685 30.988 89.7726 31.0068 89.7824 31.0223C89.8572 31.144 89.9889 31.0856 90.1492 30.9362L90.0682 31.2424C90.0605 31.2714 90.0453 31.2983 90.0245 31.32C89.7546 31.6025 89.6032 31.3935 89.6891 31.0872C89.7406 30.881 89.8249 30.6675 89.9259 30.4507H89.9255Z" fill="white"/>
<path d="M74.0862 28.0608C73.905 28.1629 73.7369 28.2633 73.6318 28.3572C73.6183 28.3695 73.6093 28.3862 73.6064 28.4046C73.5852 28.5459 73.723 28.5863 73.9422 28.5757L73.6821 28.757C73.6576 28.7741 73.6285 28.7847 73.5987 28.788C73.2097 28.8292 73.2298 28.572 73.4936 28.394C73.6666 28.2698 73.869 28.1616 74.0862 28.0612V28.0608Z" fill="white"/>
<path d="M72.6613 23.0578C72.409 22.9496 72.1681 22.8536 71.9849 22.8189C71.9611 22.8144 71.9362 22.8189 71.9149 22.8304C71.7493 22.921 71.7358 23.0725 71.9227 23.2934L71.6049 23.1917C71.5669 23.1795 71.5325 23.1578 71.5055 23.1288C71.1501 22.754 71.4368 22.569 71.836 22.7026C72.1051 22.7842 72.3816 22.91 72.6613 23.0574V23.0578Z" fill="white"/>
<path d="M76.5224 22.2513C76.2701 22.1431 76.0292 22.0471 75.8459 22.0124C75.8222 22.0079 75.7973 22.0124 75.776 22.0238C75.6104 22.1145 75.5969 22.266 75.7838 22.4869L75.466 22.3852C75.428 22.3729 75.3936 22.3513 75.3666 22.3223C75.0112 21.9475 75.2979 21.7625 75.6971 21.896C75.9662 21.9777 76.2427 22.1035 76.5224 22.2509V22.2513Z" fill="white"/>
<path d="M95.3235 29.5969C95.1816 29.8317 95.0531 30.0567 94.9934 30.2331C94.9857 30.2559 94.9865 30.2813 94.9951 30.3037C95.0621 30.4801 95.2106 30.514 95.4556 30.3597L95.3112 30.6602C95.294 30.6961 95.2679 30.7267 95.2355 30.75C94.8147 31.0501 94.6707 30.741 94.8581 30.3646C94.9762 30.1094 95.139 29.8533 95.3235 29.5969Z" fill="white"/>
<path d="M76.8974 18.7018C76.6451 18.5936 76.4042 18.4977 76.2209 18.463C76.1972 18.4585 76.1723 18.463 76.151 18.4744C75.9854 18.565 75.9719 18.7165 76.1588 18.9374L75.841 18.8358C75.803 18.8235 75.7686 18.8019 75.7416 18.7729C75.3862 18.398 75.6729 18.2131 76.0721 18.3466C76.3412 18.4283 76.6177 18.554 76.8974 18.7014V18.7018Z" fill="white"/>
<path d="M75.4096 10.4853C75.2063 10.4612 75.0141 10.4432 74.8754 10.4571C74.8574 10.4587 74.8407 10.4673 74.828 10.4799C74.7286 10.5796 74.7511 10.6906 74.9315 10.8095L74.6828 10.8037C74.6534 10.8029 74.6239 10.7948 74.5986 10.7801C74.2652 10.5869 74.4313 10.3942 74.7446 10.4056C74.9544 10.4073 75.1785 10.4391 75.4096 10.4853Z" fill="white"/>
<path d="M86.836 28.3928L86.6953 28.6701C86.7387 28.7252 87.2622 29.1021 87.0564 29.6545C87.6352 28.8722 86.836 28.3928 86.836 28.3928Z" fill="white"/>
<path d="M71.5157 27.6211C71.7242 27.7003 71.8588 27.9029 71.8539 28.1254C71.8465 28.4529 71.8122 28.7028 71.7316 28.8191C71.6997 28.8649 71.6396 28.8816 71.5881 28.8608L71.3173 28.7513C71.2825 28.7375 71.2564 28.7081 71.2461 28.6717L71.2126 28.5509C71.1918 28.4761 71.1783 28.3998 71.1725 28.3226C71.1496 28.0156 71.1697 27.6138 71.2441 27.2798C71.2461 27.27 71.2605 27.2704 71.2629 27.2798L71.4973 28.3904C71.5553 28.105 71.5705 27.8433 71.5161 27.6203L71.5157 27.6211Z" fill="white"/>
<path d="M71.5072 24.8037C71.6684 24.8695 71.7694 25.0295 71.7612 25.2031C71.7493 25.4578 71.7179 25.6522 71.6528 25.7412C71.6271 25.7763 71.58 25.7882 71.54 25.771L71.331 25.6808C71.304 25.6694 71.2843 25.6457 71.277 25.6175L71.2533 25.5228C71.2385 25.4644 71.2295 25.4044 71.2263 25.3443C71.214 25.1047 71.2377 24.7919 71.3015 24.533C71.3036 24.5253 71.3146 24.5261 71.3162 24.5338L71.4778 25.404C71.5281 25.1826 71.5453 24.9789 71.5068 24.8041L71.5072 24.8037Z" fill="white"/>
<path d="M92.773 31.0942C92.0008 31.1799 91.3992 31.3383 91.324 30.9161C91.4319 31.5217 91.2577 31.5845 92.8024 31.4126C92.8024 31.4126 92.7775 31.0938 92.773 31.0942Z" fill="white"/>
<path d="M93.3912 25.1038C94.0398 25.0376 94.54 24.9078 94.6267 25.2704C94.502 24.7506 94.6459 24.6979 93.3486 24.8306C93.3486 24.8306 93.3871 25.1042 93.3912 25.1038Z" fill="white"/>
<path d="M72.8577 20.2327L72.6515 20.093C72.6352 20.082 72.6217 20.0673 72.6127 20.0497C72.4998 19.8276 72.4053 19.4169 72.1464 19.1682C71.8041 19.06 72.2475 20.2098 72.1497 21.0473C71.9325 20.4532 71.7874 19.7786 71.7522 19.1229C71.7456 19.0004 71.8826 18.9236 71.9845 18.9922L72.1068 19.0751C72.6753 19.4769 72.6826 19.8325 72.8773 20.2147C72.8838 20.2274 72.8695 20.24 72.8577 20.2323V20.2327Z" fill="white"/>
<path d="M90.5333 25.8714C90.5975 25.2757 89.845 25.3022 89.1894 25.2549C89.1526 25.2524 89.1301 25.2132 89.1456 25.1802L89.2397 24.9772C89.2487 24.958 89.2683 24.9462 89.2892 24.9466L91.5377 25.0193C91.4314 24.934 91.3864 24.7996 91.6453 24.4203C91.6011 24.7073 91.6527 25.0528 92.7839 24.8274L92.6698 25.0552C92.6359 25.1234 92.579 25.1777 92.5087 25.2075C92.0506 25.4019 91.3312 25.3088 90.6871 25.2986C90.7664 25.4546 90.7325 25.6407 90.5329 25.8714H90.5333Z" fill="white"/>
<path d="M77.7502 7.6426L77.5924 7.74141C77.5502 7.76795 77.5245 7.81409 77.5249 7.8639L77.5339 9.24564L77.2222 8.05908C77.2161 8.0358 77.1817 8.03907 77.1801 8.06316C77.1458 8.58662 77.156 9.08191 77.2803 9.50451C77.2864 9.61354 77.4087 9.67478 77.4999 9.61476L77.5862 9.55841C77.7535 9.44858 77.8529 9.26075 77.8488 9.06068L77.8202 7.67975C77.8194 7.64423 77.7805 7.62341 77.7502 7.64219V7.6426Z" fill="white"/>
<path d="M74.0513 10.9198L74.3351 11.0512C74.3666 11.0659 74.3924 11.0904 74.4071 11.1219C74.6406 11.6302 74.5989 12.2946 74.767 12.4775L74.4934 12.404C74.4443 12.3909 74.4054 12.3534 74.3895 12.3048C74.1821 11.6645 74.3224 11.2734 74.0513 10.9189V10.9198Z" fill="white"/>
<path d="M76.0758 14.2083C76.2103 14.3149 76.3543 14.3153 76.441 14.9776C76.1596 14.3496 76.0157 13.5762 75.9314 12.74C75.868 13.114 75.8353 13.5088 75.8464 13.9331C75.85 14.065 75.8725 14.1965 75.9147 14.3214C76.0463 14.7097 76.2619 15.1719 76.497 15.6517C76.5028 15.6635 76.5134 15.6725 76.5261 15.6758L76.7649 15.7444C76.7985 15.7542 76.8295 15.7244 76.823 15.6905C76.6799 14.9641 76.85 14.2071 76.0758 14.2087V14.2083Z" fill="white"/>
<path d="M77.1453 10.8761L76.8537 10.7504C76.7788 10.8279 76.578 11.6911 76.0071 11.7083C76.6676 12.077 76.9494 11.2359 77.1453 10.8765V10.8761Z" fill="white"/>
<path d="M72.667 3.50883L72.8911 3.28384C72.8461 3.18585 72.1148 2.68403 72.3075 2.14709C71.7226 2.62646 72.4036 3.19524 72.6674 3.50883H72.667Z" fill="white"/>
<path d="M75.9531 4.73986C76.2021 2.9694 72.287 4.07063 72.6305 2.25322L72.7724 1.7812C74.1098 2.21198 74.5544 1.68647 75.5658 1.65381L77.5698 1.76691C75.2341 2.03967 73.954 2.76933 72.8718 2.37081C73.3581 3.46632 76.868 2.43451 75.9535 4.73945L75.9531 4.73986Z" fill="white"/>
<path d="M76.9738 2.74854C76.7334 7.04891 84.6521 4.26094 83.7315 8.18076C83.1928 5.39197 78.5676 8.18076 78.5222 5.65982C78.8494 6.45318 79.9864 6.36294 81.1512 6.24249C79.3529 5.84397 76.409 5.87991 76.9743 2.74894L76.9738 2.74854Z" fill="white"/>
<path d="M89.0282 1.47864C87.7387 4.54019 95.8619 5.03343 94.4992 8.4053C94.4403 6.05504 89.7759 7.50905 90.2703 4.52304C90.3656 5.93377 91.9696 5.94234 93.3602 6.46703C91.2932 4.85173 87.5653 3.9518 89.0282 1.47864Z" fill="white"/>
<path d="M77.7935 2.72604C77.8753 1.13198 80.1161 1.48926 79.775 3.22582C80.6036 3.33729 80.7962 2.61008 81.37 2.05722C81.37 2.05722 82.0011 1.44761 82.2604 2.13929L82.4636 2.89917C83.1376 4.50099 84.6443 4.84888 85.6921 5.42705C86.47 5.85619 86.8066 6.49602 86.6422 8.02312C86.699 4.72679 82.7949 6.23102 82.1593 2.5962C81.7868 2.03395 81.2567 2.61253 80.9937 2.98737C81.2751 3.01268 81.5271 3.09149 81.597 3.49817C81.6097 3.57085 81.6076 3.64598 81.5941 3.71866L81.5201 4.11677C81.5001 4.22538 81.4539 4.32868 81.3815 4.41198C80.8874 4.98158 80.2944 4.39401 80.1721 3.74112C80.1279 3.25685 80.1684 2.70073 80.2478 2.11071C80.0212 3.73499 80.9287 4.5455 81.4841 3.83503C80.878 3.0478 80.2878 4.02163 79.7177 3.82278C79.6772 3.80849 79.6506 3.7697 79.6543 3.72683L79.6981 3.2295C79.5999 2.02987 78.144 1.99189 77.8597 2.80689C77.8667 2.98002 77.9104 3.13681 77.998 3.27441C78.1346 3.65088 78.5349 3.804 79.0777 3.83666C78.6793 3.40793 77.8834 4.01714 77.7272 3.77215C77.7117 3.74806 77.7072 3.71825 77.71 3.68926L77.6965 3.1511C77.9791 3.47939 78.2503 3.205 78.5779 3.14743C78.9251 3.08659 79.3353 3.20296 79.3042 3.8138L79.1926 4.42423C78.4527 4.18414 77.598 4.08083 77.7926 2.72645L77.7935 2.72604Z" fill="white"/>
<path d="M79.0912 8.18032C79.4732 6.11955 88.1145 6.22939 88.5215 2.52229C88.6188 0.968654 86.9641 1.64197 86.5113 2.47575C86.5588 2.13194 86.5285 1.92615 86.4508 1.80488C86.4062 1.73506 86.3109 1.72322 86.2496 1.77916C85.9261 2.07274 85.8983 2.64928 85.6627 2.87794C85.7465 1.94085 85.1899 1.79345 84.7024 1.5603L84.5981 2.35366L83.7638 1.81509L83.6918 2.03762C83.0554 1.31368 82.5696 2.94 81.9152 3.20091L81.8543 3.74316C82.3508 3.64598 83.0513 1.9233 83.5339 2.49453C83.5859 2.55618 83.6072 2.63785 83.5986 2.71829C83.4828 3.78726 84.293 3.61372 84.6157 4.46833C84.7977 3.59412 84.4873 3.68273 83.7241 2.83956C83.7 2.68807 83.6979 2.5325 83.7241 2.37122C84.3441 2.83956 84.8382 2.88284 84.8676 3.53002C85.1429 2.63131 84.6754 2.54761 84.6955 2.13644C85.1789 2.35897 85.7261 2.50841 85.5596 3.47285C85.9437 3.2491 85.9265 2.38469 86.2901 2.27036C86.3874 2.27036 86.4095 2.37448 86.4087 2.51086L86.378 3.10659C87.4843 1.57909 88.3922 2.17033 88.4335 2.54434C87.1718 5.86272 78.7133 5.35927 79.0904 8.18073L79.0912 8.18032Z" fill="white"/>
<path d="M86.4742 5.26209L86.3892 5.68756C86.3822 5.72226 86.4133 5.75289 86.4476 5.74513C86.9748 5.62549 87.2685 5.04487 87.7355 4.76885C88.1736 4.50998 88.6876 4.52794 88.9146 4.92319C89.0492 5.15756 89.0308 5.44828 88.8885 5.67817C88.7363 5.92356 88.522 6.07097 88.1147 6.22939C88.5371 6.09955 88.8733 5.99339 89.1298 5.27148C89.4643 4.26744 88.5666 3.81502 87.8378 4.24988C87.3822 4.52182 87.0411 5.189 86.52 5.2233C86.4975 5.22494 86.4783 5.24045 86.4738 5.2625L86.4742 5.26209Z" fill="white"/>
<path d="M92.9721 1.42432C91.2065 4.24496 96.9437 4.61122 94.851 7.38858C95.9033 6.2404 95.711 5.43316 95.1422 4.73698C94.498 3.94812 92.9451 3.20172 92.8187 2.21074C93.1103 2.47002 93.4952 2.48145 93.7946 2.3022C93.3389 3.13353 93.2158 3.85625 93.298 4.34173C92.7623 3.84237 92.3198 3.21642 92.5157 2.479C92.7377 1.69544 92.4932 1.28304 91.775 2.58639C92.0269 1.80324 91.4981 1.71749 91.0474 1.47822C90.9959 1.45086 90.9317 1.47373 90.91 1.52762L90.6863 2.08048L89.8507 1.6444C89.7734 1.60398 89.6786 1.64114 89.6491 1.7228L89.4962 2.14377C89.4847 2.17766 89.4749 2.22666 89.4663 2.2826C89.4246 2.5578 89.5117 2.83668 89.7023 3.04002C89.9149 3.26664 90.2213 3.57451 90.5182 3.80439C90.555 3.83297 90.609 3.81827 90.6258 3.77458L90.7665 3.41323C90.7799 3.37893 90.7689 3.34055 90.7399 3.31809C90.5427 3.16742 89.8111 2.58761 89.6557 2.14867C90.1747 2.44919 90.8037 2.51738 90.9022 3.14741C90.9051 3.16538 90.9296 3.16905 90.9378 3.15272C91.3014 2.44674 91.0122 2.41571 90.9014 2.0176C91.3533 2.24299 91.7701 2.29526 91.5676 3.0682C91.5611 3.09229 91.5905 3.11107 91.609 3.09392C91.7999 2.91998 91.95 2.50595 92.1083 2.34916C92.2646 2.19481 92.3856 2.165 92.4028 2.40224C92.4069 2.45981 92.3979 2.51779 92.3815 2.57332C91.5799 5.30087 96.3552 5.92437 95.6174 7.83937C96.9715 5.71327 93.0846 5.38253 93.395 3.48713C93.422 3.32258 93.4813 3.16497 93.5618 3.01838L93.9524 2.30751C94.0436 2.14132 94.1242 1.96942 94.1929 1.79303L94.3373 1.4231C93.7295 2.03761 93.1214 2.0074 92.9713 1.4231L92.9721 1.42432Z" fill="white"/>
<path d="M96.3475 6.68395C96.3974 5.69337 95.2359 5.78729 95.5929 4.81917L95.761 4.30837C96.2403 4.53825 96.8305 4.66809 96.6203 5.52433C97.0857 5.00046 97.9323 4.88287 97.6926 5.90121C97.7928 5.88324 97.9004 5.77381 98.0141 5.58027C98.1699 4.16546 93.8089 4.07808 94.4523 2.08713L94.6179 1.56653C95.3156 2.3754 96.2747 2.00424 97.2374 2.96909L97.808 4.29816C96.4146 2.49218 95.9896 3.14467 94.5733 2.17288C95.1864 3.89188 98.7539 3.642 98.1127 5.54515C97.9998 6.04248 97.7883 6.3332 97.4861 6.45284L97.5736 5.96858C97.4873 5.30833 96.6281 5.793 96.3982 6.11312C96.6326 5.5378 96.4358 5.11152 95.7148 4.86572C95.9929 5.49452 96.8436 5.58844 96.3475 6.68435V6.68395Z" fill="white"/>
<path d="M98.5356 4.15074C99.4296 2.72082 96.5279 3.26184 97.1504 1.99565C97.1606 1.97524 97.1749 1.95645 97.1913 1.94012L97.5724 1.55957C97.7131 2.09487 99.4133 1.0357 101.001 2.20103C99.1343 1.67757 98.6378 2.31495 97.487 2.13121C97.5675 2.53504 98.2047 2.62936 98.7151 2.89885C99.1671 3.13771 99.2861 3.60278 98.536 4.15033L98.5356 4.15074Z" fill="white"/>
<path d="M99.344 3.05237C99.0479 4.23975 100.585 5.13478 99.7604 5.853C98.958 6.21967 98.7073 6.14985 98.34 6.53203C97.5306 7.36459 97.6055 8.72959 96.1196 8.74878C98.1915 9.76467 98.0611 6.23478 100.135 6.77131C99.6148 7.54016 99.4737 8.57443 98.2746 8.7055C97.9151 8.23022 98.4827 7.45033 99.5154 7.59733C100.117 7.72186 100.642 9.35676 98.7318 9.35758L98.2856 9.28163C98.1793 10.0917 99.5788 9.95698 100.316 11.3093C100.735 12.0765 100.598 12.2848 100.898 13.3562C101.025 12.7744 101.019 12.1876 100.898 11.596C100.175 10.1048 98.8676 10.2698 98.8054 9.51804C101.207 9.8251 100.856 7.65531 99.6152 7.54057C98.7437 7.28537 98.1805 7.41318 97.821 7.79373C97.4807 8.28493 97.6615 8.63894 98.3011 8.79777C99.7743 9.19507 100.14 7.58018 100.717 6.87012C100.188 6.59491 99.607 6.53162 99.0021 6.56878C99.4737 6.13515 100.169 6.32542 100.458 5.76113C100.686 4.78526 99.6037 4.3353 99.8651 3.20916L99.344 3.05318V3.05237Z" fill="white"/>
<path d="M97.4157 9.36769L96.8865 9.25745C96.8914 9.82909 98.5608 10.9066 97.9993 11.2913C97.9138 11.3497 97.8075 11.3693 97.7048 11.3546L97.3867 11.3092C97.3388 11.3023 97.3049 11.3529 97.3278 11.3954C97.5122 11.7335 98.1482 12.0026 98.4688 12.4452C98.7036 12.7698 98.6459 13.1405 98.1776 13.2867L97.7711 13.2442C97.7016 13.2369 97.6484 13.3055 97.6734 13.3708C97.8599 13.8567 98.0778 14.4034 97.8578 14.7089C97.6725 14.1793 98.4954 13.7853 99.1371 13.8498C99.7072 14.1025 100.406 14.8097 100.656 15.739C100.838 16.4132 101.051 17.4389 101.112 18.799C101.258 18.2914 101.277 17.5099 101.24 16.6067C101.234 16.4801 101.223 16.354 101.199 16.2294C100.958 14.9543 100.161 13.9453 99.0786 13.7685C98.1441 13.5378 97.5278 13.8253 97.2333 14.6374C97.2075 14.7089 97.2517 14.7869 97.3261 14.8032L97.6615 14.8767C97.7711 14.9008 97.8832 14.9118 97.9952 14.9032C98.9891 14.8273 98.1028 13.4749 98.23 13.3969C99.2062 13.49 99.3138 12.9935 98.958 12.4933C98.7073 12.141 97.848 11.6849 97.8451 11.4575C98.7976 11.651 98.7457 11.1631 98.4013 10.7012C98.0541 10.2358 97.4222 9.77192 97.4161 9.36769H97.4157Z" fill="white"/>
<path d="M96.3236 17.4418C97.8152 18.1033 98.0696 17.0449 98.5632 16.319C98.6634 16.675 98.8307 17.0405 98.5783 17.3467C98.5104 17.4292 98.4168 17.4851 98.3162 17.5227C96.6946 18.1302 97.1134 22.8528 95.2954 23.1566C94.9875 22.8002 94.2791 21.3845 96.2177 20.4376C95.9649 20.4446 95.7257 20.4764 95.502 20.536C95.0018 20.67 94.5899 21.0375 94.4464 21.534C94.1977 22.3939 94.8431 23.1186 95.3576 23.2926C97.2892 23.8022 97.3444 19.3062 98.2822 18.1098C98.3702 17.9975 98.4867 17.9102 98.6184 17.8546C98.944 17.717 99.0883 17.626 99.1566 17.3692C99.301 16.8281 98.5718 15.7118 99.5456 14.7551C99.5758 14.7257 99.5668 14.6751 99.5284 14.6575L99.0593 14.4415C99.0253 14.426 98.9849 14.4317 98.9583 14.4579C97.9775 15.4162 98.2246 17.5913 96.3228 17.4418H96.3236Z" fill="white"/>
<path d="M100.061 17.2662L99.5189 17.1208C99.3627 18.002 100.296 18.3421 100.651 19.0755C101.021 19.8419 101.2 20.4527 101.266 21.0517C101.266 20.652 101.294 20.0726 101.222 19.5948C101.199 19.4405 101.085 19.0677 100.939 18.8713C100.455 18.2176 99.7733 17.7901 100.061 17.2662Z" fill="white"/>
<path d="M99.809 18.8141L99.2552 18.6569C98.899 18.6883 99.4965 19.398 99.0806 19.7156C99.1313 19.3338 99.2921 19.1146 99.6344 19.1628C100.373 19.6977 100.853 21.1092 101.261 22.7633L101.162 21.0251C101.157 20.9516 101.143 20.8789 101.117 20.8099C100.786 19.9337 100.362 19.2163 99.6282 19.0174C98.7612 18.7916 98.6356 19.2248 98.5412 19.6854C98.533 19.7254 98.5567 19.7654 98.596 19.7773L98.8553 19.8557C99.0066 19.9014 99.1653 19.9206 99.3223 19.9055C100.223 19.8173 99.2618 18.9092 99.809 18.8141Z" fill="white"/>
<path d="M99.9794 20.9023L99.4199 20.7394C99.0215 20.7484 99.5201 21.5336 99.1634 21.9031C99.1925 21.5572 99.2125 21.2049 99.6878 21.1934C100.479 21.9161 100.916 23.3665 101.104 25.3301V23.2076C101.104 23.0692 101.083 22.9316 101.04 22.8001C100.784 22.0096 100.442 21.3286 99.7749 21.0599L99.2154 20.9435C98.6281 21.0138 98.4768 21.7822 98.9414 22.0084L99.3025 22.0897C100.265 22.2465 99.4195 20.8549 99.9785 20.9027L99.9794 20.9023Z" fill="white"/>
<path d="M99.8499 22.6539L99.3845 22.5024C99.3608 22.4946 99.335 22.5085 99.3293 22.5326C99.0471 23.6959 100.194 24.2965 100.627 25.2369C100.922 25.8779 100.929 26.4818 100.861 27.9089C101.156 27.2801 101.27 26.2471 101.217 25.7934C101.063 24.4766 99.3456 23.3786 99.8691 22.7217C99.8879 22.698 99.8781 22.6633 99.8495 22.6539H99.8499Z" fill="white"/>
<path d="M99.4964 24.6147L99.1406 24.4305C99.1021 24.4105 99.0547 24.4305 99.042 24.4722C98.7107 25.5461 99.7479 26.1888 100.275 27.8477C100.35 28.0842 100.523 28.9829 100.598 30.1621C100.796 29.2254 100.761 28.7562 100.701 28.0278C100.618 27.0046 99.1569 25.711 99.5299 24.6984C99.5418 24.6661 99.5271 24.6302 99.4964 24.6143V24.6147Z" fill="white"/>
<path d="M98.7072 25.4288L98.1829 25.2194C98.0852 26.0339 99.0373 26.735 99.3792 27.7019C99.6667 28.5153 99.5673 28.9595 99.0451 29.0747C98.724 29.1453 98.3985 29.0445 98.1277 28.8583C97.5858 28.4859 97.2275 27.9534 97.2275 27.9534C97.2275 27.9534 97.6627 28.6721 98.2218 29.0057C98.497 29.1698 98.8046 29.2768 99.1236 29.3054C100.17 29.3993 100.185 28.5737 99.8225 27.7272C99.4152 26.7767 98.5694 26.2014 98.7076 25.4284L98.7072 25.4288Z" fill="white"/>
<path d="M100.546 23.3068C99.0973 22.4326 97.2266 27.9538 94.3674 25.5113C96.6295 26.8988 96.423 22.4126 98.4503 23.829C97.6209 23.6045 97.1587 24.5171 96.5449 25.5121C97.9996 24.595 99.2286 22.284 100.546 23.3068H100.546Z" fill="white"/>
<path d="M81.3415 4.77747L81.2883 5.28051L81.8895 5.40423L81.9382 4.87914L81.3415 4.77747Z" fill="white"/>
<path d="M79.4528 4.43774L79.3997 4.94079L80.0009 5.0641L80.0495 4.53901L79.4528 4.43774Z" fill="white"/>
<path d="M82.0961 3.90698L81.8347 4.34021L82.3271 4.70606L82.5938 4.25119L82.0961 3.90698Z" fill="white"/>
<path d="M86.1248 3.16467L85.8545 3.59259L86.3391 3.96865L86.6152 3.51909L86.1248 3.16467Z" fill="white"/>
<path d="M87.8914 5.06079L87.6211 5.48871L88.1057 5.86476L88.3818 5.41521L87.8914 5.06079Z" fill="white"/>
<path d="M86.8626 2.93677L86.5923 3.36468L87.0769 3.74115L87.353 3.29119L86.8626 2.93677Z" fill="white"/>
<path d="M95.9402 1.42413L95.5669 1.79688L95.9943 2.22361L96.3677 1.85087L95.9402 1.42413Z" fill="white"/>
<path d="M96.7212 1.47675L96.3479 1.84949L96.7753 2.27622L97.1487 1.90348L96.7212 1.47675Z" fill="white"/>
<path d="M100.51 3.17083L100.079 3.60132L100.507 4.02805L100.938 3.59757L100.51 3.17083Z" fill="white"/>
<path d="M99.5274 11.7632L99.0962 12.1937L99.5236 12.6205L99.9548 12.19L99.5274 11.7632Z" fill="white"/>
<path d="M100.944 14.0798L100.72 14.3036L100.942 14.5253L101.166 14.3016L100.944 14.0798Z" fill="white"/>
<path d="M100.941 13.6002L100.717 13.824L100.939 14.0457L101.164 13.822L100.941 13.6002Z" fill="white"/>
<path d="M99.4395 10.9207L99.0083 11.3512L99.4357 11.7779L99.8669 11.3474L99.4395 10.9207Z" fill="white"/>
<path d="M96.3548 9.36163L95.9236 9.79211L96.351 10.2188L96.7822 9.78836L96.3548 9.36163Z" fill="white"/>
<path d="M99.5876 16.2058L99.3701 16.6862L99.9209 16.9348L100.138 16.4545L99.5876 16.2058Z" fill="white"/>
<path d="M99.2786 15.3972L99.061 15.8776L99.6118 16.1262L99.8294 15.6459L99.2786 15.3972Z" fill="white"/>
<path d="M98.4743 22.1079L98.1147 22.4939L98.5574 22.9049L98.917 22.5188L98.4743 22.1079Z" fill="white"/>
<path d="M98.2681 27.5024L97.8879 27.8682L98.3074 28.3027L98.6876 27.9369L98.2681 27.5024Z" fill="white"/>
<path d="M98.3055 26.7236L97.9253 27.0894L98.3447 27.5239L98.7249 27.1581L98.3055 26.7236Z" fill="white"/>
<path d="M99.9197 15.6818L99.7021 16.1621L100.253 16.4107L100.47 15.9304L99.9197 15.6818Z" fill="white"/>
<path d="M94.7709 26.2982C94.4596 25.927 94.1337 25.9605 94.0306 26.1712C94.7885 26.9678 96.6166 26.1471 96.9835 27.6321C97.0653 27.987 97.0571 28.3406 96.8608 28.6905L96.7393 28.2716C96.5381 27.6436 95.8121 27.4166 95.0167 27.2426C95.0899 27.3198 95.1418 27.4676 95.1811 27.6595C95.1811 27.6595 94.9606 27.2475 94.5504 27.232L94.4911 26.8784C95.4469 27.0768 96.5176 27.0944 96.8178 28.3185C96.8964 28.2005 96.9352 27.9678 96.9462 27.6542C96.2236 26.3651 94.3562 27.4088 93.9684 26.1998C93.7934 25.6739 94.4919 25.3701 94.7717 26.2982H94.7709Z" fill="white"/>
<path d="M96.8471 16.5663L96.5171 16.4438C96.9571 15.9983 97.4508 15.7317 98.0872 15.9424C97.8663 15.6643 97.6303 15.4495 97.362 15.2977C96.2304 14.6464 96.1187 16.1069 95.1781 16.1253C95.122 15.7591 95.3822 15.4169 95.951 15.5124L95.3253 15.3732C94.94 15.4487 94.594 15.9285 95.118 16.1849C96.1531 16.6214 96.4606 14.998 97.3195 15.3373C97.5134 15.4814 97.6843 15.6263 97.762 15.7729C96.8242 15.5361 96.3052 16.2184 95.7457 16.8113L96.0926 16.9889C96.3179 16.6704 96.5666 16.5083 96.8467 16.5659L96.8471 16.5663Z" fill="white"/>
<path d="M97.1164 13.1287L96.8191 13.0185C97.2154 12.6171 97.66 12.3774 98.2325 12.5673C98.0334 12.317 97.8211 12.1234 97.5794 11.9871C96.5606 11.4007 96.46 12.7155 95.6134 12.7322C95.5631 12.4027 95.797 12.0944 96.3095 12.1806L95.7463 12.0552C95.3995 12.123 95.0879 12.555 95.5598 12.7861C96.4919 13.1793 96.7688 11.7176 97.5418 12.023C97.7164 12.1528 97.8702 12.2831 97.9401 12.4154C97.0956 12.2022 96.6285 12.8163 96.1246 13.35L96.4371 13.5101C96.64 13.2234 96.8637 13.0773 97.1164 13.1291V13.1287Z" fill="white"/>
<path d="M85.9445 6.67287L85.7515 7.10446C85.3257 6.73494 85.0173 6.26211 85.1711 5.67944C83.9977 7.05016 85.0484 7.37436 85.1805 7.84597C84.6799 8.15465 84.0869 7.68101 84.2975 6.95175L84.201 7.37804C84.1151 7.75695 84.3601 8.14159 84.7441 8.20243C84.9392 8.23346 85.1269 8.17384 85.2071 7.97989C85.5727 7.29188 84.8321 7.18817 84.7368 6.66512C84.7139 6.53936 84.7433 6.40992 84.8104 6.3009C84.8689 6.20617 84.9507 6.09838 85.0247 6.05346C84.92 6.74882 85.5793 7.34945 86.1052 7.78553L86.2312 7.47154C85.9318 7.28739 85.841 6.93542 85.9437 6.67369L85.9445 6.67287Z" fill="white"/>
<path d="M97.1959 7.05754L96.872 6.9869C96.872 6.9869 97.0442 6.66352 97.3657 6.78724C97.6871 6.91096 97.7501 6.92361 97.6466 7.13839C97.5427 7.35316 97.0315 7.31274 97.0315 7.31274C97.0315 7.31274 96.6773 7.27232 96.5407 7.66144C96.4041 8.05057 96.1624 8.75409 95.061 8.43561C95.061 8.43561 95.8704 8.66181 96.2299 7.54915C96.3636 7.13512 96.8197 7.21066 96.8197 7.21066C96.8197 7.21066 97.4438 7.25353 97.3567 6.88237L97.1959 7.05754Z" fill="white"/>
<path d="M99.0676 4.56596C99.3891 4.68968 99.7371 4.93589 99.6332 5.15067C99.542 5.33972 99.3265 5.1719 99.2762 5.12862C99.2664 5.12045 99.2553 5.11392 99.2431 5.11065C99.1878 5.09595 99.0467 5.09595 98.9805 5.45078C98.893 5.92075 98.6541 5.96648 98.1924 5.80806C98.1924 5.80806 98.54 5.94647 98.6562 5.35973C98.7609 4.83014 99.1343 4.96897 99.2406 5.02082C99.2651 5.03266 99.2946 5.02654 99.3118 5.00531C99.3531 4.95549 99.3715 4.83422 99.0672 4.56555L99.0676 4.56596Z" fill="white"/>
<path d="M75.8428 2.53751C76.1409 2.36561 76.5515 2.24924 76.6538 2.46483C76.7438 2.65429 76.4779 2.71635 76.4125 2.7286C76.3998 2.73105 76.3879 2.73554 76.3773 2.7433C76.3311 2.77678 76.2423 2.88662 76.4779 3.161C76.7896 3.524 76.6751 3.73836 76.262 3.99805C76.262 3.99805 76.5883 3.81472 76.2035 3.35618C75.8563 2.94215 76.1986 2.73921 76.3062 2.68899C76.3307 2.67756 76.3442 2.65061 76.3389 2.62407C76.3262 2.56078 76.2428 2.47013 75.8428 2.53832V2.53751Z" fill="white"/>
<path d="M71.1602 1.60001C71.4587 1.42811 71.8689 1.31174 71.9712 1.52733C72.0611 1.71679 71.7953 1.77885 71.7299 1.7911C71.7172 1.79355 71.7053 1.79804 71.6947 1.8058C71.6485 1.83928 71.5597 1.94912 71.7953 2.2235C72.1069 2.5865 71.9924 2.80086 71.5794 3.06055C71.5794 3.06055 71.9057 2.87722 71.5209 2.41868C71.1737 2.00465 71.516 1.80171 71.6235 1.75149C71.6481 1.74006 71.6616 1.71311 71.6563 1.68657C71.6436 1.62328 71.5601 1.53263 71.1602 1.60082V1.60001Z" fill="white"/>
<path d="M99.6776 19.9333C99.8523 20.1693 99.9721 20.5008 99.7578 20.5964C99.5693 20.6805 99.5051 20.4649 99.4924 20.4118C99.4899 20.4016 99.485 20.3918 99.4776 20.3836C99.4437 20.3473 99.3333 20.2803 99.0617 20.4886C98.7022 20.7642 98.4871 20.6813 98.2241 20.3551C98.2241 20.3551 98.4102 20.6135 98.8642 20.273C99.2744 19.9655 99.4801 20.2362 99.5312 20.322C99.5431 20.3416 99.5701 20.3514 99.5967 20.3457C99.6596 20.3318 99.7492 20.2587 99.6776 19.9329V19.9333Z" fill="white"/>
<path d="M99.1399 2.95675C99.144 2.9641 99.153 2.96655 99.1604 2.96206C99.2058 2.93388 99.3579 2.84446 99.3555 2.83956C99.3465 2.82364 99.3375 2.80771 99.3281 2.79138C99.3727 2.76688 99.4193 2.74442 99.4573 2.71217C99.7186 2.48923 99.4606 2.12256 99.4606 2.12256C99.4606 2.12256 99.3203 2.21484 99.2684 2.24873C99.2557 2.2573 99.2434 2.26669 99.232 2.27731C98.9211 2.56966 99.0254 2.753 99.1395 2.95634L99.1399 2.95675ZM99.3174 2.77301C99.2475 2.64806 99.1882 2.51658 99.2798 2.34509C99.3403 2.48147 99.4381 2.61662 99.3174 2.77301Z" fill="white"/>
<path d="M87.3025 6.98933C87.3098 6.99342 87.3188 6.99097 87.3225 6.98362C87.3466 6.93584 87.4305 6.78068 87.426 6.77823C87.41 6.76925 87.3941 6.76027 87.3777 6.75128C87.4031 6.70719 87.4317 6.66391 87.4472 6.61654C87.5552 6.2907 87.1442 6.11023 87.1442 6.11023C87.1442 6.11023 87.0722 6.26131 87.0452 6.31765C87.0387 6.33154 87.0329 6.34583 87.0288 6.36053C86.9143 6.77129 87.0988 6.87419 87.302 6.98933H87.3025ZM87.3589 6.74026C87.2342 6.66962 87.1151 6.58755 87.1049 6.39401C87.2276 6.47935 87.3814 6.54427 87.3589 6.74026Z" fill="white"/>
<path d="M100.859 2.48027C101.035 3.00332 100.24 3.03149 99.8751 2.64686C99.8428 2.61256 100.121 3.00659 100.542 3.0564C100.963 3.10621 101.071 2.85306 100.996 2.63094C100.987 2.6048 100.896 2.51946 100.879 2.5015C100.874 2.49619 100.861 2.48639 100.858 2.47986L100.859 2.48027Z" fill="white"/>
<path d="M100.304 1.69795C100.304 1.69795 100.553 1.8772 101.03 1.56075C100.944 2.01235 101.14 2.00418 101.247 2.01725C101.278 2.02133 101.318 2.01847 101.348 2.02868C101.121 1.94947 101.234 1.62567 101.257 1.45622C101.245 1.45459 101.054 1.43091 101.054 1.43091C100.732 1.66896 100.304 1.69754 100.304 1.69754L100.304 1.69795Z" fill="white"/>
<path d="M90.7821 7.29879C90.8091 6.28984 89.0824 6.25677 89.4104 4.76111C89.4345 5.99749 91.124 6.02035 90.7821 7.29879Z" fill="white"/>
<path d="M95.3733 24.5555C96.3806 24.4697 96.2207 22.7528 97.7462 22.9116C96.5184 23.0733 96.6837 24.7523 95.3733 24.5555Z" fill="white"/>
<path d="M93.0142 7.09956C92.9185 7.40458 93.0481 7.62915 93.3614 7.78798C93.397 7.80595 93.4101 7.85005 93.39 7.88435L93.2919 8.05257C93.2457 8.13138 93.1545 8.17384 93.0653 8.15506C92.687 8.07544 91.6617 7.85617 90.8605 7.8035C89.6433 7.72306 86.7351 8.6136 87.131 7.64916C87.2909 6.85907 89.3329 6.93828 89.8981 6.98524C89.5256 7.10732 87.5473 7.23023 87.2602 7.60751C87.4647 8.3041 89.5121 6.97095 92.8097 7.74429C92.7545 7.49931 92.8624 7.29392 93.0142 7.09956Z" fill="white"/>
<path d="M95.5966 14.704C95.2874 14.6203 95.0682 14.7591 94.9214 15.0776C94.9046 15.114 94.8613 15.1286 94.8261 15.1103L94.6535 15.0188C94.5729 14.9759 94.5267 14.8865 94.5418 14.7967C94.6065 14.4161 94.7852 13.3847 94.806 12.5832C94.8379 11.366 93.9492 8.14319 94.9304 8.49965C95.4064 8.67808 95.4849 9.16398 95.46 9.72949C95.323 9.36242 95.17 8.99085 94.943 8.59846C94.2543 8.82998 95.5856 11.2051 94.943 14.5256C95.186 14.4606 95.3958 14.5603 95.5966 14.704Z" fill="white"/>
<path d="M95.5798 20.2722C95.2706 20.1885 95.0514 20.3273 94.9046 20.6458C94.8878 20.6821 94.8445 20.6968 94.8093 20.6784L94.6367 20.587C94.5562 20.5441 94.5099 20.4547 94.5251 20.3649C94.5897 19.9843 94.7684 18.9529 94.7893 18.1514C94.8212 16.9342 94.0531 16.1298 95.0338 16.4863C95.5099 16.6647 95.4367 17.3882 95.4117 17.9538C95.2747 17.5867 95.1242 16.9713 94.8972 16.5785C94.6044 17.1249 95.4436 17.4577 94.9259 20.0937C95.1688 20.0288 95.3786 20.1284 95.5794 20.2722H95.5798Z" fill="white"/>
<path d="M91.5267 4.36344C91.5987 4.16867 91.6621 3.98371 91.6813 3.84406C91.6837 3.8261 91.6797 3.80731 91.6698 3.7918C91.595 3.67012 91.4633 3.72851 91.303 3.87795L91.384 3.57172C91.3917 3.54273 91.4069 3.51578 91.4277 3.49414C91.6976 3.21158 91.849 3.42064 91.7631 3.72688C91.7116 3.93308 91.6273 4.14662 91.5263 4.36344H91.5267Z" fill="white"/>
<path d="M84.0711 7.00846C84.1431 6.81369 84.2065 6.62873 84.2257 6.48908C84.2282 6.47112 84.2241 6.45233 84.2143 6.43682C84.1394 6.31514 84.0077 6.37353 83.8474 6.52297L83.9284 6.21674C83.9362 6.18775 83.9513 6.1608 83.9722 6.13916C84.2421 5.8566 84.3934 6.06566 84.3075 6.3719C84.256 6.57809 84.1717 6.79164 84.0707 7.00846H84.0711Z" fill="white"/>
<path d="M82.4727 2.49381C82.5447 2.29904 82.6081 2.11408 82.6273 1.97443C82.6298 1.95647 82.6257 1.93769 82.6159 1.92217C82.541 1.80049 82.4093 1.85888 82.249 2.00832L82.33 1.70209C82.3378 1.6731 82.3529 1.64615 82.3738 1.62451C82.6437 1.34195 82.795 1.55101 82.7091 1.85725C82.6576 2.06345 82.5733 2.277 82.4723 2.49381H82.4727Z" fill="white"/>
<path d="M98.312 4.88359C98.4932 4.78152 98.6613 4.68107 98.7664 4.58716C98.7799 4.57491 98.7889 4.55817 98.7917 4.53979C98.813 4.39852 98.6752 4.35809 98.456 4.36871L98.7161 4.18742C98.7406 4.17027 98.7697 4.15965 98.7995 4.15638C99.1885 4.11514 99.1684 4.37238 98.9046 4.55041C98.7316 4.67454 98.5292 4.78274 98.312 4.88319V4.88359Z" fill="white"/>
<path d="M99.7368 9.88672C99.9892 9.99492 100.23 10.0909 100.413 10.1256C100.437 10.1301 100.462 10.1256 100.483 10.1142C100.649 10.0235 100.662 9.87202 100.475 9.65112L100.793 9.75279C100.831 9.76504 100.866 9.78668 100.893 9.81567C101.248 10.1905 100.961 10.3755 100.562 10.242C100.293 10.1603 100.017 10.0345 99.7368 9.88713V9.88672Z" fill="white"/>
<path d="M95.876 10.6931C96.1283 10.8013 96.3692 10.8973 96.5524 10.932C96.5762 10.9365 96.6011 10.932 96.6224 10.9205C96.788 10.8299 96.8015 10.6784 96.6146 10.4575L96.9324 10.5592C96.9704 10.5714 97.0048 10.5931 97.0318 10.6221C97.3872 10.9969 97.1005 11.1819 96.7013 11.0484C96.4322 10.9667 96.1557 10.8409 95.876 10.6935V10.6931Z" fill="white"/>
<path d="M77.075 3.34752C77.2169 3.11274 77.3453 2.88776 77.405 2.71136C77.4128 2.6885 77.412 2.66318 77.4034 2.64073C77.3363 2.46433 77.1879 2.43044 76.9429 2.58479L77.0872 2.28427C77.1044 2.24833 77.1306 2.21771 77.1629 2.19444C77.5837 1.89432 77.7277 2.20342 77.5404 2.57989C77.4222 2.83508 77.2594 3.0911 77.075 3.34752Z" fill="white"/>
<path d="M95.5007 14.2426C95.7531 14.3508 95.994 14.4467 96.1772 14.4814C96.2009 14.4859 96.2259 14.4814 96.2471 14.47C96.4128 14.3793 96.4263 14.2279 96.2394 14.007L96.5571 14.1086C96.5952 14.1209 96.6295 14.1425 96.6565 14.1715C97.0119 14.5463 96.7252 14.7313 96.3261 14.5978C96.0569 14.5161 95.7805 14.3904 95.5007 14.243V14.2426Z" fill="white"/>
<path d="M96.9888 22.4592C97.192 22.4833 97.3843 22.5013 97.5229 22.4874C97.5409 22.4858 97.5577 22.4772 97.5703 22.4645C97.6697 22.3649 97.6472 22.2538 97.4669 22.135L97.7155 22.1407C97.745 22.1415 97.7744 22.1497 97.7998 22.1644C98.1331 22.3575 97.9671 22.5503 97.6538 22.5388C97.444 22.5372 97.2198 22.5054 96.9888 22.4592Z" fill="white"/>
<path d="M85.5621 4.55161L85.7028 4.27437C85.6594 4.21924 85.1359 3.84237 85.3417 3.28992C84.7629 4.07225 85.5621 4.55161 85.5621 4.55161Z" fill="white"/>
<path d="M100.883 5.32345C100.674 5.24423 100.54 5.04171 100.545 4.81918C100.552 4.49171 100.586 4.24182 100.667 4.12545C100.699 4.07972 100.759 4.06298 100.81 4.0838L101.081 4.19323C101.116 4.20711 101.142 4.23651 101.152 4.27285L101.186 4.39371C101.207 4.46843 101.22 4.54479 101.226 4.62196C101.249 4.92901 101.229 5.3308 101.154 5.6648C101.152 5.6746 101.138 5.67419 101.136 5.6648L100.901 4.55418C100.843 4.83959 100.828 5.10132 100.882 5.32426L100.883 5.32345Z" fill="white"/>
<path d="M100.891 8.14035C100.73 8.07461 100.629 7.91455 100.637 7.74101C100.649 7.48622 100.681 7.29187 100.746 7.20285C100.771 7.16774 100.818 7.1559 100.858 7.17305L101.067 7.26328C101.094 7.27472 101.114 7.2984 101.121 7.32657L101.145 7.4213C101.16 7.47969 101.169 7.53971 101.172 7.59974C101.184 7.83942 101.161 8.15219 101.097 8.41106C101.095 8.41882 101.084 8.418 101.082 8.41024L100.921 7.54012C100.87 7.76143 100.853 7.96518 100.892 8.13994L100.891 8.14035Z" fill="white"/>
<path d="M79.6254 1.85025C80.3976 1.7645 80.9992 1.60608 81.0744 2.02827C80.9664 1.42274 81.1407 1.35986 79.5959 1.53176C79.5959 1.53176 79.6209 1.85066 79.6254 1.85025Z" fill="white"/>
<path d="M79.007 7.8403C78.3584 7.90645 77.8582 8.03629 77.7715 7.67371C77.8962 8.19349 77.7523 8.24616 79.0496 8.11346C79.0496 8.11346 79.0111 7.83989 79.007 7.8403Z" fill="white"/>
<path d="M99.5408 12.7114L99.7469 12.8511C99.7633 12.8621 99.7768 12.8768 99.7858 12.8944C99.8987 13.1165 99.9931 13.5273 100.252 13.7759C100.594 13.8841 100.151 12.7343 100.249 11.8969C100.466 12.4909 100.611 13.1655 100.646 13.8212C100.653 13.9437 100.516 14.0205 100.414 13.9519L100.292 13.869C99.7232 13.4672 99.7159 13.1116 99.5212 12.7294C99.5146 12.7167 99.5289 12.7041 99.5408 12.7118V12.7114Z" fill="white"/>
<path d="M81.8649 7.07263C81.8007 7.66836 82.5532 7.64182 83.2088 7.68919C83.2456 7.69164 83.2681 7.73084 83.2526 7.76391L83.1585 7.96684C83.1495 7.98603 83.1299 7.99788 83.109 7.99747L80.8604 7.92479C80.9668 8.01012 81.0117 8.14446 80.7529 8.52379C80.797 8.23674 80.7455 7.8913 79.6143 8.11669L79.7284 7.88885C79.7623 7.82067 79.8192 7.76636 79.8895 7.73655C80.3476 7.5422 81.067 7.63529 81.7111 7.6455C81.6318 7.48952 81.6657 7.30333 81.8653 7.07263H81.8649Z" fill="white"/>
<path d="M94.648 25.3019L94.8059 25.203C94.848 25.1765 94.8738 25.1304 94.8734 25.0806L94.8644 23.6988L95.176 24.8854C95.1821 24.9087 95.2165 24.9054 95.2181 24.8813C95.2525 24.3578 95.2423 23.8625 95.1179 23.4399C95.1118 23.3309 94.9895 23.2697 94.8983 23.3297L94.812 23.386C94.6447 23.4959 94.5453 23.6837 94.5494 23.8838L94.5781 25.2647C94.5789 25.3002 94.6177 25.3211 94.648 25.3023V25.3019Z" fill="white"/>
<path d="M98.3466 22.0243L98.0627 21.8928C98.0313 21.8781 98.0055 21.8536 97.9908 21.8222C97.7572 21.3138 97.799 20.6495 97.6309 20.4666L97.9045 20.5401C97.9535 20.5531 97.9924 20.5907 98.0083 20.6393C98.2157 21.2795 98.0754 21.6707 98.3466 22.0251V22.0243Z" fill="white"/>
<path d="M96.3226 18.7361C96.188 18.6295 96.044 18.6291 95.9573 17.9668C96.2387 18.5948 96.3827 19.3682 96.4669 20.2044C96.5303 19.8304 96.563 19.4355 96.552 19.0113C96.5483 18.8794 96.5258 18.7479 96.4837 18.623C96.352 18.2347 96.1365 17.7725 95.9013 17.2927C95.8956 17.2809 95.8849 17.2719 95.8723 17.2686L95.6334 17.2C95.5999 17.1902 95.5688 17.22 95.5753 17.2539C95.7185 17.9803 95.5483 18.7373 96.3226 18.7357V18.7361Z" fill="white"/>
<path d="M95.2527 22.0684L95.5443 22.1942C95.6191 22.1166 95.8199 21.2534 96.3909 21.2363C95.7304 20.8676 95.4486 21.7087 95.2527 22.068V22.0684Z" fill="white"/>
<path d="M99.8792 29.3842L99.6211 29.5691C99.6493 29.6732 100.288 30.2886 100.009 30.7863C100.665 30.4098 100.087 29.7365 99.8792 29.3842Z" fill="white"/>
</g>
<g clip-path="url(#clip3_725_6729)">
<rect x="79.439" y="9.69299" width="13.4497" height="13.4497" fill="white"/>
<g clip-path="url(#clip4_725_6729)">
<path d="M91.9984 15.628L91.9451 15.2564C91.0484 14.6057 89.2417 15.5953 89.4762 13.1217L89.4928 12.1731C91.1249 12.7141 92.2282 13.3947 91.9307 15.1261C91.7268 14.0711 90.7217 13.5771 89.5466 13.2018C89.883 14.6545 92.5498 13.0245 92.1101 15.7491L92.0809 16.4121C91.2231 17.8907 88.5522 17.4634 88.7486 15.4461C88.2477 15.7293 87.8951 16.3997 87.478 16.682C86.8895 17.0807 86.3719 16.9481 86.4563 15.5133L86.4998 14.5473C87.947 14.4091 88.3376 15.173 88.2556 16.3398C88.1013 18.3788 87.1898 19.9794 85.2436 20.9823C84.4197 21.3474 83.4887 21.4501 82.5286 21.4809C84.8279 20.3744 87.3316 19.5557 88.1421 16.3583C87.9405 15.6938 87.3344 15.5027 86.5346 15.5368C87.1861 16.7312 88.301 14.4413 88.8515 14.4404L88.8543 15.2149C89.1291 16.454 91.0716 16.7009 91.9993 15.6275L91.9984 15.628Z" fill="#5064BA"/>
<path d="M90.0072 12.0332L90.8079 11.4429L89.9845 10.5049L89.1953 11.1007L90.0072 12.0332Z" fill="#5064BA"/>
<path d="M80.6939 11.8591L81.4826 11.2568L80.7602 10.4192L79.9817 11.0261L80.6939 11.8591Z" fill="#5064BA"/>
<path d="M80.6976 13.2727L81.4863 12.6708L80.7639 11.8333L79.9858 12.4397L80.6976 13.2727Z" fill="#5064BA"/>
<path d="M91.5785 18.4L92.2416 17.8935L91.6345 17.1895L90.9802 17.6996L91.5785 18.4Z" fill="#5064BA"/>
<path d="M90.5581 11.0749L91.4163 12.0359L92.1994 11.4401L91.3329 10.4763L90.5581 11.0749Z" fill="#5064BA"/>
<path d="M90.513 17.5113L90.0654 18.121C90.0417 18.1532 90.0413 18.197 90.064 18.2296C90.3086 18.5768 90.8874 19.3928 90.0997 20.3308C89.8337 19.3891 89.1057 18.7339 89.5482 17.8663C87.8328 19.3619 89.6265 20.2516 89.4972 21.4455C88.779 20.1502 88.013 19.7473 88.3707 18.9351C86.868 20.3694 88.1831 20.7226 87.7679 21.644C87.3314 21.1251 87.0533 20.5449 87.3277 19.7506L86.9143 20.2451C86.8847 20.281 86.8467 20.3091 86.804 20.3284C86.1405 20.6268 85.4862 20.0964 85.2925 19.2302C86.7257 17.0891 84.5876 12.3283 88.2201 10.416C82.8268 11.7532 86.6664 18.8255 83.5649 20.2612C84.4811 19.2703 83.3569 18.0418 84.3166 17.2102L84.6331 17.0412C84.7169 16.9965 84.7762 16.9159 84.792 16.8229C85.051 15.2974 83.9375 14.5381 83.1627 14.6132L82.1465 15.0395C80.2452 16.0728 82.2494 19.7404 81.3509 21.5851C81.387 20.6641 80.8203 19.1616 80.8226 17.1494C80.8245 15.3149 80.7689 13.625 81.7397 12.7782C79.8384 13.4555 80.0163 14.7729 79.9987 16.4016C79.9584 20.1028 80.8166 21.5938 80.2693 22.4217L81.3147 21.9714C83.8142 21.0864 81.3041 16.2768 82.6562 15.0119C83.64 15.3854 84.1993 16.3735 83.8495 17.3009C82.1998 17.9059 83.6178 19.7004 82.6192 20.6379L83.5649 20.3902L84.672 19.879C85.0872 21.1255 85.8958 21.6592 86.6678 20.7157C86.5047 21.3709 86.7336 21.9263 87.2002 22.4203C87.2178 22.4392 87.2489 22.4378 87.2651 22.4171L88.2378 21.1803L88.8828 22.2196C88.9352 22.3038 89.0566 22.3103 89.1173 22.232L89.6251 21.5786C90.0255 21.0767 90.1224 20.7268 90.114 20.4293C91.6159 18.4884 91.1094 18.284 90.671 17.5215C90.6372 17.4621 90.5533 17.457 90.513 17.5118V17.5113Z" fill="#5064BA"/>
<path d="M92.0743 21.695C91.6628 22.0058 90.9422 22.0763 90.9385 21.4777L91.3898 20.9518C92.2225 19.8863 91.0335 19.9245 91.5061 18.754C90.5043 20.1704 91.5307 20.1456 91.3013 20.9205L90.8111 21.5131C90.198 22.4368 91.1989 22.691 91.7814 22.1688L92.0743 21.6955V21.695Z" fill="#5064BA"/>
<path d="M84.4869 21.631L84.327 21.9368C84.8478 21.7825 85.2996 21.7761 85.6416 22.0054C84.808 22.1923 83.3038 22.3332 81.738 22.47C83.5712 22.4981 84.3451 22.7513 85.5638 22.4728C85.7306 22.4345 85.8631 22.3084 85.9447 22.1592L86.1212 21.8369C86.1838 21.7227 86.1449 21.5799 86.0332 21.5127C85.7046 21.3151 85.3237 21.241 84.865 21.3409C84.7019 21.3764 84.5642 21.4841 84.4873 21.631H84.4869Z" fill="#5064BA"/>
<path d="M81.8654 12.5411L82.4804 11.7808C82.7436 12.6502 82.4817 13.2935 82.1736 13.9169C82.1314 14.0021 82.0698 14.0762 81.9938 14.1338L81.6064 14.4244C81.5531 14.4644 81.5058 14.5123 81.4669 14.5666L81.1648 14.9857C82.4507 14.0868 83.4266 14.4598 84.0397 13.6107C84.9641 12.5682 84.2704 11.8674 84.5295 10.8756C85.4507 10.6297 85.6819 11.2895 84.8923 12.1137C86.6736 10.5311 85.3126 9.8699 84.5536 10.707C83.5619 11.7302 84.5392 12.7681 83.979 13.514C83.5193 13.9137 82.5202 13.893 82.1096 14.1812C83.3914 12.3762 82.9688 11.4548 82.5846 10.5132C82.5665 10.469 82.5082 10.4602 82.4776 10.4966L82.1416 10.899C82.1291 10.9142 82.124 10.9345 82.1286 10.9538C82.2385 11.4083 82.3427 11.8646 81.865 12.5411H81.8654Z" fill="#5064BA"/>
<path d="M87.4264 13.4938L87.6173 12.955C87.6173 12.955 88.2053 13.6328 88.1733 14.2977C88.171 14.3479 88.1594 14.3976 88.1395 14.4442L87.981 14.8181C87.9708 14.8415 87.9986 14.8636 88.0195 14.8484C88.1451 14.7564 88.4152 14.5155 88.6548 14.0155C89.5325 12.4632 88.159 11.6404 88.291 10.9713C88.291 10.9713 88.9555 10.7374 88.7262 12.0612C88.7262 12.0612 88.7767 12.006 88.8397 11.9005C89.0028 11.6266 89.0626 11.3047 89.0218 10.9888C88.9745 10.6232 88.8434 10.1351 88.4792 10.4759C88.4078 10.5426 88.3508 10.6232 88.3059 10.7102C88.2095 10.8967 88.0227 11.2858 88.0167 11.5165C87.9963 12.2818 88.943 12.8528 88.5983 13.9326L88.3346 14.2222C88.7461 13.2796 87.7637 12.1837 87.2572 11.7025C87.2322 11.6791 87.1919 11.6832 87.1733 11.7118C87.0524 11.8946 86.9509 12.0875 86.8721 12.2924C86.8638 12.3145 86.8708 12.3398 86.8893 12.3546C87.2498 12.6456 87.4588 13.0107 87.4264 13.4942V13.4938Z" fill="#5064BA"/>
</g>
</g>
<rect x="79.1929" y="9.44696" width="13.9418" height="13.9418" stroke="#C59714" stroke-width="0.492063"/>
</g>
<rect x="70.254" y="0.671836" width="31.6561" height="31.6561" stroke="#C59714" stroke-width="0.656085"/>
<defs>
<clipPath id="clip0_725_6729">
<rect width="64.3049" height="27.5375" fill="white" transform="translate(0 2.75146)"/>
</clipPath>
<clipPath id="clip1_725_6729">
<rect x="70.582" y="0.999878" width="31" height="31" fill="white"/>
</clipPath>
<clipPath id="clip2_725_6729">
<rect width="30.2994" height="30.1243" fill="white" transform="translate(71.0496 1.41003)"/>
</clipPath>
<clipPath id="clip3_725_6729">
<rect x="79.439" y="9.69299" width="13.4497" height="13.4497" fill="white"/>
</clipPath>
<clipPath id="clip4_725_6729">
<rect width="12.2599" height="12.2599" fill="white" transform="translate(79.9817 10.3423)"/>
</clipPath>
</defs>
</svg>
