<svg width="178" height="37" viewBox="0 0 178 37" fill="none" xmlns="http://www.w3.org/2000/svg">
<path d="M174.98 11.4254H174.456V8.43714H177.291V8.90282H174.98V9.71388H177.052V10.1796H174.98V11.4236V11.4254ZM172.108 8.86158C171.388 8.86158 170.9 9.2946 170.9 9.93211C170.9 10.5696 171.387 11.0026 172.108 11.0026C172.83 11.0026 173.316 10.5696 173.316 9.93211C173.316 9.2946 172.83 8.86158 172.108 8.86158ZM172.108 8.39075C173.121 8.39075 173.861 9.04372 173.861 9.93039C173.861 10.8171 173.121 11.47 172.108 11.47C171.096 11.47 170.356 10.8171 170.356 9.93039C170.356 9.04372 171.096 8.39075 172.108 8.39075ZM165.943 11.4254V8.43714H166.476V10.9597H168.656V11.4254H165.941H165.943ZM163.661 8.96124L163.029 10.2105H164.293L163.661 8.96124ZM163.366 8.43714H163.953L165.472 11.4254H164.907L164.529 10.6762H162.793L162.415 11.4254H161.845L163.369 8.43714H163.366ZM159.137 9.81011H160.436C160.819 9.81011 161.044 9.64343 161.044 9.35302C161.044 9.06262 160.819 8.89594 160.436 8.89594H159.137V9.81182V9.81011ZM159.137 10.2689V11.4271H158.604V8.43886H160.465C161.118 8.43886 161.568 8.7516 161.568 9.35474C161.568 9.81698 161.298 10.1125 160.869 10.2242L161.644 11.4271H161.035L160.307 10.2689H159.137ZM155.083 8.43714H157.972V8.90282H155.607V9.65202H157.734V10.1177H155.607V10.958H157.972V11.4236H155.083V8.43542V8.43714ZM154.306 8.43714V11.4254H153.841L151.801 9.1073V11.4254H151.289V8.43714H151.839L153.796 10.6555V8.43714H154.308H154.306ZM147.768 8.43714H150.657V8.90282H148.292V9.65202H150.419V10.1177H148.292V10.958H150.657V11.4236H147.768V8.43542V8.43714ZM145.447 8.39075C146.216 8.39075 146.799 8.73614 147.029 9.31007L146.588 9.55579C146.397 9.10558 146 8.85986 145.452 8.85986C144.723 8.85986 144.208 9.28945 144.208 9.92524C144.208 10.561 144.716 10.9992 145.428 10.9992C146.022 10.9992 146.577 10.7036 146.601 10.2792H145.173V9.81354H147.072V11.4254H146.572V11.0422C146.393 11.2759 145.952 11.4718 145.428 11.4718C144.4 11.4718 143.658 10.8136 143.658 9.92352C143.658 9.03341 144.419 8.39075 145.448 8.39075H145.447ZM139.023 8.43714H141.912V8.90282H139.547V9.65202H141.675V10.1177H139.547V10.958H141.912V11.4236H139.023V8.43542V8.43714ZM138.46 8.90282H137.111V11.4254H136.578V8.90282H135.229V8.43714H138.46V8.90282ZM133.655 8.96124L133.023 10.2105H134.288L133.655 8.96124ZM133.36 8.43714H133.947L135.466 11.4254H134.901L134.523 10.6762H132.787L132.409 11.4254H131.839L133.363 8.43714H133.36ZM128.842 11.4254V8.43714H129.375V10.9597H131.555V11.4254H128.84H128.842ZM126.643 11.4683C125.586 11.4683 125.127 10.86 125.127 9.98194V8.43714H125.66V9.96476C125.66 10.5645 125.897 10.9975 126.643 10.9975C127.388 10.9975 127.625 10.5645 127.625 9.96476V8.43714H128.158V9.98194C128.158 10.86 127.701 11.4683 126.643 11.4683ZM121.494 10.714L121.878 10.36C122.214 10.86 122.756 11.0095 123.206 11.0095C123.744 11.0095 124.13 10.8308 124.13 10.5645C124.13 10.2483 123.881 10.2225 123.007 10.1228C122.245 10.0352 121.704 9.90977 121.704 9.32725C121.704 8.78597 122.237 8.39075 123.07 8.39075C123.732 8.39075 124.331 8.63991 124.586 9.03169L124.203 9.35302C123.986 9.03169 123.57 8.85298 123.05 8.85298C122.458 8.85298 122.209 9.05747 122.209 9.27398C122.209 9.51111 122.4 9.56954 123.184 9.66061C124.091 9.76543 124.653 9.86509 124.653 10.5009C124.653 11.1367 124.007 11.47 123.196 11.47C122.458 11.47 121.776 11.1659 121.498 10.7122L121.494 10.714ZM121.039 8.43714V11.4254H120.573L118.534 9.1073V11.4254H118.022V8.43714H118.571L120.529 10.6555V8.43714H121.041H121.039ZM115.674 8.86158C114.954 8.86158 114.466 9.2946 114.466 9.93211C114.466 10.5696 114.953 11.0026 115.674 11.0026C116.396 11.0026 116.882 10.5696 116.882 9.93211C116.882 9.2946 116.396 8.86158 115.674 8.86158ZM115.674 8.39075C116.686 8.39075 117.427 9.04372 117.427 9.93039C117.427 10.8171 116.686 11.47 115.674 11.47C114.662 11.47 113.922 10.8171 113.922 9.93039C113.922 9.04372 114.662 8.39075 115.674 8.39075ZM110.251 9.93211C110.251 9.04544 111.009 8.39247 112.013 8.39247C112.774 8.39247 113.344 8.74301 113.573 9.31694L113.131 9.55923C112.94 9.10902 112.557 8.86329 112.016 8.86329C111.313 8.86329 110.796 9.29632 110.796 9.93383C110.796 10.5713 111.311 11.0044 112.016 11.0044C112.557 11.0044 112.94 10.7586 113.131 10.3084L113.573 10.5507C113.344 11.1246 112.774 11.4752 112.013 11.4752C111.009 11.4752 110.251 10.8222 110.251 9.93555V9.93211Z" fill="white"/>
<path d="M177.396 15.7109V21.0481H176.43L172.943 17.1011V21.0481H171.888V15.7109H173.004L176.334 19.4793V15.7109H177.397H177.396ZM167.783 16.7883L166.735 18.8778H168.825L167.783 16.7883ZM167.173 15.7109H168.4L171.091 21.0481H169.909L169.292 19.8075H166.275L165.651 21.0481H164.484L167.175 15.7109H167.173ZM164.977 16.656H162.621V21.0498H161.522V16.656H159.166V15.7126H164.979V16.656H164.977ZM152.928 19.8882L153.664 19.1218C154.274 19.9398 155.239 20.1924 156.028 20.1924C156.92 20.1924 157.552 19.9243 157.552 19.493C157.552 18.9878 157.114 18.9431 155.612 18.7799C154.304 18.6304 153.301 18.3864 153.301 17.3296C153.301 16.2728 154.289 15.6267 155.806 15.6267C156.995 15.6267 158.066 16.0511 158.549 16.6904L157.82 17.3897C157.411 16.8622 156.653 16.5563 155.746 16.5563C154.794 16.5563 154.363 16.8605 154.363 17.2179C154.363 17.6045 154.72 17.6939 156.073 17.8503C157.59 18.0221 158.66 18.2214 158.66 19.3744C158.66 20.5274 157.494 21.1289 155.985 21.1289C154.713 21.1289 153.45 20.6374 152.93 19.8882H152.928ZM152.182 15.7109V21.0481H151.089V15.7109H152.182ZM149.787 15.7109V21.0481H148.821L145.335 17.1011V21.0481H144.28V15.7109H145.395L148.725 19.4793V15.7109H149.789H149.787ZM140.174 16.7883L139.126 18.8778H141.216L140.174 16.7883ZM139.564 15.7109H140.791L143.482 21.0481H142.3L141.683 19.8075H138.666L138.042 21.0481H136.875L139.566 15.7109H139.564ZM134.994 15.7109H136.093V21.0481H134.994V18.7816H131.567V21.0481H130.474V15.7109H131.567V17.8365H134.994V15.7109ZM126.352 15.6301C127.749 15.6301 128.797 16.2539 129.206 17.2798L128.247 17.7403C127.943 17.0117 127.289 16.5873 126.343 16.5873C125.139 16.5873 124.254 17.2935 124.254 18.3795C124.254 19.4655 125.123 20.1786 126.313 20.1786C127.301 20.1786 128.194 19.7095 128.268 19.0479H125.867V18.1269H129.287V21.0481H128.261V20.4243C127.957 20.811 127.197 21.1306 126.306 21.1306C124.455 21.1306 123.132 19.9638 123.132 18.3658C123.132 16.7677 124.484 15.6301 126.35 15.6301H126.352ZM118.576 21.0481H117.499V15.7109H122.584V16.6543H118.576V17.9843H122.159V18.9277H118.576V21.0464V21.0481ZM113.396 16.7883L112.347 18.8778H114.437L113.396 16.7883ZM112.786 15.7109H114.013L116.703 21.0481H115.521L114.904 19.8075H111.887L111.263 21.0481H110.096L112.787 15.7109H112.786Z" fill="white"/>
<path d="M111.04 27.8619V25.3934H112.302C113.168 25.3934 113.715 25.8748 113.715 26.6277C113.715 27.3806 113.168 27.8619 112.302 27.8619H111.04ZM111.535 27.4287H112.302C112.866 27.4287 113.199 27.1125 113.199 26.6277C113.199 26.1395 112.866 25.8266 112.302 25.8266H111.535V27.4287ZM115.208 27.8963C114.342 27.8963 113.939 27.415 113.939 26.6965V25.3934H114.445V26.6689C114.445 27.1331 114.644 27.4528 115.208 27.4528C115.768 27.4528 115.968 27.1331 115.968 26.6689V25.3934H116.477V26.6965C116.477 27.415 116.071 27.8963 115.208 27.8963ZM116.842 27.8619V25.3934H118.461C118.994 25.3934 119.296 25.6272 119.296 26.0501C119.296 26.3458 119.104 26.5074 118.935 26.5796C119.183 26.6621 119.372 26.8718 119.372 27.1709C119.372 27.6041 119.042 27.8619 118.519 27.8619H116.842ZM117.326 26.3973H118.409C118.664 26.3973 118.819 26.3011 118.819 26.1051C118.819 25.9126 118.664 25.8129 118.409 25.8129H117.326V26.3973ZM117.326 26.8065V27.4391H118.485C118.736 27.4391 118.884 27.3119 118.884 27.1228C118.884 26.9371 118.736 26.8065 118.485 26.8065H117.326ZM120.602 25.3934H121.169L122.414 27.8619H121.867L121.582 27.2878H120.186L119.897 27.8619H119.358L120.602 25.3934ZM120.884 25.892L120.399 26.858H121.365L120.884 25.892ZM123.115 25.3934V27.8619H122.61V25.3934H123.115ZM123.461 27.8619V27.305H124.024V27.8516C124.024 28.1748 123.801 28.3673 123.461 28.3673V28.1129C123.619 28.1026 123.698 28.0338 123.698 27.886V27.8619H123.461ZM126.492 27.8963C125.626 27.8963 125.224 27.415 125.224 26.6965V25.3934H125.729V26.6689C125.729 27.1331 125.928 27.4528 126.492 27.4528C127.053 27.4528 127.252 27.1331 127.252 26.6689V25.3934H127.761V26.6965C127.761 27.415 127.355 27.8963 126.492 27.8963ZM130.674 25.3934V27.8619H130.227L128.614 26.0364V27.8619H128.126V25.3934H128.642L130.182 27.1365V25.3934H130.674ZM131.609 25.3934V27.8619H131.104V25.3934H131.609ZM134.575 25.8301H133.485V27.8619H132.976V25.8301H131.886V25.3934H134.575V25.8301ZM134.854 25.3934H137.244V25.8301H135.353V26.3802H137.048V26.8133H135.353V27.4253H137.244V27.8619H134.854V25.3934ZM137.567 27.8619V25.3934H138.829C139.695 25.3934 140.242 25.8748 140.242 26.6277C140.242 27.3806 139.695 27.8619 138.829 27.8619H137.567ZM138.062 27.4287H138.829C139.393 27.4287 139.726 27.1125 139.726 26.6277C139.726 26.1395 139.393 25.8266 138.829 25.8266H138.062V27.4287ZM142.459 25.3934H143.026L144.271 27.8619H143.724L143.439 27.2878H142.043L141.754 27.8619H141.214L142.459 25.3934ZM142.741 25.892L142.256 26.858H143.222L142.741 25.892ZM144.972 26.944V27.8619H144.467V25.3934H146.017C146.578 25.3934 146.956 25.6616 146.956 26.1704C146.956 26.5486 146.736 26.7996 146.385 26.8959L147.014 27.8619H146.433L145.852 26.944H144.972ZM144.972 26.5211H145.99C146.285 26.5211 146.454 26.3939 146.454 26.1739C146.454 25.9504 146.285 25.8232 145.99 25.8232H144.972V26.5211ZM148.247 25.3934H148.814L150.059 27.8619H149.512L149.227 27.2878H147.831L147.542 27.8619H147.003L148.247 25.3934ZM148.529 25.892L148.044 26.858H149.01L148.529 25.892ZM150.255 27.8619V25.3934H151.874C152.407 25.3934 152.71 25.6272 152.71 26.0501C152.71 26.3458 152.517 26.5074 152.349 26.5796C152.596 26.6621 152.785 26.8718 152.785 27.1709C152.785 27.6041 152.455 27.8619 151.933 27.8619H150.255ZM150.74 26.3973H151.823C152.077 26.3973 152.232 26.3011 152.232 26.1051C152.232 25.9126 152.077 25.8129 151.823 25.8129H150.74V26.3973ZM150.74 26.8065V27.4391H151.898C152.149 27.4391 152.297 27.3119 152.297 27.1228C152.297 26.9371 152.149 26.8065 151.898 26.8065H150.74ZM153.978 25.3934H156.368V25.8301H154.477V26.3802H156.172V26.8133H154.477V27.4253H156.368V27.8619H153.978V25.3934ZM158.489 27.8619H158.08L157.183 25.8748V27.8619H156.691V25.3934H157.461L158.29 27.2431L159.118 25.3934H159.878V27.8619H159.383V25.8748L158.489 27.8619ZM160.816 25.3934V27.8619H160.31V25.3934H160.816ZM161.752 26.944V27.8619H161.247V25.3934H162.798C163.358 25.3934 163.736 25.6616 163.736 26.1704C163.736 26.5486 163.516 26.7996 163.165 26.8959L163.795 27.8619H163.214L162.633 26.944H161.752ZM161.752 26.5211H162.77C163.066 26.5211 163.234 26.3939 163.234 26.1739C163.234 25.9504 163.066 25.8232 162.77 25.8232H161.752V26.5211ZM165.028 25.3934H165.595L166.839 27.8619H166.293L166.007 27.2878H164.612L164.323 27.8619H163.783L165.028 25.3934ZM165.309 25.892L164.825 26.858H165.791L165.309 25.892ZM169.129 25.8301H168.039V27.8619H167.531V25.8301H166.441V25.3934H169.129V25.8301ZM169.409 25.3934H171.798V25.8301H169.907V26.3802H171.602V26.8133H169.907V27.4253H171.798V27.8619H169.409V25.3934ZM171.901 27.3256L172.241 26.9715C172.523 27.3497 172.97 27.4666 173.335 27.4666C173.747 27.4666 174.039 27.3428 174.039 27.1434C174.039 26.9096 173.836 26.889 173.142 26.8133C172.537 26.7446 172.073 26.6311 172.073 26.1429C172.073 25.6754 172.53 25.3556 173.231 25.3556C173.781 25.3556 174.277 25.5516 174.5 25.8473L174.163 26.1704C173.974 25.9263 173.623 25.7854 173.204 25.7854C172.764 25.7854 172.564 25.9263 172.564 26.0914C172.564 26.2701 172.729 26.3114 173.355 26.3836C174.057 26.4627 174.552 26.5555 174.552 27.0884C174.552 27.6282 174.012 27.8998 173.314 27.8998C172.726 27.8998 172.142 27.6728 171.901 27.3256Z" fill="#C59714"/>
<path d="M1.3764 17.1113V16.2178H2.1909V17.1113H1.3764ZM3.7357 21.8952C3.7357 22.4485 3.56902 22.9073 3.22878 23.2544C2.90402 23.5947 2.49333 23.7682 1.98641 23.7682H1.74928C1.24237 23.7682 0.831682 23.5947 0.506914 23.2458C0.175272 22.8987 0 22.4468 0 21.8866V17.6165H0.814499V21.8471C0.814499 22.598 1.16332 22.9778 1.86613 22.9778C2.56894 22.9778 2.9023 22.598 2.9023 21.8471V17.6165H3.72539V21.8935H3.73398L3.7357 21.8952Z" fill="white"/>
<path d="M6.59167 22.0534C5.99025 22.0534 5.51598 21.8867 5.16715 21.5482C4.81833 21.2165 4.64478 20.7577 4.64478 20.1718V15.8707H5.45927V20.1322C5.45068 20.8832 5.83044 21.2629 6.59167 21.2629V22.0534Z" fill="white"/>
<path d="M7.4543 16.7711V15.8776H8.2688V16.7711H7.4543ZM9.45618 22.0533H9.36855C8.71213 22.0379 8.22069 21.8402 7.90451 21.445C7.59521 21.8488 7.12094 22.0533 6.48859 22.0533H6.39408V21.2629H6.48859C7.13812 21.2629 7.4543 20.9553 7.4543 20.3298V17.6097H8.2688V20.3607C8.2688 20.9622 8.63309 21.2629 9.36167 21.2629H9.44931V22.0533H9.4579H9.45618ZM6.16382 16.7711V15.8776H6.97832V16.7711H6.16382Z" fill="white"/>
<path d="M9.27393 22.0533V21.2628H18.7455V17.6577H19.5376V21.2628H20.969V17.6096H21.7767V21.2628H23.3129V17.6096H24.1274V21.2628H33.1487V22.0533H9.27393Z" fill="white"/>
<path d="M34.3515 16.7712V15.8862H35.166V16.7712H34.3515ZM35.1814 20.1787C35.1814 20.7646 35.0147 21.2217 34.6745 21.5551C34.3343 21.8867 33.8669 22.0603 33.2826 22.0603H32.8479V21.2698H33.2826C34.0112 21.2698 34.3755 20.8901 34.3755 20.1392V17.6166H35.1831V20.1787H35.1814Z" fill="white"/>
<path d="M38.046 22.0534C37.4446 22.0534 36.9703 21.8867 36.6215 21.5482C36.2727 21.2165 36.0991 20.7577 36.0991 20.1718V15.8707H36.9136V20.1322C36.905 20.8832 37.2848 21.2629 38.046 21.2629V22.0534Z" fill="white"/>
<path d="M48.4369 16.7712V15.8862H49.2514V16.7712H48.4369ZM50.3906 19.7199C50.3906 19.3401 50.248 19.0153 49.9714 18.7387C49.6793 18.4466 49.3064 18.2954 48.863 18.2799H48.8149C48.3802 18.2799 48.0159 18.4225 47.722 18.706C47.4368 18.9827 47.2942 19.3229 47.2942 19.7096C47.5554 19.9622 48.0692 20.4364 48.8459 21.141L50.3975 19.7096L50.3889 19.7182L50.3906 19.7199ZM49.7738 22.0534C49.4576 22.0534 49.1483 21.9984 48.8407 21.8953C48.5314 22.0053 48.2238 22.0534 47.9076 22.0534H37.802V21.263H47.9145L46.4024 19.8797C46.4024 19.2233 46.6154 18.6786 47.0347 18.2507C47.4849 17.7919 48.0795 17.5548 48.8304 17.5548C49.5813 17.5548 50.1673 17.7833 50.6261 18.2507C51.0539 18.6854 51.2756 19.2319 51.2756 19.8797L49.7635 21.263H59.8691V22.0534H49.7635H49.772H49.7738Z" fill="white"/>
<path d="M61.8571 16.7642V15.8793H62.6561V16.7642H61.8571ZM62.285 18.3125C61.6354 18.3125 61.3038 18.8262 61.3038 19.8624C61.3038 20.3762 61.3828 20.7405 61.5495 20.9622C61.699 21.1684 61.9447 21.2629 62.2781 21.2629C62.6115 21.2629 62.8795 21.1598 63.0376 20.9622C63.2043 20.7491 63.2833 20.3848 63.2833 19.8796C63.2833 18.8366 62.9517 18.3142 62.2781 18.3142H62.2867L62.285 18.3125ZM62.285 22.0533H59.5872V21.2629H60.766C60.5597 20.9158 60.4652 20.4484 60.4652 19.8555C60.4652 19.1441 60.6319 18.5822 60.9567 18.187C61.2729 17.8004 61.7162 17.6097 62.2867 17.6097C62.8572 17.6097 63.316 17.7987 63.6322 18.187C63.9569 18.5822 64.115 19.151 64.115 19.8865C64.115 21.3247 63.505 22.0533 62.2798 22.0533H62.2884H62.285Z" fill="white"/>
<path d="M65.0311 22.0533V15.8775H65.8456V22.0533H65.0311ZM64.3506 15.3637V14.9204H64.7613V14.8328C64.7613 14.2073 65.0139 13.8911 65.5122 13.8911C65.8439 13.8911 66.0827 14.0801 66.2322 14.4599H65.7493C65.6858 14.3654 65.6067 14.3173 65.5191 14.3173C65.3215 14.3173 65.227 14.4839 65.227 14.807V14.9101H66.3027V15.3534H64.3558L64.3472 15.362L64.3506 15.3637Z" fill="white"/>
<g clip-path="url(#clip0_725_6731)">
<path d="M4.69131 11.062C4.74562 11.1213 4.79006 11.202 4.82956 11.3075C4.86742 11.413 4.88717 11.5135 4.88717 11.6108C4.88717 11.7558 4.84437 11.9009 4.75879 12.0426C4.67321 12.1843 4.5366 12.3096 4.34733 12.42C4.15806 12.5304 3.91283 12.6178 3.60835 12.6821C3.30387 12.748 2.93027 12.7793 2.48589 12.7793C1.99379 12.7793 1.58727 12.7348 1.26962 12.6458C0.951978 12.5568 0.69852 12.4332 0.510895 12.275C0.32327 12.1184 0.193249 11.9322 0.120832 11.7212C0.0484154 11.5086 0.012207 11.2795 0.012207 11.0339V9.90332H0.606353V10.9235C0.606353 11.3553 0.754478 11.6734 1.05073 11.8745C1.34698 12.0756 1.83085 12.1777 2.50235 12.1777C2.75252 12.1777 2.98952 12.1646 3.21335 12.1398C3.43719 12.1135 3.63304 12.0756 3.80092 12.0245C3.96879 11.9734 4.1021 11.9074 4.19756 11.8283C4.29302 11.7492 4.34075 11.6586 4.34075 11.5564C4.34075 11.446 4.28479 11.3471 4.16958 11.2597C4.05437 11.1724 3.91448 11.0949 3.7466 11.029C3.57873 10.9631 3.39933 10.9037 3.21006 10.851C3.02079 10.7966 2.85456 10.7488 2.70808 10.706V10.111C3.32527 10.3417 3.91119 10.4554 4.46583 10.4554H5.20152C5.39737 10.4554 5.49613 10.5527 5.49613 10.7472C5.49613 10.8708 5.47308 10.9532 5.42535 10.996C5.37762 11.0389 5.30356 11.062 5.20152 11.062H4.69296H4.69131Z" fill="white"/>
<path d="M5.21123 11.062C5.01703 11.062 4.91992 10.9648 4.91992 10.7703C4.91992 10.6483 4.94296 10.5643 4.98905 10.5214C5.03513 10.4786 5.10919 10.4555 5.21123 10.4555H5.51407C5.57003 10.4555 5.63092 10.4489 5.69346 10.4341C5.75765 10.4209 5.82019 10.3879 5.88273 10.3385C5.94528 10.289 6.00782 10.2215 6.06871 10.1358C6.12961 10.0501 6.18721 9.93633 6.24153 9.79294C6.35344 9.48145 6.47194 9.22928 6.59538 9.03481C6.71882 8.84197 6.84555 8.69364 6.97392 8.58816C7.1023 8.48268 7.23396 8.41346 7.36892 8.37885C7.50223 8.34424 7.63555 8.32776 7.76886 8.32776C7.95319 8.32776 8.12271 8.36237 8.27742 8.43324C8.43378 8.50411 8.56874 8.603 8.68394 8.7332C8.79915 8.8634 8.88803 9.01503 8.95386 9.19303C9.01969 9.37102 9.05096 9.57045 9.05096 9.79294C9.05096 10.2099 8.95057 10.5412 8.74813 10.7884C8.54569 11.0356 8.23628 11.1592 7.81823 11.1592C7.58782 11.1592 7.3574 11.1197 7.12369 11.0422C6.88999 10.9648 6.64969 10.8313 6.40117 10.645C6.33699 10.7423 6.2728 10.8181 6.20861 10.8758C6.14278 10.9318 6.07365 10.973 5.99959 11.001C5.92553 11.029 5.84982 11.0455 5.77411 11.0521C5.69676 11.0604 5.61446 11.0637 5.52559 11.0637H5.21123V11.062ZM8.44694 9.76987C8.44694 9.65945 8.43049 9.55397 8.39921 9.45178C8.36794 9.3496 8.32021 9.2606 8.25932 9.18314C8.19842 9.10568 8.12436 9.04469 8.03713 8.9969C7.9499 8.9491 7.84786 8.92603 7.73101 8.92603C7.52363 8.92603 7.33601 9.01668 7.16648 9.19797C6.99696 9.37926 6.83732 9.69735 6.68919 10.1489C6.86859 10.2643 7.04634 10.3566 7.22409 10.4291C7.40184 10.5016 7.58288 10.5362 7.77051 10.5362C7.97459 10.5362 8.13917 10.4769 8.26261 10.3599C8.38605 10.2429 8.44859 10.0451 8.44859 9.76987H8.44694Z" fill="white"/>
<path d="M11.8606 10.4555C11.9445 10.4555 12.0218 10.4506 12.091 10.4407C12.1601 10.4308 12.2177 10.4061 12.2654 10.3698C12.3132 10.3336 12.3494 10.2792 12.3741 10.2099C12.4004 10.1407 12.4119 10.0451 12.4119 9.92152V5.84241H13.0126V9.65123C13.0126 9.89845 13.062 10.0962 13.1624 10.2396C13.2612 10.3846 13.4208 10.4555 13.6413 10.4555C13.8356 10.4555 13.9327 10.5528 13.9327 10.7472C13.9327 10.8708 13.9096 10.9533 13.8635 10.9961C13.8174 11.039 13.7434 11.062 13.6413 11.062C13.4504 11.062 13.2974 11.0159 13.1838 10.9252C13.0702 10.8346 12.9945 10.7209 12.9567 10.5857C12.8678 10.7851 12.7263 10.9137 12.5353 10.973C12.3444 11.0324 12.0959 11.062 11.7931 11.062H9.49878V10.4555H10.6788V7.67183H11.2763V10.4555H11.8622H11.8606Z" fill="white"/>
<path d="M13.7483 10.4556C13.9096 10.4556 14.0446 10.4506 14.1565 10.4407C14.2667 10.4308 14.3556 10.4061 14.4231 10.3699C14.4889 10.3336 14.5367 10.2792 14.5663 10.21C14.5959 10.1408 14.6107 10.0452 14.6107 9.92157V8.60636H15.2082V9.64963C15.2082 9.77159 15.2148 9.88366 15.2296 9.98255C15.2427 10.0814 15.2773 10.1655 15.3333 10.2331C15.3876 10.3006 15.4633 10.355 15.5587 10.3946C15.6542 10.4341 15.7891 10.4539 15.9636 10.4539C16.0689 10.4539 16.1611 10.449 16.2434 10.4391C16.3257 10.4292 16.3932 10.4045 16.4458 10.3682C16.5001 10.332 16.5396 10.2776 16.5643 10.2083C16.589 10.1391 16.6022 10.0435 16.6022 9.91992V8.60801H17.1996V9.64798C17.1996 9.76994 17.2079 9.88201 17.226 9.9809C17.2441 10.0798 17.277 10.1638 17.3231 10.2314C17.3708 10.299 17.435 10.3534 17.5156 10.3929C17.5979 10.4325 17.7 10.4523 17.825 10.4523H18.4373V8.24377H19.038V11.0588H17.8234C17.6374 11.0588 17.486 11.0126 17.3691 10.922C17.2523 10.8313 17.1766 10.7176 17.142 10.5825C17.0531 10.7819 16.9149 10.9104 16.7306 10.9698C16.5462 11.0291 16.3224 11.0588 16.0624 11.0588C15.8945 11.0588 15.7546 11.0456 15.6427 11.0192C15.5308 10.9929 15.4402 10.9566 15.3662 10.9104C15.2938 10.8643 15.2361 10.8116 15.1934 10.7539C15.1506 10.6945 15.1144 10.6369 15.0847 10.5775C15.0436 10.6797 14.9909 10.7621 14.9234 10.8231C14.856 10.8841 14.772 10.9335 14.6683 10.9714C14.5646 11.0093 14.4363 11.0324 14.2816 11.0439C14.1269 11.0555 13.9442 11.0604 13.7319 11.0604H13.4866C13.2924 11.0604 13.1953 10.9632 13.1953 10.7687C13.1953 10.6467 13.2184 10.5627 13.2644 10.5198C13.3105 10.477 13.3846 10.4539 13.4866 10.4539H13.7434L13.7483 10.4556Z" fill="white"/>
<path d="M20.5423 5.84241V11.062H19.9448V5.84241H20.5423Z" fill="white"/>
<path d="M27.5567 11.062H23.1295C22.848 11.062 22.6143 11.0422 22.4267 11.0027C22.2391 10.9631 22.0876 10.9005 21.9724 10.8164C21.8572 10.7324 21.7749 10.6236 21.7272 10.4885C21.6795 10.355 21.6548 10.1902 21.6548 9.99568V8.86506H22.2522V9.77813C22.2522 9.92975 22.2703 10.0484 22.3082 10.1391C22.3444 10.2281 22.4069 10.2973 22.4942 10.3451C22.5814 10.3929 22.6999 10.4225 22.8497 10.4374C23.0011 10.4522 23.1936 10.4588 23.4323 10.4588H26.956V8.25031H27.5567V11.0653V11.062ZM23.7878 7.44932C23.7878 7.34219 23.8256 7.2499 23.9013 7.17573C23.9771 7.09992 24.0676 7.06201 24.1746 7.06201C24.2815 7.06201 24.3737 7.09992 24.4478 7.17573C24.5235 7.25155 24.5613 7.34219 24.5613 7.44932C24.5613 7.55645 24.5235 7.64875 24.4478 7.72291C24.3721 7.79872 24.2815 7.83663 24.1746 7.83663C24.0676 7.83663 23.9754 7.79872 23.9013 7.72291C23.8256 7.6471 23.7878 7.55645 23.7878 7.44932ZM24.7341 7.44932C24.7341 7.34219 24.772 7.2499 24.8493 7.17573C24.9267 7.09992 25.0172 7.06201 25.1258 7.06201C25.2345 7.06201 25.3233 7.09992 25.3974 7.17573C25.4715 7.25155 25.5077 7.34219 25.5077 7.44932C25.5077 7.55645 25.4698 7.64875 25.3974 7.72291C25.3233 7.79872 25.2328 7.83663 25.1258 7.83663C25.0189 7.83663 24.9267 7.79872 24.8493 7.72291C24.7736 7.6471 24.7341 7.55645 24.7341 7.44932Z" fill="white"/>
<path d="M28.5985 8.61121H29.1844V10.6516C29.1844 11.0125 29.1647 11.3158 29.1252 11.563C29.0857 11.8102 29.0067 12.008 28.8898 12.1596C28.773 12.3113 28.61 12.42 28.4027 12.4876C28.1953 12.5552 27.9287 12.5898 27.6028 12.5898V11.9833C27.8398 11.9833 28.0258 11.9569 28.1591 11.9058C28.2924 11.8547 28.3928 11.7723 28.4586 11.6586C28.5245 11.5449 28.564 11.3982 28.5771 11.2202C28.5903 11.0405 28.5985 10.8246 28.5985 10.5725V8.61285V8.61121Z" fill="white"/>
<path d="M31.6138 10.7472C31.6138 10.8708 31.5908 10.9533 31.5447 10.9961C31.4986 11.039 31.4246 11.062 31.3225 11.062H31.1349C30.9769 11.062 30.8337 11.0455 30.7053 11.0142C30.5769 10.9829 30.4683 10.9269 30.3778 10.8494C30.2873 10.772 30.2165 10.6681 30.1655 10.5396C30.1145 10.411 30.0881 10.2495 30.0881 10.055V5.84241H30.6856V9.89186C30.6856 10.0962 30.7168 10.2413 30.781 10.327C30.8452 10.4127 30.9851 10.4555 31.2024 10.4555H31.3209C31.5151 10.4555 31.6122 10.5528 31.6122 10.7472H31.6138Z" fill="white"/>
<path d="M31.3257 11.062C31.1315 11.062 31.0344 10.9648 31.0344 10.7703C31.0344 10.6483 31.0575 10.5643 31.1035 10.5214C31.1496 10.4786 31.2237 10.4555 31.3257 10.4555H31.6286C31.6845 10.4555 31.7454 10.4489 31.808 10.4341C31.8722 10.4209 31.9347 10.3879 31.9972 10.3385C32.0598 10.289 32.1223 10.2215 32.1832 10.1358C32.2441 10.0501 32.3017 9.93633 32.356 9.79294C32.4679 9.48145 32.5864 9.22928 32.7099 9.03481C32.8333 8.84197 32.96 8.69364 33.0884 8.58816C33.2168 8.48268 33.3485 8.41346 33.4834 8.37885C33.6167 8.34424 33.75 8.32776 33.8834 8.32776C34.0677 8.32776 34.2372 8.36237 34.3919 8.43324C34.5483 8.50411 34.6832 8.603 34.7984 8.7332C34.9137 8.8634 35.0025 9.01503 35.0684 9.19303C35.1342 9.37102 35.1655 9.57045 35.1655 9.79294C35.1655 10.2099 35.0651 10.5412 34.8626 10.7884C34.6602 11.0356 34.3508 11.1592 33.9327 11.1592C33.7023 11.1592 33.4719 11.1197 33.2382 11.0422C33.0045 10.9648 32.7642 10.8313 32.5157 10.645C32.4515 10.7423 32.3873 10.8181 32.3231 10.8758C32.2573 10.9318 32.1882 10.973 32.1141 11.001C32.04 11.029 31.9643 11.0455 31.8886 11.0521C31.8113 11.0604 31.729 11.0637 31.6401 11.0637H31.3257V11.062ZM34.5614 9.76987C34.5614 9.65945 34.545 9.55397 34.5137 9.45178C34.4824 9.3496 34.4347 9.2606 34.3738 9.18314C34.3129 9.10568 34.2389 9.04469 34.1516 8.9969C34.0644 8.9491 33.9624 8.92603 33.8455 8.92603C33.6381 8.92603 33.4505 9.01668 33.281 9.19797C33.1115 9.37926 32.9518 9.69735 32.8037 10.1489C32.9831 10.2643 33.1608 10.3566 33.3386 10.4291C33.5163 10.5016 33.6974 10.5362 33.885 10.5362C34.0891 10.5362 34.2537 10.4769 34.3771 10.3599C34.5006 10.2429 34.5631 10.0451 34.5631 9.76987H34.5614Z" fill="white"/>
<path d="M36.6682 5.84241V11.062H36.0708V5.84241H36.6682Z" fill="white"/>
<path d="M38.3748 10.3138C38.3748 10.505 38.4045 10.6813 38.4654 10.8395C38.5263 10.9978 38.6283 11.1346 38.7715 11.2483C38.9163 11.362 39.1056 11.451 39.3426 11.5153C39.5779 11.5796 39.8709 11.6109 40.2215 11.6109C40.4749 11.6109 40.7169 11.5927 40.9473 11.5565C41.1777 11.5202 41.3834 11.4675 41.5612 11.3999C41.7389 11.3323 41.8821 11.2466 41.9858 11.1461C42.0911 11.0472 42.1422 10.9335 42.1422 10.8049C42.1422 10.6929 42.1043 10.5989 42.0319 10.5247C41.9578 10.4506 41.8179 10.3632 41.6138 10.2594C41.469 10.1852 41.3324 10.1111 41.2073 10.0353C41.0822 9.95944 40.9753 9.87374 40.8847 9.7765C40.7942 9.67926 40.7235 9.57048 40.6708 9.45017C40.6165 9.32986 40.5901 9.18977 40.5901 9.02825C40.5901 8.84366 40.6231 8.65742 40.6889 8.46624C40.7547 8.27505 40.8551 8.10365 40.9884 7.95037C41.1217 7.7971 41.288 7.67184 41.4904 7.57625C41.6928 7.48066 41.9266 7.43286 42.1948 7.43286C42.3578 7.43286 42.5026 7.45099 42.626 7.4889C42.7495 7.52516 42.8202 7.54988 42.8383 7.55977V8.17287C42.7412 8.14485 42.6359 8.12013 42.5207 8.10035C42.4055 8.08058 42.2936 8.06904 42.1833 8.06904C42.0204 8.06904 41.8772 8.09541 41.7537 8.14485C41.632 8.19594 41.5283 8.26352 41.4476 8.34592C41.3653 8.42833 41.3044 8.52227 41.2649 8.62446C41.2254 8.72664 41.2057 8.82883 41.2057 8.93101C41.2057 9.03319 41.2238 9.1123 41.26 9.18152C41.2962 9.25239 41.3456 9.31667 41.4081 9.37765C41.4707 9.43698 41.5431 9.49137 41.627 9.53917C41.7109 9.58696 41.7998 9.63641 41.8969 9.6908C42.0632 9.78474 42.2014 9.87044 42.315 9.9479C42.4269 10.0254 42.5158 10.0995 42.5816 10.1737C42.6474 10.2479 42.6935 10.322 42.7231 10.3978C42.7528 10.4737 42.7676 10.5544 42.7676 10.6418C42.7676 10.8461 42.7215 11.0439 42.6293 11.2334C42.5372 11.4246 42.389 11.5927 42.1849 11.7394C41.9809 11.8861 41.7159 12.0048 41.3917 12.0938C41.0674 12.1828 40.6774 12.2273 40.2198 12.2273C39.7623 12.2273 39.3772 12.1828 39.0644 12.0938C38.7517 12.0048 38.5016 11.8795 38.3123 11.7213C38.123 11.5631 37.9881 11.3752 37.9041 11.1576C37.8202 10.9401 37.7791 10.7027 37.7791 10.444V9.35458H38.3732V10.3088L38.3748 10.3138ZM39.3294 13.3595C39.3294 13.2524 39.3673 13.1601 39.4446 13.0859C39.522 13.0101 39.6125 12.9722 39.7162 12.9722C39.8199 12.9722 39.9153 13.0101 39.9894 13.0859C40.0651 13.1618 40.103 13.2524 40.103 13.3595C40.103 13.4667 40.0651 13.5557 39.9894 13.6315C39.9137 13.7073 39.8232 13.7468 39.7162 13.7468C39.6092 13.7468 39.5203 13.7089 39.4446 13.6315C39.3689 13.554 39.3294 13.4634 39.3294 13.3595ZM40.2791 13.3595C40.2791 13.2524 40.3169 13.1601 40.3926 13.0859C40.4683 13.0118 40.5589 12.9722 40.6658 12.9722C40.7728 12.9722 40.865 13.0101 40.9423 13.0859C41.0197 13.1618 41.0576 13.2524 41.0576 13.3595C41.0576 13.4667 41.0197 13.5557 40.9423 13.6315C40.865 13.7073 40.7745 13.7468 40.6658 13.7468C40.5572 13.7468 40.4667 13.7089 40.3926 13.6315C40.3169 13.554 40.2791 13.4634 40.2791 13.3595Z" fill="white"/>
<path d="M45.3762 11.062C45.2149 11.062 45.0816 11.0257 44.9747 10.9532C44.8677 10.8807 44.7854 10.795 44.7294 10.6977C44.7294 11.0471 44.708 11.3438 44.6669 11.5861C44.6241 11.8284 44.5467 12.0228 44.4315 12.1712C44.3163 12.3195 44.1567 12.4266 43.9526 12.4909C43.7485 12.5568 43.4835 12.5881 43.156 12.5881V11.9816C43.393 11.9816 43.579 11.9553 43.7123 11.9042C43.8456 11.8531 43.946 11.7707 44.0118 11.6569C44.0777 11.5432 44.1172 11.3965 44.1303 11.2185C44.1435 11.0389 44.1517 10.823 44.1517 10.5708V8.61121H44.7377V9.65117C44.7377 9.89839 44.7837 10.0962 44.8743 10.2396C44.9648 10.3846 45.1327 10.4555 45.3779 10.4555C45.5721 10.4555 45.6692 10.5527 45.6692 10.7472C45.6692 10.8708 45.6462 10.9532 45.6001 10.996C45.554 11.0389 45.4799 11.062 45.3779 11.062H45.3762Z" fill="white"/>
<path d="M45.3812 11.062C45.187 11.062 45.0898 10.9647 45.0898 10.7703C45.0898 10.6483 45.1129 10.5642 45.159 10.5214C45.2051 10.4785 45.2791 10.4555 45.3812 10.4555H47.0204C47.2854 10.4555 47.4779 10.4126 47.5948 10.3269C47.7117 10.2412 47.7709 10.1275 47.7709 9.98739C47.7709 9.85719 47.7166 9.70886 47.6096 9.54404C47.5026 9.37923 47.3529 9.21112 47.1636 9.04137C46.9727 8.87161 46.7505 8.70515 46.4954 8.54528C46.2403 8.38376 45.9638 8.23873 45.6675 8.10853C45.6725 8.04919 45.684 7.98821 45.7004 7.92558C45.7169 7.86295 45.7367 7.80527 45.7581 7.75088C45.7794 7.69649 45.8008 7.65199 45.8239 7.61409C45.8469 7.57618 45.8683 7.55311 45.8914 7.54322L48.6251 6.36646V6.97297L46.4773 7.92394C46.9924 8.18269 47.4022 8.46123 47.7067 8.76118C48.0112 9.06114 48.2136 9.35945 48.3157 9.65612C48.3766 9.82423 48.4342 9.96102 48.4885 10.0632C48.5428 10.1654 48.5971 10.2461 48.6547 10.3071C48.7123 10.3681 48.7765 10.4077 48.8506 10.4258C48.9246 10.4439 49.0053 10.4538 49.0974 10.4538C49.2933 10.4538 49.3921 10.5511 49.3921 10.7455C49.3921 10.8691 49.369 10.9515 49.3213 10.9944C49.2736 11.0372 49.1995 11.0603 49.0974 11.0603C48.9954 11.0603 48.9082 11.0554 48.821 11.0438C48.7337 11.0323 48.6531 11.0076 48.5774 10.9664C48.5017 10.9268 48.4325 10.8691 48.3683 10.7933C48.3042 10.7175 48.2433 10.617 48.184 10.4884H48.1577C48.0639 10.7192 47.9075 10.8708 47.6886 10.9466C47.4697 11.0224 47.2031 11.0603 46.8854 11.0603H45.3812V11.062Z" fill="white"/>
<path d="M49.1023 11.062C48.9081 11.062 48.811 10.9648 48.811 10.7703C48.811 10.6483 48.8341 10.5643 48.8802 10.5214C48.9262 10.4786 49.0003 10.4555 49.1023 10.4555H49.6883C49.7755 10.4555 49.8528 10.4506 49.922 10.4407C49.9911 10.4308 50.0487 10.4061 50.0948 10.3698C50.1409 10.3336 50.1771 10.2792 50.2018 10.2099C50.2281 10.1407 50.2396 10.0451 50.2396 9.92152V5.84241H50.8403V9.65123C50.8403 9.89845 50.8897 10.0962 50.9901 10.2396C51.0889 10.3846 51.2485 10.4555 51.4691 10.4555C51.6633 10.4555 51.7604 10.5528 51.7604 10.7472C51.7604 10.8708 51.7373 10.9533 51.6912 10.9961C51.6452 11.039 51.5711 11.062 51.4691 11.062C51.2798 11.062 51.1284 11.0159 51.0132 10.9252C50.898 10.8346 50.8222 10.7209 50.7827 10.5857C50.6939 10.7851 50.5523 10.9137 50.3614 10.973C50.1705 11.0324 49.922 11.062 49.6191 11.062H49.1023Z" fill="white"/>
<path d="M51.7308 10.4555C51.8921 10.4555 52.0271 10.4506 52.139 10.4407C52.2492 10.4308 52.3381 10.4061 52.4056 10.3698C52.4714 10.3335 52.5192 10.2792 52.5488 10.2099C52.5784 10.1407 52.5932 10.0451 52.5932 9.92151V8.6096H53.1907V9.64957C53.1907 9.77153 53.1972 9.8836 53.212 9.98249C53.2252 10.0814 53.2598 10.1654 53.3157 10.233C53.37 10.3006 53.4474 10.355 53.5478 10.3945C53.6466 10.4341 53.7815 10.4539 53.9494 10.4539C54.0564 10.4539 54.1502 10.4489 54.2292 10.439C54.3082 10.4291 54.374 10.4044 54.4283 10.3681C54.4826 10.3319 54.5221 10.2775 54.5468 10.2083C54.5715 10.1391 54.5847 10.0435 54.5847 9.91986V8.60795H55.1821V9.64792C55.1821 9.76988 55.1903 9.88195 55.2084 9.98084C55.2266 10.0797 55.2611 10.1638 55.3121 10.2314C55.3632 10.2989 55.4339 10.3533 55.5228 10.3929C55.6117 10.4324 55.7302 10.4522 55.8783 10.4522C55.9622 10.4522 56.0379 10.4473 56.1054 10.4374C56.1729 10.4275 56.2305 10.4028 56.2799 10.3665C56.3276 10.3302 56.3655 10.2759 56.3934 10.2066C56.4198 10.1374 56.4329 10.0418 56.4329 9.91821V8.24207H57.0304V9.64627C57.0304 9.76823 57.0386 9.8803 57.0567 9.97919C57.0748 10.0781 57.1077 10.1621 57.1555 10.2297C57.2032 10.2973 57.269 10.3517 57.3513 10.3912C57.4336 10.4308 57.5373 10.4506 57.6657 10.4506C57.8615 10.4506 57.9603 10.5478 57.9603 10.7423C57.9603 10.8659 57.9372 10.9483 57.8895 10.9911C57.8418 11.034 57.7677 11.0571 57.6657 11.0571C57.4764 11.0571 57.3233 11.0109 57.2065 10.9203C57.0896 10.8296 57.0106 10.7159 56.9728 10.5808C56.93 10.6829 56.8691 10.7653 56.7901 10.8263C56.7127 10.8873 56.6288 10.9351 56.5416 10.9697C56.4527 11.0043 56.3688 11.0274 56.2848 11.0389C56.2025 11.0505 56.1318 11.0554 56.0725 11.0554C55.9145 11.0554 55.7796 11.0406 55.6676 11.0109C55.5574 10.9813 55.4652 10.9433 55.3928 10.8972C55.3204 10.8511 55.2628 10.8 55.2216 10.7439C55.1805 10.6879 55.1492 10.6335 55.1262 10.5791C55.0373 10.7785 54.9007 10.9071 54.718 10.9664C54.5353 11.0258 54.318 11.0554 54.0646 11.0554C53.8934 11.0554 53.7519 11.0422 53.6383 11.0159C53.5248 10.9895 53.4309 10.9532 53.3585 10.9071C53.2861 10.8609 53.2269 10.8082 53.1824 10.7505C53.138 10.6912 53.1001 10.6335 53.0689 10.5742C53.0277 10.6763 52.975 10.7588 52.9076 10.8197C52.8401 10.8807 52.7562 10.9302 52.6525 10.9681C52.5488 11.006 52.4204 11.029 52.2657 11.0406C52.111 11.0521 51.9283 11.0571 51.716 11.0571H51.4708C51.2766 11.0571 51.1794 10.9598 51.1794 10.7653C51.1794 10.6434 51.2025 10.5593 51.2486 10.5165C51.2947 10.4736 51.3687 10.4506 51.4708 10.4506H51.7275L51.7308 10.4555Z" fill="white"/>
<path d="M57.6739 11.0621C57.4797 11.0621 57.3826 10.9648 57.3826 10.7703C57.3826 10.6484 57.4056 10.5643 57.4517 10.5215C57.4978 10.4786 57.5718 10.4556 57.6739 10.4556H58.8112V8.24706H59.4119V11.0621H57.6739ZM58.7042 7.01591C58.7042 6.90878 58.742 6.81814 58.8177 6.74397C58.8934 6.6698 58.984 6.63354 59.0909 6.63354C59.1979 6.63354 59.2901 6.67145 59.3642 6.74397C59.4399 6.81814 59.4777 6.90878 59.4777 7.01591C59.4777 7.12304 59.4399 7.21863 59.3642 7.29444C59.2884 7.37026 59.1979 7.40816 59.0909 7.40816C58.984 7.40816 58.8918 7.37026 58.8177 7.29444C58.7437 7.21863 58.7042 7.12633 58.7042 7.01591Z" fill="white"/>
<path d="M62.9207 11.062C62.901 11.3587 62.8384 11.6042 62.7331 11.8004C62.6277 11.9965 62.4862 12.1514 62.3085 12.2684C62.1307 12.3855 61.9151 12.4679 61.6633 12.5157C61.4115 12.5635 61.1333 12.5882 60.8272 12.5882H60.5211V11.9817H60.7466C60.9737 11.9817 61.1827 11.9701 61.372 11.9487C61.5629 11.9273 61.7275 11.8828 61.8657 11.8169C62.004 11.7509 62.1142 11.657 62.1932 11.535C62.2722 11.4131 62.3167 11.2548 62.3233 11.062H61.4954C61.2963 11.062 61.1136 11.0406 60.9457 10.9961C60.7778 10.9532 60.633 10.8807 60.5079 10.7802C60.3828 10.6796 60.2857 10.5494 60.2149 10.3896C60.1442 10.2297 60.1096 10.0319 60.1096 9.79296C60.1096 9.59189 60.1425 9.39411 60.2067 9.20458C60.2726 9.01339 60.3664 8.84528 60.4915 8.70025C60.6165 8.55521 60.768 8.43655 60.9457 8.3459C61.1235 8.25525 61.3275 8.20911 61.5563 8.20911C61.8098 8.20911 62.0221 8.25525 62.1965 8.3459C62.3693 8.43655 62.5125 8.5651 62.6228 8.72991C62.7331 8.89473 62.8137 9.09415 62.8615 9.32983C62.9092 9.56552 62.9339 9.82592 62.9339 10.1127V10.4572H63.4424C63.6383 10.4572 63.737 10.5544 63.737 10.7489C63.737 10.8725 63.714 10.9549 63.6663 10.9977C63.6185 11.0406 63.5445 11.0637 63.4424 11.0637H62.9174L62.9207 11.062ZM60.6955 9.73033C60.6955 9.98084 60.7663 10.1638 60.9095 10.2808C61.0527 10.3978 61.2617 10.4555 61.5382 10.4555H62.3233V9.9726C62.3233 9.61166 62.2624 9.32489 62.1389 9.10898C62.0155 8.89473 61.8065 8.78595 61.5102 8.78595C61.3703 8.78595 61.2485 8.81397 61.1465 8.87001C61.0445 8.92604 60.9605 9.00021 60.8963 9.09085C60.8321 9.1815 60.7811 9.28204 60.7466 9.39411C60.712 9.50453 60.6955 9.61661 60.6955 9.73033Z" fill="white"/>
<path d="M63.4524 11.0621C63.2582 11.0621 63.1611 10.9648 63.1611 10.7703C63.1611 10.6484 63.1842 10.5643 63.2303 10.5215C63.2763 10.4786 63.3504 10.4556 63.4524 10.4556H64.2836C64.2326 10.3534 64.1881 10.2396 64.147 10.116C64.1075 9.99243 64.0877 9.84904 64.0877 9.68917C64.0877 9.49799 64.119 9.30846 64.1815 9.12387C64.2441 8.93928 64.3363 8.77446 64.4597 8.63108C64.5815 8.48769 64.7329 8.37067 64.909 8.28002C65.0851 8.18938 65.2925 8.14323 65.5278 8.14323C65.7928 8.14323 66.0117 8.19267 66.1829 8.29156C66.354 8.39045 66.4907 8.51406 66.591 8.66569C66.6914 8.81731 66.7606 8.98213 66.7984 9.16342C66.8363 9.34471 66.8544 9.52436 66.8544 9.70071V11.0621H63.4541H63.4524ZM64.5831 7.01591C64.5831 6.90878 64.621 6.81814 64.6983 6.74397C64.774 6.6698 64.8662 6.63354 64.9732 6.63354C65.0802 6.63354 65.1707 6.67145 65.2448 6.74397C65.3188 6.81814 65.355 6.90878 65.355 7.01591C65.355 7.12304 65.3188 7.21863 65.2448 7.29444C65.1707 7.37026 65.0802 7.40816 64.9732 7.40816C64.8662 7.40816 64.774 7.37026 64.6983 7.29444C64.621 7.21863 64.5831 7.12633 64.5831 7.01591ZM64.6588 9.58864C64.6588 9.8886 64.7461 10.1078 64.9205 10.2462C65.095 10.3847 65.3089 10.4556 65.5624 10.4556H66.2635V9.72378C66.2635 9.60677 66.252 9.4881 66.2306 9.36944C66.2092 9.25077 66.1697 9.14364 66.1121 9.0497C66.0545 8.95576 65.9739 8.87665 65.8702 8.81567C65.7665 8.75469 65.6365 8.72337 65.4818 8.72337C65.2234 8.72337 65.0226 8.80907 64.8761 8.97883C64.7313 9.14859 64.6572 9.35295 64.6572 9.59029L64.6588 9.58864ZM65.5361 7.01591C65.5361 6.90878 65.5739 6.81814 65.6496 6.74397C65.7253 6.6698 65.8159 6.63354 65.9228 6.63354C66.0298 6.63354 66.1187 6.67145 66.1944 6.74397C66.2701 6.81814 66.3096 6.90878 66.3096 7.01591C66.3096 7.12304 66.2718 7.21863 66.1944 7.29444C66.117 7.37026 66.0265 7.40816 65.9228 7.40816C65.8192 7.40816 65.7237 7.37026 65.6496 7.29444C65.5739 7.21863 65.5361 7.12633 65.5361 7.01591Z" fill="white"/>
<path d="M48.4671 7.40816C48.347 7.29114 48.2038 7.23181 48.0359 7.23181C47.868 7.23181 47.7265 7.29114 47.608 7.40816C47.4895 7.52683 47.4319 7.66857 47.4319 7.83667C47.4319 8.00478 47.4911 8.14158 47.608 8.26189C47.7248 8.3822 47.868 8.44154 48.0359 8.44154C48.2038 8.44154 48.347 8.3822 48.4671 8.26189C48.5873 8.14158 48.6465 7.99984 48.6465 7.83667C48.6465 7.67351 48.5873 7.52683 48.4671 7.40816ZM48.2482 8.04269C48.1906 8.10037 48.1198 8.13004 48.0392 8.13004C47.9586 8.13004 47.8878 8.10037 47.8318 8.04269C47.7742 7.98501 47.7462 7.91578 47.7462 7.83503C47.7462 7.75427 47.7742 7.6834 47.8318 7.62736C47.8894 7.56968 47.9586 7.54166 48.0392 7.54166C48.1198 7.54166 48.1906 7.56968 48.2482 7.62736C48.3058 7.68505 48.3354 7.75427 48.3354 7.83503C48.3354 7.91578 48.3058 7.98336 48.2482 8.04269Z" fill="white"/>
</g>
<path d="M23.6084 27.9928C23.061 27.9928 22.6614 27.8823 22.4095 27.6614C22.1773 27.456 22.0612 27.1443 22.0612 26.7263C22.0612 26.4688 22.1027 26.2352 22.1857 26.0256L22.6965 25.939C22.5896 26.1628 22.5361 26.4062 22.5361 26.6694C22.5361 27 22.6163 27.2371 22.7767 27.3807C22.9498 27.5383 23.2446 27.6171 23.6612 27.6171H23.9989V25.9918C24.2578 25.9369 24.5315 25.9095 24.82 25.9095C25.1732 25.9095 25.4286 25.9939 25.5862 26.1628C25.7297 26.3147 25.8015 26.5469 25.8015 26.8593V27.6171H26.2025V27.9928H25.3371V26.9163C25.3371 26.6869 25.2956 26.5244 25.2126 26.4287C25.1281 26.333 24.9853 26.2852 24.7841 26.2852C24.6743 26.2852 24.5653 26.295 24.4569 26.3147V27.9928H23.6084ZM26.1392 27.6171H26.7576V25.9601H27.2325V27.9928H26.1392V27.6171ZM26.6922 28.9046C26.619 28.9046 26.5571 28.8793 26.5065 28.8287C26.4544 28.7766 26.4284 28.714 26.4284 28.6408C26.4284 28.5676 26.4544 28.5057 26.5065 28.4551C26.5571 28.403 26.619 28.377 26.6922 28.377C26.7654 28.377 26.828 28.403 26.8801 28.4551C26.9307 28.5057 26.956 28.5676 26.956 28.6408C26.956 28.714 26.9307 28.7766 26.8801 28.8287C26.828 28.8793 26.7654 28.9046 26.6922 28.9046ZM27.9903 29.0988C27.844 29.0988 27.7054 29.0805 27.5745 29.044L27.623 28.6619C27.7441 28.7027 27.8749 28.7231 28.0156 28.7231C28.1915 28.7231 28.321 28.6753 28.404 28.5796C28.4969 28.4726 28.5433 28.2946 28.5433 28.0456V25.9601H29.0182V27.6171H29.4721V27.9928H29.0182V28.0139C29.0182 28.7372 28.6756 29.0988 27.9903 29.0988ZM29.4066 27.6171H30.1623C29.8921 27.4834 29.757 27.247 29.757 26.9079C29.757 26.6222 29.8471 26.3886 30.0272 26.2071C30.2256 26.0087 30.5 25.9095 30.8504 25.9095C31.0516 25.9095 31.2359 25.9397 31.4034 26.0002L31.3169 26.3802C31.1705 26.314 31.0094 26.281 30.8335 26.281C30.6534 26.281 30.5091 26.3359 30.4008 26.4456C30.2882 26.5568 30.2319 26.7066 30.2319 26.8952C30.2319 27.1119 30.3178 27.2836 30.4894 27.4102C30.6752 27.5481 30.9482 27.6171 31.3084 27.6171H31.6546V27.9928H29.4066V27.6171ZM34.006 27.9928C33.2419 27.9928 32.8598 27.6586 32.8598 26.9902C32.8598 26.682 32.952 26.4287 33.1363 26.2303C33.3361 26.0164 33.6098 25.9095 33.9574 25.9095C34.592 25.9095 34.9094 26.2352 34.9094 26.8868V27.9928H34.006ZM34.4471 26.9606C34.4471 26.5103 34.2726 26.2852 33.9236 26.2852C33.7421 26.2852 33.5979 26.3464 33.4909 26.4688C33.3868 26.587 33.3347 26.7446 33.3347 26.9416C33.3347 27.3919 33.5768 27.6171 34.0608 27.6171H34.4471V26.9606ZM35.456 27.6171H36.7964C36.7879 27.2526 36.7007 26.9628 36.5346 26.7475C36.3644 26.5279 36.0984 26.3668 35.7368 26.2641L35.8571 25.8652C36.3186 25.9988 36.6606 26.1994 36.8829 26.4667C37.1165 26.7482 37.2417 27.1316 37.2586 27.6171H37.5752V27.9928H35.456V27.6171ZM37.5119 27.6171H39.2448C39.2631 27.4876 39.2723 27.3561 39.2723 27.2224C39.2723 26.9114 39.2061 26.6848 39.0739 26.5427C38.9318 26.3907 38.6982 26.3147 38.3731 26.3147C38.1888 26.3147 38.0255 26.3267 37.8834 26.3506V25.9791C38.0649 25.9524 38.2422 25.939 38.4153 25.939C38.8839 25.939 39.2251 26.0453 39.439 26.2578C39.6417 26.4604 39.743 26.7735 39.743 27.197C39.743 27.3476 39.7359 27.4876 39.7219 27.6171H40.0934V27.9928H37.5119V27.6171ZM40.0279 27.6171H40.6464V25.9601H41.1213V27.6171H41.5413V27.9928H40.0279V27.6171ZM41.1466 25.5929C41.0763 25.5929 41.0165 25.5682 40.9672 25.519C40.918 25.4697 40.8933 25.4078 40.8933 25.3332C40.8933 25.2629 40.918 25.2024 40.9672 25.1517C41.0165 25.1011 41.0763 25.0757 41.1466 25.0757C41.2184 25.0757 41.2789 25.1011 41.3282 25.1517C41.3774 25.2024 41.402 25.2629 41.402 25.3332C41.402 25.405 41.3774 25.4662 41.3282 25.5169C41.2789 25.5675 41.2184 25.5929 41.1466 25.5929ZM40.4733 25.5929C40.4029 25.5929 40.3438 25.5682 40.296 25.519C40.2467 25.4683 40.2221 25.4064 40.2221 25.3332C40.2221 25.2629 40.2467 25.2024 40.296 25.1517C40.3453 25.1011 40.4044 25.0757 40.4733 25.0757C40.5465 25.0757 40.607 25.1011 40.6548 25.1517C40.7041 25.201 40.7287 25.2615 40.7287 25.3332C40.7287 25.4064 40.7041 25.4676 40.6548 25.5169C40.607 25.5675 40.5465 25.5929 40.4733 25.5929ZM41.4759 27.9928V27.6171H41.7735C41.8748 27.6171 41.9572 27.6255 42.0205 27.6424C41.8305 27.5144 41.7355 27.2885 41.7355 26.9649C41.7355 26.6679 41.8277 26.4224 42.012 26.2282C42.2133 26.0157 42.487 25.9095 42.8331 25.9095C43.4678 25.9095 43.7851 26.2352 43.7851 26.8868V27.9928H41.4759ZM43.3207 26.9606C43.3207 26.5103 43.1469 26.2852 42.7994 26.2852C42.6178 26.2852 42.4736 26.3464 42.3666 26.4688C42.2625 26.587 42.2105 26.7446 42.2105 26.9416C42.2105 27.3919 42.4525 27.6171 42.9366 27.6171H43.3207V26.9606ZM46.7591 27.9928C46.2117 27.9928 45.8121 27.8823 45.5602 27.6614C45.328 27.456 45.2119 27.1443 45.2119 26.7263C45.2119 26.4688 45.2535 26.2352 45.3365 26.0256L45.8473 25.939C45.7403 26.1628 45.6869 26.4062 45.6869 26.6694C45.6869 27 45.7671 27.2371 45.9275 27.3807C46.1006 27.5383 46.3954 27.6171 46.8119 27.6171H47.481V25.9601H47.9559V27.9928H46.7591ZM47.0356 25.5929C46.9639 25.5929 46.9034 25.5682 46.8541 25.519C46.8049 25.4697 46.7802 25.4078 46.7802 25.3332C46.7802 25.2629 46.8049 25.2024 46.8541 25.1517C46.9048 25.1011 46.9653 25.0757 47.0356 25.0757C47.1074 25.0757 47.1679 25.1011 47.2172 25.1517C47.2664 25.2024 47.291 25.2629 47.291 25.3332C47.291 25.405 47.2664 25.4662 47.2172 25.5169C47.1679 25.5675 47.1074 25.5929 47.0356 25.5929ZM46.3623 25.5929C46.2919 25.5929 46.2328 25.5682 46.185 25.519C46.1358 25.4683 46.1111 25.4064 46.1111 25.3332C46.1111 25.2629 46.1358 25.2024 46.185 25.1517C46.2343 25.1011 46.2934 25.0757 46.3623 25.0757C46.4341 25.0757 46.4946 25.1011 46.5438 25.1517C46.5931 25.201 46.6177 25.2615 46.6177 25.3332C46.6177 25.4064 46.5931 25.4676 46.5438 25.5169C46.4946 25.5675 46.4341 25.5929 46.3623 25.5929ZM48.6989 24.9449H49.1738V27.9928H48.6989V24.9449ZM49.7395 29.0988C49.5932 29.0988 49.4546 29.0805 49.3237 29.044L49.3722 28.6619C49.4933 28.7027 49.6241 28.7231 49.7648 28.7231C49.9407 28.7231 50.0702 28.6753 50.1532 28.5796C50.2461 28.4726 50.2925 28.2946 50.2925 28.0456V25.9601H50.7674V28.0139C50.7674 28.7372 50.4248 29.0988 49.7395 29.0988ZM51.5104 24.9449H51.9854V27.6171H52.4434V27.9928H51.5104V24.9449ZM52.3801 27.9928V27.6171H52.6777C52.779 27.6171 52.8613 27.6255 52.9246 27.6424C52.7347 27.5144 52.6397 27.2885 52.6397 26.9649C52.6397 26.6679 52.7319 26.4224 52.9162 26.2282C53.1174 26.0157 53.3911 25.9095 53.7373 25.9095C54.3719 25.9095 54.6892 26.2352 54.6892 26.8868V27.9928H52.3801ZM54.2249 26.9606C54.2249 26.5103 54.0511 26.2852 53.7035 26.2852C53.522 26.2852 53.3777 26.3464 53.2708 26.4688C53.1667 26.587 53.1146 26.7446 53.1146 26.9416C53.1146 27.3919 53.3566 27.6171 53.8407 27.6171H54.2249V26.9606ZM55.4153 24.9449H55.8902V27.9928H55.4153V24.9449ZM57.6527 28.035C57.5627 28.035 57.4888 28.0005 57.4311 27.9316C57.3734 27.8584 57.346 27.7641 57.3488 27.6487C57.3558 27.3645 57.5268 27.0725 57.8617 26.7728L58.0559 26.9459C57.804 27.216 57.7421 27.4292 57.8701 27.5854C57.9433 27.6741 57.956 27.7712 57.9081 27.8767C57.8617 27.9822 57.7766 28.035 57.6527 28.035ZM59.964 27.9928C59.4166 27.9928 59.017 27.8823 58.7651 27.6614C58.5329 27.456 58.4168 27.1443 58.4168 26.7263C58.4168 26.4688 58.4583 26.2352 58.5414 26.0256L59.0522 25.939C58.9452 26.1628 58.8917 26.4062 58.8917 26.6694C58.8917 27 58.9719 27.2371 59.1324 27.3807C59.3054 27.5383 59.6002 27.6171 60.0168 27.6171H60.3545V25.9918C60.6134 25.9369 60.8871 25.9095 61.1756 25.9095C61.5288 25.9095 61.7842 25.9939 61.9418 26.1628C62.0853 26.3147 62.1571 26.5469 62.1571 26.8593V27.6171H62.5581V27.9928H61.6927V26.9163C61.6927 26.6869 61.6512 26.5244 61.5682 26.4287C61.4837 26.333 61.3409 26.2852 61.1397 26.2852C61.0299 26.2852 60.9209 26.295 60.8125 26.3147V27.9928H59.964ZM62.4948 27.6171H63.1132V25.9601H63.5882V27.9928H62.4948V27.6171ZM63.0478 28.9046C62.9746 28.9046 62.9127 28.8793 62.8621 28.8287C62.81 28.7766 62.784 28.714 62.784 28.6408C62.784 28.5676 62.81 28.5057 62.8621 28.4551C62.9127 28.403 62.9746 28.377 63.0478 28.377C63.121 28.377 63.1836 28.403 63.2357 28.4551C63.2863 28.5057 63.3117 28.5676 63.3117 28.6408C63.3117 28.714 63.2863 28.7766 63.2357 28.8287C63.1836 28.8793 63.121 28.9046 63.0478 28.9046ZM64.1538 27.6171H65.4942C65.4857 27.2526 65.3985 26.9628 65.2324 26.7475C65.0622 26.5279 64.7962 26.3668 64.4346 26.2641L64.5549 25.8652C65.0361 26.0031 65.3879 26.2148 65.6103 26.5005C65.8439 26.803 65.9606 27.2182 65.9606 27.7458V27.9928H64.1538V27.6171Z" fill="#C59714"/>
<g clip-path="url(#clip1_725_6731)">
<rect x="71.1262" y="1.08972" width="35.0544" height="34.7003" rx="17.3502" fill="#5064BA"/>
<g clip-path="url(#clip2_725_6731)">
<path d="M104.342 20.2019C103.458 19.7068 102.788 21.7048 101.33 20.7091C99.3888 19.2663 102.415 17.4363 104.256 18.8006C104.956 19.2654 105.54 19.8892 105.392 21.5172C105.133 22.3991 104.76 23.1896 104.264 23.8816C105.124 20.9844 105.041 19.6615 104.287 18.921C104.255 18.8898 104.217 18.8646 104.176 18.8468C102.634 18.1758 100.762 19.3279 101.365 20.5943C102.264 20.8369 102.757 19.8659 103.453 19.7441C103.579 19.7222 103.708 19.7534 103.812 19.8272L104.342 20.2014V20.2019Z" fill="white"/>
<path d="M103.874 23.9916L103.356 23.6006C103.301 23.5595 103.234 23.5371 103.165 23.5427C102.62 23.5884 102.72 24.9001 101.802 24.747C102.502 24.3588 103.133 24.182 103.605 24.4857C103.94 24.8394 103.73 25.3681 103.444 25.8063C103.074 26.3751 102.48 26.76 101.802 26.082C101.696 26.089 100.858 25.313 100.459 25.8702C100.044 26.4497 100.876 27.0708 100.876 27.0708C101.206 27.3615 101.503 27.4879 101.724 27.2546C101.828 27.9013 101.685 28.7426 100.728 28.2434C97.9409 26.1968 95.389 30.8933 92.6228 28.6582C95.2284 31.6618 97.9413 27.3302 100.368 28.2224L101.038 28.5607C102.733 29.4416 102.263 27.459 102.004 26.3853L101.925 25.6765L101.432 25.3004C101.421 25.2925 101.406 25.3014 101.409 25.3144C101.538 26.0685 101.56 26.9131 100.944 26.9709C100.783 26.3363 101.122 25.7031 101.941 26.3219L102.456 26.649C103.17 27.025 103.677 26.649 103.991 26.124C104.292 25.6201 104.422 24.9799 104.039 24.7372L103.596 24.3836C102.817 23.7242 102.013 23.8717 101.197 24.4377L101.694 24.8632C103.349 25.8753 103.011 23.7051 103.874 23.9911V23.9916Z" fill="white"/>
<path d="M97.5315 24.8456C99.6696 25.7657 102.356 19.7502 104.55 22.4733C102.359 20.7231 99.4645 27.1917 97.5315 24.8456Z" fill="white"/>
<path d="M100.255 24.7354L100.854 24.4312L101.24 24.9589L100.651 25.2328L100.255 24.7354Z" fill="white"/>
<path d="M99.4836 25.7904L99.91 26.3387L99.2501 26.663L98.8438 26.1763L99.4836 25.7904Z" fill="white"/>
<path d="M100.673 27.5565L100.389 27.0666C100.375 27.0428 100.346 27.0335 100.321 27.0433C99.747 27.2672 99.8768 28.5966 99.8091 29.5564C99.755 30.3296 99.4841 30.9763 98.7929 30.3861C98.0727 29.2265 97.4693 29.8737 96.5385 29.4935L96.8542 29.9941C96.8748 30.0268 96.9047 30.052 96.9397 30.0683C97.6832 30.4066 98.1769 29.8765 98.7317 30.4981L98.9652 30.9749C98.2698 30.8616 97.6972 30.9759 97.0765 30.2951C97.502 31.3044 98.1437 31.3571 98.331 31.6646C97.5305 31.8078 97.1209 31.5993 96.8122 31.2992L96.4862 30.8765C96.4545 30.8354 96.3942 30.834 96.3592 30.8723C96.1089 31.1457 96.2952 31.9371 96.1817 32.5488C96.0892 33.0481 95.6208 33.343 95.0557 32.5572C95.1323 32.4392 95.2075 32.3678 95.2817 32.3332C95.3135 32.3188 95.3289 32.2824 95.3172 32.2493L95.1309 31.7159C95.1234 31.694 95.0977 31.6837 95.0777 31.6954C94.7078 31.9138 94.5536 32.4471 94.4827 33.0999C94.4252 33.6309 93.8807 34.007 93.5626 33.5306C91.9672 29.3059 88.5023 33.1125 86.2415 29.2998C87.87 33.4881 91.4147 30.4551 93.1969 33.084L93.593 33.8143C94.0212 34.7162 94.5284 34.4013 94.6858 33.7653C94.7886 33.3519 94.811 32.945 95.0277 32.6002L95.4914 33.2016C95.5834 33.3211 95.6993 33.4219 95.8347 33.4881C96.3648 33.7466 96.5726 33.2114 96.5806 32.7098C96.5871 32.3015 96.4428 31.6002 96.7786 31.3744C97.3656 32.3039 97.8569 32.343 98.741 32.2152C98.7686 32.211 98.7873 32.1835 98.7784 32.1569C98.7172 31.9721 98.5056 31.6809 98.3156 31.4047L99.2319 31.5171C99.2618 31.5209 99.2865 31.4947 99.2814 31.4654C99.2538 31.3044 99.1123 31.0337 98.9825 30.7743C99.5607 31.4607 100.119 31.0925 100.157 30.1658C100.199 29.1584 100.123 27.9359 100.652 27.6307C100.678 27.6158 100.687 27.5822 100.672 27.5561L100.673 27.5565Z" fill="white"/>
<path d="M89.2439 32.0813C89.7147 34.4843 91.7378 33.545 93.386 34.2949C92.536 33.1148 91.2278 33.658 91.07 32.155C91.4156 32.9212 93.2337 32.8125 93.4724 34.328L93.5873 34.8959C91.9195 34.2375 89.4839 35.1399 89.2444 32.0808L89.2439 32.0813Z" fill="white"/>
<path d="M90.4657 33.2688L90.8015 32.7186L90.2574 32.2091L89.9421 32.7723L90.4657 33.2688Z" fill="white"/>
<path d="M93.9432 31.1224L93.8494 31.7463L94.5004 32.0211L94.6078 31.3837L93.9432 31.1224Z" fill="white"/>
<path d="M93.3188 30.814L93.9839 31.0553L94.0778 30.4221L93.4263 30.1766L93.3188 30.814Z" fill="white"/>
<path d="M89.3065 35.3406C91.12 32.4742 83.6648 31.6838 84.6371 28.5621C82.698 31.9511 90.1201 32.9413 89.3065 35.3406Z" fill="white"/>
<path d="M87.5561 33.2688L87.3786 33.7261C87.3623 33.7681 87.3716 33.8157 87.4025 33.8479C87.6887 34.147 87.9209 34.4811 87.877 34.9911C87.4085 34.587 86.7874 34.3607 86.9723 33.1979C86.516 34.2501 86.8976 34.3896 86.7243 34.9911C86.3997 34.6962 86.021 34.532 86.0093 33.4895L86.1732 33.1517C86.2153 33.0645 86.1644 32.9571 86.0691 32.9427C85.7571 32.8941 85.4405 33.2068 85.0365 33.4872C84.5452 33.8288 84.0277 33.7611 84.0837 32.8778C84.6591 29.2784 81.4534 29.7221 81.6762 26.9015C80.4708 29.1491 83.3314 29.8649 83.265 32.0827C83.0539 32.4555 82.6402 32.8321 82.1493 33.2105L81.7309 33.4895C81.6954 33.5133 81.6687 33.5479 81.6552 33.5885L81.495 34.0597C81.4866 34.0845 81.5165 34.1036 81.5356 34.0859C82.196 33.4797 83.0764 33.4634 83.1698 34.4974C83.1716 34.518 83.1997 34.5226 83.2085 34.504C84.8394 31.0244 79.6017 30.702 81.3045 26.6458C79.4008 30.577 82.9213 31.4355 83.2165 33.3136C83.0964 33.1363 82.9535 33.0416 82.7751 33.0757C83.3444 32.4621 83.5485 31.6772 83.4551 30.9334C83.8694 31.4892 83.9787 32.295 83.8502 33.2973C83.762 34.2702 84.2678 34.4172 84.7493 34.1111C85.1719 33.8428 85.6063 33.407 85.9126 33.6323C85.5157 34.9986 86.1947 35.3019 86.4829 35.538C86.5123 35.5622 86.5567 35.551 86.5711 35.5156L86.8598 34.8115C87.0882 35.1628 87.3445 35.3924 87.6178 35.5492C87.6579 35.572 87.7088 35.5562 87.7275 35.5142L87.9423 35.0336C88.3323 33.9366 87.9227 33.6239 87.5556 33.2702L87.5561 33.2688Z" fill="white"/>
<path d="M81.5535 31.6222C81.6245 32.1354 81.9486 32.3477 82.4231 32.3818C82.4507 32.3837 82.46 32.4191 82.4371 32.4345L81.9799 32.7411C81.9458 32.764 81.9066 32.778 81.8655 32.7808C79.8442 32.9319 79.1787 31.771 80.5176 30.9134C79.5766 30.5303 79.047 29.9424 77.8089 30.0935C77.4296 31.3459 79.5742 32.5741 81.2527 33.4951C81.285 33.5129 81.2649 33.5619 81.2294 33.5521C79.1235 32.9702 76.9346 31.8065 77.3348 30.3964C77.3502 30.3418 77.3839 30.2937 77.4296 30.2601L77.7734 30.0096C77.8406 29.9606 77.913 29.9176 77.9891 29.8836C79.4495 29.2317 80.3439 30.4808 81.0949 30.5084C81.115 30.5093 81.1234 30.534 81.1075 30.5466L80.7652 30.8257C80.64 30.9278 80.5321 31.051 80.4565 31.1938C80.1454 31.7785 80.5779 32.1457 81.0996 32.2908C81.0314 32.2045 81.0089 32.1 81.0248 31.9815C81.0267 31.9684 81.0342 31.9567 81.0454 31.9493L81.5535 31.6222Z" fill="white"/>
<path d="M76.7163 28.3829L76.2595 28.5481C76.2347 28.557 76.2184 28.5812 76.2193 28.6073C76.2235 28.7053 76.2684 28.7749 76.3221 28.8379C75.6183 28.2383 75.3824 27.6998 75.8579 27.2537C78.0636 25.8301 74.9471 22.3011 78.0328 19.6661C74.2569 21.5088 77.0843 25.5482 75.7532 27.0045L75.2451 27.4861C74.4913 28.4254 75.8121 28.975 76.677 29.6101C76.7022 29.6288 76.7349 29.6325 76.7639 29.6208L77.2519 29.4188C77.2837 29.4057 77.287 29.3623 77.258 29.3441C76.904 29.1234 76.7503 28.7996 76.7415 28.4006C76.7415 28.3876 76.7284 28.3787 76.7163 28.3834V28.3829Z" fill="white"/>
<path d="M76.6211 30.2531C80.3704 29.2779 76.2059 24.6533 78.627 22.5573C75.2186 23.8106 79.4499 28.7613 76.6211 30.2531Z" fill="white"/>
<path d="M75.3232 26.6243L75.8052 26.502C75.8459 26.4918 75.872 26.4526 75.8664 26.4111C75.7053 25.2053 73.4902 25.8455 71.8037 19.8827C72.1353 25.5763 75.0538 25.3686 75.2368 26.566C75.2429 26.607 75.2826 26.6341 75.3232 26.6238V26.6243Z" fill="white"/>
<path d="M75.4072 24.5968L74.8482 24.6444C74.8057 24.6481 74.7758 24.6052 74.7922 24.566C75.3064 23.3449 70.4072 20.7393 73.5237 19.3698C74.2686 19.1356 75.0901 19.1906 75.9448 19.3698C75.0971 19.2891 74.2766 19.2298 73.8385 19.4809C71.4333 20.8882 75.7612 22.9977 75.4731 24.5357C75.467 24.5688 75.4404 24.594 75.4068 24.5968H75.4072Z" fill="white"/>
<path d="M75.0336 21.3193L74.8057 22.0113L74.179 21.6856L74.4783 21.0062L75.0336 21.3193Z" fill="white"/>
<path d="M74.1791 20.0409L74.7349 20.3232L74.4785 21.0063L73.8391 20.7333L74.1791 20.0409Z" fill="white"/>
<path d="M98.7998 29.4487L99.3766 29.5569L99.484 28.9121L98.8997 28.8243L98.7998 29.4487Z" fill="white"/>
<path d="M94.688 29.0185C94.5334 28.6877 94.2509 28.5981 93.8642 28.7054C93.8203 28.7175 93.775 28.6905 93.7656 28.6461L93.7185 28.4282C93.6965 28.3265 93.7404 28.2201 93.8306 28.1674C94.2107 27.943 94.781 27.7778 95.4969 27.2053C96.5846 26.336 97.3557 24.5736 97.7662 25.692C97.961 26.2384 97.5939 26.6649 97.0816 27.0601C97.3015 26.6705 97.5136 26.2627 97.6896 25.7756C96.9797 25.3458 96.4417 27.5874 94.363 28.3172C94.5984 28.4814 94.6661 28.7376 94.688 29.0185Z" fill="white"/>
<path d="M95.9548 27.5874C96.9842 28.11 97.8641 26.3467 99.2488 27.418C97.9598 26.8366 97.1084 28.5663 95.9548 27.5874Z" fill="white"/>
<path d="M79.3042 25.7615C78.5499 26.635 80.0538 27.9102 78.6812 28.9974C79.5545 27.886 78.0768 26.6462 79.3042 25.7615Z" fill="white"/>
<path d="M99.6516 22.3669C100.687 22.6809 101.11 20.7874 102.579 21.5699C101.298 21.2484 100.893 23.1037 99.6516 22.3669Z" fill="white"/>
<path d="M99.3032 24.084C99.0043 23.8736 98.6994 24.182 98.5382 24.5031C98.5177 24.5436 98.4537 24.5348 98.4234 24.5007L98.2739 24.3355C98.2039 24.2581 98.1656 24.161 98.2165 24.0369C98.3846 23.6291 99.2192 22.4635 99.4429 21.3002C99.7698 19.5994 99.1253 17.2776 99.9902 17.705C100.432 18.082 100.476 18.2276 100.443 18.9191C100.344 18.4623 100.229 18.1455 100.122 17.985C99.1594 18.0666 100.647 21.4229 98.6868 23.8227C98.9773 23.6645 99.1435 23.8512 99.3028 24.084H99.3032Z" fill="white"/>
<path d="M87.6635 30.514C87.727 30.1542 87.5467 29.9191 87.1684 29.7847C87.1255 29.7693 87.104 29.7217 87.1217 29.6797L87.2081 29.4744C87.2488 29.3783 87.3454 29.3167 87.4496 29.3251C87.89 29.3596 89.0832 29.4566 89.9982 29.3988C91.388 29.3106 93.0231 28.2052 92.7172 29.3568C92.5626 29.9158 92.0171 30.0548 91.3703 30.0847C91.7743 29.8915 92.182 29.6792 92.6061 29.3811C92.2717 28.6219 91.6482 30.1435 87.7994 29.7534C87.8979 30.0226 87.8059 30.2713 87.663 30.514H87.6635Z" fill="white"/>
<path d="M95.0258 33.0211C95.0262 33.2581 95.0328 33.4816 95.0678 33.6389C95.0725 33.6594 95.0841 33.6776 95.101 33.6902C95.2299 33.7905 95.3471 33.6758 95.4592 33.4518L95.4947 33.812C95.4979 33.8461 95.4923 33.8811 95.4788 33.9123C95.3027 34.3225 95.0575 34.1587 95.0267 33.7966C94.9991 33.5554 95.0043 33.2931 95.0258 33.0206V33.0211Z" fill="white"/>
<path d="M79.2822 25.069C79.045 25.0741 78.8213 25.0849 78.6648 25.1231C78.6443 25.1283 78.6265 25.1404 78.6139 25.1572C78.5163 25.2878 78.6335 25.4031 78.8596 25.5104L78.5 25.5529C78.4659 25.5571 78.4309 25.5519 78.3991 25.5393C77.9853 25.3714 78.1441 25.1236 78.5056 25.0858C78.7466 25.0536 79.009 25.0536 79.2818 25.0695L79.2822 25.069Z" fill="white"/>
<path d="M96.9496 31.9171C96.9501 32.1541 96.9566 32.3776 96.9916 32.5349C96.9963 32.5554 97.008 32.5736 97.0248 32.5862C97.1537 32.6865 97.2709 32.5717 97.383 32.3478L97.4185 32.708C97.4218 32.7421 97.4162 32.7771 97.4026 32.8083C97.2265 33.2185 96.9814 33.0547 96.9505 32.6926C96.923 32.4514 96.9281 32.1891 96.9496 31.9166V31.9171Z" fill="white"/>
<path d="M100.417 28.7455C100.523 28.9755 100.792 29.4599 100.975 29.5602C101.147 29.625 101.249 29.5252 101.27 29.2966C101.271 29.276 101.297 29.2672 101.311 29.2826L101.483 29.4729C101.504 29.4963 101.51 29.5299 101.497 29.5583C101.162 30.2932 100.468 29.1766 100.417 28.7455Z" fill="white"/>
<path d="M102.306 26.8278C102.405 27.0433 102.504 27.244 102.601 27.3723C102.614 27.3891 102.632 27.4003 102.652 27.4054C102.811 27.4432 102.871 27.2897 102.879 27.0401L103.061 27.3527C103.078 27.3826 103.088 27.4162 103.089 27.4507C103.099 27.8968 102.808 27.8496 102.63 27.5333C102.504 27.3252 102.4 27.0844 102.306 26.8282V26.8278Z" fill="white"/>
<path d="M95.2308 30.2097C95.2317 30.5233 95.2401 30.8186 95.2864 31.0263C95.2924 31.0534 95.3083 31.0771 95.3298 31.0944C95.5003 31.2269 95.6651 31.1723 95.8127 30.8765L95.8501 31.2554C95.8547 31.3007 95.8473 31.3464 95.8295 31.3879C95.5969 31.9301 95.2728 31.7136 95.2322 31.2353C95.1958 30.9162 95.2028 30.5699 95.2308 30.2097Z" fill="white"/>
<path d="M103.621 24.2207L104.229 24.4447C104.413 24.3757 104.361 24.2137 104.193 24.0061L104.582 24.1391C104.807 24.343 104.683 24.6692 104.327 24.5418L103.62 24.2203L103.621 24.2207Z" fill="white"/>
<path d="M100.072 20.9839L100.681 21.2079C100.865 21.1388 100.813 20.9769 100.645 20.7693L101.034 20.9023C101.259 21.1062 101.135 21.4323 100.779 21.305L100.072 20.9835L100.072 20.9839Z" fill="white"/>
<path d="M103.083 23.0104L103.692 23.2344C103.876 23.1653 103.824 23.0034 103.656 22.7958L104.045 22.9288C104.27 23.1327 104.146 23.4588 103.79 23.3314L103.083 23.01L103.083 23.0104Z" fill="white"/>
<path d="M104.082 20.7432L104.498 20.8943C104.849 21.2774 104.547 21.5518 103.991 21.4295C103.684 21.3619 103.278 21.2704 102.861 21.0353C103.875 21.4883 104.53 21.3087 104.082 20.7432Z" fill="white"/>
<path d="M91.657 30.667L91.6832 30.996C91.686 31.0328 91.7065 31.0669 91.7387 31.0856C92.4369 31.4929 93.2622 31.4332 93.6148 32.7061C93.4625 30.9344 92.1913 31.1192 91.6668 30.6619C91.6626 30.6582 91.6565 30.6614 91.657 30.6666V30.667Z" fill="white"/>
<path d="M90.1056 35.0625C90.1854 34.8208 90.4096 34.6565 90.6641 34.6509C91.0387 34.6421 91.3259 34.6682 91.4632 34.7545C91.5174 34.7886 91.5394 34.8562 91.5183 34.916L91.4076 35.2305C91.3932 35.2711 91.3609 35.3023 91.3203 35.3154L91.1839 35.3597C91.0999 35.3872 91.0135 35.4064 90.9252 35.4171C90.5754 35.4591 90.1154 35.4568 89.7301 35.3896C89.7189 35.3877 89.7184 35.3714 89.7296 35.3681L90.9869 35.0434C90.6581 34.992 90.3582 34.9883 90.106 35.0615L90.1056 35.0625Z" fill="white"/>
<path d="M84.4097 34.698C84.5265 34.5375 84.7315 34.4685 84.9221 34.5244C85.2023 34.6066 85.4096 34.6938 85.4909 34.7904C85.5231 34.8282 85.5236 34.8837 85.4932 34.9234L85.3363 35.1306C85.3162 35.1572 85.2849 35.173 85.2513 35.173L85.1397 35.174C85.0706 35.1744 85.0019 35.1684 84.9337 35.1553C84.6638 35.104 84.3229 34.9934 84.0524 34.852C84.0445 34.8478 84.0482 34.8357 84.0571 34.8361L85.0678 34.8921C84.8357 34.7764 84.6138 34.7027 84.4093 34.6976L84.4097 34.698Z" fill="white"/>
<path d="M78.7259 30.6922C78.9067 30.6101 79.1192 30.6521 79.2574 30.7948C79.4601 31.0048 79.5969 31.1831 79.6203 31.3072C79.6292 31.3562 79.6025 31.4042 79.5568 31.4243L79.3177 31.527C79.2868 31.54 79.2518 31.5382 79.2228 31.5218L79.1252 31.4672C79.065 31.4336 79.008 31.3944 78.9557 31.3496C78.7465 31.1714 78.505 30.9068 78.3402 30.6507C78.3355 30.6432 78.3444 30.6343 78.3523 30.639L79.2028 31.1873C79.0585 30.9717 78.902 30.7981 78.7269 30.6927L78.7259 30.6922Z" fill="white"/>
<path d="M89.0534 35.1008L88.9399 35.4479C88.5971 35.7242 88.308 35.4489 88.3827 34.9809C88.4238 34.7219 88.4808 34.3803 88.6755 34.0378C88.3169 34.8773 88.542 35.4493 89.0534 35.1008Z" fill="white"/>
<path d="M79.9505 29.2308L79.6274 29.4011C79.1884 29.3614 79.1729 28.9625 79.5522 28.6783C79.7623 28.5211 80.0407 28.3153 80.419 28.2042C79.5769 28.5584 79.3401 29.1258 79.9505 29.2308Z" fill="white"/>
<path d="M75.3166 22.7168L74.9635 22.8125C74.5441 22.6776 74.6165 22.2847 75.0494 22.0906C75.289 21.9833 75.6061 21.8433 75.9994 21.8186C75.0999 21.9791 74.7444 22.4807 75.3166 22.7168Z" fill="white"/>
<path d="M76.6271 27.8884L76.3039 28.0587C75.8649 28.019 75.8495 27.6201 76.2287 27.3359C76.4388 27.1786 76.7172 26.9729 77.0955 26.8618C76.2534 27.216 76.0166 27.7834 76.6271 27.8884Z" fill="white"/>
<path d="M85.2089 32.6375L85.0954 32.9847C84.7526 33.2609 84.4635 32.9856 84.5382 32.5176C84.5793 32.2586 84.6363 31.9171 84.8311 31.5746C84.4724 32.414 84.6975 32.9861 85.2089 32.6375Z" fill="white"/>
<path d="M74.2288 26.3877C74.4171 26.5729 74.5866 26.7801 74.5245 27.2556L73.5138 25.8128C73.5031 25.7974 73.4783 25.8086 73.483 25.8268C73.6423 26.4306 73.9113 26.9229 74.2662 27.327C74.2863 27.3498 74.311 27.3685 74.3386 27.382C74.4675 27.445 74.638 27.4581 74.8173 27.4599C74.8505 27.4599 74.8813 27.4403 74.8934 27.4091C75.1139 26.8305 74.7701 26.362 74.2391 26.3615C74.226 26.3615 74.2195 26.3779 74.2288 26.3872V26.3877Z" fill="white"/>
<path d="M72.3493 18.4226C72.4375 18.6713 72.4992 18.9317 72.2349 19.3325L71.9574 17.5935C71.9546 17.5748 71.9275 17.5743 71.9238 17.593C71.8028 18.2057 71.829 18.7656 71.9714 19.2845C71.9794 19.3139 71.9934 19.3414 72.0125 19.3656C72.1008 19.4786 72.2489 19.5649 72.4091 19.6447C72.4389 19.6596 72.4754 19.6549 72.4997 19.6321C72.9513 19.2084 72.8471 18.6363 72.3698 18.404C72.3581 18.3984 72.3451 18.41 72.3493 18.4226Z" fill="white"/>
<path d="M84.6694 29.0292C85.4961 29.3507 86.1887 29.5089 86.0411 29.9765C86.2531 29.3064 86.4628 29.3349 84.8091 28.6914C84.8091 28.6914 84.6648 29.0274 84.6699 29.0292H84.6694Z" fill="white"/>
<path d="M84.3224 28.773L84.1355 28.8742C84.0856 28.9013 84.0249 28.9008 83.9754 28.8723L82.6032 28.0884L83.6106 29.0637C83.6307 29.0828 83.6078 29.115 83.583 29.1029C83.0422 28.8429 82.5542 28.5555 82.203 28.1948C82.0979 28.1276 82.1054 27.9718 82.2161 27.9149L82.3207 27.8607C82.5238 27.7557 82.7667 27.7627 82.9638 27.8789L84.3238 28.682C84.3588 28.7025 84.3578 28.7534 84.3219 28.7725L84.3224 28.773Z" fill="white"/>
<path d="M75.3644 20.8883L75.0749 20.8169C75.0011 20.7987 74.9436 20.7413 74.924 20.668C74.8582 20.424 74.896 20.3003 75.5643 20.424C76.0519 20.3349 75.8492 19.6667 76.5792 19.5649L77.3843 19.5827C75.9197 19.655 76.6259 20.7525 75.5695 20.5439C75.2117 20.4384 75.2033 20.682 75.3644 20.8883Z" fill="white"/>
<path d="M77.6607 20.4856L77.9918 20.5206C78.0086 20.5224 78.0231 20.5332 78.0296 20.5486C78.1272 20.78 78.8441 22.5247 78.2122 22.4141C77.9203 22.4192 77.6621 22.3385 77.5019 22.2321C77.3417 22.1257 77.9105 22.388 78.0175 22.3068C78.222 22.1518 77.7265 20.9783 77.6102 20.5434C77.6018 20.5117 77.628 20.4818 77.6607 20.4851V20.4856Z" fill="white"/>
<path d="M78.4228 23.1887L78.733 23.177C78.7498 23.1789 78.768 23.1882 78.7708 23.205C78.8338 23.5456 79.5101 24.6688 80.1639 25.3943C80.8229 26.1255 81.5314 26.5996 81.0247 26.8394C80.0939 26.9799 79.9463 26.6001 79.7861 26.4932C79.6259 26.3864 80.5819 26.8511 80.7024 26.7918C81.1368 26.5772 80.2709 26.1484 79.7053 25.3752C79.0669 24.5022 78.4158 23.6823 78.3724 23.2465C78.3691 23.2139 78.3902 23.1849 78.4228 23.1882V23.1887Z" fill="white"/>
<path d="M73.1575 17.0237C74.0407 17.5188 74.7113 15.5207 76.1694 16.5165C78.1104 17.9592 75.084 19.7893 73.2434 18.4249C72.5429 17.9602 71.9586 17.3363 72.1076 15.7083C72.3659 14.8264 72.739 14.036 73.235 13.344C72.3748 16.2412 72.4579 17.564 73.2126 18.3045C73.2444 18.3358 73.2822 18.361 73.3233 18.3787C74.8654 19.0497 76.7373 17.8977 76.1339 16.6313C75.2349 16.3886 74.7421 17.3597 74.0463 17.4814C73.9202 17.5034 73.7908 17.4721 73.6867 17.3984L73.1575 17.0242V17.0237Z" fill="white"/>
<path d="M73.6255 13.2344L74.143 13.6254C74.1976 13.6665 74.2653 13.6889 74.334 13.6833C74.879 13.6375 74.7795 12.3259 75.6973 12.4789C74.9967 12.8672 74.3658 13.044 73.8945 12.7402C73.5587 12.3866 73.7694 11.8579 74.0547 11.4197C74.4255 10.8509 75.0187 10.466 75.6968 11.144C75.8033 11.137 76.6411 11.9129 77.04 11.3558C77.4547 10.7763 76.6229 10.1552 76.6229 10.1552C76.2927 9.86452 75.9962 9.73807 75.7748 9.97138C75.6711 9.32465 75.8145 8.48335 76.7714 8.98263C79.5582 11.0292 82.11 6.33274 84.8763 8.56781C82.2707 5.56423 79.5577 9.89579 77.131 9.00362L76.4609 8.66533C74.7665 7.78437 75.2363 9.767 75.4955 10.8407L75.5744 11.5495L76.0671 11.9255C76.0779 11.9335 76.0928 11.9246 76.0905 11.9115C75.9611 11.1575 75.9387 10.3129 76.5552 10.2551C76.7159 10.8897 76.3773 11.5229 75.5581 10.9041L75.0434 10.577C74.3293 10.2009 73.8217 10.577 73.5078 11.102C73.2066 11.6059 73.0772 12.2461 73.4597 12.4887L73.9034 12.8424C74.6819 13.5018 75.4857 13.3543 76.3025 12.7883L75.8047 12.3628C74.15 11.3507 74.4881 13.5209 73.6255 13.2349V13.2344Z" fill="white"/>
<path d="M79.9677 12.3804C77.8297 11.4603 75.1428 17.4758 72.9487 14.7527C75.1405 16.503 78.0347 10.0343 79.9677 12.3804Z" fill="white"/>
<path d="M77.244 12.4906L76.6448 12.7948L76.259 12.2671L76.848 11.9932L77.244 12.4906Z" fill="white"/>
<path d="M78.0158 11.4352L77.5894 10.8874L78.2493 10.5626L78.6556 11.0498L78.0158 11.4352Z" fill="white"/>
<path d="M76.8262 9.66906L77.1101 10.159C77.1241 10.1828 77.1531 10.1921 77.1788 10.1823C77.7523 9.95835 77.6224 8.62898 77.6902 7.66916C77.7443 6.89598 78.0152 6.24926 78.7064 6.83952C79.4266 7.99905 80.03 7.35186 80.9608 7.73215L80.6451 7.23148C80.6245 7.19881 80.5946 7.17362 80.5596 7.15729C79.8161 6.81899 79.3224 7.34906 78.7676 6.72754L78.5341 6.25066C79.2295 6.36405 79.8021 6.24973 80.4228 6.93051C79.9973 5.92123 79.3556 5.86851 79.1683 5.56101C79.9688 5.41776 80.3784 5.62633 80.6871 5.92637L81.0131 6.34912C81.0448 6.39018 81.1051 6.39158 81.1401 6.35331C81.3904 6.07988 81.2041 5.28851 81.3176 4.67678C81.4101 4.17751 81.8785 3.88261 82.4436 4.66838C82.367 4.78643 82.2918 4.85782 82.2175 4.89235C82.1858 4.90682 82.1704 4.94322 82.1821 4.97634L82.3684 5.50968C82.3759 5.53161 82.4016 5.54188 82.4216 5.53021C82.7915 5.31184 82.9456 4.7785 83.0166 4.12571C83.0741 3.59471 83.6186 3.21862 83.9367 3.69503C85.5321 7.91973 88.9969 4.11311 91.2578 7.9258C89.6293 3.73749 86.0846 6.77047 84.3024 4.14158L83.9063 3.41133C83.4781 2.50937 82.9709 2.82433 82.8135 3.46032C82.7107 3.87374 82.6883 4.28063 82.4716 4.62545L82.0079 4.02399C81.9158 3.90454 81.8 3.80375 81.6646 3.73749C81.1345 3.47899 80.9267 4.01419 80.9187 4.5158C80.9122 4.92408 81.0565 5.6254 80.7207 5.85124C80.1337 4.92175 79.6423 4.88256 78.7583 5.01041C78.7307 5.01461 78.712 5.04214 78.7209 5.06873C78.7821 5.25351 78.9936 5.54468 79.1837 5.82091L78.2674 5.70846C78.2375 5.70472 78.2128 5.73086 78.2179 5.76025C78.2455 5.92123 78.387 6.19187 78.5168 6.4513C77.9386 5.76492 77.3805 6.13307 77.3422 7.05976C77.3002 8.06718 77.3768 9.2897 76.8476 9.59486C76.8215 9.6098 76.8126 9.64339 76.8276 9.66952L76.8262 9.66906Z" fill="white"/>
<path d="M88.2552 5.14431C87.7845 2.74126 85.7613 3.68055 84.1132 2.93071C84.9631 4.11077 86.2713 3.56763 86.4292 5.07059C86.0836 4.30441 84.2654 4.41313 84.0268 2.89758L83.9119 2.32971C85.5796 2.9881 88.0152 2.08567 88.2548 5.14478L88.2552 5.14431Z" fill="white"/>
<path d="M87.0335 3.95728L86.6978 4.50741L87.2418 5.01695L87.5571 4.45375L87.0335 3.95728Z" fill="white"/>
<path d="M83.5559 6.10365L83.6498 5.47979L82.9988 5.20496L82.8914 5.84188L83.5559 6.10365Z" fill="white"/>
<path d="M84.1806 6.41201L83.516 6.17078L83.4216 6.80397L84.0731 7.04941L84.1806 6.41201Z" fill="white"/>
<path d="M88.1928 1.8855C86.3793 4.75189 93.8345 5.54233 92.8621 8.66396C94.8013 5.27496 87.3792 4.28481 88.1928 1.8855Z" fill="white"/>
<path d="M89.9435 3.95719L90.121 3.49991C90.1373 3.45791 90.128 3.41032 90.0972 3.37812C89.8109 3.07902 89.5787 2.74493 89.6226 2.23492C90.0911 2.63901 90.7122 2.86531 90.5273 4.02811C90.9836 2.9759 90.602 2.83638 90.7753 2.23492C91.0999 2.52982 91.4786 2.69407 91.4903 3.73648L91.3264 4.07431C91.2843 4.16156 91.3352 4.26888 91.4305 4.28335C91.7425 4.33187 92.0591 4.01924 92.4631 3.73881C92.9544 3.39725 93.4719 3.46491 93.4159 4.34821C92.8405 7.94765 96.0462 7.5039 95.8234 10.3246C97.0288 8.0769 94.1682 7.36112 94.2346 5.14331C94.4457 4.77049 94.8595 4.39393 95.3503 4.01551L95.7688 3.73648C95.8043 3.71268 95.8309 3.67815 95.8444 3.63756L96.0046 3.16628C96.013 3.14155 95.9831 3.12242 95.964 3.14015C95.3036 3.74628 94.4232 3.76261 94.3298 2.7286C94.328 2.70807 94.2999 2.7034 94.2911 2.72206C92.6602 6.20159 97.8979 6.52402 96.1952 10.5803C98.0988 6.64907 94.5783 5.7905 94.2831 3.91239C94.4032 4.0897 94.5461 4.18443 94.7245 4.15036C94.1552 4.76396 93.9511 5.5488 94.0445 6.29258C93.6302 5.73684 93.5209 4.931 93.6494 3.92872C93.7376 2.95584 93.2319 2.80885 92.7503 3.11495C92.3277 3.38325 91.8933 3.81907 91.587 3.5937C91.9839 2.22746 91.3049 1.92416 91.0167 1.68805C90.9873 1.66379 90.9429 1.67499 90.9285 1.71045L90.6398 2.41457C90.4115 2.06321 90.1551 1.83364 89.8818 1.67686C89.8417 1.65399 89.7908 1.66986 89.7721 1.71185L89.5573 2.19246C89.1673 3.28946 89.5769 3.60209 89.944 3.95579L89.9435 3.95719Z" fill="white"/>
<path d="M95.9458 5.60392C95.8748 5.09064 95.5507 4.87834 95.0762 4.84427C95.0487 4.84241 95.0393 4.80694 95.0622 4.79155L95.5194 4.48498C95.5535 4.46212 95.5928 4.44812 95.6339 4.44532C97.6552 4.29414 98.3207 5.45507 96.9817 6.3127C97.9228 6.69579 98.4524 7.28372 99.6905 7.13254C100.07 5.88015 97.9251 4.65203 96.2466 3.73094C96.2144 3.71321 96.2345 3.66421 96.27 3.67401C98.3758 4.25588 100.565 5.41961 100.165 6.82971C100.149 6.8843 100.115 6.93236 100.07 6.96596L99.726 7.21653C99.6587 7.26552 99.5863 7.30845 99.5102 7.34251C98.0498 7.99437 97.1554 6.74525 96.4045 6.71772C96.3844 6.71679 96.376 6.69206 96.3919 6.67946L96.7342 6.40042C96.8593 6.29824 96.9672 6.17505 97.0429 6.03227C97.3539 5.4476 96.9215 5.08038 96.3998 4.93526C96.468 5.02159 96.4904 5.12611 96.4745 5.24463C96.4726 5.25769 96.4652 5.26936 96.454 5.27682L95.9458 5.60392Z" fill="white"/>
<path d="M100.783 8.84308L101.24 8.6779C101.264 8.66904 101.281 8.64477 101.28 8.61864C101.276 8.52066 101.231 8.45113 101.177 8.38814C101.881 8.98773 102.117 9.5262 101.641 9.97228C99.4355 11.3959 102.552 14.9249 99.4663 17.5599C103.242 15.7172 100.415 11.6777 101.746 10.2215L102.254 9.73991C103.008 8.80062 101.687 8.25095 100.822 7.6159C100.797 7.59723 100.764 7.5935 100.735 7.60516L100.247 7.80721C100.215 7.82027 100.212 7.86367 100.241 7.88186C100.595 8.10257 100.749 8.4264 100.758 8.82535C100.758 8.83842 100.771 8.84728 100.783 8.84262V8.84308Z" fill="white"/>
<path d="M100.878 6.9729C97.1289 7.94812 101.293 12.5727 98.8723 14.6687C102.281 13.4154 98.0494 8.46466 100.878 6.9729Z" fill="white"/>
<path d="M102.176 10.6018L101.694 10.7241C101.653 10.7343 101.627 10.7735 101.633 10.8151C101.794 12.0208 104.009 11.3806 105.696 17.3434C105.364 11.6498 102.445 11.8575 102.262 10.6601C102.256 10.6191 102.217 10.592 102.176 10.6023V10.6018Z" fill="white"/>
<path d="M102.092 12.6292L102.651 12.5816C102.694 12.5779 102.723 12.6208 102.707 12.66C102.193 13.8812 107.092 16.4867 103.976 17.8562C103.231 18.0905 102.409 18.0354 101.554 17.8562C102.402 17.9369 103.223 17.9962 103.661 17.7452C106.066 16.3379 101.738 14.2283 102.026 12.6904C102.032 12.6572 102.059 12.632 102.092 12.6292H102.092Z" fill="white"/>
<path d="M102.466 15.9067L102.693 15.2147L103.32 15.5404L103.021 16.2198L102.466 15.9067Z" fill="white"/>
<path d="M103.32 17.1851L102.765 16.9028L103.021 16.2197L103.66 16.4927L103.32 17.1851Z" fill="white"/>
<path d="M78.6993 7.77732L78.1226 7.66907L78.0151 8.31392L78.5994 8.40165L78.6993 7.77732Z" fill="white"/>
<path d="M82.8112 8.20752C82.9657 8.53835 83.2483 8.62794 83.635 8.52062C83.6789 8.50848 83.7242 8.53555 83.7335 8.57988L83.7807 8.79778C83.8027 8.8995 83.7588 9.00589 83.6686 9.05862C83.2885 9.28306 82.7182 9.44824 82.0023 10.0208C80.9146 10.8901 80.1435 12.6525 79.733 11.534C79.5382 10.9876 79.9053 10.5611 80.4176 10.1659C80.1977 10.5555 79.9856 10.9633 79.8096 11.4505C80.5194 11.8802 81.0575 9.63862 83.1362 8.90884C82.9008 8.74459 82.8331 8.48842 82.8112 8.20752Z" fill="white"/>
<path d="M81.5444 9.63872C80.5151 9.11611 79.6352 10.8794 78.2505 9.8081C79.5395 10.3895 80.3909 8.65977 81.5444 9.63872Z" fill="white"/>
<path d="M98.1956 11.4641C98.9498 10.5906 97.446 9.31535 98.8186 8.22815C97.9452 9.33962 99.4229 10.5794 98.1956 11.4641Z" fill="white"/>
<path d="M77.8475 14.8587C76.8125 14.5447 76.389 16.4382 74.9197 15.6557C76.2007 15.9771 76.6057 14.1219 77.8475 14.8587Z" fill="white"/>
<path d="M78.196 13.142C78.4949 13.3525 78.7999 13.0441 78.961 12.723C78.9815 12.6824 79.0455 12.6913 79.0759 12.7254L79.2253 12.8905C79.2954 12.968 79.3337 13.0651 79.2828 13.1892C79.1147 13.597 78.2801 14.7626 78.0564 15.9259C77.7294 17.6267 78.3739 19.9485 77.509 19.5211C77.0677 19.1441 77.0228 18.9985 77.056 18.307C77.155 18.7638 77.2704 19.0806 77.3773 19.2411C78.3398 19.1595 76.8519 15.8031 78.8125 13.4034C78.522 13.5615 78.3557 13.3749 78.1965 13.142H78.196Z" fill="white"/>
<path d="M89.8362 6.71204C89.7726 7.07179 89.9529 7.30697 90.3312 7.44135C90.3742 7.45675 90.3957 7.50434 90.3779 7.54634L90.2915 7.75165C90.2509 7.84777 90.1542 7.90936 90.05 7.90096C89.6096 7.86643 88.4164 7.76938 87.5015 7.82724C86.1116 7.91543 84.4765 9.02083 84.7824 7.86923C84.937 7.31023 85.4825 7.17118 86.1293 7.14132C85.7254 7.3345 85.3176 7.5468 84.8936 7.84497C85.228 8.60415 85.8515 7.08253 89.7002 7.47261C89.6017 7.20338 89.6937 6.95467 89.8366 6.71204H89.8362Z" fill="white"/>
<path d="M82.474 4.20494C82.4735 3.9679 82.467 3.74439 82.4319 3.58714C82.4273 3.56661 82.4156 3.54841 82.3988 3.53581C82.2699 3.43549 82.1526 3.55028 82.0406 3.77425L82.0051 3.41403C82.0018 3.37997 82.0074 3.34497 82.0209 3.31371C82.197 2.90356 82.4422 3.06734 82.473 3.42943C82.5006 3.67067 82.4954 3.9329 82.474 4.2054V4.20494Z" fill="white"/>
<path d="M98.2175 12.1565C98.4548 12.1513 98.6785 12.1406 98.8349 12.1023C98.8555 12.0972 98.8732 12.0851 98.8858 12.0683C98.9835 11.9376 98.8662 11.8224 98.6402 11.715L98.9998 11.6726C99.0339 11.6684 99.0689 11.6735 99.1007 11.6861C99.5145 11.8541 99.3557 12.1019 98.9942 12.1397C98.7532 12.1719 98.4907 12.1719 98.218 12.156L98.2175 12.1565Z" fill="white"/>
<path d="M80.5496 5.30906C80.5492 5.07202 80.5426 4.84852 80.5076 4.69127C80.5029 4.67074 80.4913 4.65254 80.4744 4.63994C80.3455 4.53962 80.2283 4.65441 80.1162 4.87838L80.0807 4.51815C80.0775 4.48409 80.0831 4.4491 80.0966 4.41783C80.2727 4.00768 80.5179 4.17146 80.5487 4.53355C80.5763 4.77479 80.5711 5.03703 80.5496 5.30953V5.30906Z" fill="white"/>
<path d="M77.0821 8.4806C76.976 8.25056 76.7075 7.76622 76.5244 7.6659C76.3521 7.60104 76.2508 7.70089 76.2297 7.92953C76.2279 7.95006 76.2022 7.95893 76.1886 7.94353L76.0158 7.75315C75.9948 7.72982 75.9897 7.69623 76.0028 7.66776C76.3372 6.93285 77.0312 8.04945 77.0821 8.4806Z" fill="white"/>
<path d="M75.1934 10.3983C75.0944 10.1827 74.9954 9.98207 74.8983 9.85376C74.8857 9.83696 74.8674 9.82576 74.8469 9.82063C74.6881 9.78283 74.6288 9.93635 74.6204 10.186L74.4382 9.87335C74.421 9.84349 74.4116 9.80989 74.4107 9.77536C74.3999 9.32928 74.6914 9.37641 74.8698 9.69277C74.9949 9.90088 75.0996 10.1417 75.1934 10.3978V10.3983Z" fill="white"/>
<path d="M82.2683 7.01628C82.2674 6.70272 82.259 6.40736 82.2128 6.19971C82.2067 6.17265 82.1908 6.14885 82.1693 6.13159C81.9989 5.99907 81.834 6.05366 81.6864 6.3495L81.6491 5.97061C81.6444 5.92535 81.6519 5.87962 81.6696 5.83809C81.9022 5.29589 82.2263 5.5124 82.2669 5.99067C82.3034 6.30983 82.2964 6.65606 82.2683 7.01628Z" fill="white"/>
<path d="M73.8788 13.0052L73.2703 12.7813C73.0863 12.8503 73.1386 13.0122 73.3067 13.2199L72.9177 13.0869C72.6926 12.883 72.8163 12.5568 73.1722 12.6842L73.8793 13.0057L73.8788 13.0052Z" fill="white"/>
<path d="M77.4271 16.2422L76.8186 16.0182C76.6346 16.0873 76.6869 16.2492 76.855 16.4568L76.466 16.3238C76.2409 16.1199 76.3647 15.7938 76.7205 15.9211L77.4276 16.2426L77.4271 16.2422Z" fill="white"/>
<path d="M74.4157 14.2157L73.8071 13.9917C73.6231 14.0608 73.6754 14.2227 73.8436 14.4303L73.4545 14.2973C73.2294 14.0934 73.3532 13.7673 73.7091 13.8947L74.4161 14.2162L74.4157 14.2157Z" fill="white"/>
<path d="M73.4173 16.4829L73.0007 16.3317C72.6505 15.9486 72.9526 15.6743 73.5079 15.7965C73.8152 15.8642 74.2211 15.9556 74.6381 16.1908C73.6247 15.7377 72.9694 15.9174 73.4173 16.4829Z" fill="white"/>
<path d="M85.8421 6.55862L85.8159 6.22966C85.8131 6.1928 85.7926 6.15874 85.7603 6.14007C85.0621 5.73272 84.2369 5.79245 83.8843 4.51953C84.0365 6.29126 85.3078 6.10648 85.8323 6.56376C85.8365 6.56749 85.8425 6.56422 85.8421 6.55909V6.55862Z" fill="white"/>
<path d="M87.3935 2.16358C87.3137 2.40529 87.0895 2.56954 86.835 2.57513C86.4604 2.584 86.1732 2.55787 86.0359 2.47155C85.9817 2.43748 85.9598 2.36983 85.9808 2.3101L86.0915 1.9956C86.1059 1.95501 86.1382 1.92374 86.1788 1.91068L86.3152 1.86635C86.3992 1.83882 86.4856 1.81969 86.5739 1.80896C86.9237 1.76696 87.3837 1.7693 87.769 1.83649C87.7802 1.83835 87.7807 1.85469 87.7695 1.85795L86.5123 2.18271C86.841 2.23404 87.1409 2.23777 87.3931 2.16452L87.3935 2.16358Z" fill="white"/>
<path d="M93.0895 2.52797C92.9727 2.68849 92.7677 2.75754 92.5771 2.70155C92.2969 2.61943 92.0896 2.53217 92.0083 2.43558C91.9761 2.39779 91.9756 2.34226 92.006 2.3026L92.1629 2.09542C92.183 2.06882 92.2143 2.05296 92.2479 2.05296L92.3595 2.05203C92.4286 2.05156 92.4973 2.05763 92.5655 2.07069C92.8354 2.12202 93.1763 2.23261 93.4467 2.37399C93.4547 2.37819 93.4509 2.39032 93.4421 2.38985L92.4314 2.33386C92.6635 2.44958 92.8854 2.5233 93.0899 2.52844L93.0895 2.52797Z" fill="white"/>
<path d="M98.7733 6.53381C98.5925 6.61593 98.38 6.57394 98.2418 6.43116C98.0391 6.22118 97.9022 6.04294 97.8789 5.91882C97.87 5.86982 97.8966 5.82176 97.9424 5.8017L98.1815 5.69904C98.2124 5.68598 98.2474 5.68784 98.2763 5.70418L98.3739 5.75877C98.4342 5.79237 98.4912 5.83156 98.5435 5.87636C98.7527 6.0546 98.9942 6.31917 99.159 6.57534C99.1637 6.58281 99.1548 6.59167 99.1469 6.587L98.2964 6.03874C98.4407 6.25431 98.5972 6.42789 98.7723 6.53334L98.7733 6.53381Z" fill="white"/>
<path d="M88.4458 2.12487L88.5593 1.77771C88.9021 1.50147 89.1912 1.77677 89.1165 2.24478C89.0754 2.50375 89.0184 2.84531 88.8236 3.18781C89.1823 2.34837 88.9572 1.77631 88.4458 2.12487Z" fill="white"/>
<path d="M97.5488 7.99526L97.8719 7.82495C98.3109 7.86461 98.3264 8.26357 97.9471 8.54773C97.737 8.70498 97.4586 8.91076 97.0803 9.02181C97.9224 8.66765 98.1592 8.10025 97.5488 7.99526Z" fill="white"/>
<path d="M102.183 14.5091L102.536 14.4135C102.955 14.5483 102.883 14.9412 102.45 15.1353C102.21 15.2426 101.893 15.3826 101.5 15.4073C102.399 15.2468 102.755 14.7452 102.183 14.5091Z" fill="white"/>
<path d="M100.872 9.33767L101.195 9.16736C101.634 9.20702 101.65 9.60597 101.27 9.89014C101.06 10.0474 100.782 10.2532 100.404 10.3642C101.246 10.0101 101.482 9.44266 100.872 9.33767Z" fill="white"/>
<path d="M92.2903 4.58861L92.4038 4.24145C92.7466 3.96522 93.0357 4.24052 92.9609 4.70853C92.9198 4.9675 92.8629 5.30906 92.6681 5.65155C93.0268 4.81212 92.8017 4.24005 92.2903 4.58861Z" fill="white"/>
<path d="M103.27 10.8384C103.082 10.6531 102.912 10.446 102.975 9.97049L103.985 11.4133C103.996 11.4287 104.021 11.4175 104.016 11.3993C103.857 10.7955 103.588 10.3032 103.233 9.8991C103.213 9.87623 103.188 9.85757 103.16 9.84404C103.031 9.78104 102.861 9.76798 102.682 9.76611C102.649 9.76611 102.618 9.78571 102.606 9.81697C102.385 10.3956 102.729 10.8641 103.26 10.8645C103.273 10.8645 103.279 10.8482 103.27 10.8389V10.8384Z" fill="white"/>
<path d="M105.15 18.8034C105.062 18.5547 105 18.2943 105.264 17.8935L105.542 19.6326C105.545 19.6513 105.572 19.6517 105.575 19.6331C105.696 19.0204 105.67 18.4605 105.528 17.9416C105.52 17.9122 105.506 17.8847 105.487 17.8604C105.398 17.7475 105.25 17.6612 105.09 17.5814C105.06 17.5664 105.024 17.5711 105 17.594C104.548 18.0176 104.652 18.5897 105.129 18.8221C105.141 18.8277 105.154 18.816 105.15 18.8034Z" fill="white"/>
<path d="M92.8299 8.19685C92.0033 7.87536 91.3107 7.71718 91.4583 7.24963C91.2462 7.91969 91.0365 7.89122 92.6903 8.53468C92.6903 8.53468 92.8346 8.19872 92.8295 8.19685H92.8299Z" fill="white"/>
<path d="M93.1768 8.45255L93.3636 8.3513C93.4135 8.32423 93.4743 8.3247 93.5238 8.35316L94.8959 9.13707L93.8885 8.16185C93.8684 8.14272 93.8913 8.11052 93.9161 8.12266C94.4569 8.38256 94.9449 8.66999 95.2961 9.03068C95.4012 9.09787 95.3937 9.25372 95.2831 9.31065L95.1784 9.36478C94.9753 9.46976 94.7324 9.46277 94.5353 9.34658L93.1754 8.54354C93.1403 8.52301 93.1413 8.47215 93.1772 8.45302L93.1768 8.45255Z" fill="white"/>
<path d="M102.135 16.3378L102.424 16.4092C102.498 16.4274 102.556 16.4848 102.575 16.558C102.641 16.802 102.603 16.9257 101.935 16.802C101.447 16.8912 101.65 17.5594 100.92 17.6611L100.115 17.6433C101.58 17.571 100.873 16.4736 101.93 16.6821C102.288 16.7876 102.296 16.544 102.135 16.3378Z" fill="white"/>
<path d="M99.8385 16.7405L99.5074 16.7056C99.4906 16.7037 99.4761 16.693 99.4696 16.6776C99.372 16.4461 98.6551 14.7015 99.287 14.812C99.5789 14.8069 99.8371 14.8876 99.9973 14.994C100.158 15.1004 99.5887 14.8382 99.4817 14.9194C99.2772 15.0743 99.7727 16.2478 99.889 16.6827C99.8974 16.7144 99.8712 16.7443 99.8385 16.741V16.7405Z" fill="white"/>
<path d="M99.0764 14.0374L98.7663 14.049C98.7495 14.0472 98.7313 14.0378 98.7285 14.021C98.6654 13.6804 97.9892 12.5573 97.3353 11.8317C96.6764 11.1005 95.9679 10.6264 96.4746 10.3866C97.4054 10.2462 97.553 10.626 97.7132 10.7328C97.8734 10.8392 96.9173 10.3749 96.7968 10.4342C96.3625 10.6488 97.2284 11.0777 97.794 11.8508C98.4324 12.7239 99.0834 13.5437 99.1269 13.9795C99.1301 14.0122 99.1091 14.0411 99.0764 14.0378V14.0374Z" fill="white"/>
</g>
<rect x="78.8207" y="8.61148" width="19.5392" height="19.5392" rx="9.76958" fill="white"/>
<rect x="78.8207" y="8.61148" width="19.5392" height="19.5392" rx="9.76958" stroke="#C59714" stroke-width="0.518739"/>
<g clip-path="url(#clip3_725_6731)">
<path d="M96.2528 21.008C96.2872 20.3231 94.7318 21.0773 95.0744 19.6613L95.1988 19.178C95.726 19.5155 96.2547 19.8519 96.0625 20.6678C96.0162 21.3543 95.6291 21.6675 95.2031 21.7151C94.5898 21.7836 94.4271 21.4635 94.3984 20.7706C94.2556 20.1088 93.052 20.441 93.2782 19.0144L93.3785 18.5551C93.7246 18.9672 94.2946 19.3428 94.0898 20.476C93.9669 21.325 93.5221 21.8144 92.8303 22.0275C92.6531 22.0823 92.4663 22.1009 92.2806 22.0903C91.8545 22.0652 91.4376 22.0123 91.0322 21.9217C92.7519 21.7193 93.7621 21.2866 94.0289 20.4768C94.0864 20.0152 93.8291 19.5776 93.3636 19.1563C93.5676 19.933 94.5507 19.64 94.5232 20.6096C94.6514 21.6043 95.868 21.2036 96.0035 20.6663C95.9917 20.3162 95.628 19.9981 95.1353 19.6917C95.2651 20.1617 95.7352 20.0704 96.1375 20.1842C96.2838 20.2256 96.3741 20.3714 96.3458 20.5198L96.2524 21.008H96.2528Z" fill="#5064BA"/>
<path d="M91.7849 17.6471C91.8389 18.5551 93.2151 18.4923 92.7523 20.1256C92.8977 19.0007 91.3508 18.9394 91.7849 17.6471Z" fill="#5064BA"/>
<path d="M91.8531 18.8552C91.9595 19.893 93.075 19.4649 92.8262 20.8238L92.693 21.3299L92.0368 20.9349L91.9277 21.6332C91.5434 21.3668 91.0239 21.2545 91.1464 20.4124C90.906 20.369 90.6698 20.8443 90.4286 21.3771C90.2104 21.8592 89.6771 22.2447 89.8149 21.3383C89.5848 21.7337 88.2967 22.8113 88.534 20.5608C88.5956 22.2303 89.9971 21.1746 90.2035 19.9862C90.3654 17.5736 86.0051 17.7463 86.9675 14.5178C86.4943 17.3464 90.8003 17.1302 90.2521 20.0246L89.9018 21.2899C90.4282 21.7527 90.661 19.7765 91.2486 19.8895C91.1127 20.7861 91.7172 20.8984 91.9204 21.0666C91.7972 20.6872 91.4802 20.6632 91.724 19.7065C91.7413 20.4333 92.4591 20.5353 92.7519 20.7952C92.7519 20.1251 91.3956 20.0227 91.8527 18.8549L91.8531 18.8552Z" fill="#5064BA"/>
<path d="M91.4285 16.1629C91.1808 18.4922 86.7397 17.3315 86.3871 19.9447C86.2539 20.9596 86.827 21.0277 87.5023 20.3743C88.0267 19.8671 88.8061 19.5086 89.3452 19.7289C88.5833 19.9394 88.271 20.3975 87.6045 20.9539C86.8457 21.5875 85.7371 21.6529 85.548 20.5627V20.2335C85.548 20.0897 85.3853 20.0048 85.2666 20.087C84.7218 20.4649 83.5741 21.8432 80.8469 21.7488C81.1899 21.866 82.1049 21.8965 83.0095 21.9285C84.6476 21.7207 85.1047 20.3511 85.4614 20.6198C85.3956 22.2599 86.8132 22.1964 87.8108 21.2636C88.4398 20.6753 89.1652 20.0554 89.7 20.2963L89.7942 19.8792C89.9309 18.9309 88.6212 18.9656 87.9528 19.5573C86.8744 20.5121 86.4219 20.4021 86.469 19.9211C87.7993 17.7132 91.551 18.9671 91.4289 16.1621L91.4285 16.1629Z" fill="#5064BA"/>
<path d="M85.5958 18.8693L85.5475 19.1889C85.6838 19.216 85.7971 19.2909 85.8691 19.4542C85.6486 19.3571 85.4254 19.2734 85.3998 19.0645C85.536 18.6444 85.7527 18.5595 85.8105 18.0793C85.9281 17.2782 85.1662 17.0457 85.2355 16.3695C84.9442 17.2227 85.6597 17.376 85.7596 18.0827C85.6394 18.5355 85.3799 18.7117 85.358 19.0565C85.242 19.6684 85.5181 19.5368 85.8431 19.8058L85.9288 19.4698C86.0192 19.0455 85.8113 18.9538 85.5962 18.8697L85.5958 18.8693Z" fill="#5064BA"/>
<path d="M95.5315 18.6585L95.2827 19.1243L94.8589 18.7963L95.1115 18.3286L95.5315 18.6585Z" fill="#5064BA"/>
<path d="M95.4869 17.913L95.1281 17.6173L94.8755 18.0831L95.2342 18.375L95.4869 17.913Z" fill="#5064BA"/>
<path d="M94.2928 18.9298L94.2437 19.0432L94.2112 19.3591C94.4853 19.0908 94.6637 18.7928 94.692 18.4477C94.8754 17.1713 93.5091 16.8794 93.4084 15.9932C93.7178 15.476 94.3153 15.9974 94.15 16.7101C94.2288 16.497 94.2709 16.2748 94.256 16.0377C94.1871 15.4364 93.4655 15.1803 93.3556 15.973C93.1749 17.0199 94.7387 17.483 94.6423 18.4313C94.5818 18.6315 94.4895 18.8012 94.3437 18.9214C94.5642 17.9088 93.1362 16.9586 92.7565 16.7501L92.6941 17.0986C92.8587 17.1942 93.0168 17.298 93.083 17.5267L93.132 17.3315C93.645 17.7931 94.2127 18.2239 94.2928 18.9302V18.9298Z" fill="#5064BA"/>
<path d="M95.1954 16.2588C95.5411 15.959 95.8397 15.6762 96.0407 15.43C95.775 14.3516 91.9996 15.8642 88.2135 15.2534C88.2729 15.4083 88.253 15.5803 88.2135 15.7561C88.1458 15.4825 87.9616 15.3124 87.7515 15.1652L87.8135 14.847C91.5793 15.701 96.4759 13.8348 96.0702 15.368L95.9561 15.7778C95.7984 15.9616 95.5112 16.1138 95.195 16.2588H95.1954Z" fill="#5064BA"/>
<path d="M89.6396 16.5667C89.8942 16.075 90.6885 15.8954 90.8156 16.3033C90.6487 16.5233 90.1047 16.819 89.5925 17.1085C89.8651 17.0492 90.1492 16.962 90.4416 16.8532C90.6755 16.7261 90.8172 16.5488 90.901 16.2588C90.9906 15.3615 89.7694 15.7553 89.6392 16.5667H89.6396Z" fill="#5064BA"/>
<path d="M91.9108 16.6132L91.657 17.1086L92.1007 17.4264L92.3422 16.9305L91.9108 16.6132Z" fill="#5064BA"/>
<path d="M88.9695 17.3874C89.3248 16.253 87.578 16.2945 87.4505 15.1187C87.1316 16.3539 88.9435 16.5141 88.9695 17.3874Z" fill="#5064BA"/>
<path d="M84.5898 16.4941C84.1431 16.445 84.0531 16.6866 83.4081 16.6866L82.5364 16.4941C84.0053 16.5313 84.0566 16.2406 84.5481 16.2532C84.2395 15.7908 82.9073 16.8312 83.0111 16.0347L83.0593 15.8353C83.0666 15.806 83.0807 15.7786 83.1022 15.7569C83.3614 15.4936 83.8035 15.6519 83.5635 16.4198C83.7166 15.8608 83.3158 15.7984 83.057 16.0267C83.2733 16.4195 84.6848 15.3798 84.6166 16.268L84.5898 16.4941Z" fill="#5064BA"/>
<path d="M96.3291 18.3062C96.1151 18.6517 95.9237 18.732 95.7537 18.5604C95.9279 18.1322 96.1285 18.1231 96.1503 17.7254C96.2475 17.05 95.4777 17.1634 95.4769 16.3483C95.2683 17.3639 95.8835 17.2311 96.0906 17.7498C95.9723 18.1201 95.8 18.0725 95.6897 18.56C95.5745 19.0535 96.0343 19.071 96.2992 18.6235L96.3291 18.3058V18.3062Z" fill="#5064BA"/>
<path d="M86.5905 17.6345L86.5641 17.9496C86.4336 18.208 86.1893 18.2186 86.1438 17.7593C86.1173 17.3772 86.2077 17.0431 86.3378 16.7246C86.2383 17.7563 86.3436 18.0462 86.5905 17.6345Z" fill="#5064BA"/>
<path d="M84.5856 21.8547C84.7782 21.6641 84.9899 21.5982 85.2429 21.795C84.9569 21.8688 84.5159 21.9571 84.0332 22.0496C84.6583 22.15 85.1518 22.171 85.3179 21.9948L85.4485 21.6504C85.2854 21.2181 84.6132 21.3022 84.5852 21.8551L84.5856 21.8547Z" fill="#5064BA"/>
<path d="M81.6087 19.4938L81.5636 19.8078C82.0455 19.4246 82.3338 18.9968 82.3717 18.5105C82.498 17.2977 81.4545 17.0397 81.3982 16.1359C81.536 15.6777 82.5708 15.6127 82.2664 16.8692C82.3453 16.6085 82.4039 16.3669 82.4169 16.1664C82.4326 15.3737 81.5058 15.285 81.3679 16.0313C81.1589 17.2859 82.3893 17.6634 82.3242 18.509C82.2664 18.7811 82.1309 19.0006 81.9226 19.1715C82.1271 18.1105 81.5731 17.5043 80.7103 17.0827L80.636 17.4735C80.9396 17.5687 81.1562 17.735 81.1792 18.0596L81.2259 17.7254C81.6577 18.0299 81.9284 18.4412 81.8997 19.0509C81.8254 19.1966 81.7324 19.3439 81.6087 19.4938Z" fill="#5064BA"/>
<path d="M81.2404 15.9543C81.369 15.5281 81.3162 15.229 81.1443 15.0136C84.2084 15.6115 86.5333 14.5178 86.6458 15.2633C86.4988 15.5871 85.631 15.7717 84.7528 15.9543C85.2171 15.9665 85.6536 15.9593 86.0394 15.9174C86.4617 15.8185 86.6967 15.6004 86.714 15.2446C86.7875 14.2111 85.4683 14.8432 83.4405 14.8804C81.4808 14.9166 80.9407 14.4851 80.7083 14.799L80.6597 15.1213C81.0356 15.2264 81.3112 15.4265 81.2408 15.9543H81.2404Z" fill="#5064BA"/>
<path d="M91.2903 19.2142C91.1471 19.326 91.0082 19.4166 90.9301 19.1597L91.2386 18.6125C91.4771 18.1673 91.0767 18.1928 91.1552 17.6475L91.0082 18.0451C90.9733 18.3024 91.1732 18.3545 91.1667 18.6612L90.8669 19.1772C90.6652 19.6343 91.0334 19.7344 91.1781 19.5041L91.2907 19.2145L91.2903 19.2142Z" fill="#5064BA"/>
<path d="M88.2732 21.6877L88.1698 22.0024C87.9057 22.0823 87.7112 22.0762 87.7801 21.744L88.0266 21.1812C87.8192 21.6606 87.8731 21.8597 88.2732 21.6877Z" fill="#5064BA"/>
<path d="M90.5915 21.7108C90.6731 21.7728 90.7672 21.7276 90.8679 21.6214L90.8346 21.9292C90.7423 22.1648 90.4326 22.1458 90.5314 21.6777C90.6045 21.355 90.7561 21.0639 90.9609 20.7937C90.8124 21.1255 90.6842 21.4361 90.5911 21.7108H90.5915Z" fill="#5064BA"/>
<path d="M94.4508 21.7143L94.3302 22.0119C93.978 22.1116 93.6472 22.185 93.8689 21.5944L94.0392 21.2227C93.7552 21.8669 94.045 21.857 94.4508 21.7143Z" fill="#5064BA"/>
<path d="M96.3714 21.6648C96.01 21.83 95.7846 21.8422 96.0514 21.2972L95.8519 21.7063C95.6931 22.1379 95.9373 22.0888 96.2466 21.9624L96.3714 21.6648Z" fill="#5064BA"/>
<path d="M84.4458 19.0052C84.2528 18.8359 83.7077 18.8168 83.6089 18.4466C84.2379 17.3049 84.3099 18.192 84.3099 18.1924C84.7321 16.7022 83.5653 16.9803 83.4838 18.7936C83.457 19.3911 84.4913 19.3975 84.597 19.6236C84.618 19.8001 84.2559 20.3325 83.447 20.2937C83.194 20.2815 82.9953 20.1449 82.8513 19.9577C82.6327 19.673 82.565 19.2986 82.6569 18.9527C82.7698 18.5272 83.0496 18.3472 83.3027 17.4218C83.3027 17.4218 82.6695 18.6829 82.5937 18.915C82.5056 19.1833 82.2086 20.9878 83.5852 20.8527C84.754 20.7378 84.8217 19.3359 84.4458 19.0052Z" fill="#5064BA"/>
<path d="M90.7271 17.9846C90.6271 17.8883 90.4694 17.8727 90.3527 17.9477C90.3255 17.9652 90.3017 17.9865 90.2815 18.0112C90.2742 18.02 90.2677 18.0295 90.2608 18.0386C90.2638 18.0249 90.1567 18.1722 90.1701 18.1634C90.1674 18.1672 90.1643 18.1714 90.1616 18.1752C90.1226 18.2319 90.1 18.2966 90.1031 18.3655C90.1084 18.5036 90.2122 18.6235 90.3492 18.649C90.4219 18.6623 90.4989 18.6482 90.5621 18.6102C90.5942 18.5908 90.6218 18.5653 90.6451 18.536C90.6509 18.5287 90.6562 18.5215 90.662 18.5143C90.6742 18.5029 90.7558 18.3921 90.7527 18.3895C90.76 18.3784 90.7673 18.3674 90.7741 18.3564C90.7745 18.3556 90.7749 18.3552 90.7749 18.3548C90.7749 18.3545 90.7757 18.3541 90.7757 18.3537C90.845 18.2346 90.827 18.0812 90.7267 17.9846H90.7271ZM90.613 18.4842C90.5578 18.5029 90.4977 18.5051 90.4415 18.4907C90.3232 18.4606 90.2332 18.3594 90.2171 18.2388C90.2114 18.1961 90.2156 18.1524 90.2282 18.1117C90.2474 18.098 90.2677 18.0858 90.2895 18.0767C90.4009 18.031 90.5326 18.0569 90.618 18.1417C90.6991 18.222 90.7236 18.34 90.6907 18.445C90.667 18.4618 90.6409 18.4751 90.6134 18.4842H90.613Z" fill="#5064BA"/>
<path d="M82.3836 20.8467L82.1347 21.3124L81.7109 20.9844L81.9636 20.5167L82.3836 20.8467Z" fill="#5064BA"/>
<path d="M82.3389 20.1016L81.9802 19.8059L81.7275 20.2717L82.0862 20.5632L82.3389 20.1016Z" fill="#5064BA"/>
</g>
</g>
<rect x="70.7804" y="0.743896" width="35.746" height="35.392" rx="17.696" stroke="#C59714" stroke-width="0.691652"/>
<defs>
<clipPath id="clip0_725_6731">
<rect width="66.8439" height="7.90442" fill="white" transform="translate(0.010498 5.84241)"/>
</clipPath>
<clipPath id="clip1_725_6731">
<rect x="71.1262" y="1.08972" width="35.0544" height="34.7003" rx="17.3502" fill="white"/>
</clipPath>
<clipPath id="clip2_725_6731">
<rect width="33.8909" height="33.8909" fill="white" transform="translate(71.8042 1.6676)"/>
</clipPath>
<clipPath id="clip3_725_6731">
<rect width="15.7351" height="7.60817" fill="white" transform="translate(80.6365 14.5178)"/>
</clipPath>
</defs>
</svg>
