<svg width="1920" height="225" viewBox="0 0 1920 225" fill="none" xmlns="http://www.w3.org/2000/svg">
<g clip-path="url(#clip0_250_3428)">
<rect width="1920" height="194" transform="matrix(1 0 0 -1 0 224.726)" fill="#0F1936"/>
<path fill-rule="evenodd" clip-rule="evenodd" d="M0 224.726L17.6 217.54C35.2 210.355 70.4 195.985 107.2 174.429C142.4 152.874 177.6 124.133 212.8 124.133C249.6 124.133 284.8 152.874 320 152.874C355.2 152.874 390.4 124.133 427.2 113.356C462.4 102.578 497.6 109.763 532.8 113.356C569.6 116.948 604.8 116.948 640 109.763C675.2 102.578 710.4 88.2066 747.2 98.9846C782.4 109.763 817.6 145.689 852.8 142.096C889.6 138.503 924.8 95.3926 960 102.578C995.2 109.763 1030.4 167.244 1067.2 188.8C1102.4 210.355 1137.6 195.985 1172.8 178.022C1209.6 160.059 1244.8 138.503 1280 131.318C1315.2 124.133 1350.4 131.318 1387.2 149.281C1422.4 167.244 1457.6 195.985 1492.8 181.614C1529.6 167.244 1564.8 109.763 1600 102.578C1635.2 95.3926 1670.4 138.503 1707.2 152.874C1742.4 167.244 1777.6 152.874 1812.8 152.874C1849.6 152.874 1884.8 167.244 1902.4 174.429L1920 181.614V30.7256H1902.4C1884.8 30.7256 1849.6 30.7256 1812.8 30.7256C1777.6 30.7256 1742.4 30.7256 1707.2 30.7256C1670.4 30.7256 1635.2 30.7256 1600 30.7256C1564.8 30.7256 1529.6 30.7256 1492.8 30.7256C1457.6 30.7256 1422.4 30.7256 1387.2 30.7256C1350.4 30.7256 1315.2 30.7256 1280 30.7256C1244.8 30.7256 1209.6 30.7256 1172.8 30.7256C1137.6 30.7256 1102.4 30.7256 1067.2 30.7256C1030.4 30.7256 995.2 30.7256 960 30.7256C924.8 30.7256 889.6 30.7256 852.8 30.7256C817.6 30.7256 782.4 30.7256 747.2 30.7256C710.4 30.7256 675.2 30.7256 640 30.7256C604.8 30.7256 569.6 30.7256 532.8 30.7256C497.6 30.7256 462.4 30.7256 427.2 30.7256C390.4 30.7256 355.2 30.7256 320 30.7256C284.8 30.7256 249.6 30.7256 212.8 30.7256C177.6 30.7256 142.4 30.7256 107.2 30.7256C70.4 30.7256 35.2 30.7256 17.6 30.7256H0V224.726Z" fill="#7AB8FF"/>
<path d="M1044 157.305C1076 185.305 1120.5 197.805 1163.5 165.805C1132 178.305 1102 192.305 1044 157.305Z" fill="#04FED1"/>
<path d="M1681 118.305C1713 146.305 1757.5 158.805 1800.5 126.805C1769 139.305 1739 153.305 1681 118.305Z" fill="#04FED1"/>
<path d="M661 92.1006C695.572 67.3466 741.077 59.2346 780.76 95.2656C744 76.2256 722.13 62.9096 661 92.1006Z" fill="#04FED1"/>
<path d="M252 108.305C284 136.305 328.5 148.805 371.5 116.805C340 129.305 310 143.305 252 108.305Z" fill="#04FED1"/>
<path d="M110 149.226C92.8 165.626 29.5 195.059 0 207.726V197.726C35.5 190.726 80.5 165.726 110 149.226Z" fill="#04FED1"/>
</g>
<g clip-path="url(#clip1_250_3428)">
<path fill-rule="evenodd" clip-rule="evenodd" d="M0 194.726L17.6 187.54C35.2 180.355 70.4 165.985 107.2 144.429C142.4 122.874 177.6 94.1326 212.8 94.1326C249.6 94.1326 284.8 122.874 320 122.874C355.2 122.874 390.4 94.1326 427.2 83.3556C462.4 72.5776 497.6 79.7626 532.8 83.3556C569.6 86.9476 604.8 86.9476 640 79.7626C675.2 72.5776 710.4 58.2066 747.2 68.9846C782.4 79.7626 817.6 115.689 852.8 112.096C889.6 108.503 924.8 65.3926 960 72.5776C995.2 79.7626 1030.4 137.244 1067.2 158.8C1102.4 180.355 1137.6 165.985 1172.8 148.022C1209.6 130.059 1244.8 108.503 1280 101.318C1315.2 94.1326 1350.4 101.318 1387.2 119.281C1422.4 137.244 1457.6 165.985 1492.8 151.614C1529.6 137.244 1564.8 79.7626 1600 72.5776C1635.2 65.3926 1670.4 108.503 1707.2 122.874C1742.4 137.244 1777.6 122.874 1812.8 122.874C1849.6 122.874 1884.8 137.244 1902.4 144.429L1920 151.614V0.725586H1902.4C1884.8 0.725586 1849.6 0.725586 1812.8 0.725586C1777.6 0.725586 1742.4 0.725586 1707.2 0.725586C1670.4 0.725586 1635.2 0.725586 1600 0.725586C1564.8 0.725586 1529.6 0.725586 1492.8 0.725586C1457.6 0.725586 1422.4 0.725586 1387.2 0.725586C1350.4 0.725586 1315.2 0.725586 1280 0.725586C1244.8 0.725586 1209.6 0.725586 1172.8 0.725586C1137.6 0.725586 1102.4 0.725586 1067.2 0.725586C1030.4 0.725586 995.2 0.725586 960 0.725586C924.8 0.725586 889.6 0.725586 852.8 0.725586C817.6 0.725586 782.4 0.725586 747.2 0.725586C710.4 0.725586 675.2 0.725586 640 0.725586C604.8 0.725586 569.6 0.725586 532.8 0.725586C497.6 0.725586 462.4 0.725586 427.2 0.725586C390.4 0.725586 355.2 0.725586 320 0.725586C284.8 0.725586 249.6 0.725586 212.8 0.725586C177.6 0.725586 142.4 0.725586 107.2 0.725586C70.4 0.725586 35.2 0.725586 17.6 0.725586H0V194.726Z" fill="#202550"/>
<path d="M1044 127.305C1076 155.305 1120.5 167.805 1163.5 135.805C1132 148.305 1102 162.305 1044 127.305Z" fill="#2E3771"/>
<path d="M1681 88.3046C1713 116.305 1757.5 128.805 1800.5 96.8048C1769 109.305 1739 123.305 1681 88.3046Z" fill="#2E3771"/>
<path d="M661 62.1006C695.572 37.3466 741.077 29.2346 780.76 65.2656C744 46.2256 722.13 32.9096 661 62.1006Z" fill="#2E3771"/>
<path d="M252 78.3047C284 106.305 328.5 118.805 371.5 86.8047C340 99.3049 310 113.305 252 78.3047Z" fill="#2E3771"/>
<path d="M110 119.226C92.8 135.626 29.5 165.059 0 177.726V167.726C35.5 160.726 80.5 135.726 110 119.226Z" fill="#2E3771"/>
</g>
<defs>
<clipPath id="clip0_250_3428">
<rect width="1920" height="194" fill="white" transform="matrix(1 0 0 -1 0 224.726)"/>
</clipPath>
<clipPath id="clip1_250_3428">
<rect width="1920" height="194" fill="white" transform="matrix(1 0 0 -1 0 194.726)"/>
</clipPath>
</defs>
</svg>
