<svg width="339" height="210" viewBox="0 0 339 210" fill="none" xmlns="http://www.w3.org/2000/svg">
<rect x="-0.5" y="0.5" width="338" height="209" rx="39.5" transform="matrix(-1 0 0 1 338 0)" stroke="url(#paint0_linear_317_995)"/>
<rect x="16.5" y="18.5" width="306" height="173" rx="29.5" stroke="url(#paint1_linear_317_995)"/>
<rect x="35.5" y="41.5" width="267" height="127" rx="19.5" stroke="url(#paint2_linear_317_995)"/>
<g filter="url(#filter0_d_317_995)">
<circle cx="89" cy="103" r="29" fill="#FFF9C7"/>
<circle cx="89" cy="103" r="28.5" stroke="#9FC4CC"/>
</g>
<g filter="url(#filter1_d_317_995)">
<circle cx="257" cy="103" r="29" fill="#04FED1"/>
<circle cx="257" cy="103" r="28.5" stroke="#9FC4CC"/>
</g>
<g clip-path="url(#clip0_317_995)">
<path d="M94.8283 107.485C94.4951 107.287 94.1083 107.198 93.7221 107.231C93.3359 107.264 92.9697 107.418 92.675 107.669C92.505 107.797 92.3492 107.938 92.2075 108.066C92.2143 107.953 92.2143 107.839 92.2075 107.726C92.1698 107.398 92.0501 107.084 91.8595 106.814C91.6689 106.545 91.4134 106.327 91.1167 106.182C90.689 106.073 90.241 106.073 89.8133 106.182C89.4909 106.235 89.1881 106.372 88.935 106.578C88.948 105.438 88.8912 104.298 88.765 103.164C88.6692 102.088 88.4113 101.033 88 100.033C87.7461 99.506 87.3149 99.0848 86.7817 98.8434C86.4999 98.7036 86.1896 98.6309 85.875 98.6309C85.5604 98.6309 85.2501 98.7036 84.9683 98.8434C84.4223 99.1522 84.0163 99.6596 83.835 100.26C83.5495 101.263 83.4299 102.307 83.4808 103.348V107.202C83.4808 108.066 83.4808 108.944 83.6083 109.794C83.6083 110.177 83.7217 110.658 83.7925 111.14C83.495 110.956 83.2258 110.814 83.1833 110.772C82.195 109.673 80.9191 108.874 79.5 108.463C79.1099 108.397 78.7089 108.452 78.3515 108.622C77.9941 108.792 77.6977 109.068 77.5025 109.412C77.2614 109.816 77.1805 110.296 77.2758 110.758C77.476 111.566 77.7959 112.339 78.225 113.053C79.0042 114.568 80.0808 115.603 80.7608 116.849C81.2427 117.676 81.4602 118.63 81.3842 119.583C81.3783 119.639 81.3837 119.694 81.3999 119.747C81.4162 119.8 81.443 119.849 81.4787 119.892C81.5144 119.934 81.5584 119.969 81.6079 119.994C81.6573 120.019 81.7114 120.033 81.7667 120.037C81.8284 120.043 81.8908 120.036 81.9494 120.016C82.0081 119.995 82.0616 119.962 82.1061 119.919C82.1507 119.876 82.1852 119.823 82.2074 119.765C82.2295 119.707 82.2386 119.645 82.2342 119.583C82.319 118.759 82.2173 117.926 81.9367 117.147C81.3558 115.546 80.0667 114.313 79.1883 112.571C78.8866 112.025 78.6398 111.451 78.4517 110.857C78.3947 110.727 78.3653 110.587 78.3653 110.446C78.3653 110.304 78.3947 110.165 78.4517 110.035C78.5875 109.834 78.7955 109.692 79.0327 109.639C79.2699 109.587 79.5183 109.627 79.7267 109.752C80.6576 110.234 81.4928 110.882 82.1917 111.664C82.7018 112.227 83.2561 112.748 83.8492 113.223C83.942 113.31 84.0556 113.372 84.1793 113.404C84.303 113.435 84.4326 113.435 84.5559 113.402C84.6792 113.369 84.7922 113.306 84.8842 113.217C84.9762 113.129 85.0442 113.019 85.0817 112.897C85.1906 112.534 85.2385 112.156 85.2233 111.778C85.2233 111.055 85.0392 110.248 85.0108 109.681C84.9825 109.114 85.0108 108.42 85.0108 107.797V103.32C85.0119 102.689 85.064 102.059 85.1667 101.436C85.2517 100.968 85.3367 100.501 85.6767 100.317C85.7431 100.285 85.8157 100.269 85.8892 100.269C85.9627 100.269 86.0353 100.285 86.1017 100.317C86.2721 100.398 86.4114 100.532 86.4983 100.699C86.8402 101.543 87.0642 102.43 87.1642 103.334C87.3027 104.78 87.3594 106.232 87.3342 107.683C87.3342 108.264 87.4333 109.936 87.4758 110.63C87.4635 110.766 87.4893 110.903 87.5503 111.025C87.6113 111.148 87.7051 111.25 87.8212 111.323C87.9373 111.395 88.0712 111.433 88.2079 111.433C88.3445 111.433 88.4786 111.396 88.595 111.324C89.3317 111.112 88.85 110.588 89.2608 109.114C89.785 107.244 90.6775 107.457 90.6775 107.698C90.7958 108.031 90.8673 108.379 90.89 108.732C90.975 109.638 90.89 110.573 90.89 110.758C90.8975 110.955 90.9308 111.15 90.9892 111.338C91.0462 111.502 91.1624 111.639 91.315 111.721C91.4185 111.771 91.5331 111.795 91.648 111.789C91.7629 111.783 91.8745 111.747 91.9721 111.687C92.0698 111.626 92.1505 111.541 92.2065 111.44C92.2625 111.34 92.2921 111.227 92.2925 111.112C92.2628 110.629 92.3402 110.145 92.5192 109.695C92.72 109.262 93.027 108.887 93.4117 108.604C93.5153 108.509 93.6459 108.449 93.7855 108.431C93.925 108.413 94.0667 108.439 94.1908 108.505C94.3424 108.589 94.4725 108.707 94.5708 108.849C94.6692 108.992 94.7331 109.155 94.7575 109.327C94.9014 110.235 94.9489 111.157 94.8992 112.075C94.8142 114.285 94.3467 116.325 94.375 118.762C94.375 118.889 94.4257 119.012 94.5161 119.102C94.6064 119.193 94.7289 119.243 94.8567 119.243C94.9844 119.243 95.1069 119.193 95.1973 119.102C95.2876 119.012 95.3383 118.889 95.3383 118.762C95.3383 116.339 95.8767 114.328 96.0183 112.132C96.0829 111.139 96.0497 110.143 95.9192 109.157C95.8692 108.816 95.7458 108.49 95.5575 108.201C95.3691 107.912 95.1203 107.668 94.8283 107.485Z" fill="#455173"/>
<path d="M72.4875 96.0809L72.4167 95.9817L74.23 93.9842C74.7258 94.4092 75.4342 95.0325 75.9583 95.4009C76.2385 95.6303 76.5769 95.7775 76.9358 95.8259C77.1258 95.8372 77.3144 95.7876 77.4742 95.6842C77.8762 95.2566 78.2236 94.7808 78.5083 94.2675C79.3725 92.8509 80.6758 90.6975 81.4692 89.7342C81.5141 89.6798 81.5665 89.632 81.625 89.5925C82.3333 89.8334 83.1833 89.975 83.835 90.145L83.75 90.3859C82.0713 93.3704 80.2366 96.2644 78.2533 99.0559C78.1729 99.1593 78.1367 99.2904 78.1526 99.4205C78.1685 99.5506 78.2353 99.669 78.3383 99.75C78.3884 99.7895 78.4458 99.8186 78.5072 99.8357C78.5686 99.8528 78.6328 99.8575 78.6961 99.8496C78.7593 99.8417 78.8204 99.8213 78.8757 99.7896C78.931 99.7579 78.9795 99.7156 79.0183 99.665C80.5342 97.8092 82.9 94.2959 84.3025 92.0859C84.8408 91.2359 85.2375 90.57 85.3933 90.2442C85.4706 90.1179 85.5173 89.9752 85.5296 89.8276C85.5419 89.68 85.5195 89.5316 85.4642 89.3942C85.2873 89.1389 85.0267 88.9535 84.7275 88.87C84.0192 88.615 82.3333 88.19 81.5825 88.02C81.3024 88.0164 81.0258 88.0833 80.7783 88.2145C80.5307 88.3457 80.3201 88.537 80.1658 88.7709C79.0783 90.2798 78.071 91.845 77.1483 93.46C77.026 93.6604 76.9172 93.8686 76.8225 94.0834C76.2133 93.7009 75.3208 92.9359 74.8817 92.6667C74.7595 92.5561 74.6161 92.4715 74.4603 92.4179C74.3044 92.3644 74.1393 92.343 73.975 92.355C73.8513 92.3847 73.7384 92.4485 73.6492 92.5392C73.4225 92.6667 72.5017 93.8 71.8358 94.6217C71.5323 94.9606 71.253 95.3203 71 95.6984C70.9463 95.8248 70.9298 95.9639 70.9524 96.0994C70.975 96.2349 71.0357 96.3612 71.1275 96.4634C71.4461 96.8064 71.7868 97.1282 72.1475 97.4267C73.3658 98.4609 75.335 99.9909 76.2417 100.643L76.7092 100.968C76.8368 101.017 76.9782 101.017 77.1058 100.968C78.3383 100.628 76.015 99.75 72.4875 96.0809Z" fill="#455173"/>
<path d="M104.688 96.775C103.876 95.8819 103 95.0486 102.068 94.2817C101.978 94.2218 101.893 94.1555 101.812 94.0833L101.954 93.7717C102.478 92.7658 103.371 91.1792 103.753 90.3717C103.88 90.1211 103.948 89.8449 103.952 89.5642C103.94 89.4437 103.897 89.3283 103.827 89.2291C103.758 89.1299 103.664 89.0502 103.555 88.9975C102.697 88.5946 101.8 88.2813 100.877 88.0625C100.676 88.0141 100.466 88.0106 100.263 88.0522C100.06 88.0939 99.8681 88.1796 99.7017 88.3033C99.3333 88.7142 97.9167 90.8533 97.18 91.8308C96.7125 91.25 95.8342 90.2442 95.395 89.8333C95.2295 89.6379 95.014 89.4911 94.7717 89.4083C94.6439 89.4083 94.5214 89.4591 94.4311 89.5494C94.3407 89.6398 94.29 89.7623 94.29 89.89C94.2894 89.9616 94.3058 90.0323 94.3378 90.0963C94.3699 90.1603 94.4166 90.2158 94.4742 90.2583C94.4742 90.2583 94.5733 90.3717 94.6725 90.485C95.31 91.2358 96.925 93.1625 96.9958 93.1908C97.1083 93.2486 97.2371 93.266 97.3609 93.2402C97.4846 93.2145 97.5958 93.147 97.6758 93.0492L97.9167 92.6667C98.5258 91.8592 99.8717 89.9892 100.396 89.38C101.003 89.7029 101.651 89.9412 102.323 90.0883C101.812 91.08 100.764 92.7233 100.367 93.5308C100.207 93.8301 100.138 94.1701 100.169 94.5083C100.285 94.7597 100.448 94.9859 100.651 95.1742C101.232 95.7267 102.535 96.8458 103.158 97.5683L101.288 99.0275C100.448 97.9842 99.4983 97.0343 98.455 96.1942C98.3071 96.118 98.1392 96.0893 97.9744 96.1121C97.8096 96.1349 97.6558 96.2081 97.5342 96.3217C97.4633 96.3217 97.3358 96.52 97.1517 96.7183C96.6275 97.3417 95.6075 98.6308 94.9417 99.41C94.8826 99.4786 94.8161 99.5403 94.7433 99.5942C94.498 99.531 94.2604 99.4407 94.035 99.325C93.5817 99.0275 93.1142 98.6733 92.8308 98.4467C93.61 97.4408 95.4375 95.3158 95.5225 95.075C95.5776 94.9192 95.5776 94.7492 95.5225 94.5933C95.3662 94.385 95.1684 94.2114 94.9417 94.0833C93.7343 93.2486 92.61 92.2998 91.5842 91.25L91.7258 91.08L93.5533 89.1817C93.594 89.1421 93.6264 89.0947 93.6485 89.0424C93.6706 88.9901 93.6819 88.9339 93.6819 88.8771C93.6819 88.8203 93.6706 88.7641 93.6485 88.7118C93.6264 88.6595 93.594 88.6121 93.5533 88.5725C93.4259 88.5073 93.2806 88.4858 93.1398 88.5114C92.9989 88.537 92.8705 88.6083 92.7742 88.7142C92.4058 89.0542 91.6408 89.9608 91.1592 90.3717C91.0458 90.4708 90.7058 90.6833 90.6067 90.8958C90.562 90.9785 90.5387 91.071 90.5387 91.165C90.5387 91.259 90.562 91.3515 90.6067 91.4342C91.0143 92.1061 91.5426 92.6969 92.165 93.1767C92.93 93.8283 93.78 94.4658 94.2192 94.8625C93.6667 95.5 92.25 96.9875 91.6408 97.6958C91.5109 97.8389 91.3969 97.9956 91.3008 98.1633C91.2463 98.2633 91.2177 98.3753 91.2177 98.4892C91.2177 98.603 91.2463 98.7151 91.3008 98.815C91.9314 99.5497 92.6609 100.193 93.4683 100.728C93.8829 101.032 94.3727 101.218 94.885 101.266C95.206 101.179 95.4927 100.996 95.7067 100.742C96.2875 100.147 97.4492 98.73 98.1292 97.9083C98.8517 98.56 99.815 99.835 100.353 100.345C100.574 100.587 100.867 100.751 101.189 100.813C101.312 100.822 101.436 100.804 101.551 100.76C101.666 100.715 101.77 100.646 101.855 100.558C102.181 100.246 103.427 99.3817 104.164 98.7725C104.435 98.5626 104.673 98.3145 104.872 98.0358C104.963 97.8295 104.993 97.6019 104.961 97.3791C104.928 97.1562 104.834 96.9469 104.688 96.775Z" fill="#455173"/>
</g>
<g filter="url(#filter2_d_317_995)">
<circle cx="89" cy="103" r="34.5" stroke="url(#paint3_linear_317_995)" shape-rendering="crispEdges"/>
</g>
<g filter="url(#filter3_d_317_995)">
<circle cx="257" cy="103" r="34.5" stroke="url(#paint4_linear_317_995)" shape-rendering="crispEdges"/>
</g>
<g filter="url(#filter4_d_317_995)">
<circle cx="89" cy="103" r="40.5" stroke="url(#paint5_linear_317_995)" shape-rendering="crispEdges"/>
</g>
<g filter="url(#filter5_d_317_995)">
<circle cx="257" cy="103" r="40.5" stroke="url(#paint6_linear_317_995)" shape-rendering="crispEdges"/>
</g>
<path d="M138 130L138 78" stroke="url(#paint7_linear_317_995)" stroke-width="2" stroke-linecap="round"/>
<path d="M178 125L178 81" stroke="url(#paint8_linear_317_995)" stroke-width="2" stroke-linecap="round"/>
<path d="M161 69L161 118" stroke="url(#paint9_linear_317_995)" stroke-width="2" stroke-linecap="round"/>
<path d="M201 74L201 115" stroke="url(#paint10_linear_317_995)" stroke-width="2" stroke-linecap="round"/>
<path d="M145 72L145 117" stroke="url(#paint11_linear_317_995)" stroke-width="2" stroke-linecap="round"/>
<path d="M185 76L185 114" stroke="url(#paint12_linear_317_995)" stroke-width="2" stroke-linecap="round"/>
<path d="M153 131L153 89" stroke="url(#paint13_linear_317_995)" stroke-width="2" stroke-linecap="round"/>
<path d="M193 126L193 91" stroke="url(#paint14_linear_317_995)" stroke-width="2" stroke-linecap="round"/>
<path d="M169 130L169 86" stroke="url(#paint15_linear_317_995)" stroke-width="2" stroke-linecap="round"/>
<path d="M252.5 94C251.186 103.715 250.119 104.738 240 106C250.119 107.262 251.186 108.285 252.5 118C253.814 108.285 254.881 107.262 265 106C254.881 104.738 253.814 103.715 252.5 94Z" fill="#455173"/>
<path d="M261.292 87C260.525 92.6669 259.903 93.2639 254 94C259.903 94.7361 260.525 95.3331 261.292 101C262.058 95.3331 262.68 94.7361 268.583 94C262.68 93.2639 262.058 92.6669 261.292 87Z" fill="#455173"/>
<path fill-rule="evenodd" clip-rule="evenodd" d="M220 182.465C228.284 182.465 235 175.749 235 167.465C235 159.181 228.284 152.465 220 152.465H167.497L151.809 140.612C149.832 139.119 147 140.528 147 143.005V164.303C147 164.642 147.056 164.967 147.159 165.27C147.054 165.987 147 166.72 147 167.465C147 175.749 153.716 182.465 162 182.465H220Z" fill="#99BBFF"/>
<path fill-rule="evenodd" clip-rule="evenodd" d="M206 20C214.284 20 221 26.7157 221 35C221 43.2843 214.284 50 206 50H128.497L112.809 61.8534C110.832 63.3466 108 61.9368 108 59.4598V38.1622C108 37.8237 108.056 37.4983 108.159 37.1947C108.054 36.4783 108 35.7455 108 35C108 26.7157 114.716 20 123 20H206Z" fill="#FFC7C7"/>
<path d="M160.039 171V161.545H165.902V162.773H161.465V165.654H165.482V166.877H161.465V171H160.039ZM167.545 171V163.909H168.925V171H167.545ZM168.242 162.815C168.002 162.815 167.796 162.735 167.624 162.575C167.454 162.412 167.37 162.218 167.37 161.993C167.37 161.766 167.454 161.572 167.624 161.412C167.796 161.248 168.002 161.167 168.242 161.167C168.482 161.167 168.687 161.248 168.856 161.412C169.029 161.572 169.115 161.766 169.115 161.993C169.115 162.218 169.029 162.412 168.856 162.575C168.687 162.735 168.482 162.815 168.242 162.815ZM172.163 166.79V171H170.782V163.909H172.107V165.063H172.195C172.358 164.688 172.614 164.386 172.961 164.158C173.312 163.931 173.754 163.817 174.286 163.817C174.77 163.817 175.193 163.918 175.556 164.121C175.919 164.321 176.201 164.62 176.401 165.017C176.601 165.414 176.701 165.905 176.701 166.49V171H175.32V166.656C175.32 166.142 175.187 165.74 174.919 165.451C174.651 165.159 174.283 165.012 173.815 165.012C173.495 165.012 173.211 165.082 172.961 165.22C172.715 165.359 172.52 165.562 172.375 165.83C172.234 166.094 172.163 166.414 172.163 166.79ZM181.608 171.143C180.909 171.143 180.308 170.994 179.803 170.695C179.301 170.394 178.914 169.971 178.64 169.426C178.369 168.878 178.233 168.236 178.233 167.501C178.233 166.774 178.369 166.134 178.64 165.58C178.914 165.026 179.295 164.594 179.785 164.283C180.277 163.972 180.852 163.817 181.511 163.817C181.911 163.817 182.299 163.883 182.674 164.015C183.05 164.148 183.387 164.355 183.685 164.638C183.984 164.922 184.219 165.289 184.392 165.742C184.564 166.191 184.65 166.737 184.65 167.381V167.87H179.014V166.836H183.298C183.298 166.473 183.224 166.151 183.076 165.871C182.928 165.588 182.721 165.365 182.453 165.202C182.188 165.039 181.877 164.957 181.52 164.957C181.133 164.957 180.794 165.052 180.505 165.243C180.218 165.431 179.997 165.677 179.84 165.982C179.686 166.283 179.609 166.611 179.609 166.965V167.773C179.609 168.247 179.692 168.65 179.858 168.983C180.028 169.315 180.263 169.569 180.565 169.744C180.866 169.917 181.219 170.003 181.622 170.003C181.883 170.003 182.122 169.966 182.337 169.892C182.553 169.815 182.739 169.701 182.896 169.55C183.053 169.4 183.173 169.213 183.256 168.992L184.563 169.227C184.458 169.612 184.27 169.949 183.999 170.238C183.732 170.525 183.395 170.748 182.988 170.908C182.585 171.065 182.125 171.143 181.608 171.143ZM189.267 162.773V161.545H196.584V162.773H193.634V171H192.212V162.773H189.267ZM201.617 168.059V163.909H203.002V171H201.645V169.772H201.571C201.408 170.151 201.146 170.466 200.786 170.718C200.429 170.968 199.984 171.092 199.452 171.092C198.996 171.092 198.593 170.992 198.242 170.792C197.895 170.589 197.621 170.289 197.421 169.892C197.224 169.495 197.125 169.004 197.125 168.419V163.909H198.506V168.253C198.506 168.736 198.639 169.121 198.907 169.407C199.175 169.694 199.523 169.837 199.95 169.837C200.209 169.837 200.466 169.772 200.721 169.643C200.98 169.513 201.194 169.318 201.363 169.056C201.535 168.795 201.62 168.462 201.617 168.059ZM206.237 166.79V171H204.857V163.909H206.182V165.063H206.269C206.432 164.688 206.688 164.386 207.036 164.158C207.386 163.931 207.828 163.817 208.361 163.817C208.844 163.817 209.267 163.918 209.63 164.121C209.993 164.321 210.275 164.62 210.475 165.017C210.675 165.414 210.775 165.905 210.775 166.49V171H209.395V166.656C209.395 166.142 209.261 165.74 208.993 165.451C208.725 165.159 208.357 165.012 207.89 165.012C207.57 165.012 207.285 165.082 207.036 165.22C206.789 165.359 206.594 165.562 206.449 165.83C206.308 166.094 206.237 166.414 206.237 166.79ZM215.682 171.143C214.984 171.143 214.382 170.994 213.877 170.695C213.376 170.394 212.988 169.971 212.714 169.426C212.443 168.878 212.308 168.236 212.308 167.501C212.308 166.774 212.443 166.134 212.714 165.58C212.988 165.026 213.369 164.594 213.859 164.283C214.351 163.972 214.927 163.817 215.585 163.817C215.985 163.817 216.373 163.883 216.749 164.015C217.124 164.148 217.461 164.355 217.76 164.638C218.058 164.922 218.294 165.289 218.466 165.742C218.638 166.191 218.725 166.737 218.725 167.381V167.87H213.088V166.836H217.372C217.372 166.473 217.298 166.151 217.15 165.871C217.003 165.588 216.795 165.365 216.527 165.202C216.262 165.039 215.952 164.957 215.595 164.957C215.207 164.957 214.868 165.052 214.579 165.243C214.293 165.431 214.071 165.677 213.914 165.982C213.76 166.283 213.683 166.611 213.683 166.965V167.773C213.683 168.247 213.766 168.65 213.933 168.983C214.102 169.315 214.337 169.569 214.639 169.744C214.941 169.917 215.293 170.003 215.696 170.003C215.958 170.003 216.196 169.966 216.412 169.892C216.627 169.815 216.813 169.701 216.97 169.55C217.127 169.4 217.247 169.213 217.33 168.992L218.637 169.227C218.532 169.612 218.344 169.949 218.074 170.238C217.806 170.525 217.469 170.748 217.063 170.908C216.659 171.065 216.199 171.143 215.682 171.143Z" fill="#444444"/>
<path d="M123.099 39H120.039V29.5455H123.196C124.123 29.5455 124.918 29.7347 125.583 30.1133C126.248 30.4888 126.757 31.0289 127.111 31.7337C127.468 32.4354 127.647 33.2771 127.647 34.2589C127.647 35.2437 127.467 36.0901 127.107 36.7979C126.75 37.5058 126.232 38.0505 125.555 38.4322C124.878 38.8107 124.06 39 123.099 39ZM121.465 37.7536H123.021C123.741 37.7536 124.34 37.6181 124.817 37.3473C125.294 37.0734 125.651 36.6779 125.888 36.1609C126.125 35.6407 126.243 35.0067 126.243 34.2589C126.243 33.5172 126.125 32.8878 125.888 32.3707C125.654 31.8537 125.305 31.4613 124.84 31.1935C124.375 30.9258 123.798 30.7919 123.109 30.7919H121.465V37.7536ZM131.373 39.157C130.924 39.157 130.518 39.0739 130.155 38.9077C129.791 38.7384 129.504 38.4937 129.291 38.1737C129.082 37.8536 128.977 37.4612 128.977 36.9964C128.977 36.5964 129.054 36.267 129.208 36.0085C129.362 35.75 129.57 35.5453 129.831 35.3945C130.093 35.2437 130.385 35.1299 130.709 35.0529C131.032 34.976 131.361 34.9175 131.696 34.8775C132.121 34.8282 132.466 34.7882 132.731 34.7575C132.995 34.7236 133.188 34.6697 133.308 34.5959C133.428 34.522 133.488 34.402 133.488 34.2358V34.2035C133.488 33.8003 133.374 33.4879 133.146 33.2663C132.921 33.0447 132.586 32.9339 132.14 32.9339C131.675 32.9339 131.309 33.037 131.041 33.2433C130.776 33.4464 130.593 33.6726 130.492 33.9219L129.194 33.6264C129.348 33.1955 129.573 32.8478 129.868 32.5831C130.167 32.3153 130.51 32.1214 130.898 32.0014C131.286 31.8783 131.693 31.8168 132.121 31.8168C132.404 31.8168 132.704 31.8506 133.021 31.9183C133.341 31.983 133.64 32.103 133.917 32.2784C134.197 32.4538 134.426 32.7047 134.605 33.0309C134.783 33.354 134.873 33.7741 134.873 34.2912V39H133.525V38.0305H133.469C133.38 38.209 133.246 38.3845 133.068 38.5568C132.889 38.7292 132.66 38.8723 132.38 38.9862C132.1 39.1 131.764 39.157 131.373 39.157ZM131.673 38.049C132.055 38.049 132.381 37.9736 132.652 37.8228C132.926 37.672 133.134 37.475 133.275 37.2319C133.42 36.9857 133.492 36.7225 133.492 36.4425V35.5284C133.443 35.5777 133.348 35.6238 133.206 35.6669C133.068 35.7069 132.909 35.7423 132.731 35.7731C132.552 35.8008 132.378 35.8269 132.209 35.8516C132.04 35.8731 131.898 35.8916 131.784 35.907C131.516 35.9408 131.272 35.9978 131.05 36.0778C130.832 36.1578 130.656 36.2732 130.524 36.424C130.395 36.5717 130.33 36.7687 130.33 37.0149C130.33 37.3565 130.456 37.6151 130.709 37.7905C130.961 37.9628 131.283 38.049 131.673 38.049ZM140.021 31.9091V33.017H136.148V31.9091H140.021ZM137.187 30.2102H138.567V36.918C138.567 37.1857 138.607 37.3873 138.687 37.5227C138.767 37.6551 138.87 37.7459 138.996 37.7951C139.126 37.8413 139.266 37.8643 139.416 37.8643C139.527 37.8643 139.624 37.8567 139.707 37.8413C139.79 37.8259 139.855 37.8136 139.901 37.8043L140.15 38.9446C140.07 38.9754 139.956 39.0062 139.809 39.0369C139.661 39.0708 139.476 39.0893 139.255 39.0923C138.892 39.0985 138.553 39.0339 138.239 38.8984C137.925 38.763 137.671 38.5537 137.477 38.2706C137.284 37.9875 137.187 37.632 137.187 37.2042V30.2102ZM143.612 39.157C143.162 39.157 142.756 39.0739 142.393 38.9077C142.03 38.7384 141.742 38.4937 141.53 38.1737C141.32 37.8536 141.216 37.4612 141.216 36.9964C141.216 36.5964 141.293 36.267 141.446 36.0085C141.6 35.75 141.808 35.5453 142.07 35.3945C142.331 35.2437 142.624 35.1299 142.947 35.0529C143.27 34.976 143.599 34.9175 143.935 34.8775C144.359 34.8282 144.704 34.7882 144.969 34.7575C145.234 34.7236 145.426 34.6697 145.546 34.5959C145.666 34.522 145.726 34.402 145.726 34.2358V34.2035C145.726 33.8003 145.612 33.4879 145.384 33.2663C145.16 33.0447 144.824 32.9339 144.378 32.9339C143.913 32.9339 143.547 33.037 143.279 33.2433C143.015 33.4464 142.831 33.6726 142.73 33.9219L141.433 33.6264C141.586 33.1955 141.811 32.8478 142.107 32.5831C142.405 32.3153 142.748 32.1214 143.136 32.0014C143.524 31.8783 143.932 31.8168 144.359 31.8168C144.643 31.8168 144.943 31.8506 145.26 31.9183C145.58 31.983 145.878 32.103 146.155 32.2784C146.435 32.4538 146.665 32.7047 146.843 33.0309C147.022 33.354 147.111 33.7741 147.111 34.2912V39H145.763V38.0305H145.707C145.618 38.209 145.484 38.3845 145.306 38.5568C145.127 38.7292 144.898 38.8723 144.618 38.9862C144.338 39.1 144.002 39.157 143.612 39.157ZM143.912 38.049C144.293 38.049 144.62 37.9736 144.89 37.8228C145.164 37.672 145.372 37.475 145.514 37.2319C145.658 36.9857 145.731 36.7225 145.731 36.4425V35.5284C145.681 35.5777 145.586 35.6238 145.444 35.6669C145.306 35.7069 145.147 35.7423 144.969 35.7731C144.79 35.8008 144.616 35.8269 144.447 35.8516C144.278 35.8731 144.136 35.8916 144.022 35.907C143.755 35.9408 143.51 35.9978 143.288 36.0778C143.07 36.1578 142.895 36.2732 142.762 36.424C142.633 36.5717 142.568 36.7687 142.568 37.0149C142.568 37.3565 142.694 37.6151 142.947 37.7905C143.199 37.9628 143.521 38.049 143.912 38.049ZM155.764 31.9091V33.017H151.757V31.9091H155.764ZM152.856 39V31.0874C152.856 30.6442 152.953 30.2764 153.147 29.984C153.341 29.6886 153.598 29.4685 153.918 29.3239C154.238 29.1761 154.586 29.1023 154.961 29.1023C155.238 29.1023 155.475 29.1254 155.672 29.1715C155.869 29.2146 156.015 29.2546 156.111 29.2915L155.788 30.4087C155.723 30.3903 155.64 30.3687 155.538 30.3441C155.437 30.3164 155.314 30.3026 155.169 30.3026C154.833 30.3026 154.593 30.3857 154.449 30.5518C154.307 30.718 154.236 30.9581 154.236 31.272V39H152.856ZM157.189 39V31.9091H158.569V39H157.189ZM157.886 30.815C157.646 30.815 157.439 30.735 157.267 30.5749C157.098 30.4118 157.013 30.2179 157.013 29.9933C157.013 29.7655 157.098 29.5716 157.267 29.4116C157.439 29.2485 157.646 29.1669 157.886 29.1669C158.126 29.1669 158.33 29.2485 158.5 29.4116C158.672 29.5716 158.758 29.7655 158.758 29.9933C158.758 30.2179 158.672 30.4118 158.5 30.5749C158.33 30.735 158.126 30.815 157.886 30.815ZM161.806 29.5455V39H160.426V29.5455H161.806ZM166.973 31.9091V33.017H163.1V31.9091H166.973ZM164.139 30.2102H165.519V36.918C165.519 37.1857 165.559 37.3873 165.639 37.5227C165.719 37.6551 165.822 37.7459 165.948 37.7951C166.078 37.8413 166.218 37.8643 166.369 37.8643C166.479 37.8643 166.576 37.8567 166.659 37.8413C166.742 37.8259 166.807 37.8136 166.853 37.8043L167.103 38.9446C167.023 38.9754 166.909 39.0062 166.761 39.0369C166.613 39.0708 166.429 39.0893 166.207 39.0923C165.844 39.0985 165.505 39.0339 165.191 38.8984C164.877 38.763 164.623 38.5537 164.43 38.2706C164.236 37.9875 164.139 37.632 164.139 37.2042V30.2102ZM171.48 39.1431C170.781 39.1431 170.18 38.9938 169.675 38.6953C169.173 38.3937 168.786 37.9705 168.512 37.4258C168.241 36.878 168.105 36.2363 168.105 35.5007C168.105 34.7744 168.241 34.1342 168.512 33.5803C168.786 33.0263 169.167 32.5939 169.657 32.283C170.149 31.9722 170.725 31.8168 171.383 31.8168C171.783 31.8168 172.171 31.8829 172.547 32.0153C172.922 32.1476 173.259 32.3554 173.558 32.6385C173.856 32.9216 174.092 33.2894 174.264 33.7418C174.436 34.1912 174.522 34.7375 174.522 35.3807V35.87H168.886V34.8359H173.17C173.17 34.4728 173.096 34.1512 172.948 33.8711C172.8 33.5879 172.593 33.3648 172.325 33.2017C172.06 33.0386 171.749 32.957 171.392 32.957C171.005 32.957 170.666 33.0524 170.377 33.2433C170.091 33.431 169.869 33.6772 169.712 33.9819C169.558 34.2835 169.481 34.6113 169.481 34.9652V35.7731C169.481 36.247 169.564 36.6502 169.73 36.9826C169.9 37.315 170.135 37.5689 170.437 37.7443C170.738 37.9167 171.091 38.0028 171.494 38.0028C171.756 38.0028 171.994 37.9659 172.21 37.892C172.425 37.8151 172.611 37.7012 172.768 37.5504C172.925 37.3996 173.045 37.2134 173.128 36.9918L174.435 37.2273C174.33 37.612 174.142 37.949 173.871 38.2383C173.604 38.5245 173.267 38.7476 172.86 38.9077C172.457 39.0646 171.997 39.1431 171.48 39.1431ZM176.054 39V31.9091H177.388V33.0355H177.462C177.591 32.6539 177.819 32.3538 178.145 32.1353C178.474 31.9137 178.847 31.8029 179.262 31.8029C179.349 31.8029 179.45 31.806 179.567 31.8121C179.687 31.8183 179.781 31.826 179.849 31.8352V33.1555C179.793 33.1402 179.695 33.1232 179.553 33.1048C179.412 33.0832 179.27 33.0724 179.128 33.0724C178.802 33.0724 178.511 33.1417 178.256 33.2802C178.004 33.4156 177.804 33.6049 177.656 33.848C177.508 34.0881 177.434 34.362 177.434 34.6697V39H176.054ZM183.043 39.157C182.594 39.157 182.188 39.0739 181.824 38.9077C181.461 38.7384 181.174 38.4937 180.961 38.1737C180.752 37.8536 180.647 37.4612 180.647 36.9964C180.647 36.5964 180.724 36.267 180.878 36.0085C181.032 35.75 181.24 35.5453 181.501 35.3945C181.763 35.2437 182.055 35.1299 182.378 35.0529C182.702 34.976 183.031 34.9175 183.366 34.8775C183.791 34.8282 184.136 34.7882 184.4 34.7575C184.665 34.7236 184.858 34.6697 184.978 34.5959C185.098 34.522 185.158 34.402 185.158 34.2358V34.2035C185.158 33.8003 185.044 33.4879 184.816 33.2663C184.591 33.0447 184.256 32.9339 183.81 32.9339C183.345 32.9339 182.979 33.037 182.711 33.2433C182.446 33.4464 182.263 33.6726 182.161 33.9219L180.864 33.6264C181.018 33.1955 181.243 32.8478 181.538 32.5831C181.837 32.3153 182.18 32.1214 182.568 32.0014C182.956 31.8783 183.363 31.8168 183.791 31.8168C184.074 31.8168 184.374 31.8506 184.691 31.9183C185.011 31.983 185.31 32.103 185.587 32.2784C185.867 32.4538 186.096 32.7047 186.275 33.0309C186.453 33.354 186.543 33.7741 186.543 34.2912V39H185.195V38.0305H185.139C185.05 38.209 184.916 38.3845 184.737 38.5568C184.559 38.7292 184.33 38.8723 184.05 38.9862C183.77 39.1 183.434 39.157 183.043 39.157ZM183.343 38.049C183.725 38.049 184.051 37.9736 184.322 37.8228C184.596 37.672 184.804 37.475 184.945 37.2319C185.09 36.9857 185.162 36.7225 185.162 36.4425V35.5284C185.113 35.5777 185.018 35.6238 184.876 35.6669C184.737 35.7069 184.579 35.7423 184.4 35.7731C184.222 35.8008 184.048 35.8269 183.879 35.8516C183.71 35.8731 183.568 35.8916 183.454 35.907C183.186 35.9408 182.942 35.9978 182.72 36.0778C182.502 36.1578 182.326 36.2732 182.194 36.424C182.065 36.5717 182 36.7687 182 37.0149C182 37.3565 182.126 37.6151 182.378 37.7905C182.631 37.9628 182.952 38.049 183.343 38.049ZM191.691 31.9091V33.017H187.818V31.9091H191.691ZM188.857 30.2102H190.237V36.918C190.237 37.1857 190.277 37.3873 190.357 37.5227C190.437 37.6551 190.54 37.7459 190.666 37.7951C190.795 37.8413 190.935 37.8643 191.086 37.8643C191.197 37.8643 191.294 37.8567 191.377 37.8413C191.46 37.8259 191.525 37.8136 191.571 37.8043L191.82 38.9446C191.74 38.9754 191.626 39.0062 191.479 39.0369C191.331 39.0708 191.146 39.0893 190.925 39.0923C190.562 39.0985 190.223 39.0339 189.909 38.8984C189.595 38.763 189.341 38.5537 189.147 38.2706C188.953 37.9875 188.857 37.632 188.857 37.2042V30.2102ZM193.218 39V31.9091H194.598V39H193.218ZM193.915 30.815C193.675 30.815 193.469 30.735 193.296 30.5749C193.127 30.4118 193.043 30.2179 193.043 29.9933C193.043 29.7655 193.127 29.5716 193.296 29.4116C193.469 29.2485 193.675 29.1669 193.915 29.1669C194.155 29.1669 194.36 29.2485 194.529 29.4116C194.701 29.5716 194.788 29.7655 194.788 29.9933C194.788 30.2179 194.701 30.4118 194.529 30.5749C194.36 30.735 194.155 30.815 193.915 30.815ZM199.442 39.1431C198.777 39.1431 198.197 38.9908 197.702 38.6861C197.206 38.3814 196.821 37.9551 196.548 37.4073C196.274 36.8595 196.137 36.2193 196.137 35.4869C196.137 34.7513 196.274 34.1081 196.548 33.5572C196.821 33.0063 197.206 32.5785 197.702 32.2738C198.197 31.9691 198.777 31.8168 199.442 31.8168C200.107 31.8168 200.687 31.9691 201.183 32.2738C201.678 32.5785 202.063 33.0063 202.337 33.5572C202.611 34.1081 202.748 34.7513 202.748 35.4869C202.748 36.2193 202.611 36.8595 202.337 37.4073C202.063 37.9551 201.678 38.3814 201.183 38.6861C200.687 38.9908 200.107 39.1431 199.442 39.1431ZM199.447 37.9844C199.878 37.9844 200.235 37.8705 200.518 37.6428C200.801 37.415 201.01 37.1119 201.146 36.7333C201.284 36.3548 201.353 35.9377 201.353 35.4822C201.353 35.0298 201.284 34.6143 201.146 34.2358C201.01 33.8542 200.801 33.5479 200.518 33.3171C200.235 33.0863 199.878 32.9709 199.447 32.9709C199.013 32.9709 198.653 33.0863 198.366 33.3171C198.083 33.5479 197.873 33.8542 197.734 34.2358C197.599 34.6143 197.531 35.0298 197.531 35.4822C197.531 35.9377 197.599 36.3548 197.734 36.7333C197.873 37.1119 198.083 37.415 198.366 37.6428C198.653 37.8705 199.013 37.9844 199.447 37.9844ZM205.669 34.7898V39H204.288V31.9091H205.613V33.0632H205.701C205.864 32.6877 206.119 32.3861 206.467 32.1584C206.818 31.9306 207.26 31.8168 207.792 31.8168C208.275 31.8168 208.699 31.9183 209.062 32.1214C209.425 32.3215 209.706 32.62 209.907 33.017C210.107 33.4141 210.207 33.9049 210.207 34.4897V39H208.826V34.6559C208.826 34.1419 208.692 33.7403 208.425 33.451C208.157 33.1586 207.789 33.0124 207.321 33.0124C207.001 33.0124 206.717 33.0817 206.467 33.2202C206.221 33.3587 206.026 33.5618 205.881 33.8295C205.739 34.0942 205.669 34.4143 205.669 34.7898Z" fill="#444444"/>
<defs>
<filter id="filter0_d_317_995" x="46" y="64" width="86" height="86" filterUnits="userSpaceOnUse" color-interpolation-filters="sRGB">
<feFlood flood-opacity="0" result="BackgroundImageFix"/>
<feColorMatrix in="SourceAlpha" type="matrix" values="0 0 0 0 0 0 0 0 0 0 0 0 0 0 0 0 0 0 127 0" result="hardAlpha"/>
<feOffset dy="4"/>
<feGaussianBlur stdDeviation="7"/>
<feComposite in2="hardAlpha" operator="out"/>
<feColorMatrix type="matrix" values="0 0 0 0 0.282353 0 0 0 0 0.0470588 0 0 0 0 0.658824 0 0 0 0.15 0"/>
<feBlend mode="normal" in2="BackgroundImageFix" result="effect1_dropShadow_317_995"/>
<feBlend mode="normal" in="SourceGraphic" in2="effect1_dropShadow_317_995" result="shape"/>
</filter>
<filter id="filter1_d_317_995" x="214" y="64" width="86" height="86" filterUnits="userSpaceOnUse" color-interpolation-filters="sRGB">
<feFlood flood-opacity="0" result="BackgroundImageFix"/>
<feColorMatrix in="SourceAlpha" type="matrix" values="0 0 0 0 0 0 0 0 0 0 0 0 0 0 0 0 0 0 127 0" result="hardAlpha"/>
<feOffset dy="4"/>
<feGaussianBlur stdDeviation="7"/>
<feComposite in2="hardAlpha" operator="out"/>
<feColorMatrix type="matrix" values="0 0 0 0 0.282353 0 0 0 0 0.0470588 0 0 0 0 0.658824 0 0 0 0.15 0"/>
<feBlend mode="normal" in2="BackgroundImageFix" result="effect1_dropShadow_317_995"/>
<feBlend mode="normal" in="SourceGraphic" in2="effect1_dropShadow_317_995" result="shape"/>
</filter>
<filter id="filter2_d_317_995" x="40" y="58" width="98" height="98" filterUnits="userSpaceOnUse" color-interpolation-filters="sRGB">
<feFlood flood-opacity="0" result="BackgroundImageFix"/>
<feColorMatrix in="SourceAlpha" type="matrix" values="0 0 0 0 0 0 0 0 0 0 0 0 0 0 0 0 0 0 127 0" result="hardAlpha"/>
<feOffset dy="4"/>
<feGaussianBlur stdDeviation="7"/>
<feComposite in2="hardAlpha" operator="out"/>
<feColorMatrix type="matrix" values="0 0 0 0 0 0 0 0 0 0 0 0 0 0 0 0 0 0 0.15 0"/>
<feBlend mode="normal" in2="BackgroundImageFix" result="effect1_dropShadow_317_995"/>
<feBlend mode="normal" in="SourceGraphic" in2="effect1_dropShadow_317_995" result="shape"/>
</filter>
<filter id="filter3_d_317_995" x="208" y="58" width="98" height="98" filterUnits="userSpaceOnUse" color-interpolation-filters="sRGB">
<feFlood flood-opacity="0" result="BackgroundImageFix"/>
<feColorMatrix in="SourceAlpha" type="matrix" values="0 0 0 0 0 0 0 0 0 0 0 0 0 0 0 0 0 0 127 0" result="hardAlpha"/>
<feOffset dy="4"/>
<feGaussianBlur stdDeviation="7"/>
<feComposite in2="hardAlpha" operator="out"/>
<feColorMatrix type="matrix" values="0 0 0 0 0 0 0 0 0 0 0 0 0 0 0 0 0 0 0.15 0"/>
<feBlend mode="normal" in2="BackgroundImageFix" result="effect1_dropShadow_317_995"/>
<feBlend mode="normal" in="SourceGraphic" in2="effect1_dropShadow_317_995" result="shape"/>
</filter>
<filter id="filter4_d_317_995" x="34" y="52" width="110" height="110" filterUnits="userSpaceOnUse" color-interpolation-filters="sRGB">
<feFlood flood-opacity="0" result="BackgroundImageFix"/>
<feColorMatrix in="SourceAlpha" type="matrix" values="0 0 0 0 0 0 0 0 0 0 0 0 0 0 0 0 0 0 127 0" result="hardAlpha"/>
<feOffset dy="4"/>
<feGaussianBlur stdDeviation="7"/>
<feComposite in2="hardAlpha" operator="out"/>
<feColorMatrix type="matrix" values="0 0 0 0 0 0 0 0 0 0 0 0 0 0 0 0 0 0 0.15 0"/>
<feBlend mode="normal" in2="BackgroundImageFix" result="effect1_dropShadow_317_995"/>
<feBlend mode="normal" in="SourceGraphic" in2="effect1_dropShadow_317_995" result="shape"/>
</filter>
<filter id="filter5_d_317_995" x="202" y="52" width="110" height="110" filterUnits="userSpaceOnUse" color-interpolation-filters="sRGB">
<feFlood flood-opacity="0" result="BackgroundImageFix"/>
<feColorMatrix in="SourceAlpha" type="matrix" values="0 0 0 0 0 0 0 0 0 0 0 0 0 0 0 0 0 0 127 0" result="hardAlpha"/>
<feOffset dy="4"/>
<feGaussianBlur stdDeviation="7"/>
<feComposite in2="hardAlpha" operator="out"/>
<feColorMatrix type="matrix" values="0 0 0 0 0 0 0 0 0 0 0 0 0 0 0 0 0 0 0.15 0"/>
<feBlend mode="normal" in2="BackgroundImageFix" result="effect1_dropShadow_317_995"/>
<feBlend mode="normal" in="SourceGraphic" in2="effect1_dropShadow_317_995" result="shape"/>
</filter>
<linearGradient id="paint0_linear_317_995" x1="19.5" y1="1.45712e-05" x2="349.353" y2="109.85" gradientUnits="userSpaceOnUse">
<stop stop-color="#7AB8FF"/>
<stop offset="0.525043" stop-color="#FEFEFE"/>
<stop offset="1" stop-color="#8CC1FE"/>
</linearGradient>
<linearGradient id="paint1_linear_317_995" x1="33.6593" y1="18" x2="326.683" y2="124.658" gradientUnits="userSpaceOnUse">
<stop stop-color="#7AB8FF"/>
<stop offset="0.525043" stop-color="#FEFEFE"/>
<stop offset="1" stop-color="#8CC1FE"/>
</linearGradient>
<linearGradient id="paint2_linear_317_995" x1="50.4159" y1="41" x2="294.556" y2="146.454" gradientUnits="userSpaceOnUse">
<stop stop-color="#7AB8FF"/>
<stop offset="0.525043" stop-color="#FEFEFE"/>
<stop offset="1" stop-color="#8CC1FE"/>
</linearGradient>
<linearGradient id="paint3_linear_317_995" x1="58.0265" y1="68" x2="130.603" y2="82.9726" gradientUnits="userSpaceOnUse">
<stop stop-color="#7AB8FF"/>
<stop offset="0.525043" stop-color="#FEFEFE"/>
<stop offset="1" stop-color="#8CC1FE"/>
</linearGradient>
<linearGradient id="paint4_linear_317_995" x1="226.027" y1="68" x2="298.603" y2="82.9726" gradientUnits="userSpaceOnUse">
<stop stop-color="#7AB8FF"/>
<stop offset="0.525043" stop-color="#FEFEFE"/>
<stop offset="1" stop-color="#8CC1FE"/>
</linearGradient>
<linearGradient id="paint5_linear_317_995" x1="52.7168" y1="62" x2="137.735" y2="79.5393" gradientUnits="userSpaceOnUse">
<stop stop-color="#7AB8FF"/>
<stop offset="0.525043" stop-color="#FEFEFE"/>
<stop offset="1" stop-color="#8CC1FE"/>
</linearGradient>
<linearGradient id="paint6_linear_317_995" x1="220.717" y1="62" x2="305.735" y2="79.5393" gradientUnits="userSpaceOnUse">
<stop stop-color="#7AB8FF"/>
<stop offset="0.525043" stop-color="#FEFEFE"/>
<stop offset="1" stop-color="#8CC1FE"/>
</linearGradient>
<linearGradient id="paint7_linear_317_995" x1="138.5" y1="130" x2="138.5" y2="78" gradientUnits="userSpaceOnUse">
<stop stop-color="#04FED1" stop-opacity="0.5"/>
<stop offset="1" stop-color="#0044CC" stop-opacity="0.7"/>
</linearGradient>
<linearGradient id="paint8_linear_317_995" x1="178.5" y1="125" x2="178.5" y2="81" gradientUnits="userSpaceOnUse">
<stop stop-color="#04FED1" stop-opacity="0.5"/>
<stop offset="1" stop-color="#0044CC" stop-opacity="0.7"/>
</linearGradient>
<linearGradient id="paint9_linear_317_995" x1="161.5" y1="69" x2="161.5" y2="118" gradientUnits="userSpaceOnUse">
<stop stop-color="#04FED1" stop-opacity="0.5"/>
<stop offset="1" stop-color="#0044CC" stop-opacity="0.7"/>
</linearGradient>
<linearGradient id="paint10_linear_317_995" x1="201.5" y1="74" x2="201.5" y2="115" gradientUnits="userSpaceOnUse">
<stop stop-color="#04FED1" stop-opacity="0.5"/>
<stop offset="1" stop-color="#0044CC" stop-opacity="0.7"/>
</linearGradient>
<linearGradient id="paint11_linear_317_995" x1="145.5" y1="72" x2="145.5" y2="117" gradientUnits="userSpaceOnUse">
<stop stop-color="#04FED1" stop-opacity="0.5"/>
<stop offset="1" stop-color="#0044CC" stop-opacity="0.7"/>
</linearGradient>
<linearGradient id="paint12_linear_317_995" x1="185.5" y1="76" x2="185.5" y2="114" gradientUnits="userSpaceOnUse">
<stop stop-color="#04FED1" stop-opacity="0.5"/>
<stop offset="1" stop-color="#0044CC" stop-opacity="0.7"/>
</linearGradient>
<linearGradient id="paint13_linear_317_995" x1="153.5" y1="131" x2="153.5" y2="89" gradientUnits="userSpaceOnUse">
<stop stop-color="#04FED1" stop-opacity="0.5"/>
<stop offset="1" stop-color="#0044CC" stop-opacity="0.7"/>
</linearGradient>
<linearGradient id="paint14_linear_317_995" x1="193.5" y1="126" x2="193.5" y2="91" gradientUnits="userSpaceOnUse">
<stop stop-color="#04FED1" stop-opacity="0.5"/>
<stop offset="1" stop-color="#0044CC" stop-opacity="0.7"/>
</linearGradient>
<linearGradient id="paint15_linear_317_995" x1="169.5" y1="130" x2="169.5" y2="86" gradientUnits="userSpaceOnUse">
<stop stop-color="#04FED1" stop-opacity="0.5"/>
<stop offset="1" stop-color="#0044CC" stop-opacity="0.7"/>
</linearGradient>
<clipPath id="clip0_317_995">
<rect width="34" height="34" fill="white" transform="translate(71 87)"/>
</clipPath>
</defs>
</svg>
