<svg width="48" height="48" viewBox="0 0 48 48" fill="none" xmlns="http://www.w3.org/2000/svg">
<path fill-rule="evenodd" clip-rule="evenodd" d="M30 17.1C28.3357 16.2964 26.4665 16.0174 24.64 16.3V15.86V11.86C25.9184 11.8867 27.1831 12.1301 28.38 12.58C28.5206 12.6404 28.6794 12.6427 28.8218 12.5865C28.9642 12.5303 29.0785 12.4201 29.14 12.28C29.1693 12.2091 29.1843 12.1331 29.1841 12.0565C29.1838 11.9798 29.1684 11.9039 29.1386 11.8332C29.1088 11.7625 29.0654 11.6985 29.0107 11.6447C28.956 11.5909 28.8912 11.5485 28.82 11.52C27.4924 10.9249 26.071 10.5662 24.62 10.46V7.87999C24.62 7.72616 24.5589 7.57864 24.4501 7.46987C24.3414 7.36109 24.1938 7.29999 24.04 7.29999C23.8862 7.29999 23.7387 7.36109 23.6299 7.46987C23.5211 7.57864 23.46 7.72616 23.46 7.87999C23.36 8.73999 23.24 9.59999 23.14 10.46C21.7089 10.5467 20.3274 11.0164 19.14 11.82C18.3525 12.3538 17.6738 13.0325 17.14 13.82C16.8201 14.3176 16.6988 14.9172 16.8 15.5C16.9426 16.1846 17.2783 16.814 17.7674 17.3138C18.2566 17.8135 18.8786 18.1627 19.56 18.32C20.4481 18.5449 21.3654 18.6326 22.28 18.58V19.14C22.28 20.28 22.28 21.42 22.14 22.56C22 23.7 22.14 24.56 22.14 25.42H21.5C20.7122 25.3958 19.9285 25.2953 19.16 25.12C18.74 25.02 18.32 24.92 18.2 24.64C18.1298 24.4819 18.0003 24.3578 17.8395 24.2942C17.6787 24.2306 17.4993 24.2327 17.34 24.3C17.26 24.3326 17.1874 24.3811 17.1266 24.4425C17.0658 24.5039 17.0181 24.577 16.9863 24.6574C16.9546 24.7377 16.9394 24.8237 16.9418 24.9101C16.9441 24.9965 16.9639 25.0815 17 25.16C17.1326 25.4286 17.3178 25.6679 17.5445 25.8637C17.7712 26.0596 18.0349 26.2079 18.32 26.3C19.3075 26.6431 20.3368 26.8517 21.38 26.92H22V30.52C21.9946 30.6083 22.007 30.6968 22.0365 30.7802C22.066 30.8637 22.112 30.9403 22.1717 31.0056C22.2314 31.0709 22.3036 31.1235 22.3841 31.1604C22.4645 31.1972 22.5516 31.2175 22.64 31.22C22.8136 31.2203 22.9808 31.1542 23.1072 31.0352C23.2337 30.9162 23.3098 30.7533 23.32 30.58L23.68 26.86C25.3848 26.7211 27.041 26.2236 28.54 25.4C29.3816 24.9567 30.0923 24.3006 30.6011 23.4969C31.11 22.6933 31.3992 21.7703 31.44 20.82C31.5346 20.1287 31.4521 19.4248 31.2002 18.7741C30.9484 18.1234 30.5354 17.5474 30 17.1ZM20.2 16.28C19.8516 16.2177 19.5286 16.0563 19.2697 15.8151C19.0107 15.5739 18.8268 15.2631 18.74 14.92C18.74 14.66 18.9 14.44 19.1 14.2C19.4409 13.8139 19.8158 13.4592 20.22 13.14C21.0335 12.5053 21.9865 12.0734 23 11.88C22.84 13.16 22.68 14.44 22.56 15.74V16.4C21.7518 16.4763 20.9367 16.4359 20.14 16.28H20.2ZM27.68 23.86C26.5611 24.5639 25.3078 25.0271 24 25.22C24 24.38 24.18 23.54 24.24 22.68C24.3 21.82 24.44 20.42 24.52 19.28V18.5H26.28C27.98 18.5 29.48 18.74 29.48 20.9C29.4488 21.5112 29.2615 22.1043 28.9359 22.6225C28.6102 23.1407 28.1572 23.5667 27.62 23.86H27.68Z" fill="#04FED1"/>
<path fill-rule="evenodd" clip-rule="evenodd" d="M44 42.16C43.7898 41.1768 43.3359 40.2621 42.68 39.5C41.86 38.52 40.78 37.74 39.86 36.84L38.1 35.08C36.32 33.42 35.4 34.26 36.6 35.64C37.32 36.4 37.98 37.22 38.6 37.98C39.22 38.74 40.38 39.7 41.12 40.68C41.5271 41.2201 41.795 41.852 41.9 42.52C41.9321 43.0986 41.7838 43.6728 41.4758 44.1636C41.1677 44.6543 40.715 45.0374 40.18 45.26C39.694 45.5964 39.1233 45.7897 38.5329 45.818C37.9425 45.8463 37.356 45.7084 36.84 45.42C36.4065 45.0898 36.0226 44.6992 35.7 44.26C35.1638 43.4673 34.6827 42.6387 34.26 41.78C33.54 40.42 32.82 39.06 32.26 37.64C32.268 37.5736 32.268 37.5065 32.26 37.44C31.26 35.84 30.5 36.44 31.02 38C31.02 38.3 31.2 38.6 31.32 38.9C31.7733 40.14 32.2733 41.36 32.82 42.56C33.2039 43.532 33.6584 44.4745 34.18 45.38C34.5891 46.0503 35.11 46.6456 35.72 47.14C36.5696 47.6878 37.5591 47.9791 38.57 47.9791C39.5809 47.9791 40.5704 47.6878 41.42 47.14C42.3119 46.6783 43.0389 45.9515 43.5009 45.0598C43.9629 44.168 44.1372 43.155 44 42.16Z" fill="#04FED1"/>
<path fill-rule="evenodd" clip-rule="evenodd" d="M31.38 35.34C31.4466 35.2504 31.4825 35.1417 31.4825 35.03C31.4825 34.9184 31.4466 34.8097 31.38 34.72C31.3409 34.654 31.2891 34.5965 31.2276 34.5507C31.1661 34.5048 31.0961 34.4717 31.0217 34.4531C30.9473 34.4345 30.87 34.4308 30.7942 34.4423C30.7183 34.4538 30.6456 34.4802 30.58 34.52C29.9559 34.8782 29.2818 35.1411 28.58 35.3C27.455 35.557 26.3114 35.7242 25.16 35.8C22.2171 36.0573 19.2524 35.7241 16.44 34.82C13.6622 33.9598 11.1769 32.3468 9.26 30.16C7.6049 28.1206 6.50648 25.6872 6.07185 23.0969C5.63722 20.5066 5.8812 17.8479 6.78 15.38C7.56512 12.8808 8.86875 10.5754 10.6057 8.61443C12.3427 6.65347 14.4739 5.08108 16.86 4.00002C18.3274 3.37187 19.8554 2.89604 21.42 2.58002C22.9213 2.23959 24.466 2.13166 26 2.26002C30.1925 2.83645 33.9951 5.02474 36.6 8.36001C39.2689 11.7062 40.7217 15.8599 40.72 20.14C40.6964 21.8045 40.4885 23.4613 40.1 25.08C39.7294 26.6763 39.0499 28.1847 38.1 29.52C37.193 30.5586 36.203 31.5218 35.14 32.4C34.4835 32.9875 33.7331 33.4607 32.92 33.8C32.7532 33.8509 32.6133 33.9656 32.5309 34.1193C32.4485 34.2729 32.4302 34.4529 32.48 34.62C32.5033 34.6971 32.5419 34.7687 32.5934 34.8305C32.6449 34.8924 32.7084 34.9432 32.78 34.98C35.0432 33.5975 37.2083 32.0605 39.26 30.38C40.343 28.91 41.1185 27.2366 41.54 25.46C42.0087 23.7304 42.2705 21.9513 42.32 20.16C42.4283 15.4699 40.9167 10.8858 38.04 7.18002C35.2196 3.38024 31.0164 0.843929 26.34 0.120016C24.5594 -0.0856648 22.7576 -0.0114334 21 0.340016C19.2866 0.686914 17.6117 1.20277 16 1.88002C13.3128 3.09385 10.9172 4.86989 8.97473 7.08833C7.0323 9.30678 5.58825 11.916 4.74 14.74C3.78031 17.5433 3.57636 20.5501 4.14868 23.4573C4.72099 26.3645 6.04938 29.0696 8 31.3C10.1545 33.6683 12.9239 35.3923 16 36.28C19.0241 37.1554 22.1909 37.4272 25.32 37.08C26.5333 36.97 27.7366 36.7695 28.92 36.48C29.7754 36.1816 30.5993 35.7997 31.38 35.34Z" fill="#04FED1"/>
</svg>
