<svg width="48" height="48" viewBox="0 0 48 48" fill="none" xmlns="http://www.w3.org/2000/svg">
<g clip-path="url(#clip0_250_2855)">
<path d="M47.66 5.6C47.6406 4.61436 47.547 3.63158 47.38 2.66C47.3108 2.30383 47.1366 1.97649 46.88 1.72C46.6119 1.54148 46.3138 1.41275 46 1.34C44.5988 1.07935 43.1827 0.905686 41.76 0.82C36.24 0.36 27.18 0 23.54 0C22.46 0 14.26 0 8.2 0.2C6.41171 0.261382 4.6286 0.428339 2.86 0.7C2.24481 0.777149 1.65598 0.996249 1.14 1.34C0.924202 1.54983 0.765823 1.8115 0.68 2.1C0.436705 3.21817 0.296121 4.35624 0.26 5.5C0 10.14 0 18 0 19.74C0 21.48 0.26 28.98 0.52 33.52C0.52 34.98 0.68 36.12 0.76 36.66C0.777574 36.9351 0.874866 37.1992 1.04 37.42C1.61081 37.8853 2.30687 38.1707 3.04 38.24C4.46971 38.3841 5.91029 38.3841 7.34 38.24C8.88 38.1 10.2 37.98 11.34 37.98C14.42 37.98 14.16 38.72 14.26 39.1C14.488 40.2017 14.488 41.3383 14.26 42.44C13.9719 44.0509 13.2843 45.5638 12.26 46.84C12.1801 46.9593 12.1356 47.0987 12.1316 47.2422C12.1277 47.3857 12.1644 47.5274 12.2377 47.6509C12.3109 47.7743 12.4176 47.8745 12.5455 47.9399C12.6733 48.0052 12.817 48.033 12.96 48.02C13.7424 48.0111 14.5211 47.9104 15.28 47.72C17.2778 47.3508 19.1375 46.4451 20.66 45.1C21.4045 44.2675 22.0738 43.3707 22.66 42.42C23.66 40.84 24.26 39.38 24.82 38.58C25 38.58 25.48 38.44 25.96 38.44C29.26 38.44 37 38.78 39.76 39C41.2183 39.0992 42.6817 39.0992 44.14 39C44.9849 38.9872 45.8041 38.7071 46.48 38.2C47.1199 36.8006 47.4475 35.2787 47.44 33.74C48 28.54 48 19.72 48 18C48 16.28 47.88 9.52 47.66 5.6ZM45.66 31.72C45.6393 33.2455 45.5257 34.7683 45.32 36.28C45.32 36.52 45.18 36.8 45.16 36.9C45.0014 36.9681 44.8323 37.0087 44.66 37.02C44.1101 37.1006 43.5557 37.1474 43 37.16H40.08C37.66 37.02 31.46 36.8 27.68 36.82C26.7118 36.7993 25.7432 36.8394 24.78 36.94C24.4788 36.9603 24.1949 37.088 23.98 37.3C23.34 38.04 22.7 39.78 21.54 41.66C21.0015 42.5014 20.3782 43.2855 19.68 44C18.1476 45.352 16.2464 46.2155 14.22 46.48C15.0765 44.962 15.595 43.2769 15.74 41.54C16.2 36.22 13.06 36.54 11.48 36.52C10.32 36.52 8.94 36.52 7.34 36.74C6.20829 36.8259 5.07171 36.8259 3.94 36.74C3.33026 36.759 2.72741 36.6066 2.2 36.3L1.8 19.74C1.8 18.32 1.8 13.42 2.02 9.14C2.02 6.92 2.24 4.86 2.42 3.58C2.45673 3.29049 2.51016 3.00335 2.58 2.72C2.84 2.72 3.26 2.72 3.6 2.62C5.87824 2.37098 8.16819 2.24413 10.46 2.24C16.1 2.12 22.58 2.24 23.52 2.24C26.24 2.24 32.04 2.48 37.08 2.78C39.96 2.96 42.58 3.16 44.24 3.36L45.18 3.52C45.1932 3.75315 45.1932 3.98685 45.18 4.22C45.5 7.62 45.64 15.76 45.62 17.98C45.72 19.5 45.86 26.5 45.68 31.72H45.66Z" fill="url(#paint0_linear_250_2855)"/>
<path d="M38.54 11.6C37.14 11.48 33.22 11.2 28.64 11.02H24.4H20.16C16 11.16 12.28 11.46 10.16 11.66C10.0009 11.66 9.84825 11.7232 9.73573 11.8358C9.62321 11.9483 9.56 12.1009 9.56 12.26C9.56 12.4191 9.62321 12.5718 9.73573 12.6843C9.84825 12.7968 10.0009 12.86 10.16 12.86C12.16 12.86 15.92 13.1 20.04 13.22H24.26H28.5C33.04 13.22 36.96 12.98 38.36 13.02C38.5423 13.0255 38.7196 12.9596 38.8541 12.8363C38.9886 12.7131 39.0697 12.5422 39.08 12.36C39.099 12.1891 39.0545 12.0172 38.9549 11.877C38.8553 11.7369 38.7076 11.6383 38.54 11.6Z" fill="url(#paint1_linear_250_2855)"/>
<path d="M38 19.02H28.36H24.24C22.86 19.02 21.46 19.02 20.12 19.18C15.44 19.44 11.56 19.78 10.56 19.8C10.4009 19.8 10.2483 19.8632 10.1357 19.9758C10.0232 20.0883 9.96001 20.2409 9.96001 20.4C9.96001 20.5591 10.0232 20.7118 10.1357 20.8243C10.2483 20.9368 10.4009 21 10.56 21C11.58 21 15.5 21.32 20.24 21.36H24.36C25.76 21.36 27.14 21.26 28.5 21.18C32.3 20.96 35.84 20.64 38.12 20.44C38.3004 20.44 38.4733 20.3684 38.6008 20.2409C38.7284 20.1133 38.8 19.9404 38.8 19.76C38.8 19.5797 38.7284 19.4067 38.6008 19.2792C38.4733 19.1517 38.3004 19.08 38.12 19.08L38 19.02Z" fill="url(#paint2_linear_250_2855)"/>
<path d="M24.6 26.68C23.76 26.68 21.8 26.48 19.54 26.46H17.4C16.68 26.46 15.94 26.46 15.26 26.62C13.14 26.86 11.26 27.2 10.3 27.28C10.1409 27.28 9.98826 27.3432 9.87573 27.4558C9.76321 27.5683 9.7 27.7209 9.7 27.88C9.7 28.0392 9.76321 28.1918 9.87573 28.3043C9.98826 28.4168 10.1409 28.48 10.3 28.48C12.2252 28.7041 14.1618 28.8176 16.1 28.82C17.24 28.82 18.42 28.82 19.52 28.6C21.8 28.38 23.76 28.06 24.62 28C24.8003 28 24.9733 27.9284 25.1008 27.8009C25.2284 27.6733 25.3 27.5004 25.3 27.32C25.2975 27.2316 25.2772 27.1445 25.2404 27.0641C25.2035 26.9836 25.1509 26.9114 25.0856 26.8517C25.0203 26.792 24.9437 26.746 24.8602 26.7165C24.7768 26.687 24.6883 26.6746 24.6 26.68Z" fill="url(#paint3_linear_250_2855)"/>
</g>
<defs>
<linearGradient id="paint0_linear_250_2855" x1="24" y1="0" x2="24" y2="48.0231" gradientUnits="userSpaceOnUse">
<stop stop-color="#01FFD1"/>
<stop offset="1" stop-color="#44E4E6"/>
</linearGradient>
<linearGradient id="paint1_linear_250_2855" x1="24.3222" y1="11.02" x2="24.3222" y2="13.22" gradientUnits="userSpaceOnUse">
<stop stop-color="#01FFD1"/>
<stop offset="1" stop-color="#44E4E6"/>
</linearGradient>
<linearGradient id="paint2_linear_250_2855" x1="24.38" y1="19.02" x2="24.38" y2="21.36" gradientUnits="userSpaceOnUse">
<stop stop-color="#01FFD1"/>
<stop offset="1" stop-color="#44E4E6"/>
</linearGradient>
<linearGradient id="paint3_linear_250_2855" x1="17.5" y1="26.46" x2="17.5" y2="28.82" gradientUnits="userSpaceOnUse">
<stop stop-color="#01FFD1"/>
<stop offset="1" stop-color="#44E4E6"/>
</linearGradient>
<clipPath id="clip0_250_2855">
<rect width="48" height="48" fill="white"/>
</clipPath>
</defs>
</svg>
