<svg width="49" height="49" viewBox="0 0 49 49" fill="none" xmlns="http://www.w3.org/2000/svg">
<g clip-path="url(#clip0_250_3650)">
<path fill-rule="evenodd" clip-rule="evenodd" d="M39.5574 8.02807C39.3974 4.36807 35.7774 4.88807 34.6174 5.60807C34.0538 5.99865 33.6104 6.53897 33.3374 7.16807C33.1263 7.68551 33.0725 8.25374 33.1828 8.80162C33.293 9.34949 33.5625 9.85265 33.9574 10.2481C34.2996 10.6459 34.723 10.9659 35.199 11.1866C35.675 11.4074 36.1927 11.5238 36.7174 11.5281C37.5424 11.4047 38.2913 10.977 38.8168 10.3293C39.3424 9.68164 39.6066 8.86073 39.5574 8.02807ZM36.5574 9.02807C36.3939 9.01092 36.2355 8.96141 36.0912 8.88244C35.947 8.80347 35.82 8.69661 35.7174 8.56807C35.528 8.43264 35.3821 8.24501 35.2974 8.02807C35.2974 8.02807 35.1774 7.90807 35.1974 7.84807C35.2449 7.47335 35.3974 7.1197 35.6374 6.82807C35.7813 6.66907 35.9692 6.55647 36.1773 6.50463C36.3853 6.4528 36.6041 6.46406 36.8057 6.53699C37.0073 6.60992 37.1827 6.74121 37.3095 6.91415C37.4362 7.08709 37.5086 7.29384 37.5174 7.50807C37.6174 8.20807 37.2774 9.04807 36.5574 9.02807Z" fill="url(#paint0_linear_250_3650)"/>
<path fill-rule="evenodd" clip-rule="evenodd" d="M22.9792 11.8682C23.1318 11.8428 23.28 11.7956 23.4192 11.7282C25.2192 10.8482 25.0592 10.6282 25.0592 10.4682C25.0592 9.64821 23.1792 9.38821 23.0592 9.36821C22.8671 9.33755 22.6713 9.33755 22.4792 9.36821C22.2948 9.41205 22.1191 9.48641 21.9592 9.58821C20.2592 10.5482 20.2992 10.8882 20.3792 11.2482C20.4392 12.0282 22.8592 11.8682 22.9792 11.8682Z" fill="url(#paint1_linear_250_3650)"/>
<path fill-rule="evenodd" clip-rule="evenodd" d="M15.2778 14.2878C15.3976 14.2187 15.5057 14.1309 15.5978 14.0278C16.8778 12.6278 16.6378 12.4077 16.5778 12.2677C16.2978 11.5677 14.4178 12.0278 14.3778 12.0278C14.1987 12.0788 14.0296 12.1599 13.8778 12.2677C13.7304 12.3788 13.5962 12.5062 13.4778 12.6477C12.1978 14.3277 12.6978 14.6478 12.8178 14.8278C13.2378 15.2278 15.2378 14.3078 15.2778 14.2878Z" fill="url(#paint2_linear_250_3650)"/>
<path fill-rule="evenodd" clip-rule="evenodd" d="M7.69756 22.6679C8.15756 22.8279 8.37756 22.6679 9.49756 21.2279C9.60242 21.0889 9.69605 20.9418 9.77756 20.7879C9.87307 20.6343 9.94077 20.465 9.97756 20.2879C10.4976 18.2879 10.0976 18.1279 9.97756 18.0279C9.41756 17.6879 7.97756 19.0079 7.97756 19.1679C7.84818 19.3189 7.74048 19.4872 7.65756 19.6679C7.56437 19.8511 7.49706 20.0462 7.45756 20.2479C6.97756 22.5079 7.51756 22.6079 7.69756 22.6679Z" fill="url(#paint3_linear_250_3650)"/>
<path fill-rule="evenodd" clip-rule="evenodd" d="M7.6783 29.8479C7.69828 29.6685 7.69828 29.4874 7.6783 29.3079C7.65729 29.1373 7.61703 28.9695 7.5583 28.8079C6.8583 26.8079 6.4983 26.9479 6.3183 26.9479C5.6783 26.9479 5.2583 28.6279 5.1983 28.9479C5.16821 29.1535 5.16821 29.3623 5.1983 29.5679C5.2371 29.7672 5.29745 29.9617 5.3783 30.1479C6.2383 32.2679 6.7583 32.0079 6.9383 31.9679C7.1183 31.9279 7.5583 31.8879 7.6783 29.8479Z" fill="url(#paint4_linear_250_3650)"/>
<path fill-rule="evenodd" clip-rule="evenodd" d="M9.39925 36.8277C9.35683 36.7017 9.28873 36.5859 9.19925 36.4877C7.95925 35.0077 7.59925 35.3477 7.55925 35.3477C6.91925 35.5477 6.99925 37.3477 6.99925 37.3477C7.0027 37.5172 7.051 37.6828 7.13925 37.8277C7.20884 37.9821 7.30345 38.124 7.41925 38.2477C8.67925 39.5477 9.11925 39.3877 9.41925 39.2077C9.71925 39.0277 9.41925 36.8677 9.39925 36.8277Z" fill="url(#paint5_linear_250_3650)"/>
<path fill-rule="evenodd" clip-rule="evenodd" d="M14.0989 43.2278C13.8744 42.9881 13.6188 42.7796 13.3389 42.6078C13.3389 42.6078 11.1789 41.5078 10.7389 42.0278C10.2989 42.5478 11.6389 44.2678 11.6789 44.2878C11.8183 44.4672 11.9795 44.6285 12.1589 44.7678C12.3501 44.8961 12.5506 45.0098 12.7589 45.1078C15.0189 46.1078 15.2789 45.4678 15.3789 45.2678C15.4789 45.0678 15.6189 44.7478 14.0989 43.2278Z" fill="url(#paint6_linear_250_3650)"/>
<path fill-rule="evenodd" clip-rule="evenodd" d="M40.0385 39.6874C39.9148 39.8045 39.8011 39.9316 39.6985 40.0674C39.6001 40.2138 39.5131 40.3676 39.4385 40.5274C38.6585 42.4274 38.9985 42.5274 39.1385 42.7074C39.6785 43.2074 41.3185 41.9674 41.3585 41.9474C41.5107 41.8171 41.6392 41.6615 41.7385 41.4874C41.8553 41.3206 41.9495 41.139 42.0185 40.9474C42.7585 38.8274 42.1985 38.6674 42.0185 38.5674C41.8385 38.4674 41.3385 38.4274 40.0385 39.6874Z" fill="url(#paint7_linear_250_3650)"/>
<path fill-rule="evenodd" clip-rule="evenodd" d="M43.4387 28.7874C42.9587 28.7874 42.7787 28.7874 42.1987 31.1874C42.1987 31.4074 42.0987 31.6274 42.0587 31.8674C42.0187 32.1074 42.0587 32.3274 42.0587 32.5474C42.0587 35.0674 42.4787 34.9874 42.6987 35.0474C43.4387 35.2474 44.2587 33.3674 44.4187 32.9074C44.4912 32.6517 44.5447 32.391 44.5787 32.1274C44.6085 31.8616 44.6085 31.5933 44.5787 31.3274C44.2587 28.6674 43.6787 28.7874 43.4387 28.7874Z" fill="url(#paint8_linear_250_3650)"/>
<path fill-rule="evenodd" clip-rule="evenodd" d="M44.5992 22.8482C44.5323 22.5988 44.4384 22.3574 44.3192 22.1282C43.0792 19.7482 42.5192 20.1282 42.3192 20.1282C42.1192 20.1282 41.7192 20.5082 42.0992 22.8082C42.1427 23.1923 42.2369 23.5689 42.3792 23.9282C42.3792 23.9282 43.4792 26.3482 44.2192 26.1282C44.4592 26.1282 44.9392 25.9682 44.7592 23.5282C44.7391 23.295 44.6852 23.066 44.5992 22.8482Z" fill="url(#paint9_linear_250_3650)"/>
<path fill-rule="evenodd" clip-rule="evenodd" d="M29.8186 12.5478C30.1432 13.4473 30.5308 14.3228 30.9786 15.1678C31.499 16.1184 32.1012 17.0218 32.7786 17.8678C33.7824 19.0714 34.8506 20.2197 35.9786 21.3078C36.0368 21.3782 36.1089 21.4358 36.1905 21.477C36.2721 21.5181 36.3613 21.5418 36.4526 21.5466C36.5438 21.5515 36.6351 21.5373 36.7205 21.5051C36.806 21.4728 36.8839 21.4232 36.9492 21.3592C37.0145 21.2953 37.0658 21.2186 37.0999 21.1338C37.134 21.049 37.1501 20.9581 37.1472 20.8668C37.1443 20.7755 37.1225 20.6857 37.0832 20.6033C37.0438 20.5208 36.9878 20.4474 36.9186 20.3878C35.8837 19.2919 34.9216 18.1294 34.0386 16.9078C33.4706 16.1212 32.9879 15.2765 32.5986 14.3878C32.2335 13.6252 31.9259 12.8363 31.6786 12.0278C31.446 11.2011 31.2722 10.359 31.1586 9.50777C31.1173 8.92851 31.1173 8.34704 31.1586 7.76777C31.1621 7.25687 31.2499 6.75005 31.4186 6.26777C31.8038 5.02171 32.635 3.96145 33.7531 3.28987C34.8711 2.61829 36.1976 2.38256 37.4786 2.62777C38.7609 2.7932 39.9299 3.44699 40.7421 4.45294C41.5543 5.45889 41.9471 6.73942 41.8386 8.02777C41.7491 10.0794 41.3374 12.1041 40.6186 14.0278C39.8876 15.9389 38.7555 17.6711 37.2986 19.1078C37.1554 19.243 37.0718 19.4296 37.0661 19.6266C37.0605 19.8235 37.1333 20.0146 37.2686 20.1578C37.4038 20.301 37.5905 20.3846 37.7874 20.3902C37.9843 20.3959 38.1754 20.323 38.3186 20.1878C40.026 18.6738 41.3899 16.8122 42.3186 14.7278C43.2059 12.6661 43.7724 10.4808 43.9986 8.24778C44.275 6.36927 43.8003 4.45748 42.6773 2.92645C41.5543 1.39542 39.8734 0.368387 37.9986 0.067775C36.1422 -0.319332 34.2082 0.0015285 32.5763 0.967351C30.9444 1.93317 29.7325 3.47418 29.1786 5.28778C28.985 5.88902 28.8839 6.51616 28.8786 7.14777C28.8214 8.01556 28.8549 8.88695 28.9786 9.74778C29.1782 10.7034 29.4593 11.6401 29.8186 12.5478Z" fill="url(#paint10_linear_250_3650)"/>
<path fill-rule="evenodd" clip-rule="evenodd" d="M41.3589 28.3482C41.4513 26.8853 41.3843 25.4167 41.1589 23.9682C40.9554 22.9834 40.626 22.0289 40.1789 21.1282C40.1402 21.0386 40.0836 20.9577 40.0127 20.8906C39.9417 20.8235 39.8578 20.7715 39.7662 20.7379C39.6745 20.7042 39.5769 20.6895 39.4794 20.6947C39.3819 20.7 39.2864 20.725 39.1989 20.7682C39.0215 20.8508 38.8841 21.0003 38.8166 21.1839C38.7491 21.3676 38.7572 21.5705 38.8389 21.7482C39.299 22.7395 39.5897 23.8009 39.6989 24.8882C39.7684 25.9137 39.7684 26.9427 39.6989 27.9682C37.6989 28.2082 35.6989 28.5282 33.6989 28.7482H33.2589C33.2461 28.0125 33.1926 27.2781 33.0989 26.5482C32.9038 25.1861 32.5756 23.8463 32.1189 22.5482C31.0379 19.5703 29.4921 16.7825 27.5389 14.2882C27.4707 14.2061 27.385 14.1401 27.2882 14.0952C27.1913 14.0502 27.0857 14.0273 26.9789 14.0282C27.0882 13.905 27.1579 13.7517 27.1789 13.5882C27.1843 13.5025 27.1724 13.4166 27.1439 13.3356C27.1154 13.2546 27.0709 13.1802 27.0131 13.1168C26.9552 13.0533 26.8852 13.0022 26.8072 12.9663C26.7292 12.9305 26.6447 12.9107 26.5589 12.9082C23.5914 12.656 20.6209 13.3566 18.0789 14.9082C15.6418 16.527 13.5929 18.6647 12.0789 21.1682C10.1842 24.2909 9.41488 27.9679 9.89888 31.5882C10.0779 33.457 10.683 35.2598 11.6677 36.8582C12.6523 38.4565 13.9904 39.8078 15.5789 40.8082C18.1047 42.2308 20.9217 43.0585 23.8156 43.2283C26.7095 43.3981 29.604 42.9056 32.2789 41.7882C34.9485 40.6923 37.2347 38.8319 38.8502 36.4406C40.4658 34.0494 41.3385 31.234 41.3589 28.3482ZM29.7789 23.2882C30.1101 24.5 30.3772 25.7283 30.5789 26.9682C30.5789 27.6282 30.7189 28.2882 30.7989 28.9682C28.7989 29.0882 26.9189 28.9682 24.9389 28.9682C23.7589 28.9682 22.5589 28.9682 21.3789 28.8282C21.3789 28.4082 21.3789 27.9682 21.5189 27.5482C21.7357 26.1992 22.0295 24.8637 22.3989 23.5482C23.3789 19.9482 25.7389 14.1282 26.3989 15.0882C27.8991 17.6522 29.0366 20.4118 29.7789 23.2882ZM18.9789 16.4282C20.6846 15.3011 22.6429 14.614 24.6789 14.4282C22.734 17.0114 21.1837 19.8693 20.0789 22.9082C19.5868 24.3065 19.2187 25.7454 18.9789 27.2082V28.8082C16.6789 28.6282 14.4189 28.3282 12.1789 27.9682C12.2894 26.0032 12.8432 24.0887 13.7989 22.3682C15.0594 20.0257 16.8296 17.9958 18.9789 16.4282ZM12.1789 31.4082C12.0925 30.812 12.0457 30.2107 12.0389 29.6082C14.2189 30.1482 16.4589 30.5882 18.7389 30.9282V31.6882C18.8067 34.56 19.2162 37.4134 19.9589 40.1882C18.8619 39.8525 17.808 39.3893 16.8189 38.8082C15.5435 38.0018 14.4672 36.9171 13.6705 35.6356C12.8739 34.354 12.3776 32.9088 12.2189 31.4082H12.1789ZM21.5789 40.5882C21.0551 37.6725 20.8539 34.708 20.9789 31.7482V31.2482C22.5789 31.4082 24.1789 31.5282 25.7789 31.5282C27.3789 31.5282 29.1789 31.3882 30.8389 31.2282C30.9792 34.0347 30.7845 36.8479 30.2589 39.6082C30.1977 39.7762 30.1977 39.9603 30.2589 40.1282C27.47 41.0417 24.489 41.2004 21.6189 40.5882H21.5789ZM31.8789 39.5882C32.7275 36.7422 33.1982 33.797 33.2789 30.8282L33.9189 30.7082C35.7589 30.3082 37.5589 29.8282 39.3989 29.4282C39.1492 31.6279 38.3272 33.7236 37.0147 35.5064C35.7022 37.2891 33.9452 38.6966 31.9189 39.5882H31.8789Z" fill="url(#paint11_linear_250_3650)"/>
<path fill-rule="evenodd" clip-rule="evenodd" d="M21.1983 45.688L20.5583 45.528C20.3387 45.5082 20.1178 45.5082 19.8983 45.528C17.4583 45.528 17.4783 45.928 17.4183 46.128C17.2183 46.848 19.2183 47.768 19.4183 47.868C19.6605 47.9678 19.917 48.0285 20.1783 48.048C20.4448 48.0729 20.7133 48.0661 20.9783 48.028C23.5983 47.808 23.4983 47.108 23.4983 46.868C23.4583 46.268 23.2183 46.248 21.1983 45.688Z" fill="url(#paint12_linear_250_3650)"/>
<path fill-rule="evenodd" clip-rule="evenodd" d="M28.4184 45.2079H27.8984C27.7254 45.239 27.5573 45.2928 27.3984 45.3679C25.3984 46.1679 25.5784 46.5079 25.5784 46.6879C25.5784 47.3479 27.3384 47.6679 27.7584 47.7079C27.964 47.7377 28.1728 47.7377 28.3784 47.7079C28.5865 47.6589 28.7879 47.585 28.9784 47.4879C30.9784 46.4679 30.7584 45.9079 30.6984 45.7279C30.5184 45.2479 30.2384 45.1879 28.4184 45.2079Z" fill="url(#paint13_linear_250_3650)"/>
<path fill-rule="evenodd" clip-rule="evenodd" d="M35.2979 43.528C34.9906 43.5774 34.6891 43.6578 34.3979 43.768C34.3979 43.768 32.2979 44.888 32.3979 45.568C32.4979 46.248 34.7379 46.148 34.7779 46.148C35.0034 46.1324 35.2256 46.0853 35.4379 46.008C35.6566 45.9439 35.8652 45.8496 36.0579 45.728C37.8779 44.608 37.8579 44.048 37.6579 43.728C37.4579 43.408 37.4179 43.148 35.2979 43.528Z" fill="url(#paint14_linear_250_3650)"/>
</g>
<defs>
<linearGradient id="paint0_linear_250_3650" x1="36.3451" y1="5.09229" x2="36.3451" y2="11.5281" gradientUnits="userSpaceOnUse">
<stop stop-color="#01FFD1"/>
<stop offset="1" stop-color="#44E4E6"/>
</linearGradient>
<linearGradient id="paint1_linear_250_3650" x1="22.7062" y1="9.34521" x2="22.7062" y2="11.8818" gradientUnits="userSpaceOnUse">
<stop stop-color="#01FFD1"/>
<stop offset="1" stop-color="#44E4E6"/>
</linearGradient>
<linearGradient id="paint2_linear_250_3650" x1="14.628" y1="11.8794" x2="14.628" y2="14.9284" gradientUnits="userSpaceOnUse">
<stop stop-color="#01FFD1"/>
<stop offset="1" stop-color="#44E4E6"/>
</linearGradient>
<linearGradient id="paint3_linear_250_3650" x1="8.75067" y1="17.9722" x2="8.75067" y2="22.7179" gradientUnits="userSpaceOnUse">
<stop stop-color="#01FFD1"/>
<stop offset="1" stop-color="#44E4E6"/>
</linearGradient>
<linearGradient id="paint4_linear_250_3650" x1="6.43451" y1="26.9458" x2="6.43451" y2="31.9988" gradientUnits="userSpaceOnUse">
<stop stop-color="#01FFD1"/>
<stop offset="1" stop-color="#44E4E6"/>
</linearGradient>
<linearGradient id="paint5_linear_250_3650" x1="8.27395" y1="35.314" x2="8.27395" y2="39.3277" gradientUnits="userSpaceOnUse">
<stop stop-color="#01FFD1"/>
<stop offset="1" stop-color="#44E4E6"/>
</linearGradient>
<linearGradient id="paint6_linear_250_3650" x1="13.0428" y1="41.8882" x2="13.0428" y2="45.6541" gradientUnits="userSpaceOnUse">
<stop stop-color="#01FFD1"/>
<stop offset="1" stop-color="#44E4E6"/>
</linearGradient>
<linearGradient id="paint7_linear_250_3650" x1="40.6672" y1="38.5229" x2="40.6672" y2="42.8261" gradientUnits="userSpaceOnUse">
<stop stop-color="#01FFD1"/>
<stop offset="1" stop-color="#44E4E6"/>
</linearGradient>
<linearGradient id="paint8_linear_250_3650" x1="43.321" y1="28.7866" x2="43.321" y2="35.0623" gradientUnits="userSpaceOnUse">
<stop stop-color="#01FFD1"/>
<stop offset="1" stop-color="#44E4E6"/>
</linearGradient>
<linearGradient id="paint9_linear_250_3650" x1="43.37" y1="20.106" x2="43.37" y2="26.1424" gradientUnits="userSpaceOnUse">
<stop stop-color="#01FFD1"/>
<stop offset="1" stop-color="#44E4E6"/>
</linearGradient>
<linearGradient id="paint10_linear_250_3650" x1="36.4635" y1="-0.0922852" x2="36.4635" y2="21.5476" gradientUnits="userSpaceOnUse">
<stop stop-color="#01FFD1"/>
<stop offset="1" stop-color="#44E4E6"/>
</linearGradient>
<linearGradient id="paint11_linear_250_3650" x1="25.5784" y1="12.8579" x2="25.5784" y2="43.261" gradientUnits="userSpaceOnUse">
<stop stop-color="#01FFD1"/>
<stop offset="1" stop-color="#44E4E6"/>
</linearGradient>
<linearGradient id="paint12_linear_250_3650" x1="20.4515" y1="45.5132" x2="20.4515" y2="48.0627" gradientUnits="userSpaceOnUse">
<stop stop-color="#01FFD1"/>
<stop offset="1" stop-color="#44E4E6"/>
</linearGradient>
<linearGradient id="paint13_linear_250_3650" x1="28.1552" y1="45.2046" x2="28.1552" y2="47.7302" gradientUnits="userSpaceOnUse">
<stop stop-color="#01FFD1"/>
<stop offset="1" stop-color="#44E4E6"/>
</linearGradient>
<linearGradient id="paint14_linear_250_3650" x1="35.0714" y1="43.3394" x2="35.0714" y2="46.1532" gradientUnits="userSpaceOnUse">
<stop stop-color="#01FFD1"/>
<stop offset="1" stop-color="#44E4E6"/>
</linearGradient>
<clipPath id="clip0_250_3650">
<rect width="48" height="48" fill="white" transform="translate(0.978516 0.027832)"/>
</clipPath>
</defs>
</svg>
