<svg width="41" height="41" viewBox="0 0 41 41" fill="none" xmlns="http://www.w3.org/2000/svg">
<g clip-path="url(#clip0_250_3667)">
<path fill-rule="evenodd" clip-rule="evenodd" d="M39.4023 10.1865C39.0872 9.0699 38.6038 8.00774 37.969 7.03655C37.3347 6.0238 36.5012 5.15057 35.519 4.46988C31.0024 1.5672 25.7377 0.0439639 20.369 0.0865514C14.9821 0.0349581 9.73433 1.79596 5.469 5.08655C3.99966 6.28419 2.777 7.7559 1.869 9.41988C0.943126 11.1064 0.413084 12.9815 0.318999 14.9032C0.244339 15.6625 0.244339 16.4273 0.318999 17.1865C0.333868 17.4282 0.401211 17.6637 0.516342 17.8767C0.631473 18.0897 0.791629 18.2751 0.985665 18.4199C1.73985 18.8498 2.60228 19.0524 3.469 19.0032C5.20771 18.7764 6.93256 18.4537 8.63566 18.0365C8.72188 18.0305 8.80519 18.0029 8.87799 17.9563C8.95078 17.9097 9.01073 17.8456 9.05233 17.7699H9.20233C9.26802 17.7744 9.33396 17.7659 9.39636 17.7449C9.45876 17.7239 9.5164 17.6907 9.56595 17.6474C9.61551 17.604 9.65601 17.5513 9.68513 17.4922C9.71426 17.4332 9.73143 17.3689 9.73566 17.3032C9.73566 16.6532 9.90233 15.3532 10.0523 14.2199C10.0957 13.6118 10.1962 13.0092 10.3523 12.4199C10.5755 12.1589 10.8814 11.9824 11.219 11.9199C11.8742 11.8079 12.5377 11.7522 13.2023 11.7532C15.0101 11.5778 16.8217 11.4445 18.6357 11.3532H22.219L27.469 11.4865H28.8357C28.9907 11.4905 29.1435 11.5244 29.2857 11.5865C29.2971 11.8142 29.2971 12.0422 29.2857 12.2699C29.166 13.338 29.1048 14.4118 29.1023 15.4865C29.1355 15.8172 29.2389 16.1369 29.4056 16.4243C29.5723 16.7117 29.7985 16.9603 30.069 17.1532C30.5142 17.4389 31.0044 17.6474 31.519 17.7699C32.1857 17.9365 32.8857 18.0032 33.519 18.1032C34.1523 18.2032 35.2857 18.4532 36.2357 18.5032C36.7351 18.5458 37.2382 18.495 37.719 18.3532C38.2034 18.1839 38.6113 17.847 38.869 17.4032C39.1422 16.9316 39.3391 16.4197 39.4523 15.8865C39.6991 14.9406 39.8058 13.9635 39.769 12.9865C39.7434 12.0431 39.6206 11.1048 39.4023 10.1865ZM37.7357 15.4699C37.6666 15.7665 37.5718 16.0565 37.4523 16.3365C37.4523 16.4699 37.3357 16.6032 37.2023 16.6532C36.8285 16.7309 36.4428 16.7309 36.069 16.6532C35.2523 16.6532 34.4023 16.4032 33.819 16.3365C33.2143 16.2919 32.613 16.2084 32.019 16.0865C31.6905 16.0227 31.3751 15.9044 31.0857 15.7365C30.819 15.5699 30.819 15.2032 30.819 14.8199C30.819 13.8699 31.019 12.7699 30.969 12.1199C30.9709 11.7128 30.909 11.3079 30.7857 10.9199C30.6803 10.6347 30.4879 10.3898 30.2357 10.2199C29.9342 10.0425 29.5995 9.92905 29.2523 9.88655C28.6639 9.85248 28.0741 9.85248 27.4857 9.88655H22.2523C21.019 9.88655 19.7857 9.88655 18.5523 10.0032C16.719 10.0865 14.9023 10.3532 13.0857 10.5699C12.2137 10.6153 11.3511 10.7721 10.519 11.0365C10.0831 11.2088 9.70671 11.5042 9.43567 11.8865C9.23949 12.4519 9.11627 13.04 9.069 13.6365C8.93566 14.7365 8.819 16.1532 8.75233 16.9699C8.66992 16.9523 8.58474 16.9523 8.50233 16.9699C7.23566 17.1199 5.63566 17.6365 4.13567 17.7865C3.30807 17.9328 2.45533 17.7917 1.719 17.3865C1.719 17.3865 1.719 17.3032 1.719 17.2365C1.68253 16.9823 1.68253 16.7241 1.719 16.4699V14.9699C1.80898 13.2591 2.28171 11.5903 3.10233 10.0865C3.95751 8.60696 5.08916 7.30557 6.43566 6.25322C10.46 3.25714 15.3698 1.69095 20.3857 1.80322C25.3973 1.81616 30.2987 3.27445 34.5023 6.00322C35.2563 6.53861 35.8965 7.21843 36.3857 8.00322C36.9102 8.80082 37.3145 9.67125 37.5857 10.5865C37.7876 11.3842 37.9159 12.1988 37.969 13.0199C38.0092 13.8445 37.9249 14.6704 37.719 15.4699H37.7357Z" fill="url(#paint0_linear_250_3667)"/>
<path fill-rule="evenodd" clip-rule="evenodd" d="M37.0683 25.5366C36.3266 23.6989 35.0854 22.1054 33.485 20.9366C32.7288 20.4317 31.9036 20.0387 31.035 19.7699C29.8248 19.4107 28.595 19.1213 27.3517 18.9033C26.5928 18.7399 25.8247 18.623 25.0517 18.5533C25.0517 18.2033 25.185 17.8366 25.235 17.4533C25.2875 17.1449 25.3154 16.8328 25.3183 16.5199C25.335 16.2035 25.335 15.8864 25.3183 15.5699C25.3183 14.7533 25.085 14.0199 25.0017 13.3533C25.0017 13.2876 24.9887 13.2226 24.9636 13.1619C24.9385 13.1013 24.9016 13.0461 24.8552 12.9997C24.8088 12.9533 24.7537 12.9165 24.693 12.8913C24.6323 12.8662 24.5673 12.8533 24.5017 12.8533C24.436 12.8533 24.371 12.8662 24.3103 12.8913C24.2497 12.9165 24.1945 12.9533 24.1481 12.9997C24.1017 13.0461 24.0648 13.1013 24.0397 13.1619C24.0146 13.2226 24.0017 13.2876 24.0017 13.3533C23.8517 13.9866 23.635 14.7199 23.5017 15.5366C23.4852 15.8531 23.4852 16.1702 23.5017 16.4866V17.4366C23.5017 17.7533 23.5017 18.1866 23.6183 18.5199H22.5517C20.4577 18.5868 18.3701 18.7873 16.3017 19.1199C16.4183 18.6533 16.535 18.1533 16.6183 17.6033C16.6438 17.2927 16.6438 16.9805 16.6183 16.6699C16.6519 16.3653 16.6519 16.0579 16.6183 15.7533C16.5176 15.0229 16.3502 14.3032 16.1183 13.6033C16.1317 13.5311 16.129 13.4569 16.1104 13.386C16.0919 13.315 16.0579 13.249 16.011 13.1926C15.9641 13.1362 15.9053 13.0908 15.8389 13.0597C15.7725 13.0285 15.7 13.0124 15.6267 13.0124C15.5533 13.0124 15.4808 13.0285 15.4144 13.0597C15.348 13.0908 15.2892 13.1362 15.2423 13.1926C15.1954 13.249 15.1614 13.315 15.1429 13.386C15.1244 13.4569 15.1217 13.5311 15.135 13.6033C15.135 14.2033 14.9017 14.8866 14.8183 15.6866C14.8013 15.9808 14.8013 16.2757 14.8183 16.5699V17.4533C14.8183 18.1033 14.935 18.7033 14.9683 19.2366C12.792 19.4769 10.6633 20.0386 8.65166 20.9033C7.18316 21.6026 5.9074 22.6495 4.93499 23.9533C4.43581 24.6367 4.00591 25.368 3.65165 26.1366C3.1524 27.276 2.74011 28.4516 2.41832 29.6533C2.03499 31.1199 1.66832 32.6866 1.40165 34.2699C1.10674 35.8281 0.911895 37.4035 0.81832 38.9866C0.813462 39.1182 0.859064 39.2468 0.945804 39.3459C1.03254 39.445 1.15387 39.5073 1.28499 39.5199C1.38804 39.5088 1.4851 39.466 1.56273 39.3973C1.64036 39.3286 1.69473 39.2375 1.71832 39.1366C1.83433 37.5962 2.05146 36.0652 2.36832 34.5533C2.68499 33.0199 3.06832 31.4866 3.48499 30.0533C3.75228 29.1139 4.08647 28.1949 4.48499 27.3033C4.85883 26.4301 5.34034 25.607 5.91832 24.8533C6.79983 23.7431 7.94598 22.872 9.25166 22.3199C11.273 21.4969 13.4093 20.991 15.585 20.8199C17.8859 20.472 20.2081 20.2826 22.535 20.2533C24.0421 20.2426 25.5457 20.3991 27.0183 20.7199C28.2017 20.9866 29.385 21.1866 30.5183 21.5533C31.2079 21.7813 31.8638 22.1008 32.4683 22.5033C33.7819 23.4711 34.798 24.7875 35.4017 26.3033C36.3445 28.7402 36.9664 31.2893 37.2517 33.8866C37.491 35.2449 37.5749 36.626 37.5017 38.0033C37.1917 38.1638 36.8504 38.2548 36.5017 38.2699C35.6746 38.32 34.8453 38.32 34.0183 38.2699H26.935C22.0183 38.2699 17.1017 38.1533 12.1683 38.2699C8.83499 38.2699 5.55721 38.4088 2.33499 38.6866C2.25359 38.6725 2.17009 38.6763 2.09034 38.6979C2.01059 38.7194 1.93651 38.7582 1.8733 38.8114C1.81009 38.8646 1.75928 38.9309 1.72442 39.0058C1.68956 39.0807 1.6715 39.1623 1.6715 39.2449C1.6715 39.3276 1.68956 39.4092 1.72442 39.4841C1.75928 39.559 1.81009 39.6253 1.8733 39.6785C1.93651 39.7317 2.01059 39.7704 2.09034 39.792C2.17009 39.8135 2.25359 39.8174 2.33499 39.8033C5.58499 39.6366 8.85166 39.5699 12.1183 39.5699C17.0183 39.5699 21.935 39.7199 26.8183 39.8866L33.935 40.0699C34.9941 40.1614 36.0592 40.1614 37.1183 40.0699C37.723 39.9878 38.2967 39.7526 38.785 39.3866C39.1737 38.9577 39.3877 38.3988 39.385 37.8199C39.4128 36.4371 39.3236 35.0544 39.1183 33.6866C38.797 30.8915 38.1077 28.1511 37.0683 25.5366Z" fill="url(#paint1_linear_250_3667)"/>
<path fill-rule="evenodd" clip-rule="evenodd" d="M15.4862 36.2536C16.1603 36.5244 16.8659 36.7092 17.5862 36.8036C18.6116 36.903 19.6442 36.903 20.6695 36.8036C22.924 36.6307 25.0196 35.5769 26.5029 33.8703C27.2399 33.0145 27.7584 31.9927 28.0139 30.8925C28.2693 29.7924 28.2541 28.6466 27.9695 27.5536C27.6833 26.4787 27.1784 25.4744 26.4862 24.6036C25.8152 23.7683 25.0231 23.0381 24.1362 22.437C23.6327 22.0808 23.0676 21.8209 22.4695 21.6703C22.0203 21.5627 21.5521 21.5627 21.1029 21.6703C21.0435 21.624 20.9755 21.59 20.9029 21.5703C20.3215 21.4375 19.7176 21.4375 19.1362 21.5703C18.303 21.7215 17.4988 22.0027 16.7529 22.4036C16.1087 22.733 15.5047 23.1357 14.9529 23.6036C14.3849 24.0892 13.8859 24.6499 13.4695 25.2703C12.7889 26.3033 12.3256 27.464 12.1078 28.6817C11.89 29.8995 11.9224 31.1488 12.2029 32.3536C12.4012 33.2177 12.8025 34.0221 13.3734 34.7003C13.9444 35.3784 14.6686 35.9109 15.4862 36.2536ZM14.6362 26.0036C14.9525 25.4707 15.3393 24.983 15.7862 24.5536C16.2519 24.1301 16.7601 23.7558 17.3029 23.437C17.8297 23.1275 18.3885 22.876 18.9695 22.687C19.5076 22.5128 20.0812 22.4784 20.6362 22.587H20.7529C20.8217 22.6762 20.9155 22.7428 21.0224 22.7785C21.1292 22.8141 21.2443 22.8171 21.3529 22.787C21.6921 22.7413 22.0374 22.7874 22.3529 22.9203C22.7249 23.0653 23.0775 23.2556 23.4029 23.487C24.1563 24.0489 24.8243 24.7169 25.3862 25.4703C25.9228 26.2057 26.2977 27.0463 26.4862 27.937C26.6749 28.789 26.6537 29.6741 26.4243 30.5161C26.195 31.3581 25.7643 32.1317 25.1695 32.7703C23.9679 34.0825 22.2967 34.8672 20.5195 34.9536C19.7654 35.0201 19.007 35.0201 18.2529 34.9536C17.5464 34.9005 16.8508 34.749 16.1862 34.5036C15.4709 34.1939 14.8555 33.6919 14.4083 33.0534C13.9611 32.415 13.6996 31.6651 13.6529 30.887C13.4406 29.1956 13.7858 27.4811 14.6362 26.0036Z" fill="url(#paint2_linear_250_3667)"/>
</g>
<defs>
<linearGradient id="paint0_linear_250_3667" x1="20.0195" y1="0.0854492" x2="20.0195" y2="19.0104" gradientUnits="userSpaceOnUse">
<stop stop-color="#01FFD1"/>
<stop offset="1" stop-color="#44E4E6"/>
</linearGradient>
<linearGradient id="paint1_linear_250_3667" x1="20.104" y1="12.8533" x2="20.104" y2="40.1385" gradientUnits="userSpaceOnUse">
<stop stop-color="#01FFD1"/>
<stop offset="1" stop-color="#44E4E6"/>
</linearGradient>
<linearGradient id="paint2_linear_250_3667" x1="20.0801" y1="21.4707" x2="20.0801" y2="36.8782" gradientUnits="userSpaceOnUse">
<stop stop-color="#01FFD1"/>
<stop offset="1" stop-color="#44E4E6"/>
</linearGradient>
<clipPath id="clip0_250_3667">
<rect width="40" height="40" fill="white" transform="translate(0.0527344 0.0864258)"/>
</clipPath>
</defs>
</svg>
