<svg width="95" height="76" viewBox="0 0 95 76" fill="none" xmlns="http://www.w3.org/2000/svg">
<g clip-path="url(#clip0_1_4704)">
<path d="M82.7371 25.9064C81.5274 16.6367 73.5317 9.5235 64.0315 9.49471C61.0521 9.48585 58.1424 10.1642 55.5043 11.4885C51.438 4.38708 43.952 0.0249739 35.6321 -0.000123205C22.9511 -0.038138 12.5995 10.1849 12.5609 22.8021C12.558 23.7617 12.6125 24.7069 12.7249 25.624C5.59723 26.5763 0.0223249 32.7321 6.83262e-05 40.0645C-0.0244139 48.1133 6.53349 54.6921 14.623 54.7164L25.9223 54.7504L25.916 56.7984L21.9866 56.7866C21.195 56.7843 20.5451 57.4125 20.5429 58.2145C20.5407 59.0021 21.1861 59.6487 21.9781 59.6509L25.9075 59.6628L25.8975 62.9568C25.8852 67.0096 29.1855 70.3135 33.2737 70.3261L35.4759 70.3327L35.4633 74.5003C35.4611 75.2879 36.1066 75.9346 36.8985 75.9368C37.6901 75.939 38.34 75.2968 38.3422 74.5088L38.3548 70.3412L45.9547 70.3641L45.9421 74.5317C45.9399 75.3193 46.5853 75.9659 47.3773 75.9681C48.1833 75.9707 48.8188 75.3282 48.821 74.5402L48.8336 70.3726L56.448 70.3955L56.4353 74.5631C56.4331 75.3507 57.0786 75.9973 57.8705 75.9995C58.6766 76.0021 59.312 75.3595 59.3142 74.5716L59.3268 70.404L61.0254 70.4091C65.0987 70.4213 68.4339 67.1376 68.4461 63.0845L68.4561 59.7905L72.8896 59.8037C73.6812 59.806 74.3311 59.1638 74.3334 58.3758C74.3359 57.5738 73.6901 56.9416 72.8982 56.9394L68.4647 56.9261L68.471 54.8781L80.2451 54.9135C88.3487 54.9379 94.9756 48.3986 95.0001 40.3498C95.022 33.189 89.729 27.0723 82.7371 25.9053V25.9064ZM47.4771 47.7837C50.6438 47.7933 53.2126 50.3646 53.2029 53.5151C53.1948 56.1787 51.3456 58.3931 48.8826 59.0158L48.8792 60.1474C48.877 60.935 48.2271 61.5775 47.4355 61.5753C46.6439 61.5731 45.9981 60.9265 46.0003 60.1389L46.0037 59.0073C43.5299 58.3695 41.6941 56.1444 41.7022 53.4804C41.7045 52.6928 42.3543 52.0502 43.1459 52.0524C43.9375 52.0546 44.5833 52.7013 44.5811 53.4889C44.5763 55.0641 45.8679 56.3569 47.4511 56.3617C49.0343 56.3665 50.3192 55.0814 50.3241 53.5062C50.3289 51.9306 49.0517 50.6525 47.4685 50.6477C44.2873 50.6381 41.7189 48.0668 41.7286 44.902C41.7367 42.2524 43.5859 40.0383 46.0634 39.4013L46.0667 38.27C46.069 37.4824 46.7189 36.8399 47.5105 36.8421C48.302 36.8443 48.9479 37.4909 48.9456 38.2785L48.9423 39.4097C51.4016 40.0615 53.2374 42.2871 53.2293 44.9366C53.2271 45.7243 52.5772 46.3668 51.7856 46.3646C50.994 46.3624 50.3482 45.7158 50.3504 44.9282C50.3552 43.3526 49.0781 42.0741 47.4949 42.0697C45.9113 42.0649 44.6123 43.3356 44.6075 44.9112C44.6026 46.4864 45.8943 47.7793 47.4774 47.7841L47.4771 47.7837ZM80.2536 52.0502L68.4795 52.0148L68.4877 49.3512L72.9212 49.3644C73.7128 49.3667 74.3627 48.7245 74.3649 47.9365C74.3671 47.1489 73.7217 46.5023 72.9297 46.5001L68.4962 46.4868L68.5192 38.9108L72.9527 38.924C73.7443 38.9263 74.3942 38.2841 74.3964 37.4961C74.3986 36.7085 73.7532 36.0619 72.9612 36.0597L68.5277 36.0464L68.5296 35.4592C68.5418 31.4063 65.2271 28.1024 61.1534 28.0898L59.4548 28.0847L59.4674 23.9171C59.4697 23.1295 58.8383 22.4828 58.0323 22.4806C57.2407 22.4784 56.5908 23.1206 56.5885 23.9086L56.5759 28.0762L48.9616 28.0533L48.9742 23.8857C48.9764 23.0981 48.3451 22.4515 47.539 22.4493C46.7474 22.447 46.0975 23.0892 46.0953 23.8772L46.0827 28.0448L38.4828 28.0219L38.4954 23.8543C38.4977 23.0667 37.8522 22.4201 37.0602 22.4179C36.2687 22.4157 35.6188 23.0579 35.6165 23.8458L35.6039 28.0134L33.4016 28.0068C29.3138 27.9946 25.9932 31.2783 25.9809 35.3315L25.9791 35.9187L22.0497 35.9069C21.2581 35.9046 20.6082 36.5468 20.606 37.3348C20.6037 38.1224 21.2492 38.769 22.0411 38.7712L25.9705 38.7831L25.9475 46.3591L22.0181 46.3473C21.2265 46.345 20.5767 46.9872 20.5744 47.7752C20.5722 48.5628 21.2176 49.2094 22.0096 49.2117L25.939 49.2235L25.9308 51.8871L14.6315 51.8531C8.12558 51.8336 2.85893 46.5473 2.87859 40.0741C2.89788 33.7441 8.08143 28.4892 14.4149 28.3652C14.8467 28.3522 15.2503 28.1673 15.5107 27.8245C15.7852 27.496 15.8872 27.0664 15.8022 26.6508C15.5611 25.4469 15.4358 24.1577 15.4398 22.8117C15.4736 11.7841 24.5257 2.83179 35.6232 2.86538C43.3526 2.88863 50.2488 7.19168 53.6247 14.076C53.8109 14.4348 54.1266 14.7075 54.515 14.8234C54.9034 14.9393 55.321 14.8832 55.6671 14.6695C58.1762 13.1445 61.0718 12.3514 64.0226 12.3602C72.4145 12.3857 79.4331 18.9371 79.9832 27.2742C80.0388 27.9762 80.5982 28.5508 81.3034 28.6102C87.3905 29.1155 92.1394 34.2711 92.1208 40.3435C92.1012 46.8167 86.7737 52.0712 80.2532 52.0513L80.2536 52.0502Z" fill="white" style="mix-blend-mode:overlay"/>
</g>
<defs>
<clipPath id="clip0_1_4704">
<rect width="95" height="76" fill="white"/>
</clipPath>
</defs>
</svg>
