<svg width="99" height="106" viewBox="0 0 99 106" fill="none" xmlns="http://www.w3.org/2000/svg">
<g clip-path="url(#clip0_1_6153)">
<path d="M14.8499 81.293V66.4687L23.0999 48.3503L39.5999 31.8789L34.6499 36.8203L24.7499 31.8789L4.9499 36.8203L1.6499 30.2318L18.1499 13.7604L29.6999 8.81901V2.23047L54.4499 13.7604L61.0499 25.2904V36.8203L54.4499 66.4687V81.293" stroke="white" stroke-opacity="0.2" stroke-width="2" stroke-linejoin="round"/>
<path d="M26.3996 17.0547H23.0996" stroke="white" stroke-opacity="0.2" stroke-width="2" stroke-linejoin="round"/>
<path d="M36.3 74.7043H33" stroke="white" stroke-opacity="0.2" stroke-width="2" stroke-linejoin="round"/>
<path d="M42.8996 74.7043H39.5996" stroke="white" stroke-opacity="0.2" stroke-width="2" stroke-linejoin="round"/>
<path d="M29.6999 74.7043H26.3999" stroke="white" stroke-opacity="0.2" stroke-width="2" stroke-linejoin="round"/>
<path d="M9.89971 87.8815C7.16071 87.8815 4.94971 90.0887 4.94971 92.8229V104.353H64.3497V92.8229C64.3497 90.0887 62.1387 87.8815 59.3997 87.8815H57.7497V81.293H11.5497V87.8815H9.89971Z" stroke="white" stroke-opacity="0.2" stroke-width="2" stroke-linejoin="round"/>
<path d="M69.2997 104.353H97.3497V92.8229C97.3497 90.0887 95.1387 87.8815 92.3997 87.8815H90.7497V81.293H62.6997" stroke="white" stroke-opacity="0.2" stroke-width="2" stroke-linejoin="round"/>
<path d="M16.5 87.8816H52.8" stroke="white" stroke-opacity="0.2" stroke-width="2" stroke-linejoin="round"/>
<path d="M66 21.9961H87.45" stroke="white" stroke-opacity="0.2" stroke-width="2" stroke-linejoin="round"/>
<path d="M66 28.5847H85.8V36.8204L82.5 43.4089V66.4688L85.8 73.0574V81.293" stroke="white" stroke-opacity="0.2" stroke-width="2" stroke-linejoin="round"/>
<path d="M82.5 21.9961V28.5846" stroke="white" stroke-opacity="0.2" stroke-width="2" stroke-linejoin="round"/>
<path d="M56.0996 7.17187V2.23047H65.9996V8.81901H75.8996V2.23047H85.7996V21.9961H65.9996" stroke="white" stroke-opacity="0.2" stroke-width="2" stroke-linejoin="round"/>
<path d="M82.4997 66.4688H62.6997" stroke="white" stroke-opacity="0.2" stroke-width="2" stroke-linejoin="round"/>
</g>
<defs>
<clipPath id="clip0_1_6153">
<rect width="99" height="105.417" fill="white" transform="translate(0 0.583252)"/>
</clipPath>
</defs>
</svg>
