<svg width="16" height="17" viewBox="0 0 16 17" fill="none" xmlns="http://www.w3.org/2000/svg">
<g clip-path="url(#clip0_70_233)">
<path d="M2.66667 2.5H13.3333C13.5101 2.5 13.6797 2.57024 13.8047 2.69526C13.9298 2.82029 14 2.98986 14 3.16667V13.8333C14 14.0101 13.9298 14.1797 13.8047 14.3047C13.6797 14.4298 13.5101 14.5 13.3333 14.5H2.66667C2.48986 14.5 2.32029 14.4298 2.19526 14.3047C2.07024 14.1797 2 14.0101 2 13.8333V3.16667C2 2.98986 2.07024 2.82029 2.19526 2.69526C2.32029 2.57024 2.48986 2.5 2.66667 2.5ZM3.33333 3.83333V13.1667H12.6667V3.83333H3.33333ZM7.33333 7.83333V5.16667H8.66667V7.83333H11.3333V9.16667H8.66667V11.8333H7.33333V9.16667H4.66667V7.83333H7.33333Z" fill="#979797"/>
</g>
<defs>
<clipPath id="clip0_70_233">
<rect width="16" height="16" fill="white" transform="translate(0 0.5)"/>
</clipPath>
</defs>
</svg>
