<svg width="56" height="56" viewBox="0 0 56 56" fill="none" xmlns="http://www.w3.org/2000/svg">
<rect width="56" height="56" rx="10" fill="#D0011C" fill-opacity="0.1"/>
<g clip-path="url(#clip0_104_1951)">
<path d="M28 38C22.477 38 18 33.523 18 28C18 22.477 22.477 18 28 18C33.523 18 38 22.477 38 28C38 33.523 33.523 38 28 38ZM23 28C23 29.3261 23.5268 30.5979 24.4645 31.5355C25.4021 32.4732 26.6739 33 28 33C29.3261 33 30.5979 32.4732 31.5355 31.5355C32.4732 30.5979 33 29.3261 33 28H31C31 28.7956 30.6839 29.5587 30.1213 30.1213C29.5587 30.6839 28.7956 31 28 31C27.2044 31 26.4413 30.6839 25.8787 30.1213C25.3161 29.5587 25 28.7956 25 28H23Z" fill="#D0011C"/>
</g>
<defs>
<clipPath id="clip0_104_1951">
<rect width="24" height="24" fill="white" transform="translate(16 16)"/>
</clipPath>
</defs>
</svg>
