<svg width="23" height="20" viewBox="0 0 23 20" fill="none" xmlns="http://www.w3.org/2000/svg">
<path d="M2.66104 2.46904C3.82111 1.30877 5.37704 0.630129 7.01664 0.569293C8.65624 0.508457 10.2582 1.06993 11.501 2.14104C12.7428 1.07171 14.3426 0.510873 15.9803 0.570804C17.6179 0.630735 19.1724 1.30701 20.3327 2.46425C21.493 3.62148 22.1733 5.17427 22.2375 6.81173C22.3018 8.4492 21.7451 10.0505 20.679 11.295L12.914 19.085C12.5573 19.4419 12.0788 19.6507 11.5746 19.6697C11.0703 19.6886 10.5775 19.5162 10.195 19.187L10.085 19.086L2.32104 11.295C1.25553 10.0516 0.698622 8.45175 0.761658 6.81542C0.824693 5.1791 1.50303 3.62686 2.66104 2.46904ZM4.07504 3.88304C3.25728 4.70103 2.7859 5.80249 2.75871 6.95881C2.73152 8.11514 3.15063 9.23753 3.92904 10.093L4.07504 10.247L11.5 17.672L16.803 12.368L13.268 8.83304L12.208 9.89304C11.9295 10.1717 11.5988 10.3928 11.2348 10.5436C10.8709 10.6945 10.4807 10.7722 10.0868 10.7723C9.29103 10.7725 8.52783 10.4566 7.96504 9.89404C7.40225 9.33152 7.08598 8.56847 7.08579 7.77275C7.0856 6.97703 7.40152 6.21383 7.96404 5.65104L10.066 3.54804C9.22951 2.88042 8.18245 2.53273 7.11273 2.56737C6.043 2.60201 5.02063 3.0167 4.22904 3.73704L4.07504 3.88304ZM12.561 6.71104C12.7486 6.52357 13.0029 6.41826 13.268 6.41826C13.5332 6.41826 13.7875 6.52357 13.975 6.71104L18.217 10.953L18.925 10.247C19.7565 9.41618 20.2299 8.29296 20.2439 7.1176C20.2579 5.94225 19.8115 4.80806 19.0001 3.9576C18.1887 3.10713 17.0767 2.60791 15.902 2.5667C14.7273 2.52548 13.5831 2.94554 12.714 3.73704L12.561 3.88304L9.37904 7.06504C9.20571 7.23826 9.10202 7.46908 9.08764 7.71371C9.07326 7.95833 9.1492 8.19971 9.30104 8.39204L9.37904 8.47904C9.55226 8.65237 9.78309 8.75607 10.0277 8.77045C10.2723 8.78483 10.5137 8.70889 10.706 8.55704L10.793 8.47904L12.561 6.71104Z" fill="white"/>
</svg>
