<svg width="18" height="18" viewBox="0 0 18 18" fill="none" xmlns="http://www.w3.org/2000/svg">
<g clip-path="url(#clip0_113_321)">
<path d="M10.5907 7.86002C10.4501 7.71942 10.2593 7.64043 10.0605 7.64043C9.8616 7.64043 9.67087 7.71942 9.53022 7.86002L8.99997 8.38952C8.8616 8.53279 8.69608 8.64706 8.51308 8.72567C8.33007 8.80429 8.13324 8.84567 7.93407 8.8474C7.7349 8.84913 7.53738 8.81118 7.35304 8.73575C7.16869 8.66033 7.00122 8.54895 6.86038 8.40811C6.71954 8.26728 6.60816 8.0998 6.53274 7.91545C6.45732 7.73111 6.41936 7.53359 6.42109 7.33442C6.42282 7.13525 6.4642 6.93842 6.54282 6.75542C6.62143 6.57241 6.7357 6.40689 6.87897 6.26852L11.1015 2.04452C12.1012 1.81714 13.1471 1.91072 14.0906 2.31195C15.034 2.71318 15.8269 3.40165 16.3566 4.27944C16.8863 5.15724 17.1258 6.17968 17.041 7.20139C16.9562 8.22311 16.5514 9.19208 15.8842 9.97052L14.3032 11.5718L10.5907 7.85927V7.86002ZM2.37072 3.35102C3.14679 2.57505 4.16188 2.08351 5.25189 1.95585C6.3419 1.82819 7.4431 2.07188 8.37747 2.64752L5.81772 5.20802C5.26332 5.76132 4.94729 6.5095 4.93717 7.29269C4.92705 8.07589 5.22364 8.83198 5.76355 9.39942C6.30347 9.96686 7.0439 10.3006 7.82663 10.3294C8.60936 10.3582 9.37232 10.0798 9.95247 9.55352L10.0605 9.45077L13.2427 12.6323L10.0605 15.8145C9.77918 16.0957 9.39772 16.2537 8.99997 16.2537C8.60222 16.2537 8.22076 16.0957 7.93947 15.8145L2.36997 10.245C1.45582 9.33079 0.942261 8.09088 0.942261 6.79802C0.942261 5.50516 1.45582 4.26525 2.36997 3.35102H2.37072Z" fill="#D0011C"/>
</g>
<defs>
<clipPath id="clip0_113_321">
<rect width="18" height="18" fill="white"/>
</clipPath>
</defs>
</svg>
