<svg width="34" height="24" viewBox="0 0 34 24" fill="none" xmlns="http://www.w3.org/2000/svg">
<path d="M3.27316 21.8715C1.35121 19.957 0.319336 17.8097 0.319336 14.329C0.319336 8.204 4.90401 2.71425 11.5711 0L13.2374 2.4115C7.01442 5.5685 5.79781 9.66525 5.31266 12.2482C6.31468 11.7617 7.62645 11.592 8.9121 11.704C12.2783 11.9962 14.9317 14.588 14.9317 17.8098C14.9317 19.4342 14.2436 20.9921 13.0189 22.1408C11.7941 23.2894 10.1329 23.9348 8.40083 23.9348C6.39865 23.9348 4.48417 23.0772 3.27316 21.8715V21.8715ZM21.9328 21.8715C20.0109 19.957 18.979 17.8097 18.979 14.329C18.979 8.204 23.5637 2.71425 30.2307 0L31.897 2.4115C25.6741 5.5685 24.4574 9.66525 23.9723 12.2482C24.9743 11.7617 26.2861 11.592 27.5717 11.704C30.9379 11.9962 33.5913 14.588 33.5913 17.8098C33.5913 19.4342 32.9033 20.9921 31.6785 22.1408C30.4537 23.2894 28.7926 23.9348 27.0605 23.9348C25.0583 23.9348 23.1438 23.0772 21.9328 21.8715V21.8715Z" fill="#5C5C5C"/>
</svg>
