<svg width="20" height="21" viewBox="0 0 20 21" fill="none" xmlns="http://www.w3.org/2000/svg">
<path d="M19.7509 10.2456C19.7509 9.51343 19.685 8.81284 19.5625 8.13916H10.0859V11.9988L15.5437 12C15.3223 13.2842 14.6099 14.3789 13.5184 15.1087V17.6128H16.7671C18.6641 15.869 19.7509 13.2912 19.7509 10.2456Z" fill="#4285F4"/>
<path d="M13.5185 15.1088C12.6142 15.7146 11.4496 16.069 10.0873 16.069C7.45553 16.069 5.22298 14.3076 4.42345 11.9333H1.07227V14.5158C2.73255 17.7883 6.14497 20.0339 10.0873 20.0339C12.812 20.0339 15.1011 19.1439 16.7673 17.6117L13.5185 15.1088Z" fill="#34A853"/>
<path d="M4.10832 10.0175C4.10832 9.35087 4.22018 8.70643 4.42389 8.10058V5.51813H1.07271C0.386221 6.87134 0 8.39883 0 10.0175C0 11.6362 0.387398 13.1637 1.07271 14.5169L4.42389 11.9345C4.22018 11.3286 4.10832 10.6842 4.10832 10.0175Z" fill="#FABB05"/>
<path d="M10.0873 3.96491C11.5745 3.96491 12.9062 4.47368 13.9577 5.46783L16.8367 2.61052C15.0881 0.992982 12.8085 0 10.0873 0C6.14614 0 2.73255 2.24561 1.07227 5.51812L4.42345 8.10058C5.22298 5.72631 7.45553 3.96491 10.0873 3.96491Z" fill="#E94235"/>
</svg>
