<svg width="55" height="23" viewBox="0 0 55 23" fill="none" xmlns="http://www.w3.org/2000/svg">
<path d="M10.7791 4.64551C11.2845 4.64551 13.0926 4.69043 14.2718 6.40869C14.1707 6.4873 12.3738 7.49805 12.3738 9.7666C12.3738 12.3945 14.6648 13.3267 14.7322 13.3491C14.721 13.4053 14.3616 14.6182 13.5306 15.8647C12.7781 16.9429 11.9808 18.0322 10.7791 18.0322C9.57745 18.0322 9.26299 17.3359 7.89288 17.3359C6.53399 17.3359 6.05108 18.0547 4.96172 18.0547C3.86114 18.0547 3.08624 17.0439 2.22149 15.8198C1.19952 14.3486 0.368462 12.0913 0.368462 9.94629C0.368462 6.521 2.60332 4.69043 4.8045 4.69043C5.96124 4.69043 6.93829 5.4541 7.66827 5.4541C8.36456 5.4541 9.44268 4.64551 10.7791 4.64551ZM10.1614 3.19678C9.56622 3.91553 8.55547 4.45459 7.75811 4.45459C7.66827 4.45459 7.57842 4.44336 7.52227 4.43213C7.51104 4.38721 7.48858 4.24121 7.48858 4.10645C7.48858 3.19678 7.96026 2.28711 8.4544 1.71436C9.09454 0.961914 10.1727 0.411621 11.0486 0.37793C11.0711 0.479004 11.0823 0.602539 11.0823 0.726074C11.0823 1.63574 10.7005 2.53418 10.1614 3.19678ZM19.1467 1.64697H25.6829C28.9173 1.64697 31.1297 3.85938 31.1297 7.12744C31.1297 10.3394 28.8386 12.5405 25.5593 12.5405H22.0442V17.8525H19.1467V1.64697ZM22.0442 4.07275V10.1372H24.908C26.9744 10.1372 28.1873 9.05908 28.1873 7.12744C28.1873 5.13965 27.0081 4.07275 24.9192 4.07275H22.0442ZM36.5661 15.8647C38.2507 15.8647 39.5085 14.7754 39.5085 13.3491V12.3721L36.7346 12.5518C35.1736 12.6528 34.4436 13.2144 34.4436 14.2139C34.4436 15.2471 35.3308 15.8647 36.5661 15.8647ZM35.7463 18.0547C33.3767 18.0547 31.6809 16.6172 31.6809 14.3711C31.6809 12.1475 33.3542 10.8672 36.3415 10.6875L39.5085 10.4966V9.46338C39.5085 8.26172 38.6999 7.58789 37.195 7.58789C35.9148 7.58789 35.0388 8.03711 34.7805 8.86816H32.1526C32.3772 6.70068 34.4099 5.31934 37.3298 5.31934C40.4856 5.31934 42.26 6.85791 42.26 9.46338V17.8525H39.5759V16.168H39.385C38.6999 17.3584 37.3523 18.0547 35.7463 18.0547ZM45.3605 22.311C45.1921 22.311 44.4396 22.2998 44.26 22.2661V19.9863C44.4172 20.02 44.8327 20.0312 45.0236 20.0312C46.2028 20.0312 46.8654 19.582 47.2248 18.4478L47.3708 17.9087L42.9797 5.56641H46.0344L48.9094 15.1572H49.1003L51.9641 5.56641H54.9064L50.4704 18.2456C49.426 21.3003 48.112 22.311 45.3605 22.311Z" fill="white"/>
</svg>
