<svg width="81" height="24" viewBox="0 0 81 24" fill="none" xmlns="http://www.w3.org/2000/svg">
<path d="M22.5719 0.285713H25.2727V24H22.5719V13.4933H3.63337V24H0.965512V0.285713H3.63337V10.7925H22.5719V0.285713ZM32.9662 0.252777H48.9404C50.0383 0.252777 50.9715 0.648015 51.74 1.43849C52.5304 2.20701 52.9257 3.15119 52.9257 4.27103V9.8373C52.9257 10.9352 52.5304 11.8794 51.74 12.6698C50.9715 13.4384 50.0383 13.8226 48.9404 13.8226H32.9662C32.6148 13.8226 32.3074 13.9544 32.0439 14.2179C31.8024 14.4594 31.6816 14.7558 31.6816 15.1071V20.0147C31.6816 20.366 31.8024 20.6734 32.0439 20.9369C32.3074 21.1784 32.6148 21.2992 32.9662 21.2992H52.9257V24H28.9808V15.1071C28.9808 13.9873 29.3651 13.0431 30.1336 12.2746C30.9021 11.5061 31.8463 11.1218 32.9662 11.1218H48.9404C49.2917 11.1218 49.5881 11.0011 49.8297 10.7595C50.0931 10.496 50.2249 10.1886 50.2249 9.8373V4.27103C50.2249 3.91971 50.0931 3.62328 49.8297 3.38174C49.5881 3.11825 49.2917 2.98651 48.9404 2.98651H32.9662C32.6148 2.98651 32.3074 3.11825 32.0439 3.38174C31.8024 3.62328 31.6816 3.91971 31.6816 4.27103V5.19325H28.9808V4.27103C28.9808 3.15119 29.3651 2.20701 30.1336 1.43849C30.9021 0.648015 31.8463 0.252777 32.9662 0.252777ZM60.306 0.285713H76.2802C77.3781 0.285713 78.3113 0.680951 79.0798 1.47143C79.8703 2.23995 80.2656 3.18413 80.2656 4.30397V20.0147C80.2656 21.1126 79.8703 22.0567 79.0798 22.8472C78.3113 23.6157 77.3781 24 76.2802 24H60.306C59.1862 24 58.242 23.6157 57.4735 22.8472C56.705 22.0567 56.3207 21.1126 56.3207 20.0147V4.30397C56.3207 3.18413 56.705 2.23995 57.4735 1.47143C58.242 0.680951 59.1862 0.285713 60.306 0.285713ZM77.2025 3.01944H60.306C59.9547 3.01944 59.6473 3.15119 59.3838 3.41468C59.1423 3.65622 59.0215 3.95264 59.0215 4.30397V18.0385L77.2025 3.01944ZM59.3509 21.2992H76.2802C76.6316 21.2992 76.928 21.1784 77.1695 20.9369C77.433 20.6734 77.5648 20.366 77.5648 20.0147V6.28016L59.3509 21.2992Z" fill="white"/>
</svg>
