<svg width="45" height="44" viewBox="0 0 45 44" fill="none" xmlns="http://www.w3.org/2000/svg">
<path fill-rule="evenodd" clip-rule="evenodd" d="M44.0376 38.457C43.7809 36.6237 41.4342 34.6437 40.2792 33.837L39.0509 32.9753C37.8042 32.0403 38.2626 31.6186 37.5292 31.6186C37.5292 29.7853 37.7676 28.0803 37.7676 26.4853V24.2853C37.7676 23.5703 37.6209 22.8187 37.5109 22.0853C37.2542 20.4903 36.9059 18.877 36.4659 17.007C36.4387 16.82 36.3385 16.6514 36.1874 16.5381C36.0362 16.4247 35.8464 16.3758 35.6592 16.402C35.5673 16.4153 35.4789 16.447 35.3993 16.495C35.3197 16.543 35.2506 16.6065 35.1959 16.6817C35.1412 16.7568 35.1021 16.8422 35.081 16.9327C35.0598 17.0232 35.0569 17.117 35.0726 17.2087C35.2009 19.152 35.2009 20.8753 35.2742 22.4337C35.2742 23.607 35.2742 24.7437 35.4759 25.8987C35.6776 27.732 36.0259 29.5653 36.3559 31.6553H32.8176C30.6176 31.5636 28.3992 31.3253 26.1992 31.1786C24.6959 31.087 23.2109 31.032 21.7259 30.9953C19.8926 30.9953 18.1509 30.9953 16.3726 31.197C13.7142 31.3986 11.0926 31.747 8.43425 32.077C8.26893 32.077 8.11038 32.1427 7.99348 32.2596C7.87659 32.3765 7.81091 32.535 7.81091 32.7003C7.81091 32.8656 7.87659 33.0242 7.99348 33.1411C8.11038 33.258 8.26893 33.3236 8.43425 33.3236H13.7142C16.3359 33.3236 18.9392 33.3236 21.5792 33.4703C23.1559 33.4703 24.7326 33.562 26.3276 33.5987C27.9226 33.6353 29.5176 33.5987 31.1126 33.5987C32.9459 33.5987 34.8892 33.452 36.7409 33.2687L38.1159 34.3503L39.3442 35.3036C40.009 35.7841 40.6233 36.3308 41.1776 36.9353L33.6059 36.2753H26.1259C22.4592 36.2753 18.6642 36.4953 14.9426 36.4953C11.8626 36.6053 8.74591 37.027 5.64758 37.137H2.34758C2.68383 36.2989 3.14089 35.5144 3.70425 34.8087L4.95091 33.6903L6.78425 32.4803C6.93012 32.4025 7.03911 32.27 7.08724 32.1118C7.13538 31.9537 7.11871 31.7829 7.04091 31.637C6.97241 31.529 6.87233 31.4446 6.75426 31.3954C6.63619 31.3462 6.50585 31.3346 6.38091 31.362L6.63758 27.9886C6.76591 26.3203 6.96758 24.6703 7.09591 22.9837C7.22425 21.297 7.37091 19.647 7.37091 17.942C7.16925 13.652 7.00425 15.6687 9.20425 15.302L13.5492 14.5137C13.7195 14.461 13.8639 14.3466 13.9542 14.1931C14.0445 14.0395 14.0743 13.8577 14.0376 13.6833C14.0009 13.5089 13.9004 13.3546 13.7558 13.2504C13.6112 13.1463 13.4329 13.0999 13.2559 13.1203L9.02091 13.487C8.69091 13.487 7.18758 13.3587 6.45425 13.487C6.26368 13.5088 6.07945 13.5687 5.91252 13.6632C5.74559 13.7577 5.59938 13.8848 5.48258 14.037C5.28109 14.3789 5.156 14.7604 5.11591 15.1553C4.98758 16.0353 5.11591 17.4103 5.11591 17.9053C5.11591 19.592 4.93258 21.2787 4.91425 22.947C4.89591 24.6153 4.91425 26.3203 5.04258 28.007L5.20758 32.0953L4.30925 32.6453L2.82425 33.8553C1.60558 35.0326 0.69842 36.4941 0.184247 38.1087C-0.0480971 38.7623 -0.0610392 39.4739 0.147382 40.1355C0.355804 40.7972 0.774229 41.3728 1.33925 41.7753C1.95324 42.1809 2.64725 42.4498 3.37425 42.5637C4.30938 42.6938 5.254 42.7428 6.19758 42.7103L12.2109 42.967C17.4542 42.967 22.6976 43.2787 27.9226 43.297C30.1959 43.297 32.4692 43.297 34.7426 43.0587L38.5376 42.472L40.8842 41.867L42.4426 41.207C42.9848 41.0029 43.4398 40.6176 43.7305 40.1164C44.0212 39.6153 44.1297 39.029 44.0376 38.457ZM41.6176 39.5753L40.3342 40.052L38.1892 40.5286L34.6692 40.8587H30.2142C24.2192 40.8587 18.2242 40.492 12.2292 40.547H6.17925C5.33751 40.6204 4.49098 40.6204 3.64925 40.547C3.19274 40.4893 2.75117 40.3463 2.34758 40.1253C2.06504 39.9244 1.85755 39.6351 1.75794 39.303C1.65832 38.971 1.67227 38.6152 1.79758 38.292C1.79758 38.292 1.79758 38.2003 1.79758 38.1637C3.06124 38.3473 4.33449 38.4575 5.61091 38.4936C8.69091 38.6036 11.8259 38.4936 14.8876 38.4936H22.4042C26.0709 38.402 29.8659 38.1453 33.5876 38.017H41.9659H42.0759C42.1798 38.1423 42.2505 38.2917 42.2817 38.4514C42.3128 38.6112 42.3033 38.7762 42.254 38.9313C42.2047 39.0865 42.1173 39.2267 41.9996 39.3392C41.882 39.4518 41.7381 39.5329 41.5809 39.5753H41.6176Z" fill="url(#paint0_linear_395_3324)"/>
<path fill-rule="evenodd" clip-rule="evenodd" d="M17.2893 12.4419C17.9273 13.0332 18.6211 13.5612 19.361 14.0186C19.4317 14.082 19.5144 14.1307 19.6041 14.1618C19.6939 14.1929 19.7889 14.2058 19.8837 14.1998C19.9785 14.1938 20.0711 14.1689 20.1562 14.1267C20.2413 14.0845 20.3171 14.0257 20.3792 13.9538C20.4413 13.882 20.4885 13.7985 20.518 13.7082C20.5475 13.6179 20.5587 13.5226 20.5509 13.4279C20.5432 13.3333 20.5166 13.2411 20.4729 13.1568C20.4291 13.0725 20.369 12.9977 20.296 12.9369C19.8015 12.4965 19.3417 12.0184 18.921 11.5069C18.7444 11.2843 18.6304 11.0184 18.591 10.7369L18.9027 10.2603C19.234 9.75427 19.68 9.33345 20.2043 9.03194C20.8122 8.67071 21.4747 8.41065 22.166 8.26194L22.9543 8.13361C22.9543 8.13361 22.8077 8.31694 22.7527 8.42694C21.9186 9.84275 21.3006 11.3752 20.9193 12.9736C20.7527 13.5894 20.7496 14.238 20.9104 14.8553C21.0712 15.4726 21.3902 16.0373 21.836 16.4936L23.2477 17.9419C23.7141 18.4196 24.3022 18.7609 24.9483 18.9289C25.5945 19.0969 26.2743 19.0853 26.9143 18.8953C28.5258 18.4654 30.0643 17.7981 31.4793 16.9153C31.626 16.9153 31.7543 16.7136 31.901 16.6403L31.736 17.5753C31.5873 18.2666 31.3272 18.9291 30.966 19.5369C30.6578 20.088 30.2245 20.5589 29.701 20.9119L29.2243 21.2236C28.9428 21.1842 28.677 21.0703 28.4543 20.8936C27.9472 20.4681 27.4694 20.0087 27.0243 19.5186C26.8992 19.3791 26.7244 19.2943 26.5374 19.2824C26.3504 19.2705 26.1662 19.3325 26.0244 19.455C25.8826 19.5775 25.7946 19.7508 25.7794 19.9376C25.7641 20.1244 25.8227 20.3096 25.9427 20.4536C26.4 21.1935 26.9281 21.8873 27.5193 22.5253C27.8794 22.8727 28.3205 23.1248 28.8027 23.2586C29.1409 23.332 29.491 23.332 29.8293 23.2586C30.244 23.1747 30.6409 23.0196 31.0027 22.8003C31.8616 22.2894 32.5651 21.5542 33.0377 20.6736C33.3563 19.7992 33.5057 18.8722 33.4777 17.9419L33.331 16.1086C33.322 15.9988 33.322 15.8884 33.331 15.7786C34.5409 14.9317 35.6376 13.9337 36.5943 12.8086C38.0747 10.9951 39.0769 8.83937 39.5093 6.53861C39.6482 5.52892 39.6482 4.50497 39.5093 3.49528C39.4816 2.5772 39.1384 1.69671 38.5377 1.00194C37.8897 0.442079 37.081 0.101913 36.2277 0.0302764C35.2225 -0.0412921 34.2123 0.0141449 33.221 0.195276C30.9459 0.700514 28.8302 1.75834 27.061 3.27528C25.9288 4.25766 24.9248 5.3787 24.0727 6.61194H23.871L22.0377 6.39194C21.0575 6.38564 20.0856 6.57253 19.1777 6.94194C18.2562 7.40922 17.4915 8.13569 16.9777 9.03194C16.7686 9.38363 16.6199 9.76783 16.5377 10.1686C16.464 10.5007 16.464 10.8449 16.5377 11.1769C16.6862 11.6514 16.9436 12.0846 17.2893 12.4419ZM28.2893 4.81528C29.8472 3.61718 31.6709 2.81222 33.606 2.46861C34.2475 2.3579 34.8988 2.31489 35.5493 2.34028C35.9995 2.30273 36.4498 2.41208 36.8327 2.65194C37.0895 3.04848 37.2057 3.51979 37.1627 3.99028C37.2066 4.65772 37.1759 5.32799 37.071 5.98861C36.8 7.9298 36.0433 9.77115 34.871 11.3419C33.6533 12.9483 32.1492 14.3158 30.4343 15.3753C29.2047 16.2202 27.8583 16.8811 26.4377 17.3369C26.0694 17.4712 25.6723 17.5063 25.2862 17.4387C24.9001 17.3711 24.5385 17.2033 24.2377 16.9519L22.7527 15.5403C22.4888 15.2244 22.3126 14.8447 22.2418 14.4393C22.171 14.0338 22.2081 13.6169 22.3493 13.2303C22.8091 11.8102 23.483 10.4686 24.3477 9.25194C25.4073 7.55905 26.7608 6.069 28.3443 4.85194L28.2893 4.81528Z" fill="url(#paint1_linear_395_3324)"/>
<path fill-rule="evenodd" clip-rule="evenodd" d="M14.9976 19.5552C15.1711 19.6813 15.3627 19.7803 15.566 19.8486L15.4193 20.0502C14.6984 20.9219 14.083 21.8758 13.586 22.8919C13.3317 23.5396 13.2805 24.2494 13.4393 24.9269C13.5005 25.1152 13.6076 25.2854 13.751 25.4219C13.8894 25.563 14.0589 25.6698 14.246 25.7336C14.9956 25.9729 15.8048 25.947 16.5376 25.6602C17.5482 25.1635 18.496 24.548 19.361 23.8269L19.5626 23.6802C19.6344 23.8878 19.733 24.085 19.856 24.2669C20.0462 24.6511 20.377 24.9473 20.7798 25.0941C21.1826 25.2409 21.6265 25.227 22.0193 25.0552C22.7963 24.6495 23.3872 23.9601 23.6693 23.1302C23.8688 22.541 23.9437 21.9167 23.8893 21.2969C23.8235 20.502 23.7071 19.712 23.541 18.9319C23.5301 18.8388 23.5001 18.749 23.4528 18.6681C23.4055 18.5872 23.342 18.5169 23.2662 18.4618C23.1904 18.4067 23.104 18.3679 23.0125 18.3478C22.9209 18.3278 22.8262 18.3269 22.7343 18.3452C22.6425 18.3565 22.5538 18.386 22.4735 18.4318C22.3932 18.4777 22.3229 18.5392 22.2665 18.6126C22.2102 18.6859 22.1691 18.7698 22.1455 18.8593C22.122 18.9487 22.1164 19.042 22.1293 19.1336C22.2319 19.8564 22.287 20.5852 22.2943 21.3152C22.2973 21.7228 22.2227 22.1273 22.0743 22.5069C22.0743 22.6719 21.671 22.8186 21.4876 22.9836L21.396 21.7736C21.3106 21.4747 21.1102 21.2219 20.8387 21.0707C20.5671 20.9194 20.2467 20.8821 19.9476 20.9669L19.4343 21.1502L18.096 21.9202C17.656 22.1952 17.0143 22.6536 16.2626 23.0202H16.171C16.5076 22.3878 16.881 21.7756 17.2893 21.1869L18.041 19.8119C18.1153 19.6521 18.1766 19.4866 18.2243 19.3169C18.2329 19.2622 18.2329 19.2066 18.2243 19.1519C18.2621 19.0105 18.2692 18.8626 18.2451 18.7182C18.2211 18.5738 18.1664 18.4362 18.0848 18.3146C18.0032 18.1931 17.8965 18.0904 17.772 18.0135C17.6474 17.9365 17.5079 17.8871 17.3626 17.8686L16.0426 17.9419C16.0426 17.9419 16.0426 17.8502 15.9326 17.9419C15.8226 18.0336 15.9326 18.1252 15.9326 18.1069C15.9326 18.0886 16.4276 17.5019 16.7026 17.3919C17.0863 17.2313 17.4968 17.1442 17.9126 17.1352C18.6423 17.1366 19.3711 17.1856 20.0943 17.2819C20.1763 17.2949 20.26 17.2913 20.3406 17.2715C20.4212 17.2517 20.497 17.2159 20.5636 17.1664C20.6302 17.1169 20.6862 17.0546 20.7284 16.9831C20.7706 16.9116 20.7981 16.8325 20.8093 16.7502C20.8311 16.6577 20.832 16.5614 20.812 16.4684C20.792 16.3754 20.7516 16.2881 20.6937 16.2126C20.6358 16.1372 20.5619 16.0755 20.4772 16.0322C20.3926 15.9888 20.2994 15.9648 20.2043 15.9619C19.4291 15.7984 18.6458 15.676 17.8576 15.5952C17.2393 15.5457 16.6171 15.6141 16.0243 15.7969C15.2394 16.0972 14.5887 16.6699 14.191 17.4102C14.0261 17.8032 14.0177 18.2443 14.1677 18.6432C14.3177 19.042 14.6147 19.3684 14.9976 19.5552Z" fill="url(#paint2_linear_395_3324)"/>
<defs>
<linearGradient id="paint0_linear_395_3324" x1="22.0348" y1="13.1156" x2="22.0348" y2="43.297" gradientUnits="userSpaceOnUse">
<stop stop-color="#01FFD1"/>
<stop offset="1" stop-color="#44E4E6"/>
</linearGradient>
<linearGradient id="paint1_linear_395_3324" x1="28.048" y1="0" x2="28.048" y2="23.3137" gradientUnits="userSpaceOnUse">
<stop stop-color="#01FFD1"/>
<stop offset="1" stop-color="#44E4E6"/>
</linearGradient>
<linearGradient id="paint2_linear_395_3324" x1="18.6277" y1="15.5796" x2="18.6277" y2="25.8959" gradientUnits="userSpaceOnUse">
<stop stop-color="#01FFD1"/>
<stop offset="1" stop-color="#44E4E6"/>
</linearGradient>
</defs>
</svg>
