<svg width="44" height="44" viewBox="0 0 44 44" fill="none" xmlns="http://www.w3.org/2000/svg">
<path d="M15.8019 19.5063C16.3997 19.1668 16.9222 18.7092 17.3377 18.1615C17.7532 17.6138 18.053 16.9874 18.219 16.3202C18.3876 15.6838 18.426 15.0199 18.3318 14.3683C18.2376 13.7167 18.0127 13.0908 17.6707 12.5282C17.3287 11.9657 16.8766 11.478 16.3415 11.0944C15.8065 10.7108 15.1994 10.4392 14.5568 10.296C13.7899 10.0838 12.9799 10.0838 12.213 10.296C11.4048 10.5053 10.6549 10.896 10.0203 11.4386C9.38575 11.9812 8.8832 12.6612 8.55085 13.4271C8.19035 14.2533 8.07973 15.167 8.23267 16.0554C8.38562 16.9438 8.79542 17.7679 9.41146 18.426C10.2385 19.2418 11.2797 19.8068 12.4144 20.0556C13.5729 20.2862 14.7757 20.0911 15.8019 19.5063ZM10.3087 14.0131C10.4948 13.4733 10.7983 12.9816 11.1972 12.5731C11.5962 12.1647 12.0807 11.8498 12.6159 11.651C13.2488 11.4216 13.9422 11.4216 14.5751 11.651C15.0239 11.7282 15.4488 11.9084 15.8163 12.1774C16.1838 12.4463 16.484 12.7968 16.6933 13.2013C16.9026 13.6057 17.0154 14.0532 17.0228 14.5086C17.0301 14.9639 16.9319 15.4148 16.7358 15.8258C16.5973 16.2799 16.3618 16.6984 16.0457 17.0525C15.7295 17.4066 15.3402 17.6878 14.9047 17.8766C14.2418 18.1086 13.5208 18.1151 12.8539 17.895C12.1189 17.7124 11.4478 17.3325 10.9129 16.7963C10.5621 16.4313 10.3237 15.9731 10.2263 15.4763C10.1289 14.9795 10.1766 14.4652 10.3636 13.9948L10.3087 14.0131Z" fill="url(#paint0_linear_395_3341)"/>
<path d="M14.0992 31.2802C14.5531 31.36 15.012 31.409 15.4725 31.4267C15.7565 31.4456 16.0416 31.4146 16.3148 31.3351C16.6939 31.2307 17.0323 31.0136 17.2853 30.7125C17.6461 30.2454 17.9077 29.7096 18.0543 29.1378C18.2741 28.4054 18.2741 27.5997 18.4938 26.8856C18.5529 26.6088 18.7087 26.3621 18.9333 26.1898C19.0342 26.0988 19.1534 26.0305 19.2829 25.9895C19.4123 25.9484 19.5491 25.9356 19.684 25.9517C20.5319 26.3129 21.4158 26.5829 22.3208 26.7574C22.8306 26.7432 23.3259 26.5845 23.749 26.2996C24.3716 25.8308 24.948 25.3035 25.4702 24.7249C25.8261 24.4029 26.1567 24.054 26.459 23.6812C26.6757 23.3965 26.8202 23.0635 26.8801 22.7107C26.9297 22.3756 26.8853 22.0333 26.752 21.7219C26.5532 21.2602 26.2811 20.8335 25.9463 20.4585C25.5341 19.9672 25.1664 19.4402 24.8476 18.8838C24.729 18.7228 24.6491 18.5366 24.6142 18.3397C24.5793 18.1428 24.5902 17.9405 24.6462 17.7485C24.8216 17.3941 25.0715 17.0819 25.3787 16.8329C25.7256 16.5482 26.107 16.3083 26.5139 16.1188C26.8069 15.9723 27.2097 15.8991 27.5393 15.7343C27.8193 15.6131 28.0602 15.4166 28.2351 15.1667C28.4652 14.8415 28.6101 14.4637 28.6563 14.068C28.7116 13.6303 28.7116 13.1874 28.6563 12.7496L28.3999 11.1932C28.3999 10.827 28.2901 10.3692 28.1985 9.9664C28.1525 9.72436 28.0724 9.49008 27.9605 9.27059C27.7688 8.90465 27.4591 8.61426 27.0816 8.4466C26.5359 8.24382 25.9606 8.13246 25.3787 8.11701C24.9692 8.07777 24.5713 7.95963 24.2068 7.7691C23.8768 7.64696 23.5859 7.43823 23.3645 7.16485C23.246 6.89134 23.2022 6.59129 23.2376 6.29534C23.273 5.99939 23.3863 5.71812 23.5659 5.48025C23.9294 4.92274 24.1842 4.30144 24.3166 3.64917C24.3681 3.18893 24.2716 2.72426 24.0411 2.32257C23.8107 1.92089 23.4582 1.60308 23.0349 1.41525C22.3409 0.996482 21.6043 0.652745 20.8376 0.389848C20.4006 0.220598 19.9251 0.176219 19.4643 0.261673C18.1276 0.66451 17.4684 2.09275 16.3697 2.75194C16.0359 2.95749 15.6414 3.04157 15.2528 2.98998C14.9441 2.95851 14.6514 2.83759 14.4105 2.64208C14.1543 2.4193 13.9484 2.14469 13.8062 1.8364C13.8062 1.61667 13.6414 1.1589 13.4949 0.865929C13.4309 0.674794 13.3172 0.504151 13.1654 0.371537C12.7814 0.100764 12.3155 -0.028645 11.847 0.00532126C10.774 0.15745 9.73047 0.472355 8.75245 0.939172C8.36029 1.07491 8.01458 1.31892 7.75534 1.64297C7.4961 1.96702 7.33392 2.35786 7.28758 2.77025C7.2724 3.55219 7.35233 4.33308 7.52562 5.09572C7.60592 5.35541 7.62289 5.63055 7.57511 5.89814C7.52732 6.16573 7.41618 6.41799 7.25096 6.63383C6.71995 7.20147 6.11569 7.03667 5.52975 6.85356C4.94212 6.62812 4.32574 6.48636 3.69867 6.43241C3.41131 6.42955 3.12732 6.49436 2.86966 6.6216C2.61199 6.74884 2.3879 6.93494 2.21549 7.16485C1.51399 7.96108 0.989703 8.89729 0.677383 9.91147C0.530456 10.3152 0.46923 10.7452 0.497603 11.174C0.525975 11.6027 0.643326 12.0208 0.84218 12.4017C1.46475 13.3356 2.45353 13.83 3.09441 14.6723C3.28481 14.925 3.41053 15.2205 3.46062 15.5329C3.49594 15.7305 3.48629 15.9335 3.4324 16.1269C3.37851 16.3202 3.28177 16.499 3.14934 16.6498C2.58095 17.2441 1.96888 17.7949 1.31826 18.2978C0.688131 18.7931 0.237858 19.4813 0.0365048 20.2571C-0.0457017 20.7211 0.0116525 21.199 0.201302 21.6304C0.564278 22.3112 1.03412 22.9294 1.59292 23.4615C2.16448 24.2195 2.77569 24.9469 3.424 25.6404C3.86005 26.0691 4.41524 26.3563 5.01704 26.4644C6.09111 26.3632 7.15233 26.1547 8.18481 25.8419C8.39877 25.7707 8.63004 25.7707 8.844 25.8419C8.95928 25.906 9.05864 25.9953 9.13471 26.103C9.21079 26.2108 9.26163 26.3343 9.28346 26.4644C9.34677 27.3896 9.53779 28.3016 9.8511 29.1744C10.2399 29.8077 10.825 30.2964 11.5174 30.5661C12.3437 30.9142 13.2115 31.1542 14.0992 31.2802ZM11.2427 25.5672C10.978 24.9645 10.5119 24.4725 9.92434 24.1756C9.36138 23.8835 8.71924 23.7808 8.09326 23.8826C7.17772 24.0108 6.26218 24.615 5.34664 24.5418C5.1086 24.5418 4.87056 24.2671 4.61421 24.0108C3.97333 23.3882 3.36907 22.5642 3.02117 22.1797C2.71238 21.8828 2.4248 21.5647 2.16056 21.2275C2.01407 21.0078 1.84927 20.7881 1.90421 20.5684C2.0405 20.0476 2.3588 19.5929 2.80144 19.2866C3.46913 18.8045 4.08303 18.252 4.63252 17.6386C4.90562 17.3023 5.09864 16.9083 5.19698 16.4864C5.29532 16.0645 5.29641 15.6257 5.20015 15.2033C5.10315 14.6252 4.857 14.0824 4.48603 13.6286C3.69867 12.8778 2.72819 12.4384 2.12394 11.5411C1.84927 11.1566 2.01407 10.5157 2.2338 9.89316C2.4567 9.22722 2.79786 8.60693 3.2409 8.06207C3.53387 7.75079 3.90008 7.84235 4.28461 7.9339C4.92529 8.15761 5.58836 8.3111 6.26218 8.39167C6.62607 8.41038 6.98931 8.344 7.32306 8.19778C7.65681 8.05157 7.95187 7.82956 8.18481 7.54937C8.44481 7.24838 8.63538 6.89385 8.74297 6.51094C8.85057 6.12803 8.87256 5.72613 8.80738 5.33377C8.61167 4.5416 8.49513 3.73195 8.45947 2.91674C8.48029 2.70541 8.55996 2.50416 8.68943 2.33585C8.81891 2.16753 8.99299 2.0389 9.19191 1.96458C10.0001 1.66481 10.8335 1.43807 11.6822 1.28708C11.8858 1.23002 12.1011 1.23002 12.3047 1.28708C12.3324 1.61039 12.4325 1.92331 12.5977 2.20262C12.8053 2.71182 13.1318 3.16389 13.5499 3.521C13.9818 3.89792 14.5183 4.13426 15.088 4.1985C15.7861 4.31684 16.5033 4.1734 17.1022 3.79566C18.091 3.1914 18.6586 1.87302 19.8671 1.54343C20.0868 1.54343 20.4897 1.68992 20.9108 1.87302C21.3613 2.0714 21.7959 2.30402 22.2109 2.56883C22.6137 2.8435 22.7968 3.04491 22.7602 3.31958C22.5616 3.96138 22.2848 4.57634 21.9362 5.15066C21.7006 5.58326 21.5772 6.068 21.5772 6.56059C21.5772 7.05318 21.7006 7.53792 21.9362 7.97052C22.2158 8.44605 22.6051 8.84785 23.0715 9.14241C23.7145 9.53435 24.4313 9.78989 25.1772 9.89316L26.3491 10.0946L26.6238 11.6144L26.8069 12.9877C26.8256 13.2437 26.8256 13.5007 26.8069 13.7567C26.7982 13.8855 26.7607 14.0107 26.697 14.123L25.6716 14.4892C24.9998 14.7901 24.3814 15.1983 23.8405 15.6977C23.4445 16.0718 23.1162 16.5117 22.8701 16.9977C22.7026 17.3786 22.6162 17.7902 22.6162 18.2063C22.6162 18.6223 22.7026 19.0339 22.8701 19.4148C23.2491 20.2746 23.7485 21.0761 24.3533 21.7952L24.8293 22.5276L24.0603 23.3333C23.7673 23.6079 23.4011 24.0291 22.9983 24.377C22.5954 24.7249 22.5954 24.7615 22.3574 24.7615C21.9033 24.7098 21.4659 24.5598 21.0756 24.3221C20.5697 24.0871 20.0217 23.9563 19.4643 23.9375C18.7963 23.9572 18.1531 24.1952 17.6332 24.615C17.1815 24.9492 16.8275 25.3981 16.6078 25.9151C16.3503 26.805 16.1485 27.7101 16.0035 28.6251C15.9093 28.8849 15.7929 29.136 15.6556 29.3759L14.3922 29.1378C13.8275 29.0813 13.2695 28.971 12.7259 28.8082C12.3637 28.7435 12.0379 28.548 11.8104 28.2589C11.6466 27.8447 11.5597 27.4042 11.554 26.9588C11.5144 26.4829 11.4097 26.0146 11.2427 25.5672Z" fill="url(#paint1_linear_395_3341)"/>
<path d="M28.9127 22.4727C29.5896 22.9365 30.1378 23.5645 30.5061 24.2978C30.8744 25.0311 31.0506 25.8459 31.0184 26.6659C31.0191 27.291 30.9075 27.9112 30.6889 28.4969C30.4308 29.3493 29.8709 30.0783 29.1141 30.5477C28.2984 31.0331 27.3488 31.2448 26.4041 31.152C25.9565 31.1556 25.5161 31.0384 25.1295 30.8129C24.7428 30.5873 24.4241 30.2617 24.2068 29.8702C24.151 29.7124 24.0347 29.5832 23.8836 29.5111C23.7325 29.439 23.559 29.4299 23.4012 29.4857C23.2433 29.5416 23.1141 29.6578 23.042 29.8089C22.9699 29.96 22.9608 30.1336 23.0166 30.2914C23.2088 30.8293 23.5242 31.3147 23.9375 31.709C24.3509 32.1032 24.8507 32.3953 25.397 32.5619C26.9529 33.0833 28.649 32.9916 30.1395 32.3056C31.1608 31.7424 31.9707 30.8617 32.4467 29.797C32.915 28.7783 33.1045 27.6536 32.996 26.5377C32.8943 25.4467 32.5005 24.4034 31.8561 23.5173C31.2117 22.6312 30.3404 21.9351 29.3339 21.5022C29.2694 21.4579 29.1962 21.4278 29.1192 21.414C29.0422 21.4002 28.9632 21.403 28.8874 21.4223C28.8115 21.4415 28.7407 21.4767 28.6796 21.5255C28.6184 21.5743 28.5685 21.6357 28.533 21.7054C28.4974 21.7751 28.4772 21.8516 28.4737 21.9297C28.4701 22.0078 28.4833 22.0858 28.5123 22.1585C28.5413 22.2311 28.5855 22.2968 28.6419 22.3509C28.6984 22.4051 28.7657 22.4466 28.8395 22.4727H28.9127Z" fill="url(#paint2_linear_395_3341)"/>
<path d="M40.7416 29.3942C41.5731 29.0128 42.3696 28.5594 43.122 28.0392C43.4405 27.6984 43.6822 27.2931 43.8307 26.8509C43.9791 26.4086 44.0309 25.9397 43.9826 25.4757C43.7341 23.7097 43.1097 22.0175 42.1515 20.5134C41.8887 20.0311 41.4779 19.646 40.9796 19.4148C40.2985 19.1491 39.5658 19.0427 38.8372 19.1035C38.4876 19.1567 38.1304 19.1282 37.7936 19.0202C37.4569 18.9122 37.1497 18.7276 36.8963 18.4809C36.7901 18.3599 36.7133 18.2159 36.672 18.0602C36.6307 17.9046 36.626 17.7415 36.6583 17.5837C36.8355 16.7981 36.9699 16.0035 37.0611 15.2033C37.0684 14.6477 36.9426 14.0985 36.6941 13.6015C36.4456 13.1045 36.0817 12.6743 35.6329 12.3468C34.3793 11.5443 32.9431 11.0719 31.458 10.9735C31.3858 10.9632 31.3122 10.9674 31.2416 10.9859C31.171 11.0043 31.1048 11.0367 31.0469 11.081C30.9889 11.1253 30.9404 11.1807 30.9041 11.244C30.8678 11.3073 30.8444 11.3772 30.8354 11.4496C30.8251 11.5218 30.8293 11.5954 30.8478 11.666C30.8663 11.7365 30.8986 11.8028 30.9429 11.8607C30.9872 11.9187 31.0426 11.9672 31.1059 12.0035C31.1692 12.0398 31.2391 12.0632 31.3115 12.0722C32.5805 12.1733 33.8029 12.5955 34.8638 13.299C35.1424 13.515 35.3669 13.7929 35.5194 14.1108C35.672 14.4286 35.7484 14.7776 35.7427 15.1301C35.7427 16.009 35.23 16.9611 35.2483 17.8401C35.249 18.3984 35.4504 18.9378 35.816 19.3599C36.1198 19.7535 36.5249 20.0573 36.9879 20.2388C37.6566 20.4813 38.3641 20.5992 39.0753 20.5867C39.7162 20.5867 40.357 20.5867 40.7416 21.2642C41.4058 22.3944 41.882 23.6251 42.1515 24.908C42.2614 25.6038 42.298 26.2813 41.8768 26.7391C41.4557 27.1969 39.7711 27.6546 38.9837 28.2955C38.5871 28.6009 38.3088 29.0345 38.1964 29.5223C38.1159 29.8705 38.1188 30.2327 38.2047 30.5795C38.2906 30.9263 38.4571 31.2479 38.6908 31.5182C39.0666 31.9321 39.4838 32.3064 39.9359 32.6352C40.1922 32.8183 40.4669 32.9648 40.5402 33.2028L40.119 34.1733C39.6163 35.0115 39.0724 35.8243 38.4893 36.6086C38.2008 37.0266 37.8557 37.4025 37.4639 37.7256L36.8414 37.5242C35.9274 36.9753 34.9724 36.4978 33.9849 36.0959C33.6332 35.985 33.261 35.9554 32.8962 36.0093C32.5314 36.0632 32.1837 36.1993 31.8791 36.4072C31.3993 36.7301 31.0188 37.1803 30.7805 37.7073C30.5179 38.4917 30.3399 39.302 30.2495 40.1243C30.2495 40.5455 30.1213 40.9483 29.6818 41.0765C29.2066 41.2016 28.7233 41.2934 28.2353 41.3511C27.4479 41.4427 26.6422 41.461 25.8366 41.5342L24.8295 41.6807C24.5678 41.3161 24.3754 40.9064 24.2618 40.4722C24.0479 39.7483 23.7336 39.058 23.328 38.4214C23.1002 38.0962 22.8093 37.82 22.4728 37.6093C22.1362 37.3985 21.7608 37.2575 21.3687 37.1946C20.8102 37.0869 20.2315 37.1844 19.7391 37.4692C19.1486 37.8647 18.6441 38.3754 18.2559 38.9707C17.908 39.4102 17.5967 39.9229 16.9009 39.6482C16.5316 39.482 16.1764 39.2861 15.8389 39.0623C14.9416 38.458 14.136 37.7073 13.2571 37.1213C13.0007 36.9565 12.5796 36.7368 12.2316 36.4988C12.0963 36.419 11.978 36.3132 11.8837 36.1875C11.7189 35.803 12.0668 35.2719 12.4148 34.7592C12.7696 34.2049 13.23 33.7259 13.7698 33.3493C13.8412 33.3078 13.9037 33.2524 13.9536 33.1864C14.0034 33.1204 14.0396 33.0452 14.0601 32.9651C14.0806 32.885 14.0848 32.8016 14.0727 32.7198C14.0606 32.638 14.0323 32.5594 13.9895 32.4887C13.9497 32.4178 13.8961 32.3557 13.8317 32.3061C13.7674 32.2564 13.6937 32.2202 13.6151 32.1997C13.5364 32.1792 13.4545 32.1748 13.3741 32.1867C13.2937 32.1986 13.2165 32.2266 13.1472 32.269C12.2712 32.8336 11.5429 33.5996 11.0231 34.5029C10.7791 34.8286 10.6126 35.2058 10.5365 35.6056C10.4603 36.0055 10.4765 36.4174 10.5837 36.81C10.7227 37.0892 10.923 37.3333 11.1696 37.5242C11.5541 37.8538 12.1035 38.1467 12.3964 38.3665C13.2754 38.9707 14.0444 39.7581 14.9233 40.3623C15.3367 40.671 15.7854 40.9292 16.26 41.1314C16.7595 41.3816 17.335 41.4339 17.8714 41.2779C18.6119 41.0068 19.2511 40.5146 19.7025 39.868C20.0687 39.3919 20.3983 38.8059 21.0941 38.9341C21.2654 38.9673 21.4282 39.0347 21.573 39.1323C21.7177 39.2298 21.8413 39.3554 21.9364 39.5017C22.2801 40.1385 22.5445 40.8149 22.7237 41.5159C22.9201 42.17 23.2719 42.7669 23.7491 43.2555C23.9714 43.4467 24.2454 43.5678 24.5365 43.6034C25.0273 43.6173 25.5182 43.5805 26.0014 43.4935C26.8437 43.4935 27.6493 43.4935 28.4733 43.3653C29.0905 43.3161 29.7027 43.2181 30.3044 43.0723C30.9215 42.9329 31.4638 42.5669 31.8242 42.0469C32.2003 41.3708 32.4252 40.6211 32.4834 39.8496C32.5749 39.2088 32.5933 38.513 33.1609 38.1284C33.3623 37.9819 33.6004 38.1284 33.8567 38.22C34.699 38.5679 35.5596 39.2271 36.1639 39.4834C36.6039 39.6827 37.0743 39.8065 37.5555 39.8496C37.8859 39.844 38.2085 39.7491 38.4893 39.575C39.1451 39.1029 39.7202 38.5279 40.1922 37.8721C40.8514 36.9565 41.4374 35.8945 41.8768 35.1621C42.1956 34.6578 42.4191 34.0992 42.536 33.5141C42.607 33.1403 42.5753 32.7544 42.4445 32.3971C42.3617 32.1689 42.2375 31.9579 42.0783 31.7746C41.6912 31.3462 41.2548 30.9652 40.7782 30.6393C40.5818 30.518 40.4031 30.3701 40.2472 30.1998C40.1999 30.1592 40.1622 30.1085 40.1369 30.0515C40.1115 29.9945 40.0992 29.9326 40.1007 29.8703C40.1556 29.6322 40.4669 29.5407 40.7416 29.3942Z" fill="url(#paint3_linear_395_3341)"/>
<defs>
<linearGradient id="paint0_linear_395_3341" x1="13.2739" y1="10.1368" x2="13.2739" y2="20.15" gradientUnits="userSpaceOnUse">
<stop stop-color="#01FFD1"/>
<stop offset="1" stop-color="#44E4E6"/>
</linearGradient>
<linearGradient id="paint1_linear_395_3341" x1="14.3489" y1="0" x2="14.3489" y2="31.4321" gradientUnits="userSpaceOnUse">
<stop stop-color="#01FFD1"/>
<stop offset="1" stop-color="#44E4E6"/>
</linearGradient>
<linearGradient id="paint2_linear_395_3341" x1="28.0031" y1="21.4054" x2="28.0031" y2="32.8959" gradientUnits="userSpaceOnUse">
<stop stop-color="#01FFD1"/>
<stop offset="1" stop-color="#44E4E6"/>
</linearGradient>
<linearGradient id="paint3_linear_395_3341" x1="27.2447" y1="10.968" x2="27.2447" y2="43.6062" gradientUnits="userSpaceOnUse">
<stop stop-color="#01FFD1"/>
<stop offset="1" stop-color="#44E4E6"/>
</linearGradient>
</defs>
</svg>
