<svg width="128" height="128" viewBox="0 0 128 128" fill="none" xmlns="http://www.w3.org/2000/svg">
<g filter="url(#filter0_d_387_3456)">
<circle cx="64" cy="60" r="50" fill="#C7F5FF"/>
<circle cx="64" cy="60" r="49.5" stroke="#9FC4CC"/>
</g>
<g clip-path="url(#clip0_387_3456)">
<path fill-rule="evenodd" clip-rule="evenodd" d="M71.5007 39.1667C71.6674 40.0208 71.6257 40.7917 72.4382 40.8125C73.2507 40.8333 73.1674 40.2083 73.6049 39.1875C75.1049 38.9167 75.6882 39.0417 75.6882 38.3125C75.6882 37.5833 75.0632 37.3958 73.8757 36.9792C73.5215 35.1875 73.3549 34.8958 72.8757 34.8958C72.3965 34.8958 72.2924 35.2083 71.584 36.625C69.3757 36.9792 69.1882 37.2083 69.1257 37.6458C69.0632 38.0833 69.0215 38.5417 71.5007 39.1667Z" fill="black"/>
<path fill-rule="evenodd" clip-rule="evenodd" d="M83.8546 63.9583C83.4379 62.8958 83.4171 62.1042 82.6671 62.1875C81.9171 62.2708 82.1254 62.7708 81.7921 64.0833H81.6046C78.5837 64.9167 78.7296 65.2917 78.7504 65.6042C78.7712 65.9167 79.1254 66.3958 81.7296 66.5833C82.4171 69.5417 83.0212 69.3125 83.2921 69.2917C83.5629 69.2708 84.1046 68.9583 84.2712 66.3542V66.25C86.3546 65.6458 86.8546 65.6667 86.8337 64.8958C86.8129 64.125 86.5629 64.1667 83.8546 63.9583Z" fill="black"/>
<path fill-rule="evenodd" clip-rule="evenodd" d="M49.8132 51.6667C49.1802 51.7009 48.5556 51.8272 47.9591 52.0417C47.6857 52.1647 47.4462 52.3522 47.2612 52.588C47.0761 52.8239 46.951 53.1011 46.8966 53.3959C46.7223 54.3932 46.6387 55.4043 46.6466 56.4167C46.6466 58.625 46.5007 60.8334 46.5216 63.0625C46.5216 64.5625 46.5216 66.0625 46.7091 67.5417C46.8549 69.625 46.7091 74.625 46.8341 76.7917C46.8091 77.1593 46.8091 77.5282 46.8341 77.8959C46.8523 78.1293 46.9336 78.3535 47.0694 78.5443C47.2052 78.7351 47.3903 78.8855 47.6049 78.9792C48.727 79.2212 49.8742 79.3261 51.0216 79.2917C54.5841 79.2917 60.3757 79.1667 62.6674 79.1042L68.8132 78.8125C68.8132 78.8125 70.0216 78.8125 70.4591 78.7084C70.6991 78.6869 70.9247 78.5845 71.0988 78.4179C71.2729 78.2513 71.3853 78.0305 71.4174 77.7917C71.4543 77.0977 71.4543 76.4023 71.4174 75.7084C71.2924 74.0834 71.0216 72.25 70.8549 71.0417C70.8445 70.9375 70.8136 70.8364 70.7639 70.7443C70.7141 70.6521 70.6466 70.5708 70.5653 70.5049C70.4839 70.439 70.3902 70.3899 70.2898 70.3605C70.1893 70.331 70.084 70.3218 69.9799 70.3334C69.7677 70.3595 69.5744 70.4681 69.4418 70.6358C69.3092 70.8035 69.248 71.0167 69.2716 71.2292C69.2716 72.25 69.5424 73.75 69.6257 75.1875V76.75L68.7716 76.9375H62.6674C60.9174 76.9375 57.2091 76.9375 53.9799 76.8125C52.0841 76.8125 50.3757 76.8125 49.4382 76.6875C49.4382 74.4584 49.4382 69.375 49.3132 67.3125C49.1882 65.875 49.1466 64.4375 49.1049 63V56.3959C49.0632 53.3542 47.3341 54.2084 53.7924 53.625L66.5424 52.7917C66.7303 52.7779 66.9049 52.69 67.028 52.5474C67.1511 52.4048 67.2125 52.2191 67.1987 52.0313C67.1848 51.8434 67.097 51.6687 66.9544 51.5457C66.8118 51.4226 66.6261 51.3612 66.4382 51.375L53.5841 51.6667H49.8132Z" fill="black"/>
<path fill-rule="evenodd" clip-rule="evenodd" d="M43.9795 57.4792C43.9795 54.5 44.2295 51.5417 44.542 48.5833H44.792C45.8855 48.3896 46.9939 48.292 48.1045 48.2917C48.8337 48.2917 49.5837 48.2917 50.3337 48.1667C55.8962 47.5 53.5837 48.2708 55.4587 45.6875C55.7226 45.2865 56.0539 44.9341 56.4378 44.6458C56.8571 44.2916 57.3371 44.0163 57.8545 43.8333C58.1561 43.6989 58.4826 43.6294 58.8128 43.6294C59.143 43.6294 59.4695 43.6989 59.7712 43.8333C61.1022 44.6292 62.0898 45.8916 62.542 47.375C62.5685 47.4767 62.6151 47.5721 62.6789 47.6556C62.7427 47.7392 62.8225 47.8092 62.9136 47.8615C63.0048 47.9139 63.1055 47.9476 63.2098 47.9606C63.3141 47.9737 63.4199 47.9658 63.5212 47.9375C63.7082 47.8627 63.8608 47.7211 63.9493 47.5402C64.0379 47.3593 64.056 47.1519 64.0003 46.9583C63.8524 45.7298 63.3916 44.5598 62.6621 43.5603C61.9325 42.5608 60.9587 41.7653 59.8337 41.25C59.2648 41.083 58.6676 41.0356 58.0795 41.1109C57.4915 41.1862 56.9254 41.3825 56.417 41.6875C55.8174 42.0389 55.282 42.4898 54.8337 43.0208C54.3757 43.5733 54.0163 44.2005 53.7712 44.875C53.6243 45.2777 53.4991 45.688 53.3962 46.1042C52.5484 45.8837 51.6846 45.7305 50.8128 45.6458C50.3067 45.6042 49.7981 45.6042 49.292 45.6458C48.7737 45.6886 48.2587 45.7651 47.7503 45.875C43.0628 46.9583 42.5003 45.875 41.5003 59.1042C41.3545 60.7917 41.292 62.4792 41.292 64.1667V69.2083C41.5212 73.125 41.9378 77.0208 42.417 80.9167C42.4248 81.0227 42.4538 81.126 42.5024 81.2206C42.551 81.3151 42.6181 81.3989 42.6997 81.467C42.7814 81.535 42.8759 81.5859 42.9777 81.6167C43.0794 81.6474 43.1863 81.6573 43.292 81.6458C43.4981 81.62 43.6872 81.518 43.8221 81.36C43.957 81.202 44.028 80.9993 44.0212 80.7917C43.8128 76.1458 43.8128 71.5 43.8753 66.8333V61.2917C43.9587 60 43.9587 58.7083 43.9795 57.4792Z" fill="black"/>
<path fill-rule="evenodd" clip-rule="evenodd" d="M75.5418 64.4792C75.5243 64.3874 75.4888 64.2999 75.4374 64.2219C75.386 64.1438 75.3197 64.0767 75.2422 64.0244C75.1647 63.9721 75.0777 63.9357 74.9861 63.9172C74.8945 63.8987 74.8001 63.8985 74.7084 63.9167C74.5256 63.9568 74.3653 64.0658 74.2606 64.2209C74.1559 64.376 74.1148 64.5654 74.1459 64.75C74.3271 67.0162 74.3619 69.2918 74.2501 71.5625C74.2501 73.0625 74.2501 74.5625 74.1459 76.0417C74.0846 77.6534 73.8824 79.2568 73.5418 80.8333C73.4815 81.0378 73.502 81.2576 73.5988 81.4475C73.6957 81.6374 73.8617 81.7829 74.0626 81.8542C74.2643 81.9136 74.4812 81.8926 74.6676 81.7954C74.8541 81.6983 74.9957 81.5327 75.0626 81.3333C75.8432 79.462 76.3958 77.5034 76.7084 75.5C76.8485 74.6457 76.9251 73.7823 76.9376 72.9167C76.9893 72.0563 76.9893 71.1937 76.9376 70.3333C76.6393 68.3459 76.1723 66.3874 75.5418 64.4792Z" fill="black"/>
<path fill-rule="evenodd" clip-rule="evenodd" d="M72.6673 81.8125C71.0361 82.1539 69.3755 82.3353 67.709 82.3542C65.1465 82.3542 62.5215 82.3542 60.0632 82.25C58.7923 82.25 57.5423 82.25 56.2923 82.3959C54.4173 82.5 52.5423 82.6875 50.6673 82.75H46.6673C46.5742 82.7384 46.4797 82.7454 46.3893 82.7706C46.2989 82.7959 46.2144 82.8388 46.1408 82.897C46.0671 82.9551 46.0058 83.0273 45.9603 83.1094C45.9147 83.1915 45.886 83.2817 45.8757 83.375C45.8633 83.5587 45.9209 83.7402 46.0368 83.8832C46.1527 84.0261 46.3184 84.12 46.5007 84.1459C48.7622 84.5226 51.0439 84.7661 53.334 84.875C54.2507 84.875 55.1465 84.875 56.0632 85H60.1048C62.6257 84.875 65.2715 84.8334 67.8965 84.5209C69.656 84.3137 71.3926 83.944 73.084 83.4167C73.291 83.3584 73.4665 83.2204 73.5719 83.0329C73.6774 82.8455 73.7042 82.6239 73.6465 82.4167C73.622 82.3127 73.5772 82.2145 73.5147 82.1278C73.4522 82.0411 73.3732 81.9676 73.2823 81.9114C73.1913 81.8553 73.0902 81.8177 72.9847 81.8007C72.8791 81.7837 72.7713 81.7878 72.6673 81.8125Z" fill="black"/>
<path fill-rule="evenodd" clip-rule="evenodd" d="M79.5001 57.2292C79.6251 57.2292 79.7085 57.5208 79.8543 57.6667C80.0194 57.8393 80.2089 57.9867 80.4168 58.1042C80.6996 58.206 81.009 58.206 81.2918 58.1042C81.4748 58.0567 81.6456 57.9708 81.7928 57.8523C81.9401 57.7338 82.0605 57.5853 82.146 57.4167C82.3885 56.9664 82.5307 56.4688 82.5626 55.9583C82.6159 55.1259 82.6159 54.2908 82.5626 53.4583C82.5626 52.4792 82.5626 51.5 82.3335 50.5417C82.0418 48.2917 81.5418 46.1042 81.1251 43.875C81.067 43.6869 80.941 43.5272 80.7715 43.4271C80.602 43.3269 80.4013 43.2935 80.2085 43.3333C80.0399 43.3602 79.885 43.4424 79.7681 43.5668C79.6512 43.6912 79.579 43.8509 79.5626 44.0208C77.6251 44.4792 75.646 44.625 73.6668 44.9375C72.7501 45.1042 71.8335 45.3125 70.9585 45.5417C70.0785 45.7743 69.2315 46.1173 68.4376 46.5625C68.0469 46.7718 67.7331 47.1002 67.5418 47.5C67.4808 47.6945 67.4738 47.9019 67.5215 48.1C67.5692 48.2981 67.6698 48.4796 67.8126 48.625L68.4376 49.1042L70.521 50.6875C70.521 50.6875 70.3543 50.6875 70.3126 50.8542C69.271 52.4792 68.2293 54.125 67.1876 55.7292C66.4793 56.7708 65.7501 57.8125 64.9793 58.7917C64.9793 58.7917 64.5001 59.7708 64.0626 60.375C63.2918 59.8542 62.5418 59.2917 61.7501 58.7708C61.2887 58.4573 60.8087 58.172 60.3126 57.9167C59.8022 57.6194 59.2734 57.3549 58.7293 57.125C58.5383 57.0436 58.3328 57.0017 58.1251 57.0017C57.9175 57.0017 57.712 57.0436 57.521 57.125C57.0605 57.3995 56.6573 57.7603 56.3335 58.1875C55.771 58.8958 55.2918 59.8542 54.8751 60.4167L50.0626 67.6458C49.9565 67.7983 49.9144 67.9864 49.9456 68.1695C49.9768 68.3527 50.0787 68.5163 50.2293 68.625C50.385 68.7324 50.5764 68.775 50.763 68.7439C50.9496 68.7128 51.1168 68.6104 51.2293 68.4583C51.896 67.5695 52.5904 66.6945 53.3126 65.8333C54.4585 64.5417 55.6668 63.2917 56.771 62.0833C57.1668 61.6458 57.646 60.9375 58.146 60.3125L58.5001 59.9375C58.771 60.125 59.0626 60.3958 59.1251 60.4375L63.396 63.1875C63.7149 63.3397 64.076 63.3793 64.4203 63.2999C64.7646 63.2204 65.0718 63.0266 65.2918 62.75C65.9137 61.9853 66.4911 61.1853 67.021 60.3542C67.7293 59.25 68.4168 58.125 69.1043 56.9583C70.0626 55.25 70.9168 53.5208 71.8335 51.8125C71.8794 51.7074 71.903 51.5939 71.903 51.4792C71.903 51.3645 71.8794 51.251 71.8335 51.1458H72.0001C72.1324 51.0131 72.2067 50.8333 72.2067 50.6458C72.2067 50.4584 72.1324 50.2786 72.0001 50.1458L70.4793 48.4375C70.9585 48.3125 71.4376 48.2292 71.6668 48.1875C73.0835 47.7708 74.5418 47.4583 76.0001 47.0625C77.2263 46.721 78.43 46.3035 79.6043 45.8125L79.8751 53.7292V55.125C79.6087 54.9684 79.3576 54.7871 79.1251 54.5833C78.6408 54.2036 78.1943 53.778 77.7918 53.3125C77.7418 53.2363 77.6766 53.1712 77.6004 53.1211C77.5242 53.0711 77.4386 53.0372 77.3487 53.0216C77.2589 53.006 77.1669 53.0089 77.0782 53.0303C76.9896 53.0517 76.9063 53.091 76.8335 53.1458C76.7026 53.235 76.6091 53.3692 76.5707 53.5229C76.5323 53.6765 76.5517 53.8389 76.6251 53.9792C74.771 56.3542 72.896 58.75 70.9376 61.0625C69.646 62.5833 68.3335 64.0625 66.9168 65.4792C63.1043 69.1875 65.271 68.125 61.2293 66.0625C60.7405 65.8181 60.2317 65.616 59.7085 65.4583C59.5158 65.4088 59.3145 65.4037 59.1196 65.4434C58.9247 65.4831 58.7414 65.5666 58.5835 65.6875C57.324 66.7266 56.1274 67.8397 55.0001 69.0208C53.3543 70.7708 51.7918 72.625 50.1876 74.3542C50.0553 74.4869 49.981 74.6667 49.981 74.8542C49.981 75.0416 50.0553 75.2214 50.1876 75.3542C50.3264 75.483 50.5087 75.5547 50.6981 75.5547C50.8874 75.5547 51.0697 75.483 51.2085 75.3542C52.9168 73.7709 54.6251 72.0834 56.4376 70.5C57.3744 69.6638 58.3549 68.8779 59.3751 68.1458C59.6043 68.25 59.9585 68.3125 60.0001 68.3542C60.8126 68.8125 61.6668 69.5417 62.521 70.1042C62.9862 70.4132 63.4906 70.6584 64.021 70.8334C64.358 70.9525 64.7256 70.9525 65.0626 70.8334C65.4729 70.5868 65.863 70.3082 66.2293 70L68.8543 67.3542C70.2293 65.8125 71.5001 64.1875 72.7293 62.5417C74.4168 60.2292 76.0001 57.8333 77.6043 55.4583C77.7293 55.6042 77.8126 55.7708 77.9376 55.9167C78.4236 56.3941 78.946 56.833 79.5001 57.2292Z" fill="black"/>
</g>
<defs>
<filter id="filter0_d_387_3456" x="0" y="0" width="128" height="128" filterUnits="userSpaceOnUse" color-interpolation-filters="sRGB">
<feFlood flood-opacity="0" result="BackgroundImageFix"/>
<feColorMatrix in="SourceAlpha" type="matrix" values="0 0 0 0 0 0 0 0 0 0 0 0 0 0 0 0 0 0 127 0" result="hardAlpha"/>
<feOffset dy="4"/>
<feGaussianBlur stdDeviation="7"/>
<feComposite in2="hardAlpha" operator="out"/>
<feColorMatrix type="matrix" values="0 0 0 0 0.282353 0 0 0 0 0.0470588 0 0 0 0 0.658824 0 0 0 0.15 0"/>
<feBlend mode="normal" in2="BackgroundImageFix" result="effect1_dropShadow_387_3456"/>
<feBlend mode="normal" in="SourceGraphic" in2="effect1_dropShadow_387_3456" result="shape"/>
</filter>
<clipPath id="clip0_387_3456">
<rect width="50" height="50" fill="white" transform="translate(39 35)"/>
</clipPath>
</defs>
</svg>
