<svg width="44" height="31" viewBox="0 0 44 31" fill="none" xmlns="http://www.w3.org/2000/svg">
<path fill-rule="evenodd" clip-rule="evenodd" d="M4.23039 15.5286C6.06297 16.9214 7.36411 15.6203 5.95302 14.0809L5.80641 13.9343C5.50576 13.646 5.1875 13.3767 4.85347 13.1279C4.50528 12.8714 4.13876 12.6515 3.77224 12.4316C2.88568 11.933 1.9528 11.5218 0.986718 11.2037C0.823898 11.1235 0.635889 11.1113 0.464051 11.1697C0.292213 11.2282 0.150622 11.3524 0.0704268 11.5153C-0.00976839 11.6781 -0.0219988 11.8661 0.0364261 12.0379C0.0948511 12.2098 0.219145 12.3514 0.381966 12.4316C1.16998 12.963 1.82971 13.6411 2.58107 14.2641C3.06282 14.6924 3.57082 15.0903 4.10211 15.4553L4.23039 15.5286Z" fill="url(#paint0_linear_395_3328)"/>
<path fill-rule="evenodd" clip-rule="evenodd" d="M21.9884 25.5161C21.9277 25.346 21.8018 25.207 21.6386 25.1297C21.4753 25.0524 21.2881 25.0431 21.118 25.1038C20.9478 25.1646 20.8088 25.2904 20.7315 25.4537C20.6542 25.6169 20.6449 25.8042 20.7056 25.9743C20.8076 26.5089 20.6931 27.0622 20.3872 27.5124C20.0814 27.9626 19.6092 28.2728 19.0746 28.375C18.7514 28.3837 18.4309 28.3146 18.14 28.1734C17.8268 28.0535 17.5403 27.8729 17.297 27.6419C17.1346 27.4734 16.9817 27.2959 16.8389 27.1105C16.7552 26.981 16.6933 26.8386 16.6556 26.689C16.5812 26.3404 16.6332 25.9766 16.8022 25.6628C16.9305 25.5345 17.0221 25.4062 17.1321 25.2779C17.2841 25.0646 17.4772 24.8839 17.7002 24.7465C18.1032 24.4824 18.5745 24.3417 19.0563 24.3417C19.5381 24.3417 20.0094 24.4824 20.4124 24.7465C20.5293 24.843 20.6781 24.892 20.8295 24.884C20.9808 24.876 21.1236 24.8114 21.2296 24.7031C21.3357 24.5948 21.3971 24.4506 21.4019 24.2992C21.4067 24.1477 21.3544 23.9999 21.2554 23.8851C20.805 23.4236 20.2409 23.0891 19.6199 22.9154C18.9989 22.7416 18.343 22.7348 17.7185 22.8956C17.7146 22.61 17.6714 22.3264 17.5902 22.0526C17.528 21.8811 17.401 21.7409 17.2365 21.6621C17.072 21.5833 16.8832 21.5721 16.7106 21.6311C16.6242 21.6598 16.5445 21.7056 16.4762 21.7658C16.408 21.826 16.3525 21.8994 16.3132 21.9814C16.2738 22.0635 16.2514 22.1527 16.2473 22.2436C16.2432 22.3346 16.2574 22.4254 16.2891 22.5107C16.3899 22.8204 16.3899 23.154 16.2891 23.4637C15.7247 23.7873 15.2567 24.2554 14.933 24.8198C14.8599 24.8276 14.7862 24.8276 14.7131 24.8198C14.3953 24.8332 14.0796 24.7637 13.7968 24.6182C13.4442 24.5362 13.113 24.38 12.8255 24.16C12.6603 23.9991 12.5129 23.8209 12.3857 23.6286C12.2896 23.5039 12.2209 23.3602 12.1841 23.2071C12.125 22.8208 12.1909 22.4257 12.3722 22.0796C12.5536 21.7334 12.8408 21.4542 13.192 21.2829C13.5933 21.0142 14.0653 20.8708 14.5481 20.8708C15.031 20.8708 15.503 21.0142 15.9043 21.2829C16.0209 21.3947 16.1772 21.4555 16.3387 21.4521C16.5002 21.4487 16.6538 21.3812 16.7656 21.2646C16.8774 21.1479 16.9382 20.9916 16.9348 20.8301C16.9314 20.6686 16.8639 20.515 16.7472 20.4032C16.3757 20.0091 15.9168 19.7077 15.4076 19.5231C14.8984 19.3385 14.3529 19.2759 13.8151 19.3403C13.8805 18.8287 13.8044 18.309 13.5952 17.8376C13.5344 17.6675 13.4086 17.5285 13.2454 17.4512C13.0821 17.3738 12.8948 17.3645 12.7247 17.4253C12.5546 17.486 12.4156 17.6119 12.3383 17.7751C12.261 17.9384 12.2516 18.1257 12.3124 18.2958C12.3756 18.5649 12.3771 18.8448 12.3168 19.1145C12.2565 19.3843 12.136 19.6369 11.9642 19.8535C11.6075 20.0433 11.2803 20.284 10.9929 20.5682C10.8874 20.6215 10.7769 20.6644 10.6631 20.6965C10.3466 20.6965 10.034 20.6277 9.74678 20.4949C9.43353 20.3749 9.14706 20.1943 8.90379 19.9634C8.73632 19.7995 8.58305 19.6218 8.44564 19.432C8.3509 19.3018 8.28812 19.1511 8.26239 18.9921C8.18644 18.6 8.2491 18.1937 8.43965 17.8427C8.63019 17.4917 8.93678 17.2179 9.30696 17.0679C9.70993 16.8038 10.1813 16.6631 10.6631 16.6631C11.1449 16.6631 11.6162 16.8038 12.0192 17.0679C12.1376 17.1374 12.2761 17.1645 12.4119 17.1448C12.5478 17.1251 12.6729 17.0598 12.7667 16.9596C12.8605 16.8594 12.9174 16.7303 12.9281 16.5934C12.9388 16.4566 12.9026 16.3202 12.8255 16.2066C12.2467 15.6906 11.5378 15.3427 10.7755 15.2006C10.0132 15.0584 9.2265 15.1275 8.50062 15.4003C7.73603 15.6477 7.08571 16.1615 6.66804 16.848C6.14041 17.5862 5.90533 18.4938 6.00831 19.3953C6.0729 19.7811 6.20306 20.153 6.39315 20.4949C6.65308 20.9026 6.96068 21.2778 7.30944 21.6127C7.84284 22.0716 8.477 22.3981 9.16035 22.5657C9.43993 22.6515 9.72944 22.7008 10.0217 22.7123C9.98486 23.0105 9.98486 23.3121 10.0217 23.6103C10.0896 23.9921 10.2262 24.3584 10.4248 24.6915C10.6729 25.1131 10.9816 25.496 11.3411 25.8277C11.8726 26.2791 12.499 26.6048 13.1737 26.7806C13.6091 26.8996 14.0606 26.9491 14.5115 26.9272C14.5205 26.9757 14.5205 27.0254 14.5115 27.0738C14.5743 27.4628 14.7112 27.836 14.9147 28.1734C15.1631 28.5893 15.4719 28.9661 15.831 29.2913C16.355 29.7535 16.9842 30.0806 17.6635 30.2442C18.3344 30.4347 19.0451 30.4347 19.716 30.2442C20.207 30.0926 20.6626 29.8443 21.056 29.5138C21.4495 29.1833 21.7727 28.7774 22.0068 28.32C22.2086 27.8797 22.3116 27.4004 22.3084 26.916C22.3053 26.4316 22.196 25.9538 21.9884 25.5161Z" fill="url(#paint1_linear_395_3328)"/>
<path fill-rule="evenodd" clip-rule="evenodd" d="M19.789 4.8814C20.0383 4.92911 20.2834 4.99652 20.5221 5.08298C21.7865 5.59611 22.4829 4.25832 21.5666 3.67189C21.1105 3.3991 20.6164 3.19531 20.1006 3.06714C18.9561 2.82055 17.7764 2.78329 16.6187 2.95719C15.5963 3.02634 14.5693 2.97714 13.5582 2.81058L9.80145 1.39949C8.93363 1.03437 8.03106 0.758078 7.10756 0.574829C7.02929 0.581357 6.95322 0.604042 6.88417 0.641454C6.81511 0.678865 6.75456 0.730189 6.70634 0.792185C6.65812 0.85418 6.62328 0.925501 6.60402 1.00164C6.58476 1.07778 6.58149 1.15709 6.59443 1.23456C6.60676 1.37136 6.66671 1.49949 6.76383 1.59661C6.86095 1.69374 6.98908 1.75369 7.12588 1.76601C7.12588 1.76601 7.34579 1.87596 7.54738 1.98592C8.68358 2.57234 11.0843 4.07506 12.7153 4.89973C13.3853 5.2823 14.1283 5.51957 14.896 5.59611L16.9669 5.17461C17.8882 4.93952 18.839 4.84073 19.789 4.8814Z" fill="url(#paint2_linear_395_3328)"/>
<path fill-rule="evenodd" clip-rule="evenodd" d="M43.8324 0.336549C43.7373 0.17896 43.5837 0.0654366 43.4051 0.0207942C43.2265 -0.0238481 43.0376 0.00402232 42.8795 0.0983129L39.6175 1.9309C39.033 2.26602 38.4197 2.54814 37.7849 2.77388C37.4121 2.89372 37.0218 2.94949 36.6304 2.93882C36.017 2.92947 35.4049 2.8805 34.7978 2.79221C34.2584 2.69924 33.7258 2.57068 33.2034 2.40737C32.4338 2.15081 31.7007 1.82094 30.931 1.60103C30.3371 1.42114 29.7189 1.33459 29.0985 1.34447C28.6037 1.36753 28.1154 1.46642 27.6507 1.63768C27.0023 1.85331 26.3859 2.15536 25.8181 2.53565C25.36 2.81054 21.145 6.71394 20.7419 7.13543C20.0359 7.80417 19.4199 8.56188 18.9093 9.38951C18.5571 10.0122 18.3562 10.709 18.3229 11.4237C18.2818 11.8416 18.3363 12.2634 18.4823 12.6571C18.6284 13.0508 18.8621 13.4061 19.1659 13.6961C19.5969 14.0369 20.099 14.2764 20.6351 14.397C21.1712 14.5175 21.7275 14.516 22.2629 14.3925C23.209 14.2032 24.0955 13.7883 24.8469 13.183C25.5956 12.5874 26.2943 11.9316 26.936 11.2221C27.8693 11.6143 28.8591 11.8555 29.8681 11.9368C30.343 11.9916 30.8227 11.9916 31.2976 11.9368C31.7684 11.8686 32.2297 11.7456 32.672 11.5703C33.6831 11.1451 34.5991 10.522 35.3659 9.7377C35.4329 9.69369 35.4902 9.63639 35.5342 9.56936C35.5783 9.50232 35.6081 9.42697 35.6218 9.34796C35.6355 9.26896 35.6329 9.18797 35.6141 9.11001C35.5953 9.03205 35.5607 8.95877 35.5125 8.89471C35.4668 8.82971 35.4087 8.77434 35.3416 8.73179C35.2745 8.68923 35.1997 8.66032 35.1214 8.64671C35.0431 8.63309 34.9629 8.63504 34.8854 8.65244C34.8078 8.66984 34.7345 8.70234 34.6695 8.74811C33.8266 9.10552 32.9387 9.34599 32.0306 9.46281L30.4362 9.7377C30.0697 9.7377 29.7399 9.86598 29.3733 9.88431C28.8001 9.9302 28.224 9.9302 27.6507 9.88431C27.6686 9.81831 27.6686 9.74872 27.6507 9.68272C27.596 9.62619 27.5305 9.58124 27.4581 9.55054C27.3857 9.51984 27.3079 9.50402 27.2292 9.50402C27.1506 9.50402 27.0727 9.51984 27.0003 9.55054C26.9279 9.58124 26.8624 9.62619 26.8077 9.68272C25.9423 10.5422 25.0109 11.3326 24.0222 12.0468C23.4312 12.4536 22.7536 12.7171 22.043 12.8164C21.5512 12.8967 21.0468 12.8062 20.6136 12.5599C20.4413 12.4658 20.3038 12.3188 20.2213 12.1407C20.1388 11.9625 20.1157 11.7626 20.1555 11.5703C20.2323 11.1508 20.3945 10.7517 20.6319 10.3974C21.0883 9.75821 21.6171 9.174 22.2079 8.65648C23.1059 7.75851 24.0405 6.82389 24.9935 5.92593C25.5933 5.37391 26.2368 4.87136 26.9177 4.42321C27.2719 4.18403 27.6459 3.97557 28.0356 3.80013C28.7574 3.48331 29.5665 3.42506 30.3263 3.6352C31.0776 3.80013 31.7924 4.07502 32.5437 4.29493C33.2004 4.45843 33.8679 4.57479 34.5412 4.64312C35.2005 4.67957 35.8612 4.67957 36.5204 4.64312C37.1086 4.62606 37.6902 4.51468 38.243 4.31325C38.9703 4.00868 39.6694 3.64074 40.3322 3.2137L43.5026 1.21619C43.6605 1.14054 43.783 1.00672 43.8445 0.842752C43.906 0.678787 43.9017 0.497391 43.8324 0.336549Z" fill="url(#paint3_linear_395_3328)"/>
<path fill-rule="evenodd" clip-rule="evenodd" d="M34.0284 18.9006C33.9163 18.58 33.7815 18.2676 33.6252 17.966C33.1069 17.0767 32.4924 16.247 31.7926 15.492L29.8318 13.2563C29.7323 13.1409 29.593 13.0674 29.4416 13.0503C29.2903 13.0332 29.1381 13.0739 29.0154 13.1642C28.8927 13.2544 28.8086 13.3877 28.7799 13.5372C28.7512 13.6868 28.78 13.8417 28.8605 13.971L30.3083 16.5733C30.7847 17.3339 31.2013 18.1304 31.5544 18.9556C31.7776 19.418 31.926 19.9128 31.9942 20.4217C32.0525 20.7422 32.0418 21.0714 31.9628 21.3874C31.8838 21.7034 31.7383 21.9989 31.5361 22.2543C31.2792 22.5468 30.9508 22.7677 30.5831 22.8957C30.5561 22.8269 30.5255 22.7597 30.4915 22.6941C30.1049 22.1194 29.6762 21.5742 29.2087 21.0631L26.5698 18.076C26.5192 18.0014 26.4545 17.9374 26.3793 17.8879C26.304 17.8383 26.2198 17.804 26.1313 17.787C25.9526 17.7526 25.7675 17.7906 25.6168 17.8927C25.4662 17.9948 25.3622 18.1525 25.3278 18.3312C25.2935 18.5099 25.3315 18.695 25.4336 18.8457L27.4861 22.3459C27.8351 22.8363 28.1593 23.344 28.4573 23.8669C28.6158 24.1372 28.739 24.4267 28.8239 24.7282C28.9257 24.938 28.9557 25.1754 28.9094 25.4039C28.863 25.6324 28.7428 25.8393 28.5673 25.9927C28.3052 26.2096 27.9879 26.3492 27.651 26.3959C27.651 26.3959 27.651 26.2859 27.651 26.231C27.4565 25.815 27.2168 25.4217 26.9363 25.0581C26.4965 24.5267 26.075 24.0135 25.5985 23.5187C25.122 23.0239 24.6822 22.5475 24.1874 22.0893C24.087 21.9666 23.9424 21.8882 23.7847 21.871C23.627 21.8539 23.4689 21.8994 23.3444 21.9977C23.2204 22.1014 23.1416 22.2491 23.1245 22.4098C23.1074 22.5705 23.1534 22.7316 23.2528 22.859C23.546 23.2988 23.8026 23.7203 24.0591 24.1785C24.3157 24.6366 24.7738 25.5163 25.1037 26.2126L25.6168 27.4588L25.3603 27.8986C25.2366 28.0966 25.0736 28.2671 24.8813 28.3995C24.689 28.5319 24.4715 28.6234 24.2424 28.6683C23.7997 28.7861 23.329 28.7338 22.9229 28.5217C22.8472 28.4747 22.7629 28.443 22.6748 28.4286C22.5868 28.4142 22.4968 28.4173 22.41 28.4377C22.3232 28.4582 22.2412 28.4955 22.1689 28.5477C22.0965 28.5998 22.0352 28.6657 21.9883 28.7416C21.8924 28.8975 21.8617 29.0848 21.9028 29.2632C21.944 29.4415 22.0537 29.5965 22.2082 29.6945C22.7973 30.2052 23.5546 30.4794 24.334 30.4642C24.8418 30.4773 25.3467 30.3846 25.8168 30.1922C26.2868 29.9998 26.7117 29.7117 27.0646 29.3464C27.3321 29.0713 27.5547 28.7559 27.7243 28.4117C27.7802 28.2329 27.8171 28.0486 27.8343 27.862C28.4649 27.9059 29.0962 27.7859 29.6668 27.5138C30.2062 27.2119 30.6386 26.7501 30.9044 26.1921C31.1703 25.6341 31.2565 25.0074 31.1512 24.3984C31.8288 24.2713 32.4609 23.9679 32.9838 23.5187C33.4014 23.1383 33.7382 22.6779 33.9743 22.1647C34.2105 21.6516 34.341 21.0962 34.3583 20.5316C34.3162 19.9764 34.2054 19.4285 34.0284 18.9006Z" fill="url(#paint4_linear_395_3328)"/>
<path fill-rule="evenodd" clip-rule="evenodd" d="M43.9792 16.6465C43.9578 16.5597 43.9195 16.4781 43.8664 16.4062C43.8132 16.3343 43.7465 16.2736 43.6698 16.2276C43.5932 16.1816 43.5082 16.1512 43.4198 16.1382C43.3314 16.1252 43.2412 16.1298 43.1546 16.1517C42.0367 16.28 40.9555 16.3166 39.8743 16.4999C39.1385 16.6181 38.4147 16.8021 37.7118 17.0497C36.9037 17.3545 36.1347 17.7543 35.4211 18.2409C33.9184 18.8639 34.8163 20.0734 36.2274 19.6703L37.9317 19.3221L39.2145 19.0105L40.479 18.6074C41.4869 18.2592 42.4765 17.8743 43.4844 17.4712C43.5712 17.4497 43.6529 17.4114 43.7248 17.3583C43.7967 17.3052 43.8574 17.2384 43.9033 17.1617C43.9493 17.0851 43.9797 17.0001 43.9927 16.9117C44.0058 16.8233 44.0012 16.7332 43.9792 16.6465Z" fill="url(#paint5_linear_395_3328)"/>
<defs>
<linearGradient id="paint0_linear_395_3328" x1="3.27486" y1="11.1333" x2="3.27486" y2="16.1211" gradientUnits="userSpaceOnUse">
<stop stop-color="#01FFD1"/>
<stop offset="1" stop-color="#44E4E6"/>
</linearGradient>
<linearGradient id="paint1_linear_395_3328" x1="14.1466" y1="15.1285" x2="14.1466" y2="30.3871" gradientUnits="userSpaceOnUse">
<stop stop-color="#01FFD1"/>
<stop offset="1" stop-color="#44E4E6"/>
</linearGradient>
<linearGradient id="paint2_linear_395_3328" x1="14.2859" y1="0.574829" x2="14.2859" y2="5.59611" gradientUnits="userSpaceOnUse">
<stop stop-color="#01FFD1"/>
<stop offset="1" stop-color="#44E4E6"/>
</linearGradient>
<linearGradient id="paint3_linear_395_3328" x1="31.0986" y1="0" x2="31.0986" y2="14.4862" gradientUnits="userSpaceOnUse">
<stop stop-color="#01FFD1"/>
<stop offset="1" stop-color="#44E4E6"/>
</linearGradient>
<linearGradient id="paint4_linear_395_3328" x1="28.1216" y1="13.0465" x2="28.1216" y2="30.4654" gradientUnits="userSpaceOnUse">
<stop stop-color="#01FFD1"/>
<stop offset="1" stop-color="#44E4E6"/>
</linearGradient>
<linearGradient id="paint5_linear_395_3328" x1="39.3216" y1="16.131" x2="39.3216" y2="19.7508" gradientUnits="userSpaceOnUse">
<stop stop-color="#01FFD1"/>
<stop offset="1" stop-color="#44E4E6"/>
</linearGradient>
</defs>
</svg>
