<svg width="43" height="45" viewBox="0 0 43 45" fill="none" xmlns="http://www.w3.org/2000/svg">
<path d="M33.4404 17.0698C33.1073 16.89 32.7371 16.7896 32.3588 16.7765C31.4604 16.7765 30.0854 17.0331 29.5538 17.0698C29.2364 17.0478 28.9178 17.0478 28.6004 17.0698C28.3522 17.1294 28.1282 17.2638 27.9588 17.4548C27.5188 18.0048 27.3354 18.8298 26.9504 19.4348C26.8904 19.5395 26.8054 19.6277 26.7031 19.6917C26.6007 19.7556 26.4842 19.7934 26.3638 19.8015C25.9238 19.8015 25.6671 19.8015 25.5204 19.5265C24.9704 18.7931 24.8238 17.6931 23.8704 17.2898C23.352 17.1133 22.803 17.0446 22.2571 17.0881C21.4504 17.0881 20.5154 17.2531 19.8004 17.3265C19.8903 17.0998 19.9639 16.867 20.0204 16.6298C20.2404 15.5298 20.0204 14.3382 20.2588 13.2198L20.5888 13.3298C20.9384 13.4125 21.3025 13.4125 21.6521 13.3298C22.9436 12.9048 24.0167 11.9897 24.6404 10.7815C24.8748 10.3413 24.9973 9.85019 24.9973 9.35148C24.9973 8.85277 24.8748 8.36171 24.6404 7.92148C24.492 7.66225 24.2824 7.44323 24.03 7.28347C23.7776 7.12371 23.4899 7.02805 23.1921 7.00482C22.6317 6.94091 22.0658 6.94091 21.5054 7.00482H21.0288C20.5321 6.20422 20.1785 5.3233 19.9838 4.40148C19.8301 3.85033 19.5614 3.33797 19.1954 2.89815C18.7169 2.50932 18.1569 2.23326 17.557 2.09044C16.9572 1.94761 16.3329 1.94171 15.7304 2.07315C15.5765 2.08711 15.4337 2.15948 15.3314 2.2754C15.2291 2.39131 15.1751 2.54198 15.1804 2.69648C15.1851 2.77358 15.2049 2.84899 15.2388 2.9184C15.2727 2.9878 15.32 3.04984 15.3779 3.10094C15.4358 3.15204 15.5032 3.1912 15.5763 3.21617C15.6494 3.24115 15.7267 3.25145 15.8038 3.24648C17.1788 3.24648 17.8938 3.24648 18.2788 3.75982C18.5797 4.19106 18.7744 4.68733 18.8471 5.20815C19.0632 6.21325 19.4743 7.16622 20.0571 8.01315C20.1527 8.13944 20.2741 8.24397 20.4132 8.31982C20.5522 8.39568 20.7058 8.44112 20.8638 8.45315H22.5871C22.8804 8.45315 23.1921 8.45315 23.3204 8.65482C23.4587 8.95508 23.5046 9.28965 23.4524 9.61606C23.4001 9.94247 23.2521 10.246 23.0271 10.4881C22.5728 11.1049 21.9288 11.5558 21.1938 11.7715C21.0471 11.7715 20.8454 11.7715 20.6438 11.6431C20.2777 11.5565 19.8997 11.5317 19.5254 11.5698C19.2792 11.5853 19.045 11.6818 18.8593 11.8443C18.6736 12.0068 18.5468 12.2261 18.4988 12.4682C18.1871 13.7148 18.3521 15.0715 18.0771 16.3365C17.9934 16.6734 17.8573 16.9951 17.6738 17.2898C17.1971 17.2898 16.4271 16.9598 16.3354 16.9598C15.805 16.8063 15.256 16.7261 14.7038 16.7215C14.4376 15.8608 14.0552 15.0404 13.5671 14.2831C13.2683 13.8847 12.8807 13.5613 12.4352 13.3385C11.9898 13.1158 11.4985 12.9998 11.0004 12.9998C10.561 12.9732 10.1219 13.0584 9.72432 13.2476C9.32675 13.4367 8.98364 13.7237 8.7271 14.0815C8.14703 15.1088 7.78505 16.2447 7.66377 17.4181L6.93044 17.5465H3.96044C3.34172 17.5447 2.72571 17.4646 2.1271 17.3081C1.66877 17.1981 1.5771 16.7948 1.5771 16.3548C1.68754 15.2851 1.96596 14.2395 2.4021 13.2565C3.2586 11.2161 4.56903 9.39776 6.23377 7.93982C7.90051 6.43509 9.86943 5.30374 12.0088 4.62148C12.1075 4.56259 12.1837 4.47224 12.225 4.36492C12.2663 4.2576 12.2703 4.13952 12.2365 4.02962C12.2027 3.91971 12.1329 3.82434 12.0385 3.7588C11.944 3.69325 11.8302 3.66133 11.7154 3.66815C9.40335 4.3187 7.2544 5.4494 5.40877 6.98648C3.52643 8.53692 2.02702 10.5006 1.0271 12.7248C0.337926 14.0883 -0.014145 15.5971 0.00043507 17.1248C0.0535919 17.5836 0.245216 18.0153 0.549801 18.3624C0.854386 18.7096 1.25748 18.9558 1.70544 19.0681C2.41203 19.2644 3.13697 19.3873 3.86877 19.4348H6.94877C7.43109 19.4645 7.91478 19.4645 8.3971 19.4348C8.61546 19.4204 8.82455 19.3412 8.99764 19.2073C9.17073 19.0734 9.29995 18.8909 9.36877 18.6831C9.52301 17.6198 9.7872 16.5753 10.1571 15.5665C10.2149 15.3825 10.3294 15.2214 10.4841 15.1062C10.6388 14.991 10.8259 14.9275 11.0188 14.9248C11.2252 14.9241 11.429 14.9718 11.6137 15.0642C11.7984 15.1565 11.9588 15.2909 12.0821 15.4565C12.564 16.2908 12.9514 17.1763 13.2371 18.0965C13.3187 18.27 13.4416 18.4209 13.595 18.536C13.7484 18.6511 13.9277 18.7268 14.1171 18.7565C14.8496 18.807 15.5846 18.807 16.3171 18.7565C16.5004 18.7565 17.7104 18.9215 18.1504 18.9031C18.3278 18.9069 18.5039 18.871 18.6656 18.7981C18.8274 18.7251 18.9708 18.6169 19.0854 18.4815V18.3715C19.8004 18.3715 21.0471 18.2431 22.0921 18.2615C22.454 18.2459 22.8153 18.302 23.1554 18.4265C23.5771 18.6281 23.6321 19.0865 23.7788 19.4898C23.92 19.9866 24.1923 20.4362 24.5671 20.7915C25.043 21.1719 25.6466 21.3556 26.2538 21.3048C26.8034 21.2952 27.331 21.0868 27.7388 20.7181C28.1949 20.1549 28.5826 19.5394 28.8938 18.8848C29.6271 18.8848 31.9921 18.6465 31.9921 18.6465C31.9921 18.9581 31.5888 21.2132 31.3871 22.1115C31.1879 23.0155 30.9431 23.9088 30.6538 24.7882L28.6921 30.6182C28.5566 31.1248 28.3851 31.621 28.1788 32.1032C28.0868 32.3191 27.9417 32.5083 27.7571 32.6532C27.1667 33.0186 26.5034 33.2502 25.8138 33.3315C24.6491 33.4414 23.4767 33.4414 22.3121 33.3315H19.7821C19.5074 33.3503 19.2318 33.3503 18.9571 33.3315C19.2561 32.6437 19.4477 31.9141 19.5254 31.1681C19.7692 29.8101 19.7692 28.4195 19.5254 27.0615C19.4516 26.8757 19.3294 26.713 19.1714 26.5905C19.0134 26.468 18.8254 26.39 18.6271 26.3648L17.2338 26.1815C16.7257 26.0962 16.2505 25.8744 15.8588 25.5398C15.6978 25.4069 15.5659 25.2423 15.4713 25.0562C15.3767 24.8701 15.3213 24.6665 15.3088 24.4581C15.3088 23.9448 15.3088 23.6698 15.6388 23.6148C16.2546 23.5819 16.872 23.6375 17.4721 23.7798C17.8757 23.8778 18.2969 23.8778 18.7004 23.7798C18.8994 23.6547 19.0641 23.4818 19.1793 23.2769C19.2946 23.072 19.3568 22.8415 19.3604 22.6065C19.4272 21.5993 19.4272 20.5887 19.3604 19.5815C19.3558 19.5044 19.3359 19.429 19.302 19.3596C19.2682 19.2902 19.2209 19.2281 19.163 19.177C19.1051 19.1259 19.0376 19.0868 18.9646 19.0618C18.8915 19.0368 18.8142 19.0265 18.7371 19.0315C18.5847 19.0409 18.442 19.1094 18.3393 19.2224C18.2367 19.3354 18.182 19.4839 18.1871 19.6365C18.2455 20.6216 18.2087 21.6101 18.0771 22.5881C17.5448 22.5219 17.0179 22.4177 16.5004 22.2765C15.8739 22.1524 15.2236 22.2564 14.6671 22.5698C14.3736 22.7992 14.1436 23.0998 13.9992 23.4432C13.8548 23.7866 13.8007 24.1613 13.8421 24.5315C13.8447 25.1942 14.0636 25.8379 14.4654 26.3648C15.0565 27.0897 15.8568 27.6147 16.7571 27.8681L17.8571 28.0698C17.9378 28.8132 17.9378 29.5631 17.8571 30.3065C17.8042 31.1873 17.5401 32.0425 17.0871 32.7998C17.0871 32.8915 16.9038 32.8915 16.7938 32.9281C16.4111 33.0376 16.0177 33.1052 15.6204 33.1298H13.3288C12.4285 33.1533 11.5277 33.1104 10.6338 33.0015C10.1307 32.9553 9.64001 32.8186 9.18544 32.5982C8.91882 32.4541 8.69205 32.2463 8.52543 31.9932C8.1221 31.3698 7.81043 30.6548 7.4621 30.1598C6.03301 28.2525 4.7462 26.2426 3.6121 24.1465C2.88257 22.7518 2.30482 21.2828 1.88877 19.7648C1.88088 19.6923 1.85763 19.6223 1.82056 19.5595C1.7835 19.4967 1.73347 19.4425 1.67382 19.4005C1.61416 19.3585 1.54625 19.3298 1.4746 19.3161C1.40295 19.3024 1.32921 19.3042 1.2583 19.3213C1.18739 19.3383 1.12092 19.3703 1.06334 19.4151C1.00576 19.4599 0.958384 19.5164 0.924365 19.5809C0.890346 19.6454 0.870468 19.7165 0.866054 19.7893C0.86164 19.8621 0.872793 19.935 0.898768 20.0031C1.23833 21.624 1.76753 23.1993 2.47544 24.6965C3.54429 26.9194 4.76959 29.0637 6.1421 31.1131C6.5271 31.6998 6.83877 32.5982 7.2971 33.2948C7.55755 33.7051 7.90881 34.0501 8.32377 34.3031C8.95928 34.6381 9.64763 34.8614 10.3588 34.9632L11.2204 35.0731V36.4115C11.2311 36.7957 11.3118 37.1747 11.4588 37.5298C11.6164 37.9109 11.8689 38.2454 12.1921 38.5015L12.5221 38.6848C12.5132 38.7395 12.5132 38.7952 12.5221 38.8498C12.5902 39.9163 12.8905 40.9549 13.4021 41.8932C13.817 42.586 14.4213 43.1458 15.1438 43.5065C16.018 43.8919 16.9696 44.0692 17.9239 44.0247C18.8783 43.9802 19.8093 43.7149 20.6438 43.2498C21.5232 42.8185 22.2295 42.1004 22.646 41.2139C23.0626 40.3274 23.1647 39.3254 22.9354 38.3732C23.2237 38.2346 23.4945 38.0623 23.7421 37.8598C24.1527 37.4711 24.4787 37.0018 24.6995 36.4813C24.9203 35.9607 25.0313 35.4002 25.0254 34.8348H26.0154C26.9373 34.758 27.8316 34.4829 28.6371 34.0282C29.0788 33.7551 29.4396 33.369 29.6821 32.9098C29.9426 32.3746 30.1692 31.8235 30.3604 31.2598C30.8921 29.9215 31.4971 28.6015 32.0288 27.2631C32.2671 26.6581 32.4871 26.0715 32.6888 25.4298C33.0004 24.4948 33.2754 23.5965 33.4954 22.5698C33.7137 21.5918 33.8607 20.5991 33.9354 19.5998C33.9944 19.0208 33.9944 18.4372 33.9354 17.8581C33.91 17.7003 33.8531 17.5491 33.7681 17.4137C33.6831 17.2782 33.5716 17.1613 33.4404 17.0698ZM20.4788 41.2332C19.8013 41.6703 19.0271 41.9347 18.2238 42.0032C17.429 42.113 16.6196 42.0377 15.8588 41.7832C15.2645 41.5927 14.7534 41.2045 14.4104 40.6832C14.1046 40.1998 13.87 39.675 13.7138 39.1248H13.8238C14.5575 39.242 15.2991 39.3033 16.0421 39.3082C17.1238 39.3082 18.2054 39.1798 19.2321 39.1065C20.0883 39.037 20.9394 38.9145 21.7804 38.7398C21.7985 39.2326 21.6879 39.7217 21.4597 40.1588C21.2315 40.596 20.8934 40.9662 20.4788 41.2332ZM22.7704 36.6682C21.624 37.1918 20.3517 37.3763 19.1038 37.1998C17.9304 37.2915 16.7021 37.3832 15.4371 37.4015C14.9425 37.429 14.4467 37.429 13.9521 37.4015C13.6746 37.3875 13.4017 37.3255 13.1454 37.2181C12.9208 37.1515 12.7223 37.017 12.5771 36.8332C12.4452 36.5772 12.3701 36.2958 12.3571 36.0082C12.3394 35.709 12.3394 35.409 12.3571 35.1098H13.2921C14.4507 35.1374 15.6095 35.0699 16.7571 34.9082C17.2937 34.8075 17.801 34.5883 18.2421 34.2665C18.3231 34.3638 18.4318 34.4341 18.5538 34.4681C18.9411 34.5401 19.3333 34.583 19.7271 34.5965H22.2204L23.7788 34.7432C23.7524 35.1162 23.6493 35.4797 23.4757 35.811C23.3022 36.1423 23.0621 36.4341 22.7704 36.6682Z" fill="url(#paint0_linear_395_3338)"/>
<path d="M42.5889 7.8848C42.2852 7.06868 41.93 6.27264 41.5256 5.50146C40.984 4.25625 40.1633 3.15227 39.127 2.27487C38.0907 1.39748 36.8664 0.770174 35.5489 0.441462C33.0016 -0.204016 30.3262 -0.140618 27.8122 0.624796C27.7372 0.645859 27.6672 0.681652 27.6062 0.730086C27.5451 0.778519 27.4944 0.838623 27.4568 0.906889C27.4193 0.975155 27.3957 1.05022 27.3875 1.12769C27.3792 1.20517 27.3865 1.2835 27.4089 1.35813C27.4555 1.50294 27.555 1.62487 27.6875 1.69962C27.82 1.77437 27.9759 1.79645 28.1239 1.76146C30.4205 1.12013 32.849 1.12013 35.1456 1.76146C36.2408 2.06153 37.2513 2.61184 38.0976 3.36903C38.9438 4.12621 39.6027 5.06958 40.0222 6.1248C40.1506 6.43646 40.4439 7.07813 40.6639 7.7198C40.8839 8.36146 41.0306 8.56313 40.9572 8.80146C40.8839 9.0398 40.7189 9.00313 40.5722 9.11313C40.1506 9.38813 39.6189 9.6448 39.1972 9.90146C38.9387 10.0635 38.7042 10.261 38.5006 10.4881C38.3929 10.6069 38.31 10.7458 38.2565 10.8969C38.203 11.0479 38.18 11.2081 38.1889 11.3681C38.1889 11.6615 38.3172 12.1381 38.3172 12.3581C38.2953 12.7712 38.176 13.1733 37.9689 13.5315C37.9167 13.6608 37.8318 13.7744 37.7226 13.8612C37.6133 13.948 37.4834 14.0049 37.3456 14.0265C36.9239 14.0265 36.7406 13.7698 36.5572 13.4948C36.2922 13.0452 35.9853 12.6217 35.6406 12.2298C35.3155 11.8787 34.8949 11.6302 34.4306 11.5148C34.1358 11.4403 33.8271 11.4403 33.5322 11.5148C32.8676 11.7768 32.2241 12.0894 31.6072 12.4498C31.453 12.5408 31.2862 12.6088 31.1122 12.6515C31.1122 12.6515 31.0206 12.6515 30.9839 12.6515C30.8431 12.4552 30.7204 12.2466 30.6172 12.0281C30.3056 11.3498 30.0672 10.5431 29.7739 9.95646L29.6456 9.6998C30.5825 9.15227 31.3894 8.40792 32.0106 7.51813C32.3217 7.03717 32.4397 6.45652 32.3411 5.89227C32.2426 5.32803 31.9346 4.82179 31.4789 4.4748C31.2496 4.24861 30.9774 4.07047 30.6783 3.95084C30.3793 3.83122 30.0593 3.7725 29.7372 3.77813C28.78 3.96409 27.8457 4.25299 26.9506 4.6398L26.8589 4.32813L25.8322 1.48646C25.7861 1.35518 25.6896 1.24762 25.5641 1.18746C25.4386 1.12729 25.2944 1.11944 25.1631 1.16563C25.0318 1.21182 24.9242 1.30827 24.8641 1.43377C24.8039 1.55926 24.7961 1.70351 24.8422 1.8348L25.7406 4.71313C25.7406 4.71313 25.9056 5.2998 25.9972 5.50146C26.0458 5.62689 26.1315 5.73448 26.2429 5.80984C26.3543 5.8852 26.4861 5.92473 26.6206 5.92313C27.5189 5.92313 28.4539 5.2998 29.3889 5.15313C29.5922 5.10269 29.8053 5.10846 30.0055 5.16982C30.2057 5.23118 30.3855 5.34581 30.5256 5.50146C30.7069 5.65201 30.8273 5.86331 30.8644 6.09603C30.9015 6.32874 30.8527 6.56701 30.7272 6.76646C30.049 7.60357 29.1986 8.28508 28.2339 8.7648C28.0844 8.84973 27.9631 8.9766 27.8849 9.12973C27.8067 9.28287 27.7751 9.45556 27.7939 9.62646C27.8845 10.0396 28.0261 10.4399 28.2156 10.8181C28.4722 11.4048 28.6922 12.2115 28.9672 12.9081C29.1215 13.2723 29.3185 13.617 29.5539 13.9348C29.7265 14.165 29.9509 14.3513 30.2089 14.4787C30.4669 14.6061 30.7512 14.671 31.0389 14.6681C31.7711 14.5869 32.4743 14.3358 33.0922 13.9348C33.4589 13.7331 34.0639 13.4948 34.0639 13.4948C34.3175 13.7107 34.5288 13.9718 34.6872 14.2648C34.9409 14.6938 35.249 15.0882 35.6039 15.4381C35.8631 15.6762 36.1717 15.8539 36.5078 15.9585C36.8438 16.0631 37.1988 16.092 37.5472 16.0431C37.9106 16.0055 38.2619 15.8913 38.5779 15.708C38.8939 15.5247 39.1675 15.2765 39.3806 14.9798C39.9244 14.2456 40.2314 13.363 40.2606 12.4498C40.3066 12.146 40.3066 11.837 40.2606 11.5331C40.7739 11.1665 41.5439 10.8181 42.0939 10.3965C42.377 10.1457 42.5968 9.83161 42.7356 9.4798C42.8495 8.94555 42.7983 8.38931 42.5889 7.8848Z" fill="url(#paint1_linear_395_3338)"/>
<defs>
<linearGradient id="paint0_linear_395_3338" x1="16.9898" y1="1.97876" x2="16.9898" y2="44.0314" gradientUnits="userSpaceOnUse">
<stop stop-color="#01FFD1"/>
<stop offset="1" stop-color="#44E4E6"/>
</linearGradient>
<linearGradient id="paint1_linear_395_3338" x1="33.8037" y1="0" x2="33.8037" y2="16.0662" gradientUnits="userSpaceOnUse">
<stop stop-color="#01FFD1"/>
<stop offset="1" stop-color="#44E4E6"/>
</linearGradient>
</defs>
</svg>
