<svg width="128" height="128" viewBox="0 0 128 128" fill="none" xmlns="http://www.w3.org/2000/svg">
<g filter="url(#filter0_d_387_3458)">
<circle cx="64" cy="60" r="50" fill="#CFFFC7"/>
<circle cx="64" cy="60" r="49.5" stroke="#9FC4CC"/>
</g>
<path d="M75.0419 46.7708C73.9485 44.4598 72.1071 42.5854 69.8159 41.4512C67.5246 40.3169 64.9176 39.9891 62.4169 40.5208C60.6072 40.7867 58.8684 41.4099 57.3019 42.3541C55.7353 43.2984 54.3722 44.5448 53.2919 46.0208C50.2123 50.2617 48.5434 55.3632 48.5211 60.6042C48.3336 70.0625 52.9794 79.0625 63.1044 78.3542C63.2923 78.3404 63.4669 78.2525 63.59 78.1099C63.7131 77.9673 63.7745 77.7816 63.7607 77.5938C63.7468 77.4059 63.659 77.2312 63.5164 77.1082C63.3738 76.9851 63.1881 76.9237 63.0002 76.9375C54.0419 77.25 50.3544 69.0417 50.8127 60.6875C50.9925 56.771 52.1299 52.9583 54.1252 49.5833C55.0015 47.9527 56.237 46.5426 57.7385 45.4598C59.24 44.377 60.968 43.6499 62.7919 43.3333C64.7496 42.9013 66.7954 43.1338 68.6063 43.9939C70.4171 44.8541 71.8899 46.293 72.7919 48.0833C75.8127 53.5833 75.7502 62.0417 75.3752 67.2708C75.2139 69.7996 74.5926 72.2776 73.5419 74.5833C73.2613 75.307 72.833 75.9643 72.2841 76.5131C71.7353 77.0619 71.0781 77.4903 70.3544 77.7708C70.2508 77.7951 70.1532 77.84 70.0673 77.9028C69.9815 77.9656 69.9092 78.0451 69.8547 78.1365C69.8003 78.2279 69.7648 78.3293 69.7504 78.4347C69.7361 78.5402 69.7431 78.6474 69.7711 78.75C69.8297 78.9579 69.9667 79.1349 70.1532 79.2437C70.3398 79.3525 70.5613 79.3846 70.7711 79.3333C71.7298 79.0191 72.6114 78.5058 73.3582 77.8273C74.1049 77.1488 74.7 76.3202 75.1044 75.3958C76.3501 72.8793 77.1132 70.1517 77.3544 67.3542C77.9169 61.75 78.1252 52.7083 75.0419 46.7708Z" fill="black"/>
<path d="M71.3958 71.125C71.5294 70.9887 71.6043 70.8055 71.6043 70.6146C71.6043 70.4237 71.5294 70.2405 71.3958 70.1042C71.2631 69.9719 71.0833 69.8976 70.8958 69.8976C70.7084 69.8976 70.5286 69.9719 70.3958 70.1042C69.7127 70.7364 68.9492 71.2758 68.125 71.7083C67.3699 72.0974 66.5367 72.311 65.6875 72.3333C64.7444 72.3156 63.8152 72.1028 62.9583 71.7083C61.5693 71.1211 60.2933 70.2962 59.1875 69.2708C57.1759 67.6343 55.7621 65.3782 55.1667 62.8542C55.1243 62.663 55.0143 62.4936 54.857 62.377C54.6996 62.2605 54.5055 62.2047 54.3103 62.2199C54.1151 62.2351 53.9319 62.3203 53.7945 62.4598C53.6571 62.5993 53.5747 62.7838 53.5625 62.9792C53.7887 66.0804 55.1279 68.9955 57.3333 71.1875C58.6055 72.552 60.1734 73.6067 61.9167 74.2708C63.1544 74.7262 64.4854 74.8693 65.7917 74.6875C66.7301 74.5407 67.6296 74.2078 68.4375 73.7083C69.5628 73.0209 70.5631 72.1474 71.3958 71.125Z" fill="black"/>
<path d="M55.104 58.25C55.4373 58.25 55.479 58.4792 56.6248 55.375C56.7498 54.9792 56.8331 54.5625 56.979 54.1458C57.7498 51.6667 57.9998 51.6667 57.4789 51.1042C56.4789 50.2917 54.7915 52.7917 54.6248 53.0625C54.4471 53.3767 54.2939 53.704 54.1665 54.0417C54.0521 54.3775 53.9889 54.7287 53.979 55.0833C53.9373 55.9792 54.1248 58.3125 55.104 58.25Z" fill="black"/>
<path d="M60.6464 48.7292C62.0994 48.2655 63.6758 48.385 65.0422 49.0625C66.3785 49.6303 67.481 50.6372 68.1672 51.9167C69.1474 53.7285 69.7831 55.7064 70.0422 57.75C70.4134 59.8817 70.567 62.0456 70.5006 64.2083C70.4938 64.4215 70.567 64.6294 70.7058 64.7914C70.8445 64.9533 71.0389 65.0574 71.2506 65.0833C71.4629 65.1008 71.6736 65.0341 71.8372 64.8977C72.0009 64.7613 72.1044 64.5661 72.1256 64.3542C72.5635 61.5972 72.6196 58.7931 72.2922 56.0208C72.0441 54.085 71.4364 52.2126 70.5006 50.5C69.3715 48.8174 67.6921 47.58 65.7506 47C64.8165 46.7035 63.833 46.595 62.8568 46.6808C61.8806 46.7666 60.931 47.045 60.0631 47.5C59.8954 47.5814 59.7653 47.7239 59.6994 47.8983C59.6335 48.0726 59.6369 48.2656 59.7089 48.4375C59.7972 48.5978 59.9441 48.7177 60.1189 48.7721C60.2937 48.8265 60.4827 48.8111 60.6464 48.7292Z" fill="black"/>
<path d="M57.7498 58.875C57.905 60.1483 58.3389 61.3718 59.0207 62.4583C59.7412 63.9047 60.9611 65.0412 62.4547 65.6578C63.9483 66.2744 65.6147 66.3294 67.1457 65.8125C67.3219 65.751 67.4668 65.6223 67.5487 65.4546C67.6306 65.2868 67.643 65.0935 67.5832 64.9167C67.5128 64.7367 67.3774 64.5896 67.2038 64.5047C67.0301 64.4199 66.8309 64.4033 66.6457 64.4583C65.5015 64.6785 64.3163 64.4797 63.3065 63.8983C62.2967 63.3169 61.5298 62.3917 61.1457 61.2917C60.741 60.4563 60.5006 59.551 60.4373 58.625C60.3604 58.0061 60.4235 57.3777 60.6218 56.7864C60.8201 56.195 61.1486 55.6558 61.5832 55.2083C61.7782 54.9612 62.0266 54.7615 62.3099 54.6242C62.5931 54.4869 62.9038 54.4156 63.2186 54.4156C63.5334 54.4156 63.844 54.4869 64.1273 54.6242C64.4106 54.7615 64.659 54.9612 64.854 55.2083C65.4165 55.8553 65.8098 56.6316 65.9988 57.4678C66.1879 58.304 66.1668 59.174 65.9373 60C65.8936 60.0966 65.8703 60.2012 65.8689 60.3072C65.8674 60.4133 65.8879 60.5185 65.9289 60.6162C65.97 60.714 66.0308 60.8023 66.1075 60.8755C66.1843 60.9487 66.2753 61.0052 66.3748 61.0417C66.4731 61.0818 66.5785 61.1017 66.6847 61.1003C66.7909 61.0989 66.8957 61.0761 66.9928 61.0333C67.09 60.9906 67.1776 60.9287 67.2504 60.8514C67.3232 60.7741 67.3797 60.6829 67.4165 60.5833C67.9163 59.2739 68.0189 57.8462 67.7113 56.4788C67.4037 55.1114 66.6997 53.8651 65.6873 52.8958C64.8618 52.1714 63.7837 51.8022 62.6874 51.8685C61.5911 51.9348 60.5653 52.4313 59.8332 53.25C59.0597 53.9513 58.4665 54.8287 58.1039 55.8078C57.7412 56.7869 57.6198 57.839 57.7498 58.875Z" fill="black"/>
<path d="M42.3752 45.6042C42.4683 45.5989 42.5594 45.5752 42.6433 45.5346C42.7272 45.494 42.8023 45.4373 42.8643 45.3676C42.9262 45.2979 42.9738 45.2167 43.0042 45.1286C43.0347 45.0405 43.0475 44.9472 43.0419 44.8542V40.2083C43.0671 39.4312 43.222 38.6636 43.5002 37.9375C43.5002 37.9375 43.5002 37.9375 43.646 37.7917L44.2919 37.6667C45.1633 37.4674 46.0473 37.3282 46.9377 37.25C48.2919 37.0833 49.5835 37.0833 50.1252 37.0833C50.3407 37.0833 50.5474 36.9977 50.6997 36.8454C50.8521 36.693 50.9377 36.4863 50.9377 36.2708C50.9377 36.0554 50.8521 35.8487 50.6997 35.6963C50.5474 35.5439 50.3407 35.4583 50.1252 35.4583C47.9242 35.082 45.6861 34.9701 43.4585 35.125C42.9718 35.1583 42.5007 35.3105 42.0866 35.5684C41.6725 35.8263 41.328 36.182 41.0835 36.6042C40.7321 37.4907 40.5826 38.4443 40.646 39.3958C40.822 41.265 41.1424 43.1178 41.6044 44.9375C41.6203 45.1273 41.7099 45.3033 41.854 45.4279C41.998 45.5525 42.1851 45.6157 42.3752 45.6042Z" fill="black"/>
<path d="M50.125 82.9167C49.5833 82.9167 48.2916 82.9167 46.9375 82.75C46.047 82.6718 45.163 82.5326 44.2916 82.3333L43.6458 82.2083C43.5208 82.2083 43.4583 82.2083 43.5 82.0625C43.2643 81.3292 43.1517 80.5618 43.1666 79.7917V75.1458C43.1376 74.9762 43.0496 74.8223 42.9181 74.7113C42.7865 74.6004 42.62 74.5395 42.4479 74.5395C42.2758 74.5395 42.1092 74.6004 41.9777 74.7113C41.8462 74.8223 41.7581 74.9762 41.7291 75.1458C41.2672 76.9656 40.9468 78.8183 40.7708 80.6875C40.6798 81.6023 40.7863 82.5259 41.0833 83.3958C41.3199 83.8071 41.6513 84.1558 42.0499 84.4131C42.4485 84.6704 42.9028 84.8287 43.375 84.875C45.6164 85.0333 47.8686 84.9214 50.0833 84.5417C50.2988 84.5417 50.5055 84.4561 50.6578 84.3037C50.8102 84.1513 50.8958 83.9447 50.8958 83.7292C50.8958 83.5137 50.8102 83.307 50.6578 83.1547C50.5055 83.0023 50.2988 82.9167 50.0833 82.9167H50.125Z" fill="black"/>
<path d="M77.8753 37.0833C78.417 37.0833 79.7087 37.0833 81.0628 37.25C81.9533 37.3282 82.8373 37.4674 83.7087 37.6667L84.3545 37.7917C84.4795 37.7917 84.542 37.7917 84.5003 37.9375C84.736 38.6709 84.8486 39.4382 84.8337 40.2083V44.8542C84.8626 45.0238 84.9507 45.1777 85.0822 45.2887C85.2138 45.3997 85.3803 45.4605 85.5524 45.4605C85.7245 45.4605 85.891 45.3997 86.0226 45.2887C86.1541 45.1777 86.2422 45.0238 86.2712 44.8542C86.7331 43.0345 87.0535 41.1817 87.2295 39.3125C87.3205 38.3978 87.214 37.4741 86.917 36.6042C86.6804 36.193 86.349 35.8442 85.9504 35.5869C85.5518 35.3296 85.0975 35.1713 84.6253 35.125C82.3839 34.9667 80.1316 35.0787 77.917 35.4583C77.8103 35.4583 77.7046 35.4794 77.6061 35.5202C77.5075 35.561 77.4179 35.6209 77.3425 35.6963C77.267 35.7718 77.2072 35.8613 77.1663 35.9599C77.1255 36.0585 77.1045 36.1641 77.1045 36.2708C77.1045 36.3775 77.1255 36.4832 77.1663 36.5818C77.2072 36.6803 77.267 36.7699 77.3425 36.8454C77.4179 36.9208 77.5075 36.9807 77.6061 37.0215C77.7046 37.0623 77.8103 37.0833 77.917 37.0833H77.8753Z" fill="black"/>
<path d="M85.625 74.3959C85.5319 74.4012 85.4408 74.4248 85.3569 74.4654C85.273 74.506 85.1979 74.5628 85.136 74.6324C85.074 74.7021 85.0264 74.7833 84.996 74.8714C84.9655 74.9595 84.9527 75.0528 84.9583 75.1459V79.7917C84.9331 80.5689 84.7782 81.3364 84.5 82.0625C84.5 82.0625 84.5 82.1667 84.3542 82.2083L83.7083 82.3333C82.837 82.5326 81.9529 82.6718 81.0625 82.75C79.7083 82.875 78.4167 82.8959 77.875 82.9167C77.6595 82.9167 77.4528 83.0023 77.3005 83.1547C77.1481 83.307 77.0625 83.5137 77.0625 83.7292C77.0625 83.9447 77.1481 84.1513 77.3005 84.3037C77.4528 84.4561 77.6595 84.5417 77.875 84.5417C80.0897 84.9214 82.3419 85.0333 84.5833 84.875C85.0555 84.8287 85.5098 84.6704 85.9084 84.4131C86.307 84.1558 86.6384 83.8071 86.875 83.3958C87.2549 82.5159 87.4329 81.562 87.3958 80.6042C87.2199 78.735 86.8995 76.8822 86.4375 75.0625C86.4298 74.9647 86.4024 74.8694 86.3569 74.7824C86.3115 74.6954 86.249 74.6185 86.1731 74.5563C86.0973 74.494 86.0096 74.4477 85.9154 74.4202C85.8212 74.3926 85.7225 74.3843 85.625 74.3959Z" fill="black"/>
<defs>
<filter id="filter0_d_387_3458" x="0" y="0" width="128" height="128" filterUnits="userSpaceOnUse" color-interpolation-filters="sRGB">
<feFlood flood-opacity="0" result="BackgroundImageFix"/>
<feColorMatrix in="SourceAlpha" type="matrix" values="0 0 0 0 0 0 0 0 0 0 0 0 0 0 0 0 0 0 127 0" result="hardAlpha"/>
<feOffset dy="4"/>
<feGaussianBlur stdDeviation="7"/>
<feComposite in2="hardAlpha" operator="out"/>
<feColorMatrix type="matrix" values="0 0 0 0 0.282353 0 0 0 0 0.0470588 0 0 0 0 0.658824 0 0 0 0.15 0"/>
<feBlend mode="normal" in2="BackgroundImageFix" result="effect1_dropShadow_387_3458"/>
<feBlend mode="normal" in="SourceGraphic" in2="effect1_dropShadow_387_3458" result="shape"/>
</filter>
</defs>
</svg>
