<svg width="128" height="128" viewBox="0 0 128 128" fill="none" xmlns="http://www.w3.org/2000/svg">
<g filter="url(#filter0_d_387_3457)">
<circle cx="64" cy="60" r="50" fill="#FFE9C7"/>
<circle cx="64" cy="60" r="49.5" stroke="#9FC4CC"/>
</g>
<path fill-rule="evenodd" clip-rule="evenodd" d="M41.9159 49.3542C42.7608 49.6545 43.6769 49.6919 44.5434 49.4613C45.4099 49.2307 46.1862 48.743 46.7701 48.0625C47.1248 48.4322 47.5079 48.7735 47.9159 49.0833C48.1664 49.2704 48.4311 49.4376 48.7076 49.5833C48.9993 49.7292 49.2909 49.8333 49.5618 49.9375C50.2406 50.1635 50.9376 50.3308 51.6451 50.4375C51.7298 50.471 51.8204 50.4874 51.9115 50.4856C52.0026 50.4838 52.0925 50.4639 52.1759 50.4271C52.2592 50.3902 52.3344 50.3372 52.3971 50.271C52.4598 50.2049 52.5087 50.1269 52.5409 50.0417C52.5743 49.9542 52.5899 49.8609 52.587 49.7673C52.5841 49.6737 52.5626 49.5817 52.5238 49.4964C52.4851 49.4112 52.4298 49.3345 52.3612 49.2707C52.2927 49.2069 52.2121 49.1574 52.1243 49.125C51.7493 48.8958 51.1868 48.4167 50.4576 47.9375C50.2436 47.7796 50.021 47.6335 49.7909 47.5C49.5322 47.356 49.2601 47.2374 48.9784 47.1458C48.5366 46.9885 48.0841 46.8632 47.6243 46.7708C47.915 46.1549 48.0409 45.474 47.9898 44.7949C47.9386 44.1157 47.7122 43.4614 47.3326 42.8958C47.2339 42.7407 47.0787 42.6301 46.8998 42.5873C46.721 42.5446 46.5325 42.573 46.3743 42.6667C46.2947 42.7157 46.2255 42.7799 46.1709 42.8558C46.1162 42.9316 46.0771 43.0175 46.0558 43.1085C46.0345 43.1996 46.0314 43.2939 46.0467 43.3861C46.0621 43.4783 46.0955 43.5666 46.1451 43.6458C46.3714 44.1342 46.4369 44.6817 46.332 45.2096C46.2272 45.7375 45.9575 46.2185 45.5618 46.5833C45.2297 46.9473 44.7926 47.199 44.311 47.3036C43.8295 47.4081 43.3274 47.3602 42.8743 47.1667C42.5783 47.0444 42.3118 46.8604 42.0926 46.6268C41.8735 46.3933 41.7067 46.1157 41.6034 45.8125C41.4613 45.4836 41.3879 45.1291 41.3879 44.7708C41.3879 44.4125 41.4613 44.058 41.6034 43.7292C41.7689 43.2252 42.1087 42.7968 42.5618 42.5208C43.1074 42.2495 43.7032 42.0935 44.3118 42.0625C44.4019 42.0792 44.4947 42.0758 44.5834 42.0526C44.6721 42.0294 44.7547 41.987 44.8252 41.9284C44.8956 41.8697 44.9524 41.7963 44.9913 41.7132C45.0302 41.6302 45.0504 41.5396 45.0504 41.4479C45.0504 41.3562 45.0302 41.2656 44.9913 41.1826C44.9524 41.0996 44.8956 41.0261 44.8252 40.9675C44.7547 40.9088 44.6721 40.8664 44.5834 40.8432C44.4947 40.82 44.4019 40.8167 44.3118 40.8333C43.4305 40.7812 42.5486 40.9234 41.7284 41.25C40.8994 41.5978 40.2052 42.2044 39.7493 42.9792C39.43 43.5245 39.2281 44.1304 39.1563 44.7581C39.0846 45.3859 39.1446 46.0218 39.3326 46.625C39.536 47.2419 39.873 47.8063 40.3195 48.278C40.7661 48.7498 41.3111 49.1172 41.9159 49.3542Z" fill="black"/>
<path fill-rule="evenodd" clip-rule="evenodd" d="M86.4995 70.8542C85.9805 70.5938 85.4128 70.4448 84.8328 70.4167C84.2537 70.389 83.6761 70.496 83.1453 70.7292C83.0109 70.7986 82.9062 70.9145 82.8507 71.0553C82.7952 71.196 82.7927 71.3522 82.8436 71.4947C82.8945 71.6372 82.9953 71.7564 83.1275 71.8302C83.2596 71.904 83.414 71.9273 83.562 71.8958C83.9183 71.8124 84.289 71.8124 84.6453 71.8958C85.0094 71.9813 85.3506 72.1448 85.6453 72.375C85.9259 72.5909 86.1607 72.8606 86.3359 73.1682C86.5112 73.4758 86.6235 73.8152 86.6662 74.1667C86.7288 74.4858 86.7221 74.8146 86.6466 75.1309C86.5711 75.4472 86.4286 75.7436 86.2287 76C85.8877 76.459 85.3962 76.7835 84.8402 76.9168C84.2842 77.0501 83.699 76.9837 83.187 76.7292C82.6063 76.4876 82.138 76.0361 81.8755 75.4647C81.6129 74.8932 81.5754 74.2438 81.7703 73.6458C81.8027 73.5599 81.817 73.4682 81.8122 73.3764C81.8075 73.2847 81.7838 73.1949 81.7427 73.1128C81.7016 73.0306 81.644 72.9578 81.5735 72.899C81.503 72.8402 81.421 72.7965 81.3328 72.7708C81.2366 72.7198 81.1293 72.6931 81.0203 72.6931C80.9114 72.6931 80.8041 72.7198 80.7078 72.7708C80.3601 72.3631 79.9842 71.9802 79.5828 71.625C79.4066 71.4563 79.2108 71.3094 78.9995 71.1875C78.7912 71.0625 78.562 70.9792 78.3537 70.875C77.7287 70.625 77.187 70.5 76.812 70.2917C76.6711 70.1674 76.4866 70.1041 76.2991 70.1158C76.1115 70.1275 75.9363 70.2133 75.812 70.3542C75.6877 70.4951 75.6244 70.6796 75.6361 70.8671C75.6479 71.0547 75.7336 71.2299 75.8745 71.3542C76.2527 71.8653 76.6782 72.3396 77.1453 72.7708C77.3411 72.9401 77.5501 73.0934 77.7703 73.2292C77.9867 73.365 78.2172 73.4768 78.4578 73.5625C79.0155 73.746 79.5867 73.8853 80.1662 73.9792C79.9706 74.8481 80.0691 75.7574 80.4461 76.5643C80.8232 77.3712 81.4575 78.0301 82.2495 78.4375C83.2024 78.9867 84.3217 79.1732 85.4012 78.9627C86.4807 78.7521 87.4478 78.1587 88.1245 77.2917C88.4971 76.7585 88.7448 76.1484 88.8494 75.5064C88.954 74.8644 88.9127 74.2072 88.7287 73.5833C88.5655 72.9993 88.2832 72.4553 87.8995 71.9856C87.5159 71.5159 87.0392 71.1307 86.4995 70.8542Z" fill="black"/>
<path fill-rule="evenodd" clip-rule="evenodd" d="M72.3335 54.0625C72.2575 53.8855 72.1463 53.7259 72.0066 53.5934C71.8669 53.4608 71.7017 53.3582 71.521 53.2917L70.5835 53.0625C70.5953 50.9527 69.8569 48.9074 68.5001 47.2917C67.883 46.6768 67.1475 46.1936 66.3382 45.8713C65.5289 45.549 64.6626 45.3944 63.7918 45.4167C62.3678 45.431 60.9839 45.8899 59.8335 46.7292C58.8212 47.6154 58.0959 48.7831 57.7501 50.0833C57.6268 50.5123 57.5431 50.9516 57.5001 51.3958V52.6458V53.125H57.3751C57.19 53.1747 57.0323 53.2959 56.9365 53.462C56.8408 53.628 56.815 53.8253 56.8647 54.0104C56.9144 54.1955 57.0357 54.3533 57.2017 54.449C57.3677 54.5447 57.565 54.5706 57.7501 54.5208C59.9619 54.1782 62.2054 54.0874 64.4376 54.25C65.3126 54.25 70.5418 54.6042 70.6876 55.4583C70.6876 55.75 71.4168 64.4167 69.9585 64.6458C66.3523 65.0144 62.7219 65.0841 59.1043 64.8542C56.6876 64.7292 56.771 64.2083 56.7085 63.875C56.5387 62.7426 56.4275 61.6022 56.3751 60.4583C56.2565 58.8262 56.2983 57.1864 56.5001 55.5625C56.5333 55.3995 56.5003 55.23 56.4085 55.0913C56.3167 54.9526 56.1735 54.8561 56.0105 54.8229C55.8475 54.7898 55.678 54.8227 55.5393 54.9145C55.4006 55.0063 55.3041 55.1495 55.271 55.3125C54.8665 57.6995 54.7267 60.1239 54.8543 62.5417C54.835 63.7572 55.114 64.9589 55.6668 66.0417C56.1443 66.3638 56.6968 66.5575 57.271 66.6042C60.5425 67.0574 63.8433 67.2663 67.146 67.2292C68.6953 67.2857 70.2435 67.0887 71.7293 66.6458C71.9723 66.5615 72.1906 66.4185 72.3651 66.2295C72.5395 66.0405 72.6646 65.8114 72.7293 65.5625C73.1745 62.8785 73.3074 60.152 73.1251 57.4375C73.0516 56.2762 72.784 55.1354 72.3335 54.0625ZM58.8335 52.875C58.7825 52.4694 58.818 52.0576 58.9376 51.6667C59.0209 51.3517 59.1325 51.0449 59.271 50.75C59.6902 49.8948 60.3395 49.1734 61.146 48.6667C61.9568 48.1832 62.8901 47.9444 63.8335 47.9792C64.5659 47.8909 65.3087 47.9987 65.9858 48.2915C66.663 48.5843 67.2503 49.0517 67.6876 49.6458C68.3953 50.6292 68.8659 51.7629 69.0626 52.9583C67.527 52.7863 65.9828 52.7028 64.4376 52.7083C62.568 52.6213 60.6946 52.6771 58.8335 52.875Z" fill="black"/>
<path fill-rule="evenodd" clip-rule="evenodd" d="M63.8119 58.2708C64.1353 58.2627 64.4562 58.33 64.7491 58.4674C65.042 58.6048 65.2989 58.8086 65.4994 59.0625C65.5815 59.0682 65.6639 59.0575 65.7419 59.0313C65.8199 59.005 65.892 58.9635 65.9539 58.9093C66.0158 58.8551 66.0665 58.7892 66.1029 58.7154C66.1393 58.6416 66.1607 58.5613 66.166 58.4792C66.1783 58.2704 66.1414 58.0618 66.0581 57.8699C65.9749 57.6781 65.8477 57.5086 65.6869 57.375C65.2114 56.9628 64.6487 56.6636 64.041 56.5C63.5588 56.384 63.0529 56.4153 62.5887 56.5899C62.1244 56.7644 61.7232 57.0742 61.4369 57.4792C60.9428 58.1768 60.7003 59.0216 60.7494 59.875C60.7666 60.2062 60.8513 60.5303 60.9982 60.8277C61.145 61.125 61.351 61.3892 61.6035 61.6042C62.1987 62.0846 62.9246 62.375 63.6869 62.4375C64.0896 62.5109 64.504 62.4869 64.8954 62.3672C65.2869 62.2476 65.644 62.036 65.9369 61.75C66.1216 61.537 66.2612 61.2886 66.3471 61.02C66.4331 60.7515 66.4636 60.4682 66.4369 60.1875C66.4315 60.0033 66.3544 59.8284 66.2222 59.7001C66.0899 59.5717 65.9128 59.4999 65.7285 59.5C65.5442 59.4999 65.3672 59.5717 65.2349 59.7001C65.1026 59.8284 65.0256 60.0033 65.0202 60.1875C65.0202 60.5625 64.666 60.6042 64.3744 60.5833C64.0357 60.5207 63.7195 60.3698 63.4577 60.1458C63.3119 60.0417 63.1869 59.9375 63.1869 59.8125C63.1104 59.3926 63.2 58.9593 63.4369 58.6042C63.4994 58.4583 63.6035 58.2708 63.8119 58.2708Z" fill="black"/>
<path fill-rule="evenodd" clip-rule="evenodd" d="M51.1664 70.6875C50.7914 70.8958 50.2497 71.0208 49.6247 71.2917C49.4016 71.3788 49.1857 71.4833 48.9789 71.6042C48.7683 71.7189 48.5724 71.8588 48.3955 72.0208C47.9942 72.376 47.6183 72.7589 47.2705 73.1667C47.1832 73.0988 47.0803 73.0538 46.9712 73.0356C46.8621 73.0174 46.7502 73.0267 46.6455 73.0625C46.5566 73.0906 46.4743 73.1364 46.4036 73.1973C46.333 73.2581 46.2754 73.3327 46.2345 73.4165C46.1936 73.5003 46.1701 73.5916 46.1656 73.6847C46.161 73.7779 46.1755 73.871 46.208 73.9583C46.4021 74.5534 46.3639 75.1998 46.1011 75.7678C45.8384 76.3358 45.3705 76.7835 44.7914 77.0208C44.2794 77.2754 43.6942 77.3418 43.1382 77.2085C42.5821 77.0752 42.0907 76.7507 41.7497 76.2917C41.5655 76.0511 41.4318 75.7757 41.3566 75.4822C41.2814 75.1886 41.2663 74.8829 41.3122 74.5833C41.3806 74.0331 41.6176 73.5175 41.9906 73.1072C42.3636 72.697 42.8543 72.4121 43.3955 72.2917C43.7599 72.2182 44.1353 72.2182 44.4997 72.2917C44.5777 72.3136 44.6593 72.3196 44.7396 72.3093C44.82 72.299 44.8975 72.2727 44.9674 72.2319C45.0374 72.191 45.0984 72.1366 45.1469 72.0717C45.1954 72.0068 45.2304 71.9328 45.2497 71.8542C45.2981 71.6992 45.2864 71.5318 45.2169 71.3851C45.1475 71.2384 45.0253 71.1232 44.8747 71.0625C44.3376 70.8261 43.7524 70.7191 43.1664 70.75C42.5939 70.7983 42.0356 70.9538 41.5205 71.2083C40.9671 71.4858 40.4775 71.8754 40.083 72.3525C39.6884 72.8295 39.3976 73.3835 39.2289 73.9792C39.0448 74.603 39.0036 75.2603 39.1081 75.9022C39.2127 76.5442 39.4605 77.1544 39.833 77.6875C40.5213 78.5409 41.4938 79.118 42.5726 79.3131C43.6515 79.5082 44.7645 79.3083 45.708 78.75C46.5 78.3426 47.1344 77.6837 47.5114 76.8768C47.8885 76.0699 47.9869 75.1606 47.7914 74.2917C48.3709 74.1978 48.9421 74.0585 49.4997 73.875C49.7439 73.798 49.9755 73.6857 50.1872 73.5417C50.4121 73.4128 50.6217 73.2591 50.8122 73.0833C51.2794 72.6521 51.7049 72.1778 52.083 71.6667C52.2239 71.5424 52.3097 71.3672 52.3214 71.1796C52.3331 70.9921 52.2699 70.8076 52.1455 70.6667C52.084 70.5969 52.0093 70.54 51.9257 70.4991C51.8422 70.4582 51.7513 70.4341 51.6585 70.4283C51.471 70.4166 51.2864 70.4799 51.1455 70.6042L51.1664 70.6875Z" fill="black"/>
<path fill-rule="evenodd" clip-rule="evenodd" d="M76.2706 50.0417C76.9783 49.9262 77.6752 49.752 78.354 49.5208C78.6474 49.4335 78.9331 49.322 79.2081 49.1875C79.4833 49.0551 79.748 48.9019 79.9998 48.7292C80.4078 48.4193 80.7909 48.078 81.1456 47.7083C81.733 48.3841 82.5094 48.8684 83.3746 49.0986C84.2399 49.3289 85.1543 49.2945 85.9998 49C86.609 48.7587 87.1568 48.3849 87.6036 47.9056C88.0505 47.4264 88.385 46.8537 88.5831 46.2292C88.7711 45.6259 88.8312 44.9901 88.7594 44.3623C88.6877 43.7345 88.4857 43.1286 88.1665 42.5833C87.7191 41.8015 87.0221 41.1926 86.1873 40.8542C85.4209 40.6089 84.6153 40.5099 83.8123 40.5625C83.6494 40.5669 83.4938 40.6308 83.3748 40.7421C83.2558 40.8534 83.1817 41.0044 83.1665 41.1667C83.1637 41.2488 83.1771 41.3306 83.206 41.4075C83.2349 41.4844 83.2786 41.5548 83.3347 41.6148C83.3908 41.6748 83.4582 41.7231 83.533 41.757C83.6078 41.791 83.6886 41.8098 83.7706 41.8125C84.3805 41.8353 84.9779 41.9917 85.5206 42.2708C85.9829 42.5362 86.3259 42.9686 86.479 43.4792C86.7372 44.1136 86.7372 44.8239 86.479 45.4583C86.3835 45.7631 86.2193 46.0419 85.9989 46.2731C85.7786 46.5043 85.508 46.6817 85.2081 46.7917C84.7582 46.994 84.2558 47.0486 83.7729 46.9476C83.29 46.8465 82.8516 46.595 82.5206 46.2292C82.1365 45.8657 81.8742 45.3922 81.7697 44.8738C81.6653 44.3553 81.7238 43.8172 81.9373 43.3333C81.9864 43.2557 82.0195 43.169 82.0346 43.0784C82.0496 42.9878 82.0464 42.8951 82.025 42.8058C82.0037 42.7165 81.9646 42.6323 81.9102 42.5583C81.8558 42.4843 81.7871 42.422 81.7081 42.375C81.6305 42.3259 81.5439 42.2928 81.4533 42.2777C81.3626 42.2627 81.2699 42.2659 81.1806 42.2873C81.0913 42.3087 81.0071 42.3477 80.9331 42.4021C80.8591 42.4565 80.7968 42.5252 80.7498 42.6042C80.3679 43.1512 80.1328 43.7871 80.0672 44.451C80.0015 45.1149 80.1074 45.7846 80.3748 46.3958C79.979 46.3958 79.5415 46.6042 79.0206 46.7708L78.2081 47.125L77.4581 47.5C76.729 48 76.1665 48.4792 75.7915 48.7083C75.6903 48.7272 75.5945 48.7679 75.5106 48.8275C75.4267 48.8872 75.3569 48.9644 75.3059 49.0538C75.2549 49.1432 75.224 49.2426 75.2154 49.3452C75.2067 49.4477 75.2206 49.5509 75.2558 49.6476C75.2911 49.7443 75.3471 49.8321 75.4198 49.9049C75.4924 49.9778 75.5801 50.034 75.6767 50.0695C75.7733 50.105 75.8765 50.119 75.979 50.1106C76.0816 50.1022 76.1811 50.0716 76.2706 50.0208V50.0417Z" fill="black"/>
<path fill-rule="evenodd" clip-rule="evenodd" d="M52.3743 59.7083C51.8743 59.7083 51.3327 59.4375 50.6243 59.3333H49.8952H49.1452C48.6868 59.4375 48.2702 59.6042 47.8118 59.75C47.7568 59.4058 47.6588 59.0698 47.5202 58.75C47.4901 58.6638 47.4433 58.5844 47.3825 58.5163C47.3217 58.4482 47.2481 58.3928 47.1659 58.3531C47.0837 58.3134 46.9945 58.2904 46.9033 58.2852C46.8122 58.28 46.7209 58.2928 46.6347 58.3229C46.5486 58.353 46.4692 58.3998 46.4011 58.4606C46.333 58.5214 46.2775 58.595 46.2378 58.6772C46.1982 58.7594 46.1751 58.8486 46.1699 58.9398C46.1647 59.0309 46.1776 59.1222 46.2077 59.2083C46.413 59.8059 46.3804 60.4595 46.1166 61.0336C45.8528 61.6077 45.3781 62.0583 44.791 62.2917C44.2798 62.5504 43.6934 62.6191 43.1363 62.4855C42.5792 62.352 42.0876 62.0249 41.7493 61.5625C41.5594 61.3055 41.4275 61.0104 41.3628 60.6974C41.298 60.3845 41.302 60.0613 41.3743 59.75C41.468 59.059 41.8266 58.4315 42.3743 58C42.7943 57.6813 43.3055 57.506 43.8327 57.5C44.4396 57.5759 45.0264 57.7668 45.5618 58.0625C45.703 58.1473 45.8718 58.1729 46.0317 58.1339C46.1917 58.0949 46.3298 57.9944 46.416 57.8542C46.4936 57.7094 46.5131 57.5404 46.4706 57.3817C46.428 57.223 46.3265 57.0865 46.1868 57C45.5622 56.5327 44.8556 56.1865 44.1035 55.9792C43.22 55.8245 42.3102 55.9713 41.5202 56.3958C40.9586 56.6779 40.4637 57.0765 40.0685 57.5651C39.6733 58.0537 39.3869 58.6211 39.2285 59.2292C39.0504 59.8561 39.0159 60.5151 39.1277 61.1571C39.2396 61.7992 39.4948 62.4077 39.8743 62.9375C40.5394 63.7993 41.4895 64.3962 42.5545 64.6214C43.6195 64.8466 44.7298 64.6854 45.6868 64.1667C46.2196 63.8748 46.6822 63.47 47.0421 62.9806C47.402 62.4911 47.6505 61.9289 47.7702 61.3333C48.2493 61.4583 48.6868 61.6042 49.1452 61.6875C49.3878 61.7077 49.6317 61.7077 49.8743 61.6875L50.6243 61.5833C51.3118 61.4583 51.8535 61.2708 52.3535 61.1458C52.4456 61.1432 52.5363 61.1221 52.6201 61.0837C52.7039 61.0454 52.7791 60.9906 52.8413 60.9225C52.9035 60.8545 52.9514 60.7747 52.9821 60.6878C53.0129 60.6009 53.0258 60.5087 53.0202 60.4167C53.0209 60.2392 52.9549 60.0679 52.8353 59.9367C52.7157 59.8055 52.5512 59.724 52.3743 59.7083Z" fill="black"/>
<path fill-rule="evenodd" clip-rule="evenodd" d="M78.0618 61.2917C78.3045 61.3122 78.5484 61.3122 78.791 61.2917C79.2494 61.2917 79.6869 61.0625 80.166 60.9375C80.2857 61.5331 80.5342 62.0953 80.8941 62.5847C81.254 63.0742 81.7165 63.479 82.2494 63.7708C83.2045 64.3114 84.3213 64.493 85.3985 64.2829C86.4756 64.0728 87.4424 63.4849 88.1244 62.625C88.4883 62.0999 88.7357 61.503 88.85 60.8744C88.9643 60.2458 88.9428 59.6001 88.7869 58.9805C88.631 58.3609 88.3444 57.7818 87.9462 57.2821C87.5481 56.7824 87.0476 56.3737 86.4785 56.0833C85.6885 55.6588 84.7787 55.512 83.8952 55.6667C83.1392 55.8635 82.4306 56.2107 81.8118 56.6875C81.6722 56.774 81.5707 56.9105 81.5281 57.0692C81.4856 57.2279 81.5051 57.3969 81.5827 57.5417C81.6689 57.6819 81.807 57.7824 81.9669 57.8214C82.1269 57.8604 82.2957 57.8348 82.4369 57.75C82.9723 57.4543 83.5591 57.2634 84.166 57.1875C84.6932 57.1935 85.2044 57.3688 85.6243 57.6875C85.8981 57.8989 86.1274 58.1624 86.299 58.4627C86.4706 58.763 86.5812 59.0943 86.6244 59.4375C86.6967 59.7488 86.7006 60.072 86.6359 60.3849C86.5712 60.6979 86.4393 60.993 86.2494 61.25C85.9111 61.7124 85.4195 62.0395 84.8624 62.173C84.3053 62.3066 83.7188 62.2379 83.2077 61.9792C82.6206 61.7458 82.1459 61.2952 81.8821 60.7211C81.6183 60.147 81.5857 59.4934 81.791 58.8958C81.8236 58.8085 81.838 58.7154 81.8335 58.6222C81.829 58.5291 81.8055 58.4378 81.7646 58.354C81.7237 58.2702 81.6661 58.1956 81.5954 58.1347C81.5248 58.0739 81.4425 58.0281 81.3535 58C81.2674 57.9707 81.1763 57.9588 81.0855 57.965C80.9947 57.9711 80.906 57.9953 80.8246 58.036C80.7432 58.0766 80.6707 58.1331 80.6113 58.202C80.5519 58.271 80.5068 58.351 80.4785 58.4375C80.3398 58.7573 80.2419 59.0933 80.1869 59.4375C79.7518 59.2703 79.3064 59.1311 78.8535 59.0208H78.1035C77.8609 58.9995 77.6169 58.9995 77.3743 59.0208C76.666 59.125 76.1243 59.2917 75.6243 59.3958C75.4365 59.3958 75.2563 59.4705 75.1235 59.6033C74.9906 59.7361 74.916 59.9163 74.916 60.1042C74.916 60.292 74.9906 60.4722 75.1235 60.605C75.2563 60.7379 75.4365 60.8125 75.6243 60.8125C76.1243 60.9375 76.666 61.125 77.3535 61.25C77.5881 61.2831 77.825 61.2971 78.0618 61.2917Z" fill="black"/>
<defs>
<filter id="filter0_d_387_3457" x="0" y="0" width="128" height="128" filterUnits="userSpaceOnUse" color-interpolation-filters="sRGB">
<feFlood flood-opacity="0" result="BackgroundImageFix"/>
<feColorMatrix in="SourceAlpha" type="matrix" values="0 0 0 0 0 0 0 0 0 0 0 0 0 0 0 0 0 0 127 0" result="hardAlpha"/>
<feOffset dy="4"/>
<feGaussianBlur stdDeviation="7"/>
<feComposite in2="hardAlpha" operator="out"/>
<feColorMatrix type="matrix" values="0 0 0 0 0.282353 0 0 0 0 0.0470588 0 0 0 0 0.658824 0 0 0 0.15 0"/>
<feBlend mode="normal" in2="BackgroundImageFix" result="effect1_dropShadow_387_3457"/>
<feBlend mode="normal" in="SourceGraphic" in2="effect1_dropShadow_387_3457" result="shape"/>
</filter>
</defs>
</svg>
