<?xml version="1.0" encoding="UTF-8"?>
<svg id="Layer_1" data-name="Layer 1" xmlns="http://www.w3.org/2000/svg" viewBox="0 0 861.38 157">
  <defs>
    <style>
      .cls-1 {
        fill: #f47b20;
      }

      .cls-2 {
        fill: #fff;
      }
    </style>
  </defs>
  <g>
    <polygon class="cls-1" points="58.46 63.34 53.09 73.07 42.03 53.05 16.83 98.63 10.04 86.34 42.03 28.47 59.88 60.78 58.46 63.34"/>
    <polygon class="cls-1" points="175.6 86.37 168.8 98.65 143.6 53.05 132.53 73.07 129.87 77.87 123.08 90.17 120.42 94.97 107.62 118.14 97.89 135.75 92.81 144.93 87.73 135.75 65.2 94.97 66.62 92.42 71.99 82.69 92.81 120.35 113.63 82.68 116.29 77.87 123.08 65.58 125.74 60.78 143.59 28.47 175.6 86.37"/>
    <polygon class="cls-1" points="119.01 63.34 113.63 73.07 92.81 35.4 71.99 73.07 69.33 77.88 62.54 90.17 59.89 94.97 37.35 135.75 30.55 123.46 53.09 82.68 55.75 77.87 62.54 65.58 65.2 60.78 92.81 10.82 120.42 60.78 119.01 63.34"/>
    <polygon class="cls-1" points="155.08 123.48 148.31 135.75 148.28 135.75 125.74 94.97 127.15 92.42 132.53 82.68 155.08 123.48"/>
  </g>
  <g>
    <path class="cls-2" d="m251.16,48.49h.41l24,50.14h-11.04l-3.98-8.71h-18.45l-3.84,8.71h-11.04l23.94-50.14Zm6.24,34.02c-2.26-5.14-4.46-10.36-5.97-14.68-1.44,3.43-4.05,10.01-6.1,14.68h12.07Z"/>
    <path class="cls-2" d="m328.24,61.39c-2.95-1.51-7.61-3.43-13.65-3.43-10.01,0-16.32,7.2-16.32,15.98s6.24,15.98,15.98,15.98c6.38,0,11.25-1.85,14.33-3.43v9.81c-2.54,1.37-8.16,3.29-15.09,3.29-14.88,0-25.79-11.18-25.79-25.65s10.91-25.65,26.13-25.65c6.93,0,11.86,2.06,14.4,3.43v9.67Z"/>
    <path class="cls-2" d="m385.78,61.39c-2.95-1.51-7.61-3.43-13.65-3.43-10.01,0-16.32,7.2-16.32,15.98s6.24,15.98,15.98,15.98c6.38,0,11.25-1.85,14.33-3.43v9.81c-2.54,1.37-8.16,3.29-15.09,3.29-14.88,0-25.79-11.18-25.79-25.65s10.91-25.65,26.13-25.65c6.93,0,11.86,2.06,14.4,3.43v9.67Z"/>
    <path class="cls-2" d="m446.48,80.66c0,11.52-7.61,18.93-20.64,18.93s-20.64-7.41-20.64-18.93v-31.41h10.56v30.38c0,6.45,3.64,10.29,10.08,10.29s10.08-3.84,10.08-10.29v-30.38h10.56v31.41Z"/>
    <path class="cls-2" d="m481.52,73.12l-2.61-2.26v27.78h-10.08v-50.14h.2l23.52,23.73,23.53-23.73h.2v50.14h-10.08v-27.78l-2.61,2.26c-3.64,3.98-7.34,7.96-11.04,11.87-3.7-3.91-7.34-7.89-11.04-11.87Z"/>
    <path class="cls-2" d="m557.57,48.49h.41l24,50.14h-11.04l-3.98-8.71h-18.45l-3.84,8.71h-11.04l23.94-50.14Zm6.24,34.02c-2.26-5.14-4.46-10.36-5.97-14.68-1.44,3.43-4.05,10.01-6.1,14.68h12.07Z"/>
    <path class="cls-2" d="m616.68,49.25c11.45,0,19.07,5.69,19.07,16.25,0,7.2-4.05,11.93-9.39,14.06l10.36,19.07h-11.18l-8.71-17.28h-7.13v17.28h-10.36v-49.38h17.35Zm-7,8.85v14.75h7.54c4.66,0,7.89-2.33,7.89-7.34s-3.36-7.41-8.16-7.41h-7.27Z"/>
    <path class="cls-2" d="m667.02,72.57l19.2-23.32h12.48l-17.49,20.64,17.76,28.74h-11.8l-13.1-21.95-7.06,8.02v13.92h-10.56v-49.38h10.56v23.32Z"/>
    <path class="cls-2" d="m716.47,98.63v-49.38h31.75v8.85h-21.19v11.25h17.97v8.5h-17.97v11.93h22.22v8.85h-32.78Z"/>
    <path class="cls-2" d="m788.82,58.1v40.53h-10.56v-40.53h-13.79v-8.85h38.2v8.85h-13.85Z"/>
    <path class="cls-2" d="m818.78,96.78v-10.15c3.43,1.78,7.96,3.29,12.41,3.57,1.58.07,3.09,0,4.39-.27,3.77-.55,5.97-1.99,5.97-4.39,0-3.29-2.95-5.01-9.74-7.48-8.64-3.16-13.72-6.79-13.72-15.36s7.27-14.4,17.9-14.4c4.94,0,9.81,1.1,12.9,2.47v9.74c-2.88-1.72-7.54-3.02-12.07-3.02-5.08,0-8.37,1.99-8.37,5.15,0,2.88,2.67,4.87,9.4,7.41,8.64,3.36,13.99,7,13.99,15.29,0,8.92-6.72,14.27-18.38,14.27-5.62,0-11.11-1.24-14.68-2.81Z"/>
  </g>
</svg>