<?xml version="1.0" encoding="utf-8"?>
<!-- Generator: Adobe Illustrator 19.0.0, SVG Export Plug-In . SVG Version: 6.00 Build 0)  -->
<svg version="1.1" id="Isolation_Mode" xmlns="http://www.w3.org/2000/svg" xmlns:xlink="http://www.w3.org/1999/xlink" x="0px"
	 y="0px" viewBox="0 0 320 270" style="enable-background:new 0 0 320 270;" xml:space="preserve">
<style type="text/css">
	.st0{fill:#006DFF;}
	.st1{fill:url(#SVGID_1_);}
	.st2{fill:url(#SVGID_2_);}
	.st3{fill:url(#SVGID_3_);}
	.st4{fill:url(#SVGID_4_);}
	.st5{fill:url(#SVGID_5_);}
	.st6{fill:url(#SVGID_6_);}
	.st7{fill:url(#SVGID_7_);}
	.st8{fill:url(#SVGID_8_);}
	.st9{fill:url(#SVGID_9_);}
	.st10{fill:url(#SVGID_10_);}
	.st11{fill:url(#SVGID_11_);}
	.st12{fill:url(#SVGID_12_);}
	.st13{fill:url(#SVGID_13_);}
	.st14{fill:url(#SVGID_14_);}
	.st15{fill:url(#SVGID_15_);}
	.st16{fill:url(#SVGID_16_);}
	.st17{fill:url(#SVGID_17_);}
	.st18{fill:url(#SVGID_18_);}
	.st19{fill:url(#SVGID_19_);}
	.st20{fill:url(#SVGID_20_);}
	.st21{fill:url(#SVGID_21_);}
	.st22{fill:url(#SVGID_22_);}
	.st23{fill:url(#SVGID_23_);}
	.st24{fill:url(#SVGID_24_);}
	.st25{fill:url(#SVGID_25_);}
	.st26{fill:url(#SVGID_26_);}
	.st27{fill:url(#SVGID_27_);}
	.st28{fill:url(#SVGID_28_);}
	.st29{fill:url(#SVGID_29_);}
	.st30{fill:url(#SVGID_30_);}
	.st31{fill:url(#SVGID_31_);}
	.st32{fill:url(#SVGID_32_);}
	.st33{fill:url(#SVGID_33_);}
	.st34{fill:url(#SVGID_34_);}
	.st35{fill:url(#SVGID_35_);}
	.st36{fill:url(#SVGID_36_);}
	.st37{fill:url(#SVGID_37_);}
	.st38{fill:url(#SVGID_38_);}
</style>
<g>
	<g>
		<g id="Layer_1_7_">
			<g>
				<path class="st0" d="M57,62.9c3.7,0,7.1,1.6,9.6,4.1l0,0c2.4,2.5,3.9,5.9,3.9,9.7c0,3.8-1.5,7.2-4,9.7c-2.5,2.5-5.9,4-9.6,4
					c-3.8,0-7.2-1.5-9.6-4c-2.5-2.5-4-5.9-4-9.7c0-3.8,1.5-7.2,4-9.7C49.9,64.4,53.3,62.9,57,62.9L57,62.9z M62.8,70.8
					c-1.5-1.5-3.5-2.4-5.7-2.4c-2.3,0-4.3,0.9-5.8,2.4c-1.4,1.5-2.4,3.5-2.4,5.8c0,2.3,0.9,4.3,2.4,5.8c1.5,1.5,3.5,2.4,5.8,2.4
					c2.2,0,4.3-0.9,5.7-2.4c1.4-1.5,2.4-3.5,2.4-5.8C65.1,74.4,64.2,72.4,62.8,70.8L62.8,70.8z"/>
				<path class="st0" d="M97.8,127.8l3.2,64.4h109.8l2.4-64.4H97.8z M95.9,195l-3.5-69.9c0-1.5,1.2-2.7,2.6-2.7l121,0
					c1.4,0,2.6,1.3,2.5,2.7l-2.6,69.6c0,1.5-1.2,2.7-2.6,2.7H98.5C97.1,197.6,95.9,196.4,95.9,195L95.9,195z M222.5,111
					c2.2,0.1,4.3,1,5.8,2.5c1.5,1.5,2.5,3.6,2.5,5.9l-3,81.1c-0.1,2.4-1.1,4.5-2.6,6c-1.5,1.6-3.6,2.5-6,2.5H91.8
					c-2.4,0-4.5-1-6-2.5l-0.2-0.2c-1.4-1.5-2.3-3.6-2.4-5.9c-0.3-8.5-2.3-79.3-3-81.1c0-2.3,1-4.4,2.5-5.9c1.5-1.5,3.5-2.4,5.8-2.5
					H222.5z M224.6,117.3l-2.2-1H88.7c-0.9,0-1.7,0.4-2.3,1c-0.5,0.6-0.9,1.3-0.9,2.1l3,80.9c0,0.9,0.4,1.8,1,2.4l0.1,0.1
					c0.6,0.6,1.4,0.9,2.3,0.9h127.4c0.9,0,1.7-0.4,2.2-1c0.7-0.6,1-1.5,1.1-2.5l3-80.9C225.5,118.6,225.1,117.9,224.6,117.3
					L224.6,117.3z"/>
				<path class="st0" d="M76.1,212.7h158.7c1.4,0,2.6,1.2,2.6,2.7v10.2c0,3.5-1.4,6.8-3.7,9.1c-2.3,2.3-5.5,3.8-9,3.8H86.3
					c-3.5,0-6.7-1.5-9-3.8c-2.3-2.4-3.8-5.6-3.8-9.1v-10.2C73.5,213.9,74.7,212.7,76.1,212.7L76.1,212.7z M232.2,218H78.8v7.5
					c0,2.1,0.8,4,2.2,5.3c1.3,1.4,3.2,2.2,5.3,2.2h138.5c2.1,0,3.9-0.9,5.3-2.2c1.3-1.3,2.2-3.3,2.2-5.3V218z"/>
				<path class="st0" d="M146.4,226.7c-1.4,0-2.6-1.2-2.6-2.7c0-1.5,1.2-2.7,2.6-2.7h19.8c1.5,0,2.6,1.2,2.6,2.7
					c0,1.5-1.2,2.7-2.6,2.7H146.4z"/>
				<path class="st0" d="M140.4,145.5h30.2c1.5,0,2.7,1.2,2.7,2.8v19.6c0,1.7-0.7,3.2-1.7,4.3c-1.1,1.1-2.6,1.8-4.2,1.8h-24
					c-1.6,0-3-0.7-4.1-1.7c-1-1-1.7-2.5-1.7-4.1v-19.8C137.6,146.7,138.9,145.5,140.4,145.5L140.4,145.5z M167.9,151h-24.8v17
					l0.1,0.2c0,0,0.1,0.1,0.2,0.1h24c0.1,0,0.2,0,0.3-0.1c0.1-0.1,0.1-0.2,0.1-0.3V151z"/>
				<path class="st0" d="M155.5,131.1c3.3,0,6.4,1.4,8.6,3.6l0.2,0.2c2.1,2.2,3.4,5.2,3.4,8.5v4.9c0,1.5-1.2,2.8-2.7,2.8h-18.8
					c-1.5,0-2.7-1.2-2.7-2.8v-4.9c0-3.4,1.4-6.4,3.6-8.7C149.1,132.5,152.1,131.1,155.5,131.1L155.5,131.1z M160.2,138.6
					c-1.2-1.2-2.9-2-4.7-2c-1.8,0-3.5,0.8-4.7,2c-1.2,1.2-2,2.9-2,4.7v2.1h13.3v-2.1c0-1.8-0.7-3.4-1.9-4.6L160.2,138.6z"/>
				<path class="st0" d="M152.5,166.6c-1.1,1.1-2.8,1-3.9,0c-1.1-1.1-1.1-2.8,0-3.9l9.9-9.8c1.1-1.1,2.8-1.1,3.9,0
					c1.1,1.1,1.1,2.8,0,3.9L152.5,166.6z"/>
				<path class="st0" d="M162.4,162.6c1.1,1.1,1.1,2.8,0,3.9c-1.1,1.1-2.8,1.1-3.9,0l-9.9-9.8c-1.1-1.1-1.1-2.8,0-3.9
					c1.1-1.1,2.8-1.1,3.9,0L162.4,162.6z"/>
				<path class="st0" d="M123.9,181.3c-1.5,0-2.7-1.2-2.7-2.8c0-1.5,1.2-2.8,2.7-2.8h70.9c1.5,0,2.7,1.2,2.7,2.8
					c0,1.5-1.2,2.8-2.7,2.8H123.9z"/>
				<path class="st0" d="M67.9,79.4c-1.5,0-2.7-1.2-2.7-2.8c0-1.5,1.2-2.8,2.7-2.8h45.1c1.5,0,2.7,1.2,2.7,2.8v35.8
					c0,1.5-1.2,2.8-2.7,2.8c-1.5,0-2.7-1.2-2.7-2.8v-33H67.9z"/>
				<path class="st0" d="M243.3,73.9c1.5,0,2.7,1.2,2.7,2.8c0,1.6-1.2,2.8-2.7,2.8h-42.3v33c0,1.5-1.2,2.8-2.7,2.8
					c-1.5,0-2.7-1.2-2.7-2.8V76.6c0-1.5,1.2-2.8,2.7-2.8H243.3z"/>
				<path class="st0" d="M152.7,54.5c0-1.6,1.2-2.8,2.7-2.8c1.5,0,2.8,1.2,2.8,2.8v57.9c0,1.5-1.2,2.8-2.8,2.8
					c-1.5,0-2.7-1.2-2.7-2.8V54.5z"/>
				<path class="st0" d="M65.7,162.6c-1.5,0-2.8-1.2-2.8-2.8c0-1.6,1.2-2.8,2.8-2.8h18c1.5,0,2.7,1.2,2.7,2.8c0,1.5-1.2,2.8-2.7,2.8
					H65.7z M226.6,162.6c-1.5,0-2.7-1.2-2.7-2.8c0-1.6,1.2-2.8,2.7-2.8h17.5c1.5,0,2.8,1.2,2.8,2.8c0,1.5-1.2,2.8-2.8,2.8H226.6z"/>
				<path class="st0" d="M84.4,188.6c1.5,0,2.7,1.2,2.7,2.8c0,1.5-1.2,2.8-2.7,2.8H55.5v6.5c0,1.6-1.2,2.8-2.7,2.8
					c-1.5,0-2.8-1.2-2.8-2.8v-9.3c0-1.5,1.2-2.8,2.8-2.8H84.4z"/>
				<path class="st0" d="M225.9,194.1c-1.5,0-2.7-1.2-2.7-2.8c0-1.5,1.2-2.8,2.7-2.8h31.3c1.5,0,2.7,1.2,2.7,2.8v9.3
					c0,1.6-1.2,2.8-2.7,2.8c-1.5,0-2.7-1.2-2.7-2.8v-6.5H225.9z"/>
				<path class="st0" d="M155.5,29.8c3.8,0,7.2,1.5,9.6,4l0.2,0.2c2.4,2.5,3.8,5.9,3.8,9.6c0,3.8-1.5,7.2-4,9.7
					c-2.5,2.5-5.9,4.1-9.6,4.1c-3.7,0-7.1-1.6-9.6-4l0-0.1c-2.5-2.5-4-5.9-4-9.7c0-3.8,1.5-7.2,4-9.7
					C148.3,31.3,151.7,29.8,155.5,29.8L155.5,29.8z M161.2,37.7c-1.5-1.5-3.5-2.4-5.8-2.4c-2.2,0-4.3,0.9-5.7,2.4
					c-1.5,1.5-2.4,3.5-2.4,5.8c0,2.2,0.9,4.3,2.3,5.7l0.1,0c1.5,1.5,3.5,2.4,5.7,2.4c2.3,0,4.3-0.9,5.8-2.4c1.4-1.5,2.4-3.5,2.4-5.8
					c0-2.2-0.9-4.2-2.3-5.7L161.2,37.7z"/>
				<path class="st0" d="M254.1,62.9c3.7,0,7.1,1.6,9.6,4.1l0,0c2.5,2.5,4,5.9,4,9.7c0,3.8-1.5,7.2-4,9.7c-2.4,2.5-5.9,4-9.6,4
					c-3.8,0-7.2-1.5-9.6-4c-2.5-2.5-4-5.9-4-9.7c0-3.8,1.5-7.2,4-9.7C247,64.4,250.4,62.9,254.1,62.9L254.1,62.9z M259.9,70.8
					c-1.5-1.5-3.5-2.4-5.7-2.4c-2.3,0-4.3,0.9-5.8,2.4c-1.4,1.5-2.4,3.5-2.4,5.8c0,2.3,0.9,4.3,2.4,5.8c1.5,1.5,3.5,2.4,5.8,2.4
					c2.2,0,4.3-0.9,5.7-2.4c1.5-1.5,2.4-3.5,2.4-5.8C262.2,74.4,261.3,72.4,259.9,70.8L259.9,70.8z"/>
				<path class="st0" d="M54.8,146.1c3.8,0,7.2,1.5,9.6,4l0.1,0.2c2.4,2.5,3.8,5.9,3.8,9.6c0,3.8-1.5,7.2-4,9.7
					c-2.5,2.5-5.9,4.1-9.6,4.1c-3.8,0-7.2-1.6-9.6-4l-0.1-0.2c-2.4-2.5-3.8-5.9-3.8-9.6c0-3.8,1.5-7.2,4-9.7
					C47.7,147.6,51.1,146.1,54.8,146.1L54.8,146.1z M60.6,154.1c-1.5-1.5-3.5-2.4-5.7-2.4c-2.2,0-4.3,0.9-5.7,2.4
					c-1.5,1.5-2.4,3.5-2.4,5.8c0,2.2,0.9,4.2,2.3,5.7l0.1,0.1c1.4,1.5,3.5,2.4,5.7,2.4c2.2,0,4.3-0.9,5.7-2.4
					c1.5-1.5,2.4-3.5,2.4-5.8c0-2.2-0.9-4.2-2.2-5.7L60.6,154.1z"/>
				<path class="st0" d="M52.7,197.8c3.7,0,7.2,1.6,9.6,4l0.2,0.2c2.4,2.5,3.8,5.9,3.8,9.6c0,3.8-1.5,7.2-4,9.7
					c-2.4,2.5-5.9,4-9.6,4c-3.8,0-7.2-1.5-9.6-4l-0.2-0.2c-2.4-2.5-3.8-5.9-3.8-9.6c0-3.8,1.5-7.2,4-9.7
					C45.5,199.4,48.9,197.8,52.7,197.8L52.7,197.8z M58.4,205.8c-1.5-1.5-3.5-2.4-5.7-2.4c-2.3,0-4.3,0.9-5.8,2.4
					c-1.4,1.5-2.4,3.5-2.4,5.8c0,2.2,0.9,4.2,2.3,5.7l0.1,0.1c1.5,1.5,3.5,2.4,5.8,2.4c2.2,0,4.3-0.9,5.7-2.4
					c1.5-1.5,2.4-3.5,2.4-5.8c0-2.2-0.9-4.2-2.2-5.7L58.4,205.8z"/>
				<path class="st0" d="M257.2,197.8c3.8,0,7.2,1.6,9.6,4l0.1,0.2c2.4,2.5,3.8,5.9,3.8,9.6c0,3.8-1.5,7.2-4,9.7
					c-2.5,2.5-5.9,4-9.6,4c-3.7,0-7.1-1.5-9.6-4c-2.5-2.5-4-5.9-4-9.7c0-3.8,1.5-7.2,4-9.7l0.1-0.1
					C250.1,199.4,253.4,197.8,257.2,197.8L257.2,197.8z M262.9,205.8c-1.4-1.5-3.5-2.4-5.7-2.4c-2.2,0-4.2,0.9-5.7,2.3l0,0.1
					c-1.5,1.5-2.4,3.5-2.4,5.8c0,2.3,0.9,4.3,2.4,5.8c1.5,1.5,3.5,2.4,5.7,2.4c2.3,0,4.3-0.9,5.7-2.4c1.5-1.5,2.4-3.5,2.4-5.8
					c0-2.2-0.9-4.2-2.3-5.7L262.9,205.8z"/>
				<path class="st0" d="M255.5,146.1c3.8,0,7.2,1.5,9.6,4l0.1,0.2c2.4,2.5,3.8,5.9,3.8,9.6c0,3.8-1.5,7.2-4,9.7
					c-2.5,2.5-5.9,4-9.6,4c-3.8,0-7.2-1.6-9.6-4l-0.1-0.2c-2.4-2.5-3.8-5.9-3.8-9.6c0-3.8,1.5-7.2,4-9.7
					C248.4,147.6,251.8,146.1,255.5,146.1L255.5,146.1z M261.3,154.1c-1.5-1.5-3.5-2.4-5.7-2.4c-2.2,0-4.3,0.9-5.7,2.4
					c-1.5,1.5-2.4,3.5-2.4,5.8c0,2.2,0.9,4.2,2.3,5.7l0.1,0.1c1.4,1.5,3.5,2.4,5.7,2.4c2.2,0,4.3-0.9,5.7-2.4
					c1.5-1.5,2.4-3.5,2.4-5.8c0-2.2-0.9-4.2-2.2-5.7L261.3,154.1z"/>
				<path class="st0" d="M124.4,189.5c-1.5,0-2.7-1.2-2.7-2.8c0-1.5,1.2-2.8,2.7-2.8h42.7c1.5,0,2.7,1.2,2.7,2.8
					c0,1.6-1.2,2.8-2.7,2.8H124.4z"/>
				<path class="st0" d="M11.7,128.3c-1.2,0.8-2.8,0.5-3.7-0.8c-0.8-1.2-0.4-2.9,0.8-3.7l6.5-4.3c1.2-0.8,2.8-0.5,3.7,0.8
					c0.8,1.2,0.4,2.9-0.8,3.7L11.7,128.3z"/>
				<path class="st0" d="M30.3,109.7c1.2-0.8,2.8-0.5,3.7,0.8c0.8,1.2,0.4,2.9-0.8,3.7l-6.5,4.3c-1.2,0.8-2.8,0.5-3.6-0.8
					c-0.8-1.2-0.5-2.9,0.8-3.7L30.3,109.7z"/>
				<path class="st0" d="M30.6,129.2c0.8,1.2,0.4,2.9-0.8,3.7c-1.2,0.8-2.8,0.4-3.6-0.8l-4.3-6.6c-0.8-1.2-0.4-2.9,0.8-3.7
					c1.2-0.8,2.8-0.5,3.6,0.8L30.6,129.2z"/>
				<path class="st0" d="M19.7,112.2c0.8,1.2,0.4,2.9-0.8,3.7c-1.2,0.8-2.9,0.5-3.7-0.8l-4.3-6.6c-0.8-1.2-0.4-2.9,0.8-3.7
					c1.2-0.8,2.8-0.4,3.6,0.8L19.7,112.2z"/>
				<path class="st0" d="M206.6,27.3c-1.2,0.8-2.8,0.4-3.6-0.8c-0.8-1.2-0.4-2.9,0.8-3.7l6.5-4.3c1.2-0.8,2.9-0.5,3.7,0.8
					c0.8,1.2,0.4,2.9-0.8,3.7L206.6,27.3z"/>
				<path class="st0" d="M225.1,8.7c1.2-0.8,2.9-0.5,3.7,0.8c0.8,1.2,0.4,2.9-0.8,3.7l-6.5,4.3c-1.2,0.8-2.8,0.4-3.6-0.8
					c-0.8-1.2-0.4-2.9,0.8-3.7L225.1,8.7z"/>
				<path class="st0" d="M225.5,28.1c0.8,1.2,0.4,2.9-0.8,3.7c-1.2,0.8-2.9,0.4-3.7-0.8l-4.3-6.6c-0.8-1.2-0.4-2.9,0.8-3.7
					c1.2-0.8,2.8-0.4,3.7,0.8L225.5,28.1z"/>
				<path class="st0" d="M214.6,11.2c0.8,1.2,0.4,2.9-0.8,3.7c-1.2,0.8-2.8,0.4-3.6-0.8l-4.3-6.6c-0.8-1.2-0.4-2.9,0.8-3.7
					c1.2-0.8,2.9-0.5,3.7,0.8L214.6,11.2z"/>
				<path class="st0" d="M248.8,261.7c-1.2,0.8-2.8,0.5-3.6-0.8c-0.8-1.2-0.4-2.9,0.8-3.7l6.5-4.3c1.2-0.8,2.9-0.4,3.7,0.8
					c0.8,1.2,0.4,2.9-0.8,3.7L248.8,261.7z"/>
				<path class="st0" d="M267.4,243.1c1.2-0.8,2.9-0.5,3.7,0.8c0.8,1.2,0.4,2.9-0.8,3.7l-6.5,4.3c-1.2,0.8-2.8,0.4-3.6-0.8
					c-0.8-1.2-0.4-2.9,0.8-3.7L267.4,243.1z"/>
				<path class="st0" d="M267.8,262.5c0.8,1.2,0.4,2.9-0.8,3.7c-1.2,0.8-2.9,0.5-3.7-0.8l-4.3-6.6c-0.8-1.2-0.4-2.9,0.8-3.7
					c1.2-0.8,2.8-0.5,3.6,0.8L267.8,262.5z"/>
				<path class="st0" d="M256.9,245.5c0.8,1.2,0.4,2.9-0.8,3.7c-1.2,0.8-2.8,0.5-3.7-0.8l-4.2-6.6c-0.8-1.2-0.4-2.9,0.8-3.7
					c1.2-0.8,2.9-0.5,3.7,0.8L256.9,245.5z"/>
				<path class="st0" d="M253.7,114.3c-1.4,0-2.6-1.2-2.6-2.6c0-1.5,1.1-2.7,2.6-2.7l43-0.4c1.4,0,2.6,1.2,2.6,2.6
					c0,1.5-1.2,2.7-2.6,2.7L253.7,114.3z"/>
				<path class="st0" d="M284.1,123.7c-1.5,0-2.7-1.1-2.7-2.6c0-1.5,1.1-2.7,2.6-2.7l25.8-0.5c1.4,0,2.7,1.1,2.7,2.6
					c0,1.5-1.1,2.7-2.6,2.7L284.1,123.7z"/>
				<path class="st0" d="M112.7,251c-1.5,0-2.7-1.1-2.7-2.6c0-1.5,1.2-2.7,2.6-2.7l43-0.5c1.4,0,2.6,1.2,2.7,2.6
					c0,1.5-1.2,2.7-2.6,2.7L112.7,251z"/>
				<path class="st0" d="M143,260.4c-1.4,0-2.6-1.2-2.7-2.6c0-1.5,1.1-2.7,2.6-2.7l25.8-0.5c1.4,0,2.6,1.1,2.7,2.6
					c0,1.5-1.1,2.7-2.6,2.7L143,260.4z"/>
			</g>
		</g>
	</g>
	<g>
		<g id="Layer_1_6_">
			<g>
				<linearGradient id="SVGID_1_" gradientUnits="userSpaceOnUse" x1="7.5701" y1="135" x2="312.4299" y2="135">
					<stop  offset="0" style="stop-color:#AE3031"/>
					<stop  offset="0.9946" style="stop-color:#D46838"/>
				</linearGradient>
				<path class="st1" d="M57,62.9c3.7,0,7.1,1.6,9.6,4.1l0,0c2.4,2.5,3.9,5.9,3.9,9.7c0,3.8-1.5,7.2-4,9.7c-2.5,2.5-5.9,4-9.6,4
					c-3.8,0-7.2-1.5-9.6-4c-2.5-2.5-4-5.9-4-9.7c0-3.8,1.5-7.2,4-9.7C49.9,64.4,53.3,62.9,57,62.9L57,62.9z M62.8,70.8
					c-1.5-1.5-3.5-2.4-5.7-2.4c-2.3,0-4.3,0.9-5.8,2.4c-1.4,1.5-2.4,3.5-2.4,5.8c0,2.3,0.9,4.3,2.4,5.8c1.5,1.5,3.5,2.4,5.8,2.4
					c2.2,0,4.3-0.9,5.7-2.4c1.4-1.5,2.4-3.5,2.4-5.8C65.1,74.4,64.2,72.4,62.8,70.8L62.8,70.8z"/>
				<linearGradient id="SVGID_2_" gradientUnits="userSpaceOnUse" x1="7.5701" y1="135" x2="312.4299" y2="135">
					<stop  offset="0" style="stop-color:#AE3031"/>
					<stop  offset="0.9946" style="stop-color:#D46838"/>
				</linearGradient>
				<path class="st2" d="M97.8,127.8l3.2,64.4h109.8l2.4-64.4H97.8z M95.9,195l-3.5-69.9c0-1.5,1.2-2.7,2.6-2.7l121,0
					c1.4,0,2.6,1.3,2.5,2.7l-2.6,69.6c0,1.5-1.2,2.7-2.6,2.7H98.5C97.1,197.6,95.9,196.4,95.9,195L95.9,195z M222.5,111
					c2.2,0.1,4.3,1,5.8,2.5c1.5,1.5,2.5,3.6,2.5,5.9l-3,81.1c-0.1,2.4-1.1,4.5-2.6,6c-1.5,1.6-3.6,2.5-6,2.5H91.8
					c-2.4,0-4.5-1-6-2.5l-0.2-0.2c-1.4-1.5-2.3-3.6-2.4-5.9c-0.3-8.5-2.3-79.3-3-81.1c0-2.3,1-4.4,2.5-5.9c1.5-1.5,3.5-2.4,5.8-2.5
					H222.5z M224.6,117.3l-2.2-1H88.7c-0.9,0-1.7,0.4-2.3,1c-0.5,0.6-0.9,1.3-0.9,2.1l3,80.9c0,0.9,0.4,1.8,1,2.4l0.1,0.1
					c0.6,0.6,1.4,0.9,2.3,0.9h127.4c0.9,0,1.7-0.4,2.2-1c0.7-0.6,1-1.5,1.1-2.5l3-80.9C225.5,118.6,225.1,117.9,224.6,117.3
					L224.6,117.3z"/>
				<linearGradient id="SVGID_3_" gradientUnits="userSpaceOnUse" x1="7.5701" y1="135" x2="312.4299" y2="135">
					<stop  offset="0" style="stop-color:#AE3031"/>
					<stop  offset="0.9946" style="stop-color:#D46838"/>
				</linearGradient>
				<path class="st3" d="M76.1,212.7h158.7c1.4,0,2.6,1.2,2.6,2.7v10.2c0,3.5-1.4,6.8-3.7,9.1c-2.3,2.3-5.5,3.8-9,3.8H86.3
					c-3.5,0-6.7-1.5-9-3.8c-2.3-2.4-3.8-5.6-3.8-9.1v-10.2C73.5,213.9,74.7,212.7,76.1,212.7L76.1,212.7z M232.2,218H78.8v7.5
					c0,2.1,0.8,4,2.2,5.3c1.3,1.4,3.2,2.2,5.3,2.2h138.5c2.1,0,3.9-0.9,5.3-2.2c1.3-1.3,2.2-3.3,2.2-5.3V218z"/>
				<linearGradient id="SVGID_4_" gradientUnits="userSpaceOnUse" x1="7.5701" y1="135" x2="312.4299" y2="135">
					<stop  offset="0" style="stop-color:#AE3031"/>
					<stop  offset="0.9946" style="stop-color:#D46838"/>
				</linearGradient>
				<path class="st4" d="M146.4,226.7c-1.4,0-2.6-1.2-2.6-2.7c0-1.5,1.2-2.7,2.6-2.7h19.8c1.5,0,2.6,1.2,2.6,2.7
					c0,1.5-1.2,2.7-2.6,2.7H146.4z"/>
				<linearGradient id="SVGID_5_" gradientUnits="userSpaceOnUse" x1="7.5701" y1="135" x2="312.4299" y2="135">
					<stop  offset="0" style="stop-color:#AE3031"/>
					<stop  offset="0.9946" style="stop-color:#D46838"/>
				</linearGradient>
				<path class="st5" d="M140.4,145.5h30.2c1.5,0,2.7,1.2,2.7,2.8v19.6c0,1.7-0.7,3.2-1.7,4.3c-1.1,1.1-2.6,1.8-4.2,1.8h-24
					c-1.6,0-3-0.7-4.1-1.7c-1-1-1.7-2.5-1.7-4.1v-19.8C137.6,146.7,138.9,145.5,140.4,145.5L140.4,145.5z M167.9,151h-24.8v17
					l0.1,0.2c0,0,0.1,0.1,0.2,0.1h24c0.1,0,0.2,0,0.3-0.1c0.1-0.1,0.1-0.2,0.1-0.3V151z"/>
				<linearGradient id="SVGID_6_" gradientUnits="userSpaceOnUse" x1="7.5701" y1="135" x2="312.4299" y2="135">
					<stop  offset="0" style="stop-color:#AE3031"/>
					<stop  offset="0.9946" style="stop-color:#D46838"/>
				</linearGradient>
				<path class="st6" d="M155.5,131.1c3.3,0,6.4,1.4,8.6,3.6l0.2,0.2c2.1,2.2,3.4,5.2,3.4,8.5v4.9c0,1.5-1.2,2.8-2.7,2.8h-18.8
					c-1.5,0-2.7-1.2-2.7-2.8v-4.9c0-3.4,1.4-6.4,3.6-8.7C149.1,132.5,152.1,131.1,155.5,131.1L155.5,131.1z M160.2,138.6
					c-1.2-1.2-2.9-2-4.7-2c-1.8,0-3.5,0.8-4.7,2c-1.2,1.2-2,2.9-2,4.7v2.1h13.3v-2.1c0-1.8-0.7-3.4-1.9-4.6L160.2,138.6z"/>
				<linearGradient id="SVGID_7_" gradientUnits="userSpaceOnUse" x1="7.5701" y1="135" x2="312.4299" y2="135">
					<stop  offset="0" style="stop-color:#AE3031"/>
					<stop  offset="0.9946" style="stop-color:#D46838"/>
				</linearGradient>
				<path class="st7" d="M152.5,166.6c-1.1,1.1-2.8,1-3.9,0c-1.1-1.1-1.1-2.8,0-3.9l9.9-9.8c1.1-1.1,2.8-1.1,3.9,0
					c1.1,1.1,1.1,2.8,0,3.9L152.5,166.6z"/>
				<linearGradient id="SVGID_8_" gradientUnits="userSpaceOnUse" x1="7.5701" y1="135" x2="312.4299" y2="135">
					<stop  offset="0" style="stop-color:#AE3031"/>
					<stop  offset="0.9946" style="stop-color:#D46838"/>
				</linearGradient>
				<path class="st8" d="M162.4,162.6c1.1,1.1,1.1,2.8,0,3.9c-1.1,1.1-2.8,1.1-3.9,0l-9.9-9.8c-1.1-1.1-1.1-2.8,0-3.9
					c1.1-1.1,2.8-1.1,3.9,0L162.4,162.6z"/>
				<linearGradient id="SVGID_9_" gradientUnits="userSpaceOnUse" x1="7.5701" y1="135" x2="312.4299" y2="135">
					<stop  offset="0" style="stop-color:#AE3031"/>
					<stop  offset="0.9946" style="stop-color:#D46838"/>
				</linearGradient>
				<path class="st9" d="M123.9,181.3c-1.5,0-2.7-1.2-2.7-2.8c0-1.5,1.2-2.8,2.7-2.8h70.9c1.5,0,2.7,1.2,2.7,2.8
					c0,1.5-1.2,2.8-2.7,2.8H123.9z"/>
				<linearGradient id="SVGID_10_" gradientUnits="userSpaceOnUse" x1="7.5701" y1="135" x2="312.4299" y2="135">
					<stop  offset="0" style="stop-color:#AE3031"/>
					<stop  offset="0.9946" style="stop-color:#D46838"/>
				</linearGradient>
				<path class="st10" d="M67.9,79.4c-1.5,0-2.7-1.2-2.7-2.8c0-1.5,1.2-2.8,2.7-2.8h45.1c1.5,0,2.7,1.2,2.7,2.8v35.8
					c0,1.5-1.2,2.8-2.7,2.8c-1.5,0-2.7-1.2-2.7-2.8v-33H67.9z"/>
				<linearGradient id="SVGID_11_" gradientUnits="userSpaceOnUse" x1="7.5701" y1="135" x2="312.4299" y2="135">
					<stop  offset="0" style="stop-color:#AE3031"/>
					<stop  offset="0.9946" style="stop-color:#D46838"/>
				</linearGradient>
				<path class="st11" d="M243.3,73.9c1.5,0,2.7,1.2,2.7,2.8c0,1.6-1.2,2.8-2.7,2.8h-42.3v33c0,1.5-1.2,2.8-2.7,2.8
					c-1.5,0-2.7-1.2-2.7-2.8V76.6c0-1.5,1.2-2.8,2.7-2.8H243.3z"/>
				<linearGradient id="SVGID_12_" gradientUnits="userSpaceOnUse" x1="7.5701" y1="135" x2="312.4299" y2="135">
					<stop  offset="0" style="stop-color:#AE3031"/>
					<stop  offset="0.9946" style="stop-color:#D46838"/>
				</linearGradient>
				<path class="st12" d="M152.7,54.5c0-1.6,1.2-2.8,2.7-2.8c1.5,0,2.8,1.2,2.8,2.8v57.9c0,1.5-1.2,2.8-2.8,2.8
					c-1.5,0-2.7-1.2-2.7-2.8V54.5z"/>
				<linearGradient id="SVGID_13_" gradientUnits="userSpaceOnUse" x1="7.5701" y1="135" x2="312.4299" y2="135">
					<stop  offset="0" style="stop-color:#AE3031"/>
					<stop  offset="0.9946" style="stop-color:#D46838"/>
				</linearGradient>
				<path class="st13" d="M65.7,162.6c-1.5,0-2.8-1.2-2.8-2.8c0-1.6,1.2-2.8,2.8-2.8h18c1.5,0,2.7,1.2,2.7,2.8
					c0,1.5-1.2,2.8-2.7,2.8H65.7z M226.6,162.6c-1.5,0-2.7-1.2-2.7-2.8c0-1.6,1.2-2.8,2.7-2.8h17.5c1.5,0,2.8,1.2,2.8,2.8
					c0,1.5-1.2,2.8-2.8,2.8H226.6z"/>
				<linearGradient id="SVGID_14_" gradientUnits="userSpaceOnUse" x1="7.5701" y1="135" x2="312.4299" y2="135">
					<stop  offset="0" style="stop-color:#AE3031"/>
					<stop  offset="0.9946" style="stop-color:#D46838"/>
				</linearGradient>
				<path class="st14" d="M84.4,188.6c1.5,0,2.7,1.2,2.7,2.8c0,1.5-1.2,2.8-2.7,2.8H55.5v6.5c0,1.6-1.2,2.8-2.7,2.8
					c-1.5,0-2.8-1.2-2.8-2.8v-9.3c0-1.5,1.2-2.8,2.8-2.8H84.4z"/>
				<linearGradient id="SVGID_15_" gradientUnits="userSpaceOnUse" x1="7.5701" y1="135" x2="312.4299" y2="135">
					<stop  offset="0" style="stop-color:#AE3031"/>
					<stop  offset="0.9946" style="stop-color:#D46838"/>
				</linearGradient>
				<path class="st15" d="M225.9,194.1c-1.5,0-2.7-1.2-2.7-2.8c0-1.5,1.2-2.8,2.7-2.8h31.3c1.5,0,2.7,1.2,2.7,2.8v9.3
					c0,1.6-1.2,2.8-2.7,2.8c-1.5,0-2.7-1.2-2.7-2.8v-6.5H225.9z"/>
				<linearGradient id="SVGID_16_" gradientUnits="userSpaceOnUse" x1="7.5701" y1="135" x2="312.4299" y2="135">
					<stop  offset="0" style="stop-color:#AE3031"/>
					<stop  offset="0.9946" style="stop-color:#D46838"/>
				</linearGradient>
				<path class="st16" d="M155.5,29.8c3.8,0,7.2,1.5,9.6,4l0.2,0.2c2.4,2.5,3.8,5.9,3.8,9.6c0,3.8-1.5,7.2-4,9.7
					c-2.5,2.5-5.9,4.1-9.6,4.1c-3.7,0-7.1-1.6-9.6-4l0-0.1c-2.5-2.5-4-5.9-4-9.7c0-3.8,1.5-7.2,4-9.7
					C148.3,31.3,151.7,29.8,155.5,29.8L155.5,29.8z M161.2,37.7c-1.5-1.5-3.5-2.4-5.8-2.4c-2.2,0-4.3,0.9-5.7,2.4
					c-1.5,1.5-2.4,3.5-2.4,5.8c0,2.2,0.9,4.3,2.3,5.7l0.1,0c1.5,1.5,3.5,2.4,5.7,2.4c2.3,0,4.3-0.9,5.8-2.4c1.4-1.5,2.4-3.5,2.4-5.8
					c0-2.2-0.9-4.2-2.3-5.7L161.2,37.7z"/>
				<linearGradient id="SVGID_17_" gradientUnits="userSpaceOnUse" x1="7.5701" y1="135" x2="312.4299" y2="135">
					<stop  offset="0" style="stop-color:#AE3031"/>
					<stop  offset="0.9946" style="stop-color:#D46838"/>
				</linearGradient>
				<path class="st17" d="M254.1,62.9c3.7,0,7.1,1.6,9.6,4.1l0,0c2.5,2.5,4,5.9,4,9.7c0,3.8-1.5,7.2-4,9.7c-2.4,2.5-5.9,4-9.6,4
					c-3.8,0-7.2-1.5-9.6-4c-2.5-2.5-4-5.9-4-9.7c0-3.8,1.5-7.2,4-9.7C247,64.4,250.4,62.9,254.1,62.9L254.1,62.9z M259.9,70.8
					c-1.5-1.5-3.5-2.4-5.7-2.4c-2.3,0-4.3,0.9-5.8,2.4c-1.4,1.5-2.4,3.5-2.4,5.8c0,2.3,0.9,4.3,2.4,5.8c1.5,1.5,3.5,2.4,5.8,2.4
					c2.2,0,4.3-0.9,5.7-2.4c1.5-1.5,2.4-3.5,2.4-5.8C262.2,74.4,261.3,72.4,259.9,70.8L259.9,70.8z"/>
				<linearGradient id="SVGID_18_" gradientUnits="userSpaceOnUse" x1="7.5701" y1="135" x2="312.4299" y2="135">
					<stop  offset="0" style="stop-color:#AE3031"/>
					<stop  offset="0.9946" style="stop-color:#D46838"/>
				</linearGradient>
				<path class="st18" d="M54.8,146.1c3.8,0,7.2,1.5,9.6,4l0.1,0.2c2.4,2.5,3.8,5.9,3.8,9.6c0,3.8-1.5,7.2-4,9.7
					c-2.5,2.5-5.9,4.1-9.6,4.1c-3.8,0-7.2-1.6-9.6-4l-0.1-0.2c-2.4-2.5-3.8-5.9-3.8-9.6c0-3.8,1.5-7.2,4-9.7
					C47.7,147.6,51.1,146.1,54.8,146.1L54.8,146.1z M60.6,154.1c-1.5-1.5-3.5-2.4-5.7-2.4c-2.2,0-4.3,0.9-5.7,2.4
					c-1.5,1.5-2.4,3.5-2.4,5.8c0,2.2,0.9,4.2,2.3,5.7l0.1,0.1c1.4,1.5,3.5,2.4,5.7,2.4c2.2,0,4.3-0.9,5.7-2.4
					c1.5-1.5,2.4-3.5,2.4-5.8c0-2.2-0.9-4.2-2.2-5.7L60.6,154.1z"/>
				<linearGradient id="SVGID_19_" gradientUnits="userSpaceOnUse" x1="7.5701" y1="135" x2="312.4299" y2="135">
					<stop  offset="0" style="stop-color:#AE3031"/>
					<stop  offset="0.9946" style="stop-color:#D46838"/>
				</linearGradient>
				<path class="st19" d="M52.7,197.8c3.7,0,7.2,1.6,9.6,4l0.2,0.2c2.4,2.5,3.8,5.9,3.8,9.6c0,3.8-1.5,7.2-4,9.7
					c-2.4,2.5-5.9,4-9.6,4c-3.8,0-7.2-1.5-9.6-4l-0.2-0.2c-2.4-2.5-3.8-5.9-3.8-9.6c0-3.8,1.5-7.2,4-9.7
					C45.5,199.4,48.9,197.8,52.7,197.8L52.7,197.8z M58.4,205.8c-1.5-1.5-3.5-2.4-5.7-2.4c-2.3,0-4.3,0.9-5.8,2.4
					c-1.4,1.5-2.4,3.5-2.4,5.8c0,2.2,0.9,4.2,2.3,5.7l0.1,0.1c1.5,1.5,3.5,2.4,5.8,2.4c2.2,0,4.3-0.9,5.7-2.4
					c1.5-1.5,2.4-3.5,2.4-5.8c0-2.2-0.9-4.2-2.2-5.7L58.4,205.8z"/>
				<linearGradient id="SVGID_20_" gradientUnits="userSpaceOnUse" x1="7.5701" y1="135" x2="312.4299" y2="135">
					<stop  offset="0" style="stop-color:#AE3031"/>
					<stop  offset="0.9946" style="stop-color:#D46838"/>
				</linearGradient>
				<path class="st20" d="M257.2,197.8c3.8,0,7.2,1.6,9.6,4l0.1,0.2c2.4,2.5,3.8,5.9,3.8,9.6c0,3.8-1.5,7.2-4,9.7
					c-2.5,2.5-5.9,4-9.6,4c-3.7,0-7.1-1.5-9.6-4c-2.5-2.5-4-5.9-4-9.7c0-3.8,1.5-7.2,4-9.7l0.1-0.1
					C250.1,199.4,253.4,197.8,257.2,197.8L257.2,197.8z M262.9,205.8c-1.4-1.5-3.5-2.4-5.7-2.4c-2.2,0-4.2,0.9-5.7,2.3l0,0.1
					c-1.5,1.5-2.4,3.5-2.4,5.8c0,2.3,0.9,4.3,2.4,5.8c1.5,1.5,3.5,2.4,5.7,2.4c2.3,0,4.3-0.9,5.7-2.4c1.5-1.5,2.4-3.5,2.4-5.8
					c0-2.2-0.9-4.2-2.3-5.7L262.9,205.8z"/>
				<linearGradient id="SVGID_21_" gradientUnits="userSpaceOnUse" x1="7.5701" y1="135" x2="312.4299" y2="135">
					<stop  offset="0" style="stop-color:#AE3031"/>
					<stop  offset="0.9946" style="stop-color:#D46838"/>
				</linearGradient>
				<path class="st21" d="M255.5,146.1c3.8,0,7.2,1.5,9.6,4l0.1,0.2c2.4,2.5,3.8,5.9,3.8,9.6c0,3.8-1.5,7.2-4,9.7
					c-2.5,2.5-5.9,4-9.6,4c-3.8,0-7.2-1.6-9.6-4l-0.1-0.2c-2.4-2.5-3.8-5.9-3.8-9.6c0-3.8,1.5-7.2,4-9.7
					C248.4,147.6,251.8,146.1,255.5,146.1L255.5,146.1z M261.3,154.1c-1.5-1.5-3.5-2.4-5.7-2.4c-2.2,0-4.3,0.9-5.7,2.4
					c-1.5,1.5-2.4,3.5-2.4,5.8c0,2.2,0.9,4.2,2.3,5.7l0.1,0.1c1.4,1.5,3.5,2.4,5.7,2.4c2.2,0,4.3-0.9,5.7-2.4
					c1.5-1.5,2.4-3.5,2.4-5.8c0-2.2-0.9-4.2-2.2-5.7L261.3,154.1z"/>
				<linearGradient id="SVGID_22_" gradientUnits="userSpaceOnUse" x1="7.5701" y1="135" x2="312.4299" y2="135">
					<stop  offset="0" style="stop-color:#AE3031"/>
					<stop  offset="0.9946" style="stop-color:#D46838"/>
				</linearGradient>
				<path class="st22" d="M124.4,189.5c-1.5,0-2.7-1.2-2.7-2.8c0-1.5,1.2-2.8,2.7-2.8h42.7c1.5,0,2.7,1.2,2.7,2.8
					c0,1.6-1.2,2.8-2.7,2.8H124.4z"/>
				<linearGradient id="SVGID_23_" gradientUnits="userSpaceOnUse" x1="7.5701" y1="135" x2="312.4299" y2="135">
					<stop  offset="0" style="stop-color:#AE3031"/>
					<stop  offset="0.9946" style="stop-color:#D46838"/>
				</linearGradient>
				<path class="st23" d="M11.7,128.3c-1.2,0.8-2.8,0.5-3.7-0.8c-0.8-1.2-0.4-2.9,0.8-3.7l6.5-4.3c1.2-0.8,2.8-0.5,3.7,0.8
					c0.8,1.2,0.4,2.9-0.8,3.7L11.7,128.3z"/>
				<linearGradient id="SVGID_24_" gradientUnits="userSpaceOnUse" x1="7.5701" y1="135" x2="312.4299" y2="135">
					<stop  offset="0" style="stop-color:#AE3031"/>
					<stop  offset="0.9946" style="stop-color:#D46838"/>
				</linearGradient>
				<path class="st24" d="M30.3,109.7c1.2-0.8,2.8-0.5,3.7,0.8c0.8,1.2,0.4,2.9-0.8,3.7l-6.5,4.3c-1.2,0.8-2.8,0.5-3.6-0.8
					c-0.8-1.2-0.5-2.9,0.8-3.7L30.3,109.7z"/>
				<linearGradient id="SVGID_25_" gradientUnits="userSpaceOnUse" x1="7.5701" y1="135" x2="312.4299" y2="135">
					<stop  offset="0" style="stop-color:#AE3031"/>
					<stop  offset="0.9946" style="stop-color:#D46838"/>
				</linearGradient>
				<path class="st25" d="M30.6,129.2c0.8,1.2,0.4,2.9-0.8,3.7c-1.2,0.8-2.8,0.4-3.6-0.8l-4.3-6.6c-0.8-1.2-0.4-2.9,0.8-3.7
					c1.2-0.8,2.8-0.5,3.6,0.8L30.6,129.2z"/>
				<linearGradient id="SVGID_26_" gradientUnits="userSpaceOnUse" x1="7.5701" y1="135" x2="312.4299" y2="135">
					<stop  offset="0" style="stop-color:#AE3031"/>
					<stop  offset="0.9946" style="stop-color:#D46838"/>
				</linearGradient>
				<path class="st26" d="M19.7,112.2c0.8,1.2,0.4,2.9-0.8,3.7c-1.2,0.8-2.9,0.5-3.7-0.8l-4.3-6.6c-0.8-1.2-0.4-2.9,0.8-3.7
					c1.2-0.8,2.8-0.4,3.6,0.8L19.7,112.2z"/>
				<linearGradient id="SVGID_27_" gradientUnits="userSpaceOnUse" x1="7.5701" y1="135" x2="312.4299" y2="135">
					<stop  offset="0" style="stop-color:#AE3031"/>
					<stop  offset="0.9946" style="stop-color:#D46838"/>
				</linearGradient>
				<path class="st27" d="M206.6,27.3c-1.2,0.8-2.8,0.4-3.6-0.8c-0.8-1.2-0.4-2.9,0.8-3.7l6.5-4.3c1.2-0.8,2.9-0.5,3.7,0.8
					c0.8,1.2,0.4,2.9-0.8,3.7L206.6,27.3z"/>
				<linearGradient id="SVGID_28_" gradientUnits="userSpaceOnUse" x1="7.5701" y1="135" x2="312.4299" y2="135">
					<stop  offset="0" style="stop-color:#AE3031"/>
					<stop  offset="0.9946" style="stop-color:#D46838"/>
				</linearGradient>
				<path class="st28" d="M225.1,8.7c1.2-0.8,2.9-0.5,3.7,0.8c0.8,1.2,0.4,2.9-0.8,3.7l-6.5,4.3c-1.2,0.8-2.8,0.4-3.6-0.8
					c-0.8-1.2-0.4-2.9,0.8-3.7L225.1,8.7z"/>
				<linearGradient id="SVGID_29_" gradientUnits="userSpaceOnUse" x1="7.5701" y1="135" x2="312.4299" y2="135">
					<stop  offset="0" style="stop-color:#AE3031"/>
					<stop  offset="0.9946" style="stop-color:#D46838"/>
				</linearGradient>
				<path class="st29" d="M225.5,28.1c0.8,1.2,0.4,2.9-0.8,3.7c-1.2,0.8-2.9,0.4-3.7-0.8l-4.3-6.6c-0.8-1.2-0.4-2.9,0.8-3.7
					c1.2-0.8,2.8-0.4,3.7,0.8L225.5,28.1z"/>
				<linearGradient id="SVGID_30_" gradientUnits="userSpaceOnUse" x1="7.5701" y1="135" x2="312.4299" y2="135">
					<stop  offset="0" style="stop-color:#AE3031"/>
					<stop  offset="0.9946" style="stop-color:#D46838"/>
				</linearGradient>
				<path class="st30" d="M214.6,11.2c0.8,1.2,0.4,2.9-0.8,3.7c-1.2,0.8-2.8,0.4-3.6-0.8l-4.3-6.6c-0.8-1.2-0.4-2.9,0.8-3.7
					c1.2-0.8,2.9-0.5,3.7,0.8L214.6,11.2z"/>
				<linearGradient id="SVGID_31_" gradientUnits="userSpaceOnUse" x1="7.5701" y1="135" x2="312.4299" y2="135">
					<stop  offset="0" style="stop-color:#AE3031"/>
					<stop  offset="0.9946" style="stop-color:#D46838"/>
				</linearGradient>
				<path class="st31" d="M248.8,261.7c-1.2,0.8-2.8,0.5-3.6-0.8c-0.8-1.2-0.4-2.9,0.8-3.7l6.5-4.3c1.2-0.8,2.9-0.4,3.7,0.8
					c0.8,1.2,0.4,2.9-0.8,3.7L248.8,261.7z"/>
				<linearGradient id="SVGID_32_" gradientUnits="userSpaceOnUse" x1="7.5701" y1="135" x2="312.4299" y2="135">
					<stop  offset="0" style="stop-color:#AE3031"/>
					<stop  offset="0.9946" style="stop-color:#D46838"/>
				</linearGradient>
				<path class="st32" d="M267.4,243.1c1.2-0.8,2.9-0.5,3.7,0.8c0.8,1.2,0.4,2.9-0.8,3.7l-6.5,4.3c-1.2,0.8-2.8,0.4-3.6-0.8
					c-0.8-1.2-0.4-2.9,0.8-3.7L267.4,243.1z"/>
				<linearGradient id="SVGID_33_" gradientUnits="userSpaceOnUse" x1="7.5701" y1="135" x2="312.4299" y2="135">
					<stop  offset="0" style="stop-color:#AE3031"/>
					<stop  offset="0.9946" style="stop-color:#D46838"/>
				</linearGradient>
				<path class="st33" d="M267.8,262.5c0.8,1.2,0.4,2.9-0.8,3.7c-1.2,0.8-2.9,0.5-3.7-0.8l-4.3-6.6c-0.8-1.2-0.4-2.9,0.8-3.7
					c1.2-0.8,2.8-0.5,3.6,0.8L267.8,262.5z"/>
				<linearGradient id="SVGID_34_" gradientUnits="userSpaceOnUse" x1="7.5701" y1="135" x2="312.4299" y2="135">
					<stop  offset="0" style="stop-color:#AE3031"/>
					<stop  offset="0.9946" style="stop-color:#D46838"/>
				</linearGradient>
				<path class="st34" d="M256.9,245.5c0.8,1.2,0.4,2.9-0.8,3.7c-1.2,0.8-2.8,0.5-3.7-0.8l-4.2-6.6c-0.8-1.2-0.4-2.9,0.8-3.7
					c1.2-0.8,2.9-0.5,3.7,0.8L256.9,245.5z"/>
				<linearGradient id="SVGID_35_" gradientUnits="userSpaceOnUse" x1="7.5701" y1="135" x2="312.4299" y2="135">
					<stop  offset="0" style="stop-color:#AE3031"/>
					<stop  offset="0.9946" style="stop-color:#D46838"/>
				</linearGradient>
				<path class="st35" d="M253.7,114.3c-1.4,0-2.6-1.2-2.6-2.6c0-1.5,1.1-2.7,2.6-2.7l43-0.4c1.4,0,2.6,1.2,2.6,2.6
					c0,1.5-1.2,2.7-2.6,2.7L253.7,114.3z"/>
				<linearGradient id="SVGID_36_" gradientUnits="userSpaceOnUse" x1="7.5701" y1="135" x2="312.4299" y2="135">
					<stop  offset="0" style="stop-color:#AE3031"/>
					<stop  offset="0.9946" style="stop-color:#D46838"/>
				</linearGradient>
				<path class="st36" d="M284.1,123.7c-1.5,0-2.7-1.1-2.7-2.6c0-1.5,1.1-2.7,2.6-2.7l25.8-0.5c1.4,0,2.7,1.1,2.7,2.6
					c0,1.5-1.1,2.7-2.6,2.7L284.1,123.7z"/>
				<linearGradient id="SVGID_37_" gradientUnits="userSpaceOnUse" x1="7.5701" y1="135" x2="312.4299" y2="135">
					<stop  offset="0" style="stop-color:#AE3031"/>
					<stop  offset="0.9946" style="stop-color:#D46838"/>
				</linearGradient>
				<path class="st37" d="M112.7,251c-1.5,0-2.7-1.1-2.7-2.6c0-1.5,1.2-2.7,2.6-2.7l43-0.5c1.4,0,2.6,1.2,2.7,2.6
					c0,1.5-1.2,2.7-2.6,2.7L112.7,251z"/>
				<linearGradient id="SVGID_38_" gradientUnits="userSpaceOnUse" x1="7.5701" y1="135" x2="312.4299" y2="135">
					<stop  offset="0" style="stop-color:#AE3031"/>
					<stop  offset="0.9946" style="stop-color:#D46838"/>
				</linearGradient>
				<path class="st38" d="M143,260.4c-1.4,0-2.6-1.2-2.7-2.6c0-1.5,1.1-2.7,2.6-2.7l25.8-0.5c1.4,0,2.6,1.1,2.7,2.6
					c0,1.5-1.1,2.7-2.6,2.7L143,260.4z"/>
			</g>
		</g>
	</g>
</g>
</svg>
