<svg width="238" height="40" viewBox="0 0 238 40" fill="none" xmlns="http://www.w3.org/2000/svg">
<g clip-path="url(#clip0_1_330)">
<path d="M20.3763 20.8058H20.5514C26.8755 20.8058 28.6312 25.9766 33.0245 25.9766C36.3593 25.9766 39.0828 23.3439 39.0828 20.0182C39.0828 16.6925 36.3593 13.9694 33.0245 13.9694C28.5429 13.9694 26.9607 19.4934 20.5514 19.1401H20.3763C14.0522 19.2283 12.2941 13.9694 7.90394 13.9694C4.56679 13.9694 1.84326 16.6861 1.84326 20.0182C1.84326 23.3503 4.56679 25.9766 7.90394 25.9766C12.2941 25.9766 14.0522 20.8058 20.3763 20.8058Z" fill="#90CAF9"/>
<path d="M25.2058 21.9435C28.1927 23.5194 29.9501 25.9766 33.0254 25.9766C36.3601 25.9766 39.0837 23.3439 39.0837 20.0182C39.0837 16.6925 36.3601 13.9694 33.0254 13.9694C28.5437 13.9694 26.9615 19.4934 20.5522 19.1401H20.3771C18.4439 19.1401 16.8617 18.7027 15.5453 18.0025C18.8824 19.753 22.1328 20.1937 25.2066 21.9443L25.2058 21.9435Z" fill="#1976D2"/>
<path d="M15.8071 7.40079H15.983C21.3417 7.40079 22.8332 11.8682 26.6097 11.8682C29.4239 11.8682 31.7933 9.592 31.7933 6.70055C31.7933 3.80911 29.4239 1.6171 26.6097 1.6171C22.7488 1.6171 21.4293 6.34964 15.983 5.99714H15.8071C10.3609 6.08448 8.95691 1.6171 5.18043 1.6171C2.28181 1.6171 0 3.89326 0 6.70055C0 9.50785 2.28181 11.8682 5.18043 11.8682C8.86937 11.8682 10.4516 7.40079 15.8071 7.40079Z" fill="#42A5F5"/>
<path d="M19.9346 8.36381C22.483 9.67695 23.9777 11.8682 26.6097 11.8682C29.4239 11.8682 31.7933 9.592 31.7933 6.70055C31.7933 3.80911 29.4239 1.6171 26.6097 1.6171C22.7488 1.6171 21.4292 6.34964 15.983 5.99714H15.8071C14.1397 5.99714 12.8241 5.5597 11.6804 5.03412C14.4915 6.5251 17.3026 6.87522 19.9346 8.36381Z" fill="#0D47A1"/>
<path d="M15.8071 33.9477H15.983C21.3417 33.9477 22.8332 38.415 26.6097 38.415C29.424 38.415 31.7933 36.1357 31.7933 33.2443C31.7933 30.3528 29.424 28.0766 26.6097 28.0766C22.7488 28.0766 21.4293 32.8092 15.983 32.544H15.8071C10.3609 32.544 8.95691 28.0766 5.18043 28.0766C2.28181 28.0766 0 30.4433 0 33.2443C0 36.0452 2.28181 38.415 5.18043 38.415C8.86937 38.415 10.4516 33.9477 15.8071 33.9477Z" fill="#4FC3F7"/>
<path d="M19.9346 34.9107C22.483 36.227 23.9769 38.415 26.6097 38.415C29.4239 38.415 31.7933 36.1357 31.7933 33.2443C31.7933 30.3528 29.4239 28.0766 26.6097 28.0766C22.7488 28.0766 21.4292 32.8092 15.983 32.544H15.8071C14.1397 32.544 12.8241 32.1066 11.6804 31.4937C14.4915 33.0696 17.3026 33.4189 19.9346 34.9107Z" fill="#00ACC1"/>
</g>
<path d="M51.7765 30V10.3584H72.5538V13.5652H56.1858V18.1749H68.6789V21.4819H56.1858V26.7932H72.6874L74.0236 29.6326C74.0236 29.7216 73.723 29.8107 73.1217 29.8998C72.5204 29.9666 71.4849 30 70.0151 30H51.7765ZM75.6813 22.6511V18.7762H86.3706V22.6511H75.6813ZM87.3884 30L97.1758 10.3584H103.756L113.51 30H108.366L106.395 25.7577H94.4367L92.2654 30H87.3884ZM95.6392 22.4841H105.159L100.583 13.3647H100.249L95.6392 22.4841ZM114.854 30V13.0307L114.52 10.3584H135.364V13.5652H119.263V18.4422H131.757V21.7492H119.263V30H114.854ZM142.801 30C141.22 30 139.984 29.7773 139.093 29.3319C138.203 28.8865 137.579 28.2184 137.223 27.3277C136.866 26.4369 136.688 25.3346 136.688 24.0207V16.5715C136.688 14.4337 137.167 12.8637 138.125 11.8616C139.082 10.8372 140.641 10.325 142.801 10.325H152.856C154.392 10.325 155.562 10.414 156.363 10.5922C157.187 10.7481 157.599 10.9151 157.599 11.0933L156.931 13.8658C156.553 13.799 155.428 13.7322 153.557 13.6654C151.709 13.5763 149.014 13.5318 145.473 13.5318H143.77C141.988 13.5318 141.098 14.3223 141.098 15.9035V24.4215C141.098 25.1787 141.287 25.7688 141.665 26.1919C142.066 26.5928 142.768 26.7932 143.77 26.7932H145.139C147.277 26.7932 149.081 26.7821 150.551 26.7598C152.021 26.7153 153.234 26.6819 154.192 26.6596V22.1166L152.188 22.15L147.812 22.4841V19.2105H158.568V28.597L158.902 29.2985C158.902 29.4767 158.434 29.6437 157.499 29.7996C156.564 29.9332 154.983 30 152.756 30H142.801ZM161.906 30V10.3584H166.315V18.509H179.409V10.3584H183.819V30H179.409V21.7158H166.315V30H161.906ZM184.835 30L194.622 10.3584H201.203L210.957 30H205.812L203.841 25.7577H191.883L189.712 30H184.835ZM193.085 22.4841H202.605L198.029 13.3647H197.695L193.085 22.4841ZM212.3 30V13.0307L211.966 10.3584H216.776L228.134 22.2502L229.437 24.0541H229.804V10.3584H234.213V30H229.971L218.346 17.9077L217.044 16.3377H216.71V30H212.3Z" fill="black"/>
<defs>
<clipPath id="clip0_1_330">
<rect width="39.0828" height="36.7973" fill="white" transform="matrix(1 0 0 -1 0 38.415)"/>
</clipPath>
</defs>
</svg>
