<svg width="164" height="48" viewBox="0 0 164 48" fill="none" xmlns="http://www.w3.org/2000/svg">
<rect width="163.525" height="48" rx="24" fill="white"/>
<rect x="0.5" y="0.5" width="162.525" height="47" rx="23.5" stroke="black" stroke-opacity="0.2"/>
<path d="M38.5818 22.8782C38.5509 19.1867 41.6091 17.3874 41.7514 17.307C40.0181 14.7842 37.3314 14.4379 36.3842 14.4132C34.1247 14.1782 31.9394 15.7612 30.7879 15.7612C29.6179 15.7612 27.8474 14.4379 25.9345 14.475C23.4768 14.5121 21.1801 15.9343 19.9235 18.1356C17.3234 22.6308 19.2611 29.2346 21.7559 32.8704C23.0001 34.6512 24.455 36.636 26.3617 36.568C28.225 36.4938 28.9246 35.3808 31.1717 35.3808C33.4003 35.3808 34.0565 36.568 36.0004 36.5247C38 36.4938 39.2628 34.7377 40.4638 32.9446C41.9062 30.9041 42.4819 28.8945 42.5067 28.7956C42.4572 28.7646 38.619 27.2992 38.5818 22.8782ZM34.9109 12.0202C35.9137 10.765 36.6008 9.06465 36.409 7.33331C34.9604 7.39511 33.1403 8.33498 32.1003 9.55931C31.1779 10.6414 30.3484 12.4098 30.5651 14.0731C32.187 14.1906 33.8646 13.2507 34.9109 12.0202Z" fill="black"/>
<path d="M65.5844 36.3021H62.9782L61.5482 31.8254H56.5895L55.2276 36.3021H52.6895L57.6048 21.0541H60.6381L65.5844 36.3021ZM61.121 29.9457L59.8272 25.9637C59.691 25.5555 59.431 24.5971 59.0595 23.0884H59.0162C58.8676 23.7377 58.62 24.6961 58.2919 25.9637L57.0229 29.9457H61.121ZM78.2012 30.6691C78.2012 32.5365 77.6932 34.0143 76.678 35.1026C75.7676 36.0672 74.635 36.5495 73.2854 36.5495C71.8243 36.5495 70.7784 36.0301 70.141 34.9913V40.7603H67.6955V28.9193C67.6955 27.7445 67.6648 26.5387 67.6027 25.3082H69.7566L69.8934 27.0519H69.9361C70.7537 25.7411 71.9919 25.0794 73.6505 25.0794C74.9507 25.0794 76.0339 25.5927 76.901 26.6191C77.7673 27.6455 78.2012 28.9997 78.2012 30.6691ZM75.7122 30.7619C75.7122 29.6922 75.4706 28.808 74.988 28.1155C74.4614 27.392 73.7499 27.0333 72.8582 27.0333C72.2582 27.0333 71.7069 27.2374 71.2176 27.6331C70.729 28.0351 70.4067 28.5607 70.2585 29.2037C70.1904 29.4449 70.153 29.6983 70.147 29.9457V31.7821C70.147 32.5798 70.3947 33.2537 70.8839 33.8103C71.3725 34.3606 72.0105 34.6388 72.7961 34.6388C73.7186 34.6388 74.4367 34.2802 74.9507 33.5753C75.4519 32.8581 75.7122 31.9243 75.7122 30.7619ZM90.8667 30.6691C90.8667 32.5365 90.3594 34.0143 89.3436 35.1026C88.4338 36.0672 87.3012 36.5495 85.9516 36.5495C84.4905 36.5495 83.444 36.0301 82.8066 34.9913V40.7603H80.361V28.9193C80.361 27.7445 80.3303 26.5387 80.2682 25.3082H82.4228L82.5589 27.0519H82.6023C83.4193 25.7411 84.6574 25.0794 86.3167 25.0794C87.6169 25.0794 88.7001 25.5927 89.5665 26.6191C90.4275 27.6455 90.8667 28.9997 90.8667 30.6691ZM88.3718 30.7619C88.3718 29.6922 88.1308 28.808 87.6476 28.1155C87.1216 27.392 86.4095 27.0333 85.5184 27.0333C84.9177 27.0333 84.3664 27.2374 83.8712 27.6331C83.3826 28.0351 83.0602 28.5607 82.912 29.2037C82.8373 29.5067 82.7945 29.754 82.7945 29.9457V31.7821C82.7945 32.5798 83.0422 33.2537 83.5307 33.8103C84.02 34.3606 84.6574 34.6388 85.4503 34.6388C86.3721 34.6388 87.0903 34.2802 87.6042 33.5753C88.1181 32.8581 88.3718 31.9243 88.3718 30.7619ZM105.025 32.0295C105.025 33.328 104.573 34.3853 103.669 35.1953C102.679 36.0857 101.286 36.5309 99.5089 36.5309C97.8683 36.5309 96.55 36.2156 95.5529 35.5787L96.1162 33.5444C97.1875 34.1813 98.3695 34.4966 99.651 34.4966C100.573 34.4966 101.292 34.2864 101.806 33.8721C102.319 33.4578 102.579 32.9013 102.579 32.2088C102.579 31.5905 102.363 31.0711 101.942 30.6444C101.521 30.2239 100.821 29.8282 99.8372 29.4696C97.1628 28.4741 95.8252 27.0148 95.8252 25.1042C95.8252 23.8551 96.2957 22.8287 97.2429 22.0311C98.184 21.2334 99.4348 20.8315 100.995 20.8315C102.382 20.8315 103.539 21.0727 104.461 21.5549L103.849 23.546C102.982 23.0761 102.01 22.8473 100.914 22.8473C100.053 22.8473 99.3727 23.0575 98.8895 23.4779C98.481 23.8551 98.2767 24.3127 98.2767 24.8569C98.2767 25.4566 98.5123 25.9575 98.9829 26.347C99.3914 26.7057 100.128 27.1014 101.199 27.5219C102.511 28.0536 103.477 28.6657 104.096 29.3769C104.715 30.0879 105.025 30.9721 105.025 32.0295ZM113.134 27.1447H110.435V32.4809C110.435 33.8412 110.912 34.5151 111.865 34.5151C112.305 34.5151 112.664 34.4781 112.955 34.4039L113.023 36.2589C112.54 36.4382 111.909 36.5309 111.122 36.5309C110.157 36.5309 109.401 36.2341 108.856 35.6467C108.312 35.0593 108.04 34.0699 108.04 32.6849V27.1447H106.436V25.3144H108.04V23.2987L110.442 22.5752V25.3144H113.14L113.134 27.1447ZM125.274 30.7186C125.274 32.4067 124.791 33.7979 123.825 34.88C122.816 35.9991 121.473 36.5557 119.795 36.5557C118.179 36.5557 116.892 36.0177 115.932 34.9542C114.973 33.8845 114.496 32.5303 114.496 30.9041C114.496 29.1975 114.992 27.8063 115.982 26.718C116.973 25.6297 118.304 25.0918 119.981 25.0918C121.597 25.0918 122.897 25.6297 123.875 26.6995C124.803 27.7321 125.274 29.0739 125.274 30.7186ZM122.736 30.7743C122.736 29.7664 122.519 28.9007 122.079 28.1835C121.566 27.3116 120.835 26.8726 119.882 26.8726C118.904 26.8726 118.149 27.3116 117.641 28.1835C117.202 28.9069 116.985 29.7849 116.985 30.8237C116.985 31.8316 117.202 32.6973 117.641 33.4207C118.167 34.2925 118.91 34.7316 119.863 34.7316C120.799 34.7316 121.529 34.2864 122.061 33.4022C122.513 32.654 122.736 31.7821 122.736 30.7743ZM133.229 27.46C132.975 27.4167 132.715 27.392 132.455 27.392C131.595 27.392 130.932 27.7135 130.462 28.3628C130.053 28.9378 129.849 29.6613 129.849 30.5331V36.3021H127.404V28.7709C127.404 27.6146 127.385 26.4645 127.336 25.3082H129.465L129.551 27.4105H129.62C129.88 26.6871 130.282 26.1059 130.846 25.6669C131.353 25.2835 131.978 25.0794 132.616 25.0794C132.845 25.0794 133.043 25.098 133.229 25.1227V27.46ZM144.168 30.2858C144.174 30.6568 144.143 31.0278 144.081 31.3926H136.739C136.764 32.4809 137.123 33.3094 137.804 33.8845C138.423 34.3977 139.221 34.6512 140.206 34.6512C141.295 34.6512 142.286 34.4781 143.177 34.1318L143.561 35.826C142.521 36.2774 141.289 36.5062 139.872 36.5062C138.163 36.5062 136.825 36.0053 135.848 35.0037C134.876 34.0019 134.386 32.654 134.386 30.9659C134.386 29.3088 134.838 27.9299 135.749 26.8293C136.696 25.6545 137.983 25.0671 139.599 25.0671C141.184 25.0671 142.385 25.6545 143.202 26.8293C143.84 27.763 144.168 28.9131 144.168 30.2858ZM141.834 29.6551C141.853 28.9317 141.692 28.3071 141.357 27.7753C140.936 27.0952 140.28 26.7551 139.407 26.7551C138.609 26.7551 137.959 27.089 137.457 27.7506C137.048 28.2762 136.807 28.9131 136.733 29.6489L141.834 29.6551Z" fill="black"/>
<path d="M55.8841 15.6685C55.2032 15.6685 54.6151 15.6375 54.126 15.5819V8.20521C54.8132 8.10008 55.5065 8.04441 56.1999 8.05061C59.0042 8.05061 60.298 9.42947 60.298 11.674C60.2918 14.2648 58.769 15.6685 55.8841 15.6685ZM56.2989 8.99667C55.9213 8.99667 55.5994 9.02141 55.3332 9.07701V14.6791C55.4756 14.7039 55.7542 14.71 56.1441 14.71C57.9827 14.71 59.0289 13.6651 59.0289 11.7111C59.0227 9.96127 58.0756 8.99667 56.2989 8.99667ZM64.3219 15.7241C62.7433 15.7241 61.7156 14.5431 61.7156 12.9416C61.7156 11.2721 62.7619 10.0849 64.4086 10.0849C65.9686 10.0849 67.015 11.2103 67.015 12.855C67.015 14.5431 65.9377 15.7241 64.3219 15.7241ZM64.3652 10.9629C63.4985 10.9629 62.9414 11.7729 62.9414 12.9107C62.9414 14.0237 63.5109 14.8337 64.3529 14.8337C65.201 14.8337 65.7643 13.968 65.7643 12.8859C65.7705 11.7853 65.2133 10.9629 64.3652 10.9629ZM76.0282 10.1962L74.3383 15.6004H73.2363L72.5368 13.2569C72.3633 12.6819 72.2151 12.1007 72.1036 11.5133H72.0789C71.9922 12.1007 71.8246 12.6943 71.6451 13.2569L70.9022 15.6004H69.7882L68.197 10.1962H69.4352L70.0479 12.7623C70.1907 13.3744 70.3142 13.9495 70.4136 14.4998H70.4383C70.5251 14.0422 70.6733 13.4795 70.8842 12.7747L71.6518 10.1962H72.6296L73.3664 12.719C73.546 13.3311 73.6882 13.9309 73.7996 14.4998H73.8303C73.9111 13.9433 74.0286 13.3559 74.1961 12.719L74.8522 10.1962H76.0282ZM82.2622 15.6004H81.0615V12.4964C81.0615 11.538 80.6957 11.0619 79.9715 11.0619C79.26 11.0619 78.7708 11.674 78.7708 12.3851V15.6004H77.57V11.742C77.57 11.2659 77.5574 10.7527 77.5267 10.1962H78.5852L78.6406 11.0309H78.6713C78.9937 10.4559 79.6498 10.0849 80.3867 10.0849C81.5194 10.0849 82.2682 10.9506 82.2682 12.3665L82.2622 15.6004ZM85.5741 15.6004H84.3734V7.71667H85.5741V15.6004ZM89.9633 15.7241C88.3848 15.7241 87.3569 14.5431 87.3569 12.9416C87.3569 11.2721 88.4034 10.0849 90.05 10.0849C91.6099 10.0849 92.6564 11.2103 92.6564 12.855C92.6564 14.5431 91.5732 15.7241 89.9633 15.7241ZM90.0067 10.9629C89.1396 10.9629 88.583 11.7729 88.583 12.9107C88.583 14.0237 89.1523 14.8337 89.994 14.8337C90.8423 14.8337 91.4056 13.968 91.4056 12.8859C91.4056 11.7853 90.855 10.9629 90.0067 10.9629ZM97.398 15.6004L97.3112 14.9759H97.2805C96.9154 15.4767 96.3768 15.7179 95.696 15.7179C94.7235 15.7179 94.0367 15.0377 94.0367 14.1288C94.0367 12.7932 95.1941 12.1069 97.1998 12.1069V12.0079C97.1998 11.2968 96.8227 10.9382 96.0798 10.9382C95.5472 10.9382 95.0766 11.0743 94.6681 11.3401L94.4265 10.5487C94.9284 10.2395 95.5532 10.0787 96.284 10.0787C97.695 10.0787 98.4132 10.8207 98.4132 12.3109V14.3019C98.4132 14.8461 98.4379 15.2727 98.494 15.5942L97.398 15.6004ZM97.2311 12.9107C95.8936 12.9107 95.2255 13.2322 95.2255 13.9989C95.2255 14.5678 95.5719 14.8461 96.0484 14.8461C96.6618 14.8461 97.2311 14.3823 97.2311 13.7454V12.9107ZM104.239 15.6004L104.183 14.7347H104.152C103.806 15.3902 103.224 15.7241 102.413 15.7241C101.106 15.7241 100.141 14.5802 100.141 12.9663C100.141 11.2783 101.144 10.0849 102.511 10.0849C103.236 10.0849 103.749 10.3261 104.034 10.8207H104.059V7.71667H105.26V14.1411C105.26 14.6605 105.273 15.1552 105.303 15.5942H104.239V15.6004ZM104.065 12.4222C104.065 11.6678 103.564 11.0186 102.796 11.0186C101.905 11.0186 101.36 11.8101 101.36 12.9169C101.36 14.0051 101.923 14.7533 102.772 14.7533C103.527 14.7533 104.065 14.0979 104.065 13.3188V12.4222ZM112.9 15.7241C111.321 15.7241 110.293 14.5431 110.293 12.9416C110.293 11.2721 111.339 10.0849 112.986 10.0849C114.546 10.0849 115.592 11.2103 115.592 12.855C115.592 14.5431 114.515 15.7241 112.9 15.7241ZM112.943 10.9629C112.076 10.9629 111.519 11.7729 111.519 12.9107C111.519 14.0237 112.089 14.8337 112.93 14.8337C113.779 14.8337 114.342 13.968 114.342 12.8859C114.348 11.7853 113.791 10.9629 112.943 10.9629ZM122.062 15.6004H120.86V12.4964C120.86 11.538 120.495 11.0619 119.771 11.0619C119.059 11.0619 118.57 11.674 118.57 12.3851V15.6004H117.369V11.742C117.369 11.2659 117.357 10.7527 117.325 10.1962H118.384L118.44 11.0309H118.471C118.793 10.4559 119.449 10.0849 120.185 10.0849C121.319 10.0849 122.068 10.9506 122.068 12.3665V15.6004H122.062ZM130.146 11.0989H128.822V13.7207C128.822 14.3885 129.051 14.7224 129.521 14.7224C129.731 14.7224 129.911 14.6977 130.054 14.6667L130.084 15.5757C129.849 15.6623 129.54 15.7117 129.15 15.7117C128.202 15.7117 127.633 15.1923 127.633 13.8196V11.0928H126.841V10.19H127.633V9.20067L128.816 8.84207V10.19H130.14L130.146 11.0989ZM136.517 15.6004H135.315V12.5211C135.315 11.5565 134.95 11.0681 134.226 11.0681C133.601 11.0681 133.025 11.4885 133.025 12.348V15.6066H131.824V7.71667H133.025V10.9629H133.05C133.428 10.3755 133.978 10.0849 134.678 10.0849C135.823 10.0849 136.523 10.9753 136.523 12.3851L136.517 15.6004ZM143.035 13.1889H139.426C139.451 14.2092 140.126 14.7904 141.129 14.7904C141.661 14.7904 142.156 14.7039 142.589 14.5369L142.775 15.3716C142.261 15.5942 141.661 15.7055 140.961 15.7055C139.271 15.7055 138.269 14.6358 138.269 12.9849C138.269 11.3277 139.296 10.0849 140.825 10.0849C142.205 10.0849 143.072 11.1051 143.072 12.651C143.084 12.8241 143.072 13.0096 143.035 13.1889ZM141.933 12.3295C141.933 11.4947 141.512 10.9073 140.745 10.9073C140.051 10.9073 139.507 11.5071 139.432 12.3295H141.933Z" fill="black"/>
</svg>
