<svg width="374" height="77" viewBox="0 0 374 77" fill="none" xmlns="http://www.w3.org/2000/svg">
<path d="M368.11 24.0358H367.007V17.7495H372.972V18.7291H368.11V20.4354H372.469V21.415H368.11V24.0322V24.0358ZM362.069 18.6424C360.555 18.6424 359.528 19.5533 359.528 20.8945C359.528 22.2356 360.551 23.1466 362.069 23.1466C363.588 23.1466 364.611 22.2356 364.611 20.8945C364.611 19.5533 363.588 18.6424 362.069 18.6424ZM362.069 17.6519C364.199 17.6519 365.757 19.0255 365.757 20.8908C365.757 22.7562 364.199 24.1298 362.069 24.1298C359.94 24.1298 358.382 22.7562 358.382 20.8908C358.382 19.0255 359.94 17.6519 362.069 17.6519ZM349.099 24.0358V17.7495H350.22V23.0562H354.807V24.0358H349.095H349.099ZM344.298 18.852L342.968 21.4801H345.629L344.298 18.852ZM343.676 17.7495H344.913L348.108 24.0358H346.919L346.124 22.4597H342.473L341.677 24.0358H340.477L343.684 17.7495H343.676ZM334.78 20.6378H337.513C338.319 20.6378 338.793 20.2871 338.793 19.6762C338.793 19.0653 338.319 18.7146 337.513 18.7146H334.78V20.6414V20.6378ZM334.78 21.603V24.0395H333.659V17.7531H337.574C338.948 17.7531 339.895 18.411 339.895 19.6798C339.895 20.6523 339.328 21.274 338.424 21.509L340.054 24.0395H338.775L337.242 21.603H334.78ZM326.252 17.7495H332.329V18.7291H327.355V20.3052H331.83V21.2849H327.355V23.0526H332.329V24.0322H326.252V17.7458V17.7495ZM324.618 17.7495V24.0358H323.639L319.348 19.1593V24.0358H318.271V17.7495H319.427L323.545 22.4164V17.7495H324.622H324.618ZM310.864 17.7495H316.94V18.7291H311.966V20.3052H316.441V21.2849H311.966V23.0526H316.94V24.0322H310.864V17.7458V17.7495ZM305.98 17.6519C307.599 17.6519 308.825 18.3785 309.309 19.5859L308.38 20.1028C307.979 19.1557 307.144 18.6387 305.991 18.6387C304.458 18.6387 303.373 19.5425 303.373 20.88C303.373 22.2175 304.443 23.1393 305.94 23.1393C307.191 23.1393 308.358 22.5176 308.409 21.6247H305.405V20.645H309.4V24.0358H308.348V23.2297C307.972 23.7213 307.043 24.1335 305.94 24.1335C303.778 24.1335 302.217 22.7489 302.217 20.8764C302.217 19.0038 303.818 17.6519 305.983 17.6519H305.98ZM292.467 17.7495H298.544V18.7291H293.57V20.3052H298.045V21.2849H293.57V23.0526H298.544V24.0322H292.467V17.7458V17.7495ZM291.281 18.7291H288.444V24.0358H287.323V18.7291H284.485V17.7495H291.281V18.7291ZM281.174 18.852L279.844 21.4801H282.504L281.174 18.852ZM280.552 17.7495H281.789L284.984 24.0358H283.795L283 22.4597H279.349L278.553 24.0358H277.353L280.56 17.7495H280.552ZM271.049 24.0358V17.7495H272.169V23.0562H276.757V24.0358H271.045H271.049ZM266.421 24.1262C264.198 24.1262 263.233 22.8465 263.233 20.9993V17.7495H264.354V20.9631C264.354 22.2248 264.853 23.1357 266.421 23.1357C267.99 23.1357 268.489 22.2248 268.489 20.9631V17.7495H269.61V20.9993C269.61 22.8465 268.648 24.1262 266.421 24.1262ZM255.591 22.5393L256.397 21.7946C257.106 22.8465 258.244 23.161 259.192 23.161C260.323 23.161 261.136 22.7851 261.136 22.2248C261.136 21.5596 260.612 21.5054 258.772 21.2957C257.171 21.1114 256.032 20.8475 256.032 19.622C256.032 18.4833 257.153 17.6519 258.906 17.6519C260.298 17.6519 261.559 18.176 262.094 19.0002L261.288 19.6762C260.833 19.0002 259.958 18.6243 258.863 18.6243C257.619 18.6243 257.095 19.0545 257.095 19.5099C257.095 20.0088 257.496 20.1317 259.145 20.3233C261.053 20.5438 262.235 20.7535 262.235 22.091C262.235 23.4285 260.876 24.1298 259.17 24.1298C257.619 24.1298 256.184 23.49 255.598 22.5356L255.591 22.5393ZM254.633 17.7495V24.0358H253.653L249.363 19.1593V24.0358H248.285V17.7495H249.442L253.559 22.4164V17.7495H254.637H254.633ZM243.347 18.6424C241.833 18.6424 240.806 19.5533 240.806 20.8945C240.806 22.2356 241.829 23.1466 243.347 23.1466C244.866 23.1466 245.889 22.2356 245.889 20.8945C245.889 19.5533 244.866 18.6424 243.347 18.6424ZM243.347 17.6519C245.476 17.6519 247.034 19.0255 247.034 20.8908C247.034 22.7562 245.476 24.1298 243.347 24.1298C241.218 24.1298 239.66 22.7562 239.66 20.8908C239.66 19.0255 241.218 17.6519 243.347 17.6519ZM231.938 20.8945C231.938 19.0291 233.533 17.6555 235.644 17.6555C237.245 17.6555 238.445 18.3929 238.926 19.6003L237.997 20.11C237.596 19.1629 236.79 18.646 235.651 18.646C234.173 18.646 233.084 19.5569 233.084 20.8981C233.084 22.2392 234.169 23.1502 235.651 23.1502C236.79 23.1502 237.596 22.6332 237.997 21.6861L238.926 22.1958C238.445 23.4032 237.245 24.1407 235.644 24.1407C233.533 24.1407 231.938 22.767 231.938 20.9017V20.8945Z" fill="white"/>
<path d="M373.192 33.0516V44.2797H371.161L363.826 35.9761V44.2797H361.607V33.0516H363.953L370.958 40.9792V33.0516H373.196H373.192ZM352.97 35.3182L350.765 39.714H355.161L352.97 35.3182ZM351.687 33.0516H354.268L359.929 44.2797H357.442L356.144 41.6697H349.797L348.484 44.2797H346.03L351.691 33.0516H351.687ZM347.067 35.0399H342.111V44.2833H339.798V35.0399H334.842V33.0553H347.071V35.0399H347.067ZM321.719 41.8396L323.266 40.2273C324.55 41.948 326.581 42.4794 328.241 42.4794C330.117 42.4794 331.447 41.9155 331.447 41.0081C331.447 39.9453 330.525 39.8514 327.366 39.5079C324.615 39.1934 322.504 38.6801 322.504 36.4569C322.504 34.2337 324.582 32.8745 327.774 32.8745C330.276 32.8745 332.528 33.7674 333.544 35.1122L332.011 36.5834C331.151 35.4737 329.556 34.8302 327.648 34.8302C325.645 34.8302 324.738 35.47 324.738 36.222C324.738 37.0353 325.49 37.2233 328.335 37.5523C331.527 37.9137 333.779 38.3331 333.779 40.7587C333.779 43.1843 331.324 44.4496 328.15 44.4496C325.475 44.4496 322.818 43.4157 321.723 41.8396H321.719ZM320.15 33.0516V44.2797H317.851V33.0516H320.15ZM315.111 33.0516V44.2797H313.08L305.745 35.9761V44.2797H303.525V33.0516H305.871L312.877 40.9792V33.0516H315.115H315.111ZM294.889 35.3182L292.684 39.714H297.08L294.889 35.3182ZM293.606 33.0516H296.187L301.848 44.2797H299.361L298.063 41.6697H291.715L290.403 44.2797H287.948L293.609 33.0516H293.606ZM283.99 33.0516H286.304V44.2797H283.99V39.5116H276.782V44.2797H274.483V33.0516H276.782V37.5233H283.99V33.0516ZM265.811 32.8817C268.749 32.8817 270.955 34.194 271.815 36.3521L269.798 37.3209C269.158 35.7882 267.781 34.8953 265.792 34.8953C263.258 34.8953 261.397 36.381 261.397 38.6657C261.397 40.9503 263.226 42.4505 265.727 42.4505C267.806 42.4505 269.686 41.4636 269.841 40.0719H264.791V38.1343H271.985V44.2797H269.827V42.9674C269.187 43.7808 267.589 44.4532 265.713 44.4532C261.82 44.4532 259.036 41.9986 259.036 38.6367C259.036 35.2748 261.881 32.8817 265.807 32.8817H265.811ZM249.453 44.2797H247.186V33.0516H257.883V35.0363H249.453V37.8342H256.99V39.8188H249.453V44.276V44.2797ZM238.554 35.3182L236.349 39.714H240.744L238.554 35.3182ZM237.271 33.0516H239.852L245.513 44.2797H243.026L241.728 41.6697H235.38L234.068 44.2797H231.613L237.274 33.0516H237.271Z" fill="white"/>
<path d="M233.598 58.1992V53.0062H236.253C238.075 53.0062 239.225 54.0188 239.225 55.6027C239.225 57.1867 238.075 58.1992 236.253 58.1992H233.598ZM234.64 57.2879H236.253C237.439 57.2879 238.14 56.6225 238.14 55.6027C238.14 54.5757 237.439 53.9175 236.253 53.9175H234.64V57.2879ZM242.366 58.2715C240.544 58.2715 239.697 57.259 239.697 55.7474V53.0062H240.761V55.6895C240.761 56.6659 241.18 57.3385 242.366 57.3385C243.545 57.3385 243.965 56.6659 243.965 55.6895V53.0062H245.035V55.7474C245.035 57.259 244.182 58.2715 242.366 58.2715ZM245.803 58.1992V53.0062H249.21C250.331 53.0062 250.967 53.498 250.967 54.3876C250.967 55.0096 250.562 55.3496 250.208 55.5014C250.729 55.675 251.127 56.1162 251.127 56.7455C251.127 57.6568 250.432 58.1992 249.333 58.1992H245.803ZM246.823 55.1181H249.101C249.637 55.1181 249.962 54.9156 249.962 54.5033C249.962 54.0983 249.637 53.8886 249.101 53.8886H246.823V55.1181ZM246.823 55.9788V57.3096H249.261C249.788 57.3096 250.099 57.042 250.099 56.6442C250.099 56.2536 249.788 55.9788 249.261 55.9788H246.823ZM253.714 53.0062H254.907L257.526 58.1992H256.376L255.775 56.9914H252.839L252.231 58.1992H251.096L253.714 53.0062ZM254.307 54.0549L253.287 56.0873H255.32L254.307 54.0549ZM259.001 53.0062V58.1992H257.938V53.0062H259.001ZM259.728 58.1992V57.0275H260.914V58.1775C260.914 58.8574 260.444 59.2624 259.728 59.2624V58.7272C260.06 58.7055 260.227 58.5609 260.227 58.2498V58.1992H259.728ZM266.105 58.2715C264.283 58.2715 263.437 57.259 263.437 55.7474V53.0062H264.5V55.6895C264.5 56.6659 264.919 57.3385 266.105 57.3385C267.284 57.3385 267.704 56.6659 267.704 55.6895V53.0062H268.774V55.7474C268.774 57.259 267.921 58.2715 266.105 58.2715ZM274.902 53.0062V58.1992H273.962L270.569 54.3587V58.1992H269.542V53.0062H270.627L273.868 56.6731V53.0062H274.902ZM276.871 53.0062V58.1992H275.807V53.0062H276.871ZM283.108 53.9247H280.816V58.1992H279.745V53.9247H277.453V53.0062H283.108V53.9247ZM283.697 53.0062H288.724V53.9247H284.746V55.082H288.311V55.9933H284.746V57.2807H288.724V58.1992H283.697V53.0062ZM289.404 58.1992V53.0062H292.058C293.881 53.0062 295.031 54.0188 295.031 55.6027C295.031 57.1867 293.881 58.1992 292.058 58.1992H289.404ZM290.445 57.2879H292.058C293.244 57.2879 293.946 56.6225 293.946 55.6027C293.946 54.5757 293.244 53.9175 292.058 53.9175H290.445V57.2879ZM299.695 53.0062H300.888L303.507 58.1992H302.357L301.756 56.9914H298.82L298.212 58.1992H297.077L299.695 53.0062ZM300.288 54.0549L299.268 56.0873H301.301L300.288 54.0549ZM304.982 56.2681V58.1992H303.919V53.0062H307.181C308.359 53.0062 309.155 53.5703 309.155 54.6408C309.155 55.4364 308.692 55.9643 307.954 56.1668L309.278 58.1992H308.056L306.833 56.2681H304.982ZM304.982 55.3785H307.123C307.745 55.3785 308.099 55.1109 308.099 54.648C308.099 54.1779 307.745 53.9103 307.123 53.9103H304.982V55.3785ZM311.872 53.0062H313.065L315.683 58.1992H314.533L313.933 56.9914H310.997L310.389 58.1992H309.254L311.872 53.0062ZM312.465 54.0549L311.445 56.0873H313.477L312.465 54.0549ZM316.095 58.1992V53.0062H319.502C320.623 53.0062 321.26 53.498 321.26 54.3876C321.26 55.0096 320.855 55.3496 320.5 55.5014C321.021 55.675 321.419 56.1162 321.419 56.7455C321.419 57.6568 320.724 58.1992 319.625 58.1992H316.095ZM317.115 55.1181H319.394C319.929 55.1181 320.254 54.9156 320.254 54.5033C320.254 54.0983 319.929 53.8886 319.394 53.8886H317.115V55.1181ZM317.115 55.9788V57.3096H319.553C320.081 57.3096 320.392 57.042 320.392 56.6442C320.392 56.2536 320.081 55.9788 319.553 55.9788H317.115ZM323.928 53.0062H328.955V53.9247H324.977V55.082H328.543V55.9933H324.977V57.2807H328.955V58.1992H323.928V53.0062ZM333.418 58.1992H332.557L330.67 54.0188V58.1992H329.635V53.0062H331.256L332.999 56.8973L334.742 53.0062H336.34V58.1992H335.299V54.0188L333.418 58.1992ZM338.313 53.0062V58.1992H337.249V53.0062H338.313ZM340.283 56.2681V58.1992H339.22V53.0062H342.482C343.661 53.0062 344.457 53.5703 344.457 54.6408C344.457 55.4364 343.994 55.9643 343.256 56.1668L344.579 58.1992H343.357L342.135 56.2681H340.283ZM340.283 55.3785H342.424C343.046 55.3785 343.401 55.1109 343.401 54.648C343.401 54.1779 343.046 53.9103 342.424 53.9103H340.283V55.3785ZM347.173 53.0062H348.367L350.985 58.1992H349.835L349.235 56.9914H346.298L345.691 58.1992H344.555L347.173 53.0062ZM347.766 54.0549L346.747 56.0873H348.779L347.766 54.0549ZM355.802 53.9247H353.509V58.1992H352.439V53.9247H350.146V53.0062H355.802V53.9247ZM356.391 53.0062H361.417V53.9247H357.439V55.082H361.005V55.9933H357.439V57.2807H361.417V58.1992H356.391V53.0062ZM361.633 57.0709L362.349 56.326C362.942 57.1216 363.882 57.3675 364.649 57.3675C365.517 57.3675 366.131 57.1071 366.131 56.6876C366.131 56.1958 365.705 56.1524 364.244 55.9933C362.971 55.8486 361.994 55.6099 361.994 54.5829C361.994 53.5993 362.956 52.9266 364.432 52.9266C365.589 52.9266 366.631 53.3389 367.101 53.9609L366.392 54.6408C365.994 54.1272 365.256 53.8307 364.374 53.8307C363.448 53.8307 363.029 54.1272 363.029 54.4744C363.029 54.8505 363.376 54.9373 364.692 55.0892C366.168 55.2555 367.209 55.4508 367.209 56.5719C367.209 57.7074 366.074 58.2788 364.605 58.2788C363.369 58.2788 362.139 57.8014 361.633 57.0709Z" fill="#C59714"/>
<path d="M2.89557 35.9974V34.1177H4.60906V35.9974H2.89557ZM7.85889 46.0615C7.85889 47.2255 7.50824 48.1907 6.79248 48.9209C6.10926 49.6366 5.24529 50.0018 4.17888 50.0018H3.68001C2.61361 50.0018 1.74963 49.6366 1.06641 48.9028C0.368724 48.1726 0 47.2219 0 46.0434V37.0602H1.71348V45.9602C1.71348 47.54 2.44732 48.3389 3.92583 48.3389C5.40434 48.3389 6.10564 47.54 6.10564 45.9602V37.0602H7.8372V46.0578H7.85528L7.85889 46.0615Z" fill="white"/>
<path d="M13.867 46.3943C12.6017 46.3943 11.604 46.0436 10.8702 45.3315C10.1363 44.6338 9.77124 43.6686 9.77124 42.4359V33.3877H11.4847V42.3528C11.4666 43.9325 12.2656 44.7314 13.867 44.7314V46.3943Z" fill="white"/>
<path d="M15.6817 35.2821V33.4023H17.3952V35.2821H15.6817ZM19.8931 46.3945H19.7087C18.3278 46.3619 17.2939 45.9462 16.6288 45.1148C15.9781 45.9643 14.9804 46.3945 13.6501 46.3945H13.4513V44.7316H13.6501C15.0165 44.7316 15.6817 44.0845 15.6817 42.7687V37.0462H17.3952V42.8337C17.3952 44.099 18.1615 44.7316 19.6943 44.7316H19.8786V46.3945H19.8967H19.8931ZM12.9669 35.2821V33.4023H14.6803V35.2821H12.9669Z" fill="white"/>
<path d="M19.5098 46.3941V44.7313H39.4354V37.1471H41.1019V44.7313H44.1131V37.0459H45.8122V44.7313H49.0439V37.0459H50.7574V44.7313H69.7359V46.3941H19.5098Z" fill="white"/>
<path d="M72.2663 35.2821V33.4204H73.9798V35.2821H72.2663ZM74.0124 42.4505C74.0124 43.6832 73.6617 44.6448 72.946 45.3461C72.2302 46.0438 71.2469 46.4089 70.0179 46.4089H69.1033V44.746H70.0179C71.5506 44.746 72.317 43.9471 72.317 42.3674V37.0607H74.016V42.4505H74.0124Z" fill="white"/>
<path d="M80.0386 46.3943C78.7734 46.3943 77.7756 46.0436 77.0418 45.3315C76.308 44.6338 75.9429 43.6686 75.9429 42.4359V33.3877H77.6564V42.3528C77.6383 43.9325 78.4372 44.7314 80.0386 44.7314V46.3943Z" fill="white"/>
<path d="M101.898 35.2821V33.4204H103.612V35.2821H101.898ZM106.008 41.4854C106.008 40.6864 105.708 40.0032 105.126 39.4212C104.512 38.8067 103.727 38.4886 102.795 38.456H102.693C101.779 38.456 101.012 38.7561 100.394 39.3525C99.7941 39.9345 99.4941 40.6503 99.4941 41.4637C100.044 41.9951 101.124 42.9928 102.758 44.4749L106.023 41.4637L106.005 41.4817L106.008 41.4854ZM104.71 46.3944C104.045 46.3944 103.395 46.2788 102.748 46.0619C102.097 46.2932 101.45 46.3944 100.785 46.3944H79.5251V44.7316H100.799L97.6179 41.8215C97.6179 40.4406 98.0662 39.2947 98.9482 38.3946C99.8954 37.4294 101.146 36.9305 102.726 36.9305C104.306 36.9305 105.538 37.4113 106.503 38.3946C107.404 39.3092 107.87 40.4587 107.87 41.8215L104.689 44.7316H125.948V46.3944H104.689H104.707H104.71Z" fill="white"/>
<path d="M130.131 35.2675V33.4058H131.812V35.2675H130.131ZM131.031 38.5245C129.664 38.5245 128.967 39.6054 128.967 41.7852C128.967 42.8661 129.133 43.6324 129.484 44.0988C129.798 44.5326 130.315 44.7314 131.016 44.7314C131.718 44.7314 132.282 44.5145 132.614 44.0988C132.965 43.6505 133.131 42.8841 133.131 41.8214C133.131 39.6271 132.434 38.5281 131.016 38.5281H131.035L131.031 38.5245ZM131.031 46.3943H125.355V44.7314H127.835C127.402 44.0012 127.203 43.0179 127.203 41.7707C127.203 40.2742 127.553 39.0921 128.237 38.2606C128.902 37.4473 129.834 37.046 131.035 37.046C132.235 37.046 133.2 37.4437 133.865 38.2606C134.548 39.0921 134.881 40.2886 134.881 41.8358C134.881 44.8615 133.598 46.3943 131.02 46.3943H131.038H131.031Z" fill="white"/>
<path d="M136.808 46.3941V33.402H138.521V46.3941H136.808ZM135.376 32.3212V31.3885H136.24V31.2041C136.24 29.8883 136.771 29.2231 137.82 29.2231C138.517 29.2231 139.02 29.6208 139.334 30.4197H138.319C138.185 30.2209 138.019 30.1197 137.834 30.1197C137.418 30.1197 137.22 30.4703 137.22 31.1499V31.3668H139.483V32.2995H135.387L135.369 32.3175L135.376 32.3212Z" fill="white"/>
<g clip-path="url(#clip0_539_1926)">
<path d="M9.86908 23.2714C9.98334 23.3963 10.0768 23.5661 10.1599 23.788C10.2396 24.01 10.2811 24.2215 10.2811 24.426C10.2811 24.7311 10.1911 25.0362 10.011 25.3344C9.83099 25.6326 9.54361 25.8961 9.14544 26.1284C8.74726 26.3607 8.23137 26.5445 7.59083 26.6797C6.95029 26.8184 6.16432 26.8843 5.22948 26.8843C4.19423 26.8843 3.33902 26.7907 2.67078 26.6034C2.00254 26.4162 1.46933 26.1562 1.07462 25.8233C0.679904 25.4939 0.406375 25.1021 0.25403 24.6583C0.101685 24.211 0.0255127 23.7291 0.0255127 23.2125V20.834H1.27543V22.9802C1.27543 23.8886 1.58705 24.5578 2.21028 24.9808C2.83351 25.4038 3.85145 25.6187 5.2641 25.6187C5.79039 25.6187 6.28897 25.591 6.75985 25.539C7.23074 25.4835 7.64276 25.4038 7.99593 25.2963C8.34909 25.1888 8.62954 25.0501 8.83036 24.8837C9.03118 24.7173 9.13159 24.5266 9.13159 24.3116C9.13159 24.0793 9.01387 23.8713 8.7715 23.6875C8.52913 23.5037 8.23483 23.3408 7.88167 23.2021C7.5285 23.0634 7.1511 22.9386 6.75293 22.8276C6.35476 22.7132 6.00505 22.6127 5.6969 22.5225V21.2709C6.9953 21.7563 8.22791 21.9955 9.39473 21.9955H10.9424C11.3544 21.9955 11.5622 22.2001 11.5622 22.6092C11.5622 22.8692 11.5137 23.0426 11.4133 23.1327C11.3129 23.2229 11.1571 23.2714 10.9424 23.2714H9.87254H9.86908Z" fill="white"/>
<path d="M10.9632 23.2716C10.5546 23.2716 10.3503 23.0671 10.3503 22.6579C10.3503 22.4014 10.3988 22.2245 10.4958 22.1344C10.5927 22.0442 10.7485 21.9957 10.9632 21.9957H11.6003C11.718 21.9957 11.8461 21.9818 11.9777 21.9506C12.1127 21.9229 12.2443 21.8535 12.3758 21.7495C12.5074 21.6455 12.639 21.5034 12.7671 21.3231C12.8952 21.1428 13.0164 20.9035 13.1306 20.6019C13.3661 19.9466 13.6154 19.4161 13.8751 19.007C14.1347 18.6013 14.4013 18.2893 14.6714 18.0674C14.9415 17.8454 15.2185 17.6998 15.5024 17.627C15.7828 17.5542 16.0633 17.5195 16.3437 17.5195C16.7315 17.5195 17.0881 17.5923 17.4136 17.7414C17.7425 17.8905 18.0265 18.0986 18.2688 18.3725C18.5112 18.6464 18.6982 18.9654 18.8367 19.3398C18.9751 19.7143 19.0409 20.1338 19.0409 20.6019C19.0409 21.4791 18.8297 22.176 18.4039 22.6961C17.978 23.2162 17.3271 23.4762 16.4476 23.4762C15.9629 23.4762 15.4781 23.393 14.9865 23.23C14.4948 23.0671 13.9893 22.7862 13.4665 22.3944C13.3315 22.599 13.1964 22.7585 13.0614 22.8798C12.9229 22.9977 12.7775 23.0844 12.6217 23.1433C12.4659 23.2023 12.3066 23.237 12.1473 23.2508C11.9846 23.2682 11.8115 23.2751 11.6245 23.2751H10.9632V23.2716ZM17.7702 20.5533C17.7702 20.321 17.7356 20.0991 17.6698 19.8842C17.604 19.6692 17.5036 19.482 17.3755 19.319C17.2474 19.1561 17.0916 19.0278 16.9081 18.9272C16.7246 18.8267 16.5099 18.7781 16.2641 18.7781C15.8278 18.7781 15.4331 18.9688 15.0765 19.3502C14.7199 19.7316 14.384 20.4008 14.0724 21.3508C14.4498 21.5935 14.8237 21.7877 15.1977 21.9402C15.5716 22.0928 15.9525 22.1656 16.3472 22.1656C16.7765 22.1656 17.1228 22.0408 17.3824 21.7946C17.6421 21.5484 17.7737 21.1324 17.7737 20.5533H17.7702Z" fill="white"/>
<path d="M24.9513 21.9957C25.1278 21.9957 25.2906 21.9853 25.436 21.9645C25.5814 21.9437 25.7026 21.8917 25.803 21.8154C25.9034 21.7392 25.9796 21.6248 26.0315 21.4791C26.0869 21.3335 26.1111 21.1324 26.1111 20.8724V12.291H27.3749V20.3037C27.3749 20.8238 27.4788 21.2399 27.69 21.5415C27.8977 21.8467 28.2336 21.9957 28.6976 21.9957C29.1061 21.9957 29.3104 22.2003 29.3104 22.6094C29.3104 22.8695 29.2619 23.0428 29.165 23.133C29.068 23.2231 28.9122 23.2717 28.6976 23.2717C28.2959 23.2717 27.9739 23.1746 27.735 22.9839C27.4961 22.7932 27.3368 22.554 27.2572 22.2697C27.0702 22.6892 26.7725 22.9596 26.3708 23.0844C25.9692 23.2093 25.4464 23.2717 24.8093 23.2717H19.9827V21.9957H22.4653V16.1396H23.7221V21.9957H24.9547H24.9513Z" fill="white"/>
<path d="M28.9226 21.9958C29.262 21.9958 29.5459 21.9854 29.7813 21.9646C30.0133 21.9438 30.2003 21.8918 30.3422 21.8155C30.4807 21.7392 30.5811 21.6248 30.6434 21.4792C30.7058 21.3335 30.7369 21.1324 30.7369 20.8724V18.1056H31.9938V20.3003C31.9938 20.5569 32.0076 20.7926 32.0388 21.0007C32.0665 21.2087 32.1392 21.3855 32.2569 21.5277C32.3712 21.6699 32.5304 21.7843 32.7313 21.8675C32.9321 21.9507 33.216 21.9923 33.583 21.9923C33.8046 21.9923 33.9985 21.9819 34.1716 21.9611C34.3447 21.9403 34.4867 21.8883 34.5975 21.812C34.7118 21.7357 34.7948 21.6213 34.8468 21.4757C34.8987 21.3301 34.9264 21.129 34.9264 20.8689V18.109H36.1833V20.2968C36.1833 20.5534 36.2006 20.7892 36.2387 20.9972C36.2767 21.2052 36.346 21.3821 36.4429 21.5242C36.5434 21.6664 36.6784 21.7808 36.848 21.864C37.0212 21.9472 37.2358 21.9888 37.499 21.9888H38.787V17.3428H40.0507V23.2648H37.4955C37.1043 23.2648 36.7857 23.1677 36.5399 22.977C36.2941 22.7863 36.1348 22.5471 36.0621 22.2627C35.8751 22.6823 35.5843 22.9527 35.1965 23.0775C34.8087 23.2024 34.3378 23.2648 33.7908 23.2648C33.4376 23.2648 33.1433 23.237 32.9078 23.1816C32.6724 23.1261 32.482 23.0498 32.3262 22.9527C32.1738 22.8556 32.0526 22.7447 31.9626 22.6233C31.8726 22.4985 31.7964 22.3772 31.7341 22.2523C31.6475 22.4673 31.5367 22.6407 31.3948 22.769C31.2528 22.8972 31.0762 23.0013 30.8581 23.081C30.64 23.1608 30.3699 23.2093 30.0445 23.2336C29.719 23.2578 29.3347 23.2682 28.888 23.2682H28.3721C27.9636 23.2682 27.7593 23.0637 27.7593 22.6545C27.7593 22.398 27.8078 22.2211 27.9047 22.131C28.0016 22.0408 28.1575 21.9923 28.3721 21.9923H28.9123L28.9226 21.9958Z" fill="white"/>
<path d="M43.2153 12.291V23.2717H41.9585V12.291H43.2153Z" fill="white"/>
<path d="M57.972 23.2714H48.6582C48.0661 23.2714 47.5745 23.2298 47.1798 23.1466C46.7851 23.0633 46.4665 22.9316 46.2242 22.7548C45.9818 22.5779 45.8087 22.3491 45.7083 22.0648C45.6078 21.7839 45.5559 21.4372 45.5559 21.0281V18.6496H46.8128V20.5704C46.8128 20.8894 46.8508 21.139 46.9305 21.3297C47.0066 21.517 47.1382 21.6626 47.3217 21.7631C47.5052 21.8637 47.7545 21.9261 48.0696 21.9573C48.3881 21.9885 48.7932 22.0024 49.2953 22.0024H56.7083V17.3563H57.972V23.2783V23.2714ZM50.0432 15.6712C50.0432 15.4459 50.1228 15.2517 50.2821 15.0957C50.4413 14.9362 50.6318 14.8564 50.8568 14.8564C51.0819 14.8564 51.2758 14.9362 51.4316 15.0957C51.5908 15.2552 51.6705 15.4459 51.6705 15.6712C51.6705 15.8966 51.5908 16.0908 51.4316 16.2468C51.2723 16.4063 51.0819 16.486 50.8568 16.486C50.6318 16.486 50.4379 16.4063 50.2821 16.2468C50.1228 16.0873 50.0432 15.8966 50.0432 15.6712ZM52.034 15.6712C52.034 15.4459 52.1137 15.2517 52.2764 15.0957C52.4391 14.9362 52.6296 14.8564 52.8581 14.8564C53.0866 14.8564 53.2736 14.9362 53.4294 15.0957C53.5852 15.2552 53.6614 15.4459 53.6614 15.6712C53.6614 15.8966 53.5817 16.0908 53.4294 16.2468C53.2736 16.4063 53.0831 16.486 52.8581 16.486C52.633 16.486 52.4391 16.4063 52.2764 16.2468C52.1171 16.0873 52.034 15.8966 52.034 15.6712Z" fill="white"/>
<path d="M60.1637 18.1157H61.3963V22.4081C61.3963 23.1675 61.3548 23.8054 61.2717 24.3255C61.1886 24.8456 61.0224 25.2616 60.7766 25.5806C60.5307 25.8996 60.188 26.1285 59.7517 26.2706C59.3154 26.4128 58.7545 26.4856 58.069 26.4856V25.2096C58.5676 25.2096 58.9588 25.1542 59.2393 25.0467C59.5197 24.9392 59.7309 24.7658 59.8694 24.5266C60.0079 24.2874 60.091 23.9788 60.1187 23.6043C60.1464 23.2264 60.1637 22.7722 60.1637 22.2417V18.1192V18.1157Z" fill="white"/>
<path d="M66.5069 22.6094C66.5069 22.8695 66.4584 23.0428 66.3615 23.133C66.2645 23.2231 66.1087 23.2717 65.894 23.2717H65.4993C65.1669 23.2717 64.8657 23.237 64.5956 23.1711C64.3256 23.1053 64.097 22.9874 63.9066 22.8244C63.7162 22.6614 63.5673 22.443 63.46 22.1726C63.3526 21.9021 63.2972 21.5623 63.2972 21.1532V12.291H64.5541V20.81C64.5541 21.2399 64.6199 21.545 64.7549 21.7253C64.8899 21.9056 65.1842 21.9957 65.6413 21.9957H65.8906C66.2991 21.9957 66.5034 22.2003 66.5034 22.6094H66.5069Z" fill="white"/>
<path d="M65.9009 23.2716C65.4924 23.2716 65.2881 23.0671 65.2881 22.6579C65.2881 22.4014 65.3366 22.2245 65.4335 22.1344C65.5305 22.0442 65.6863 21.9957 65.9009 21.9957H66.538C66.6557 21.9957 66.7838 21.9818 66.9154 21.9506C67.0504 21.9229 67.182 21.8535 67.3136 21.7495C67.4452 21.6455 67.5767 21.5034 67.7048 21.3231C67.8329 21.1428 67.9541 20.9035 68.0684 20.6019C68.3038 19.9466 68.5531 19.4161 68.8128 19.007C69.0725 18.6013 69.3391 18.2893 69.6091 18.0674C69.8792 17.8454 70.1562 17.6998 70.4401 17.627C70.7206 17.5542 71.001 17.5195 71.2815 17.5195C71.6693 17.5195 72.0259 17.5923 72.3514 17.7414C72.6803 17.8905 72.9642 18.0986 73.2066 18.3725C73.4489 18.6464 73.6359 18.9654 73.7744 19.3398C73.9129 19.7143 73.9787 20.1338 73.9787 20.6019C73.9787 21.4791 73.7675 22.176 73.3416 22.6961C72.9157 23.2162 72.2648 23.4762 71.3854 23.4762C70.9006 23.4762 70.4159 23.393 69.9242 23.23C69.4326 23.0671 68.9271 22.7862 68.4042 22.3944C68.2692 22.599 68.1342 22.7585 67.9991 22.8798C67.8606 22.9977 67.7152 23.0844 67.5594 23.1433C67.4036 23.2023 67.2443 23.237 67.0851 23.2508C66.9223 23.2682 66.7492 23.2751 66.5622 23.2751H65.9009V23.2716ZM72.708 20.5533C72.708 20.321 72.6734 20.0991 72.6076 19.8842C72.5418 19.6692 72.4414 19.482 72.3133 19.319C72.1852 19.1561 72.0294 19.0278 71.8458 18.9272C71.6623 18.8267 71.4477 18.7781 71.2018 18.7781C70.7656 18.7781 70.3709 18.9688 70.0142 19.3502C69.6576 19.7316 69.3218 20.4008 69.0102 21.3508C69.3876 21.5935 69.7615 21.7877 70.1354 21.9402C70.5094 22.0928 70.8902 22.1656 71.2849 22.1656C71.7143 22.1656 72.0605 22.0408 72.3202 21.7946C72.5799 21.5484 72.7114 21.1324 72.7114 20.5533H72.708Z" fill="white"/>
<path d="M77.1398 12.291V23.2717H75.8829V12.291H77.1398Z" fill="white"/>
<path d="M80.7303 21.6974C80.7303 22.0996 80.7926 22.4706 80.9207 22.8034C81.0489 23.1363 81.2635 23.4241 81.5647 23.6633C81.8694 23.9026 82.2676 24.0898 82.7662 24.225C83.2613 24.3602 83.8776 24.4261 84.6151 24.4261C85.1483 24.4261 85.6573 24.388 86.142 24.3117C86.6268 24.2354 87.0596 24.1245 87.4335 23.9823C87.8074 23.8401 88.1087 23.6598 88.3268 23.4483C88.5484 23.2403 88.6557 23.0011 88.6557 22.7306C88.6557 22.4949 88.5761 22.2972 88.4237 22.1412C88.2679 21.9852 87.9736 21.8014 87.5443 21.583C87.2396 21.427 86.9522 21.2709 86.6891 21.1114C86.4259 20.952 86.2009 20.7717 86.0105 20.5671C85.82 20.3625 85.6711 20.1337 85.5603 19.8806C85.4461 19.6275 85.3907 19.3328 85.3907 18.993C85.3907 18.6047 85.4599 18.2129 85.5984 17.8107C85.7369 17.4085 85.9481 17.0479 86.2286 16.7254C86.509 16.403 86.8587 16.1395 87.2846 15.9384C87.7105 15.7373 88.2021 15.6367 88.7665 15.6367C89.1093 15.6367 89.414 15.6749 89.6737 15.7546C89.9333 15.8309 90.0822 15.8829 90.1203 15.9037V17.1935C89.916 17.1346 89.6944 17.0825 89.4521 17.0409C89.2097 16.9993 88.9743 16.9751 88.7423 16.9751C88.3995 16.9751 88.0983 17.0305 87.8386 17.1346C87.5824 17.242 87.3642 17.3842 87.1946 17.5576C87.0215 17.7309 86.8934 17.9285 86.8103 18.1435C86.7272 18.3585 86.6856 18.5734 86.6856 18.7884C86.6856 19.0034 86.7237 19.1698 86.7999 19.3154C86.8761 19.4645 86.9799 19.5997 87.1115 19.728C87.2431 19.8528 87.3954 19.9673 87.572 20.0678C87.7486 20.1684 87.9355 20.2724 88.1398 20.3868C88.4895 20.5844 88.7804 20.7647 89.0193 20.9277C89.2547 21.0906 89.4417 21.2467 89.5802 21.4027C89.7187 21.5587 89.8156 21.7147 89.8779 21.8742C89.9403 22.0337 89.9714 22.2036 89.9714 22.3874C89.9714 22.8173 89.8745 23.2334 89.6806 23.6321C89.4867 24.0343 89.1751 24.388 88.7457 24.6965C88.3164 25.0051 87.759 25.2548 87.0769 25.442C86.3948 25.6292 85.5742 25.7228 84.6116 25.7228C83.6491 25.7228 82.8389 25.6292 82.1811 25.442C81.5232 25.2548 80.9969 24.9913 80.5987 24.6584C80.2006 24.3256 79.9167 23.9303 79.7401 23.4726C79.5635 23.0149 79.4769 22.5157 79.4769 21.9713V19.6795H80.7269V21.687L80.7303 21.6974ZM82.7385 28.1048C82.7385 27.8794 82.8181 27.6853 82.9809 27.5293C83.1436 27.3698 83.334 27.29 83.5522 27.29C83.7703 27.29 83.9711 27.3698 84.1269 27.5293C84.2862 27.6888 84.3658 27.8794 84.3658 28.1048C84.3658 28.3302 84.2862 28.5174 84.1269 28.6769C83.9676 28.8364 83.7772 28.9196 83.5522 28.9196C83.3271 28.9196 83.1401 28.8399 82.9809 28.6769C82.8216 28.5139 82.7385 28.3232 82.7385 28.1048ZM84.7363 28.1048C84.7363 27.8794 84.8159 27.6853 84.9752 27.5293C85.1345 27.3732 85.3249 27.29 85.55 27.29C85.775 27.29 85.9689 27.3698 86.1316 27.5293C86.2944 27.6888 86.374 27.8794 86.374 28.1048C86.374 28.3302 86.2944 28.5174 86.1316 28.6769C85.9689 28.8364 85.7785 28.9196 85.55 28.9196C85.3214 28.9196 85.131 28.8399 84.9752 28.6769C84.8159 28.5139 84.7363 28.3232 84.7363 28.1048Z" fill="white"/>
<path d="M95.4593 23.2715C95.12 23.2715 94.8396 23.1952 94.6145 23.0426C94.3895 22.8901 94.2163 22.7098 94.0986 22.5052C94.0986 23.2403 94.0536 23.8644 93.967 24.374C93.877 24.8837 93.7143 25.2929 93.4719 25.6049C93.2296 25.917 92.8937 26.1423 92.4644 26.2775C92.035 26.4162 91.4776 26.4821 90.7886 26.4821V25.2062C91.2872 25.2062 91.6784 25.1507 91.9589 25.0432C92.2393 24.9357 92.4505 24.7624 92.589 24.5231C92.7275 24.2839 92.8106 23.9753 92.8383 23.6009C92.866 23.2229 92.8833 22.7687 92.8833 22.2382V18.1157H94.1159V20.3035C94.1159 20.8236 94.2129 21.2397 94.4033 21.5413C94.5937 21.8464 94.9469 21.9955 95.4628 21.9955C95.8714 21.9955 96.0756 22.2001 96.0756 22.6092C96.0756 22.8693 96.0272 23.0426 95.9302 23.1328C95.8333 23.2229 95.6775 23.2715 95.4628 23.2715H95.4593Z" fill="white"/>
<path d="M95.4697 23.2716C95.0611 23.2716 94.8568 23.0671 94.8568 22.6579C94.8568 22.4014 94.9053 22.2245 95.0022 22.1344C95.0992 22.0442 95.255 21.9957 95.4697 21.9957H98.9182C99.4756 21.9957 99.8807 21.9056 100.127 21.7253C100.372 21.545 100.497 21.3057 100.497 21.011C100.497 20.7371 100.383 20.4251 100.158 20.0783C99.9327 19.7316 99.6176 19.378 99.2194 19.0208C98.8178 18.6637 98.3504 18.3135 97.8137 17.9772C97.277 17.6374 96.6953 17.3323 96.0721 17.0584C96.0825 16.9336 96.1067 16.8053 96.1414 16.6735C96.176 16.5418 96.2175 16.4204 96.2625 16.306C96.3076 16.1916 96.3526 16.098 96.401 16.0182C96.4495 15.9385 96.4945 15.8899 96.543 15.8691L102.294 13.3936V14.6695L97.7756 16.6701C98.8593 17.2144 99.7215 17.8004 100.362 18.4314C101.003 19.0624 101.428 19.69 101.643 20.3141C101.771 20.6678 101.892 20.9555 102.007 21.1705C102.121 21.3855 102.235 21.5554 102.356 21.6837C102.478 21.8119 102.613 21.8952 102.768 21.9333C102.924 21.9714 103.094 21.9922 103.288 21.9922C103.7 21.9922 103.907 22.1968 103.907 22.6059C103.907 22.866 103.859 23.0393 103.759 23.1295C103.658 23.2196 103.502 23.2682 103.288 23.2682C103.073 23.2682 102.89 23.2578 102.706 23.2335C102.523 23.2092 102.353 23.1572 102.194 23.0705C102.034 22.9873 101.889 22.866 101.754 22.7065C101.619 22.547 101.491 22.3355 101.366 22.0651H101.311C101.113 22.5505 100.784 22.8694 100.324 23.0289C99.8634 23.1884 99.3025 23.2682 98.6343 23.2682H95.4697V23.2716Z" fill="white"/>
<path d="M103.298 23.2717C102.89 23.2717 102.685 23.0671 102.685 22.658C102.685 22.4014 102.734 22.2246 102.831 22.1344C102.928 22.0443 103.083 21.9957 103.298 21.9957H104.531C104.714 21.9957 104.877 21.9853 105.022 21.9645C105.168 21.9437 105.289 21.8917 105.386 21.8154C105.483 21.7392 105.559 21.6248 105.611 21.4791C105.666 21.3335 105.691 21.1324 105.691 20.8724V12.291H106.954V20.3037C106.954 20.8238 107.058 21.2399 107.269 21.5415C107.477 21.8467 107.813 21.9957 108.277 21.9957C108.686 21.9957 108.89 22.2003 108.89 22.6094C108.89 22.8695 108.841 23.0428 108.744 23.133C108.648 23.2231 108.492 23.2717 108.277 23.2717C107.879 23.2717 107.56 23.1746 107.318 22.9839C107.076 22.7932 106.916 22.554 106.833 22.2697C106.646 22.6892 106.348 22.9596 105.947 23.0844C105.545 23.2093 105.022 23.2717 104.385 23.2717H103.298Z" fill="white"/>
<path d="M108.828 21.9953C109.167 21.9953 109.451 21.9849 109.686 21.9641C109.918 21.9433 110.105 21.8913 110.247 21.815C110.386 21.7388 110.486 21.6243 110.548 21.4787C110.611 21.3331 110.642 21.132 110.642 20.872V18.1121H111.899V20.2999C111.899 20.5564 111.912 20.7922 111.944 21.0002C111.971 21.2083 112.044 21.3851 112.162 21.5273C112.276 21.6694 112.439 21.7838 112.65 21.867C112.858 21.9503 113.142 21.9919 113.495 21.9919C113.72 21.9919 113.917 21.9815 114.083 21.9607C114.25 21.9399 114.388 21.8878 114.502 21.8116C114.617 21.7353 114.7 21.6209 114.752 21.4753C114.804 21.3296 114.831 21.1285 114.831 20.8685V18.1086H116.088V20.2964C116.088 20.553 116.105 20.7887 116.144 20.9968C116.182 21.2048 116.254 21.3816 116.362 21.5238C116.469 21.6659 116.618 21.7804 116.805 21.8636C116.992 21.9468 117.241 21.9884 117.553 21.9884C117.729 21.9884 117.889 21.978 118.031 21.9572C118.172 21.9364 118.294 21.8844 118.398 21.8081C118.498 21.7318 118.578 21.6174 118.636 21.4718C118.692 21.3262 118.72 21.1251 118.72 20.865V17.3389H119.976V20.2929C119.976 20.5495 119.994 20.7853 120.032 20.9933C120.07 21.2013 120.139 21.3782 120.24 21.5203C120.34 21.6625 120.478 21.7769 120.652 21.8601C120.825 21.9433 121.043 21.9849 121.313 21.9849C121.725 21.9849 121.933 22.1895 121.933 22.5986C121.933 22.8587 121.884 23.032 121.784 23.1222C121.683 23.2123 121.528 23.2609 121.313 23.2609C120.915 23.2609 120.593 23.1638 120.347 22.9731C120.101 22.7824 119.935 22.5432 119.855 22.2588C119.765 22.4738 119.637 22.6472 119.471 22.7755C119.308 22.9037 119.132 23.0043 118.948 23.0771C118.761 23.1499 118.585 23.1985 118.408 23.2227C118.235 23.247 118.086 23.2574 117.961 23.2574C117.629 23.2574 117.345 23.2262 117.11 23.1638C116.878 23.1014 116.684 23.0216 116.531 22.9245C116.379 22.8275 116.258 22.72 116.171 22.6021C116.085 22.4842 116.019 22.3698 115.97 22.2554C115.783 22.6749 115.496 22.9453 115.112 23.0702C114.727 23.195 114.27 23.2574 113.737 23.2574C113.377 23.2574 113.079 23.2297 112.84 23.1742C112.602 23.1187 112.404 23.0424 112.252 22.9453C112.099 22.8483 111.975 22.7373 111.881 22.616C111.788 22.4911 111.708 22.3698 111.642 22.245C111.556 22.4599 111.445 22.6333 111.303 22.7616C111.161 22.8899 110.985 22.9939 110.766 23.0736C110.548 23.1534 110.278 23.2019 109.953 23.2262C109.627 23.2505 109.243 23.2609 108.796 23.2609H108.28C107.872 23.2609 107.668 23.0563 107.668 22.6472C107.668 22.3906 107.716 22.2138 107.813 22.1236C107.91 22.0335 108.066 21.9849 108.28 21.9849H108.821L108.828 21.9953Z" fill="white"/>
<path d="M121.33 23.2715C120.922 23.2715 120.717 23.0669 120.717 22.6578C120.717 22.4012 120.766 22.2244 120.863 22.1342C120.96 22.0441 121.116 21.9955 121.33 21.9955H123.723V17.3495H124.987V23.2715H121.33ZM123.498 14.7595C123.498 14.5341 123.577 14.3434 123.737 14.1874C123.896 14.0314 124.086 13.9551 124.311 13.9551C124.536 13.9551 124.73 14.0348 124.886 14.1874C125.045 14.3434 125.125 14.5341 125.125 14.7595C125.125 14.9848 125.045 15.1859 124.886 15.3454C124.727 15.5049 124.536 15.5847 124.311 15.5847C124.086 15.5847 123.892 15.5049 123.737 15.3454C123.581 15.1859 123.498 14.9918 123.498 14.7595Z" fill="white"/>
<path d="M132.368 23.2718C132.327 23.8959 132.195 24.4125 131.974 24.8251C131.752 25.2377 131.454 25.5636 131.08 25.8098C130.706 26.0559 130.253 26.2293 129.723 26.3298C129.193 26.4304 128.608 26.4824 127.964 26.4824H127.32V25.2065H127.795C128.272 25.2065 128.712 25.1822 129.11 25.1371C129.512 25.092 129.858 24.9984 130.149 24.8597C130.44 24.7211 130.672 24.5234 130.838 24.2669C131.004 24.0103 131.098 23.6774 131.111 23.2718H129.37C128.951 23.2718 128.567 23.2267 128.213 23.1331C127.86 23.0429 127.556 22.8904 127.292 22.6789C127.029 22.4674 126.825 22.1935 126.676 21.8571C126.527 21.5208 126.455 21.1048 126.455 20.602C126.455 20.179 126.524 19.7629 126.659 19.3642C126.797 18.962 126.995 18.6084 127.258 18.3032C127.521 17.9981 127.84 17.7485 128.213 17.5578C128.587 17.3671 129.017 17.27 129.498 17.27C130.031 17.27 130.478 17.3671 130.845 17.5578C131.208 17.7485 131.51 18.0189 131.742 18.3657C131.974 18.7124 132.143 19.1319 132.244 19.6277C132.344 20.1235 132.396 20.6714 132.396 21.2746V21.9993H133.466C133.878 21.9993 134.086 22.2039 134.086 22.613C134.086 22.873 134.037 23.0464 133.937 23.1365C133.836 23.2267 133.681 23.2752 133.466 23.2752H132.361L132.368 23.2718ZM127.687 20.4703C127.687 20.9973 127.836 21.3821 128.137 21.6283C128.439 21.8745 128.878 21.9958 129.46 21.9958H131.111V20.9799C131.111 20.2206 130.983 19.6173 130.724 19.1631C130.464 18.7124 130.024 18.4835 129.401 18.4835C129.107 18.4835 128.851 18.5425 128.636 18.6604C128.421 18.7783 128.245 18.9343 128.11 19.125C127.975 19.3157 127.867 19.5272 127.795 19.7629C127.722 19.9952 127.687 20.231 127.687 20.4703Z" fill="white"/>
<path d="M133.487 23.2715C133.078 23.2715 132.874 23.0669 132.874 22.6578C132.874 22.4012 132.922 22.2244 133.019 22.1342C133.116 22.0441 133.272 21.9955 133.487 21.9955H135.235C135.128 21.7806 135.034 21.5413 134.948 21.2813C134.865 21.0213 134.823 20.7196 134.823 20.3833C134.823 19.9811 134.889 19.5824 135.02 19.194C135.152 18.8057 135.346 18.459 135.606 18.1573C135.862 17.8557 136.18 17.6095 136.551 17.4188C136.921 17.2281 137.358 17.131 137.853 17.131C138.41 17.131 138.871 17.2351 139.231 17.4431C139.591 17.6511 139.878 17.9112 140.089 18.2302C140.301 18.5491 140.446 18.8959 140.526 19.2772C140.605 19.6586 140.643 20.0366 140.643 20.4076V23.2715H133.49H133.487ZM135.865 14.7595C135.865 14.5341 135.945 14.3434 136.108 14.1874C136.267 14.0314 136.461 13.9551 136.686 13.9551C136.911 13.9551 137.101 14.0348 137.257 14.1874C137.413 14.3434 137.489 14.5341 137.489 14.7595C137.489 14.9848 137.413 15.1859 137.257 15.3454C137.101 15.5049 136.911 15.5847 136.686 15.5847C136.461 15.5847 136.267 15.5049 136.108 15.3454C135.945 15.1859 135.865 14.9918 135.865 14.7595ZM136.025 20.1718C136.025 20.8028 136.208 21.264 136.575 21.5552C136.942 21.8465 137.392 21.9955 137.925 21.9955H139.4V20.4561C139.4 20.2099 139.376 19.9603 139.331 19.7106C139.286 19.461 139.203 19.2356 139.082 19.038C138.961 18.8404 138.791 18.674 138.573 18.5457C138.355 18.4174 138.081 18.3515 137.756 18.3515C137.212 18.3515 136.79 18.5318 136.482 18.8889C136.177 19.246 136.021 19.676 136.021 20.1753L136.025 20.1718ZM137.87 14.7595C137.87 14.5341 137.95 14.3434 138.109 14.1874C138.268 14.0314 138.459 13.9551 138.684 13.9551C138.909 13.9551 139.096 14.0348 139.255 14.1874C139.414 14.3434 139.497 14.5341 139.497 14.7595C139.497 14.9848 139.418 15.1859 139.255 15.3454C139.092 15.5049 138.902 15.5847 138.684 15.5847C138.466 15.5847 138.265 15.5049 138.109 15.3454C137.95 15.1859 137.87 14.9918 137.87 14.7595Z" fill="white"/>
<path d="M101.962 15.5849C101.709 15.3387 101.408 15.2139 101.055 15.2139C100.701 15.2139 100.404 15.3387 100.154 15.5849C99.905 15.8345 99.7838 16.1327 99.7838 16.4863C99.7838 16.84 99.9085 17.1278 100.154 17.3809C100.4 17.634 100.701 17.7588 101.055 17.7588C101.408 17.7588 101.709 17.634 101.962 17.3809C102.214 17.1278 102.339 16.8296 102.339 16.4863C102.339 16.1431 102.214 15.8345 101.962 15.5849ZM101.501 16.9197C101.38 17.0411 101.231 17.1035 101.061 17.1035C100.892 17.1035 100.743 17.0411 100.625 16.9197C100.504 16.7984 100.445 16.6528 100.445 16.4829C100.445 16.313 100.504 16.1639 100.625 16.046C100.746 15.9246 100.892 15.8657 101.061 15.8657C101.231 15.8657 101.38 15.9246 101.501 16.046C101.622 16.1674 101.685 16.313 101.685 16.4829C101.685 16.6528 101.622 16.7949 101.501 16.9197Z" fill="white"/>
</g>
<path d="M49.2553 58.6074C48.1038 58.6074 47.2631 58.375 46.7332 57.9103C46.2447 57.4781 46.0005 56.8224 46.0005 55.9432C46.0005 55.4014 46.0878 54.91 46.2625 54.4689L47.3371 54.2869C47.1121 54.7576 46.9996 55.2697 46.9996 55.8233C46.9996 56.5189 47.1683 57.0177 47.5058 57.3197C47.8699 57.6512 48.4901 57.817 49.3664 57.817H50.0768V54.3979C50.6215 54.2824 51.1973 54.2247 51.8042 54.2247C52.5472 54.2247 53.0845 54.4023 53.416 54.7576C53.718 55.0773 53.869 55.5657 53.869 56.2229V57.817H54.7127V58.6074H52.8921V56.3428C52.8921 55.8603 52.8047 55.5183 52.6301 55.317C52.4525 55.1157 52.152 55.0151 51.7287 55.0151C51.4978 55.0151 51.2683 55.0358 51.0404 55.0773V58.6074H49.2553ZM54.5794 57.817H55.8805V54.3313H56.8796V58.6074H54.5794V57.817ZM55.7428 60.5257C55.5889 60.5257 55.4586 60.4724 55.3521 60.3658C55.2425 60.2563 55.1878 60.1246 55.1878 59.9706C55.1878 59.8167 55.2425 59.6865 55.3521 59.5799C55.4586 59.4703 55.5889 59.4156 55.7428 59.4156C55.8968 59.4156 56.0285 59.4703 56.138 59.5799C56.2446 59.6865 56.2979 59.8167 56.2979 59.9706C56.2979 60.1246 56.2446 60.2563 56.138 60.3658C56.0285 60.4724 55.8968 60.5257 55.7428 60.5257ZM58.4737 60.9342C58.1658 60.9342 57.8743 60.8957 57.5989 60.8188L57.7011 60.015C57.9557 60.1009 58.231 60.1438 58.527 60.1438C58.897 60.1438 59.1694 60.0432 59.344 59.8419C59.5394 59.6169 59.6371 59.2424 59.6371 58.7184V54.3313H60.6362V57.817H61.5909V58.6074H60.6362V58.6518C60.6362 60.1734 59.9154 60.9342 58.4737 60.9342ZM61.4533 57.817H63.0429C62.4746 57.5358 62.1904 57.0385 62.1904 56.325C62.1904 55.7241 62.3798 55.2327 62.7588 54.8508C63.1762 54.4334 63.7534 54.2247 64.4905 54.2247C64.9138 54.2247 65.3016 54.2883 65.6539 54.4156L65.4719 55.2149C65.164 55.0758 64.825 55.0062 64.455 55.0062C64.0761 55.0062 63.7727 55.1217 63.5447 55.3526C63.3079 55.5864 63.1895 55.9017 63.1895 56.2984C63.1895 56.7543 63.3701 57.1154 63.7312 57.3819C64.122 57.672 64.6963 57.817 65.4541 57.817H66.1823V58.6074H61.4533V57.817ZM71.129 58.6074C69.5216 58.6074 68.7178 57.9044 68.7178 56.4982C68.7178 55.8499 68.9117 55.317 69.2995 54.8996C69.7199 54.4497 70.2957 54.2247 71.0269 54.2247C72.362 54.2247 73.0295 54.91 73.0295 56.2806V58.6074H71.129ZM72.0571 56.436C72.0571 55.4887 71.69 55.0151 70.9558 55.0151C70.5739 55.0151 70.2705 55.1439 70.0455 55.4014C69.8265 55.6501 69.7169 55.9816 69.7169 56.3961C69.7169 57.3434 70.2261 57.817 71.2445 57.817H72.0571V56.436ZM74.1796 57.817H76.9993C76.9815 57.0503 76.798 56.4405 76.4487 55.9876C76.0905 55.5257 75.531 55.1868 74.7702 54.9707L75.0233 54.1314C75.9943 54.4127 76.7136 54.8345 77.1813 55.397C77.6727 55.989 77.9362 56.7957 77.9717 57.817H78.6378V58.6074H74.1796V57.817ZM78.5046 57.817H82.1502C82.1887 57.5447 82.2079 57.2679 82.2079 56.9867C82.2079 56.3324 82.0688 55.8558 81.7905 55.5568C81.4915 55.2371 81.0001 55.0773 80.3163 55.0773C79.9285 55.0773 79.5851 55.1024 79.2861 55.1528V54.3712C79.668 54.315 80.041 54.2869 80.4051 54.2869C81.3909 54.2869 82.1088 54.5104 82.5587 54.9574C82.985 55.3837 83.1981 56.0423 83.1981 56.9334C83.1981 57.2501 83.1833 57.5447 83.1537 57.817H83.9353V58.6074H78.5046V57.817ZM83.7976 57.817H85.0987V54.3313H86.0978V57.817H86.9814V58.6074H83.7976V57.817ZM86.151 53.5586C86.003 53.5586 85.8772 53.5068 85.7736 53.4032C85.67 53.2996 85.6182 53.1694 85.6182 53.0125C85.6182 52.8644 85.67 52.7371 85.7736 52.6306C85.8772 52.524 86.003 52.4707 86.151 52.4707C86.302 52.4707 86.4293 52.524 86.5329 52.6306C86.6365 52.7371 86.6883 52.8644 86.6883 53.0125C86.6883 53.1634 86.6365 53.2922 86.5329 53.3988C86.4293 53.5053 86.302 53.5586 86.151 53.5586ZM84.7345 53.5586C84.5865 53.5586 84.4622 53.5068 84.3615 53.4032C84.2579 53.2966 84.2061 53.1664 84.2061 53.0125C84.2061 52.8644 84.2579 52.7371 84.3615 52.6306C84.4652 52.524 84.5895 52.4707 84.7345 52.4707C84.8885 52.4707 85.0158 52.524 85.1164 52.6306C85.22 52.7342 85.2718 52.8615 85.2718 53.0125C85.2718 53.1664 85.22 53.2952 85.1164 53.3988C85.0158 53.5053 84.8885 53.5586 84.7345 53.5586ZM86.8438 58.6074V57.817H87.4699C87.683 57.817 87.8562 57.8348 87.9894 57.8703C87.5897 57.6009 87.3899 57.1258 87.3899 56.4449C87.3899 55.8203 87.5838 55.3037 87.9716 54.8952C88.395 54.4482 88.9707 54.2247 89.699 54.2247C91.0341 54.2247 91.7016 54.91 91.7016 56.2806V58.6074H86.8438ZM90.7247 56.436C90.7247 55.4887 90.3591 55.0151 89.6279 55.0151C89.246 55.0151 88.9426 55.1439 88.7176 55.4014C88.4986 55.6501 88.389 55.9816 88.389 56.3961C88.389 57.3434 88.8982 57.817 89.9165 57.817H90.7247V56.436ZM97.9582 58.6074C96.8066 58.6074 95.9659 58.375 95.436 57.9103C94.9476 57.4781 94.7034 56.8224 94.7034 55.9432C94.7034 55.4014 94.7907 54.91 94.9653 54.4689L96.0399 54.2869C95.8149 54.7576 95.7025 55.2697 95.7025 55.8233C95.7025 56.5189 95.8712 57.0177 96.2087 57.3197C96.5728 57.6512 97.193 57.817 98.0692 57.817H99.4768V54.3313H100.476V58.6074H97.9582ZM98.5399 53.5586C98.3889 53.5586 98.2616 53.5068 98.158 53.4032C98.0544 53.2996 98.0026 53.1694 98.0026 53.0125C98.0026 52.8644 98.0544 52.7371 98.158 52.6306C98.2646 52.524 98.3919 52.4707 98.5399 52.4707C98.6909 52.4707 98.8182 52.524 98.9218 52.6306C99.0254 52.7371 99.0772 52.8644 99.0772 53.0125C99.0772 53.1634 99.0254 53.2922 98.9218 53.3988C98.8182 53.5053 98.6909 53.5586 98.5399 53.5586ZM97.1234 53.5586C96.9754 53.5586 96.851 53.5068 96.7504 53.4032C96.6468 53.2966 96.595 53.1664 96.595 53.0125C96.595 52.8644 96.6468 52.7371 96.7504 52.6306C96.854 52.524 96.9783 52.4707 97.1234 52.4707C97.2744 52.4707 97.4017 52.524 97.5053 52.6306C97.6089 52.7342 97.6607 52.8615 97.6607 53.0125C97.6607 53.1664 97.6089 53.2952 97.5053 53.3988C97.4017 53.5053 97.2744 53.5586 97.1234 53.5586ZM102.039 52.1954H103.038V58.6074H102.039V52.1954ZM104.228 60.9342C103.92 60.9342 103.629 60.8957 103.353 60.8188L103.455 60.015C103.71 60.1009 103.985 60.1438 104.281 60.1438C104.651 60.1438 104.924 60.0432 105.098 59.8419C105.294 59.6169 105.392 59.2424 105.392 58.7184V54.3313H106.391V58.6518C106.391 60.1734 105.67 60.9342 104.228 60.9342ZM107.954 52.1954H108.953V57.817H109.916V58.6074H107.954V52.1954ZM109.783 58.6074V57.817H110.409C110.622 57.817 110.796 57.8348 110.929 57.8703C110.529 57.6009 110.329 57.1258 110.329 56.4449C110.329 55.8203 110.523 55.3037 110.911 54.8952C111.334 54.4482 111.91 54.2247 112.638 54.2247C113.973 54.2247 114.641 54.91 114.641 56.2806V58.6074H109.783ZM113.664 56.436C113.664 55.4887 113.298 55.0151 112.567 55.0151C112.185 55.0151 111.882 55.1439 111.657 55.4014C111.438 55.6501 111.328 55.9816 111.328 56.3961C111.328 57.3434 111.838 57.817 112.856 57.817H113.664V56.436ZM116.168 52.1954H117.168V58.6074H116.168V52.1954ZM120.875 58.6962C120.686 58.6962 120.53 58.6237 120.409 58.4786C120.288 58.3247 120.23 58.1264 120.236 57.8836C120.251 57.2856 120.61 56.6714 121.315 56.0408L121.723 56.405C121.194 56.9733 121.063 57.4218 121.333 57.7504C121.487 57.9369 121.513 58.1412 121.413 58.3632C121.315 58.5852 121.136 58.6962 120.875 58.6962ZM125.738 58.6074C124.586 58.6074 123.745 58.375 123.215 57.9103C122.727 57.4781 122.483 56.8224 122.483 55.9432C122.483 55.4014 122.57 54.91 122.745 54.4689L123.819 54.2869C123.594 54.7576 123.482 55.2697 123.482 55.8233C123.482 56.5189 123.651 57.0177 123.988 57.3197C124.352 57.6512 124.972 57.817 125.849 57.817H126.559V54.3979C127.104 54.2824 127.68 54.2247 128.286 54.2247C129.03 54.2247 129.567 54.4023 129.898 54.7576C130.2 55.0773 130.351 55.5657 130.351 56.2229V57.817H131.195V58.6074H129.374V56.3428C129.374 55.8603 129.287 55.5183 129.112 55.317C128.935 55.1157 128.634 55.0151 128.211 55.0151C127.98 55.0151 127.751 55.0358 127.523 55.0773V58.6074H125.738ZM131.062 57.817H132.363V54.3313H133.362V58.6074H131.062V57.817ZM132.225 60.5257C132.071 60.5257 131.941 60.4724 131.834 60.3658C131.725 60.2563 131.67 60.1246 131.67 59.9706C131.67 59.8167 131.725 59.6865 131.834 59.5799C131.941 59.4703 132.071 59.4156 132.225 59.4156C132.379 59.4156 132.511 59.4703 132.62 59.5799C132.727 59.6865 132.78 59.8167 132.78 59.9706C132.78 60.1246 132.727 60.2563 132.62 60.3658C132.511 60.4724 132.379 60.5257 132.225 60.5257ZM134.552 57.817H137.372C137.354 57.0503 137.17 56.4405 136.821 55.9876C136.463 55.5257 135.903 55.1868 135.143 54.9707L135.396 54.1314C136.408 54.4216 137.148 54.8671 137.616 55.468C138.107 56.1045 138.353 56.9778 138.353 58.0879V58.6074H134.552V57.817Z" fill="#C59714"/>
<rect x="148.903" y="1.56496" width="75.1999" height="74.455" rx="37.2275" fill="#5064BA"/>
<rect x="148.903" y="1.56496" width="75.1999" height="74.455" rx="37.2275" stroke="#C59714" stroke-width="1.45505"/>
<g clip-path="url(#clip1_539_1926)">
<path d="M219.507 42.4993C217.649 41.4578 216.238 45.6611 213.17 43.5663C209.087 40.5311 215.454 36.6812 219.326 39.5515C220.799 40.5292 222.029 41.8416 221.715 45.2665C221.172 47.1218 220.387 48.7846 219.343 50.2404C221.153 44.1455 220.978 41.3626 219.391 39.8047C219.324 39.739 219.244 39.686 219.158 39.6487C215.913 38.2371 211.976 40.6607 213.245 43.3248C215.136 43.8353 216.173 41.7925 217.637 41.5363C217.902 41.4902 218.174 41.5559 218.393 41.711L219.507 42.4983V42.4993Z" fill="white"/>
<path d="M218.522 50.472L217.433 49.6494C217.318 49.563 217.176 49.5159 217.032 49.5277C215.885 49.6239 216.094 52.3832 214.164 52.0612C215.637 51.2445 216.965 50.8725 217.956 51.5115C218.663 52.2556 218.219 53.3678 217.619 54.2895C216.839 55.4861 215.591 56.296 214.165 54.8697C213.941 54.8844 212.178 53.2519 211.339 54.424C210.466 55.6432 212.216 56.9497 212.216 56.9497C212.911 57.5613 213.535 57.8273 214.001 57.3365C214.219 58.697 213.917 60.4669 211.904 59.4165C206.041 55.1111 200.673 64.9912 194.854 60.2892C200.335 66.6079 206.042 57.4955 211.147 59.3724L212.557 60.084C216.122 61.9374 215.133 57.7664 214.588 55.5077L214.422 54.0166L213.385 53.2254C213.363 53.2088 213.331 53.2274 213.336 53.2549C213.609 54.8412 213.656 56.6179 212.359 56.7397C212.021 55.4047 212.733 54.0726 214.456 55.3742L215.539 56.0623C217.041 56.8535 218.109 56.0623 218.77 54.958C219.403 53.8979 219.675 52.5511 218.871 52.0406L217.937 51.2966C216.3 49.9095 214.609 50.2197 212.89 51.4104L213.938 52.3057C217.419 54.4348 216.707 49.8693 218.522 50.471V50.472Z" fill="white"/>
<path d="M205.18 52.2683C209.677 54.2041 215.33 41.549 219.946 47.2777C215.335 43.5957 209.246 57.2039 205.18 52.2683Z" fill="white"/>
<path d="M210.91 52.0365L212.17 51.3965L212.982 52.5067L211.743 53.0829L210.91 52.0365Z" fill="white"/>
<path d="M209.286 54.2559L210.183 55.4093L208.795 56.0915L207.94 55.0677L209.286 54.2559Z" fill="white"/>
<path d="M211.789 57.9717L211.192 56.941C211.162 56.8909 211.101 56.8713 211.047 56.8919C209.841 57.3631 210.114 60.1597 209.971 62.1789C209.857 63.8055 209.287 65.166 207.833 63.9242C206.318 61.4849 205.049 62.8464 203.091 62.0464L203.755 63.0997C203.798 63.1684 203.861 63.2214 203.935 63.2557C205.499 63.9674 206.537 62.8523 207.705 64.1598L208.196 65.163C206.733 64.9245 205.528 65.165 204.223 63.7328C205.118 65.8561 206.468 65.967 206.862 66.6139C205.178 66.9152 204.316 66.4765 203.667 65.8453L202.981 64.9559C202.914 64.8695 202.787 64.8666 202.714 64.9471C202.187 65.5223 202.579 67.1872 202.34 68.4741C202.146 69.5244 201.16 70.1448 199.971 68.4917C200.132 68.2434 200.291 68.0932 200.447 68.0205C200.514 67.9901 200.546 67.9136 200.522 67.8439L200.13 66.7219C200.114 66.6757 200.06 66.6541 200.018 66.6787C199.239 67.1381 198.915 68.2601 198.766 69.6334C198.645 70.7504 197.499 71.5416 196.83 70.5394C193.474 61.6518 186.185 69.6599 181.429 61.639C184.855 70.4501 192.312 64.0695 196.061 69.6L196.894 71.1362C197.795 73.0337 198.862 72.3711 199.193 71.0332C199.409 70.1634 199.457 69.3075 199.912 68.582L200.888 69.8473C201.082 70.0986 201.325 70.3107 201.61 70.4501C202.725 70.9939 203.163 69.868 203.179 68.8127C203.193 67.9538 202.889 66.4784 203.596 66.0033C204.831 67.9587 205.864 68.0412 207.724 67.7722C207.782 67.7634 207.822 67.7054 207.803 67.6495C207.674 67.2608 207.229 66.6482 206.829 66.0671L208.757 66.3037C208.82 66.3115 208.872 66.2566 208.861 66.1947C208.803 65.8561 208.505 65.2867 208.232 64.7409C209.449 66.1849 210.623 65.4104 210.703 63.4609C210.792 61.3416 210.631 58.7697 211.744 58.1277C211.799 58.0963 211.817 58.0257 211.786 57.9707L211.789 57.9717Z" fill="white"/>
<path d="M187.745 67.4902C188.735 72.5456 192.992 70.5696 196.459 72.1471C194.671 69.6645 191.919 70.8071 191.587 67.6453C192.314 69.2572 196.139 69.0284 196.641 72.2168L196.882 73.4114C193.374 72.0263 188.25 73.9248 187.746 67.4893L187.745 67.4902Z" fill="white"/>
<path d="M190.315 69.9885L191.022 68.8312L189.877 67.7593L189.214 68.9441L190.315 69.9885Z" fill="white"/>
<path d="M197.631 65.4731L197.434 66.7856L198.803 67.3638L199.029 66.0229L197.631 65.4731Z" fill="white"/>
<path d="M196.317 64.8243L197.716 65.3318L197.914 63.9997L196.543 63.4834L196.317 64.8243Z" fill="white"/>
<path d="M187.877 74.347C191.692 68.3168 176.008 66.654 178.054 60.0869C173.974 67.2164 189.588 69.2995 187.877 74.347Z" fill="white"/>
<path d="M184.194 69.9888L183.821 70.9508C183.787 71.0392 183.806 71.1393 183.871 71.207C184.473 71.8362 184.962 72.5391 184.869 73.612C183.884 72.7619 182.577 72.2858 182.966 69.8396C182.006 72.0532 182.809 72.3467 182.445 73.612C181.762 72.9916 180.965 72.6461 180.94 70.4531L181.285 69.7424C181.374 69.5589 181.266 69.3331 181.066 69.3027C180.41 69.2006 179.744 69.8583 178.894 70.4482C177.86 71.1668 176.772 71.0244 176.889 69.1662C178.1 61.594 171.356 62.5275 171.825 56.5936C169.289 61.3221 175.307 62.8279 175.167 67.4935C174.723 68.2779 173.853 69.07 172.82 69.8661L171.94 70.4531C171.865 70.5032 171.809 70.5758 171.78 70.6612L171.443 71.6527C171.426 71.7047 171.489 71.745 171.529 71.7077C172.918 70.4325 174.77 70.3982 174.967 72.5734C174.971 72.6166 175.03 72.6265 175.048 72.5872C178.479 65.2672 167.46 64.5889 171.043 56.0557C167.038 64.3258 174.444 66.132 175.065 70.0831C174.812 69.7101 174.512 69.5108 174.136 69.5824C175.334 68.2916 175.763 66.6405 175.567 65.0758C176.438 66.2449 176.668 67.9402 176.398 70.0487C176.212 72.0954 177.277 72.4046 178.289 71.7607C179.179 71.1962 180.092 70.2794 180.737 70.7535C179.902 73.6277 181.33 74.2658 181.937 74.7625C181.998 74.8135 182.092 74.79 182.122 74.7154L182.729 73.2341C183.21 73.9732 183.749 74.4562 184.324 74.786C184.409 74.8341 184.516 74.8008 184.555 74.7124L185.007 73.7013C185.827 71.3935 184.966 70.7359 184.193 69.9918L184.194 69.9888Z" fill="white"/>
<path d="M171.566 66.5245C171.715 67.6043 172.397 68.0509 173.396 68.1226C173.454 68.1265 173.473 68.2011 173.425 68.2335L172.463 68.8784C172.391 68.9265 172.309 68.956 172.222 68.9619C167.97 69.2799 166.57 66.8376 169.387 65.0334C167.407 64.2275 166.293 62.9907 163.688 63.3087C162.891 65.9434 167.402 68.527 170.933 70.4647C171.001 70.502 170.959 70.6051 170.884 70.5845C166.454 69.3604 161.849 66.9122 162.691 63.9458C162.724 63.8309 162.794 63.7298 162.891 63.6591L163.614 63.132C163.755 63.0289 163.908 62.9386 164.068 62.867C167.14 61.4956 169.021 64.1235 170.601 64.1814C170.644 64.1833 170.661 64.2354 170.628 64.2619L169.908 64.8489C169.644 65.0639 169.417 65.323 169.258 65.6234C168.604 66.8534 169.514 67.6259 170.611 67.9312C170.468 67.7496 170.421 67.5297 170.454 67.2804C170.458 67.2529 170.474 67.2283 170.497 67.2126L171.566 66.5245Z" fill="white"/>
<path d="M161.39 59.7103L160.43 60.0578C160.377 60.0764 160.343 60.1275 160.345 60.1824C160.354 60.3886 160.448 60.5348 160.561 60.6674C159.081 59.406 158.584 58.2732 159.585 57.3347C164.225 54.3398 157.669 46.9158 164.16 41.3726C156.217 45.249 162.165 53.7469 159.365 56.8106L158.296 57.8236C156.71 59.7996 159.488 60.956 161.308 62.2919C161.361 62.3312 161.43 62.3391 161.491 62.3145L162.517 61.8895C162.584 61.862 162.591 61.7707 162.53 61.7324C161.785 61.2681 161.462 60.5869 161.443 59.7476C161.443 59.7201 161.416 59.7014 161.39 59.7113V59.7103Z" fill="white"/>
<path d="M161.19 63.6445C169.078 61.5929 160.317 51.864 165.41 47.4546C158.24 50.0912 167.141 60.5063 161.19 63.6445Z" fill="white"/>
<path d="M158.46 56.0101L159.474 55.7529C159.559 55.7314 159.614 55.6489 159.602 55.5615C159.263 53.025 154.603 54.3718 151.055 41.8276C151.753 53.8054 157.893 53.3686 158.278 55.8874C158.291 55.9738 158.374 56.0308 158.46 56.0092V56.0101Z" fill="white"/>
<path d="M158.637 51.7451L157.46 51.8452C157.371 51.8531 157.308 51.7628 157.343 51.6803C158.424 49.1114 148.118 43.63 154.674 40.749C156.241 40.2562 157.969 40.372 159.767 40.749C157.984 40.5791 156.258 40.4545 155.336 40.9826C150.276 43.9432 159.381 48.3811 158.775 51.6165C158.762 51.6862 158.706 51.7392 158.636 51.7451H158.637Z" fill="white"/>
<path d="M157.85 44.8501L157.371 46.3058L156.052 45.6207L156.682 44.1914L157.85 44.8501Z" fill="white"/>
<path d="M156.053 42.1606L157.222 42.7545L156.682 44.1916L155.337 43.6174L156.053 42.1606Z" fill="white"/>
<path d="M207.848 61.9521L209.062 62.1798L209.288 60.8232L208.058 60.6387L207.848 61.9521Z" fill="white"/>
<path d="M199.198 61.0469C198.873 60.3509 198.279 60.1624 197.465 60.3882C197.373 60.4137 197.277 60.3568 197.258 60.2636L197.158 59.8051C197.112 59.5911 197.205 59.3673 197.394 59.2564C198.194 58.7842 199.394 58.4368 200.9 57.2323C203.188 55.4035 204.81 51.6959 205.674 54.0489C206.084 55.1984 205.311 56.0956 204.233 56.927C204.696 56.1074 205.142 55.2494 205.513 54.2246C204.019 53.3205 202.887 58.0363 198.514 59.5715C199.01 59.917 199.152 60.4559 199.198 61.0469Z" fill="white"/>
<path d="M201.863 58.0365C204.028 59.1359 205.879 55.4264 208.792 57.6802C206.081 56.4571 204.289 60.096 201.863 58.0365Z" fill="white"/>
<path d="M166.834 54.1953C165.248 56.0329 168.411 58.7157 165.524 61.0029C167.361 58.6646 164.252 56.0565 166.834 54.1953Z" fill="white"/>
<path d="M209.64 47.0538C211.817 47.7144 212.708 43.731 215.799 45.3772C213.104 44.7009 212.253 48.6038 209.64 47.0538Z" fill="white"/>
<path d="M208.907 50.6664C208.278 50.2237 207.637 50.8725 207.298 51.5479C207.255 51.6333 207.12 51.6146 207.056 51.543L206.742 51.1955C206.594 51.0325 206.514 50.8284 206.621 50.5673C206.975 49.7093 208.73 47.2572 209.201 44.81C209.889 41.232 208.533 36.3475 210.352 37.2466C211.281 38.0398 211.375 38.346 211.305 39.8008C211.097 38.8398 210.855 38.1733 210.63 37.8356C208.605 38.0074 211.735 45.0682 207.61 50.1167C208.221 49.7839 208.571 50.1766 208.906 50.6664H208.907Z" fill="white"/>
<path d="M184.42 64.1932C184.554 63.4364 184.175 62.9416 183.379 62.6589C183.288 62.6265 183.243 62.5264 183.281 62.4381L183.462 62.0062C183.548 61.8039 183.751 61.6744 183.97 61.692C184.897 61.7647 187.407 61.9689 189.332 61.8471C192.256 61.6616 195.696 59.3361 195.052 61.7588C194.727 62.9348 193.579 63.2273 192.218 63.2901C193.068 62.8837 193.926 62.4371 194.818 61.8098C194.115 60.2127 192.803 63.4138 184.706 62.5932C184.914 63.1596 184.72 63.6828 184.419 64.1932H184.42Z" fill="white"/>
<path d="M199.909 69.4673C199.909 69.966 199.923 70.4362 199.997 70.767C200.007 70.8102 200.031 70.8484 200.067 70.8749C200.338 71.086 200.584 70.8445 200.82 70.3733L200.895 71.1311C200.902 71.2028 200.89 71.2764 200.862 71.3422C200.491 72.205 199.975 71.8605 199.91 71.0987C199.852 70.5912 199.863 70.0396 199.909 69.4663V69.4673Z" fill="white"/>
<path d="M166.788 52.7386C166.289 52.7494 165.819 52.772 165.489 52.8525C165.446 52.8633 165.409 52.8888 165.382 52.9242C165.177 53.199 165.424 53.4415 165.899 53.6673L165.143 53.7566C165.071 53.7654 164.997 53.7546 164.93 53.7281C164.06 53.3747 164.394 52.8535 165.154 52.774C165.661 52.7063 166.214 52.7063 166.787 52.7396L166.788 52.7386Z" fill="white"/>
<path d="M203.955 67.145C203.956 67.6437 203.97 68.1139 204.044 68.4447C204.054 68.4879 204.078 68.5262 204.114 68.5527C204.385 68.7637 204.631 68.5222 204.867 68.0511L204.942 68.8089C204.949 68.8805 204.937 68.9542 204.908 69.0199C204.538 69.8828 204.022 69.5382 203.957 68.7765C203.899 68.269 203.91 67.7173 203.955 67.144V67.145Z" fill="white"/>
<path d="M211.25 60.4727C211.474 60.9566 212.038 61.9755 212.424 62.1866C212.786 62.323 212.999 62.1129 213.044 61.632C213.047 61.5888 213.102 61.5701 213.13 61.6025L213.494 62.003C213.538 62.0521 213.549 62.1228 213.521 62.1826C212.818 63.7287 211.358 61.3797 211.25 60.4727Z" fill="white"/>
<path d="M215.224 56.4385C215.432 56.892 215.64 57.3141 215.845 57.584C215.871 57.6194 215.91 57.6429 215.953 57.6537C216.287 57.7332 216.412 57.4103 216.429 56.8851L216.812 57.5428C216.849 57.6056 216.868 57.6763 216.87 57.7489C216.893 58.6874 216.28 58.5882 215.905 57.9227C215.641 57.4849 215.421 56.9784 215.224 56.4395V56.4385Z" fill="white"/>
<path d="M200.34 63.5532C200.342 64.2129 200.36 64.8342 200.457 65.2711C200.47 65.328 200.503 65.3781 200.548 65.4144C200.907 65.6932 201.254 65.5783 201.564 64.956L201.643 65.753C201.652 65.8483 201.637 65.9445 201.599 66.0318C201.11 67.1725 200.428 66.717 200.343 65.7108C200.266 65.0394 200.281 64.311 200.34 63.5532Z" fill="white"/>
<path d="M217.99 50.954L219.27 51.4252C219.657 51.2799 219.547 50.9393 219.193 50.5024L220.012 50.7822C220.485 51.2112 220.225 51.8973 219.476 51.6293L217.989 50.953L217.99 50.954Z" fill="white"/>
<path d="M210.525 44.1444L211.806 44.6156C212.193 44.4703 212.083 44.1297 211.729 43.6929L212.547 43.9726C213.021 44.4016 212.761 45.0878 212.012 44.8198L210.524 44.1434L210.525 44.1444Z" fill="white"/>
<path d="M216.86 48.4076L218.14 48.8788C218.527 48.7335 218.417 48.3929 218.063 47.9561L218.882 48.2358C219.355 48.6648 219.095 49.3509 218.346 49.083L216.859 48.4066L216.86 48.4076Z" fill="white"/>
<path d="M218.96 43.6377L219.837 43.9557C220.574 44.7617 219.938 45.3388 218.77 45.0817C218.123 44.9393 217.269 44.7469 216.392 44.2522C218.524 45.2053 219.902 44.8274 218.96 43.6377Z" fill="white"/>
<path d="M192.822 64.5152L192.877 65.2072C192.883 65.2847 192.926 65.3564 192.994 65.3957C194.462 66.2526 196.199 66.127 196.94 68.8049C196.62 65.0776 193.946 65.4664 192.842 64.5044C192.833 64.4965 192.821 64.5034 192.822 64.5142V64.5152Z" fill="white"/>
<path d="M189.558 73.7623C189.726 73.2538 190.197 72.9083 190.733 72.8965C191.521 72.8779 192.125 72.9328 192.414 73.1144C192.528 73.1861 192.574 73.3284 192.53 73.4541L192.297 74.1157C192.267 74.2011 192.199 74.2669 192.113 74.2943L191.826 74.3876C191.65 74.4455 191.468 74.4858 191.282 74.5083C190.546 74.5967 189.579 74.5918 188.768 74.4504C188.744 74.4465 188.743 74.4121 188.767 74.4053L191.412 73.7221C190.72 73.6141 190.089 73.6062 189.559 73.7603L189.558 73.7623Z" fill="white"/>
<path d="M177.575 72.9954C177.821 72.6577 178.252 72.5124 178.653 72.6302C179.243 72.803 179.679 72.9866 179.85 73.1898C179.918 73.2693 179.918 73.3861 179.855 73.4695L179.525 73.9054C179.482 73.9613 179.416 73.9947 179.346 73.9947L179.111 73.9967C178.965 73.9976 178.821 73.9849 178.678 73.9574C178.11 73.8494 177.392 73.6168 176.824 73.3193C176.807 73.3105 176.815 73.285 176.833 73.286L178.96 73.4038C178.471 73.1603 178.005 73.0052 177.574 72.9944L177.575 72.9954Z" fill="white"/>
<path d="M165.618 64.5682C165.998 64.3955 166.445 64.4838 166.736 64.7842C167.163 65.2259 167.45 65.6009 167.5 65.862C167.518 65.9651 167.462 66.0662 167.366 66.1084L166.863 66.3244C166.798 66.3519 166.724 66.3479 166.663 66.3136L166.458 66.1987C166.331 66.128 166.212 66.0456 166.101 65.9514C165.661 65.5764 165.153 65.0198 164.807 64.4809C164.797 64.4652 164.815 64.4465 164.832 64.4563L166.621 65.6097C166.318 65.1562 165.989 64.7911 165.62 64.5692L165.618 64.5682Z" fill="white"/>
<path d="M187.344 73.8426L187.106 74.5729C186.384 75.154 185.776 74.5749 185.933 73.5903C186.02 73.0455 186.14 72.327 186.549 71.6064C185.795 73.3724 186.268 74.5759 187.344 73.8426Z" fill="white"/>
<path d="M168.194 61.4936L167.514 61.8518C166.591 61.7684 166.558 60.9291 167.356 60.3313C167.798 60.0005 168.384 59.5676 169.18 59.334C167.408 60.079 166.91 61.2727 168.194 61.4936Z" fill="white"/>
<path d="M158.446 47.79L157.703 47.9913C156.821 47.7076 156.973 46.881 157.884 46.4727C158.388 46.2469 159.055 45.9524 159.882 45.9004C157.99 46.2381 157.242 47.2933 158.446 47.79Z" fill="white"/>
<path d="M161.203 58.6693L160.523 59.0276C159.599 58.9442 159.567 58.1049 160.365 57.5071C160.807 57.1763 161.392 56.7434 162.188 56.5098C160.417 57.2548 159.919 58.4485 161.203 58.6693Z" fill="white"/>
<path d="M179.256 68.6605L179.018 69.3908C178.296 69.9719 177.688 69.3927 177.845 68.4082C177.932 67.8634 178.052 67.1448 178.461 66.4243C177.707 68.1903 178.18 69.3937 179.256 68.6605Z" fill="white"/>
<path d="M156.158 55.5127C156.554 55.9024 156.91 56.3383 156.779 57.3385L154.653 54.3034C154.631 54.271 154.579 54.2945 154.589 54.3328C154.924 55.603 155.489 56.6386 156.236 57.4887C156.278 57.5368 156.33 57.5761 156.388 57.6046C156.66 57.7371 157.018 57.7646 157.396 57.7685C157.465 57.7685 157.53 57.7273 157.556 57.6615C158.019 56.4443 157.296 55.4587 156.179 55.4577C156.152 55.4577 156.138 55.4921 156.158 55.5117V55.5127Z" fill="white"/>
<path d="M152.203 38.7562C152.389 39.2794 152.518 39.8272 151.962 40.6704L151.379 37.0119C151.373 36.9726 151.316 36.9716 151.308 37.0109C151.054 38.2998 151.109 39.4777 151.408 40.5693C151.425 40.6311 151.454 40.689 151.495 40.7401C151.68 40.9776 151.992 41.1592 152.329 41.3271C152.392 41.3585 152.468 41.3487 152.519 41.3006C153.469 40.4093 153.25 39.2058 152.246 38.717C152.222 38.7052 152.194 38.7297 152.203 38.7562Z" fill="white"/>
<path d="M178.121 61.0696C179.86 61.7459 181.318 62.0787 181.007 63.0623C181.453 61.6527 181.894 61.7125 178.415 60.3589C178.415 60.3589 178.112 61.0657 178.122 61.0696H178.121Z" fill="white"/>
<path d="M177.391 60.5306L176.998 60.7436C176.893 60.8005 176.766 60.7995 176.661 60.7396L173.775 59.0905L175.894 61.1421C175.936 61.1823 175.888 61.2501 175.836 61.2246C174.698 60.6778 173.672 60.0731 172.933 59.3143C172.712 59.173 172.728 58.8451 172.96 58.7253L173.18 58.6115C173.608 58.3906 174.119 58.4053 174.533 58.6498L177.394 60.3391C177.468 60.3823 177.466 60.4893 177.39 60.5296L177.391 60.5306Z" fill="white"/>
<path d="M158.546 43.9431L157.937 43.7929C157.782 43.7546 157.661 43.6339 157.62 43.4797C157.481 42.9664 157.561 42.7062 158.967 42.9663C159.992 42.7789 159.566 41.3732 161.102 41.1592L162.795 41.1965C159.714 41.3486 161.2 43.6574 158.977 43.2186C158.225 42.9968 158.207 43.5092 158.546 43.9431Z" fill="white"/>
<path d="M163.377 43.0962L164.074 43.1698C164.109 43.1738 164.14 43.1964 164.153 43.2287C164.359 43.7156 165.867 47.3859 164.537 47.1533C163.923 47.1641 163.38 46.9943 163.043 46.7704C162.706 46.5466 163.903 47.0983 164.128 46.9275C164.558 46.6016 163.516 44.1328 163.271 43.2179C163.253 43.1512 163.308 43.0884 163.377 43.0952V43.0962Z" fill="white"/>
<path d="M164.98 48.7828L165.633 48.7583C165.668 48.7622 165.707 48.7819 165.712 48.8172C165.845 49.5338 167.268 51.8966 168.643 53.423C170.03 54.9612 171.52 55.9585 170.454 56.4631C168.496 56.7585 168.185 55.9595 167.848 55.7347C167.511 55.5099 169.523 56.4876 169.776 56.3629C170.69 55.9114 168.868 55.0093 167.678 53.3827C166.335 51.5461 164.966 49.8214 164.874 48.9046C164.867 48.8358 164.912 48.775 164.98 48.7819V48.7828Z" fill="white"/>
<path d="M153.904 35.8134C155.762 36.8549 157.173 32.6515 160.24 34.7463C164.323 37.7815 157.957 41.6314 154.085 38.7612C152.611 37.7835 151.382 36.471 151.695 33.0462C152.238 31.1909 153.023 29.528 154.067 28.0723C152.257 34.1672 152.432 36.9501 154.02 38.5079C154.087 38.5737 154.166 38.6267 154.253 38.664C157.497 40.0756 161.435 37.6519 160.165 34.9878C158.274 34.4774 157.237 36.5201 155.773 36.7763C155.508 36.8225 155.236 36.7567 155.017 36.6016L153.904 35.8143V35.8134Z" fill="white"/>
<path d="M154.888 27.8416L155.977 28.6642C156.092 28.7506 156.234 28.7977 156.379 28.7859C157.525 28.6897 157.316 25.9304 159.247 26.2523C157.773 27.069 156.445 27.4411 155.454 26.802C154.748 26.058 155.191 24.9458 155.791 24.024C156.571 22.8274 157.819 22.0176 159.246 23.4439C159.47 23.4292 161.232 25.0616 162.071 23.8896C162.944 22.6704 161.194 21.3638 161.194 21.3638C160.499 20.7523 159.875 20.4863 159.41 20.9771C159.192 19.6165 159.493 17.8467 161.506 18.897C167.369 23.2024 172.737 13.3224 178.557 18.0244C173.075 11.7056 167.368 20.8181 162.263 18.9412L160.853 18.2295C157.288 16.3762 158.277 20.5471 158.822 22.8058L158.988 24.2969L160.025 25.0881C160.047 25.1048 160.079 25.0862 160.074 25.0587C159.802 23.4724 159.755 21.6956 161.051 21.5739C161.389 22.9089 160.677 24.241 158.954 22.9393L157.871 22.2512C156.369 21.46 155.301 22.2512 154.641 23.3556C154.007 24.4157 153.735 25.7625 154.539 26.2729L155.473 27.017C157.111 28.404 158.802 28.0939 160.52 26.9031L159.473 26.0079C155.992 23.8788 156.703 28.4443 154.888 27.8426V27.8416Z" fill="white"/>
<path d="M168.231 26.0452C163.733 24.1094 158.08 36.7645 153.465 31.0358C158.075 34.7179 164.164 21.1096 168.231 26.0452Z" fill="white"/>
<path d="M162.501 26.2769L161.24 26.9169L160.429 25.8067L161.668 25.2305L162.501 26.2769Z" fill="white"/>
<path d="M164.124 24.0563L163.227 22.9039L164.615 22.2207L165.47 23.2455L164.124 24.0563Z" fill="white"/>
<path d="M161.621 20.341L162.219 21.3717C162.248 21.4217 162.309 21.4414 162.363 21.4208C163.57 20.9496 163.296 18.1529 163.439 16.1337C163.553 14.5072 164.123 13.1467 165.577 14.3884C167.092 16.8277 168.361 15.4662 170.319 16.2663L169.655 15.213C169.612 15.1443 169.549 15.0912 169.475 15.0569C167.911 14.3452 166.873 15.4603 165.706 14.1528L165.214 13.1496C166.677 13.3881 167.882 13.1476 169.188 14.5798C168.293 12.4566 166.943 12.3456 166.549 11.6988C168.233 11.3974 169.094 11.8362 169.744 12.4674L170.429 13.3567C170.496 13.4431 170.623 13.446 170.697 13.3656C171.223 12.7903 170.831 11.1255 171.07 9.83858C171.265 8.78824 172.25 8.16785 173.439 9.82091C173.278 10.0693 173.12 10.2194 172.963 10.2921C172.897 10.3225 172.864 10.3991 172.889 10.4688L173.281 11.5908C173.296 11.6369 173.35 11.6585 173.393 11.634C174.171 11.1746 174.495 10.0526 174.644 8.67928C174.765 7.56219 175.911 6.771 176.58 7.77324C179.936 16.6609 187.225 8.65278 191.982 16.6736C188.556 7.86257 181.098 14.2431 177.349 8.71266L176.516 7.17641C175.615 5.27894 174.548 5.94153 174.217 7.27948C174.001 8.1492 173.954 9.00518 173.498 9.7306L172.522 8.46529C172.329 8.21399 172.085 8.00196 171.8 7.86257C170.685 7.31875 170.248 8.44467 170.231 9.49992C170.217 10.3588 170.521 11.8342 169.814 12.3093C168.579 10.3539 167.546 10.2715 165.686 10.5404C165.628 10.5493 165.589 10.6072 165.607 10.6631C165.736 11.0519 166.181 11.6644 166.581 12.2455L164.653 12.0089C164.59 12.0011 164.538 12.0561 164.549 12.1179C164.607 12.4566 164.905 13.0259 165.178 13.5717C163.962 12.1277 162.788 12.9022 162.707 14.8517C162.619 16.9711 162.78 19.5429 161.667 20.1849C161.611 20.2163 161.593 20.287 161.624 20.342L161.621 20.341Z" fill="white"/>
<path d="M185.665 10.822C184.675 5.76667 180.419 7.74268 176.951 6.16521C178.739 8.64774 181.491 7.50513 181.824 10.6669C181.096 9.05511 177.272 9.28383 176.77 6.09552L176.528 4.90088C180.036 6.28595 185.16 4.38749 185.664 10.823L185.665 10.822Z" fill="white"/>
<path d="M183.095 8.3252L182.389 9.48253L183.533 10.5545L184.196 9.36964L183.095 8.3252Z" fill="white"/>
<path d="M175.779 12.8403L175.977 11.5279L174.607 10.9497L174.381 12.2896L175.779 12.8403Z" fill="white"/>
<path d="M177.093 13.4894L175.695 12.9819L175.496 14.314L176.867 14.8303L177.093 13.4894Z" fill="white"/>
<path d="M185.533 3.96631C181.718 9.99642 197.402 11.6593 195.357 18.2264C199.436 11.0968 183.822 9.01382 185.533 3.96631Z" fill="white"/>
<path d="M189.217 8.32509L189.59 7.3631C189.625 7.27475 189.605 7.17462 189.54 7.10689C188.938 6.47767 188.45 5.77483 188.542 4.70191C189.527 5.552 190.834 6.02809 190.445 8.47429C191.405 6.26073 190.602 5.96723 190.967 4.70191C191.65 5.3223 192.446 5.66783 192.471 7.86078L192.126 8.57148C192.038 8.75504 192.145 8.98081 192.345 9.01124C193.001 9.11333 193.668 8.45564 194.517 7.86569C195.551 7.14714 196.64 7.28947 196.522 9.14769C195.311 16.7199 202.055 15.7864 201.587 21.7203C204.122 16.9918 198.105 15.486 198.244 10.8204C198.688 10.0361 199.559 9.24389 200.591 8.44779L201.472 7.86078C201.546 7.81072 201.602 7.73808 201.631 7.65268L201.968 6.66124C201.986 6.60921 201.923 6.56896 201.882 6.60626C200.493 7.88139 198.641 7.91575 198.445 5.74047C198.441 5.69728 198.382 5.68746 198.363 5.72673C194.932 13.0467 205.951 13.725 202.369 22.2583C206.373 13.9881 198.967 12.1819 198.346 8.23085C198.599 8.60387 198.899 8.80314 199.275 8.73148C198.077 10.0223 197.648 11.6734 197.844 13.2381C196.973 12.069 196.743 10.3737 197.013 8.26521C197.199 6.21852 196.135 5.90931 195.122 6.55326C194.233 7.11769 193.319 8.03453 192.674 7.5604C193.509 4.68621 192.081 4.04815 191.475 3.55145C191.413 3.50041 191.319 3.52397 191.289 3.59857L190.682 5.07984C190.201 4.34068 189.662 3.85772 189.087 3.52789C189.003 3.47979 188.896 3.51317 188.856 3.60151L188.404 4.61259C187.584 6.92038 188.446 7.57807 189.218 8.32214L189.217 8.32509Z" fill="white"/>
<path d="M201.844 11.7893C201.695 10.7095 201.013 10.2628 200.015 10.1912C199.957 10.1872 199.937 10.1126 199.985 10.0802L200.947 9.43532C201.019 9.38722 201.101 9.35777 201.188 9.35188C205.44 9.03384 206.84 11.4761 204.023 13.2803C206.003 14.0863 207.117 15.3231 209.722 15.0051C210.52 12.3704 206.008 9.78674 202.477 7.84902C202.409 7.81172 202.451 7.70865 202.526 7.72926C206.956 8.95335 211.561 11.4015 210.719 14.368C210.687 14.4828 210.616 14.5839 210.52 14.6546L209.796 15.1817C209.655 15.2848 209.503 15.3751 209.343 15.4468C206.27 16.8181 204.389 14.1903 202.809 14.1324C202.767 14.1304 202.749 14.0784 202.782 14.0519L203.503 13.4649C203.766 13.2499 203.993 12.9908 204.152 12.6904C204.806 11.4604 203.896 10.6879 202.799 10.3826C202.942 10.5642 202.99 10.7841 202.956 11.0334C202.952 11.0609 202.937 11.0854 202.913 11.1011L201.844 11.7893Z" fill="white"/>
<path d="M212.02 18.6036L212.981 18.2561C213.033 18.2375 213.067 18.1864 213.065 18.1314C213.056 17.9253 212.962 17.779 212.849 17.6465C214.33 18.9079 214.826 20.0407 213.826 20.9791C209.185 23.9741 215.742 31.3981 209.25 36.9413C217.194 33.0649 211.246 24.567 214.046 21.5033L215.115 20.4903C216.7 18.5143 213.922 17.3579 212.102 16.0219C212.049 15.9827 211.98 15.9748 211.92 15.9993L210.893 16.4244C210.826 16.4519 210.819 16.5432 210.88 16.5815C211.625 17.0458 211.948 17.727 211.967 18.5663C211.967 18.5938 211.994 18.6124 212.02 18.6026V18.6036Z" fill="white"/>
<path d="M212.22 14.6689C204.333 16.7205 213.094 26.4494 208 30.8589C215.171 28.2222 206.269 17.8072 212.22 14.6689Z" fill="white"/>
<path d="M214.951 22.3034L213.937 22.5606C213.851 22.5822 213.796 22.6647 213.808 22.752C214.147 25.2885 218.807 23.9417 222.355 36.4859C221.657 24.5081 215.518 24.945 215.132 22.4261C215.12 22.3397 215.036 22.2828 214.951 22.3044V22.3034Z" fill="white"/>
<path d="M214.774 26.5684L215.95 26.4683C216.039 26.4604 216.102 26.5507 216.068 26.6332C214.986 29.2021 225.292 34.6835 218.736 37.5645C217.169 38.0573 215.441 37.9415 213.643 37.5645C215.426 37.7343 217.152 37.859 218.074 37.3309C223.134 34.3703 214.029 29.9324 214.635 26.697C214.648 26.6273 214.704 26.5743 214.775 26.5684H214.774Z" fill="white"/>
<path d="M215.56 33.4631L216.039 32.0073L217.358 32.6925L216.728 34.1217L215.56 33.4631Z" fill="white"/>
<path d="M217.358 36.1531L216.19 35.5592L216.728 34.1221L218.073 34.6963L217.358 36.1531Z" fill="white"/>
<path d="M165.562 16.3615L164.349 16.1338L164.123 17.4904L165.352 17.6749L165.562 16.3615Z" fill="white"/>
<path d="M174.212 17.2666C174.537 17.9626 175.132 18.151 175.945 17.9253C176.038 17.8997 176.133 17.9567 176.153 18.0499L176.252 18.5084C176.298 18.7223 176.206 18.9462 176.016 19.0571C175.216 19.5292 174.017 19.8767 172.51 21.0812C170.222 22.91 168.6 26.6175 167.736 24.2646C167.327 23.1151 168.099 22.2179 169.177 21.3865C168.714 22.2061 168.268 23.0641 167.898 24.0889C169.391 24.993 170.523 20.2772 174.896 18.742C174.401 18.3965 174.258 17.8575 174.212 17.2666Z" fill="white"/>
<path d="M171.548 20.277C169.382 19.1776 167.531 22.8872 164.618 20.6333C167.33 21.8565 169.121 18.2176 171.548 20.277Z" fill="white"/>
<path d="M206.577 24.1171C208.164 22.2795 205 19.5968 207.887 17.3096C206.05 19.6478 209.159 22.256 206.577 24.1171Z" fill="white"/>
<path d="M163.77 31.2587C161.593 30.598 160.702 34.5814 157.611 32.9353C160.306 33.6116 161.158 29.7087 163.77 31.2587Z" fill="white"/>
<path d="M164.503 27.6473C165.132 28.09 165.773 27.4411 166.112 26.7658C166.156 26.6804 166.29 26.699 166.354 26.7707L166.668 27.1182C166.816 27.2811 166.896 27.4853 166.789 27.7464C166.436 28.6043 164.68 31.0564 164.209 33.5036C163.521 37.0816 164.877 41.9662 163.058 41.067C162.129 40.2739 162.035 39.9676 162.105 38.5128C162.313 39.4739 162.556 40.1404 162.781 40.4781C164.806 40.3063 161.675 33.2455 165.8 28.197C165.189 28.5297 164.839 28.1371 164.504 27.6473H164.503Z" fill="white"/>
<path d="M188.991 14.1206C188.857 14.8774 189.237 15.3722 190.032 15.6549C190.123 15.6873 190.168 15.7874 190.131 15.8757L189.949 16.3077C189.863 16.5099 189.66 16.6395 189.441 16.6218C188.514 16.5491 186.004 16.345 184.079 16.4667C181.155 16.6522 177.716 18.9777 178.359 16.555C178.684 15.379 179.832 15.0865 181.193 15.0237C180.343 15.4301 179.485 15.8767 178.593 16.504C179.297 18.1011 180.608 14.9 188.705 15.7207C188.498 15.1543 188.691 14.631 188.992 14.1206H188.991Z" fill="white"/>
<path d="M173.503 8.84616C173.502 8.34749 173.488 7.87729 173.414 7.54649C173.404 7.5033 173.38 7.46501 173.345 7.43851C173.073 7.22746 172.827 7.46894 172.591 7.94012L172.516 7.18231C172.509 7.11065 172.521 7.03702 172.55 6.97126C172.92 6.10841 173.436 6.45296 173.501 7.2147C173.559 7.7222 173.548 8.27387 173.503 8.84714V8.84616Z" fill="white"/>
<path d="M206.623 25.5742C207.122 25.5634 207.593 25.5408 207.922 25.4603C207.965 25.4495 208.002 25.424 208.029 25.3887C208.234 25.1138 207.988 24.8714 207.512 24.6456L208.269 24.5563C208.34 24.5474 208.414 24.5582 208.481 24.5847C209.351 24.9381 209.017 25.4593 208.257 25.5389C207.75 25.6066 207.198 25.6066 206.624 25.5732L206.623 25.5742Z" fill="white"/>
<path d="M169.455 11.1684C169.454 10.6698 169.44 10.1996 169.366 9.86875C169.357 9.82556 169.332 9.78728 169.297 9.76077C169.025 9.54973 168.779 9.7912 168.543 10.2624L168.468 9.50457C168.461 9.43291 168.473 9.35929 168.502 9.29352C168.872 8.43067 169.388 8.77522 169.453 9.53696C169.511 10.0445 169.5 10.5961 169.455 11.1694V11.1684Z" fill="white"/>
<path d="M162.16 17.8406C161.937 17.3567 161.372 16.3378 160.987 16.1267C160.624 15.9903 160.411 16.2003 160.367 16.6813C160.363 16.7245 160.309 16.7432 160.28 16.7108L159.917 16.3103C159.872 16.2612 159.862 16.1905 159.889 16.1306C160.593 14.5846 162.053 16.9336 162.16 17.8406Z" fill="white"/>
<path d="M158.186 21.8751C157.978 21.4216 157.77 20.9995 157.566 20.7296C157.539 20.6942 157.501 20.6707 157.457 20.6599C157.123 20.5804 156.999 20.9033 156.981 21.4285L156.598 20.7708C156.561 20.708 156.542 20.6373 156.54 20.5647C156.517 19.6262 157.13 19.7254 157.506 20.3909C157.769 20.8287 157.989 21.3352 158.186 21.8742V21.8751Z" fill="white"/>
<path d="M173.07 14.7606C173.068 14.1009 173.051 13.4796 172.954 13.0427C172.941 12.9858 172.907 12.9357 172.862 12.8994C172.504 12.6206 172.157 12.7355 171.846 13.3578L171.768 12.5608C171.758 12.4655 171.774 12.3693 171.811 12.282C172.3 11.1413 172.982 11.5968 173.067 12.603C173.144 13.2744 173.129 14.0028 173.07 14.7606Z" fill="white"/>
<path d="M155.421 27.3597L154.14 26.8886C153.753 27.0338 153.863 27.3745 154.217 27.8113L153.399 27.5315C152.925 27.1025 153.185 26.4164 153.934 26.6844L155.422 27.3607L155.421 27.3597Z" fill="white"/>
<path d="M162.886 34.1693L161.606 33.6981C161.218 33.8434 161.329 34.184 161.682 34.6209L160.864 34.3411C160.39 33.9121 160.651 33.226 161.399 33.4939L162.887 34.1703L162.886 34.1693Z" fill="white"/>
<path d="M156.551 29.9061L155.27 29.4349C154.883 29.5802 154.993 29.9208 155.347 30.3577L154.529 30.0779C154.055 29.6489 154.315 28.9628 155.064 29.2308L156.552 29.9071L156.551 29.9061Z" fill="white"/>
<path d="M154.45 34.6758L153.574 34.3577C152.837 33.5518 153.472 32.9746 154.641 33.2318C155.287 33.3741 156.141 33.5665 157.018 34.0613C154.886 33.1081 153.508 33.486 154.45 34.6758Z" fill="white"/>
<path d="M180.589 13.7975L180.533 13.1055C180.528 13.0279 180.484 12.9563 180.417 12.917C178.948 12.06 177.212 12.1857 176.47 9.50781C176.79 13.235 179.465 12.8463 180.568 13.8083C180.577 13.8162 180.589 13.8093 180.589 13.7985V13.7975Z" fill="white"/>
<path d="M183.852 4.55142C183.684 5.0599 183.213 5.40543 182.677 5.41721C181.889 5.43586 181.285 5.38089 180.996 5.19929C180.882 5.12763 180.836 4.9853 180.88 4.85965L181.113 4.19804C181.144 4.11263 181.211 4.04687 181.297 4.01938L181.584 3.92613C181.761 3.86821 181.942 3.82796 182.128 3.80539C182.864 3.71704 183.832 3.72195 184.642 3.8633C184.666 3.86723 184.667 3.90159 184.643 3.90846L181.998 4.59167C182.69 4.69965 183.321 4.7075 183.851 4.55338L183.852 4.55142Z" fill="white"/>
<path d="M195.835 5.3182C195.589 5.65588 195.158 5.80116 194.757 5.68337C194.168 5.5106 193.731 5.32704 193.561 5.12384C193.493 5.04433 193.492 4.92752 193.556 4.84408L193.886 4.40824C193.928 4.35229 193.994 4.31891 194.065 4.31891L194.299 4.31695C194.445 4.31597 194.589 4.32873 194.733 4.35621C195.301 4.46419 196.018 4.69684 196.587 4.99427C196.603 5.0031 196.595 5.02862 196.577 5.02764L194.451 4.90985C194.939 5.15329 195.406 5.30839 195.836 5.31919L195.835 5.3182Z" fill="white"/>
<path d="M207.792 13.7454C207.412 13.9182 206.965 13.8299 206.674 13.5295C206.248 13.0877 205.96 12.7128 205.911 12.4517C205.892 12.3486 205.948 12.2475 206.044 12.2053L206.547 11.9893C206.612 11.9618 206.686 11.9658 206.747 12.0001L206.952 12.115C207.079 12.1856 207.199 12.2681 207.309 12.3623C207.749 12.7373 208.257 13.2939 208.604 13.8328C208.613 13.8485 208.595 13.8672 208.578 13.8573L206.789 12.7039C207.093 13.1574 207.422 13.5226 207.79 13.7445L207.792 13.7454Z" fill="white"/>
<path d="M186.066 4.47003L186.305 3.7397C187.026 3.15858 187.634 3.73773 187.477 4.7223C187.39 5.2671 187.271 5.98565 186.861 6.70617C187.615 4.94022 187.142 3.73675 186.066 4.47003Z" fill="white"/>
<path d="M205.216 16.8197L205.896 16.4614C206.819 16.5449 206.852 17.3842 206.054 17.982C205.612 18.3128 205.026 18.7457 204.231 18.9793C206.002 18.2342 206.5 17.0406 205.216 16.8197Z" fill="white"/>
<path d="M214.964 30.5235L215.707 30.3223C216.589 30.606 216.437 31.4325 215.526 31.8408C215.022 32.0666 214.355 32.3611 213.528 32.4131C215.42 32.0754 216.168 31.0202 214.964 30.5235Z" fill="white"/>
<path d="M212.207 19.6439L212.887 19.2856C213.811 19.3691 213.843 20.2084 213.046 20.8062C212.603 21.137 212.018 21.5699 211.222 21.8035C212.993 21.0585 213.492 19.8648 212.207 19.6439Z" fill="white"/>
<path d="M194.154 9.65313L194.393 8.9228C195.114 8.34168 195.722 8.92084 195.565 9.90541C195.478 10.4502 195.358 11.1688 194.949 11.8893C195.703 10.1233 195.23 8.91986 194.154 9.65313Z" fill="white"/>
<path d="M217.253 22.8007C216.857 22.411 216.5 21.9751 216.631 20.9749L218.757 24.0101C218.779 24.0424 218.831 24.0189 218.822 23.9806C218.487 22.7104 217.921 21.6748 217.174 20.8247C217.132 20.7766 217.08 20.7373 217.022 20.7089C216.751 20.5763 216.392 20.5488 216.015 20.5449C215.945 20.5449 215.88 20.5861 215.855 20.6519C215.391 21.8691 216.114 22.8547 217.231 22.8557C217.259 22.8557 217.272 22.8213 217.253 22.8017V22.8007Z" fill="white"/>
<path d="M221.207 39.5572C221.022 39.034 220.892 38.4863 221.448 37.6431L222.032 41.3016C222.037 41.3409 222.094 41.3418 222.102 41.3026C222.357 40.0137 222.302 38.8358 222.002 37.7442C221.985 37.6823 221.956 37.6244 221.916 37.5734C221.73 37.3358 221.418 37.1542 221.081 36.9864C221.019 36.955 220.942 36.9648 220.891 37.0129C219.941 37.9042 220.16 39.1077 221.164 39.5965C221.189 39.6083 221.216 39.5838 221.207 39.5572Z" fill="white"/>
<path d="M195.289 17.2437C193.55 16.5673 192.093 16.2346 192.403 15.251C191.957 16.6606 191.516 16.6007 194.995 17.9544C194.995 17.9544 195.299 17.2476 195.288 17.2437H195.289Z" fill="white"/>
<path d="M196.019 17.7816L196.412 17.5686C196.517 17.5117 196.645 17.5127 196.749 17.5726L199.635 19.2217L197.516 17.1701C197.474 17.1298 197.522 17.0621 197.574 17.0876C198.712 17.6344 199.739 18.2391 200.477 18.9979C200.698 19.1392 200.683 19.4671 200.45 19.5868L200.23 19.7007C199.802 19.9216 199.292 19.9069 198.877 19.6624L196.016 17.9731C195.942 17.9299 195.944 17.8229 196.02 17.7826L196.019 17.7816Z" fill="white"/>
<path d="M214.864 34.3701L215.473 34.5203C215.629 34.5586 215.749 34.6793 215.791 34.8334C215.929 35.3468 215.85 35.607 214.444 35.3468C213.418 35.5343 213.844 36.94 212.309 37.154L210.615 37.1167C213.696 36.9645 212.21 34.6558 214.433 35.0946C215.185 35.3164 215.203 34.804 214.864 34.3701Z" fill="white"/>
<path d="M210.033 35.2175L209.337 35.1439C209.301 35.14 209.271 35.1174 209.257 35.085C209.052 34.5981 207.544 30.9279 208.873 31.1605C209.487 31.1497 210.03 31.3195 210.367 31.5433C210.704 31.7671 209.508 31.2155 209.283 31.3863C208.852 31.7122 209.895 34.181 210.139 35.0958C210.157 35.1626 210.102 35.2254 210.033 35.2185V35.2175Z" fill="white"/>
<path d="M208.43 29.5311L207.777 29.5556C207.742 29.5517 207.704 29.5321 207.698 29.4967C207.565 28.7801 206.142 26.4174 204.767 24.891C203.381 23.3528 201.89 22.3554 202.956 21.8509C204.914 21.5554 205.225 22.3544 205.562 22.5792C205.899 22.803 203.888 21.8263 203.634 21.951C202.72 22.4025 204.542 23.3047 205.732 24.9312C207.075 26.7678 208.444 28.4925 208.536 29.4094C208.543 29.4781 208.499 29.5389 208.43 29.5321V29.5311Z" fill="white"/>
</g>
<rect x="165.818" y="18.116" width="41.1051" height="41.1051" rx="20.5525" fill="white"/>
<rect x="165.818" y="18.116" width="41.1051" height="41.1051" rx="20.5525" stroke="#C59714" stroke-width="1.09129"/>
<g clip-path="url(#clip2_539_1926)">
<path d="M202.49 44.1951C202.562 42.7541 199.29 44.3408 200.011 41.3619L200.273 40.3452C201.381 41.0553 202.494 41.763 202.089 43.4794C201.992 44.9236 201.178 45.5824 200.281 45.6825C198.991 45.8266 198.649 45.1533 198.589 43.6955C198.288 42.3033 195.756 43.0022 196.232 40.0009L196.443 39.0347C197.171 39.9017 198.37 40.6918 197.939 43.0759C197.681 44.8619 196.745 45.8914 195.29 46.3397C194.917 46.455 194.524 46.4942 194.133 46.4718C193.237 46.419 192.36 46.3077 191.507 46.1172C195.125 45.6913 197.25 44.7811 197.811 43.0775C197.932 42.1064 197.391 41.1858 196.412 40.2995C196.841 41.9335 198.909 41.3171 198.851 43.3569C199.121 45.4495 201.68 44.6065 201.965 43.4762C201.94 42.7396 201.175 42.0704 200.139 41.4259C200.412 42.4146 201.401 42.2225 202.247 42.4618C202.555 42.5491 202.745 42.8557 202.685 43.1679L202.489 44.1951H202.49Z" fill="#5064BA"/>
<path d="M193.09 37.1245C193.204 39.0346 196.099 38.9025 195.126 42.3385C195.432 39.9721 192.177 39.8432 193.09 37.1245Z" fill="#5064BA"/>
<path d="M193.234 39.6662C193.458 41.8494 195.804 40.9487 195.281 43.8075L195.001 44.8723L193.62 44.0413L193.391 45.5103C192.582 44.9499 191.489 44.7137 191.747 42.9421C191.241 42.8509 190.744 43.8507 190.237 44.9715C189.778 45.9858 188.656 46.7968 188.946 44.8899C188.462 45.7216 185.752 47.9888 186.251 43.2543C186.381 46.7664 189.329 44.5456 189.764 42.0455C190.104 36.97 180.931 37.3334 182.956 30.5415C181.96 36.492 191.019 36.0373 189.866 42.1263L189.129 44.7882C190.236 45.7617 190.726 41.6044 191.962 41.8422C191.676 43.7283 192.948 43.9644 193.376 44.3183C193.116 43.5201 192.449 43.4697 192.962 41.4571C192.999 42.9861 194.509 43.2007 195.125 43.7475C195.125 42.3377 192.271 42.1223 193.233 39.6654L193.234 39.6662Z" fill="#5064BA"/>
<path d="M192.341 34.0026C191.82 38.9028 182.477 36.4611 181.735 41.9585C181.455 44.0936 182.66 44.2369 184.081 42.8623C185.184 41.7952 186.824 41.0411 187.958 41.5046C186.355 41.9473 185.698 42.9112 184.296 44.0816C182.7 45.4145 180.368 45.5522 179.97 43.2586V42.5661C179.97 42.2635 179.627 42.085 179.378 42.2579C178.232 43.0529 175.817 45.9525 170.08 45.7539C170.802 46.0005 172.726 46.0646 174.629 46.1318C178.075 45.6947 179.037 42.8135 179.788 43.3787C179.649 46.8291 182.631 46.6954 184.73 44.7332C186.053 43.4956 187.579 42.1915 188.704 42.6982L188.903 41.8208C189.19 39.8258 186.435 39.8987 185.029 41.1435C182.76 43.1521 181.808 42.9208 181.907 41.9089C184.706 37.264 192.598 39.9019 192.341 34.001L192.341 34.0026Z" fill="#5064BA"/>
<path d="M180.07 39.6959L179.969 40.3683C180.256 40.4252 180.494 40.5829 180.645 40.9263C180.181 40.7222 179.712 40.5461 179.658 40.1066C179.945 39.2227 180.401 39.0442 180.522 38.0339C180.769 36.3487 179.167 35.8596 179.312 34.437C178.7 36.2319 180.205 36.5545 180.415 38.0411C180.162 38.9938 179.616 39.3644 179.57 40.0897C179.326 41.377 179.907 41.1 180.591 41.666L180.771 40.9591C180.961 40.0665 180.524 39.8736 180.071 39.6967L180.07 39.6959Z" fill="#5064BA"/>
<path d="M200.972 39.2527L200.449 40.2326L199.557 39.5425L200.089 38.5586L200.972 39.2527Z" fill="#5064BA"/>
<path d="M200.878 37.684L200.124 37.062L199.592 38.0419L200.347 38.6559L200.878 37.684Z" fill="#5064BA"/>
<path d="M198.366 39.8234L198.263 40.0619L198.195 40.7264C198.771 40.162 199.147 39.5352 199.206 38.8091C199.592 36.124 196.718 35.51 196.506 33.6455C197.157 32.5575 198.414 33.6543 198.066 35.1537C198.232 34.7054 198.32 34.2379 198.289 33.7391C198.144 32.4743 196.626 31.9355 196.395 33.603C196.015 35.8054 199.305 36.7796 199.102 38.7746C198.974 39.1957 198.78 39.5528 198.473 39.8057C198.937 37.6755 195.933 35.6765 195.134 35.2378L195.003 35.9711C195.349 36.172 195.682 36.3906 195.821 36.8717L195.924 36.461C197.004 37.4321 198.198 38.3383 198.366 39.8242V39.8234Z" fill="#5064BA"/>
<path d="M200.265 34.204C200.992 33.5732 201.621 32.9784 202.043 32.4604C201.485 30.1917 193.542 33.3739 185.577 32.089C185.702 32.4148 185.66 32.7767 185.577 33.1465C185.435 32.5709 185.047 32.2131 184.605 31.9032L184.736 31.234C192.658 33.0304 202.959 29.1045 202.105 32.3299L201.865 33.1921C201.534 33.5788 200.93 33.899 200.264 34.204H200.265Z" fill="#5064BA"/>
<path d="M188.577 34.8518C189.113 33.8174 190.784 33.4396 191.051 34.2978C190.7 34.7605 189.556 35.3825 188.478 35.9917C189.052 35.8669 189.649 35.6835 190.265 35.4546C190.757 35.1872 191.055 34.8141 191.231 34.2041C191.419 32.3164 188.85 33.145 188.577 34.8518H188.577Z" fill="#5064BA"/>
<path d="M193.355 34.9497L192.821 35.992L193.755 36.6605L194.263 35.6174L193.355 34.9497Z" fill="#5064BA"/>
<path d="M187.168 36.5786C187.915 34.1921 184.24 34.2794 183.972 31.8057C183.301 34.4043 187.113 34.7413 187.168 36.5786Z" fill="#5064BA"/>
<path d="M177.954 34.6986C177.014 34.5954 176.825 35.1037 175.468 35.1037L173.634 34.6986C176.724 34.7771 176.832 34.1655 177.866 34.1919C177.217 33.2192 174.414 35.4079 174.633 33.7324L174.734 33.3129C174.749 33.2512 174.779 33.1936 174.824 33.148C175.369 32.594 176.3 32.927 175.795 34.5425C176.117 33.3665 175.274 33.2352 174.729 33.7156C175.184 34.5417 178.154 32.3546 178.01 34.2231L177.954 34.6986Z" fill="#5064BA"/>
<path d="M202.65 38.5114C202.2 39.2383 201.797 39.4073 201.44 39.0462C201.806 38.1456 202.228 38.1264 202.274 37.2898C202.478 35.8688 200.859 36.1074 200.857 34.3926C200.418 36.5293 201.713 36.2499 202.148 37.341C201.899 38.12 201.537 38.0199 201.305 39.0454C201.063 40.0837 202.03 40.1206 202.587 39.1791L202.65 38.5106V38.5114Z" fill="#5064BA"/>
<path d="M182.163 37.0982L182.107 37.7611C181.832 38.3046 181.319 38.3271 181.223 37.3608C181.167 36.557 181.357 35.8541 181.631 35.1841C181.422 37.3544 181.643 37.9644 182.163 37.0982Z" fill="#5064BA"/>
<path d="M177.945 45.9762C178.35 45.5751 178.796 45.4366 179.328 45.8505C178.726 46.0058 177.799 46.1916 176.783 46.3861C178.098 46.5975 179.136 46.6415 179.486 46.2708L179.76 45.5463C179.417 44.6369 178.003 44.8138 177.944 45.977L177.945 45.9762Z" fill="#5064BA"/>
<path d="M171.683 41.0096L171.588 41.67C172.602 40.8639 173.208 39.9641 173.288 38.9409C173.553 36.3896 171.358 35.8468 171.24 33.9455C171.53 32.9816 173.706 32.8447 173.066 35.4881C173.232 34.9398 173.355 34.4314 173.383 34.0095C173.416 32.342 171.466 32.1554 171.176 33.7253C170.736 36.3648 173.325 37.1589 173.188 38.9377C173.066 39.5101 172.781 39.9721 172.343 40.3315C172.773 38.0996 171.608 36.8243 169.792 35.9373L169.636 36.7594C170.275 36.9596 170.731 37.3094 170.779 37.9923L170.877 37.2894C171.786 37.9298 172.355 38.7952 172.295 40.0777C172.138 40.3843 171.943 40.6942 171.683 41.0096Z" fill="#5064BA"/>
<path d="M170.908 33.5637C171.178 32.6671 171.067 32.0378 170.706 31.5847C177.152 32.8424 182.043 30.5416 182.279 32.1099C181.97 32.7912 180.144 33.1794 178.297 33.5637C179.274 33.5893 180.192 33.5741 181.004 33.486C181.892 33.2779 182.387 32.8192 182.423 32.0707C182.577 29.8963 179.802 31.2261 175.536 31.3045C171.414 31.3806 170.277 30.4727 169.788 31.1332L169.686 31.8113C170.477 32.0322 171.057 32.4533 170.909 33.5637H170.908Z" fill="#5064BA"/>
<path d="M192.05 40.4214C191.749 40.6567 191.456 40.8473 191.292 40.3069L191.941 39.1557C192.443 38.219 191.601 38.2727 191.766 37.1255L191.456 37.9621C191.383 38.5032 191.804 38.6129 191.79 39.2582L191.159 40.3437C190.735 41.3052 191.51 41.5157 191.814 41.0314L192.051 40.4222L192.05 40.4214Z" fill="#5064BA"/>
<path d="M185.703 45.6251L185.486 46.2872C184.93 46.4553 184.521 46.4425 184.666 45.7436L185.184 44.5596C184.748 45.5683 184.861 45.987 185.703 45.6251Z" fill="#5064BA"/>
<path d="M190.58 45.6735C190.752 45.804 190.95 45.7087 191.162 45.4854L191.092 46.133C190.897 46.6285 190.246 46.5885 190.454 45.6038C190.608 44.925 190.926 44.3125 191.357 43.7441C191.045 44.4422 190.775 45.0955 190.579 45.6735H190.58Z" fill="#5064BA"/>
<path d="M198.699 45.6808L198.445 46.3068C197.704 46.5166 197.008 46.6711 197.475 45.4286L197.833 44.6465C197.236 46.0018 197.845 45.981 198.699 45.6808Z" fill="#5064BA"/>
<path d="M202.739 45.5766C201.979 45.924 201.505 45.9496 202.066 44.8032L201.647 45.6638C201.312 46.5717 201.826 46.4684 202.477 46.2026L202.739 45.5766Z" fill="#5064BA"/>
<path d="M177.651 39.9816C177.245 39.6254 176.098 39.5854 175.891 38.8064C177.214 36.4048 177.365 38.2709 177.365 38.2717C178.253 35.1367 175.799 35.7219 175.627 39.5365C175.571 40.7934 177.747 40.807 177.969 41.2825C178.013 41.654 177.252 42.774 175.55 42.6923C175.018 42.6667 174.6 42.3793 174.297 41.9854C173.837 41.3866 173.694 40.5989 173.888 39.8712C174.125 38.9761 174.714 38.5975 175.246 36.6505C175.246 36.6505 173.914 39.3036 173.755 39.7919C173.57 40.3563 172.945 44.1525 175.841 43.8683C178.299 43.6266 178.442 40.6773 177.651 39.9816Z" fill="#5064BA"/>
<path d="M190.865 37.8348C190.655 37.6323 190.323 37.5994 190.078 37.7571C190.02 37.794 189.971 37.8388 189.928 37.8908C189.913 37.9093 189.899 37.9293 189.884 37.9485C189.891 37.9197 189.665 38.2295 189.694 38.2111C189.688 38.2191 189.681 38.2279 189.676 38.2359C189.594 38.3552 189.546 38.4913 189.553 38.6362C189.564 38.9268 189.782 39.1789 190.07 39.2326C190.223 39.2606 190.385 39.231 190.518 39.1509C190.586 39.1101 190.644 39.0565 190.693 38.9948C190.705 38.9796 190.716 38.9644 190.728 38.9492C190.754 38.9252 190.926 38.6922 190.919 38.6866C190.935 38.6634 190.95 38.6402 190.964 38.6169C190.965 38.6153 190.966 38.6145 190.966 38.6137C190.966 38.6129 190.968 38.6121 190.968 38.6113C191.113 38.3608 191.076 38.0381 190.864 37.8348H190.865ZM190.625 38.8859C190.509 38.9252 190.383 38.93 190.265 38.8995C190.016 38.8363 189.826 38.6234 189.793 38.3696C189.78 38.2799 189.789 38.1878 189.816 38.1022C189.856 38.0734 189.899 38.0478 189.945 38.0285C190.179 37.9325 190.456 37.9869 190.636 38.1654C190.807 38.3343 190.858 38.5825 190.789 38.8035C190.739 38.8387 190.684 38.8667 190.626 38.8859H190.625Z" fill="#5064BA"/>
<path d="M173.313 43.8557L172.789 44.8356L171.898 44.1455L172.429 43.1616L173.313 43.8557Z" fill="#5064BA"/>
<path d="M173.218 42.288L172.464 41.666L171.932 42.6459L172.687 43.2591L173.218 42.288Z" fill="#5064BA"/>
</g>
<defs>
<clipPath id="clip0_539_1926">
<rect width="140.621" height="16.6287" fill="white" transform="translate(0.0220947 12.291)"/>
</clipPath>
<clipPath id="clip1_539_1926">
<rect width="71.2973" height="71.2973" fill="white" transform="translate(151.056 3.5083)"/>
</clipPath>
<clipPath id="clip2_539_1926">
<rect width="33.1023" height="16.0055" fill="white" transform="translate(169.637 30.5415)"/>
</clipPath>
</defs>
</svg>
