<svg width="262" height="37" viewBox="0 0 262 37" fill="none" xmlns="http://www.w3.org/2000/svg">
<g clip-path="url(#clip0_41_579)">
<path d="M21.0952 19.1722H21.2701C27.589 19.1722 29.3432 24.3386 33.7329 24.3386C37.0649 24.3386 39.7861 21.7082 39.7861 18.3852C39.7861 15.0623 37.0649 12.3414 33.7329 12.3414C29.255 12.3414 27.6741 17.8609 21.2701 17.5079H21.0952C14.7764 17.596 13.0197 12.3414 8.63326 12.3414C5.29889 12.3414 2.57764 15.056 2.57764 18.3852C2.57764 21.7145 5.29889 24.3386 8.63326 24.3386C13.0197 24.3386 14.7764 19.1722 21.0952 19.1722Z" fill="#90CAF9"/>
<path d="M25.9205 20.3089C28.905 21.8835 30.6608 24.3386 33.7335 24.3386C37.0655 24.3386 39.7868 21.7082 39.7868 18.3852C39.7868 15.0623 37.0655 12.3414 33.7335 12.3414C29.2556 12.3414 27.6747 17.8609 21.2708 17.5079H21.0959C19.1643 17.5079 17.5834 17.0708 16.2681 16.3712C19.6024 18.1203 22.8501 18.5606 25.9213 20.3097L25.9205 20.3089Z" fill="#1976D2"/>
<path d="M16.5298 5.77805H16.7055C22.0597 5.77805 23.55 10.2417 27.3233 10.2417C30.1352 10.2417 32.5026 7.96744 32.5026 5.0784C32.5026 2.18937 30.1352 -0.000808586 27.3233 -0.000808586C23.4657 -0.000808586 22.1472 4.72779 16.7055 4.37558H16.5298C11.088 4.46284 9.68528 -0.000808586 5.91194 -0.000808586C3.01574 -0.000808586 0.73584 2.27345 0.73584 5.0784C0.73584 7.88335 3.01574 10.2417 5.91194 10.2417C9.5978 10.2417 11.1787 5.77805 16.5298 5.77805Z" fill="#42A5F5"/>
<path d="M20.654 6.74027C23.2003 8.05232 24.6937 10.2417 27.3235 10.2417C30.1354 10.2417 32.5028 7.96744 32.5028 5.0784C32.5028 2.18937 30.1354 -0.000808586 27.3235 -0.000808586C23.4659 -0.000808586 22.1474 4.72779 16.7057 4.37558H16.53C14.864 4.37558 13.5495 3.9385 12.4067 3.41336C15.2155 4.90309 18.0242 5.25292 20.654 6.74027Z" fill="#0D47A1"/>
<path d="M16.5298 32.303H16.7055C22.0597 32.303 23.55 36.7666 27.3233 36.7666C30.1352 36.7666 32.5026 34.4892 32.5026 31.6001C32.5026 28.7111 30.1352 26.4368 27.3233 26.4368C23.4657 26.4368 22.1472 31.1654 16.7055 30.9005H16.5298C11.088 30.9005 9.68528 26.4368 5.91194 26.4368C3.01574 26.4368 0.73584 28.8015 0.73584 31.6001C0.73584 34.3987 3.01574 36.7666 5.91194 36.7666C9.5978 36.7666 11.1787 32.303 16.5298 32.303Z" fill="#4FC3F7"/>
<path d="M20.654 33.2652C23.2003 34.5804 24.6929 36.7666 27.3235 36.7666C30.1354 36.7666 32.5028 34.4892 32.5028 31.6001C32.5028 28.7111 30.1354 26.4368 27.3235 26.4368C23.4659 26.4368 22.1474 31.1654 16.7057 30.9005H16.53C14.864 30.9005 13.5495 30.4634 12.4067 29.851C15.2155 31.4256 18.0242 31.7746 20.654 33.2652Z" fill="#00ACC1"/>
</g>
<path d="M52.0017 26.8833V10.6925H69.1287V13.3359H55.6363V17.1358H65.9346V19.8618H55.6363V24.2399H69.2388L70.3402 26.5804C70.3402 26.6538 70.0924 26.7273 69.5968 26.8007C69.1012 26.8558 68.2476 26.8833 67.036 26.8833H52.0017ZM71.7067 20.8255V17.6314H80.518V20.8255H71.7067ZM81.357 26.8833L89.4249 10.6925H94.8493L102.89 26.8833H98.6492L97.0246 23.3863H87.167L85.3772 26.8833H81.357ZM88.1582 20.6878H96.0058L92.2335 13.1707H91.9581L88.1582 20.6878ZM103.997 26.8833V12.8953L103.722 10.6925H120.904V13.3359H107.632V17.356H117.93V20.0821H107.632V26.8833H103.997ZM127.034 26.8833C125.731 26.8833 124.712 26.6997 123.978 26.3326C123.244 25.9655 122.73 25.4147 122.436 24.6805C122.142 23.9462 121.995 23.0375 121.995 21.9545V15.8141C121.995 14.0518 122.39 12.7576 123.179 11.9316C123.969 11.0872 125.254 10.6649 127.034 10.6649H135.323C136.589 10.6649 137.553 10.7384 138.214 10.8852C138.893 11.0137 139.233 11.1514 139.233 11.2983L138.682 13.5837C138.37 13.5286 137.443 13.4736 135.901 13.4185C134.377 13.3451 132.156 13.3083 129.237 13.3083H127.833C126.364 13.3083 125.63 13.96 125.63 15.2634V22.2849C125.63 22.909 125.786 23.3955 126.098 23.7443C126.429 24.0747 127.007 24.2399 127.833 24.2399H128.962C130.724 24.2399 132.211 24.2307 133.423 24.2124C134.634 24.1757 135.635 24.1481 136.424 24.1298V20.3849L134.772 20.4125L131.165 20.6878V17.9894H140.031V25.7268L140.306 26.3051C140.306 26.4519 139.921 26.5896 139.15 26.7181C138.379 26.8282 137.076 26.8833 135.24 26.8833H127.034ZM142.782 26.8833V10.6925H146.417V17.4111H157.211V10.6925H160.846V26.8833H157.211V20.0545H146.417V26.8833H142.782ZM161.683 26.8833L169.751 10.6925H175.175L183.216 26.8833H178.975L177.351 23.3863H167.493L165.703 26.8833H161.683ZM168.484 20.6878H176.332L172.559 13.1707H172.284L168.484 20.6878ZM184.323 26.8833V12.8953L184.048 10.6925H188.013L197.375 20.4951L198.449 21.982H198.752V10.6925H202.387V26.8833H198.89L189.307 16.9155L188.233 15.6213H187.958V26.8833H184.323ZM208.504 26.8833C207.256 26.8833 206.338 26.8282 205.751 26.7181C205.163 26.6079 204.869 26.4794 204.869 26.3326L205.971 23.937C206.393 24.0104 207.439 24.0839 209.11 24.1573C210.799 24.2124 213.112 24.2399 216.049 24.2399H216.572C217.361 24.2399 217.921 24.1022 218.252 23.8269C218.582 23.5332 218.747 23.0467 218.747 22.3675V21.8168C218.747 21.1743 218.61 20.7154 218.334 20.44C218.077 20.1647 217.49 20.027 216.572 20.027H210.184C208.33 20.027 206.98 19.6874 206.136 19.0082C205.292 18.3106 204.869 17.1817 204.869 15.6213V15.1808C204.869 14.373 205.016 13.6296 205.31 12.9504C205.622 12.2712 206.145 11.7296 206.88 11.3258C207.614 10.9036 208.623 10.6925 209.908 10.6925H217.398C218.646 10.6925 219.656 10.7567 220.427 10.8852C221.198 11.0137 221.583 11.1514 221.583 11.2983L221.033 13.6112C220.555 13.5562 219.472 13.5011 217.784 13.446C216.095 13.3726 213.828 13.3359 210.982 13.3359L210.679 13.3083C209.835 13.3083 209.266 13.4827 208.972 13.8315C208.679 14.1619 208.522 14.5842 208.504 15.0981V15.5662C208.504 16.172 208.669 16.6309 209 16.943C209.349 17.2367 209.918 17.3836 210.707 17.3836H216.82C217.995 17.3836 218.995 17.5029 219.821 17.7415C220.647 17.9802 221.281 18.4208 221.721 19.0632C222.162 19.6874 222.382 20.6144 222.382 21.8443V22.2849C222.382 23.6617 222.024 24.7723 221.308 25.6167C220.611 26.4611 219.39 26.8833 217.646 26.8833H208.504Z" fill="url(#paint0_linear_41_579)"/>
<path d="M52.0017 26.8833V10.6925H69.1287V13.3359H55.6363V17.1358H65.9346V19.8618H55.6363V24.2399H69.2388L70.3402 26.5804C70.3402 26.6538 70.0924 26.7273 69.5968 26.8007C69.1012 26.8558 68.2476 26.8833 67.036 26.8833H52.0017ZM71.7067 20.8255V17.6314H80.518V20.8255H71.7067ZM81.357 26.8833L89.4249 10.6925H94.8493L102.89 26.8833H98.6492L97.0246 23.3863H87.167L85.3772 26.8833H81.357ZM88.1582 20.6878H96.0058L92.2335 13.1707H91.9581L88.1582 20.6878ZM103.997 26.8833V12.8953L103.722 10.6925H120.904V13.3359H107.632V17.356H117.93V20.0821H107.632V26.8833H103.997ZM127.034 26.8833C125.731 26.8833 124.712 26.6997 123.978 26.3326C123.244 25.9655 122.73 25.4147 122.436 24.6805C122.142 23.9462 121.995 23.0375 121.995 21.9545V15.8141C121.995 14.0518 122.39 12.7576 123.179 11.9316C123.969 11.0872 125.254 10.6649 127.034 10.6649H135.323C136.589 10.6649 137.553 10.7384 138.214 10.8852C138.893 11.0137 139.233 11.1514 139.233 11.2983L138.682 13.5837C138.37 13.5286 137.443 13.4736 135.901 13.4185C134.377 13.3451 132.156 13.3083 129.237 13.3083H127.833C126.364 13.3083 125.63 13.96 125.63 15.2634V22.2849C125.63 22.909 125.786 23.3955 126.098 23.7443C126.429 24.0747 127.007 24.2399 127.833 24.2399H128.962C130.724 24.2399 132.211 24.2307 133.423 24.2124C134.634 24.1757 135.635 24.1481 136.424 24.1298V20.3849L134.772 20.4125L131.165 20.6878V17.9894H140.031V25.7268L140.306 26.3051C140.306 26.4519 139.921 26.5896 139.15 26.7181C138.379 26.8282 137.076 26.8833 135.24 26.8833H127.034ZM142.782 26.8833V10.6925H146.417V17.4111H157.211V10.6925H160.846V26.8833H157.211V20.0545H146.417V26.8833H142.782ZM161.683 26.8833L169.751 10.6925H175.175L183.216 26.8833H178.975L177.351 23.3863H167.493L165.703 26.8833H161.683ZM168.484 20.6878H176.332L172.559 13.1707H172.284L168.484 20.6878ZM184.323 26.8833V12.8953L184.048 10.6925H188.013L197.375 20.4951L198.449 21.982H198.752V10.6925H202.387V26.8833H198.89L189.307 16.9155L188.233 15.6213H187.958V26.8833H184.323ZM208.504 26.8833C207.256 26.8833 206.338 26.8282 205.751 26.7181C205.163 26.6079 204.869 26.4794 204.869 26.3326L205.971 23.937C206.393 24.0104 207.439 24.0839 209.11 24.1573C210.799 24.2124 213.112 24.2399 216.049 24.2399H216.572C217.361 24.2399 217.921 24.1022 218.252 23.8269C218.582 23.5332 218.747 23.0467 218.747 22.3675V21.8168C218.747 21.1743 218.61 20.7154 218.334 20.44C218.077 20.1647 217.49 20.027 216.572 20.027H210.184C208.33 20.027 206.98 19.6874 206.136 19.0082C205.292 18.3106 204.869 17.1817 204.869 15.6213V15.1808C204.869 14.373 205.016 13.6296 205.31 12.9504C205.622 12.2712 206.145 11.7296 206.88 11.3258C207.614 10.9036 208.623 10.6925 209.908 10.6925H217.398C218.646 10.6925 219.656 10.7567 220.427 10.8852C221.198 11.0137 221.583 11.1514 221.583 11.2983L221.033 13.6112C220.555 13.5562 219.472 13.5011 217.784 13.446C216.095 13.3726 213.828 13.3359 210.982 13.3359L210.679 13.3083C209.835 13.3083 209.266 13.4827 208.972 13.8315C208.679 14.1619 208.522 14.5842 208.504 15.0981V15.5662C208.504 16.172 208.669 16.6309 209 16.943C209.349 17.2367 209.918 17.3836 210.707 17.3836H216.82C217.995 17.3836 218.995 17.5029 219.821 17.7415C220.647 17.9802 221.281 18.4208 221.721 19.0632C222.162 19.6874 222.382 20.6144 222.382 21.8443V22.2849C222.382 23.6617 222.024 24.7723 221.308 25.6167C220.611 26.4611 219.39 26.8833 217.646 26.8833H208.504Z" fill="white"/>
<defs>
<linearGradient id="paint0_linear_41_579" x1="49.7988" y1="18.3833" x2="261.92" y2="18.3833" gradientUnits="userSpaceOnUse">
<stop stop-color="#6BD3FF"/>
<stop offset="1" stop-color="#6BFFDB"/>
</linearGradient>
<clipPath id="clip0_41_579">
<rect width="39.0502" height="36.7666" fill="white" transform="matrix(1 0 0 -1 0.73584 36.7666)"/>
</clipPath>
</defs>
</svg>
