<svg width="164" height="48" viewBox="0 0 164 48" fill="none" xmlns="http://www.w3.org/2000/svg">
<rect x="0.5" y="0.5" width="162.525" height="47" rx="23.5" fill="white"/>
<rect x="0.5" y="0.5" width="162.525" height="47" rx="23.5" stroke="black"/>
<path d="M58.479 12.5704C58.479 13.4889 58.2491 14.2926 57.6744 14.8667C56.9846 15.5556 56.18 15.9 55.1455 15.9C54.1109 15.9 53.3063 15.5556 52.6166 14.8667C51.9269 14.1778 51.582 13.3741 51.582 12.3408C51.582 11.3074 51.9269 10.5038 52.6166 9.81483C53.3063 9.12596 54.1109 8.78149 55.1455 8.78149C55.6053 8.78149 56.0651 8.89629 56.5248 9.12596C56.9846 9.35556 57.3295 9.58523 57.5594 9.92963L56.9846 10.5037C56.5248 9.92963 55.9501 9.70003 55.1455 9.70003C54.4557 9.70003 53.7661 9.92963 53.3063 10.5037C52.7315 10.963 52.5016 11.6519 52.5016 12.4556C52.5016 13.2593 52.7315 13.9482 53.3063 14.4074C53.881 14.8667 54.4557 15.2111 55.1455 15.2111C55.9501 15.2111 56.5248 14.9815 57.0996 14.4074C57.4444 14.063 57.6744 13.6037 57.6744 13.0296H55.1455V12.226H58.479C58.479 12.226 58.479 12.3408 58.479 12.5704Z" fill="black" stroke="black" stroke-width="0.162712" stroke-miterlimit="10"/>
<path d="M63.7684 9.70003H60.6647V11.8815H63.5384V12.6852H60.6647V14.8667H63.7684V15.6704H59.7451V8.78149H63.7684V9.70003Z" fill="black" stroke="black" stroke-width="0.162712" stroke-miterlimit="10"/>
<path d="M67.5615 15.6704H66.6417V9.58523H64.6875V8.78149H69.5152V9.58523H67.5615V15.6704Z" fill="black" stroke="black" stroke-width="0.162712" stroke-miterlimit="10"/>
<path d="M72.8486 15.6704V8.78149H73.7677V15.6704H72.8486Z" fill="black" stroke="black" stroke-width="0.162712" stroke-miterlimit="10"/>
<path d="M77.6761 15.6704H76.757V9.58523H74.8027V8.78149H79.5156V9.58523H77.5613V15.6704H77.6761Z" fill="black" stroke="black" stroke-width="0.162712" stroke-miterlimit="10"/>
<path d="M88.5964 14.8667C87.9069 15.5556 87.102 15.9 86.0674 15.9C85.0329 15.9 84.2286 15.5556 83.5385 14.8667C82.849 14.1778 82.5039 13.3741 82.5039 12.3408C82.5039 11.3074 82.849 10.5038 83.5385 9.81483C84.2286 9.12596 85.0329 8.78149 86.0674 8.78149C87.102 8.78149 87.9069 9.12596 88.5964 9.81483C89.2859 10.5038 89.6309 11.3074 89.6309 12.3408C89.6309 13.2593 89.2859 14.1778 88.5964 14.8667ZM84.2286 14.2926C84.6885 14.7519 85.3779 15.0963 86.0674 15.0963C86.7576 15.0963 87.447 14.8667 87.9069 14.2926C88.3668 13.8334 88.7112 13.1445 88.7112 12.3408C88.7112 11.537 88.4816 10.8482 87.9069 10.3889C87.447 9.92963 86.7576 9.58523 86.0674 9.58523C85.3779 9.58523 84.6885 9.81483 84.2286 10.3889C83.7687 10.8482 83.4237 11.537 83.4237 12.3408C83.4237 13.0296 83.6539 13.7186 84.2286 14.2926Z" fill="black" stroke="black" stroke-width="0.162712" stroke-miterlimit="10"/>
<path d="M90.8965 15.6704V8.78149H91.931L95.2643 14.1778V12.8V8.78149H96.184V15.6704H95.2643L91.7008 10.0445V11.4222V15.6704H90.8965Z" fill="black" stroke="black" stroke-width="0.162712" stroke-miterlimit="10"/>
<path d="M82.2737 25.774C79.5151 25.774 77.3312 27.8406 77.3312 30.711C77.3312 33.4666 79.5151 35.648 82.2737 35.648C85.0323 35.648 87.2168 33.5814 87.2168 30.711C87.2168 27.8406 85.0323 25.774 82.2737 25.774ZM82.2737 33.5814C80.7793 33.5814 79.5151 32.3184 79.5151 30.5962C79.5151 28.874 80.7793 27.611 82.2737 27.611C83.7681 27.611 85.0323 28.7592 85.0323 30.5962C85.0323 32.4332 83.7681 33.5814 82.2737 33.5814ZM71.5831 25.774C68.8246 25.774 66.6406 27.8406 66.6406 30.711C66.6406 33.4666 68.8246 35.648 71.5831 35.648C74.3424 35.648 76.5263 33.5814 76.5263 30.711C76.5263 27.8406 74.3424 25.774 71.5831 25.774ZM71.5831 33.5814C70.0894 33.5814 68.8246 32.3184 68.8246 30.5962C68.8246 28.874 70.0894 27.611 71.5831 27.611C73.0776 27.611 74.3424 28.7592 74.3424 30.5962C74.3424 32.4332 73.0776 33.5814 71.5831 33.5814ZM58.824 27.2666V29.3332H63.7668C63.6519 30.4814 63.1921 31.3999 62.6173 31.974C61.9277 32.6628 60.7781 33.4666 58.824 33.4666C55.7204 33.4666 53.4213 31.0554 53.4213 27.9555C53.4213 24.8555 55.8353 22.4444 58.824 22.4444C60.4333 22.4444 61.6977 23.1332 62.6173 23.937L64.1117 22.4444C62.8472 21.2962 61.2379 20.3777 58.939 20.3777C54.8008 20.3777 51.2373 23.8222 51.2373 27.9555C51.2373 32.0888 54.8008 35.5332 58.939 35.5332C61.2379 35.5332 62.8472 34.8443 64.2266 33.3518C65.6061 31.974 66.0658 30.0221 66.0658 28.5296C66.0658 28.0703 66.0658 27.611 65.9509 27.2666H58.824ZM111.011 28.874C110.552 27.7258 109.402 25.774 106.873 25.774C104.344 25.774 102.275 27.7258 102.275 30.711C102.275 33.4666 104.344 35.648 107.103 35.648C109.287 35.648 110.666 34.2703 111.126 33.4666L109.517 32.3184C108.942 33.1221 108.252 33.6962 107.103 33.6962C105.954 33.6962 105.263 33.237 104.689 32.2036L111.241 29.448L111.011 28.874ZM104.344 30.4814C104.344 28.6444 105.839 27.611 106.873 27.611C107.678 27.611 108.482 28.0703 108.712 28.6444L104.344 30.4814ZM98.9413 35.1888H101.125V20.837H98.9413V35.1888ZM95.4932 26.8073C94.9179 26.2332 93.9988 25.6592 92.8488 25.6592C90.4353 25.6592 88.1359 27.8406 88.1359 30.5962C88.1359 33.3518 90.3205 35.4184 92.8488 35.4184C93.9988 35.4184 94.9179 34.8443 95.3778 34.2703H95.4932V34.9592C95.4932 36.7962 94.4587 37.8295 92.8488 37.8295C91.5846 37.8295 90.6649 36.911 90.4353 36.1073L88.5958 36.911C89.1705 38.174 90.5501 39.7814 92.9643 39.7814C95.4932 39.7814 97.5623 38.2887 97.5623 34.7295V26.0036H95.4932V26.8073ZM92.9643 33.5814C91.4698 33.5814 90.205 32.3184 90.205 30.5962C90.205 28.874 91.4698 27.611 92.9643 27.611C94.4587 27.611 95.608 28.874 95.608 30.5962C95.608 32.3184 94.4587 33.5814 92.9643 33.5814ZM121.012 20.837H115.839V35.1888H118.023V29.7925H121.012C123.425 29.7925 125.725 28.0703 125.725 25.3148C125.725 22.5592 123.425 20.837 121.012 20.837ZM121.127 27.8406H118.023V22.9036H121.127C122.736 22.9036 123.656 24.2814 123.656 25.3148C123.541 26.4629 122.621 27.8406 121.127 27.8406ZM134.346 25.774C132.736 25.774 131.127 26.4629 130.552 27.9555L132.507 28.7592C132.967 27.9555 133.656 27.7258 134.461 27.7258C135.61 27.7258 136.645 28.4148 136.76 29.5629V29.6777C136.415 29.448 135.496 29.1036 134.576 29.1036C132.507 29.1036 130.438 30.2518 130.438 32.3184C130.438 34.2703 132.162 35.5332 134.001 35.5332C135.496 35.5332 136.185 34.8444 136.76 34.1555H136.875V35.3036H138.944V29.7925C138.714 27.1518 136.76 25.774 134.346 25.774ZM134.116 33.5814C133.426 33.5814 132.392 33.237 132.392 32.3184C132.392 31.1703 133.656 30.8258 134.691 30.8258C135.61 30.8258 136.07 31.0555 136.645 31.2851C136.415 32.6629 135.265 33.5814 134.116 33.5814ZM146.185 26.0036L143.772 32.2036H143.657L141.128 26.0036H138.829L142.623 34.7295L140.438 39.5518H142.623L148.485 26.0036H146.185ZM126.874 35.1888H129.058V20.837H126.874V35.1888Z" fill="black"/>
<path d="M15.3733 38.0592C14.9135 37.8296 14.6836 37.2555 14.6836 36.6814C14.6836 36.5666 14.6836 36.337 14.6836 36.2222C14.6836 27.7259 14.6836 19.2296 14.6836 10.8481C14.6836 10.3888 14.7985 10.0444 14.9135 9.58517C15.0285 9.3555 15.2583 9.1259 15.4883 8.8963C20.4311 13.8333 25.259 18.7703 30.0868 23.7074C25.144 28.2999 20.3161 33.1222 15.3733 38.0592Z" fill="black"/>
<path d="M34.915 18.6556C33.5356 20.0334 32.0412 21.4111 30.6619 22.9037C26.0639 18.1963 21.3509 13.4889 16.7529 8.78149C16.7529 8.78149 16.7529 8.66669 16.8679 8.66669C22.8453 11.9963 28.8226 15.326 34.915 18.6556Z" fill="black"/>
<path d="M16.7529 38.0592C21.3509 33.4666 26.0639 28.874 30.6619 24.2814C31.9263 25.5444 33.3057 26.8074 34.8001 28.1851C28.8226 31.5148 22.8453 34.8444 16.8679 38.0592H16.7529Z" fill="black"/>
<path d="M35.6054 27.7259C34.111 26.3481 32.7317 24.9703 31.2373 23.5926C32.7317 22.1 34.226 20.6074 35.7203 19.1148C36.1801 19.3444 36.6399 19.5741 37.0997 19.9185C38.2492 20.6074 39.5137 21.1815 40.6632 21.8703C41.008 21.9851 41.2379 22.2148 41.4678 22.5592C41.9276 23.1333 41.9276 23.7074 41.4678 24.2815C41.2379 24.5111 41.008 24.7407 40.6632 24.8555C39.0539 25.8889 37.3297 26.8074 35.6054 27.7259Z" fill="black"/>
</svg>
