<?xml version="1.0" encoding="utf-8"?>
<!-- Generator: Adobe Illustrator 21.0.0, SVG Export Plug-In . SVG Version: 6.00 Build 0)  -->
<svg version="1.1" id="Layer_1" xmlns="http://www.w3.org/2000/svg" xmlns:xlink="http://www.w3.org/1999/xlink" x="0px" y="0px"
	 viewBox="0 0 325.3 82" style="enable-background:new 0 0 325.3 82;" xml:space="preserve">
<style type="text/css">
	.st0{clip-path:url(#SVGID_2_);}
	.st1{fill-rule:evenodd;clip-rule:evenodd;fill:#C1A25B;}
	.st2{fill-rule:evenodd;clip-rule:evenodd;fill:#C1A45C;}
	.st3{fill-rule:evenodd;clip-rule:evenodd;fill:#C1A45D;}
	.st4{fill-rule:evenodd;clip-rule:evenodd;fill:#C5A75E;}
	.st5{fill-rule:evenodd;clip-rule:evenodd;fill:#C5A962;}
	.st6{fill-rule:evenodd;clip-rule:evenodd;fill:#C7AA62;}
	.st7{fill-rule:evenodd;clip-rule:evenodd;fill:#C8AC64;}
	.st8{fill-rule:evenodd;clip-rule:evenodd;fill:#C8AD66;}
	.st9{fill-rule:evenodd;clip-rule:evenodd;fill:#CAAE68;}
	.st10{fill-rule:evenodd;clip-rule:evenodd;fill:#CAAF69;}
	.st11{fill-rule:evenodd;clip-rule:evenodd;fill:#CAAF6A;}
	.st12{fill-rule:evenodd;clip-rule:evenodd;fill:#C9B06B;}
	.st13{fill-rule:evenodd;clip-rule:evenodd;fill:#CCB16C;}
	.st14{fill-rule:evenodd;clip-rule:evenodd;fill:#CCB16D;}
	.st15{fill-rule:evenodd;clip-rule:evenodd;fill:#CCB36E;}
	.st16{fill-rule:evenodd;clip-rule:evenodd;fill:#CEB56E;}
	.st17{fill-rule:evenodd;clip-rule:evenodd;fill:#CDB46F;}
	.st18{fill-rule:evenodd;clip-rule:evenodd;fill:#CDB570;}
	.st19{fill-rule:evenodd;clip-rule:evenodd;fill:#CDB572;}
	.st20{fill-rule:evenodd;clip-rule:evenodd;fill:#CFB772;}
	.st21{fill-rule:evenodd;clip-rule:evenodd;fill:#D1B975;}
	.st22{fill-rule:evenodd;clip-rule:evenodd;fill:#D2BA77;}
	.st23{fill-rule:evenodd;clip-rule:evenodd;fill:#D3BC77;}
	.st24{fill-rule:evenodd;clip-rule:evenodd;fill:#D3BC7A;}
	.st25{fill-rule:evenodd;clip-rule:evenodd;fill:#D4BD79;}
	.st26{fill-rule:evenodd;clip-rule:evenodd;fill:#D3BD7C;}
	.st27{fill-rule:evenodd;clip-rule:evenodd;fill:#D5BE7D;}
	.st28{fill-rule:evenodd;clip-rule:evenodd;fill:#D6C17D;}
	.st29{fill-rule:evenodd;clip-rule:evenodd;fill:#D6C181;}
	.st30{fill-rule:evenodd;clip-rule:evenodd;fill:#D8C380;}
	.st31{fill-rule:evenodd;clip-rule:evenodd;fill:#D8C382;}
	.st32{fill-rule:evenodd;clip-rule:evenodd;fill:#D7C485;}
	.st33{fill-rule:evenodd;clip-rule:evenodd;fill:#DAC684;}
	.st34{fill-rule:evenodd;clip-rule:evenodd;fill:#DBC884;}
	.st35{fill-rule:evenodd;clip-rule:evenodd;fill:#DBC786;}
	.st36{fill-rule:evenodd;clip-rule:evenodd;fill:#DCC886;}
	.st37{fill-rule:evenodd;clip-rule:evenodd;fill:#DCC889;}
	.st38{fill-rule:evenodd;clip-rule:evenodd;fill:#DCCA8A;}
	.st39{fill-rule:evenodd;clip-rule:evenodd;fill:#DCCC8B;}
	.st40{fill-rule:evenodd;clip-rule:evenodd;fill:#DECC8B;}
	.st41{fill-rule:evenodd;clip-rule:evenodd;fill:#DECC8E;}
	.st42{fill-rule:evenodd;clip-rule:evenodd;fill:#DECE8E;}
	.st43{fill-rule:evenodd;clip-rule:evenodd;fill:#DECE90;}
	.st44{fill-rule:evenodd;clip-rule:evenodd;fill:#E0CF90;}
	.st45{fill-rule:evenodd;clip-rule:evenodd;fill:#E2D294;}
	.st46{fill-rule:evenodd;clip-rule:evenodd;fill:#E5D495;}
	.st47{fill-rule:evenodd;clip-rule:evenodd;fill:#E5D598;}
	.st48{fill-rule:evenodd;clip-rule:evenodd;fill:#E6D69A;}
	.st49{fill-rule:evenodd;clip-rule:evenodd;fill:#E5D79B;}
	.st50{fill-rule:evenodd;clip-rule:evenodd;fill:#E7D89B;}
	.st51{fill-rule:evenodd;clip-rule:evenodd;fill:#E8D99C;}
	.st52{fill-rule:evenodd;clip-rule:evenodd;fill:#E9DB9F;}
	.st53{fill-rule:evenodd;clip-rule:evenodd;fill:#E8DBA0;}
	.st54{fill-rule:evenodd;clip-rule:evenodd;fill:#E8DCA1;}
	.st55{fill-rule:evenodd;clip-rule:evenodd;fill:#E8DDA2;}
	.st56{fill-rule:evenodd;clip-rule:evenodd;fill:#EBDEA2;}
	.st57{fill-rule:evenodd;clip-rule:evenodd;fill:#EBDEA4;}
	.st58{fill-rule:evenodd;clip-rule:evenodd;fill:#EBE0A8;}
	.st59{fill-rule:evenodd;clip-rule:evenodd;fill:#ECE1A7;}
	.st60{fill-rule:evenodd;clip-rule:evenodd;fill:#ECE2A8;}
	.st61{fill-rule:evenodd;clip-rule:evenodd;fill:#EDE4AB;}
	.st62{fill-rule:evenodd;clip-rule:evenodd;fill:#F0E5AD;}
	.st63{fill-rule:evenodd;clip-rule:evenodd;fill:#F1E6AD;}
	.st64{fill-rule:evenodd;clip-rule:evenodd;fill:#F0E8B0;}
	.st65{fill-rule:evenodd;clip-rule:evenodd;fill:#F3EBB0;}
	.st66{fill-rule:evenodd;clip-rule:evenodd;fill:#F3EAB3;}
	.st67{fill-rule:evenodd;clip-rule:evenodd;fill:#F3EBB4;}
	.st68{fill-rule:evenodd;clip-rule:evenodd;fill:#F5ECB5;}
	.st69{fill-rule:evenodd;clip-rule:evenodd;fill:#F5ECB7;}
	.st70{fill-rule:evenodd;clip-rule:evenodd;fill:#F4EEB8;}
	.st71{fill-rule:evenodd;clip-rule:evenodd;fill:#F8F0B8;}
	.st72{fill-rule:evenodd;clip-rule:evenodd;fill:#F7F1BB;}
	.st73{fill-rule:evenodd;clip-rule:evenodd;fill:#F7EFB8;}
	.st74{fill-rule:evenodd;clip-rule:evenodd;fill:#F1EAB1;}
	.st75{fill-rule:evenodd;clip-rule:evenodd;fill:#EDE3AD;}
	.st76{fill-rule:evenodd;clip-rule:evenodd;fill:#EEE2A8;}
	.st77{fill-rule:evenodd;clip-rule:evenodd;fill:#ECE1A9;}
	.st78{fill-rule:evenodd;clip-rule:evenodd;fill:#ECDFA8;}
	.st79{fill-rule:evenodd;clip-rule:evenodd;fill:#ECDFA4;}
	.st80{fill-rule:evenodd;clip-rule:evenodd;fill:#EADEA5;}
	.st81{fill-rule:evenodd;clip-rule:evenodd;fill:#EADEA3;}
	.st82{fill-rule:evenodd;clip-rule:evenodd;fill:#EBDDA2;}
	.st83{fill-rule:evenodd;clip-rule:evenodd;fill:#EADBA0;}
	.st84{fill-rule:evenodd;clip-rule:evenodd;fill:#E9DB9E;}
	.st85{fill-rule:evenodd;clip-rule:evenodd;fill:#E8D99D;}
	.st86{fill-rule:evenodd;clip-rule:evenodd;fill:#E6D89D;}
	.st87{fill-rule:evenodd;clip-rule:evenodd;fill:#E6D99B;}
	.st88{fill-rule:evenodd;clip-rule:evenodd;fill:#E6D79B;}
	.st89{fill-rule:evenodd;clip-rule:evenodd;fill:#E6D799;}
	.st90{fill-rule:evenodd;clip-rule:evenodd;fill:#E5D699;}
	.st91{fill-rule:evenodd;clip-rule:evenodd;fill:#E4D596;}
	.st92{fill-rule:evenodd;clip-rule:evenodd;fill:#E3D294;}
	.st93{fill-rule:evenodd;clip-rule:evenodd;fill:#E1D194;}
	.st94{fill-rule:evenodd;clip-rule:evenodd;fill:#E0D192;}
	.st95{fill-rule:evenodd;clip-rule:evenodd;fill:#E1CE90;}
	.st96{fill-rule:evenodd;clip-rule:evenodd;fill:#DFCF90;}
	.st97{fill-rule:evenodd;clip-rule:evenodd;fill:#DFCE8E;}
	.st98{fill-rule:evenodd;clip-rule:evenodd;fill:#DFCC8D;}
	.st99{fill-rule:evenodd;clip-rule:evenodd;fill:#DFCC8B;}
	.st100{fill-rule:evenodd;clip-rule:evenodd;fill:#DFCA8A;}
	.st101{fill-rule:evenodd;clip-rule:evenodd;fill:#DDCA8B;}
	.st102{fill-rule:evenodd;clip-rule:evenodd;fill:#DDC988;}
	.st103{fill-rule:evenodd;clip-rule:evenodd;fill:#DBC788;}
	.st104{fill-rule:evenodd;clip-rule:evenodd;fill:#DBC686;}
	.st105{fill-rule:evenodd;clip-rule:evenodd;fill:#DBC582;}
	.st106{fill-rule:evenodd;clip-rule:evenodd;fill:#D9C582;}
	.st107{fill-rule:evenodd;clip-rule:evenodd;fill:#D9C481;}
	.st108{fill-rule:evenodd;clip-rule:evenodd;fill:#D7C17E;}
	.st109{fill-rule:evenodd;clip-rule:evenodd;fill:#D6C07E;}
	.st110{fill-rule:evenodd;clip-rule:evenodd;fill:#D5BE7B;}
	.st111{fill-rule:evenodd;clip-rule:evenodd;fill:#D5BE7A;}
	.st112{fill-rule:evenodd;clip-rule:evenodd;fill:#D4BC78;}
	.st113{fill-rule:evenodd;clip-rule:evenodd;fill:#D1BB79;}
	.st114{fill-rule:evenodd;clip-rule:evenodd;fill:#D2BB75;}
	.st115{fill-rule:evenodd;clip-rule:evenodd;fill:#D1B973;}
	.st116{fill-rule:evenodd;clip-rule:evenodd;fill:#D0B874;}
	.st117{fill-rule:evenodd;clip-rule:evenodd;fill:#D0B773;}
	.st118{fill-rule:evenodd;clip-rule:evenodd;fill:#D0B771;}
	.st119{fill-rule:evenodd;clip-rule:evenodd;fill:#D1B571;}
	.st120{fill-rule:evenodd;clip-rule:evenodd;fill:#CDB36F;}
	.st121{fill-rule:evenodd;clip-rule:evenodd;fill:#CEB36C;}
	.st122{fill-rule:evenodd;clip-rule:evenodd;fill:#CBB26C;}
	.st123{fill-rule:evenodd;clip-rule:evenodd;fill:#CCB06C;}
	.st124{fill-rule:evenodd;clip-rule:evenodd;fill:#CCB06B;}
	.st125{fill:#D1B975;}
</style>
<g>
	<g>
		<defs>
			<path id="SVGID_1_" d="M25.5,18.1c-5.7,2.1-9.6,8.4-10.2,14.1C14.1,43.5,20.8,56.5,41,59.9c8.3,1.4,23.2-1.8,24,7.5
				c1.1-7.7-10.8-9.5-19.2-10.2c-10.1-0.8-21.3-6.7-25.1-17.3c6.2,10,15.4,15,25.5,15.2c-2.4-14.6-7.6-14.7-14.5-18
				C26.3,34.6,20.8,28.8,25.5,18.1z"/>
		</defs>
		<clipPath id="SVGID_2_">
			<use xlink:href="#SVGID_1_"  style="overflow:visible;"/>
		</clipPath>
		<g class="st0">
			
				<rect x="46.1" y="-5.6" transform="matrix(0.2295 -0.9733 0.9733 0.2295 13.1695 62.5971)" class="st1" width="0" height="57.2"/>
		</g>
		<g class="st0">
			
				<rect x="46" y="-5.6" transform="matrix(0.2298 -0.9732 0.9732 0.2298 13.1567 62.5904)" class="st2" width="0.2" height="57.2"/>
		</g>
		<g class="st0">
			
				<rect x="46" y="-5.5" transform="matrix(0.2302 -0.9731 0.9731 0.2302 13.0162 62.6303)" class="st3" width="0.2" height="57.2"/>
		</g>
		<g class="st0">
			
				<rect x="46" y="-5.4" transform="matrix(0.2298 -0.9732 0.9732 0.2298 12.9157 62.7033)" class="st4" width="0.2" height="57.2"/>
		</g>
		<g class="st0">
			
				<rect x="46" y="-5.3" transform="matrix(0.2298 -0.9732 0.9732 0.2298 12.7951 62.7595)" class="st5" width="0.2" height="57.2"/>
		</g>
		<g class="st0">
			
				<rect x="45.9" y="-5.2" transform="matrix(0.2298 -0.9732 0.9732 0.2298 12.6745 62.816)" class="st5" width="0.2" height="57.2"/>
		</g>
		<g class="st0">
			
				<rect x="45.9" y="-5.1" transform="matrix(0.2298 -0.9732 0.9732 0.2298 12.5541 62.8724)" class="st5" width="0.2" height="57.2"/>
		</g>
		<g class="st0">
			
				<rect x="45.9" y="-5" transform="matrix(0.2298 -0.9732 0.9732 0.2298 12.4336 62.9287)" class="st6" width="0.2" height="57.2"/>
		</g>
		<g class="st0">
			
				<rect x="45.9" y="-4.9" transform="matrix(0.2298 -0.9732 0.9732 0.2298 12.313 62.9852)" class="st7" width="0.2" height="57.2"/>
		</g>
		<g class="st0">
			
				<rect x="45.8" y="-4.8" transform="matrix(0.2298 -0.9732 0.9732 0.2298 12.1926 63.0416)" class="st7" width="0.2" height="57.2"/>
		</g>
		<g class="st0">
			
				<rect x="45.8" y="-4.7" transform="matrix(0.2298 -0.9732 0.9732 0.2298 12.0721 63.0979)" class="st8" width="0.2" height="57.2"/>
		</g>
		<g class="st0">
			
				<rect x="45.8" y="-4.6" transform="matrix(0.2298 -0.9732 0.9732 0.2298 11.9514 63.1544)" class="st8" width="0.2" height="57.2"/>
		</g>
		<g class="st0">
			
				<rect x="45.8" y="-4.5" transform="matrix(0.2298 -0.9732 0.9732 0.2298 11.831 63.2108)" class="st8" width="0.2" height="57.2"/>
		</g>
		<g class="st0">
			
				<rect x="45.7" y="-4.4" transform="matrix(0.2294 -0.9733 0.9733 0.2294 11.7243 63.2792)" class="st9" width="0.2" height="57.2"/>
		</g>
		<g class="st0">
			
				<rect x="45.7" y="-4.3" transform="matrix(0.2298 -0.9732 0.9732 0.2298 11.5898 63.3236)" class="st10" width="0.2" height="57.2"/>
		</g>
		<g class="st0">
			
				<rect x="45.7" y="-4.2" transform="matrix(0.2298 -0.9732 0.9732 0.2298 11.4695 63.3799)" class="st10" width="0.2" height="57.2"/>
		</g>
		<g class="st0">
			
				<rect x="45.7" y="-4.1" transform="matrix(0.2298 -0.9732 0.9732 0.2298 11.3489 63.4363)" class="st11" width="0.2" height="57.2"/>
		</g>
		<g class="st0">
			
				<rect x="45.6" y="-4" transform="matrix(0.2298 -0.9732 0.9732 0.2298 11.2283 63.4928)" class="st12" width="0.2" height="57.2"/>
		</g>
		<g class="st0">
			
				<rect x="45.6" y="-3.9" transform="matrix(0.2298 -0.9732 0.9732 0.2298 11.1073 63.5485)" class="st13" width="0.2" height="57.2"/>
		</g>
		<g class="st0">
			
				<rect x="45.6" y="-3.8" transform="matrix(0.2298 -0.9732 0.9732 0.2298 10.9873 63.6054)" class="st14" width="0.2" height="57.2"/>
		</g>
		<g class="st0">
			
				<rect x="45.6" y="-3.7" transform="matrix(0.2298 -0.9732 0.9732 0.2298 10.8668 63.6619)" class="st14" width="0.2" height="57.2"/>
		</g>
		<g class="st0">
			
				<rect x="45.5" y="-3.6" transform="matrix(0.2298 -0.9732 0.9732 0.2298 10.7457 63.7177)" class="st15" width="0.2" height="57.2"/>
		</g>
		<g class="st0">
			
				<rect x="45.5" y="-3.4" transform="matrix(0.2298 -0.9732 0.9732 0.2298 10.6258 63.7746)" class="st16" width="0.2" height="57.2"/>
		</g>
		<g class="st0">
			
				<rect x="45.5" y="-3.3" transform="matrix(0.2298 -0.9732 0.9732 0.2298 10.5052 63.8311)" class="st17" width="0.2" height="57.2"/>
		</g>
		<g class="st0">
			
				<rect x="45.5" y="-3.2" transform="matrix(0.2298 -0.9732 0.9732 0.2298 10.3842 63.8869)" class="st18" width="0.2" height="57.2"/>
		</g>
		<g class="st0">
			
				<rect x="45.5" y="-3.1" transform="matrix(0.2298 -0.9732 0.9732 0.2298 10.2643 63.9438)" class="st19" width="0.2" height="57.2"/>
		</g>
		<g class="st0">
			
				<rect x="45.4" y="-3" transform="matrix(0.2298 -0.9732 0.9732 0.2298 10.1437 64.0003)" class="st19" width="0.2" height="57.2"/>
		</g>
		<g class="st0">
			
				<rect x="45.4" y="-2.9" transform="matrix(0.2298 -0.9732 0.9732 0.2298 10.0226 64.056)" class="st20" width="0.2" height="57.2"/>
		</g>
		<g class="st0">
			
				<rect x="45.4" y="-2.8" transform="matrix(0.2298 -0.9732 0.9732 0.2298 9.9027 64.1129)" class="st21" width="0.2" height="57.2"/>
		</g>
		<g class="st0">
			
				<rect x="45.4" y="-2.7" transform="matrix(0.2298 -0.9732 0.9732 0.2298 9.7822 64.1694)" class="st21" width="0.2" height="57.2"/>
		</g>
		<g class="st0">
			
				<rect x="45.3" y="-2.6" transform="matrix(0.2298 -0.9732 0.9732 0.2298 9.6611 64.2252)" class="st21" width="0.2" height="57.2"/>
		</g>
		<g class="st0">
			
				<rect x="45.3" y="-2.5" transform="matrix(0.2302 -0.9731 0.9731 0.2302 9.522 64.2641)" class="st22" width="0.2" height="57.2"/>
		</g>
		<g class="st0">
			
				<rect x="45.3" y="-2.4" transform="matrix(0.2298 -0.9732 0.9732 0.2298 9.4207 64.3386)" class="st23" width="0.2" height="57.2"/>
		</g>
		<g class="st0">
			
				<rect x="45.3" y="-2.3" transform="matrix(0.2298 -0.9732 0.9732 0.2298 9.2996 64.3943)" class="st23" width="0.2" height="57.2"/>
		</g>
		<g class="st0">
			
				<rect x="45.2" y="-2.2" transform="matrix(0.2298 -0.9732 0.9732 0.2298 9.1796 64.4512)" class="st24" width="0.2" height="57.2"/>
		</g>
		<g class="st0">
			
				<rect x="45.2" y="-2.1" transform="matrix(0.2298 -0.9732 0.9732 0.2298 9.0591 64.5077)" class="st25" width="0.2" height="57.2"/>
		</g>
		<g class="st0">
			<rect x="45.2" y="-2" transform="matrix(0.2298 -0.9732 0.9732 0.2298 8.938 64.5635)" class="st26" width="0.2" height="57.2"/>
		</g>
		<g class="st0">
			
				<rect x="45.2" y="-1.9" transform="matrix(0.2296 -0.9733 0.9733 0.2296 8.8225 64.6248)" class="st27" width="0.2" height="57.2"/>
		</g>
		<g class="st0">
			
				<rect x="45.1" y="-1.8" transform="matrix(0.2298 -0.9732 0.9732 0.2298 8.6976 64.6769)" class="st27" width="0.2" height="57.2"/>
		</g>
		<g class="st0">
			
				<rect x="45.1" y="-1.7" transform="matrix(0.2298 -0.9732 0.9732 0.2298 8.5765 64.7327)" class="st28" width="0.2" height="57.2"/>
		</g>
		<g class="st0">
			
				<rect x="45.1" y="-1.6" transform="matrix(0.2297 -0.9733 0.9733 0.2297 8.4571 64.7905)" class="st29" width="0.2" height="57.2"/>
		</g>
		<g class="st0">
			
				<rect x="45.1" y="-1.5" transform="matrix(0.2298 -0.9732 0.9732 0.2298 8.336 64.846)" class="st30" width="0.2" height="57.2"/>
		</g>
		<g class="st0">
			<rect x="45" y="-1.4" transform="matrix(0.2298 -0.9732 0.9732 0.2298 8.215 64.9018)" class="st31" width="0.2" height="57.2"/>
		</g>
		<g class="st0">
			
				<rect x="45" y="-1.3" transform="matrix(0.2297 -0.9733 0.9733 0.2297 8.0956 64.9596)" class="st31" width="0.2" height="57.2"/>
		</g>
		<g class="st0">
			
				<rect x="45" y="-1.2" transform="matrix(0.2298 -0.9732 0.9732 0.2298 7.9745 65.0152)" class="st31" width="0.2" height="57.2"/>
		</g>
		<g class="st0">
			<rect x="45" y="-1" transform="matrix(0.2298 -0.9732 0.9732 0.2298 7.8534 65.0709)" class="st32" width="0.2" height="57.2"/>
		</g>
		<g class="st0">
			
				<rect x="44.9" y="-0.9" transform="matrix(0.2297 -0.9733 0.9733 0.2297 7.734 65.1288)" class="st33" width="0.2" height="57.2"/>
		</g>
		<g class="st0">
			
				<rect x="44.9" y="-0.8" transform="matrix(0.2296 -0.9733 0.9733 0.2296 7.6173 65.1888)" class="st33" width="0.2" height="57.2"/>
		</g>
		<g class="st0">
			
				<rect x="44.9" y="-0.7" transform="matrix(0.2298 -0.9732 0.9732 0.2298 7.4919 65.2401)" class="st34" width="0.2" height="57.2"/>
		</g>
		<g class="st0">
			
				<rect x="44.9" y="-0.6" transform="matrix(0.2297 -0.9733 0.9733 0.2297 7.3725 65.298)" class="st35" width="0.2" height="57.2"/>
		</g>
		<g class="st0">
			
				<rect x="44.8" y="-0.5" transform="matrix(0.2298 -0.9732 0.9732 0.2298 7.2513 65.3536)" class="st36" width="0.2" height="57.2"/>
		</g>
		<g class="st0">
			
				<rect x="44.8" y="-0.4" transform="matrix(0.2298 -0.9732 0.9732 0.2298 7.1302 65.4094)" class="st37" width="0.2" height="57.2"/>
		</g>
		<g class="st0">
			
				<rect x="44.8" y="-0.3" transform="matrix(0.2297 -0.9733 0.9733 0.2297 7.011 65.4671)" class="st38" width="0.2" height="57.2"/>
		</g>
		<g class="st0">
			
				<rect x="44.8" y="-0.2" transform="matrix(0.2298 -0.9732 0.9732 0.2298 6.8898 65.5227)" class="st38" width="0.2" height="57.2"/>
		</g>
		<g class="st0">
			
				<rect x="44.7" y="-0.1" transform="matrix(0.2303 -0.9731 0.9731 0.2303 6.7501 65.5594)" class="st38" width="0.2" height="57.2"/>
		</g>
		<g class="st0">
			<rect x="44.7" y="0" transform="matrix(0.2297 -0.9733 0.9733 0.2297 6.6494 65.6363)" class="st39" width="0.2" height="57.2"/>
		</g>
		<g class="st0">
			
				<rect x="44.7" y="0.1" transform="matrix(0.2298 -0.9732 0.9732 0.2298 6.5283 65.6919)" class="st40" width="0.2" height="57.2"/>
		</g>
		<g class="st0">
			
				<rect x="44.7" y="0.2" transform="matrix(0.2298 -0.9732 0.9732 0.2298 6.4078 65.7483)" class="st41" width="0.2" height="57.2"/>
		</g>
		<g class="st0">
			
				<rect x="44.6" y="0.3" transform="matrix(0.2297 -0.9733 0.9733 0.2297 6.2879 65.8054)" class="st41" width="0.2" height="57.2"/>
		</g>
		<g class="st0">
			
				<rect x="44.6" y="0.4" transform="matrix(0.2298 -0.9732 0.9732 0.2298 6.1667 65.8611)" class="st42" width="0.2" height="57.2"/>
		</g>
		<g class="st0">
			
				<rect x="44.6" y="0.5" transform="matrix(0.2298 -0.9732 0.9732 0.2298 6.0462 65.9175)" class="st43" width="0.2" height="57.2"/>
		</g>
		<g class="st0">
			
				<rect x="44.6" y="0.6" transform="matrix(0.2297 -0.9733 0.9733 0.2297 5.9263 65.9746)" class="st44" width="0.2" height="57.2"/>
		</g>
		<g class="st0">
			
				<rect x="44.5" y="0.7" transform="matrix(0.2298 -0.9732 0.9732 0.2298 5.8052 66.0302)" class="st44" width="0.2" height="57.2"/>
		</g>
		<g class="st0">
			
				<rect x="44.5" y="0.8" transform="matrix(0.2298 -0.9732 0.9732 0.2298 5.6846 66.0865)" class="st45" width="0.2" height="57.2"/>
		</g>
		<g class="st0">
			<rect x="44.5" y="0.9" transform="matrix(0.2298 -0.9732 0.9732 0.2298 5.564 66.143)" class="st45" width="0.2" height="57.2"/>
		</g>
		<g class="st0">
			<rect x="44.5" y="1" transform="matrix(0.2298 -0.9732 0.9732 0.2298 5.4437 66.1994)" class="st46" width="0.2" height="57.2"/>
		</g>
		<g class="st0">
			
				<rect x="44.4" y="1.1" transform="matrix(0.2298 -0.9732 0.9732 0.2298 5.3231 66.2559)" class="st47" width="0.2" height="57.2"/>
		</g>
		<g class="st0">
			
				<rect x="44.4" y="1.2" transform="matrix(0.2298 -0.9732 0.9732 0.2298 5.2026 66.3123)" class="st47" width="0.2" height="57.2"/>
		</g>
		<g class="st0">
			
				<rect x="44.4" y="1.4" transform="matrix(0.2298 -0.9732 0.9732 0.2298 5.0821 66.3686)" class="st48" width="0.2" height="57.2"/>
		</g>
		<g class="st0">
			
				<rect x="44.4" y="1.5" transform="matrix(0.2298 -0.9732 0.9732 0.2298 4.9616 66.425)" class="st48" width="0.2" height="57.2"/>
		</g>
		<g class="st0">
			
				<rect x="44.3" y="1.6" transform="matrix(0.2298 -0.9732 0.9732 0.2298 4.8411 66.4814)" class="st49" width="0.2" height="57.2"/>
		</g>
		<g class="st0">
			
				<rect x="44.3" y="1.7" transform="matrix(0.2298 -0.9732 0.9732 0.2298 4.7206 66.5377)" class="st50" width="0.2" height="57.2"/>
		</g>
		<g class="st0">
			<rect x="44.3" y="1.8" transform="matrix(0.2298 -0.9732 0.9732 0.2298 4.6 66.5942)" class="st51" width="0.2" height="57.2"/>
		</g>
		<g class="st0">
			
				<rect x="44.3" y="1.9" transform="matrix(0.2298 -0.9732 0.9732 0.2298 4.4795 66.6506)" class="st51" width="0.2" height="57.2"/>
		</g>
		<g class="st0">
			<rect x="44.2" y="2" transform="matrix(0.2298 -0.9732 0.9732 0.2298 4.359 66.7069)" class="st52" width="0.2" height="57.2"/>
		</g>
		<g class="st0">
			
				<rect x="44.2" y="2.1" transform="matrix(0.2298 -0.9732 0.9732 0.2298 4.2384 66.7635)" class="st52" width="0.2" height="57.2"/>
		</g>
		<g class="st0">
			
				<rect x="44.2" y="2.2" transform="matrix(0.2298 -0.9732 0.9732 0.2298 4.1179 66.8198)" class="st53" width="0.2" height="57.2"/>
		</g>
		<g class="st0">
			
				<rect x="44.2" y="2.3" transform="matrix(0.2302 -0.9731 0.9731 0.2302 3.9794 66.8558)" class="st54" width="0.2" height="57.2"/>
		</g>
		<g class="st0">
			
				<rect x="44.1" y="2.4" transform="matrix(0.2298 -0.9732 0.9732 0.2298 3.8768 66.9326)" class="st54" width="0.2" height="57.2"/>
		</g>
		<g class="st0">
			
				<rect x="44.1" y="2.5" transform="matrix(0.2298 -0.9732 0.9732 0.2298 3.7564 66.989)" class="st55" width="0.2" height="57.2"/>
		</g>
		<g class="st0">
			
				<rect x="44.1" y="2.6" transform="matrix(0.2298 -0.9732 0.9732 0.2298 3.6359 67.0452)" class="st56" width="0.2" height="57.2"/>
		</g>
		<g class="st0">
			
				<rect x="44.1" y="2.7" transform="matrix(0.2298 -0.9732 0.9732 0.2298 3.5153 67.1018)" class="st57" width="0.2" height="57.2"/>
		</g>
		<g class="st0">
			<rect x="44" y="2.8" transform="matrix(0.2298 -0.9732 0.9732 0.2298 3.3949 67.1582)" class="st57" width="0.2" height="57.2"/>
		</g>
		<g class="st0">
			<rect x="44" y="2.9" transform="matrix(0.2298 -0.9732 0.9732 0.2298 3.2745 67.2145)" class="st58" width="0.2" height="57.2"/>
		</g>
		<g class="st0">
			<rect x="44" y="3" transform="matrix(0.2298 -0.9732 0.9732 0.2298 3.1537 67.2709)" class="st59" width="0.2" height="57.2"/>
		</g>
		<g class="st0">
			<rect x="44" y="3.1" transform="matrix(0.2298 -0.9732 0.9732 0.2298 3.0333 67.3273)" class="st59" width="0.2" height="57.2"/>
		</g>
		<g class="st0">
			
				<rect x="43.9" y="3.2" transform="matrix(0.2296 -0.9733 0.9733 0.2296 2.9171 67.3885)" class="st60" width="0.2" height="57.2"/>
		</g>
		<g class="st0">
			
				<rect x="43.9" y="3.3" transform="matrix(0.2298 -0.9732 0.9732 0.2298 2.7922 67.4401)" class="st61" width="0.2" height="57.2"/>
		</g>
		<g class="st0">
			
				<rect x="43.9" y="3.4" transform="matrix(0.2298 -0.9732 0.9732 0.2298 2.6718 67.4965)" class="st61" width="0.2" height="57.2"/>
		</g>
		<g class="st0">
			
				<rect x="43.9" y="3.5" transform="matrix(0.2298 -0.9732 0.9732 0.2298 2.5513 67.5529)" class="st62" width="0.2" height="57.2"/>
		</g>
		<g class="st0">
			
				<rect x="43.8" y="3.6" transform="matrix(0.2298 -0.9732 0.9732 0.2298 2.4307 67.6093)" class="st63" width="0.2" height="57.2"/>
		</g>
		<g class="st0">
			
				<rect x="43.8" y="3.8" transform="matrix(0.2298 -0.9732 0.9732 0.2298 2.3103 67.6657)" class="st63" width="0.2" height="57.2"/>
		</g>
		<g class="st0">
			
				<rect x="43.8" y="3.9" transform="matrix(0.2296 -0.9733 0.9733 0.2296 2.1939 67.727)" class="st64" width="0.2" height="57.2"/>
		</g>
		<g class="st0">
			<rect x="43.8" y="4" transform="matrix(0.2302 -0.9731 0.9731 0.2302 2.0515 67.7574)" class="st65" width="0.2" height="57.2"/>
		</g>
		<g class="st0">
			
				<rect x="43.8" y="4.1" transform="matrix(0.2298 -0.9732 0.9732 0.2298 1.9487 67.8348)" class="st65" width="0.2" height="57.2"/>
		</g>
		<g class="st0">
			
				<rect x="43.7" y="4.2" transform="matrix(0.2298 -0.9732 0.9732 0.2298 1.8282 67.8913)" class="st66" width="0.2" height="57.2"/>
		</g>
		<g class="st0">
			
				<rect x="43.7" y="4.3" transform="matrix(0.2298 -0.9732 0.9732 0.2298 1.7076 67.9475)" class="st66" width="0.2" height="57.2"/>
		</g>
		<g class="st0">
			
				<rect x="43.7" y="4.4" transform="matrix(0.2298 -0.9732 0.9732 0.2298 1.5872 68.004)" class="st67" width="0.2" height="57.2"/>
		</g>
		<g class="st0">
			
				<rect x="43.7" y="4.5" transform="matrix(0.2298 -0.9732 0.9732 0.2298 1.4666 68.0604)" class="st67" width="0.2" height="57.2"/>
		</g>
		<g class="st0">
			
				<rect x="43.6" y="4.6" transform="matrix(0.2298 -0.9732 0.9732 0.2298 1.3461 68.1167)" class="st68" width="0.2" height="57.2"/>
		</g>
		<g class="st0">
			
				<rect x="43.6" y="4.7" transform="matrix(0.2298 -0.9732 0.9732 0.2298 1.2256 68.1731)" class="st69" width="0.2" height="57.2"/>
		</g>
		<g class="st0">
			
				<rect x="43.6" y="4.8" transform="matrix(0.2298 -0.9732 0.9732 0.2298 1.1051 68.2296)" class="st70" width="0.2" height="57.2"/>
		</g>
		<g class="st0">
			
				<rect x="43.6" y="4.9" transform="matrix(0.2296 -0.9733 0.9733 0.2296 0.9886 68.291)" class="st70" width="0.2" height="57.2"/>
		</g>
		<g class="st0">
			<rect x="43.5" y="5" transform="matrix(0.2298 -0.9732 0.9732 0.2298 0.8641 68.3422)" class="st71" width="0.2" height="57.2"/>
		</g>
		<g class="st0">
			
				<rect x="43.5" y="5.1" transform="matrix(0.2298 -0.9732 0.9732 0.2298 0.7435 68.3987)" class="st72" width="0.2" height="57.2"/>
		</g>
		<g class="st0">
			
				<rect x="43.5" y="5.2" transform="matrix(0.2298 -0.9732 0.9732 0.2298 0.6229 68.4551)" class="st72" width="0.2" height="57.2"/>
		</g>
		<g class="st0">
			
				<rect x="43.5" y="5.3" transform="matrix(0.2298 -0.9732 0.9732 0.2298 0.5025 68.5114)" class="st72" width="0.2" height="57.2"/>
		</g>
		<g class="st0">
			
				<rect x="43.4" y="5.4" transform="matrix(0.2298 -0.9732 0.9732 0.2298 0.382 68.5679)" class="st72" width="0.2" height="57.2"/>
		</g>
		<g class="st0">
			
				<rect x="43.4" y="5.5" transform="matrix(0.2298 -0.9732 0.9732 0.2298 0.2614 68.6243)" class="st73" width="0.2" height="57.2"/>
		</g>
		<g class="st0">
			
				<rect x="43.4" y="5.6" transform="matrix(0.2298 -0.9732 0.9732 0.2298 0.141 68.6806)" class="st70" width="0.2" height="57.2"/>
		</g>
		<g class="st0">
			
				<rect x="43.4" y="5.7" transform="matrix(0.2298 -0.9732 0.9732 0.2298 2.047282e-02 68.7371)" class="st70" width="0.2" height="57.2"/>
		</g>
		<g class="st0">
			
				<rect x="43.3" y="5.8" transform="matrix(0.2298 -0.9732 0.9732 0.2298 -0.1002 68.7934)" class="st70" width="0.2" height="57.2"/>
		</g>
		<g class="st0">
			
				<rect x="43.3" y="5.9" transform="matrix(0.2298 -0.9732 0.9732 0.2298 -0.2205 68.8497)" class="st69" width="0.2" height="57.2"/>
		</g>
		<g class="st0">
			
				<rect x="43.3" y="6" transform="matrix(0.2298 -0.9732 0.9732 0.2298 -0.3412 68.9063)" class="st68" width="0.2" height="57.2"/>
		</g>
		<g class="st0">
			
				<rect x="43.3" y="6.2" transform="matrix(0.2298 -0.9732 0.9732 0.2298 -0.4617 68.9626)" class="st68" width="0.2" height="57.2"/>
		</g>
		<g class="st0">
			
				<rect x="43.2" y="6.3" transform="matrix(0.2298 -0.9732 0.9732 0.2298 -0.5821 69.019)" class="st67" width="0.2" height="57.2"/>
		</g>
		<g class="st0">
			
				<rect x="43.2" y="6.4" transform="matrix(0.2302 -0.9731 0.9731 0.2302 -0.7193 69.0541)" class="st67" width="0.2" height="57.2"/>
		</g>
		<g class="st0">
			
				<rect x="43.2" y="6.5" transform="matrix(0.2298 -0.9732 0.9732 0.2298 -0.8232 69.1318)" class="st67" width="0.2" height="57.2"/>
		</g>
		<g class="st0">
			
				<rect x="43.2" y="6.6" transform="matrix(0.2298 -0.9732 0.9732 0.2298 -0.9437 69.1881)" class="st66" width="0.2" height="57.2"/>
		</g>
		<g class="st0">
			
				<rect x="43.1" y="6.7" transform="matrix(0.2297 -0.9733 0.9733 0.2297 -1.0637 69.2454)" class="st66" width="0.2" height="57.2"/>
		</g>
		<g class="st0">
			
				<rect x="43.1" y="6.8" transform="matrix(0.2298 -0.9732 0.9732 0.2298 -1.1848 69.3009)" class="st66" width="0.2" height="57.2"/>
		</g>
		<g class="st0">
			
				<rect x="43.1" y="6.9" transform="matrix(0.2298 -0.9732 0.9732 0.2298 -1.3052 69.3573)" class="st66" width="0.2" height="57.2"/>
		</g>
		<g class="st0">
			
				<rect x="43.1" y="7" transform="matrix(0.2297 -0.9733 0.9733 0.2297 -1.4252 69.4145)" class="st65" width="0.2" height="57.2"/>
		</g>
		<g class="st0">
			
				<rect x="43" y="7.1" transform="matrix(0.2298 -0.9732 0.9732 0.2298 -1.5463 69.4701)" class="st74" width="0.2" height="57.2"/>
		</g>
		<g class="st0">
			
				<rect x="43" y="7.2" transform="matrix(0.2294 -0.9733 0.9733 0.2294 -1.6548 69.5424)" class="st64" width="0.2" height="57.2"/>
		</g>
		<g class="st0">
			
				<rect x="43" y="7.3" transform="matrix(0.2297 -0.9733 0.9733 0.2297 -1.7868 69.5837)" class="st63" width="0.2" height="57.2"/>
		</g>
		<g class="st0">
			
				<rect x="43" y="7.4" transform="matrix(0.2298 -0.9732 0.9732 0.2298 -1.9079 69.6392)" class="st63" width="0.2" height="57.2"/>
		</g>
		<g class="st0">
			
				<rect x="42.9" y="7.5" transform="matrix(0.2298 -0.9732 0.9732 0.2298 -2.0284 69.6957)" class="st63" width="0.2" height="57.2"/>
		</g>
		<g class="st0">
			
				<rect x="42.9" y="7.6" transform="matrix(0.2297 -0.9733 0.9733 0.2297 -2.1483 69.7529)" class="st75" width="0.2" height="57.2"/>
		</g>
		<g class="st0">
			
				<rect x="42.9" y="7.7" transform="matrix(0.2298 -0.9732 0.9732 0.2298 -2.2694 69.8084)" class="st75" width="0.2" height="57.2"/>
		</g>
		<g class="st0">
			
				<rect x="42.9" y="7.8" transform="matrix(0.2298 -0.9732 0.9732 0.2298 -2.3899 69.8649)" class="st61" width="0.2" height="57.2"/>
		</g>
		<g class="st0">
			
				<rect x="42.8" y="7.9" transform="matrix(0.2297 -0.9733 0.9733 0.2297 -2.5099 69.9221)" class="st61" width="0.2" height="57.2"/>
		</g>
		<g class="st0">
			
				<rect x="42.8" y="8" transform="matrix(0.2298 -0.9732 0.9732 0.2298 -2.6309 69.9775)" class="st61" width="0.2" height="57.2"/>
		</g>
		<g class="st0">
			
				<rect x="42.8" y="8.1" transform="matrix(0.2298 -0.9732 0.9732 0.2298 -2.7515 70.0341)" class="st61" width="0.2" height="57.2"/>
		</g>
		<g class="st0">
			
				<rect x="42.8" y="8.2" transform="matrix(0.2297 -0.9733 0.9733 0.2297 -2.8715 70.0913)" class="st76" width="0.2" height="57.2"/>
		</g>
		<g class="st0">
			
				<rect x="42.7" y="8.3" transform="matrix(0.2298 -0.9732 0.9732 0.2298 -2.9925 70.1467)" class="st76" width="0.2" height="57.2"/>
		</g>
		<g class="st0">
			
				<rect x="42.7" y="8.4" transform="matrix(0.2298 -0.9732 0.9732 0.2298 -3.113 70.2032)" class="st77" width="0.2" height="57.2"/>
		</g>
		<g class="st0">
			
				<rect x="42.7" y="8.6" transform="matrix(0.2297 -0.9733 0.9733 0.2297 -3.233 70.2605)" class="st77" width="0.2" height="57.2"/>
		</g>
		<g class="st0">
			
				<rect x="42.7" y="8.7" transform="matrix(0.2298 -0.9732 0.9732 0.2298 -3.354 70.3159)" class="st78" width="0.2" height="57.2"/>
		</g>
		<g class="st0">
			
				<rect x="42.6" y="8.8" transform="matrix(0.2302 -0.9731 0.9731 0.2302 -3.4911 70.3491)" class="st79" width="0.2" height="57.2"/>
		</g>
		<g class="st0">
			
				<rect x="42.6" y="8.9" transform="matrix(0.2297 -0.9733 0.9733 0.2297 -3.5945 70.4296)" class="st79" width="0.2" height="57.2"/>
		</g>
		<g class="st0">
			
				<rect x="42.6" y="9" transform="matrix(0.2296 -0.9733 0.9733 0.2296 -3.7117 70.4906)" class="st80" width="0.2" height="57.2"/>
		</g>
		<g class="st0">
			
				<rect x="42.6" y="9.1" transform="matrix(0.2298 -0.9732 0.9732 0.2298 -3.8361 70.5415)" class="st81" width="0.2" height="57.2"/>
		</g>
		<g class="st0">
			
				<rect x="42.5" y="9.2" transform="matrix(0.2297 -0.9733 0.9733 0.2297 -3.9561 70.5988)" class="st81" width="0.2" height="57.2"/>
		</g>
		<g class="st0">
			
				<rect x="42.5" y="9.3" transform="matrix(0.2298 -0.9732 0.9732 0.2298 -4.0772 70.6543)" class="st82" width="0.2" height="57.2"/>
		</g>
		<g class="st0">
			
				<rect x="42.5" y="9.4" transform="matrix(0.2298 -0.9732 0.9732 0.2298 -4.1976 70.7107)" class="st82" width="0.2" height="57.2"/>
		</g>
		<g class="st0">
			
				<rect x="42.5" y="9.5" transform="matrix(0.2297 -0.9733 0.9733 0.2297 -4.3176 70.7679)" class="st82" width="0.2" height="57.2"/>
		</g>
		<g class="st0">
			
				<rect x="42.4" y="9.6" transform="matrix(0.2298 -0.9732 0.9732 0.2298 -4.4387 70.8234)" class="st83" width="0.2" height="57.2"/>
		</g>
		<g class="st0">
			
				<rect x="42.4" y="9.7" transform="matrix(0.2298 -0.9732 0.9732 0.2298 -4.5592 70.8799)" class="st83" width="0.2" height="57.2"/>
		</g>
		<g class="st0">
			
				<rect x="42.4" y="9.8" transform="matrix(0.2297 -0.9733 0.9733 0.2297 -4.6792 70.9371)" class="st52" width="0.2" height="57.2"/>
		</g>
		<g class="st0">
			
				<rect x="42.4" y="9.9" transform="matrix(0.2298 -0.9732 0.9732 0.2298 -4.8002 70.9926)" class="st52" width="0.2" height="57.2"/>
		</g>
		<g class="st0">
			
				<rect x="42.3" y="10" transform="matrix(0.2298 -0.9732 0.9732 0.2298 -4.9208 71.0491)" class="st52" width="0.2" height="57.2"/>
		</g>
		<g class="st0">
			
				<rect x="42.3" y="10.1" transform="matrix(0.2297 -0.9733 0.9733 0.2297 -5.0407 71.1063)" class="st84" width="0.2" height="57.2"/>
		</g>
		<g class="st0">
			
				<rect x="42.3" y="10.2" transform="matrix(0.2298 -0.9732 0.9732 0.2298 -5.1618 71.1618)" class="st85" width="0.2" height="57.2"/>
		</g>
		<g class="st0">
			
				<rect x="42.3" y="10.3" transform="matrix(0.2298 -0.9732 0.9732 0.2298 -5.2824 71.2183)" class="st86" width="0.2" height="57.2"/>
		</g>
		<g class="st0">
			
				<rect x="42.2" y="10.4" transform="matrix(0.2298 -0.9732 0.9732 0.2298 -5.4028 71.2746)" class="st86" width="0.2" height="57.2"/>
		</g>
		<g class="st0">
			
				<rect x="42.2" y="10.5" transform="matrix(0.2298 -0.9732 0.9732 0.2298 -5.5233 71.3309)" class="st87" width="0.2" height="57.2"/>
		</g>
		<g class="st0">
			
				<rect x="42.2" y="10.6" transform="matrix(0.2296 -0.9733 0.9733 0.2296 -5.6401 71.3931)" class="st88" width="0.2" height="57.2"/>
		</g>
		<g class="st0">
			
				<rect x="42.2" y="10.7" transform="matrix(0.2298 -0.9732 0.9732 0.2298 -5.7643 71.4438)" class="st88" width="0.2" height="57.2"/>
		</g>
		<g class="st0">
			
				<rect x="42.1" y="10.8" transform="matrix(0.2298 -0.9732 0.9732 0.2298 -5.8848 71.5001)" class="st88" width="0.2" height="57.2"/>
		</g>
		<g class="st0">
			
				<rect x="42.1" y="11" transform="matrix(0.2298 -0.9732 0.9732 0.2298 -6.0055 71.5567)" class="st88" width="0.2" height="57.2"/>
		</g>
		<g class="st0">
			
				<rect x="42.1" y="11.1" transform="matrix(0.2298 -0.9732 0.9732 0.2298 -6.1259 71.613)" class="st89" width="0.2" height="57.2"/>
		</g>
		<g class="st0">
			
				<rect x="42.1" y="11.2" transform="matrix(0.2299 -0.9732 0.9732 0.2299 -6.2516 71.6615)" class="st90" width="0.2" height="57.2"/>
		</g>
		<g class="st0">
			
				<rect x="42.1" y="11.3" transform="matrix(0.2298 -0.9732 0.9732 0.2298 -6.367 71.7258)" class="st47" width="0.2" height="57.2"/>
		</g>
		<g class="st0">
			
				<rect x="42" y="11.4" transform="matrix(0.2298 -0.9732 0.9732 0.2298 -6.4874 71.7821)" class="st91" width="0.2" height="57.2"/>
		</g>
		<g class="st0">
			
				<rect x="42" y="11.5" transform="matrix(0.2298 -0.9732 0.9732 0.2298 -6.608 71.8386)" class="st91" width="0.2" height="57.2"/>
		</g>
		<g class="st0">
			
				<rect x="42" y="11.6" transform="matrix(0.2298 -0.9732 0.9732 0.2298 -6.7286 71.895)" class="st91" width="0.2" height="57.2"/>
		</g>
		<g class="st0">
			
				<rect x="42" y="11.7" transform="matrix(0.2298 -0.9732 0.9732 0.2298 -6.8489 71.9513)" class="st92" width="0.2" height="57.2"/>
		</g>
		<g class="st0">
			
				<rect x="41.9" y="11.8" transform="matrix(0.2298 -0.9732 0.9732 0.2298 -6.9695 72.0077)" class="st93" width="0.2" height="57.2"/>
		</g>
		<g class="st0">
			
				<rect x="41.9" y="11.9" transform="matrix(0.2298 -0.9732 0.9732 0.2298 -7.0901 72.0642)" class="st93" width="0.2" height="57.2"/>
		</g>
		<g class="st0">
			
				<rect x="41.9" y="12" transform="matrix(0.2298 -0.9732 0.9732 0.2298 -7.2105 72.1205)" class="st94" width="0.2" height="57.2"/>
		</g>
		<g class="st0">
			
				<rect x="41.9" y="12.1" transform="matrix(0.2298 -0.9732 0.9732 0.2298 -7.331 72.1769)" class="st94" width="0.2" height="57.2"/>
		</g>
		<g class="st0">
			
				<rect x="41.8" y="12.2" transform="matrix(0.2298 -0.9732 0.9732 0.2298 -7.4517 72.2333)" class="st94" width="0.2" height="57.2"/>
		</g>
		<g class="st0">
			
				<rect x="41.8" y="12.3" transform="matrix(0.2298 -0.9732 0.9732 0.2298 -7.5721 72.2897)" class="st95" width="0.2" height="57.2"/>
		</g>
		<g class="st0">
			
				<rect x="41.8" y="12.4" transform="matrix(0.2298 -0.9732 0.9732 0.2298 -7.6926 72.3461)" class="st95" width="0.2" height="57.2"/>
		</g>
		<g class="st0">
			
				<rect x="41.8" y="12.5" transform="matrix(0.2298 -0.9732 0.9732 0.2298 -7.8132 72.4025)" class="st95" width="0.2" height="57.2"/>
		</g>
		<g class="st0">
			
				<rect x="41.7" y="12.6" transform="matrix(0.2298 -0.9732 0.9732 0.2298 -7.9336 72.4589)" class="st96" width="0.2" height="57.2"/>
		</g>
		<g class="st0">
			
				<rect x="41.7" y="12.7" transform="matrix(0.2298 -0.9732 0.9732 0.2298 -8.0541 72.5152)" class="st96" width="0.2" height="57.2"/>
		</g>
		<g class="st0">
			
				<rect x="41.7" y="12.8" transform="matrix(0.2298 -0.9732 0.9732 0.2298 -8.1748 72.5716)" class="st97" width="0.2" height="57.2"/>
		</g>
		<g class="st0">
			
				<rect x="41.7" y="12.9" transform="matrix(0.2298 -0.9732 0.9732 0.2298 -8.2952 72.628)" class="st98" width="0.2" height="57.2"/>
		</g>
		<g class="st0">
			
				<rect x="41.6" y="13" transform="matrix(0.2298 -0.9732 0.9732 0.2298 -8.4157 72.6844)" class="st98" width="0.2" height="57.2"/>
		</g>
		<g class="st0">
			
				<rect x="41.6" y="13.1" transform="matrix(0.2298 -0.9732 0.9732 0.2298 -8.5363 72.7407)" class="st99" width="0.2" height="57.2"/>
		</g>
		<g class="st0">
			
				<rect x="41.6" y="13.2" transform="matrix(0.2298 -0.9732 0.9732 0.2298 -8.6567 72.7971)" class="st99" width="0.2" height="57.2"/>
		</g>
		<g class="st0">
			
				<rect x="41.6" y="13.4" transform="matrix(0.2298 -0.9732 0.9732 0.2298 -8.7772 72.8536)" class="st100" width="0.2" height="57.2"/>
		</g>
		<g class="st0">
			
				<rect x="41.5" y="13.5" transform="matrix(0.2298 -0.9732 0.9732 0.2298 -8.8978 72.9099)" class="st101" width="0.2" height="57.2"/>
		</g>
		<g class="st0">
			
				<rect x="41.5" y="13.6" transform="matrix(0.2298 -0.9732 0.9732 0.2298 -9.0182 72.9663)" class="st101" width="0.2" height="57.2"/>
		</g>
		<g class="st0">
			
				<rect x="41.5" y="13.7" transform="matrix(0.2298 -0.9732 0.9732 0.2298 -9.1388 73.0229)" class="st101" width="0.2" height="57.2"/>
		</g>
		<g class="st0">
			
				<rect x="41.5" y="13.8" transform="matrix(0.2298 -0.9732 0.9732 0.2298 -9.2594 73.0791)" class="st102" width="0.2" height="57.2"/>
		</g>
		<g class="st0">
			
				<rect x="41.4" y="13.9" transform="matrix(0.2298 -0.9732 0.9732 0.2298 -9.3798 73.1355)" class="st102" width="0.2" height="57.2"/>
		</g>
		<g class="st0">
			
				<rect x="41.4" y="14" transform="matrix(0.2298 -0.9732 0.9732 0.2298 -9.5004 73.1921)" class="st103" width="0.2" height="57.2"/>
		</g>
		<g class="st0">
			
				<rect x="41.4" y="14.1" transform="matrix(0.2298 -0.9732 0.9732 0.2298 -9.6209 73.2482)" class="st35" width="0.2" height="57.2"/>
		</g>
		<g class="st0">
			
				<rect x="41.4" y="14.2" transform="matrix(0.2298 -0.9732 0.9732 0.2298 -9.7413 73.3046)" class="st35" width="0.2" height="57.2"/>
		</g>
		<g class="st0">
			
				<rect x="41.3" y="14.3" transform="matrix(0.2298 -0.9732 0.9732 0.2298 -9.862 73.3612)" class="st35" width="0.2" height="57.2"/>
		</g>
		<g class="st0">
			
				<rect x="41.3" y="14.4" transform="matrix(0.2298 -0.9732 0.9732 0.2298 -9.9824 73.4174)" class="st104" width="0.2" height="57.2"/>
		</g>
		<g class="st0">
			
				<rect x="41.3" y="14.5" transform="matrix(0.2298 -0.9732 0.9732 0.2298 -10.1029 73.4738)" class="st104" width="0.2" height="57.2"/>
		</g>
		<g class="st0">
			
				<rect x="41.3" y="14.6" transform="matrix(0.2298 -0.9732 0.9732 0.2298 -10.2235 73.5304)" class="st105" width="0.2" height="57.2"/>
		</g>
		<g class="st0">
			
				<rect x="41.2" y="14.7" transform="matrix(0.2296 -0.9733 0.9733 0.2296 -10.3404 73.5927)" class="st105" width="0.2" height="57.2"/>
		</g>
		<g class="st0">
			
				<rect x="41.2" y="14.8" transform="matrix(0.2298 -0.9732 0.9732 0.2298 -10.4644 73.6429)" class="st106" width="0.2" height="57.2"/>
		</g>
		<g class="st0">
			
				<rect x="41.2" y="14.9" transform="matrix(0.2298 -0.9732 0.9732 0.2298 -10.5851 73.6995)" class="st31" width="0.2" height="57.2"/>
		</g>
		<g class="st0">
			
				<rect x="41.2" y="15" transform="matrix(0.2298 -0.9732 0.9732 0.2298 -10.7056 73.7558)" class="st31" width="0.2" height="57.2"/>
		</g>
		<g class="st0">
			
				<rect x="41.1" y="15.1" transform="matrix(0.2294 -0.9733 0.9733 0.2294 -10.8153 73.8307)" class="st107" width="0.2" height="57.2"/>
		</g>
		<g class="st0">
			
				<rect x="41.1" y="15.2" transform="matrix(0.2302 -0.9731 0.9731 0.2302 -10.9617 73.8425)" class="st107" width="0.2" height="57.2"/>
		</g>
		<g class="st0">
			
				<rect x="41.1" y="15.3" transform="matrix(0.2298 -0.9732 0.9732 0.2298 -11.0671 73.925)" class="st29" width="0.2" height="57.2"/>
		</g>
		<g class="st0">
			
				<rect x="41.1" y="15.4" transform="matrix(0.2298 -0.9732 0.9732 0.2298 -11.1876 73.9814)" class="st29" width="0.2" height="57.2"/>
		</g>
		<g class="st0">
			
				<rect x="41" y="15.5" transform="matrix(0.2298 -0.9732 0.9732 0.2298 -11.3082 74.0378)" class="st108" width="0.2" height="57.2"/>
		</g>
		<g class="st0">
			
				<rect x="41" y="15.6" transform="matrix(0.2298 -0.9732 0.9732 0.2298 -11.4286 74.0942)" class="st108" width="0.2" height="57.2"/>
		</g>
		<g class="st0">
			
				<rect x="41" y="15.8" transform="matrix(0.2298 -0.9732 0.9732 0.2298 -11.5491 74.1506)" class="st108" width="0.2" height="57.2"/>
		</g>
		<g class="st0">
			
				<rect x="41" y="15.9" transform="matrix(0.2298 -0.9732 0.9732 0.2298 -11.6697 74.207)" class="st108" width="0.2" height="57.2"/>
		</g>
		<g class="st0">
			
				<rect x="40.9" y="16" transform="matrix(0.2298 -0.9732 0.9732 0.2298 -11.7901 74.2634)" class="st109" width="0.2" height="57.2"/>
		</g>
		<g class="st0">
			
				<rect x="40.9" y="16.1" transform="matrix(0.2298 -0.9732 0.9732 0.2298 -11.9107 74.3197)" class="st110" width="0.2" height="57.2"/>
		</g>
		<g class="st0">
			
				<rect x="40.9" y="16.2" transform="matrix(0.2298 -0.9732 0.9732 0.2298 -12.0312 74.3762)" class="st111" width="0.2" height="57.2"/>
		</g>
		<g class="st0">
			
				<rect x="40.9" y="16.3" transform="matrix(0.2298 -0.9732 0.9732 0.2298 -12.1516 74.4326)" class="st111" width="0.2" height="57.2"/>
		</g>
		<g class="st0">
			
				<rect x="40.8" y="16.4" transform="matrix(0.2296 -0.9733 0.9733 0.2296 -12.2687 74.4952)" class="st112" width="0.2" height="57.2"/>
		</g>
		<g class="st0">
			
				<rect x="40.8" y="16.5" transform="matrix(0.2298 -0.9732 0.9732 0.2298 -12.3927 74.5453)" class="st112" width="0.2" height="57.2"/>
		</g>
		<g class="st0">
			
				<rect x="40.8" y="16.6" transform="matrix(0.2298 -0.9732 0.9732 0.2298 -12.5132 74.6017)" class="st112" width="0.2" height="57.2"/>
		</g>
		<g class="st0">
			
				<rect x="40.8" y="16.7" transform="matrix(0.2298 -0.9732 0.9732 0.2298 -12.6338 74.6581)" class="st113" width="0.2" height="57.2"/>
		</g>
		<g class="st0">
			
				<rect x="40.7" y="16.8" transform="matrix(0.2298 -0.9732 0.9732 0.2298 -12.7543 74.7145)" class="st113" width="0.2" height="57.2"/>
		</g>
		<g class="st0">
			
				<rect x="40.7" y="16.9" transform="matrix(0.2298 -0.9732 0.9732 0.2298 -12.8752 74.77)" class="st114" width="0.2" height="57.2"/>
		</g>
		<g class="st0">
			
				<rect x="40.7" y="17" transform="matrix(0.2298 -0.9732 0.9732 0.2298 -12.9953 74.8272)" class="st21" width="0.2" height="57.2"/>
		</g>
		<g class="st0">
			
				<rect x="40.7" y="17.1" transform="matrix(0.2298 -0.9732 0.9732 0.2298 -13.1158 74.8837)" class="st21" width="0.2" height="57.2"/>
		</g>
		<g class="st0">
			
				<rect x="40.6" y="17.2" transform="matrix(0.2298 -0.9732 0.9732 0.2298 -13.2367 74.9391)" class="st21" width="0.2" height="57.2"/>
		</g>
		<g class="st0">
			
				<rect x="40.6" y="17.3" transform="matrix(0.2298 -0.9732 0.9732 0.2298 -13.3569 74.9964)" class="st115" width="0.2" height="57.2"/>
		</g>
		<g class="st0">
			
				<rect x="40.6" y="17.4" transform="matrix(0.2298 -0.9732 0.9732 0.2298 -13.4773 75.0528)" class="st115" width="0.2" height="57.2"/>
		</g>
		<g class="st0">
			
				<rect x="40.6" y="17.5" transform="matrix(0.2298 -0.9732 0.9732 0.2298 -13.5983 75.1083)" class="st116" width="0.2" height="57.2"/>
		</g>
		<g class="st0">
			
				<rect x="40.5" y="17.6" transform="matrix(0.2298 -0.9732 0.9732 0.2298 -13.7185 75.1656)" class="st117" width="0.2" height="57.2"/>
		</g>
		<g class="st0">
			
				<rect x="40.5" y="17.7" transform="matrix(0.2298 -0.9732 0.9732 0.2298 -13.839 75.2221)" class="st117" width="0.2" height="57.2"/>
		</g>
		<g class="st0">
			
				<rect x="40.5" y="17.8" transform="matrix(0.2298 -0.9732 0.9732 0.2298 -13.9598 75.2775)" class="st118" width="0.2" height="57.2"/>
		</g>
		<g class="st0">
			
				<rect x="40.5" y="17.9" transform="matrix(0.2298 -0.9732 0.9732 0.2298 -14.0801 75.3348)" class="st118" width="0.2" height="57.2"/>
		</g>
		<g class="st0">
			
				<rect x="40.5" y="18" transform="matrix(0.2298 -0.9732 0.9732 0.2298 -14.2005 75.3912)" class="st119" width="0.2" height="57.2"/>
		</g>
		<g class="st0">
			
				<rect x="40.4" y="18.2" transform="matrix(0.2298 -0.9732 0.9732 0.2298 -14.3213 75.4466)" class="st17" width="0.2" height="57.2"/>
		</g>
		<g class="st0">
			
				<rect x="40.4" y="18.3" transform="matrix(0.2302 -0.9731 0.9731 0.2302 -14.456 75.4764)" class="st17" width="0.2" height="57.2"/>
		</g>
		<g class="st0">
			
				<rect x="40.4" y="18.4" transform="matrix(0.2298 -0.9732 0.9732 0.2298 -14.562 75.5604)" class="st17" width="0.2" height="57.2"/>
		</g>
		<g class="st0">
			
				<rect x="40.4" y="18.5" transform="matrix(0.2298 -0.9732 0.9732 0.2298 -14.6828 75.6158)" class="st17" width="0.2" height="57.2"/>
		</g>
		<g class="st0">
			
				<rect x="40.3" y="18.6" transform="matrix(0.2298 -0.9732 0.9732 0.2298 -14.8032 75.6731)" class="st17" width="0.2" height="57.2"/>
		</g>
		<g class="st0">
			
				<rect x="40.3" y="18.7" transform="matrix(0.2298 -0.9732 0.9732 0.2298 -14.9236 75.7295)" class="st120" width="0.2" height="57.2"/>
		</g>
		<g class="st0">
			
				<rect x="40.3" y="18.8" transform="matrix(0.2298 -0.9732 0.9732 0.2298 -15.0445 75.785)" class="st121" width="0.2" height="57.2"/>
		</g>
		<g class="st0">
			
				<rect x="40.3" y="18.9" transform="matrix(0.2298 -0.9732 0.9732 0.2298 -15.1647 75.8423)" class="st121" width="0.2" height="57.2"/>
		</g>
		<g class="st0">
			
				<rect x="40.2" y="19" transform="matrix(0.2298 -0.9732 0.9732 0.2298 -15.2851 75.8987)" class="st122" width="0.2" height="57.2"/>
		</g>
		<g class="st0">
			
				<rect x="40.2" y="19.1" transform="matrix(0.2298 -0.9732 0.9732 0.2298 -15.4061 75.9543)" class="st123" width="0.2" height="57.2"/>
		</g>
		<g class="st0">
			
				<rect x="40.2" y="19.2" transform="matrix(0.2298 -0.9732 0.9732 0.2298 -15.5262 76.0115)" class="st123" width="0.2" height="57.2"/>
		</g>
		<g class="st0">
			
				<rect x="32.1" y="25.7" transform="matrix(0.2298 -0.9732 0.9732 0.2298 -23.0401 79.5269)" class="st124" width="13.3" height="57.2"/>
		</g>
	</g>
</g>
<g>
	<path class="st125" d="M63.9,49V19.7h-4.8v-1.2h6.2V49H63.9z"/>
	<path class="st125" d="M94.3,49.6h-0.6c-4.2,0-7.9-1.6-10.9-4.7c-3.1-3.2-4.6-6.9-4.6-11.1c0-4.3,1.6-8,4.7-11.1
		c3.1-3.1,6.8-4.7,11.2-4.7c4.4,0,8.1,1.6,11.2,4.7c3.1,3.1,4.7,6.8,4.7,11.2c0,2.8-0.7,5.3-2.1,7.8c-1.4,2.4-3.3,4.4-5.7,5.8
		C99.6,48.8,97.1,49.6,94.3,49.6z M108.5,33.8c0-4-1.4-7.5-4.3-10.3S98,19.1,94,19.1c-4,0-7.4,1.4-10.2,4.3s-4.3,6.3-4.3,10.3
		c0,4,1.4,7.5,4.3,10.3C86.6,47,90,48.4,94,48.4c4,0,7.4-1.4,10.3-4.3C107.1,41.2,108.5,37.8,108.5,33.8z"/>
	<path class="st125" d="M146.6,18.4v29.5h9.5V49h-10.8V18.4H146.6z"/>
	<path class="st125" d="M168.1,18.4h11v1.2h-9.6v16.7h8.1v1.2h-8.1v10.4h9.6V49h-11V18.4z"/>
	<path class="st125" d="M204.8,17.6L220.1,49h-1.4l-5.8-11.7h-16.4L190.8,49h-1.3L204.8,17.6z M204.7,20.5L197,36.2h15.4L204.7,20.5
		z"/>
	<path class="st125" d="M241.1,49.7l-15.2-31.4h1.5l13.9,28.4L255,18.4h1.3L241.1,49.7z"/>
	<path class="st125" d="M268.4,18.4h11v1.2h-9.6v16.7h8.1v1.2h-8.1v10.4h9.6V49h-11V18.4z"/>
	<path class="st125" d="M301.4,20c-1.1-0.7-2.3-1-3.6-1c-1.3,0-2.5,0.4-3.4,1.2c-0.9,0.8-1.4,2-1.4,3.4v0.2c0,1.7,1,3.3,2.9,4.7
		c0.8,0.6,1.7,1.2,2.8,1.8c1,0.6,2,1.2,3.1,1.9c1,0.7,1.9,1.4,2.8,2.1c0.8,0.8,1.5,1.7,2,2.8s0.8,2.3,0.8,3.6v0.4
		c0,2.6-0.9,4.6-2.6,6.2c-1.8,1.5-3.9,2.3-6.5,2.3c-3.4,0-6.1-1.4-7.9-4.2v-2.2c0.7,1.6,1.8,2.8,3.1,3.8c1.4,1,3.1,1.5,5.1,1.5
		c2,0,3.8-0.7,5.3-2c1.5-1.3,2.2-3.1,2.2-5.2V41c0-1.4-0.4-2.6-1.1-3.7c-0.7-1.1-1.6-2.1-2.7-2.8c-1.1-0.7-2.2-1.5-3.5-2.3
		c-1.3-0.8-2.4-1.5-3.5-2.2c-1.1-0.7-1.9-1.5-2.7-2.6c-0.7-1-1.1-2.2-1.1-3.4v-0.3c0-1.9,0.6-3.4,1.8-4.4c1.2-1,2.7-1.5,4.5-1.5
		c2.5,0,4.5,0.9,6,2.8v2.1C303.4,21.6,302.5,20.7,301.4,20z"/>
</g>
</svg>
