<svg width="46" height="46" viewBox="0 0 46 46" fill="none" xmlns="http://www.w3.org/2000/svg">
<g clip-path="url(#clip0_39_18)">
<g filter="url(#filter0_d_39_18)">
<path d="M24 41.667C34.3095 41.667 42.667 33.3095 42.667 23C42.667 12.6905 34.3095 4.33301 24 4.33301C13.6905 4.33301 5.33301 12.6905 5.33301 23C5.33301 33.3095 13.6905 41.667 24 41.667Z" fill="#D7DDE6" stroke="white" stroke-width="2.667"/>
<mask id="mask0_39_18" style="mask-type:luminance" maskUnits="userSpaceOnUse" x="6" y="5" width="36" height="36">
<path d="M24 40.333C33.5728 40.333 41.333 32.5728 41.333 23C41.333 13.4273 33.5728 5.66702 24 5.66702C14.4273 5.66702 6.66702 13.4273 6.66702 23C6.66702 32.5728 14.4273 40.333 24 40.333Z" fill="white"/>
</mask>
<g mask="url(#mask0_39_18)">
<path fill-rule="evenodd" clip-rule="evenodd" d="M38 39.176C38.007 39.519 37.812 39.791 37.56 40.026C36.99 40.552 36.309 40.878 35.601 41.156C33.267 42.075 30.818 42.492 28.345 42.796C27.707 42.876 27.067 42.933 26.427 43H20.793C20.683 42.982 20.573 42.956 20.462 42.948C19.2 42.849 17.935 42.786 16.677 42.65C15.021 42.472 13.382 42.179 11.866 41.446C10.982 41.019 10.219 40.445 10.001 39.393V37.148C10.021 37.015 10.055 36.882 10.057 36.75C10.069 36.027 10.309 35.37 10.786 34.852C11.373 34.214 11.982 33.57 12.679 33.064C14.51 31.734 16.609 30.984 18.799 30.495C19.0812 30.4377 19.3487 30.3232 19.585 30.1586C19.8213 29.9941 20.0214 29.7828 20.173 29.538C20.549 28.96 20.666 28.367 20.199 27.744C19.487 26.792 18.998 25.725 18.657 24.584C18.599 24.388 18.411 24.224 18.267 24.059C18.018 23.771 17.698 23.526 17.512 23.202C16.958 22.239 16.695 21.186 16.805 20.071C16.833 19.786 17.02 19.519 17.12 19.239C17.1594 19.1434 17.1698 19.0384 17.15 18.937C16.35 16.234 16.665 13.647 18.092 11.24C19.312 9.18001 21.151 8.13601 23.59 8.36501C24.75 8.47301 25.832 8.80401 26.64 9.73501C26.71 9.81601 26.879 9.85901 26.994 9.84501C28.718 9.63601 29.957 10.564 30.574 12.002C31.286 13.66 31.378 15.402 31.282 17.174C31.246 17.848 31.117 18.5 31.146 19.183C31.156 19.432 31.188 19.684 31.253 19.944C31.581 21.264 31.217 22.568 30.31 23.634C30.1198 23.8562 29.9473 24.0929 29.794 24.342C29.7347 24.4102 29.6879 24.4884 29.656 24.573C29.553 24.753 29.459 24.936 29.37 25.124C29.311 25.252 29.253 25.381 29.198 25.512C28.842 26.352 28.355 27.138 27.894 27.929C27.222 29.078 27.566 29.996 28.84 30.358C29.416 30.522 30.002 30.653 30.576 30.823C32.756 31.468 34.807 32.358 36.469 33.977C37.099 34.59 37.761 35.22 37.872 36.127C37.997 37.134 37.98 38.159 38 39.176Z" fill="white"/>
</g>
</g>
</g>
<defs>
<filter id="filter0_d_39_18" x="-0.000488281" y="-0.000488281" width="46.001" height="46.001" filterUnits="userSpaceOnUse" color-interpolation-filters="sRGB">
<feFlood flood-opacity="0" result="BackgroundImageFix"/>
<feColorMatrix in="SourceAlpha" type="matrix" values="0 0 0 0 0 0 0 0 0 0 0 0 0 0 0 0 0 0 127 0" result="hardAlpha"/>
<feOffset dx="-1"/>
<feGaussianBlur stdDeviation="1.5"/>
<feColorMatrix type="matrix" values="0 0 0 0 0 0 0 0 0 0 0 0 0 0 0 0 0 0 0.1 0"/>
<feBlend mode="normal" in2="BackgroundImageFix" result="effect1_dropShadow_39_18"/>
<feBlend mode="normal" in="SourceGraphic" in2="effect1_dropShadow_39_18" result="shape"/>
</filter>
<clipPath id="clip0_39_18">
<rect width="46" height="46" fill="white"/>
</clipPath>
</defs>
</svg>
