<svg width="42" height="42" viewBox="0 0 42 42" fill="none" xmlns="http://www.w3.org/2000/svg">
<g clip-path="url(#clip0_590_4038)">
<path d="M21 19.25C23.3206 19.25 25.5462 20.1719 27.1872 21.8128C28.8281 23.4538 29.75 25.6794 29.75 28V38.5H26.25V28C26.2501 26.6609 25.7384 25.3723 24.8198 24.398C23.9011 23.4237 22.6448 22.8373 21.308 22.7588L21 22.75C19.6609 22.7499 18.3723 23.2616 17.398 24.1802C16.4237 25.0989 15.8373 26.3552 15.7588 27.692L15.75 28V38.5H12.25V28C12.25 25.6794 13.1719 23.4538 14.8128 21.8128C16.4538 20.1719 18.6794 19.25 21 19.25ZM9.625 24.5C10.1133 24.5 10.5875 24.5577 11.0425 24.6645C10.7433 25.5553 10.5661 26.4824 10.5157 27.4207L10.5 28V28.1505C10.2988 28.0785 10.0896 28.0315 9.877 28.0105L9.625 28C8.97246 28 8.34332 28.2431 7.86027 28.6818C7.37722 29.1206 7.07489 29.7235 7.01225 30.373L7 30.625V38.5H3.5V30.625C3.5 29.0005 4.14531 27.4426 5.29397 26.294C6.44263 25.1453 8.00055 24.5 9.625 24.5V24.5ZM32.375 24.5C33.9995 24.5 35.5574 25.1453 36.706 26.294C37.8547 27.4426 38.5 29.0005 38.5 30.625V38.5H35V30.625C35 29.9725 34.7569 29.3433 34.3182 28.8603C33.8794 28.3772 33.2765 28.0749 32.627 28.0122L32.375 28C32.0688 28 31.7748 28.0525 31.5 28.1487V28C31.5 26.8345 31.311 25.7145 30.9592 24.668C31.4125 24.5577 31.8867 24.5 32.375 24.5ZM9.625 14C10.7853 14 11.8981 14.4609 12.7186 15.2814C13.5391 16.1019 14 17.2147 14 18.375C14 19.5353 13.5391 20.6481 12.7186 21.4686C11.8981 22.2891 10.7853 22.75 9.625 22.75C8.46468 22.75 7.35188 22.2891 6.53141 21.4686C5.71094 20.6481 5.25 19.5353 5.25 18.375C5.25 17.2147 5.71094 16.1019 6.53141 15.2814C7.35188 14.4609 8.46468 14 9.625 14V14ZM32.375 14C33.5353 14 34.6481 14.4609 35.4686 15.2814C36.2891 16.1019 36.75 17.2147 36.75 18.375C36.75 19.5353 36.2891 20.6481 35.4686 21.4686C34.6481 22.2891 33.5353 22.75 32.375 22.75C31.2147 22.75 30.1019 22.2891 29.2814 21.4686C28.4609 20.6481 28 19.5353 28 18.375C28 17.2147 28.4609 16.1019 29.2814 15.2814C30.1019 14.4609 31.2147 14 32.375 14V14ZM9.625 17.5C9.39294 17.5 9.17038 17.5922 9.00628 17.7563C8.84219 17.9204 8.75 18.1429 8.75 18.375C8.75 18.6071 8.84219 18.8296 9.00628 18.9937C9.17038 19.1578 9.39294 19.25 9.625 19.25C9.85706 19.25 10.0796 19.1578 10.2437 18.9937C10.4078 18.8296 10.5 18.6071 10.5 18.375C10.5 18.1429 10.4078 17.9204 10.2437 17.7563C10.0796 17.5922 9.85706 17.5 9.625 17.5ZM32.375 17.5C32.1429 17.5 31.9204 17.5922 31.7563 17.7563C31.5922 17.9204 31.5 18.1429 31.5 18.375C31.5 18.6071 31.5922 18.8296 31.7563 18.9937C31.9204 19.1578 32.1429 19.25 32.375 19.25C32.6071 19.25 32.8296 19.1578 32.9937 18.9937C33.1578 18.8296 33.25 18.6071 33.25 18.375C33.25 18.1429 33.1578 17.9204 32.9937 17.7563C32.8296 17.5922 32.6071 17.5 32.375 17.5ZM21 3.5C22.8565 3.5 24.637 4.2375 25.9497 5.55025C27.2625 6.86301 28 8.64348 28 10.5C28 12.3565 27.2625 14.137 25.9497 15.4497C24.637 16.7625 22.8565 17.5 21 17.5C19.1435 17.5 17.363 16.7625 16.0503 15.4497C14.7375 14.137 14 12.3565 14 10.5C14 8.64348 14.7375 6.86301 16.0503 5.55025C17.363 4.2375 19.1435 3.5 21 3.5V3.5ZM21 7C20.0717 7 19.1815 7.36875 18.5251 8.02513C17.8687 8.6815 17.5 9.57174 17.5 10.5C17.5 11.4283 17.8687 12.3185 18.5251 12.9749C19.1815 13.6313 20.0717 14 21 14C21.9283 14 22.8185 13.6313 23.4749 12.9749C24.1313 12.3185 24.5 11.4283 24.5 10.5C24.5 9.57174 24.1313 8.6815 23.4749 8.02513C22.8185 7.36875 21.9283 7 21 7V7Z" fill="#03336B"/>
</g>
<defs>
<clipPath id="clip0_590_4038">
<rect width="42" height="42" fill="white"/>
</clipPath>
</defs>
</svg>
