<svg width="42" height="42" viewBox="0 0 42 42" fill="none" xmlns="http://www.w3.org/2000/svg">
<g clip-path="url(#clip0_590_3289)">
<path d="M24.5 15.75V7H8.75V35H19.348C19.922 35.7297 20.615 36.3737 21.413 36.8987L23.8455 38.5H6.98775C6.52717 38.5 6.08543 38.3172 5.75959 37.9916C5.43375 37.6661 5.25046 37.2246 5.25 36.764V5.236C5.25 4.29625 6.03575 3.5 7.0035 3.5H26.2447L36.75 14V15.75H24.5ZM21 19.25H36.75V29.6607C36.75 31.3932 35.8732 33.0137 34.412 33.9745L28.875 37.6215L23.338 33.9745C22.6216 33.5057 22.0329 32.8662 21.6248 32.1136C21.2167 31.3609 21.002 30.5187 21 29.6625V19.25ZM24.5 29.6607C24.5 30.2137 24.7835 30.7352 25.263 31.052L28.875 33.432L32.487 31.052C32.7196 30.9016 32.9111 30.6957 33.0443 30.4528C33.1775 30.2099 33.2482 29.9377 33.25 29.6607V22.75H24.5V29.6607Z" fill="#03336B"/>
</g>
<defs>
<clipPath id="clip0_590_3289">
<rect width="42" height="42" fill="white"/>
</clipPath>
</defs>
</svg>
