<svg width="42" height="42" viewBox="0 0 42 42" fill="none" xmlns="http://www.w3.org/2000/svg">
<g clip-path="url(#clip0_590_3291)">
<path d="M21 3.5C30.6652 3.5 38.5 11.3348 38.5 21C38.5 30.6652 30.6652 38.5 21 38.5C11.3348 38.5 3.5 30.6652 3.5 21C3.5 11.3348 11.3348 3.5 21 3.5ZM21 7C13.2685 7 7 13.2685 7 21C7 28.7315 13.2685 35 21 35C28.7315 35 35 28.7315 35 21C35 13.2685 28.7315 7 21 7ZM21 8.75C22.7815 8.75 24.4737 9.12975 26.0015 9.814L23.2663 12.5475C22.5435 12.355 21.784 12.25 21 12.25C16.1683 12.25 12.25 16.1683 12.25 21C12.25 23.415 13.23 25.6025 14.812 27.188L12.3375 29.6625L12.0645 29.3807C10.01 27.1897 8.75 24.241 8.75 21C8.75 14.2345 14.2345 8.75 21 8.75ZM32.186 16.0002C32.8685 17.5262 33.25 19.2203 33.25 21C33.25 24.3827 31.878 27.4453 29.6625 29.6625L27.188 27.188C28.77 25.6025 29.75 23.415 29.75 21C29.75 20.216 29.6467 19.4565 29.4525 18.7337L32.186 16.0002ZM28.4235 11.1002L30.8997 13.5747L24.3827 20.0952C24.4597 20.384 24.5 20.6867 24.5 21C24.5 22.9338 22.9338 24.5 21 24.5C19.0662 24.5 17.5 22.9338 17.5 21C17.5 19.0662 19.0662 17.5 21 17.5C21.3133 17.5 21.616 17.5403 21.9048 17.6173L28.4253 11.1002H28.4235Z" fill="#03336B"/>
</g>
<defs>
<clipPath id="clip0_590_3291">
<rect width="42" height="42" fill="white"/>
</clipPath>
</defs>
</svg>
