<svg width="42" height="42" viewBox="0 0 42 42" fill="none" xmlns="http://www.w3.org/2000/svg">
<g clip-path="url(#clip0_590_4052)">
<path d="M3.5 31.5H15.75V35H3.5V31.5ZM3.5 19.25H19.25V22.75H3.5V19.25ZM3.5 7H38.5V10.5H3.5V7ZM36.1795 22.7937L38.2025 22.1095L39.9525 25.1405L38.3495 26.5492C38.5513 27.5059 38.5513 28.4941 38.3495 29.4508L39.9525 30.8595L38.2025 33.8905L36.1795 33.2063C35.462 33.8538 34.608 34.3525 33.6683 34.6588L33.25 36.75H29.75L29.33 34.657C28.4012 34.3535 27.5463 33.8587 26.8205 33.2045L24.7975 33.8905L23.0475 30.8595L24.6505 29.4508C24.4487 28.4941 24.4487 27.5059 24.6505 26.5492L23.0475 25.1405L24.7975 22.1095L26.8205 22.7937C27.538 22.1462 28.392 21.6475 29.3317 21.3412L29.75 19.25H33.25L33.67 21.343C34.608 21.6475 35.462 22.148 36.1795 22.7955V22.7937ZM31.5 29.75C31.9641 29.75 32.4092 29.5656 32.7374 29.2374C33.0656 28.9092 33.25 28.4641 33.25 28C33.25 27.5359 33.0656 27.0908 32.7374 26.7626C32.4092 26.4344 31.9641 26.25 31.5 26.25C31.0359 26.25 30.5908 26.4344 30.2626 26.7626C29.9344 27.0908 29.75 27.5359 29.75 28C29.75 28.4641 29.9344 28.9092 30.2626 29.2374C30.5908 29.5656 31.0359 29.75 31.5 29.75Z" fill="#03336B"/>
</g>
<defs>
<clipPath id="clip0_590_4052">
<rect width="42" height="42" fill="white"/>
</clipPath>
</defs>
</svg>
