<svg width="37" height="33" viewBox="0 0 37 33" fill="none" xmlns="http://www.w3.org/2000/svg">
<g clip-path="url(#clip0_590_3775)">
<path fill-rule="evenodd" clip-rule="evenodd" d="M0.607964 8.9668H1.06602V8.03189C1.06602 7.60458 1.24258 7.21693 1.52675 6.93405L1.52774 6.93305C1.8119 6.65116 2.204 6.47601 2.63441 6.47601H3.91763V3.7856C3.91763 1.70327 5.63427 0 7.73267 0H29.268C31.3664 0 33.083 1.70294 33.083 3.7856V6.47601H34.3663C34.796 6.47601 35.1878 6.65116 35.4719 6.93305L35.4739 6.93405C35.7581 7.21693 35.9346 7.60491 35.9346 8.03189V8.9668H36.3927C36.7272 8.9668 37 9.23746 37 9.56926V14.2214C37 14.5528 36.7272 14.8238 36.3927 14.8238H34.7977C34.4635 14.8238 34.1904 14.5532 34.1904 14.2214V9.56926C34.1904 9.23779 34.4632 8.9668 34.7977 8.9668H35.2557V8.03189C35.2557 7.78833 35.1564 7.56724 34.9962 7.40795L34.9942 7.40696C34.8336 7.24767 34.6108 7.14852 34.3663 7.14852H33.083V26.1578C33.083 28.0313 31.6922 29.5978 29.8846 29.8929V32.1983C29.8846 32.6395 29.5202 33 29.0754 33H26.8998C26.455 33 26.0906 32.6395 26.0906 32.1983V29.9424H10.9097V32.1983C10.9097 32.6395 10.5463 33 10.1006 33H7.92488C7.48015 33 7.1167 32.6395 7.1167 32.1983V29.8929C5.30846 29.5978 3.9183 28.0316 3.9183 26.1578V7.14852H2.63508C2.38956 7.14852 2.16669 7.24767 2.00612 7.40696L2.00512 7.40795C1.84455 7.56724 1.74461 7.78833 1.74461 8.03189V8.9668H2.20267C2.5368 8.9668 2.80997 9.23746 2.80997 9.56926V14.2214C2.80997 14.5528 2.53713 14.8238 2.20267 14.8238H0.608631C0.274166 14.8238 0.000331322 14.5532 0.000331322 14.2214V9.56926C0.000331322 9.23779 0.274166 8.9668 0.608631 8.9668H0.607964ZM25.6409 1.90354C25.6409 1.76474 25.5266 1.65139 25.3877 1.65139H11.613C11.4731 1.65139 11.3591 1.76474 11.3591 1.90354V3.71356C11.3591 3.85236 11.4734 3.96472 11.613 3.96472H25.3877C25.5266 3.96472 25.6409 3.85236 25.6409 3.71356V1.90354ZM25.0922 26.6261L29.6458 25.8307C30.3757 25.7034 31.0056 25.3323 31.0056 24.7226V23.1515C31.0056 22.5418 30.3154 21.7724 29.6458 22.0434L25.0922 23.8861C22.5397 24.9185 23.9759 26.8211 25.0922 26.6261ZM15.3024 28.525C15.3024 28.6638 15.4167 28.7769 15.5556 28.7769H21.4444C21.5843 28.7769 21.6982 28.6635 21.6982 28.525V26.715C21.6982 26.5762 21.584 26.4639 21.4444 26.4639H15.5556C15.4167 26.4639 15.3024 26.5762 15.3024 26.715V28.525ZM5.99438 24.7226C5.99438 25.3323 6.62433 25.7034 7.35523 25.8307L11.9078 26.6261C13.0644 26.8284 14.3497 24.8733 11.9078 23.8861L7.35523 22.0434C6.68563 21.7727 5.99438 22.5418 5.99438 23.1515V24.7226ZM5.6799 18.1183C5.6799 18.9716 6.38814 19.5787 7.24363 19.6696C14.7481 20.4641 22.2526 20.4641 29.756 19.6696C30.6115 19.5787 31.3198 18.9716 31.3198 18.1183V6.94627C31.3198 6.09298 30.6162 5.39502 29.756 5.39502H7.24363C6.38348 5.39502 5.6799 6.09298 5.6799 6.94627V18.1183Z" fill="#03336B"/>
</g>
<defs>
<clipPath id="clip0_590_3775">
<rect width="37" height="33" fill="white" transform="matrix(-1 0 0 1 37 0)"/>
</clipPath>
</defs>
</svg>
