<svg width="42" height="42" viewBox="0 0 42 42" fill="none" xmlns="http://www.w3.org/2000/svg">
<g clip-path="url(#clip0_314_3420)">
<path d="M12.25 12.25V5.25C12.25 4.78587 12.4344 4.34075 12.7626 4.01256C13.0908 3.68437 13.5359 3.5 14 3.5H36.75C37.2141 3.5 37.6592 3.68437 37.9874 4.01256C38.3156 4.34075 38.5 4.78587 38.5 5.25V28C38.5 28.4641 38.3156 28.9093 37.9874 29.2374C37.6592 29.5656 37.2141 29.75 36.75 29.75H29.75V36.7378C29.75 37.7108 28.9643 38.5 27.9878 38.5H5.26225C5.03076 38.5002 4.8015 38.4548 4.58759 38.3663C4.37368 38.2778 4.17932 38.148 4.01564 37.9844C3.85195 37.8207 3.72215 37.6263 3.63368 37.4124C3.5452 37.1985 3.49977 36.9692 3.5 36.7378L3.50525 14.0122C3.50525 13.0393 4.291 12.25 5.2675 12.25H12.25ZM15.75 12.25H27.9878C28.9608 12.25 29.75 13.0357 29.75 14.0122V26.25H35V7H15.75V12.25ZM26.25 15.75H7.00525L7 35H26.25V15.75ZM14.8803 31.5L8.69225 25.312L11.1668 22.8375L14.8803 26.551L22.3038 19.1257L24.7783 21.6003L14.8803 31.5Z" fill="#03336B"/>
</g>
<defs>
<clipPath id="clip0_314_3420">
<rect width="42" height="42" fill="white"/>
</clipPath>
</defs>
</svg>
