<svg width="40" height="40" viewBox="0 0 40 40" fill="none" xmlns="http://www.w3.org/2000/svg">
<rect x="1" y="1" width="38" height="38" rx="19" fill="#E5F1FF"/>
<rect x="1" y="1" width="38" height="38" rx="19" stroke="#42A5F5" stroke-width="2"/>
<g clip-path="url(#clip0_590_3126)">
<path d="M26 27.5H14C13.8011 27.5 13.6103 27.421 13.4697 27.2803C13.329 27.1397 13.25 26.9489 13.25 26.75V13.25C13.25 13.0511 13.329 12.8603 13.4697 12.7197C13.6103 12.579 13.8011 12.5 14 12.5H26C26.1989 12.5 26.3897 12.579 26.5303 12.7197C26.671 12.8603 26.75 13.0511 26.75 13.25V26.75C26.75 26.9489 26.671 27.1397 26.5303 27.2803C26.3897 27.421 26.1989 27.5 26 27.5ZM17 16.25V17.75H23V16.25H17ZM17 19.25V20.75H23V19.25H17ZM17 22.25V23.75H23V22.25H17Z" fill="#1976D2"/>
</g>
<defs>
<clipPath id="clip0_590_3126">
<rect width="18" height="18" fill="white" transform="translate(11 11)"/>
</clipPath>
</defs>
</svg>
