<svg width="42" height="42" viewBox="0 0 42 42" fill="none" xmlns="http://www.w3.org/2000/svg">
<g clip-path="url(#clip0_590_4100)">
<path d="M7 31.5H16.625V33.6875C16.625 34.9639 16.118 36.1879 15.2155 37.0905C14.3129 37.993 13.0889 38.5 11.8125 38.5C10.5361 38.5 9.31207 37.993 8.40955 37.0905C7.50703 36.1879 7 34.9639 7 33.6875V31.5ZM14.1015 24.5L14.1803 24.269C15.5225 20.5835 15.75 19.8975 15.75 19.25C15.75 17.9375 15.3948 16.3748 14.826 15.2723C14.4025 14.4498 14.105 14.21 14 14.21C11.76 14.21 9.625 16.597 9.625 19.25C9.625 20.9283 9.75625 22.3528 10.0223 24.0765L10.0888 24.5H14.1015ZM14 10.71C17.5 10.71 19.25 15.75 19.25 19.25C19.25 21 18.375 22.75 17.5 25.375L16.625 28H7C7 26.25 6.125 23.625 6.125 19.25C6.125 14.875 9.6215 10.71 14 10.71ZM35.0945 24.6715L34.7148 26.8258C34.4931 28.0829 33.7812 29.2004 32.7356 29.9326C31.69 30.6648 30.3963 30.9516 29.1392 30.73C27.8822 30.5084 26.7646 29.7965 26.0324 28.7509C25.3002 27.7053 25.0134 26.4116 25.235 25.1545L25.6165 23.002L35.0945 24.6715ZM33.257 17.241C33.5458 16.366 33.7838 15.6748 33.7873 15.666C34.1408 14.5145 34.419 13.3858 34.636 12.152C35.0963 9.54102 33.4075 6.81977 31.2025 6.42952C31.0993 6.41202 30.765 6.59577 30.205 7.33077C29.4525 8.31952 28.833 9.79827 28.6038 11.088C28.5023 11.6655 28.518 11.7968 29.0763 15.0483C29.155 15.4963 29.2198 15.8988 29.2793 16.303L29.3143 16.5445L33.2588 17.241H33.257ZM31.8115 2.98377C36.1235 3.74327 38.843 8.45077 38.0835 12.7593C37.324 17.0695 36.0063 19.502 35.7035 21.2258L26.2238 19.5545L25.8178 16.8175C25.4118 14.0805 24.8553 12.2045 25.158 10.4825C25.7653 7.03502 28.364 2.37652 31.8115 2.98377V2.98377Z" fill="#03336B"/>
</g>
<defs>
<clipPath id="clip0_590_4100">
<rect width="42" height="42" fill="white"/>
</clipPath>
</defs>
</svg>
