<svg width="42" height="42" viewBox="0 0 42 42" fill="none" xmlns="http://www.w3.org/2000/svg">
<g clip-path="url(#clip0_590_4036)">
<path d="M21 38.5C11.3348 38.5 3.5 30.6652 3.5 21C3.5 11.3348 11.3348 3.5 21 3.5C30.6652 3.5 38.5 11.3348 38.5 21C38.5 30.6652 30.6652 38.5 21 38.5ZM16.9925 34.4172C15.266 30.755 14.2658 26.7929 14.0473 22.75H7.1085C7.44903 25.4431 8.56436 27.9793 10.319 30.0505C12.0736 32.1217 14.392 33.6387 16.9925 34.4172V34.4172ZM17.5525 22.75C17.8167 27.0182 19.0365 31.0275 21 34.566C23.0166 30.934 24.1945 26.8966 24.4475 22.75H17.5525V22.75ZM34.8915 22.75H27.9527C27.7342 26.7929 26.734 30.755 25.0075 34.4172C27.608 33.6387 29.9264 32.1217 31.681 30.0505C33.4356 27.9793 34.551 25.4431 34.8915 22.75V22.75ZM7.1085 19.25H14.0473C14.2658 15.2071 15.266 11.245 16.9925 7.58275C14.392 8.36129 12.0736 9.87832 10.319 11.9495C8.56436 14.0207 7.44903 16.5569 7.1085 19.25V19.25ZM17.5543 19.25H24.4457C24.1933 15.1035 23.0159 11.0662 21 7.434C18.9834 11.066 17.8055 15.1034 17.5525 19.25H17.5543ZM25.0075 7.58275C26.734 11.245 27.7342 15.2071 27.9527 19.25H34.8915C34.551 16.5569 33.4356 14.0207 31.681 11.9495C29.9264 9.87832 27.608 8.36129 25.0075 7.58275V7.58275Z" fill="#03336B"/>
</g>
<defs>
<clipPath id="clip0_590_4036">
<rect width="42" height="42" fill="white"/>
</clipPath>
</defs>
</svg>
