<svg width="42" height="42" viewBox="0 0 42 42" fill="none" xmlns="http://www.w3.org/2000/svg">
<g clip-path="url(#clip0_590_4128)">
<path d="M10.9113 11.2928C8.68007 13.6085 7.31412 16.6218 7.043 19.826C6.77187 23.0303 7.6121 26.2302 9.42245 28.888C11.2328 31.5457 13.9029 33.4992 16.9839 34.4201C20.065 35.341 23.3691 35.1731 26.341 33.9447C26.5423 32.6322 26.1013 31.3722 25.921 30.9312C25.5185 29.9512 24.192 28.2765 21.9783 25.9543C21.3868 25.333 21.4253 24.8553 21.637 23.4395L21.6597 23.2803C21.8032 22.3108 22.0447 21.7368 25.3085 21.2188C26.9675 20.9562 27.4032 21.6178 28.007 22.5365L28.21 22.8375C28.784 23.6775 29.2093 23.87 29.8515 24.1605C30.1403 24.2917 30.499 24.458 30.9802 24.7292C32.1212 25.382 32.1212 26.1188 32.1212 27.7323V27.916C32.1212 28.6002 32.0547 29.2023 31.9497 29.7255C33.2926 28.0401 34.2284 26.0675 34.6843 23.9613C35.1401 21.8551 35.1037 19.6721 34.5779 17.5823C34.0521 15.4925 33.0511 13.5522 31.6528 11.9125C30.2545 10.2728 28.4966 8.97795 26.516 8.12875C25.5483 8.7815 24.22 9.70725 23.7562 10.3425C23.52 10.6662 23.184 12.3235 22.0938 12.46C21.8102 12.495 21.427 12.4705 21.021 12.4443C19.9325 12.3743 18.445 12.278 17.969 13.5713C17.6662 14.3903 17.6137 16.6162 18.592 17.7712C18.7495 17.955 18.7793 18.2962 18.6725 18.6795C18.5325 19.1817 18.2508 19.488 18.1615 19.551C17.9935 19.453 17.6575 19.0627 17.4282 18.7985C16.8805 18.1597 16.1945 17.3635 15.309 17.1185C14.987 17.0292 14.6335 16.9558 14.2887 16.8823C13.328 16.681 12.2412 16.4518 11.9875 15.9128C11.802 15.5173 11.8037 14.973 11.8037 14.399C11.8037 13.6692 11.8037 12.845 11.4467 12.0452C11.3226 11.7598 11.1402 11.5035 10.9113 11.2928V11.2928ZM21 38.5C11.3348 38.5 3.5 30.6652 3.5 21C3.5 11.3348 11.3348 3.5 21 3.5C30.6652 3.5 38.5 11.3348 38.5 21C38.5 30.6652 30.6652 38.5 21 38.5Z" fill="#03336B"/>
</g>
<defs>
<clipPath id="clip0_590_4128">
<rect width="42" height="42" fill="white"/>
</clipPath>
</defs>
</svg>
