<svg width="41" height="40" viewBox="0 0 41 40" fill="none" xmlns="http://www.w3.org/2000/svg">
<rect x="1.73584" y="1" width="38" height="38" rx="19" fill="#E5F1FF"/>
<rect x="1.73584" y="1" width="38" height="38" rx="19" stroke="#42A5F5" stroke-width="2"/>
<g clip-path="url(#clip0_41_859)">
<path d="M20.7359 12.5C22.1283 12.5 23.4636 13.0531 24.4482 14.0377C25.4328 15.0223 25.9859 16.3576 25.9859 17.75H26.7914C26.9803 17.75 27.1623 17.8213 27.3009 17.9496C27.4395 18.078 27.5246 18.2539 27.5391 18.4423L28.1736 26.6923C28.189 26.8906 28.1249 27.0868 27.9955 27.2379C27.8661 27.389 27.682 27.4824 27.4836 27.4977L27.4259 27.5H14.0459C13.847 27.5 13.6562 27.421 13.5156 27.2803C13.3749 27.1397 13.2959 26.9489 13.2959 26.75L13.2981 26.6923L13.9326 18.4423C13.9472 18.2539 14.0323 18.078 14.1709 17.9496C14.3095 17.8213 14.4915 17.75 14.6804 17.75H15.4859C15.4859 16.3576 16.039 15.0223 17.0236 14.0377C18.0082 13.0531 19.3435 12.5 20.7359 12.5V12.5ZM22.2359 20.75H19.2359V22.25H22.2359V20.75ZM20.7359 14C19.7696 14.0001 18.8405 14.3732 18.1426 15.0415C17.4446 15.7098 17.0316 16.6218 16.9896 17.5872L16.9859 17.75H24.4859C24.4858 16.7837 24.1127 15.8546 23.4444 15.1567C22.7761 14.4587 21.8641 14.0457 20.8986 14.0038L20.7359 14Z" fill="#1976D2"/>
</g>
<defs>
<clipPath id="clip0_41_859">
<rect width="18" height="18" fill="white" transform="translate(11.7358 11)"/>
</clipPath>
</defs>
</svg>
