<svg width="42" height="42" viewBox="0 0 42 42" fill="none" xmlns="http://www.w3.org/2000/svg">
<g clip-path="url(#clip0_314_3412)">
<path d="M17.5 19.25V14L26.25 21L17.5 28V22.75H1.75V19.25H17.5ZM4.3015 26.25H8.0185C9.24008 29.2584 11.469 31.7489 14.324 33.2954C17.1789 34.8419 20.4825 35.3485 23.6697 34.7283C26.8569 34.1082 29.7295 32.3999 31.7963 29.8957C33.8631 27.3915 34.9956 24.2469 35 21C35.0018 17.7497 33.8726 14.6 31.8061 12.0911C29.7395 9.58232 26.8645 7.87072 23.6739 7.24992C20.4834 6.62912 17.1763 7.1378 14.3199 8.68871C11.4634 10.2396 9.23557 12.7361 8.0185 15.75H4.3015C6.531 8.65025 13.1635 3.5 21 3.5C30.6652 3.5 38.5 11.3348 38.5 21C38.5 30.6652 30.6652 38.5 21 38.5C13.1635 38.5 6.531 33.3498 4.3015 26.25Z" fill="#03336B"/>
</g>
<defs>
<clipPath id="clip0_314_3412">
<rect width="42" height="42" fill="white"/>
</clipPath>
</defs>
</svg>
