<svg width="71" height="71" viewBox="0 0 71 71" fill="none" xmlns="http://www.w3.org/2000/svg">
<g clip-path="url(#clip0_1_358)">
<path d="M44.8394 36.2033L47.1543 35.2107C47.5442 35.0458 47.994 35.1117 48.3148 35.3876L50.234 37.0159C50.8997 37.5827 51.9283 37.1958 52.0572 36.3322L52.0932 36.0983C52.1382 35.8134 52.0662 35.5196 51.8983 35.2857L50.282 33.0186C50.0961 32.7548 50.0331 32.4249 50.1081 32.113L51.1846 27.573C51.3495 26.8713 52.1292 26.5115 52.7709 26.8353L57.158 29.0574C57.3199 29.1383 57.4938 29.1773 57.6588 29.1773C58.1865 29.1773 58.6783 28.7995 58.7623 28.2297C58.8193 27.8579 58.6843 27.4831 58.4054 27.2342L52.6389 22.0584C52.3601 21.8095 52.2281 21.4347 52.2821 21.0659L52.45 19.9504C52.612 18.8858 52.489 17.7973 52.0932 16.7957L51.3795 14.9785C51.1906 14.5017 50.5549 14.4058 50.237 14.8076L48.8306 16.5678C48.2819 17.2545 47.925 18.0762 47.7931 18.9458L47.5802 20.3552C47.5232 20.727 47.2863 21.0449 46.9444 21.2038L45.2262 21.9955" stroke="#03336B" stroke-width="2.09908" stroke-linecap="round" stroke-linejoin="round"/>
<path d="M44.2964 25.9207L45.4089 25.7288C46.1196 25.6058 46.7583 26.1816 46.7073 26.9013L46.3955 31.5582C46.3745 31.8761 46.2155 32.17 45.9607 32.3649L45.115 33.0156" stroke="#03336B" stroke-width="2.09908" stroke-linecap="round" stroke-linejoin="round"/>
<path d="M38.9798 1.04956L47.778 2.16507C48.3028 2.23104 48.7166 2.65686 48.7496 3.18463C48.8785 5.48163 50.6327 7.43077 52.9957 7.73064C55.3617 8.03051 57.5477 6.58215 58.2464 4.3901C58.4083 3.88332 58.9151 3.57446 59.4399 3.64043L68.2381 4.75594C68.8498 4.83391 69.2816 5.39167 69.2036 6.0034L63.5151 50.9118L61.2271 68.9759C61.1491 69.5846 60.5914 70.0195 59.9827 69.9415L51.1845 68.826C50.6597 68.76 50.2429 68.3342 50.2129 67.8064C50.081 65.5094 48.3267 63.5573 45.9638 63.2604C43.5978 62.9605 41.4148 64.4089 40.7161 66.6009C40.5541 67.1047 40.0474 67.4166 39.5196 67.3476L30.7214 66.2351" stroke="#03336B" stroke-width="2.09908" stroke-linecap="round" stroke-linejoin="round"/>
<path d="M63.5152 50.9118L46.9294 48.8127" stroke="#03336B" stroke-width="2.09908" stroke-linecap="round" stroke-linejoin="round"/>
<path d="M55.2507 54.867L46.5186 53.7605" stroke="#03336B" stroke-width="2.09908" stroke-linecap="round" stroke-linejoin="round"/>
<path d="M54.5551 60.3427L46.9294 59.3771" stroke="#03336B" stroke-width="2.09908" stroke-linecap="round" stroke-linejoin="round"/>
<path d="M37.0668 4.90881H3.82335C2.29143 4.90881 1.04956 6.15068 1.04956 7.6826V58.9242C1.04956 60.4562 2.29143 61.698 3.82335 61.698H37.0668C38.5988 61.698 39.8406 60.4562 39.8406 58.9242V7.6826C39.8406 6.15068 38.5988 4.90881 37.0668 4.90881Z" stroke="#03336B" stroke-width="2.09908" stroke-linecap="round" stroke-linejoin="round"/>
<path d="M23.4807 44.5199C30.8917 42.843 35.54 35.4758 33.8631 28.0648C32.1862 20.6538 24.819 16.0055 17.408 17.6824C9.99704 19.3593 5.34868 26.7265 7.02561 34.1375C8.70254 41.5485 16.0697 46.1968 23.4807 44.5199Z" stroke="#03336B" stroke-width="2.09908" stroke-linecap="round" stroke-linejoin="round"/>
<path d="M20.445 44.8574C23.5851 44.8574 26.1306 38.6978 26.1306 31.0994C26.1306 23.5011 23.5851 17.3414 20.445 17.3414C17.305 17.3414 14.7595 23.5011 14.7595 31.0994C14.7595 38.6978 17.305 44.8574 20.445 44.8574Z" stroke="#03336B" stroke-width="2.09908" stroke-linecap="round" stroke-linejoin="round"/>
<path d="M7.13696 27.606H14.9486H25.9447H33.7563" stroke="#03336B" stroke-width="2.09908" stroke-linecap="round" stroke-linejoin="round"/>
<path d="M7.13696 34.5929H14.9486H25.9447H33.7563" stroke="#03336B" stroke-width="2.09908" stroke-linecap="round" stroke-linejoin="round"/>
<path d="M6.78296 49.2834H34.107" stroke="#03336B" stroke-width="2.09908" stroke-linecap="round" stroke-linejoin="round"/>
<path d="M6.78296 11.8868H34.107" stroke="#03336B" stroke-width="2.09908" stroke-linecap="round" stroke-linejoin="round"/>
<path d="M12.7803 54.6902H28.1096" stroke="#03336B" stroke-width="2.09908" stroke-linecap="round" stroke-linejoin="round"/>
</g>
<defs>
<clipPath id="clip0_1_358">
<rect width="70.2623" height="71" fill="white"/>
</clipPath>
</defs>
</svg>
