<svg width="42" height="42" viewBox="0 0 42 42" fill="none" xmlns="http://www.w3.org/2000/svg">
<g clip-path="url(#clip0_590_4098)">
<path d="M9.56025 7.75777C12.7357 5.00617 16.7982 3.49416 21 3.50002C30.6652 3.50002 38.5 11.3348 38.5 21C38.5 24.738 37.3275 28.203 35.3325 31.045L29.75 21H35C35.0002 18.2554 34.1937 15.5712 32.6807 13.2812C31.1676 10.9913 29.0149 9.19654 26.4901 8.12023C23.9652 7.04392 21.1798 6.73349 18.4799 7.22755C15.7801 7.7216 13.285 8.99834 11.305 10.899L9.56025 7.75777ZM32.4398 34.2423C29.2643 36.9939 25.2018 38.5059 21 38.5C11.3348 38.5 3.5 30.6653 3.5 21C3.5 17.262 4.6725 13.797 6.6675 10.955L12.25 21H7C6.99977 23.7447 7.80632 26.4289 9.31934 28.7188C10.8324 31.0088 12.9851 32.8035 15.5099 33.8798C18.0348 34.9561 20.8202 35.2665 23.5201 34.7725C26.2199 34.2784 28.715 33.0017 30.695 31.101L32.4398 34.2423Z" fill="#03336B"/>
</g>
<defs>
<clipPath id="clip0_590_4098">
<rect width="42" height="42" fill="white"/>
</clipPath>
</defs>
</svg>
