<svg width="32" height="27" viewBox="0 0 32 27" fill="none" xmlns="http://www.w3.org/2000/svg">
<g clip-path="url(#clip0_590_3769)">
<path fill-rule="evenodd" clip-rule="evenodd" d="M12.1507 20.3534H19.8495C20.1247 20.3534 20.3487 20.5825 20.3487 20.86V21.7729C20.3487 22.0522 20.1229 22.2795 19.8495 22.2795H12.1507C11.8756 22.2795 11.6516 22.0504 11.6516 21.7729V20.86C11.6516 20.5807 11.8773 20.3534 12.1507 20.3534ZM12.8915 0.862826H14.5159V1.29961H13.9709V2.62428H13.4365V1.29961H12.8915V0.862826ZM18.5761 0.862826V2.62428H19.1158V0.862826H18.5761ZM18.3309 0.862826H17.7507L17.4508 1.40522L17.1457 0.862826H16.5566L17.0963 1.70596L16.5019 2.62428H17.0963L17.442 2.05682L17.7824 2.62428H18.3874L17.7983 1.7167L18.3327 0.864616L18.3309 0.862826ZM15.6606 2.33428H15.0503L14.9657 2.62428H14.4207L15.0697 0.862826H15.6553L16.3061 2.62428H15.747L15.6624 2.33428H15.6606ZM15.5459 1.95299L15.3555 1.3193L15.165 1.95299H15.5442H15.5459ZM21.6451 2.91248L20.585 0.639064C20.4157 0.279255 19.9801 0 19.585 0H12.4153C12.0202 0 11.5845 0.279255 11.4152 0.639064L10.3552 2.91248H10.1047C8.63904 2.91248 7.01461 3.77531 6.24561 5.03912L4.03561 8.64616H1.22064C-0.0739601 8.64616 -0.499028 10.7209 0.735608 11.1129L2.23481 11.5891L1.55929 12.6954C0.698569 14.1006 0.504555 16.5154 0.504555 18.7584V26.1873C0.504555 26.633 0.864363 27 1.3053 27H4.70584C5.14502 27 5.50659 26.6348 5.50659 26.1873V24.2092H26.4954V26.1873C26.4954 26.633 26.8552 27 27.2962 27H30.6967C31.1359 27 31.4974 26.6348 31.4974 26.1873V18.7584C31.4974 16.5154 31.3017 14.1006 30.4427 12.6954L29.7672 11.5891L31.2664 11.1129C32.501 10.7227 32.076 8.64616 30.7814 8.64616H27.9664L25.7564 5.03912C24.9856 3.77531 23.3612 2.91248 21.8973 2.91248H21.6468H21.6451ZM26.9346 11.5891H5.06565C4.55592 11.5891 4.30018 11.1022 4.57533 10.6511L7.52081 5.84108C8.01996 5.0248 9.16641 4.43586 10.1065 4.43586H21.8955C22.8356 4.43586 23.9803 5.0248 24.4794 5.84108L27.4249 10.6511C27.7001 11.1022 27.4443 11.5891 26.9346 11.5891ZM4.79051 14.7862L7.51023 15.7707C7.98998 15.948 8.33567 16.4152 8.33567 16.9683C8.33567 17.6682 7.78009 18.2375 7.08516 18.2375H4.19964C3.23486 18.2375 2.44999 17.4409 2.44999 16.4617C2.44999 15.4825 3.23486 14.6859 4.19964 14.6859C4.40953 14.6859 4.60531 14.7217 4.78874 14.788L4.79051 14.7862ZM27.2097 14.7862C27.3949 14.7199 27.5889 14.6841 27.7988 14.6841C28.7636 14.6841 29.5485 15.4754 29.5485 16.4599C29.5485 17.4445 28.7636 18.2357 27.7988 18.2357H24.9133C24.2237 18.2357 23.6628 17.6682 23.6628 16.9665C23.6628 16.4134 24.0085 15.9462 24.4935 15.7689L27.208 14.7844L27.2097 14.7862Z" fill="#03336B"/>
</g>
<defs>
<clipPath id="clip0_590_3769">
<rect width="32" height="27" fill="white"/>
</clipPath>
</defs>
</svg>
