<svg width="73" height="73" viewBox="0 0 73 73" fill="none" xmlns="http://www.w3.org/2000/svg">
<rect x="2" y="2" width="69" height="69" rx="34.5" fill="#E5F1FF"/>
<rect x="2" y="2" width="69" height="69" rx="34.5" stroke="#03336B" stroke-width="4"/>
<g clip-path="url(#clip0_314_3501)">
<path d="M46.6667 50.3334H25.3333C24.9797 50.3334 24.6406 50.1929 24.3905 49.9428C24.1405 49.6928 24 49.3536 24 49V25C24 24.6464 24.1405 24.3073 24.3905 24.0572C24.6406 23.8072 24.9797 23.6667 25.3333 23.6667H46.6667C47.0203 23.6667 47.3594 23.8072 47.6095 24.0572C47.8595 24.3073 48 24.6464 48 25V49C48 49.3536 47.8595 49.6928 47.6095 49.9428C47.3594 50.1929 47.0203 50.3334 46.6667 50.3334ZM45.3333 47.6667V26.3334H26.6667V47.6667H45.3333ZM29.3333 29H34.6667V34.3334H29.3333V29ZM29.3333 37H42.6667V39.6667H29.3333V37ZM29.3333 42.3334H42.6667V45H29.3333V42.3334ZM37.3333 30.3334H42.6667V33H37.3333V30.3334Z" fill="#03336B"/>
</g>
<defs>
<clipPath id="clip0_314_3501">
<rect width="32" height="32" fill="white" transform="translate(20 21)"/>
</clipPath>
</defs>
</svg>
