<svg width="73" height="73" viewBox="0 0 73 73" fill="none" xmlns="http://www.w3.org/2000/svg">
<rect x="2" y="2" width="69" height="69" rx="34.5" fill="#E5F1FF"/>
<rect x="2" y="2" width="69" height="69" rx="34.5" stroke="#03336B" stroke-width="4"/>
<g clip-path="url(#clip0_314_3467)">
<path d="M36 50.3333C28.636 50.3333 22.6667 44.364 22.6667 37C22.6667 29.636 28.636 23.6667 36 23.6667C43.364 23.6667 49.3333 29.636 49.3333 37C49.3333 44.364 43.364 50.3333 36 50.3333ZM32.9467 47.2227C31.6312 44.4324 30.8692 41.4136 30.7027 38.3333H25.416C25.6754 40.3852 26.5252 42.3176 27.8621 43.8956C29.1989 45.4737 30.9653 46.6295 32.9467 47.2227ZM33.3733 38.3333C33.5747 41.5853 34.504 44.64 36 47.336C37.5364 44.5687 38.4339 41.4926 38.6267 38.3333H33.3733ZM46.584 38.3333H41.2973C41.1308 41.4136 40.3688 44.4324 39.0533 47.2227C41.0346 46.6295 42.801 45.4737 44.1379 43.8956C45.4748 42.3176 46.3245 40.3852 46.584 38.3333ZM25.416 35.6667H30.7027C30.8692 32.5864 31.6312 29.5676 32.9467 26.7773C30.9653 27.3705 29.1989 28.5263 27.8621 30.1044C26.5252 31.6825 25.6754 33.6148 25.416 35.6667ZM33.3747 35.6667H38.6253C38.433 32.5075 37.5359 29.4314 36 26.664C34.4636 29.4313 33.5661 32.5074 33.3733 35.6667H33.3747ZM39.0533 26.7773C40.3688 29.5676 41.1308 32.5864 41.2973 35.6667H46.584C46.3245 33.6148 45.4748 31.6825 44.1379 30.1044C42.801 28.5263 41.0346 27.3705 39.0533 26.7773Z" fill="#03336B"/>
</g>
<defs>
<clipPath id="clip0_314_3467">
<rect width="32" height="32" fill="white" transform="translate(20 21)"/>
</clipPath>
</defs>
</svg>
