<svg width="73" height="73" viewBox="0 0 73 73" fill="none" xmlns="http://www.w3.org/2000/svg">
<rect x="2" y="2" width="69" height="69" rx="34.5" fill="#E5F1FF"/>
<rect x="2" y="2" width="69" height="69" rx="34.5" stroke="#03336B" stroke-width="4"/>
<g clip-path="url(#clip0_314_3490)">
<path d="M22.6667 26.324C22.6691 25.9738 22.8092 25.6387 23.0567 25.391C23.3042 25.1432 23.6392 25.0028 23.9893 25H48.0107C48.7413 25 49.3333 25.5933 49.3333 26.324V47.676C49.3309 48.0262 49.1908 48.3613 48.9433 48.609C48.6958 48.8568 48.3608 48.9972 48.0107 49H23.9893C23.6384 48.9996 23.302 48.86 23.054 48.6117C22.806 48.3635 22.6667 48.0269 22.6667 47.676V26.324ZM25.3333 27.6667V46.3333H46.6667V27.6667H25.3333ZM28 30.3333H36V38.3333H28V30.3333ZM30.6667 33V35.6667H33.3333V33H30.6667ZM28 41H44V43.6667H28V41ZM38.6667 30.3333H44V33H38.6667V30.3333ZM38.6667 35.6667H44V38.3333H38.6667V35.6667Z" fill="#03336B"/>
</g>
<defs>
<clipPath id="clip0_314_3490">
<rect width="32" height="32" fill="white" transform="translate(20 21)"/>
</clipPath>
</defs>
</svg>
