<svg width="73" height="73" viewBox="0 0 73 73" fill="none" xmlns="http://www.w3.org/2000/svg">
<rect x="2" y="2" width="69" height="69" rx="34.5" fill="#E5F1FF"/>
<rect x="2" y="2" width="69" height="69" rx="34.5" stroke="#03336B" stroke-width="4"/>
<g clip-path="url(#clip0_314_3479)">
<path d="M24 27.66C24 26.1907 25.1907 25 26.66 25H45.34C46.8093 25 48 26.1907 48 27.66V46.34C48 47.0455 47.7198 47.7221 47.2209 48.2209C46.7221 48.7198 46.0455 49 45.34 49H26.66C25.9545 49 25.2779 48.7198 24.7791 48.2209C24.2802 47.7221 24 47.0455 24 46.34V27.66ZM26.6667 27.6667V46.3333H45.3333V27.6667H26.6667ZM30.6293 45.24C29.8093 44.8848 29.0271 44.4479 28.2947 43.936C29.1404 42.6254 30.3013 41.5478 31.6712 40.8019C33.0411 40.0561 34.5762 39.6657 36.136 39.6667C39.336 39.6667 42.1587 41.276 43.84 43.7293C43.1215 44.2608 42.3514 44.7187 41.5413 45.096C40.9239 44.24 40.1117 43.5431 39.1719 43.0627C38.232 42.5824 37.1915 42.3324 36.136 42.3333C33.8493 42.3333 31.8293 43.4853 30.6293 45.24ZM36 38.3333C35.3872 38.3333 34.7803 38.2126 34.2141 37.9781C33.648 37.7436 33.1335 37.3998 32.7002 36.9665C32.2668 36.5332 31.9231 36.0187 31.6886 35.4525C31.454 34.8863 31.3333 34.2795 31.3333 33.6667C31.3333 33.0538 31.454 32.447 31.6886 31.8808C31.9231 31.3146 32.2668 30.8002 32.7002 30.3668C33.1335 29.9335 33.648 29.5898 34.2141 29.3552C34.7803 29.1207 35.3872 29 36 29C37.2377 29 38.4247 29.4917 39.2998 30.3668C40.175 31.242 40.6667 32.429 40.6667 33.6667C40.6667 34.9043 40.175 36.0913 39.2998 36.9665C38.4247 37.8417 37.2377 38.3333 36 38.3333ZM36 35.6667C36.5304 35.6667 37.0391 35.456 37.4142 35.0809C37.7893 34.7058 38 34.1971 38 33.6667C38 33.1362 37.7893 32.6275 37.4142 32.2525C37.0391 31.8774 36.5304 31.6667 36 31.6667C35.4696 31.6667 34.9609 31.8774 34.5858 32.2525C34.2107 32.6275 34 33.1362 34 33.6667C34 34.1971 34.2107 34.7058 34.5858 35.0809C34.9609 35.456 35.4696 35.6667 36 35.6667Z" fill="#03336B"/>
</g>
<defs>
<clipPath id="clip0_314_3479">
<rect width="32" height="32" fill="white" transform="translate(20 21)"/>
</clipPath>
</defs>
</svg>
