<svg width="42" height="42" viewBox="0 0 42 42" fill="none" xmlns="http://www.w3.org/2000/svg">
<g clip-path="url(#clip0_590_4084)">
<path d="M5.25 5.25H36.75C37.2141 5.25 37.6592 5.43437 37.9874 5.76256C38.3156 6.09075 38.5 6.53587 38.5 7V35C38.5 35.4641 38.3156 35.9092 37.9874 36.2374C37.6592 36.5656 37.2141 36.75 36.75 36.75H5.25C4.78587 36.75 4.34075 36.5656 4.01256 36.2374C3.68437 35.9092 3.5 35.4641 3.5 35V7C3.5 6.53587 3.68437 6.09075 4.01256 5.76256C4.34075 5.43437 4.78587 5.25 5.25 5.25V5.25ZM35 19.25H7V33.25H35V19.25ZM35 15.75V8.75H7V15.75H35ZM15.75 10.5H19.25V14H15.75V10.5ZM8.75 10.5H12.25V14H8.75V10.5Z" fill="#03336B"/>
</g>
<defs>
<clipPath id="clip0_590_4084">
<rect width="42" height="42" fill="white"/>
</clipPath>
</defs>
</svg>
