<svg width="92" height="90" viewBox="0 0 92 90" fill="none" xmlns="http://www.w3.org/2000/svg">
<rect x="14" y="12" width="69" height="69" rx="34.5" fill="#E5F1FF"/>
<rect x="14" y="12" width="69" height="69" rx="34.5" stroke="#03336B" stroke-width="4"/>
<g clip-path="url(#clip0_561_2493)">
<path d="M37.3334 50.9999V42.3333C37.3334 40.742 37.9655 39.2158 39.0907 38.0906C40.216 36.9654 41.7421 36.3333 43.3334 36.3333C44.9247 36.3333 46.4508 36.9654 47.576 38.0906C48.7012 39.2158 49.3334 40.742 49.3334 42.3333V51.6666C49.3334 52.5506 49.6846 53.3985 50.3097 54.0236C50.9348 54.6487 51.7827 54.9999 52.6667 54.9999C53.5508 54.9999 54.3986 54.6487 55.0237 54.0236C55.6489 53.3985 56 52.5506 56 51.6666V42.7733C55.1101 42.4587 54.3599 41.8397 53.8822 41.0255C53.4045 40.2114 53.2301 39.2546 53.3896 38.3242C53.5492 37.3938 54.0325 36.5499 54.7542 35.9414C55.4759 35.333 56.3894 34.9993 57.3334 34.9993C58.2773 34.9993 59.1909 35.333 59.9125 35.9414C60.6342 36.5499 61.1176 37.3938 61.2771 38.3242C61.4367 39.2546 61.2622 40.2114 60.7845 41.0255C60.3068 41.8397 59.5567 42.4587 58.6667 42.7733V51.6666C58.6667 53.2579 58.0346 54.784 56.9093 55.9092C55.7841 57.0344 54.258 57.6666 52.6667 57.6666C51.0754 57.6666 49.5493 57.0344 48.4241 55.9092C47.2988 54.784 46.6667 53.2579 46.6667 51.6666V42.3333C46.6667 41.4492 46.3155 40.6014 45.6904 39.9762C45.0653 39.3511 44.2174 38.9999 43.3334 38.9999C42.4493 38.9999 41.6015 39.3511 40.9764 39.9762C40.3512 40.6014 40 41.4492 40 42.3333V50.9999H44L38.6667 57.6666L33.3334 50.9999H37.3334Z" fill="#03336B"/>
</g>
<rect x="10" y="10" width="24" height="24" rx="12" fill="#42A5F5"/>
<path d="M21.976 26H19.416C19.848 22.72 21.112 19.952 22.904 17.584H17.848V15.712H25.496V17.248C23.432 20.016 22.232 22.96 21.976 26Z" fill="white"/>
<defs>
<clipPath id="clip0_561_2493">
<rect width="32" height="32" fill="white" transform="translate(32 31)"/>
</clipPath>
</defs>
</svg>
