<svg width="92" height="90" viewBox="0 0 92 90" fill="none" xmlns="http://www.w3.org/2000/svg">
<rect x="15" y="13" width="69" height="69" rx="34.5" fill="#E5F1FF"/>
<rect x="15" y="13" width="69" height="69" rx="34.5" stroke="#03336B" stroke-width="4"/>
<g clip-path="url(#clip0_561_2499)">
<path d="M49 49.3334C51.2093 49.3334 53 51.1241 53 53.3334C53 54.4667 52.5293 55.4881 51.7733 56.2161L49.2266 58.6667H53V61.3334H45V59.0347L49.924 54.2947C50.1773 54.0507 50.3333 53.7107 50.3333 53.3334C50.3333 52.5974 49.736 52.0001 49 52.0001C48.264 52.0001 47.6666 52.5974 47.6666 53.3334H45C45 51.1241 46.7906 49.3334 49 49.3334ZM57 49.3334V54.6667H59.6666V49.3334H62.3333V61.3334H59.6666V57.3334H54.3333V49.3334H57ZM38.3333 48.0001C38.3333 51.3694 39.8946 54.3734 42.3333 56.3281V59.5494C38.348 57.2441 35.6666 52.9361 35.6666 48.0001H38.3333ZM49 34.6667C55.9133 34.6667 61.5986 39.9294 62.2666 46.6667H59.584C58.928 41.4054 54.44 37.3334 49 37.3334C45.7146 37.3334 42.776 38.8187 40.82 41.1534L43.6666 44.0001H35.6666V36.0001L38.9293 39.2614C41.3733 36.4481 44.9786 34.6667 49 34.6667Z" fill="#03336B"/>
</g>
<rect x="10" y="10" width="24" height="24" rx="12" fill="#42A5F5"/>
<path d="M18.712 26.016V24.144H20.6V18.496H18.712V16.72H19.448C20.68 16.72 21.032 16.432 21.032 15.84V15.712H23.176V24.144H25.08V26.016H18.712Z" fill="white"/>
<defs>
<clipPath id="clip0_561_2499">
<rect width="32" height="32" fill="white" transform="translate(33 32)"/>
</clipPath>
</defs>
</svg>
