<svg width="92" height="90" viewBox="0 0 92 90" fill="none" xmlns="http://www.w3.org/2000/svg">
<rect x="15" y="11" width="69" height="69" rx="34.5" fill="#E5F1FF"/>
<rect x="15" y="11" width="69" height="69" rx="34.5" stroke="#03336B" stroke-width="4"/>
<g clip-path="url(#clip0_561_2495)">
<path d="M37 34H61C61.3536 34 61.6927 34.1405 61.9428 34.3905C62.1928 34.6406 62.3333 34.9797 62.3333 35.3333V56.6667C62.3333 57.0203 62.1928 57.3594 61.9428 57.6095C61.6927 57.8595 61.3536 58 61 58H37C36.6463 58 36.3072 57.8595 36.0572 57.6095C35.8071 57.3594 35.6666 57.0203 35.6666 56.6667V35.3333C35.6666 34.9797 35.8071 34.6406 36.0572 34.3905C36.3072 34.1405 36.6463 34 37 34V34ZM59.6666 44.6667H38.3333V55.3333H59.6666V44.6667ZM59.6666 42V36.6667H38.3333V42H59.6666ZM51.6666 50H57V52.6667H51.6666V50Z" fill="#03336B"/>
</g>
<rect x="10" y="10" width="24" height="24" rx="12" fill="#42A5F5"/>
<path d="M25.768 22.544C25.768 24.64 24.344 26.256 21.736 26.256C19.4 26.256 17.832 24.992 17.544 22.944H19.992C20.136 23.776 20.728 24.272 21.72 24.272C22.76 24.272 23.32 23.632 23.32 22.576C23.32 21.6 22.84 20.816 21.688 20.816C20.92 20.816 20.424 21.168 20.136 21.616L17.928 21.408L18.248 15.712H25.192V17.584H20.264L20.152 19.28C20.648 19.024 21.208 18.864 21.912 18.864C24.568 18.864 25.768 20.512 25.768 22.544Z" fill="white"/>
<defs>
<clipPath id="clip0_561_2495">
<rect width="32" height="32" fill="white" transform="translate(33 30)"/>
</clipPath>
</defs>
</svg>
