<svg width="92" height="90" viewBox="0 0 92 90" fill="none" xmlns="http://www.w3.org/2000/svg">
<rect x="15" y="8" width="69" height="69" rx="34.5" fill="#E5F1FF"/>
<rect x="15" y="8" width="69" height="69" rx="34.5" stroke="#03336B" stroke-width="4"/>
<g clip-path="url(#clip0_561_2492)">
<path d="M49 44.3334C51.2093 44.3334 53 46.1241 53 48.3334C53 49.4667 52.5293 50.4881 51.7733 51.2161L49.2266 53.6667H53V56.3334H45V54.0347L49.924 49.2947C50.1773 49.0507 50.3333 48.7107 50.3333 48.3334C50.3333 47.5974 49.736 47.0001 49 47.0001C48.264 47.0001 47.6666 47.5974 47.6666 48.3334H45C45 46.1241 46.7906 44.3334 49 44.3334ZM57 44.3334V49.6667H59.6666V44.3334H62.3333V56.3334H59.6666V52.3334H54.3333V44.3334H57ZM38.3333 43.0001C38.3333 46.3694 39.8946 49.3734 42.3333 51.3281V54.5494C38.348 52.2441 35.6666 47.9361 35.6666 43.0001H38.3333ZM49 29.6667C55.9133 29.6667 61.5986 34.9294 62.2666 41.6667H59.584C58.928 36.4054 54.44 32.3334 49 32.3334C45.7146 32.3334 42.776 33.8187 40.82 36.1534L43.6666 39.0001H35.6666V31.0001L38.9293 34.2614C41.3733 31.4481 44.9786 29.6667 49 29.6667Z" fill="#03336B"/>
</g>
<rect x="10" y="11" width="24" height="24" rx="12" fill="#42A5F5"/>
<path d="M21.64 27.256C19.144 27.256 17.528 25.992 17.528 24.024C17.528 22.968 18.104 22.136 19.048 21.64C18.296 21.144 17.864 20.408 17.864 19.512C17.864 17.672 19.368 16.456 21.64 16.456C23.912 16.456 25.416 17.656 25.416 19.512C25.416 20.424 24.968 21.16 24.216 21.656C25.176 22.168 25.752 23.016 25.752 24.024C25.752 26.008 24.12 27.256 21.64 27.256ZM21.64 18.392C20.792 18.392 20.264 18.856 20.264 19.624C20.264 20.408 20.792 20.888 21.64 20.888C22.488 20.888 23.016 20.408 23.016 19.624C23.016 18.84 22.488 18.392 21.64 18.392ZM21.64 25.32C22.648 25.32 23.288 24.808 23.288 23.912C23.288 23 22.632 22.472 21.64 22.472C20.632 22.472 19.992 23 19.992 23.912C19.992 24.792 20.632 25.32 21.64 25.32Z" fill="white"/>
<defs>
<clipPath id="clip0_561_2492">
<rect width="32" height="32" fill="white" transform="translate(33 27)"/>
</clipPath>
</defs>
</svg>
