<svg width="92" height="90" viewBox="0 0 92 90" fill="none" xmlns="http://www.w3.org/2000/svg">
<rect x="15" y="11" width="69" height="69" rx="34.5" fill="#E5F1FF"/>
<rect x="15" y="11" width="69" height="69" rx="34.5" stroke="#03336B" stroke-width="4"/>
<g clip-path="url(#clip0_561_2497)">
<path d="M59.6667 32.6667C60.4027 32.6667 61 33.2641 61 34.0001V39.0094L58.3333 41.6761V35.3334H39.6667V56.6667H58.3333V52.9894L61 50.3227V58.0001C61 58.7361 60.4027 59.3334 59.6667 59.3334H38.3333C37.5973 59.3334 37 58.7361 37 58.0001V34.0001C37 33.2641 37.5973 32.6667 38.3333 32.6667H59.6667ZM62.0373 41.7441L63.9227 43.6294L53.552 54.0001L51.664 53.9974L51.6667 52.1147L62.0373 41.7441V41.7441ZM50.3333 46.0001V48.6667H43.6667V46.0001H50.3333ZM54.3333 40.6667V43.3334H43.6667V40.6667H54.3333Z" fill="#03336B"/>
</g>
<rect x="10" y="10" width="24" height="24" rx="12" fill="#42A5F5"/>
<path d="M25.784 23.024C25.784 24.784 24.36 26.256 21.656 26.256C19.288 26.256 17.672 24.944 17.384 22.816H19.848C20.008 23.712 20.568 24.272 21.64 24.272C22.712 24.272 23.32 23.792 23.32 22.912C23.32 22.224 22.888 21.632 21.24 21.632H20.536V19.856H21.096C22.744 19.856 23.048 19.168 23.048 18.624C23.048 17.904 22.536 17.44 21.656 17.44C20.696 17.44 20.184 17.952 20.04 18.816H17.592C17.864 16.736 19.4 15.456 21.672 15.456C24.168 15.456 25.512 16.912 25.512 18.592C25.512 19.536 25.128 20.192 24.296 20.624C25.336 21.152 25.784 21.968 25.784 23.024Z" fill="white"/>
<defs>
<clipPath id="clip0_561_2497">
<rect width="32" height="32" fill="white" transform="translate(33 30)"/>
</clipPath>
</defs>
</svg>
