<svg width="92" height="90" viewBox="0 0 92 90" fill="none" xmlns="http://www.w3.org/2000/svg">
<rect x="15" y="10" width="69" height="69" rx="34.5" fill="#E5F1FF"/>
<rect x="15" y="10" width="69" height="69" rx="34.5" stroke="#03336B" stroke-width="4"/>
<g clip-path="url(#clip0_561_2494)">
<path d="M35.564 41.4932C34.884 41.2199 34.892 40.8132 35.6094 40.5746L61.0574 32.0919C61.7627 31.8572 62.1667 32.2519 61.9694 32.9426L54.6974 58.3906C54.4974 59.0959 54.064 59.1279 53.7414 58.4839L47.6667 46.3332L35.564 41.4932ZM42.084 41.2266L49.5987 44.2332L53.652 52.3426L58.38 35.7959L42.0827 41.2266H42.084Z" fill="#03336B"/>
</g>
<rect x="10" y="10" width="24" height="24" rx="12" fill="#42A5F5"/>
<path d="M25.944 22.672C25.944 24.896 24.248 26.256 21.928 26.256C19.272 26.256 17.48 24.496 17.48 20.864C17.48 17.44 19.112 15.456 21.864 15.456C23.944 15.456 25.416 16.624 25.88 18.752H23.384C23.112 17.888 22.536 17.488 21.768 17.488C20.632 17.488 19.96 18.416 19.832 20.144C20.424 19.6 21.208 19.296 22.088 19.296C24.392 19.296 25.944 20.56 25.944 22.672ZM21.848 24.272C22.824 24.272 23.432 23.728 23.432 22.768C23.432 21.808 22.808 21.232 21.848 21.232C20.888 21.232 20.28 21.808 20.28 22.768C20.28 23.712 20.888 24.272 21.848 24.272Z" fill="white"/>
<defs>
<clipPath id="clip0_561_2494">
<rect width="32" height="32" fill="white" transform="translate(33 29)"/>
</clipPath>
</defs>
</svg>
