<svg width="92" height="88" viewBox="0 0 92 88" fill="none" xmlns="http://www.w3.org/2000/svg">
<rect x="15" y="11" width="69" height="69" rx="34.5" fill="#E5F1FF"/>
<rect x="15" y="11" width="69" height="69" rx="34.5" stroke="#03336B" stroke-width="4"/>
<g clip-path="url(#clip0_561_2498)">
<path d="M42.3333 43.3334H59.6667C60.0203 43.3334 60.3594 43.4738 60.6095 43.7239C60.8595 43.9739 61 44.3131 61 44.6667V58C61 58.3537 60.8595 58.6928 60.6095 58.9428C60.3594 59.1929 60.0203 59.3334 59.6667 59.3334H38.3333C37.9797 59.3334 37.6406 59.1929 37.3905 58.9428C37.1405 58.6928 37 58.3537 37 58V44.6667C37 44.3131 37.1405 43.9739 37.3905 43.7239C37.6406 43.4738 37.9797 43.3334 38.3333 43.3334H39.6667V42C39.6659 39.897 40.3754 37.8553 41.6803 36.206C42.9851 34.5566 44.8087 33.3963 46.8555 32.9131C48.9023 32.4298 51.0523 32.652 52.957 33.5437C54.8617 34.4353 56.4094 35.944 57.3493 37.8254L54.964 39.0174C54.2927 37.6734 53.1871 36.5956 51.8264 35.9586C50.4658 35.3217 48.9299 35.163 47.4678 35.5083C46.0057 35.8535 44.7031 36.6825 43.7711 37.8609C42.8392 39.0392 42.3325 40.4977 42.3333 42V43.3334ZM39.6667 46V56.6667H58.3333V46H39.6667ZM46.3333 50H51.6667V52.6667H46.3333V50Z" fill="#03336B"/>
</g>
<rect x="10" y="10" width="24" height="24" rx="12" fill="#42A5F5"/>
<path d="M17.704 26.016V25.408C17.704 20.816 23.016 20.992 23.016 18.768C23.016 17.92 22.52 17.44 21.688 17.44C20.744 17.44 20.264 17.952 20.12 18.816H17.656C17.928 16.736 19.432 15.456 21.704 15.456C24.168 15.456 25.464 16.944 25.464 18.736C25.464 21.68 21.336 22.112 20.328 24.144H25.448V26.016H17.704Z" fill="white"/>
<defs>
<clipPath id="clip0_561_2498">
<rect width="32" height="32" fill="white" transform="translate(33 30)"/>
</clipPath>
</defs>
</svg>
