<svg version="1.1" id="HkQgUQPrEOf" xmlns="http://www.w3.org/2000/svg" xmlns:xlink="http://www.w3.org/1999/xlink" x="0px" y="0px" viewBox="0 0 168 64" style="enable-background:new 0 0 168 64;" xmlns:svgjs="http://svgjs.com/svgjs">
    <style type="text/css">
        @-webkit-keyframes HJCxIQPB4_z_Animation {
    0% {
        opacity: 1;
        transform-box: fill-box;
        -webkit-transform-origin: 50% 50%;
                transform-origin: 50% 50%
    }
    16.67% {
        opacity: 0;
        transform-box: fill-box;
        -webkit-transform-origin: 50% 50%;
                transform-origin: 50% 50%
    }
    33.33% {
        opacity: 1;
        transform-box: fill-box;
        -webkit-transform-origin: 50% 50%;
                transform-origin: 50% 50%
    }
    100% {
        opacity: 1;
        transform-box: fill-box;
        -webkit-transform-origin: 50% 50%;
                transform-origin: 50% 50%
    }
}
@keyframes HJCxIQPB4_z_Animation {
    0% {
        opacity: 1;
        transform-box: fill-box;
        -webkit-transform-origin: 50% 50%;
                transform-origin: 50% 50%
    }
    16.67% {
        opacity: 0;
        transform-box: fill-box;
        -webkit-transform-origin: 50% 50%;
                transform-origin: 50% 50%
    }
    33.33% {
        opacity: 1;
        transform-box: fill-box;
        -webkit-transform-origin: 50% 50%;
                transform-origin: 50% 50%
    }
    100% {
        opacity: 1;
        transform-box: fill-box;
        -webkit-transform-origin: 50% 50%;
                transform-origin: 50% 50%
    }
}
@-webkit-keyframes HJCxIQPB4_z_SyauwH4Of_Animation {
    0% {
        -webkit-transform: translate(0px, 0px);
                transform: translate(0px, 0px);
        transform-box: fill-box;
        -webkit-transform-origin: 50% 50%;
                transform-origin: 50% 50%
    }
    16.67% {
        -webkit-transform: translate(10px, 0px);
                transform: translate(10px, 0px);
        transform-box: fill-box;
        -webkit-transform-origin: 50% 50%;
                transform-origin: 50% 50%
    }
    33.33% {
        -webkit-transform: translate(0px, 0px);
                transform: translate(0px, 0px);
        transform-box: fill-box;
        -webkit-transform-origin: 50% 50%;
                transform-origin: 50% 50%
    }
    100% {
        -webkit-transform: translate(0px, 0px);
                transform: translate(0px, 0px);
        transform-box: fill-box;
        -webkit-transform-origin: 50% 50%;
                transform-origin: 50% 50%
    }
}
@keyframes HJCxIQPB4_z_SyauwH4Of_Animation {
    0% {
        -webkit-transform: translate(0px, 0px);
                transform: translate(0px, 0px);
        transform-box: fill-box;
        -webkit-transform-origin: 50% 50%;
                transform-origin: 50% 50%
    }
    16.67% {
        -webkit-transform: translate(10px, 0px);
                transform: translate(10px, 0px);
        transform-box: fill-box;
        -webkit-transform-origin: 50% 50%;
                transform-origin: 50% 50%
    }
    33.33% {
        -webkit-transform: translate(0px, 0px);
                transform: translate(0px, 0px);
        transform-box: fill-box;
        -webkit-transform-origin: 50% 50%;
                transform-origin: 50% 50%
    }
    100% {
        -webkit-transform: translate(0px, 0px);
                transform: translate(0px, 0px);
        transform-box: fill-box;
        -webkit-transform-origin: 50% 50%;
                transform-origin: 50% 50%
    }
}
#HkQgUQPrEOf * {
    -webkit-animation-duration: 3s;
            animation-duration: 3s;
    -webkit-animation-iteration-count: infinite;
            animation-iteration-count: infinite;
    -webkit-animation-timing-function: cubic-bezier(0, 0, 1, 1);
            animation-timing-function: cubic-bezier(0, 0, 1, 1)
}
#HJCxIQPB4_z_SyauwH4Of {
    -webkit-animation-name: HJCxIQPB4_z_SyauwH4Of_Animation;
            animation-name: HJCxIQPB4_z_SyauwH4Of_Animation;
    -webkit-animation-timing-function: cubic-bezier(0.42, 0, 1, 1);
            animation-timing-function: cubic-bezier(0.42, 0, 1, 1)
}
#HJCxIQPB4_z {
    -webkit-animation-name: HJCxIQPB4_z_Animation;
            animation-name: HJCxIQPB4_z_Animation
}
    </style>
    <style type="text/css"/>
    <g id="HyVlU7vHNdG" class="">
        <path d="M66.3,15.9c1.3,0.1,2.3,0.8,3,2c0.7,1.2,1.1,2.5,1.1,4v28.8h-4V21.3c0-0.4-0.1-0.7-0.4-0.9&#10;&#9;&#9;c-0.3-0.2-0.6-0.4-1-0.5c-0.4-0.1-0.7-0.2-0.9-0.2c-0.7,0-1.4,0.3-2,0.8c-0.6,0.5-0.9,1.2-0.9,1.9v28.4h-4V16.3h4.3v1.9&#10;&#9;&#9;c0-0.1,0.6-0.5,1.7-1.2C64.2,16.3,65.3,15.9,66.3,15.9z" id="rkrx8mPSNuG"/>
        <path d="M80.3,50.6l-3.5,0.1V20.5h-2.7v-3.3h2.7V6.4h3.5v10.8H83v3.3h-2.7V50.6z" id="SkIlUQwSNuz"/>
        <path d="M90.5,34.5v9.7c0,0.8,0.2,1.5,0.6,2.1c0.4,0.6,0.9,0.9,1.6,0.9c0.6,0,1.2-0.2,1.7-0.6c0.5-0.4,0.7-0.9,0.7-1.5&#10;&#9;&#9;V39h3.5v4.5c0,1.9-0.5,3.6-1.6,5c-1.1,1.5-2.5,2.2-4.2,2.2c-1.9,0-3.4-0.9-4.5-2.7c-1-1.8-1.6-3.9-1.6-6.3V23.3&#10;&#9;&#9;c0-1.5,0.6-3,1.7-4.5c1.1-1.5,2.5-2.3,4.1-2.3c2.4,0,3.9,0.8,4.6,2.4c0.7,1.6,1.2,3.2,1.5,4.8v10.8H90.5z M90.5,25.4v5.8h4.8v-5.7&#10;&#9;&#9;c0-1.7-0.1-3.1-0.4-4.1c-0.3-1-0.9-1.5-2-1.5c-1,0-1.7,0.5-2,1.5C90.6,22.3,90.5,23.7,90.5,25.4z" id="rkPlUXDr4dG"/>
        <path d="M102.2,50.7v-47h3.5v47H102.2z" id="BJdlImDB4Of"/>
        <path d="M109.9,50.7v-47h3.5v47H109.9z" id="S1YgI7vBEuf"/>
        <path d="M118.6,2.6h3.2v3h-3.2V2.6z M118.6,50.7V16.4h3.5v34.2H118.6z" id="S1clLXPH4_M"/>
        <path d="M135.7,54.4l0.2-5.5c-1.1,1.2-2.4,1.8-4,1.8c-0.3,0-0.9-0.1-1.8-0.2c-0.8-0.1-1.6-0.9-2.3-2.4&#10;&#9;&#9;c-0.7-1.5-1-3.1-1-5V21.7c0-1.4,0.2-2.6,0.6-3.7c0.4-1,1-1.7,1.7-1.9c0.7-0.3,1.3-0.4,1.8-0.4c0.9,0,1.8,0.3,2.8,0.8&#10;&#9;&#9;c1,0.5,1.6,1,1.9,1.4V16h4v37.4c0,2.7-1,4.7-2.9,6.1c-1.9,1.3-3.6,2-5.2,2c-1,0-2-0.2-2.9-0.6l0.6-2.4c0.5,0,0.8,0,1,0&#10;&#9;&#9;c0.9,0,1.8-0.2,2.7-0.7c0.9-0.5,1.6-1,2-1.5C135.4,55.8,135.7,55.2,135.7,54.4z M132.8,19.2c-0.7,0.1-1.2,0.3-1.6,0.5&#10;&#9;&#9;c-0.4,0.2-0.6,0.6-0.6,1.1v23c0,0.7,0.1,1.4,0.4,1.9c0.2,0.5,0.5,0.9,0.9,1c0.4,0.1,0.7,0.2,1,0.2c0.7,0,1.4-0.3,2-1&#10;&#9;&#9;c0.6-0.7,0.9-1.4,0.9-2.2V22.4c0-0.4-0.3-1-1-1.9C134.2,19.6,133.5,19.2,132.8,19.2z" id="ryoxUQvHVuz"/>
        <path d="M144.3,2.6h3.2v3h-3.2V2.6z M144.3,50.7V16.4h3.5v34.2H144.3z" id="S1hxIXDSEuf"/>
        <path d="M160.6,26.6c0-1.5-0.2-3.1-0.4-4.6c-0.2-1.5-0.9-2.3-2-2.3c-0.3,0-0.8,0.3-1.4,0.9c-0.6,0.6-0.9,1-0.9,1.4&#10;&#9;&#9;v22.3c0,0.8,0.2,1.5,0.6,2.1c0.4,0.6,0.9,0.9,1.6,0.9c0.6,0,1.2-0.2,1.7-0.6c0.5-0.4,0.7-0.9,0.7-1.5V39h3.5v4.5&#10;&#9;&#9;c0,1.9-0.5,3.6-1.6,5c-1.1,1.5-2.5,2.2-4.2,2.2c-1.9,0-3.4-0.9-4.5-2.7c-1-1.8-1.6-3.9-1.6-6.3V22.2c0-0.8,0.6-2,1.9-3.5&#10;&#9;&#9;c1.2-1.5,2.5-2.2,3.9-2.2c2.4,0,3.9,0.8,4.6,2.4c0.7,1.6,1.2,3.2,1.5,4.8v2.9H160.6z" id="HypeIXDHEuf"/>
        <g id="HJCxIQPB4_z_SyauwH4Of" data-animator-group="true" data-animator-type="0">
            <polygon id="HJCxIQPB4_z" points="42.9,2.7 42.9,6.5 48.2,6.5 48.2,11.4 52.1,11.4 52.1,2.7 &#9;"/>
        </g>
        <polygon id="r1JWLXvBNOf" points="48.2,46.9 48.2,46.9 48.2,50.8 52.1,50.8 52.1,16 48.2,16 &#9;"/>
        <polygon id="rJgbUmwBEdz" points="7.9,6.5 38.4,6.5 38.4,2.7 4,2.7 4,50.8 43.6,50.8 43.6,46.9 7.9,46.9 &#9;"/>
    </g>
</svg>