<?xml version="1.0" encoding="utf-8"?>
<!-- Generator: Adobe Illustrator 19.0.0, SVG Export Plug-In . SVG Version: 6.00 Build 0)  -->
<svg version="1.1" id="Layer_1" xmlns="http://www.w3.org/2000/svg" xmlns:xlink="http://www.w3.org/1999/xlink" x="0px" y="0px"
	 viewBox="4 -6 168 64" style="enable-background:new 4 -6 168 64;" xml:space="preserve">
<style type="text/css">
	.st0{fill:#FFFFFF;}
	.st1{fill:#EE3324;}
</style>
<path class="st0" d="M70.3,9.9c1.3,0.1,2.3,0.8,3,2s1.1,2.5,1.1,4v28.8h-4V15.3c0-0.4-0.1-0.7-0.4-0.9c-0.3-0.2-0.6-0.4-1-0.5
	s-0.7-0.2-0.9-0.2c-0.7,0-1.4,0.3-2,0.8s-0.9,1.2-0.9,1.9v28.4h-4V10.3h4.3v1.9c0-0.1,0.6-0.5,1.7-1.2C68.2,10.3,69.3,9.9,70.3,9.9z
	"/>
<path class="st0" d="M84.3,44.6l-3.5,0.1V14.5h-2.7v-3.3h2.7V0.4h3.5v10.8H87v3.3h-2.7V44.6z"/>
<path class="st0" d="M94.5,28.5v9.7c0,0.8,0.2,1.5,0.6,2.1s0.9,0.9,1.6,0.9c0.6,0,1.2-0.2,1.7-0.6c0.5-0.4,0.7-0.9,0.7-1.5V33h3.5
	v4.5c0,1.9-0.5,3.6-1.6,5c-1.1,1.5-2.5,2.2-4.2,2.2c-1.9,0-3.4-0.9-4.5-2.7c-1-1.8-1.6-3.9-1.6-6.3V17.3c0-1.5,0.6-3,1.7-4.5
	s2.5-2.3,4.1-2.3c2.4,0,3.9,0.8,4.6,2.4s1.2,3.2,1.5,4.8v10.8H94.5z M94.5,19.4v5.8h4.8v-5.7c0-1.7-0.1-3.1-0.4-4.1s-0.9-1.5-2-1.5
	c-1,0-1.7,0.5-2,1.5C94.6,16.3,94.5,17.7,94.5,19.4z"/>
<path class="st0" d="M106.2,44.7v-47h3.5v47H106.2z"/>
<path class="st0" d="M113.9,44.7v-47h3.5v47H113.9z"/>
<path class="st0" d="M122.6-3.4h3.2v3h-3.2V-3.4z M122.6,44.7V10.4h3.5v34.2h-3.5V44.7z"/>
<path class="st0" d="M139.7,48.4l0.2-5.5c-1.1,1.2-2.4,1.8-4,1.8c-0.3,0-0.9-0.1-1.8-0.2c-0.8-0.1-1.6-0.9-2.3-2.4s-1-3.1-1-5V15.7
	c0-1.4,0.2-2.6,0.6-3.7c0.4-1,1-1.7,1.7-1.9c0.7-0.3,1.3-0.4,1.8-0.4c0.9,0,1.8,0.3,2.8,0.8s1.6,1,1.9,1.4V10h4v37.4
	c0,2.7-1,4.7-2.9,6.1c-1.9,1.3-3.6,2-5.2,2c-1,0-2-0.2-2.9-0.6l0.6-2.4c0.5,0,0.8,0,1,0c0.9,0,1.8-0.2,2.7-0.7s1.6-1,2-1.5
	C139.4,49.8,139.7,49.2,139.7,48.4z M136.8,13.2c-0.7,0.1-1.2,0.3-1.6,0.5c-0.4,0.2-0.6,0.6-0.6,1.1v23c0,0.7,0.1,1.4,0.4,1.9
	c0.2,0.5,0.5,0.9,0.9,1s0.7,0.2,1,0.2c0.7,0,1.4-0.3,2-1s0.9-1.4,0.9-2.2V16.4c0-0.4-0.3-1-1-1.9C138.2,13.6,137.5,13.2,136.8,13.2z
	"/>
<path class="st0" d="M148.3-3.4h3.2v3h-3.2V-3.4z M148.3,44.7V10.4h3.5v34.2h-3.5V44.7z"/>
<path class="st0" d="M164.6,20.6c0-1.5-0.2-3.1-0.4-4.6s-0.9-2.3-2-2.3c-0.3,0-0.8,0.3-1.4,0.9c-0.6,0.6-0.9,1-0.9,1.4v22.3
	c0,0.8,0.2,1.5,0.6,2.1c0.4,0.6,0.9,0.9,1.6,0.9c0.6,0,1.2-0.2,1.7-0.6c0.5-0.4,0.7-0.9,0.7-1.5V33h3.5v4.5c0,1.9-0.5,3.6-1.6,5
	c-1.1,1.5-2.5,2.2-4.2,2.2c-1.9,0-3.4-0.9-4.5-2.7c-1-1.8-1.6-3.9-1.6-6.3V16.2c0-0.8,0.6-2,1.9-3.5c1.2-1.5,2.5-2.2,3.9-2.2
	c2.4,0,3.9,0.8,4.6,2.4c0.7,1.6,1.2,3.2,1.5,4.8v2.9H164.6z"/>
<polygon id="XMLID_29_" class="st1" points="46.9,-3.3 46.9,0.5 52.2,0.5 52.2,5.4 56.1,5.4 56.1,-3.3 "/>
<polygon id="XMLID_28_" class="st0" points="52.2,40.9 52.2,40.9 52.2,44.8 56.1,44.8 56.1,10 52.2,10 "/>
<polygon id="XMLID_27_" class="st0" points="11.9,0.5 42.4,0.5 42.4,-3.3 8,-3.3 8,44.8 47.6,44.8 47.6,40.9 11.9,40.9 "/>
</svg>
