<svg width="40" height="37" viewBox="0 0 40 37" fill="none" xmlns="http://www.w3.org/2000/svg">
<path d="M30.0124 21.1127L25.7063 19.5793L22.4299 22.7661L22.558 18.1974L18.5145 16.0664L22.8995 14.7759L23.6774 10.2717L26.2592 14.0437L30.7831 13.3904L27.9942 17.0118L30.0124 21.1127Z" stroke="#818490" stroke-width="2" stroke-linecap="round" stroke-linejoin="round"/>
<path d="M21.8573 28.6852C15.5223 28.6852 10.3864 23.5493 10.3864 17.2143C10.3864 10.8793 15.5223 5.74332 21.8573 5.74332C22.4712 5.74332 23.069 5.80515 23.6559 5.89835C21.7229 4.88837 19.5291 4.30945 17.1973 4.30945C9.47588 4.30945 3.21704 10.5683 3.21704 18.2897C3.21704 26.0111 9.47588 32.2699 17.1973 32.2699C21.7874 32.2699 25.848 30.0483 28.3967 26.6321C26.5407 27.9235 24.2895 28.6852 21.8573 28.6852Z" stroke="#818490" stroke-width="2" stroke-linecap="round" stroke-linejoin="round"/>
</svg>
