<svg width="1152" height="469" viewBox="0 0 1152 469" fill="none" xmlns="http://www.w3.org/2000/svg">
<mask id="path-1-inside-1_1_8728" fill="white">
<path d="M66.7278 3.18158H103.247V131H66.7278V3.18158ZM190.859 3.18158H227.378V131H198.162L157.991 72.5687V131H121.471V3.18158H150.687L190.859 61.6129V3.18158ZM314.968 3.18158H351.488V131H322.272L282.1 72.5687V131H245.581V3.18158H274.796L314.968 61.6129V3.18158ZM480.892 114.749C467.867 127.531 451.859 133.922 432.869 133.922C413.879 133.922 397.81 127.531 384.663 114.749C371.638 101.845 365.125 85.9592 365.125 67.0908C365.125 48.2224 371.638 32.3972 384.663 19.6154C397.81 6.71181 413.879 0.26002 432.869 0.26002C451.859 0.26002 467.867 6.71181 480.892 19.6154C494.039 32.3972 500.613 48.2224 500.613 67.0908C500.613 85.9592 494.039 101.845 480.892 114.749ZM410.41 89.3677C416.374 95.2108 423.861 98.1324 432.869 98.1324C441.877 98.1324 449.303 95.2108 455.146 89.3677C461.111 83.4029 464.093 75.9772 464.093 67.0908C464.093 58.2044 461.111 50.8396 455.146 44.9965C449.303 39.0316 441.877 36.0492 432.869 36.0492C423.861 36.0492 416.374 39.0316 410.41 44.9965C404.566 50.8396 401.645 58.2044 401.645 67.0908C401.645 75.9772 404.566 83.4029 410.41 89.3677ZM538.585 131L497.865 3.18158H538.037L559.036 84.4376L580.034 3.18158H620.206L579.486 131H538.585ZM695.962 131L691.58 114.566H654.695L650.313 131H611.054L651.774 3.18158H694.502L735.221 131H695.962ZM662.547 85.3506H683.728L673.138 46.092L662.547 85.3506ZM822.932 3.18158V38.6055H792.803V131H756.284V38.6055H726.155V3.18158H822.932ZM833.852 3.18158H870.372V131H833.852V3.18158ZM920.185 131L879.466 3.18158H919.638L940.636 84.4376L961.635 3.18158H1001.81L961.087 131H920.185ZM1047.44 97.402H1094.92V131H1010.92V3.18158H1094V36.4144H1047.44V50.2918H1089.44V83.1594H1047.44V97.402ZM85.3121 298L80.9297 281.566H44.045L39.6626 298H0.404125L41.1234 170.182H83.8513L124.571 298H85.3121ZM51.8967 252.351H73.078L62.4874 213.092L51.8967 252.351ZM184.856 170.182C202.507 170.182 217.237 176.329 229.045 188.624C240.975 200.797 246.94 215.953 246.94 234.091C246.94 252.229 240.975 267.445 229.045 279.74C217.237 291.913 202.507 298 184.856 298H131.903V170.182H184.856ZM184.856 262.576C192.282 262.576 198.369 259.959 203.116 254.724C207.985 249.368 210.42 242.49 210.42 234.091C210.42 225.691 207.985 218.874 203.116 213.64C198.369 208.284 192.282 205.606 184.856 205.606H170.249V262.576H184.856ZM284.927 298L244.208 170.182H284.379L305.378 251.438L326.377 170.182H366.548L325.829 298H284.927ZM412.183 264.402H459.659V298H375.664V170.182H458.746V203.414H412.183V217.292H454.181V250.159H412.183V264.402ZM540.192 297.817L519.923 257.646H510.793V297.817H474.274V169.999H525.401C539.4 169.999 550.965 174.138 560.095 182.416C569.225 190.572 573.79 201.406 573.79 214.918C573.79 222.465 572.024 229.282 568.494 235.369C565.086 241.456 560.277 246.386 554.069 250.159L579.267 297.817H540.192ZM510.793 203.597V227.335H524.671C528.566 227.456 531.609 226.483 533.801 224.413C536.114 222.344 537.27 219.422 537.27 215.648C537.27 211.875 536.114 208.953 533.801 206.884C531.609 204.693 528.566 203.597 524.671 203.597H510.793ZM675.195 170.182V205.606H645.067V298H608.547V205.606H578.419V170.182H675.195ZM686.116 170.182H722.635V298H686.116V170.182ZM785.091 300.922C771.213 300.922 759.649 298.061 750.397 292.339C741.146 286.496 734.937 278.645 731.772 268.784L762.996 250.707C767.257 261.541 774.926 266.958 786.004 266.958C794.282 266.958 798.42 264.767 798.42 260.385C798.42 259.168 798.116 258.072 797.507 257.098C796.899 256.124 795.742 255.272 794.038 254.542C792.334 253.811 790.812 253.264 789.473 252.898C788.256 252.411 786.065 251.742 782.9 250.89C779.735 250.038 777.361 249.368 775.778 248.881C750.336 241.212 737.615 227.517 737.615 207.797C737.615 196.11 741.815 186.433 750.215 178.764C758.736 171.095 769.874 167.26 783.63 167.26C794.464 167.26 804.142 169.816 812.663 174.929C821.306 180.042 827.636 187.407 831.653 197.023L801.342 214.735C797.812 205.727 791.969 201.223 783.813 201.223C780.648 201.223 778.213 201.893 776.509 203.232C774.926 204.449 774.135 206.032 774.135 207.979C774.135 210.657 775.535 212.727 778.335 214.188C781.256 215.648 786.795 217.535 794.951 219.848C801.038 221.674 806.029 223.439 809.924 225.144C813.82 226.726 817.898 229.039 822.158 232.082C826.419 235.004 829.584 238.838 831.653 243.586C833.844 248.212 834.94 253.69 834.94 260.02C834.94 273.045 830.436 283.149 821.428 290.331C812.541 297.391 800.429 300.922 785.091 300.922ZM844.997 170.182H881.517V298H844.997V170.182ZM969.128 170.182H1005.65V298H976.432L936.26 239.569V298H899.741V170.182H928.956L969.128 228.613V170.182ZM1151.12 222.587V237.743C1151.12 256.003 1145.22 271.097 1133.41 283.027C1121.72 294.957 1106.32 300.922 1087.21 300.922C1067.25 300.922 1050.94 294.592 1038.28 281.931C1025.62 269.15 1019.29 253.264 1019.29 234.273C1019.29 215.283 1025.62 199.397 1038.28 186.615C1050.94 173.712 1066.76 167.26 1085.75 167.26C1097.68 167.26 1108.58 169.938 1118.44 175.294C1128.42 180.651 1136.27 187.894 1141.99 197.023L1110.95 214.735C1105.84 206.945 1097.68 203.049 1086.48 203.049C1077.35 203.049 1069.93 205.971 1064.2 211.814C1058.6 217.657 1055.8 225.204 1055.8 234.456C1055.8 243.221 1058.42 250.89 1063.66 257.463C1068.89 263.915 1076.99 267.141 1087.94 267.141C1100.6 267.141 1109.06 262.637 1113.32 253.629H1086.12V222.587H1151.12ZM179.464 338.182C192.733 338.182 203.81 342.381 212.697 350.781C221.583 359.059 226.026 370.136 226.026 384.014C226.026 397.891 221.583 409.03 212.697 417.429C203.81 425.707 192.733 429.846 179.464 429.846H164.856V466H128.337V338.182H179.464ZM179.464 394.422C182.264 394.422 184.638 393.509 186.585 391.683C188.533 389.735 189.507 387.179 189.507 384.014C189.507 380.849 188.533 378.353 186.585 376.527C184.638 374.579 182.264 373.606 179.464 373.606H164.856V394.422H179.464ZM273.452 430.576H315.449V466H236.932V338.182H273.452V430.576ZM403.967 466L399.584 449.566H362.699L358.317 466H319.059L359.778 338.182H402.506L443.225 466H403.967ZM370.551 420.351H391.732L381.142 381.092L370.551 420.351ZM530.936 338.182V373.606H500.808V466H464.288V373.606H434.159V338.182H530.936ZM621.286 373.606H578.376V390.222H620.373V425.646H578.376V466H541.856V338.182H621.286V373.606ZM748.815 449.749C735.79 462.531 719.782 468.922 700.792 468.922C681.802 468.922 665.733 462.531 652.586 449.749C639.561 436.845 633.048 420.959 633.048 402.091C633.048 383.222 639.561 367.397 652.586 354.615C665.733 341.712 681.802 335.26 700.792 335.26C719.782 335.26 735.79 341.712 748.815 354.615C761.962 367.397 768.536 383.222 768.536 402.091C768.536 420.959 761.962 436.845 748.815 449.749ZM678.332 424.368C684.297 430.211 691.784 433.132 700.792 433.132C709.8 433.132 717.226 430.211 723.069 424.368C729.034 418.403 732.016 410.977 732.016 402.091C732.016 393.204 729.034 385.84 723.069 379.996C717.226 374.032 709.8 371.049 700.792 371.049C691.784 371.049 684.297 374.032 678.332 379.996C672.489 385.84 669.568 393.204 669.568 402.091C669.568 410.977 672.489 418.403 678.332 424.368ZM848.147 465.817L827.879 425.646H818.749V465.817H782.229V337.999H833.356C847.356 337.999 858.92 342.138 868.05 350.416C877.18 358.572 881.745 369.406 881.745 382.918C881.745 390.465 879.98 397.282 876.45 403.369C873.041 409.456 868.233 414.386 862.024 418.159L887.223 465.817H848.147ZM818.749 371.597V395.335H832.626C836.522 395.456 839.565 394.483 841.756 392.413C844.069 390.344 845.225 387.422 845.225 383.648C845.225 379.875 844.069 376.953 841.756 374.884C839.565 372.693 836.522 371.597 832.626 371.597H818.749ZM1029.65 338.182V466H993.13V403.734L964.644 451.575H961.358L932.872 403.734V466H896.353V338.182H932.872L963.001 390.222L993.13 338.182H1029.65Z"/>
</mask>
<path d="M66.7278 3.18158H103.247V131H66.7278V3.18158ZM190.859 3.18158H227.378V131H198.162L157.991 72.5687V131H121.471V3.18158H150.687L190.859 61.6129V3.18158ZM314.968 3.18158H351.488V131H322.272L282.1 72.5687V131H245.581V3.18158H274.796L314.968 61.6129V3.18158ZM480.892 114.749C467.867 127.531 451.859 133.922 432.869 133.922C413.879 133.922 397.81 127.531 384.663 114.749C371.638 101.845 365.125 85.9592 365.125 67.0908C365.125 48.2224 371.638 32.3972 384.663 19.6154C397.81 6.71181 413.879 0.26002 432.869 0.26002C451.859 0.26002 467.867 6.71181 480.892 19.6154C494.039 32.3972 500.613 48.2224 500.613 67.0908C500.613 85.9592 494.039 101.845 480.892 114.749ZM410.41 89.3677C416.374 95.2108 423.861 98.1324 432.869 98.1324C441.877 98.1324 449.303 95.2108 455.146 89.3677C461.111 83.4029 464.093 75.9772 464.093 67.0908C464.093 58.2044 461.111 50.8396 455.146 44.9965C449.303 39.0316 441.877 36.0492 432.869 36.0492C423.861 36.0492 416.374 39.0316 410.41 44.9965C404.566 50.8396 401.645 58.2044 401.645 67.0908C401.645 75.9772 404.566 83.4029 410.41 89.3677ZM538.585 131L497.865 3.18158H538.037L559.036 84.4376L580.034 3.18158H620.206L579.486 131H538.585ZM695.962 131L691.58 114.566H654.695L650.313 131H611.054L651.774 3.18158H694.502L735.221 131H695.962ZM662.547 85.3506H683.728L673.138 46.092L662.547 85.3506ZM822.932 3.18158V38.6055H792.803V131H756.284V38.6055H726.155V3.18158H822.932ZM833.852 3.18158H870.372V131H833.852V3.18158ZM920.185 131L879.466 3.18158H919.638L940.636 84.4376L961.635 3.18158H1001.81L961.087 131H920.185ZM1047.44 97.402H1094.92V131H1010.92V3.18158H1094V36.4144H1047.44V50.2918H1089.44V83.1594H1047.44V97.402ZM85.3121 298L80.9297 281.566H44.045L39.6626 298H0.404125L41.1234 170.182H83.8513L124.571 298H85.3121ZM51.8967 252.351H73.078L62.4874 213.092L51.8967 252.351ZM184.856 170.182C202.507 170.182 217.237 176.329 229.045 188.624C240.975 200.797 246.94 215.953 246.94 234.091C246.94 252.229 240.975 267.445 229.045 279.74C217.237 291.913 202.507 298 184.856 298H131.903V170.182H184.856ZM184.856 262.576C192.282 262.576 198.369 259.959 203.116 254.724C207.985 249.368 210.42 242.49 210.42 234.091C210.42 225.691 207.985 218.874 203.116 213.64C198.369 208.284 192.282 205.606 184.856 205.606H170.249V262.576H184.856ZM284.927 298L244.208 170.182H284.379L305.378 251.438L326.377 170.182H366.548L325.829 298H284.927ZM412.183 264.402H459.659V298H375.664V170.182H458.746V203.414H412.183V217.292H454.181V250.159H412.183V264.402ZM540.192 297.817L519.923 257.646H510.793V297.817H474.274V169.999H525.401C539.4 169.999 550.965 174.138 560.095 182.416C569.225 190.572 573.79 201.406 573.79 214.918C573.79 222.465 572.024 229.282 568.494 235.369C565.086 241.456 560.277 246.386 554.069 250.159L579.267 297.817H540.192ZM510.793 203.597V227.335H524.671C528.566 227.456 531.609 226.483 533.801 224.413C536.114 222.344 537.27 219.422 537.27 215.648C537.27 211.875 536.114 208.953 533.801 206.884C531.609 204.693 528.566 203.597 524.671 203.597H510.793ZM675.195 170.182V205.606H645.067V298H608.547V205.606H578.419V170.182H675.195ZM686.116 170.182H722.635V298H686.116V170.182ZM785.091 300.922C771.213 300.922 759.649 298.061 750.397 292.339C741.146 286.496 734.937 278.645 731.772 268.784L762.996 250.707C767.257 261.541 774.926 266.958 786.004 266.958C794.282 266.958 798.42 264.767 798.42 260.385C798.42 259.168 798.116 258.072 797.507 257.098C796.899 256.124 795.742 255.272 794.038 254.542C792.334 253.811 790.812 253.264 789.473 252.898C788.256 252.411 786.065 251.742 782.9 250.89C779.735 250.038 777.361 249.368 775.778 248.881C750.336 241.212 737.615 227.517 737.615 207.797C737.615 196.11 741.815 186.433 750.215 178.764C758.736 171.095 769.874 167.26 783.63 167.26C794.464 167.26 804.142 169.816 812.663 174.929C821.306 180.042 827.636 187.407 831.653 197.023L801.342 214.735C797.812 205.727 791.969 201.223 783.813 201.223C780.648 201.223 778.213 201.893 776.509 203.232C774.926 204.449 774.135 206.032 774.135 207.979C774.135 210.657 775.535 212.727 778.335 214.188C781.256 215.648 786.795 217.535 794.951 219.848C801.038 221.674 806.029 223.439 809.924 225.144C813.82 226.726 817.898 229.039 822.158 232.082C826.419 235.004 829.584 238.838 831.653 243.586C833.844 248.212 834.94 253.69 834.94 260.02C834.94 273.045 830.436 283.149 821.428 290.331C812.541 297.391 800.429 300.922 785.091 300.922ZM844.997 170.182H881.517V298H844.997V170.182ZM969.128 170.182H1005.65V298H976.432L936.26 239.569V298H899.741V170.182H928.956L969.128 228.613V170.182ZM1151.12 222.587V237.743C1151.12 256.003 1145.22 271.097 1133.41 283.027C1121.72 294.957 1106.32 300.922 1087.21 300.922C1067.25 300.922 1050.94 294.592 1038.28 281.931C1025.62 269.15 1019.29 253.264 1019.29 234.273C1019.29 215.283 1025.62 199.397 1038.28 186.615C1050.94 173.712 1066.76 167.26 1085.75 167.26C1097.68 167.26 1108.58 169.938 1118.44 175.294C1128.42 180.651 1136.27 187.894 1141.99 197.023L1110.95 214.735C1105.84 206.945 1097.68 203.049 1086.48 203.049C1077.35 203.049 1069.93 205.971 1064.2 211.814C1058.6 217.657 1055.8 225.204 1055.8 234.456C1055.8 243.221 1058.42 250.89 1063.66 257.463C1068.89 263.915 1076.99 267.141 1087.94 267.141C1100.6 267.141 1109.06 262.637 1113.32 253.629H1086.12V222.587H1151.12ZM179.464 338.182C192.733 338.182 203.81 342.381 212.697 350.781C221.583 359.059 226.026 370.136 226.026 384.014C226.026 397.891 221.583 409.03 212.697 417.429C203.81 425.707 192.733 429.846 179.464 429.846H164.856V466H128.337V338.182H179.464ZM179.464 394.422C182.264 394.422 184.638 393.509 186.585 391.683C188.533 389.735 189.507 387.179 189.507 384.014C189.507 380.849 188.533 378.353 186.585 376.527C184.638 374.579 182.264 373.606 179.464 373.606H164.856V394.422H179.464ZM273.452 430.576H315.449V466H236.932V338.182H273.452V430.576ZM403.967 466L399.584 449.566H362.699L358.317 466H319.059L359.778 338.182H402.506L443.225 466H403.967ZM370.551 420.351H391.732L381.142 381.092L370.551 420.351ZM530.936 338.182V373.606H500.808V466H464.288V373.606H434.159V338.182H530.936ZM621.286 373.606H578.376V390.222H620.373V425.646H578.376V466H541.856V338.182H621.286V373.606ZM748.815 449.749C735.79 462.531 719.782 468.922 700.792 468.922C681.802 468.922 665.733 462.531 652.586 449.749C639.561 436.845 633.048 420.959 633.048 402.091C633.048 383.222 639.561 367.397 652.586 354.615C665.733 341.712 681.802 335.26 700.792 335.26C719.782 335.26 735.79 341.712 748.815 354.615C761.962 367.397 768.536 383.222 768.536 402.091C768.536 420.959 761.962 436.845 748.815 449.749ZM678.332 424.368C684.297 430.211 691.784 433.132 700.792 433.132C709.8 433.132 717.226 430.211 723.069 424.368C729.034 418.403 732.016 410.977 732.016 402.091C732.016 393.204 729.034 385.84 723.069 379.996C717.226 374.032 709.8 371.049 700.792 371.049C691.784 371.049 684.297 374.032 678.332 379.996C672.489 385.84 669.568 393.204 669.568 402.091C669.568 410.977 672.489 418.403 678.332 424.368ZM848.147 465.817L827.879 425.646H818.749V465.817H782.229V337.999H833.356C847.356 337.999 858.92 342.138 868.05 350.416C877.18 358.572 881.745 369.406 881.745 382.918C881.745 390.465 879.98 397.282 876.45 403.369C873.041 409.456 868.233 414.386 862.024 418.159L887.223 465.817H848.147ZM818.749 371.597V395.335H832.626C836.522 395.456 839.565 394.483 841.756 392.413C844.069 390.344 845.225 387.422 845.225 383.648C845.225 379.875 844.069 376.953 841.756 374.884C839.565 372.693 836.522 371.597 832.626 371.597H818.749ZM1029.65 338.182V466H993.13V403.734L964.644 451.575H961.358L932.872 403.734V466H896.353V338.182H932.872L963.001 390.222L993.13 338.182H1029.65Z" fill="#1A2049" fill-opacity="0.1"/>
<path d="M66.7278 3.18158V2.42075H65.967V3.18158H66.7278ZM103.247 3.18158H104.008V2.42075H103.247V3.18158ZM103.247 131V131.761H104.008V131H103.247ZM66.7278 131H65.967V131.761H66.7278V131ZM66.7278 3.9424H103.247V2.42075H66.7278V3.9424ZM102.487 3.18158V131H104.008V3.18158H102.487ZM103.247 130.239H66.7278V131.761H103.247V130.239ZM67.4886 131V3.18158H65.967V131H67.4886ZM190.859 3.18158V2.42075H190.098V3.18158H190.859ZM227.378 3.18158H228.139V2.42075H227.378V3.18158ZM227.378 131V131.761H228.139V131H227.378ZM198.162 131L197.536 131.431L197.762 131.761H198.162V131ZM157.991 72.5687L158.618 72.1377L157.23 70.1191V72.5687H157.991ZM157.991 131V131.761H158.752V131H157.991ZM121.471 131H120.711V131.761H121.471V131ZM121.471 3.18158V2.42075H120.711V3.18158H121.471ZM150.687 3.18158L151.314 2.75055L151.087 2.42075H150.687V3.18158ZM190.859 61.6129L190.232 62.0439L191.619 64.0625V61.6129H190.859ZM190.859 3.9424H227.378V2.42075H190.859V3.9424ZM226.617 3.18158V131H228.139V3.18158H226.617ZM227.378 130.239H198.162V131.761H227.378V130.239ZM198.789 130.569L158.618 72.1377L157.364 72.9997L197.536 131.431L198.789 130.569ZM157.23 72.5687V131H158.752V72.5687H157.23ZM157.991 130.239H121.471V131.761H157.991V130.239ZM122.232 131V3.18158H120.711V131H122.232ZM121.471 3.9424H150.687V2.42075H121.471V3.9424ZM150.06 3.61261L190.232 62.0439L191.486 61.1818L151.314 2.75055L150.06 3.61261ZM191.619 61.6129V3.18158H190.098V61.6129H191.619ZM314.968 3.18158V2.42075H314.207V3.18158H314.968ZM351.488 3.18158H352.248V2.42075H351.488V3.18158ZM351.488 131V131.761H352.248V131H351.488ZM322.272 131L321.645 131.431L321.872 131.761H322.272V131ZM282.1 72.5687L282.727 72.1377L281.34 70.1191V72.5687H282.1ZM282.1 131V131.761H282.861V131H282.1ZM245.581 131H244.82V131.761H245.581V131ZM245.581 3.18158V2.42075H244.82V3.18158H245.581ZM274.796 3.18158L275.423 2.75055L275.197 2.42075H274.796V3.18158ZM314.968 61.6129L314.341 62.0439L315.729 64.0625V61.6129H314.968ZM314.968 3.9424H351.488V2.42075H314.968V3.9424ZM350.727 3.18158V131H352.248V3.18158H350.727ZM351.488 130.239H322.272V131.761H351.488V130.239ZM322.899 130.569L282.727 72.1377L281.473 72.9997L321.645 131.431L322.899 130.569ZM281.34 72.5687V131H282.861V72.5687H281.34ZM282.1 130.239H245.581V131.761H282.1V130.239ZM246.342 131V3.18158H244.82V131H246.342ZM245.581 3.9424H274.796V2.42075H245.581V3.9424ZM274.17 3.61261L314.341 62.0439L315.595 61.1818L275.423 2.75055L274.17 3.61261ZM315.729 61.6129V3.18158H314.207V61.6129H315.729ZM480.892 114.749L481.425 115.292L481.425 115.292L480.892 114.749ZM384.663 114.749L384.128 115.289L384.133 115.294L384.663 114.749ZM384.663 19.6154L385.196 20.1584L385.196 20.1584L384.663 19.6154ZM480.892 19.6154L480.357 20.1559L480.362 20.1609L480.892 19.6154ZM410.41 89.3677L409.866 89.9001L409.872 89.9057L409.877 89.9112L410.41 89.3677ZM455.146 89.3677L454.608 88.8297L455.146 89.3677ZM455.146 44.9965L454.602 45.5289L454.608 45.5345L454.614 45.54L455.146 44.9965ZM410.41 44.9965L409.872 44.4585L410.41 44.9965ZM480.359 114.206C467.483 126.842 451.669 133.161 432.869 133.161V134.682C452.05 134.682 468.251 128.219 481.425 115.292L480.359 114.206ZM432.869 133.161C414.069 133.161 398.193 126.842 385.194 114.203L384.133 115.294C397.427 128.22 413.689 134.682 432.869 134.682V133.161ZM385.199 114.208C372.322 101.452 365.886 85.7628 365.886 67.0908H364.364C364.364 86.1556 370.954 102.238 384.128 115.289L385.199 114.208ZM365.886 67.0908C365.886 48.4189 372.322 32.7918 385.196 20.1584L384.13 19.0723C370.954 32.0026 364.364 48.0259 364.364 67.0908H365.886ZM385.196 20.1584C398.196 7.39915 414.071 1.02084 432.869 1.02084V-0.500804C413.686 -0.500804 397.424 6.02447 384.13 19.0724L385.196 20.1584ZM432.869 1.02084C451.667 1.02084 467.48 7.39898 480.357 20.1559L481.428 19.0749C468.254 6.02463 452.052 -0.500804 432.869 -0.500804V1.02084ZM480.362 20.1609C493.357 32.7949 499.852 48.4212 499.852 67.0908H501.374C501.374 48.0236 494.722 31.9996 481.423 19.0699L480.362 20.1609ZM499.852 67.0908C499.852 85.7605 493.357 101.449 480.359 114.206L481.425 115.292C494.722 102.241 501.374 86.1579 501.374 67.0908H499.852ZM409.877 89.9112C415.996 95.9053 423.679 98.8932 432.869 98.8932V97.3716C424.043 97.3716 416.753 94.5164 410.942 88.8242L409.877 89.9112ZM432.869 98.8932C442.059 98.8932 449.685 95.9051 455.684 89.9057L454.608 88.8297C448.921 94.5166 441.695 97.3716 432.869 97.3716V98.8932ZM455.684 89.9057C461.8 83.7899 464.854 76.167 464.854 67.0908H463.332C463.332 75.7874 460.422 83.0158 454.608 88.8297L455.684 89.9057ZM464.854 67.0908C464.854 58.0145 461.799 50.4491 455.678 44.453L454.614 45.54C460.422 51.2301 463.332 58.3943 463.332 67.0908H464.854ZM455.689 44.4641C449.691 38.3408 442.064 35.2883 432.869 35.2883V36.81C441.691 36.81 448.915 39.7224 454.602 45.5289L455.689 44.4641ZM432.869 35.2883C423.674 35.2883 415.99 38.3406 409.872 44.4585L410.948 45.5345C416.759 39.7227 424.048 36.81 432.869 36.81V35.2883ZM409.872 44.4585C403.874 50.4558 400.884 58.0194 400.884 67.0908H402.406C402.406 58.3893 405.259 51.2234 410.948 45.5345L409.872 44.4585ZM400.884 67.0908C400.884 76.1621 403.874 83.7833 409.866 89.9001L410.953 88.8353C405.259 83.0224 402.406 75.7923 402.406 67.0908H400.884ZM538.585 131L537.86 131.231L538.028 131.761H538.585V131ZM497.865 3.18158V2.42075H496.824L497.14 3.41252L497.865 3.18158ZM538.037 3.18158L538.773 2.99122L538.626 2.42075H538.037V3.18158ZM559.036 84.4376L558.299 84.6279L559.036 87.4783L559.772 84.6279L559.036 84.4376ZM580.034 3.18158V2.42075H579.445L579.298 2.99122L580.034 3.18158ZM620.206 3.18158L620.931 3.41252L621.247 2.42075H620.206V3.18158ZM579.487 131V131.761H580.043L580.211 131.231L579.487 131ZM539.31 130.769L498.59 2.95064L497.14 3.41252L537.86 131.231L539.31 130.769ZM497.865 3.9424H538.037V2.42075H497.865V3.9424ZM537.3 3.37194L558.299 84.6279L559.772 84.2472L538.773 2.99122L537.3 3.37194ZM559.772 84.6279L580.771 3.37194L579.298 2.99122L558.299 84.2472L559.772 84.6279ZM580.034 3.9424H620.206V2.42075H580.034V3.9424ZM619.481 2.95064L578.762 130.769L580.211 131.231L620.931 3.41252L619.481 2.95064ZM579.487 130.239H538.585V131.761H579.487V130.239ZM695.962 131L695.227 131.196L695.378 131.761H695.962V131ZM691.58 114.566L692.315 114.37L692.165 113.805H691.58V114.566ZM654.695 114.566V113.805H654.111L653.96 114.37L654.695 114.566ZM650.313 131V131.761H650.898L651.048 131.196L650.313 131ZM611.054 131L610.33 130.769L610.014 131.761H611.054V131ZM651.774 3.18158V2.42075H651.218L651.049 2.95064L651.774 3.18158ZM694.502 3.18158L695.227 2.95064L695.058 2.42075H694.502V3.18158ZM735.221 131V131.761H736.262L735.946 130.769L735.221 131ZM662.547 85.3506L661.812 85.1524L661.554 86.1114H662.547V85.3506ZM683.728 85.3506V86.1114H684.722L684.463 85.1524L683.728 85.3506ZM673.138 46.092L673.872 45.8939L673.138 43.1709L672.403 45.8939L673.138 46.092ZM696.698 130.804L692.315 114.37L690.845 114.762L695.227 131.196L696.698 130.804ZM691.58 113.805H654.695V115.327H691.58V113.805ZM653.96 114.37L649.578 130.804L651.048 131.196L655.43 114.762L653.96 114.37ZM650.313 130.239H611.054V131.761H650.313V130.239ZM611.779 131.231L652.499 3.41252L651.049 2.95064L610.33 130.769L611.779 131.231ZM651.774 3.9424H694.502V2.42075H651.774V3.9424ZM693.777 3.41252L734.496 131.231L735.946 130.769L695.227 2.95064L693.777 3.41252ZM735.221 130.239H695.962V131.761H735.221V130.239ZM662.547 86.1114H683.728V84.5897H662.547V86.1114ZM684.463 85.1524L673.872 45.8939L672.403 46.2902L682.994 85.5487L684.463 85.1524ZM672.403 45.8939L661.812 85.1524L663.282 85.5487L673.872 46.2902L672.403 45.8939ZM822.932 3.18158H823.693V2.42075H822.932V3.18158ZM822.932 38.6055V39.3664H823.693V38.6055H822.932ZM792.803 38.6055V37.8447H792.043V38.6055H792.803ZM792.803 131V131.761H793.564V131H792.803ZM756.284 131H755.523V131.761H756.284V131ZM756.284 38.6055H757.045V37.8447H756.284V38.6055ZM726.155 38.6055H725.394V39.3664H726.155V38.6055ZM726.155 3.18158V2.42075H725.394V3.18158H726.155ZM822.171 3.18158V38.6055H823.693V3.18158H822.171ZM822.932 37.8447H792.803V39.3664H822.932V37.8447ZM792.043 38.6055V131H793.564V38.6055H792.043ZM792.803 130.239H756.284V131.761H792.803V130.239ZM757.045 131V38.6055H755.523V131H757.045ZM756.284 37.8447H726.155V39.3664H756.284V37.8447ZM726.916 38.6055V3.18158H725.394V38.6055H726.916ZM726.155 3.9424H822.932V2.42075H726.155V3.9424ZM833.852 3.18158V2.42075H833.091V3.18158H833.852ZM870.372 3.18158H871.133V2.42075H870.372V3.18158ZM870.372 131V131.761H871.133V131H870.372ZM833.852 131H833.091V131.761H833.852V131ZM833.852 3.9424H870.372V2.42075H833.852V3.9424ZM869.611 3.18158V131H871.133V3.18158H869.611ZM870.372 130.239H833.852V131.761H870.372V130.239ZM834.613 131V3.18158H833.091V131H834.613ZM920.185 131L919.46 131.231L919.629 131.761H920.185V131ZM879.466 3.18158V2.42075H878.425L878.741 3.41252L879.466 3.18158ZM919.638 3.18158L920.374 2.99122L920.227 2.42075H919.638V3.18158ZM940.636 84.4376L939.9 84.6279L940.636 87.4783L941.373 84.6279L940.636 84.4376ZM961.635 3.18158V2.42075H961.046L960.898 2.99122L961.635 3.18158ZM1001.81 3.18158L1002.53 3.41252L1002.85 2.42075H1001.81V3.18158ZM961.087 131V131.761H961.643L961.812 131.231L961.087 131ZM920.91 130.769L880.191 2.95064L878.741 3.41252L919.46 131.231L920.91 130.769ZM879.466 3.9424H919.638V2.42075H879.466V3.9424ZM918.901 3.37194L939.9 84.6279L941.373 84.2472L920.374 2.99122L918.901 3.37194ZM941.373 84.6279L962.372 3.37194L960.898 2.99122L939.9 84.2472L941.373 84.6279ZM961.635 3.9424H1001.81V2.42075H961.635V3.9424ZM1001.08 2.95064L960.362 130.769L961.812 131.231L1002.53 3.41252L1001.08 2.95064ZM961.087 130.239H920.185V131.761H961.087V130.239ZM1047.44 97.402H1046.68V98.1628H1047.44V97.402ZM1094.92 97.402H1095.68V96.6412H1094.92V97.402ZM1094.92 131V131.761H1095.68V131H1094.92ZM1010.92 131H1010.16V131.761H1010.92V131ZM1010.92 3.18158V2.42075H1010.16V3.18158H1010.92ZM1094 3.18158H1094.76V2.42075H1094V3.18158ZM1094 36.4144V37.1752H1094.76V36.4144H1094ZM1047.44 36.4144V35.6535H1046.68V36.4144H1047.44ZM1047.44 50.2918H1046.68V51.0526H1047.44V50.2918ZM1089.44 50.2918H1090.2V49.531H1089.44V50.2918ZM1089.44 83.1594V83.9202H1090.2V83.1594H1089.44ZM1047.44 83.1594V82.3986H1046.68V83.1594H1047.44ZM1047.44 98.1628H1094.92V96.6412H1047.44V98.1628ZM1094.16 97.402V131H1095.68V97.402H1094.16ZM1094.92 130.239H1010.92V131.761H1094.92V130.239ZM1011.68 131V3.18158H1010.16V131H1011.68ZM1010.92 3.9424H1094V2.42075H1010.92V3.9424ZM1093.24 3.18158V36.4144H1094.76V3.18158H1093.24ZM1094 35.6535H1047.44V37.1752H1094V35.6535ZM1046.68 36.4144V50.2918H1048.2V36.4144H1046.68ZM1047.44 51.0526H1089.44V49.531H1047.44V51.0526ZM1088.68 50.2918V83.1594H1090.2V50.2918H1088.68ZM1089.44 82.3986H1047.44V83.9202H1089.44V82.3986ZM1046.68 83.1594V97.402H1048.2V83.1594H1046.68ZM85.3121 298L84.5769 298.196L84.7275 298.761H85.3121V298ZM80.9297 281.566L81.6649 281.37L81.5143 280.805H80.9297V281.566ZM44.045 281.566V280.805H43.4605L43.3099 281.37L44.045 281.566ZM39.6626 298V298.761H40.2472L40.3978 298.196L39.6626 298ZM0.404125 298L-0.320802 297.769L-0.63675 298.761H0.404125V298ZM41.1234 170.182V169.421H40.5673L40.3985 169.951L41.1234 170.182ZM83.8513 170.182L84.5762 169.951L84.4074 169.421H83.8513V170.182ZM124.571 298V298.761H125.611L125.296 297.769L124.571 298ZM51.8967 252.351L51.1621 252.152L50.9034 253.111H51.8967V252.351ZM73.078 252.351V253.111H74.0713L73.8126 252.152L73.078 252.351ZM62.4874 213.092L63.2219 212.894L62.4874 210.171L61.7528 212.894L62.4874 213.092ZM86.0472 297.804L81.6649 281.37L80.1946 281.762L84.5769 298.196L86.0472 297.804ZM80.9297 280.805H44.045V282.327H80.9297V280.805ZM43.3099 281.37L38.9275 297.804L40.3978 298.196L44.7801 281.762L43.3099 281.37ZM39.6626 297.239H0.404125V298.761H39.6626V297.239ZM1.12905 298.231L41.8484 170.413L40.3985 169.951L-0.320802 297.769L1.12905 298.231ZM41.1234 170.942H83.8513V169.421H41.1234V170.942ZM83.1264 170.413L123.846 298.231L125.296 297.769L84.5762 169.951L83.1264 170.413ZM124.571 297.239H85.3121V298.761H124.571V297.239ZM51.8967 253.111H73.078V251.59H51.8967V253.111ZM73.8126 252.152L63.2219 212.894L61.7528 213.29L72.3435 252.549L73.8126 252.152ZM61.7528 212.894L51.1621 252.152L52.6313 252.549L63.2219 213.29L61.7528 212.894ZM229.045 188.624L228.496 189.151L228.502 189.156L229.045 188.624ZM229.045 279.74L228.499 279.21L228.499 279.211L229.045 279.74ZM131.903 298H131.142V298.761H131.903V298ZM131.903 170.182V169.421H131.142V170.182H131.903ZM203.116 254.724L202.553 254.213L202.553 254.213L203.116 254.724ZM203.116 213.64L202.547 214.145L202.553 214.151L202.559 214.158L203.116 213.64ZM170.249 205.606V204.845H169.488V205.606H170.249ZM170.249 262.576H169.488V263.337H170.249V262.576ZM184.856 170.942C202.309 170.942 216.837 177.011 228.496 189.151L229.594 188.097C217.637 175.647 202.706 169.421 184.856 169.421V170.942ZM228.502 189.156C240.282 201.178 246.179 216.138 246.179 234.091H247.7C247.7 215.768 241.667 200.417 229.588 188.091L228.502 189.156ZM246.179 234.091C246.179 252.044 240.282 267.066 228.499 279.21L229.591 280.27C241.667 267.824 247.7 252.414 247.7 234.091H246.179ZM228.499 279.211C216.841 291.229 202.311 297.239 184.856 297.239V298.761C202.704 298.761 217.633 292.597 229.591 280.27L228.499 279.211ZM184.856 297.239H131.903V298.761H184.856V297.239ZM132.664 298V170.182H131.142V298H132.664ZM131.903 170.942H184.856V169.421H131.903V170.942ZM184.856 263.337C192.484 263.337 198.78 260.638 203.68 255.235L202.553 254.213C197.957 259.28 192.08 261.815 184.856 261.815V263.337ZM203.679 255.236C208.696 249.718 211.181 242.647 211.181 234.091H209.659C209.659 242.333 207.275 249.019 202.553 254.213L203.679 255.236ZM211.181 234.091C211.181 225.535 208.696 218.521 203.673 213.122L202.559 214.158C207.275 219.228 209.659 225.848 209.659 234.091H211.181ZM203.686 213.135C198.788 207.609 192.49 204.845 184.856 204.845V206.366C192.074 206.366 197.95 208.958 202.547 214.145L203.686 213.135ZM184.856 204.845H170.249V206.366H184.856V204.845ZM169.488 205.606V262.576H171.009V205.606H169.488ZM170.249 263.337H184.856V261.815H170.249V263.337ZM284.927 298L284.202 298.231L284.371 298.761H284.927V298ZM244.208 170.182V169.421H243.167L243.483 170.413L244.208 170.182ZM284.379 170.182L285.116 169.991L284.968 169.421H284.379V170.182ZM305.378 251.438L304.641 251.628L305.378 254.478L306.115 251.628L305.378 251.438ZM326.377 170.182V169.421H325.788L325.64 169.991L326.377 170.182ZM366.548 170.182L367.273 170.413L367.589 169.421H366.548V170.182ZM325.829 298V298.761H326.385L326.554 298.231L325.829 298ZM285.652 297.769L244.933 169.951L243.483 170.413L284.202 298.231L285.652 297.769ZM244.208 170.942H284.379V169.421H244.208V170.942ZM283.643 170.372L304.641 251.628L306.115 251.247L285.116 169.991L283.643 170.372ZM306.115 251.628L327.113 170.372L325.64 169.991L304.641 251.247L306.115 251.628ZM326.377 170.942H366.548V169.421H326.377V170.942ZM365.823 169.951L325.104 297.769L326.554 298.231L367.273 170.413L365.823 169.951ZM325.829 297.239H284.927V298.761H325.829V297.239ZM412.183 264.402H411.423V265.163H412.183V264.402ZM459.659 264.402H460.42V263.641H459.659V264.402ZM459.659 298V298.761H460.42V298H459.659ZM375.664 298H374.903V298.761H375.664V298ZM375.664 170.182V169.421H374.903V170.182H375.664ZM458.746 170.182H459.507V169.421H458.746V170.182ZM458.746 203.414V204.175H459.507V203.414H458.746ZM412.183 203.414V202.654H411.423V203.414H412.183ZM412.183 217.292H411.423V218.053H412.183V217.292ZM454.181 217.292H454.942V216.531H454.181V217.292ZM454.181 250.159V250.92H454.942V250.159H454.181ZM412.183 250.159V249.399H411.423V250.159H412.183ZM412.183 265.163H459.659V263.641H412.183V265.163ZM458.898 264.402V298H460.42V264.402H458.898ZM459.659 297.239H375.664V298.761H459.659V297.239ZM376.425 298V170.182H374.903V298H376.425ZM375.664 170.942H458.746V169.421H375.664V170.942ZM457.985 170.182V203.414H459.507V170.182H457.985ZM458.746 202.654H412.183V204.175H458.746V202.654ZM411.423 203.414V217.292H412.944V203.414H411.423ZM412.183 218.053H454.181V216.531H412.183V218.053ZM453.42 217.292V250.159H454.942V217.292H453.42ZM454.181 249.399H412.183V250.92H454.181V249.399ZM411.423 250.159V264.402H412.944V250.159H411.423ZM540.192 297.817L539.512 298.16L539.723 298.578H540.192V297.817ZM519.923 257.646L520.602 257.303L520.392 256.885H519.923V257.646ZM510.793 257.646V256.885H510.033V257.646H510.793ZM510.793 297.817V298.578H511.554V297.817H510.793ZM474.274 297.817H473.513V298.578H474.274V297.817ZM474.274 169.999V169.238H473.513V169.999H474.274ZM560.095 182.416L559.584 182.979L559.588 182.983L560.095 182.416ZM568.494 235.369L567.836 234.987L567.83 234.997L568.494 235.369ZM554.069 250.159L553.674 249.509L553.061 249.881L553.396 250.515L554.069 250.159ZM579.267 297.817V298.578H580.53L579.94 297.462L579.267 297.817ZM510.793 203.597V202.836H510.033V203.597H510.793ZM510.793 227.335H510.033V228.095H510.793V227.335ZM524.671 227.335L524.695 226.574L524.683 226.574H524.671V227.335ZM533.801 224.413L533.293 223.846L533.286 223.853L533.278 223.86L533.801 224.413ZM533.801 206.884L533.263 207.422L533.278 207.437L533.293 207.451L533.801 206.884ZM540.871 297.475L520.602 257.303L519.244 257.989L539.512 298.16L540.871 297.475ZM519.923 256.885H510.793V258.407H519.923V256.885ZM510.033 257.646V297.817H511.554V257.646H510.033ZM510.793 297.057H474.274V298.578H510.793V297.057ZM475.035 297.817V169.999H473.513V297.817H475.035ZM474.274 170.76H525.401V169.238H474.274V170.76ZM525.401 170.76C539.239 170.76 550.613 174.846 559.584 182.979L560.606 181.852C551.317 173.43 539.562 169.238 525.401 169.238V170.76ZM559.588 182.983C568.538 190.979 573.029 201.597 573.029 214.918H574.55C574.55 201.214 569.911 190.165 560.602 181.848L559.588 182.983ZM573.029 214.918C573.029 222.341 571.294 229.025 567.836 234.987L569.152 235.751C572.755 229.54 574.55 222.589 574.55 214.918H573.029ZM567.83 234.997C564.489 240.965 559.775 245.801 553.674 249.509L554.464 250.81C560.78 246.971 565.683 241.947 569.158 235.741L567.83 234.997ZM553.396 250.515L578.595 298.173L579.94 297.462L554.742 249.804L553.396 250.515ZM579.267 297.057H540.192V298.578H579.267V297.057ZM510.033 203.597V227.335H511.554V203.597H510.033ZM510.793 228.095H524.671V226.574H510.793V228.095ZM524.647 228.095C528.683 228.221 531.945 227.212 534.323 224.966L533.278 223.86C531.274 225.753 528.45 226.692 524.695 226.574L524.647 228.095ZM534.308 224.98C536.816 222.736 538.031 219.588 538.031 215.648H536.509C536.509 219.256 535.411 221.952 533.293 223.846L534.308 224.98ZM538.031 215.648C538.031 211.709 536.816 208.561 534.308 206.317L533.293 207.451C535.411 209.345 536.509 212.04 536.509 215.648H538.031ZM534.339 206.346C531.97 203.977 528.713 202.836 524.671 202.836V204.358C528.419 204.358 531.249 205.408 533.263 207.422L534.339 206.346ZM524.671 202.836H510.793V204.358H524.671V202.836ZM675.195 170.182H675.956V169.421H675.195V170.182ZM675.195 205.606V206.366H675.956V205.606H675.195ZM645.067 205.606V204.845H644.306V205.606H645.067ZM645.067 298V298.761H645.828V298H645.067ZM608.547 298H607.786V298.761H608.547V298ZM608.547 205.606H609.308V204.845H608.547V205.606ZM578.419 205.606H577.658V206.366H578.419V205.606ZM578.419 170.182V169.421H577.658V170.182H578.419ZM674.435 170.182V205.606H675.956V170.182H674.435ZM675.195 204.845H645.067V206.366H675.195V204.845ZM644.306 205.606V298H645.828V205.606H644.306ZM645.067 297.239H608.547V298.761H645.067V297.239ZM609.308 298V205.606H607.786V298H609.308ZM608.547 204.845H578.419V206.366H608.547V204.845ZM579.18 205.606V170.182H577.658V205.606H579.18ZM578.419 170.942H675.195V169.421H578.419V170.942ZM686.116 170.182V169.421H685.355V170.182H686.116ZM722.635 170.182H723.396V169.421H722.635V170.182ZM722.635 298V298.761H723.396V298H722.635ZM686.116 298H685.355V298.761H686.116V298ZM686.116 170.942H722.635V169.421H686.116V170.942ZM721.874 170.182V298H723.396V170.182H721.874ZM722.635 297.239H686.116V298.761H722.635V297.239ZM686.876 298V170.182H685.355V298H686.876ZM750.397 292.339L749.991 292.983L749.997 292.987L750.397 292.339ZM731.772 268.784L731.391 268.126L730.86 268.433L731.048 269.017L731.772 268.784ZM762.996 250.707L763.705 250.429L763.381 249.606L762.615 250.049L762.996 250.707ZM797.507 257.098L796.862 257.501H796.862L797.507 257.098ZM794.038 254.542L793.738 255.241L794.038 254.542ZM789.473 252.898L789.191 253.605L789.231 253.621L789.273 253.632L789.473 252.898ZM782.9 250.89L783.097 250.155L782.9 250.89ZM775.778 248.881L776.002 248.154L775.998 248.153L775.778 248.881ZM750.215 178.764L749.706 178.198L749.702 178.202L750.215 178.764ZM812.663 174.929L812.272 175.582L812.276 175.584L812.663 174.929ZM831.653 197.023L832.037 197.68L832.612 197.344L832.355 196.73L831.653 197.023ZM801.342 214.735L800.634 215.013L800.958 215.841L801.726 215.392L801.342 214.735ZM776.509 203.232L776.973 203.835L776.979 203.83L776.509 203.232ZM778.335 214.188L777.983 214.862L777.994 214.868L778.335 214.188ZM794.951 219.848L795.17 219.119L795.159 219.116L794.951 219.848ZM809.924 225.143L809.619 225.841L809.628 225.845L809.638 225.848L809.924 225.143ZM822.158 232.082L821.716 232.701L821.722 232.706L821.728 232.71L822.158 232.082ZM831.653 243.586L830.956 243.89L830.961 243.901L830.966 243.912L831.653 243.586ZM821.428 290.331L821.901 290.927L821.902 290.926L821.428 290.331ZM785.091 300.161C771.316 300.161 759.9 297.322 750.797 291.692L749.997 292.987C759.398 298.8 771.111 301.682 785.091 301.682V300.161ZM750.804 291.696C741.694 285.943 735.604 278.232 732.497 268.552L731.048 269.017C734.271 279.057 740.598 287.05 749.991 292.983L750.804 291.696ZM732.153 269.443L763.378 251.366L762.615 250.049L731.391 268.126L732.153 269.443ZM762.288 250.986C764.46 256.508 767.523 260.704 771.505 263.517C775.49 266.332 780.337 267.719 786.004 267.719V266.198C780.593 266.198 776.067 264.877 772.383 262.274C768.696 259.67 765.794 255.741 763.705 250.429L762.288 250.986ZM786.004 267.719C790.185 267.719 793.438 267.17 795.672 265.987C796.8 265.39 797.687 264.622 798.288 263.666C798.892 262.708 799.181 261.605 799.181 260.385H797.66C797.66 261.356 797.432 262.17 797.001 262.855C796.567 263.543 795.902 264.144 794.96 264.643C793.055 265.651 790.1 266.198 786.004 266.198V267.719ZM799.181 260.385C799.181 259.034 798.841 257.797 798.153 256.695L796.862 257.501C797.391 258.347 797.66 259.301 797.66 260.385H799.181ZM798.153 256.695C797.425 255.531 796.104 254.6 794.338 253.842L793.738 255.241C795.38 255.945 796.372 256.718 796.862 257.501L798.153 256.695ZM794.338 253.842C792.611 253.102 791.055 252.541 789.673 252.164L789.273 253.632C790.569 253.986 792.056 254.52 793.738 255.241L794.338 253.842ZM789.756 252.192C788.492 251.686 786.261 251.007 783.097 250.155L782.702 251.624C785.868 252.477 788.02 253.136 789.191 253.605L789.756 252.192ZM783.097 250.155C779.934 249.304 777.571 248.637 776.002 248.154L775.555 249.608C777.15 250.099 779.535 250.772 782.702 251.624L783.097 250.155ZM775.998 248.153C763.355 244.342 753.951 239.056 747.714 232.34C741.492 225.642 738.376 217.477 738.376 207.797H736.855C736.855 217.837 740.1 226.38 746.599 233.376C753.082 240.356 762.76 245.752 775.559 249.61L775.998 248.153ZM738.376 207.797C738.376 196.318 742.491 186.846 750.728 179.326L749.702 178.202C741.139 186.02 736.855 195.903 736.855 207.797H738.376ZM750.724 179.329C759.078 171.81 770.023 168.021 783.63 168.021V166.499C769.726 166.499 758.393 170.379 749.706 178.198L750.724 179.329ZM783.63 168.021C794.339 168.021 803.879 170.546 812.272 175.582L813.055 174.277C804.404 169.087 794.589 166.499 783.63 166.499V168.021ZM812.276 175.584C820.772 180.61 826.995 187.845 830.951 197.317L832.355 196.73C828.277 186.968 821.84 179.474 813.05 174.274L812.276 175.584ZM831.269 196.367L800.958 214.079L801.726 215.392L832.037 197.68L831.269 196.367ZM802.05 214.458C800.25 209.864 797.836 206.357 794.776 203.999C791.708 201.633 788.04 200.462 783.813 200.462V201.984C787.741 201.984 791.073 203.065 793.848 205.204C796.631 207.349 798.904 210.598 800.634 215.013L802.05 214.458ZM783.813 200.462C780.553 200.462 777.926 201.15 776.039 202.634L776.979 203.83C778.5 202.635 780.742 201.984 783.813 201.984V200.462ZM776.045 202.629C774.281 203.986 773.374 205.789 773.374 207.979H774.896C774.896 206.275 775.572 204.912 776.973 203.835L776.045 202.629ZM773.374 207.979C773.374 210.997 774.986 213.299 777.983 214.862L778.687 213.513C776.084 212.155 774.896 210.317 774.896 207.979H773.374ZM777.994 214.868C780.988 216.365 786.592 218.268 794.744 220.58L795.159 219.116C786.998 216.802 781.524 214.932 778.675 213.507L777.994 214.868ZM794.732 220.577C800.802 222.398 805.762 224.153 809.619 225.841L810.229 224.446C806.295 222.726 801.273 220.95 795.17 219.119L794.732 220.577ZM809.638 225.848C813.467 227.404 817.492 229.685 821.716 232.701L822.6 231.463C818.303 228.393 814.172 226.048 810.21 224.439L809.638 225.848ZM821.728 232.71C825.871 235.55 828.943 239.273 830.956 243.89L832.351 243.282C830.224 238.404 826.967 234.457 822.588 231.455L821.728 232.71ZM830.966 243.912C833.099 248.414 834.179 253.776 834.179 260.02H835.701C835.701 253.603 834.59 248.009 832.341 243.26L830.966 243.912ZM834.179 260.02C834.179 272.848 829.755 282.718 820.953 289.736L821.902 290.926C831.116 283.579 835.701 273.242 835.701 260.02H834.179ZM820.954 289.735C812.243 296.657 800.317 300.161 785.091 300.161V301.682C800.541 301.682 812.84 298.126 821.901 290.927L820.954 289.735ZM844.997 170.182V169.421H844.236V170.182H844.997ZM881.517 170.182H882.278V169.421H881.517V170.182ZM881.517 298V298.761H882.278V298H881.517ZM844.997 298H844.236V298.761H844.997V298ZM844.997 170.942H881.517V169.421H844.997V170.942ZM880.756 170.182V298H882.278V170.182H880.756ZM881.517 297.239H844.997V298.761H881.517V297.239ZM845.758 298V170.182H844.236V298H845.758ZM969.128 170.182V169.421H968.367V170.182H969.128ZM1005.65 170.182H1006.41V169.421H1005.65V170.182ZM1005.65 298V298.761H1006.41V298H1005.65ZM976.432 298L975.805 298.431L976.032 298.761H976.432V298ZM936.26 239.569L936.887 239.138L935.5 237.119V239.569H936.26ZM936.26 298V298.761H937.021V298H936.26ZM899.741 298H898.98V298.761H899.741V298ZM899.741 170.182V169.421H898.98V170.182H899.741ZM928.956 170.182L929.583 169.751L929.357 169.421H928.956V170.182ZM969.128 228.613L968.501 229.044L969.889 231.062V228.613H969.128ZM969.128 170.942H1005.65V169.421H969.128V170.942ZM1004.89 170.182V298H1006.41V170.182H1004.89ZM1005.65 297.239H976.432V298.761H1005.65V297.239ZM977.059 297.569L936.887 239.138L935.633 240L975.805 298.431L977.059 297.569ZM935.5 239.569V298H937.021V239.569H935.5ZM936.26 297.239H899.741V298.761H936.26V297.239ZM900.502 298V170.182H898.98V298H900.502ZM899.741 170.942H928.956V169.421H899.741V170.942ZM928.329 170.613L968.501 229.044L969.755 228.182L929.583 169.751L928.329 170.613ZM969.889 228.613V170.182H968.367V228.613H969.889ZM1151.12 222.587H1151.88V221.826H1151.12V222.587ZM1133.41 283.027L1132.87 282.492L1132.87 282.495L1133.41 283.027ZM1038.28 281.931L1037.73 282.467L1037.74 282.469L1038.28 281.931ZM1038.28 186.615L1038.82 187.151L1038.82 187.148L1038.28 186.615ZM1118.44 175.294L1118.07 175.963L1118.08 175.965L1118.44 175.294ZM1141.99 197.023L1142.37 197.684L1143.06 197.291L1142.64 196.619L1141.99 197.023ZM1110.95 214.735L1110.31 215.153L1110.71 215.751L1111.33 215.396L1110.95 214.735ZM1064.2 211.814L1063.66 211.282L1063.65 211.287L1064.2 211.814ZM1063.66 257.463L1063.06 257.937L1063.07 257.943L1063.66 257.463ZM1113.32 253.629L1114.01 253.954L1114.52 252.868H1113.32V253.629ZM1086.12 253.629H1085.36V254.39H1086.12V253.629ZM1086.12 222.587V221.826H1085.36V222.587H1086.12ZM1150.36 222.587V237.743H1151.88V222.587H1150.36ZM1150.36 237.743C1150.36 255.821 1144.52 270.718 1132.87 282.492L1133.95 283.562C1145.91 271.477 1151.88 256.184 1151.88 237.743H1150.36ZM1132.87 282.495C1121.34 294.257 1106.15 300.161 1087.21 300.161V301.682C1106.5 301.682 1122.1 295.657 1133.95 283.559L1132.87 282.495ZM1087.21 300.161C1067.42 300.161 1051.31 293.894 1038.81 281.393L1037.74 282.469C1050.56 295.289 1067.07 301.682 1087.21 301.682V300.161ZM1038.82 281.396C1026.31 268.765 1020.05 253.075 1020.05 234.273H1018.52C1018.52 253.452 1024.93 269.534 1037.73 282.467L1038.82 281.396ZM1020.05 234.273C1020.05 215.471 1026.31 199.782 1038.82 187.151L1037.73 186.08C1024.93 199.013 1018.52 215.095 1018.52 234.273H1020.05ZM1038.82 187.148C1051.33 174.398 1066.95 168.021 1085.75 168.021V166.499C1066.57 166.499 1050.54 173.025 1037.73 186.083L1038.82 187.148ZM1085.75 168.021C1097.56 168.021 1108.33 170.671 1118.07 175.963L1118.8 174.626C1108.82 169.205 1097.8 166.499 1085.75 166.499V168.021ZM1118.08 175.965C1127.95 181.262 1135.7 188.415 1141.35 197.427L1142.64 196.619C1136.84 187.372 1128.89 180.039 1118.8 174.624L1118.08 175.965ZM1141.61 196.363L1110.57 214.075L1111.33 215.396L1142.37 197.684L1141.61 196.363ZM1111.59 214.318C1106.3 206.267 1097.88 202.288 1086.48 202.288V203.81C1097.48 203.81 1105.37 207.622 1110.31 215.153L1111.59 214.318ZM1086.48 202.288C1077.17 202.288 1069.54 205.275 1063.66 211.282L1064.75 212.346C1070.31 206.667 1077.53 203.81 1086.48 203.81V202.288ZM1063.65 211.287C1057.9 217.293 1055.04 225.038 1055.04 234.456H1056.57C1056.57 225.37 1059.31 218.021 1064.75 212.34L1063.65 211.287ZM1055.04 234.456C1055.04 243.385 1057.71 251.223 1063.06 257.937L1064.25 256.989C1059.13 250.557 1056.57 243.057 1056.57 234.456H1055.04ZM1063.07 257.943C1068.49 264.626 1076.84 267.902 1087.94 267.902V266.38C1077.14 266.38 1069.29 263.205 1064.25 256.984L1063.07 257.943ZM1087.94 267.902C1094.36 267.902 1099.77 266.761 1104.14 264.435C1108.52 262.102 1111.81 258.6 1114.01 253.954L1112.64 253.303C1110.57 257.666 1107.5 260.919 1103.42 263.091C1099.33 265.269 1094.19 266.38 1087.94 266.38V267.902ZM1113.32 252.868H1086.12V254.39H1113.32V252.868ZM1086.88 253.629V222.587H1085.36V253.629H1086.88ZM1086.12 223.348H1151.12V221.826H1086.12V223.348ZM212.697 350.781L212.174 351.334L212.178 351.338L212.697 350.781ZM212.697 417.429L213.215 417.986L213.219 417.982L212.697 417.429ZM164.856 429.846V429.085H164.095V429.846H164.856ZM164.856 466V466.761H165.617V466H164.856ZM128.337 466H127.576V466.761H128.337V466ZM128.337 338.182V337.421H127.576V338.182H128.337ZM186.585 391.683L187.106 392.238L187.115 392.229L187.123 392.221L186.585 391.683ZM186.585 376.527L186.047 377.065L186.056 377.074L186.065 377.082L186.585 376.527ZM164.856 373.606V372.845H164.095V373.606H164.856ZM164.856 394.422H164.095V395.182H164.856V394.422ZM179.464 338.942C192.557 338.942 203.442 343.08 212.174 351.334L213.219 350.228C204.179 341.683 192.909 337.421 179.464 337.421V338.942ZM212.178 351.338C220.888 359.45 225.266 370.314 225.266 384.014H226.787C226.787 369.958 222.279 358.667 213.215 350.224L212.178 351.338ZM225.266 384.014C225.266 397.713 220.887 408.64 212.174 416.876L213.219 417.982C222.279 409.419 226.787 398.069 226.787 384.014H225.266ZM212.178 416.872C203.446 425.006 192.56 429.085 179.464 429.085V430.606C192.906 430.606 204.175 426.407 213.215 417.986L212.178 416.872ZM179.464 429.085H164.856V430.606H179.464V429.085ZM164.095 429.846V466H165.617V429.846H164.095ZM164.856 465.239H128.337V466.761H164.856V465.239ZM129.097 466V338.182H127.576V466H129.097ZM128.337 338.942H179.464V337.421H128.337V338.942ZM179.464 395.182C182.447 395.182 185.01 394.203 187.106 392.238L186.065 391.128C184.266 392.815 182.081 393.661 179.464 393.661V395.182ZM187.123 392.221C189.235 390.109 190.268 387.348 190.268 384.014H188.746C188.746 387.009 187.831 389.361 186.047 391.145L187.123 392.221ZM190.268 384.014C190.268 380.681 189.235 377.968 187.106 375.972L186.065 377.082C187.831 378.738 188.746 381.017 188.746 384.014H190.268ZM187.123 375.989C185.03 373.896 182.462 372.845 179.464 372.845V374.366C182.066 374.366 184.245 375.263 186.047 377.065L187.123 375.989ZM179.464 372.845H164.856V374.366H179.464V372.845ZM164.095 373.606V394.422H165.617V373.606H164.095ZM164.856 395.182H179.464V393.661H164.856V395.182ZM273.452 430.576H272.691V431.337H273.452V430.576ZM315.449 430.576H316.21V429.815H315.449V430.576ZM315.449 466V466.761H316.21V466H315.449ZM236.932 466H236.172V466.761H236.932V466ZM236.932 338.182V337.421H236.172V338.182H236.932ZM273.452 338.182H274.213V337.421H273.452V338.182ZM273.452 431.337H315.449V429.815H273.452V431.337ZM314.689 430.576V466H316.21V430.576H314.689ZM315.449 465.239H236.932V466.761H315.449V465.239ZM237.693 466V338.182H236.172V466H237.693ZM236.932 338.942H273.452V337.421H236.932V338.942ZM272.691 338.182V430.576H274.213V338.182H272.691ZM403.967 466L403.231 466.196L403.382 466.761H403.967V466ZM399.584 449.566L400.319 449.37L400.169 448.805H399.584V449.566ZM362.699 449.566V448.805H362.115L361.964 449.37L362.699 449.566ZM358.317 466V466.761H358.902L359.052 466.196L358.317 466ZM319.059 466L318.334 465.769L318.018 466.761H319.059V466ZM359.778 338.182V337.421H359.222L359.053 337.951L359.778 338.182ZM402.506 338.182L403.231 337.951L403.062 337.421H402.506V338.182ZM443.225 466V466.761H444.266L443.95 465.769L443.225 466ZM370.551 420.351L369.817 420.152L369.558 421.111H370.551V420.351ZM391.732 420.351V421.111H392.726L392.467 420.152L391.732 420.351ZM381.142 381.092L381.876 380.894L381.142 378.171L380.407 380.894L381.142 381.092ZM404.702 465.804L400.319 449.37L398.849 449.762L403.231 466.196L404.702 465.804ZM399.584 448.805H362.699V450.327H399.584V448.805ZM361.964 449.37L357.582 465.804L359.052 466.196L363.435 449.762L361.964 449.37ZM358.317 465.239H319.059V466.761H358.317V465.239ZM319.784 466.231L360.503 338.413L359.053 337.951L318.334 465.769L319.784 466.231ZM359.778 338.942H402.506V337.421H359.778V338.942ZM401.781 338.413L442.5 466.231L443.95 465.769L403.231 337.951L401.781 338.413ZM443.225 465.239H403.967V466.761H443.225V465.239ZM370.551 421.111H391.732V419.59H370.551V421.111ZM392.467 420.152L381.876 380.894L380.407 381.29L390.998 420.549L392.467 420.152ZM380.407 380.894L369.817 420.152L371.286 420.549L381.876 381.29L380.407 380.894ZM530.936 338.182H531.697V337.421H530.936V338.182ZM530.936 373.606V374.366H531.697V373.606H530.936ZM500.808 373.606V372.845H500.047V373.606H500.808ZM500.808 466V466.761H501.568V466H500.808ZM464.288 466H463.527V466.761H464.288V466ZM464.288 373.606H465.049V372.845H464.288V373.606ZM434.159 373.606H433.399V374.366H434.159V373.606ZM434.159 338.182V337.421H433.399V338.182H434.159ZM530.175 338.182V373.606H531.697V338.182H530.175ZM530.936 372.845H500.808V374.366H530.936V372.845ZM500.047 373.606V466H501.568V373.606H500.047ZM500.808 465.239H464.288V466.761H500.808V465.239ZM465.049 466V373.606H463.527V466H465.049ZM464.288 372.845H434.159V374.366H464.288V372.845ZM434.92 373.606V338.182H433.399V373.606H434.92ZM434.159 338.942H530.936V337.421H434.159V338.942ZM621.286 373.606V374.366H622.047V373.606H621.286ZM578.376 373.606V372.845H577.615V373.606H578.376ZM578.376 390.222H577.615V390.983H578.376V390.222ZM620.373 390.222H621.134V389.461H620.373V390.222ZM620.373 425.646V426.407H621.134V425.646H620.373ZM578.376 425.646V424.885H577.615V425.646H578.376ZM578.376 466V466.761H579.137V466H578.376ZM541.856 466H541.096V466.761H541.856V466ZM541.856 338.182V337.421H541.096V338.182H541.856ZM621.286 338.182H622.047V337.421H621.286V338.182ZM621.286 372.845H578.376V374.366H621.286V372.845ZM577.615 373.606V390.222H579.137V373.606H577.615ZM578.376 390.983H620.373V389.461H578.376V390.983ZM619.613 390.222V425.646H621.134V390.222H619.613ZM620.373 424.885H578.376V426.407H620.373V424.885ZM577.615 425.646V466H579.137V425.646H577.615ZM578.376 465.239H541.856V466.761H578.376V465.239ZM542.617 466V338.182H541.096V466H542.617ZM541.856 338.942H621.286V337.421H541.856V338.942ZM620.526 338.182V373.606H622.047V338.182H620.526ZM748.815 449.749L749.348 450.292L749.348 450.292L748.815 449.749ZM652.586 449.749L652.051 450.289L652.056 450.294L652.586 449.749ZM652.586 354.615L653.119 355.158V355.158L652.586 354.615ZM748.815 354.615L748.28 355.156L748.285 355.161L748.815 354.615ZM678.332 424.368L677.789 424.9L677.794 424.906L677.8 424.911L678.332 424.368ZM723.069 424.368L722.531 423.83L723.069 424.368ZM723.069 379.996L722.525 380.529L722.531 380.534L722.536 380.54L723.069 379.996ZM678.332 379.996L677.794 379.458L678.332 379.996ZM748.282 449.206C735.406 461.842 719.592 468.161 700.792 468.161V469.682C719.972 469.682 736.174 463.219 749.348 450.292L748.282 449.206ZM700.792 468.161C681.992 468.161 666.116 461.842 653.117 449.203L652.056 450.294C665.35 463.22 681.612 469.682 700.792 469.682V468.161ZM653.122 449.208C640.245 436.452 633.809 420.763 633.809 402.091H632.287C632.287 421.156 638.877 437.238 652.051 450.289L653.122 449.208ZM633.809 402.091C633.809 383.419 640.245 367.792 653.119 355.158L652.053 354.072C638.877 367.003 632.287 383.026 632.287 402.091H633.809ZM653.119 355.158C666.119 342.399 681.994 336.021 700.792 336.021V334.499C681.609 334.499 665.347 341.024 652.053 354.072L653.119 355.158ZM700.792 336.021C719.59 336.021 735.402 342.399 748.28 355.156L749.351 354.075C736.177 341.025 719.975 334.499 700.792 334.499V336.021ZM748.285 355.161C761.28 367.795 767.775 383.421 767.775 402.091H769.297C769.297 383.024 762.645 367 749.346 354.07L748.285 355.161ZM767.775 402.091C767.775 420.761 761.28 436.449 748.282 449.206L749.348 450.292C762.645 437.241 769.297 421.158 769.297 402.091H767.775ZM677.8 424.911C683.919 430.905 691.602 433.893 700.792 433.893V432.372C691.966 432.372 684.676 429.516 678.865 423.824L677.8 424.911ZM700.792 433.893C709.982 433.893 717.608 430.905 723.607 424.906L722.531 423.83C716.844 429.517 709.618 432.372 700.792 432.372V433.893ZM723.607 424.906C729.723 418.79 732.777 411.167 732.777 402.091H731.255C731.255 410.787 728.345 418.016 722.531 423.83L723.607 424.906ZM732.777 402.091C732.777 393.014 729.722 385.449 723.601 379.453L722.536 380.54C728.345 386.23 731.255 393.394 731.255 402.091H732.777ZM723.612 379.464C717.614 373.341 709.987 370.288 700.792 370.288V371.81C709.614 371.81 716.837 374.722 722.525 380.529L723.612 379.464ZM700.792 370.288C691.597 370.288 683.912 373.341 677.794 379.458L678.87 380.534C684.682 374.723 691.97 371.81 700.792 371.81V370.288ZM677.794 379.458C671.797 385.456 668.807 393.019 668.807 402.091H670.329C670.329 393.389 673.181 386.223 678.87 380.534L677.794 379.458ZM668.807 402.091C668.807 411.162 671.797 418.783 677.789 424.9L678.876 423.835C673.182 418.022 670.329 410.792 670.329 402.091H668.807ZM848.147 465.817L847.468 466.16L847.679 466.578H848.147V465.817ZM827.879 425.646L828.558 425.303L828.347 424.885H827.879V425.646ZM818.749 425.646V424.885H817.988V425.646H818.749ZM818.749 465.817V466.578H819.51V465.817H818.749ZM782.229 465.817H781.468V466.578H782.229V465.817ZM782.229 337.999V337.238H781.468V337.999H782.229ZM868.05 350.416L867.539 350.979L867.543 350.983L868.05 350.416ZM876.45 403.369L875.791 402.987L875.786 402.997L876.45 403.369ZM862.024 418.159L861.629 417.509L861.017 417.881L861.352 418.515L862.024 418.159ZM887.223 465.817V466.578H888.486L887.895 465.462L887.223 465.817ZM818.749 371.597V370.836H817.988V371.597H818.749ZM818.749 395.335H817.988V396.095H818.749V395.335ZM832.626 395.335L832.65 394.574L832.638 394.574H832.626V395.335ZM841.756 392.413L841.249 391.846L841.241 391.853L841.234 391.86L841.756 392.413ZM841.756 374.884L841.218 375.422L841.233 375.437L841.249 375.451L841.756 374.884ZM848.826 465.475L828.558 425.303L827.199 425.989L847.468 466.16L848.826 465.475ZM827.879 424.885H818.749V426.407H827.879V424.885ZM817.988 425.646V465.817H819.51V425.646H817.988ZM818.749 465.057H782.229V466.578H818.749V465.057ZM782.99 465.817V337.999H781.468V465.817H782.99ZM782.229 338.76H833.357V337.238H782.229V338.76ZM833.357 338.76C847.194 338.76 858.568 342.846 867.539 350.979L868.561 349.852C859.272 341.43 847.517 337.238 833.357 337.238V338.76ZM867.543 350.983C876.494 358.979 880.984 369.597 880.984 382.918H882.506C882.506 369.214 877.866 358.165 868.557 349.848L867.543 350.983ZM880.984 382.918C880.984 390.341 879.25 397.025 875.791 402.987L877.108 403.751C880.71 397.54 882.506 390.589 882.506 382.918H880.984ZM875.786 402.997C872.444 408.965 867.73 413.801 861.629 417.509L862.42 418.81C868.735 414.971 873.638 409.947 877.113 403.741L875.786 402.997ZM861.352 418.515L886.55 466.173L887.895 465.462L862.697 417.804L861.352 418.515ZM887.223 465.057H848.147V466.578H887.223V465.057ZM817.988 371.597V395.335H819.51V371.597H817.988ZM818.749 396.095H832.626V394.574H818.749V396.095ZM832.602 396.095C836.638 396.221 839.9 395.212 842.278 392.966L841.234 391.86C839.229 393.753 836.405 394.692 832.65 394.574L832.602 396.095ZM842.263 392.98C844.772 390.736 845.986 387.588 845.986 383.648H844.465C844.465 387.256 843.366 389.952 841.249 391.846L842.263 392.98ZM845.986 383.648C845.986 379.709 844.772 376.561 842.263 374.317L841.249 375.451C843.366 377.345 844.465 380.04 844.465 383.648H845.986ZM842.294 374.346C839.926 371.977 836.669 370.836 832.626 370.836V372.358C836.374 372.358 839.204 373.408 841.218 375.422L842.294 374.346ZM832.626 370.836H818.749V372.358H832.626V370.836ZM1029.65 338.182H1030.41V337.421H1029.65V338.182ZM1029.65 466V466.761H1030.41V466H1029.65ZM993.13 466H992.369V466.761H993.13V466ZM993.13 403.734H993.89V400.969L992.476 403.345L993.13 403.734ZM964.644 451.575V452.336H965.077L965.298 451.964L964.644 451.575ZM961.358 451.575L960.704 451.964L960.925 452.336H961.358V451.575ZM932.872 403.734L933.526 403.345L932.111 400.969V403.734H932.872ZM932.872 466V466.761H933.633V466H932.872ZM896.353 466H895.592V466.761H896.353V466ZM896.353 338.182V337.421H895.592V338.182H896.353ZM932.872 338.182L933.531 337.8L933.311 337.421H932.872V338.182ZM963.001 390.222L962.342 390.603L963.001 391.74L963.659 390.603L963.001 390.222ZM993.13 338.182V337.421H992.691L992.471 337.8L993.13 338.182ZM1028.89 338.182V466H1030.41V338.182H1028.89ZM1029.65 465.239H993.13V466.761H1029.65V465.239ZM993.89 466V403.734H992.369V466H993.89ZM992.476 403.345L963.991 451.186L965.298 451.964L993.783 404.123L992.476 403.345ZM964.644 450.814H961.358V452.336H964.644V450.814ZM962.011 451.186L933.526 403.345L932.219 404.123L960.704 451.964L962.011 451.186ZM932.111 403.734V466H933.633V403.734H932.111ZM932.872 465.239H896.353V466.761H932.872V465.239ZM897.114 466V338.182H895.592V466H897.114ZM896.353 338.942H932.872V337.421H896.353V338.942ZM932.214 338.563L962.342 390.603L963.659 389.841L933.531 337.8L932.214 338.563ZM963.659 390.603L993.788 338.563L992.471 337.8L962.342 389.841L963.659 390.603ZM993.13 338.942H1029.65V337.421H993.13V338.942Z" fill="url(#paint0_linear_1_8728)" mask="url(#path-1-inside-1_1_8728)"/>
<defs>
<linearGradient id="paint0_linear_1_8728" x1="-72.8639" y1="-3" x2="1216.26" y2="-3" gradientUnits="userSpaceOnUse">
<stop stop-color="#4467FF" stop-opacity="0"/>
<stop offset="0.515" stop-color="#4467FF"/>
<stop offset="1" stop-color="#4467FF" stop-opacity="0"/>
</linearGradient>
</defs>
</svg>
