<svg width="241" height="45" viewBox="0 0 241 45" fill="none" xmlns="http://www.w3.org/2000/svg">
<path d="M148.049 13.0977V6.55642H151.393C153.688 6.55642 155.137 7.83187 155.137 9.82704C155.137 11.8222 153.688 13.0977 151.393 13.0977H148.049ZM149.361 11.9498H151.393C152.887 11.9498 153.77 11.1116 153.77 9.82704C153.77 8.53337 152.887 7.70433 151.393 7.70433H149.361V11.9498ZM157.709 6.55642V13.0977H156.369V6.55642H157.709ZM160.646 10.6652V13.0977H159.307V6.55642H163.416C164.901 6.55642 165.903 7.26703 165.903 8.61536C165.903 9.6175 165.32 10.2826 164.391 10.5376L166.058 13.0977H164.518L162.979 10.6652H160.646ZM160.646 9.54462H163.343C164.126 9.54462 164.573 9.20754 164.573 8.62447C164.573 8.0323 164.126 7.69522 163.343 7.69522H160.646V9.54462ZM167.12 6.55642H173.452V7.71344H168.441V9.1711H172.933V10.319H168.441V11.9406H173.452V13.0977H167.12V6.55642ZM174.302 9.82704C174.302 7.88654 175.951 6.45621 178.165 6.45621C179.878 6.45621 181.135 7.23059 181.636 8.51515L180.479 9.09821C180.105 8.17807 179.322 7.63145 178.174 7.63145C176.744 7.63145 175.669 8.50604 175.669 9.82704C175.669 11.148 176.744 12.0226 178.174 12.0226C179.322 12.0226 180.105 11.476 180.479 10.5559L181.636 11.1389C181.135 12.4235 179.878 13.1979 178.165 13.1979C175.951 13.1979 174.302 11.7675 174.302 9.82704ZM189.301 7.71344H186.413V13.0977H185.065V7.71344H182.177V6.55642H189.301V7.71344ZM193.409 6.45621C195.641 6.45621 197.272 7.88654 197.272 9.82704C197.272 11.7675 195.641 13.1979 193.409 13.1979C191.168 13.1979 189.546 11.7675 189.546 9.82704C189.546 7.88654 191.168 6.45621 193.409 6.45621ZM193.409 7.63145C191.942 7.63145 190.922 8.50604 190.922 9.82704C190.922 11.148 191.942 12.0226 193.409 12.0226C194.876 12.0226 195.896 11.148 195.896 9.82704C195.896 8.50604 194.876 7.63145 193.409 7.63145ZM199.846 10.6652V13.0977H198.507V6.55642H202.615C204.1 6.55642 205.102 7.26703 205.102 8.61536C205.102 9.6175 204.519 10.2826 203.59 10.5376L205.257 13.0977H203.718L202.178 10.6652H199.846ZM199.846 9.54462H202.542C203.326 9.54462 203.772 9.20754 203.772 8.62447C203.772 8.0323 203.326 7.69522 202.542 7.69522H199.846V9.54462ZM208.98 6.55642H210.483L213.781 13.0977H212.333L211.576 11.5762H207.878L207.112 13.0977H205.682L208.98 6.55642ZM209.727 7.87743L208.442 10.4374H211.002L209.727 7.87743ZM220.305 7.71344H217.417V13.0977H216.068V7.71344H213.18V6.55642H220.305V7.71344ZM221.501 6.55642H227.833V7.71344H222.822V9.1711H227.314V10.319H222.822V11.9406H227.833V13.0977H221.501V6.55642ZM235.677 10.4642C235.677 10.909 235.559 11.3494 235.322 11.7854C235.087 12.2213 234.76 12.5668 234.338 12.8219C233.917 13.0769 233.508 13.2044 233.111 13.2044C232.704 13.2044 232.372 13.0754 232.114 12.8174C231.859 12.5564 231.732 12.2198 231.732 11.8076C231.732 11.3717 231.856 10.9342 232.105 10.4953C232.357 10.0564 232.692 9.70945 233.111 9.45441C233.532 9.19936 233.938 9.07184 234.33 9.07184C234.721 9.07184 235.043 9.20085 235.295 9.45886C235.55 9.71686 235.677 10.052 235.677 10.4642ZM234.939 10.1573C234.939 9.88145 234.871 9.6709 234.734 9.52558C234.601 9.3773 234.427 9.30316 234.214 9.30316C233.778 9.30316 233.376 9.61603 233.008 10.2418C232.644 10.8646 232.461 11.4844 232.461 12.1012C232.461 12.3829 232.532 12.6009 232.675 12.7551C232.817 12.9064 232.996 12.982 233.213 12.982C233.631 12.982 234.023 12.6721 234.387 12.0523C234.755 11.4295 234.939 10.7978 234.939 10.1573ZM239.176 9.17861L239.096 9.4722H238.446L237.957 11.4162C237.74 12.2732 237.522 12.936 237.303 13.4046C236.991 14.0659 236.656 14.5226 236.297 14.7747C236.025 14.9675 235.752 15.0639 235.479 15.0639C235.301 15.0639 235.15 15.0105 235.025 14.9037C234.933 14.8296 234.887 14.7332 234.887 14.6146C234.887 14.5197 234.926 14.4366 235.003 14.3655C235.077 14.2972 235.169 14.2631 235.279 14.2631C235.359 14.2631 235.427 14.2884 235.483 14.3388C235.537 14.3892 235.564 14.447 235.564 14.5123C235.564 14.5775 235.532 14.6383 235.47 14.6946C235.423 14.7362 235.399 14.7673 235.399 14.7881C235.399 14.8147 235.409 14.8355 235.43 14.8503C235.457 14.8711 235.498 14.8815 235.555 14.8815C235.682 14.8815 235.817 14.8414 235.959 14.7614C236.099 14.6813 236.223 14.5612 236.333 14.401C236.443 14.2439 236.547 14.0155 236.644 13.716C236.686 13.5914 236.797 13.1807 236.978 12.4838L237.752 9.4722H236.978L237.04 9.17861C237.287 9.17861 237.459 9.16229 237.556 9.12967C237.654 9.09409 237.743 9.02884 237.823 8.93394C237.906 8.83608 238.013 8.65518 238.144 8.39124C238.319 8.03536 238.486 7.75956 238.646 7.56383C238.866 7.29989 239.096 7.10268 239.336 6.97219C239.579 6.83874 239.807 6.77201 240.021 6.77201C240.246 6.77201 240.427 6.82984 240.564 6.9455C240.7 7.05819 240.768 7.18127 240.768 7.31472C240.768 7.41852 240.734 7.506 240.666 7.57718C240.598 7.64835 240.51 7.68394 240.403 7.68394C240.311 7.68394 240.236 7.65725 240.177 7.60387C240.12 7.55049 240.092 7.48672 240.092 7.41258C240.092 7.36513 240.111 7.30731 240.15 7.2391C240.188 7.16792 240.208 7.12047 240.208 7.09675C240.208 7.05523 240.194 7.02409 240.168 7.00333C240.129 6.97367 240.073 6.95885 239.999 6.95885C239.812 6.95885 239.644 7.01816 239.496 7.13678C239.297 7.29396 239.119 7.54011 238.962 7.87522C238.882 8.05019 238.735 8.48465 238.522 9.17861H239.176Z" fill="#11172F"/>
<path d="M147.685 21.827C147.685 19.8865 149.334 18.4562 151.547 18.4562C153.26 18.4562 154.517 19.2306 155.018 20.5151L153.861 21.0982C153.488 20.1781 152.704 19.6314 151.557 19.6314C150.126 19.6314 149.051 20.506 149.051 21.827C149.051 23.148 150.126 24.0226 151.557 24.0226C152.704 24.0226 153.488 23.476 153.861 22.5559L155.018 23.1389C154.517 24.4235 153.26 25.1979 151.547 25.1979C149.334 25.1979 147.685 23.7675 147.685 21.827ZM159.619 18.4562C161.851 18.4562 163.481 19.8865 163.481 21.827C163.481 23.7675 161.851 25.1979 159.619 25.1979C157.377 25.1979 155.756 23.7675 155.756 21.827C155.756 19.8865 157.377 18.4562 159.619 18.4562ZM159.619 19.6314C158.152 19.6314 157.132 20.506 157.132 21.827C157.132 23.148 158.152 24.0226 159.619 24.0226C161.085 24.0226 162.106 23.148 162.106 21.827C162.106 20.506 161.085 19.6314 159.619 19.6314ZM171.467 18.5564V25.0977H170.283L166.01 20.2601V25.0977H164.716V18.5564H166.083L170.164 23.1754V18.5564H171.467ZM172.38 23.6764L173.282 22.7381C174.029 23.7402 175.213 24.05 176.179 24.05C177.272 24.05 178.047 23.722 178.047 23.1936C178.047 22.5741 177.509 22.5194 175.669 22.319C174.066 22.1368 172.836 21.8361 172.836 20.5425C172.836 19.3035 174.047 18.4562 175.906 18.4562C177.363 18.4562 178.675 18.9755 179.268 19.759L178.375 20.6154C177.874 19.9685 176.944 19.595 175.833 19.595C174.667 19.595 174.138 19.9685 174.138 20.4058C174.138 20.8796 174.576 20.9889 176.234 21.1802C178.092 21.3897 179.404 21.6357 179.404 23.0478C179.404 24.4782 177.974 25.1979 176.124 25.1979C174.567 25.1979 173.018 24.5966 172.38 23.6764ZM183.771 25.1888C181.476 25.1888 180.41 23.9133 180.41 22.0092V18.5564H181.749V21.9364C181.749 23.1663 182.277 24.0135 183.771 24.0135C185.256 24.0135 185.785 23.1663 185.785 21.9364V18.5564H187.133V22.0092C187.133 23.9133 186.058 25.1888 183.771 25.1888ZM188.556 25.0977V18.5564H189.896V23.9406H194.496V25.0977H188.556ZM198.38 18.5564H199.883L203.181 25.0977H201.733L200.977 23.5762H197.278L196.513 25.0977H195.082L198.38 18.5564ZM199.127 19.8774L197.843 22.4374H200.403L199.127 19.8774ZM205.495 22.6652V25.0977H204.156V18.5564H208.265C209.75 18.5564 210.752 19.267 210.752 20.6154C210.752 21.6175 210.169 22.2826 209.24 22.5376L210.907 25.0977H209.367L207.827 22.6652H205.495ZM205.495 21.5446H208.192C208.975 21.5446 209.422 21.2075 209.422 20.6245C209.422 20.0323 208.975 19.6952 208.192 19.6952H205.495V21.5446Z" fill="#11172F"/>
<path d="M150.709 30.5564H152.212L155.51 37.0977H154.062L153.306 35.5762H149.607L148.842 37.0977H147.411L150.709 30.5564ZM151.456 31.8774L150.172 34.4374H152.732L151.456 31.8774ZM157.806 37.0977H156.485V30.5564H162.717V31.7134H157.806V33.3442H162.197V34.5012H157.806V37.0977ZM165.272 37.0977H163.951V30.5564H170.183V31.7134H165.272V33.3442H169.663V34.5012H165.272V37.0977ZM173.063 30.5564H174.567L177.865 37.0977H176.416L175.66 35.5762H171.961L171.196 37.0977H169.766L173.063 30.5564ZM173.811 31.8774L172.526 34.4374H175.086L173.811 31.8774ZM180.178 30.5564V37.0977H178.839V30.5564H180.178ZM183.116 34.6652V37.0977H181.777V30.5564H185.886C187.371 30.5564 188.373 31.267 188.373 32.6154C188.373 33.6175 187.79 34.2826 186.861 34.5376L188.528 37.0977H186.988L185.448 34.6652H183.116ZM183.116 33.5446H185.813C186.596 33.5446 187.043 33.2075 187.043 32.6245C187.043 32.0323 186.596 31.6952 185.813 31.6952H183.116V33.5446ZM188.907 35.6764L189.809 34.7381C190.556 35.7402 191.74 36.05 192.706 36.05C193.799 36.05 194.574 35.722 194.574 35.1936C194.574 34.5741 194.036 34.5194 192.196 34.319C190.592 34.1368 189.362 33.8361 189.362 32.5425C189.362 31.3035 190.574 30.4562 192.433 30.4562C193.89 30.4562 195.202 30.9755 195.794 31.759L194.901 32.6154C194.4 31.9685 193.471 31.595 192.36 31.595C191.194 31.595 190.665 31.9685 190.665 32.4058C190.665 32.8796 191.102 32.9889 192.761 33.1802C194.619 33.3897 195.931 33.6357 195.931 35.0478C195.931 36.4782 194.501 37.1979 192.651 37.1979C191.093 37.1979 189.545 36.5966 188.907 35.6764Z" fill="#11172F"/>
<g clip-path="url(#clip0_673_1967)">
<path d="M34.8974 12.3975C34.5714 12.3975 34.3077 12.3184 34.1063 12.1626C33.9049 12.0067 33.7706 11.8102 33.6987 11.5776C33.6244 11.755 33.5237 11.8941 33.399 12.0019C33.2744 12.1074 33.1161 12.1913 32.9267 12.2489C32.7373 12.3088 32.5072 12.3472 32.2387 12.3688C31.9701 12.3903 31.6537 12.3975 31.2941 12.3975H4.75656C4.27228 12.3975 3.86711 12.364 3.54345 12.2944C3.21979 12.2273 2.95847 12.1194 2.75948 11.9732C2.56049 11.8269 2.41904 11.6399 2.33513 11.4074C2.25122 11.1772 2.21046 10.8919 2.21046 10.5587V8.60714H3.24137V10.1823C3.24137 10.4436 3.27254 10.6498 3.33727 10.8032C3.402 10.9567 3.50749 11.0765 3.65853 11.158C3.80957 11.2396 4.01335 11.2923 4.27467 11.3163C4.5336 11.3402 4.86925 11.3522 5.27921 11.3522H31.2773C31.5554 11.3522 31.7903 11.3426 31.9845 11.3259C32.1787 11.3091 32.3322 11.2683 32.4448 11.2036C32.5575 11.1389 32.639 11.0478 32.6894 10.9303C32.7397 10.8104 32.7661 10.645 32.7661 10.434V7.54507H33.8042V9.9665C33.8042 10.1775 33.8186 10.3693 33.8474 10.5419C33.8761 10.7145 33.9313 10.8584 34.0152 10.9758C34.0991 11.0933 34.2118 11.1844 34.3556 11.2539C34.4995 11.3235 34.6793 11.357 34.895 11.357C35.2355 11.357 35.4033 11.5249 35.4033 11.8605C35.4033 12.0715 35.3626 12.2153 35.281 12.2896C35.1995 12.364 35.0701 12.4023 34.895 12.4023L34.8974 12.3975ZM5.8546 6.16892C5.8546 5.98432 5.91933 5.82609 6.0488 5.69662C6.17826 5.56716 6.33649 5.50243 6.5211 5.50243C6.7057 5.50243 6.86393 5.56716 6.9934 5.69662C7.12286 5.82609 7.18759 5.98432 7.18759 6.16892C7.18759 6.35353 7.12286 6.51176 6.9934 6.64122C6.86393 6.77069 6.7057 6.83542 6.5211 6.83542C6.33649 6.83542 6.17826 6.77069 6.0488 6.64122C5.91933 6.51176 5.8546 6.35353 5.8546 6.16892ZM7.49447 6.16892C7.49447 5.98432 7.5592 5.82609 7.68866 5.69662C7.81812 5.56716 7.97635 5.50243 8.16096 5.50243C8.34556 5.50243 8.5038 5.56716 8.63326 5.69662C8.76272 5.82609 8.82745 5.98432 8.82745 6.16892C8.82745 6.35353 8.76272 6.51176 8.63326 6.64122C8.5038 6.77069 8.34556 6.83542 8.16096 6.83542C7.97635 6.83542 7.81812 6.77069 7.68866 6.64122C7.5592 6.51176 7.49447 6.35353 7.49447 6.16892Z" fill="#11172F"/>
<path d="M35.353 11.3522C35.6311 11.3522 35.866 11.3426 36.0578 11.3259C36.2496 11.3091 36.4031 11.2683 36.5181 11.2036C36.6332 11.1389 36.7147 11.0478 36.7651 10.9303C36.8154 10.8104 36.8418 10.645 36.8418 10.434V8.16601H37.8727V9.96411C37.8727 10.1751 37.8847 10.3669 37.9087 10.5395C37.9326 10.7121 37.9926 10.856 38.0861 10.9734C38.182 11.0909 38.3114 11.182 38.4769 11.2515C38.6423 11.3211 38.8748 11.3546 39.1745 11.3546C39.3543 11.3546 45.1993 11.345 45.3408 11.3283C45.4822 11.3115 45.5997 11.2707 45.6908 11.206C45.7843 11.1413 45.8514 11.0502 45.897 10.9327C45.9402 10.8128 45.9641 10.6474 45.9641 10.4364V8.1756H46.995V9.9689C46.995 10.1799 47.0094 10.3717 47.0406 10.5443C47.0718 10.7169 47.1269 10.8608 47.2084 10.9782C47.2899 11.0957 47.4002 11.1868 47.5417 11.2563C47.6831 11.3259 47.8605 11.3594 48.0763 11.3594H54.8179V7.54987H55.8561V12.4047H48.0763C47.755 12.4047 47.4937 12.3256 47.2923 12.1698C47.0909 12.0139 46.9615 11.8173 46.8991 11.5848C46.7457 11.9276 46.5083 12.1506 46.1871 12.2537C45.8658 12.3568 39.7979 12.4047 39.3495 12.4047C39.0594 12.4047 38.8173 12.3807 38.6255 12.3352C38.4337 12.2896 38.2755 12.2249 38.1484 12.1458C38.0237 12.0667 37.923 11.9756 37.8511 11.8749C37.7792 11.7742 37.7169 11.6711 37.6617 11.5704C37.5922 11.7478 37.4987 11.8869 37.3836 11.9948C37.2685 12.1002 37.1223 12.1866 36.9449 12.2489C36.7651 12.3136 36.5445 12.3544 36.276 12.3736C36.0075 12.3927 35.6934 12.4023 35.3266 12.4023H34.9022C34.5666 12.4023 34.3988 12.2345 34.3988 11.8989C34.3988 11.6879 34.4395 11.544 34.5186 11.4697C34.5978 11.3954 34.7248 11.357 34.9022 11.357H35.3458L35.353 11.3522Z" fill="#11172F"/>
<path d="M81.2763 11.8557C81.2763 12.0667 59.8334 12.2105 59.7543 12.2848C59.6752 12.3592 59.5481 12.3975 59.3707 12.3975H59.0471C58.7738 12.3975 58.5268 12.3712 58.3063 12.316C58.0857 12.2609 57.8963 12.1674 57.7405 12.0307C57.5846 11.8965 57.4624 11.7167 57.3736 11.4961C57.2849 11.2731 57.2418 10.995 57.2418 10.6594V3.39746H58.2727V10.3813C58.2727 10.7337 58.3278 10.9854 58.4381 11.1317C58.5484 11.2803 58.7905 11.3522 59.1645 11.3522H59.3707C59.7064 11.3522 81.2763 11.5201 81.2763 11.8557Z" fill="#11172F"/>
<path d="M59.3779 12.3975C59.0423 12.3975 58.8745 12.2297 58.8745 11.8941C58.8745 11.6831 58.9152 11.5392 58.9943 11.4649C59.0734 11.3906 59.2005 11.3522 59.3779 11.3522H83.2398V7.54267H84.2708V12.3975H59.3755H59.3779ZM81.2883 14.3035C81.2883 14.1189 81.353 13.9607 81.4801 13.8312C81.6072 13.7017 81.7654 13.637 81.95 13.637C82.1346 13.637 82.2928 13.7017 82.4271 13.8312C82.5614 13.9607 82.6261 14.1189 82.6261 14.3035C82.6261 14.4881 82.559 14.6463 82.4271 14.7758C82.2952 14.9053 82.137 14.97 81.95 14.97C81.763 14.97 81.6072 14.9053 81.4801 14.7758C81.353 14.6463 81.2883 14.4881 81.2883 14.3035ZM82.9234 14.3035C82.9234 14.1189 82.9905 13.9607 83.1224 13.8312C83.2542 13.7017 83.4125 13.637 83.5995 13.637C83.7865 13.637 83.9423 13.7017 84.0694 13.8312C84.1964 13.9607 84.2612 14.1189 84.2612 14.3035C84.2612 14.4881 84.1964 14.6463 84.0694 14.7758C83.9423 14.9053 83.7841 14.97 83.5995 14.97C83.4149 14.97 83.2566 14.9053 83.1224 14.7758C82.9905 14.6463 82.9234 14.4881 82.9234 14.3035Z" fill="#11172F"/>
<path d="M87.0135 8.1732H88.0252V11.6927C88.0252 12.3136 87.9916 12.8387 87.9221 13.263C87.8526 13.6874 87.7183 14.0302 87.5145 14.2915C87.3107 14.5504 87.0326 14.7398 86.6754 14.8573C86.3182 14.9748 85.8579 15.0323 85.2921 15.0323V13.987C85.702 13.987 86.0233 13.9439 86.2535 13.8552C86.486 13.7665 86.6562 13.625 86.7689 13.4284C86.8816 13.2318 86.9487 12.9801 86.9751 12.6708C86.9991 12.3616 87.0111 11.99 87.0111 11.5536V8.1732H87.0135Z" fill="#11172F"/>
<path d="M39.6684 22.7833H40.6801V26.3028C40.6801 26.9237 40.6466 27.4488 40.577 27.8731C40.5075 28.2975 40.3732 28.6403 40.1695 28.9017C39.9657 29.1606 39.6876 29.35 39.3303 29.4675C38.9731 29.5849 38.5128 29.6425 37.947 29.6425V28.5972C38.357 28.5972 38.6782 28.554 38.9084 28.4653C39.1409 28.3766 39.3112 28.2352 39.4239 28.0386C39.5365 27.842 39.6037 27.5902 39.63 27.281C39.654 26.9717 39.666 26.6001 39.666 26.1638V22.7833H39.6684Z" fill="#11172F"/>
<path d="M46.5347 27.0077C46.4988 27.5183 46.3909 27.9427 46.2111 28.2807C46.0313 28.6188 45.7867 28.8873 45.4774 29.0887C45.1682 29.29 44.7966 29.4315 44.3626 29.5154C43.9287 29.5993 43.4468 29.6401 42.917 29.6401H42.3871V28.5948H42.7779C43.1711 28.5948 43.5307 28.5756 43.8592 28.5396C44.1876 28.5013 44.4729 28.427 44.7126 28.3119C44.9524 28.1968 45.1418 28.0362 45.2785 27.8252C45.4151 27.6166 45.4894 27.3433 45.5038 27.0077H44.0749C43.7321 27.0077 43.4156 26.9693 43.1255 26.895C42.8378 26.8207 42.5837 26.696 42.3679 26.521C42.1522 26.346 41.9843 26.123 41.8621 25.8473C41.7398 25.5716 41.6799 25.2287 41.6799 24.8188C41.6799 24.4711 41.7374 24.1331 41.8477 23.8047C41.958 23.4762 42.1234 23.1861 42.3392 22.9344C42.5549 22.6826 42.8163 22.4789 43.1231 22.323C43.43 22.1672 43.78 22.0881 44.178 22.0881C44.6144 22.0881 44.9836 22.1672 45.2832 22.323C45.5829 22.4789 45.8299 22.6994 46.0217 22.9847C46.2135 23.27 46.3501 23.6153 46.434 24.0204C46.5179 24.4256 46.5587 24.8763 46.5587 25.3702V25.9648H78.8765C79.2169 25.9648 79.3847 26.1326 79.3847 26.4682C79.3847 26.6792 79.344 26.8231 79.2625 26.8974C79.1809 26.9717 79.0515 27.0101 78.8765 27.0101H46.5323L46.5347 27.0077ZM42.6916 24.7133C42.6916 25.1448 42.8139 25.4613 43.0608 25.6627C43.3077 25.8641 43.6698 25.9624 44.1445 25.9624H45.5014V25.1281C45.5014 24.5071 45.3959 24.0108 45.1849 23.6392C44.974 23.27 44.612 23.083 44.1013 23.083C43.8592 23.083 43.6506 23.131 43.4732 23.2293C43.2958 23.3252 43.1519 23.4522 43.0392 23.6105C42.9265 23.7687 42.8402 23.9413 42.7803 24.1331C42.7204 24.3249 42.6916 24.5167 42.6916 24.7109V24.7133Z" fill="#11172F"/>
<path d="M78.8909 27.0077C78.5552 27.0077 46.9519 26.8398 46.9519 26.5042C46.9519 26.2932 78.4281 26.1494 78.5073 26.075C78.5864 26.0007 78.7134 25.9624 78.8909 25.9624H79.4135C79.5094 25.9624 79.6149 25.9504 79.7252 25.9264C79.8355 25.9024 79.9433 25.8473 80.0536 25.761C80.1615 25.6747 80.2694 25.5572 80.3749 25.4109C80.4804 25.2623 80.5811 25.0657 80.6722 24.8188C80.8664 24.2817 81.0701 23.8454 81.2835 23.5122C81.4969 23.1789 81.7151 22.9224 81.938 22.7426C82.161 22.5628 82.3887 22.4429 82.6189 22.383C82.8491 22.323 83.0816 22.2943 83.3094 22.2943C83.6258 22.2943 83.9207 22.3542 84.1892 22.4765C84.4578 22.5987 84.6927 22.7689 84.8893 22.9919C85.0883 23.2149 85.2417 23.4786 85.3544 23.7855C85.4671 24.0923 85.5222 24.4376 85.5222 24.8212C85.5222 25.5404 85.3472 26.111 84.9996 26.5378C84.652 26.9621 84.1149 27.1755 83.3933 27.1755C82.9953 27.1755 82.5973 27.1084 82.1922 26.9741C81.7894 26.8398 81.3722 26.6121 80.9455 26.2908C80.8352 26.4586 80.7249 26.5905 80.6122 26.6864C80.4995 26.7823 80.3797 26.8542 80.2526 26.9022C80.1255 26.9477 79.9937 26.9789 79.8618 26.9909C79.73 27.0029 79.5861 27.0101 79.4327 27.0101H78.8909V27.0077ZM84.4793 24.7804C84.4793 24.591 84.453 24.4088 84.3978 24.2314C84.3427 24.054 84.2636 23.9005 84.1557 23.7687C84.0478 23.6368 83.9231 23.5289 83.7721 23.4474C83.621 23.3659 83.446 23.3252 83.2422 23.3252C82.885 23.3252 82.559 23.481 82.2665 23.7951C81.974 24.1091 81.6983 24.6557 81.4441 25.4349C81.7534 25.6339 82.0603 25.7945 82.3672 25.9168C82.674 26.0415 82.9881 26.1014 83.3094 26.1014C83.6618 26.1014 83.9447 26.0007 84.1581 25.7969C84.3714 25.5932 84.4793 25.2551 84.4793 24.778V24.7804Z" fill="#11172F"/>
<path d="M88.0252 18.0076V27.0077H86.9943V18.0076H88.0252Z" fill="#11172F"/>
<path d="M8.08184 38.1319C8.17534 38.2326 8.25446 38.374 8.31919 38.5562C8.38632 38.736 8.41749 38.9111 8.41749 39.0789C8.41749 39.3306 8.34316 39.5775 8.19692 39.8221C8.04828 40.0666 7.81093 40.2848 7.48487 40.4742C7.15882 40.6636 6.73447 40.8146 6.20942 40.9273C5.68438 41.04 5.03946 41.0951 4.27228 41.0951C3.42118 41.0951 2.72112 41.0184 2.1721 40.8626C1.62308 40.7091 1.18674 40.4958 0.863086 40.2249C0.539429 39.9539 0.314067 39.6351 0.189399 39.2683C0.0647315 38.9015 0 38.5083 0 38.0839V36.1324H1.02611V37.8921C1.02611 38.6377 1.28264 39.1844 1.7933 39.532C2.30396 39.8796 3.14067 40.0546 4.29865 40.0546C4.73019 40.0546 5.14016 40.0331 5.52615 39.9875C5.91214 39.942 6.25018 39.8772 6.54027 39.7885C6.83037 39.6998 7.05813 39.5871 7.22355 39.4505C7.38897 39.3138 7.47049 39.158 7.47049 38.9806C7.47049 38.7912 7.37219 38.621 7.1756 38.4675C6.97901 38.3141 6.73687 38.1822 6.44438 38.0695C6.15428 37.9569 5.84501 37.8538 5.51896 37.7627C5.1929 37.6692 4.90281 37.5853 4.65347 37.5109V36.4848C5.72034 36.8828 6.73207 37.0794 7.68866 37.0794H8.95931C9.29975 37.0794 22.7903 37.2472 22.7903 37.5829C22.7903 37.7938 9.42921 37.9377 9.3477 38.012C9.26619 38.0863 9.13672 38.1247 8.96171 38.1247H8.08184V38.1319Z" fill="#11172F"/>
<path d="M8.98089 38.1319C8.64525 38.1319 8.47742 37.9641 8.47742 37.6284C8.47742 37.4174 8.51818 37.2736 8.5973 37.1993C8.67641 37.1249 8.80348 37.0866 8.98089 37.0866H23.3129C23.464 37.0866 23.5982 37.077 23.7157 37.0602C23.8356 37.0434 23.9339 37.0027 24.013 36.9379C24.0921 36.8732 24.1544 36.7821 24.1976 36.6646C24.2407 36.5472 24.2647 36.3793 24.2647 36.1684V29.1318H25.3028V35.6985C25.3028 36.1252 25.3891 36.4656 25.5617 36.7126C25.7344 36.9619 26.0101 37.0866 26.3889 37.0866C26.7245 37.0866 26.8923 37.2544 26.8923 37.5901C26.8923 37.801 26.8516 37.9449 26.7724 38.0192C26.6933 38.0935 26.5663 38.1319 26.3889 38.1319C26.0628 38.1319 25.8015 38.0528 25.6025 37.8969C25.4035 37.7411 25.2716 37.5445 25.2045 37.3119C25.0511 37.6548 24.8089 37.8777 24.4781 37.9808C24.1472 38.0815 23.7205 38.1319 23.1954 38.1319H8.98089Z" fill="#11172F"/>
<path d="M26.8396 37.0866C27.1177 37.0866 27.3526 37.077 27.5444 37.0602C27.7362 37.0434 27.8897 37.0027 28.0047 36.9379C28.1198 36.8732 28.2013 36.7821 28.2517 36.6646C28.302 36.5448 28.3284 36.3793 28.3284 36.1684V33.9076H29.3593V35.7009C29.3593 35.9118 29.3713 36.1036 29.3953 36.2762C29.4192 36.4489 29.4792 36.5927 29.5727 36.7102C29.6662 36.8277 29.8004 36.9188 29.9731 36.9883C30.1457 37.0554 36.0602 37.0914 36.3527 37.0914C36.5373 37.0914 36.6979 37.0818 36.8346 37.065C36.9712 37.0482 37.0863 37.0075 37.1774 36.9427C37.2685 36.878 37.3381 36.7869 37.3836 36.6694C37.4268 36.5496 37.4507 36.3841 37.4507 36.1732V33.9123H38.4816V35.7056C38.4816 35.9166 38.496 36.1084 38.5272 36.281C38.5584 36.4537 38.6183 36.5975 38.7046 36.715C38.7909 36.8325 38.9132 36.9236 39.069 36.9931C39.2249 37.0626 39.4286 37.0962 39.6852 37.0962C39.8314 37.0962 45.6453 37.0866 45.7627 37.0698C45.8802 37.053 45.9809 37.0123 46.0624 36.9475C46.1463 36.8828 46.2111 36.7917 46.2566 36.6742C46.3022 36.5543 46.3261 36.3889 46.3261 36.1779V33.289H47.357V35.7104C47.357 35.9214 47.3714 36.1132 47.4026 36.2858C47.4338 36.4584 47.4913 36.6023 47.5752 36.7198C47.6591 36.8372 47.7718 36.9283 47.9133 36.9979C48.0547 37.065 48.2345 37.101 48.4551 37.101C48.7955 37.101 48.9633 37.2688 48.9633 37.6044C48.9633 37.8154 48.9226 37.9593 48.8411 38.0336C48.7596 38.1079 48.6301 38.1463 48.4551 38.1463C48.129 38.1463 47.8653 38.0671 47.6615 37.9113C47.4577 37.7555 47.3235 37.5589 47.2588 37.3263C47.1844 37.5037 47.0789 37.6428 46.9447 37.7507C46.8104 37.8562 46.6666 37.9401 46.5155 37.9976C46.3645 38.0576 46.2159 38.0959 46.072 38.1175C45.9282 38.1367 45.8059 38.1463 45.7052 38.1463C45.4319 38.1463 39.515 38.1199 39.3232 38.0695C39.1314 38.0192 38.9731 37.9545 38.8461 37.8753C38.7214 37.7962 38.6231 37.7075 38.5512 37.6116C38.4817 37.5133 38.4265 37.4198 38.3858 37.3263C38.2323 37.6692 37.9974 37.8921 37.6809 37.9952C37.3644 38.0959 36.9904 38.1463 36.5541 38.1463C36.2592 38.1463 30.3279 38.1223 30.1337 38.0767C29.9371 38.0312 29.7765 37.9665 29.6518 37.8873C29.5271 37.8082 29.424 37.7171 29.3473 37.6164C29.2706 37.5157 29.2059 37.4126 29.1531 37.3119C29.0836 37.4894 28.9901 37.6284 28.875 37.7363C28.7599 37.8418 28.6137 37.9281 28.4363 37.9904C28.2565 38.0552 28.0359 38.0959 27.7674 38.1151C27.5013 38.1343 27.1848 38.1439 26.818 38.1439H26.3936C26.058 38.1439 25.8902 37.976 25.8902 37.6404C25.8902 37.4294 25.9309 37.2856 26.0101 37.2113C26.0892 37.1369 26.2162 37.0986 26.3936 37.0986H26.8372L26.8396 37.0866Z" fill="#11172F"/>
<path d="M48.4719 38.1319C48.1362 38.1319 47.9684 37.9641 47.9684 37.6284C47.9684 37.4174 48.0092 37.2736 48.0883 37.1993C48.1674 37.1249 48.2945 37.0866 48.4719 37.0866H58.9632V33.277H60.0013V38.1319H48.4719ZM58.7762 31.1529C58.7762 30.9683 58.8409 30.8124 58.9703 30.683C59.0998 30.5559 59.258 30.4912 59.4426 30.4912C59.6273 30.4912 59.7855 30.5559 59.9149 30.683C60.0444 30.81 60.1091 30.9683 60.1091 31.1529C60.1091 31.3375 60.0444 31.5029 59.9149 31.6324C59.7855 31.7618 59.6273 31.8266 59.4426 31.8266C59.258 31.8266 59.0998 31.7618 58.9703 31.6324C58.8409 31.5029 58.7762 31.3423 58.7762 31.1529Z" fill="#11172F"/>
<path d="M65.5154 38.1319C65.4795 38.6425 65.3716 39.0669 65.1918 39.4049C65.012 39.743 64.7674 40.0115 64.4581 40.2129C64.1489 40.4143 63.7773 40.5557 63.3433 40.6396C62.9094 40.7235 62.4275 40.7643 61.8977 40.7643H61.3678V39.719H61.7586C62.1518 39.719 62.5114 39.6998 62.8399 39.6639C63.1683 39.6255 63.4536 39.5512 63.6934 39.4361C63.9331 39.321 64.1225 39.1604 64.2592 38.9494C64.3958 38.7408 64.4701 38.4675 64.4845 38.1319H63.0556C62.7128 38.1319 62.3963 38.0935 62.1062 38.0192C61.8185 37.9449 61.5644 37.8202 61.3486 37.6452C61.1329 37.4702 60.965 37.2472 60.8428 36.9715C60.7205 36.6958 60.6606 36.353 60.6606 35.943C60.6606 35.5954 60.7181 35.2573 60.8284 34.9289C60.9411 34.6004 61.1041 34.3103 61.3199 34.0586C61.5356 33.8069 61.797 33.6031 62.1038 33.4472C62.4107 33.2914 62.7607 33.2123 63.1587 33.2123C63.5951 33.2123 63.9643 33.2914 64.2639 33.4472C64.5636 33.6031 64.8106 33.8236 65.0024 34.1089C65.1942 34.3942 65.3308 34.7371 65.4147 35.1446C65.4986 35.5498 65.5394 36.0005 65.5394 36.4944V37.089H66.4193C66.7597 37.089 82.6477 37.2568 82.6477 37.5925C82.6477 37.8034 82.6069 37.9473 82.5254 38.0216C82.4439 38.0959 66.5967 38.1343 66.4193 38.1343H65.513L65.5154 38.1319ZM61.6723 35.8351C61.6723 36.2667 61.7946 36.5831 62.0415 36.7845C62.2884 36.9859 62.6505 37.0842 63.1252 37.0842H64.4821V36.2499C64.4821 35.6289 64.3766 35.1327 64.1657 34.761C63.9547 34.3918 63.5927 34.2048 63.082 34.2048C62.8399 34.2048 62.6313 34.2528 62.4539 34.3511C62.2765 34.4494 62.1326 34.574 62.0199 34.7323C61.9072 34.8905 61.8209 35.0631 61.761 35.2549C61.7011 35.4467 61.6723 35.6385 61.6723 35.8327V35.8351Z" fill="#11172F"/>
<path d="M66.436 38.1319C66.1004 38.1319 65.9326 37.9641 65.9326 37.6284C65.9326 37.4174 65.9733 37.2736 66.0525 37.1993C66.1316 37.1249 66.2586 37.0866 66.436 37.0866H83.5899C83.5012 36.9092 83.4245 36.715 83.3549 36.5016C83.2854 36.2882 83.2518 36.0413 83.2518 35.7632C83.2518 35.4323 83.307 35.1087 83.4149 34.7874C83.5227 34.4662 83.6834 34.1857 83.8944 33.9387C84.1053 33.6918 84.3643 33.4904 84.6711 33.3346C84.978 33.1787 85.3328 33.0996 85.7404 33.0996C86.1983 33.0996 86.5747 33.1835 86.872 33.3537C87.1669 33.524 87.4018 33.7373 87.5769 33.9987C87.7519 34.26 87.8693 34.5453 87.9341 34.8593C87.9988 35.1734 88.03 35.4803 88.03 35.7848V38.1319H66.4384H66.436ZM84.1053 31.1529C84.1053 30.9683 84.1725 30.8124 84.3043 30.683C84.4362 30.5559 84.5944 30.4912 84.7814 30.4912C84.9684 30.4912 85.1243 30.5559 85.2513 30.683C85.3784 30.81 85.4431 30.9683 85.4431 31.1529C85.4431 31.3375 85.3784 31.5029 85.2513 31.6324C85.1243 31.7618 84.966 31.8266 84.7814 31.8266C84.5968 31.8266 84.4386 31.7618 84.3043 31.6324C84.1725 31.5029 84.1053 31.3423 84.1053 31.1529ZM84.2372 35.5906C84.2372 36.106 84.3882 36.4848 84.6903 36.7246C84.9924 36.9643 85.3616 37.0842 85.7979 37.0842H87.0087V35.8207C87.0087 35.6169 86.9895 35.4132 86.9535 35.2094C86.9152 35.0032 86.848 34.821 86.7473 34.658C86.649 34.4949 86.51 34.3607 86.3302 34.2552C86.1528 34.1497 85.9274 34.097 85.6589 34.097C85.213 34.097 84.8653 34.2432 84.6136 34.5357C84.3619 34.8282 84.2372 35.1806 84.2372 35.5906ZM85.75 31.1529C85.75 30.9683 85.8147 30.8124 85.9442 30.683C86.0737 30.5559 86.2319 30.4912 86.4165 30.4912C86.6011 30.4912 86.7545 30.5559 86.8864 30.683C87.0182 30.81 87.0854 30.9683 87.0854 31.1529C87.0854 31.3375 87.0182 31.5029 86.8864 31.6324C86.7545 31.7618 86.5963 31.8266 86.4165 31.8266C86.2367 31.8266 86.0737 31.7618 85.9442 31.6324C85.8147 31.5029 85.75 31.3423 85.75 31.1529Z" fill="#11172F"/>
</g>
<rect x="96.1686" y="0.550835" width="43.3332" height="43.3332" fill="#5064BA"/>
<rect x="96.1686" y="0.550835" width="43.3332" height="43.3332" stroke="#C59714" stroke-width="0.898097"/>
<g clip-path="url(#clip1_673_1967)">
<path d="M132.021 38.2396C131.68 40.6631 137.039 39.1557 136.569 41.6435L136.375 42.2896C134.544 41.6999 133.935 42.4193 132.551 42.464L129.808 42.3092C133.005 41.9358 134.757 40.937 136.239 41.4825C135.573 39.9829 130.768 41.3953 132.02 38.2402L132.021 38.2396Z" fill="white"/>
<path d="M130.623 40.9655C130.953 35.0788 120.113 38.8952 121.373 33.5295C122.11 37.347 128.442 33.5295 128.504 36.9803C128.056 35.8943 126.5 36.0178 124.905 36.1827C127.367 36.7282 131.396 36.6791 130.623 40.9649L130.623 40.9655Z" fill="white"/>
<path d="M114.123 42.7038C115.888 38.5129 104.769 37.8377 106.634 33.2221C106.715 36.4393 113.1 34.4489 112.423 38.5364C112.292 36.6053 110.097 36.5935 108.193 35.8753C111.023 38.0864 116.126 39.3183 114.123 42.7038Z" fill="white"/>
<path d="M129.501 40.9962C129.389 43.1783 126.322 42.6893 126.789 40.3121C125.655 40.1595 125.391 41.155 124.606 41.9118C124.606 41.9118 123.742 42.7463 123.387 41.7994L123.109 40.7593C122.186 38.5666 120.123 38.0904 118.689 37.2989C117.624 36.7115 117.164 35.8356 117.389 33.7452C117.311 38.2575 122.655 36.1984 123.525 41.174C124.035 41.9436 124.761 41.1516 125.121 40.6385C124.735 40.6039 124.391 40.496 124.295 39.9393C124.277 39.8398 124.28 39.737 124.299 39.6375L124.4 39.0925C124.428 38.9439 124.491 38.8024 124.59 38.6884C125.266 37.9087 126.078 38.713 126.245 39.6067C126.306 40.2696 126.25 41.0309 126.142 41.8386C126.452 39.6151 125.21 38.5056 124.449 39.4782C125.279 40.5558 126.087 39.2228 126.867 39.495C126.923 39.5145 126.959 39.5676 126.954 39.6263L126.894 40.3071C127.029 41.9492 129.022 42.0012 129.411 40.8856C129.401 40.6486 129.341 40.434 129.221 40.2456C129.034 39.7303 128.486 39.5207 127.743 39.476C128.289 40.0628 129.378 39.2289 129.592 39.5643C129.613 39.5972 129.62 39.638 129.616 39.6777L129.634 40.4144C129.247 39.965 128.876 40.3406 128.428 40.4194C127.952 40.5027 127.391 40.3434 127.433 39.5073L127.586 38.6717C128.599 39.0003 129.769 39.1417 129.503 40.9957L129.501 40.9962Z" fill="white"/>
<path d="M127.725 33.5295C127.202 36.3504 115.373 36.2001 114.816 41.2746C114.683 43.4013 116.948 42.4797 117.568 41.3383C117.503 41.8089 117.544 42.0906 117.651 42.2566C117.712 42.3522 117.842 42.3684 117.926 42.2919C118.369 41.89 118.407 41.1008 118.729 40.7878C118.615 42.0705 119.377 42.2723 120.044 42.5914L120.187 41.5054L121.329 42.2427L121.427 41.938C122.298 42.929 122.964 40.7028 123.859 40.3457L123.943 39.6034C123.263 39.7364 122.304 42.0946 121.643 41.3126C121.572 41.2282 121.543 41.1164 121.555 41.0063C121.713 39.543 120.604 39.7806 120.163 38.6107C119.913 39.8074 120.338 39.6861 121.383 40.8403C121.416 41.0477 121.419 41.2606 121.383 41.4814C120.534 40.8403 119.858 40.7811 119.818 39.8952C119.441 41.1254 120.081 41.2399 120.053 41.8028C119.392 41.4982 118.643 41.2936 118.871 39.9734C118.345 40.2797 118.368 41.463 117.871 41.6195C117.737 41.6195 117.707 41.4769 117.708 41.2902L117.75 40.4748C116.236 42.5657 114.993 41.7564 114.936 41.2444C116.664 36.702 128.242 37.3911 127.726 33.5289L127.725 33.5295Z" fill="white"/>
<path d="M117.619 37.5247L117.735 36.9423C117.745 36.8948 117.702 36.8529 117.655 36.8635C116.933 37.0273 116.531 37.8221 115.892 38.1999C115.293 38.5543 114.589 38.5297 114.278 37.9886C114.094 37.6678 114.119 37.2698 114.314 36.9552C114.522 36.6192 114.816 36.4175 115.373 36.2006C114.795 36.3783 114.335 36.5237 113.984 37.5119C113.526 38.8863 114.755 39.5056 115.752 38.9103C116.376 38.5381 116.843 37.6248 117.556 37.5778C117.587 37.5756 117.613 37.5543 117.619 37.5242L117.619 37.5247Z" fill="white"/>
<path d="M108.724 42.7781C111.141 38.917 103.287 38.4157 106.152 34.6138C104.711 36.1855 104.975 37.2905 105.753 38.2435C106.635 39.3234 108.761 40.3451 108.934 41.7016C108.535 41.3467 108.008 41.331 107.598 41.5764C108.222 40.4384 108.39 39.4491 108.278 38.7846C109.011 39.4681 109.617 40.325 109.349 41.3344C109.045 42.407 109.379 42.9715 110.363 41.1874C110.018 42.2594 110.742 42.3768 111.359 42.7043C111.429 42.7418 111.517 42.7105 111.547 42.6367L111.853 41.8799L112.997 42.4769C113.102 42.5322 113.232 42.4813 113.273 42.3695L113.482 41.7933C113.498 41.7469 113.511 41.6798 113.523 41.6033C113.58 41.2265 113.461 40.8448 113.2 40.5664C112.909 40.2562 112.489 39.8348 112.083 39.5201C112.033 39.481 111.959 39.5011 111.936 39.5609L111.743 40.0556C111.725 40.1025 111.74 40.1551 111.78 40.1858C112.049 40.392 113.051 41.1857 113.264 41.7866C112.553 41.3752 111.692 41.2819 111.557 40.4194C111.553 40.3948 111.52 40.3898 111.509 40.4122C111.011 41.3786 111.407 41.421 111.558 41.966C110.94 41.6575 110.369 41.5859 110.646 40.5279C110.655 40.4949 110.615 40.4692 110.59 40.4927C110.328 40.7308 110.123 41.2975 109.906 41.5121C109.692 41.7234 109.527 41.7642 109.503 41.4395C109.498 41.3607 109.51 41.2813 109.532 41.2053C110.63 37.4716 104.093 36.6181 105.103 33.9967C103.249 36.9071 108.57 37.3598 108.145 39.9544C108.108 40.1797 108.027 40.3954 107.917 40.5961L107.382 41.5692C107.257 41.7966 107.147 42.0319 107.053 42.2734L106.855 42.7798C107.687 41.9386 108.52 41.98 108.725 42.7798L108.724 42.7781Z" fill="white"/>
<path d="M104.104 35.5785C104.036 36.9345 105.626 36.8059 105.137 38.1312L104.907 38.8304C104.251 38.5157 103.443 38.338 103.731 37.1659C103.094 37.883 101.935 38.044 102.263 36.65C102.126 36.6746 101.978 36.8244 101.823 37.0893C101.609 39.026 107.579 39.1456 106.698 41.871L106.472 42.5836C105.517 41.4764 104.204 41.9844 102.886 40.6637L102.105 38.8444C104.012 41.3165 104.594 40.4233 106.533 41.7536C105.693 39.4005 100.81 39.7426 101.688 37.1374C101.842 36.4566 102.132 36.0586 102.545 35.8949L102.426 36.5578C102.544 37.4616 103.72 36.7981 104.035 36.3599C103.714 37.1474 103.983 37.731 104.97 38.0674C104.589 37.2067 103.425 37.0781 104.104 35.578V35.5785Z" fill="white"/>
<path d="M101.108 39.0461C99.8845 41.0035 103.857 40.2629 103.005 41.9962C102.991 42.0241 102.971 42.0498 102.949 42.0722L102.427 42.5931C102.234 41.8604 99.9069 43.3102 97.733 41.715C100.289 42.4316 100.968 41.5591 102.544 41.8106C102.433 41.2578 101.561 41.1287 100.863 40.7598C100.244 40.4329 100.081 39.7962 101.108 39.0467L101.108 39.0461Z" fill="white"/>
<path d="M100.002 40.5491C100.407 38.9237 98.3029 37.6985 99.4321 36.7154C100.531 36.2135 100.874 36.309 101.376 35.7859C102.484 34.6462 102.382 32.7777 104.416 32.7514C101.58 31.3608 101.758 36.1928 98.9188 35.4583C99.6315 34.4059 99.8246 32.9901 101.466 32.8107C101.958 33.4613 101.181 34.5288 99.7675 34.3276C98.9445 34.1572 98.2251 31.9192 100.84 31.9181L101.451 32.022C101.597 30.9131 99.6807 31.0976 98.6713 29.2464C98.0986 28.1961 98.2856 27.9111 97.8752 26.4445C97.7011 27.2409 97.7089 28.0441 97.8752 28.854C98.865 30.8952 100.654 30.6694 100.739 31.6984C97.4525 31.2781 97.9329 34.2483 99.6309 34.4053C100.824 34.7547 101.595 34.5797 102.087 34.0588C102.553 33.3864 102.305 32.9018 101.43 32.6844C99.4131 32.1405 98.9132 34.3511 98.1227 35.3231C98.8471 35.6998 99.6421 35.7864 100.47 35.7356C99.8246 36.3292 98.8723 36.0687 98.4771 36.8411C98.1658 38.177 99.6466 38.7929 99.2888 40.3345L100.002 40.548V40.5491Z" fill="white"/>
<path d="M102.642 31.9047L103.366 32.0556C103.359 31.2731 101.074 29.798 101.843 29.2715C101.96 29.1916 102.105 29.1648 102.246 29.1849L102.681 29.2469C102.747 29.2564 102.793 29.1871 102.762 29.129C102.51 28.6662 101.639 28.2979 101.2 27.692C100.879 27.2476 100.958 26.7401 101.599 26.54L102.155 26.5982C102.25 26.6082 102.323 26.5143 102.289 26.4249C102.034 25.7598 101.735 25.0113 102.037 24.5933C102.29 25.3182 101.164 25.8576 100.285 25.7693C99.5049 25.4233 98.5482 24.4552 98.2055 23.1831C97.957 22.2603 97.6658 20.8562 97.5824 18.9944C97.382 19.6892 97.3562 20.759 97.4072 21.9954C97.4145 22.1686 97.4307 22.3413 97.4632 22.5118C97.7924 24.2573 98.8835 25.6385 100.365 25.8805C101.645 26.1963 102.488 25.8028 102.891 24.6911C102.927 24.5933 102.866 24.4865 102.764 24.4642L102.305 24.3635C102.155 24.3306 102.002 24.3155 101.848 24.3272C100.488 24.4312 101.701 26.2824 101.527 26.3891C100.191 26.2617 100.043 26.9413 100.531 27.626C100.874 28.1084 102.05 28.7327 102.054 29.044C100.75 28.7791 100.821 29.447 101.293 30.0792C101.768 30.7164 102.633 31.3513 102.641 31.9047H102.642Z" fill="white"/>
<path d="M104.136 20.8523C102.094 19.9469 101.746 21.3956 101.07 22.3894C100.933 21.902 100.704 21.4018 101.05 20.9826C101.142 20.8697 101.271 20.7931 101.408 20.7417C103.628 19.91 103.055 13.4454 105.543 13.0295C105.965 13.5175 106.935 15.4553 104.281 16.7515C104.627 16.7419 104.954 16.6984 105.261 16.6167C105.945 16.4334 106.509 15.9304 106.706 15.2507C107.046 14.0736 106.163 13.0815 105.458 12.8434C102.814 12.1459 102.739 18.3003 101.455 19.9379C101.335 20.0916 101.175 20.2112 100.995 20.2873C100.549 20.4756 100.351 20.6003 100.258 20.9518C100.06 21.6924 101.059 23.2205 99.7255 24.5301C99.6841 24.5704 99.6964 24.6397 99.749 24.6637L100.391 24.9594C100.438 24.9806 100.493 24.9728 100.529 24.937C101.872 23.6252 101.534 20.6478 104.137 20.8523H104.136Z" fill="white"/>
<path d="M99.0207 21.0927L99.7625 21.2917C99.9763 20.0855 98.6982 19.6199 98.2134 18.616C97.7067 17.5669 97.4609 16.7308 97.3708 15.9108C97.3708 16.458 97.3327 17.2511 97.4313 17.9051C97.4632 18.1164 97.6194 18.6267 97.8187 18.8955C98.481 19.7904 99.4142 20.3756 99.0207 21.0927Z" fill="white"/>
<path d="M99.3655 18.9732L100.124 19.1884C100.611 19.1454 99.7933 18.1739 100.363 17.7391C100.293 18.2617 100.073 18.5618 99.6046 18.4959C98.5935 17.7637 97.9368 15.8314 97.3781 13.5672L97.5141 15.9466C97.5197 16.0472 97.5399 16.1467 97.5757 16.2411C98.0275 17.4406 98.6086 18.4227 99.613 18.6949C100.8 19.0039 100.972 18.4109 101.101 17.7804C101.112 17.7257 101.08 17.6709 101.026 17.6547L100.671 17.5474C100.464 17.4848 100.247 17.4585 100.032 17.4792C98.799 17.5999 100.115 18.843 99.3655 18.9732Z" fill="white"/>
<path d="M99.1326 16.1154L99.8985 16.3384C100.444 16.3261 99.7613 15.2513 100.25 14.7454C100.21 15.2189 100.182 15.7012 99.5318 15.7169C98.4491 14.7276 97.8506 12.7422 97.5936 10.0543V12.9597C97.5936 13.1491 97.6222 13.3375 97.6804 13.5175C98.0309 14.5996 98.4994 15.5319 99.4125 15.8996L100.178 16.0589C100.982 15.9628 101.189 14.9109 100.554 14.6012L100.059 14.49C98.7419 14.2754 99.8991 16.1802 99.1337 16.1148L99.1326 16.1154Z" fill="white"/>
<path d="M99.309 13.7176L99.9461 13.9249C99.9786 13.9356 100.014 13.9165 100.022 13.8836C100.408 12.2912 98.8376 11.469 98.2453 10.1818C97.8416 9.30424 97.8316 8.47758 97.9245 6.52411C97.5208 7.38487 97.3652 8.79897 97.438 9.41994C97.6479 11.2225 99.9993 12.7255 99.2827 13.6248C99.2569 13.6572 99.2704 13.7047 99.3095 13.7176H99.309Z" fill="white"/>
<path d="M99.7933 11.0336L100.28 11.2857C100.333 11.313 100.398 11.2857 100.415 11.2286C100.869 9.75865 99.4489 8.87889 98.7273 6.60795C98.6243 6.28433 98.3875 5.05412 98.2856 3.43993C98.0141 4.72212 98.0628 5.36433 98.144 6.36146C98.2582 7.76215 100.258 9.53284 99.7473 10.919C99.7311 10.9632 99.7513 11.0123 99.7933 11.0341V11.0336Z" fill="white"/>
<path d="M100.874 9.91907L101.591 10.2058C101.725 9.09073 100.422 8.13104 99.9539 6.80749C99.5603 5.6941 99.6964 5.08598 100.411 4.92836C100.851 4.83167 101.296 4.96972 101.667 5.2246C102.409 5.73434 102.899 6.46319 102.899 6.46319C102.899 6.46319 102.304 5.47947 101.538 5.02282C101.162 4.79813 100.74 4.65169 100.304 4.61257C98.8712 4.48401 98.8505 5.61417 99.347 6.77284C99.9047 8.07403 101.062 8.86157 100.873 9.91963L100.874 9.91907Z" fill="white"/>
<path d="M98.3567 12.8238C100.34 14.0205 102.9 6.46263 106.814 9.80616C103.718 7.90691 104 14.0479 101.225 12.109C102.361 12.4164 102.993 11.1672 103.834 9.80505C101.842 11.0604 100.16 14.224 98.3561 12.8238H98.3567Z" fill="white"/>
<path d="M124.645 38.1882L124.718 37.499L123.895 37.3302L123.828 38.049L124.645 38.1882Z" fill="white"/>
<path d="M127.231 38.6532L127.303 37.9646L126.48 37.7952L126.414 38.5146L127.231 38.6532Z" fill="white"/>
<path d="M123.612 39.3798L123.97 38.7868L123.296 38.2854L122.931 38.9086L123.612 39.3798Z" fill="white"/>
<path d="M118.097 40.396L118.467 39.8102L117.804 39.2954L117.426 39.9108L118.097 40.396Z" fill="white"/>
<path d="M115.679 37.8003L116.049 37.2145L115.385 36.6997L115.008 37.3151L115.679 37.8003Z" fill="white"/>
<path d="M117.087 40.7073L117.457 40.1215L116.793 39.6067L116.416 40.2221L117.087 40.7073Z" fill="white"/>
<path d="M104.587 41.684L104.076 42.1942L104.661 42.7784L105.172 42.2681L104.587 41.684Z" fill="white"/>
<path d="M103.518 41.6127L103.007 42.1229L103.592 42.707L104.103 42.1968L103.518 41.6127Z" fill="white"/>
<path d="M98.4105 39.214L97.8202 39.8032L98.4053 40.3874L98.9956 39.7981L98.4105 39.214Z" fill="white"/>
<path d="M99.7557 27.4521L99.1654 28.0413L99.7505 28.6255L100.341 28.0362L99.7557 27.4521Z" fill="white"/>
<path d="M97.8141 24.8446L97.5073 25.1509L97.8114 25.4544L98.1182 25.1482L97.8141 24.8446Z" fill="white"/>
<path d="M97.818 25.5013L97.5112 25.8076L97.8152 26.1111L98.122 25.8048L97.818 25.5013Z" fill="white"/>
<path d="M99.8763 28.6054L99.2861 29.1947L99.8712 29.7788L100.461 29.1895L99.8763 28.6054Z" fill="white"/>
<path d="M104.099 30.7402L103.509 31.3295L104.094 31.9136L104.684 31.3243L104.099 30.7402Z" fill="white"/>
<path d="M99.2128 21.5475L98.915 22.205L99.669 22.5453L99.9667 21.8878L99.2128 21.5475Z" fill="white"/>
<path d="M99.6359 22.6539L99.3381 23.3114L100.092 23.6517L100.39 22.9942L99.6359 22.6539Z" fill="white"/>
<path d="M101.079 13.378L100.587 13.9064L101.193 14.469L101.685 13.9406L101.079 13.378Z" fill="white"/>
<path d="M101.421 5.98811L100.9 6.48882L101.475 7.08367L101.995 6.58296L101.421 5.98811Z" fill="white"/>
<path d="M101.37 7.05456L100.849 7.55526L101.424 8.15011L101.944 7.6494L101.37 7.05456Z" fill="white"/>
<path d="M98.7584 22.2651L98.4607 22.9226L99.2146 23.2629L99.5124 22.6054L98.7584 22.2651Z" fill="white"/>
<path d="M106.262 8.7291C106.688 9.23717 107.134 9.19134 107.275 8.90293C106.238 7.81245 103.735 8.93591 103.233 6.90307C103.121 6.41736 103.132 5.93332 103.401 5.45432L103.567 6.02778C103.843 6.88742 104.836 7.19819 105.925 7.43629C105.825 7.33065 105.754 7.12832 105.7 6.86562C105.7 6.86562 106.002 7.42959 106.563 7.45082L106.645 7.93486C105.336 7.66322 103.871 7.63918 103.46 5.96351C103.352 6.12504 103.299 6.44363 103.284 6.87289C104.273 8.63744 106.829 7.20881 107.36 8.8638C107.6 9.58371 106.644 9.99956 106.261 8.7291H106.262Z" fill="white"/>
<path d="M103.42 22.0507L103.872 22.2184C103.269 22.8282 102.594 23.1931 101.722 22.9047C102.025 23.2854 102.348 23.5794 102.715 23.7873C104.264 24.6788 104.417 22.6795 105.705 22.6543C105.781 23.1557 105.425 23.6241 104.647 23.4933L105.503 23.6839C106.03 23.5805 106.504 22.9237 105.787 22.5727C104.37 21.9752 103.949 24.1975 102.773 23.7331C102.508 23.5358 102.274 23.3374 102.168 23.1367C103.451 23.4609 104.162 22.5269 104.928 21.7153L104.453 21.4722C104.144 21.9082 103.804 22.1301 103.42 22.0512L103.42 22.0507Z" fill="white"/>
<path d="M103.051 26.7563L103.458 26.9072C102.915 27.4567 102.307 27.7848 101.523 27.5249C101.796 27.8675 102.086 28.1324 102.417 28.3191C103.812 29.1217 103.95 27.322 105.108 27.2991C105.177 27.7501 104.857 28.1721 104.156 28.0542L104.926 28.2258C105.401 28.133 105.828 27.5416 105.182 27.2253C103.906 26.687 103.527 28.688 102.469 28.2699C102.23 28.0922 102.019 27.9139 101.923 27.7328C103.08 28.0246 103.719 27.1839 104.409 26.4534L103.981 26.2343C103.703 26.6267 103.397 26.8268 103.051 26.7558V26.7563Z" fill="white"/>
<path d="M118.344 35.5931L118.608 35.0023C119.191 35.5081 119.613 36.1553 119.402 36.9529C121.009 35.0766 119.57 34.6328 119.389 33.9872C120.075 33.5647 120.886 34.213 120.598 35.2113L120.73 34.6278C120.848 34.1091 120.513 33.5826 119.987 33.4993C119.72 33.4568 119.463 33.5384 119.353 33.8039C118.853 34.7457 119.866 34.8877 119.997 35.6037C120.028 35.7758 119.988 35.953 119.896 36.1022C119.816 36.2319 119.704 36.3795 119.603 36.441C119.746 35.4891 118.844 34.6669 118.124 34.07L117.951 34.4998C118.361 34.7519 118.485 35.2337 118.345 35.5919L118.344 35.5931Z" fill="white"/>
<path d="M102.942 35.0671L103.386 35.1638C103.386 35.1638 103.15 35.6065 102.71 35.4371C102.27 35.2678 102.184 35.2504 102.325 34.9564C102.467 34.6624 103.167 34.7178 103.167 34.7178C103.167 34.7178 103.652 34.7731 103.839 34.2404C104.026 33.7078 104.357 32.7447 105.865 33.1807C105.865 33.1807 104.757 32.8711 104.265 34.3941C104.082 34.9609 103.457 34.8575 103.457 34.8575C103.457 34.8575 102.603 34.7988 102.722 35.3069L102.942 35.0671Z" fill="white"/>
<path d="M100.381 38.4771C99.9405 38.3078 99.4641 37.9708 99.6063 37.6768C99.7311 37.418 100.026 37.6477 100.095 37.7069C100.108 37.7181 100.124 37.7271 100.14 37.7315C100.216 37.7517 100.409 37.7516 100.5 37.2659C100.62 36.6226 100.947 36.56 101.579 36.7769C101.579 36.7769 101.103 36.5874 100.944 37.3906C100.8 38.1155 100.289 37.9255 100.144 37.8545C100.11 37.8383 100.07 37.8467 100.046 37.8757C99.9897 37.9439 99.9646 38.1099 100.381 38.4777L100.381 38.4771Z" fill="white"/>
<path d="M132.172 41.2545C131.764 41.4898 131.202 41.6491 131.062 41.354C130.939 41.0946 131.303 41.0097 131.393 40.9929C131.41 40.9895 131.426 40.9834 131.441 40.9728C131.504 40.9269 131.625 40.7766 131.303 40.401C130.876 39.9041 131.033 39.6107 131.599 39.2552C131.599 39.2552 131.152 39.5061 131.679 40.1338C132.154 40.7006 131.685 40.9784 131.538 41.0471C131.505 41.0628 131.486 41.0996 131.493 41.136C131.511 41.2226 131.625 41.3467 132.172 41.2534V41.2545Z" fill="white"/>
<path d="M138.582 42.5378C138.173 42.7731 137.611 42.9324 137.471 42.6373C137.348 42.3779 137.712 42.293 137.802 42.2762C137.819 42.2729 137.835 42.2667 137.85 42.2561C137.913 42.2103 138.035 42.0599 137.712 41.6843C137.285 41.1874 137.442 40.894 138.008 40.5385C138.008 40.5385 137.561 40.7894 138.088 41.4171C138.563 41.9839 138.094 42.2617 137.947 42.3304C137.914 42.3461 137.895 42.383 137.902 42.4193C137.92 42.5059 138.034 42.63 138.582 42.5367V42.5378Z" fill="white"/>
<path d="M99.5452 17.4417C99.3062 17.1187 99.1421 16.6648 99.4355 16.534C99.6936 16.4189 99.7815 16.714 99.7988 16.7867C99.8022 16.8006 99.8089 16.8141 99.819 16.8252C99.8655 16.875 100.017 16.9666 100.388 16.6816C100.88 16.3043 101.175 16.4178 101.535 16.8644C101.535 16.8644 101.28 16.5106 100.659 16.9767C100.097 17.3976 99.8156 17.027 99.7457 16.9096C99.7294 16.8828 99.6925 16.8694 99.6561 16.8772C99.5699 16.8962 99.4473 16.9963 99.5452 17.4423V17.4417Z" fill="white"/>
<path d="M100.281 40.6804C100.275 40.6704 100.263 40.667 100.253 40.6732C100.191 40.7117 99.9825 40.8342 99.9858 40.8409C99.9981 40.8627 100.01 40.8845 100.023 40.9068C99.9623 40.9404 99.8985 40.9711 99.8464 41.0152C99.4887 41.3204 99.842 41.8223 99.842 41.8223C99.842 41.8223 100.034 41.696 100.105 41.6496C100.122 41.6379 100.139 41.625 100.155 41.6105C100.58 41.2103 100.438 40.9594 100.281 40.681L100.281 40.6804ZM100.038 40.932C100.134 41.103 100.215 41.283 100.089 41.5177C100.007 41.331 99.8727 41.146 100.038 40.932Z" fill="white"/>
<path d="M116.486 35.1604C116.475 35.1549 116.463 35.1582 116.458 35.1683C116.425 35.2337 116.31 35.4461 116.316 35.4494C116.338 35.4617 116.36 35.474 116.383 35.4863C116.348 35.5467 116.309 35.6059 116.287 35.6707C116.14 36.1168 116.702 36.3638 116.702 36.3638C116.702 36.3638 116.801 36.157 116.838 36.0799C116.847 36.0609 116.854 36.0413 116.86 36.0212C117.017 35.4589 116.764 35.3181 116.486 35.1604H116.486ZM116.408 35.5014C116.579 35.5981 116.742 35.7104 116.756 35.9754C116.588 35.8585 116.378 35.7697 116.408 35.5014Z" fill="white"/>
<path d="M97.9284 41.3327C97.6866 40.6167 98.776 40.5782 99.2748 41.1047C99.3191 41.1516 98.9378 40.6123 98.3617 40.5441C97.7879 40.4759 97.6378 40.8224 97.7403 41.1265C97.7526 41.1622 97.8775 41.2791 97.9004 41.3037C97.9071 41.3109 97.9256 41.3243 97.929 41.3333L97.9284 41.3327Z" fill="white"/>
<path d="M98.687 42.4036C98.687 42.4036 98.346 42.1583 97.6927 42.5914C97.8108 41.9733 97.5421 41.9844 97.3965 41.9666C97.3534 41.961 97.2986 41.9649 97.2577 41.9509C97.5684 42.0593 97.4145 42.5026 97.3831 42.7345C97.3993 42.7368 97.6608 42.7692 97.6608 42.7692C98.1008 42.4433 98.687 42.4042 98.6875 42.4042L98.687 42.4036Z" fill="white"/>
<path d="M111.722 34.7368C111.685 36.1179 114.049 36.1632 113.6 38.2105C113.567 36.5181 111.254 36.4868 111.722 34.7368Z" fill="white"/>
<path d="M105.438 11.1146C104.059 11.232 104.278 13.5823 102.189 13.3649C103.87 13.1435 103.644 10.8452 105.438 11.1146Z" fill="white"/>
<path d="M108.667 35.0095C108.798 34.592 108.62 34.2846 108.191 34.0672C108.143 34.0426 108.125 33.9822 108.152 33.9353L108.287 33.705C108.35 33.5971 108.475 33.539 108.597 33.5647C109.115 33.6737 110.518 33.9738 111.615 34.0459C113.281 34.156 117.262 32.937 116.72 34.2572C116.501 35.3387 113.706 35.2303 112.932 35.166C113.442 34.9989 116.15 34.8307 116.543 34.3142C116.263 33.3607 113.461 35.1856 108.947 34.127C109.022 34.4623 108.874 34.7435 108.667 35.0095Z" fill="white"/>
<path d="M105.132 24.6C105.555 24.7146 105.855 24.5245 106.056 24.0886C106.079 24.0388 106.139 24.0187 106.187 24.0438L106.423 24.169C106.533 24.2277 106.596 24.3501 106.576 24.4731C106.487 24.994 106.243 26.4059 106.214 27.5031C106.17 29.1692 107.387 33.5809 106.044 33.0929C105.392 32.8487 105.285 32.1836 105.319 31.4094C105.506 31.9119 105.716 32.4206 106.027 32.9577C106.969 32.6408 105.147 29.3895 106.027 24.8442C105.694 24.9331 105.407 24.7967 105.132 24.6Z" fill="white"/>
<path d="M105.155 16.9773C105.578 17.0918 105.878 16.9018 106.079 16.4658C106.102 16.4161 106.161 16.396 106.21 16.4211L106.446 16.5463C106.556 16.605 106.619 16.7274 106.599 16.8504C106.51 17.3713 106.266 18.7832 106.237 19.8804C106.193 21.5465 107.245 22.6476 105.902 22.1597C105.251 21.9154 105.351 20.925 105.385 20.1509C105.573 20.6534 105.779 21.4957 106.089 22.0334C106.49 21.2855 105.341 20.83 106.05 17.2215C105.718 17.3104 105.43 17.174 105.155 16.9773H105.155Z" fill="white"/>
<path d="M110.703 38.7549C110.604 39.0215 110.518 39.2747 110.491 39.4659C110.488 39.4905 110.494 39.5162 110.507 39.5374C110.609 39.704 110.79 39.6241 111.009 39.4195L110.898 39.8387C110.888 39.8784 110.867 39.9153 110.838 39.9449C110.469 40.3317 110.262 40.0455 110.379 39.6263C110.45 39.344 110.565 39.0517 110.704 38.7549H110.703Z" fill="white"/>
<path d="M120.909 35.1342C120.81 35.4008 120.724 35.654 120.697 35.8451C120.694 35.8697 120.7 35.8954 120.713 35.9167C120.815 36.0832 120.996 36.0033 121.215 35.7987L121.104 36.2179C121.094 36.2576 121.073 36.2945 121.044 36.3241C120.675 36.7109 120.468 36.4247 120.585 36.0055C120.656 35.7233 120.771 35.431 120.909 35.1342H120.909Z" fill="white"/>
<path d="M123.097 41.3143C122.998 41.5809 122.911 41.8341 122.885 42.0252C122.882 42.0498 122.887 42.0756 122.901 42.0968C123.003 42.2634 123.184 42.1834 123.403 41.9789L123.292 42.3981C123.282 42.4377 123.261 42.4746 123.232 42.5043C122.863 42.891 122.656 42.6049 122.773 42.1857C122.844 41.9034 122.959 41.6111 123.097 41.3143H123.097Z" fill="white"/>
<path d="M101.415 38.0428C101.167 38.1826 100.936 38.3201 100.793 38.4486C100.774 38.4654 100.762 38.4883 100.758 38.5135C100.729 38.7069 100.917 38.7622 101.217 38.7477L100.861 38.9958C100.828 39.0193 100.788 39.0338 100.747 39.0383C100.215 39.0948 100.242 38.7426 100.603 38.4989C100.84 38.329 101.117 38.1809 101.415 38.0434V38.0428Z" fill="white"/>
<path d="M99.4641 31.1943C99.1186 31.0461 98.7889 30.9148 98.5381 30.8673C98.5056 30.8611 98.4715 30.8673 98.4423 30.8829C98.2156 31.007 98.1971 31.2144 98.453 31.5168L98.018 31.3776C97.9659 31.3608 97.9189 31.3312 97.8819 31.2915C97.3954 30.7784 97.7879 30.5252 98.3343 30.708C98.7027 30.8198 99.0811 30.9919 99.4641 31.1937V31.1943Z" fill="white"/>
<path d="M104.75 30.0904C104.404 29.9423 104.074 29.8109 103.824 29.7634C103.791 29.7572 103.757 29.7634 103.728 29.779C103.501 29.9031 103.483 30.1105 103.738 30.4129L103.303 30.2737C103.251 30.2569 103.204 30.2273 103.167 30.1876C102.681 29.6745 103.073 29.4213 103.62 29.6041C103.988 29.7159 104.367 29.888 104.75 30.0898V30.0904Z" fill="white"/>
<path d="M130.486 40.1456C130.291 40.4669 130.116 40.7749 130.034 41.0164C130.023 41.0477 130.024 41.0823 130.036 41.1131C130.128 41.3545 130.331 41.4009 130.666 41.1896L130.469 41.601C130.445 41.6502 130.409 41.6921 130.365 41.724C129.789 42.1348 129.592 41.7117 129.849 41.1963C130.01 40.847 130.233 40.4966 130.486 40.1456Z" fill="white"/>
<path d="M105.263 25.2316C104.918 25.0835 104.588 24.9521 104.337 24.9046C104.304 24.8984 104.27 24.9046 104.241 24.9202C104.014 25.0443 103.996 25.2517 104.252 25.5541L103.817 25.4149C103.765 25.3981 103.718 25.3685 103.681 25.3288C103.194 24.8157 103.587 24.5625 104.133 24.7453C104.502 24.8571 104.88 25.0292 105.263 25.231V25.2316Z" fill="white"/>
<path d="M103.226 13.9842C102.948 13.9512 102.685 13.9266 102.495 13.9456C102.47 13.9478 102.447 13.9596 102.43 13.9769C102.294 14.1133 102.325 14.2653 102.572 14.428L102.231 14.4201C102.191 14.419 102.151 14.4078 102.116 14.3877C101.66 14.1234 101.887 13.8595 102.316 13.8752C102.603 13.8774 102.91 13.921 103.226 13.9842Z" fill="white"/>
<path d="M118.868 38.4973L118.675 38.8768C118.734 38.9522 119.451 39.4681 119.169 40.2244C119.962 39.1535 118.868 38.4973 118.868 38.4973Z" fill="white"/>
<path d="M97.8959 37.4409C98.1815 37.5493 98.3656 37.8265 98.3589 38.1312C98.3489 38.5794 98.3018 38.9215 98.1915 39.0808C98.1479 39.1434 98.0656 39.1663 97.995 39.1378L97.6244 38.988C97.5768 38.969 97.541 38.9288 97.527 38.879L97.4811 38.7136C97.4525 38.6113 97.4341 38.5068 97.4262 38.4011C97.3949 37.9808 97.4223 37.4308 97.5242 36.9736C97.527 36.9602 97.5466 36.9608 97.55 36.9736L97.8707 38.4939C97.9502 38.1032 97.971 37.7449 97.8965 37.4398L97.8959 37.4409Z" fill="white"/>
<path d="M97.8842 33.5843C98.1048 33.6742 98.243 33.8933 98.2318 34.1309C98.2156 34.4797 98.1725 34.7457 98.0835 34.8676C98.0482 34.9156 97.9838 34.9318 97.929 34.9084L97.6429 34.7848C97.6059 34.7692 97.5791 34.7368 97.569 34.6982L97.5365 34.5685C97.5164 34.4886 97.504 34.4064 97.4996 34.3243C97.4828 33.9962 97.5152 33.568 97.6026 33.2137C97.6054 33.2031 97.6205 33.2042 97.6227 33.2148L97.8439 34.4059C97.9127 34.1029 97.9362 33.824 97.8836 33.5848L97.8842 33.5843Z" fill="white"/>
<path d="M126.994 42.1952C125.937 42.3125 125.114 42.5294 125.011 41.9515C125.159 42.7804 124.92 42.8664 127.035 42.6311C127.035 42.6311 127.001 42.1946 126.994 42.1952Z" fill="white"/>
<path d="M127.841 33.9951C128.729 33.9045 129.413 33.7268 129.532 34.2231C129.361 33.5116 129.558 33.4395 127.783 33.6211C127.783 33.6211 127.835 33.9956 127.841 33.9951Z" fill="white"/>
<path d="M99.7328 27.327L99.4506 27.1359C99.4282 27.1208 99.4097 27.1006 99.3974 27.0766C99.2429 26.7726 99.1136 26.2103 98.7592 25.8699C98.2906 25.7218 98.8975 27.2957 98.7637 28.4421C98.4664 27.6288 98.2677 26.7055 98.2195 25.8078C98.2106 25.6402 98.3981 25.5351 98.5375 25.629L98.7049 25.7424C99.4831 26.2924 99.4932 26.7793 99.7596 27.3024C99.7686 27.3197 99.749 27.3371 99.7328 27.3265V27.327Z" fill="white"/>
<path d="M123.929 35.0459C124.017 34.2304 122.986 34.2667 122.089 34.2019C122.039 34.1985 122.008 34.1449 122.029 34.0996L122.158 33.8218C122.17 33.7955 122.197 33.7793 122.226 33.7799L125.304 33.8794C125.158 33.7625 125.097 33.5787 125.451 33.0594C125.39 33.4523 125.461 33.9252 127.01 33.6167L126.853 33.9286C126.807 34.0219 126.729 34.0962 126.633 34.137C126.006 34.4031 125.021 34.2756 124.139 34.2617C124.248 34.4752 124.201 34.7301 123.928 35.0459H123.929Z" fill="white"/>
<path d="M106.43 10.0929L106.214 10.2282C106.156 10.2645 106.121 10.3276 106.122 10.3958L106.134 12.2873L105.707 10.663C105.699 10.6311 105.652 10.6356 105.65 10.6686C105.603 11.3851 105.617 12.0631 105.787 12.6416C105.795 12.7909 105.963 12.8747 106.088 12.7925L106.206 12.7154C106.435 12.565 106.571 12.3079 106.565 12.0341L106.526 10.1438C106.525 10.0951 106.472 10.0666 106.43 10.0923V10.0929Z" fill="white"/>
<path d="M101.367 14.5789L101.756 14.7589C101.799 14.779 101.834 14.8125 101.854 14.8556C102.174 15.5514 102.117 16.4608 102.347 16.7112L101.972 16.6106C101.905 16.5927 101.852 16.5413 101.83 16.4748C101.546 15.5984 101.738 15.0629 101.367 14.5778V14.5789Z" fill="white"/>
<path d="M104.138 19.0805C104.322 19.2264 104.519 19.227 104.638 20.1335C104.253 19.2739 104.056 18.2153 103.941 17.0706C103.854 17.5826 103.809 18.1231 103.824 18.7038C103.829 18.8843 103.86 19.0643 103.918 19.2353C104.098 19.7669 104.393 20.3996 104.715 21.0563C104.723 21.0726 104.737 21.0849 104.755 21.0893L105.082 21.1832C105.127 21.1966 105.17 21.1558 105.161 21.1094C104.965 20.1151 105.198 19.0788 104.138 19.0811V19.0805Z" fill="white"/>
<path d="M105.602 14.5191L105.203 14.3469C105.101 14.4531 104.826 15.6347 104.044 15.6582C104.948 16.1629 105.334 15.0115 105.602 14.5196V14.5191Z" fill="white"/>
<path d="M99.4719 4.43427L99.7787 4.1263C99.7171 3.99215 98.7161 3.30522 98.9798 2.57023C98.1792 3.22641 99.1114 4.00501 99.4725 4.43427H99.4719Z" fill="white"/>
<path d="M103.97 6.11945C104.311 3.69592 98.9518 5.20336 99.4221 2.71555L99.6163 2.06943C101.447 2.6591 102.056 1.93975 103.44 1.89504L106.183 2.04986C102.986 2.42323 101.234 3.42204 99.7524 2.87652C100.418 4.37614 105.223 2.96372 103.971 6.11889L103.97 6.11945Z" fill="white"/>
<path d="M105.368 3.39354C105.038 9.28021 115.878 5.46382 114.618 10.8296C113.881 7.01206 107.549 10.8296 107.487 7.37872C107.935 8.46473 109.491 8.3412 111.086 8.17632C108.624 7.6308 104.594 7.67999 105.368 3.39409L105.368 3.39354Z" fill="white"/>
<path d="M121.868 1.65526C120.103 5.84613 131.223 6.52132 129.358 11.137C129.277 7.91977 122.892 9.91012 123.569 5.82265C123.699 7.75376 125.895 7.7655 127.798 8.48373C124.969 6.27259 119.866 5.04071 121.868 1.65526Z" fill="white"/>
<path d="M106.49 3.36279C106.602 1.18072 109.669 1.66979 109.202 4.04693C110.336 4.19952 110.6 3.20406 111.385 2.44726C111.385 2.44726 112.249 1.61278 112.604 2.55961L112.882 3.59978C113.805 5.79247 115.867 6.26868 117.302 7.06013C118.367 7.64757 118.827 8.52341 118.602 10.6138C118.68 6.10156 113.336 8.16067 112.466 3.18505C111.956 2.4154 111.23 3.20741 110.87 3.72051C111.255 3.75516 111.6 3.86304 111.696 4.41973C111.713 4.51922 111.711 4.62207 111.692 4.72156L111.591 5.26652C111.563 5.41519 111.5 5.5566 111.401 5.67062C110.725 6.45033 109.913 5.64603 109.746 4.7523C109.685 4.08941 109.741 3.32814 109.849 2.52048C109.539 4.74392 110.781 5.8534 111.542 4.88085C110.712 3.80323 109.904 5.13629 109.124 4.86409C109.068 4.84452 109.032 4.79142 109.037 4.73274L109.097 4.05196C108.962 2.40982 106.969 2.35783 106.58 3.47346C106.59 3.71045 106.65 3.92508 106.769 4.11344C106.956 4.62878 107.505 4.83837 108.247 4.88309C107.702 4.29621 106.613 5.13014 106.399 4.79478C106.378 4.7618 106.371 4.721 106.375 4.68131L106.357 3.94464C106.744 4.39402 107.115 4.01842 107.563 3.93961C108.039 3.85633 108.6 4.01563 108.558 4.85179L108.405 5.68739C107.392 5.35874 106.222 5.21733 106.488 3.36335L106.49 3.36279Z" fill="white"/>
<path d="M108.266 10.829C108.789 8.00808 120.618 8.15843 121.175 3.08389C121.308 0.957151 119.043 1.87883 118.423 3.02017C118.488 2.54955 118.447 2.26785 118.34 2.10184C118.279 2.00627 118.149 1.99006 118.065 2.06663C117.622 2.4685 117.584 3.25772 117.262 3.57072C117.376 2.28797 116.614 2.08619 115.947 1.76704L115.804 2.85305L114.662 2.11582L114.564 2.42044C113.692 1.42945 113.027 3.65568 112.132 4.01283L112.048 4.7551C112.728 4.62207 113.687 2.26393 114.348 3.04588C114.419 3.13028 114.448 3.24207 114.436 3.35218C114.278 4.81546 115.387 4.57791 115.828 5.74776C116.077 4.55108 115.653 4.67237 114.608 3.51818C114.575 3.31081 114.572 3.09786 114.608 2.87708C115.457 3.51818 116.133 3.57743 116.173 4.46333C116.55 3.23312 115.91 3.11854 115.937 2.5557C116.599 2.86032 117.348 3.06488 117.12 4.38508C117.646 4.07879 117.623 2.89553 118.12 2.73903C118.254 2.73903 118.284 2.88155 118.283 3.06824L118.241 3.88372C119.755 1.79275 120.998 2.60209 121.054 3.11407C119.327 7.65651 107.749 6.96735 108.265 10.8296L108.266 10.829Z" fill="white"/>
<path d="M118.372 6.83432L118.256 7.41673C118.246 7.46424 118.289 7.50616 118.336 7.49554C119.057 7.33177 119.459 6.53697 120.099 6.15913C120.698 5.80477 121.402 5.82936 121.713 6.37041C121.897 6.69123 121.872 7.08919 121.677 7.40387C121.469 7.73979 121.175 7.94156 120.618 8.15843C121.196 7.98069 121.656 7.83537 122.007 6.84718C122.465 5.47276 121.236 4.85346 120.239 5.44873C119.615 5.82098 119.148 6.73427 118.435 6.78122C118.404 6.78346 118.378 6.8047 118.372 6.83488L118.372 6.83432Z" fill="white"/>
<path d="M127.267 1.58092C124.85 5.44202 132.704 5.94338 129.839 9.74524C131.279 8.17352 131.016 7.06851 130.238 6.11554C129.356 5.03568 127.23 4.01395 127.057 2.65742C127.456 3.01234 127.983 3.02799 128.393 2.78262C127.769 3.92061 127.601 4.90992 127.713 5.57449C126.98 4.89092 126.374 4.03407 126.642 3.02464C126.946 1.95205 126.611 1.38753 125.628 3.17164C125.973 2.09961 125.249 1.98223 124.632 1.6547C124.562 1.61725 124.474 1.64855 124.444 1.72233L124.138 2.47912L122.994 1.88218C122.889 1.82685 122.759 1.87771 122.718 1.9895L122.509 2.56576C122.493 2.61215 122.48 2.67922 122.468 2.75579C122.411 3.13251 122.53 3.51427 122.791 3.79261C123.082 4.10282 123.502 4.52426 123.908 4.83893C123.958 4.87806 124.032 4.85794 124.055 4.79813L124.248 4.30348C124.266 4.25653 124.251 4.20399 124.211 4.17325C123.942 3.967 122.94 3.17332 122.727 2.57247C123.438 2.98384 124.299 3.07718 124.434 3.93961C124.438 3.96421 124.471 3.96924 124.482 3.94688C124.98 2.98049 124.584 2.93801 124.433 2.39305C125.051 2.70158 125.622 2.77312 125.345 3.83118C125.336 3.86416 125.376 3.88987 125.401 3.86639C125.663 3.62829 125.868 3.06153 126.085 2.8469C126.299 2.63562 126.464 2.59482 126.488 2.91956C126.493 2.99837 126.481 3.07774 126.459 3.15375C125.361 6.88742 131.898 7.74091 130.888 10.3623C132.742 7.45194 127.421 6.99921 127.846 4.40464C127.883 4.17939 127.964 3.96365 128.074 3.76299L128.609 2.78989C128.734 2.5624 128.844 2.32709 128.938 2.08564L129.136 1.57924C128.304 2.42044 127.471 2.37907 127.266 1.57924L127.267 1.58092Z" fill="white"/>
<path d="M131.887 8.78052C131.956 7.42455 130.366 7.55311 130.855 6.22788L131.085 5.52866C131.741 5.84333 132.549 6.02107 132.261 7.19316C132.898 6.47605 134.057 6.31507 133.729 7.70905C133.866 7.68446 134.013 7.53466 134.169 7.26973C134.382 5.33303 128.412 5.21342 129.293 2.48807L129.52 1.77543C130.475 2.88267 131.788 2.3746 133.106 3.69536L133.887 5.51468C131.979 3.04253 131.398 3.9357 129.459 2.60544C130.298 4.95854 135.182 4.61648 134.304 7.22166C134.149 7.90244 133.86 8.3004 133.446 8.46417L133.566 7.80127C133.448 6.89748 132.271 7.56093 131.957 7.99914C132.278 7.2116 132.008 6.62807 131.021 6.2916C131.402 7.15235 132.567 7.28091 131.887 8.78108V8.78052Z" fill="white"/>
<path d="M134.883 5.31291C136.106 3.35553 132.134 4.09611 132.986 2.36286C133 2.33492 133.02 2.30921 133.042 2.28685L133.564 1.76592C133.757 2.49868 136.084 1.04881 138.258 2.64401C135.702 1.92746 135.023 2.79995 133.447 2.54843C133.557 3.10121 134.43 3.23033 135.128 3.59922C135.747 3.9262 135.91 4.56282 134.883 5.31235L134.883 5.31291Z" fill="white"/>
<path d="M135.989 3.80938C135.584 5.43476 137.689 6.65993 136.559 7.6431C135.461 8.14502 135.118 8.04944 134.615 8.5726C133.507 9.71226 133.61 11.5808 131.576 11.607C134.412 12.9977 134.233 8.1657 137.073 8.90013C136.36 9.9526 136.167 11.3684 134.525 11.5478C134.033 10.8972 134.81 9.82964 136.224 10.0309C137.047 10.2013 137.766 12.4393 135.151 12.4404L134.541 12.3364C134.395 13.4454 136.311 13.2609 137.32 15.1121C137.893 16.1623 137.706 16.4474 138.116 17.914C138.29 17.1176 138.283 16.3144 138.116 15.5045C137.126 13.4633 135.337 13.6891 135.252 12.6601C138.539 13.0804 138.059 10.1102 136.361 9.95316C135.168 9.60383 134.397 9.77878 133.905 10.2997C133.439 10.9721 133.686 11.4567 134.562 11.6741C136.578 12.218 137.078 10.0074 137.869 9.0354C137.144 8.65868 136.349 8.57204 135.521 8.6229C136.167 8.02932 137.119 8.28978 137.514 7.51734C137.826 6.18149 136.345 5.56555 136.703 4.02401L135.989 3.8105V3.80938Z" fill="white"/>
<path d="M133.35 12.4544L132.625 12.3035C132.632 13.086 134.917 14.561 134.149 15.0875C134.032 15.1674 133.886 15.1943 133.746 15.1741L133.31 15.1121C133.245 15.1026 133.198 15.1719 133.229 15.23C133.482 15.6928 134.352 16.0612 134.791 16.6671C135.113 17.1114 135.034 17.6189 134.393 17.819L133.836 17.7609C133.741 17.7508 133.668 17.8447 133.702 17.9342C133.958 18.5993 134.256 19.3477 133.955 19.7658C133.701 19.0408 134.828 18.5015 135.706 18.5898C136.487 18.9358 137.443 19.9038 137.786 21.176C138.035 22.0988 138.326 23.5028 138.409 25.3646C138.609 24.6698 138.635 23.6 138.584 22.3637C138.577 22.1904 138.561 22.0177 138.528 21.8472C138.199 20.1017 137.108 18.7206 135.626 18.4786C134.347 18.1628 133.503 18.5562 133.1 19.668C133.065 19.7658 133.125 19.8725 133.227 19.8949L133.686 19.9955C133.836 20.0285 133.99 20.0436 134.143 20.0318C135.503 19.9279 134.29 18.0767 134.464 17.9699C135.801 18.0974 135.948 17.4177 135.461 16.733C135.118 16.2506 133.942 15.6263 133.938 15.315C135.241 15.5799 135.17 14.912 134.699 14.2799C134.224 13.6427 133.359 13.0077 133.35 12.4544H133.35Z" fill="white"/>
<path d="M131.855 23.5067C133.897 24.4122 134.245 22.9634 134.921 21.9696C135.058 22.457 135.287 22.9573 134.941 23.3765C134.848 23.4894 134.72 23.566 134.583 23.6174C132.363 24.4491 132.936 30.9137 130.448 31.3295C130.026 30.8416 129.056 28.9038 131.71 27.6076C131.364 27.6171 131.037 27.6607 130.73 27.7423C130.046 27.9256 129.482 28.4287 129.285 29.1083C128.945 30.2854 129.828 31.2775 130.533 31.5156C133.177 32.2132 133.252 26.0588 134.536 24.4211C134.656 24.2674 134.816 24.1478 134.996 24.0718C135.442 23.8834 135.64 23.7588 135.733 23.4072C135.931 22.6666 134.932 21.1385 136.265 19.8289C136.307 19.7887 136.295 19.7194 136.242 19.6953L135.6 19.3997C135.553 19.3784 135.498 19.3863 135.462 19.422C134.119 20.7338 134.457 23.7113 131.854 23.5067H131.855Z" fill="white"/>
<path d="M136.971 23.2664L136.229 23.0674C136.015 24.2736 137.293 24.7392 137.778 25.743C138.285 26.7921 138.531 27.6283 138.621 28.4482C138.621 27.901 138.659 27.1079 138.56 26.454C138.528 26.2427 138.372 25.7324 138.173 25.4635C137.511 24.5687 136.577 23.9835 136.971 23.2664Z" fill="white"/>
<path d="M136.626 25.3853L135.868 25.1701C135.38 25.2131 136.198 26.1845 135.629 26.6194C135.698 26.0968 135.918 25.7966 136.387 25.8626C137.398 26.5948 138.055 28.527 138.613 30.7913L138.477 28.4119C138.472 28.3113 138.452 28.2118 138.416 28.1173C137.964 26.9179 137.383 25.9358 136.379 25.6636C135.192 25.3545 135.02 25.9476 134.89 26.578C134.879 26.6328 134.912 26.6876 134.965 26.7038L135.32 26.8111C135.528 26.8737 135.745 26.9 135.96 26.8793C137.193 26.7586 135.877 25.5155 136.626 25.3853Z" fill="white"/>
<path d="M136.859 28.2437L136.093 28.0206C135.548 28.0329 136.23 29.1078 135.742 29.6136C135.782 29.1402 135.809 28.6578 136.46 28.6422C137.542 29.6315 138.141 31.6168 138.398 34.3047V31.3994C138.398 31.2099 138.369 31.0215 138.311 30.8416C137.961 29.7595 137.492 28.8272 136.579 28.4594L135.813 28.3001C135.009 28.3962 134.802 29.4482 135.438 29.7578L135.932 29.869C137.25 30.0837 136.092 28.1788 136.858 28.2442L136.859 28.2437Z" fill="white"/>
<path d="M136.682 30.6415L136.045 30.4341C136.012 30.4235 135.977 30.4425 135.969 30.4755C135.583 32.0679 137.153 32.8901 137.746 34.1773C138.149 35.0548 138.159 35.8815 138.066 37.8349C138.47 36.9742 138.626 35.5601 138.553 34.9391C138.343 33.1365 135.992 31.6336 136.708 30.7343C136.734 30.7018 136.721 30.6543 136.681 30.6415H136.682Z" fill="white"/>
<path d="M136.198 33.3255L135.711 33.0734C135.658 33.046 135.593 33.0734 135.576 33.1304C135.122 34.6004 136.542 35.4801 137.264 37.7511C137.367 38.0747 137.603 39.3049 137.705 40.9191C137.977 39.6369 137.928 38.9947 137.847 37.9976C137.733 36.5969 135.733 34.8262 136.244 33.44C136.26 33.3959 136.24 33.3467 136.198 33.3249V33.3255Z" fill="white"/>
<path d="M135.118 34.44L134.4 34.1532C134.266 35.2683 135.57 36.228 136.038 37.5516C136.431 38.6649 136.295 39.2731 135.58 39.4307C135.141 39.5274 134.695 39.3893 134.324 39.1344C133.583 38.6247 133.092 37.8959 133.092 37.8959C133.092 37.8959 133.688 38.8796 134.453 39.3362C134.83 39.5609 135.251 39.7074 135.688 39.7465C137.12 39.875 137.141 38.7449 136.644 37.5862C136.087 36.285 134.929 35.4975 135.118 34.4394L135.118 34.44Z" fill="white"/>
<path d="M137.635 31.5352C135.652 30.3385 133.091 37.8964 129.177 34.5529C132.274 36.4521 131.991 30.3111 134.766 32.2501C133.631 31.9427 132.998 33.1919 132.158 34.554C134.149 33.2986 135.832 30.1351 137.635 31.5352H137.635Z" fill="white"/>
<path d="M111.346 6.17087L111.273 6.85947L112.096 7.02883L112.163 6.31004L111.346 6.17087Z" fill="white"/>
<path d="M108.761 5.70584L108.688 6.39444L109.511 6.56324L109.578 5.84445L108.761 5.70584Z" fill="white"/>
<path d="M112.379 4.97923L112.021 5.57225L112.695 6.07306L113.06 5.4504L112.379 4.97923Z" fill="white"/>
<path d="M117.894 3.96309L117.524 4.54885L118.187 5.06362L118.565 4.44824L117.894 3.96309Z" fill="white"/>
<path d="M120.312 6.55877L119.942 7.14453L120.605 7.65931L120.983 7.04392L120.312 6.55877Z" fill="white"/>
<path d="M118.904 3.6512L118.534 4.23696L119.197 4.7523L119.575 4.13636L118.904 3.6512Z" fill="white"/>
<path d="M131.33 1.58063L130.819 2.09086L131.404 2.675L131.915 2.16477L131.33 1.58063Z" fill="white"/>
<path d="M132.399 1.65253L131.888 2.16276L132.473 2.74691L132.984 2.23667L132.399 1.65253Z" fill="white"/>
<path d="M137.586 3.97162L136.996 4.5609L137.581 5.14504L138.171 4.55576L137.586 3.97162Z" fill="white"/>
<path d="M136.241 15.7335L135.65 16.3228L136.236 16.9069L136.826 16.3177L136.241 15.7335Z" fill="white"/>
<path d="M138.18 18.9046L137.873 19.2108L138.177 19.5144L138.484 19.2081L138.18 18.9046Z" fill="white"/>
<path d="M138.176 18.248L137.869 18.5543L138.173 18.8579L138.48 18.5516L138.176 18.248Z" fill="white"/>
<path d="M136.12 14.5802L135.53 15.1695L136.115 15.7536L136.705 15.1643L136.12 14.5802Z" fill="white"/>
<path d="M131.897 12.4459L131.307 13.0352L131.892 13.6194L132.483 13.0301L131.897 12.4459Z" fill="white"/>
<path d="M136.323 21.8149L136.025 22.4724L136.779 22.8127L137.077 22.1552L136.323 21.8149Z" fill="white"/>
<path d="M135.9 20.708L135.602 21.3655L136.356 21.7058L136.654 21.0483L135.9 20.708Z" fill="white"/>
<path d="M134.799 29.894L134.307 30.4224L134.913 30.9849L135.405 30.4565L134.799 29.894Z" fill="white"/>
<path d="M134.517 37.2784L133.996 37.7791L134.57 38.374L135.091 37.8733L134.517 37.2784Z" fill="white"/>
<path d="M134.568 36.2124L134.047 36.7131L134.621 37.3079L135.142 36.8072L134.568 36.2124Z" fill="white"/>
<path d="M136.777 21.0975L136.479 21.755L137.233 22.0954L137.531 21.4379L136.777 21.0975Z" fill="white"/>
<path d="M129.729 35.6299C129.303 35.1219 128.857 35.1677 128.716 35.4561C129.753 36.5466 132.256 35.4231 132.758 37.456C132.87 37.9417 132.859 38.4257 132.59 38.9047L132.424 38.3313C132.148 37.4716 131.155 37.1609 130.066 36.9228C130.166 37.0284 130.237 37.2307 130.291 37.4934C130.291 37.4934 129.989 36.9295 129.427 36.9082L129.346 36.4242C130.655 36.6958 132.12 36.7199 132.531 38.3955C132.639 38.234 132.692 37.9154 132.707 37.4862C131.718 35.7216 129.162 37.1502 128.631 35.4952C128.391 34.7753 129.347 34.3595 129.73 35.6299H129.729Z" fill="white"/>
<path d="M132.572 22.3084L132.12 22.1407C132.722 21.5309 133.398 21.1659 134.269 21.4543C133.967 21.0737 133.644 20.7797 133.276 20.5718C131.727 19.6803 131.574 21.6796 130.287 21.7047C130.21 21.2033 130.566 20.735 131.345 20.8658L130.488 20.6752C129.961 20.7786 129.487 21.4353 130.205 21.7863C131.622 22.3838 132.043 20.1615 133.218 20.626C133.484 20.8233 133.718 21.0217 133.824 21.2223C132.54 20.8982 131.83 21.8321 131.064 22.6437L131.539 22.8868C131.847 22.4509 132.188 22.229 132.571 22.3078L132.572 22.3084Z" fill="white"/>
<path d="M132.94 17.6027L132.533 17.4518C133.075 16.9024 133.684 16.5743 134.468 16.8342C134.195 16.4915 133.905 16.2266 133.574 16.0399C132.179 15.2373 132.041 17.0371 130.883 17.06C130.814 16.6089 131.134 16.1869 131.835 16.3049L131.064 16.1333C130.59 16.2261 130.163 16.8174 130.809 17.1338C132.085 17.672 132.464 15.671 133.522 16.0891C133.761 16.2669 133.972 16.4452 134.067 16.6262C132.911 16.3345 132.272 17.1751 131.582 17.9056L132.01 18.1247C132.288 17.7324 132.594 17.5323 132.94 17.6033V17.6027Z" fill="white"/>
<path d="M117.647 8.76543L117.383 9.35622C116.8 8.85039 116.378 8.20314 116.589 7.40555C114.982 9.28188 116.421 9.72567 116.601 10.3712C115.916 10.7938 115.104 10.1454 115.393 9.14718L115.261 9.73071C115.143 10.2494 115.478 10.7759 116.004 10.8592C116.271 10.9017 116.528 10.8201 116.638 10.5546C117.138 9.61277 116.124 9.4708 115.994 8.75481C115.963 8.58266 116.003 8.40548 116.095 8.25624C116.175 8.12657 116.287 7.97901 116.388 7.91753C116.245 8.86939 117.147 9.69158 117.867 10.2885L118.04 9.8587C117.63 9.60662 117.506 9.12482 117.646 8.76655L117.647 8.76543Z" fill="white"/>
<path d="M133.049 9.29194L132.606 9.19525C132.606 9.19525 132.841 8.75257 133.281 8.92193C133.722 9.09129 133.808 9.10861 133.666 9.40261C133.524 9.69661 132.824 9.64128 132.824 9.64128C132.824 9.64128 132.339 9.58594 132.152 10.1186C131.965 10.6513 131.634 11.6143 130.127 11.1783C130.127 11.1783 131.235 11.488 131.727 9.9649C131.91 9.39814 132.534 9.50154 132.534 9.50154C132.534 9.50154 133.388 9.56023 133.269 9.05216L133.049 9.29194Z" fill="white"/>
<path d="M135.611 5.88134C136.051 6.0507 136.527 6.38773 136.385 6.68173C136.26 6.94052 135.965 6.7108 135.896 6.65155C135.883 6.64037 135.868 6.63143 135.851 6.62696C135.776 6.60684 135.582 6.60684 135.492 7.09255C135.372 7.73588 135.045 7.79848 134.413 7.58161C134.413 7.58161 134.889 7.77109 135.048 6.96791C135.191 6.24297 135.702 6.43301 135.848 6.50399C135.881 6.5202 135.922 6.51182 135.945 6.48275C136.002 6.41456 136.027 6.24856 135.61 5.88078L135.611 5.88134Z" fill="white"/>
<path d="M103.819 3.10457C104.227 2.86926 104.789 2.70996 104.929 3.00508C105.052 3.26442 104.689 3.34938 104.599 3.36615C104.582 3.3695 104.565 3.37565 104.551 3.38627C104.488 3.4321 104.366 3.58246 104.689 3.95806C105.115 4.45495 104.958 4.74839 104.393 5.10387C104.393 5.10387 104.84 4.85291 104.313 4.22523C103.838 3.65847 104.306 3.38068 104.453 3.31193C104.487 3.29628 104.505 3.25939 104.498 3.22306C104.481 3.13643 104.367 3.01234 103.819 3.10569V3.10457Z" fill="white"/>
<path d="M97.4094 1.82126C97.8181 1.58595 98.3796 1.42665 98.5196 1.72177C98.6428 1.98111 98.2789 2.06607 98.1893 2.08284C98.1719 2.08619 98.1557 2.09234 98.1411 2.10296C98.0779 2.14879 97.9564 2.29915 98.2789 2.67475C98.7055 3.17164 98.5487 3.46508 97.9833 3.82056C97.9833 3.82056 98.43 3.5696 97.9032 2.94192C97.4279 2.37516 97.8965 2.09737 98.0437 2.02862C98.0773 2.01297 98.0958 1.97608 98.0885 1.93975C98.0712 1.85312 97.957 1.72904 97.4094 1.82238V1.82126Z" fill="white"/>
<path d="M136.446 26.9173C136.685 27.2404 136.849 27.6942 136.556 27.825C136.298 27.9402 136.21 27.645 136.193 27.5724C136.189 27.5584 136.183 27.545 136.172 27.5338C136.126 27.4841 135.975 27.3924 135.603 27.6775C135.111 28.0547 134.817 27.9413 134.457 27.4947C134.457 27.4947 134.711 27.8485 135.333 27.3823C135.894 26.9615 136.176 27.332 136.246 27.4494C136.262 27.4762 136.299 27.4897 136.335 27.4818C136.422 27.4628 136.544 27.3628 136.446 26.9167V26.9173Z" fill="white"/>
<path d="M135.71 3.67859C135.716 3.68865 135.728 3.69201 135.738 3.68586C135.8 3.64729 136.008 3.52489 136.005 3.51818C135.993 3.49638 135.98 3.47458 135.968 3.45222C136.029 3.41869 136.092 3.38795 136.145 3.34379C136.502 3.03861 136.149 2.53669 136.149 2.53669C136.149 2.53669 135.957 2.66301 135.886 2.7094C135.868 2.72114 135.852 2.734 135.836 2.74853C135.411 3.14872 135.553 3.39968 135.71 3.67803L135.71 3.67859ZM135.953 3.42707C135.857 3.25604 135.776 3.07606 135.902 2.84131C135.984 3.02799 136.118 3.213 135.953 3.42707Z" fill="white"/>
<path d="M119.506 9.1986C119.516 9.20419 119.528 9.20084 119.533 9.19078C119.566 9.12538 119.681 8.91299 119.675 8.90964C119.653 8.89734 119.631 8.88504 119.609 8.87275C119.644 8.81238 119.683 8.75314 119.704 8.6883C119.852 8.24227 119.289 7.99522 119.289 7.99522C119.289 7.99522 119.191 8.20203 119.154 8.27916C119.145 8.29817 119.137 8.31773 119.131 8.33785C118.975 8.90013 119.227 9.04099 119.505 9.1986H119.506ZM119.583 8.85766C119.412 8.76096 119.25 8.64862 119.236 8.38368C119.403 8.5005 119.614 8.58937 119.583 8.85766Z" fill="white"/>
<path d="M138.063 3.02632C138.305 3.74231 137.215 3.78088 136.717 3.25436C136.672 3.20741 137.054 3.74678 137.63 3.81497C138.206 3.88316 138.354 3.53662 138.251 3.23256C138.239 3.19679 138.114 3.07998 138.091 3.05538C138.084 3.04812 138.066 3.0347 138.063 3.02576L138.063 3.02632Z" fill="white"/>
<path d="M137.304 1.9554C137.304 1.9554 137.645 2.20077 138.298 1.7676C138.18 2.38578 138.449 2.3746 138.594 2.39249C138.637 2.39808 138.692 2.39416 138.733 2.40814C138.423 2.2997 138.576 1.85647 138.608 1.62451C138.592 1.62228 138.33 1.58986 138.33 1.58986C137.89 1.91572 137.304 1.95484 137.303 1.95484L137.304 1.9554Z" fill="white"/>
<path d="M124.269 9.62228C124.306 8.24116 121.942 8.19588 122.391 6.14851C122.424 7.84096 124.737 7.87226 124.269 9.62228Z" fill="white"/>
<path d="M130.554 33.2444C131.933 33.127 131.714 30.7767 133.802 30.9942C132.121 31.2155 132.348 33.5138 130.554 33.2444Z" fill="white"/>
<path d="M127.325 9.34951C127.194 9.76704 127.371 10.0744 127.8 10.2919C127.849 10.3165 127.867 10.3768 127.839 10.4238L127.705 10.6541C127.642 10.7619 127.517 10.8201 127.395 10.7944C126.877 10.6854 125.473 10.3852 124.377 10.3131C122.71 10.203 118.729 11.422 119.271 10.1018C119.49 9.0203 122.286 9.12874 123.059 9.19301C122.549 9.36013 119.841 9.52837 119.448 10.0448C119.728 10.9984 122.531 9.17345 127.045 10.2321C126.969 9.89671 127.117 9.61557 127.325 9.34951Z" fill="white"/>
<path d="M130.86 19.7591C130.436 19.6445 130.136 19.8345 129.935 20.2705C129.912 20.3202 129.853 20.3404 129.805 20.3152L129.569 20.19C129.458 20.1313 129.395 20.0089 129.416 19.8859C129.504 19.365 129.749 17.9532 129.777 16.856C129.821 15.1898 128.605 10.7781 129.948 11.2661C130.599 11.5103 130.707 12.1755 130.673 12.9496C130.485 12.4471 130.276 11.9385 129.965 11.4014C129.022 11.7183 130.844 14.9696 129.965 19.5148C130.297 19.4259 130.585 19.5623 130.86 19.7591Z" fill="white"/>
<path d="M130.837 27.3812C130.413 27.2666 130.113 27.4567 129.912 27.8926C129.889 27.9424 129.83 27.9625 129.782 27.9374L129.546 27.8122C129.435 27.7535 129.372 27.6311 129.393 27.5081C129.481 26.9872 129.726 25.5753 129.754 24.4781C129.798 22.812 128.747 21.7109 130.089 22.1988C130.741 22.4431 130.641 23.4335 130.607 24.2076C130.419 23.7051 130.213 22.8628 129.902 22.3251C129.501 23.073 130.65 23.5285 129.941 27.137C130.274 27.0481 130.561 27.1845 130.836 27.3812H130.837Z" fill="white"/>
<path d="M125.289 5.60411C125.387 5.3375 125.474 5.0843 125.5 4.89315C125.504 4.86856 125.498 4.84285 125.484 4.82161C125.382 4.65505 125.202 4.73497 124.982 4.93954L125.093 4.52034C125.104 4.48066 125.125 4.44377 125.153 4.41415C125.523 4.02736 125.73 4.31354 125.612 4.73274C125.542 5.015 125.426 5.30732 125.288 5.60411H125.289Z" fill="white"/>
<path d="M115.083 9.22487C115.181 8.95826 115.268 8.70506 115.294 8.51391C115.298 8.48932 115.292 8.46361 115.279 8.44237C115.176 8.27581 114.996 8.35573 114.776 8.5603L114.887 8.1411C114.898 8.10142 114.919 8.06453 114.947 8.03491C115.317 7.64812 115.524 7.9343 115.406 8.3535C115.336 8.63576 115.22 8.92808 115.082 9.22487H115.083Z" fill="white"/>
<path d="M112.895 3.04476C112.993 2.77815 113.08 2.52496 113.106 2.3338C113.11 2.30921 113.104 2.2835 113.091 2.26226C112.988 2.0957 112.808 2.17562 112.588 2.38019L112.699 1.96099C112.71 1.92131 112.731 1.88442 112.759 1.8548C113.129 1.46802 113.336 1.75419 113.218 2.17339C113.148 2.45565 113.032 2.74797 112.894 3.04476H112.895Z" fill="white"/>
<path d="M134.577 6.31619C134.825 6.17646 135.055 6.03896 135.199 5.91041C135.217 5.89364 135.23 5.87072 135.234 5.84557C135.263 5.65218 135.074 5.59685 134.774 5.61138L135.13 5.36321C135.164 5.33974 135.203 5.32521 135.244 5.32073C135.777 5.26428 135.749 5.61641 135.388 5.8601C135.151 6.03002 134.874 6.17814 134.577 6.31563V6.31619Z" fill="white"/>
<path d="M136.527 13.1648C136.872 13.3129 137.202 13.4443 137.453 13.4918C137.485 13.4979 137.519 13.4918 137.549 13.4761C137.775 13.352 137.794 13.1447 137.538 12.8423L137.973 12.9815C138.025 12.9982 138.072 13.0278 138.109 13.0675C138.596 13.5806 138.203 13.8338 137.657 13.6511C137.288 13.5393 136.91 13.3671 136.527 13.1653V13.1648Z" fill="white"/>
<path d="M131.242 14.2687C131.587 14.4168 131.917 14.5481 132.168 14.5957C132.2 14.6018 132.235 14.5957 132.264 14.58C132.49 14.4559 132.509 14.2486 132.253 13.9462L132.688 14.0853C132.74 14.1021 132.787 14.1317 132.824 14.1714C133.311 14.6845 132.918 14.9377 132.372 14.7549C132.003 14.6432 131.625 14.471 131.242 14.2692V14.2687Z" fill="white"/>
<path d="M105.506 4.21349C105.7 3.8921 105.876 3.58413 105.958 3.34267C105.968 3.31137 105.967 3.27672 105.955 3.24598C105.864 3.00452 105.66 2.95813 105.325 3.1694L105.523 2.75803C105.546 2.70884 105.582 2.66692 105.626 2.63506C106.202 2.22425 106.399 2.64736 106.143 3.1627C105.981 3.51203 105.758 3.86248 105.506 4.21349Z" fill="white"/>
<path d="M130.729 19.1275C131.074 19.2756 131.404 19.4069 131.655 19.4544C131.687 19.4606 131.721 19.4544 131.75 19.4388C131.977 19.3147 131.995 19.1074 131.74 18.805L132.175 18.9441C132.227 18.9609 132.274 18.9905 132.311 19.0302C132.797 19.5433 132.405 19.7965 131.858 19.6137C131.49 19.502 131.111 19.3298 130.729 19.128V19.1275Z" fill="white"/>
<path d="M132.765 30.3749C133.044 30.4078 133.307 30.4324 133.496 30.4134C133.521 30.4112 133.544 30.3995 133.561 30.3821C133.697 30.2457 133.667 30.0937 133.42 29.9311L133.76 29.9389C133.8 29.94 133.841 29.9512 133.875 29.9713C134.332 30.2357 134.104 30.4995 133.676 30.4839C133.388 30.4816 133.082 30.438 132.765 30.3749Z" fill="white"/>
<path d="M117.124 5.86178L117.316 5.48226C117.257 5.40681 116.54 4.89091 116.822 4.13468C116.03 5.20559 117.124 5.86178 117.124 5.86178Z" fill="white"/>
<path d="M138.096 6.91816C137.81 6.80973 137.626 6.5325 137.633 6.22788C137.643 5.77962 137.69 5.43755 137.8 5.27825C137.844 5.21565 137.926 5.19274 137.996 5.22124L138.367 5.37104C138.415 5.39004 138.451 5.43028 138.465 5.48003L138.51 5.64547C138.539 5.74776 138.557 5.85228 138.565 5.95792C138.597 6.37823 138.569 6.92822 138.467 7.38543C138.465 7.39884 138.445 7.39828 138.442 7.38543L138.121 5.86513C138.041 6.25583 138.021 6.6141 138.095 6.91928L138.096 6.91816Z" fill="white"/>
<path d="M138.107 10.7742C137.887 10.6842 137.748 10.4651 137.76 10.2276C137.776 9.87882 137.819 9.61277 137.908 9.49092C137.943 9.44286 138.008 9.42665 138.063 9.45012L138.349 9.57365C138.386 9.5893 138.412 9.62171 138.423 9.66028L138.455 9.78995C138.475 9.86988 138.487 9.95204 138.492 10.0342C138.509 10.3623 138.476 10.7904 138.389 11.1448C138.386 11.1554 138.371 11.1543 138.369 11.1437L138.148 9.9526C138.079 10.2555 138.055 10.5345 138.108 10.7737L138.107 10.7742Z" fill="white"/>
<path d="M108.997 2.16389C110.054 2.04651 110.878 1.82964 110.981 2.40758C110.833 1.57868 111.071 1.49261 108.957 1.72792C108.957 1.72792 108.991 2.16444 108.997 2.16389Z" fill="white"/>
<path d="M108.151 10.3634C107.263 10.454 106.578 10.6317 106.459 10.1354C106.63 10.8469 106.433 10.919 108.209 10.7373C108.209 10.7373 108.156 10.3629 108.151 10.3634Z" fill="white"/>
<path d="M136.259 17.0315L136.541 17.2226C136.563 17.2377 136.582 17.2578 136.594 17.2819C136.749 17.5859 136.878 18.1482 137.232 18.4886C137.701 18.6367 137.094 17.0628 137.228 15.9164C137.525 16.7297 137.724 17.653 137.772 18.5507C137.781 18.7183 137.593 18.8234 137.454 18.7295L137.287 18.616C136.508 18.0661 136.498 17.5792 136.232 17.0561C136.223 17.0387 136.242 17.0214 136.259 17.032V17.0315Z" fill="white"/>
<path d="M112.063 9.31263C111.975 10.1281 113.005 10.0918 113.902 10.1566C113.953 10.16 113.984 10.2136 113.962 10.2589L113.834 10.5367C113.821 10.563 113.794 10.5792 113.766 10.5786L110.688 10.4791C110.833 10.5959 110.895 10.7798 110.541 11.2991C110.601 10.9061 110.53 10.4333 108.982 10.7418L109.138 10.4299C109.185 10.3366 109.262 10.2623 109.359 10.2214C109.986 9.9554 110.971 10.0828 111.852 10.0968C111.744 9.8833 111.79 9.62842 112.063 9.31263H112.063Z" fill="white"/>
<path d="M129.561 34.2661L129.777 34.1309C129.835 34.0946 129.87 34.0314 129.87 33.9632L129.857 32.0718L130.284 33.696C130.292 33.7279 130.339 33.7234 130.342 33.6904C130.389 32.9739 130.375 32.2959 130.205 31.7174C130.196 31.5682 130.029 31.4843 129.904 31.5665L129.786 31.6436C129.557 31.794 129.421 32.0511 129.426 32.325L129.466 34.2153C129.467 34.2639 129.52 34.2924 129.561 34.2667V34.2661Z" fill="white"/>
<path d="M134.624 29.7796L134.235 29.5996C134.192 29.5795 134.157 29.546 134.137 29.5029C133.817 28.8071 133.874 27.8977 133.644 27.6473L134.019 27.7479C134.086 27.7658 134.139 27.8172 134.161 27.8837C134.445 28.7601 134.253 29.2956 134.624 29.7807V29.7796Z" fill="white"/>
<path d="M131.853 25.2785C131.669 25.1326 131.472 25.1321 131.353 24.2255C131.739 25.0851 131.936 26.1437 132.051 27.2884C132.138 26.7765 132.182 26.236 132.167 25.6552C132.162 25.4747 132.132 25.2947 132.074 25.1237C131.894 24.5921 131.599 23.9594 131.277 23.3027C131.269 23.2865 131.254 23.2742 131.237 23.2697L130.91 23.1758C130.864 23.1624 130.822 23.2032 130.83 23.2496C131.026 24.2439 130.794 25.2802 131.853 25.278V25.2785Z" fill="white"/>
<path d="M130.389 29.84L130.788 30.0121C130.89 29.9059 131.165 28.7243 131.947 28.7009C131.043 28.1961 130.657 29.3475 130.389 29.8394V29.84Z" fill="white"/>
<path d="M136.722 39.8543L136.369 40.1075C136.408 40.2501 137.282 41.0924 136.9 41.7737C137.798 41.2584 137.007 40.3367 136.722 39.8543Z" fill="white"/>
</g>
<rect x="108.405" y="12.5629" width="19.0846" height="19.0846" fill="white"/>
<rect x="108.405" y="12.5629" width="19.0846" height="19.0846" stroke="#C59714" stroke-width="0.673572"/>
<g clip-path="url(#clip2_673_1967)">
<path d="M125.934 21.0238L125.861 20.5152C124.634 19.6245 122.16 20.9791 122.481 17.593L122.504 16.2946C124.738 17.0352 126.249 17.9668 125.841 20.3368C125.562 18.8927 124.186 18.2164 122.578 17.7027C123.038 19.6913 126.689 17.46 126.087 21.1896L126.047 22.0973C124.873 24.1212 121.217 23.5363 121.485 20.7749C120.8 21.1625 120.317 22.0802 119.746 22.4666C118.941 23.0125 118.232 22.831 118.347 20.8669L118.407 19.5445C120.388 19.3554 120.923 20.4011 120.811 21.9983C120.599 24.7894 119.352 26.9803 116.687 28.3532C115.56 28.853 114.285 28.9936 112.971 29.0358C116.118 27.5212 119.546 26.4004 120.655 22.0235C120.379 21.114 119.55 20.8524 118.455 20.899C119.347 22.5341 120.873 19.3995 121.626 19.3982L121.63 20.4584C122.006 22.1546 124.665 22.4925 125.935 21.0232L125.934 21.0238Z" fill="#5064BA"/>
<path d="M123.208 16.1029L124.304 15.2949L123.177 14.0109L122.097 14.8265L123.208 16.1029Z" fill="#5064BA"/>
<path d="M110.46 15.8647L111.539 15.0402L110.55 13.8937L109.485 14.7244L110.46 15.8647Z" fill="#5064BA"/>
<path d="M110.465 17.7998L111.544 16.9759L110.555 15.8294L109.49 16.6595L110.465 17.7998Z" fill="#5064BA"/>
<path d="M125.359 24.8183L126.267 24.125L125.436 23.1612L124.54 23.8596L125.359 24.8183Z" fill="#5064BA"/>
<path d="M123.962 14.7912L125.137 16.1067L126.209 15.2911L125.023 13.9718L123.962 14.7912Z" fill="#5064BA"/>
<path d="M123.901 23.6018L123.288 24.4364C123.256 24.4805 123.255 24.5404 123.286 24.5851C123.621 25.0604 124.413 26.1773 123.335 27.4613C122.971 26.1723 121.975 25.2753 122.58 24.0878C120.232 26.1351 122.688 27.3529 122.511 28.9873C121.527 27.2142 120.479 26.6627 120.969 25.5508C118.911 27.5142 120.712 27.9977 120.143 29.2589C119.546 28.5486 119.165 27.7544 119.541 26.6671L118.975 27.344C118.934 27.3932 118.882 27.4316 118.824 27.4581C117.916 27.8666 117.02 27.1404 116.755 25.9548C118.717 23.0238 115.79 16.507 120.762 13.8893C113.379 15.7197 118.635 25.4008 114.39 27.3661C115.644 26.0097 114.105 24.328 115.419 23.1896L115.852 22.9583C115.967 22.8971 116.048 22.7868 116.07 22.6595C116.424 20.5713 114.9 19.5319 113.839 19.6346L112.448 20.2183C109.846 21.6327 112.589 26.6532 111.359 29.1783C111.409 27.9176 110.633 25.8609 110.636 23.1064C110.639 20.5952 110.562 18.2819 111.891 17.1228C109.289 18.05 109.532 19.8533 109.508 22.0828C109.453 27.1493 110.628 29.1902 109.879 30.3235L111.31 29.7071C114.731 28.4956 111.295 21.912 113.146 20.1805C114.493 20.6917 115.258 22.0443 114.779 23.3138C112.521 24.142 114.462 26.5984 113.095 27.8817L114.39 27.5426L115.905 26.8429C116.474 28.5492 117.581 29.2797 118.637 27.9882C118.414 28.8852 118.727 29.6453 119.366 30.3217C119.39 30.3475 119.433 30.3456 119.455 30.3172L120.786 28.6242L121.669 30.0468C121.741 30.1622 121.907 30.171 121.99 30.0639L122.686 29.1694C123.234 28.4824 123.366 28.0033 123.355 27.5962C125.411 24.9394 124.717 24.6595 124.117 23.6157C124.071 23.5344 123.956 23.5275 123.901 23.6025V23.6018Z" fill="#5064BA"/>
<path d="M126.038 29.3289C125.475 29.7544 124.488 29.8508 124.483 29.0314L125.101 28.3116C126.241 26.853 124.613 26.9053 125.26 25.3031C123.889 27.2419 125.294 27.2079 124.98 28.2687L124.309 29.0799C123.47 30.3444 124.84 30.6923 125.637 29.9775L126.038 29.3295V29.3289Z" fill="#5064BA"/>
<path d="M115.652 29.2413L115.433 29.6598C116.146 29.4487 116.764 29.4398 117.232 29.7537C116.091 30.0097 114.032 30.2025 111.889 30.3897C114.398 30.4282 115.458 30.7749 117.126 30.3935C117.354 30.3412 117.536 30.1685 117.647 29.9643L117.889 29.523C117.974 29.3667 117.921 29.1713 117.768 29.0793C117.319 28.8089 116.797 28.7074 116.169 28.8442C115.946 28.8927 115.758 29.0402 115.652 29.2413H115.652Z" fill="#5064BA"/>
<path d="M112.063 16.7982L112.905 15.7575C113.265 16.9476 112.907 17.8281 112.485 18.6816C112.427 18.7982 112.343 18.8997 112.239 18.9784L111.709 19.3762C111.636 19.431 111.571 19.4966 111.518 19.5709L111.104 20.1445C112.864 18.9142 114.2 19.4247 115.039 18.2624C116.305 16.8354 115.355 15.876 115.71 14.5183C116.971 14.1817 117.288 15.085 116.207 16.2132C118.645 14.0468 116.782 13.1417 115.743 14.2876C114.386 15.6882 115.723 17.1089 114.956 18.13C114.327 18.6772 112.96 18.6488 112.398 19.0434C114.152 16.5725 113.574 15.3113 113.048 14.0223C113.023 13.9617 112.943 13.9498 112.901 13.9996L112.441 14.5505C112.424 14.5713 112.417 14.599 112.424 14.6255C112.574 15.2476 112.717 15.8722 112.063 16.7982H112.063Z" fill="#5064BA"/>
<path d="M119.676 18.1023L119.937 17.3648C119.937 17.3648 120.742 18.2927 120.698 19.2028C120.695 19.2715 120.679 19.3396 120.652 19.4033L120.435 19.9151C120.421 19.9473 120.459 19.9775 120.488 19.9567C120.66 19.8306 121.029 19.501 121.357 18.8165C122.559 16.6917 120.679 15.5653 120.859 14.6494C120.859 14.6494 121.769 14.3292 121.455 16.1414C121.455 16.1414 121.524 16.0658 121.61 15.9214C121.834 15.5464 121.916 15.1058 121.86 14.6734C121.795 14.1729 121.616 13.5048 121.117 13.9712C121.019 14.0626 120.941 14.1729 120.88 14.292C120.748 14.5473 120.492 15.0799 120.484 15.3957C120.456 16.4433 121.752 17.2249 121.28 18.703L120.919 19.0995C121.482 17.8092 120.138 16.3091 119.444 15.6504C119.41 15.6182 119.355 15.6239 119.329 15.663C119.164 15.9132 119.025 16.1773 118.917 16.4578C118.906 16.4881 118.915 16.5227 118.941 16.5429C119.434 16.9413 119.72 17.4411 119.676 18.1029V18.1023Z" fill="#5064BA"/>
</g>
<defs>
<clipPath id="clip0_673_1967">
<rect width="88.0252" height="37.6953" fill="white" transform="translate(0 3.39746)"/>
</clipPath>
<clipPath id="clip1_673_1967">
<rect width="41.4761" height="41.2363" fill="white" transform="translate(97.2577 1.56136)"/>
</clipPath>
<clipPath id="clip2_673_1967">
<rect width="16.7822" height="16.7822" fill="white" transform="translate(109.485 13.7884)"/>
</clipPath>
</defs>
</svg>
