<svg width="140" height="41" viewBox="0 0 140 41" fill="none" xmlns="http://www.w3.org/2000/svg">
<path d="M12.8 6.544H7.728V16H5.36V6.544H0.288V4.512H12.8V6.544ZM20.0145 4.336C23.9345 4.336 26.7985 6.848 26.7985 10.256C26.7985 13.664 23.9345 16.176 20.0145 16.176C16.0785 16.176 13.2305 13.664 13.2305 10.256C13.2305 6.848 16.0785 4.336 20.0145 4.336ZM20.0145 6.4C17.4385 6.4 15.6465 7.936 15.6465 10.256C15.6465 12.576 17.4385 14.112 20.0145 14.112C22.5905 14.112 24.3825 12.576 24.3825 10.256C24.3825 7.936 22.5905 6.4 20.0145 6.4ZM34.5514 16.16C30.5194 16.16 28.6474 13.92 28.6474 10.576V4.512H30.9994V10.448C30.9994 12.608 31.9274 14.096 34.5514 14.096C37.1594 14.096 38.0874 12.608 38.0874 10.448V4.512H40.4554V10.576C40.4554 13.92 38.5674 16.16 34.5514 16.16ZM45.3069 11.728V16H42.9549V4.512H50.1709C52.7789 4.512 54.5389 5.76 54.5389 8.128C54.5389 9.888 53.5149 11.056 51.8829 11.504L54.8109 16H52.1069L49.4029 11.728H45.3069ZM45.3069 9.76H50.0429C51.4189 9.76 52.2029 9.168 52.2029 8.144C52.2029 7.104 51.4189 6.512 50.0429 6.512H45.3069V9.76ZM59.0288 4.512V16H56.6768V4.512H59.0288ZM60.6361 13.504L62.2201 11.856C63.5321 13.616 65.6121 14.16 67.3081 14.16C69.2281 14.16 70.5881 13.584 70.5881 12.656C70.5881 11.568 69.6441 11.472 66.4121 11.12C63.5961 10.8 61.4361 10.272 61.4361 8C61.4361 5.824 63.5641 4.336 66.8281 4.336C69.3881 4.336 71.6921 5.248 72.7321 6.624L71.1641 8.128C70.2841 6.992 68.6521 6.336 66.7001 6.336C64.6521 6.336 63.7241 6.992 63.7241 7.76C63.7241 8.592 64.4921 8.784 67.4041 9.12C70.6681 9.488 72.9721 9.92 72.9721 12.4C72.9721 14.912 70.4601 16.176 67.2121 16.176C64.4761 16.176 61.7561 15.12 60.6361 13.504ZM86.5688 6.544H81.4968V16H79.1288V6.544H74.0568V4.512H86.5688V6.544ZM101.128 16H98.4398L92.6318 4.512H95.1918L99.8158 13.68L104.424 4.512H106.936L101.128 16ZM110.997 4.512V16H108.645V4.512H110.997ZM112.605 13.504L114.189 11.856C115.501 13.616 117.581 14.16 119.277 14.16C121.197 14.16 122.557 13.584 122.557 12.656C122.557 11.568 121.613 11.472 118.381 11.12C115.565 10.8 113.405 10.272 113.405 8C113.405 5.824 115.533 4.336 118.797 4.336C121.357 4.336 123.661 5.248 124.701 6.624L123.133 8.128C122.253 6.992 120.621 6.336 118.669 6.336C116.621 6.336 115.693 6.992 115.693 7.76C115.693 8.592 116.461 8.784 119.373 9.12C122.637 9.488 124.941 9.92 124.941 12.4C124.941 14.912 122.429 16.176 119.181 16.176C116.445 16.176 113.725 15.12 112.605 13.504ZM131.402 4.512H134.042L139.834 16H137.29L135.962 13.328H129.466L128.122 16H125.61L131.402 4.512ZM132.714 6.832L130.458 11.328H134.954L132.714 6.832Z" fill="black"/>
<path d="M125.708 34.3359H126.508C127.042 34.3359 127.413 34.2005 127.622 33.9297C127.847 33.6432 127.96 33.1172 127.96 32.3516V29.4375H130.078V32.3984C130.078 33.1693 130.144 33.6927 130.275 33.9688C130.426 34.2969 130.73 34.4609 131.185 34.4609C132.043 34.4609 132.472 33.7786 132.472 32.4141V28.7969H134.512V32.8125C134.512 33.4375 134.642 33.849 134.904 34.0469C135.155 34.2396 135.657 34.3359 136.41 34.3359H136.826C136.905 33.737 136.944 33.0964 136.944 32.4141C136.944 30.9401 136.787 29.5104 136.473 28.125L138.545 27.8438C138.89 29.276 139.063 30.7526 139.063 32.2734C139.063 33.6224 138.981 34.8646 138.819 36H136.167C135.294 36 134.645 35.9271 134.221 35.7812C133.766 35.6198 133.424 35.3255 133.193 34.8984C132.812 35.7161 132.003 36.125 130.769 36.125C129.623 36.125 128.912 35.7109 128.635 34.8828C128.305 35.6276 127.591 36 126.493 36H125.708V34.3359Z" fill="black"/>
<path d="M109.183 34.3359H122.248V28.4766H124.366V34.3359H125.943V36H109.183V34.3359ZM121.667 38.3984C121.667 38.7005 121.565 38.9557 121.361 39.1641C121.152 39.3776 120.895 39.4844 120.592 39.4844C120.294 39.4844 120.043 39.3802 119.839 39.1719C119.635 38.9635 119.533 38.7057 119.533 38.3984C119.533 38.1016 119.635 37.8464 119.839 37.6328C120.048 37.4193 120.299 37.3125 120.592 37.3125C120.895 37.3125 121.152 37.4167 121.361 37.625C121.565 37.8385 121.667 38.0964 121.667 38.3984ZM124.319 38.3984C124.319 38.6953 124.217 38.9505 124.013 39.1641C123.804 39.3776 123.553 39.4844 123.26 39.4844C122.962 39.4844 122.71 39.3802 122.506 39.1719C122.302 38.9635 122.2 38.7057 122.2 38.3984C122.2 38.1016 122.302 37.8464 122.506 37.6328C122.716 37.4193 122.967 37.3125 123.26 37.3125C123.558 37.3125 123.809 37.4167 124.013 37.625C124.217 37.8385 124.319 38.0964 124.319 38.3984Z" fill="black"/>
<path d="M105.699 24.7188H107.818V34.3359H109.426V36H105.699V24.7188Z" fill="black"/>
<path d="M85.0005 34.3359H101.266C101.319 33.9089 101.345 33.5026 101.345 33.1172C101.345 32.0755 101.109 31.3099 100.638 30.8203C100.136 30.3047 99.3203 30.0469 98.1904 30.0469C97.5941 30.0469 96.9794 30.0911 96.3465 30.1797V28.5312C97.0997 28.4323 97.785 28.3828 98.4022 28.3828C100.176 28.3828 101.468 28.776 102.278 29.5625C103.058 30.3125 103.448 31.4714 103.448 33.0391C103.448 33.9245 103.356 34.9115 103.173 36H85.0005V34.3359Z" fill="black"/>
<path d="M69.4018 34.3359H81.6972V28.4766H83.8157V34.3359H85.2438V36H69.4018V34.3359ZM81.1165 27.2656C80.8184 27.2656 80.5673 27.1589 80.3633 26.9453C80.1593 26.737 80.0573 26.4818 80.0573 26.1797C80.0573 25.8776 80.1593 25.6198 80.3633 25.4062C80.5725 25.1927 80.8236 25.0859 81.1165 25.0859C81.4199 25.0859 81.6762 25.1927 81.8855 25.4062C82.0895 25.6146 82.1915 25.8724 82.1915 26.1797C82.1915 26.4766 82.0895 26.7318 81.8855 26.9453C81.6762 27.1589 81.4199 27.2656 81.1165 27.2656ZM83.7843 27.2656C83.4862 27.2656 83.2351 27.1589 83.0311 26.9453C82.8271 26.737 82.7251 26.4818 82.7251 26.1797C82.7251 25.8776 82.8271 25.6198 83.0311 25.4062C83.2403 25.1927 83.4914 25.0859 83.7843 25.0859C84.0825 25.0859 84.3336 25.1927 84.5376 25.4062C84.7416 25.6146 84.8436 25.8724 84.8436 26.1797C84.8436 26.4766 84.7416 26.7318 84.5376 26.9453C84.3283 27.1589 84.0773 27.2656 83.7843 27.2656Z" fill="black"/>
<path d="M60.0331 36C57.9355 36 56.4055 35.5755 55.443 34.7266C54.5694 33.9609 54.1326 32.8073 54.1326 31.2656C54.1326 30.349 54.2712 29.5104 54.5485 28.75L56.8161 28.3828C56.4499 29.1797 56.2668 30.0599 56.2668 31.0234C56.2668 32.1849 56.5571 33.0182 57.1378 33.5234C57.7498 34.0651 58.7882 34.3359 60.2528 34.3359H61.3513V28.5781C62.3452 28.375 63.4202 28.2734 64.5762 28.2734C65.9258 28.2734 66.8988 28.5885 67.4951 29.2188C68.0234 29.7812 68.2876 30.6432 68.2876 31.8047V34.3359H69.6372V36H66.2318V32.0312C66.2318 31.2604 66.101 30.7188 65.8395 30.4062C65.5779 30.0938 65.115 29.9375 64.4507 29.9375C64.095 29.9375 63.7419 29.9688 63.3914 30.0312V36H60.0331ZM62.0261 38.3984C62.0261 38.6953 61.9215 38.9505 61.7123 39.1641C61.5083 39.3776 61.2572 39.4844 60.959 39.4844C60.6661 39.4844 60.415 39.3802 60.2057 39.1719C60.0017 38.9635 59.8997 38.7057 59.8997 38.3984C59.8997 38.1016 60.0017 37.8464 60.2057 37.6328C60.415 37.4193 60.6661 37.3125 60.959 37.3125C61.2572 37.3125 61.5083 37.4167 61.7123 37.625C61.9215 37.8385 62.0261 38.0964 62.0261 38.3984ZM59.374 38.3984C59.374 38.7005 59.2694 38.9557 59.0602 39.1641C58.8509 39.3776 58.5946 39.4844 58.2912 39.4844C57.9983 39.4844 57.7472 39.3802 57.538 39.1719C57.3339 38.9635 57.2319 38.7057 57.2319 38.3984C57.2319 38.1016 57.3339 37.8464 57.538 37.6328C57.7472 37.4193 57.9983 37.3125 58.2912 37.3125C58.5998 37.3125 58.8562 37.4167 59.0602 37.625C59.2694 37.8385 59.374 38.0964 59.374 38.3984Z" fill="black"/>
<path d="M43.9715 40.0312C43.1659 40.0312 42.3499 39.9609 41.5234 39.8203L41.6568 38.0938C42.4937 38.276 43.3281 38.3672 44.1598 38.3672C46.0168 38.3672 46.9453 37.6589 46.9453 36.2422V36H45.6898C42.818 36 41.3821 34.763 41.3821 32.2891C41.3821 31.1536 41.7222 30.2214 42.4022 29.4922C43.1659 28.6797 44.2461 28.2734 45.6428 28.2734C46.9034 28.2734 48.0228 28.4583 49.001 28.8281V36.0312C49.001 37.2188 48.6113 38.1615 47.8319 38.8594C46.9636 39.6406 45.6768 40.0312 43.9715 40.0312ZM46.9453 30.2266C46.5373 30.0339 46.0272 29.9375 45.4152 29.9375C44.8241 29.9375 44.3559 30.1406 44.0107 30.5469C43.6707 30.9427 43.5007 31.4583 43.5007 32.0938C43.5007 33.5885 44.3062 34.3359 45.9174 34.3359H46.9453V30.2266Z" fill="black"/>
<path d="M14.3668 34.3359H37.4746V28.4766H39.5931V36H14.3668V34.3359ZM39.5461 38.3984C39.5461 38.6953 39.444 38.9505 39.24 39.1641C39.0308 39.3776 38.7797 39.4844 38.4868 39.4844C38.1886 39.4844 37.9375 39.3802 37.7335 39.1719C37.5295 38.9635 37.4275 38.7057 37.4275 38.3984C37.4275 38.1016 37.5295 37.8464 37.7335 37.6328C37.9428 37.4193 38.1938 37.3125 38.4868 37.3125C38.7849 37.3125 39.036 37.4167 39.24 37.625C39.444 37.8385 39.5461 38.0964 39.5461 38.3984ZM36.894 38.3984C36.894 38.7005 36.792 38.9557 36.5879 39.1641C36.3787 39.3776 36.1224 39.4844 35.819 39.4844C35.5208 39.4844 35.2697 39.3802 35.0657 39.1719C34.8617 38.9635 34.7597 38.7057 34.7597 38.3984C34.7597 38.1016 34.8617 37.8464 35.0657 37.6328C35.275 37.4193 35.5261 37.3125 35.819 37.3125C36.1224 37.3125 36.3787 37.4167 36.5879 37.625C36.792 37.8385 36.894 38.0964 36.894 38.3984Z" fill="black"/>
<path d="M9.06263 40.0625C8.59184 40.0625 8.14198 40.0104 7.71304 39.9062L7.86997 38.2266C8.3146 38.3516 8.74877 38.4141 9.17248 38.4141C9.75312 38.4141 10.1794 38.2578 10.4515 37.9453C10.7601 37.5911 10.9144 37.0026 10.9144 36.1797V28.4766H13.0329V34.3359H14.6101V36H13.0329V36.0625C13.0329 38.7292 11.7095 40.0625 9.06263 40.0625ZM11.958 27.1328C11.6493 27.1328 11.3878 27.0286 11.1733 26.8203C10.9536 26.6068 10.8438 26.3438 10.8438 26.0312C10.8438 25.7292 10.9536 25.4688 11.1733 25.25C11.3878 25.0365 11.6493 24.9297 11.958 24.9297C12.2614 24.9297 12.5229 25.0365 12.7426 25.25C12.9571 25.4688 13.0643 25.7292 13.0643 26.0312C13.0643 26.3333 12.9571 26.5938 12.7426 26.8125C12.5229 27.026 12.2614 27.1328 11.958 27.1328Z" fill="black"/>
<path d="M4.3077 36C1.4359 36 0 34.7682 0 32.3047C0 31.1536 0.350474 30.2083 1.05142 29.4688C1.80991 28.6719 2.85872 28.2734 4.19785 28.2734C6.61455 28.2734 7.8229 29.5 7.8229 31.9531V36H4.3077ZM5.75144 32.2109C5.75144 30.6953 5.17865 29.9375 4.03307 29.9375C3.44197 29.9375 2.9738 30.1406 2.62856 30.5469C2.28855 30.9427 2.11854 31.4583 2.11854 32.0938C2.11854 33.5885 2.92411 34.3359 4.53524 34.3359H5.75144V32.2109Z" fill="black"/>
</svg>
