<svg width="42" height="42" viewBox="0 0 42 42" fill="none" xmlns="http://www.w3.org/2000/svg">
<g clip-path="url(#clip0_590_4118)">
<path d="M3.5 15.7395C3.49908 14.3609 3.77012 12.9956 4.29759 11.7218C4.82507 10.4481 5.59863 9.29091 6.57396 8.31655C7.5493 7.34219 8.70726 6.56979 9.98153 6.04359C11.2558 5.51738 12.6214 5.24771 14 5.25001H28C33.7978 5.25001 38.5 9.96627 38.5 15.7395V36.75H14C8.20225 36.75 3.5 32.0338 3.5 26.2605V15.7395ZM35 33.25V15.7395C34.9954 13.8854 34.2561 12.1087 32.944 10.7986C31.6319 9.48851 29.8541 8.75186 28 8.75001H14C13.081 8.74771 12.1706 8.92685 11.3209 9.27716C10.4713 9.62747 9.69916 10.1421 9.04883 10.7914C8.3985 11.4408 7.88275 12.2121 7.53117 13.0612C7.17958 13.9103 6.99908 14.8205 7 15.7395V26.2605C7.00463 28.1146 7.74395 29.8914 9.056 31.2014C10.3681 32.5115 12.1459 33.2482 14 33.25H35ZM24.5 19.25H28V22.75H24.5V19.25ZM14 19.25H17.5V22.75H14V19.25Z" fill="#03336B"/>
</g>
<defs>
<clipPath id="clip0_590_4118">
<rect width="42" height="42" fill="white"/>
</clipPath>
</defs>
</svg>
