<svg width="32" height="32" viewBox="0 0 32 32" fill="none" xmlns="http://www.w3.org/2000/svg">
<g clip-path="url(#clip0_590_4300)">
<path d="M16.0003 29.3333C8.63633 29.3333 2.66699 23.364 2.66699 16C2.66699 8.63596 8.63633 2.66663 16.0003 2.66663C23.3643 2.66663 29.3337 8.63596 29.3337 16C29.3337 23.364 23.3643 29.3333 16.0003 29.3333ZM16.0003 26.6666C18.8293 26.6666 21.5424 25.5428 23.5428 23.5424C25.5432 21.542 26.667 18.8289 26.667 16C26.667 13.171 25.5432 10.4579 23.5428 8.45749C21.5424 6.4571 18.8293 5.33329 16.0003 5.33329C13.1713 5.33329 10.4582 6.4571 8.45785 8.45749C6.45747 10.4579 5.33366 13.171 5.33366 16C5.33366 18.8289 6.45747 21.542 8.45785 23.5424C10.4582 25.5428 13.1713 26.6666 16.0003 26.6666V26.6666ZM17.3337 16H22.667V18.6666H14.667V9.33329H17.3337V16Z" fill="#03336B"/>
</g>
<defs>
<clipPath id="clip0_590_4300">
<rect width="32" height="32" fill="white"/>
</clipPath>
</defs>
</svg>
