<svg width="42" height="42" viewBox="0 0 42 42" fill="none" xmlns="http://www.w3.org/2000/svg">
<g clip-path="url(#clip0_590_4082)">
<path d="M22.7499 14V28C22.7499 29.3924 22.1968 30.7277 21.2122 31.7123C20.2276 32.6969 18.8923 33.25 17.4999 33.25H13.7024C13.2895 34.4181 12.477 35.4027 11.4085 36.0296C10.3399 36.6566 9.08409 36.8856 7.863 36.6762C6.64191 36.4667 5.53418 35.8324 4.7356 34.8852C3.93702 33.9379 3.49902 32.7389 3.49902 31.5C3.49902 30.2611 3.93702 29.0621 4.7356 28.1148C5.53418 27.1676 6.64191 26.5333 7.863 26.3238C9.08409 26.1144 10.3399 26.3434 11.4085 26.9704C12.477 27.5973 13.2895 28.5819 13.7024 29.75H17.4999C17.964 29.75 18.4091 29.5656 18.7373 29.2374C19.0655 28.9092 19.2499 28.4641 19.2499 28V14C19.2499 12.6076 19.803 11.2723 20.7876 10.2877C21.7721 9.30312 23.1075 8.75 24.4999 8.75H29.7499V3.5L38.4999 10.5L29.7499 17.5V12.25H24.4999C24.0357 12.25 23.5906 12.4344 23.2624 12.7626C22.9343 13.0908 22.7499 13.5359 22.7499 14Z" fill="#03336B"/>
</g>
<defs>
<clipPath id="clip0_590_4082">
<rect width="42" height="42" fill="white"/>
</clipPath>
</defs>
</svg>
