<svg width="42" height="42" viewBox="0 0 42 42" fill="none" xmlns="http://www.w3.org/2000/svg">
<g clip-path="url(#clip0_590_4070)">
<path d="M21 3.5C30.6652 3.5 38.5 11.3348 38.5 21C38.5 30.6652 30.6652 38.5 21 38.5C11.3348 38.5 3.5 30.6652 3.5 21H7C7 28.7315 13.2685 35 21 35C28.7315 35 35 28.7315 35 21C35 13.2685 28.7315 7 21 7C16.688 7 12.831 8.9495 10.2637 12.0137L14 15.75H3.5V5.25L7.78225 9.5305C10.99 5.838 15.722 3.5 21 3.5ZM22.75 12.25V20.2738L28.4253 25.949L25.949 28.4253L19.25 21.7228V12.25H22.75Z" fill="#03336B"/>
</g>
<defs>
<clipPath id="clip0_590_4070">
<rect width="42" height="42" fill="white"/>
</clipPath>
</defs>
</svg>
