<svg width="42" height="42" viewBox="0 0 42 42" fill="none" xmlns="http://www.w3.org/2000/svg">
<g clip-path="url(#clip0_539_2381)">
<path d="M17.4529 31.5H24.5474C24.7784 29.3965 25.8511 27.6605 27.5924 25.7652C27.7901 25.5517 29.0484 24.248 29.1971 24.0625C30.4331 22.5183 31.2078 20.6565 31.4321 18.6913C31.6563 16.7262 31.3209 14.7376 30.4645 12.9547C29.6082 11.1719 28.2656 9.6671 26.5916 8.61376C24.9175 7.56043 22.9799 7.00136 21.002 7.00094C19.0241 7.00052 17.0863 7.55876 15.4118 8.61138C13.7372 9.664 12.3941 11.1682 11.5369 12.9507C10.6798 14.7332 10.3436 16.7216 10.5669 18.6869C10.7903 20.6521 11.5643 22.5143 12.7996 24.059C12.9501 24.2462 14.2119 25.5517 14.4061 25.7635C16.1491 27.6605 17.2219 29.3965 17.4529 31.5ZM24.5001 35H17.5001V36.75H24.5001V35ZM10.0696 26.25C8.42145 24.1907 7.38852 21.7078 7.08983 19.0871C6.79113 16.4665 7.23881 13.8148 8.38131 11.4375C9.5238 9.06019 11.3146 7.05398 13.5475 5.64998C15.7803 4.24597 18.3644 3.50129 21.002 3.50171C23.6396 3.50213 26.2234 4.24764 28.4558 5.65236C30.6882 7.05709 32.4784 9.06387 33.6202 11.4415C34.7619 13.8192 35.2087 16.4711 34.9092 19.0916C34.6097 21.7121 33.5759 24.1947 31.9271 26.2535C30.8421 27.6045 28.0001 29.75 28.0001 32.375V36.75C28.0001 37.6782 27.6314 38.5685 26.975 39.2248C26.3186 39.8812 25.4284 40.25 24.5001 40.25H17.5001C16.5719 40.25 15.6816 39.8812 15.0252 39.2248C14.3689 38.5685 14.0001 37.6782 14.0001 36.75V32.375C14.0001 29.75 11.1564 27.6045 10.0696 26.25ZM22.7501 17.507H27.1251L19.2501 28.007V21.007H14.8751L22.7501 10.5V17.5087V17.507Z" fill="#03336B"/>
</g>
<defs>
<clipPath id="clip0_539_2381">
<rect width="42" height="42" fill="white"/>
</clipPath>
</defs>
</svg>
