<svg width="42" height="42" viewBox="0 0 42 42" fill="none" xmlns="http://www.w3.org/2000/svg">
<g clip-path="url(#clip0_539_2388)">
<path d="M21.0018 7.92571C25.1125 4.23496 31.465 4.35746 35.4253 8.32471C39.3838 12.2937 39.5203 18.6147 35.8383 22.7377L20.9983 37.5987L6.16176 22.7377C2.47976 18.6147 2.61801 12.2832 6.57476 8.32471C10.5385 4.36272 16.8788 4.22971 21.0018 7.92571ZM32.9473 10.7975C30.3223 8.16897 26.0873 8.06222 23.3398 10.5297L21.0035 12.6262L18.6655 10.5315C15.9093 8.06047 11.683 8.16896 9.05101 10.801C6.44351 13.4085 6.31226 17.5822 8.71501 20.3402L21 32.6445L33.285 20.342C35.6895 17.5822 35.5583 13.4137 32.9473 10.7975Z" fill="#03336B"/>
</g>
<defs>
<clipPath id="clip0_539_2388">
<rect width="42" height="42" fill="white"/>
</clipPath>
</defs>
</svg>
