<svg width="42" height="42" viewBox="0 0 42 42" fill="none" xmlns="http://www.w3.org/2000/svg">
<g clip-path="url(#clip0_590_4066)">
<path d="M31.5 14H35C35.4641 14 35.9092 14.1844 36.2374 14.5126C36.5656 14.8408 36.75 15.2859 36.75 15.75V36.75C36.75 37.2141 36.5656 37.6592 36.2374 37.9874C35.9092 38.3156 35.4641 38.5 35 38.5H7C6.53587 38.5 6.09075 38.3156 5.76256 37.9874C5.43437 37.6592 5.25 37.2141 5.25 36.75V15.75C5.25 15.2859 5.43437 14.8408 5.76256 14.5126C6.09075 14.1844 6.53587 14 7 14H10.5V12.25C10.5 9.46523 11.6062 6.79451 13.5754 4.82538C15.5445 2.85625 18.2152 1.75 21 1.75C23.7848 1.75 26.4555 2.85625 28.4246 4.82538C30.3938 6.79451 31.5 9.46523 31.5 12.25V14ZM8.75 17.5V35H33.25V17.5H8.75ZM19.25 24.5H22.75V28H19.25V24.5ZM12.25 24.5H15.75V28H12.25V24.5ZM26.25 24.5H29.75V28H26.25V24.5ZM28 14V12.25C28 10.3935 27.2625 8.61301 25.9497 7.30025C24.637 5.9875 22.8565 5.25 21 5.25C19.1435 5.25 17.363 5.9875 16.0503 7.30025C14.7375 8.61301 14 10.3935 14 12.25V14H28Z" fill="#03336B"/>
</g>
<defs>
<clipPath id="clip0_590_4066">
<rect width="42" height="42" fill="white"/>
</clipPath>
</defs>
</svg>
