<svg width="41" height="40" viewBox="0 0 41 40" fill="none" xmlns="http://www.w3.org/2000/svg">
<rect x="1.73584" y="1" width="38" height="38" rx="19" fill="#E5F1FF"/>
<rect x="1.73584" y="1" width="38" height="38" rx="19" stroke="#42A5F5" stroke-width="2"/>
<g clip-path="url(#clip0_41_863)">
<path d="M20.7359 10.8333C22.4377 10.8333 24.0698 11.5093 25.2732 12.7126C26.4765 13.916 27.1526 15.5481 27.1526 17.2499H28.1371C28.368 17.2499 28.5904 17.3371 28.7598 17.4939C28.9292 17.6508 29.0332 17.8658 29.051 18.096L29.8265 28.1793C29.8452 28.4217 29.7669 28.6616 29.6087 28.8462C29.4506 29.0309 29.2255 29.1451 28.9832 29.1638L28.9126 29.1666H12.5592C12.3161 29.1666 12.083 29.07 11.9111 28.8981C11.7392 28.7262 11.6426 28.493 11.6426 28.2499L11.6453 28.1793L12.4208 18.096C12.4386 17.8658 12.5426 17.6508 12.712 17.4939C12.8815 17.3371 13.1039 17.2499 13.3347 17.2499H14.3192C14.3192 15.5481 14.9953 13.916 16.1986 12.7126C17.402 11.5093 19.0341 10.8333 20.7359 10.8333V10.8333ZM22.5692 20.9166H18.9026V22.7499H22.5692V20.9166ZM20.7359 12.6666C19.5548 12.6667 18.4193 13.1227 17.5663 13.9395C16.7132 14.7564 16.2084 15.871 16.1572 17.051L16.1526 17.2499H25.3192C25.3192 16.0688 24.8632 14.9334 24.0463 14.0803C23.2294 13.2272 22.1148 12.7224 20.9348 12.6712L20.7359 12.6666Z" fill="#1976D2"/>
</g>
<defs>
<clipPath id="clip0_41_863">
<rect width="22" height="22" fill="white" transform="translate(9.73584 9)"/>
</clipPath>
</defs>
</svg>
