<svg width="46" height="40" viewBox="0 0 46 40" fill="none" xmlns="http://www.w3.org/2000/svg">
<g clip-path="url(#clip0_539_2353)">
<path d="M31.8238 24.8485C32.2091 24.4631 32.8341 24.4631 33.2211 24.8485L35.5577 27.1866L37.6529 25.0913L33.2908 18.1547C32.9248 17.5928 32.1201 17.5928 31.7558 18.1547L27.439 25.025L29.0646 27.6092L31.827 24.8485H31.8238Z" fill="#043065"/>
<path d="M45.8591 38.1438L38.7298 26.8077L36.2556 29.2819C35.8848 29.6494 35.229 29.6494 34.8583 29.2819L32.5217 26.9438L30.1399 29.324L34.8388 36.7901C35.3553 37.6111 35.446 38.6295 35.0979 39.5104H45.0997C45.7992 39.5104 46.2396 38.7348 45.8591 38.1422V38.1438Z" fill="#043065"/>
<path d="M13.2613 24.8274L16.252 21.8351C16.6228 21.4676 17.277 21.4676 17.6494 21.8351L20.6417 24.8274L23.302 22.1654L18.0153 13.7602V8.83454H24.8743C25.2677 8.83454 25.6304 8.61594 25.815 8.26782C25.9996 7.91969 25.9753 7.49708 25.7535 7.17162L23.9983 4.59384L25.7535 2.01607C25.9753 1.69061 25.998 1.26962 25.815 0.919871C25.632 0.570123 25.2693 0.353149 24.8743 0.353149H16.9515C16.3637 0.353149 15.8877 0.829195 15.8877 1.41697V13.7602L10.5994 22.1654L13.2613 24.8274Z" fill="#00ACC1"/>
<path d="M24.3805 23.8818L21.3396 26.9227C21.1534 27.1073 20.9024 27.2125 20.6417 27.2125C20.3811 27.2125 20.1285 27.1073 19.9439 26.9227L16.9516 23.9304L13.9609 26.9227C13.5901 27.2903 12.9343 27.2903 12.5635 26.9227L9.52268 23.8818L0.740116 37.841C0.281881 38.5696 0.806503 39.5185 1.6663 39.5185H32.2352C33.0967 39.5185 33.6197 38.5696 33.1614 37.841L24.3805 23.8818Z" fill="#043065"/>
</g>
<defs>
<clipPath id="clip0_539_2353">
<rect width="45.43" height="39.1637" fill="white" transform="translate(0.570068 0.353149)"/>
</clipPath>
</defs>
</svg>
