<svg width="42" height="42" viewBox="0 0 42 42" fill="none" xmlns="http://www.w3.org/2000/svg">
<g clip-path="url(#clip0_590_4054)">
<path d="M8.75 31.5H33.25V19.3043C33.25 12.509 27.7655 7 21 7C14.2345 7 8.75 12.509 8.75 19.3043V31.5ZM21 3.5C29.6975 3.5 36.75 10.5753 36.75 19.3043V35H5.25V19.3043C5.25 10.5753 12.3025 3.5 21 3.5ZM16.625 36.75H25.375C25.375 37.9103 24.9141 39.0231 24.0936 39.8436C23.2731 40.6641 22.1603 41.125 21 41.125C19.8397 41.125 18.7269 40.6641 17.9064 39.8436C17.0859 39.0231 16.625 37.9103 16.625 36.75V36.75Z" fill="#03336B"/>
</g>
<defs>
<clipPath id="clip0_590_4054">
<rect width="42" height="42" fill="white"/>
</clipPath>
</defs>
</svg>
