<svg width="42" height="42" viewBox="0 0 42 42" fill="none" xmlns="http://www.w3.org/2000/svg">
<g clip-path="url(#clip0_590_4068)">
<path d="M19.25 3.5L32.0215 7.49C32.3777 7.6012 32.689 7.82334 32.91 8.124C33.131 8.42467 33.2502 8.7881 33.25 9.16125V12.25H36.75C37.2141 12.25 37.6592 12.4344 37.9874 12.7626C38.3156 13.0908 38.5 13.5359 38.5 14V28C38.5 28.4641 38.3156 28.9092 37.9874 29.2374C37.6592 29.5656 37.2141 29.75 36.75 29.75L31.115 29.7517C30.4378 30.6442 29.6152 31.4317 28.665 32.0792L19.25 38.5L9.835 32.081C8.42191 31.1175 7.26557 29.8235 6.46649 28.3114C5.66742 26.7992 5.24982 25.1148 5.25 23.4045V9.16125C5.25021 8.7884 5.3695 8.42536 5.59048 8.12505C5.81147 7.82474 6.12259 7.60286 6.4785 7.49175L19.25 3.5ZM19.25 7.1645L8.75 10.4475V23.4045C8.74975 24.4759 8.99544 25.5331 9.46814 26.4945C9.94084 27.456 10.6279 28.2962 11.4765 28.9502L11.8073 29.1883L19.25 34.265L25.8685 29.75H17.5C17.0359 29.75 16.5908 29.5656 16.2626 29.2374C15.9344 28.9092 15.75 28.4641 15.75 28V14C15.75 13.5359 15.9344 13.0908 16.2626 12.7626C16.5908 12.4344 17.0359 12.25 17.5 12.25H29.75V10.4475L19.25 7.1645ZM19.25 21V26.25H35V21H19.25ZM19.25 17.5H35V15.75H19.25V17.5Z" fill="#03336B"/>
</g>
<defs>
<clipPath id="clip0_590_4068">
<rect width="42" height="42" fill="white"/>
</clipPath>
</defs>
</svg>
