<svg width="44" height="44" viewBox="0 0 44 44" fill="none" xmlns="http://www.w3.org/2000/svg">
<g clip-path="url(#clip0_1_473)">
<path d="M8.40217 31.7552C6.51383 29.7495 5.5 27.5 5.5 23.8535C5.5 17.4368 10.0045 11.6857 16.555 8.84216L18.1922 11.3685C12.078 14.6758 10.8827 18.9677 10.406 21.6737C11.3905 21.164 12.6793 20.9862 13.9425 21.1035C17.2498 21.4097 19.8568 24.1248 19.8568 27.5C19.8568 29.2018 19.1808 30.8339 17.9774 32.0373C16.7741 33.2406 15.142 33.9167 13.4402 33.9167C11.473 33.9167 9.592 33.0183 8.40217 31.7552ZM26.7355 31.7552C24.8472 29.7495 23.8333 27.5 23.8333 23.8535C23.8333 17.4368 28.3378 11.6857 34.8883 8.84216L36.5255 11.3685C30.4113 14.6758 29.216 18.9677 28.7393 21.6737C29.7238 21.164 31.0127 20.9862 32.2758 21.1035C35.5832 21.4097 38.1902 24.1248 38.1902 27.5C38.1902 29.2018 37.5141 30.8339 36.3108 32.0373C35.1074 33.2406 33.4753 33.9167 31.7735 33.9167C29.8063 33.9167 27.9253 33.0183 26.7355 31.7552Z" fill="#0D47A1"/>
</g>
<defs>
<clipPath id="clip0_1_473">
<rect width="44" height="44" fill="white"/>
</clipPath>
</defs>
</svg>
