<svg width="45" height="30" viewBox="0 0 45 30" fill="none" xmlns="http://www.w3.org/2000/svg">
<g clip-path="url(#clip0_590_3778)">
<path d="M12.329 14.4336L14.7925 15.237C15.0693 15.327 15.2563 15.6054 15.1972 15.8883C15.1405 16.1605 14.9023 16.337 14.6447 16.337C14.5863 16.337 14.5273 16.3278 14.4689 16.3088L11.9776 15.4963C11.6821 15.4001 11.5211 15.0837 11.6181 14.7903C11.7151 14.4968 12.0337 14.337 12.3293 14.4333L12.329 14.4336Z" fill="#03336B"/>
<path d="M37.407 23.7388C35.6795 23.7388 34.2788 25.1293 34.2788 26.8444C34.2788 28.5595 35.6795 29.95 37.407 29.95C39.1346 29.95 40.5353 28.5595 40.5353 26.8444C40.5353 25.1293 39.1346 23.7388 37.407 23.7388ZM37.407 27.7519C36.9023 27.7519 36.493 27.3455 36.493 26.8441C36.493 26.3427 36.9023 25.9366 37.407 25.9366C37.9118 25.9366 38.3215 26.343 38.3215 26.8441C38.3215 27.3451 37.9121 27.7519 37.407 27.7519Z" fill="#03336B"/>
<path d="M2.84103 28.0132C2.40163 28.0132 2.16874 28.5195 2.44649 28.8575C3.01916 29.5544 3.89004 29.9998 4.86714 29.9998C5.84424 29.9998 6.71479 29.5544 7.28745 28.8575C7.56521 28.5195 7.33232 28.0132 6.89292 28.0132H2.84103Z" fill="#03336B"/>
<path d="M6.46678 13.0217H9.8233C10.3046 13.0217 10.7311 12.7132 10.8789 12.2583L12.5669 7.05544C12.6909 6.67293 12.4036 6.28125 11.9988 6.28125H9.24007C8.79902 6.28125 8.39954 6.54095 8.22339 6.94246L5.91952 12.1925C5.74765 12.5839 6.03662 13.0217 6.46678 13.0217Z" fill="#03336B"/>
<path d="M43.8706 25.8045H41.9814C41.7511 25.8045 41.5802 26.0086 41.6152 26.2342C41.6459 26.4333 41.6627 26.637 41.6627 26.8446C41.6627 27.0824 41.6413 27.3149 41.602 27.5415C41.5621 27.7718 41.7323 27.984 41.9675 27.984H43.9019C44.5828 27.984 45.1205 27.3657 44.976 26.6652C44.8708 26.1556 44.3944 25.8042 43.8706 25.8042V25.8045Z" fill="#03336B"/>
<path d="M5.5178 25.262L4.94513 22.7848C4.81978 22.2425 4.27251 21.9006 3.72788 22.0313C1.92279 22.4642 0.496066 23.8587 0.0325876 25.6393C-0.132681 26.2743 0.35158 26.8946 1.01233 26.8946H5.19881C5.67812 26.8946 5.97666 26.3974 5.76917 25.9684C5.66229 25.7473 5.57652 25.5116 5.5178 25.262Z" fill="#03336B"/>
<path d="M9.105 14.1412H6.33798C5.76894 14.1412 5.28534 14.5673 5.23256 15.1296C5.06663 16.899 5.15207 18.6753 5.50207 20.19L6.18228 23.1325L6.61574 25.0074C6.90174 26.2244 8.08534 26.8944 8.4812 26.8944H32.3274C32.5197 26.8944 32.7127 26.8447 32.8674 26.731C33.0429 26.602 33.1709 26.413 33.2042 26.1998C33.518 24.1756 35.2825 22.6203 37.4079 22.6203C38.8151 22.6203 40.0618 23.3045 40.8363 24.3531C40.99 24.5614 41.2335 24.6855 41.4938 24.6855H43.0201C43.4209 24.6855 43.7462 24.3629 43.7462 23.9647V15.276C43.7462 14.6491 43.2345 14.1412 42.6031 14.1412H35.2633C34.2764 14.1412 33.3886 14.7376 33.0212 15.647L31.7165 18.879C31.3493 19.7885 30.4616 20.3849 29.4746 20.3849H25.9994C25.368 20.3849 24.8564 19.8769 24.8564 19.2501V6.29709C24.8564 5.67027 25.368 5.16233 25.9994 5.16233H33.6651C34.5531 5.16233 35.2729 5.87692 35.2729 6.75853V11.8871C35.2729 12.5139 35.7846 13.0218 36.4159 13.0218H42.6028C43.2342 13.0218 43.7458 12.5139 43.7458 11.8871V3.47344C43.7458 1.68599 42.3198 0.221439 40.5203 0.1638C33.7604 -0.0520175 21.3059 -0.481033 7.8607 2.2031C7.38402 2.2984 7.12144 2.75394 7.29265 3.20588C7.73864 4.38289 8.87309 5.16233 10.1402 5.16233H22.5855C23.2169 5.16233 23.7285 5.67027 23.7285 6.29709V19.2259C23.7285 19.8527 23.2169 20.3606 22.5855 20.3606H18.2063C17.5749 20.3606 17.0633 20.8686 17.0633 21.4954V24.64C17.0633 25.2668 16.5517 25.7747 15.9203 25.7747H12.3751C11.5468 25.7747 10.8586 25.141 10.7963 24.3213L10.3483 18.4373C10.3325 18.2306 10.3246 18.0236 10.3246 17.8167V15.3516C10.3246 14.6829 9.77861 14.1409 9.105 14.1409V14.1412Z" fill="#03336B"/>
</g>
<defs>
<clipPath id="clip0_590_3778">
<rect width="45" height="30" fill="white"/>
</clipPath>
</defs>
</svg>
