<svg width="42" height="42" viewBox="0 0 42 42" fill="none" xmlns="http://www.w3.org/2000/svg">
<g clip-path="url(#clip0_590_4102)">
<path d="M8.75 8.057V24.1307C8.75002 25.2831 9.03451 26.4175 9.57821 27.4335C10.1219 28.4495 10.908 29.3155 11.8668 29.9548L21 36.0448L30.1332 29.9548C31.0917 29.3157 31.8777 28.4499 32.4214 27.4343C32.9651 26.4186 33.2497 25.2845 33.25 24.1325V8.057L21 5.3375L8.75 8.057ZM6.62025 4.9455L21 1.75L35.3797 4.9455C35.7684 5.03189 36.1159 5.24819 36.365 5.55871C36.6141 5.86923 36.7499 6.2554 36.75 6.6535V24.1307C36.7499 25.8593 36.323 27.5611 35.5073 29.085C34.6916 30.609 33.5123 31.908 32.074 32.8668L21 40.25L9.926 32.8668C8.48798 31.9082 7.30881 30.6094 6.49311 29.0858C5.67741 27.5622 5.25041 25.8607 5.25 24.1325V6.6535C5.25007 6.2554 5.38587 5.86923 5.63498 5.55871C5.8841 5.24819 6.23164 5.03189 6.62025 4.9455V4.9455ZM21 23.625L15.8567 26.3288L16.8385 20.6027L12.6787 16.5462L18.4293 15.7098L21 10.5L23.5725 15.7098L29.3212 16.5462L25.1615 20.6027L26.1415 26.3288L21 23.625Z" fill="#03336B"/>
</g>
<defs>
<clipPath id="clip0_590_4102">
<rect width="42" height="42" fill="white"/>
</clipPath>
</defs>
</svg>
