<svg width="42" height="42" viewBox="0 0 42 42" fill="none" xmlns="http://www.w3.org/2000/svg">
<g clip-path="url(#clip0_539_2383)">
<path d="M21 1.75L35.3797 4.9455C36.1795 5.124 36.75 5.83275 36.75 6.6535V24.1307C36.75 27.6412 34.9947 30.9207 32.074 32.8668L21 40.25L9.926 32.8668C7.0035 30.919 5.25 27.6413 5.25 24.1325V6.6535C5.25 5.83275 5.8205 5.124 6.62025 4.9455L21 1.75ZM21 5.33575L8.75 8.057V24.1307C8.75 26.4705 9.919 28.6563 11.8668 29.9548L21 36.0448L30.1332 29.9548C32.081 28.6563 33.25 26.4722 33.25 24.1325V8.057L21 5.3375V5.33575ZM28.791 14.3885L31.2673 16.863L20.1303 28L12.705 20.5747L15.1795 18.1003L20.1285 23.0492L28.791 14.3867V14.3885Z" fill="#03336B"/>
</g>
<defs>
<clipPath id="clip0_539_2383">
<rect width="42" height="42" fill="white"/>
</clipPath>
</defs>
</svg>
