<svg width="42" height="42" viewBox="0 0 42 42" fill="none" xmlns="http://www.w3.org/2000/svg">
<g clip-path="url(#clip0_590_4116)">
<path d="M10.0853 29.75H35V8.75H7V32.1738L10.0853 29.75ZM11.2962 33.25L3.5 39.375V7C3.5 6.53587 3.68437 6.09075 4.01256 5.76256C4.34075 5.43437 4.78587 5.25 5.25 5.25H36.75C37.2141 5.25 37.6592 5.43437 37.9874 5.76256C38.3156 6.09075 38.5 6.53587 38.5 7V31.5C38.5 31.9641 38.3156 32.4092 37.9874 32.7374C37.6592 33.0656 37.2141 33.25 36.75 33.25H11.2962ZM19.25 24.5H22.75V28H19.25V24.5ZM14.9923 15.4227C15.2196 14.2849 15.7654 13.235 16.5662 12.3952C17.367 11.5554 18.3897 10.9603 19.5155 10.6791C20.6413 10.3979 21.8237 10.4422 22.9253 10.8068C24.0269 11.1714 25.0023 11.8413 25.738 12.7386C26.4738 13.6359 26.9395 14.7237 27.0812 15.8754C27.2228 17.0271 27.0345 18.1953 26.5381 19.2441C26.0417 20.293 25.2577 21.1793 24.2773 21.7999C23.2969 22.4206 22.1604 22.75 21 22.75H19.25V19.25H21C21.4971 19.25 21.984 19.1088 22.4041 18.8428C22.8241 18.5769 23.16 18.1971 23.3726 17.7478C23.5852 17.2984 23.6659 16.7979 23.6052 16.3045C23.5445 15.8111 23.3449 15.345 23.0297 14.9606C22.7145 14.5762 22.2966 14.2892 21.8246 14.1329C21.3527 13.9767 20.8461 13.9578 20.3637 14.0782C19.8814 14.1987 19.4432 14.4537 19.1001 14.8134C18.7571 15.1732 18.5232 15.623 18.4258 16.1105L14.9923 15.4227V15.4227Z" fill="#03336B"/>
</g>
<defs>
<clipPath id="clip0_590_4116">
<rect width="42" height="42" fill="white"/>
</clipPath>
</defs>
</svg>
