<svg width="40" height="40" viewBox="0 0 40 40" fill="none" xmlns="http://www.w3.org/2000/svg">
<rect x="1" y="1" width="38" height="38" rx="19" fill="#E5F1FF"/>
<rect x="1" y="1" width="38" height="38" rx="19" stroke="#42A5F5" stroke-width="2"/>
<g clip-path="url(#clip0_590_3130)">
<path d="M15.4167 13.5834V10.8334C15.4167 10.5902 15.5133 10.3571 15.6852 10.1852C15.8571 10.0133 16.0902 9.91669 16.3333 9.91669H23.6667C23.9098 9.91669 24.143 10.0133 24.3149 10.1852C24.4868 10.3571 24.5833 10.5902 24.5833 10.8334V13.5834H28.25C28.4931 13.5834 28.7263 13.6799 28.8982 13.8518C29.0701 14.0237 29.1667 14.2569 29.1667 14.5V27.3334C29.1667 27.5765 29.0701 27.8096 28.8982 27.9815C28.7263 28.1534 28.4931 28.25 28.25 28.25H11.75C11.5069 28.25 11.2737 28.1534 11.1018 27.9815C10.9299 27.8096 10.8333 27.5765 10.8333 27.3334V14.5C10.8333 14.2569 10.9299 14.0237 11.1018 13.8518C11.2737 13.6799 11.5069 13.5834 11.75 13.5834H15.4167ZM12.6667 22.75V26.4167H27.3333V22.75H12.6667ZM19.0833 19.0834V20.9167H20.9167V19.0834H19.0833ZM17.25 11.75V13.5834H22.75V11.75H17.25Z" fill="#1976D2"/>
</g>
<defs>
<clipPath id="clip0_590_3130">
<rect width="22" height="22" fill="white" transform="translate(9 9)"/>
</clipPath>
</defs>
</svg>
