<svg width="42" height="42" viewBox="0 0 42 42" fill="none" xmlns="http://www.w3.org/2000/svg">
<g clip-path="url(#clip0_539_2386)">
<path d="M21 22.75C23.8997 22.75 26.25 25.1003 26.25 28C26.25 29.4875 25.6322 30.828 24.64 31.7835L21.2975 35H26.25V38.5H15.75V35.483L22.2127 29.2618C22.5452 28.9415 22.75 28.4953 22.75 28C22.75 27.034 21.966 26.25 21 26.25C20.034 26.25 19.25 27.034 19.25 28H15.75C15.75 25.1003 18.1003 22.75 21 22.75ZM31.5 22.75V29.75H35V22.75H38.5V38.5H35V33.25H28V22.75H31.5ZM7 21C7 25.4223 9.04925 29.365 12.25 31.9305V36.1585C7.01925 33.1328 3.5 27.4785 3.5 21H7ZM21 3.5C30.0737 3.5 37.5358 10.4072 38.4125 19.25H34.8915C34.0305 12.3445 28.14 7 21 7C16.688 7 12.831 8.9495 10.2637 12.0138L14 15.75H3.5V5.25L7.78225 9.5305C10.99 5.838 15.722 3.5 21 3.5Z" fill="#03336B"/>
</g>
<defs>
<clipPath id="clip0_539_2386">
<rect width="42" height="42" fill="white"/>
</clipPath>
</defs>
</svg>
