<svg width="42" height="42" viewBox="0 0 42 42" fill="none" xmlns="http://www.w3.org/2000/svg">
<g clip-path="url(#clip0_590_4114)">
<path d="M21 7C17.287 7 13.726 8.475 11.1005 11.1005C8.475 13.726 7 17.287 7 21H12.25C13.1783 21 14.0685 21.3687 14.7249 22.0251C15.3813 22.6815 15.75 23.5717 15.75 24.5V33.25C15.75 34.1783 15.3813 35.0685 14.7249 35.7249C14.0685 36.3813 13.1783 36.75 12.25 36.75H7C6.07174 36.75 5.1815 36.3813 4.52513 35.7249C3.86875 35.0685 3.5 34.1783 3.5 33.25V21C3.5 11.3348 11.3348 3.5 21 3.5C30.6652 3.5 38.5 11.3348 38.5 21V33.25C38.5 34.1783 38.1313 35.0685 37.4749 35.7249C36.8185 36.3813 35.9283 36.75 35 36.75H29.75C28.8217 36.75 27.9315 36.3813 27.2751 35.7249C26.6187 35.0685 26.25 34.1783 26.25 33.25V24.5C26.25 23.5717 26.6187 22.6815 27.2751 22.0251C27.9315 21.3687 28.8217 21 29.75 21H35C35 17.287 33.525 13.726 30.8995 11.1005C28.274 8.475 24.713 7 21 7V7ZM7 24.5V33.25H12.25V24.5H7ZM29.75 24.5V33.25H35V24.5H29.75Z" fill="#03336B"/>
</g>
<defs>
<clipPath id="clip0_590_4114">
<rect width="42" height="42" fill="white"/>
</clipPath>
</defs>
</svg>
