<svg width="42" height="42" viewBox="0 0 42 42" fill="none" xmlns="http://www.w3.org/2000/svg">
<g clip-path="url(#clip0_590_4086)">
<path d="M8.75 26.25V29.75C8.74972 30.633 9.08321 31.4835 9.68362 32.131C10.284 32.7784 11.107 33.175 11.9875 33.2413L12.25 33.25H17.5V36.75H12.25C10.3935 36.75 8.61301 36.0125 7.30025 34.6997C5.9875 33.387 5.25 31.6065 5.25 29.75V26.25H8.75ZM31.5 17.5L39.2 36.75H35.4288L33.327 31.5H26.1695L24.0713 36.75H20.3018L28 17.5H31.5ZM29.75 22.5488L27.5678 28H31.9288L29.75 22.5488ZM14 3.5V7H21V19.25H14V24.5H10.5V19.25H3.5V7H10.5V3.5H14ZM29.75 5.25C31.6065 5.25 33.387 5.9875 34.6997 7.30025C36.0125 8.61301 36.75 10.3935 36.75 12.25V15.75H33.25V12.25C33.25 11.3217 32.8813 10.4315 32.2249 9.77513C31.5685 9.11875 30.6783 8.75 29.75 8.75H24.5V5.25H29.75ZM10.5 10.5H7V15.75H10.5V10.5ZM17.5 10.5H14V15.75H17.5V10.5Z" fill="#03336B"/>
</g>
<defs>
<clipPath id="clip0_590_4086">
<rect width="42" height="42" fill="white"/>
</clipPath>
</defs>
</svg>
