<svg width="43" height="48" viewBox="0 0 43 48" fill="none" xmlns="http://www.w3.org/2000/svg">
<g clip-path="url(#clip0_539_2359)">
<path d="M15.7462 39.03H27.014C27.3333 39.03 27.5947 39.2896 27.5947 39.6108V43.5416C27.5947 43.8628 27.3352 44.1224 27.014 44.1224H25.6788C25.3315 46.1858 23.5425 47.76 21.3801 47.76C19.2177 47.76 17.4287 46.1858 17.0814 44.1224H15.7462C15.4269 44.1224 15.1655 43.8628 15.1655 43.5416V39.6108C15.1655 39.2896 15.425 39.03 15.7462 39.03Z" fill="#043065"/>
<path d="M21.38 5.93639C22.0261 5.93639 22.5527 5.41165 22.5527 4.76368V1.17271C22.5527 0.5266 22.0261 0 21.38 0C20.7339 0 20.2073 0.524733 20.2073 1.17271V4.76554C20.2073 5.41165 20.7339 5.93825 21.38 5.93825V5.93639Z" fill="#043065"/>
<path d="M29.677 8.16043C30.0953 8.16043 30.4856 7.93634 30.6928 7.57407L32.4892 4.46302C32.8123 3.90281 32.62 3.18387 32.0598 2.86081C31.8824 2.75811 31.6788 2.70209 31.4753 2.70209C31.057 2.70209 30.6667 2.92804 30.4594 3.29031L28.663 6.40136C28.3399 6.96157 28.5323 7.68051 29.0925 8.00357C29.2699 8.10627 29.4734 8.16043 29.677 8.16043Z" fill="#043065"/>
<path d="M35.7534 14.235C35.957 14.235 36.1605 14.1808 36.3379 14.0781L39.4489 12.2817C39.7197 12.1249 39.9139 11.8728 39.9961 11.5703C40.0764 11.2677 40.0353 10.9522 39.8784 10.6814C39.6693 10.3191 39.279 10.095 38.8626 10.095C38.659 10.095 38.4555 10.1492 38.2781 10.2538L35.1671 12.0483C34.6068 12.3714 34.4145 13.0903 34.7376 13.6505C34.9467 14.0128 35.3351 14.2369 35.7534 14.2369V14.235Z" fill="#043065"/>
<path d="M41.5665 22.5318C42.2127 22.5318 42.7393 22.007 42.7393 21.3591C42.7393 20.7111 42.2127 20.1863 41.5665 20.1863H37.9737C37.3276 20.1863 36.801 20.7111 36.801 21.3591C36.801 22.007 37.3276 22.5318 37.9737 22.5318H41.5665Z" fill="#043065"/>
<path d="M38.8606 32.6249C39.2789 32.6249 39.6692 32.4008 39.8765 32.0385C40.1995 31.4802 40.0072 30.7613 39.447 30.4382L36.3359 28.6418C36.1585 28.5391 35.9568 28.4849 35.7514 28.4849C35.3331 28.4849 34.9428 28.709 34.7337 29.0713C34.4106 29.6296 34.603 30.3486 35.1632 30.6716L38.2742 32.4662C38.4516 32.5689 38.6552 32.6249 38.8587 32.6249H38.8606Z" fill="#043065"/>
<path d="M3.89989 32.6249C4.10531 32.6249 4.30698 32.5707 4.48438 32.468L7.5973 30.6716C7.86807 30.5148 8.06227 30.2627 8.14257 29.9602C8.22287 29.6576 8.18179 29.342 8.02493 29.0713C7.81578 28.709 7.42737 28.4849 7.00721 28.4849C6.80366 28.4849 6.60012 28.5391 6.42272 28.6418L3.31167 30.4382C3.0409 30.5951 2.84669 30.8472 2.76453 31.1497C2.68423 31.4522 2.72532 31.7678 2.88218 32.0385C3.09132 32.4008 3.47974 32.6249 3.89803 32.6249H3.89989Z" fill="#043065"/>
<path d="M4.78481 22.5318C5.43092 22.5318 5.95752 22.007 5.95752 21.3591C5.95752 20.7111 5.43092 20.1863 4.78481 20.1863H1.19198C0.545865 20.1863 0.0192647 20.7111 0.0192647 21.3591C0.0192647 22.007 0.545865 22.5318 1.19198 22.5318H4.78481Z" fill="#043065"/>
<path d="M7.00709 14.235C7.42538 14.235 7.81566 14.0109 8.02294 13.6486C8.34599 13.0884 8.15365 12.3695 7.59344 12.0464L4.4824 10.2519C4.30313 10.1492 4.10145 10.0931 3.89791 10.0931C3.47961 10.0931 3.0912 10.3172 2.88205 10.6795C2.72519 10.9503 2.68411 11.2659 2.76441 11.5684C2.84471 11.8709 3.03892 12.123 3.30968 12.2798L6.42073 14.0763C6.59813 14.179 6.80168 14.2331 7.00522 14.2331L7.00709 14.235Z" fill="#043065"/>
<path d="M13.0837 8.16043C13.2872 8.16043 13.4908 8.10627 13.6682 8.00357C14.2284 7.68051 14.4207 6.96157 14.0976 6.40136L12.3031 3.29031C12.094 2.92804 11.7055 2.70209 11.2872 2.70209C11.0837 2.70209 10.8802 2.75624 10.7028 2.86081C10.1425 3.18387 9.9502 3.90281 10.2733 4.46302L12.0697 7.57407C12.2788 7.93634 12.6672 8.16043 13.0855 8.16043H13.0837Z" fill="#043065"/>
<path d="M33.6582 22.81C33.4042 25.0695 32.5284 27.1871 31.0887 29.0097C29.606 30.8882 28.5901 32.7089 27.9683 34.5726L27.7143 35.3214C27.6004 35.6743 27.2624 35.9152 26.8946 35.9152H15.8658C15.4849 35.9152 15.16 35.6743 15.0461 35.3214L14.7921 34.5726C14.1852 32.75 13.2104 30.9853 11.7987 29.1777C10.6839 27.751 9.82116 26.1283 9.38419 24.3618C9.25721 23.8389 9.15824 23.316 9.10221 22.8081H33.6582V22.81Z" fill="#043065"/>
<path d="M9.83601 18.5449L12.3775 18.177C12.6595 17.4992 12.7304 17.3162 13.0124 16.6383L11.4737 14.5767C11.2197 14.2387 11.2608 13.7439 11.5577 13.447L13.8173 11.1875C14.1272 10.8775 14.609 10.8476 14.962 11.1034L17.0086 12.6291C17.6865 12.3471 17.8695 12.2761 18.5473 11.9942L18.9152 9.46574C18.9861 9.02877 19.3522 8.71692 19.776 8.71692H22.9823C23.4062 8.71692 23.7741 9.0269 23.8432 9.46574L24.2111 11.9942C24.8889 12.2761 25.0719 12.3471 25.7498 12.6291L27.7964 11.1034C28.1494 10.8495 28.6293 10.8775 28.9411 11.1875L31.2007 13.447C31.4976 13.7439 31.5386 14.2369 31.2847 14.5767L29.746 16.6383C30.0279 17.3162 30.0989 17.4992 30.3809 18.177L32.9224 18.5449C33.3463 18.6009 33.6562 18.9688 33.6562 19.4058V21.3553H26.1998C26.2148 21.2433 26.2148 21.1144 26.2148 21.0024C26.2148 18.3339 24.0542 16.1584 21.3708 16.1584C18.6874 16.1584 16.5418 18.3339 16.5418 21.0024C16.5418 21.1163 16.5418 21.2433 16.5567 21.3553H9.10026V19.4058C9.10026 18.9688 9.41211 18.6009 9.83414 18.5449H9.83601Z" fill="#00ACC1"/>
</g>
<defs>
<clipPath id="clip0_539_2359">
<rect width="42.7181" height="47.76" fill="white" transform="matrix(-1 0 0 1 42.7393 0)"/>
</clipPath>
</defs>
</svg>
