<svg width="183" height="214" viewBox="0 0 183 214" fill="none" xmlns="http://www.w3.org/2000/svg">
<path d="M155.069 23.0354V199.17C155.069 205.484 149.948 210.605 143.633 210.605H14.83C8.51588 210.605 3.39478 205.484 3.39478 199.17V14.83C3.39478 8.51588 8.51588 3.39478 14.83 3.39478H174.564" stroke="#2A9DE0" stroke-width="5" stroke-linecap="round" stroke-linejoin="round"/>
<path d="M214.427 156.068H168.948" stroke="#2A9DE0" stroke-width="5" stroke-linecap="round" stroke-linejoin="round"/>
<path d="M174.554 3.39478C163.788 3.39478 155.059 12.1239 155.059 22.8899" stroke="#2A9DE0" stroke-width="5" stroke-linecap="round" stroke-linejoin="round"/>
<path d="M213.273 27.8946H232.496V136.844C232.496 147.465 223.893 156.068 213.273 156.068C202.652 156.068 194.049 147.465 194.049 136.844V22.8899C194.049 12.1239 185.32 3.39478 174.554 3.39478" stroke="#2A9DE0" stroke-width="5" stroke-linecap="round" stroke-linejoin="round"/>
<path d="M20.4167 41.3472H77.9225" stroke="#2A9DE0" stroke-width="5" stroke-linecap="round" stroke-linejoin="round"/>
<path d="M102.112 41.3472H135.865" stroke="#2A9DE0" stroke-width="5" stroke-linecap="round" stroke-linejoin="round"/>
<path d="M20.4167 70.6479H69.9304" stroke="#2A9DE0" stroke-width="5" stroke-linecap="round" stroke-linejoin="round"/>
<path d="M104.207 70.6479H135.865" stroke="#2A9DE0" stroke-width="5" stroke-linecap="round" stroke-linejoin="round"/>
<path d="M20.4167 99.9585H135.865" stroke="#2A9DE0" stroke-width="5" stroke-linecap="round" stroke-linejoin="round"/>
<path d="M111.442 162.453C120.975 158.506 125.5 147.58 121.551 138.049C117.601 128.518 106.672 123.991 97.1399 127.938C87.6077 131.885 83.0821 142.81 87.0316 152.341C90.9811 161.872 101.91 166.399 111.442 162.453Z" stroke="#2A9DE0" stroke-width="5" stroke-linecap="round" stroke-linejoin="round"/>
<path d="M118.658 170.5V192.875L104.294 182.013L89.9104 192.875V170.5" stroke="#2A9DE0" stroke-width="5" stroke-linecap="round" stroke-linejoin="round"/>
<path d="M27.2737 144.206H61.4532" stroke="#2A9DE0" stroke-width="5" stroke-linecap="round" stroke-linejoin="round"/>
<path d="M27.2734 175.184H61.4529" stroke="#2A9DE0" stroke-width="5" stroke-linecap="round" stroke-linejoin="round"/>
</svg>
