<svg width="172" height="230" viewBox="0 0 172 230" fill="none" xmlns="http://www.w3.org/2000/svg">
<g clip-path="url(#clip0_1_17339)">
<path d="M223.329 107.299V213.334C223.329 220.672 217.393 226.63 210.061 226.63H25.9301C18.6069 226.63 12.6616 220.682 12.6616 213.334V107.299H223.319H223.329Z" stroke="#AAB2D1" stroke-width="5" stroke-linecap="round" stroke-linejoin="round"/>
<path d="M12.6711 107.299L3.37256 14.1173C3.37256 8.1884 9.30821 3.37964 16.6411 3.37964H219.359C226.682 3.37964 232.627 8.1884 232.627 14.1173L223.329 107.299" stroke="#AAB2D1" stroke-width="5" stroke-linecap="round" stroke-linejoin="round"/>
<path d="M64.8684 159.597C58.5762 159.597 53.2283 154.972 52.3033 148.734C51.754 145.016 51.754 141.241 52.3033 137.523C53.2283 131.285 58.5666 126.66 64.8684 126.66C71.1605 126.66 76.5084 131.285 77.4335 137.523C77.9827 141.241 77.9827 145.016 77.4335 148.734C76.5084 154.972 71.1702 159.597 64.8684 159.597Z" stroke="#AAB2D1" stroke-width="5" stroke-linecap="round" stroke-linejoin="round"/>
<path d="M81.3069 164.145L85.6816 164.676C86.7415 164.802 87.7244 165.188 88.5723 165.787C89.4203 166.376 90.114 167.177 90.6055 168.123C91.8003 170.47 92.7061 172.932 93.3131 175.472C93.3131 175.501 93.3228 175.52 93.3324 175.549C94.3441 179.807 92.0797 184.172 88.0616 185.891L86.597 186.518C72.7214 192.438 57.0247 192.438 43.1491 186.518L41.6749 185.891C37.6567 184.172 35.3923 179.807 36.4041 175.549C36.4041 175.52 36.4137 175.501 36.4234 175.472C37.0304 172.932 37.9362 170.46 39.131 168.123C40.0946 166.221 41.935 164.937 44.0453 164.676L48.4199 164.145" stroke="#AAB2D1" stroke-width="5" stroke-linecap="round" stroke-linejoin="round"/>
<path d="M38.8708 209.771H90.856" stroke="#AAB2D1" stroke-width="5" stroke-linecap="round" stroke-linejoin="round"/>
<path d="M115.668 171.31H146.609" stroke="#AAB2D1" stroke-width="5" stroke-linecap="round" stroke-linejoin="round"/>
<path d="M115.668 190.96H130.122" stroke="#AAB2D1" stroke-width="5" stroke-linecap="round" stroke-linejoin="round"/>
<path d="M115.668 210.62H146.609" stroke="#AAB2D1" stroke-width="5" stroke-linecap="round" stroke-linejoin="round"/>
<path d="M115.668 143.133H199.837" stroke="#AAB2D1" stroke-width="5" stroke-linecap="round" stroke-linejoin="round"/>
<path d="M115.668 126.669H159.135" stroke="#AAB2D1" stroke-width="5" stroke-linecap="round" stroke-linejoin="round"/>
<path d="M199.837 171.31H164.792V210.62H199.837V171.31Z" stroke="#AAB2D1" stroke-width="5" stroke-linecap="round" stroke-linejoin="round"/>
<path d="M113.182 73.7729C115.918 77.3167 120.727 79.6728 126.209 79.6728C134.718 79.6728 141.627 73.9949 141.627 66.9942C141.627 60.3604 135.421 55.1365 127.549 54.364H127.559C120.399 53.8522 114.781 48.9082 114.781 42.8925C114.781 36.5291 121.045 31.3823 128.782 31.3823C133.687 31.3823 138.004 33.4584 140.509 36.6063" stroke="#AAB2D1" stroke-width="5" stroke-linecap="round" stroke-linejoin="round"/>
<path d="M79.3507 31.3728L62.835 79.8757L46.3289 31.3728" stroke="#AAB2D1" stroke-width="5" stroke-linecap="round" stroke-linejoin="round"/>
<path d="M98.9788 31.3728V79.8757" stroke="#AAB2D1" stroke-width="5" stroke-linecap="round" stroke-linejoin="round"/>
<path d="M189.671 79.8757L171.883 31.3728L154.105 79.8757" stroke="#AAB2D1" stroke-width="5" stroke-linecap="round" stroke-linejoin="round"/>
<path d="M183.234 62.3208H160.542" stroke="#AAB2D1" stroke-width="5" stroke-linecap="round" stroke-linejoin="round"/>
</g>
<defs>
<clipPath id="clip0_1_17339">
<rect width="236" height="230" fill="white"/>
</clipPath>
</defs>
</svg>
