<svg width="229" height="254" viewBox="0 0 229 254" fill="none" xmlns="http://www.w3.org/2000/svg">
<g clip-path="url(#clip0_12_9630)">
<path d="M78.582 126.025C82.6635 136.607 89.1551 145.091 97.0225 149.979" stroke="#B14444" stroke-width="5" stroke-linecap="round" stroke-linejoin="round"/>
<path d="M78.582 97.6483C79.5598 88.6202 84.7895 79.8984 92.4749 75.0327C106.845 81.7584 123.103 83.3349 138.508 79.5014L138.644 79.4674C137.985 83.1308 138.189 86.8169 139.179 90.2761" stroke="#B14444" stroke-width="5" stroke-linecap="round" stroke-linejoin="round"/>
<path d="M64.9277 97.2286V97.1832C64.7231 92.9981 64.9618 88.2799 66.0646 83.2555C66.4852 81.3387 73.5112 51.3396 99.3529 44.9428C113.143 41.5176 129.014 45.6347 138.792 56.0124C141.577 58.9613 143.396 61.9102 144.544 64.0992C144.76 64.1899 145.136 64.4281 145.636 64.7797C152.98 69.9062 157.46 78.3218 157.948 87.3726" stroke="#B14444" stroke-width="5" stroke-linecap="round" stroke-linejoin="round"/>
<path d="M193.829 199.248L202.367 275.125" stroke="#B14444" stroke-width="5" stroke-linecap="round" stroke-linejoin="round"/>
<path d="M28.5929 199.248L20.0435 275.125" stroke="#B14444" stroke-width="5" stroke-linecap="round" stroke-linejoin="round"/>
<path d="M64.7803 169.85L86.7337 164.939C91.6678 163.839 96.8407 164.474 101.354 166.754C107.539 169.861 114.826 169.873 121.011 166.765L121.079 166.731C125.593 164.474 130.743 163.839 135.666 164.939L157.642 169.85" stroke="#B14444" stroke-width="5" stroke-linecap="round" stroke-linejoin="round"/>
<path d="M50.9782 242.733L48.6817 187.464C48.568 185.513 49.7049 183.834 51.1601 183.834H171.193C172.649 183.834 173.786 185.513 173.672 187.464L171.375 242.733" stroke="#B14444" stroke-width="5" stroke-linecap="round" stroke-linejoin="round"/>
<path d="M47.8062 276.032C44.6002 274.093 42.4287 270.35 42.4287 266.051V255.175H179.913V266.051C179.913 270.35 177.742 274.093 174.524 276.032" stroke="#B14444" stroke-width="5" stroke-linecap="round" stroke-linejoin="round"/>
<path d="M68.6341 96.3212H74.9552C76.9107 96.3212 78.491 97.909 78.491 99.8485V122.498C78.491 124.449 76.8993 126.025 74.9552 126.025H68.6341C63.9955 126.025 60.2324 122.271 60.2324 117.644V104.691C60.2324 100.064 63.9955 96.3098 68.6341 96.3098V96.3212Z" stroke="#B14444" stroke-width="5" stroke-linecap="round" stroke-linejoin="round"/>
<path d="M154.22 126.025H147.899C145.943 126.025 144.363 124.437 144.363 122.498V99.8484C144.363 97.8976 145.955 96.3211 147.899 96.3211H154.22C158.858 96.3211 162.622 100.075 162.622 104.703V117.655C162.622 122.282 158.858 126.037 154.22 126.037V126.025Z" stroke="#B14444" stroke-width="5" stroke-linecap="round" stroke-linejoin="round"/>
<path d="M125.274 141.258L130.083 143.038C131.812 143.685 133.551 144.093 135.29 144.297C146.171 145.59 156.789 138.706 159.597 127.579L160.791 122.861" stroke="#B14444" stroke-width="5" stroke-linecap="round" stroke-linejoin="round"/>
<path d="M122.764 132.313L112.614 129.613C110.084 128.94 107.486 130.441 106.812 132.964L105.377 138.334C104.702 140.858 106.206 143.45 108.736 144.123L118.886 146.823C121.416 147.496 124.014 145.995 124.688 143.471L126.124 138.101C126.798 135.578 125.294 132.986 122.764 132.313Z" stroke="#B14444" stroke-width="5" stroke-linecap="round" stroke-linejoin="round"/>
<path d="M282.166 29.9714H180.88C177.64 29.9714 175.025 32.5914 175.025 35.8125V100.404C175.025 103.637 177.651 106.245 180.88 106.245H189.168C189.827 106.245 190.373 106.778 190.373 107.447V127.33C190.373 129.054 192.397 130.006 193.727 128.895L219.887 107.232C220.66 106.585 221.638 106.234 222.649 106.234H282.177C285.417 106.234 288.032 103.614 288.032 100.393V35.8125C288.032 32.5801 285.406 29.9714 282.177 29.9714H282.166Z" stroke="#B14444" stroke-width="5" stroke-linecap="round" stroke-linejoin="round"/>
<path d="M203.3 56.5454H259.747" stroke="#B14444" stroke-width="5" stroke-linecap="round" stroke-linejoin="round"/>
<path d="M203.3 79.6714H259.747" stroke="#B14444" stroke-width="5" stroke-linecap="round" stroke-linejoin="round"/>
</g>
<defs>
<clipPath id="clip0_12_9630">
<rect width="292" height="254" fill="white"/>
</clipPath>
</defs>
</svg>
