<svg width="188" height="239" viewBox="0 0 188 239" fill="none" xmlns="http://www.w3.org/2000/svg">
<path d="M151.671 121.867L159.461 118.526C160.773 117.971 162.287 118.193 163.366 119.122L169.825 124.603C172.065 126.51 175.526 125.208 175.96 122.301L176.081 121.514C176.233 120.555 175.991 119.566 175.425 118.778L169.986 111.147C169.361 110.259 169.149 109.148 169.401 108.099L173.024 92.8161C173.579 90.454 176.203 89.2427 178.362 90.3329L193.126 97.8127C193.67 98.0852 194.256 98.2165 194.811 98.2165C196.587 98.2165 198.242 96.9446 198.524 95.0267C198.716 93.775 198.262 92.5132 197.324 91.6754L177.918 74.2529C176.98 73.415 176.536 72.1533 176.717 70.9117L177.282 67.1566C177.827 63.5732 177.413 59.909 176.081 56.5376L173.68 50.4205C173.044 48.8155 170.905 48.4925 169.835 49.8451L165.102 55.7704C163.255 58.082 162.055 60.8478 161.611 63.7751L160.894 68.5194C160.702 69.771 159.905 70.841 158.755 71.376L152.972 74.0409" stroke="#AAB2D1" stroke-width="5" stroke-linecap="round" stroke-linejoin="round"/>
<path d="M149.844 87.2542L153.588 86.6082C155.979 86.1943 158.129 88.1324 157.957 90.555L156.908 106.231C156.837 107.301 156.302 108.291 155.445 108.947L152.599 111.137" stroke="#AAB2D1" stroke-width="5" stroke-linecap="round" stroke-linejoin="round"/>
<path d="M131.952 3.53296L161.56 7.288C163.326 7.51007 164.719 8.94344 164.83 10.72C165.263 18.4522 171.167 25.0134 179.119 26.0228C187.081 27.0322 194.437 22.1567 196.789 14.7779C197.334 13.072 199.039 12.0323 200.805 12.2543L230.413 16.0094C232.471 16.2718 233.924 18.1493 233.662 20.2086L214.519 171.379L206.819 232.186C206.557 234.236 204.68 235.699 202.631 235.437L173.024 231.682C171.258 231.46 169.855 230.026 169.754 228.25C169.31 220.518 163.407 213.946 155.455 212.947C147.493 211.938 140.146 216.813 137.795 224.192C137.25 225.888 135.545 226.937 133.769 226.705L104.161 222.96" stroke="#AAB2D1" stroke-width="5" stroke-linecap="round" stroke-linejoin="round"/>
<path d="M214.519 171.379L158.704 164.313" stroke="#AAB2D1" stroke-width="5" stroke-linecap="round" stroke-linejoin="round"/>
<path d="M186.708 184.693L157.322 180.969" stroke="#AAB2D1" stroke-width="5" stroke-linecap="round" stroke-linejoin="round"/>
<path d="M184.366 203.125L158.704 199.875" stroke="#AAB2D1" stroke-width="5" stroke-linecap="round" stroke-linejoin="round"/>
<path d="M125.514 16.5242H13.6425C8.48727 16.5242 4.30811 20.7045 4.30811 25.8613V198.351C4.30811 203.507 8.48727 207.688 13.6425 207.688H125.514C130.67 207.688 134.849 203.507 134.849 198.351V25.8613C134.849 20.7045 130.67 16.5242 125.514 16.5242Z" stroke="#AAB2D1" stroke-width="5" stroke-linecap="round" stroke-linejoin="round"/>
<path d="M79.7936 149.863C104.733 144.218 120.376 119.418 114.733 94.4714C109.089 69.5246 84.2971 53.8773 59.3575 59.5222C34.418 65.1671 18.7752 89.9665 24.4184 114.913C30.0617 139.86 54.854 155.507 79.7936 149.863Z" stroke="#AAB2D1" stroke-width="5" stroke-linecap="round" stroke-linejoin="round"/>
<path d="M69.5779 150.999C80.1447 150.999 88.7109 130.264 88.7109 104.687C88.7109 79.1094 80.1447 58.3748 69.5779 58.3748C59.011 58.3748 50.4448 79.1094 50.4448 104.687C50.4448 130.264 59.011 150.999 69.5779 150.999Z" stroke="#AAB2D1" stroke-width="5" stroke-linecap="round" stroke-linejoin="round"/>
<path d="M24.793 92.927H51.0807H88.0854H114.373" stroke="#AAB2D1" stroke-width="5" stroke-linecap="round" stroke-linejoin="round"/>
<path d="M24.7932 116.447H51.081H88.0856H114.373" stroke="#AAB2D1" stroke-width="5" stroke-linecap="round" stroke-linejoin="round"/>
<path d="M23.6023 165.898H115.554" stroke="#AAB2D1" stroke-width="5" stroke-linecap="round" stroke-linejoin="round"/>
<path d="M23.6023 40.0132H115.554" stroke="#AAB2D1" stroke-width="5" stroke-linecap="round" stroke-linejoin="round"/>
<path d="M43.7847 184.098H95.3712" stroke="#AAB2D1" stroke-width="5" stroke-linecap="round" stroke-linejoin="round"/>
</svg>
