<svg width="116" height="194" viewBox="0 0 116 194" fill="none" xmlns="http://www.w3.org/2000/svg">
<g clip-path="url(#clip0_12_9658)">
<path d="M61.5731 171.003H12.5566C7.13286 171.003 2.73145 166.586 2.73145 161.143V28.349C2.73145 22.9063 7.13286 18.4895 12.5566 18.4895H102.372C107.796 18.4895 112.197 22.9063 112.197 28.349V62.9944" stroke="#E3E6F2" stroke-width="5" stroke-linecap="round" stroke-linejoin="round"/>
<path d="M96.3632 10.439C96.3632 5.53661 91.8604 1.88726 87.0922 2.91315L38.9575 10.7052" stroke="#E3E6F2" stroke-width="5" stroke-linecap="round" stroke-linejoin="round"/>
<path d="M87.6995 85.0298C96.8387 68.2713 90.7094 47.2512 74.0094 38.08C57.3094 28.9089 36.3625 35.0596 27.2233 51.818C18.0841 68.5765 24.2133 89.5966 40.9134 98.7678C57.6134 107.939 78.5603 101.788 87.6995 85.0298Z" stroke="#E3E6F2" stroke-width="5" stroke-linecap="round" stroke-linejoin="round"/>
<path d="M57.4604 33.8308C64.6323 33.8308 70.4462 49.321 70.4462 68.4214C70.4462 78.3357 68.8776 87.2711 66.3725 93.5753" stroke="#E3E6F2" stroke-width="5" stroke-linecap="round" stroke-linejoin="round"/>
<path d="M57.4603 103.012C50.2885 103.012 44.4746 87.5217 44.4746 68.4213C44.4746 60.5744 45.4579 53.3383 47.1045 47.5354" stroke="#E3E6F2" stroke-width="5" stroke-linecap="round" stroke-linejoin="round"/>
<path d="M33.1514 78.9465C36.3978 77.3019 40.2842 75.9863 44.6075 75.1092C44.6388 75.1014 44.6778 75.0935 44.709 75.0857C48.65 74.2947 52.9499 73.8562 57.4606 73.8562C61.9713 73.8562 66.2634 74.2947 70.2044 75.0857C70.2356 75.0935 70.2747 75.1014 70.3059 75.1092C78.2191 76.7224 84.6729 79.7923 88.411 83.6609" stroke="#E3E6F2" stroke-width="5" stroke-linecap="round" stroke-linejoin="round"/>
<path d="M81.3719 58.0921C78.2113 59.6426 74.4654 60.8878 70.3137 61.7258C70.2747 61.7336 70.2435 61.7414 70.2045 61.7492C66.2635 62.548 61.9713 62.9866 57.4685 62.9866C52.9656 62.9866 48.6656 62.548 44.7246 61.7492C44.6856 61.7414 44.6544 61.7336 44.6154 61.7258C36.7022 60.1125 30.2483 57.0505 26.5103 53.1819" stroke="#E3E6F2" stroke-width="5" stroke-linecap="round" stroke-linejoin="round"/>
<path d="M28.6875 126.052H62.8843" stroke="#E3E6F2" stroke-width="5" stroke-linecap="round" stroke-linejoin="round"/>
<path d="M28.6875 146.499H81.4421" stroke="#E3E6F2" stroke-width="5" stroke-linecap="round" stroke-linejoin="round"/>
<path d="M85.3906 177.174V171.355C85.3906 166.954 88.9492 163.383 93.335 163.383H128.016C132.043 163.383 135.375 166.39 135.89 170.29" stroke="#E3E6F2" stroke-width="5" stroke-linecap="round" stroke-linejoin="round"/>
<path d="M92.0708 107.084C97.159 100.107 103.285 93.9512 110.238 88.8452" stroke="#E3E6F2" stroke-width="5" stroke-linecap="round" stroke-linejoin="round"/>
<path d="M130.17 109.308C125.121 116.176 119.057 122.238 112.182 127.273" stroke="#E3E6F2" stroke-width="5" stroke-linecap="round" stroke-linejoin="round"/>
<path d="M120.848 75.5937L117.995 78.4566C115.837 80.6219 115.837 84.1325 117.995 86.2978L133.744 102.102C135.901 104.267 139.4 104.267 141.558 102.102L144.41 99.2389C146.568 97.0737 146.568 93.5631 144.41 91.3978L128.661 75.5937C126.504 73.4285 123.005 73.4285 120.848 75.5937Z" stroke="#E3E6F2" stroke-width="5" stroke-linecap="round" stroke-linejoin="round"/>
<path d="M81.7207 114.85L78.8678 117.712C76.7101 119.878 76.7101 123.388 78.8678 125.554L94.6168 141.358C96.7745 143.523 100.273 143.523 102.431 141.358L105.284 138.495C107.441 136.33 107.441 132.819 105.284 130.654L89.5345 114.85C87.3768 112.684 83.8785 112.684 81.7207 114.85Z" stroke="#E3E6F2" stroke-width="5" stroke-linecap="round" stroke-linejoin="round"/>
<path d="M139.597 145.144L117.527 123.005" stroke="#E3E6F2" stroke-width="5" stroke-linecap="round" stroke-linejoin="round"/>
<path d="M146.16 193.259V187.166C146.16 182.193 142.149 178.168 137.193 178.168H84.1576C79.2021 178.168 75.1909 182.193 75.1909 187.166V193.259H146.152H146.16Z" stroke="#E3E6F2" stroke-width="5" stroke-linecap="round" stroke-linejoin="round"/>
</g>
<defs>
<clipPath id="clip0_12_9658">
<rect width="185" height="196" fill="white"/>
</clipPath>
</defs>
</svg>
