<svg width="358" height="175" viewBox="0 0 358 175" fill="none" xmlns="http://www.w3.org/2000/svg">
<g clip-path="url(#clip0_1_16698)">
<path d="M20.6396 71.3709V39.607C20.6396 36.6463 18.231 34.2396 15.2723 34.2396H-14V41.2282C-9.07464 42.1372 -5.74539 47.3405 -5.74539 55.3886C-5.74539 63.4367 -9.07464 68.8079 -14 69.7439V76.7363H15.2723C18.2329 76.7363 20.6396 74.3277 20.6396 71.369V71.3709ZM5.58371 69.8925C2.35289 69.8925 -0.45719 68.3022 -2.46825 65.7662L-0.71581 63.3382C0.94206 65.413 3.24262 66.7814 5.63582 66.7814C8.65627 66.7814 10.4473 64.9652 10.4473 62.2652C10.4473 59.4281 8.77979 58.521 6.60661 57.3765L3.30052 55.6163C1.15629 54.5123 -1.36043 52.5476 -1.36043 48.4618C-1.36043 44.376 1.70441 41.0853 5.88672 41.0853C8.61574 41.0853 11.0475 42.5116 12.6649 44.5285L11.1112 46.8001C9.7004 45.1924 8.01358 44.1946 5.88672 44.1946C3.30438 44.1946 1.5944 45.7656 1.5944 48.2514C1.5944 50.9283 3.6016 51.93 5.40422 52.8506L8.68522 54.5645C11.3486 55.9463 13.4272 57.8628 13.4272 61.995C13.4272 66.3857 10.4222 69.8925 5.58178 69.8925H5.58371Z" fill="#F4D2D4"/>
<path d="M22.5889 71.3709V39.607C22.5889 35.5714 19.306 32.2885 15.2723 32.2885H-14V34.2378H15.2723C18.2329 34.2378 20.6396 36.6464 20.6396 39.6051V71.369C20.6396 74.3296 18.231 76.7364 15.2723 76.7364H-14V78.6856H15.2723C19.3079 78.6856 22.5889 75.4027 22.5889 71.3671V71.3709Z" fill="#10232B"/>
<path d="M8.68521 54.5646L5.40421 52.8507C3.60159 51.9301 1.59439 50.9304 1.59439 48.2515C1.59439 45.7657 3.30437 44.1947 5.88671 44.1947C8.01357 44.1947 9.70039 45.1925 11.1112 46.8002L12.6649 44.5286C11.0475 42.5117 8.61573 41.0854 5.88671 41.0854C1.7044 41.0854 -1.36044 44.2159 -1.36044 48.4619C-1.36044 52.7079 1.15628 54.5125 3.30051 55.6164L6.6066 57.3766C8.77978 58.523 10.4473 59.4282 10.4473 62.2653C10.4473 65.1024 8.65626 66.7815 5.63581 66.7815C3.24261 66.7815 0.942049 65.4131 -0.715821 63.3383L-2.46826 65.7663C-0.457202 68.3004 2.35288 69.8926 5.5837 69.8926C10.4241 69.8926 13.4291 66.3858 13.4291 61.9951C13.4291 57.8629 11.3505 55.9464 8.68714 54.5646H8.68521Z" fill="#10232B"/>
<path d="M4.79056 20.7374L-1.86987 27.3979C-2.25008 27.7781 -2.25008 28.3957 -1.86987 28.7759C-1.6788 28.9669 -1.42983 29.0615 -1.18086 29.0615C-0.931892 29.0615 -0.680992 28.9669 -0.491852 28.7759L6.16858 22.1154C6.54879 21.7352 6.54879 21.1176 6.16858 20.7374C5.78837 20.3572 5.17077 20.3572 4.79056 20.7374Z" fill="#10232B"/>
<path d="M334.305 39.607V71.3709C334.305 74.3315 336.714 76.7382 339.673 76.7382H372V69.7458C371.489 69.8423 370.96 69.8925 370.415 69.8925C364.633 69.8925 360.576 64.2897 360.576 55.3886C360.576 46.4874 364.633 41.0853 370.415 41.0853C370.96 41.0853 371.489 41.1336 372 41.2282V34.2396H339.673C336.712 34.2396 334.305 36.6483 334.305 39.607ZM350.592 57.3765L347.286 55.6163C345.142 54.5123 342.625 52.5476 342.625 48.4618C342.625 44.376 345.69 41.0853 349.873 41.0853C352.602 41.0853 355.033 42.5116 356.651 44.5285L355.097 46.8001C353.686 45.1924 351.999 44.1946 349.873 44.1946C347.29 44.1946 345.58 45.7656 345.58 48.2514C345.58 50.9283 347.587 51.93 349.39 52.8506L352.671 54.5645C355.334 55.9463 357.413 57.8628 357.413 61.995C357.413 66.3857 354.408 69.8925 349.568 69.8925C346.337 69.8925 343.527 68.3022 341.516 65.7662L343.268 63.3382C344.926 65.413 347.227 66.7814 349.62 66.7814C352.64 66.7814 354.431 64.9652 354.431 62.2652C354.431 59.4281 352.764 58.521 350.591 57.3765H350.592Z" fill="#F4D2D4"/>
<path d="M332.356 39.6071V71.371C332.356 75.4066 335.639 78.6896 339.673 78.6896H372V76.7402H339.673C336.712 76.7402 334.305 74.3316 334.305 71.3729V39.609C334.305 36.6484 336.714 34.2417 339.673 34.2417H372V32.2924H339.673C335.637 32.2924 332.356 35.5753 332.356 39.6109V39.6071Z" fill="#10232B"/>
<path d="M349.62 66.7833C347.226 66.7833 344.926 65.4149 343.268 63.3402L341.516 65.7681C343.527 68.3022 346.337 69.8945 349.568 69.8945C354.408 69.8945 357.413 66.3876 357.413 61.9969C357.413 57.8648 355.334 55.9483 352.671 54.5664L349.39 52.8526C347.587 51.932 345.58 50.9322 345.58 48.2534C345.58 45.7675 347.29 44.1965 349.873 44.1965C351.999 44.1965 353.686 45.1943 355.097 46.802L356.651 44.5304C355.033 42.5135 352.602 41.0873 349.873 41.0873C345.69 41.0873 342.625 44.2177 342.625 48.4637C342.625 52.7097 345.142 54.5143 347.286 55.6183L350.592 57.3784C352.766 58.5248 354.433 59.43 354.433 62.2671C354.433 65.1042 352.642 66.7833 349.622 66.7833H349.62Z" fill="#10232B"/>
<path d="M357.948 28.7778C358.139 28.9689 358.388 29.0634 358.637 29.0634C358.886 29.0634 359.137 28.9689 359.326 28.7778C359.706 28.3976 359.706 27.78 359.326 27.3998L352.133 20.2067C351.752 19.8265 351.135 19.8265 350.755 20.2067C350.374 20.5869 350.374 21.2045 350.755 21.5847L357.948 28.7778Z" fill="#10232B"/>
<path d="M148.954 76.7382H210.552C213.512 76.7382 215.919 74.3296 215.919 71.3709V39.607C215.919 36.6463 213.51 34.2396 210.552 34.2396H148.954C145.993 34.2396 143.586 36.6483 143.586 39.607V71.3709C143.586 74.3315 145.995 76.7382 148.954 76.7382ZM201.888 57.3765L198.582 55.6163C196.438 54.5123 193.921 52.5476 193.921 48.4618C193.921 44.376 196.986 41.0853 201.168 41.0853C203.897 41.0853 206.329 42.5116 207.946 44.5285L206.392 46.8001C204.982 45.1924 203.295 44.1946 201.168 44.1946C198.586 44.1946 196.876 45.7656 196.876 48.2514C196.876 50.9283 198.883 51.93 200.685 52.8506L203.966 54.5645C206.63 55.9463 208.708 57.8628 208.708 61.995C208.708 66.3857 205.703 69.8925 200.863 69.8925C197.632 69.8925 194.822 68.3022 192.811 65.7662L194.564 63.3382C196.221 65.413 198.522 66.7814 200.915 66.7814C203.936 66.7814 205.727 64.9652 205.727 62.2652C205.727 59.4281 204.059 58.521 201.886 57.3765H201.888ZM179.695 41.0853C185.477 41.0853 189.534 46.5028 189.534 55.3886C189.534 64.2743 185.477 69.8925 179.695 69.8925C173.913 69.8925 169.856 64.2897 169.856 55.3886C169.856 46.4874 173.913 41.0853 179.695 41.0853ZM159.872 57.3765L156.566 55.6163C154.421 54.5123 151.905 52.5476 151.905 48.4618C151.905 44.376 154.97 41.0853 159.152 41.0853C161.881 41.0853 164.313 42.5116 165.93 44.5285L164.376 46.8001C162.966 45.1924 161.279 44.1946 159.152 44.1946C156.57 44.1946 154.86 45.7656 154.86 48.2514C154.86 50.9283 156.867 51.93 158.669 52.8506L161.95 54.5645C164.614 55.9463 166.692 57.8628 166.692 61.995C166.692 66.3857 163.687 69.8925 158.847 69.8925C155.616 69.8925 152.806 68.3022 150.795 65.7662L152.547 63.3382C154.205 65.413 156.506 66.7814 158.899 66.7814C161.919 66.7814 163.711 64.9652 163.711 62.2652C163.711 59.4281 162.043 58.521 159.87 57.3765H159.872Z" fill="#F4D2D4"/>
<path d="M179.695 66.7833C183.806 66.7833 186.508 62.3115 186.508 55.3886C186.508 48.4657 183.804 44.1946 179.695 44.1946C175.586 44.1946 172.882 48.4657 172.882 55.3886C172.882 62.3115 175.586 66.7833 179.695 66.7833Z" fill="#F4D2D4"/>
<path d="M148.954 78.6876H210.552C214.587 78.6876 217.87 75.4046 217.87 71.369V39.6051C217.87 35.5694 214.587 32.2865 210.552 32.2865H148.954C144.918 32.2865 141.637 35.5694 141.637 39.6051V71.369C141.637 75.4046 144.92 78.6876 148.954 78.6876ZM143.587 39.607C143.587 36.6464 145.995 34.2397 148.954 34.2397H210.552C213.512 34.2397 215.919 36.6483 215.919 39.607V71.3709C215.919 74.3315 213.51 76.7383 210.552 76.7383H148.954C145.993 76.7383 143.587 74.3296 143.587 71.3709V39.607Z" fill="#10232B"/>
<path d="M158.899 66.7833C156.506 66.7833 154.205 65.4149 152.547 63.3402L150.795 65.7681C152.806 68.3022 155.616 69.8945 158.847 69.8945C163.687 69.8945 166.692 66.3876 166.692 61.9969C166.692 57.8648 164.614 55.9483 161.95 54.5664L158.669 52.8526C156.867 51.932 154.86 50.9322 154.86 48.2534C154.86 45.7675 156.569 44.1965 159.152 44.1965C161.279 44.1965 162.966 45.1943 164.376 46.802L165.93 44.5304C164.313 42.5135 161.881 41.0873 159.152 41.0873C154.97 41.0873 151.905 44.2177 151.905 48.4637C151.905 52.7097 154.421 54.5143 156.566 55.6183L159.872 57.3784C162.045 58.5248 163.712 59.43 163.712 62.2671C163.712 65.1042 161.921 66.7833 158.901 66.7833H158.899Z" fill="#10232B"/>
<path d="M179.695 69.8926C185.477 69.8926 189.534 64.2898 189.534 55.3887C189.534 46.4875 185.477 41.0854 179.695 41.0854C173.913 41.0854 169.856 46.4875 169.856 55.3887C169.856 64.2898 173.913 69.8926 179.695 69.8926ZM179.695 44.1947C183.806 44.1947 186.508 48.4658 186.508 55.3887C186.508 62.3116 183.804 66.7834 179.695 66.7834C175.586 66.7834 172.882 62.3116 172.882 55.3887C172.882 48.4658 175.586 44.1947 179.695 44.1947Z" fill="#10232B"/>
<path d="M200.915 66.7833C198.522 66.7833 196.221 65.4149 194.563 63.3402L192.811 65.7681C194.822 68.3022 197.632 69.8945 200.863 69.8945C205.703 69.8945 208.708 66.3876 208.708 61.9969C208.708 57.8648 206.63 55.9483 203.966 54.5664L200.685 52.8526C198.883 51.932 196.876 50.9322 196.876 48.2534C196.876 45.7675 198.586 44.1965 201.168 44.1965C203.295 44.1965 204.982 45.1943 206.392 46.802L207.946 44.5304C206.329 42.5135 203.897 41.0873 201.168 41.0873C196.986 41.0873 193.921 44.2177 193.921 48.4637C193.921 52.7097 196.437 54.5143 198.582 55.6183L201.888 57.3784C204.061 58.5248 205.729 59.43 205.729 62.2671C205.729 65.1042 203.937 66.7833 200.917 66.7833H200.915Z" fill="#10232B"/>
<path d="M180.704 29.0634C181.243 29.0634 181.679 28.6273 181.679 28.0888V15.8738C181.679 15.3354 181.243 14.8992 180.704 14.8992C180.166 14.8992 179.729 15.3354 179.729 15.8738V28.0888C179.729 28.6273 180.166 29.0634 180.704 29.0634Z" fill="#10232B"/>
<path d="M167.229 28.7778C167.42 28.9689 167.669 29.0634 167.918 29.0634C168.167 29.0634 168.418 28.9689 168.607 28.7778C168.987 28.3976 168.987 27.78 168.607 27.3998L161.414 20.2067C161.034 19.8265 160.416 19.8265 160.036 20.2067C159.656 20.5869 159.656 21.2045 160.036 21.5847L167.229 28.7778Z" fill="#10232B"/>
<path d="M194.1 29.0635C194.349 29.0635 194.6 28.9689 194.789 28.7778L201.45 22.1174C201.83 21.7372 201.83 21.1196 201.45 20.7394C201.07 20.3592 200.452 20.3592 200.072 20.7394L193.411 27.3998C193.031 27.78 193.031 28.3976 193.411 28.7778C193.602 28.9689 193.851 29.0635 194.1 29.0635Z" fill="#10232B"/>
<path d="M18.4066 182.647C18.4066 178.411 14.9249 175 10.4801 174.885C10.4801 174.885 10.4782 174.885 10.4763 174.885C10.401 174.883 10.3238 174.883 10.2505 174.883H-14V190.085H18.4066V182.649V182.647Z" fill="#2A4050"/>
<path d="M20.3559 191.058V182.645C20.3559 180.09 19.333 177.675 17.4725 175.85C15.8513 174.257 13.7495 173.265 11.4799 173.001V173.908C11.4799 174.172 11.3737 174.423 11.1846 174.609C10.9954 174.792 10.7407 174.89 10.4763 174.883C10.4763 174.883 10.4782 174.883 10.4801 174.883C14.9249 175 18.4066 178.411 18.4066 182.645V190.081H-14V192.031H19.3813C19.9198 192.031 20.3559 191.594 20.3559 191.056V191.058Z" fill="#10232B"/>
<path d="M-7.37624 160.018V172.931H9.53056V154.662C9.53056 147.708 6.82277 141.171 1.90513 136.254C-2.41614 131.93 -7.99191 129.317 -14 128.748V152.072C-10.2384 152.759 -7.37624 156.059 -7.37624 160.018Z" fill="#F4D2D4"/>
<path d="M9.53054 154.662V172.931H-7.37626V173.906C-7.37626 174.445 -7.81244 174.881 -8.35091 174.881H10.2504C10.3238 174.881 10.4029 174.881 10.4762 174.883C10.7387 174.89 10.9954 174.792 11.1845 174.609C11.3737 174.425 11.4798 174.172 11.4798 173.908V154.662C11.4798 147.187 8.5694 140.16 3.28313 134.876C-1.4087 130.186 -7.47083 127.366 -14.002 126.791V128.748C-7.99386 129.317 -2.41809 131.932 1.90318 136.254C6.82082 141.171 9.52861 147.708 9.52861 154.662H9.53054Z" fill="#10232B"/>
<path d="M35.3058 150.808C35.3058 150.269 34.8696 149.833 34.3312 149.833H19.0552C18.5167 149.833 18.0806 150.269 18.0806 150.808C18.0806 151.346 18.5167 151.782 19.0552 151.782H34.3312C34.8696 151.782 35.3058 151.346 35.3058 150.808Z" fill="#10232B"/>
<path d="M21.0295 115.194C20.628 114.835 20.0124 114.869 19.6534 115.271L7.87652 128.455C7.51754 128.856 7.55228 129.472 7.95372 129.831C8.139 129.997 8.37253 130.078 8.6022 130.078C8.87047 130.078 9.13681 129.968 9.32981 129.752L21.1067 116.568C21.4656 116.166 21.4309 115.551 21.0295 115.192V115.194Z" fill="#10232B"/>
<path d="M343.513 174.881C343.218 174.881 342.909 174.898 342.593 174.931C342.581 174.931 342.571 174.931 342.56 174.931C338.455 175.384 335.359 178.694 335.359 182.643V190.079H372V174.877H343.513V174.881Z" fill="#2A4050"/>
<path d="M335.359 182.647C335.359 178.698 338.455 175.386 342.56 174.935C342.537 174.935 342.512 174.939 342.488 174.939C342.249 174.939 342.016 174.85 341.836 174.688C341.63 174.502 341.514 174.24 341.514 173.962V173.121C336.835 174.02 333.41 177.973 333.41 182.645V191.058C333.41 191.597 333.846 192.033 334.384 192.033H372V190.083H335.359V182.647Z" fill="#10232B"/>
<path d="M343.463 154.662V172.931C343.479 172.931 343.496 172.931 343.511 172.931H360.883V160.018C360.883 155.563 364.508 151.939 368.962 151.939H370.541C371.039 151.939 371.523 151.987 371.996 152.072V128.748C371.17 128.669 370.334 128.628 369.493 128.628C355.138 128.628 343.459 140.307 343.459 154.662H343.463ZM367.152 136.236C363.448 136.236 359.725 137.914 356.933 140.837C352.797 145.168 350.822 152.024 351.224 160.662C351.256 161.361 350.716 161.956 350.015 161.986C349.996 161.986 349.975 161.986 349.956 161.986C349.282 161.986 348.722 161.458 348.69 160.778C348.141 148.97 351.872 142.464 355.097 139.085C358.365 135.663 362.757 133.698 367.15 133.698C367.851 133.698 368.418 134.266 368.418 134.966C368.418 135.667 367.851 136.234 367.15 136.234L367.152 136.236Z" fill="#F4D2D4"/>
<path d="M341.514 154.662V173.962C341.514 174.238 341.631 174.502 341.836 174.688C342.015 174.85 342.249 174.939 342.488 174.939C342.511 174.939 342.537 174.937 342.56 174.935C342.571 174.935 342.581 174.935 342.593 174.935C342.909 174.902 343.218 174.885 343.513 174.885H361.862C361.323 174.885 360.887 174.448 360.887 173.91V172.935H343.515C343.5 172.935 343.482 172.935 343.467 172.935V154.666C343.467 140.311 355.145 128.632 369.501 128.632C370.342 128.632 371.176 128.673 372.004 128.752V126.795C371.176 126.721 370.342 126.683 369.501 126.683C354.07 126.683 341.518 139.236 341.518 154.666L341.514 154.662Z" fill="#10232B"/>
<path d="M367.152 133.702C362.759 133.702 358.367 135.665 355.099 139.089C351.874 142.468 348.143 148.972 348.691 160.782C348.722 161.461 349.284 161.99 349.958 161.99C349.977 161.99 349.998 161.99 350.017 161.99C350.716 161.957 351.256 161.365 351.226 160.666C350.826 152.028 352.798 145.172 356.934 140.841C359.727 137.917 363.45 136.24 367.154 136.24C367.854 136.24 368.422 135.673 368.422 134.972C368.422 134.272 367.854 133.704 367.154 133.704L367.152 133.702Z" fill="#FF7C64"/>
<path d="M334.384 149.833H319.108C318.57 149.833 318.134 150.269 318.134 150.808C318.134 151.346 318.57 151.782 319.108 151.782H334.384C334.923 151.782 335.359 151.346 335.359 150.808C335.359 150.269 334.923 149.833 334.384 149.833Z" fill="#10232B"/>
<path d="M344.109 129.755C344.302 129.972 344.569 130.082 344.837 130.082C345.069 130.082 345.3 130.001 345.486 129.835C345.887 129.476 345.922 128.86 345.563 128.458L333.786 115.275C333.427 114.873 332.811 114.838 332.41 115.197C332.008 115.556 331.974 116.172 332.333 116.574L344.109 129.757V129.755Z" fill="#10232B"/>
<path d="M205.53 174.881H152.792C152.497 174.881 152.188 174.898 151.872 174.931C151.86 174.931 151.851 174.931 151.839 174.931C147.734 175.384 144.638 178.694 144.638 182.643V190.079H213.686V182.643C213.686 178.407 210.204 174.997 205.759 174.881C205.759 174.881 205.757 174.881 205.755 174.881C205.68 174.879 205.603 174.879 205.53 174.879V174.881Z" fill="#2A4050"/>
<path d="M215.637 191.058V182.645C215.637 180.09 214.614 177.675 212.756 175.85C211.135 174.257 209.033 173.265 206.763 173.001V173.908C206.763 174.172 206.657 174.423 206.468 174.609C206.279 174.792 206.024 174.89 205.759 174.883C205.759 174.883 205.761 174.883 205.763 174.883C210.208 175 213.69 178.411 213.69 182.645V190.081H144.642V182.645C144.642 178.696 147.738 175.384 151.843 174.933C151.82 174.933 151.795 174.937 151.772 174.937C151.532 174.937 151.299 174.848 151.119 174.686C150.913 174.5 150.797 174.238 150.797 173.96V173.119C146.119 174.018 142.693 177.971 142.693 182.643V191.056C142.693 191.594 143.129 192.031 143.668 192.031H214.665C215.203 192.031 215.639 191.594 215.639 191.056L215.637 191.058Z" fill="#10232B"/>
<path d="M185.954 160.018C185.954 156.638 183.204 153.888 179.824 153.888H178.245C174.866 153.888 172.116 156.638 172.116 160.018V172.931H185.954V160.018Z" fill="#F4D2D4"/>
<path d="M178.245 151.939H179.824C184.279 151.939 187.903 155.563 187.903 160.018V172.931H204.81V154.662C204.81 147.708 202.102 141.171 197.185 136.254C192.267 131.336 185.73 128.628 178.776 128.628C164.421 128.628 152.742 140.307 152.742 154.662V172.931C152.758 172.931 152.775 172.931 152.791 172.931H170.163V160.018C170.163 155.563 173.787 151.939 178.242 151.939H178.245ZM160.503 160.662C160.536 161.361 159.995 161.956 159.295 161.986C159.275 161.986 159.254 161.986 159.235 161.986C158.561 161.986 158.002 161.458 157.969 160.778C157.421 148.97 161.151 142.464 164.376 139.085C167.644 135.663 172.037 133.698 176.429 133.698C177.13 133.698 177.697 134.266 177.697 134.966C177.697 135.667 177.13 136.234 176.429 136.234C172.728 136.234 169.003 137.912 166.21 140.836C162.074 145.166 160.1 152.022 160.501 160.66L160.503 160.662Z" fill="#F4D2D4"/>
<path d="M151.117 174.688C151.297 174.85 151.53 174.939 151.77 174.939C151.793 174.939 151.818 174.937 151.841 174.935C151.853 174.935 151.862 174.935 151.874 174.935C152.188 174.902 152.499 174.885 152.794 174.885H171.143C170.604 174.885 170.168 174.448 170.168 173.91V172.935H152.796C152.781 172.935 152.764 172.935 152.748 172.935V154.666C152.748 140.311 164.427 128.632 178.782 128.632C185.736 128.632 192.273 131.34 197.19 136.258C202.108 141.175 204.816 147.712 204.816 154.666V172.935H187.909V173.91C187.909 174.448 187.473 174.885 186.934 174.885H205.536C205.609 174.885 205.688 174.885 205.761 174.887C206.024 174.894 206.281 174.796 206.47 174.612C206.659 174.429 206.765 174.176 206.765 173.912V154.666C206.765 147.191 203.855 140.164 198.568 134.88C193.282 129.593 186.255 126.683 178.782 126.683C163.352 126.683 150.799 139.236 150.799 154.666V173.966C150.799 174.242 150.917 174.506 151.121 174.692L151.117 174.688Z" fill="#10232B"/>
<path d="M187.903 173.906V160.018C187.903 155.563 184.279 151.939 179.824 151.939H178.245C173.791 151.939 170.167 155.563 170.167 160.018V173.906C170.167 174.445 170.603 174.881 171.141 174.881H186.929C187.467 174.881 187.903 174.445 187.903 173.906ZM172.116 160.018C172.116 156.638 174.866 153.888 178.245 153.888H179.824C183.204 153.888 185.954 156.638 185.954 160.018V172.931H172.116V160.018Z" fill="#10232B"/>
<path d="M176.431 136.236C177.132 136.236 177.699 135.669 177.699 134.968C177.699 134.268 177.132 133.7 176.431 133.7C172.039 133.7 167.646 135.663 164.378 139.087C161.153 142.466 157.423 148.97 157.971 160.78C158.002 161.46 158.563 161.988 159.237 161.988C159.256 161.988 159.277 161.988 159.297 161.988C159.995 161.956 160.536 161.363 160.505 160.664C160.105 152.026 162.078 145.17 166.214 140.839C169.006 137.915 172.729 136.238 176.433 136.238L176.431 136.236Z" fill="#FF7C64"/>
<path d="M144.638 150.808C144.638 150.269 144.202 149.833 143.664 149.833H128.388C127.849 149.833 127.413 150.269 127.413 150.808C127.413 151.346 127.849 151.782 128.388 151.782H143.664C144.202 151.782 144.638 151.346 144.638 150.808Z" fill="#10232B"/>
<path d="M153.389 129.755C153.582 129.972 153.848 130.082 154.117 130.082C154.348 130.082 154.58 130.001 154.765 129.835C155.167 129.476 155.201 128.86 154.842 128.458L143.065 115.275C142.706 114.873 142.091 114.838 141.689 115.197C141.288 115.556 141.253 116.172 141.612 116.574L153.389 129.757V129.755Z" fill="#10232B"/>
<path d="M230.587 150.808C230.587 150.269 230.151 149.833 229.612 149.833H214.336C213.798 149.833 213.362 150.269 213.362 150.808C213.362 151.346 213.798 151.782 214.336 151.782H229.612C230.151 151.782 230.587 151.346 230.587 150.808Z" fill="#10232B"/>
<path d="M204.611 129.755L216.388 116.572C216.747 116.17 216.712 115.554 216.311 115.195C215.909 114.837 215.294 114.871 214.935 115.273L203.158 128.457C202.799 128.858 202.834 129.474 203.235 129.833C203.42 129.999 203.654 130.08 203.883 130.08C204.152 130.08 204.418 129.97 204.611 129.753V129.755Z" fill="#10232B"/>
<path d="M179.753 120.146V101.714C179.753 101.176 179.317 100.74 178.778 100.74C178.24 100.74 177.803 101.176 177.803 101.714V120.146C177.803 120.684 178.24 121.121 178.778 121.121C179.317 121.121 179.753 120.684 179.753 120.146Z" fill="#10232B"/>
<path d="M47.6636 69.5799V77.0162H116.711V69.5799C116.711 65.3436 113.23 61.9333 108.785 61.8175C108.785 61.8175 108.783 61.8175 108.781 61.8175C108.706 61.8155 108.628 61.8156 108.555 61.8156H55.8178C55.5225 61.8156 55.2137 61.8329 54.8972 61.8657C54.8856 61.8657 54.876 61.8657 54.8644 61.8657C50.7593 62.3193 47.6636 65.6292 47.6636 69.578V69.5799Z" fill="#2A4050"/>
<path d="M109.489 61.5434C109.3 61.7267 109.045 61.8251 108.781 61.8174C108.781 61.8174 108.783 61.8174 108.785 61.8174C113.229 61.9351 116.711 65.3455 116.711 69.5799V77.0162H47.6634V69.5799C47.6634 65.6311 50.7591 62.3192 54.8642 61.8676C54.8411 61.8676 54.816 61.8715 54.7928 61.8715C54.5535 61.8715 54.3219 61.7827 54.1405 61.6206C53.934 61.4353 53.8182 61.1728 53.8182 60.8949V60.0553C49.1399 60.9547 45.7141 64.9073 45.7141 69.5799V77.9928C45.7141 78.5312 46.1503 78.9674 46.6888 78.9674H117.686C118.224 78.9674 118.66 78.5312 118.66 77.9928V69.5799C118.66 67.0246 117.637 64.6101 115.777 62.7844C114.156 61.1921 112.054 60.2001 109.784 59.9357V60.8428C109.784 61.1072 109.678 61.36 109.489 61.5434Z" fill="#10232B"/>
<path d="M81.2686 38.8736H82.8474C87.3018 38.8736 90.9264 42.4982 90.9264 46.9526V59.8663H107.833V41.5969C107.833 34.6431 105.125 28.1062 100.208 23.1885C95.2901 18.2709 88.7532 15.5631 81.7994 15.5631C67.4441 15.5631 55.7656 27.2415 55.7656 41.5969V59.8663C55.7811 59.8663 55.7984 59.8663 55.8139 59.8663H73.1858V46.9526C73.1858 42.4982 76.8103 38.8736 81.2648 38.8736H81.2686ZM63.5262 47.5973C63.559 48.2959 63.0186 48.8903 62.318 48.9212C62.2987 48.9212 62.2774 48.9212 62.2581 48.9212C61.5846 48.9212 61.0249 48.3924 60.9921 47.7131C60.4439 35.9053 64.1746 29.3993 67.3997 26.0199C70.6672 22.598 75.0598 20.6332 79.4525 20.6332C80.1531 20.6332 80.7205 21.2006 80.7205 21.9012C80.7205 22.6018 80.1531 23.1692 79.4525 23.1692C75.7508 23.1692 72.0259 24.8464 69.2332 27.7704C65.0972 32.1013 63.1228 38.9566 63.5242 47.5953L63.5262 47.5973Z" fill="#F4D2D4"/>
<path d="M88.977 46.9526C88.977 43.5731 86.2268 40.8229 82.8473 40.8229H81.2686C77.8892 40.8229 75.1389 43.5731 75.1389 46.9526V59.8662H88.977V46.9526Z" fill="#F4D2D4"/>
<path d="M53.8184 60.0554V60.8949C53.8184 61.1709 53.9361 61.4353 54.1407 61.6206C54.3202 61.7827 54.5537 61.8715 54.793 61.8715C54.8162 61.8715 54.8413 61.8696 54.8644 61.8677C54.876 61.8677 54.8856 61.8677 54.8972 61.8677C55.2118 61.8348 55.5225 61.8175 55.8178 61.8175H74.1663C73.6279 61.8175 73.1917 61.3813 73.1917 60.8428V59.8682H55.8198C55.8043 59.8682 55.787 59.8682 55.7715 59.8682V41.5988C55.7715 27.2435 67.4499 15.565 81.8053 15.565C88.7591 15.565 95.296 18.2728 100.214 23.1905C105.131 28.1081 107.839 34.645 107.839 41.5988V59.8682H90.9323V60.8428C90.9323 61.3813 90.4961 61.8175 89.9576 61.8175H108.559C108.632 61.8175 108.711 61.8175 108.785 61.8194C109.047 61.8271 109.304 61.7287 109.493 61.5453C109.682 61.362 109.788 61.1092 109.788 60.8448V41.5988C109.788 34.1239 106.878 27.0968 101.592 21.8124C96.3054 16.5281 89.2782 13.6157 81.8053 13.6157C66.3749 13.6157 53.8222 26.1684 53.8222 41.5988V60.0592L53.8184 60.0554Z" fill="#10232B"/>
<path d="M90.9283 60.8409V46.9526C90.9283 42.4982 87.3038 38.8737 82.8494 38.8737H81.2706C76.8162 38.8737 73.1917 42.4982 73.1917 46.9526V60.8409C73.1917 61.3794 73.6278 61.8156 74.1663 61.8156H89.9537C90.4922 61.8156 90.9283 61.3794 90.9283 60.8409ZM75.139 46.9526C75.139 43.5732 77.8893 40.823 81.2687 40.823H82.8474C86.2269 40.823 88.9771 43.5732 88.9771 46.9526V59.8663H75.139V46.9526Z" fill="#10232B"/>
<path d="M79.4563 23.1712C80.1569 23.1712 80.7243 22.6037 80.7243 21.9031C80.7243 21.2026 80.1569 20.6351 79.4563 20.6351C75.0637 20.6351 70.671 22.5979 67.4035 26.0218C64.1785 29.4012 60.4478 35.9053 60.9959 47.715C61.0268 48.3943 61.5884 48.9231 62.262 48.9231C62.2813 48.9231 62.3025 48.9231 62.3218 48.9231C63.0205 48.8903 63.5609 48.2978 63.53 47.5992C63.1285 38.9605 65.1029 32.1051 69.2389 27.7742C72.0316 24.8503 75.7546 23.1731 79.4583 23.1731L79.4563 23.1712Z" fill="#FF7C64"/>
<path d="M31.4129 38.7172H46.6888C47.2273 38.7172 47.6635 38.2811 47.6635 37.7426C47.6635 37.2041 47.2273 36.7679 46.6888 36.7679H31.4129C30.8744 36.7679 30.4382 37.2041 30.4382 37.7426C30.4382 38.2811 30.8744 38.7172 31.4129 38.7172Z" fill="#10232B"/>
<path d="M56.4141 16.6902C56.6071 16.9064 56.8735 17.0164 57.1417 17.0164C57.3733 17.0164 57.6049 16.9354 57.7902 16.7694C58.1917 16.4104 58.2264 15.7947 57.8674 15.3933L46.0906 2.20946C45.7316 1.80802 45.1159 1.77328 44.7145 2.13226C44.313 2.49124 44.2783 3.10691 44.6373 3.50835L56.4141 16.6922V16.6902Z" fill="#10232B"/>
<path d="M116.385 37.7426C116.385 38.2811 116.821 38.7172 117.36 38.7172H132.636C133.174 38.7172 133.61 38.2811 133.61 37.7426C133.61 37.2041 133.174 36.7679 132.636 36.7679H117.36C116.821 36.7679 116.385 37.2041 116.385 37.7426Z" fill="#10232B"/>
<path d="M106.907 17.0144C107.175 17.0144 107.441 16.9044 107.634 16.6883L119.411 3.50444C119.77 3.103 119.736 2.48733 119.334 2.12835C118.933 1.76937 118.317 1.80411 117.958 2.20555L106.181 15.3894C105.822 15.7908 105.857 16.4065 106.258 16.7655C106.444 16.9314 106.677 17.0125 106.907 17.0125V17.0144Z" fill="#10232B"/>
<path d="M81.8013 8.05536C82.3398 8.05536 82.776 7.61918 82.776 7.08071V-11.3508C82.776 -11.8893 82.3398 -12.3254 81.8013 -12.3254C81.2628 -12.3254 80.8267 -11.8893 80.8267 -11.3508V7.08071C80.8267 7.61918 81.2628 8.05536 81.8013 8.05536Z" fill="#10232B"/>
<path d="M82.7201 124.129C78.6092 124.129 75.9072 128.4 75.9072 135.323C75.9072 142.246 78.6112 146.718 82.7201 146.718C86.8291 146.718 89.533 142.246 89.533 135.323C89.533 128.4 86.8291 124.129 82.7201 124.129Z" fill="#F4D2D4"/>
<path d="M113.575 114.174H51.9769C49.0163 114.174 46.6096 116.583 46.6096 119.542V151.306C46.6096 154.266 49.0183 156.673 51.9769 156.673H113.575C116.535 156.673 118.942 154.264 118.942 151.306V119.542C118.942 116.581 116.534 114.174 113.575 114.174ZM61.8721 149.827C58.6412 149.827 55.8312 148.237 53.8201 145.701L55.5725 143.273C57.2304 145.348 59.531 146.716 61.9242 146.716C64.9446 146.716 66.7357 144.9 66.7357 142.2C66.7357 139.363 65.0681 138.456 62.895 137.311L59.5889 135.551C57.4446 134.447 54.9279 132.482 54.9279 128.397C54.9279 124.311 57.9928 121.02 62.1751 121.02C64.9041 121.02 67.3359 122.446 68.9532 124.463L67.3996 126.735C65.9888 125.127 64.3019 124.129 62.1751 124.129C59.5927 124.129 57.8828 125.7 57.8828 128.186C57.8828 130.863 59.8899 131.865 61.6926 132.785L64.9736 134.499C67.637 135.881 69.7156 137.798 69.7156 141.93C69.7156 146.321 66.7106 149.827 61.8701 149.827H61.8721ZM82.7199 149.827C76.9376 149.827 72.8808 144.225 72.8808 135.323C72.8808 126.422 76.9376 121.02 82.7199 121.02C88.5022 121.02 92.5591 126.438 92.5591 135.323C92.5591 144.209 88.5022 149.827 82.7199 149.827ZM103.888 149.827C100.657 149.827 97.8473 148.237 95.8362 145.701L97.5886 143.273C99.2465 145.348 101.547 146.716 103.94 146.716C106.961 146.716 108.752 144.9 108.752 142.2C108.752 139.363 107.084 138.456 104.911 137.311L101.605 135.551C99.4607 134.447 96.944 132.482 96.944 128.397C96.944 124.311 100.009 121.02 104.191 121.02C106.92 121.02 109.352 122.446 110.969 124.463L109.416 126.735C108.005 125.127 106.318 124.129 104.191 124.129C101.609 124.129 99.8989 125.7 99.8989 128.186C99.8989 130.863 101.906 131.865 103.709 132.785L106.99 134.499C109.653 135.881 111.732 137.798 111.732 141.93C111.732 146.321 108.727 149.827 103.886 149.827H103.888Z" fill="#F4D2D4"/>
<path d="M44.6604 119.542V151.306C44.6604 155.341 47.9433 158.624 51.977 158.624H113.575C117.611 158.624 120.892 155.341 120.892 151.306V119.542C120.892 115.506 117.609 112.223 113.575 112.223H51.977C47.9414 112.223 44.6604 115.506 44.6604 119.542ZM118.944 151.306C118.944 154.266 116.536 156.673 113.577 156.673H51.979C49.0183 156.673 46.6116 154.264 46.6116 151.306V119.542C46.6116 116.581 49.0203 114.174 51.979 114.174H113.577C116.537 114.174 118.944 116.583 118.944 119.542V151.306Z" fill="#10232B"/>
<path d="M64.9738 134.499L61.6928 132.786C59.8902 131.865 57.883 130.865 57.883 128.186C57.883 125.701 59.5929 124.129 62.1753 124.129C64.3021 124.129 65.989 125.127 67.3998 126.735L68.9534 124.463C67.3361 122.447 64.9043 121.02 62.1753 121.02C57.993 121.02 54.9281 124.151 54.9281 128.397C54.9281 132.643 57.4449 134.447 59.5891 135.551L62.8952 137.311C65.0684 138.458 66.7359 139.363 66.7359 142.2C66.7359 145.037 64.9448 146.716 61.9244 146.716C59.5312 146.716 57.2306 145.348 55.5728 143.273L53.8203 145.701C55.8314 148.235 58.6415 149.827 61.8723 149.827C66.7127 149.827 69.7177 146.321 69.7177 141.93C69.7177 137.798 67.6391 135.881 64.9757 134.499H64.9738Z" fill="#10232B"/>
<path d="M82.72 121.02C76.9377 121.02 72.8809 126.422 72.8809 135.323C72.8809 144.225 76.9377 149.827 82.72 149.827C88.5023 149.827 92.5591 144.225 92.5591 135.323C92.5591 126.422 88.5023 121.02 82.72 121.02ZM82.72 146.718C78.6091 146.718 75.9071 142.246 75.9071 135.323C75.9071 128.401 78.611 124.129 82.72 124.129C86.829 124.129 89.5329 128.401 89.5329 135.323C89.5329 142.246 86.829 146.718 82.72 146.718Z" fill="#10232B"/>
<path d="M106.99 134.499L103.709 132.786C101.906 131.865 99.8988 130.865 99.8988 128.186C99.8988 125.701 101.609 124.129 104.191 124.129C106.318 124.129 108.005 125.127 109.416 126.735L110.969 124.463C109.352 122.447 106.92 121.02 104.191 121.02C100.009 121.02 96.944 124.151 96.944 128.397C96.944 132.643 99.4607 134.447 101.605 135.551L104.911 137.311C107.084 138.458 108.752 139.363 108.752 142.2C108.752 145.037 106.961 146.716 103.94 146.716C101.547 146.716 99.2465 145.348 97.5886 143.273L95.8362 145.701C97.8472 148.235 100.657 149.827 103.888 149.827C108.729 149.827 111.734 146.321 111.734 141.93C111.734 137.798 109.655 135.881 106.992 134.499H106.99Z" fill="#10232B"/>
<path d="M84.7042 108.022V95.8067C84.7042 95.2682 84.268 94.832 83.7295 94.832C83.1911 94.832 82.7549 95.2682 82.7549 95.8067V108.022C82.7549 108.56 83.1911 108.996 83.7295 108.996C84.268 108.996 84.7042 108.56 84.7042 108.022Z" fill="#10232B"/>
<path d="M70.9412 108.996C71.1902 108.996 71.4411 108.902 71.6302 108.711C72.0104 108.33 72.0104 107.713 71.6302 107.333L64.4371 100.14C64.0569 99.7593 63.4393 99.7593 63.0591 100.14C62.6789 100.52 62.6789 101.137 63.0591 101.518L70.2522 108.711C70.4433 108.902 70.6922 108.996 70.9412 108.996Z" fill="#10232B"/>
<path d="M97.8126 108.711L104.473 102.05C104.853 101.67 104.853 101.052 104.473 100.672C104.093 100.292 103.475 100.292 103.095 100.672L96.4346 107.333C96.0544 107.713 96.0544 108.33 96.4346 108.711C96.6256 108.902 96.8746 108.996 97.1236 108.996C97.3726 108.996 97.6235 108.902 97.8126 108.711Z" fill="#10232B"/>
<path d="M239.498 65.8492V73.2855H308.545V65.8492C308.545 61.6129 305.064 58.2026 300.619 58.0868C300.619 58.0868 300.617 58.0868 300.615 58.0868C300.54 58.0848 300.463 58.0848 300.389 58.0848H247.652C247.357 58.0848 247.048 58.1022 246.731 58.135C246.72 58.135 246.71 58.135 246.699 58.135C242.594 58.5886 239.498 61.8985 239.498 65.8473V65.8492Z" fill="#2A4050"/>
<path d="M301.323 57.8126C301.134 57.996 300.88 58.0944 300.615 58.0867C300.615 58.0867 300.617 58.0867 300.619 58.0867C305.064 58.2044 308.546 61.6147 308.546 65.8492V73.2855H239.498V65.8492C239.498 61.9004 242.594 58.5885 246.699 58.1369C246.676 58.1369 246.65 58.1407 246.627 58.1407C246.388 58.1407 246.156 58.052 245.975 57.8898C245.768 57.7046 245.653 57.4421 245.653 57.1642V56.3246C240.974 57.224 237.547 61.1766 237.547 65.8492V74.262C237.547 74.8005 237.983 75.2367 238.521 75.2367H309.518C310.057 75.2367 310.493 74.8005 310.493 74.262V65.8492C310.493 63.2938 309.47 60.8794 307.609 59.0536C305.988 57.4614 303.887 56.4694 301.617 56.205V57.1121C301.617 57.3765 301.511 57.6293 301.322 57.8126H301.323Z" fill="#10232B"/>
<path d="M280.811 43.2218C280.811 39.8424 278.061 37.0922 274.682 37.0922H273.103C269.723 37.0922 266.973 39.8424 266.973 43.2218V56.1355H280.811V43.2218Z" fill="#F4D2D4"/>
<path d="M273.103 35.1429H274.682C279.136 35.1429 282.761 38.7675 282.761 43.2219V56.1355H299.667V37.8662C299.667 30.9124 296.96 24.3755 292.042 19.4578C287.124 14.5402 280.587 11.8324 273.634 11.8324C259.278 11.8324 247.6 23.5108 247.6 37.8662V56.1355C247.615 56.1355 247.633 56.1355 247.648 56.1355H265.02V43.2219C265.02 38.7675 268.645 35.1429 273.099 35.1429H273.103ZM255.36 43.8665C255.393 44.5652 254.853 45.1596 254.152 45.1905C254.133 45.1905 254.112 45.1905 254.092 45.1905C253.419 45.1905 252.859 44.6617 252.826 43.9823C252.278 32.1746 256.009 25.6686 259.234 22.2891C262.501 18.8672 266.894 16.9025 271.287 16.9025C271.987 16.9025 272.555 17.4699 272.555 18.1705C272.555 18.8711 271.987 19.4385 271.287 19.4385C267.585 19.4385 263.86 21.1157 261.067 24.0396C256.931 28.3706 254.957 35.2259 255.358 43.8646L255.36 43.8665Z" fill="#F4D2D4"/>
<path d="M245.653 56.3247V57.1642C245.653 57.4402 245.77 57.7046 245.975 57.8899C246.154 58.052 246.388 58.1408 246.627 58.1408C246.65 58.1408 246.675 58.1389 246.699 58.1369C246.71 58.1369 246.72 58.1369 246.731 58.1369C247.048 58.1041 247.357 58.0868 247.652 58.0868H266.001C265.462 58.0868 265.026 57.6506 265.026 57.1121V56.1375H247.654C247.639 56.1375 247.621 56.1375 247.606 56.1375V37.8681C247.606 23.5127 259.284 11.8343 273.64 11.8343C280.593 11.8343 287.13 14.5421 292.048 19.4597C296.965 24.3774 299.673 30.9143 299.673 37.8681V56.1375H282.766V57.1121C282.766 57.6506 282.33 58.0868 281.792 58.0868H300.393C300.467 58.0868 300.546 58.0868 300.619 58.0887C300.881 58.0964 301.138 57.998 301.327 57.8146C301.516 57.6313 301.623 57.3784 301.623 57.114V37.8681C301.623 30.3932 298.712 23.3661 293.426 18.0817C288.14 12.7974 281.112 9.88501 273.64 9.88501C258.209 9.88501 245.656 22.4377 245.656 37.8681V56.3285L245.653 56.3247Z" fill="#10232B"/>
<path d="M282.763 57.1102V43.2219C282.763 38.7675 279.138 35.1429 274.684 35.1429H273.105C268.65 35.1429 265.026 38.7675 265.026 43.2219V57.1102C265.026 57.6487 265.462 58.0849 266.001 58.0849H281.788C282.326 58.0849 282.763 57.6487 282.763 57.1102ZM266.975 43.2219C266.975 39.8425 269.725 37.0922 273.105 37.0922H274.684C278.063 37.0922 280.813 39.8425 280.813 43.2219V56.1356H266.975V43.2219Z" fill="#10232B"/>
<path d="M271.291 19.4404C271.991 19.4404 272.559 18.873 272.559 18.1724C272.559 17.4718 271.991 16.9044 271.291 16.9044C266.898 16.9044 262.505 18.8672 259.238 22.291C256.013 25.6705 252.282 32.1746 252.83 43.9842C252.861 44.6636 253.423 45.1924 254.096 45.1924C254.115 45.1924 254.137 45.1924 254.156 45.1924C254.855 45.1596 255.395 44.5671 255.364 43.8684C254.963 35.2298 256.937 28.3744 261.073 24.0435C263.866 21.1195 267.589 19.4424 271.292 19.4424L271.291 19.4404Z" fill="#FF7C64"/>
<path d="M223.247 34.9865H238.523C239.062 34.9865 239.498 34.5503 239.498 34.0119C239.498 33.4734 239.062 33.0372 238.523 33.0372H223.247C222.709 33.0372 222.272 33.4734 222.272 34.0119C222.272 34.5503 222.709 34.9865 223.247 34.9865Z" fill="#10232B"/>
<path d="M248.248 12.9576C248.441 13.1737 248.708 13.2837 248.976 13.2837C249.208 13.2837 249.439 13.2027 249.624 13.0367C250.026 12.6777 250.061 12.0621 249.702 11.6606L237.925 -1.52321C237.566 -1.92465 236.95 -1.95939 236.549 -1.60041C236.147 -1.24143 236.113 -0.625759 236.471 -0.224319L248.248 12.9595V12.9576Z" fill="#10232B"/>
<path d="M308.219 34.0119C308.219 34.5503 308.655 34.9865 309.194 34.9865H324.47C325.008 34.9865 325.444 34.5503 325.444 34.0119C325.444 33.4734 325.008 33.0372 324.47 33.0372H309.194C308.655 33.0372 308.219 33.4734 308.219 34.0119Z" fill="#10232B"/>
<path d="M298.741 13.2837C299.009 13.2837 299.276 13.1737 299.469 12.9576L311.246 -0.226273C311.605 -0.627713 311.57 -1.24338 311.168 -1.60236C310.767 -1.96134 310.151 -1.9266 309.792 -1.52516L298.015 11.6587C297.656 12.0601 297.691 12.6758 298.093 13.0348C298.278 13.2007 298.511 13.2818 298.741 13.2818V13.2837Z" fill="#10232B"/>
<path d="M273.636 4.32462C274.174 4.32462 274.61 3.88845 274.61 3.34998V-15.0835C274.61 -15.6219 274.174 -16.0581 273.636 -16.0581C273.097 -16.0581 272.661 -15.6219 272.661 -15.0835V3.34804C272.661 3.88651 273.097 4.32269 273.636 4.32269V4.32462Z" fill="#10232B"/>
<path d="M305.409 110.444H243.811C240.851 110.444 238.444 112.852 238.444 115.811V147.575C238.444 150.536 240.853 152.942 243.811 152.942H305.409C308.37 152.942 310.777 150.534 310.777 147.575V115.811C310.777 112.851 308.368 110.444 305.409 110.444ZM253.707 146.095C250.476 146.095 247.666 144.504 245.655 141.968L247.407 139.541C249.065 141.615 251.365 142.984 253.759 142.984C256.779 142.984 258.57 141.168 258.57 138.467C258.57 135.63 256.903 134.723 254.729 133.579L251.423 131.819C249.279 130.715 246.762 128.75 246.762 124.664C246.762 120.578 249.827 117.288 254.01 117.288C256.739 117.288 259.17 118.714 260.788 120.731L259.234 123.002C257.823 121.395 256.136 120.397 254.01 120.397C251.427 120.397 249.717 121.968 249.717 124.454C249.717 127.131 251.724 128.132 253.527 129.053L256.808 130.767C259.471 132.149 261.55 134.065 261.55 138.197C261.55 142.588 258.545 146.095 253.705 146.095H253.707ZM274.554 146.095C268.772 146.095 264.715 140.492 264.715 131.591C264.715 122.69 268.772 117.288 274.554 117.288C280.337 117.288 284.394 122.705 284.394 131.591C284.394 140.477 280.337 146.095 274.554 146.095ZM295.723 146.095C292.492 146.095 289.682 144.504 287.671 141.968L289.423 139.541C291.081 141.615 293.382 142.984 295.775 142.984C298.795 142.984 300.586 141.168 300.586 138.467C300.586 135.63 298.919 134.723 296.746 133.579L293.439 131.819C291.295 130.715 288.778 128.75 288.778 124.664C288.778 120.578 291.843 117.288 296.026 117.288C298.755 117.288 301.186 118.714 302.804 120.731L301.25 123.002C299.839 121.395 298.152 120.397 296.026 120.397C293.443 120.397 291.733 121.968 291.733 124.454C291.733 127.131 293.741 128.132 295.543 129.053L298.824 130.767C301.488 132.149 303.566 134.065 303.566 138.197C303.566 142.588 300.561 146.095 295.721 146.095H295.723Z" fill="#F4D2D4"/>
<path d="M274.554 120.399C270.443 120.399 267.741 124.67 267.741 131.593C267.741 138.516 270.445 142.987 274.554 142.987C278.663 142.987 281.367 138.516 281.367 131.593C281.367 124.67 278.663 120.399 274.554 120.399Z" fill="#F4D2D4"/>
<path d="M236.495 115.811V147.575C236.495 151.611 239.778 154.894 243.811 154.894H305.409C309.445 154.894 312.726 151.611 312.726 147.575V115.811C312.726 111.775 309.443 108.493 305.409 108.493H243.811C239.776 108.493 236.495 111.775 236.495 115.811ZM310.778 147.573C310.778 150.534 308.37 152.94 305.411 152.94H243.813C240.853 152.94 238.446 150.532 238.446 147.573V115.809C238.446 112.849 240.854 110.442 243.813 110.442H305.411C308.372 110.442 310.778 112.851 310.778 115.809V147.573Z" fill="#10232B"/>
<path d="M256.81 130.769L253.529 129.055C251.726 128.134 249.719 127.134 249.719 124.456C249.719 121.97 251.429 120.399 254.011 120.399C256.138 120.399 257.825 121.397 259.236 123.004L260.79 120.733C259.172 118.716 256.74 117.29 254.011 117.29C249.829 117.29 246.764 120.42 246.764 124.666C246.764 128.912 249.281 130.717 251.425 131.821L254.731 133.581C256.905 134.727 258.572 135.632 258.572 138.469C258.572 141.306 256.781 142.986 253.761 142.986C251.367 142.986 249.067 141.617 247.409 139.542L245.656 141.97C247.668 144.504 250.478 146.097 253.708 146.097C258.549 146.097 261.554 142.59 261.554 138.199C261.554 134.067 259.475 132.151 256.812 130.769H256.81Z" fill="#10232B"/>
<path d="M274.554 117.29C268.772 117.29 264.715 122.692 264.715 131.593C264.715 140.494 268.772 146.097 274.554 146.097C280.337 146.097 284.393 140.494 284.393 131.593C284.393 122.692 280.337 117.29 274.554 117.29ZM274.554 142.987C270.443 142.987 267.741 138.516 267.741 131.593C267.741 124.67 270.445 120.399 274.554 120.399C278.663 120.399 281.367 124.67 281.367 131.593C281.367 138.516 278.663 142.987 274.554 142.987Z" fill="#10232B"/>
<path d="M298.824 130.769L295.543 129.055C293.74 128.134 291.733 127.134 291.733 124.456C291.733 121.97 293.443 120.399 296.026 120.399C298.152 120.399 299.839 121.397 301.25 123.004L302.804 120.733C301.186 118.716 298.755 117.29 296.026 117.29C291.843 117.29 288.778 120.42 288.778 124.666C288.778 128.912 291.295 130.717 293.439 131.821L296.745 133.581C298.919 134.727 300.586 135.632 300.586 138.469C300.586 141.306 298.795 142.986 295.775 142.986C293.382 142.986 291.081 141.617 289.423 139.542L287.671 141.97C289.682 144.504 292.492 146.097 295.723 146.097C300.563 146.097 303.568 142.59 303.568 138.199C303.568 134.067 301.489 132.151 298.826 130.769H298.824Z" fill="#10232B"/>
<path d="M276.538 104.291V92.076C276.538 91.5375 276.102 91.1013 275.564 91.1013C275.025 91.1013 274.589 91.5375 274.589 92.076V104.291C274.589 104.829 275.025 105.266 275.564 105.266C276.102 105.266 276.538 104.829 276.538 104.291Z" fill="#10232B"/>
<path d="M262.775 105.266C263.024 105.266 263.275 105.171 263.464 104.98C263.845 104.6 263.845 103.982 263.464 103.602L256.271 96.4088C255.891 96.0286 255.274 96.0286 254.893 96.4088C254.513 96.789 254.513 97.4066 254.893 97.7868L262.086 104.98C262.277 105.171 262.526 105.266 262.775 105.266Z" fill="#10232B"/>
<path d="M289.649 104.98L296.309 98.3196C296.689 97.9393 296.689 97.3217 296.309 96.9415C295.929 96.5613 295.311 96.5613 294.931 96.9415L288.271 103.602C287.891 103.982 287.891 104.6 288.271 104.98C288.462 105.171 288.711 105.266 288.96 105.266C289.209 105.266 289.46 105.171 289.649 104.98Z" fill="#10232B"/>
</g>
<defs>
<clipPath id="clip0_1_16698">
<rect width="386" height="199" fill="white" transform="translate(-14 -24)"/>
</clipPath>
</defs>
</svg>
