<svg width="358" height="25" viewBox="0 0 358 25" fill="none" xmlns="http://www.w3.org/2000/svg">
<g clip-path="url(#clip0_1_16903)">
<path d="M18.4066 13.6471C18.4066 9.41073 14.9249 6.00042 10.4801 5.88462C10.4801 5.88462 10.4782 5.88462 10.4763 5.88462C10.401 5.88269 10.3238 5.88269 10.2505 5.88269H-14V21.0853H18.4066V13.649V13.6471Z" fill="#2A4050"/>
<path d="M20.3559 22.0579V13.6451C20.3559 11.0897 19.333 8.67531 17.4725 6.84953C15.8513 5.25728 13.7495 4.26526 11.4799 4.00085V4.90795C11.4799 5.17236 11.3737 5.42326 11.1846 5.60854C10.9954 5.79189 10.7407 5.89032 10.4763 5.8826C10.4763 5.8826 10.4782 5.8826 10.4801 5.8826C14.9249 6.00033 18.4066 9.41064 18.4066 13.6451V21.0814H-14V23.0307H19.3813C19.9198 23.0307 20.3559 22.5945 20.3559 22.056V22.0579Z" fill="#10232B"/>
<path d="M9.53058 0H-7.37622V3.93141H9.53058V0Z" fill="#F4D2D4"/>
<path d="M-7.37618 3.93141V4.90606C-7.37618 5.44453 -7.81236 5.88071 -8.35083 5.88071H10.2505C10.3239 5.88071 10.403 5.88071 10.4763 5.88264C10.7388 5.89036 10.9955 5.79193 11.1846 5.60858C11.3738 5.42523 11.4799 5.1724 11.4799 4.90799V0H9.53062V3.93141H-7.37618Z" fill="#10232B"/>
<path d="M343.513 5.88074C343.218 5.88074 342.909 5.89811 342.593 5.93092C342.581 5.93092 342.571 5.93092 342.56 5.93092C338.455 6.38447 335.359 9.69442 335.359 13.6432V21.0795H372V5.88074H343.513Z" fill="#2A4050"/>
<path d="M335.359 13.647C335.359 9.69821 338.455 6.38633 342.56 5.93471C342.537 5.93471 342.512 5.93857 342.488 5.93857C342.249 5.93857 342.016 5.84979 341.836 5.68767C341.63 5.50239 341.514 5.23991 341.514 4.96199V4.12244C336.835 5.02182 333.41 8.97446 333.41 13.647V22.0599C333.41 22.5983 333.846 23.0345 334.384 23.0345H372V21.0852H335.359V13.6489V13.647Z" fill="#10232B"/>
<path d="M343.513 3.93141H360.885V0H343.463V3.93141C343.478 3.93141 343.496 3.93141 343.511 3.93141H343.513Z" fill="#F4D2D4"/>
<path d="M341.514 4.96203C341.514 5.23802 341.631 5.50243 341.836 5.68771C342.015 5.84983 342.249 5.93861 342.488 5.93861C342.511 5.93861 342.537 5.93668 342.56 5.93475C342.571 5.93475 342.581 5.93475 342.593 5.93475C342.909 5.90194 343.218 5.88457 343.513 5.88457H361.862C361.323 5.88457 360.887 5.44839 360.887 4.90992V3.93527H343.515C343.5 3.93527 343.482 3.93527 343.467 3.93527V0H341.518V4.96203H341.514Z" fill="#10232B"/>
<path d="M144.638 13.6471V21.0834H213.686V13.6471C213.686 9.41073 210.204 6.00042 205.759 5.88462C205.759 5.88462 205.757 5.88462 205.755 5.88462C205.68 5.88269 205.603 5.88269 205.53 5.88269H152.792C152.497 5.88269 152.188 5.90006 151.872 5.93287C151.86 5.93287 151.851 5.93287 151.839 5.93287C147.734 6.38642 144.638 9.69637 144.638 13.6452V13.6471Z" fill="#2A4050"/>
<path d="M206.464 5.60854C206.275 5.79189 206.02 5.89032 205.756 5.8826C205.756 5.8826 205.758 5.8826 205.759 5.8826C210.204 6.00033 213.686 9.41064 213.686 13.6451V21.0814H144.638V13.6451C144.638 9.69628 147.734 6.3844 151.839 5.93278C151.816 5.93278 151.791 5.93664 151.768 5.93664C151.528 5.93664 151.295 5.84786 151.115 5.68574C150.909 5.50046 150.793 5.23798 150.793 4.96006V4.12051C146.115 5.01989 142.689 8.97253 142.689 13.6451V22.0579C142.689 22.5964 143.125 23.0326 143.664 23.0326H214.661C215.199 23.0326 215.635 22.5964 215.635 22.0579V13.6451C215.635 11.0897 214.612 8.67531 212.754 6.84953C211.133 5.25728 209.031 4.26526 206.761 4.00085V4.90795C206.761 5.17236 206.655 5.42326 206.466 5.60854H206.464Z" fill="#10232B"/>
<path d="M204.81 0H187.903V3.93141H204.81V0Z" fill="#F4D2D4"/>
<path d="M152.793 3.93141H170.165V0H152.742V3.93141C152.758 3.93141 152.775 3.93141 152.791 3.93141H152.793Z" fill="#F4D2D4"/>
<path d="M185.954 0H172.116V3.93141H185.954V0Z" fill="#F4D2D4"/>
<path d="M150.795 4.96203C150.795 5.23802 150.913 5.50243 151.117 5.68771C151.297 5.84983 151.53 5.93861 151.77 5.93861C151.793 5.93861 151.818 5.93668 151.841 5.93475C151.853 5.93475 151.862 5.93475 151.874 5.93475C152.188 5.90194 152.499 5.88457 152.794 5.88457H171.143C170.604 5.88457 170.168 5.44839 170.168 4.90992V3.93527H152.796C152.781 3.93527 152.764 3.93527 152.748 3.93527V0H150.799V4.96203H150.795Z" fill="#10232B"/>
<path d="M187.903 3.93141V4.90606C187.903 5.44453 187.467 5.88071 186.928 5.88071H205.53C205.603 5.88071 205.682 5.88071 205.756 5.88264C206.018 5.89036 206.275 5.79193 206.464 5.60858C206.653 5.42523 206.759 5.1724 206.759 4.90799V0H204.81V3.93141H187.903Z" fill="#10232B"/>
<path d="M170.167 4.90606C170.167 5.44453 170.603 5.88071 171.141 5.88071H186.929C187.467 5.88071 187.903 5.44453 187.903 4.90606V0H185.954V3.93141H172.116V0H170.167V4.90606Z" fill="#10232B"/>
<path d="M81.8013 32.0554C82.3398 32.0554 82.776 31.6192 82.776 31.0807V12.6492C82.776 12.1107 82.3398 11.6746 81.8013 11.6746C81.2628 11.6746 80.8267 12.1107 80.8267 12.6492V31.0807C80.8267 31.6192 81.2628 32.0554 81.8013 32.0554Z" fill="#10232B"/>
<path d="M248.248 36.9576C248.441 37.1737 248.708 37.2837 248.976 37.2837C249.208 37.2837 249.439 37.2027 249.624 37.0367C250.026 36.6777 250.061 36.0621 249.702 35.6606L237.925 22.4768C237.566 22.0754 236.95 22.0406 236.549 22.3996C236.147 22.7586 236.113 23.3742 236.471 23.7757L248.248 36.9595V36.9576Z" fill="#10232B"/>
<path d="M298.741 37.2837C299.009 37.2837 299.276 37.1737 299.469 36.9576L311.246 23.7737C311.605 23.3723 311.57 22.7566 311.168 22.3976C310.767 22.0387 310.151 22.0734 309.792 22.4748L298.015 35.6587C297.656 36.0601 297.691 36.6758 298.093 37.0348C298.278 37.2007 298.511 37.2818 298.741 37.2818V37.2837Z" fill="#10232B"/>
<path d="M273.636 28.3246C274.174 28.3246 274.61 27.8884 274.61 27.35V8.91654C274.61 8.37807 274.174 7.94189 273.636 7.94189C273.097 7.94189 272.661 8.37807 272.661 8.91654V27.348C272.661 27.8865 273.097 28.3227 273.636 28.3227V28.3246Z" fill="#10232B"/>
</g>
<defs>
<clipPath id="clip0_1_16903">
<rect width="386" height="197" fill="white" transform="translate(-14)"/>
</clipPath>
</defs>
</svg>
