<svg width="308" height="57" viewBox="0 0 308 57" fill="none" xmlns="http://www.w3.org/2000/svg">
<path d="M189.74 17.7871V9.4482H194.002C196.929 9.4482 198.776 11.0742 198.776 13.6177C198.776 16.1611 196.929 17.7871 194.002 17.7871H189.74ZM191.412 16.3237H194.002C195.907 16.3237 197.033 15.2552 197.033 13.6177C197.033 11.9685 195.907 10.9116 194.002 10.9116H191.412V16.3237ZM202.054 9.4482V17.7871H200.347V9.4482H202.054ZM205.799 14.6861V17.7871H204.092V9.4482H209.33C211.223 9.4482 212.5 10.3541 212.5 12.073C212.5 13.3505 211.757 14.1984 210.572 14.5236L212.698 17.7871H210.735L208.772 14.6861H205.799ZM205.799 13.2576H209.237C210.236 13.2576 210.805 12.8279 210.805 12.0846C210.805 11.3297 210.236 10.9 209.237 10.9H205.799V13.2576ZM214.052 9.4482H222.124V10.9232H215.736V12.7814H221.462V14.2448H215.736V16.3121H222.124V17.7871H214.052V9.4482ZM223.208 13.6177C223.208 11.1439 225.31 9.32044 228.132 9.32044C230.316 9.32044 231.918 10.3076 232.557 11.9452L231.082 12.6885C230.606 11.5155 229.607 10.8187 228.144 10.8187C226.32 10.8187 224.95 11.9336 224.95 13.6177C224.95 15.3017 226.32 16.4166 228.144 16.4166C229.607 16.4166 230.606 15.7198 231.082 14.5468L232.557 15.2901C231.918 16.9277 230.316 17.9149 228.132 17.9149C225.31 17.9149 223.208 16.0915 223.208 13.6177ZM242.328 10.9232H238.647V17.7871H236.928V10.9232H233.246V9.4482H242.328V10.9232ZM247.565 9.32044C250.411 9.32044 252.49 11.1439 252.49 13.6177C252.49 16.0915 250.411 17.9149 247.565 17.9149C244.708 17.9149 242.641 16.0915 242.641 13.6177C242.641 11.1439 244.708 9.32044 247.565 9.32044ZM247.565 10.8187C245.695 10.8187 244.395 11.9336 244.395 13.6177C244.395 15.3017 245.695 16.4166 247.565 16.4166C249.435 16.4166 250.736 15.3017 250.736 13.6177C250.736 11.9336 249.435 10.8187 247.565 10.8187ZM255.771 14.6861V17.7871H254.064V9.4482H259.302C261.195 9.4482 262.473 10.3541 262.473 12.073C262.473 13.3505 261.729 14.1984 260.545 14.5236L262.67 17.7871H260.707L258.745 14.6861H255.771ZM255.771 13.2576H259.209C260.208 13.2576 260.777 12.8279 260.777 12.0846C260.777 11.3297 260.208 10.9 259.209 10.9H255.771V13.2576ZM267.416 9.4482H269.332L273.536 17.7871H271.69L270.726 15.8476H266.011L265.035 17.7871H263.212L267.416 9.4482ZM268.368 11.1322L266.731 14.3958H269.994L268.368 11.1322ZM281.853 10.9232H278.171V17.7871H276.452V10.9232H272.77V9.4482H281.853V10.9232ZM283.378 9.4482H291.45V10.9232H285.062V12.7814H290.788V14.2448H285.062V16.3121H291.45V17.7871H283.378V9.4482ZM301.45 14.4299C301.45 14.997 301.299 15.5584 300.997 16.1142C300.698 16.6699 300.28 17.1104 299.743 17.4355C299.206 17.7606 298.685 17.9232 298.178 17.9232C297.66 17.9232 297.237 17.7588 296.908 17.4298C296.583 17.0971 296.42 16.668 296.42 16.1425C296.42 15.5868 296.579 15.0291 296.897 14.4696C297.218 13.9101 297.645 13.4677 298.178 13.1426C298.715 12.8175 299.233 12.6549 299.732 12.6549C300.231 12.6549 300.641 12.8194 300.963 13.1483C301.288 13.4772 301.45 13.9044 301.45 14.4299ZM300.509 14.0386C300.509 13.687 300.422 13.4186 300.248 13.2333C300.078 13.0443 299.857 12.9498 299.585 12.9498C299.029 12.9498 298.517 13.3487 298.048 14.1464C297.583 14.9403 297.35 15.7304 297.35 16.5168C297.35 16.876 297.441 17.1539 297.622 17.3504C297.804 17.5433 298.033 17.6397 298.309 17.6397C298.842 17.6397 299.341 17.2446 299.806 16.4544C300.275 15.6605 300.509 14.8552 300.509 14.0386ZM305.91 12.791L305.808 13.1653H304.98L304.356 15.6435C304.08 16.7361 303.802 17.5811 303.522 18.1784C303.125 19.0215 302.698 19.6037 302.241 19.9251C301.893 20.1708 301.545 20.2937 301.197 20.2937C300.971 20.2937 300.778 20.2256 300.619 20.0895C300.502 19.995 300.443 19.8721 300.443 19.7209C300.443 19.5999 300.492 19.4941 300.591 19.4033C300.685 19.3164 300.802 19.2729 300.942 19.2729C301.044 19.2729 301.131 19.305 301.203 19.3693C301.271 19.4336 301.305 19.5073 301.305 19.5905C301.305 19.6736 301.265 19.7511 301.186 19.823C301.126 19.8759 301.095 19.9156 301.095 19.9421C301.095 19.9761 301.109 20.0026 301.135 20.0215C301.169 20.0479 301.222 20.0612 301.294 20.0612C301.456 20.0612 301.628 20.0101 301.81 19.908C301.988 19.806 302.146 19.6528 302.286 19.4487C302.426 19.2483 302.558 18.9572 302.683 18.5754C302.736 18.4166 302.878 17.893 303.108 17.0045L304.095 13.1653H303.108L303.188 12.791C303.502 12.791 303.721 12.7702 303.846 12.7286C303.97 12.6833 304.084 12.6001 304.186 12.4791C304.292 12.3544 304.428 12.1237 304.594 11.7873C304.817 11.3336 305.031 10.982 305.235 10.7325C305.515 10.396 305.808 10.1446 306.114 9.97823C306.424 9.8081 306.715 9.72303 306.987 9.72303C307.275 9.72303 307.505 9.79676 307.679 9.9442C307.853 10.0879 307.94 10.2448 307.94 10.4149C307.94 10.5472 307.897 10.6587 307.81 10.7495C307.723 10.8402 307.611 10.8856 307.475 10.8856C307.358 10.8856 307.261 10.8516 307.186 10.7835C307.114 10.7154 307.078 10.6342 307.078 10.5396C307.078 10.4792 307.103 10.4054 307.152 10.3185C307.201 10.2277 307.226 10.1673 307.226 10.137C307.226 10.0841 307.209 10.0444 307.175 10.0179C307.125 9.98012 307.054 9.96121 306.959 9.96121C306.721 9.96121 306.507 10.0368 306.318 10.1881C306.065 10.3884 305.838 10.7022 305.638 11.1294C305.536 11.3525 305.348 11.9063 305.076 12.791H305.91Z" fill="white"/>
<path d="M189.275 28.6177C189.275 26.1439 191.377 24.3204 194.2 24.3204C196.383 24.3204 197.986 25.3076 198.625 26.9452L197.15 27.6885C196.673 26.5155 195.675 25.8187 194.211 25.8187C192.388 25.8187 191.017 26.9336 191.017 28.6177C191.017 30.3017 192.388 31.4166 194.211 31.4166C195.675 31.4166 196.673 30.7198 197.15 29.5468L198.625 30.2901C197.986 31.9277 196.383 32.9149 194.2 32.9149C191.377 32.9149 189.275 31.0915 189.275 28.6177ZM204.489 24.3204C207.334 24.3204 209.413 26.1439 209.413 28.6177C209.413 31.0915 207.334 32.9149 204.489 32.9149C201.632 32.9149 199.565 31.0915 199.565 28.6177C199.565 26.1439 201.632 24.3204 204.489 24.3204ZM204.489 25.8187C202.619 25.8187 201.318 26.9336 201.318 28.6177C201.318 30.3017 202.619 31.4166 204.489 31.4166C206.359 31.4166 207.66 30.3017 207.66 28.6177C207.66 26.9336 206.359 25.8187 204.489 25.8187ZM219.594 24.4482V32.7871H218.084L212.637 26.62V32.7871H210.988V24.4482H212.73L217.933 30.3365V24.4482H219.594ZM220.758 30.9753L221.907 29.7791C222.86 31.0566 224.369 31.4515 225.601 31.4515C226.994 31.4515 227.981 31.0334 227.981 30.3598C227.981 29.57 227.296 29.5003 224.95 29.2448C222.906 29.0125 221.338 28.6293 221.338 26.9801C221.338 25.4006 222.883 24.3204 225.252 24.3204C227.11 24.3204 228.783 24.9824 229.538 25.9813L228.4 27.073C227.761 26.2484 226.576 25.7722 225.159 25.7722C223.673 25.7722 222.999 26.2484 222.999 26.8059C222.999 27.4098 223.557 27.5492 225.67 27.7931C228.04 28.0602 229.712 28.3738 229.712 30.1739C229.712 31.9974 227.889 32.9149 225.531 32.9149C223.545 32.9149 221.57 32.1483 220.758 30.9753ZM235.279 32.9033C232.353 32.9033 230.994 31.2773 230.994 28.8499V24.4482H232.701V28.757C232.701 30.3249 233.375 31.405 235.279 31.405C237.172 31.405 237.846 30.3249 237.846 28.757V24.4482H239.565V28.8499C239.565 31.2773 238.195 32.9033 235.279 32.9033ZM241.379 32.7871V24.4482H243.087V31.3121H248.952V32.7871H241.379ZM253.903 24.4482H255.819L260.024 32.7871H258.177L257.213 30.8476H252.498L251.522 32.7871H249.699L253.903 24.4482ZM254.855 26.1322L253.218 29.3958H256.481L254.855 26.1322ZM262.973 29.6861V32.7871H261.266V24.4482H266.504C268.397 24.4482 269.675 25.3541 269.675 27.073C269.675 28.3505 268.931 29.1984 267.747 29.5236L269.872 32.7871H267.909L265.947 29.6861H262.973ZM262.973 28.2576H266.411C267.41 28.2576 267.979 27.8279 267.979 27.0846C267.979 26.3297 267.41 25.9 266.411 25.9H262.973V28.2576Z" fill="white"/>
<path d="M193.131 39.4482H195.047L199.252 47.7871H197.405L196.441 45.8476H191.726L190.75 47.7871H188.927L193.131 39.4482ZM194.083 41.1322L192.446 44.3958H195.709L194.083 41.1322ZM202.178 47.7871H200.494V39.4482H208.438V40.9232H202.178V43.0021H207.776V44.4771H202.178V47.7871ZM211.696 47.7871H210.012V39.4482H217.956V40.9232H211.696V43.0021H217.294V44.4771H211.696V47.7871ZM221.629 39.4482H223.545L227.749 47.7871H225.903L224.939 45.8476H220.223L219.248 47.7871H217.424L221.629 39.4482ZM222.581 41.1322L220.943 44.3958H224.207L222.581 41.1322ZM230.699 39.4482V47.7871H228.992V39.4482H230.699ZM234.444 44.6861V47.7871H232.737V39.4482H237.975C239.868 39.4482 241.145 40.3541 241.145 42.073C241.145 43.3505 240.402 44.1984 239.217 44.5236L241.343 47.7871H239.38L237.417 44.6861H234.444ZM234.444 43.2576H237.882C238.881 43.2576 239.45 42.8279 239.45 42.0846C239.45 41.3297 238.881 40.9 237.882 40.9H234.444V43.2576ZM241.826 45.9753L242.976 44.7791C243.928 46.0566 245.438 46.4515 246.669 46.4515C248.063 46.4515 249.05 46.0334 249.05 45.3598C249.05 44.57 248.365 44.5003 246.019 44.2448C243.975 44.0125 242.407 43.6293 242.407 41.9801C242.407 40.4006 243.952 39.3204 246.321 39.3204C248.179 39.3204 249.852 39.9824 250.606 40.9813L249.468 42.073C248.829 41.2484 247.645 40.7722 246.228 40.7722C244.741 40.7722 244.068 41.2484 244.068 41.8059C244.068 42.4098 244.625 42.5492 246.739 42.7931C249.108 43.0602 250.781 43.3738 250.781 45.1739C250.781 46.9974 248.957 47.9149 246.6 47.9149C244.614 47.9149 242.639 47.1483 241.826 45.9753Z" fill="white"/>
<g clip-path="url(#clip0_1_17721)">
<path d="M45.3495 15.9209C44.9339 15.9209 44.5977 15.82 44.341 15.6214C44.0842 15.4227 43.9131 15.1721 43.8214 14.8756C43.7266 15.1018 43.5983 15.2791 43.4393 15.4166C43.2804 15.5511 43.0787 15.658 42.8372 15.7314C42.5958 15.8078 42.3024 15.8567 41.9601 15.8842C41.6178 15.9117 41.2143 15.9209 40.7559 15.9209H6.92527C6.30789 15.9209 5.79137 15.8781 5.37877 15.7895C4.96616 15.7039 4.63302 15.5664 4.37934 15.3799C4.12567 15.1935 3.94534 14.9551 3.83837 14.6586C3.7314 14.3652 3.67944 14.0015 3.67944 13.5767V11.0888H4.99367V13.0968C4.99367 13.43 5.0334 13.6928 5.11592 13.8884C5.19844 14.084 5.33292 14.2368 5.52547 14.3408C5.71802 14.4447 5.97781 14.5119 6.31095 14.5425C6.64103 14.573 7.06892 14.5883 7.59156 14.5883H40.7345C41.089 14.5883 41.3885 14.5761 41.6361 14.5547C41.8837 14.5333 42.0793 14.4814 42.2229 14.3988C42.3666 14.3163 42.4705 14.2002 42.5347 14.0504C42.5988 13.8976 42.6325 13.6867 42.6325 13.4177V9.73486H43.9559V12.8218C43.9559 13.0907 43.9742 13.3352 44.0109 13.5553C44.0475 13.7753 44.1178 13.9587 44.2248 14.1085C44.3318 14.2582 44.4754 14.3744 44.6588 14.463C44.8422 14.5516 45.0714 14.5944 45.3465 14.5944C45.7805 14.5944 45.9944 14.8084 45.9944 15.2363C45.9944 15.5052 45.9425 15.6886 45.8386 15.7834C45.7346 15.8781 45.5696 15.927 45.3465 15.927L45.3495 15.9209ZM8.32508 7.98052C8.32508 7.74518 8.4076 7.54347 8.57264 7.37842C8.73768 7.21338 8.9394 7.13086 9.17474 7.13086C9.41008 7.13086 9.61179 7.21338 9.77684 7.37842C9.94188 7.54347 10.0244 7.74518 10.0244 7.98052C10.0244 8.21586 9.94188 8.41758 9.77684 8.58262C9.61179 8.74766 9.41008 8.83018 9.17474 8.83018C8.9394 8.83018 8.73768 8.74766 8.57264 8.58262C8.4076 8.41758 8.32508 8.21586 8.32508 7.98052ZM10.4156 7.98052C10.4156 7.74518 10.4981 7.54347 10.6632 7.37842C10.8282 7.21338 11.0299 7.13086 11.2653 7.13086C11.5006 7.13086 11.7023 7.21338 11.8674 7.37842C12.0324 7.54347 12.1149 7.74518 12.1149 7.98052C12.1149 8.21586 12.0324 8.41758 11.8674 8.58262C11.7023 8.74766 11.5006 8.83018 11.2653 8.83018C11.0299 8.83018 10.8282 8.74766 10.6632 8.58262C10.4981 8.41758 10.4156 8.21586 10.4156 7.98052Z" fill="white"/>
<path d="M45.9303 14.5886C46.2848 14.5886 46.5843 14.5763 46.8289 14.5549C47.0734 14.5335 47.269 14.4816 47.4157 14.3991C47.5624 14.3165 47.6663 14.2004 47.7305 14.0506C47.7947 13.8978 47.8283 13.6869 47.8283 13.418V10.5267H49.1425V12.8189C49.1425 13.0879 49.1578 13.3324 49.1883 13.5525C49.2189 13.7725 49.2953 13.9559 49.4145 14.1057C49.5368 14.2554 49.7018 14.3716 49.9127 14.4602C50.1236 14.5488 50.42 14.5916 50.8021 14.5916C51.0313 14.5916 58.4827 14.5794 58.663 14.558C58.8433 14.5366 58.9931 14.4846 59.1092 14.4021C59.2284 14.3196 59.314 14.2035 59.3721 14.0537C59.4271 13.9009 59.4576 13.69 59.4576 13.421V10.5389H60.7719V12.8251C60.7719 13.094 60.7902 13.3385 60.8299 13.5586C60.8697 13.7786 60.94 13.962 61.0439 14.1118C61.1478 14.2615 61.2884 14.3777 61.4687 14.4663C61.649 14.5549 61.8752 14.5977 62.1503 14.5977H70.7447V9.74121H72.0681V15.9303H62.1503C61.7407 15.9303 61.4076 15.8294 61.1509 15.6308C60.8941 15.4321 60.7291 15.1815 60.6496 14.885C60.454 15.3221 60.1514 15.6063 59.7419 15.7377C59.3323 15.8692 51.5967 15.9303 51.0252 15.9303C50.6554 15.9303 50.3467 15.8997 50.1022 15.8417C49.8577 15.7836 49.656 15.7011 49.494 15.6002C49.335 15.4994 49.2067 15.3832 49.115 15.2548C49.0233 15.1265 48.9438 14.9951 48.8735 14.8667C48.7849 15.0929 48.6657 15.2701 48.519 15.4077C48.3723 15.5421 48.1859 15.6522 47.9597 15.7316C47.7305 15.8142 47.4493 15.8661 47.107 15.8906C46.7647 15.915 46.3643 15.9272 45.8967 15.9272H45.3557C44.9278 15.9272 44.7139 15.7133 44.7139 15.2854C44.7139 15.0164 44.7658 14.8331 44.8667 14.7383C44.9675 14.6436 45.1295 14.5947 45.3557 14.5947H45.9211L45.9303 14.5886Z" fill="white"/>
<path d="M104.475 15.23C104.475 15.499 77.1386 15.6824 77.0378 15.7771C76.9369 15.8719 76.7749 15.9208 76.5487 15.9208H76.1361C75.7877 15.9208 75.4729 15.8871 75.1917 15.8168C74.9105 15.7465 74.6691 15.6273 74.4704 15.4531C74.2718 15.282 74.1159 15.0528 74.0028 14.7716C73.8897 14.4873 73.8347 14.1328 73.8347 13.7049V4.44727H75.1489V13.3504C75.1489 13.7997 75.2192 14.1206 75.3598 14.307C75.5004 14.4965 75.8091 14.5882 76.2859 14.5882H76.5487C76.9766 14.5882 104.475 14.8021 104.475 15.23Z" fill="white"/>
<path d="M76.5578 15.921C76.13 15.921 75.916 15.7071 75.916 15.2792C75.916 15.0102 75.968 14.8268 76.0688 14.7321C76.1697 14.6374 76.3317 14.5885 76.5578 14.5885H106.978V9.73193H108.292V15.921H76.5548H76.5578ZM104.49 18.3508C104.49 18.1155 104.572 17.9137 104.734 17.7487C104.896 17.5837 105.098 17.5011 105.333 17.5011C105.569 17.5011 105.77 17.5837 105.941 17.7487C106.113 17.9137 106.195 18.1155 106.195 18.3508C106.195 18.5861 106.11 18.7879 105.941 18.9529C105.773 19.1179 105.572 19.2005 105.333 19.2005C105.095 19.2005 104.896 19.1179 104.734 18.9529C104.572 18.7879 104.49 18.5861 104.49 18.3508ZM106.574 18.3508C106.574 18.1155 106.66 17.9137 106.828 17.7487C106.996 17.5837 107.198 17.5011 107.436 17.5011C107.674 17.5011 107.873 17.5837 108.035 17.7487C108.197 17.9137 108.28 18.1155 108.28 18.3508C108.28 18.5861 108.197 18.7879 108.035 18.9529C107.873 19.1179 107.671 19.2005 107.436 19.2005C107.201 19.2005 106.999 19.1179 106.828 18.9529C106.66 18.7879 106.574 18.5861 106.574 18.3508Z" fill="white"/>
<path d="M111.788 10.5356H113.078V15.0223C113.078 15.8139 113.035 16.4833 112.947 17.0242C112.858 17.5652 112.687 18.0023 112.427 18.3354C112.167 18.6655 111.813 18.907 111.357 19.0567C110.902 19.2065 110.315 19.2798 109.594 19.2798V17.9473C110.116 17.9473 110.526 17.8922 110.819 17.7792C111.116 17.6661 111.333 17.4858 111.476 17.2351C111.62 16.9845 111.706 16.6636 111.739 16.2693C111.77 15.8751 111.785 15.4013 111.785 14.8451V10.5356H111.788Z" fill="white"/>
<path d="M51.4318 29.1611H52.7215V33.6478C52.7215 34.4394 52.6787 35.1088 52.5901 35.6497C52.5015 36.1907 52.3303 36.6278 52.0705 36.9609C51.8107 37.291 51.4562 37.5324 51.0008 37.6822C50.5454 37.832 49.9586 37.9053 49.2373 37.9053V36.5728C49.7599 36.5728 50.1695 36.5177 50.4629 36.4047C50.7594 36.2916 50.9764 36.1112 51.12 35.8606C51.2637 35.61 51.3492 35.2891 51.3829 34.8948C51.4134 34.5006 51.4287 34.0268 51.4287 33.4706V29.1611H51.4318Z" fill="white"/>
<path d="M60.1852 34.546C60.1393 35.197 60.0018 35.738 59.7726 36.1689C59.5433 36.5999 59.2316 36.9422 58.8373 37.1989C58.4431 37.4557 57.9693 37.636 57.4161 37.7429C56.8629 37.8499 56.2486 37.9019 55.5732 37.9019H54.8977V36.5693H55.3959C55.8971 36.5693 56.3556 36.5449 56.7743 36.499C57.193 36.4501 57.5567 36.3554 57.8624 36.2087C58.168 36.062 58.4094 35.8572 58.5837 35.5882C58.7579 35.3223 58.8526 34.9739 58.871 34.546H57.0494C56.6123 34.546 56.2089 34.4971 55.8391 34.4024C55.4723 34.3076 55.1483 34.1487 54.8733 33.9256C54.5982 33.7025 54.3842 33.4182 54.2284 33.0668C54.0725 32.7153 53.9961 32.2782 53.9961 31.7556C53.9961 31.3124 54.0694 30.8815 54.21 30.4628C54.3506 30.044 54.5615 29.6742 54.8366 29.3533C55.1117 29.0324 55.4448 28.7726 55.836 28.5739C56.2272 28.3753 56.6734 28.2744 57.1808 28.2744C57.7371 28.2744 58.2077 28.3753 58.5898 28.5739C58.9718 28.7726 59.2866 29.0538 59.5311 29.4175C59.7756 29.7812 59.9498 30.2213 60.0568 30.7378C60.1638 31.2543 60.2157 31.8289 60.2157 32.4585V33.2165H101.415C101.849 33.2165 102.063 33.4305 102.063 33.8583C102.063 34.1273 102.011 34.3107 101.907 34.4054C101.803 34.5002 101.638 34.5491 101.415 34.5491H60.1821L60.1852 34.546ZM55.2859 31.6211C55.2859 32.1712 55.4417 32.5747 55.7565 32.8314C56.0713 33.0881 56.5329 33.2135 57.138 33.2135H58.8679V32.1499C58.8679 31.3583 58.7334 30.7256 58.4645 30.2519C58.1955 29.7812 57.734 29.5428 57.083 29.5428C56.7743 29.5428 56.5084 29.6039 56.2822 29.7292C56.0561 29.8515 55.8727 30.0135 55.729 30.2152C55.5854 30.4169 55.4754 30.637 55.399 30.8815C55.3225 31.126 55.2859 31.3705 55.2859 31.618V31.6211Z" fill="white"/>
<path d="M101.433 34.5464C101.005 34.5464 60.7168 34.3324 60.7168 33.9045C60.7168 33.6356 100.843 33.4522 100.944 33.3574C101.045 33.2627 101.207 33.2138 101.433 33.2138H102.1C102.222 33.2138 102.356 33.1985 102.497 33.1679C102.638 33.1374 102.775 33.0671 102.916 32.9571C103.053 32.847 103.191 32.6973 103.325 32.5108C103.46 32.3213 103.588 32.0707 103.704 31.7559C103.952 31.0713 104.212 30.515 104.484 30.0902C104.756 29.6654 105.034 29.3384 105.318 29.1091C105.602 28.8799 105.893 28.7271 106.186 28.6507C106.479 28.5743 106.776 28.5376 107.066 28.5376C107.47 28.5376 107.846 28.614 108.188 28.7699C108.53 28.9258 108.83 29.1428 109.08 29.427C109.334 29.7112 109.53 30.0474 109.673 30.4386C109.817 30.8299 109.887 31.27 109.887 31.759C109.887 32.6759 109.664 33.4033 109.221 33.9473C108.778 34.4883 108.093 34.7603 107.173 34.7603C106.666 34.7603 106.158 34.6747 105.642 34.5036C105.128 34.3324 104.597 34.0421 104.053 33.6325C103.912 33.8465 103.771 34.0146 103.628 34.1368C103.484 34.2591 103.331 34.3508 103.169 34.4119C103.007 34.4699 102.839 34.5097 102.671 34.525C102.503 34.5402 102.32 34.5494 102.124 34.5494H101.433V34.5464ZM108.558 31.707C108.558 31.4656 108.524 31.2333 108.454 31.0071C108.383 30.781 108.283 30.5853 108.145 30.4172C108.008 30.2491 107.849 30.1116 107.656 30.0077C107.463 29.9038 107.24 29.8518 106.981 29.8518C106.525 29.8518 106.11 30.0505 105.737 30.4509C105.364 30.8512 105.012 31.5481 104.688 32.5414C105.083 32.7951 105.474 32.9999 105.865 33.1557C106.256 33.3147 106.657 33.3911 107.066 33.3911C107.515 33.3911 107.876 33.2627 108.148 33.0029C108.42 32.7431 108.558 32.3122 108.558 31.704V31.707Z" fill="white"/>
<path d="M113.078 23.0728V34.5462H111.764V23.0728H113.078Z" fill="white"/>
<path d="M11.1645 48.7277C11.2837 48.8561 11.3845 49.0364 11.4671 49.2687C11.5526 49.4979 11.5924 49.721 11.5924 49.935C11.5924 50.2559 11.4976 50.5707 11.3112 50.8824C11.1217 51.1942 10.8191 51.4723 10.4035 51.7137C9.9878 51.9552 9.44682 52.1477 8.77749 52.2914C8.10815 52.435 7.28599 52.5053 6.30797 52.5053C5.22297 52.5053 4.33052 52.4075 3.63061 52.2089C2.93071 52.0133 2.37446 51.7412 1.96185 51.3959C1.54925 51.0505 1.26195 50.644 1.10302 50.1764C0.944093 49.7088 0.861572 49.2075 0.861572 48.6666V46.1787H2.16968V48.4221C2.16968 49.3726 2.49671 50.0694 3.14771 50.5126C3.79871 50.9558 4.86537 51.1789 6.34159 51.1789C6.89173 51.1789 7.41436 51.1514 7.90643 51.0933C8.3985 51.0352 8.82944 50.9527 9.19926 50.8396C9.56908 50.7265 9.85943 50.5829 10.0703 50.4087C10.2812 50.2345 10.3851 50.0358 10.3851 49.8096C10.3851 49.5682 10.2598 49.3512 10.0092 49.1556C9.75857 48.96 9.44988 48.7919 9.07701 48.6482C8.70719 48.5046 8.31292 48.3732 7.89726 48.257C7.4816 48.1378 7.11178 48.0309 6.79392 47.9361V46.628C8.15399 47.1353 9.44377 47.386 10.6632 47.386H12.2831C12.7171 47.386 29.9151 47.5999 29.9151 48.0278C29.9151 48.2968 12.8821 48.4801 12.7782 48.5749C12.6743 48.6696 12.5093 48.7185 12.2862 48.7185H11.1645V48.7277Z" fill="white"/>
<path d="M12.3105 48.7274C11.8826 48.7274 11.6687 48.5135 11.6687 48.0856C11.6687 47.8166 11.7207 47.6332 11.8215 47.5385C11.9224 47.4437 12.0844 47.3948 12.3105 47.3948H30.5813C30.7739 47.3948 30.945 47.3826 31.0948 47.3612C31.2476 47.3398 31.3729 47.2879 31.4738 47.2053C31.5746 47.1228 31.6541 47.0067 31.7091 46.8569C31.7641 46.7072 31.7947 46.4932 31.7947 46.2243V37.2539H33.1181V45.6252C33.1181 46.1692 33.2281 46.6032 33.4482 46.918C33.6682 47.2359 34.0197 47.3948 34.5026 47.3948C34.9305 47.3948 35.1444 47.6088 35.1444 48.0367C35.1444 48.3056 35.0925 48.489 34.9916 48.5838C34.8908 48.6785 34.7288 48.7274 34.5026 48.7274C34.0869 48.7274 33.7538 48.6265 33.5001 48.4279C33.2464 48.2292 33.0783 47.9786 32.9928 47.6821C32.7972 48.1192 32.4885 48.4034 32.0667 48.5348C31.6449 48.6632 31.1009 48.7274 30.4316 48.7274H12.3105Z" fill="white"/>
<path d="M35.0773 47.395C35.4318 47.395 35.7313 47.3827 35.9758 47.3613C36.2203 47.3399 36.4159 47.288 36.5626 47.2055C36.7093 47.1229 36.8133 47.0068 36.8774 46.857C36.9416 46.7042 36.9752 46.4933 36.9752 46.2244V43.3422H38.2895V45.6284C38.2895 45.8973 38.3047 46.1419 38.3353 46.3619C38.3659 46.582 38.4423 46.7653 38.5615 46.9151C38.6807 47.0649 38.8518 47.181 39.0719 47.2696C39.2919 47.3552 46.8319 47.4011 47.2048 47.4011C47.4401 47.4011 47.6449 47.3888 47.8191 47.3674C47.9933 47.346 48.14 47.2941 48.2562 47.2116C48.3723 47.129 48.461 47.0129 48.519 46.8631C48.574 46.7103 48.6046 46.4994 48.6046 46.2305V43.3484H49.9188V45.6345C49.9188 45.9035 49.9372 46.148 49.9769 46.368C50.0166 46.5881 50.093 46.7715 50.2031 46.9212C50.3131 47.071 50.469 47.1871 50.6676 47.2758C50.8663 47.3644 51.1261 47.4072 51.4531 47.4072C51.6395 47.4072 59.0512 47.3949 59.2009 47.3736C59.3507 47.3522 59.4791 47.3002 59.583 47.2177C59.6899 47.1352 59.7725 47.019 59.8305 46.8693C59.8886 46.7164 59.9192 46.5056 59.9192 46.2366V42.5537H61.2334V45.6406C61.2334 45.9096 61.2517 46.1541 61.2915 46.3741C61.3312 46.5942 61.4045 46.7776 61.5115 46.9273C61.6185 47.0771 61.7621 47.1932 61.9425 47.2819C62.1228 47.3674 62.352 47.4133 62.6332 47.4133C63.0672 47.4133 63.2811 47.6272 63.2811 48.0551C63.2811 48.3241 63.2292 48.5075 63.1253 48.6022C63.0213 48.6969 62.8563 48.7459 62.6332 48.7459C62.2175 48.7459 61.8813 48.645 61.6215 48.4463C61.3618 48.2477 61.1906 47.997 61.1081 47.7006C61.0133 47.9268 60.8789 48.104 60.7077 48.2416C60.5365 48.376 60.3532 48.483 60.1606 48.5564C59.9681 48.6328 59.7786 48.6817 59.5952 48.7092C59.4118 48.7336 59.2559 48.7459 59.1276 48.7459C58.7792 48.7459 51.2361 48.7122 50.9916 48.648C50.7471 48.5839 50.5454 48.5013 50.3834 48.4005C50.2245 48.2996 50.0992 48.1865 50.0075 48.0643C49.9188 47.939 49.8485 47.8198 49.7966 47.7006C49.601 48.1376 49.3014 48.4219 48.898 48.5533C48.4946 48.6817 48.0178 48.7459 47.4615 48.7459C47.0856 48.7459 39.5242 48.7153 39.2767 48.6572C39.026 48.5991 38.8213 48.5166 38.6623 48.4158C38.5034 48.3149 38.372 48.1988 38.2742 48.0704C38.1764 47.942 38.0939 47.8106 38.0266 47.6822C37.938 47.9084 37.8188 48.0857 37.6721 48.2232C37.5254 48.3577 37.3389 48.4677 37.1128 48.5472C36.8835 48.6297 36.6024 48.6817 36.2601 48.7061C35.9208 48.7306 35.5174 48.7428 35.0497 48.7428H34.5088C34.0809 48.7428 33.8669 48.5289 33.8669 48.101C33.8669 47.832 33.9189 47.6486 34.0198 47.5539C34.1206 47.4591 34.2826 47.4102 34.5088 47.4102H35.0742L35.0773 47.395Z" fill="white"/>
<path d="M62.6545 48.7274C62.2266 48.7274 62.0127 48.5134 62.0127 48.0855C62.0127 47.8166 62.0647 47.6332 62.1655 47.5385C62.2664 47.4437 62.4284 47.3948 62.6545 47.3948H76.0291V42.5383H77.3525V48.7274H62.6545ZM75.7907 39.8304C75.7907 39.595 75.8732 39.3964 76.0382 39.2313C76.2033 39.0693 76.405 38.9868 76.6403 38.9868C76.8757 38.9868 77.0774 39.0693 77.2424 39.2313C77.4075 39.3933 77.49 39.595 77.49 39.8304C77.49 40.0657 77.4075 40.2766 77.2424 40.4416C77.0774 40.6067 76.8757 40.6892 76.6403 40.6892C76.405 40.6892 76.2033 40.6067 76.0382 40.4416C75.8732 40.2766 75.7907 40.0718 75.7907 39.8304Z" fill="white"/>
<path d="M84.3822 48.7277C84.3363 49.3787 84.1988 49.9196 83.9696 50.3506C83.7404 50.7815 83.4286 51.1238 83.0343 51.3806C82.6401 51.6373 82.1664 51.8176 81.6132 51.9246C81.06 52.0316 80.4456 52.0835 79.7702 52.0835H79.0947V50.751H79.5929C80.0942 50.751 80.5526 50.7265 80.9713 50.6807C81.39 50.6318 81.7538 50.537 82.0594 50.3903C82.365 50.2436 82.6065 50.0388 82.7807 49.7699C82.9549 49.504 83.0496 49.1555 83.068 48.7277H81.2464C80.8093 48.7277 80.4059 48.6788 80.0361 48.584C79.6693 48.4893 79.3454 48.3303 79.0703 48.1072C78.7952 47.8841 78.5813 47.5999 78.4254 47.2484C78.2695 46.8969 78.1931 46.4599 78.1931 45.9372C78.1931 45.4941 78.2665 45.0631 78.4071 44.6444C78.5507 44.2257 78.7585 43.8559 79.0336 43.5349C79.3087 43.214 79.6418 42.9542 80.033 42.7556C80.4242 42.5569 80.8705 42.4561 81.3778 42.4561C81.9341 42.4561 82.4047 42.5569 82.7868 42.7556C83.1688 42.9542 83.4836 43.2354 83.7281 43.5991C83.9726 43.9628 84.1469 44.3999 84.2538 44.9195C84.3608 45.436 84.4128 46.0106 84.4128 46.6402V47.3982H85.5344C85.9684 47.3982 106.223 47.6121 106.223 48.04C106.223 48.3089 106.171 48.4923 106.067 48.5871C105.963 48.6818 85.7606 48.7307 85.5344 48.7307H84.3791L84.3822 48.7277ZM79.4829 45.7997C79.4829 46.3498 79.6388 46.7533 79.9536 47.01C80.2684 47.2667 80.7299 47.392 81.335 47.392H83.0649V46.3284C83.0649 45.5368 82.9304 44.9042 82.6615 44.4305C82.3925 43.9598 81.931 43.7214 81.28 43.7214C80.9713 43.7214 80.7054 43.7825 80.4793 43.9078C80.2531 44.0331 80.0697 44.1921 79.9261 44.3938C79.7824 44.5955 79.6724 44.8155 79.596 45.0601C79.5196 45.3046 79.4829 45.5491 79.4829 45.7966V45.7997Z" fill="white"/>
<path d="M85.5556 48.7274C85.1278 48.7274 84.9138 48.5134 84.9138 48.0855C84.9138 47.8166 84.9658 47.6332 85.0666 47.5385C85.1675 47.4437 85.3295 47.3948 85.5556 47.3948H107.424C107.311 47.1686 107.213 46.9211 107.124 46.6491C107.036 46.377 106.993 46.0622 106.993 45.7077C106.993 45.2859 107.063 44.8733 107.201 44.4638C107.338 44.0542 107.543 43.6966 107.812 43.3818C108.081 43.067 108.411 42.8103 108.802 42.6116C109.193 42.413 109.646 42.3121 110.165 42.3121C110.749 42.3121 111.229 42.4191 111.608 42.6361C111.984 42.8531 112.283 43.1251 112.506 43.4582C112.73 43.7914 112.879 44.1551 112.962 44.5555C113.044 44.9558 113.084 45.3471 113.084 45.7352V48.7274H85.5587H85.5556ZM108.081 39.8304C108.081 39.595 108.166 39.3964 108.335 39.2313C108.503 39.0693 108.704 38.9868 108.943 38.9868C109.181 38.9868 109.38 39.0693 109.542 39.2313C109.704 39.3933 109.786 39.595 109.786 39.8304C109.786 40.0657 109.704 40.2766 109.542 40.4416C109.38 40.6067 109.178 40.6892 108.943 40.6892C108.707 40.6892 108.506 40.6067 108.335 40.4416C108.166 40.2766 108.081 40.0718 108.081 39.8304ZM108.249 45.4876C108.249 46.1448 108.442 46.6277 108.827 46.9333C109.212 47.2389 109.682 47.3917 110.239 47.3917H111.782V45.7811C111.782 45.5213 111.758 45.2615 111.712 45.0017C111.663 44.7388 111.577 44.5066 111.449 44.2987C111.324 44.0909 111.146 43.9197 110.917 43.7853C110.691 43.6508 110.404 43.5835 110.061 43.5835C109.493 43.5835 109.05 43.77 108.729 44.1429C108.408 44.5157 108.249 44.965 108.249 45.4876ZM110.178 39.8304C110.178 39.595 110.26 39.3964 110.425 39.2313C110.59 39.0693 110.792 38.9868 111.027 38.9868C111.263 38.9868 111.458 39.0693 111.626 39.2313C111.794 39.3933 111.88 39.595 111.88 39.8304C111.88 40.0657 111.794 40.2766 111.626 40.4416C111.458 40.6067 111.256 40.6892 111.027 40.6892C110.798 40.6892 110.59 40.6067 110.425 40.4416C110.26 40.2766 110.178 40.0718 110.178 39.8304Z" fill="white"/>
</g>
<g clip-path="url(#clip1_1_17721)">
<rect x="124.032" y="1.39111" width="54.0972" height="54.0972" fill="#5064BA"/>
<g clip-path="url(#clip2_1_17721)">
<path d="M169.165 48.8647C168.73 51.9543 175.562 50.0326 174.963 53.2041L174.715 54.0278C172.381 53.2761 171.605 54.1931 169.84 54.2501L166.343 54.0527C170.419 53.5768 172.653 52.3035 174.542 52.9989C173.693 51.0872 167.568 52.8877 169.164 48.8655L169.165 48.8647Z" fill="white"/>
<path d="M167.383 52.34C167.803 44.8355 153.984 49.7007 155.591 42.8604C156.531 47.727 164.602 42.8604 164.681 47.2596C164.11 45.8751 162.126 46.0326 160.093 46.2428C163.232 46.9382 168.369 46.8755 167.383 52.3393L167.383 52.34Z" fill="white"/>
<path d="M146.348 54.5558C148.598 49.2132 134.423 48.3524 136.801 42.4683C136.904 46.5696 145.044 44.0323 144.181 49.2431C144.014 46.7813 141.215 46.7663 138.789 45.8507C142.396 48.6695 148.901 50.2399 146.348 54.5558Z" fill="white"/>
<path d="M165.953 52.379C165.81 55.1608 161.9 54.5373 162.495 51.5069C161.049 51.3124 160.713 52.5814 159.712 53.5462C159.712 53.5462 158.61 54.61 158.158 53.4029L157.803 52.0769C156.627 49.2816 153.998 48.6745 152.169 47.6656C150.812 46.9167 150.224 45.8002 150.511 43.1353C150.412 48.8876 157.225 46.2626 158.334 52.6056C158.984 53.5868 159.909 52.5771 160.368 51.923C159.877 51.8788 159.438 51.7413 159.316 51.0316C159.293 50.9048 159.297 50.7737 159.32 50.6468L159.45 49.9521C159.485 49.7626 159.565 49.5823 159.692 49.437C160.554 48.443 161.589 49.4683 161.802 50.6077C161.879 51.4527 161.808 52.4232 161.67 53.4528C162.065 50.6183 160.482 49.204 159.512 50.4438C160.57 51.8175 161.6 50.1181 162.595 50.4651C162.666 50.4901 162.712 50.5578 162.706 50.6326L162.629 51.5005C162.801 53.5939 165.341 53.6602 165.837 52.2379C165.825 51.9358 165.749 51.6622 165.596 51.4221C165.358 50.7651 164.659 50.4979 163.712 50.4409C164.407 51.1891 165.796 50.126 166.069 50.5535C166.096 50.5955 166.104 50.6476 166.099 50.6981L166.122 51.6373C165.629 51.0644 165.156 51.5432 164.584 51.6437C163.978 51.7499 163.262 51.5468 163.317 50.4808L163.511 49.4156C164.802 49.8345 166.294 50.0148 165.954 52.3783L165.953 52.379Z" fill="white"/>
<path d="M163.688 42.8606C163.022 46.4568 147.942 46.2651 147.232 52.7342C147.062 55.4454 149.95 54.2705 150.74 52.8155C150.657 53.4154 150.71 53.7745 150.845 53.9862C150.923 54.108 151.089 54.1287 151.196 54.0311C151.761 53.5187 151.809 52.5126 152.221 52.1136C152.074 53.7489 153.046 54.0061 153.896 54.413L154.078 53.0285L155.534 53.9684L155.66 53.58C156.77 54.8433 157.618 52.0053 158.76 51.55L158.867 50.6037C158 50.7733 156.778 53.7795 155.935 52.7827C155.845 52.6751 155.808 52.5326 155.823 52.3922C156.025 50.5268 154.611 50.8296 154.048 49.3383C153.73 50.8638 154.272 50.7092 155.604 52.1806C155.646 52.4449 155.649 52.7164 155.604 52.9979C154.522 52.1806 153.659 52.1051 153.608 50.9757C153.128 52.544 153.943 52.6901 153.908 53.4076C153.065 53.0192 152.11 52.7585 152.4 51.0754C151.73 51.4659 151.76 52.9744 151.126 53.1739C150.956 53.1739 150.917 52.9922 150.919 52.7542L150.972 51.7146C149.042 54.3802 147.457 53.3484 147.385 52.6958C149.587 46.9049 164.348 47.7835 163.69 42.8599L163.688 42.8606Z" fill="white"/>
<path d="M150.805 47.9536L150.953 47.2112C150.965 47.1506 150.911 47.0972 150.851 47.1107C149.931 47.3195 149.419 48.3327 148.604 48.8144C147.839 49.2661 146.942 49.2348 146.546 48.545C146.311 48.136 146.343 47.6287 146.592 47.2276C146.857 46.7993 147.231 46.5421 147.942 46.2656C147.205 46.4922 146.618 46.6775 146.171 47.9372C145.587 49.6894 147.153 50.4789 148.425 49.72C149.22 49.2455 149.815 48.0812 150.725 48.0213C150.764 48.0185 150.797 47.9914 150.805 47.9529L150.805 47.9536Z" fill="white"/>
<path d="M139.465 54.6508C142.546 49.7285 132.534 49.0894 136.187 44.2427C134.35 46.2464 134.686 47.655 135.678 48.8699C136.802 50.2466 139.512 51.5491 139.733 53.2784C139.224 52.8259 138.552 52.806 138.03 53.1188C138.825 51.6681 139.04 50.4069 138.896 49.5597C139.831 50.4311 140.604 51.5234 140.262 52.8103C139.874 54.1776 140.301 54.8973 141.554 52.6229C141.115 53.9895 142.037 54.1392 142.824 54.5567C142.914 54.6044 143.026 54.5645 143.064 54.4705L143.454 53.5057L144.912 54.2667C145.047 54.3372 145.213 54.2724 145.264 54.1299L145.531 53.3953C145.551 53.3361 145.568 53.2506 145.583 53.153C145.656 52.6728 145.504 52.1861 145.171 51.8312C144.8 51.4358 144.266 50.8985 143.747 50.4974C143.683 50.4475 143.589 50.4731 143.56 50.5494L143.314 51.18C143.291 51.2398 143.31 51.3068 143.361 51.346C143.705 51.6089 144.981 52.6207 145.253 53.3867C144.347 52.8623 143.249 52.7433 143.077 51.6438C143.072 51.6125 143.029 51.6061 143.015 51.6346C142.381 52.8666 142.885 52.9207 143.079 53.6154C142.29 53.2221 141.563 53.1309 141.916 51.7821C141.928 51.74 141.876 51.7073 141.844 51.7372C141.511 52.0407 141.249 52.7632 140.973 53.0369C140.7 53.3062 140.489 53.3582 140.459 52.9442C140.452 52.8438 140.467 52.7426 140.496 52.6457C141.895 47.8859 133.562 46.7979 134.849 43.4561C132.486 47.1662 139.269 47.7434 138.727 51.051C138.68 51.3382 138.577 51.6132 138.436 51.869L137.755 53.1095C137.595 53.3995 137.455 53.6995 137.335 54.0073L137.083 54.6529C138.143 53.5805 139.205 53.6333 139.467 54.6529L139.465 54.6508Z" fill="white"/>
<path d="M133.576 45.4724C133.489 47.201 135.516 47.0371 134.892 48.7266L134.599 49.6179C133.763 49.2168 132.733 48.9902 133.1 47.496C132.287 48.4102 130.81 48.6154 131.228 46.8383C131.053 46.8697 130.866 47.0606 130.667 47.3984C130.395 49.8673 138.006 50.0198 136.883 53.4942L136.594 54.4026C135.376 52.9911 133.703 53.6388 132.023 51.9551L131.027 49.6358C133.459 52.7873 134.2 51.6487 136.672 53.3445C135.602 50.3447 129.376 50.7808 130.495 47.4597C130.692 46.5918 131.061 46.0845 131.589 45.8757L131.436 46.7208C131.587 47.8729 133.086 47.0272 133.487 46.4685C133.078 47.4725 133.422 48.2164 134.68 48.6453C134.194 47.548 132.71 47.3841 133.576 45.4717V45.4724Z" fill="white"/>
<path d="M129.757 49.8931C128.197 52.3884 133.26 51.4443 132.174 53.6538C132.156 53.6895 132.131 53.7222 132.103 53.7507L131.438 54.4148C131.192 53.4807 128.225 55.329 125.454 53.2954C128.712 54.2089 129.578 53.0966 131.587 53.4173C131.446 52.7126 130.334 52.548 129.443 52.0777C128.655 51.6609 128.447 50.8493 129.756 49.8938L129.757 49.8931Z" fill="white"/>
<path d="M128.347 51.8091C128.863 49.737 126.18 48.1751 127.62 46.9217C129.02 46.2819 129.458 46.4037 130.099 45.7368C131.511 44.2839 131.38 41.9019 133.973 41.8684C130.358 40.0956 130.585 46.2555 126.965 45.3192C127.874 43.9775 128.12 42.1727 130.213 41.9439C130.84 42.7733 129.85 44.1343 128.047 43.8778C126.998 43.6605 126.081 40.8074 129.415 40.806L130.194 40.9386C130.379 39.5249 127.937 39.76 126.65 37.4001C125.92 36.0612 126.158 35.6978 125.635 33.8281C125.413 34.8435 125.423 35.8674 125.635 36.8999C126.897 39.5021 129.178 39.2142 129.286 40.526C125.096 39.9902 125.709 43.7766 127.873 43.9768C129.394 44.4222 130.377 44.1991 131.004 43.535C131.598 42.6779 131.283 42.0601 130.166 41.7829C127.596 41.0896 126.958 43.9077 125.951 45.1468C126.874 45.6271 127.888 45.7375 128.943 45.6727C128.12 46.4294 126.906 46.0973 126.402 47.0821C126.006 48.785 127.893 49.5703 127.437 51.5354L128.347 51.8076V51.8091Z" fill="white"/>
<path d="M131.712 40.7888L132.635 40.9812C132.627 39.9836 129.713 38.1032 130.693 37.432C130.842 37.3301 131.028 37.2959 131.207 37.3216L131.762 37.4007C131.846 37.4128 131.905 37.3244 131.865 37.2503C131.543 36.6603 130.433 36.1908 129.874 35.4184C129.464 34.8519 129.565 34.2049 130.382 33.9498L131.091 34.0239C131.213 34.0368 131.306 33.9171 131.262 33.8031C130.937 32.9551 130.556 32.0011 130.94 31.4681C131.263 32.3922 129.828 33.0798 128.708 32.9673C127.713 32.5262 126.493 31.2921 126.056 29.6703C125.739 28.4939 125.368 26.704 125.262 24.3306C125.006 25.2163 124.974 26.5801 125.039 28.1562C125.048 28.3771 125.069 28.5972 125.11 28.8146C125.53 31.0398 126.921 32.8005 128.81 33.109C130.441 33.5116 131.516 33.01 132.03 31.5928C132.075 31.4681 131.998 31.332 131.868 31.3035L131.283 31.1752C131.091 31.1332 130.896 31.1139 130.7 31.1289C128.966 31.2614 130.513 33.6214 130.291 33.7575C128.587 33.595 128.399 34.4614 129.02 35.3343C129.458 35.9492 130.957 36.7451 130.962 37.142C129.3 36.8043 129.391 37.6558 129.992 38.4616C130.598 39.2739 131.7 40.0834 131.711 40.7888H131.712Z" fill="white"/>
<path d="M133.617 26.6993C131.014 25.545 130.57 27.3919 129.708 28.6588C129.533 28.0375 129.242 27.3998 129.682 26.8654C129.8 26.7214 129.964 26.6238 130.139 26.5583C132.969 25.498 132.238 17.2568 135.411 16.7266C135.948 17.3487 137.184 19.8191 133.801 21.4714C134.242 21.4593 134.66 21.4038 135.05 21.2997C135.923 21.066 136.642 20.4247 136.892 19.5583C137.326 18.0577 136.2 16.7929 135.302 16.4894C131.931 15.6001 131.835 23.4459 130.199 25.5336C130.045 25.7296 129.842 25.8821 129.612 25.979C129.044 26.2191 128.792 26.378 128.673 26.8262C128.421 27.7703 129.693 29.7184 127.994 31.3879C127.941 31.4392 127.957 31.5275 128.024 31.5582L128.843 31.9351C128.902 31.9622 128.972 31.9522 129.019 31.9066C130.73 30.2343 130.299 26.4386 133.618 26.6993H133.617Z" fill="white"/>
<path d="M127.095 27.0054L128.041 27.259C128.314 25.7214 126.684 25.1278 126.066 23.8481C125.42 22.5107 125.107 21.4447 124.992 20.3994C124.992 21.097 124.944 22.1081 125.069 22.9418C125.11 23.2111 125.309 23.8616 125.563 24.2044C126.407 25.3451 127.597 26.0912 127.095 27.0054Z" fill="white"/>
<path d="M127.535 24.3038L128.501 24.5781C129.123 24.5232 128.08 23.2849 128.806 22.7305C128.717 23.3967 128.437 23.7794 127.84 23.6953C126.551 22.7619 125.713 20.2986 125.001 17.4121L125.175 20.4454C125.182 20.5736 125.207 20.7005 125.253 20.8209C125.829 22.35 126.57 23.6019 127.85 23.9489C129.363 24.343 129.582 23.587 129.747 22.7832C129.762 22.7134 129.72 22.6436 129.652 22.6229L129.199 22.4861C128.935 22.4063 128.658 22.3728 128.384 22.3992C126.813 22.5531 128.49 24.1378 127.535 24.3038Z" fill="white"/>
<path d="M127.238 20.6604L128.214 20.9447C128.91 20.929 128.04 19.5588 128.662 18.9139C128.611 19.5175 128.576 20.1324 127.747 20.1523C126.367 18.8911 125.604 16.3602 125.276 12.9336V16.6374C125.276 16.8789 125.313 17.119 125.387 17.3485C125.834 18.728 126.431 19.9165 127.595 20.3853L128.571 20.5884C129.596 20.4658 129.86 19.1248 129.049 18.7301L128.419 18.5883C126.74 18.3147 128.215 20.743 127.24 20.6597L127.238 20.6604Z" fill="white"/>
<path d="M127.463 17.604L128.275 17.8683C128.317 17.8819 128.361 17.8576 128.371 17.8156C128.864 15.7856 126.862 14.7374 126.107 13.0964C125.592 11.9778 125.579 10.9239 125.698 8.43359C125.183 9.5309 124.985 11.3336 125.078 12.1253C125.345 14.4232 128.343 16.3392 127.429 17.4857C127.397 17.527 127.414 17.5876 127.464 17.604H127.463Z" fill="white"/>
<path d="M128.08 14.182L128.701 14.5034C128.768 14.5383 128.851 14.5034 128.873 14.4307C129.451 12.5567 127.641 11.4352 126.722 8.54014C126.59 8.12758 126.288 6.55928 126.158 4.50146C125.812 6.13603 125.874 6.95474 125.978 8.22591C126.123 10.0115 128.673 12.2689 128.022 14.036C128.001 14.0922 128.027 14.1549 128.08 14.1827V14.182Z" fill="white"/>
<path d="M129.458 12.7615L130.373 13.127C130.543 11.7055 128.882 10.4821 128.285 8.7948C127.783 7.37542 127.957 6.60018 128.868 6.39924C129.428 6.27597 129.996 6.45197 130.469 6.77689C131.415 7.42672 132.04 8.35587 132.04 8.35587C132.04 8.35587 131.28 7.10181 130.305 6.51966C129.824 6.23322 129.288 6.04653 128.731 5.99666C126.905 5.83277 126.878 7.27353 127.511 8.75062C128.222 10.4094 129.698 11.4134 129.457 12.7622L129.458 12.7615Z" fill="white"/>
<path d="M126.249 16.4644C128.777 17.99 132.041 8.35503 137.031 12.6174C133.083 10.1962 133.444 18.0249 129.906 15.5531C131.353 15.945 132.16 14.3525 133.231 12.616C130.693 14.2164 128.548 18.2494 126.248 16.4644H126.249Z" fill="white"/>
<path d="M159.762 48.7993L159.855 47.9208L158.806 47.7056L158.721 48.6219L159.762 48.7993Z" fill="white"/>
<path d="M163.058 49.3921L163.15 48.5142L162.102 48.2983L162.017 49.2154L163.058 49.3921Z" fill="white"/>
<path d="M158.445 50.3185L158.901 49.5625L158.042 48.9233L157.577 49.7178L158.445 50.3185Z" fill="white"/>
<path d="M151.414 51.6139L151.886 50.8672L151.041 50.2109L150.558 50.9954L151.414 51.6139Z" fill="white"/>
<path d="M148.332 48.3048L148.803 47.5581L147.958 46.9019L147.476 47.6864L148.332 48.3048Z" fill="white"/>
<path d="M150.126 52.0109L150.598 51.2642L149.753 50.6079L149.271 51.3924L150.126 52.0109Z" fill="white"/>
<path d="M134.192 53.2558L133.54 53.9062L134.286 54.6509L134.937 54.0005L134.192 53.2558Z" fill="white"/>
<path d="M132.829 53.165L132.177 53.8154L132.923 54.5601L133.575 53.9096L132.829 53.165Z" fill="white"/>
<path d="M126.317 50.1072L125.565 50.8584L126.311 51.6031L127.063 50.8518L126.317 50.1072Z" fill="white"/>
<path d="M128.032 35.1125L127.28 35.8638L128.026 36.6084L128.778 35.8572L128.032 35.1125Z" fill="white"/>
<path d="M125.557 31.7887L125.166 32.1792L125.554 32.5661L125.945 32.1757L125.557 31.7887Z" fill="white"/>
<path d="M125.562 32.6256L125.171 33.0161L125.558 33.4031L125.95 33.0126L125.562 32.6256Z" fill="white"/>
<path d="M128.186 36.5832L127.434 37.3345L128.18 38.0792L128.932 37.3279L128.186 36.5832Z" fill="white"/>
<path d="M133.569 39.3044L132.817 40.0557L133.563 40.8003L134.315 40.0491L133.569 39.3044Z" fill="white"/>
<path d="M127.34 27.5856L126.961 28.4238L127.922 28.8577L128.301 28.0195L127.34 27.5856Z" fill="white"/>
<path d="M127.88 28.9958L127.5 29.834L128.461 30.2679L128.841 29.4297L127.88 28.9958Z" fill="white"/>
<path d="M129.719 17.1706L129.092 17.8442L129.864 18.5614L130.492 17.8878L129.719 17.1706Z" fill="white"/>
<path d="M130.155 7.74987L129.492 8.38818L130.224 9.14651L130.887 8.50819L130.155 7.74987Z" fill="white"/>
<path d="M130.09 9.10973L129.427 9.74805L130.159 10.5064L130.822 9.86806L130.09 9.10973Z" fill="white"/>
<path d="M126.761 28.5002L126.381 29.3384L127.343 29.7723L127.722 28.9341L126.761 28.5002Z" fill="white"/>
<path d="M136.326 11.2441C136.869 11.8918 137.438 11.8334 137.618 11.4657C136.296 10.0755 133.105 11.5077 132.465 8.91624C132.322 8.29704 132.337 7.67998 132.679 7.06934L132.891 7.8004C133.242 8.89629 134.509 9.29246 135.897 9.596C135.77 9.46133 135.679 9.20339 135.61 8.8685C135.61 8.8685 135.995 9.58745 136.711 9.61453L136.814 10.2316C135.147 9.88529 133.278 9.85465 132.754 7.71846C132.617 7.92438 132.549 8.33053 132.53 8.87776C133.791 11.1272 137.05 9.306 137.727 11.4158C138.032 12.3336 136.813 12.8637 136.325 11.2441H136.326Z" fill="white"/>
<path d="M132.704 28.2272L133.28 28.441C132.512 29.2184 131.65 29.6837 130.54 29.316C130.925 29.8012 131.337 30.176 131.805 30.4411C133.78 31.5776 133.975 29.0288 135.616 28.9968C135.714 29.6359 135.26 30.233 134.267 30.0663L135.359 30.3093C136.032 30.1774 136.636 29.3402 135.721 28.8927C133.915 28.131 133.378 30.9641 131.879 30.372C131.541 30.1204 131.243 29.8675 131.107 29.6117C132.744 30.025 133.649 28.8343 134.626 27.7997L134.021 27.4897C133.627 28.0455 133.193 28.3284 132.704 28.2279L132.704 28.2272Z" fill="white"/>
<path d="M132.233 34.2256L132.752 34.418C132.061 35.1184 131.285 35.5366 130.286 35.2053C130.633 35.6421 131.004 35.9798 131.425 36.2178C133.203 37.241 133.379 34.9467 134.856 34.9174C134.944 35.4925 134.536 36.0304 133.641 35.8801L134.624 36.0988C135.229 35.9806 135.773 35.2267 134.95 34.8234C133.323 34.1372 132.84 36.6881 131.491 36.1551C131.186 35.9285 130.918 35.7012 130.796 35.4704C132.27 35.8423 133.085 34.7707 133.964 33.8394L133.419 33.5601C133.065 34.0603 132.674 34.3154 132.233 34.2249V34.2256Z" fill="white"/>
<path d="M151.729 45.4913L152.066 44.7382C152.809 45.383 153.347 46.2081 153.078 47.2249C155.126 44.8329 153.293 44.2672 153.062 43.4442C153.936 42.9055 154.97 43.7321 154.603 45.0046L154.771 44.2608C154.921 43.5995 154.494 42.9283 153.824 42.8221C153.483 42.768 153.156 42.872 153.016 43.2105C152.378 44.4111 153.67 44.5921 153.836 45.5048C153.876 45.7243 153.825 45.9502 153.708 46.1404C153.606 46.3057 153.463 46.4939 153.334 46.5722C153.517 45.3588 152.366 44.3106 151.448 43.5496L151.229 44.0976C151.751 44.4189 151.909 45.0331 151.73 45.4899L151.729 45.4913Z" fill="white"/>
<path d="M132.095 44.8206L132.66 44.9439C132.66 44.9439 132.36 45.5082 131.799 45.2923C131.238 45.0764 131.128 45.0544 131.308 44.6796C131.489 44.3048 132.382 44.3753 132.382 44.3753C132.382 44.3753 133 44.4458 133.238 43.7668C133.477 43.0877 133.898 41.86 135.82 42.4158C135.82 42.4158 134.408 42.0211 133.781 43.9627C133.547 44.6853 132.752 44.5534 132.752 44.5534C132.752 44.5534 131.662 44.4786 131.814 45.1263L132.095 44.8206Z" fill="white"/>
<path d="M128.829 49.1675C128.268 48.9516 127.661 48.5219 127.842 48.1471C128.001 47.8172 128.377 48.1101 128.465 48.1856C128.482 48.1999 128.501 48.2113 128.523 48.217C128.619 48.2426 128.865 48.2426 128.981 47.6234C129.134 46.8033 129.551 46.7235 130.356 47C130.356 47 129.75 46.7584 129.547 47.7823C129.364 48.7065 128.713 48.4642 128.527 48.3737C128.484 48.3531 128.433 48.3638 128.403 48.4008C128.331 48.4877 128.299 48.6994 128.83 49.1682L128.829 49.1675Z" fill="white"/>
<path d="M169.358 52.7084C168.838 53.0084 168.121 53.2115 167.943 52.8353C167.786 52.5046 168.25 52.3963 168.364 52.3749C168.386 52.3707 168.407 52.3628 168.425 52.3493C168.506 52.2909 168.661 52.0992 168.25 51.6204C167.706 50.9869 167.906 50.6128 168.626 50.1597C168.626 50.1597 168.057 50.4796 168.729 51.2798C169.334 52.0023 168.737 52.3564 168.549 52.4441C168.507 52.464 168.483 52.511 168.492 52.5574C168.514 52.6678 168.66 52.826 169.358 52.707V52.7084Z" fill="white"/>
<path d="M177.528 54.3442C177.008 54.6441 176.292 54.8472 176.113 54.471C175.956 54.1404 176.42 54.0321 176.534 54.0107C176.556 54.0064 176.577 53.9986 176.596 53.985C176.676 53.9266 176.831 53.7349 176.42 53.2561C175.876 52.6227 176.076 52.2486 176.797 51.7954C176.797 51.7954 176.227 52.1153 176.899 52.9155C177.505 53.638 176.908 53.9922 176.72 54.0798C176.677 54.0998 176.653 54.1468 176.663 54.1931C176.685 54.3035 176.83 54.4617 177.528 54.3427V54.3442Z" fill="white"/>
<path d="M127.764 22.3513C127.459 21.9394 127.25 21.3609 127.624 21.1941C127.953 21.0473 128.065 21.4236 128.088 21.5162C128.092 21.534 128.1 21.5511 128.113 21.5654C128.172 21.6288 128.365 21.7456 128.839 21.3822C129.466 20.9013 129.842 21.0459 130.301 21.6152C130.301 21.6152 129.976 21.1642 129.184 21.7584C128.468 22.295 128.109 21.8226 128.02 21.6729C127.999 21.6387 127.952 21.6216 127.906 21.6316C127.796 21.6558 127.639 21.7834 127.764 22.352V22.3513Z" fill="white"/>
<path d="M128.702 51.9766C128.695 51.9638 128.679 51.9595 128.666 51.9673C128.587 52.0165 128.321 52.1725 128.326 52.1811C128.341 52.2089 128.357 52.2367 128.374 52.2652C128.296 52.3079 128.214 52.3471 128.148 52.4034C127.692 52.7924 128.142 53.4323 128.142 53.4323C128.142 53.4323 128.387 53.2713 128.478 53.2121C128.5 53.1972 128.521 53.1808 128.541 53.1622C129.084 52.6521 128.902 52.3321 128.703 51.9773L128.702 51.9766ZM128.392 52.2972C128.514 52.5153 128.618 52.7447 128.458 53.044C128.352 52.806 128.182 52.5701 128.392 52.2972Z" fill="white"/>
<path d="M149.36 44.9395C149.347 44.9323 149.332 44.9366 149.325 44.9494C149.283 45.0328 149.137 45.3036 149.145 45.3078C149.172 45.3235 149.2 45.3392 149.229 45.3549C149.185 45.4318 149.135 45.5074 149.107 45.59C148.919 46.1586 149.636 46.4736 149.636 46.4736C149.636 46.4736 149.762 46.2099 149.809 46.1116C149.82 46.0874 149.83 46.0624 149.838 46.0368C150.037 45.32 149.716 45.1404 149.361 44.9395H149.36ZM149.262 45.3741C149.479 45.4974 149.687 45.6406 149.705 45.9784C149.491 45.8294 149.222 45.7161 149.262 45.3741Z" fill="white"/>
<path d="M125.703 52.808C125.395 51.8952 126.783 51.846 127.419 52.5172C127.476 52.5771 126.99 51.8895 126.255 51.8026C125.524 51.7156 125.333 52.1574 125.463 52.545C125.479 52.5906 125.638 52.7396 125.667 52.7709C125.676 52.7802 125.699 52.7973 125.704 52.8087L125.703 52.808Z" fill="white"/>
<path d="M126.67 54.1733C126.67 54.1733 126.235 53.8605 125.402 54.4128C125.553 53.6247 125.21 53.6389 125.025 53.6161C124.97 53.609 124.9 53.614 124.848 53.5962C125.244 53.7344 125.048 54.2995 125.008 54.5952C125.028 54.598 125.362 54.6393 125.362 54.6393C125.923 54.2239 126.67 54.1741 126.671 54.1741L126.67 54.1733Z" fill="white"/>
<path d="M143.287 44.3994C143.24 46.1601 146.253 46.2178 145.681 48.8278C145.639 46.6703 142.691 46.6304 143.287 44.3994Z" fill="white"/>
<path d="M135.276 14.2853C133.518 14.4349 133.797 17.4311 131.135 17.154C133.278 16.8718 132.989 13.9418 135.276 14.2853Z" fill="white"/>
<path d="M139.393 44.7471C139.56 44.2148 139.333 43.8229 138.787 43.5457C138.725 43.5144 138.702 43.4374 138.737 43.3776L138.908 43.084C138.989 42.9465 139.148 42.8724 139.303 42.9052C139.963 43.0441 141.753 43.4267 143.151 43.5187C145.275 43.659 150.35 42.105 149.659 43.788C149.38 45.1668 145.817 45.0285 144.83 44.9466C145.48 44.7335 148.933 44.5191 149.434 43.8607C149.077 42.6451 145.504 44.9715 139.749 43.622C139.846 44.0495 139.657 44.4079 139.393 44.7471Z" fill="white"/>
<path d="M134.886 31.4767C135.426 31.6228 135.808 31.3805 136.065 30.8247C136.094 30.7613 136.169 30.7357 136.231 30.7677L136.532 30.9273C136.673 31.0022 136.753 31.1582 136.727 31.315C136.614 31.979 136.302 33.7789 136.266 35.1776C136.21 37.3017 137.761 42.9258 136.049 42.3037C135.218 41.9924 135.081 41.1444 135.125 40.1576C135.364 40.7981 135.631 41.4466 136.027 42.1313C137.229 41.7273 134.906 37.5825 136.027 31.7881C135.603 31.9014 135.237 31.7275 134.886 31.4767Z" fill="white"/>
<path d="M134.915 21.7594C135.455 21.9055 135.837 21.6632 136.094 21.1074C136.123 21.044 136.199 21.0184 136.26 21.0504L136.561 21.2101C136.702 21.2849 136.782 21.4409 136.756 21.5977C136.643 22.2618 136.331 24.0616 136.295 25.4603C136.239 27.5844 137.58 28.9881 135.868 28.3661C135.037 28.0547 135.165 26.7921 135.209 25.8052C135.448 26.4458 135.71 27.5196 136.106 28.205C136.617 27.2517 135.153 26.671 136.056 22.0708C135.633 22.1841 135.266 22.0102 134.916 21.7594H134.915Z" fill="white"/>
<path d="M141.988 49.522C141.863 49.8619 141.752 50.1846 141.718 50.4283C141.714 50.4597 141.721 50.4925 141.738 50.5195C141.869 50.7319 142.099 50.63 142.379 50.3692L142.237 50.9036C142.224 50.9542 142.197 51.0012 142.161 51.039C141.69 51.532 141.426 51.1672 141.576 50.6328C141.666 50.273 141.813 49.9003 141.989 49.522H141.988Z" fill="white"/>
<path d="M154.999 44.9062C154.873 45.2461 154.763 45.5689 154.729 45.8126C154.725 45.844 154.732 45.8767 154.749 45.9038C154.88 46.1161 155.11 46.0142 155.389 45.7535L155.248 46.2879C155.234 46.3385 155.208 46.3855 155.172 46.4232C154.701 46.9163 154.437 46.5515 154.586 46.0171C154.676 45.6573 154.823 45.2846 155 44.9062H154.999Z" fill="white"/>
<path d="M157.788 52.7847C157.662 53.1245 157.552 53.4473 157.518 53.691C157.514 53.7224 157.521 53.7551 157.538 53.7822C157.669 53.9946 157.899 53.8927 158.178 53.6319L158.037 54.1663C158.024 54.2169 157.997 54.2639 157.961 54.3017C157.49 54.7947 157.226 54.4299 157.376 53.8955C157.465 53.5357 157.612 53.163 157.789 52.7847H157.788Z" fill="white"/>
<path d="M130.147 48.6143C129.831 48.7924 129.538 48.9677 129.354 49.1316C129.331 49.1529 129.315 49.1822 129.31 49.2142C129.273 49.4608 129.513 49.5313 129.896 49.5128L129.442 49.8291C129.399 49.8591 129.348 49.8776 129.296 49.8833C128.618 49.9553 128.653 49.5064 129.113 49.1957C129.415 48.9791 129.768 48.7903 130.147 48.615V48.6143Z" fill="white"/>
<path d="M127.661 39.8834C127.22 39.6945 126.8 39.5271 126.48 39.4665C126.439 39.4587 126.395 39.4665 126.358 39.4865C126.069 39.6447 126.046 39.909 126.372 40.2945L125.817 40.1171C125.751 40.0957 125.691 40.0579 125.644 40.0074C125.024 39.3532 125.524 39.0305 126.22 39.2635C126.69 39.406 127.173 39.6254 127.661 39.8827V39.8834Z" fill="white"/>
<path d="M134.399 38.4761C133.958 38.2873 133.538 38.1199 133.218 38.0593C133.177 38.0515 133.133 38.0593 133.096 38.0793C132.807 38.2374 132.784 38.5018 133.11 38.8873L132.555 38.7099C132.489 38.6885 132.429 38.6507 132.382 38.6001C131.762 37.946 132.262 37.6232 132.958 37.8562C133.428 37.9987 133.911 38.2182 134.399 38.4754V38.4761Z" fill="white"/>
<path d="M167.208 51.2944C166.96 51.7041 166.736 52.0968 166.632 52.4046C166.618 52.4445 166.62 52.4886 166.635 52.5278C166.752 52.8357 167.011 52.8948 167.438 52.6255L167.186 53.1499C167.156 53.2126 167.111 53.266 167.054 53.3066C166.32 53.8304 166.069 53.291 166.395 52.634C166.602 52.1887 166.886 51.7419 167.208 51.2944Z" fill="white"/>
<path d="M135.053 32.2818C134.613 32.093 134.193 31.9255 133.873 31.865C133.831 31.8571 133.788 31.865 133.751 31.8849C133.462 32.0431 133.438 32.3075 133.764 32.6929L133.21 32.5155C133.143 32.4941 133.083 32.4564 133.036 32.4058C132.416 31.7517 132.916 31.4289 133.613 31.6619C134.083 31.8044 134.565 32.0239 135.053 32.2811V32.2818Z" fill="white"/>
<path d="M132.457 17.9435C132.102 17.9015 131.766 17.8701 131.524 17.8943C131.493 17.8972 131.464 17.9122 131.442 17.9342C131.268 18.1081 131.308 18.3019 131.622 18.5093L131.188 18.4993C131.137 18.4979 131.086 18.4836 131.041 18.458C130.46 18.1209 130.749 17.7846 131.296 17.8046C131.662 17.8074 132.053 17.863 132.457 17.9435Z" fill="white"/>
<path d="M152.397 49.1934L152.151 49.6772C152.227 49.7734 153.141 50.431 152.782 51.3951C153.791 50.0299 152.397 49.1934 152.397 49.1934Z" fill="white"/>
<path d="M125.662 47.8465C126.026 47.9848 126.26 48.3382 126.252 48.7265C126.239 49.298 126.179 49.734 126.038 49.9371C125.983 50.0169 125.878 50.0461 125.788 50.0098L125.315 49.8188C125.255 49.7946 125.209 49.7433 125.191 49.6799L125.133 49.469C125.096 49.3386 125.073 49.2053 125.063 49.0707C125.023 48.5348 125.058 47.8337 125.188 47.2508C125.191 47.2337 125.216 47.2345 125.22 47.2508L125.629 49.1889C125.731 48.6909 125.757 48.2341 125.662 47.8451L125.662 47.8465Z" fill="white"/>
<path d="M125.647 42.9301C125.928 43.0448 126.104 43.3242 126.09 43.627C126.069 44.0716 126.014 44.4108 125.901 44.5661C125.856 44.6274 125.774 44.6481 125.704 44.6181L125.339 44.4607C125.292 44.4407 125.258 44.3994 125.245 44.3502L125.203 44.1849C125.178 44.083 125.162 43.9783 125.156 43.8735C125.135 43.4553 125.176 42.9095 125.288 42.4577C125.291 42.4442 125.31 42.4456 125.313 42.4591L125.595 43.9776C125.683 43.5914 125.713 43.2358 125.646 42.9308L125.647 42.9301Z" fill="white"/>
<path d="M162.757 53.9073C161.409 54.057 160.36 54.3334 160.228 53.5967C160.417 54.6534 160.113 54.7631 162.808 54.4631C162.808 54.4631 162.765 53.9066 162.757 53.9073Z" fill="white"/>
<path d="M163.836 43.4542C164.968 43.3388 165.841 43.1122 165.992 43.7449C165.774 42.8378 166.026 42.7459 163.762 42.9775C163.762 42.9775 163.829 43.4549 163.836 43.4542Z" fill="white"/>
<path d="M128.003 34.9533L127.644 34.7096C127.615 34.6904 127.591 34.6648 127.576 34.6341C127.379 34.2465 127.214 33.5297 126.762 33.0957C126.165 32.9069 126.938 34.9134 126.768 36.3748C126.389 35.3381 126.136 34.161 126.074 33.0166C126.063 32.8029 126.302 32.6689 126.48 32.7886L126.693 32.9333C127.685 33.6344 127.698 34.255 128.038 34.922C128.049 34.9441 128.024 34.9662 128.003 34.9526V34.9533Z" fill="white"/>
<path d="M158.849 44.7936C158.961 43.754 157.648 43.8003 156.504 43.7177C156.439 43.7134 156.4 43.645 156.427 43.5873L156.591 43.2331C156.607 43.1996 156.641 43.179 156.678 43.1797L160.602 43.3065C160.416 43.1576 160.338 42.9232 160.789 42.2612C160.712 42.7621 160.802 43.365 162.776 42.9716L162.577 43.3692C162.518 43.4882 162.419 43.583 162.296 43.635C161.497 43.9742 160.241 43.8117 159.117 43.7939C159.256 44.0661 159.196 44.391 158.848 44.7936H158.849Z" fill="white"/>
<path d="M136.541 12.9828L136.266 13.1552C136.192 13.2015 136.147 13.282 136.148 13.3689L136.164 15.7802L135.62 13.7095C135.609 13.6689 135.549 13.6746 135.546 13.7167C135.486 14.6301 135.504 15.4945 135.721 16.2319C135.732 16.4222 135.945 16.5291 136.104 16.4243L136.255 16.326C136.547 16.1343 136.72 15.8065 136.713 15.4574L136.663 13.0476C136.662 12.9856 136.594 12.9493 136.541 12.982V12.9828Z" fill="white"/>
<path d="M130.086 18.7016L130.582 18.9311C130.637 18.9567 130.682 18.9995 130.707 19.0543C131.115 19.9414 131.042 21.1007 131.335 21.42L130.858 21.2917C130.772 21.2689 130.704 21.2033 130.677 21.1186C130.315 20.0013 130.56 19.3187 130.086 18.7002V18.7016Z" fill="white"/>
<path d="M133.619 24.4407C133.854 24.6267 134.105 24.6274 134.257 25.7831C133.766 24.6872 133.514 23.3377 133.367 21.8784C133.257 22.5311 133.2 23.2201 133.219 23.9605C133.225 24.1906 133.265 24.42 133.338 24.6381C133.568 25.3157 133.944 26.1223 134.355 26.9595C134.365 26.9802 134.383 26.9959 134.405 27.0016L134.822 27.1213C134.881 27.1384 134.935 27.0864 134.923 27.0272C134.674 25.7596 134.97 24.4386 133.619 24.4414V24.4407Z" fill="white"/>
<path d="M135.486 18.6257L134.977 18.4062C134.846 18.5416 134.496 20.0479 133.499 20.0779C134.652 20.7213 135.144 19.2535 135.486 18.6264V18.6257Z" fill="white"/>
<path d="M127.671 5.7689L128.062 5.37629C127.983 5.20528 126.707 4.32957 127.043 3.39258C126.023 4.2291 127.211 5.22167 127.671 5.7689H127.671Z" fill="white"/>
<path d="M133.405 7.9176C133.84 4.82803 127.008 6.74975 127.607 3.57823L127.855 2.75454C130.189 3.50627 130.964 2.58923 132.729 2.53223L136.227 2.7296C132.151 3.20558 129.917 4.47888 128.028 3.78345C128.877 5.69519 135.002 3.8946 133.406 7.91688L133.405 7.9176Z" fill="white"/>
<path d="M135.187 4.44238C134.767 11.9468 148.586 7.08163 146.979 13.922C146.039 9.05536 137.968 13.922 137.889 9.52279C138.46 10.9073 140.444 10.7498 142.476 10.5396C139.338 9.84414 134.201 9.90685 135.187 4.4431L135.187 4.44238Z" fill="white"/>
<path d="M156.222 2.22656C153.972 7.56918 168.147 8.42993 165.769 14.3141C165.667 10.2127 157.527 12.7501 158.39 7.53925C158.556 10.0011 161.355 10.016 163.782 10.9317C160.175 8.11285 153.669 6.54241 156.222 2.22656Z" fill="white"/>
<path d="M136.617 4.40334C136.76 1.62158 140.67 2.24506 140.075 5.27549C141.521 5.47001 141.857 4.20098 142.858 3.2362C142.858 3.2362 143.959 2.17238 144.412 3.37942L144.767 4.70545C145.943 7.50074 148.572 8.10783 150.401 9.11678C151.758 9.86566 152.345 10.9822 152.059 13.6471C152.158 7.89478 145.345 10.5198 144.236 4.17675C143.585 3.19558 142.661 4.20525 142.202 4.85936C142.693 4.90354 143.132 5.04106 143.254 5.75075C143.276 5.87758 143.273 6.00869 143.249 6.13552L143.12 6.83025C143.085 7.01978 143.005 7.20005 142.878 7.34541C142.016 8.3394 140.981 7.31406 140.768 6.17471C140.691 5.32964 140.761 4.35916 140.9 3.32954C140.504 6.16402 142.088 7.57841 143.057 6.33859C142 4.96482 140.97 6.66422 139.975 6.31722C139.904 6.29228 139.858 6.22459 139.864 6.14977L139.941 5.2819C139.769 3.18846 137.229 3.12219 136.733 4.54442C136.745 4.84654 136.821 5.12015 136.974 5.36028C137.212 6.01724 137.911 6.28444 138.858 6.34144C138.163 5.59328 136.774 6.65639 136.501 6.22886C136.474 6.18682 136.466 6.13481 136.471 6.08422L136.448 5.14509C136.941 5.71797 137.414 5.23915 137.986 5.13868C138.592 5.03251 139.308 5.23558 139.253 6.30154L139.058 7.36679C137.767 6.94781 136.276 6.76754 136.615 4.40405L136.617 4.40334Z" fill="white"/>
<path d="M138.881 13.9215C139.548 10.3254 154.628 10.517 155.338 4.04788C155.508 1.33667 152.62 2.51165 151.83 3.96665C151.913 3.3667 151.86 3.00758 151.724 2.79595C151.647 2.67411 151.48 2.65344 151.373 2.75106C150.809 3.26338 150.76 4.26948 150.349 4.6685C150.495 3.03323 149.524 2.776 148.673 2.36914L148.491 3.7536L147.035 2.81377L146.91 3.2021C145.799 1.93877 144.951 4.77681 143.81 5.23212L143.703 6.17838C144.57 6.00879 145.792 3.00259 146.634 3.99943C146.725 4.10702 146.762 4.24953 146.747 4.3899C146.545 6.25533 147.959 5.9525 148.522 7.44385C148.84 5.9183 148.298 6.07292 146.966 4.60153C146.924 4.33717 146.921 4.0657 146.966 3.78424C148.048 4.60153 148.91 4.67706 148.962 5.80643C149.442 4.23813 148.626 4.09206 148.661 3.37453C149.505 3.76287 150.46 4.02366 150.169 5.70667C150.839 5.3162 150.81 3.80776 151.444 3.60825C151.614 3.60825 151.652 3.78994 151.651 4.02793L151.597 5.06753C153.528 2.40192 155.112 3.43367 155.185 4.08636C152.983 9.87717 138.222 8.99861 138.88 13.9223L138.881 13.9215Z" fill="white"/>
<path d="M151.765 8.82902L151.617 9.57148C151.605 9.63205 151.659 9.68549 151.719 9.67195C152.639 9.46318 153.151 8.44995 153.966 7.96827C154.731 7.51652 155.628 7.54787 156.024 8.23761C156.259 8.64661 156.227 9.15394 155.978 9.5551C155.713 9.98333 155.339 10.2406 154.628 10.517C155.365 10.2904 155.952 10.1052 156.399 8.84541C156.983 7.09327 155.416 6.30378 154.145 7.06263C153.35 7.53719 152.754 8.70147 151.845 8.76133C151.806 8.76418 151.772 8.79125 151.764 8.82973L151.765 8.82902Z" fill="white"/>
<path d="M163.104 2.13153C160.023 7.05375 170.035 7.6929 166.383 12.5396C168.22 10.5359 167.884 9.12724 166.891 7.91236C165.767 6.53574 163.057 5.23322 162.837 3.50388C163.346 3.95635 164.017 3.9763 164.54 3.66349C163.745 5.11422 163.53 6.37542 163.673 7.22262C162.738 6.35119 161.966 5.25887 162.308 3.97202C162.696 2.60466 162.269 1.88499 161.015 4.15942C161.455 2.79277 160.532 2.64314 159.746 2.22559C159.656 2.17785 159.544 2.21775 159.506 2.3118L159.116 3.27658L157.658 2.51559C157.523 2.44505 157.357 2.50989 157.306 2.6524L157.039 3.38703C157.019 3.44617 157.002 3.53167 156.987 3.62929C156.914 4.10954 157.066 4.5962 157.398 4.95105C157.77 5.34651 158.304 5.88376 158.822 6.28492C158.886 6.3348 158.981 6.30915 159.01 6.23291L159.255 5.60231C159.279 5.54246 159.26 5.47548 159.209 5.43629C158.865 5.17336 157.588 4.16156 157.317 3.39558C158.223 3.92001 159.32 4.039 159.492 5.13845C159.497 5.1698 159.54 5.17621 159.555 5.14771C160.189 3.91573 159.684 3.86158 159.491 3.16685C160.28 3.56017 161.007 3.65138 160.654 5.00022C160.642 5.04225 160.694 5.07503 160.726 5.0451C161.059 4.74156 161.321 4.01905 161.597 3.74543C161.87 3.47609 162.081 3.42408 162.111 3.83806C162.118 3.93853 162.102 4.03971 162.074 4.13662C160.675 8.89638 169.008 9.98443 167.721 13.3262C170.084 9.61604 163.301 9.03889 163.842 5.73128C163.89 5.44413 163.993 5.16909 164.134 4.91329L164.815 3.67275C164.974 3.38275 165.115 3.08277 165.235 2.77496L165.487 2.12939C164.426 3.20177 163.365 3.14904 163.103 2.12939L163.104 2.13153Z" fill="white"/>
<path d="M168.995 11.3096C169.082 9.58103 167.055 9.74491 167.678 8.05548L167.971 7.1641C168.808 7.56526 169.838 7.79184 169.471 9.28604C170.283 8.37185 171.76 8.16664 171.342 9.94371C171.517 9.91236 171.705 9.7214 171.903 9.38366C172.175 6.91471 164.565 6.76222 165.687 3.28788L165.976 2.37939C167.194 3.79093 168.868 3.14324 170.548 4.82697L171.543 7.14628C169.112 3.99472 168.37 5.13336 165.899 3.43752C166.968 6.43731 173.194 6.00123 172.075 9.32238C171.878 10.1902 171.509 10.6976 170.982 10.9064L171.134 10.0613C170.984 8.9091 169.484 9.75489 169.083 10.3135C169.492 9.30955 169.149 8.56566 167.891 8.13671C168.376 9.23402 169.86 9.39791 168.995 11.3104V11.3096Z" fill="white"/>
<path d="M172.813 6.88896C174.373 4.39365 169.309 5.33776 170.396 3.12818C170.413 3.09255 170.438 3.05978 170.467 3.03127L171.132 2.36719C171.378 3.30133 174.345 1.453 177.116 3.48659C173.858 2.57311 172.991 3.68539 170.983 3.36474C171.124 4.06944 172.236 4.23404 173.126 4.70432C173.915 5.12115 174.123 5.93273 172.814 6.88825L172.813 6.88896Z" fill="white"/>
<path d="M174.224 4.97266C173.707 7.04472 176.39 8.60661 174.951 9.85996C173.55 10.4998 173.113 10.378 172.472 11.0449C171.059 12.4978 171.19 14.8798 168.597 14.9133C172.213 16.6861 171.985 10.5262 175.605 11.4625C174.696 12.8042 174.45 14.609 172.358 14.8378C171.73 14.0084 172.721 12.6474 174.523 12.9039C175.572 13.1213 176.489 15.9743 173.156 15.9757L172.377 15.8432C172.191 17.2568 174.634 17.0217 175.92 19.3816C176.651 20.7205 176.412 21.0839 176.935 22.9536C177.157 21.9382 177.147 20.9143 176.935 19.8818C175.674 17.2796 173.393 17.5675 173.284 16.2557C177.474 16.7915 176.862 13.0051 174.697 12.8049C173.176 12.3595 172.194 12.5826 171.566 13.2467C170.972 14.1038 171.288 14.7216 172.404 14.9988C174.975 15.6921 175.612 12.874 176.62 11.6349C175.696 11.1546 174.683 11.0442 173.627 11.109C174.45 10.3523 175.664 10.6844 176.168 9.69964C176.565 7.99667 174.677 7.21145 175.133 5.24627L174.224 4.97408V4.97266Z" fill="white"/>
<path d="M170.859 15.9932L169.935 15.8008C169.944 16.7983 172.857 18.6787 171.877 19.3499C171.728 19.4518 171.543 19.486 171.363 19.4604L170.808 19.3813C170.725 19.3692 170.665 19.4575 170.705 19.5316C171.027 20.1216 172.137 20.5912 172.697 21.3636C173.106 21.93 173.006 22.577 172.188 22.8321L171.479 22.758C171.358 22.7452 171.265 22.8649 171.308 22.9789C171.634 23.8268 172.014 24.7809 171.63 25.3139C171.307 24.3897 172.743 23.7021 173.863 23.8147C174.858 24.2558 176.077 25.4899 176.514 27.1116C176.831 28.288 177.202 30.0779 177.309 32.4514C177.564 31.5657 177.597 30.2019 177.532 28.6258C177.523 28.4049 177.502 28.1847 177.461 27.9674C177.041 25.7421 175.65 23.9814 173.761 23.6729C172.13 23.2703 171.054 23.772 170.541 25.1892C170.496 25.3139 170.573 25.45 170.703 25.4785L171.288 25.6067C171.479 25.6488 171.675 25.668 171.87 25.6531C173.604 25.5205 172.058 23.1606 172.28 23.0245C173.983 23.187 174.171 22.3205 173.55 21.4477C173.113 20.8327 171.613 20.0368 171.608 19.6399C173.27 19.9777 173.18 19.1262 172.579 18.3203C171.973 17.508 170.87 16.6986 170.86 15.9932H170.859Z" fill="white"/>
<path d="M168.953 30.0832C171.556 31.2375 172 29.3906 172.861 28.1237C173.036 28.745 173.328 29.3827 172.888 29.9171C172.769 30.0611 172.606 30.1587 172.43 30.2243C169.601 31.2845 170.331 39.5257 167.159 40.0559C166.622 39.4338 165.385 36.9634 168.768 35.3111C168.327 35.3232 167.91 35.3788 167.519 35.4828C166.647 35.7165 165.928 36.3578 165.677 37.2242C165.243 38.7248 166.37 39.9896 167.267 40.2931C170.638 41.1824 170.735 33.3366 172.371 31.2489C172.525 31.0529 172.728 30.9005 172.958 30.8035C173.526 30.5634 173.778 30.4045 173.897 29.9563C174.149 29.0122 172.876 27.0641 174.576 25.3947C174.629 25.3434 174.613 25.255 174.546 25.2244L173.727 24.8474C173.668 24.8204 173.597 24.8303 173.551 24.8759C171.839 26.5483 172.27 30.344 168.952 30.0832H168.953Z" fill="white"/>
<path d="M175.475 29.7766L174.53 29.5229C174.257 31.0606 175.886 31.6542 176.504 32.9339C177.15 34.2713 177.464 35.3373 177.578 36.3826C177.578 35.685 177.627 34.6739 177.501 33.8402C177.461 33.5709 177.262 32.9203 177.007 32.5776C176.163 31.4368 174.973 30.6908 175.475 29.7766Z" fill="white"/>
<path d="M175.035 32.4779L174.069 32.2036C173.447 32.2585 174.49 33.4969 173.764 34.0512C173.853 33.385 174.133 33.0024 174.731 33.0864C176.02 34.0199 176.857 36.4831 177.569 39.3696L177.396 36.3363C177.388 36.2081 177.363 36.0813 177.317 35.9608C176.741 34.4317 176 33.1798 174.72 32.8328C173.207 32.4388 172.988 33.1948 172.823 33.9985C172.809 34.0683 172.85 34.1382 172.919 34.1588L173.371 34.2956C173.635 34.3754 173.912 34.4089 174.186 34.3826C175.758 34.2286 174.08 32.644 175.035 32.4779Z" fill="white"/>
<path d="M175.332 36.1217L174.356 35.8374C173.661 35.8531 174.531 37.2233 173.909 37.8681C173.959 37.2646 173.994 36.6497 174.824 36.6297C176.204 37.8909 176.967 40.4219 177.294 43.8485V40.1447C177.294 39.9032 177.258 39.663 177.184 39.4336C176.737 38.0541 176.14 36.8656 174.976 36.3967L173.999 36.1937C172.974 36.3162 172.71 37.6572 173.521 38.052L174.151 38.1938C175.831 38.4674 174.355 36.0391 175.331 36.1224L175.332 36.1217Z" fill="white"/>
<path d="M175.107 39.1788L174.295 38.9144C174.253 38.9009 174.208 38.9251 174.198 38.9671C173.706 40.9972 175.708 42.0453 176.463 43.6863C176.977 44.805 176.99 45.8588 176.872 48.3491C177.386 47.2518 177.585 45.4491 177.492 44.6575C177.224 42.3595 174.227 40.4435 175.14 39.297C175.173 39.2557 175.156 39.1952 175.106 39.1788H175.107Z" fill="white"/>
<path d="M174.49 42.6001L173.869 42.2788C173.802 42.2439 173.719 42.2788 173.697 42.3515C173.119 44.2254 174.928 45.347 175.848 48.242C175.98 48.6546 176.282 50.2229 176.412 52.2807C176.758 50.6461 176.696 49.8274 176.592 48.5563C176.447 46.7706 173.897 44.5133 174.548 42.7462C174.569 42.6899 174.543 42.6272 174.49 42.5994V42.6001Z" fill="white"/>
<path d="M173.113 44.0213L172.198 43.6558C172.027 45.0773 173.689 46.3007 174.285 47.988C174.787 49.4074 174.614 50.1826 173.702 50.3836C173.142 50.5068 172.574 50.3308 172.101 50.0059C171.156 49.3561 170.531 48.4269 170.531 48.4269C170.531 48.4269 171.29 49.681 172.266 50.2631C172.746 50.5496 173.283 50.7363 173.839 50.7861C175.666 50.95 175.692 49.5093 175.059 48.0322C174.348 46.3734 172.872 45.3694 173.113 44.0206L173.113 44.0213Z" fill="white"/>
<path d="M176.321 40.3179C173.794 38.7923 170.529 48.4273 165.54 44.1649C169.487 46.5861 169.127 38.7574 172.664 41.2292C171.217 40.8373 170.411 42.4298 169.339 44.1663C171.878 42.5659 174.023 38.533 176.322 40.3179H176.321Z" fill="white"/>
<path d="M142.808 7.98291L142.716 8.86076L143.765 9.07666L143.85 8.16033L142.808 7.98291Z" fill="white"/>
<path d="M139.512 7.39014L139.419 8.26798L140.469 8.48317L140.554 7.56685L139.512 7.39014Z" fill="white"/>
<path d="M144.125 6.46387L143.669 7.21987L144.528 7.85831L144.994 7.06454L144.125 6.46387Z" fill="white"/>
<path d="M151.156 5.16846L150.684 5.9152L151.53 6.57145L152.012 5.78694L151.156 5.16846Z" fill="white"/>
<path d="M154.238 8.47754L153.766 9.22428L154.612 9.88053L155.094 9.09602L154.238 8.47754Z" fill="white"/>
<path d="M152.443 4.771L151.971 5.51774L152.817 6.1747L153.299 5.38948L152.443 4.771Z" fill="white"/>
<path d="M168.284 2.13128L167.633 2.78174L168.378 3.52642L169.03 2.87596L168.284 2.13128Z" fill="white"/>
<path d="M169.647 2.22308L168.995 2.87354L169.741 3.61821L170.393 2.96775L169.647 2.22308Z" fill="white"/>
<path d="M176.259 5.17944L175.507 5.93066L176.253 6.67534L177.005 5.92412L176.259 5.17944Z" fill="white"/>
<path d="M174.544 20.1736L173.792 20.9248L174.538 21.6695L175.29 20.9183L174.544 20.1736Z" fill="white"/>
<path d="M177.016 24.216L176.625 24.6064L177.013 24.9934L177.404 24.6029L177.016 24.216Z" fill="white"/>
<path d="M177.011 23.3791L176.62 23.7695L177.008 24.1565L177.399 23.766L177.011 23.3791Z" fill="white"/>
<path d="M174.391 18.7034L173.638 19.4546L174.384 20.1993L175.137 19.448L174.391 18.7034Z" fill="white"/>
<path d="M169.007 15.9827L168.255 16.7339L169.001 17.4786L169.753 16.7273L169.007 15.9827Z" fill="white"/>
<path d="M174.649 27.9265L174.27 28.7646L175.231 29.1985L175.61 28.3603L174.649 27.9265Z" fill="white"/>
<path d="M174.11 26.5153L173.73 27.3535L174.692 27.7874L175.071 26.9492L174.11 26.5153Z" fill="white"/>
<path d="M172.707 38.2258L172.079 38.8994L172.852 39.6166L173.479 38.9429L172.707 38.2258Z" fill="white"/>
<path d="M172.346 47.6395L171.683 48.2778L172.415 49.0362L173.078 48.3978L172.346 47.6395Z" fill="white"/>
<path d="M172.412 46.2806L171.748 46.9189L172.48 47.6773L173.143 47.039L172.412 46.2806Z" fill="white"/>
<path d="M175.228 27.0119L174.849 27.8501L175.81 28.284L176.189 27.4458L175.228 27.0119Z" fill="white"/>
<path d="M166.243 45.5381C165.7 44.8904 165.131 44.9489 164.952 45.3165C166.274 46.7067 169.464 45.2745 170.105 47.866C170.247 48.4852 170.233 49.1023 169.89 49.7129L169.678 48.9818C169.327 47.8859 168.061 47.4898 166.672 47.1862C166.8 47.3209 166.891 47.5788 166.959 47.9137C166.959 47.9137 166.575 47.1948 165.859 47.1677L165.755 46.5506C167.423 46.8969 169.292 46.9276 169.816 49.0638C169.953 48.8579 170.02 48.4517 170.04 47.9045C168.779 45.655 165.52 47.4762 164.843 45.3664C164.538 44.4487 165.757 43.9185 166.245 45.5381H166.243Z" fill="white"/>
<path d="M169.867 28.5554L169.291 28.3416C170.059 27.5642 170.92 27.0989 172.031 27.4666C171.645 26.9814 171.234 26.6066 170.765 26.3415C168.791 25.205 168.596 27.7538 166.954 27.7858C166.857 27.1467 167.31 26.5496 168.303 26.7163L167.211 26.4733C166.539 26.6052 165.935 27.4424 166.849 27.8899C168.656 28.6516 169.192 25.8185 170.691 26.4106C171.03 26.6622 171.328 26.9151 171.463 27.1709C169.827 26.7576 168.921 27.9483 167.945 28.9829L168.55 29.2929C168.943 28.7371 169.377 28.4542 169.866 28.5547L169.867 28.5554Z" fill="white"/>
<path d="M170.336 22.5567L169.817 22.3643C170.509 21.6639 171.285 21.2456 172.284 21.5769C171.936 21.1401 171.566 20.8024 171.144 20.5644C169.366 19.5412 169.191 21.8356 167.713 21.8648C167.626 21.2898 168.034 20.7518 168.928 20.9022L167.945 20.6834C167.34 20.8017 166.796 21.5556 167.62 21.9588C169.247 22.645 169.73 20.0941 171.079 20.6271C171.383 20.8537 171.652 21.081 171.774 21.3119C170.3 20.9399 169.485 22.0116 168.606 22.9429L169.151 23.2222C169.505 22.722 169.895 22.4669 170.336 22.5574V22.5567Z" fill="white"/>
<path d="M150.841 11.2907L150.504 12.0439C149.761 11.399 149.223 10.5739 149.491 9.55713C147.444 11.9491 149.277 12.5149 149.508 13.3379C148.634 13.8765 147.599 13.05 147.967 11.7774L147.799 12.5213C147.649 13.1825 148.076 13.8537 148.746 13.9599C149.087 14.0141 149.414 13.91 149.554 13.5716C150.192 12.3709 148.9 12.19 148.733 11.2772C148.693 11.0577 148.745 10.8319 148.862 10.6416C148.964 10.4763 149.107 10.2882 149.236 10.2098C149.053 11.4233 150.204 12.4714 151.122 13.2324L151.341 12.6845C150.819 12.3631 150.66 11.7489 150.84 11.2922L150.841 11.2907Z" fill="white"/>
<path d="M170.476 11.9618L169.91 11.8386C169.91 11.8386 170.211 11.2742 170.772 11.4901C171.333 11.706 171.443 11.7281 171.262 12.1029C171.081 12.4777 170.189 12.4072 170.189 12.4072C170.189 12.4072 169.571 12.3366 169.332 13.0157C169.094 13.6947 168.672 14.9224 166.75 14.3667C166.75 14.3667 168.162 14.7614 168.79 12.8197C169.023 12.0972 169.819 12.229 169.819 12.229C169.819 12.229 170.908 12.3039 170.756 11.6562L170.476 11.9618Z" fill="white"/>
<path d="M173.741 7.61399C174.302 7.82989 174.91 8.25955 174.728 8.63435C174.569 8.96426 174.193 8.6714 174.105 8.59587C174.088 8.58162 174.069 8.57022 174.048 8.56452C173.951 8.53887 173.705 8.53887 173.589 9.15807C173.437 9.9782 173.02 10.058 172.214 9.78154C172.214 9.78154 172.821 10.0231 173.023 8.99917C173.206 8.07501 173.858 8.31727 174.043 8.40776C174.086 8.42843 174.138 8.41774 174.168 8.38069C174.24 8.29376 174.272 8.08213 173.741 7.61328L173.741 7.61399Z" fill="white"/>
<path d="M133.212 4.07398C133.733 3.774 134.449 3.57093 134.628 3.94715C134.785 4.27776 134.321 4.38607 134.207 4.40745C134.184 4.41172 134.164 4.41956 134.145 4.4331C134.065 4.49153 133.91 4.6832 134.321 5.16203C134.865 5.79547 134.665 6.16956 133.944 6.62273C133.944 6.62273 134.513 6.3028 133.842 5.50262C133.236 4.7801 133.833 4.42597 134.021 4.33833C134.064 4.31838 134.087 4.27135 134.078 4.22504C134.056 4.11459 133.91 3.95641 133.212 4.0754V4.07398Z" fill="white"/>
<path d="M125.041 2.43824C125.562 2.13826 126.278 1.93518 126.457 2.3114C126.614 2.64202 126.15 2.75033 126.035 2.7717C126.013 2.77598 125.993 2.78382 125.974 2.79736C125.893 2.85578 125.739 3.04746 126.15 3.52628C126.693 4.15973 126.494 4.53381 125.773 4.98699C125.773 4.98699 126.342 4.66706 125.671 3.86688C125.065 3.14436 125.662 2.79023 125.85 2.70259C125.893 2.68264 125.916 2.63561 125.907 2.58929C125.885 2.47885 125.739 2.32067 125.041 2.43966V2.43824Z" fill="white"/>
<path d="M174.806 34.4309C175.111 34.8427 175.32 35.4213 174.946 35.5881C174.617 35.7348 174.505 35.3586 174.483 35.266C174.479 35.2482 174.47 35.2311 174.457 35.2168C174.398 35.1534 174.205 35.0365 173.731 35.3999C173.104 35.8809 172.729 35.7363 172.27 35.1669C172.27 35.1669 172.595 35.618 173.387 35.0237C174.103 34.4872 174.462 34.9596 174.551 35.1092C174.571 35.1434 174.619 35.1605 174.665 35.1506C174.775 35.1263 174.931 34.9988 174.806 34.4302V34.4309Z" fill="white"/>
<path d="M173.868 4.80582C173.875 4.81864 173.891 4.82292 173.904 4.81508C173.983 4.76591 174.248 4.60987 174.244 4.60132C174.228 4.57353 174.213 4.54574 174.196 4.51724C174.274 4.47448 174.355 4.43529 174.422 4.379C174.878 3.98996 174.427 3.3501 174.427 3.3501C174.427 3.3501 174.183 3.51113 174.092 3.57027C174.07 3.58524 174.048 3.60162 174.028 3.62015C173.486 4.13033 173.668 4.45026 173.867 4.8051L173.868 4.80582ZM174.178 4.48517C174.056 4.26714 173.952 4.0377 174.112 3.73843C174.218 3.97642 174.388 4.21227 174.178 4.48517Z" fill="white"/>
<path d="M153.211 11.8427C153.223 11.8498 153.239 11.8455 153.245 11.8327C153.288 11.7493 153.434 11.4786 153.426 11.4743C153.398 11.4586 153.37 11.443 153.342 11.4273C153.386 11.3503 153.436 11.2748 153.463 11.1921C153.652 10.6235 152.934 10.3086 152.934 10.3086C152.934 10.3086 152.809 10.5722 152.762 10.6706C152.75 10.6948 152.74 10.7197 152.733 10.7454C152.533 11.4622 152.855 11.6418 153.21 11.8427H153.211ZM153.309 11.408C153.091 11.2848 152.884 11.1416 152.866 10.8038C153.08 10.9527 153.348 11.066 153.309 11.408Z" fill="white"/>
<path d="M176.868 3.97435C177.176 4.88711 175.787 4.93627 175.151 4.26506C175.095 4.20521 175.581 4.89281 176.315 4.97974C177.05 5.06667 177.238 4.62489 177.107 4.23727C177.092 4.19167 176.933 4.04275 176.903 4.0114C176.895 4.00213 176.871 3.98503 176.867 3.97363L176.868 3.97435Z" fill="white"/>
<path d="M175.9 2.60907C175.9 2.60907 176.335 2.92187 177.167 2.36965C177.017 3.15772 177.359 3.14347 177.545 3.16627C177.6 3.1734 177.67 3.16841 177.722 3.18622C177.326 3.04799 177.522 2.48295 177.562 2.18724C177.541 2.18439 177.208 2.14307 177.208 2.14307C176.647 2.55848 175.9 2.60835 175.899 2.60835L175.9 2.60907Z" fill="white"/>
<path d="M159.283 12.383C159.33 10.6223 156.316 10.5646 156.889 7.95459C156.931 10.1122 159.879 10.1521 159.283 12.383Z" fill="white"/>
<path d="M167.295 42.4971C169.053 42.3475 168.773 39.3513 171.436 39.6284C169.293 39.9106 169.581 42.8406 167.295 42.4971Z" fill="white"/>
<path d="M163.178 12.0353C163.011 12.5676 163.237 12.9595 163.784 13.2367C163.846 13.268 163.869 13.345 163.834 13.4048L163.662 13.6984C163.582 13.8359 163.423 13.91 163.267 13.8772C162.607 13.7383 160.818 13.3557 159.42 13.2637C157.296 13.1234 152.22 14.6774 152.911 12.9944C153.19 11.6156 156.754 11.7539 157.74 11.8358C157.09 12.0489 153.638 12.2633 153.137 12.9217C153.494 14.1373 157.066 11.8109 162.821 13.1604C162.725 12.7329 162.913 12.3745 163.178 12.0353Z" fill="white"/>
<path d="M167.684 25.3054C167.145 25.1594 166.762 25.4016 166.506 25.9574C166.477 26.0208 166.401 26.0465 166.34 26.0144L166.039 25.8548C165.898 25.78 165.817 25.6239 165.844 25.4672C165.957 24.8031 166.268 23.0032 166.305 21.6045C166.361 19.4804 164.81 13.8564 166.522 14.4784C167.353 14.7898 167.49 15.6377 167.446 16.6246C167.207 15.984 166.94 15.3356 166.544 14.6508C165.342 15.0548 167.665 19.1997 166.544 24.9941C166.968 24.8808 167.334 25.0546 167.684 25.3054Z" fill="white"/>
<path d="M167.655 35.0226C167.116 34.8765 166.733 35.1188 166.477 35.6746C166.448 35.738 166.372 35.7637 166.311 35.7316L166.009 35.572C165.869 35.4972 165.788 35.3411 165.815 35.1844C165.927 34.5203 166.239 32.7204 166.276 31.3217C166.331 29.1976 164.991 27.7939 166.702 28.416C167.533 28.7273 167.405 29.99 167.362 30.9768C167.123 30.3362 166.86 29.2624 166.464 28.577C165.953 29.5304 167.418 30.1111 166.514 34.7112C166.938 34.5979 167.304 34.7718 167.654 35.0226H167.655Z" fill="white"/>
<path d="M160.582 7.26035C160.708 6.92047 160.819 6.59769 160.852 6.354C160.856 6.32265 160.849 6.28987 160.832 6.26279C160.701 6.05046 160.472 6.15235 160.192 6.41314L160.333 5.87874C160.347 5.82815 160.373 5.78112 160.41 5.74335C160.881 5.25028 161.145 5.6151 160.995 6.1495C160.905 6.50933 160.758 6.88199 160.582 7.26035H160.582Z" fill="white"/>
<path d="M147.572 11.8766C147.697 11.5367 147.808 11.2139 147.841 10.9702C147.846 10.9389 147.838 10.9061 147.821 10.879C147.691 10.6667 147.461 10.7686 147.181 11.0294L147.322 10.4949C147.336 10.4444 147.362 10.3973 147.399 10.3596C147.87 9.86649 148.134 10.2313 147.984 10.7657C147.894 11.1255 147.747 11.4982 147.571 11.8766H147.572Z" fill="white"/>
<path d="M144.782 3.99765C144.908 3.65777 145.018 3.33499 145.052 3.0913C145.056 3.05995 145.049 3.02718 145.032 3.0001C144.901 2.78776 144.672 2.88966 144.392 3.15044L144.533 2.61604C144.547 2.56545 144.573 2.51842 144.61 2.48066C145.081 1.98758 145.345 2.3524 145.195 2.88681C145.105 3.24664 144.958 3.6193 144.782 3.99765H144.782Z" fill="white"/>
<path d="M172.423 8.16832C172.74 7.99019 173.033 7.8149 173.216 7.65102C173.24 7.62964 173.256 7.60043 173.261 7.56837C173.298 7.32183 173.057 7.25129 172.675 7.26981L173.128 6.95344C173.171 6.92352 173.222 6.90499 173.274 6.89929C173.953 6.82733 173.918 7.27623 173.457 7.58689C173.156 7.8035 172.802 7.99233 172.423 8.16761V8.16832Z" fill="white"/>
<path d="M174.909 16.8989C175.35 17.0878 175.77 17.2552 176.09 17.3158C176.131 17.3236 176.175 17.3158 176.212 17.2958C176.501 17.1376 176.524 16.8733 176.198 16.4878L176.753 16.6652C176.819 16.6866 176.879 16.7244 176.926 16.7749C177.546 17.4291 177.046 17.7518 176.349 17.5188C175.88 17.3763 175.397 17.1569 174.909 16.8996V16.8989Z" fill="white"/>
<path d="M168.172 18.3062C168.612 18.495 169.033 18.6624 169.352 18.723C169.394 18.7308 169.437 18.723 169.474 18.703C169.763 18.5449 169.787 18.2805 169.461 17.895L170.015 18.0724C170.082 18.0938 170.142 18.1316 170.189 18.1822C170.809 18.8363 170.309 19.1591 169.612 18.9261C169.143 18.7836 168.66 18.5641 168.172 18.3069V18.3062Z" fill="white"/>
<path d="M135.363 5.4875C135.611 5.07779 135.835 4.68518 135.939 4.37736C135.952 4.33746 135.951 4.29328 135.936 4.25409C135.819 3.94628 135.56 3.88714 135.132 4.15648L135.384 3.63205C135.414 3.56934 135.46 3.5159 135.516 3.47529C136.251 2.95157 136.502 3.49097 136.175 4.14793C135.969 4.59326 135.685 5.04003 135.363 5.4875Z" fill="white"/>
<path d="M167.517 24.5005C167.958 24.6893 168.378 24.8568 168.698 24.9173C168.739 24.9252 168.783 24.9173 168.82 24.8974C169.109 24.7392 169.132 24.4748 168.806 24.0894L169.361 24.2668C169.427 24.2882 169.487 24.3259 169.534 24.3765C170.154 25.0306 169.654 25.3534 168.958 25.1204C168.488 24.9779 168.006 24.7584 167.517 24.5012V24.5005Z" fill="white"/>
<path d="M170.114 38.8387C170.468 38.8807 170.804 38.9121 171.046 38.8879C171.077 38.885 171.107 38.8701 171.129 38.848C171.302 38.6741 171.263 38.4803 170.948 38.2729L171.382 38.2829C171.433 38.2843 171.485 38.2986 171.529 38.3243C172.111 38.6613 171.821 38.9976 171.274 38.9777C170.908 38.9748 170.517 38.9192 170.114 38.8387Z" fill="white"/>
<path d="M150.174 7.58895L150.419 7.10514C150.343 7.00895 149.43 6.35127 149.789 5.38721C148.779 6.75243 150.174 7.58895 150.174 7.58895Z" fill="white"/>
<path d="M176.909 8.93555C176.545 8.79732 176.31 8.4439 176.319 8.05556C176.331 7.48411 176.391 7.04803 176.532 6.84496C176.588 6.76515 176.693 6.73594 176.782 6.77228L177.255 6.96324C177.316 6.98747 177.361 7.03877 177.379 7.10218L177.438 7.3131C177.474 7.44349 177.498 7.57674 177.508 7.71141C177.548 8.24724 177.513 8.94837 177.383 9.53123C177.379 9.54833 177.354 9.54762 177.35 9.53123L176.941 7.59312C176.84 8.09119 176.813 8.54793 176.908 8.93697L176.909 8.93555Z" fill="white"/>
<path d="M176.924 13.8515C176.643 13.7367 176.467 13.4574 176.481 13.1546C176.501 12.71 176.556 12.3708 176.67 12.2155C176.715 12.1542 176.797 12.1335 176.867 12.1634L177.232 12.3209C177.279 12.3409 177.313 12.3822 177.326 12.4314L177.367 12.5967C177.393 12.6986 177.409 12.8033 177.414 12.9081C177.436 13.3263 177.394 13.8721 177.283 14.3239C177.279 14.3374 177.26 14.336 177.257 14.3224L176.975 12.804C176.888 13.1902 176.858 13.5458 176.925 13.8507L176.924 13.8515Z" fill="white"/>
<path d="M139.814 2.87499C141.161 2.72536 142.211 2.4489 142.342 3.18566C142.154 2.12897 142.458 2.01924 139.762 2.31921C139.762 2.31921 139.806 2.87571 139.814 2.87499Z" fill="white"/>
<path d="M138.734 13.3278C137.603 13.4433 136.73 13.6698 136.578 13.0371C136.796 13.9442 136.545 14.0361 138.809 13.8045C138.809 13.8045 138.742 13.3271 138.734 13.3278Z" fill="white"/>
<path d="M174.567 21.8283L174.927 22.0719C174.955 22.0912 174.979 22.1168 174.995 22.1475C175.192 22.5351 175.357 23.2519 175.808 23.6858C176.406 23.8747 175.632 21.8682 175.803 20.4067C176.182 21.4435 176.435 22.6206 176.496 23.7649C176.508 23.9787 176.269 24.1127 176.091 23.9929L175.878 23.8483C174.885 23.1472 174.873 22.5265 174.533 21.8596C174.521 21.8375 174.546 21.8154 174.567 21.829V21.8283Z" fill="white"/>
<path d="M143.722 11.9883C143.61 13.0279 144.923 12.9816 146.067 13.0642C146.131 13.0685 146.17 13.1369 146.143 13.1946L145.979 13.5487C145.963 13.5822 145.929 13.6029 145.893 13.6022L141.969 13.4754C142.154 13.6243 142.233 13.8587 141.781 14.5206C141.858 14.0197 141.768 13.4169 139.794 13.8102L139.993 13.4126C140.053 13.2937 140.152 13.1989 140.275 13.1469C141.074 12.8077 142.329 12.9702 143.453 12.988C143.315 12.7158 143.374 12.3909 143.722 11.9883H143.722Z" fill="white"/>
<path d="M166.029 43.7995L166.305 43.6271C166.378 43.5808 166.423 43.5003 166.422 43.4133L166.407 41.0021L166.951 43.0728C166.961 43.1134 167.021 43.1077 167.024 43.0656C167.084 42.1522 167.066 41.2878 166.849 40.5504C166.838 40.3601 166.625 40.2532 166.466 40.358L166.315 40.4563C166.023 40.648 165.85 40.9758 165.857 41.3249L165.907 43.7347C165.909 43.7967 165.976 43.833 166.029 43.8003V43.7995Z" fill="white"/>
<path d="M172.483 38.0797L171.988 37.8502C171.933 37.8246 171.888 37.7818 171.862 37.727C171.455 36.8398 171.528 35.6805 171.234 35.3613L171.712 35.4896C171.797 35.5124 171.865 35.5779 171.893 35.6627C172.255 36.78 172.01 37.4626 172.483 38.0811V38.0797Z" fill="white"/>
<path d="M168.951 32.3416C168.716 32.1556 168.465 32.1549 168.314 30.9992C168.805 32.0951 169.056 33.4446 169.203 34.9039C169.314 34.2512 169.371 33.5622 169.352 32.8218C169.345 32.5917 169.306 32.3623 169.232 32.1442C169.003 31.4666 168.626 30.66 168.216 29.8228C168.206 29.8021 168.188 29.7864 168.165 29.7807L167.749 29.661C167.69 29.6439 167.636 29.6959 167.647 29.7551C167.897 31.0227 167.6 32.3437 168.951 32.3409V32.3416Z" fill="white"/>
<path d="M167.084 38.1567L167.593 38.3762C167.723 38.2408 168.074 36.7345 169.07 36.7046C167.918 36.0612 167.426 37.529 167.084 38.156V38.1567Z" fill="white"/>
<path d="M175.158 50.9233L174.708 51.2461C174.757 51.4278 175.871 52.5016 175.385 53.3702C176.53 52.7132 175.521 51.5383 175.158 50.9233Z" fill="white"/>
</g>
<rect x="139.059" y="16.1317" width="24.3294" height="24.3294" fill="white"/>
<rect x="139.059" y="16.1317" width="24.3294" height="24.3294" stroke="#C59714" stroke-width="0.858685"/>
<g clip-path="url(#clip3_1_17721)">
<path d="M161.405 26.9177L161.312 26.2692C159.747 25.1338 156.595 26.8606 157.004 22.544L157.033 20.8887C159.881 21.8328 161.806 23.0205 161.287 26.0418C160.931 24.2009 159.177 23.3387 157.127 22.6838C157.714 25.219 162.367 22.3744 161.6 27.129L161.549 28.2861C160.052 30.8663 155.391 30.1206 155.734 26.6003C154.86 27.0944 154.245 28.2644 153.517 28.757C152.49 29.4528 151.587 29.2214 151.734 26.7176L151.81 25.0317C154.335 24.7907 155.017 26.1238 154.874 28.1599C154.604 31.718 153.014 34.5112 149.617 36.2613C148.18 36.8985 146.555 37.0777 144.88 37.1315C148.892 35.2006 153.261 33.7719 154.676 28.1921C154.324 27.0326 153.266 26.6991 151.87 26.7586C153.007 28.843 154.953 24.8469 155.914 24.8453L155.918 26.1969C156.398 28.3592 159.788 28.7899 161.407 26.9169L161.405 26.9177Z" fill="#5064BA"/>
<path d="M157.93 20.6445L159.328 19.6144L157.891 17.9775L156.513 19.0173L157.93 20.6445Z" fill="#5064BA"/>
<path d="M141.678 20.3408L143.055 19.2898L141.794 17.8281L140.435 18.8872L141.678 20.3408Z" fill="#5064BA"/>
<path d="M141.685 22.8078L143.061 21.7575L141.8 20.2959L140.443 21.3542L141.685 22.8078Z" fill="#5064BA"/>
<path d="M160.672 31.7551L161.83 30.8712L160.77 29.6426L159.628 30.5329L160.672 31.7551Z" fill="#5064BA"/>
<path d="M158.892 18.9723L160.389 20.6493L161.756 19.6096L160.244 17.9277L158.892 18.9723Z" fill="#5064BA"/>
<path d="M158.813 30.2046L158.032 31.2685C157.991 31.3247 157.99 31.401 158.03 31.4581C158.457 32.064 159.467 33.4878 158.092 35.1247C157.628 33.4814 156.358 32.338 157.13 30.8241C154.136 33.434 157.267 34.9865 157.041 37.07C155.788 34.8097 154.451 34.1066 155.075 32.6891C152.453 35.1922 154.748 35.8085 154.023 37.4164C153.261 36.5108 152.776 35.4983 153.255 34.1122L152.534 34.9752C152.482 35.0379 152.415 35.0869 152.341 35.1206C151.183 35.6413 150.041 34.7157 149.703 33.2042C152.204 29.4677 148.473 21.1599 154.812 17.8228C145.4 20.1562 152.101 32.4979 146.689 35.0033C148.287 33.2741 146.326 31.1302 148 29.679L148.553 29.3841C148.699 29.3062 148.802 29.1656 148.83 29.0033C149.282 26.3411 147.339 25.0161 145.987 25.1471L144.213 25.8911C140.896 27.6943 144.393 34.0945 142.825 37.3135C142.888 35.7064 141.899 33.0845 141.903 29.573C141.906 26.3717 141.809 23.4227 143.503 21.9449C140.186 23.1269 140.496 25.4259 140.465 28.268C140.395 34.7269 141.893 37.3288 140.938 38.7736L142.762 37.9877C147.124 36.4433 142.743 28.0503 145.103 25.8429C146.82 26.4946 147.796 28.219 147.185 29.8373C144.306 30.8932 146.781 34.0246 145.038 35.6606L146.689 35.2283L148.621 34.3364C149.345 36.5116 150.756 37.4429 152.103 35.7964C151.819 36.9399 152.218 37.9089 153.032 38.7711C153.063 38.8041 153.117 38.8017 153.146 38.7655L154.843 36.6072L155.969 38.4208C156.06 38.5679 156.272 38.5791 156.378 38.4425L157.264 37.3023C157.963 36.4264 158.132 35.8157 158.117 35.2966C160.738 31.9097 159.854 31.5529 159.089 30.2222C159.03 30.1186 158.884 30.1097 158.813 30.2054V30.2046Z" fill="#5064BA"/>
<path d="M161.538 37.5053C160.819 38.0477 159.562 38.1706 159.556 37.126L160.343 36.2084C161.796 34.349 159.721 34.4157 160.546 32.373C158.798 34.8447 160.589 34.8014 160.189 36.1537L159.333 37.1879C158.263 38.7998 160.01 39.2433 161.026 38.3321L161.538 37.5061V37.5053Z" fill="#5064BA"/>
<path d="M148.297 37.3936L148.018 37.9272C148.927 37.658 149.715 37.6467 150.312 38.0469C148.857 38.3731 146.232 38.619 143.5 38.8577C146.699 38.9067 148.049 39.3486 150.176 38.8625C150.467 38.7958 150.699 38.5756 150.841 38.3153L151.149 37.7528C151.258 37.5535 151.19 37.3044 150.995 37.1871C150.422 36.8424 149.757 36.713 148.957 36.8874C148.672 36.9492 148.432 37.1373 148.298 37.3936H148.297Z" fill="#5064BA"/>
<path d="M143.722 21.5309L144.796 20.2043C145.255 21.7214 144.798 22.8439 144.26 23.9319C144.187 24.0806 144.079 24.2099 143.946 24.3104L143.27 24.8174C143.177 24.8873 143.095 24.9709 143.027 25.0657L142.5 25.7969C144.744 24.2284 146.447 24.8793 147.517 23.3975C149.13 21.5783 147.919 20.3553 148.371 18.6245C149.979 18.1954 150.382 19.3469 149.005 20.7852C152.113 18.0234 149.738 16.8696 148.413 18.3304C146.683 20.1159 148.388 21.9271 147.411 23.2288C146.608 23.9263 144.865 23.8901 144.149 24.3931C146.385 21.2432 145.648 19.6354 144.977 17.9921C144.946 17.915 144.844 17.8997 144.791 17.9632L144.204 18.6655C144.183 18.692 144.174 18.7274 144.182 18.7611C144.373 19.5542 144.555 20.3505 143.722 21.5309H143.722Z" fill="#5064BA"/>
<path d="M153.427 23.1937L153.76 22.2535C153.76 22.2535 154.786 23.4363 154.731 24.5966C154.727 24.6842 154.706 24.771 154.672 24.8522L154.395 25.5047C154.377 25.5456 154.426 25.5842 154.462 25.5577C154.681 25.397 155.153 24.9767 155.571 24.1041C157.102 21.3953 154.706 19.9594 154.936 18.7918C154.936 18.7918 156.096 18.3836 155.695 20.6938C155.695 20.6938 155.783 20.5974 155.893 20.4134C156.178 19.9353 156.282 19.3736 156.211 18.8224C156.129 18.1844 155.9 17.3326 155.264 17.9272C155.14 18.0437 155.04 18.1844 154.962 18.3362C154.794 18.6617 154.468 19.3407 154.457 19.7432C154.422 21.0787 156.074 22.0751 155.472 23.9594L155.012 24.4649C155.73 22.82 154.016 20.9076 153.132 20.0679C153.088 20.0269 153.018 20.0341 152.986 20.0839C152.775 20.4029 152.597 20.7396 152.46 21.0972C152.445 21.1358 152.458 21.18 152.49 21.2057C153.119 21.7135 153.484 22.3507 153.427 23.1945V23.1937Z" fill="#5064BA"/>
</g>
</g>
<rect x="123.46" y="0.818656" width="55.2421" height="55.2421" stroke="#C59714" stroke-width="1.14491"/>
<defs>
<clipPath id="clip0_1_17721">
<rect width="112.216" height="48.0548" fill="white" transform="translate(0.861572 4.44727)"/>
</clipPath>
<clipPath id="clip1_1_17721">
<rect x="124.032" y="1.39111" width="54.0972" height="54.0972" fill="white"/>
</clipPath>
<clipPath id="clip2_1_17721">
<rect width="52.8746" height="52.569" fill="white" transform="translate(124.848 2.10693)"/>
</clipPath>
<clipPath id="clip3_1_17721">
<rect width="21.3944" height="21.3944" fill="white" transform="translate(140.435 17.6938)"/>
</clipPath>
</defs>
</svg>
