<svg width="485" height="90" viewBox="0 0 485 90" fill="none" xmlns="http://www.w3.org/2000/svg">
<path d="M297.732 28.0905V14.9361H304.456C309.073 14.9361 311.986 17.501 311.986 21.5133C311.986 25.5256 309.073 28.0905 304.456 28.0905H297.732ZM300.371 25.7821H304.456C307.461 25.7821 309.238 24.0965 309.238 21.5133C309.238 18.9117 307.461 17.2445 304.456 17.2445H300.371V25.7821ZM317.158 14.9361V28.0905H314.465V14.9361H317.158ZM323.065 23.1988V28.0905H320.372V14.9361H328.635C331.621 14.9361 333.637 16.3651 333.637 19.0766C333.637 21.0919 332.464 22.4293 330.595 22.9423L333.948 28.0905H330.852L327.756 23.1988H323.065ZM323.065 20.9454H328.488C330.064 20.9454 330.962 20.2675 330.962 19.0949C330.962 17.9041 330.064 17.2262 328.488 17.2262H323.065V20.9454ZM336.085 14.9361H348.818V17.2629H338.741V20.1942H347.773V22.5026H338.741V25.7638H348.818V28.0905H336.085V14.9361ZM350.527 21.5133C350.527 17.6109 353.843 14.7346 358.295 14.7346C361.74 14.7346 364.268 16.2918 365.276 18.8751L362.949 20.0476C362.198 18.1972 360.622 17.098 358.314 17.098C355.437 17.098 353.276 18.8568 353.276 21.5133C353.276 24.1698 355.437 25.9286 358.314 25.9286C360.622 25.9286 362.198 24.8294 362.949 22.979L365.276 24.1515C364.268 26.7348 361.74 28.292 358.295 28.292C353.843 28.292 350.527 25.4157 350.527 21.5133ZM380.69 17.2629H374.882V28.0905H372.171V17.2629H366.363V14.9361H380.69V17.2629ZM388.951 14.7346C393.439 14.7346 396.719 17.6109 396.719 21.5133C396.719 25.4157 393.439 28.292 388.951 28.292C384.444 28.292 381.183 25.4157 381.183 21.5133C381.183 17.6109 384.444 14.7346 388.951 14.7346ZM388.951 17.098C386.001 17.098 383.949 18.8568 383.949 21.5133C383.949 24.1698 386.001 25.9286 388.951 25.9286C391.9 25.9286 393.952 24.1698 393.952 21.5133C393.952 18.8568 391.9 17.098 388.951 17.098ZM401.895 23.1988V28.0905H399.202V14.9361H407.465C410.451 14.9361 412.467 16.3651 412.467 19.0766C412.467 21.0919 411.294 22.4293 409.425 22.9423L412.778 28.0905H409.682L406.586 23.1988H401.895ZM401.895 20.9454H407.318C408.894 20.9454 409.792 20.2675 409.792 19.0949C409.792 17.9041 408.894 17.2262 407.318 17.2262H401.895V20.9454ZM420.264 14.9361H423.287L429.919 28.0905H427.006L425.486 25.0309H418.048L416.509 28.0905H413.632L420.264 14.9361ZM421.767 17.5926L419.183 22.7408H424.332L421.767 17.5926ZM443.038 17.2629H437.23V28.0905H434.519V17.2629H428.711V14.9361H443.038V17.2629ZM445.445 14.9361H458.178V17.2629H448.101V20.1942H457.133V22.5026H448.101V25.7638H458.178V28.0905H445.445V14.9361ZM473.953 22.7946C473.953 23.6892 473.714 24.5748 473.237 25.4515C472.766 26.3282 472.107 27.023 471.26 27.5359C470.413 28.0488 469.59 28.3052 468.791 28.3052C467.974 28.3052 467.306 28.0458 466.787 27.5269C466.274 27.0021 466.018 26.3252 466.018 25.4962C466.018 24.6196 466.268 23.7399 466.769 22.8572C467.276 21.9746 467.95 21.2768 468.791 20.7639C469.638 20.251 470.455 19.9946 471.242 19.9946C472.029 19.9946 472.677 20.254 473.183 20.7729C473.696 21.2917 473.953 21.9656 473.953 22.7946ZM472.468 22.1774C472.468 21.6227 472.331 21.1993 472.056 20.9071C471.788 20.6089 471.439 20.4598 471.01 20.4598C470.133 20.4598 469.325 21.089 468.585 22.3473C467.852 23.5997 467.485 24.8462 467.485 26.0867C467.485 26.6532 467.628 27.0916 467.914 27.4017C468.201 27.7058 468.562 27.8579 468.997 27.8579C469.838 27.8579 470.625 27.2347 471.359 25.9883C472.098 24.7358 472.468 23.4656 472.468 22.1774ZM480.988 20.2093L480.827 20.7997H479.521L478.537 24.709C478.101 26.4326 477.663 27.7655 477.222 28.7078C476.595 30.0377 475.921 30.9561 475.2 31.4631C474.651 31.8507 474.103 32.0445 473.554 32.0445C473.196 32.0445 472.892 31.9372 472.641 31.7225C472.456 31.5734 472.364 31.3796 472.364 31.141C472.364 30.9502 472.442 30.7832 472.597 30.64C472.746 30.5029 472.931 30.4343 473.151 30.4343C473.312 30.4343 473.449 30.485 473.563 30.5864C473.67 30.6878 473.724 30.8041 473.724 30.9353C473.724 31.0665 473.661 31.1887 473.536 31.302C473.441 31.3855 473.393 31.4481 473.393 31.4899C473.393 31.5436 473.414 31.5853 473.455 31.6151C473.509 31.6569 473.593 31.6778 473.706 31.6778C473.962 31.6778 474.234 31.5972 474.52 31.4362C474.8 31.2752 475.051 31.0337 475.271 30.7116C475.492 30.3955 475.701 29.9363 475.898 29.334C475.981 29.0835 476.205 28.2575 476.569 26.856L478.125 20.7997H476.569L476.694 20.2093C477.189 20.2093 477.535 20.1765 477.732 20.1109C477.928 20.0393 478.107 19.9081 478.268 19.7173C478.435 19.5205 478.65 19.1567 478.912 18.6259C479.264 17.9102 479.601 17.3556 479.923 16.962C480.365 16.4312 480.827 16.0346 481.31 15.7722C481.799 15.5038 482.258 15.3696 482.687 15.3696C483.141 15.3696 483.505 15.4859 483.779 15.7185C484.053 15.9452 484.19 16.1927 484.19 16.461C484.19 16.6698 484.122 16.8457 483.985 16.9888C483.847 17.132 483.671 17.2035 483.457 17.2035C483.272 17.2035 483.12 17.1498 483.001 17.0425C482.887 16.9352 482.831 16.8069 482.831 16.6578C482.831 16.5624 482.869 16.4461 482.947 16.3089C483.024 16.1658 483.063 16.0704 483.063 16.0227C483.063 15.9392 483.036 15.8766 482.983 15.8348C482.905 15.7752 482.792 15.7454 482.643 15.7454C482.267 15.7454 481.93 15.8646 481.632 16.1032C481.232 16.4193 480.874 16.9143 480.558 17.5882C480.397 17.9401 480.102 18.8138 479.673 20.2093H480.988Z" fill="#11172F"/>
<path d="M297 45.5133C297 41.6109 300.316 38.7346 304.768 38.7346C308.212 38.7346 310.74 40.2918 311.748 42.8751L309.421 44.0476C308.67 42.1972 307.094 41.098 304.786 41.098C301.91 41.098 299.748 42.8568 299.748 45.5133C299.748 48.1698 301.91 49.9286 304.786 49.9286C307.094 49.9286 308.67 48.8294 309.421 46.979L311.748 48.1515C310.74 50.7348 308.212 52.292 304.768 52.292C300.316 52.292 297 49.4157 297 45.5133ZM320.999 38.7346C325.487 38.7346 328.767 41.6109 328.767 45.5133C328.767 49.4157 325.487 52.292 320.999 52.292C316.492 52.292 313.231 49.4157 313.231 45.5133C313.231 41.6109 316.492 38.7346 320.999 38.7346ZM320.999 41.098C318.049 41.098 315.997 42.8568 315.997 45.5133C315.997 48.1698 318.049 49.9286 320.999 49.9286C323.948 49.9286 326 48.1698 326 45.5133C326 42.8568 323.948 41.098 320.999 41.098ZM344.826 38.9361V52.0905H342.444L333.852 42.3621V52.0905H331.25V38.9361H333.998L342.206 48.2248V38.9361H344.826ZM346.662 49.2324L348.476 47.3454C349.978 49.3607 352.36 49.9836 354.302 49.9836C356.5 49.9836 358.058 49.3241 358.058 48.2614C358.058 47.0156 356.977 46.9057 353.276 46.5026C350.051 46.1362 347.578 45.5316 347.578 42.9301C347.578 40.4384 350.015 38.7346 353.752 38.7346C356.684 38.7346 359.322 39.7789 360.513 41.3545L358.717 43.0766C357.71 41.7758 355.841 41.0247 353.606 41.0247C351.261 41.0247 350.198 41.7758 350.198 42.6552C350.198 43.6079 351.077 43.8278 354.412 44.2125C358.149 44.6339 360.788 45.1286 360.788 47.9683C360.788 50.8447 357.911 52.292 354.192 52.292C351.059 52.292 347.945 51.0829 346.662 49.2324ZM369.57 52.2737C364.953 52.2737 362.81 49.7088 362.81 45.8797V38.9361H365.503V45.7332C365.503 48.2065 366.565 49.9103 369.57 49.9103C372.556 49.9103 373.619 48.2065 373.619 45.7332V38.9361H376.33V45.8797C376.33 49.7088 374.169 52.2737 369.57 52.2737ZM379.192 52.0905V38.9361H381.886V49.7638H391.138V52.0905H379.192ZM398.948 38.9361H401.971L408.604 52.0905H405.69L404.17 49.0309H396.732L395.193 52.0905H392.316L398.948 38.9361ZM400.451 41.5926L397.867 46.7408H403.016L400.451 41.5926ZM413.257 47.1988V52.0905H410.563V38.9361H418.826C421.812 38.9361 423.828 40.3651 423.828 43.0766C423.828 45.0919 422.655 46.4293 420.786 46.9423L424.139 52.0905H421.043L417.947 47.1988H413.257ZM413.257 44.9454H418.68C420.255 44.9454 421.153 44.2675 421.153 43.0949C421.153 41.9041 420.255 41.2262 418.68 41.2262H413.257V44.9454Z" fill="#11172F"/>
<path d="M303.082 62.9361H306.105L312.737 76.0905H309.824L308.304 73.0309H300.865L299.326 76.0905H296.45L303.082 62.9361ZM304.584 65.5926L302.001 70.7408H307.149L304.584 65.5926ZM317.354 76.0905H314.697V62.9361H327.229V65.2629H317.354V68.5423H326.184V70.869H317.354V76.0905ZM332.368 76.0905H329.712V62.9361H342.243V65.2629H332.368V68.5423H341.199V70.869H332.368V76.0905ZM348.036 62.9361H351.059L357.691 76.0905H354.778L353.258 73.0309H345.819L344.281 76.0905H341.404L348.036 62.9361ZM349.539 65.5926L346.955 70.7408H352.104L349.539 65.5926ZM362.345 62.9361V76.0905H359.651V62.9361H362.345ZM368.252 71.1988V76.0905H365.559V62.9361H373.822C376.808 62.9361 378.823 64.3651 378.823 67.0766C378.823 69.0919 377.651 70.4293 375.782 70.9423L379.135 76.0905H376.039L372.942 71.1988H368.252ZM368.252 68.9454H373.675C375.251 68.9454 376.149 68.2675 376.149 67.0949C376.149 65.9041 375.251 65.2262 373.675 65.2262H368.252V68.9454ZM379.897 73.2324L381.711 71.3454C383.213 73.3607 385.595 73.9836 387.537 73.9836C389.736 73.9836 391.293 73.3241 391.293 72.2614C391.293 71.0156 390.212 70.9057 386.511 70.5026C383.287 70.1362 380.813 69.5316 380.813 66.9301C380.813 64.4384 383.25 62.7346 386.988 62.7346C389.919 62.7346 392.557 63.7789 393.748 65.3545L391.953 67.0766C390.945 65.7758 389.076 65.0247 386.841 65.0247C384.496 65.0247 383.433 65.7758 383.433 66.6552C383.433 67.6079 384.313 67.8278 387.647 68.2125C391.385 68.6339 394.023 69.1286 394.023 71.9683C394.023 74.8447 391.146 76.292 387.427 76.292C384.294 76.292 381.18 75.0829 379.897 73.2324Z" fill="#11172F"/>
<g clip-path="url(#clip0_1_17735)">
<path d="M70.1787 25.5836C69.523 25.5836 68.9926 25.4245 68.5876 25.1111C68.1827 24.7977 67.9127 24.4023 67.768 23.9347C67.6186 24.2915 67.4161 24.5711 67.1654 24.7881C66.9147 25.0002 66.5965 25.1689 66.2156 25.2846C65.8347 25.4052 65.3718 25.4823 64.8319 25.5257C64.2919 25.5691 63.6555 25.5836 62.9323 25.5836H9.5654C8.5915 25.5836 7.7767 25.5161 7.12583 25.3762C6.47495 25.2413 5.94943 25.0243 5.54927 24.7302C5.1491 24.4361 4.86464 24.06 4.6959 23.5924C4.52715 23.1295 4.44519 22.5558 4.44519 21.8856V17.9611H6.51835V21.1287C6.51835 21.6542 6.58102 22.0688 6.7112 22.3774C6.84137 22.686 7.05351 22.927 7.35725 23.091C7.66099 23.2549 8.0708 23.3609 8.59632 23.4092C9.11702 23.4574 9.792 23.4815 10.6164 23.4815H62.8985C63.4578 23.4815 63.9303 23.4622 64.3208 23.4284C64.7113 23.3947 65.0199 23.3127 65.2465 23.1826C65.4731 23.0524 65.637 22.8692 65.7383 22.6329C65.8395 22.3919 65.8925 22.0592 65.8925 21.6349V15.8253H67.9802V20.6948C67.9802 21.119 68.0091 21.5048 68.0669 21.8519C68.1248 22.199 68.2357 22.4883 68.4044 22.7245C68.5732 22.9608 68.7998 23.144 69.0891 23.2838C69.3783 23.4236 69.7399 23.4911 70.1739 23.4911C70.8585 23.4911 71.196 23.8286 71.196 24.5036C71.196 24.9279 71.114 25.2171 70.9501 25.3666C70.7862 25.5161 70.5258 25.5932 70.1739 25.5932L70.1787 25.5836ZM11.7736 13.0578C11.7736 12.6866 11.9037 12.3684 12.1641 12.1081C12.4244 11.8477 12.7426 11.7175 13.1139 11.7175C13.4851 11.7175 13.8033 11.8477 14.0637 12.1081C14.324 12.3684 14.4542 12.6866 14.4542 13.0578C14.4542 13.4291 14.324 13.7473 14.0637 14.0076C13.8033 14.268 13.4851 14.3982 13.1139 14.3982C12.7426 14.3982 12.4244 14.268 12.1641 14.0076C11.9037 13.7473 11.7736 13.4291 11.7736 13.0578ZM15.0713 13.0578C15.0713 12.6866 15.2015 12.3684 15.4618 12.1081C15.7222 11.8477 16.0404 11.7175 16.4116 11.7175C16.7829 11.7175 17.1011 11.8477 17.3614 12.1081C17.6218 12.3684 17.752 12.6866 17.752 13.0578C17.752 13.4291 17.6218 13.7473 17.3614 14.0076C17.1011 14.268 16.7829 14.3982 16.4116 14.3982C16.0404 14.3982 15.7222 14.268 15.4618 14.0076C15.2015 13.7473 15.0713 13.4291 15.0713 13.0578Z" fill="#11172F"/>
<path d="M71.0948 23.4815C71.6541 23.4815 72.1265 23.4622 72.5122 23.4284C72.8979 23.3947 73.2065 23.3127 73.4379 23.1826C73.6694 23.0524 73.8333 22.8692 73.9345 22.6329C74.0358 22.3919 74.0888 22.0592 74.0888 21.6349V17.074H76.162V20.69C76.162 21.1142 76.1861 21.4999 76.2343 21.8471C76.2825 22.1942 76.403 22.4835 76.5911 22.7197C76.7839 22.956 77.0443 23.1392 77.3769 23.279C77.7096 23.4188 78.1773 23.4863 78.7799 23.4863C79.1415 23.4863 90.8958 23.467 91.1803 23.4333C91.4647 23.3995 91.701 23.3176 91.8842 23.1874C92.0722 23.0572 92.2072 22.874 92.2988 22.6378C92.3856 22.3967 92.4338 22.064 92.4338 21.6398V17.0933H94.507V20.6996C94.507 21.1239 94.5359 21.5096 94.5986 21.8567C94.6613 22.2038 94.7721 22.4931 94.9361 22.7294C95.1 22.9656 95.3218 23.1488 95.6062 23.2886C95.8907 23.4284 96.2475 23.4959 96.6814 23.4959H110.239V15.8349H112.326V25.598H96.6814C96.0353 25.598 95.5098 25.4389 95.1048 25.1255C94.6998 24.8122 94.4395 24.4168 94.3141 23.9491C94.0056 24.6386 93.5282 25.087 92.8822 25.2943C92.2361 25.5016 80.0335 25.598 79.1319 25.598C78.5485 25.598 78.0615 25.5498 77.6758 25.4582C77.2901 25.3666 76.9719 25.2364 76.7164 25.0773C76.4657 24.9182 76.2632 24.735 76.1186 24.5325C75.9739 24.33 75.8486 24.1227 75.7377 23.9202C75.5979 24.277 75.4098 24.5566 75.1784 24.7736C74.947 24.9857 74.6529 25.1593 74.2961 25.2846C73.9345 25.4148 73.491 25.4968 72.951 25.5354C72.411 25.5739 71.7794 25.5932 71.0417 25.5932H70.1884C69.5134 25.5932 69.1759 25.2557 69.1759 24.5807C69.1759 24.1565 69.2579 23.8672 69.417 23.7177C69.5761 23.5683 69.8316 23.4911 70.1884 23.4911H71.0803L71.0948 23.4815Z" fill="#11172F"/>
<path d="M163.447 24.4939C163.447 24.9182 120.325 25.2075 120.166 25.357C120.007 25.5064 119.751 25.5836 119.394 25.5836H118.744C118.194 25.5836 117.697 25.5305 117.254 25.4196C116.81 25.3087 116.429 25.1207 116.116 24.8459C115.803 24.5759 115.557 24.2143 115.378 23.7708C115.2 23.3224 115.113 22.7631 115.113 22.0881V7.48444H117.186V21.5289C117.186 22.2376 117.297 22.7438 117.519 23.0379C117.741 23.3368 118.228 23.4815 118.98 23.4815H119.394C120.069 23.4815 163.447 23.819 163.447 24.4939Z" fill="#11172F"/>
<path d="M119.409 25.5836C118.734 25.5836 118.396 25.2461 118.396 24.5711C118.396 24.1468 118.478 23.8575 118.637 23.7081C118.797 23.5586 119.052 23.4815 119.409 23.4815H167.395V15.8204H169.468V25.5836H119.404H119.409ZM163.471 29.4165C163.471 29.0453 163.601 28.727 163.856 28.4667C164.112 28.2063 164.43 28.0762 164.801 28.0762C165.173 28.0762 165.491 28.2063 165.761 28.4667C166.031 28.727 166.161 29.0453 166.161 29.4165C166.161 29.7877 166.026 30.1059 165.761 30.3663C165.496 30.6266 165.177 30.7568 164.801 30.7568C164.425 30.7568 164.112 30.6266 163.856 30.3663C163.601 30.1059 163.471 29.7877 163.471 29.4165ZM166.759 29.4165C166.759 29.0453 166.894 28.727 167.159 28.4667C167.424 28.2063 167.742 28.0762 168.118 28.0762C168.494 28.0762 168.808 28.2063 169.063 28.4667C169.319 28.727 169.449 29.0453 169.449 29.4165C169.449 29.7877 169.319 30.1059 169.063 30.3663C168.808 30.6266 168.49 30.7568 168.118 30.7568C167.747 30.7568 167.429 30.6266 167.159 30.3663C166.894 30.1059 166.759 29.7877 166.759 29.4165Z" fill="#11172F"/>
<path d="M174.984 17.0884H177.018V24.1661C177.018 25.4148 176.951 26.4707 176.811 27.324C176.671 28.1774 176.401 28.8669 175.992 29.3924C175.582 29.9131 175.022 30.294 174.304 30.5302C173.586 30.7664 172.66 30.8822 171.522 30.8822V28.7801C172.347 28.7801 172.993 28.6933 173.456 28.5149C173.923 28.3365 174.266 28.0521 174.492 27.6567C174.719 27.2614 174.854 26.7551 174.907 26.1332C174.955 25.5112 174.979 24.7639 174.979 23.8865V17.0884H174.984Z" fill="#11172F"/>
<path d="M79.7731 46.4694H81.8077V53.5471C81.8077 54.7958 81.7402 55.8516 81.6004 56.705C81.4605 57.5584 81.1905 58.2478 80.7807 58.7733C80.3709 59.294 79.8117 59.6749 79.0933 59.9112C78.3749 60.1474 77.4492 60.2631 76.3114 60.2631V58.161C77.1358 58.161 77.7819 58.0742 78.2447 57.8959C78.7124 57.7175 79.0547 57.433 79.2813 57.0377C79.5079 56.6423 79.6429 56.1361 79.6959 55.5141C79.7442 54.8922 79.7683 54.1449 79.7683 53.2674V46.4694H79.7731Z" fill="#11172F"/>
<path d="M93.5813 54.9645C93.509 55.9915 93.292 56.8448 92.9304 57.5246C92.5688 58.2044 92.077 58.7444 91.4551 59.1494C90.8332 59.5544 90.0858 59.8388 89.2132 60.0076C88.3405 60.1763 87.3715 60.2583 86.306 60.2583H85.2405V58.1562H86.0263C86.817 58.1562 87.5402 58.1176 88.2007 58.0453C88.8612 57.9682 89.435 57.8187 89.9171 57.5873C90.3992 57.3559 90.7801 57.0329 91.0549 56.6086C91.3297 56.1891 91.4792 55.6395 91.5081 54.9645H88.6346C87.9452 54.9645 87.3088 54.8874 86.7254 54.7379C86.1469 54.5885 85.6358 54.3377 85.2019 53.9858C84.768 53.6338 84.4305 53.1855 84.1846 52.631C83.9387 52.0766 83.8182 51.3871 83.8182 50.5627C83.8182 49.8636 83.9339 49.1838 84.1557 48.5233C84.3774 47.8628 84.7101 47.2794 85.144 46.7731C85.5779 46.2669 86.1035 45.8571 86.7206 45.5437C87.3377 45.2303 88.0416 45.0712 88.842 45.0712C89.7194 45.0712 90.4619 45.2303 91.0646 45.5437C91.6672 45.8571 92.1638 46.3007 92.5495 46.8744C92.9352 47.4481 93.21 48.1424 93.3788 48.9572C93.5475 49.772 93.6295 50.6784 93.6295 51.6716V52.8673H158.621C159.305 52.8673 159.643 53.2047 159.643 53.8797C159.643 54.304 159.561 54.5933 159.397 54.7427C159.233 54.8922 158.972 54.9693 158.621 54.9693H93.5765L93.5813 54.9645ZM85.8528 50.3505C85.8528 51.2184 86.0986 51.8548 86.5952 52.2598C87.0918 52.6648 87.8198 52.8624 88.7745 52.8624H91.5033V51.1846C91.5033 49.9359 91.2912 48.9379 90.8669 48.1906C90.4426 47.4481 89.7146 47.0721 88.6877 47.0721C88.2007 47.0721 87.7813 47.1685 87.4245 47.3662C87.0677 47.559 86.7784 47.8145 86.5518 48.1327C86.3252 48.451 86.1517 48.7981 86.0311 49.1838C85.9106 49.5695 85.8528 49.9552 85.8528 50.3457V50.3505Z" fill="#11172F"/>
<path d="M158.649 54.9645C157.974 54.9645 94.4202 54.627 94.4202 53.952C94.4202 53.5278 157.719 53.2385 157.878 53.089C158.037 52.9396 158.293 52.8624 158.649 52.8624H159.7C159.893 52.8624 160.105 52.8383 160.327 52.7901C160.549 52.7419 160.766 52.631 160.988 52.4574C161.205 52.2839 161.422 52.0476 161.634 51.7535C161.846 51.4546 162.048 51.0593 162.232 50.5627C162.622 49.4827 163.032 48.6052 163.461 47.9351C163.89 47.2649 164.329 46.749 164.777 46.3874C165.226 46.0258 165.684 45.7848 166.147 45.6642C166.609 45.5437 167.077 45.4859 167.535 45.4859C168.171 45.4859 168.764 45.6064 169.304 45.8523C169.844 46.0982 170.317 46.4405 170.712 46.8889C171.112 47.3372 171.421 47.8676 171.648 48.4847C171.874 49.1018 171.985 49.7961 171.985 50.5675C171.985 52.0139 171.633 53.1613 170.934 54.0195C170.235 54.8729 169.155 55.302 167.704 55.302C166.903 55.302 166.103 55.167 165.288 54.897C164.478 54.627 163.639 54.169 162.781 53.5229C162.559 53.8604 162.338 54.1256 162.111 54.3185C161.884 54.5113 161.643 54.656 161.388 54.7524C161.132 54.844 160.867 54.9067 160.602 54.9308C160.337 54.9549 160.048 54.9693 159.739 54.9693H158.649V54.9645ZM169.888 50.4855C169.888 50.1047 169.835 49.7382 169.724 49.3815C169.613 49.0247 169.454 48.7161 169.237 48.4509C169.02 48.1858 168.769 47.9688 168.466 47.8049C168.162 47.641 167.81 47.559 167.4 47.559C166.682 47.559 166.026 47.8724 165.438 48.504C164.85 49.1356 164.295 50.2348 163.784 51.8017C164.406 52.2019 165.023 52.5249 165.64 52.7708C166.257 53.0215 166.889 53.1421 167.535 53.1421C168.244 53.1421 168.813 52.9396 169.242 52.5298C169.671 52.12 169.888 51.4401 169.888 50.4807V50.4855Z" fill="#11172F"/>
<path d="M177.019 36.8654V54.9645H174.945V36.8654H177.019Z" fill="#11172F"/>
<path d="M16.2526 77.3353C16.4406 77.5378 16.5997 77.8222 16.7299 78.1887C16.8649 78.5503 16.9276 78.9022 16.9276 79.2397C16.9276 79.7459 16.7781 80.2425 16.484 80.7343C16.1851 81.2261 15.7078 81.6648 15.0521 82.0457C14.3964 82.4266 13.543 82.7303 12.4871 82.9569C11.4313 83.1835 10.1344 83.2944 8.59154 83.2944C6.87998 83.2944 5.47217 83.1401 4.36809 82.8268C3.26401 82.5182 2.38654 82.0891 1.73566 81.5443C1.08479 80.9995 0.631589 80.3582 0.380882 79.6206C0.130175 78.8829 0 78.0922 0 77.2389V73.3143H2.06351V76.8532C2.06351 78.3526 2.57939 79.4518 3.60633 80.1509C4.63326 80.85 6.31589 81.202 8.64458 81.202C9.51241 81.202 10.3368 81.1586 11.1131 81.067C11.8893 80.9754 12.5691 80.8452 13.1525 80.6668C13.7359 80.4884 14.1939 80.2618 14.5265 79.987C14.8592 79.7122 15.0231 79.3988 15.0231 79.042C15.0231 78.6612 14.8255 78.3188 14.4301 78.0103C14.0348 77.7017 13.5478 77.4365 12.9596 77.2099C12.3763 76.9833 11.7543 76.776 11.0986 76.5928C10.4429 76.4048 9.85954 76.236 9.35813 76.0866V74.0231C11.5036 74.8234 13.5382 75.2188 15.4619 75.2188H18.0172C18.7018 75.2188 45.8312 75.5562 45.8312 76.2312C45.8312 76.6555 18.9621 76.9448 18.7982 77.0942C18.6343 77.2437 18.3739 77.3208 18.022 77.3208H16.2526V77.3353Z" fill="#11172F"/>
<path d="M18.0606 77.3353C17.3856 77.3353 17.0481 76.9978 17.0481 76.3228C17.0481 75.8986 17.1301 75.6093 17.2892 75.4598C17.4483 75.3104 17.7038 75.2332 18.0606 75.2332H46.8822C47.186 75.2332 47.456 75.2139 47.6922 75.1802C47.9333 75.1464 48.131 75.0645 48.2901 74.9343C48.4492 74.8041 48.5745 74.6209 48.6613 74.3847C48.7481 74.1484 48.7963 73.8109 48.7963 73.3867V59.2362H50.8839V72.4417C50.8839 73.2999 51.0575 73.9845 51.4046 74.4811C51.7517 74.9825 52.3062 75.2332 53.068 75.2332C53.7429 75.2332 54.0804 75.5707 54.0804 76.2457C54.0804 76.67 53.9985 76.9592 53.8394 77.1087C53.6803 77.2582 53.4247 77.3353 53.068 77.3353C52.4123 77.3353 51.8867 77.1762 51.4866 76.8628C51.0864 76.5494 50.8212 76.1541 50.6862 75.6864C50.3777 76.3759 49.8907 76.8242 49.2254 77.0316C48.5601 77.2341 47.7019 77.3353 46.646 77.3353H18.0606Z" fill="#11172F"/>
<path d="M53.9744 75.2332C54.5336 75.2332 55.0061 75.2139 55.3918 75.1802C55.7775 75.1464 56.0861 75.0645 56.3175 74.9343C56.5489 74.8041 56.7128 74.6209 56.8141 74.3847C56.9153 74.1436 56.9684 73.8109 56.9684 73.3867V68.8402H59.0415V72.4465C59.0415 72.8708 59.0656 73.2565 59.1139 73.6036C59.1621 73.9508 59.2826 74.24 59.4706 74.4763C59.6587 74.7125 59.9286 74.8957 60.2758 75.0355C60.6229 75.1705 72.517 75.2429 73.1052 75.2429C73.4765 75.2429 73.7995 75.2236 74.0743 75.1898C74.3491 75.1561 74.5806 75.0741 74.7638 74.9439C74.947 74.8138 75.0868 74.6306 75.1784 74.3943C75.2652 74.1532 75.3134 73.8206 75.3134 73.3963V68.8498H77.3865V72.4561C77.3865 72.8804 77.4155 73.2661 77.4781 73.6133C77.5408 73.9604 77.6614 74.2497 77.8349 74.4859C78.0085 74.7222 78.2544 74.9054 78.5678 75.0452C78.8811 75.185 79.291 75.2525 79.8068 75.2525C80.1009 75.2525 91.7926 75.2332 92.0288 75.1995C92.2651 75.1657 92.4675 75.0838 92.6315 74.9536C92.8002 74.8234 92.9304 74.6402 93.022 74.404C93.1136 74.1629 93.1618 73.8302 93.1618 73.4059V67.5963H95.235V72.4658C95.235 72.8901 95.2639 73.2758 95.3266 73.6229C95.3892 73.97 95.505 74.2593 95.6737 74.4956C95.8424 74.7318 96.069 74.915 96.3535 75.0548C96.638 75.1898 96.9996 75.2621 97.4431 75.2621C98.1277 75.2621 98.4652 75.5996 98.4652 76.2746C98.4652 76.6989 98.3833 76.9882 98.2193 77.1376C98.0554 77.2871 97.7951 77.3642 97.4431 77.3642C96.7874 77.3642 96.2571 77.2051 95.8473 76.8917C95.4375 76.5784 95.1675 76.183 95.0373 75.7153C94.8878 76.0721 94.6757 76.3518 94.4057 76.5687C94.1357 76.7808 93.8464 76.9496 93.5427 77.0653C93.239 77.1858 92.94 77.263 92.6508 77.3064C92.3615 77.3449 92.1156 77.3642 91.9131 77.3642C91.3635 77.3642 79.4645 77.3112 79.0788 77.2099C78.6931 77.1087 78.3749 76.9785 78.1194 76.8194C77.8687 76.6603 77.671 76.4819 77.5264 76.2891C77.3865 76.0914 77.2757 75.9034 77.1937 75.7153C76.8851 76.4048 76.4126 76.8532 75.7762 77.0605C75.1398 77.263 74.3877 77.3642 73.5102 77.3642C72.9172 77.3642 60.9893 77.316 60.5988 77.2244C60.2035 77.1328 59.8804 77.0026 59.6297 76.8435C59.379 76.6844 59.1717 76.5012 59.0174 76.2987C58.8631 76.0962 58.733 75.8889 58.6269 75.6864C58.4871 76.0432 58.2991 76.3228 58.0676 76.5398C57.8362 76.7519 57.5421 76.9255 57.1853 77.0508C56.8237 77.181 56.3802 77.263 55.8402 77.3015C55.305 77.3401 54.6686 77.3594 53.931 77.3594H53.0776C52.4026 77.3594 52.0651 77.0219 52.0651 76.3469C52.0651 75.9227 52.1471 75.6334 52.3062 75.4839C52.4653 75.3345 52.7208 75.2573 53.0776 75.2573H53.9695L53.9744 75.2332Z" fill="#11172F"/>
<path d="M97.4769 77.3353C96.8019 77.3353 96.4644 76.9978 96.4644 76.3228C96.4644 75.8986 96.5464 75.6093 96.7055 75.4598C96.8646 75.3104 97.1201 75.2332 97.4769 75.2332H118.575V67.5722H120.662V77.3353H97.4769ZM118.199 63.3005C118.199 62.9293 118.329 62.6159 118.589 62.3555C118.85 62.1 119.168 61.9698 119.539 61.9698C119.91 61.9698 120.229 62.1 120.489 62.3555C120.749 62.6111 120.879 62.9293 120.879 63.3005C120.879 63.6718 120.749 64.0044 120.489 64.2648C120.229 64.5251 119.91 64.6553 119.539 64.6553C119.168 64.6553 118.85 64.5251 118.589 64.2648C118.329 64.0044 118.199 63.6814 118.199 63.3005Z" fill="#11172F"/>
<path d="M131.751 77.3353C131.679 78.3622 131.462 79.2156 131.101 79.8954C130.739 80.5752 130.247 81.1152 129.625 81.5202C129.003 81.9252 128.256 82.2096 127.383 82.3784C126.511 82.5471 125.542 82.6291 124.476 82.6291H123.411V80.527H124.196C124.987 80.527 125.71 80.4884 126.371 80.4161C127.031 80.339 127.605 80.1895 128.087 79.9581C128.569 79.7267 128.95 79.4036 129.225 78.9794C129.5 78.5599 129.649 78.0103 129.678 77.3353H126.805C126.115 77.3353 125.479 77.2582 124.896 77.1087C124.317 76.9592 123.806 76.7085 123.372 76.3566C122.938 76.0046 122.601 75.5562 122.355 75.0018C122.109 74.4473 121.988 73.7579 121.988 72.9335C121.988 72.2344 122.104 71.5546 122.326 70.8941C122.552 70.2335 122.88 69.6502 123.314 69.1439C123.748 68.6377 124.274 68.2279 124.891 67.9145C125.508 67.6011 126.212 67.442 127.012 67.442C127.89 67.442 128.632 67.6011 129.235 67.9145C129.837 68.2279 130.334 68.6714 130.72 69.2452C131.105 69.8189 131.38 70.5084 131.549 71.328C131.718 72.1428 131.8 73.0492 131.8 74.0424V75.238H133.569C134.254 75.238 166.204 75.5755 166.204 76.2505C166.204 76.6748 166.122 76.9641 165.958 77.1135C165.795 77.263 133.926 77.3401 133.569 77.3401H131.747L131.751 77.3353ZM124.023 72.7165C124.023 73.5843 124.269 74.2207 124.765 74.6257C125.262 75.0307 125.99 75.2284 126.945 75.2284H129.673V73.5506C129.673 72.3019 129.461 71.3039 129.037 70.5566C128.613 69.8141 127.885 69.438 126.858 69.438C126.371 69.438 125.951 69.5345 125.595 69.7321C125.238 69.9298 124.949 70.1805 124.722 70.4987C124.495 70.8169 124.322 71.1641 124.201 71.5498C124.081 71.9355 124.023 72.3212 124.023 72.7117V72.7165Z" fill="#11172F"/>
<path d="M133.603 77.3353C132.928 77.3353 132.59 76.9978 132.59 76.3228C132.59 75.8986 132.672 75.6093 132.831 75.4598C132.99 75.3104 133.246 75.2332 133.603 75.2332H168.099C167.921 74.8764 167.766 74.4859 167.627 74.0568C167.487 73.6277 167.419 73.1311 167.419 72.5719C167.419 71.9065 167.53 71.2557 167.747 70.6096C167.964 69.9635 168.287 69.3995 168.711 68.9029C169.136 68.4063 169.656 68.0013 170.274 67.6879C170.891 67.3745 171.604 67.2154 172.424 67.2154C173.345 67.2154 174.102 67.3842 174.699 67.7265C175.293 68.0688 175.765 68.4979 176.117 69.0234C176.469 69.5489 176.705 70.1226 176.835 70.7542C176.965 71.3858 177.028 72.003 177.028 72.6153V77.3353H133.608H133.603ZM169.136 63.3005C169.136 62.9293 169.271 62.6159 169.536 62.3555C169.801 62.1 170.119 61.9698 170.495 61.9698C170.871 61.9698 171.185 62.1 171.44 62.3555C171.696 62.6111 171.826 62.9293 171.826 63.3005C171.826 63.6718 171.696 64.0044 171.44 64.2648C171.185 64.5251 170.867 64.6553 170.495 64.6553C170.124 64.6553 169.806 64.5251 169.536 64.2648C169.271 64.0044 169.136 63.6814 169.136 63.3005ZM169.401 72.2247C169.401 73.2613 169.705 74.0231 170.312 74.5052C170.92 74.9873 171.662 75.2284 172.54 75.2284H174.974V72.6876C174.974 72.2778 174.936 71.868 174.863 71.4581C174.786 71.0435 174.651 70.6771 174.449 70.3493C174.251 70.0214 173.971 69.7514 173.61 69.5393C173.253 69.3271 172.8 69.2211 172.26 69.2211C171.363 69.2211 170.664 69.5152 170.158 70.1034C169.652 70.6916 169.401 71.4003 169.401 72.2247ZM172.443 63.3005C172.443 62.9293 172.573 62.6159 172.834 62.3555C173.094 62.1 173.412 61.9698 173.783 61.9698C174.155 61.9698 174.463 62.1 174.728 62.3555C174.994 62.6111 175.129 62.9293 175.129 63.3005C175.129 63.6718 174.994 64.0044 174.728 64.2648C174.463 64.5251 174.145 64.6553 173.783 64.6553C173.422 64.6553 173.094 64.5251 172.834 64.2648C172.573 64.0044 172.443 63.6814 172.443 63.3005Z" fill="#11172F"/>
</g>
<rect x="193.395" y="1.75987" width="87.1429" height="87.1429" fill="#5064BA"/>
<rect x="193.395" y="1.75987" width="87.1429" height="87.1429" stroke="#C59714" stroke-width="1.80607"/>
<g clip-path="url(#clip1_1_17735)">
<path d="M265.493 77.5519C264.808 82.4256 275.586 79.3942 274.64 84.3971L274.249 85.6965C270.568 84.5107 269.344 85.9573 266.56 86.0472L261.043 85.7358C267.473 84.985 270.997 82.9764 273.976 84.0734C272.637 81.0577 262.975 83.8981 265.492 77.553L265.493 77.5519Z" fill="white"/>
<path d="M262.683 83.0337C263.345 71.1956 241.547 78.8704 244.081 68.0799C245.564 75.7569 258.296 68.0799 258.421 75.0195C257.52 72.8356 254.39 73.084 251.184 73.4156C256.134 74.5126 264.238 74.4137 262.682 83.0326L262.683 83.0337Z" fill="white"/>
<path d="M229.501 86.5294C233.051 78.1016 210.689 76.7438 214.441 67.4617C214.603 73.9315 227.443 69.9289 226.082 78.1488C225.82 74.2653 221.404 74.2417 217.576 72.7973C223.266 77.2439 233.528 79.7213 229.501 86.5294Z" fill="white"/>
<path d="M260.427 83.0955C260.202 87.4837 254.033 86.5002 254.972 81.7198C252.691 81.4129 252.161 83.4148 250.582 84.9367C250.582 84.9367 248.844 86.6148 248.131 84.7108L247.571 82.619C245.716 78.2095 241.568 77.2518 238.684 75.6602C236.542 74.4789 235.616 72.7176 236.068 68.5137C235.912 77.5879 246.659 73.447 248.409 83.453C249.434 85.0007 250.893 83.408 251.617 82.3762C250.843 82.3065 250.149 82.0896 249.957 80.97C249.922 80.77 249.927 80.5632 249.965 80.3631L250.168 79.2672C250.224 78.9682 250.351 78.6838 250.55 78.4545C251.91 76.8865 253.543 78.504 253.879 80.3013C254.001 81.6343 253.889 83.1652 253.671 84.7894C254.295 80.3181 251.796 78.087 250.267 80.0427C251.936 82.2098 253.561 79.5291 255.13 80.0765C255.241 80.1158 255.315 80.2226 255.305 80.3406L255.184 81.7096C255.454 85.012 259.462 85.1165 260.245 82.873C260.226 82.3964 260.105 81.9648 259.864 81.586C259.488 80.5497 258.386 80.1282 256.892 80.0382C257.989 81.2185 260.179 79.5414 260.61 80.2158C260.652 80.2821 260.665 80.3642 260.657 80.444L260.694 81.9255C259.916 81.0217 259.17 81.7771 258.268 81.9356C257.312 82.103 256.183 81.7827 256.268 80.1012L256.576 78.4208C258.612 79.0817 260.965 79.3661 260.429 83.0944L260.427 83.0955Z" fill="white"/>
<path d="M256.855 68.0799C255.803 73.7528 232.015 73.4504 230.895 83.6553C230.627 87.9322 235.182 86.0787 236.429 83.7834C236.298 84.7299 236.381 85.2964 236.595 85.6302C236.718 85.8224 236.98 85.855 237.149 85.701C238.04 84.8928 238.116 83.3057 238.765 82.6763C238.534 85.2559 240.066 85.6617 241.408 86.3035L241.695 84.1195L243.992 85.6021L244.19 84.9895C245.942 86.9824 247.279 82.5054 249.081 81.7872L249.249 80.2945C247.882 80.562 245.953 85.3042 244.625 83.7317C244.482 83.562 244.423 83.3372 244.447 83.1158C244.765 80.1731 242.535 80.6508 241.647 78.2983C241.146 80.7048 242 80.4609 244.101 82.7819C244.168 83.199 244.173 83.6272 244.101 84.0712C242.394 82.7819 241.034 82.6628 240.953 80.8812C240.196 83.3552 241.482 83.5856 241.427 84.7175C240.097 84.1049 238.59 83.6935 239.048 81.0386C237.991 81.6546 238.039 84.0341 237.038 84.3488C236.77 84.3488 236.709 84.0622 236.711 83.6868L236.796 82.0468C233.75 86.2518 231.251 84.6242 231.137 83.5946C234.61 74.4598 257.895 75.8457 256.857 68.0788L256.855 68.0799Z" fill="white"/>
<path d="M236.531 76.1143L236.765 74.9431C236.784 74.8475 236.699 74.7632 236.604 74.7846C235.153 75.1139 234.345 76.7123 233.059 77.4721C231.853 78.1847 230.438 78.1353 229.813 77.0472C229.443 76.4021 229.493 75.6018 229.885 74.9689C230.304 74.2934 230.894 73.8876 232.015 73.4515C230.852 73.809 229.927 74.1012 229.221 76.0885C228.3 78.8524 230.771 80.0978 232.777 78.9007C234.032 78.1521 234.971 76.3155 236.405 76.2211C236.467 76.2166 236.52 76.1739 236.532 76.1132L236.531 76.1143Z" fill="white"/>
<path d="M218.644 86.6789C223.504 78.9142 207.71 77.906 213.471 70.2605C210.575 73.4212 211.104 75.6433 212.67 77.5598C214.443 79.7314 218.718 81.7861 219.066 84.514C218.263 83.8003 217.204 83.7688 216.38 84.2623C217.634 81.9738 217.973 79.9843 217.746 78.6478C219.221 80.0225 220.439 81.7456 219.9 83.7756C219.289 85.9326 219.962 87.0678 221.939 83.48C221.245 85.6358 222.701 85.8718 223.942 86.5305C224.084 86.6058 224.26 86.5429 224.32 86.3945L224.936 84.8726L227.236 86.0731C227.449 86.1843 227.71 86.082 227.791 85.8572L228.212 84.6984C228.244 84.6051 228.271 84.4702 228.294 84.3162C228.409 83.5586 228.169 82.7909 227.645 82.2312C227.059 81.6073 226.216 80.7598 225.399 80.127C225.297 80.0483 225.149 80.0888 225.103 80.2091L224.715 81.2038C224.678 81.2983 224.709 81.4039 224.788 81.4657C225.331 81.8805 227.345 83.4766 227.773 84.6849C226.344 83.8576 224.613 83.6699 224.341 81.9356C224.334 81.8861 224.266 81.876 224.244 81.921C223.243 83.8644 224.039 83.9498 224.344 85.0457C223.1 84.4253 221.952 84.2814 222.51 82.1536C222.528 82.0873 222.447 82.0356 222.396 82.0828C221.87 82.5616 221.457 83.7014 221.021 84.133C220.591 84.5579 220.258 84.6399 220.211 83.9869C220.199 83.8284 220.224 83.6688 220.269 83.5159C222.476 76.0075 209.331 74.2912 211.362 69.0195C207.634 74.8723 218.334 75.7827 217.479 81.0004C217.405 81.4534 217.242 81.8872 217.02 82.2908L215.945 84.2477C215.694 84.7051 215.472 85.1783 215.283 85.6639L214.886 86.6823C216.559 84.9906 218.233 85.0738 218.646 86.6823L218.644 86.6789Z" fill="white"/>
<path d="M209.353 72.2005C209.216 74.9274 212.413 74.6688 211.43 77.3339L210.968 78.74C209.648 78.1072 208.023 77.7498 208.602 75.3927C207.321 76.8348 204.99 77.1585 205.65 74.3552C205.374 74.4047 205.078 74.7059 204.765 75.2387C204.336 79.1334 216.341 79.374 214.57 84.8546L214.114 86.2878C212.194 84.0611 209.554 85.0828 206.903 82.4268L205.333 78.7681C209.168 83.7396 210.338 81.9434 214.237 84.6186C212.549 79.8865 202.729 80.5744 204.494 75.3354C204.805 73.9663 205.387 73.166 206.219 72.8367L205.978 74.1698C206.215 75.9873 208.581 74.6531 209.214 73.7719C208.568 75.3556 209.11 76.5291 211.095 77.2057C210.329 75.4748 207.987 75.2162 209.353 72.1994V72.2005Z" fill="white"/>
<path d="M203.329 79.1739C200.868 83.1102 208.855 81.6208 207.142 85.1064C207.114 85.1626 207.074 85.2143 207.029 85.2593L205.98 86.3068C205.593 84.8333 200.913 87.749 196.541 84.541C201.68 85.982 203.047 84.2274 206.215 84.7332C205.994 83.6216 204.239 83.3619 202.834 82.6201C201.59 81.9625 201.263 80.6823 203.328 79.175L203.329 79.1739Z" fill="white"/>
<path d="M201.104 82.1963C201.919 78.9277 197.687 76.4639 199.958 74.4867C202.167 73.4774 202.857 73.6696 203.868 72.6175C206.096 70.3257 205.89 66.5681 209.98 66.5153C204.277 63.7187 204.636 73.4358 198.925 71.9588C200.359 69.8423 200.747 66.9952 204.048 66.6344C205.038 67.9428 203.475 70.0896 200.632 69.685C198.977 69.3421 197.531 64.8416 202.789 64.8394L204.018 65.0484C204.31 62.8184 200.458 63.1893 198.428 59.4666C197.276 57.3546 197.652 56.7813 196.827 53.8319C196.477 55.4336 196.493 57.0488 196.827 58.6775C198.817 62.7824 202.416 62.3283 202.587 64.3976C195.977 63.5524 196.943 69.5254 200.358 69.8412C202.757 70.5437 204.307 70.1919 205.297 69.1443C206.233 67.7921 205.736 66.8176 203.975 66.3804C199.92 65.2867 198.914 69.7322 197.325 71.6868C198.781 72.4444 200.38 72.6186 202.045 72.5164C200.747 73.7101 198.832 73.1863 198.037 74.7397C197.411 77.426 200.389 78.6647 199.67 81.7647L201.104 82.1941V82.1963Z" fill="white"/>
<path d="M206.412 64.8124L207.869 65.1159C207.856 63.5422 203.26 60.576 204.806 59.5172C205.041 59.3564 205.334 59.3025 205.616 59.3429L206.492 59.4677C206.624 59.4868 206.717 59.3474 206.654 59.2305C206.147 58.2999 204.396 57.5591 203.513 56.3407C202.867 55.4471 203.026 54.4265 204.315 54.0241L205.434 54.141C205.625 54.1612 205.772 53.9724 205.703 53.7926C205.19 52.455 204.59 50.9499 205.195 50.1092C205.705 51.567 203.44 52.6517 201.674 52.4741C200.104 51.7783 198.18 49.8316 197.491 47.2733C196.991 45.4176 196.406 42.594 196.238 38.85C195.835 40.2471 195.783 42.3985 195.886 44.8848C195.9 45.2332 195.933 45.5805 195.998 45.9234C196.66 49.4337 198.855 52.2111 201.835 52.6978C204.407 53.3328 206.104 52.5415 206.915 50.3059C206.985 50.1092 206.864 49.8945 206.659 49.8495L205.736 49.6472C205.434 49.5809 205.126 49.5506 204.817 49.5742C202.081 49.7832 204.521 53.5059 204.171 53.7206C201.483 53.4644 201.187 54.8312 202.167 56.2081C202.857 57.1781 205.222 58.4336 205.23 59.0597C202.608 58.5269 202.751 59.8701 203.699 61.1414C204.655 62.4227 206.394 63.6996 206.411 64.8124H206.412Z" fill="white"/>
<path d="M209.417 42.5862C205.311 40.7653 204.611 43.6787 203.252 45.6772C202.976 44.6971 202.516 43.6911 203.211 42.8481C203.397 42.621 203.655 42.467 203.932 42.3636C208.396 40.6911 207.243 27.6908 212.248 26.8545C213.095 27.8358 215.045 31.7327 209.709 34.3393C210.405 34.3202 211.063 34.2325 211.679 34.0684C213.056 33.6997 214.19 32.6881 214.585 31.3213C215.269 28.9542 213.493 26.959 212.077 26.4802C206.759 25.0774 206.607 37.4539 204.026 40.7473C203.784 41.0564 203.463 41.2969 203.1 41.4498C202.204 41.8286 201.807 42.0792 201.619 42.7862C201.221 44.2756 203.229 47.3486 200.548 49.9822C200.465 50.0631 200.489 50.2025 200.595 50.2508L201.887 50.8454C201.98 50.8881 202.091 50.8724 202.165 50.8004C204.864 48.1624 204.184 42.1748 209.42 42.5862H209.417Z" fill="white"/>
<path d="M199.13 43.0695L200.622 43.4696C201.052 41.044 198.482 40.1077 197.507 38.089C196.488 35.9792 195.994 34.2977 195.813 32.6488C195.813 33.7492 195.736 35.3442 195.934 36.6593C195.998 37.0841 196.312 38.1104 196.713 38.651C198.045 40.4505 199.922 41.6274 199.13 43.0695Z" fill="white"/>
<path d="M199.824 38.8072L201.348 39.24C202.329 39.1534 200.684 37.1999 201.829 36.3254C201.689 37.3764 201.247 37.98 200.305 37.8473C198.271 36.3749 196.951 32.4892 195.827 27.9358L196.101 32.7207C196.112 32.923 196.153 33.1231 196.225 33.3131C197.133 35.7252 198.302 37.7001 200.322 38.2475C202.708 38.8691 203.054 37.6765 203.314 36.4086C203.337 36.2985 203.271 36.1883 203.163 36.1557L202.449 35.9399C202.033 35.814 201.596 35.7612 201.164 35.8028C198.685 36.0456 201.33 38.5453 199.824 38.8072Z" fill="white"/>
<path d="M199.356 33.0602L200.896 33.5087C201.992 33.4839 200.62 31.3224 201.602 30.3052C201.522 31.2573 201.467 32.2273 200.158 32.2587C197.981 30.2692 196.777 26.2768 196.261 20.8714V26.714C196.261 27.095 196.318 27.4738 196.435 27.8358C197.14 30.0119 198.082 31.8867 199.918 32.6263L201.459 32.9466C203.075 32.7533 203.492 30.6379 202.213 30.0152L201.219 29.7915C198.57 29.3599 200.897 33.1906 199.358 33.059L199.356 33.0602Z" fill="white"/>
<path d="M199.71 28.2382L200.991 28.6552C201.057 28.6765 201.128 28.6383 201.143 28.572C201.92 25.3697 198.762 23.7163 197.571 21.1277C196.759 19.363 196.739 17.7006 196.926 13.7721C196.114 15.5031 195.801 18.3469 195.948 19.5956C196.37 23.2206 201.098 26.243 199.657 28.0516C199.606 28.1168 199.633 28.2123 199.711 28.2382H199.71Z" fill="white"/>
<path d="M200.684 22.8407L201.664 23.3476C201.769 23.4027 201.9 23.3476 201.935 23.2329C202.847 20.2768 199.992 18.5076 198.54 13.9407C198.333 13.2899 197.857 10.816 197.652 7.56984C197.106 10.1483 197.204 11.4398 197.367 13.445C197.597 16.2618 201.619 19.8227 200.592 22.6102C200.559 22.699 200.6 22.7979 200.684 22.8418V22.8407Z" fill="white"/>
<path d="M202.857 20.5994L204.3 21.176C204.569 18.9336 201.948 17.0037 201.007 14.342C200.216 12.103 200.489 10.8801 201.927 10.5631C202.811 10.3686 203.707 10.6463 204.452 11.1588C205.944 12.1839 206.93 13.6496 206.93 13.6496C206.93 13.6496 205.732 11.6714 204.193 10.753C203.436 10.3012 202.589 10.0067 201.711 9.92801C198.83 9.66949 198.788 11.9422 199.787 14.2723C200.908 16.889 203.236 18.4727 202.856 20.6005L202.857 20.5994Z" fill="white"/>
<path d="M197.795 26.4409C201.783 28.8474 206.933 13.6485 214.803 20.3723C208.576 16.5529 209.145 28.9025 203.564 25.0033C205.847 25.6215 207.119 23.1093 208.809 20.3701C204.805 22.8946 201.422 29.2565 197.794 26.4409H197.795Z" fill="white"/>
<path d="M250.662 77.4485L250.808 76.0626L249.153 75.7232L249.019 77.1686L250.662 77.4485Z" fill="white"/>
<path d="M255.861 78.3837L256.006 76.9989L254.352 76.6583L254.218 78.1049L255.861 78.3837Z" fill="white"/>
<path d="M248.583 79.8449L249.303 78.6523L247.948 77.6441L247.214 78.8974L248.583 79.8449Z" fill="white"/>
<path d="M237.493 81.8884L238.237 80.7104L236.904 79.6752L236.143 80.9127L237.493 81.8884Z" fill="white"/>
<path d="M232.63 76.6685L233.374 75.4905L232.04 74.4553L231.28 75.6928L232.63 76.6685Z" fill="white"/>
<path d="M235.461 82.5144L236.206 81.3365L234.872 80.3013L234.112 81.5388L235.461 82.5144Z" fill="white"/>
<path d="M210.325 84.4786L209.297 85.5047L210.473 86.6794L211.501 85.6533L210.325 84.4786Z" fill="white"/>
<path d="M208.175 84.3351L207.147 85.3612L208.324 86.5359L209.352 85.5098L208.175 84.3351Z" fill="white"/>
<path d="M197.903 79.5114L196.716 80.6964L197.893 81.8711L199.08 80.6861L197.903 79.5114Z" fill="white"/>
<path d="M200.608 55.8582L199.422 57.0432L200.598 58.2179L201.785 57.0329L200.608 55.8582Z" fill="white"/>
<path d="M196.704 50.6146L196.087 51.2306L196.698 51.841L197.315 51.225L196.704 50.6146Z" fill="white"/>
<path d="M196.712 51.9352L196.095 52.5512L196.706 53.1616L197.323 52.5456L196.712 51.9352Z" fill="white"/>
<path d="M200.851 58.1775L199.664 59.3626L200.841 60.5373L202.028 59.3522L200.851 58.1775Z" fill="white"/>
<path d="M209.343 62.4706L208.156 63.6557L209.332 64.8304L210.519 63.6453L209.343 62.4706Z" fill="white"/>
<path d="M199.517 43.9841L198.918 45.3063L200.434 45.9907L201.033 44.6685L199.517 43.9841Z" fill="white"/>
<path d="M200.368 46.209L199.769 47.5313L201.285 48.2157L201.884 46.8935L200.368 46.209Z" fill="white"/>
<path d="M203.27 27.5553L202.28 28.618L203.498 29.7493L204.488 28.6866L203.27 27.5553Z" fill="white"/>
<path d="M203.957 12.6942L202.91 13.7012L204.065 14.8974L205.112 13.8905L203.957 12.6942Z" fill="white"/>
<path d="M203.855 14.8388L202.808 15.8458L203.963 17.042L205.009 16.0351L203.855 14.8388Z" fill="white"/>
<path d="M198.603 45.4272L198.004 46.7494L199.52 47.4338L200.119 46.1116L198.603 45.4272Z" fill="white"/>
<path d="M213.692 18.2064C214.549 19.2281 215.446 19.1359 215.73 18.5559C213.644 16.363 208.611 18.6222 207.601 14.5342C207.376 13.5574 207.399 12.5841 207.939 11.6208L208.273 12.774C208.827 14.5027 210.826 15.1277 213.016 15.6065C212.814 15.3941 212.671 14.9872 212.563 14.4589C212.563 14.4589 213.17 15.593 214.299 15.6357L214.462 16.6091C211.831 16.0629 208.884 16.0145 208.057 12.6447C207.841 12.9696 207.734 13.6103 207.704 14.4735C209.693 18.022 214.834 15.149 215.901 18.4772C216.383 19.925 214.46 20.7612 213.69 18.2064H213.692Z" fill="white"/>
<path d="M207.977 44.9961L208.886 45.3333C207.674 46.5596 206.316 47.2935 204.564 46.7135C205.172 47.479 205.821 48.0702 206.56 48.4884C209.675 50.2812 209.982 46.2606 212.572 46.21C212.726 47.2182 212.01 48.1601 210.444 47.8971L212.167 48.2804C213.227 48.0725 214.18 46.7518 212.737 46.0459C209.888 44.8443 209.041 49.3134 206.677 48.3793C206.143 47.9826 205.673 47.5835 205.459 47.18C208.04 47.8319 209.469 45.9537 211.009 44.3216L210.054 43.8327C209.434 44.7094 208.75 45.1557 207.978 44.9972L207.977 44.9961Z" fill="white"/>
<path d="M207.235 54.4591L208.054 54.7626C206.963 55.8675 205.739 56.5273 204.163 56.0046C204.711 56.6936 205.296 57.2264 205.961 57.6018C208.765 59.2159 209.042 55.5966 211.373 55.5505C211.511 56.4576 210.867 57.3062 209.457 57.0691L211.007 57.4141C211.962 57.2275 212.82 56.0383 211.52 55.4022C208.955 54.3197 208.192 58.3437 206.065 57.5029C205.584 57.1455 205.16 56.7869 204.968 56.4228C207.293 57.0095 208.579 55.319 209.966 53.8499L209.105 53.4093C208.547 54.1983 207.931 54.6007 207.235 54.458V54.4591Z" fill="white"/>
<path d="M237.989 72.2297L238.52 71.0416C239.692 72.0589 240.541 73.3605 240.118 74.9644C243.348 71.1911 240.456 70.2987 240.092 69.0004C241.47 68.1507 243.103 69.4545 242.523 71.462L242.789 70.2886C243.025 69.2455 242.351 68.1867 241.293 68.0192C240.756 67.9338 240.24 68.0979 240.019 68.6318C239.012 70.5257 241.051 70.8112 241.314 72.2511C241.377 72.5973 241.296 72.9536 241.111 73.2537C240.95 73.5145 240.725 73.8112 240.521 73.9348C240.809 72.0207 238.994 70.3672 237.547 69.1668L237.2 70.0312C238.024 70.5381 238.274 71.507 237.991 72.2275L237.989 72.2297Z" fill="white"/>
<path d="M207.017 71.172L207.909 71.3665C207.909 71.3665 207.435 72.2567 206.55 71.9161C205.665 71.5756 205.491 71.5407 205.776 70.9495C206.061 70.3582 207.47 70.4695 207.47 70.4695C207.47 70.4695 208.445 70.5808 208.821 69.5096C209.197 68.4384 209.862 66.5018 212.894 67.3785C212.894 67.3785 210.666 66.7558 209.676 69.8187C209.308 70.9585 208.053 70.7505 208.053 70.7505C208.053 70.7505 206.335 70.6325 206.575 71.6542L207.017 71.172Z" fill="white"/>
<path d="M201.865 78.0296C200.98 77.6891 200.022 77.0113 200.308 76.4201C200.559 75.8996 201.152 76.3616 201.291 76.4808C201.318 76.5032 201.348 76.5212 201.382 76.5302C201.534 76.5707 201.923 76.5707 202.105 75.5939C202.346 74.3002 203.003 74.1743 204.274 74.6104C204.274 74.6104 203.317 74.2294 202.998 75.8446C202.709 77.3024 201.682 76.9202 201.389 76.7775C201.321 76.7449 201.24 76.7618 201.193 76.8202C201.079 76.9573 201.029 77.2912 201.866 78.0308L201.865 78.0296Z" fill="white"/>
<path d="M265.799 83.6148C264.978 84.088 263.847 84.4084 263.566 83.8149C263.318 83.2934 264.05 83.1225 264.23 83.0888C264.265 83.0821 264.298 83.0697 264.327 83.0483C264.454 82.9562 264.699 82.6538 264.05 81.8985C263.192 80.8992 263.507 80.3091 264.645 79.5943C264.645 79.5943 263.746 80.0989 264.806 81.3612C265.761 82.5009 264.819 83.0596 264.523 83.1978C264.455 83.2293 264.418 83.3035 264.433 83.3765C264.468 83.5508 264.697 83.8003 265.799 83.6126V83.6148Z" fill="white"/>
<path d="M278.687 86.1956C277.867 86.6688 276.736 86.9891 276.455 86.3956C276.207 85.8741 276.939 85.7032 277.119 85.6695C277.154 85.6628 277.187 85.6504 277.216 85.6291C277.343 85.5369 277.587 85.2345 276.939 84.4792C276.081 83.4799 276.396 82.8898 277.533 82.175C277.533 82.175 276.635 82.6797 277.694 83.9419C278.65 85.0817 277.708 85.6403 277.412 85.7786C277.344 85.81 277.307 85.8842 277.322 85.9573C277.357 86.1315 277.586 86.381 278.687 86.1933V86.1956Z" fill="white"/>
<path d="M200.185 35.7274C199.705 35.0778 199.375 34.1651 199.965 33.902C200.484 33.6705 200.66 34.264 200.695 34.4101C200.702 34.4382 200.716 34.4652 200.736 34.4877C200.829 34.5877 201.133 34.772 201.881 34.1988C202.871 33.4401 203.463 33.6683 204.187 34.5663C204.187 34.5663 203.674 33.8548 202.425 34.7923C201.295 35.6386 200.729 34.8934 200.588 34.6574C200.556 34.6034 200.481 34.5765 200.408 34.5922C200.235 34.6304 199.988 34.8316 200.185 35.7286V35.7274Z" fill="white"/>
<path d="M201.665 82.4605C201.653 82.4402 201.629 82.4335 201.608 82.4459C201.483 82.5234 201.065 82.7696 201.071 82.7831C201.096 82.8269 201.121 82.8707 201.147 82.9157C201.024 82.9831 200.896 83.045 200.791 83.1338C200.072 83.7475 200.782 84.7568 200.782 84.7568C200.782 84.7568 201.168 84.5028 201.311 84.4095C201.346 84.3859 201.38 84.3601 201.411 84.3308C202.267 83.526 201.98 83.0214 201.666 82.4616L201.665 82.4605ZM201.176 82.9663C201.369 83.3102 201.532 83.6722 201.28 84.1442C201.113 83.7688 200.844 83.3968 201.176 82.9663Z" fill="white"/>
<path d="M234.252 71.3597C234.232 71.3485 234.207 71.3552 234.197 71.3755C234.131 71.507 233.9 71.9341 233.912 71.9409C233.956 71.9656 234 71.9903 234.045 72.015C233.975 72.1364 233.897 72.2556 233.854 72.386C233.557 73.2829 234.688 73.7797 234.688 73.7797C234.688 73.7797 234.886 73.3639 234.96 73.2087C234.978 73.1705 234.994 73.1312 235.006 73.0907C235.321 71.96 234.813 71.6767 234.253 71.3597H234.252ZM234.097 72.0454C234.44 72.2398 234.768 72.4658 234.796 72.9985C234.458 72.7636 234.035 72.5849 234.097 72.0454Z" fill="white"/>
<path d="M196.934 83.7722C196.448 82.3323 198.638 82.2548 199.642 83.3136C199.731 83.408 198.964 82.3234 197.805 82.1862C196.651 82.0491 196.35 82.746 196.556 83.3574C196.58 83.4294 196.831 83.6643 196.878 83.7137C196.891 83.7284 196.928 83.7553 196.935 83.7733L196.934 83.7722Z" fill="white"/>
<path d="M198.459 85.9258C198.459 85.9258 197.774 85.4324 196.46 86.3035C196.697 85.0603 196.157 85.0828 195.864 85.0468C195.778 85.0356 195.667 85.0435 195.585 85.0154C196.21 85.2334 195.9 86.1248 195.837 86.5912C195.87 86.5957 196.396 86.6609 196.396 86.6609C197.281 86.0056 198.459 85.9269 198.461 85.9269L198.459 85.9258Z" fill="white"/>
<path d="M224.673 70.5077C224.598 73.2852 229.352 73.3762 228.449 77.4935C228.382 74.09 223.731 74.027 224.673 70.5077Z" fill="white"/>
<path d="M212.035 23.0036C209.262 23.2397 209.702 27.9662 205.503 27.5289C208.882 27.0838 208.428 22.4619 212.035 23.0036Z" fill="white"/>
<path d="M218.529 71.0563C218.792 70.2166 218.435 69.5984 217.573 69.1612C217.475 69.1117 217.439 68.9903 217.494 68.8959L217.764 68.4328C217.892 68.2159 218.143 68.099 218.388 68.1507C219.429 68.3699 222.252 68.9735 224.457 69.1185C227.808 69.3399 235.814 66.8884 234.724 69.5433C234.284 71.7183 228.663 71.5002 227.107 71.371C228.132 71.0349 233.578 70.6966 234.368 69.658C233.805 67.7404 228.169 71.4103 219.092 69.2814C219.244 69.9558 218.946 70.5212 218.529 71.0563Z" fill="white"/>
<path d="M211.42 50.1227C212.271 50.3531 212.875 49.9709 213.279 49.0942C213.325 48.9942 213.444 48.9537 213.541 49.0043L214.016 49.2561C214.238 49.3741 214.365 49.6202 214.324 49.8675C214.146 50.9151 213.654 53.7543 213.596 55.9608C213.509 59.3115 215.955 68.1833 213.254 67.202C211.944 66.7108 211.728 65.3733 211.796 63.8165C212.173 64.827 212.594 65.8498 213.219 66.93C215.115 66.2927 211.451 59.7543 213.219 50.6139C212.551 50.7926 211.973 50.5183 211.42 50.1227Z" fill="white"/>
<path d="M211.466 34.7934C212.317 35.0238 212.921 34.6417 213.325 33.7649C213.371 33.6649 213.491 33.6244 213.587 33.675L214.063 33.9268C214.284 34.0448 214.412 34.291 214.37 34.5382C214.192 35.5858 213.7 38.4251 213.643 40.6315C213.555 43.9822 215.669 46.1965 212.969 45.2152C211.659 44.724 211.86 42.7323 211.929 41.1755C212.306 42.186 212.721 43.8799 213.345 44.9612C214.151 43.4573 211.841 42.5412 213.267 35.2846C212.598 35.4633 212.02 35.189 211.467 34.7934H211.466Z" fill="white"/>
<path d="M222.623 78.5883C222.425 79.1244 222.251 79.6336 222.198 80.018C222.191 80.0675 222.202 80.1192 222.229 80.1619C222.435 80.4968 222.798 80.3361 223.239 79.9247L223.016 80.7677C222.995 80.8475 222.953 80.9217 222.896 80.9813C222.153 81.7591 221.736 81.1836 221.973 80.3406C222.115 79.773 222.346 79.1851 222.625 78.5883H222.623Z" fill="white"/>
<path d="M243.148 71.3069C242.949 71.8431 242.775 72.3522 242.722 72.7367C242.715 72.7861 242.727 72.8378 242.754 72.8805C242.96 73.2155 243.322 73.0548 243.763 72.6434L243.541 73.4864C243.519 73.5662 243.478 73.6404 243.42 73.6999C242.677 74.4778 242.26 73.9023 242.497 73.0593C242.639 72.4916 242.871 71.9038 243.149 71.3069H243.148Z" fill="white"/>
<path d="M247.547 83.7351C247.349 84.2713 247.175 84.7804 247.122 85.1649C247.115 85.2143 247.126 85.266 247.153 85.3087C247.359 85.6437 247.722 85.4829 248.163 85.0716L247.94 85.9146C247.919 85.9944 247.877 86.0686 247.82 86.1281C247.077 86.9059 246.66 86.3305 246.897 85.4874C247.039 84.9198 247.271 84.332 247.549 83.7351H247.547Z" fill="white"/>
<path d="M203.945 77.1563C203.446 77.4373 202.983 77.7138 202.694 77.9723C202.657 78.006 202.632 78.0521 202.624 78.1027C202.565 78.4916 202.945 78.6029 203.548 78.5736L202.832 79.0727C202.765 79.1199 202.685 79.1491 202.602 79.1581C201.532 79.2717 201.587 78.5635 202.313 78.0735C202.789 77.7318 203.347 77.4339 203.945 77.1574V77.1563Z" fill="white"/>
<path d="M200.022 63.3837C199.327 63.0859 198.664 62.8217 198.16 62.7262C198.095 62.7138 198.026 62.7262 197.967 62.7577C197.511 63.0072 197.474 63.4242 197.989 64.0323L197.114 63.7524C197.009 63.7187 196.915 63.6591 196.84 63.5793C195.862 62.5475 196.651 62.0383 197.75 62.4059C198.491 62.6307 199.252 62.9769 200.022 63.3826V63.3837Z" fill="white"/>
<path d="M210.651 61.1638C209.957 60.866 209.293 60.6018 208.789 60.5063C208.724 60.4939 208.655 60.5063 208.596 60.5378C208.141 60.7873 208.103 61.2043 208.618 61.8124L207.743 61.5325C207.638 61.4988 207.544 61.4392 207.47 61.3594C206.491 60.3276 207.28 59.8184 208.379 60.1859C209.12 60.4108 209.881 60.7569 210.651 61.1627V61.1638Z" fill="white"/>
<path d="M262.406 81.3848C262.016 82.0311 261.662 82.6504 261.498 83.136C261.476 83.199 261.479 83.2686 261.502 83.3305C261.687 83.816 262.096 83.9093 262.77 83.4844L262.373 84.3117C262.325 84.4106 262.253 84.4949 262.164 84.559C261.006 85.3852 260.61 84.5343 261.125 83.4979C261.451 82.7954 261.899 82.0907 262.406 81.3848Z" fill="white"/>
<path d="M211.684 51.3928C210.989 51.0949 210.326 50.8308 209.821 50.7353C209.756 50.7229 209.687 50.7353 209.629 50.7667C209.173 51.0163 209.136 51.4333 209.65 52.0414L208.776 51.7615C208.671 51.7278 208.576 51.6682 208.502 51.5884C207.524 50.5565 208.313 50.0474 209.412 50.4149C210.152 50.6397 210.913 50.9859 211.684 51.3917V51.3928Z" fill="white"/>
<path d="M207.588 28.7743C207.028 28.708 206.499 28.6585 206.117 28.6968C206.068 28.7013 206.022 28.7249 205.987 28.7597C205.713 29.034 205.775 29.3397 206.272 29.6668L205.587 29.651C205.506 29.6488 205.425 29.6263 205.355 29.5858C204.438 29.0542 204.895 28.5237 205.757 28.5551C206.335 28.5596 206.952 28.6473 207.588 28.7743Z" fill="white"/>
<path d="M239.043 78.0701L238.656 78.8333C238.775 78.985 240.216 80.0225 239.65 81.5433C241.243 79.3897 239.043 78.0701 239.043 78.0701Z" fill="white"/>
<path d="M196.869 75.9457C197.443 76.1638 197.813 76.7213 197.8 77.3339C197.779 78.2353 197.685 78.9232 197.463 79.2436C197.375 79.3694 197.21 79.4155 197.068 79.3582L196.323 79.057C196.227 79.0188 196.155 78.9378 196.127 78.8378L196.034 78.5051C195.977 78.2994 195.94 78.0892 195.924 77.8768C195.861 77.0315 195.916 75.9255 196.121 75.006C196.127 74.9791 196.166 74.9802 196.173 75.006L196.818 78.0633C196.978 77.2777 197.019 76.5572 196.87 75.9435L196.869 75.9457Z" fill="white"/>
<path d="M196.845 68.19C197.289 68.371 197.567 68.8116 197.544 69.2893C197.511 69.9907 197.425 70.5257 197.246 70.7708C197.175 70.8674 197.045 70.9 196.935 70.8528L196.36 70.6044C196.285 70.5729 196.231 70.5077 196.211 70.4302L196.146 70.1694C196.105 70.0087 196.081 69.8434 196.072 69.6782C196.038 69.0184 196.103 68.1574 196.279 67.4448C196.284 67.4235 196.315 67.4257 196.319 67.4471L196.764 69.8423C196.902 69.2331 196.95 68.6722 196.844 68.1912L196.845 68.19Z" fill="white"/>
<path d="M255.386 85.5065C253.26 85.7426 251.604 86.1787 251.397 85.0165C251.694 86.6834 251.214 86.8565 255.467 86.3833C255.467 86.3833 255.398 85.5054 255.386 85.5065Z" fill="white"/>
<path d="M257.088 69.0162C258.874 68.8341 260.25 68.4767 260.489 69.4748C260.146 68.0439 260.542 67.8989 256.971 68.2642C256.971 68.2642 257.077 69.0173 257.088 69.0162Z" fill="white"/>
<path d="M200.562 55.6067L199.995 55.2223C199.95 55.192 199.913 55.1515 199.888 55.1032C199.577 54.4917 199.317 53.361 198.605 52.6764C197.662 52.3786 198.883 55.5438 198.614 57.8491C198.016 56.2137 197.616 54.3568 197.519 52.5517C197.501 52.2145 197.878 52.0031 198.159 52.192L198.495 52.4202C200.06 53.5262 200.081 54.5052 200.617 55.5573C200.635 55.5921 200.595 55.627 200.562 55.6056V55.6067Z" fill="white"/>
<path d="M249.22 71.1293C249.397 69.4894 247.326 69.5624 245.521 69.4321C245.42 69.4253 245.358 69.3174 245.4 69.2264L245.659 68.6677C245.684 68.6149 245.738 68.5823 245.796 68.5834L251.986 68.7835C251.693 68.5486 251.569 68.1788 252.282 67.1346C252.16 67.9248 252.302 68.8757 255.416 68.2552L255.102 68.8824C255.008 69.0701 254.852 69.2196 254.658 69.3017C253.397 69.8367 251.417 69.5804 249.644 69.5523C249.862 69.9817 249.769 70.4943 249.219 71.1293H249.22Z" fill="white"/>
<path d="M214.031 20.9489L213.596 21.221C213.48 21.294 213.41 21.421 213.411 21.5582L213.435 25.3618L212.578 22.0954C212.561 22.0314 212.466 22.0404 212.462 22.1067C212.367 23.5477 212.395 24.9111 212.737 26.0744C212.754 26.3745 213.091 26.5431 213.342 26.3779L213.58 26.2228C214.04 25.9204 214.314 25.4034 214.302 24.8526L214.223 21.0512C214.221 20.9534 214.114 20.8961 214.031 20.9478V20.9489Z" fill="white"/>
<path d="M203.849 29.9703L204.63 30.3322C204.717 30.3727 204.788 30.4401 204.828 30.5267C205.471 31.926 205.356 33.7548 205.819 34.2584L205.066 34.056C204.931 34.0201 204.824 33.9167 204.78 33.7829C204.209 32.0205 204.595 30.9437 203.849 29.968V29.9703Z" fill="white"/>
<path d="M209.422 39.0231C209.792 39.3164 210.188 39.3175 210.427 41.1407C209.653 39.412 209.256 37.2831 209.024 34.9811C208.85 36.0107 208.76 37.0976 208.79 38.2655C208.8 38.6285 208.862 38.9905 208.978 39.3344C209.341 40.4033 209.934 41.6757 210.581 42.9964C210.597 43.029 210.626 43.0538 210.661 43.0628L211.319 43.2516C211.411 43.2786 211.497 43.1965 211.479 43.1032C211.085 41.1036 211.553 39.0197 209.422 39.0242V39.0231Z" fill="white"/>
<path d="M212.366 29.85L211.563 29.5038C211.357 29.7174 210.804 32.0935 209.233 32.1407C211.051 33.1557 211.827 30.8402 212.366 29.8511V29.85Z" fill="white"/>
<path d="M200.038 9.56945L200.655 8.95012C200.531 8.68036 198.518 7.29895 199.048 5.82087C197.438 7.14046 199.313 8.70621 200.039 9.56945H200.038Z" fill="white"/>
<path d="M209.084 12.9583C209.77 8.08464 198.992 11.1161 199.938 6.11312L200.328 4.81376C204.01 5.99959 205.234 4.55299 208.018 4.46307L213.534 4.77442C207.105 5.52526 203.581 7.53387 200.602 6.43683C201.941 9.45256 211.603 6.61218 209.085 12.9572L209.084 12.9583Z" fill="white"/>
<path d="M211.894 7.47654C211.232 19.3146 233.031 11.6399 230.497 22.4304C229.014 14.7534 216.282 22.4304 216.157 15.4907C217.057 17.6747 220.187 17.4263 223.394 17.0947C218.443 15.9977 210.339 16.0966 211.895 7.47767L211.894 7.47654Z" fill="white"/>
<path d="M245.077 3.98087C241.528 12.4087 263.889 13.7665 260.138 23.0486C259.976 16.5788 247.135 20.5814 248.497 12.3615C248.759 16.245 253.174 16.2686 257.002 17.7129C251.312 13.2663 241.05 10.789 245.077 3.98087Z" fill="white"/>
<path d="M214.15 7.41472C214.375 3.02658 220.544 4.01009 219.605 8.79051C221.886 9.09737 222.416 7.0955 223.996 5.57359C223.996 5.57359 225.733 3.89544 226.447 5.79952L227.006 7.8913C228.862 12.3008 233.009 13.2585 235.894 14.8501C238.035 16.0314 238.962 17.7927 238.509 21.9965C238.666 12.9224 227.918 17.0632 226.169 7.05729C225.143 5.50952 223.684 7.10225 222.96 8.13409C223.735 8.20378 224.428 8.42071 224.621 9.54023C224.656 9.7403 224.65 9.94712 224.613 10.1472L224.409 11.2431C224.354 11.5421 224.227 11.8265 224.027 12.0558C222.667 13.6238 221.035 12.0063 220.698 10.209C220.577 8.87594 220.688 7.34503 220.907 5.72084C220.283 10.1922 222.781 12.4233 224.31 10.4675C222.641 8.30044 221.017 10.9812 219.447 10.4338C219.336 10.3945 219.263 10.2877 219.273 10.1697L219.393 8.80063C219.123 5.49828 215.115 5.39375 214.333 7.63728C214.352 8.11386 214.472 8.54548 214.713 8.92427C215.089 9.96061 216.191 10.3821 217.685 10.472C216.589 9.29182 214.398 10.9688 213.968 10.2944C213.925 10.2281 213.913 10.1461 213.921 10.0663L213.883 8.58482C214.661 9.48852 215.408 8.73319 216.31 8.5747C217.266 8.40722 218.395 8.72757 218.309 10.4091L218.002 12.0895C215.965 11.4286 213.612 11.1442 214.148 7.41585L214.15 7.41472Z" fill="white"/>
<path d="M217.723 22.4293C218.774 16.7564 242.562 17.0587 243.682 6.85384C243.95 2.57698 239.395 4.43047 238.149 6.7257C238.279 5.77929 238.196 5.21278 237.982 4.87895C237.86 4.68675 237.597 4.65415 237.428 4.80814C236.538 5.6163 236.461 7.20341 235.813 7.83285C236.044 5.25325 234.511 4.84748 233.169 4.20567L232.882 6.38962L230.585 4.90705L230.387 5.51964C228.635 3.52677 227.298 8.0037 225.497 8.72195L225.329 10.2146C226.696 9.94712 228.624 5.20492 229.953 6.77741C230.096 6.94713 230.154 7.17194 230.131 7.39337C229.812 10.336 232.042 9.85832 232.931 12.2109C233.432 9.80437 232.577 10.0483 230.476 7.7272C230.41 7.31019 230.404 6.88194 230.476 6.43796C232.183 7.7272 233.543 7.84634 233.624 9.6279C234.382 7.15395 233.095 6.92353 233.15 5.79165C234.481 6.40424 235.987 6.81562 235.529 9.47054C236.586 8.85458 236.539 6.47505 237.54 6.16033C237.808 6.16033 237.869 6.44695 237.866 6.82237L237.782 8.4623C240.827 4.25737 243.327 5.88494 243.44 6.91454C239.967 16.0494 216.682 14.6635 217.72 22.4304L217.723 22.4293Z" fill="white"/>
<path d="M238.046 14.396L237.812 15.5672C237.793 15.6627 237.879 15.747 237.973 15.7257C239.424 15.3963 240.233 13.798 241.518 13.0382C242.724 12.3255 244.139 12.375 244.764 13.463C245.135 14.1082 245.084 14.9085 244.692 15.5413C244.273 16.2169 243.684 16.6226 242.562 17.0587C243.725 16.7013 244.651 16.4091 245.357 14.4218C246.277 11.6579 243.806 10.4125 241.8 11.6095C240.546 12.3581 239.607 14.1948 238.172 14.2892C238.111 14.2937 238.058 14.3364 238.045 14.3971L238.046 14.396Z" fill="white"/>
<path d="M255.934 3.83137C251.074 11.596 266.867 12.6043 261.106 20.2498C264.003 17.0891 263.474 14.8669 261.908 12.9505C260.134 10.7789 255.86 8.7242 255.512 5.99622C256.314 6.70997 257.374 6.74144 258.198 6.248C256.944 8.53649 256.605 10.526 256.831 11.8624C255.356 10.4878 254.138 8.76466 254.677 6.7347C255.289 4.57772 254.615 3.44247 252.638 7.03031C253.332 4.87446 251.876 4.63842 250.636 3.97974C250.494 3.90444 250.317 3.96738 250.257 4.11575L249.641 5.63766L247.341 4.43722C247.129 4.32594 246.867 4.42823 246.786 4.65303L246.365 5.81188C246.334 5.90518 246.307 6.04006 246.283 6.19405C246.168 6.95163 246.408 7.71933 246.933 8.27909C247.518 8.90292 248.361 9.75042 249.179 10.3832C249.28 10.4619 249.429 10.4215 249.475 10.3012L249.862 9.30644C249.899 9.21202 249.869 9.10636 249.789 9.04454C249.246 8.62978 247.232 7.03368 246.804 5.82537C248.233 6.65264 249.965 6.84035 250.236 8.5747C250.244 8.62416 250.311 8.63428 250.334 8.58932C251.335 6.6459 250.539 6.56048 250.234 5.46456C251.478 6.08502 252.625 6.22889 252.068 8.35665C252.05 8.42296 252.131 8.47467 252.181 8.42746C252.707 7.94863 253.12 6.80888 253.556 6.37726C253.986 5.95238 254.319 5.87033 254.367 6.52338C254.378 6.68187 254.353 6.84148 254.308 6.99434C252.101 14.5027 265.247 16.2191 263.216 21.4907C266.943 15.638 256.243 14.7275 257.098 9.50988C257.172 9.0569 257.336 8.62304 257.557 8.21952L258.632 6.26261C258.884 5.80514 259.105 5.33193 259.294 4.84636L259.692 3.828C258.019 5.51964 256.345 5.43646 255.932 3.828L255.934 3.83137Z" fill="white"/>
<path d="M265.225 18.3098C265.363 15.5829 262.165 15.8414 263.148 13.1764L263.611 11.7703C264.93 12.4031 266.555 12.7605 265.976 15.1176C267.258 13.6755 269.588 13.3518 268.928 16.155C269.204 16.1056 269.5 15.8043 269.813 15.2716C270.242 11.3769 258.237 11.1363 260.008 5.65565L260.464 4.22253C262.385 6.4492 265.025 5.42747 267.675 8.08351L269.246 11.7422C265.41 6.77066 264.24 8.56683 260.342 5.89169C262.029 10.6238 271.85 9.93588 270.085 15.1749C269.774 16.5439 269.192 17.3442 268.36 17.6736L268.601 16.3405C268.363 14.523 265.998 15.8572 265.365 16.7384C266.01 15.1547 265.469 13.9812 263.484 13.3045C264.249 15.0355 266.591 15.294 265.225 18.3109V18.3098Z" fill="white"/>
<path d="M271.249 11.3364C273.71 7.40011 265.722 8.88943 267.435 5.40387C267.464 5.34767 267.503 5.29596 267.548 5.251L268.597 4.20342C268.985 5.677 273.665 2.76132 278.036 5.96924C272.897 4.52826 271.53 6.28284 268.362 5.77704C268.584 6.88869 270.338 7.14833 271.743 7.89018C272.987 8.54773 273.315 9.82798 271.25 11.3353L271.249 11.3364Z" fill="white"/>
<path d="M273.475 8.31281C272.659 11.5814 276.892 14.0453 274.621 16.0224C272.412 17.0318 271.722 16.8396 270.711 17.8916C268.483 20.1835 268.689 23.9411 264.598 23.9939C270.302 26.7904 269.943 17.0734 275.653 18.5503C274.22 20.6668 273.831 23.5139 270.53 23.8747C269.541 22.5664 271.104 20.4195 273.946 20.8242C275.601 21.167 277.048 25.6675 271.789 25.6698L270.561 25.4607C270.268 27.6908 274.121 27.3198 276.151 31.0426C277.302 33.1546 276.926 33.7278 277.752 36.6772C278.102 35.0755 278.086 33.4603 277.752 31.8316C275.761 27.7267 272.163 28.1808 271.992 26.1115C278.602 26.9568 277.636 20.9838 274.221 20.6679C271.822 19.9654 270.272 20.3173 269.282 21.3648C268.345 22.717 268.843 23.6915 270.604 24.1288C274.659 25.2224 275.664 20.777 277.254 18.8223C275.797 18.0647 274.198 17.8905 272.533 17.9928C273.831 16.7991 275.747 17.3229 276.541 15.7695C277.167 13.0831 274.189 11.8445 274.909 8.74443L273.475 8.31506V8.31281Z" fill="white"/>
<path d="M268.166 25.6979L266.709 25.3944C266.723 26.968 271.319 29.9343 269.773 30.9931C269.537 31.1538 269.245 31.2078 268.962 31.1673L268.086 31.0426C267.955 31.0235 267.861 31.1628 267.924 31.2797C268.432 32.2104 270.183 32.9511 271.065 34.1696C271.711 35.0632 271.553 36.0838 270.264 36.4862L269.145 36.3693C268.953 36.349 268.807 36.5379 268.875 36.7177C269.389 38.0553 269.989 39.5603 269.383 40.4011C268.873 38.9432 271.138 37.8586 272.905 38.0362C274.474 38.7319 276.398 40.6787 277.087 43.237C277.587 45.0927 278.173 47.9162 278.34 51.6603C278.744 50.2632 278.795 48.1118 278.693 45.6255C278.678 45.2771 278.646 44.9297 278.58 44.5869C277.918 41.0766 275.724 38.2992 272.744 37.8125C270.171 37.1774 268.475 37.9687 267.664 40.2044C267.593 40.4011 267.715 40.6158 267.92 40.6607L268.843 40.8631C269.145 40.9294 269.453 40.9597 269.762 40.9361C272.497 40.7271 270.058 37.0043 270.408 36.7896C273.095 37.0459 273.391 35.6791 272.412 34.3022C271.722 33.3322 269.356 32.0767 269.348 31.4506C271.97 31.9834 271.827 30.6402 270.879 29.3689C269.924 28.0875 268.184 26.8107 268.167 25.6979H268.166Z" fill="white"/>
<path d="M265.16 47.9241C269.266 49.745 269.966 46.8316 271.325 44.8331C271.601 45.8132 272.062 46.8192 271.367 47.6622C271.18 47.8893 270.922 48.0432 270.645 48.1467C266.181 49.8192 267.334 62.8195 262.33 63.6558C261.482 62.6745 259.532 58.7776 264.869 56.171C264.173 56.1901 263.514 56.2778 262.898 56.4419C261.521 56.8105 260.388 57.8221 259.993 59.1889C259.308 61.5561 261.085 63.5512 262.501 64.0301C267.818 65.4328 267.97 53.0563 270.552 49.763C270.794 49.4539 271.115 49.2133 271.477 49.0605C272.374 48.6817 272.771 48.431 272.959 47.724C273.356 46.2347 271.349 43.1617 274.03 40.5281C274.113 40.4472 274.088 40.3078 273.982 40.2595L272.691 39.6649C272.598 39.6222 272.486 39.6379 272.413 39.7098C269.713 42.3479 270.393 48.3355 265.158 47.9241H265.16Z" fill="white"/>
<path d="M275.448 47.4408L273.956 47.0406C273.526 49.4662 276.097 50.4025 277.072 52.4213C278.091 54.531 278.585 56.2126 278.766 57.8615C278.766 56.7611 278.843 55.1661 278.644 53.851C278.58 53.4261 278.266 52.3999 277.865 51.8593C276.533 50.0597 274.657 48.8829 275.448 47.4408Z" fill="white"/>
<path d="M274.755 51.7019L273.23 51.2691C272.25 51.3557 273.894 53.3092 272.749 54.1837C272.889 53.1328 273.332 52.5292 274.274 52.6618C276.307 54.1343 277.628 58.02 278.751 62.5733L278.478 57.7884C278.467 57.5861 278.426 57.386 278.354 57.1961C277.445 54.7839 276.277 52.809 274.257 52.2617C271.87 51.6401 271.525 52.8326 271.265 54.1005C271.242 54.2107 271.307 54.3208 271.415 54.3534L272.129 54.5692C272.546 54.6951 272.983 54.748 273.415 54.7064C275.894 54.4636 273.248 51.9638 274.755 51.7019Z" fill="white"/>
<path d="M275.223 57.4501L273.683 57.0016C272.586 57.0263 273.959 59.1878 272.977 60.2051C273.057 59.253 273.112 58.283 274.42 58.2515C276.598 60.241 277.801 64.2335 278.318 69.6389V63.7963C278.318 63.4152 278.261 63.0364 278.143 62.6745C277.439 60.4984 276.496 58.6236 274.66 57.884L273.12 57.5636C271.503 57.757 271.087 59.8723 272.366 60.495L273.36 60.7187C276.009 61.1503 273.682 57.3197 275.221 57.4512L275.223 57.4501Z" fill="white"/>
<path d="M274.867 62.2721L273.586 61.8551C273.521 61.8337 273.45 61.872 273.434 61.9383C272.657 65.1406 275.815 66.794 277.006 69.3826C277.818 71.1473 277.838 72.8097 277.651 76.7381C278.463 75.0072 278.776 72.1634 278.63 70.9146C278.208 67.2897 273.479 64.2672 274.92 62.4587C274.972 62.3935 274.945 62.298 274.866 62.2721H274.867Z" fill="white"/>
<path d="M273.893 67.6696L272.914 67.1627C272.808 67.1076 272.677 67.1627 272.643 67.2773C271.731 70.2335 274.586 72.0027 276.037 76.5695C276.244 77.2203 276.72 79.6943 276.925 82.9404C277.471 80.3619 277.373 79.0705 277.21 77.0652C276.98 74.2485 272.959 70.6876 273.986 67.9C274.018 67.8112 273.978 67.7123 273.893 67.6685V67.6696Z" fill="white"/>
<path d="M271.722 69.9109L270.278 69.3343C270.009 71.5767 272.63 73.5066 273.571 76.1683C274.363 78.4073 274.089 79.6302 272.652 79.9472C271.768 80.1417 270.872 79.864 270.126 79.3515C268.634 78.3264 267.648 76.8607 267.648 76.8607C267.648 76.8607 268.846 78.8389 270.385 79.7572C271.143 80.2091 271.99 80.5036 272.868 80.5823C275.749 80.8408 275.79 78.568 274.792 76.238C273.67 73.6213 271.342 72.0375 271.723 69.9098L271.722 69.9109Z" fill="white"/>
<path d="M276.783 64.0694C272.796 61.6629 267.646 76.8618 259.775 70.1379C266.002 73.9573 265.434 61.6078 271.015 65.507C268.731 64.8888 267.459 67.401 265.769 70.1402C269.774 67.6157 273.157 61.2538 276.785 64.0694H276.783Z" fill="white"/>
<path d="M223.917 13.0618L223.771 14.4465L225.426 14.7871L225.56 13.3416L223.917 13.0618Z" fill="white"/>
<path d="M218.718 12.1266L218.572 13.5114L220.227 13.8508L220.361 12.4053L218.718 12.1266Z" fill="white"/>
<path d="M225.994 10.6654L225.275 11.8579L226.63 12.8651L227.364 11.6129L225.994 10.6654Z" fill="white"/>
<path d="M237.085 8.62191L236.341 9.79987L237.675 10.8351L238.435 9.59755L237.085 8.62191Z" fill="white"/>
<path d="M241.947 13.8418L241.203 15.0198L242.537 16.055L243.297 14.8175L241.947 13.8418Z" fill="white"/>
<path d="M239.116 7.99471L238.372 9.17268L239.706 10.209L240.466 8.97035L239.116 7.99471Z" fill="white"/>
<path d="M264.105 3.83079L263.077 4.85687L264.254 6.03158L265.281 5.0055L264.105 3.83079Z" fill="white"/>
<path d="M266.254 3.97538L265.227 5.00146L266.403 6.17617L267.431 5.15009L266.254 3.97538Z" fill="white"/>
<path d="M276.685 8.63907L275.498 9.8241L276.675 10.9988L277.862 9.81377L276.685 8.63907Z" fill="white"/>
<path d="M273.98 32.2922L272.793 33.4773L273.97 34.652L275.157 33.4669L273.98 32.2922Z" fill="white"/>
<path d="M277.88 38.6692L277.263 39.2851L277.874 39.8955L278.491 39.2796L277.88 38.6692Z" fill="white"/>
<path d="M277.871 37.3489L277.255 37.9649L277.866 38.5753L278.483 37.9593L277.871 37.3489Z" fill="white"/>
<path d="M273.737 29.9729L272.55 31.1579L273.727 32.3327L274.914 31.1476L273.737 29.9729Z" fill="white"/>
<path d="M265.246 25.6809L264.059 26.866L265.235 28.0407L266.422 26.8556L265.246 25.6809Z" fill="white"/>
<path d="M274.145 44.5219L273.546 45.8441L275.063 46.5285L275.661 45.2063L274.145 44.5219Z" fill="white"/>
<path d="M273.295 42.2959L272.696 43.6181L274.212 44.3025L274.811 42.9803L273.295 42.2959Z" fill="white"/>
<path d="M271.081 60.7689L270.091 61.8315L271.309 62.9628L272.299 61.9002L271.081 60.7689Z" fill="white"/>
<path d="M270.513 75.619L269.466 76.6259L270.621 77.8222L271.667 76.8152L270.513 75.619Z" fill="white"/>
<path d="M270.616 73.4752L269.569 74.4821L270.724 75.6783L271.77 74.6714L270.616 73.4752Z" fill="white"/>
<path d="M275.059 43.0792L274.46 44.4014L275.976 45.0859L276.575 43.7637L275.059 43.0792Z" fill="white"/>
<path d="M260.885 72.3039C260.029 71.2822 259.131 71.3744 258.848 71.9544C260.934 74.1473 265.966 71.888 266.976 75.9761C267.201 76.9528 267.179 77.9262 266.638 78.8895L266.304 77.7363C265.75 76.0075 263.752 75.3826 261.562 74.9038C261.764 75.1162 261.906 75.5231 262.015 76.0514C262.015 76.0514 261.408 74.9173 260.279 74.8745L260.115 73.9011C262.746 74.4474 265.694 74.4957 266.52 77.8655C266.736 77.5407 266.843 76.9 266.874 76.0368C264.884 72.4883 259.744 75.3612 258.676 72.033C258.195 70.5853 260.118 69.749 260.888 72.3039H260.885Z" fill="white"/>
<path d="M266.601 45.5142L265.693 45.177C266.904 43.9507 268.263 43.2167 270.015 43.7967C269.407 43.0313 268.757 42.44 268.019 42.0219C264.903 40.2291 264.596 44.2497 262.007 44.3003C261.852 43.292 262.568 42.3501 264.135 42.6131L262.412 42.2299C261.351 42.4378 260.399 43.7585 261.841 44.4644C264.691 45.666 265.537 41.1969 267.902 42.1309C268.435 42.5277 268.906 42.9267 269.12 43.3303C266.538 42.6783 265.109 44.5566 263.569 46.1886L264.524 46.6776C265.144 45.8008 265.829 45.3546 266.6 45.5131L266.601 45.5142Z" fill="white"/>
<path d="M267.342 36.0512L266.524 35.7477C267.615 34.6428 268.838 33.983 270.415 34.5056C269.866 33.8166 269.282 33.2838 268.617 32.9084C265.812 31.2943 265.535 34.9137 263.205 34.9597C263.066 34.0527 263.71 33.204 265.121 33.4412L263.571 33.0961C262.616 33.2827 261.758 34.4719 263.057 35.1081C265.623 36.1905 266.385 32.1666 268.513 33.0073C268.994 33.3648 269.417 33.7233 269.61 34.0875C267.285 33.5008 265.999 35.1913 264.612 36.6604L265.472 37.101C266.03 36.3119 266.646 35.9095 267.342 36.0523V36.0512Z" fill="white"/>
<path d="M236.588 18.2794L236.057 19.4675C234.885 18.4503 234.036 17.1487 234.459 15.5447C231.229 19.318 234.122 20.2105 234.485 21.5087C233.107 22.3585 231.475 21.0546 232.055 19.0471L231.789 20.2206C231.553 21.2637 232.227 22.3225 233.284 22.49C233.821 22.5754 234.338 22.4113 234.559 21.8774C235.565 19.9834 233.526 19.6979 233.264 18.2581C233.201 17.9119 233.282 17.5556 233.466 17.2554C233.627 16.9947 233.853 16.6979 234.056 16.5743C233.768 18.4885 235.583 20.1419 237.031 21.3424L237.378 20.478C236.554 19.9711 236.304 19.0022 236.586 18.2817L236.588 18.2794Z" fill="white"/>
<path d="M267.562 19.3382L266.67 19.1438C266.67 19.1438 267.144 18.2536 268.029 18.5941C268.914 18.9347 269.087 18.9696 268.802 19.5608C268.516 20.152 267.109 20.0407 267.109 20.0407C267.109 20.0407 266.134 19.9295 265.758 21.0007C265.382 22.0718 264.717 24.0085 261.685 23.1318C261.685 23.1318 263.913 23.7545 264.902 20.6915C265.271 19.5518 266.526 19.7597 266.526 19.7597C266.526 19.7597 268.244 19.8778 268.004 18.856L267.562 19.3382Z" fill="white"/>
<path d="M272.713 12.4795C273.598 12.8201 274.556 13.4979 274.27 14.0891C274.019 14.6095 273.426 14.1476 273.288 14.0284C273.261 14.0059 273.23 13.9879 273.196 13.9789C273.044 13.9385 272.656 13.9385 272.474 14.9153C272.233 16.209 271.575 16.3349 270.304 15.8988C270.304 15.8988 271.261 16.2798 271.581 14.6646C271.869 13.2068 272.897 13.5889 273.19 13.7317C273.257 13.7643 273.338 13.7474 273.386 13.689C273.499 13.5518 273.55 13.218 272.712 12.4784L272.713 12.4795Z" fill="white"/>
<path d="M208.78 6.89543C209.601 6.42222 210.731 6.10188 211.013 6.69536C211.26 7.2169 210.528 7.38775 210.348 7.42147C210.313 7.42821 210.281 7.44058 210.252 7.46193C210.124 7.5541 209.88 7.85646 210.528 8.6118C211.386 9.61104 211.071 10.2011 209.934 10.916C209.934 10.916 210.832 10.4113 209.773 9.14907C208.817 8.00933 209.76 7.45069 210.056 7.31244C210.123 7.28097 210.16 7.20678 210.146 7.13372C210.111 6.9595 209.881 6.70997 208.78 6.89768V6.89543Z" fill="white"/>
<path d="M195.89 4.3147C196.712 3.84149 197.841 3.52115 198.123 4.11462C198.37 4.63616 197.639 4.80701 197.459 4.84073C197.424 4.84748 197.391 4.85984 197.362 4.8812C197.234 4.97337 196.99 5.27573 197.639 6.03106C198.497 7.03031 198.181 7.62041 197.044 8.33529C197.044 8.33529 197.943 7.83061 196.883 6.56834C195.927 5.42859 196.87 4.86996 197.166 4.73171C197.233 4.70023 197.27 4.62605 197.256 4.55299C197.221 4.37877 196.991 4.12924 195.89 4.31695V4.3147Z" fill="white"/>
<path d="M274.393 54.7828C274.874 55.4325 275.204 56.3452 274.614 56.6082C274.095 56.8398 273.918 56.2463 273.883 56.1002C273.876 56.0721 273.863 56.0451 273.843 56.0226C273.749 55.9226 273.445 55.7382 272.698 56.3115C271.708 57.0702 271.116 56.842 270.392 55.9439C270.392 55.9439 270.904 56.6554 272.154 55.718C273.283 54.8716 273.849 55.6168 273.99 55.8529C274.023 55.9068 274.097 55.9338 274.17 55.9181C274.344 55.8799 274.59 55.6787 274.393 54.7817V54.7828Z" fill="white"/>
<path d="M272.913 8.04979C272.924 8.07002 272.949 8.07676 272.969 8.0644C273.094 7.98684 273.513 7.74069 273.506 7.7272C273.481 7.68336 273.457 7.63952 273.431 7.59456C273.553 7.52712 273.682 7.4653 273.786 7.37651C274.506 6.7628 273.795 5.75343 273.795 5.75343C273.795 5.75343 273.409 6.00746 273.266 6.10075C273.231 6.12436 273.198 6.15021 273.166 6.17943C272.31 6.98423 272.598 7.48891 272.912 8.04866L272.913 8.04979ZM273.401 7.54398C273.209 7.20004 273.046 6.8381 273.298 6.36602C273.464 6.74144 273.733 7.11349 273.401 7.54398Z" fill="white"/>
<path d="M240.326 19.1505C240.347 19.1618 240.371 19.155 240.381 19.1348C240.448 19.0033 240.679 18.5762 240.666 18.5694C240.622 18.5447 240.578 18.52 240.533 18.4952C240.603 18.3738 240.682 18.2547 240.725 18.1243C241.022 17.2273 239.891 16.7305 239.891 16.7305C239.891 16.7305 239.692 17.1464 239.618 17.3015C239.6 17.3397 239.584 17.3791 239.573 17.4195C239.258 18.5503 239.766 18.8336 240.325 19.1505H240.326ZM240.482 18.4649C240.138 18.2704 239.811 18.0445 239.782 17.5117C240.12 17.7466 240.544 17.9254 240.482 18.4649Z" fill="white"/>
<path d="M277.645 6.73807C278.131 8.17792 275.94 8.25548 274.937 7.19666C274.848 7.10225 275.615 8.18692 276.773 8.32405C277.932 8.46118 278.229 7.76429 278.023 7.15283C277.998 7.08089 277.747 6.84597 277.701 6.79651C277.687 6.7819 277.65 6.75493 277.644 6.73694L277.645 6.73807Z" fill="white"/>
<path d="M276.118 4.58446C276.118 4.58446 276.804 5.0779 278.118 4.20679C277.88 5.44995 278.42 5.42747 278.713 5.46344C278.8 5.47468 278.91 5.46681 278.992 5.49491C278.367 5.27685 278.677 4.38551 278.74 3.91905C278.707 3.91455 278.182 3.84936 278.182 3.84936C277.297 4.50466 276.118 4.58334 276.117 4.58334L276.118 4.58446Z" fill="white"/>
<path d="M249.905 20.0025C249.979 17.2251 245.226 17.1341 246.129 13.0168C246.195 16.4203 250.846 16.4832 249.905 20.0025Z" fill="white"/>
<path d="M262.544 67.5066C265.317 67.2706 264.876 62.5441 269.076 62.9814C265.696 63.4265 266.151 68.0484 262.544 67.5066Z" fill="white"/>
<path d="M256.05 19.454C255.786 20.2936 256.143 20.9119 257.006 21.3491C257.104 21.3985 257.14 21.5199 257.084 21.6144L256.814 22.0775C256.687 22.2944 256.436 22.4113 256.191 22.3596C255.149 22.1404 252.327 21.5368 250.121 21.3918C246.771 21.1704 238.765 23.6218 239.855 20.9669C240.295 18.792 245.916 19.01 247.472 19.1393C246.446 19.4754 241.001 19.8137 240.21 20.8523C240.773 22.7698 246.409 19.0999 255.487 21.2288C255.335 20.5544 255.632 19.989 256.05 19.454Z" fill="white"/>
<path d="M263.158 40.3876C262.307 40.1572 261.704 40.5393 261.3 41.4161C261.253 41.5161 261.134 41.5566 261.037 41.506L260.562 41.2542C260.34 41.1362 260.213 40.89 260.255 40.6428C260.433 39.5952 260.925 36.7559 260.982 34.5495C261.07 31.1988 258.623 22.327 261.324 23.3083C262.635 23.7994 262.851 25.137 262.782 26.6938C262.405 25.6833 261.984 24.6604 261.359 23.5803C259.463 24.2176 263.128 30.7559 261.359 39.8964C262.028 39.7177 262.606 39.992 263.158 40.3876Z" fill="white"/>
<path d="M263.112 55.7157C262.261 55.4853 261.658 55.8675 261.254 56.7442C261.207 56.8443 261.088 56.8847 260.991 56.8341L260.516 56.5824C260.294 56.4643 260.167 56.2182 260.209 55.9709C260.387 54.9233 260.879 52.0841 260.936 49.8776C261.024 46.527 258.909 44.3127 261.609 45.2939C262.92 45.7851 262.718 47.7769 262.65 49.3336C262.272 48.3231 261.858 46.6292 261.233 45.5479C260.427 47.0519 262.737 47.9679 261.312 55.2246C261.981 55.0458 262.558 55.3201 263.111 55.7157H263.112Z" fill="white"/>
<path d="M251.955 11.922C252.153 11.3859 252.328 10.8767 252.381 10.4923C252.387 10.4428 252.376 10.3911 252.349 10.3484C252.143 10.0134 251.781 10.1742 251.339 10.5856L251.562 9.74255C251.584 9.66274 251.625 9.58856 251.683 9.52899C252.426 8.75117 252.842 9.32666 252.606 10.1697C252.464 10.7373 252.232 11.3252 251.954 11.922H251.955Z" fill="white"/>
<path d="M231.431 19.2034C231.629 18.6672 231.804 18.158 231.857 17.7736C231.863 17.7242 231.852 17.6725 231.825 17.6297C231.619 17.2948 231.256 17.4555 230.815 17.8669L231.038 17.0239C231.059 16.9441 231.101 16.8699 231.159 16.8103C231.902 16.0325 232.318 16.608 232.082 17.451C231.94 18.0186 231.708 18.6065 231.43 19.2034H231.431Z" fill="white"/>
<path d="M227.031 6.77516C227.229 6.23901 227.404 5.72983 227.457 5.34542C227.463 5.29596 227.452 5.24426 227.425 5.20154C227.219 4.86659 226.857 5.02732 226.415 5.43871L226.638 4.5957C226.66 4.5159 226.701 4.44171 226.759 4.38214C227.502 3.60432 227.918 4.17982 227.682 5.02283C227.54 5.59045 227.308 6.17831 227.03 6.77516H227.031Z" fill="white"/>
<path d="M270.634 13.354C271.133 13.073 271.596 12.7965 271.885 12.538C271.922 12.5042 271.947 12.4582 271.955 12.4076C272.013 12.0187 271.634 11.9074 271.03 11.9366L271.746 11.4376C271.814 11.3904 271.894 11.3611 271.976 11.3521C273.047 11.2386 272.992 11.9467 272.265 12.4368C271.789 12.7785 271.232 13.0764 270.634 13.3529V13.354Z" fill="white"/>
<path d="M274.555 27.1265C275.25 27.4244 275.913 27.6885 276.418 27.7841C276.483 27.7964 276.551 27.7841 276.61 27.7526C277.066 27.5031 277.103 27.086 276.589 26.478L277.463 26.7578C277.568 26.7916 277.663 26.8511 277.737 26.9309C278.715 27.9628 277.926 28.472 276.827 28.1044C276.087 27.8796 275.325 27.5334 274.555 27.1276V27.1265Z" fill="white"/>
<path d="M263.927 29.3464C264.622 29.6443 265.285 29.9084 265.79 30.004C265.855 30.0163 265.923 30.004 265.982 29.9725C266.438 29.723 266.475 29.306 265.961 28.6979L266.835 28.9778C266.94 29.0115 267.035 29.0711 267.109 29.1509C268.087 30.1827 267.298 30.6919 266.199 30.3243C265.459 30.0995 264.697 29.7533 263.927 29.3476V29.3464Z" fill="white"/>
<path d="M212.172 9.12547C212.563 8.47916 212.916 7.85983 213.081 7.37426C213.102 7.31132 213.1 7.24163 213.076 7.17981C212.892 6.69423 212.483 6.60094 211.809 7.02582L212.206 6.19854C212.253 6.09963 212.325 6.01533 212.414 5.95126C213.573 5.12511 213.969 5.97599 213.453 7.01233C213.128 7.71484 212.68 8.41959 212.172 9.12547Z" fill="white"/>
<path d="M262.895 39.1175C263.59 39.4153 264.253 39.6795 264.757 39.775C264.822 39.7874 264.891 39.775 264.95 39.7435C265.406 39.494 265.443 39.077 264.928 38.4689L265.803 38.7488C265.908 38.7825 266.002 38.8421 266.077 38.9219C267.055 39.9537 266.266 40.4629 265.167 40.0954C264.426 39.8706 263.665 39.5244 262.895 39.1186V39.1175Z" fill="white"/>
<path d="M266.991 61.736C267.55 61.8023 268.08 61.8517 268.461 61.8135C268.511 61.809 268.557 61.7854 268.592 61.7506C268.865 61.4763 268.803 61.1706 268.307 60.8435L268.991 60.8592C269.073 60.8615 269.154 60.884 269.223 60.9244C270.141 61.4561 269.684 61.9866 268.821 61.9551C268.244 61.9506 267.627 61.863 266.991 61.736Z" fill="white"/>
<path d="M235.536 12.4402L235.923 11.677C235.804 11.5252 234.363 10.4878 234.929 8.96698C233.336 11.1206 235.536 12.4402 235.536 12.4402Z" fill="white"/>
<path d="M277.71 14.5646C277.136 14.3465 276.765 13.789 276.779 13.1764C276.799 12.2749 276.894 11.5871 277.116 11.2667C277.203 11.1408 277.369 11.0947 277.511 11.1521L278.256 11.4533C278.352 11.4915 278.424 11.5724 278.452 11.6725L278.544 12.0052C278.602 12.2109 278.639 12.4211 278.655 12.6335C278.718 13.4788 278.662 14.5848 278.458 15.5042C278.452 15.5312 278.413 15.5301 278.406 15.5042L277.761 12.4469C277.601 13.2326 277.559 13.9531 277.709 14.5668L277.71 14.5646Z" fill="white"/>
<path d="M277.734 22.3191C277.29 22.1381 277.012 21.6975 277.034 21.2198C277.067 20.5184 277.154 19.9834 277.333 19.7384C277.404 19.6417 277.533 19.6091 277.644 19.6563L278.219 19.9047C278.293 19.9362 278.347 20.0014 278.367 20.079L278.433 20.3397C278.473 20.5005 278.498 20.6657 278.507 20.8309C278.541 21.4907 278.476 22.3517 278.3 23.0643C278.294 23.0857 278.264 23.0834 278.259 23.0621L277.815 20.6668C277.676 21.276 277.629 21.8369 277.735 22.318L277.734 22.3191Z" fill="white"/>
<path d="M219.193 5.00372C221.319 4.76768 222.975 4.33156 223.182 5.49379C222.885 3.82688 223.364 3.65378 219.112 4.12699C219.112 4.12699 219.181 5.00484 219.193 5.00372Z" fill="white"/>
<path d="M217.491 21.493C215.705 21.6751 214.328 22.0325 214.09 21.0344C214.433 22.4652 214.037 22.6102 217.608 22.2449C217.608 22.2449 217.502 21.4918 217.491 21.493Z" fill="white"/>
<path d="M274.016 34.9024L274.584 35.2868C274.629 35.3172 274.666 35.3576 274.69 35.406C275.001 36.0174 275.261 37.1482 275.974 37.8327C276.916 38.1306 275.696 34.9654 275.965 32.66C276.563 34.2955 276.962 36.1523 277.059 37.9575C277.077 38.2947 276.7 38.506 276.42 38.3172L276.083 38.089C274.518 36.983 274.498 36.004 273.962 34.9519C273.944 34.917 273.983 34.8822 274.016 34.9035V34.9024Z" fill="white"/>
<path d="M225.358 19.3798C225.181 21.0198 227.253 20.9467 229.058 21.0771C229.159 21.0838 229.221 21.1917 229.178 21.2828L228.919 21.8414C228.894 21.8942 228.84 21.9268 228.783 21.9257L222.593 21.7256C222.886 21.9606 223.01 22.3304 222.297 23.3746C222.419 22.5844 222.277 21.6335 219.163 22.2539L219.477 21.6267C219.57 21.439 219.727 21.2895 219.92 21.2075C221.181 20.6724 223.162 20.9287 224.935 20.9568C224.716 20.5274 224.81 20.0149 225.359 19.3798H225.358Z" fill="white"/>
<path d="M260.548 69.5613L260.982 69.2893C261.098 69.2163 261.169 69.0892 261.168 68.9521L261.143 65.1485L262.001 68.4148C262.018 68.4789 262.112 68.4699 262.117 68.4036C262.212 66.9626 262.183 65.5992 261.841 64.4358C261.824 64.1357 261.488 63.9671 261.237 64.1324L260.999 64.2875C260.539 64.5898 260.265 65.1069 260.276 65.6576L260.355 69.459C260.357 69.5568 260.464 69.6142 260.548 69.5625V69.5613Z" fill="white"/>
<path d="M270.729 60.5389L269.947 60.177C269.861 60.1365 269.79 60.069 269.749 59.9825C269.106 58.5831 269.221 56.7543 268.758 56.2508L269.512 56.4531C269.647 56.4891 269.754 56.5925 269.798 56.7262C270.368 58.4887 269.982 59.5655 270.729 60.5411V60.5389Z" fill="white"/>
<path d="M265.157 51.4872C264.786 51.1939 264.39 51.1927 264.151 49.3696C264.926 51.0983 265.322 53.2272 265.554 55.5292C265.729 54.4996 265.819 53.4127 265.788 52.2448C265.778 51.8817 265.716 51.5198 265.6 51.1759C265.238 50.1069 264.645 48.8346 263.997 47.5138C263.981 47.4812 263.952 47.4565 263.917 47.4475L263.26 47.2587C263.167 47.2317 263.082 47.3138 263.1 47.4071C263.494 49.4067 263.026 51.4906 265.157 51.4861V51.4872Z" fill="white"/>
<path d="M262.212 60.6603L263.014 61.0065C263.22 60.7929 263.773 58.4167 265.345 58.3695C263.527 57.3546 262.751 59.67 262.212 60.6592V60.6603Z" fill="white"/>
<path d="M274.948 80.7992L274.238 81.3084C274.316 81.595 276.073 83.2889 275.306 84.659C277.112 83.6227 275.521 81.7692 274.948 80.7992Z" fill="white"/>
</g>
<rect x="218.003" y="25.9161" width="38.379" height="38.379" fill="white"/>
<rect x="218.003" y="25.9161" width="38.379" height="38.379" stroke="#C59714" stroke-width="1.35455"/>
<g clip-path="url(#clip2_1_17735)">
<path d="M253.253 42.931L253.106 41.9081C250.638 40.117 245.664 42.841 246.31 36.0317L246.356 33.4205C250.848 34.9099 253.886 36.7833 253.067 41.5494C252.505 38.6454 249.739 37.2853 246.504 36.2522C247.43 40.2514 254.771 35.7642 253.56 43.2644L253.48 45.0897C251.119 49.1599 243.766 47.9836 244.307 42.4304C242.928 43.2099 241.957 45.0555 240.809 45.8325C239.189 46.9302 237.764 46.5652 237.997 42.6154L238.116 39.9561C242.1 39.5758 243.176 41.6787 242.95 44.8907C242.525 50.5035 240.016 54.9096 234.658 57.6703C232.39 58.6755 229.828 58.9582 227.184 59.0431C233.514 55.9972 240.406 53.7434 242.637 44.9414C242.082 43.1123 240.414 42.5863 238.212 42.6801C240.006 45.9681 243.075 39.6645 244.59 39.662L244.598 41.794C245.354 45.2051 250.702 45.8845 253.256 42.9298L253.253 42.931Z" fill="#5064BA"/>
<path d="M247.772 33.0351L249.976 31.4101L247.709 28.8281L245.537 30.4683L247.772 33.0351Z" fill="#5064BA"/>
<path d="M222.134 32.556L224.305 30.898L222.317 28.5923L220.174 30.263L222.134 32.556Z" fill="#5064BA"/>
<path d="M222.145 36.4474L224.316 34.7907L222.327 32.485L220.185 34.1544L222.145 36.4474Z" fill="#5064BA"/>
<path d="M252.097 50.5618L253.923 49.1675L252.252 47.2294L250.45 48.6338L252.097 50.5618Z" fill="#5064BA"/>
<path d="M249.288 30.3973L251.651 33.0427L253.807 31.4025L251.421 28.7495L249.288 30.3973Z" fill="#5064BA"/>
<path d="M249.165 48.1154L247.932 49.7937C247.867 49.8824 247.866 50.0028 247.929 50.0928C248.602 51.0486 250.195 53.2947 248.027 55.8767C247.295 53.2845 245.291 51.4808 246.509 49.0927C241.786 53.2098 246.724 55.6587 246.368 58.9455C244.391 55.3798 242.283 54.2707 243.267 52.0347C239.131 55.9832 242.751 56.9554 241.608 59.4918C240.406 58.0633 239.641 56.4662 240.396 54.2796L239.258 55.641C239.177 55.7398 239.072 55.8172 238.955 55.8704C237.128 56.6918 235.327 55.2315 234.794 52.8472C238.739 46.953 232.853 33.8476 242.853 28.5834C228.006 32.2644 238.576 51.733 230.038 55.6853C232.56 52.9575 229.465 49.5756 232.107 47.2864L232.978 46.8212C233.209 46.6983 233.372 46.4764 233.416 46.2204C234.129 42.0209 231.064 39.9307 228.931 40.1373L226.133 41.3111C220.899 44.1555 226.417 54.2517 223.943 59.3296C224.043 56.7945 222.483 52.6584 222.489 47.1191C222.494 42.0691 222.341 37.4171 225.013 35.0861C219.779 36.9507 220.269 40.5772 220.221 45.0606C220.11 55.2493 222.472 59.3537 220.966 61.6328L223.844 60.3931C230.724 57.9568 223.814 44.7171 227.537 41.235C230.245 42.263 231.784 44.9832 230.821 47.5361C226.28 49.2017 230.183 54.1414 227.434 56.7222L230.038 56.0402L233.085 54.6332C234.228 58.0646 236.454 59.5337 238.58 56.9364C238.131 58.7402 238.761 60.2689 240.045 61.629C240.094 61.6809 240.179 61.6771 240.224 61.6201L242.901 58.2154L244.677 61.0763C244.821 61.3083 245.155 61.326 245.322 61.1105L246.721 59.3118C247.823 57.9302 248.089 56.9668 248.066 56.148C252.201 50.8052 250.806 50.2424 249.6 48.1433C249.506 47.9798 249.276 47.9658 249.165 48.1167V48.1154Z" fill="#5064BA"/>
<path d="M253.462 59.6325C252.329 60.4882 250.346 60.6821 250.336 59.0343L251.578 57.5867C253.87 54.6535 250.597 54.7587 251.898 51.5366C249.14 55.4356 251.966 55.3672 251.335 57.5005L249.985 59.1319C248.297 61.6746 251.053 62.3743 252.656 60.9369L253.462 59.6338V59.6325Z" fill="#5064BA"/>
<path d="M232.575 59.4563L232.135 60.298C233.569 59.8734 234.813 59.8556 235.754 60.4869C233.459 61.0015 229.319 61.3894 225.008 61.7659C230.055 61.8432 232.185 62.5403 235.54 61.7735C235.999 61.6683 236.364 61.3209 236.588 60.9103L237.074 60.023C237.247 59.7086 237.139 59.3156 236.832 59.1306C235.928 58.5868 234.879 58.3827 233.616 58.6578C233.167 58.7554 232.788 59.052 232.577 59.4563H232.575Z" fill="#5064BA"/>
<path d="M225.359 34.4333L227.052 32.3405C227.776 34.7337 227.056 36.5045 226.207 38.2208C226.091 38.4553 225.922 38.6593 225.712 38.8178L224.646 39.6176C224.499 39.7279 224.369 39.8597 224.262 40.0093L223.43 41.1628C226.97 38.6885 229.657 39.7152 231.344 37.3778C233.889 34.508 231.98 32.5788 232.693 29.8485C235.229 29.1716 235.865 30.988 233.691 33.257C238.595 28.9003 234.848 27.0801 232.759 29.3845C230.029 32.2011 232.719 35.0582 231.177 37.1116C229.912 38.2119 227.162 38.1548 226.031 38.9483C229.56 33.9795 228.396 31.4431 227.339 28.8509C227.289 28.7292 227.128 28.7051 227.044 28.8053L226.119 29.9131C226.085 29.9549 226.071 30.0107 226.084 30.0639C226.386 31.315 226.673 32.5712 225.358 34.4333H225.359Z" fill="#5064BA"/>
<path d="M240.668 37.0559L241.193 35.5728C241.193 35.5728 242.812 37.4387 242.724 39.269C242.718 39.4072 242.686 39.5441 242.631 39.6721L242.195 40.7014C242.167 40.766 242.243 40.8269 242.301 40.7851C242.646 40.5315 243.39 39.8686 244.049 38.492C246.465 34.219 242.685 31.9539 243.048 30.1121C243.048 30.1121 244.877 29.4682 244.246 33.1125C244.246 33.1125 244.385 32.9604 244.558 32.6701C245.007 31.9159 245.172 31.0298 245.06 30.1603C244.93 29.1538 244.569 27.8102 243.566 28.7482C243.37 28.932 243.213 29.1538 243.089 29.3934C242.824 29.9068 242.309 30.9779 242.293 31.6129C242.237 33.7196 244.843 35.2914 243.894 38.2639L243.168 39.0612C244.301 36.4664 241.596 33.4496 240.202 32.125C240.133 32.0604 240.022 32.0718 239.971 32.1504C239.638 32.6536 239.359 33.1847 239.142 33.7488C239.119 33.8096 239.138 33.8793 239.189 33.9199C240.182 34.721 240.757 35.7262 240.668 37.0571V37.0559Z" fill="#5064BA"/>
</g>
<defs>
<clipPath id="clip0_1_17735">
<rect width="177.019" height="75.8052" fill="white" transform="translate(0 7.48444)"/>
</clipPath>
<clipPath id="clip1_1_17735">
<rect width="83.4083" height="82.9262" fill="white" transform="translate(195.585 3.79203)"/>
</clipPath>
<clipPath id="clip2_1_17735">
<rect width="33.749" height="33.749" fill="white" transform="translate(220.174 28.3806)"/>
</clipPath>
</defs>
</svg>
