<svg width="362" height="75" viewBox="0 0 362 75" fill="none" xmlns="http://www.w3.org/2000/svg">
<path d="M225.451 17.6363H231.293V18.5791H226.512V20.0942H230.813V21.037H226.512V22.7373H231.293V23.6801H225.451V17.6363ZM236.831 23.6801H235.956L233.624 18.6127V23.6801H232.572V17.6363H234.238L236.41 22.367L238.582 17.6363H240.215V23.6801H239.163V18.6127L236.831 23.6801ZM241.78 23.6801V17.6363H245.661C246.957 17.6363 247.689 18.2003 247.689 19.2272C247.689 19.9764 247.209 20.3636 246.788 20.532C247.42 20.734 247.883 21.2559 247.883 21.9966C247.883 23.0572 247.058 23.6801 245.812 23.6801H241.78ZM242.815 20.1363H245.56C246.25 20.1363 246.671 19.867 246.671 19.3367C246.671 18.8064 246.25 18.5454 245.56 18.5454H242.815V20.1363ZM242.815 21.0454V22.771H245.753C246.435 22.771 246.847 22.4175 246.847 21.904C246.847 21.399 246.435 21.0454 245.753 21.0454H242.815ZM251.424 17.6363H252.611L255.683 23.6801H254.539L253.773 22.165H250.262L249.496 23.6801H248.343L251.424 17.6363ZM252.022 18.6969L250.742 21.2222H253.301L252.022 18.6969ZM255.989 22.2407L256.764 21.5252C257.445 22.5353 258.54 22.8384 259.449 22.8384C260.535 22.8384 261.317 22.4764 261.317 21.9377C261.317 21.2979 260.812 21.2474 259.045 21.0454C257.504 20.8687 256.41 20.6161 256.41 19.4377C256.41 18.3434 257.488 17.5437 259.171 17.5437C260.509 17.5437 261.722 18.0488 262.235 18.84L261.461 19.4882C261.023 18.84 260.181 18.4781 259.129 18.4781C257.934 18.4781 257.429 18.8905 257.429 19.3282C257.429 19.808 257.816 19.9259 259.398 20.1111C261.233 20.3215 262.37 20.5235 262.37 21.8114C262.37 23.0993 261.065 23.7727 259.424 23.7727C257.934 23.7727 256.553 23.1582 255.989 22.2407ZM263.036 22.2407L263.81 21.5252C264.492 22.5353 265.586 22.8384 266.495 22.8384C267.581 22.8384 268.364 22.4764 268.364 21.9377C268.364 21.2979 267.859 21.2474 266.091 21.0454C264.551 20.8687 263.456 20.6161 263.456 19.4377C263.456 18.3434 264.534 17.5437 266.217 17.5437C267.556 17.5437 268.768 18.0488 269.281 18.84L268.507 19.4882C268.069 18.84 267.228 18.4781 266.175 18.4781C264.98 18.4781 264.475 18.8905 264.475 19.3282C264.475 19.808 264.862 19.9259 266.445 20.1111C268.28 20.3215 269.416 20.5235 269.416 21.8114C269.416 23.0993 268.111 23.7727 266.47 23.7727C264.98 23.7727 263.6 23.1582 263.036 22.2407ZM273.101 20.2037L275.374 17.6363H276.687L273.631 21.0538V23.6801H272.554V21.0538L269.49 17.6363H270.82L273.101 20.2037ZM283.385 17.5437C285.43 17.5437 286.929 18.8653 286.929 20.6582C286.929 22.4512 285.43 23.7727 283.385 23.7727C281.34 23.7727 279.841 22.4512 279.841 20.6582C279.841 18.8653 281.34 17.5437 283.385 17.5437ZM283.385 18.4949C281.929 18.4949 280.944 19.3703 280.944 20.6582C280.944 21.9461 281.929 22.8215 283.385 22.8215C284.841 22.8215 285.826 21.9461 285.826 20.6582C285.826 19.3703 284.841 18.4949 283.385 18.4949ZM289.19 23.6801H288.129V17.6363H293.862V18.5791H289.19V20.2205H293.382V21.1633H289.19V23.6801Z" fill="white"/>
<path d="M230.215 32.6249H232.695L238.137 43.4174H235.747L234.499 40.9071H228.396L227.134 43.4174H224.774L230.215 32.6249ZM231.448 34.8044L229.328 39.0282H233.552L231.448 34.8044ZM241.924 43.4174H239.745V32.6249H250.026V34.5338H241.924V37.2244H249.169V39.1334H241.924V43.4174ZM257.648 32.4595C260.473 32.4595 262.593 33.7221 263.42 35.7965L261.481 36.7284C260.864 35.2553 259.542 34.3986 257.633 34.3986C255.197 34.3986 253.409 35.8265 253.409 38.0211C253.409 40.2007 255.167 41.6587 257.572 41.6587C259.572 41.6587 261.375 40.7117 261.526 39.3739H256.671V37.51H263.585V43.4174H261.511V42.1547C260.894 42.9364 259.361 43.5827 257.557 43.5827C253.815 43.5827 251.139 41.2228 251.139 37.991C251.139 34.7894 253.875 32.4595 257.648 32.4595ZM275.121 32.6249H277.346V43.4174H275.121V38.8328H268.191V43.4174H265.982V32.6249H268.191V36.9238H275.121V32.6249ZM284.363 32.6249H286.843L292.285 43.4174H289.895L288.647 40.9071H282.544L281.282 43.4174H278.922L284.363 32.6249ZM285.596 34.8044L283.476 39.0282H287.7L285.596 34.8044ZM305.031 32.6249V43.4174H303.077L296.027 35.4357V43.4174H293.893V32.6249H296.147L302.881 40.2457V32.6249H305.031ZM309.874 32.6249V43.4174H307.664V32.6249H309.874ZM311.384 41.0725L312.872 39.5242C314.105 41.1777 316.059 41.6888 317.652 41.6888C319.456 41.6888 320.734 41.1476 320.734 40.2758C320.734 39.2537 319.847 39.1635 316.81 38.8328C314.165 38.5322 312.136 38.0361 312.136 35.9017C312.136 33.8574 314.135 32.4595 317.201 32.4595C319.606 32.4595 321.771 33.3163 322.748 34.609L321.275 36.0219C320.448 34.9547 318.915 34.3384 317.081 34.3384C315.157 34.3384 314.285 34.9547 314.285 35.6762C314.285 36.4578 315.007 36.6382 317.742 36.9539C320.809 37.2996 322.973 37.7054 322.973 40.0353C322.973 42.3952 320.613 43.5827 317.562 43.5827C314.992 43.5827 312.436 42.5906 311.384 41.0725ZM335.747 34.5338H330.982V43.4174H328.757V34.5338H323.992V32.6249H335.747V34.5338ZM340.187 32.6249H342.668L348.109 43.4174H345.719L344.471 40.9071H338.369L337.106 43.4174H334.746L340.187 32.6249ZM341.42 34.8044L339.301 39.0282H343.524L341.42 34.8044ZM360.855 32.6249V43.4174H358.901L351.851 35.4357V43.4174H349.717V32.6249H351.972L358.706 40.2457V32.6249H360.855Z" fill="white"/>
<path d="M226.559 51.4106V57.1546H225.383V51.4106H226.559ZM226.963 55.9066L227.755 55.0826C228.411 55.9626 229.451 56.2346 230.299 56.2346C231.259 56.2346 231.939 55.9466 231.939 55.4826C231.939 54.9386 231.467 54.8906 229.851 54.7146C228.443 54.5546 227.363 54.2906 227.363 53.1546C227.363 52.0666 228.427 51.3226 230.059 51.3226C231.339 51.3226 232.491 51.7786 233.011 52.4666L232.227 53.2186C231.787 52.6506 230.971 52.3226 229.995 52.3226C228.971 52.3226 228.507 52.6506 228.507 53.0346C228.507 53.4506 228.891 53.5466 230.347 53.7146C231.979 53.8986 233.131 54.1146 233.131 55.3546C233.131 56.6106 231.875 57.2426 230.251 57.2426C228.883 57.2426 227.523 56.7146 226.963 55.9066ZM233.774 57.1546V51.4106H234.95V56.1386H238.99V57.1546H233.774ZM242 51.4106H243.32L246.216 57.1546H244.944L244.28 55.8186H241.032L240.36 57.1546H239.104L242 51.4106ZM242.656 52.5706L241.528 54.8186H243.776L242.656 52.5706ZM250.856 57.1546H249.904L247.816 52.5306V57.1546H246.672V51.4106H248.464L250.392 55.7146L252.32 51.4106H254.088V57.1546H252.936V52.5306L250.856 57.1546ZM257.43 51.4106H258.75L261.646 57.1546H260.374L259.71 55.8186H256.462L255.79 57.1546H254.534L257.43 51.4106ZM258.086 52.5706L256.958 54.8186H259.206L258.086 52.5706ZM262.102 57.1546V51.4106H265.87C267.11 51.4106 267.814 51.9546 267.814 52.9386C267.814 53.6266 267.366 54.0026 266.974 54.1706C267.55 54.3626 267.99 54.8506 267.99 55.5466C267.99 56.5546 267.222 57.1546 266.006 57.1546H262.102ZM263.23 53.7466H265.75C266.342 53.7466 266.702 53.5226 266.702 53.0666C266.702 52.6186 266.342 52.3866 265.75 52.3866H263.23V53.7466ZM263.23 54.6986V56.1706H265.926C266.51 56.1706 266.854 55.8746 266.854 55.4346C266.854 55.0026 266.51 54.6986 265.926 54.6986H263.23ZM270.852 51.4106H272.172L275.068 57.1546H273.796L273.132 55.8186H269.884L269.212 57.1546H267.956L270.852 51.4106ZM271.508 52.5706L270.38 54.8186H272.628L271.508 52.5706ZM275.524 57.1546V51.4106H278.46C280.476 51.4106 281.748 52.5306 281.748 54.2826C281.748 56.0346 280.476 57.1546 278.46 57.1546H275.524ZM276.676 56.1466H278.46C279.772 56.1466 280.548 55.4106 280.548 54.2826C280.548 53.1466 279.772 52.4186 278.46 52.4186H276.676V56.1466ZM281.8 57.1546V55.8586H283.112V57.1306C283.112 57.8826 282.592 58.3306 281.8 58.3306V57.7386C282.168 57.7146 282.352 57.5546 282.352 57.2106V57.1546H281.8ZM287.239 55.0426V57.1546H286.063V51.4106H289.655C290.967 51.4106 291.831 52.0346 291.831 53.2266C291.831 54.4106 290.967 55.0426 289.655 55.0426H287.239ZM287.239 54.0426H289.591C290.271 54.0426 290.671 53.7386 290.671 53.2266C290.671 52.7066 290.271 52.4106 289.591 52.4106H287.239V54.0426ZM293.977 51.4106H295.297L298.193 57.1546H296.921L296.257 55.8186H293.009L292.337 57.1546H291.081L293.977 51.4106ZM294.633 52.5706L293.505 54.8186H295.753L294.633 52.5706ZM299.825 51.4106V54.1626L303.049 51.4106H304.705L301.769 53.8426L304.889 57.1546H303.337L300.905 54.5626L299.825 55.4586V57.1546H298.649V51.4106H299.825ZM306.457 51.4106V57.1546H305.281V51.4106H306.457ZM306.861 55.9066L307.653 55.0826C308.309 55.9626 309.349 56.2346 310.197 56.2346C311.157 56.2346 311.837 55.9466 311.837 55.4826C311.837 54.9386 311.365 54.8906 309.749 54.7146C308.341 54.5546 307.261 54.2906 307.261 53.1546C307.261 52.0666 308.325 51.3226 309.957 51.3226C311.237 51.3226 312.389 51.7786 312.909 52.4666L312.125 53.2186C311.685 52.6506 310.869 52.3226 309.893 52.3226C308.869 52.3226 308.405 52.6506 308.405 53.0346C308.405 53.4506 308.789 53.5466 310.245 53.7146C311.877 53.8986 313.029 54.1146 313.029 55.3546C313.029 56.6106 311.773 57.2426 310.149 57.2426C308.781 57.2426 307.421 56.7146 306.861 55.9066ZM319.427 52.4266H316.891V57.1546H315.707V52.4266H313.171V51.4106H319.427V52.4266ZM321.391 51.4106H322.711L325.607 57.1546H324.335L323.671 55.8186H320.423L319.751 57.1546H318.495L321.391 51.4106ZM322.047 52.5706L320.919 54.8186H323.167L322.047 52.5706ZM331.991 51.4106V57.1546H330.951L327.199 52.9066V57.1546H326.063V51.4106H327.263L330.847 55.4666V51.4106H331.991Z" fill="#C59714"/>
<g clip-path="url(#clip0_12_8886)">
<path d="M47.3672 24.9667C46.9385 24.9667 46.5786 24.9069 46.2833 24.7913C45.9921 24.6756 45.7576 24.5201 45.5796 24.3327C45.4057 24.1413 45.2804 23.914 45.2076 23.6548C45.1348 23.3956 45.0984 23.1244 45.0984 22.8453V20.4088H46.7646V22.5542C46.7646 22.8692 46.8212 23.0686 46.9304 23.1563C47.0396 23.2441 47.2216 23.2879 47.4723 23.2879H72.4854V19.2245H74.1718V24.9667H47.3672ZM57.7728 16.9635C57.7728 16.7322 57.8577 16.5329 58.0235 16.3694C58.1893 16.2059 58.3996 16.1261 58.6504 16.1261C58.9011 16.1261 59.1154 16.2059 59.2812 16.3694C59.4471 16.5329 59.5279 16.7282 59.5279 16.9635C59.5279 17.1988 59.4471 17.3982 59.2812 17.5577C59.1154 17.7172 58.9051 17.7969 58.6504 17.7969C58.3956 17.7969 58.1893 17.7172 58.0235 17.5577C57.8577 17.3982 57.7728 17.1988 57.7728 16.9635ZM60.0618 16.9635C60.0618 16.7322 60.1427 16.5329 60.3085 16.3694C60.4743 16.2059 60.6846 16.1261 60.9394 16.1261C61.1941 16.1261 61.4004 16.2059 61.5662 16.3694C61.732 16.5329 61.8169 16.7282 61.8169 16.9635C61.8169 17.1988 61.732 17.3982 61.5662 17.5577C61.4004 17.7172 61.1901 17.7969 60.9394 17.7969C60.6886 17.7969 60.4702 17.7172 60.3085 17.5577C60.1427 17.3982 60.0618 17.1988 60.0618 16.9635Z" fill="white"/>
<path d="M77.8034 24.7354C77.8034 25.1701 77.7468 25.5728 77.6295 25.9517C77.5163 26.3265 77.3383 26.6575 77.1038 26.9366C76.8692 27.2158 76.5821 27.4351 76.2383 27.5946C75.8986 27.7541 75.5023 27.8338 75.0534 27.8338C74.8633 27.8338 74.6935 27.8259 74.5398 27.8099C74.3861 27.794 74.2486 27.778 74.1273 27.7541C74.0585 27.7421 73.9938 27.7341 73.9291 27.7222C73.8644 27.7102 73.7997 27.6983 73.731 27.6823L73.9291 26.0354L74.3376 26.1192C74.4508 26.1391 74.5721 26.159 74.7016 26.175C74.831 26.1909 74.9442 26.1989 75.0494 26.1989C75.478 26.1989 75.7652 26.0633 75.9148 25.7922C76.0604 25.521 76.1332 25.1262 76.1332 24.6118V19.2245H77.7994V24.7354H77.8034Z" fill="white"/>
<path d="M79.4575 14.6268H81.1237V23.2879H82.1267C82.2844 23.2879 82.3895 23.3278 82.4502 23.4036C82.5109 23.4793 82.5351 23.575 82.5351 23.6827V24.564C82.5351 24.6397 82.4987 24.7275 82.43 24.8232C82.3612 24.9189 82.2601 24.9667 82.1267 24.9667H79.4575V14.6268Z" fill="white"/>
<path d="M97.5834 23.2879H99.0029C99.1606 23.2879 99.2657 23.3278 99.3224 23.4036C99.379 23.4793 99.4032 23.575 99.4032 23.6827V24.564C99.4032 24.6397 99.3709 24.7275 99.3062 24.8232C99.2415 24.9189 99.1404 24.9667 99.0029 24.9667H82.0498C81.9001 24.9667 81.795 24.9268 81.7384 24.8511C81.6817 24.7753 81.6575 24.6876 81.6575 24.5959V23.7385C81.6575 23.6348 81.6898 23.5352 81.7545 23.4355C81.8192 23.3358 81.9163 23.2879 82.0498 23.2879H91.9984C91.9296 23.1842 91.8487 23.0088 91.7598 22.7615C91.6708 22.5143 91.6223 22.2033 91.6223 21.8245C91.6223 21.4257 91.6991 21.0389 91.8568 20.664C92.0146 20.2892 92.2329 19.9542 92.512 19.6671C92.791 19.38 93.1348 19.1448 93.5392 18.9653C93.9436 18.7859 94.3925 18.6981 94.8859 18.6981C95.2944 18.6981 95.6624 18.7659 95.9981 18.9015C96.3297 19.0371 96.6128 19.2285 96.8473 19.4757C97.0819 19.719 97.2598 20.0181 97.3892 20.361C97.5187 20.7079 97.5793 21.0947 97.5793 21.5214V23.2879H97.5834ZM95.8969 23.2879V21.4377C95.8969 21.31 95.8767 21.1745 95.8322 21.0389C95.7918 20.9033 95.719 20.7797 95.626 20.668C95.5289 20.5564 95.4076 20.4687 95.258 20.4009C95.1083 20.3331 94.9264 20.3012 94.712 20.3012C94.53 20.3012 94.3521 20.3371 94.1822 20.4088C94.0124 20.4806 93.8587 20.5843 93.7252 20.7159C93.5918 20.8475 93.4866 21.003 93.4098 21.1824C93.333 21.3619 93.2966 21.5692 93.2966 21.8005C93.2966 22.1475 93.3653 22.4186 93.4988 22.618C93.6363 22.8174 93.7859 22.9689 93.9558 23.0766C94.1377 23.1882 94.3602 23.26 94.623 23.2839H95.8929L95.8969 23.2879ZM93.8466 16.9635C93.8466 16.7322 93.9315 16.5329 94.1054 16.3694C94.2793 16.2059 94.4855 16.1261 94.7241 16.1261C94.9789 16.1261 95.1933 16.2059 95.3631 16.3694C95.533 16.5329 95.6179 16.7282 95.6179 16.9635C95.6179 17.1988 95.533 17.3982 95.3631 17.5577C95.1933 17.7172 94.9789 17.7969 94.7241 17.7969C94.4855 17.7969 94.2752 17.7172 94.1054 17.5577C93.9315 17.3982 93.8466 17.1988 93.8466 16.9635Z" fill="white"/>
<path d="M98.9018 24.9667C98.7603 24.9667 98.6591 24.9268 98.5985 24.8511C98.5378 24.7753 98.5095 24.6876 98.5095 24.5959V23.7385C98.5095 23.6349 98.5419 23.5352 98.6066 23.4355C98.6713 23.3358 98.7683 23.2879 98.9018 23.2879H109.518C109.744 23.2879 109.886 23.2201 109.954 23.0885C110.019 22.953 110.052 22.7735 110.052 22.5462V20.5644H111.722V21.964C111.722 22.3508 111.815 22.6698 112.001 22.9171C112.187 23.1643 120.611 23.2879 121.096 23.2879H121.464C121.683 23.2879 121.828 23.2241 121.901 23.1005C121.97 22.9769 122.006 22.7895 122.006 22.5422V19.9941H123.672V21.96C123.672 22.3468 123.765 22.6659 123.951 22.9131C124.137 23.1603 124.477 23.2839 124.966 23.2839H133.92V19.2205H135.574V24.9627H124.926C124.513 24.9627 124.178 24.863 123.927 24.6637C123.672 24.4643 123.474 24.249 123.333 24.0097C123.171 24.3247 122.932 24.564 122.617 24.7235C122.301 24.883 121.941 24.9627 121.533 24.9627H121.068C120.627 24.9627 112.191 24.867 111.936 24.6796C111.681 24.4922 111.487 24.2769 111.354 24.0416C111.188 24.3367 110.945 24.564 110.626 24.7235C110.31 24.883 109.93 24.9627 109.489 24.9627H98.8897L98.9018 24.9667Z" fill="white"/>
</g>
<path d="M8.52459 45.6055C8.52459 46.7247 8.18858 47.652 7.50056 48.3554C6.84455 49.0429 6.01253 49.3946 4.9885 49.3946H4.50849C3.48447 49.3946 2.65245 49.0429 1.99644 48.3394C1.32442 47.636 0.972412 46.7247 0.972412 45.5895V36.9561H2.62045V45.5096C2.62045 47.0284 3.32447 47.7959 4.7485 47.7959C6.17253 47.7959 6.84455 47.0284 6.84455 45.5096V36.9561H8.50859V45.6055H8.52459ZM3.75648 35.9329V34.1263H5.40451V35.9329H3.75648Z" fill="white"/>
<path d="M14.3006 45.9254C13.0846 45.9254 12.1245 45.5896 11.4205 44.9022C10.7165 44.2307 10.3645 43.3034 10.3645 42.1203V33.4229H12.0125V42.0403C11.9965 43.5592 12.7646 44.3266 14.3006 44.3266V45.9254Z" fill="white"/>
<path d="M13.4365 35.2455V33.4389H15.0846V35.2455H13.4365ZM20.0927 45.9254H19.9167C18.5886 45.8934 17.5966 45.4937 16.9566 44.6943C16.3326 45.5097 15.3726 45.9254 14.0925 45.9254H13.9005V44.3266H14.0925C15.4046 44.3266 16.0446 43.7031 16.0446 42.44V36.9402H17.6926V42.504C17.6926 43.7191 18.4286 44.3266 19.9007 44.3266H20.0767V45.9254H20.0927ZM16.0446 35.2455V33.4389H17.6926V35.2455H16.0446Z" fill="white"/>
<path d="M19.7249 45.9254V44.3266H38.8773V37.0361H40.4773V44.3266H43.3734V36.9402H45.0054V44.3266H48.1095V36.9402H49.7575V44.3266H67.998V45.9254H19.7249Z" fill="white"/>
<path d="M72.11 42.1362C72.11 43.3193 71.774 44.2466 71.086 44.9181C70.398 45.5895 69.4539 45.9413 68.2699 45.9413H67.3899V44.3425H68.2699C69.742 44.3425 70.478 43.5751 70.478 42.0562V36.9561H72.11V42.1362ZM70.43 35.2454V33.4548H72.078V35.2454H70.43Z" fill="white"/>
<path d="M77.9022 45.9254C76.6861 45.9254 75.7261 45.5896 75.0221 44.9022C74.3181 44.2307 73.9661 43.3034 73.9661 42.1203V33.4229H75.6141V42.0403C75.5981 43.5592 76.3661 44.3266 77.9022 44.3266V45.9254Z" fill="white"/>
<path d="M101.615 45.9253C100.975 45.9253 100.351 45.8134 99.7268 45.6055C99.1027 45.8294 98.4787 45.9253 97.8387 45.9253H77.4062V44.3265H97.8547L94.7986 41.5286C94.7986 40.2016 95.2307 39.0985 96.0787 38.2351C96.9907 37.3079 98.1907 36.8282 99.7108 36.8282C101.231 36.8282 102.415 37.2919 103.343 38.2351C104.207 39.1145 104.655 40.2176 104.655 41.5286L101.599 44.3265H122.031V45.9253H101.599H101.615ZM102.863 41.2089C102.863 40.4415 102.575 39.786 102.015 39.2264C101.423 38.6348 100.671 38.3311 99.7748 38.2991H99.6788C98.7987 38.2991 98.0627 38.5869 97.4707 39.1624C96.8947 39.722 96.6067 40.4095 96.6067 41.1929C97.1347 41.7045 98.1747 42.6638 99.7428 44.0867L102.879 41.1929L102.863 41.2089ZM98.9107 35.2454V33.4548H100.559V35.2454H98.9107Z" fill="white"/>
<path d="M126.911 45.9254H121.455V44.3266H123.839C123.423 43.6231 123.231 42.6798 123.231 41.4808C123.231 40.0419 123.567 38.9067 124.223 38.1073C124.863 37.3239 125.759 36.9402 126.911 36.9402C128.063 36.9402 128.991 37.3239 129.632 38.1073C130.288 38.9067 130.608 40.0578 130.608 41.5447C130.608 44.4545 129.375 45.9254 126.895 45.9254H126.911ZM126.911 38.3631C125.599 38.3631 124.927 39.4023 124.927 41.4967C124.927 42.536 125.087 43.2714 125.423 43.7191C125.727 44.1347 126.223 44.3266 126.895 44.3266C127.567 44.3266 128.111 44.1187 128.431 43.7191C128.767 43.2874 128.927 42.5519 128.927 41.5287C128.927 39.4183 128.255 38.3631 126.895 38.3631H126.911ZM126.047 35.2295V33.4389H127.663V35.2295H126.047Z" fill="white"/>
<path d="M131.087 32.3997V31.5044H131.919V31.3285C131.919 30.0655 132.431 29.4259 133.439 29.4259C134.111 29.4259 134.591 29.8097 134.895 30.5771H133.919C133.791 30.3852 133.631 30.2893 133.455 30.2893C133.055 30.2893 132.863 30.625 132.863 31.2805V31.4884H135.039V32.3837H131.103L131.087 32.3997ZM132.463 45.9254V33.4389H134.111V45.9254H132.463Z" fill="white"/>
<path d="M61.0823 58.5178C61.0823 60.4579 60.1724 61.4279 58.3528 61.4279C57.5715 61.4279 56.9628 61.2115 56.5266 60.7785C56.0448 60.3 55.8039 59.5774 55.8039 58.6106C55.8039 58.0051 55.8837 57.3882 56.0432 56.76L57.1858 56.55C56.997 57.1978 56.9026 57.8505 56.9026 58.508C56.9026 59.8752 57.4202 60.5588 58.4553 60.5588C59.4742 60.5588 59.9836 59.9013 59.9836 58.5862V54.4162H61.0823V58.5178ZM58.3918 55.51C58.2226 55.51 58.0793 55.4514 57.9622 55.3342C57.845 55.217 57.7864 55.0722 57.7864 54.8996C57.7864 54.7336 57.845 54.592 57.9622 54.4748C58.0793 54.3576 58.2226 54.299 58.3918 54.299C58.5644 54.299 58.7092 54.356 58.8264 54.4699C58.9436 54.5871 59.0022 54.7304 59.0022 54.8996C59.0022 55.0689 58.9436 55.2121 58.8264 55.3293C58.7092 55.4498 58.5644 55.51 58.3918 55.51ZM62.7961 52.0676H63.8948V58.2492H64.9543V59.1184H62.7961V52.0676ZM64.8079 58.2492H66.2385V54.4162H67.3372V58.2492H68.3088V59.1184H64.8079V58.2492ZM67.3957 53.5666C67.233 53.5666 67.0946 53.5097 66.9807 53.3957C66.8668 53.2818 66.8098 53.1386 66.8098 52.966C66.8098 52.8033 66.8668 52.6633 66.9807 52.5461C67.0946 52.4289 67.233 52.3703 67.3957 52.3703C67.5618 52.3703 67.7017 52.4289 67.8157 52.5461C67.9296 52.6633 67.9866 52.8033 67.9866 52.966C67.9866 53.132 67.9296 53.2737 67.8157 53.3908C67.7017 53.508 67.5618 53.5666 67.3957 53.5666ZM65.8381 53.5666C65.6754 53.5666 65.5386 53.5097 65.428 53.3957C65.314 53.2785 65.2571 53.1353 65.2571 52.966C65.2571 52.8033 65.314 52.6633 65.428 52.5461C65.5419 52.4289 65.6786 52.3703 65.8381 52.3703C66.0074 52.3703 66.1474 52.4289 66.2581 52.5461C66.372 52.66 66.4289 52.8 66.4289 52.966C66.4289 53.1353 66.372 53.2769 66.2581 53.3908C66.1474 53.508 66.0074 53.5666 65.8381 53.5666ZM68.1575 58.2492H68.6164C68.9713 58.2492 69.2203 58.1581 69.3635 57.9758C69.5133 57.7837 69.5881 57.4387 69.5881 56.9406V55.0168H70.6868V56.8479C70.6868 57.398 70.7275 57.7675 70.8088 57.9563C70.913 58.2037 71.1327 58.3274 71.468 58.3274C72.0865 58.3274 72.3957 57.8375 72.3957 56.8576V54.6164H73.4456V57.1604C73.4456 57.6128 73.5432 57.9107 73.7385 58.0539C73.911 58.1841 74.261 58.2492 74.7883 58.2492H75.0862C75.135 57.7577 75.1594 57.3215 75.1594 56.9406C75.1594 55.9706 75.0553 55.0673 74.8469 54.2307L75.9163 54.05C76.1441 54.9322 76.2581 55.8681 76.2581 56.8576C76.2581 57.3134 76.2385 57.7772 76.1995 58.2492H77.2493V59.1184H74.7395C74.1405 59.1184 73.7011 59.0679 73.4211 58.967C73.1282 58.8563 72.9101 58.6561 72.7668 58.3664C72.5325 58.9133 72.0295 59.1867 71.2581 59.1867C70.5484 59.1867 70.1122 58.9133 69.9495 58.3664C69.7607 58.8677 69.3131 59.1184 68.6067 59.1184H68.1575V58.2492ZM77.093 58.2492H80.1936C80.1741 57.3703 79.956 56.677 79.5393 56.1692C79.1324 55.6776 78.5041 55.3212 77.6545 55.0998V54.2893L81.5217 51.8576V52.9563L78.9241 54.5383C80.4898 55.2154 81.2727 56.5484 81.2727 58.5373V59.1184H77.093V58.2492ZM83.1282 52.0676H84.2268V58.2492H85.2864V59.1184H83.1282V52.0676ZM85.1399 58.2492H87.0881V54.4162H88.1916V59.1184H85.1399V58.2492ZM87.4397 61.3889C87.4397 61.5386 87.3892 61.664 87.2883 61.7649C87.1874 61.8658 87.0605 61.9162 86.9075 61.9162C86.7642 61.9162 86.6405 61.8658 86.5364 61.7649C86.4322 61.664 86.3801 61.5386 86.3801 61.3889C86.3801 61.2424 86.4322 61.1171 86.5364 61.0129C86.6405 60.9087 86.7642 60.8567 86.9075 60.8567C87.0605 60.8567 87.1874 60.9087 87.2883 61.0129C87.3892 61.1138 87.4397 61.2391 87.4397 61.3889ZM88.2209 60.2268C88.2209 60.383 88.1672 60.5132 88.0598 60.6174C87.9556 60.7248 87.8254 60.7785 87.6692 60.7785C87.5194 60.7785 87.3909 60.7248 87.2834 60.6174C87.176 60.5132 87.1223 60.383 87.1223 60.2268C87.1223 60.0738 87.176 59.9419 87.2834 59.8313C87.3909 59.7238 87.5194 59.6701 87.6692 59.6701C87.8254 59.6701 87.9556 59.7238 88.0598 59.8313C88.1672 59.9419 88.2209 60.0738 88.2209 60.2268ZM86.6975 60.2268C86.6975 60.383 86.6454 60.5132 86.5413 60.6174C86.4338 60.7248 86.3036 60.7785 86.1506 60.7785C85.9944 60.7785 85.8642 60.7248 85.76 60.6174C85.6526 60.5132 85.5989 60.383 85.5989 60.2268C85.5989 60.0738 85.6526 59.9419 85.76 59.8313C85.8642 59.7238 85.9944 59.6701 86.1506 59.6701C86.3036 59.6701 86.4338 59.7238 86.5413 59.8313C86.6454 59.9419 86.6975 60.0738 86.6975 60.2268ZM92.1614 59.216C91.953 59.216 91.7821 59.1363 91.6487 58.9768C91.5152 58.8075 91.4517 58.5894 91.4582 58.3225C91.4745 57.6649 91.87 56.9895 92.6448 56.2961L93.094 56.6965C92.5113 57.3215 92.3681 57.8147 92.6643 58.176C92.8336 58.3811 92.8629 58.6057 92.7522 58.8498C92.6448 59.094 92.4478 59.216 92.1614 59.216ZM93.8508 58.2492H96.9514C96.9319 57.4061 96.7301 56.7356 96.3459 56.2375C95.9521 55.7297 95.3368 55.357 94.5002 55.1194L94.7786 54.1965C95.8918 54.5155 96.7056 55.0054 97.22 55.6662C97.7603 56.3661 98.0305 57.3264 98.0305 58.5471V59.1184H93.8508V58.2492ZM99.5051 52.0676H100.604V58.2492H101.663V59.1184H99.5051V52.0676ZM101.517 58.2492H102.948V54.4162H104.046V59.1184H101.517V58.2492ZM102.796 61.2278C102.627 61.2278 102.484 61.1692 102.366 61.052C102.246 60.9315 102.186 60.7867 102.186 60.6174C102.186 60.4481 102.246 60.3049 102.366 60.1877C102.484 60.0673 102.627 60.007 102.796 60.007C102.965 60.007 103.11 60.0673 103.231 60.1877C103.348 60.3049 103.406 60.4481 103.406 60.6174C103.406 60.7867 103.348 60.9315 103.231 61.052C103.11 61.1692 102.965 61.2278 102.796 61.2278ZM105.379 52.0676H106.483V59.1184H105.379V52.0676ZM104.281 50.7785L105.242 50.0705C105.539 50.3342 105.851 50.466 106.18 50.466C106.545 50.466 106.894 50.3261 107.23 50.0461V50.8762C106.927 51.1301 106.561 51.257 106.131 51.257C105.75 51.257 105.454 51.1513 105.242 50.9397L104.691 51.3303L104.281 50.7785ZM114.603 59.1184C112.962 59.1184 112.088 58.4413 111.981 57.0871H111.722C111.393 57.0871 111.175 57.1929 111.068 57.4045C110.957 57.6161 110.941 57.9677 111.019 58.4592L111.541 61.716H110.482L109.969 58.5373C109.855 57.8179 109.938 57.2597 110.218 56.8625C110.517 56.4328 111.032 56.218 111.761 56.218H112.03C112.134 55.6516 112.392 55.1975 112.806 54.8557C113.249 54.4846 113.813 54.299 114.5 54.299C115.968 54.299 116.702 55.0526 116.702 56.5598V59.1184H114.603ZM115.628 56.7307C115.628 55.689 115.226 55.1682 114.422 55.1682C114.002 55.1682 113.669 55.3098 113.421 55.593C113.18 55.8664 113.06 56.231 113.06 56.6867C113.06 57.7284 113.62 58.2492 114.739 58.2492H115.628V56.7307ZM117.42 59.1184V58.2492H120.511V52.0676H121.61V58.2492H122.659V59.1184H117.42ZM119.632 57.4192H118.509L117 52.1604L118.089 52.009L119.632 57.4192ZM122.513 58.2492H122.972C123.327 58.2492 123.576 58.1581 123.719 57.9758C123.869 57.7837 123.944 57.4387 123.944 56.9406V55.0168H125.042V56.8479C125.042 57.398 125.083 57.7675 125.164 57.9563C125.268 58.2037 125.488 58.3274 125.823 58.3274C126.442 58.3274 126.751 57.8375 126.751 56.8576V54.6164H127.801V57.1604C127.801 57.6128 127.899 57.9107 128.094 58.0539C128.267 58.1841 128.616 58.2492 129.144 58.2492H129.442C129.49 57.7577 129.515 57.3215 129.515 56.9406C129.515 55.9706 129.411 55.0673 129.202 54.2307L130.272 54.05C130.5 54.9322 130.614 55.8681 130.614 56.8576C130.614 57.6389 130.56 58.3925 130.452 59.1184H129.095C128.496 59.1184 128.057 59.0679 127.777 58.967C127.484 58.8563 127.266 58.6561 127.122 58.3664C126.888 58.9133 126.385 59.1867 125.614 59.1867C124.904 59.1867 124.468 58.9133 124.305 58.3664C124.116 58.8677 123.669 59.1184 122.962 59.1184H122.513V58.2492ZM132.259 52.0676H133.358V59.1184H132.259V52.0676Z" fill="#C59714"/>
<rect x="144.122" y="1.42369" width="72.2695" height="72.2695" rx="36.1347" fill="#5064BA"/>
<rect x="144.122" y="1.42369" width="72.2695" height="72.2695" rx="36.1347" stroke="#C59714" stroke-width="1.3898"/>
<g clip-path="url(#clip1_12_8886)">
<path d="M207.644 35.9828L208.692 34.3889L207.409 33.3197L206.338 34.9136L207.644 35.9828Z" fill="white"/>
<path d="M205.729 32.5282L207.012 33.5436L207.911 31.9069L206.584 30.8695L205.729 32.5282Z" fill="white"/>
<path d="M192.961 61.3211L193.008 62.993C194.489 63.4277 196.123 63.7789 196.872 64.6088C193.394 65.6879 189.509 70.7826 187.269 65.7494C186.319 61.8776 181.775 62.9337 181.364 59.8622C180.208 64.6868 186.356 63.5901 186.943 66.9471L186.879 67.8022C185.428 65.6835 182.853 65.7253 182.985 63.589L182.423 65.1852C182.134 66.5639 183.752 67.0667 184.249 68.7726C182.999 67.9515 181.23 67.7802 180.929 65.7725L181.274 64.5726C179.583 65.4903 178.34 67.4828 177.08 68.1963C176.171 68.7111 175.079 68.6705 175.235 67.407L175.656 66.7692L176.141 65.2115C174.345 66.0447 172.835 67.5805 171.704 67.6661C170.575 67.7528 169.825 66.3905 170.154 64.8405C173.022 56.3098 162.27 53.2592 163.295 44.9196C160.368 53.538 170.561 56.8587 170.093 64.0369C169.627 66.7879 168.832 67.8889 170.468 69.0394C172.137 69.799 173.45 67.5969 175.141 67.0546C173.851 70.1755 175.371 70.7617 177.184 69.3566C179.066 67.9449 179.425 66.8845 180.567 66.3038C179.723 69.1832 182.367 69.4181 183.96 70.4489L184.805 67.9361C185.42 68.3456 186.036 68.754 186.602 69.8155C187.024 68.9351 187.153 67.8933 187.173 66.7912C188.007 70.2842 190.353 69.8824 192.57 68.7089C194.538 67.6672 195.613 66.1413 197.603 66.2379L197.656 64.7087C197.569 62.4594 195.045 62.0566 192.961 61.3222V61.3211Z" fill="white"/>
<path d="M191.677 64.6571L192.102 63.05L190.277 62.5264L189.834 64.1346L191.677 64.6571Z" fill="white"/>
<path d="M190.232 65.397L190.347 66.4322C189.904 67.5706 189.01 67.2193 188.689 65.9207C188.512 65.2027 188.283 64.2521 188.345 63.128C188.445 65.7351 189.506 66.9295 190.232 65.3959V65.397Z" fill="white"/>
<path d="M178.586 63.9722L179.738 62.7548L178.397 61.6208L177.237 62.8788L178.586 63.9722Z" fill="white"/>
<path d="M177.079 62.9117L175.928 64.1127L174.322 62.9622L175.506 61.7525L177.079 62.9117Z" fill="white"/>
<path d="M180.433 60.3572L180.891 59.3704C179.528 58.1047 174.612 61.9775 172.247 58.9225C171.79 58.1804 171.784 57.6008 172.206 56.2484C171.406 57.4482 171.287 58.3945 171.545 59.187C173.256 63.4046 179.066 59.0037 180.434 60.3561L180.433 60.3572Z" fill="white"/>
<path d="M175.734 58.3034L176.528 57.6019L177.237 58.3341L176.426 59.0048L175.734 58.3034Z" fill="white"/>
<path d="M175.023 57.4493L175.734 58.3034L174.942 59.0048L174.219 58.1003L175.023 57.4493Z" fill="white"/>
<path d="M184.245 57.6842C184.411 56.9334 184.395 56.3307 184.037 56.0003C187.662 55.0485 190.446 53.4612 192.692 51.4666C192.992 51.4677 193.165 51.673 193.24 52.0385C192.795 52.9398 192.025 53.9684 191.151 55.0365C191.792 54.807 192.421 54.301 193.036 53.5128C193.441 52.8245 193.534 52.1077 193.384 51.3678C193.117 50.5796 192.759 50.1427 192.102 50.8804C189.342 53.4118 186.002 54.8169 182.151 55.2231C182.067 55.2319 182.001 55.3021 181.998 55.3878L181.982 56.1562C181.98 56.244 182.045 56.3175 182.131 56.3285C182.934 56.4218 184.203 56.8972 184.246 57.6853L184.245 57.6842Z" fill="white"/>
<path d="M173.002 56.8467C173.551 56.1617 174.261 55.6753 175.306 55.5985C172.752 55.0145 169.987 53.1648 167.102 50.5818C171.94 53.4326 176.158 55.3614 178.995 55.2362C179.096 55.2319 179.153 55.346 179.093 55.4273C177.674 57.367 175.619 55.1331 173.003 56.8467H173.002Z" fill="white"/>
<path d="M170.715 59.2837C172.74 56.4679 167.962 55.0101 168.239 52.5029C166.165 55.0244 171.036 56.1551 170.715 59.2837Z" fill="white"/>
<path d="M163.108 52.5029L162.347 53.2801C162.652 55.2384 163.165 57.2298 161.764 58.9126C164.191 56.8752 163.402 54.6764 163.108 52.5039V52.5029Z" fill="white"/>
<path d="M167.009 60.8381L165.373 61.275L166.037 63.1192L167.639 62.7152L167.009 60.8381Z" fill="white"/>
<path d="M165.795 59.3649L165.471 60.0246C165.402 60.1662 165.291 60.2837 165.152 60.3562C163.617 61.1509 164.023 58.1036 165.584 56.4679C163.974 58.7919 164.767 60.3122 165.795 59.3649Z" fill="white"/>
<path d="M172.568 65.374L173.45 63.8876C171.86 61.455 163.846 68.1667 162.176 62.4079C161.78 61.1597 162.437 59.5548 164.467 57.0662C162.811 58.9467 161.956 60.4286 161.419 61.7525C160.268 65.1489 163.355 66.7517 166.198 66.0239C168.616 65.4036 171.362 63.982 172.568 65.374Z" fill="white"/>
<path d="M168.718 67.3872C167.111 67.6331 167.34 67.0601 169.093 65.8076L166.991 67.3872C166.558 68.1601 167.078 68.2391 167.991 68.0316L168.72 67.3872H168.718Z" fill="white"/>
<path d="M180.147 69.4675L179.661 70.3918C178.74 70.8441 178.125 70.8627 178.273 69.799L179.365 67.7835C178.321 69.9527 178.899 70.1228 180.147 69.4675Z" fill="white"/>
<path d="M209.389 50.5017L208.156 49.3666C206.329 49.4643 206.859 52.5292 204.297 52.5973C206.919 50.7443 207.862 50.9803 208.747 51.2887C207.498 52.5479 207.219 54.5897 206.13 56.031C205.159 57.3165 203.686 57.8171 201.815 55.9772L200.666 54.6039C199.309 53.2823 196.73 53.4809 197.15 55.5228C197.223 55.8817 197.382 56.2176 197.594 56.5162L198.336 57.5591C199.051 58.445 199.896 58.3264 200.875 57.2012C201.614 59.804 200.844 62.3727 199.047 61.6098C198.735 61.477 198.464 61.2651 198.24 61.0093C195.497 57.873 193.941 58.8248 190.469 59.3956C186.994 59.9654 183.079 60.2749 179.552 55.8883C186.087 66.3389 194.918 56.8543 198.407 61.6394C198.47 61.7272 198.533 61.8151 198.603 61.8974C200.567 64.2257 202.299 62.8777 202.182 60.7173C202.036 58.0333 201.165 55.5744 202.671 53.9442L201.255 52.0308C200.977 54.4832 199.754 57.0991 198.083 56.7588C198.081 54.784 200.187 54.5436 201.849 56.1737L203.483 57.7468C208.102 60.1893 207.683 54.335 210.213 52.2646L209.085 51.0933C207.449 49.2656 205.238 49.7925 202.673 51.763L204.012 52.8827C207.827 55.6523 207.459 50.3688 209.392 50.5017H209.389Z" fill="white"/>
<path d="M194.775 55.6369L196.486 55.0957L195.858 53.515L194.147 54.1429L194.775 55.6369Z" fill="white"/>
<path d="M186.918 56.5986C188.711 59.0795 194.605 54.5095 197.036 58.782C193.718 55.8762 187.973 60.5109 186.918 56.5986Z" fill="white"/>
<path d="M199.793 58.8819L200.342 59.793C200.266 60.9413 199.76 61.0851 198.745 60.0422L197.373 58.0322C198.805 59.939 199.748 60.5768 199.793 58.883V58.8819Z" fill="white"/>
<path d="M202.45 58.782L203.186 60.1168C203.618 60.2771 203.775 59.9094 203.797 59.2815L204.284 60.1168C204.369 61.3046 203.647 61.2146 203.211 60.4407L202.45 58.782Z" fill="white"/>
<path d="M199.299 63.0435C199.311 63.8744 199.078 64.3135 198.057 63.4935L197.221 62.2948L198.151 63.959C198.723 64.9777 199.98 65.1347 199.793 63.959L199.299 63.0435Z" fill="white"/>
<path d="M200.184 48.4082L202.052 47.9472L201.75 46.2204L199.944 46.7627L200.184 48.4082Z" fill="white"/>
<path d="M194.379 50.1976C195.322 49.529 196.236 49.3973 197.1 50.1745C196.576 49.5181 196.081 49.1459 195.601 48.9373C198.568 45.6112 198.236 40.3046 199.401 41.2707C199.672 41.9963 199.935 42.9941 200.195 44.1303C200.419 42.6977 200.248 41.611 199.496 41.0346C196.718 38.4747 198.786 45.3609 193.717 49.3841C193.65 49.4368 193.639 49.5345 193.694 49.5993L194.175 50.1712C194.226 50.2316 194.314 50.2415 194.379 50.1954V50.1976Z" fill="white"/>
<path d="M192.977 49.9561C199.531 57.6842 205.288 44.576 211.391 46.2204C206.019 40.5879 200.379 55.6369 192.977 49.9561Z" fill="white"/>
<path d="M209.913 49.9561C211.299 45.4926 213.166 42.8514 210.435 39.7898C206.338 37.2265 201.966 40.3914 202.915 43.2334C206.427 43.3926 206.05 40.0796 208.137 40.7426L209.489 41.8931C207.51 40.949 206.427 46.2204 202.867 43.565L201.992 42.8086C200.635 41.2268 201.912 38.972 203.999 38.1311C205.989 37.3286 208.719 37.8578 210.533 39.6251C212.613 41.4057 213.531 43.2752 213.03 45.2566C212.426 46.8692 211.282 48.4247 209.912 49.9572L209.913 49.9561Z" fill="white"/>
<path d="M211.925 36.8401L212.932 37.0751C213.949 38.1509 213.808 38.7843 212.283 38.8875L210.022 38.4176C212.194 38.7283 213.398 38.512 211.925 36.8401Z" fill="white"/>
<path d="M198.899 38.2101L198.298 37.7699C198.268 37.7469 198.248 37.7129 198.246 37.6744C198.111 35.7556 197.88 33.649 198.807 33.8104C199.532 34.1836 199.859 34.6414 200.072 35.1222L199.417 34.4064C198.855 34.8071 199.016 36.5174 199.105 38.0982C199.112 38.2079 198.987 38.2749 198.899 38.2101Z" fill="white"/>
<path d="M157.636 56.8499L156.041 57.3341L156.086 57.6886C154.273 56.2912 154.951 55.7072 155.951 53.9146C159.303 47.5432 154.787 38.6888 162.28 34.6929C152.747 37.7677 157.39 46.9965 155.014 53.3426C153.678 56.0925 151.784 56.4899 155.642 58.9115L157.284 60.1344L158.941 59.5866C158.129 59.0433 157.681 58.1431 157.637 56.8488L157.636 56.8499Z" fill="white"/>
<path d="M157.058 55.9344L158.7 55.4832C158.944 52.83 153.512 54.0386 150.364 48.5927C149.157 46.5025 148.582 42.8415 148.31 38.8688C147.855 40.8974 147.735 41.7932 147.755 45.4783C147.759 46.2995 147.917 47.1151 148.236 47.8725C150.948 54.3372 157.496 53.3306 157.06 55.9333L157.058 55.9344Z" fill="white"/>
<path d="M150.013 38.0971C145.122 40.5231 154.736 47.5311 153.334 50.674L155.035 50.5335C155.791 46.1908 148.801 42.7471 150.588 39.0774C150.837 38.5658 151.27 38.1629 151.798 37.9544C152.71 37.5943 153.942 37.5471 155.154 38.2057C154.146 37.5043 152.91 37.355 151.007 37.7579C150.663 37.8303 150.327 37.9401 150.012 38.096L150.013 38.0971Z" fill="white"/>
<path d="M161.36 36.2902L162.207 36.8698C162.176 38.4176 162.75 41.0676 161.747 40.848C161.253 40.7613 160.813 40.2421 160.394 39.5593L161.13 40.185C161.716 39.8205 161.398 37.7974 161.361 36.2902H161.36Z" fill="white"/>
<path d="M164.371 47.7562L165.452 47.6157C165.924 48.2611 166.412 48.9077 166.561 49.5367C166.59 49.6542 166.505 49.7705 166.386 49.787L165.053 49.9736L165.409 49.8419C165.492 49.8112 165.538 49.7211 165.516 49.6344C165.331 48.8803 164.88 48.2996 164.371 47.7562Z" fill="white"/>
<path d="M157.705 61.9786C166.835 59.2837 155.82 47.7364 162.709 41.0818C153.689 44.9207 163.659 58.0311 157.705 61.9786Z" fill="white"/>
<path d="M167.498 13.3384L167.451 11.6665C165.97 11.2318 164.335 10.8805 163.586 10.0506C167.064 8.97155 170.949 3.87689 173.19 8.91007C174.139 12.7818 178.683 11.7258 179.095 14.7973C180.251 9.97269 174.102 11.0693 173.516 7.71243L173.579 6.85728C175.031 8.97594 177.605 8.93422 177.473 11.0704L178.035 9.47432C178.324 8.09554 176.706 7.59277 176.21 5.88687C177.459 6.70798 179.229 6.87923 179.529 8.88702L179.185 10.0869C180.875 9.16914 182.118 7.17672 183.378 6.46319C184.287 5.94834 185.38 5.98896 185.224 7.25247L184.802 7.89026L184.317 9.44797C186.113 8.61478 187.623 7.07902 188.754 6.9934C189.884 6.90668 190.634 8.26899 190.304 9.81901C187.437 18.3496 198.189 21.4003 197.163 29.7399C200.09 21.1215 189.897 17.8008 190.366 10.6226C190.831 7.8716 191.626 6.77056 189.99 5.62011C188.322 4.86047 187.009 7.06256 185.317 7.60485C186.607 4.48394 185.088 3.89774 183.274 5.30286C181.392 6.71457 181.033 7.775 179.892 8.35571C180.735 5.47631 178.091 5.24139 176.498 4.2106L175.653 6.72335C175.038 6.31389 174.423 5.90553 173.856 4.844C173.435 5.7244 173.305 6.76617 173.285 7.86831C172.451 4.37526 170.105 4.77704 167.889 5.95054C165.92 6.9923 164.845 8.51817 162.855 8.42157L162.802 9.95074C162.889 12.2 165.413 12.6029 167.498 13.3373V13.3384Z" fill="white"/>
<path d="M168.78 10.0023L168.355 11.6105L170.18 12.1331L170.624 10.5249L168.78 10.0023Z" fill="white"/>
<path d="M170.226 9.26245L170.11 8.22727C170.554 7.0889 171.447 7.44018 171.768 8.73882C171.946 9.45675 172.174 10.4074 172.113 11.5315C172.013 8.92434 170.951 7.72999 170.226 9.26355V9.26245Z" fill="white"/>
<path d="M181.871 10.6873L180.719 11.9048L182.061 13.0387L183.22 11.7807L181.871 10.6873Z" fill="white"/>
<path d="M183.378 11.7478L184.529 10.5468L186.135 11.6984L184.952 12.907L183.378 11.7478Z" fill="white"/>
<path d="M180.024 14.3022L179.566 15.2891C180.929 16.5548 185.845 12.682 188.21 15.737C188.667 16.4791 188.673 17.0587 188.251 18.4111C189.051 17.2113 189.17 16.265 188.912 15.4724C187.202 11.2549 181.391 15.6558 180.023 14.3033L180.024 14.3022Z" fill="white"/>
<path d="M184.723 16.3561L183.929 17.0576L183.22 16.3254L184.031 15.6547L184.723 16.3561Z" fill="white"/>
<path d="M185.435 17.2102L184.723 16.3561L185.516 15.6547L186.238 16.5592L185.435 17.2102Z" fill="white"/>
<path d="M176.671 16.8764C176.486 17.6229 176.488 18.2267 176.839 18.5648C173.193 19.4309 170.373 20.9535 168.08 22.8943C167.781 22.8866 167.612 22.677 167.547 22.3103C168.012 21.4189 168.807 20.4101 169.706 19.3629C169.06 19.5769 168.42 20.0676 167.786 20.8415C167.366 21.5199 167.255 22.2346 167.388 22.9788C167.636 23.7736 167.83 24.1447 168.657 23.4959C171.484 21.0238 174.864 19.6966 178.734 19.3848C178.805 19.3793 178.86 19.3233 178.863 19.2531L178.9 18.4309C178.904 18.3595 178.852 18.2958 178.781 18.2871C177.982 18.1828 176.696 17.6756 176.672 16.8775L176.671 16.8764Z" fill="white"/>
<path d="M187.526 17.5933C186.963 18.2662 186.241 18.736 185.195 18.7909C187.736 19.4298 190.459 21.3399 193.288 23.9855C188.529 21.0391 184.365 19.0215 181.527 19.0709C181.415 19.0731 181.354 18.9446 181.422 18.8568C182.882 16.9873 184.882 19.2421 187.526 17.5922V17.5933Z" fill="white"/>
<path d="M189.742 15.3758C187.718 18.1916 192.495 19.6494 192.219 22.1566C194.292 19.6351 189.422 18.5044 189.742 15.3758Z" fill="white"/>
<path d="M197.35 22.1566L198.11 21.3794C197.805 19.421 197.292 17.4297 198.693 15.7469C196.266 17.7843 197.055 19.9831 197.35 22.1555V22.1566Z" fill="white"/>
<path d="M193.449 13.8225L195.084 13.3856L194.42 11.5403L192.818 11.9443L193.449 13.8225Z" fill="white"/>
<path d="M194.663 15.2946L194.986 14.6349C195.056 14.4932 195.166 14.3758 195.306 14.3033C196.841 13.5086 196.434 16.5559 194.873 18.1916C196.484 15.8676 195.69 14.3472 194.663 15.2946Z" fill="white"/>
<path d="M187.889 9.28551L187.007 10.7719C188.597 13.2045 196.611 6.49283 198.282 12.2516C198.677 13.4998 198.02 15.1047 195.991 17.5933C197.646 15.7128 198.501 14.2309 199.038 12.907C200.19 9.51055 197.103 7.90783 194.259 8.63564C191.841 9.25587 189.095 10.6775 187.889 9.28551Z" fill="white"/>
<path d="M191.739 7.27223C193.346 7.02634 193.118 7.59936 191.365 8.8519L193.467 7.27223C193.9 6.49942 193.379 6.42038 192.467 6.62785L191.738 7.27223H191.739Z" fill="white"/>
<path d="M180.31 5.19199L180.796 4.26769C181.717 3.81541 182.332 3.79675 182.184 4.86047L181.093 6.87594C182.137 4.70679 181.558 4.53663 180.31 5.19199Z" fill="white"/>
<path d="M151.069 24.1578L152.302 25.2929C154.129 25.1952 153.599 22.1303 156.161 22.0622C153.539 23.9152 152.596 23.6792 151.711 23.3707C152.961 22.1116 153.239 20.0698 154.328 18.6285C155.299 17.343 156.772 16.8424 158.643 18.6823L159.792 20.0555C161.149 21.3772 163.728 21.1785 163.308 19.1367C163.235 18.7778 163.076 18.4418 162.864 18.1433L162.122 17.1004C161.407 16.2145 160.562 16.3331 159.584 17.4583C158.844 14.8555 159.614 12.2868 161.411 13.0497C161.723 13.1825 161.994 13.3944 162.218 13.6502C164.962 16.7864 166.517 15.8347 169.989 15.2639C173.462 14.693 177.379 14.3846 180.906 18.7712C174.371 8.32058 165.54 17.8051 162.051 13.0201C161.988 12.9322 161.925 12.8444 161.855 12.7621C159.891 10.4338 158.159 11.7818 158.276 13.9422C158.422 16.6262 159.293 19.0851 157.788 20.7153L159.203 22.6287C159.481 20.1763 160.704 17.5604 162.375 17.9007C162.377 19.8755 160.271 20.1159 158.609 18.4858L156.975 16.9127C152.356 14.4702 152.775 20.3245 150.245 22.3948L151.373 23.5661C153.009 25.3939 155.22 24.867 157.785 22.8965L156.446 21.7768C152.631 19.0072 152.999 24.2907 151.066 24.1578H151.069Z" fill="white"/>
<path d="M165.682 19.0226L163.973 19.5637L164.599 21.1445L166.31 20.5166L165.682 19.0226Z" fill="white"/>
<path d="M173.539 18.0609C171.746 15.58 165.852 20.1499 163.421 15.8775C166.739 18.7832 172.484 14.1485 173.539 18.0609Z" fill="white"/>
<path d="M160.664 15.7776L160.115 14.8665C160.191 13.7182 160.697 13.5744 161.712 14.6173L163.085 16.6273C161.652 14.7205 160.709 14.0827 160.664 15.7765V15.7776Z" fill="white"/>
<path d="M158.007 15.8775L157.272 14.5426C156.839 14.3824 156.682 14.7501 156.66 15.378L156.174 14.5426C156.088 13.3549 156.811 13.4449 157.247 14.2188L158.007 15.8775Z" fill="white"/>
<path d="M161.158 11.616C161.146 10.785 161.38 10.3459 162.401 11.166L163.236 12.3647L162.306 10.7005C161.734 9.6818 160.477 9.52482 160.664 10.7005L161.158 11.616Z" fill="white"/>
<path d="M160.273 26.2513L158.407 26.7134L158.708 28.4391L160.513 27.8968L160.273 26.2513Z" fill="white"/>
<path d="M166.146 24.6266C165.205 25.2732 164.299 25.3884 163.448 24.6101C163.966 25.271 164.458 25.6475 164.936 25.8594C161.941 29.1592 162.227 34.469 161.071 33.492C160.807 32.7642 160.552 31.7631 160.302 30.6258C160.066 32.0562 160.227 33.144 160.975 33.7269C163.726 36.3066 161.73 29.4336 166.796 25.4499C166.878 25.3851 166.894 25.2655 166.826 25.1842L166.394 24.6617C166.333 24.5882 166.226 24.5717 166.147 24.6255L166.146 24.6266Z" fill="white"/>
<path d="M167.48 24.7034C160.926 16.9753 155.169 30.0835 149.066 28.4391C154.438 34.0716 160.078 19.0226 167.48 24.7034Z" fill="white"/>
<path d="M150.544 24.7034C149.158 29.1669 147.292 31.8081 150.022 34.8697C154.119 37.4329 158.491 34.2681 157.542 31.426C154.03 31.2669 154.408 34.5799 152.321 33.9168L150.968 32.7664C152.947 33.7105 154.03 28.4391 157.59 31.0945L158.465 31.8509C159.822 33.4327 158.545 35.6875 156.458 36.5284C154.468 37.3308 151.738 36.8017 149.924 35.0343C147.844 33.256 146.925 31.3854 147.426 29.404C148.03 27.7914 149.174 26.2359 150.544 24.7034Z" fill="white"/>
<path d="M152.814 38.6767L151.765 40.2706L153.048 41.3398L154.119 39.7459L152.814 38.6767Z" fill="white"/>
<path d="M154.728 42.1324L153.445 41.1159L152.546 42.7526L153.873 43.79L154.728 42.1324Z" fill="white"/>
<path d="M148.533 37.8193L147.527 37.5844C146.509 36.5086 146.651 35.8752 148.175 35.772L150.436 36.2419C148.264 35.9312 147.06 36.1475 148.533 37.8193Z" fill="white"/>
<path d="M202.821 17.8095L204.416 17.3254L204.371 16.9709C206.185 18.3683 205.506 18.9523 204.506 20.7449C201.154 27.1163 205.67 35.9707 198.177 39.9665C207.71 36.8917 203.067 27.6629 205.444 21.3169C206.78 18.567 208.673 18.1696 204.816 15.748L203.173 14.5251L201.516 15.0728C202.328 15.6162 202.776 16.5164 202.82 17.8106L202.821 17.8095Z" fill="white"/>
<path d="M203.4 18.7262L201.757 19.1773C201.514 21.8306 206.946 20.622 210.093 26.0679C211.3 28.158 211.876 31.819 212.147 35.7918C212.602 33.7632 212.722 32.8674 212.702 29.1822C212.698 28.3611 212.54 27.5455 212.222 26.788C209.509 20.3234 202.962 21.33 203.398 18.7273L203.4 18.7262Z" fill="white"/>
<path d="M210.444 36.5624C215.335 34.1364 205.721 27.1283 207.123 23.9855L205.422 24.126C204.667 28.4687 211.656 31.9123 209.869 35.5821C209.62 36.0937 209.187 36.4966 208.659 36.7051C207.747 37.0652 206.515 37.1124 205.303 36.4537C206.311 37.1552 207.547 37.3045 209.451 36.9016C209.794 36.8292 210.13 36.7194 210.445 36.5635L210.444 36.5624Z" fill="white"/>
<path d="M196.272 27.2491L195.191 27.3896C194.718 26.7441 194.231 26.0976 194.082 25.4686C194.053 25.3511 194.138 25.2347 194.257 25.2183L195.59 25.0316L195.234 25.1634C195.151 25.1941 195.105 25.2841 195.127 25.3709C195.312 26.125 195.762 26.7057 196.272 27.2491Z" fill="white"/>
<path d="M202.752 12.6808C193.623 15.3758 204.637 26.9231 197.748 33.5776C206.769 29.7388 196.798 16.6284 202.752 12.6808Z" fill="white"/>
</g>
<rect x="165.142" y="22.4444" width="30.2281" height="30.2281" rx="15.1141" fill="white"/>
<rect x="165.142" y="22.4444" width="30.2281" height="30.2281" rx="15.1141" stroke="#C59714" stroke-width="1.04235"/>
<g clip-path="url(#clip2_12_8886)">
<path d="M189.883 31.4822C189.447 33.7596 194.498 36.1255 193.226 39.9802L192.98 41.486L191.63 40.4256C191.6 41.1897 191.348 42.2949 191.063 43.4533C190.153 43.0601 187.044 42.0381 187.551 38.3976C186.285 38.3816 185.553 41.7503 184.812 43.5673C183.945 46.4831 181.394 45.9044 181.637 42.4302L181.755 41.031C181.763 40.9308 181.878 40.8796 181.958 40.9404C184.293 42.6903 185.744 43.5897 185.733 47.9517L185.301 49.579C184.145 47.2174 178.987 50.4188 179.115 42.5144C178.764 35.3465 171.082 34.3287 173.464 25.8595C172.67 33.3067 179.67 34.0346 179.637 42.1318C179.814 47.6138 183.711 46.4352 185.464 47.617C185.208 44.941 183.647 43.6313 181.881 42.5357C182.623 44.4263 183.877 44.0448 184.336 43.011C185.328 40.999 185.671 37.0729 187.614 36.7404C187.71 36.7244 187.792 36.8065 187.783 36.9024C187.419 40.6953 190.634 41.5244 191.252 41.7876C191.31 41.4604 191.337 41.2601 191.358 41.0821C191.383 40.8658 191.305 40.6505 191.146 40.5013C189.895 39.328 188.233 38.2484 189.205 35.3038C188.839 37.4182 192.247 38.859 193.107 39.8043C192.789 36.361 188.425 35.3486 189.883 31.4833V31.4822Z" fill="#5064BA"/>
<path d="M181.19 43.1379L181.252 41.5095C180.039 41.2398 178.96 42.0253 177.423 44.0533C175.287 46.5183 172.933 48.2725 168.607 43.5737C172.044 48.947 175.186 49.2018 178.088 45.3045C179.207 43.6697 180.24 42.9588 181.189 43.1389L181.19 43.1379Z" fill="#5064BA"/>
<path d="M177.772 48.9737C178.886 48.3812 179.944 49.0057 180.997 49.7239C179.572 49.8369 177.272 49.4597 174.776 48.9737C176.908 50.0533 179.058 50.9048 181.327 50.3655C181.369 50.3559 181.407 50.3293 181.43 50.293L181.952 49.5172C182.004 49.4394 181.996 49.3371 181.934 49.2668C181.154 48.3716 179.896 47.7332 178.881 48.0241C178.624 48.0977 178.399 48.2511 178.224 48.4526L177.772 48.9726V48.9737Z" fill="#5064BA"/>
<path d="M181.064 39.5731L182.529 40.1496L182.947 38.5457L181.504 38.0033L181.064 39.5731Z" fill="#5064BA"/>
<path d="M180.342 39.8331V38.2292C178.294 37.5621 173.331 42.4643 170.283 41.9464C168.785 41.6917 166.937 40.4491 167.746 35.9603C166.573 41.0192 168.394 42.9993 170.052 43.4075C173.231 44.1908 178.646 39.2885 180.342 39.8331Z" fill="#5064BA"/>
<path d="M173.831 39.4249L174.829 38.1205L173.157 37.1848L172.223 38.4903L173.831 39.4249Z" fill="#5064BA"/>
<path d="M171.247 39.8384L172.223 38.4903L170.509 37.3596L169.553 38.599L171.247 39.8384Z" fill="#5064BA"/>
<path d="M169.749 34.2275L169.988 33.0744C170.867 33.6328 171.59 34.5046 171.986 36.0456C172.021 36.1841 172.036 36.3269 172.026 36.4697L171.977 37.2317C171.977 37.2466 171.996 37.2541 172.005 37.2402C172.312 36.7063 172.524 35.9763 172.671 35.111C173.151 32.3977 170.784 31.3725 170.601 29.6982C171.341 28.3384 172.484 29.1909 172.18 31.2371C173.056 28.332 171.334 26.8826 170.503 29.3167C169.855 31.9767 172.494 32.5064 172.529 35.1856L172.252 36.0168C172.161 33.9376 170.958 32.4371 169.046 31.3064C169.001 31.2797 168.945 31.3074 168.938 31.3586L168.822 32.2069C168.816 32.2421 168.831 32.2783 168.858 32.3007C169.319 32.6886 169.709 33.1895 169.748 34.2264L169.749 34.2275Z" fill="#5064BA"/>
<path d="M181.98 25.3906L182.068 24.5711C182.075 24.5082 182.133 24.4645 182.196 24.4762C184.113 24.8471 187.448 25.2574 187.26 28.7583C186.256 25.8862 184.016 25.9427 182.057 25.4983C182.008 25.4876 181.975 25.4407 181.98 25.3906Z" fill="#5064BA"/>
<path d="M177.609 34.4577C177.219 31.6016 173.516 30.6957 174.427 27.5817C174.533 30.6328 178.261 30.8961 177.609 34.4577Z" fill="#5064BA"/>
<path d="M176.018 28.7966C176.003 28.4663 176.018 28.1892 176.115 28.0592C178.085 29.9156 179.655 32.3923 179.465 35.6715L179.306 36.1543C179.27 36.264 179.248 36.377 179.238 36.4921L179.186 37.1475C179.183 37.1816 179.228 37.1955 179.245 37.1656C179.953 35.8878 181.031 34.3181 181.263 32.6758C181.876 28.8851 178.492 27.8098 177.929 25.8574C179.057 24.9238 181.187 25.576 181.735 29.3455C181.739 29.3689 181.773 29.3657 181.772 29.3423L181.688 26.9124C181.68 26.6961 181.638 26.4808 181.557 26.2794C180.864 24.5359 178.985 24.1725 178.168 24.7618C177.988 24.8919 177.877 25.0965 177.845 25.316L177.744 25.9981C177.727 26.1121 177.718 26.2272 177.723 26.3423C177.804 28.6901 181.138 29.0428 181.147 32.403C181.147 32.5788 181.121 32.7536 181.071 32.922C180.757 33.9781 180.212 34.8435 179.61 35.664C180.285 31.1092 177.263 27.6467 175.448 26.5085C175.388 26.4712 175.309 26.5085 175.3 26.5778L175.204 27.3185C175.197 27.3782 175.22 27.4357 175.265 27.4762C175.589 27.7682 175.837 28.2137 176.017 28.7966H176.018Z" fill="#5064BA"/>
<path d="M189.419 30.6893C189.507 28.7721 187.936 29.0172 187.256 30.8939C186.756 32.5096 186.396 34.3191 185.017 34.722C185.578 35.4424 185.793 36.539 185.673 38.0022C184.669 36.8683 182.064 37.2552 182.067 34.1284C182.027 32.1451 184.098 30.5135 183.876 28.284C184.43 31.2606 182.753 31.9106 182.241 34.1902C182.661 35.9838 184.246 35.89 185.476 36.7937C185.311 35.4744 184.13 35.0577 183.154 34.4577C183.108 34.4289 183.079 34.3767 183.079 34.3213V33.4985C183.079 33.4485 183.132 33.4165 183.177 33.4378C185.953 34.7753 186.68 31.6868 186.815 31.1508C187.131 29.743 187.603 28.559 188.52 28.3746C188.638 28.3512 188.762 28.3501 188.879 28.3746C189.614 28.5313 189.82 29.3966 189.418 30.6883L189.419 30.6893Z" fill="#5064BA"/>
<path d="M189.05 45.9204C188.734 46.7069 187.982 47.0789 187.64 46.3616L187.84 44.6757C187.927 42.9695 186.267 43.5876 186.024 41.1567L185.917 42.6689C185.917 43.9531 187.527 44.129 187.661 45.5389C187.279 46.8348 187.262 47.6916 187.968 47.6799C188.823 47.6096 189.085 46.919 189.05 45.9204Z" fill="#5064BA"/>
</g>
<defs>
<clipPath id="clip0_12_8886">
<rect width="90.4799" height="13.2031" fill="white" transform="translate(45.0981 14.6268)"/>
</clipPath>
<clipPath id="clip1_12_8886">
<rect width="66.7103" height="66.7103" fill="white" transform="translate(146.874 3.97459)"/>
</clipPath>
<clipPath id="clip2_12_8886">
<rect width="26.0587" height="26.0587" fill="white" transform="translate(167.373 24.4741)"/>
</clipPath>
</defs>
</svg>
