<svg width="357" height="362" viewBox="0 0 357 362" fill="none" xmlns="http://www.w3.org/2000/svg">
<rect width="357" height="362" fill="#95D3FF"/>
<g clip-path="url(#clip0_1_17115)">
<path d="M188.207 20.3566C188.207 17.8534 188.422 15.3989 188.819 13H179.8C179.473 15.4059 179.292 17.8604 179.292 20.3566C179.292 49.7136 202.754 73.5913 231.591 73.5913C242.036 73.5913 258.168 70.7961 257.132 56.7295C257.049 55.5752 256.68 53.3571 254.914 51.5423C253.141 49.7136 250.081 48.4898 247.369 49.5328C244.991 50.4506 243.899 52.7313 243.663 53.2111C242.536 55.5544 243.385 56.9103 242.112 59.8376C241.987 60.1227 241.368 61.7845 240.249 62.8067C237.335 65.4907 232.46 64.6771 228.678 64.4129C223.518 64.0513 218.442 62.7719 213.727 60.5955C204.555 56.361 196.975 48.8514 192.56 39.6312C189.695 33.6444 188.2 27.011 188.2 20.3497L188.207 20.3566Z" fill="#ECF7FF"/>
<path d="M337.775 171.904C340.237 171.904 342.65 171.682 345 171.279V180.464C342.636 180.798 340.23 180.986 337.775 180.986C308.938 180.986 285.476 157.101 285.476 127.751C285.476 117.119 288.223 100.702 302.04 101.752C303.173 101.836 305.35 102.218 307.137 104.012C308.931 105.813 310.134 108.935 309.112 111.689C308.208 114.108 305.969 115.221 305.503 115.457C303.201 116.605 301.873 115.742 298.994 117.036C298.716 117.161 297.082 117.794 296.073 118.927C293.438 121.896 294.238 126.854 294.495 130.706C294.849 135.963 296.108 141.129 298.243 145.927C302.401 155.265 309.779 162.983 318.84 167.475C324.723 170.396 331.238 171.911 337.782 171.911L337.775 171.904Z" fill="#ECF7FF"/>
<path d="M188.207 342.532C188.207 345.035 188.422 347.49 188.819 349.889H179.8C179.473 347.483 179.292 345.028 179.292 342.532C179.292 313.175 202.754 289.297 231.591 289.297C242.036 289.297 258.168 292.093 257.132 306.159C257.049 307.313 256.68 309.532 254.914 311.346C253.141 313.175 250.081 314.399 247.369 313.356C244.991 312.438 243.899 310.157 243.663 309.678C242.536 307.334 243.385 305.978 242.112 303.051C241.987 302.766 241.368 301.104 240.249 300.082C237.335 297.398 232.46 298.212 228.678 298.476C223.518 298.837 218.442 300.117 213.727 302.293C204.555 306.528 196.975 314.037 192.56 323.257C189.695 329.244 188.2 335.878 188.2 342.539L188.207 342.532Z" fill="#ECF7FF"/>
<path d="M337.775 190.984C340.237 190.984 342.65 191.207 345 191.61V182.425C342.636 182.091 340.23 181.903 337.775 181.903C308.938 181.903 285.476 205.788 285.476 235.138C285.476 245.77 288.223 262.186 302.04 261.136C303.173 261.053 305.35 260.671 307.137 258.877C308.931 257.076 310.134 253.954 309.112 251.2C308.208 248.78 305.969 247.668 305.503 247.431C303.201 246.284 301.873 247.146 298.994 245.853C298.716 245.728 297.082 245.095 296.073 243.962C293.438 240.993 294.238 236.035 294.495 232.183C294.849 226.926 296.108 221.76 298.243 216.962C302.401 207.624 309.779 199.905 318.84 195.414C324.723 192.493 331.238 190.977 337.782 190.977L337.775 190.984Z" fill="#ECF7FF"/>
<path d="M169.828 20.4609C169.828 17.9577 169.613 15.5031 169.216 13.1042H178.235C178.562 15.5101 178.743 17.9646 178.743 20.4609C178.743 49.8178 155.281 73.6955 126.444 73.6955C115.999 73.6955 99.8664 70.9003 100.903 56.8337C100.986 55.6795 101.355 53.4614 103.121 51.6465C104.894 49.8178 107.954 48.594 110.666 49.637C113.044 50.5549 114.136 52.8356 114.372 53.3153C115.498 55.6586 114.65 57.0145 115.923 59.9419C116.048 60.227 116.667 61.8888 117.786 62.9109C120.7 65.5949 125.574 64.7814 129.357 64.5172C134.517 64.1556 139.593 62.8762 144.308 60.6998C153.48 56.4652 161.059 48.9556 165.475 39.7355C168.34 33.7487 169.828 27.1152 169.828 20.4539V20.4609Z" fill="#ECF7FF"/>
<path d="M20.2597 172.016C17.7981 172.016 15.3852 171.793 13.0348 171.39V180.575C15.3991 180.909 17.8051 181.097 20.2597 181.097C49.097 181.097 72.5589 157.212 72.5589 127.862C72.5589 117.23 69.8122 100.814 55.9951 101.864C54.8616 101.947 52.6851 102.329 50.898 104.123C49.1039 105.924 47.9009 109.046 48.9231 111.8C49.8271 114.22 52.0662 115.332 52.5321 115.569C54.8338 116.716 56.162 115.854 59.0408 117.147C59.319 117.272 60.9531 117.905 61.9614 119.038C64.5969 122.007 63.7972 126.965 63.5399 130.817C63.1853 136.074 61.9266 141.24 59.7918 146.038C55.6335 155.376 48.2556 163.095 39.1948 167.586C33.3119 170.507 26.7963 172.023 20.2528 172.023L20.2597 172.016Z" fill="#ECF7FF"/>
<path d="M169.828 342.643C169.828 345.147 169.613 347.601 169.216 350H178.235C178.562 347.594 178.743 345.14 178.743 342.643C178.743 313.286 155.281 289.409 126.444 289.409C115.999 289.409 99.8664 292.204 100.903 306.271C100.986 307.425 101.355 309.643 103.121 311.458C104.894 313.286 107.954 314.51 110.666 313.467C113.044 312.549 114.136 310.269 114.372 309.789C115.498 307.446 114.65 306.09 115.923 303.162C116.048 302.877 116.667 301.215 117.786 300.193C120.7 297.509 125.574 298.323 129.357 298.587C134.517 298.949 139.593 300.228 144.308 302.404C153.48 306.639 161.059 314.149 165.475 323.369C168.34 329.356 169.828 335.989 169.828 342.65V342.643Z" fill="#ECF7FF"/>
<path d="M20.2597 191.089C17.7981 191.089 15.3852 191.311 13.0348 191.714V182.529C15.3991 182.195 17.8051 182.008 20.2597 182.008C49.097 182.008 72.5589 205.892 72.5589 235.242C72.5589 245.874 69.8122 262.291 55.9951 261.241C54.8616 261.157 52.6851 260.775 50.898 258.981C49.1039 257.18 47.9009 254.058 48.9231 251.304C49.8271 248.885 52.0662 247.772 52.5321 247.536C54.8338 246.388 56.162 247.251 59.0408 245.957C59.319 245.832 60.9531 245.199 61.9614 244.066C64.5969 241.097 63.7972 236.139 63.5399 232.287C63.1853 227.03 61.9266 221.864 59.7918 217.066C55.6335 207.728 48.2556 200.01 39.1948 195.518C33.3119 192.597 26.7963 191.082 20.2528 191.082L20.2597 191.089Z" fill="#ECF7FF"/>
<path d="M310.495 14.787C309.362 15.4337 305.211 17.7909 305.155 21.4483C305.092 25.4812 310.043 28.1096 310.975 28.6033C315.794 31.1621 320.78 29.9661 323.826 29.243C330.223 27.7202 334.694 24.1601 337.198 21.7264C334.966 19.404 330.62 15.6075 324.146 13.9804C321.301 13.2642 315.669 11.8458 310.495 14.787Z" fill="#ACDDFF"/>
<path d="M329.333 48.0309C329.778 48.9905 332.157 54.129 336.127 54.2333C339.729 54.3306 342.233 50.2281 342.921 49.1017C346.043 43.9841 344.882 38.2198 344.298 35.3063C342.97 28.6798 339.416 24.1115 337.226 21.7543C334.722 24.1879 331.03 28.5616 329.25 34.9795C328.402 38.032 327.018 43.0384 329.333 48.0309Z" fill="#ACDDFF"/>
<path d="M303.855 44.5751C303.521 45.5833 301.734 50.9582 304.529 53.823C307.067 56.4235 311.671 55.2137 312.929 54.8869C318.673 53.3849 321.775 48.4064 323.332 45.8962C326.893 40.1736 327.442 34.3884 327.47 31.1482C324 31.1482 318.353 31.7184 312.686 35.1046C309.995 36.7178 305.579 39.3601 303.841 44.582L303.855 44.5751Z" fill="#ACDDFF"/>
<path d="M47.5045 15.0026C48.638 15.6493 52.7894 18.0064 52.845 21.6639C52.9076 25.6968 47.9565 28.3252 47.0247 28.8189C42.2058 31.3777 37.2199 30.1817 34.1742 29.4586C27.7767 27.9358 23.3055 24.3757 20.8021 21.942C23.0343 19.6196 27.3804 15.8231 33.8543 14.196C36.6984 13.4798 42.3309 12.0613 47.5045 15.0026Z" fill="#ACDDFF"/>
<path d="M28.6668 48.2534C28.2217 49.213 25.8435 54.3515 21.8729 54.4558C18.2709 54.5532 15.7675 50.4507 15.0791 49.3242C11.9569 44.2066 13.1182 38.4423 13.7023 35.5288C15.0305 28.9023 18.5838 24.334 20.7743 21.9768C23.2776 24.4105 26.97 28.7841 28.7502 35.202C29.5986 38.2545 30.9824 43.2609 28.6668 48.2534Z" fill="#ACDDFF"/>
<path d="M54.1384 44.7976C54.4722 45.8058 56.2593 51.1808 53.4639 54.0455C50.9257 56.6461 46.3224 55.4362 45.0637 55.1094C39.3199 53.6075 36.2255 48.6289 34.6609 46.1118C31.1006 40.3892 30.5513 34.604 30.5234 31.3638C33.9934 31.3638 39.6398 31.9339 45.3071 35.3202C47.9982 36.9334 52.4139 39.5756 54.1523 44.7976H54.1384Z" fill="#ACDDFF"/>
<path d="M310.495 348.011C309.362 347.365 305.211 345.008 305.155 341.35C305.092 337.317 310.043 334.689 310.975 334.195C315.794 331.636 320.78 332.832 323.826 333.555C330.223 335.078 334.694 338.638 337.198 341.072C334.966 343.394 330.62 347.191 324.146 348.818C321.301 349.534 315.669 350.953 310.495 348.011Z" fill="#ACDDFF"/>
<path d="M329.333 314.768C329.778 313.808 332.157 308.669 336.127 308.565C339.729 308.468 342.233 312.57 342.921 313.697C346.043 318.807 344.882 324.579 344.298 327.492C342.97 334.119 339.416 338.687 337.226 341.044C334.722 338.611 331.03 334.237 329.25 327.819C328.402 324.766 327.018 319.76 329.333 314.768Z" fill="#ACDDFF"/>
<path d="M303.855 318.223C303.521 317.215 301.734 311.84 304.529 308.975C307.067 306.375 311.671 307.585 312.929 307.911C318.673 309.413 321.775 314.392 323.332 316.902C326.893 322.625 327.442 328.41 327.47 331.65C324 331.65 318.353 331.08 312.686 327.694C309.995 326.081 305.579 323.438 303.841 318.216L303.855 318.223Z" fill="#ACDDFF"/>
<path d="M47.5045 347.796C48.638 347.149 52.7894 344.792 52.845 341.135C52.9076 337.102 47.9565 334.473 47.0247 333.98C42.2058 331.421 37.2199 332.617 34.1742 333.34C27.7767 334.863 23.3055 338.423 20.8021 340.856C23.0343 343.179 27.3804 346.975 33.8543 348.602C36.6984 349.319 42.3309 350.737 47.5045 347.796Z" fill="#ACDDFF"/>
<path d="M28.6668 314.545C28.2217 313.585 25.8435 308.447 21.8729 308.343C18.2709 308.245 15.7675 312.348 15.0791 313.474C11.9569 318.585 13.1182 324.356 13.7023 327.27C15.0305 333.896 18.5838 338.464 20.7743 340.822C23.2776 338.388 26.97 334.014 28.7502 327.596C29.5986 324.544 30.9824 319.538 28.6668 314.545Z" fill="#ACDDFF"/>
<path d="M54.1384 318.001C54.4722 316.993 56.2593 311.618 53.4639 308.753C50.9257 306.152 46.3224 307.362 45.0637 307.689C39.3199 309.191 36.2255 314.17 34.6609 316.687C31.1006 322.409 30.5513 328.194 30.5234 331.435C33.9934 331.435 39.6398 330.864 45.3071 327.478C47.9982 325.865 52.4139 323.223 54.1523 318.001H54.1384Z" fill="#ACDDFF"/>
<path d="M264.344 82.1161C268.3 82.1161 271.506 78.8619 271.506 74.8498C271.506 70.8378 268.3 67.5836 264.344 67.5836C260.387 67.5836 257.181 70.8378 257.181 74.8498C257.181 78.8619 260.387 82.1161 264.344 82.1161Z" fill="#ECF7FF"/>
<path d="M93.6914 82.1161C97.6481 82.1161 100.854 78.8619 100.854 74.8498C100.854 70.8378 97.6481 67.5836 93.6914 67.5836C89.7347 67.5836 86.5291 70.8378 86.5291 74.8498C86.5291 78.8619 89.7347 82.1161 93.6914 82.1161Z" fill="#ECF7FF"/>
<path d="M265.011 296.675C268.967 296.675 272.173 293.422 272.173 289.409C272.173 285.396 268.967 282.142 265.011 282.142C261.055 282.142 257.849 285.396 257.849 289.409C257.849 293.422 261.055 296.675 265.011 296.675Z" fill="#ECF7FF"/>
<path d="M94.366 296.668C98.3227 296.668 101.528 293.414 101.528 289.402C101.528 285.39 98.3227 282.135 94.366 282.135C90.4093 282.135 87.2036 285.39 87.2036 289.402C87.2036 293.414 90.4093 296.668 94.366 296.668Z" fill="#ECF7FF"/>
<path d="M291.053 95.3691C291.053 91.3571 287.847 88.1029 283.89 88.1029C279.934 88.1029 276.728 91.3571 276.728 95.3691C276.728 99.3812 279.934 102.635 283.89 102.635C287.847 102.635 291.053 99.3812 291.053 95.3691Z" fill="#ECF7FF"/>
<path d="M283.89 275.704C287.846 275.704 291.053 272.451 291.053 268.437C291.053 264.424 287.846 261.171 283.89 261.171C279.935 261.171 276.728 264.424 276.728 268.437C276.728 272.451 279.935 275.704 283.89 275.704Z" fill="#ECF7FF"/>
<path d="M74.1443 102.635C78.1 102.635 81.3067 99.3822 81.3067 95.3691C81.3067 91.3561 78.1 88.1029 74.1443 88.1029C70.1886 88.1029 66.9819 91.3561 66.9819 95.3691C66.9819 99.3822 70.1886 102.635 74.1443 102.635Z" fill="#ECF7FF"/>
<path d="M81.3067 268.437C81.3067 264.425 78.101 261.171 74.1443 261.171C70.1876 261.171 66.9819 264.425 66.9819 268.437C66.9819 272.45 70.1876 275.704 74.1443 275.704C78.101 275.704 81.3067 272.45 81.3067 268.437Z" fill="#ECF7FF"/>
</g>
<path d="M144.788 128.12C144.148 128.12 143.556 128.012 143.012 127.796C142.476 127.58 142.008 127.276 141.608 126.884C141.216 126.484 140.908 126.012 140.684 125.468C140.468 124.916 140.36 124.308 140.36 123.644C140.36 122.764 140.548 121.996 140.924 121.34C141.3 120.676 141.82 120.16 142.484 119.792C143.156 119.424 143.92 119.24 144.776 119.24C145.648 119.24 146.416 119.424 147.08 119.792C147.744 120.16 148.264 120.676 148.64 121.34C149.024 122.004 149.216 122.776 149.216 123.656C149.216 124.312 149.104 124.916 148.88 125.468C148.664 126.012 148.356 126.484 147.956 126.884C147.564 127.276 147.096 127.58 146.552 127.796C146.016 128.012 145.428 128.12 144.788 128.12ZM144.776 126.656C145.28 126.656 145.724 126.528 146.108 126.272C146.492 126.016 146.792 125.664 147.008 125.216C147.232 124.76 147.344 124.232 147.344 123.632C147.344 123.04 147.236 122.524 147.02 122.084C146.804 121.644 146.504 121.304 146.12 121.064C145.736 120.824 145.288 120.704 144.776 120.704C144.272 120.704 143.828 120.824 143.444 121.064C143.06 121.304 142.76 121.644 142.544 122.084C142.336 122.516 142.232 123.032 142.232 123.632C142.232 124.24 142.34 124.772 142.556 125.228C142.772 125.676 143.072 126.028 143.456 126.284C143.84 126.532 144.28 126.656 144.776 126.656ZM154.266 128.12C153.034 128.12 152.11 127.784 151.494 127.112C150.886 126.432 150.582 125.444 150.582 124.148V119.36H152.43V124.472C152.43 125.224 152.594 125.776 152.922 126.128C153.25 126.48 153.702 126.656 154.278 126.656C154.854 126.656 155.306 126.48 155.634 126.128C155.962 125.776 156.126 125.228 156.126 124.484V119.36H157.974V124.172C157.974 125.452 157.666 126.432 157.05 127.112C156.434 127.784 155.506 128.12 154.266 128.12ZM159.43 128V119.36H163.294C163.918 119.36 164.462 119.468 164.926 119.684C165.39 119.892 165.75 120.188 166.006 120.572C166.262 120.956 166.39 121.404 166.39 121.916C166.39 122.42 166.262 122.864 166.006 123.248C165.75 123.624 165.39 123.92 164.926 124.136C164.462 124.344 163.918 124.448 163.294 124.448H160.894V123.092H163.246C163.686 123.092 164.022 122.992 164.254 122.792C164.494 122.584 164.614 122.296 164.614 121.928C164.614 121.552 164.498 121.268 164.266 121.076C164.034 120.876 163.694 120.776 163.246 120.776H161.278V128H159.43ZM164.302 128L160.834 123.512H162.79L166.798 128H164.302ZM173.523 128L170.427 119.36H172.347L174.711 126.56H174.483L176.859 119.36H178.683L175.587 128H173.523ZM178.231 128L181.327 119.36H182.911L180.067 128H178.231ZM184.567 128L181.735 119.36H183.391L186.487 128H184.567ZM179.863 124.652H184.711V126.092H179.863V124.652ZM187.859 128V119.36H189.707V128H187.859ZM188.723 128V126.584H193.859V128H188.723ZM198.443 128.12C197.211 128.12 196.287 127.784 195.671 127.112C195.063 126.432 194.759 125.444 194.759 124.148V119.36H196.607V124.472C196.607 125.224 196.771 125.776 197.099 126.128C197.427 126.48 197.879 126.656 198.455 126.656C199.031 126.656 199.483 126.48 199.811 126.128C200.139 125.776 200.303 125.228 200.303 124.484V119.36H202.151V124.172C202.151 125.452 201.843 126.432 201.227 127.112C200.611 127.784 199.683 128.12 198.443 128.12ZM203.737 128V119.36H205.585V128H203.737ZM204.601 128V126.584H210.169V128H204.601ZM204.601 124.28V122.888H209.749V124.28H204.601ZM204.601 120.776V119.36H210.025V120.776H204.601ZM214.941 128.108C213.821 128.108 212.925 127.86 212.253 127.364C211.581 126.86 211.189 126.152 211.077 125.24H212.853C212.909 125.704 213.133 126.072 213.525 126.344C213.917 126.608 214.417 126.74 215.025 126.74C215.521 126.74 215.901 126.652 216.165 126.476C216.437 126.3 216.573 126.064 216.573 125.768C216.573 125.488 216.493 125.264 216.333 125.096C216.173 124.92 215.897 124.78 215.505 124.676L213.897 124.232C213.073 124 212.469 123.684 212.085 123.284C211.709 122.876 211.521 122.368 211.521 121.76C211.521 121.24 211.653 120.792 211.917 120.416C212.189 120.032 212.569 119.74 213.057 119.54C213.545 119.332 214.117 119.228 214.773 119.228C215.781 119.228 216.585 119.468 217.185 119.948C217.785 120.42 218.125 121.048 218.205 121.832H216.429C216.349 121.408 216.153 121.096 215.841 120.896C215.537 120.696 215.145 120.596 214.665 120.596C214.249 120.596 213.917 120.676 213.669 120.836C213.421 120.996 213.297 121.212 213.297 121.484C213.297 121.692 213.365 121.884 213.501 122.06C213.637 122.228 213.921 122.372 214.353 122.492L215.961 122.936C216.809 123.168 217.417 123.488 217.785 123.896C218.161 124.296 218.349 124.804 218.349 125.42C218.349 126.284 218.049 126.948 217.449 127.412C216.849 127.876 216.013 128.108 214.941 128.108Z" fill="#ECF7FF"/>
<path d="M122.272 170V146.96H133.216C134.923 146.96 136.384 147.259 137.6 147.856C138.837 148.453 139.787 149.285 140.448 150.352C141.131 151.419 141.472 152.667 141.472 154.096C141.472 155.525 141.131 156.784 140.448 157.872C139.765 158.96 138.805 159.813 137.568 160.432C136.352 161.029 134.901 161.328 133.216 161.328H126.176V157.552H132.96C134.091 157.552 134.965 157.243 135.584 156.624C136.224 155.984 136.544 155.152 136.544 154.128C136.544 153.104 136.224 152.283 135.584 151.664C134.965 151.045 134.091 150.736 132.96 150.736H127.2V170H122.272ZM144.092 170V153.68H148.796V157.52H148.892V170H144.092ZM148.892 161.488L148.476 157.616C148.86 156.229 149.489 155.173 150.364 154.448C151.239 153.723 152.327 153.36 153.628 153.36C154.033 153.36 154.332 153.403 154.524 153.488V157.968C154.417 157.925 154.268 157.904 154.076 157.904C153.884 157.883 153.649 157.872 153.372 157.872C151.836 157.872 150.705 158.149 149.98 158.704C149.255 159.237 148.892 160.165 148.892 161.488ZM164.336 170.32C162.544 170.32 160.965 169.968 159.6 169.264C158.256 168.539 157.2 167.536 156.432 166.256C155.685 164.955 155.312 163.461 155.312 161.776C155.312 160.091 155.685 158.619 156.432 157.36C157.2 156.101 158.256 155.12 159.6 154.416C160.965 153.712 162.544 153.36 164.336 153.36C166.149 153.36 167.728 153.712 169.072 154.416C170.437 155.12 171.493 156.101 172.24 157.36C172.987 158.619 173.36 160.091 173.36 161.776C173.36 163.461 172.976 164.955 172.208 166.256C171.461 167.536 170.405 168.539 169.04 169.264C167.696 169.968 166.128 170.32 164.336 170.32ZM164.336 166.544C165.083 166.544 165.755 166.352 166.352 165.968C166.971 165.584 167.461 165.04 167.824 164.336C168.187 163.611 168.368 162.747 168.368 161.744C168.368 160.272 167.973 159.141 167.184 158.352C166.416 157.541 165.467 157.136 164.336 157.136C163.205 157.136 162.245 157.541 161.456 158.352C160.688 159.163 160.304 160.293 160.304 161.744C160.304 162.747 160.485 163.611 160.848 164.336C161.211 165.04 161.691 165.584 162.288 165.968C162.907 166.352 163.589 166.544 164.336 166.544ZM183.18 170.352C181.089 170.352 179.532 169.851 178.508 168.848C177.505 167.824 177.004 166.277 177.004 164.208V150.032L181.804 148.24V164.368C181.804 165.093 182.006 165.637 182.412 166C182.817 166.363 183.446 166.544 184.3 166.544C184.62 166.544 184.918 166.512 185.196 166.448C185.473 166.384 185.75 166.309 186.028 166.224V169.872C185.75 170.021 185.356 170.139 184.844 170.224C184.353 170.309 183.798 170.352 183.18 170.352ZM173.964 157.328V153.68H186.028V157.328H173.964ZM196.022 170.32C194.209 170.32 192.63 169.968 191.286 169.264C189.942 168.539 188.897 167.536 188.15 166.256C187.425 164.976 187.062 163.504 187.062 161.84C187.062 160.155 187.425 158.683 188.15 157.424C188.897 156.144 189.931 155.152 191.254 154.448C192.577 153.723 194.113 153.36 195.862 153.36C197.547 153.36 199.009 153.701 200.246 154.384C201.483 155.067 202.443 156.016 203.126 157.232C203.809 158.448 204.15 159.877 204.15 161.52C204.15 161.861 204.139 162.181 204.118 162.48C204.097 162.757 204.065 163.024 204.022 163.28H189.878V160.112H200.15L199.318 160.688C199.318 159.365 198.998 158.395 198.358 157.776C197.739 157.136 196.886 156.816 195.798 156.816C194.539 156.816 193.558 157.243 192.854 158.096C192.171 158.949 191.83 160.229 191.83 161.936C191.83 163.6 192.171 164.837 192.854 165.648C193.558 166.459 194.603 166.864 195.99 166.864C196.758 166.864 197.419 166.736 197.974 166.48C198.529 166.224 198.945 165.808 199.222 165.232H203.734C203.201 166.811 202.283 168.059 200.982 168.976C199.702 169.872 198.049 170.32 196.022 170.32ZM214.421 170.32C212.715 170.32 211.211 169.957 209.909 169.232C208.608 168.507 207.584 167.504 206.837 166.224C206.112 164.944 205.749 163.483 205.749 161.84C205.749 160.197 206.112 158.736 206.837 157.456C207.584 156.176 208.608 155.173 209.909 154.448C211.211 153.723 212.715 153.36 214.421 153.36C215.851 153.36 217.131 153.627 218.261 154.16C219.413 154.672 220.352 155.387 221.077 156.304C221.824 157.221 222.304 158.299 222.517 159.536H217.877C217.643 158.747 217.216 158.149 216.597 157.744C216 157.339 215.296 157.136 214.485 157.136C213.717 157.136 213.045 157.328 212.469 157.712C211.915 158.096 211.488 158.64 211.189 159.344C210.891 160.048 210.741 160.88 210.741 161.84C210.741 162.8 210.891 163.632 211.189 164.336C211.488 165.04 211.915 165.584 212.469 165.968C213.045 166.352 213.717 166.544 214.485 166.544C215.296 166.544 216 166.341 216.597 165.936C217.216 165.531 217.643 164.933 217.877 164.144H222.517C222.304 165.381 221.824 166.459 221.077 167.376C220.352 168.293 219.413 169.019 218.261 169.552C217.131 170.064 215.851 170.32 214.421 170.32ZM232.523 170.352C230.433 170.352 228.875 169.851 227.851 168.848C226.849 167.824 226.347 166.277 226.347 164.208V150.032L231.147 148.24V164.368C231.147 165.093 231.35 165.637 231.755 166C232.161 166.363 232.79 166.544 233.643 166.544C233.963 166.544 234.262 166.512 234.539 166.448C234.817 166.384 235.094 166.309 235.371 166.224V169.872C235.094 170.021 234.699 170.139 234.187 170.224C233.697 170.309 233.142 170.352 232.523 170.352ZM223.307 157.328V153.68H235.371V157.328H223.307ZM145.681 205.288C142.695 205.288 140.305 204.627 138.513 203.304C136.721 201.96 135.676 200.072 135.377 197.64H140.113C140.263 198.877 140.86 199.859 141.905 200.584C142.951 201.288 144.284 201.64 145.905 201.64C147.228 201.64 148.241 201.405 148.945 200.936C149.671 200.467 150.033 199.837 150.033 199.048C150.033 198.301 149.82 197.704 149.393 197.256C148.967 196.787 148.231 196.413 147.185 196.136L142.897 194.952C140.7 194.333 139.089 193.491 138.065 192.424C137.063 191.336 136.561 189.981 136.561 188.36C136.561 186.973 136.913 185.779 137.617 184.776C138.343 183.752 139.356 182.973 140.657 182.44C141.959 181.885 143.484 181.608 145.233 181.608C147.921 181.608 150.065 182.248 151.665 183.528C153.265 184.787 154.172 186.461 154.385 188.552H149.649C149.436 187.421 148.913 186.589 148.081 186.056C147.271 185.523 146.225 185.256 144.945 185.256C143.836 185.256 142.951 185.469 142.289 185.896C141.628 186.323 141.297 186.899 141.297 187.624C141.297 188.179 141.479 188.691 141.841 189.16C142.204 189.608 142.961 189.992 144.113 190.312L148.401 191.496C150.663 192.115 152.284 192.968 153.265 194.056C154.268 195.123 154.769 196.477 154.769 198.12C154.769 200.424 153.969 202.195 152.369 203.432C150.769 204.669 148.54 205.288 145.681 205.288ZM165.022 205.32C163.209 205.32 161.63 204.968 160.286 204.264C158.942 203.539 157.897 202.536 157.15 201.256C156.425 199.976 156.062 198.504 156.062 196.84C156.062 195.155 156.425 193.683 157.15 192.424C157.897 191.144 158.931 190.152 160.254 189.448C161.577 188.723 163.113 188.36 164.862 188.36C166.547 188.36 168.009 188.701 169.246 189.384C170.483 190.067 171.443 191.016 172.126 192.232C172.809 193.448 173.15 194.877 173.15 196.52C173.15 196.861 173.139 197.181 173.118 197.48C173.097 197.757 173.065 198.024 173.022 198.28H158.878V195.112H169.15L168.318 195.688C168.318 194.365 167.998 193.395 167.358 192.776C166.739 192.136 165.886 191.816 164.798 191.816C163.539 191.816 162.558 192.243 161.854 193.096C161.171 193.949 160.83 195.229 160.83 196.936C160.83 198.6 161.171 199.837 161.854 200.648C162.558 201.459 163.603 201.864 164.99 201.864C165.758 201.864 166.419 201.736 166.974 201.48C167.529 201.224 167.945 200.808 168.222 200.232H172.734C172.201 201.811 171.283 203.059 169.982 203.976C168.702 204.872 167.049 205.32 165.022 205.32ZM175.717 205V188.68H180.421V192.52H180.517V205H175.717ZM180.517 196.488L180.101 192.616C180.485 191.229 181.114 190.173 181.989 189.448C182.864 188.723 183.952 188.36 185.253 188.36C185.658 188.36 185.957 188.403 186.149 188.488V192.968C186.042 192.925 185.893 192.904 185.701 192.904C185.509 192.883 185.274 192.872 184.997 192.872C183.461 192.872 182.33 193.149 181.605 193.704C180.88 194.237 180.517 195.165 180.517 196.488ZM193.509 205L187.077 188.68H192.229L197.253 203.912H194.565L199.557 188.68H204.581L198.149 205H193.509ZM213.616 205.32C211.802 205.32 210.224 204.968 208.88 204.264C207.536 203.539 206.49 202.536 205.744 201.256C205.018 199.976 204.656 198.504 204.656 196.84C204.656 195.155 205.018 193.683 205.744 192.424C206.49 191.144 207.525 190.152 208.848 189.448C210.17 188.723 211.706 188.36 213.456 188.36C215.141 188.36 216.602 188.701 217.84 189.384C219.077 190.067 220.037 191.016 220.72 192.232C221.402 193.448 221.744 194.877 221.744 196.52C221.744 196.861 221.733 197.181 221.712 197.48C221.69 197.757 221.658 198.024 221.616 198.28H207.472V195.112H217.744L216.912 195.688C216.912 194.365 216.592 193.395 215.952 192.776C215.333 192.136 214.48 191.816 213.392 191.816C212.133 191.816 211.152 192.243 210.448 193.096C209.765 193.949 209.424 195.229 209.424 196.936C209.424 198.6 209.765 199.837 210.448 200.648C211.152 201.459 212.197 201.864 213.584 201.864C214.352 201.864 215.013 201.736 215.568 201.48C216.122 201.224 216.538 200.808 216.816 200.232H221.328C220.794 201.811 219.877 203.059 218.576 203.976C217.296 204.872 215.642 205.32 213.616 205.32ZM124.621 240.32C122.957 240.32 121.421 240.032 120.013 239.456C118.605 238.859 117.379 238.027 116.333 236.96C115.309 235.893 114.509 234.635 113.933 233.184C113.357 231.712 113.069 230.112 113.069 228.384C113.069 226.656 113.347 225.077 113.901 223.648C114.477 222.219 115.277 220.981 116.301 219.936C117.347 218.869 118.573 218.059 119.981 217.504C121.389 216.928 122.936 216.64 124.621 216.64C126.52 216.64 128.227 217.013 129.741 217.76C131.277 218.485 132.525 219.52 133.485 220.864C134.467 222.187 135.064 223.744 135.277 225.536H130.477C130.2 223.893 129.528 222.656 128.461 221.824C127.395 220.971 126.125 220.544 124.653 220.544C123.352 220.544 122.2 220.853 121.197 221.472C120.216 222.091 119.448 222.987 118.893 224.16C118.339 225.312 118.061 226.709 118.061 228.352C118.061 230.016 118.339 231.456 118.893 232.672C119.469 233.867 120.259 234.795 121.261 235.456C122.264 236.096 123.416 236.416 124.717 236.416C126.104 236.416 127.331 236 128.397 235.168C129.464 234.336 130.157 233.099 130.477 231.456H135.341C135.064 233.248 134.435 234.816 133.453 236.16C132.472 237.483 131.224 238.507 129.709 239.232C128.195 239.957 126.499 240.32 124.621 240.32ZM145.711 240.32C143.919 240.32 142.34 239.968 140.975 239.264C139.631 238.539 138.575 237.536 137.807 236.256C137.06 234.955 136.687 233.461 136.687 231.776C136.687 230.091 137.06 228.619 137.807 227.36C138.575 226.101 139.631 225.12 140.975 224.416C142.34 223.712 143.919 223.36 145.711 223.36C147.524 223.36 149.103 223.712 150.447 224.416C151.812 225.12 152.868 226.101 153.615 227.36C154.362 228.619 154.735 230.091 154.735 231.776C154.735 233.461 154.351 234.955 153.583 236.256C152.836 237.536 151.78 238.539 150.415 239.264C149.071 239.968 147.503 240.32 145.711 240.32ZM145.711 236.544C146.458 236.544 147.13 236.352 147.727 235.968C148.346 235.584 148.836 235.04 149.199 234.336C149.562 233.611 149.743 232.747 149.743 231.744C149.743 230.272 149.348 229.141 148.559 228.352C147.791 227.541 146.842 227.136 145.711 227.136C144.58 227.136 143.62 227.541 142.831 228.352C142.063 229.163 141.679 230.293 141.679 231.744C141.679 232.747 141.86 233.611 142.223 234.336C142.586 235.04 143.066 235.584 143.663 235.968C144.282 236.352 144.964 236.544 145.711 236.544ZM157.279 240V223.68H161.983V227.52H162.079V240H157.279ZM168.639 240V229.888C168.639 228.992 168.405 228.32 167.935 227.872C167.487 227.424 166.826 227.2 165.951 227.2C165.205 227.2 164.533 227.371 163.935 227.712C163.359 228.053 162.901 228.523 162.559 229.12C162.239 229.717 162.079 230.421 162.079 231.232L161.663 227.296C162.197 226.101 162.975 225.152 163.999 224.448C165.045 223.723 166.325 223.36 167.839 223.36C169.653 223.36 171.039 223.872 171.999 224.896C172.959 225.899 173.439 227.253 173.439 228.96V240H168.639ZM177.092 240V223.68H181.796V227.52H181.892V240H177.092ZM188.452 240V229.888C188.452 228.992 188.217 228.32 187.748 227.872C187.3 227.424 186.639 227.2 185.764 227.2C185.017 227.2 184.345 227.371 183.748 227.712C183.172 228.053 182.713 228.523 182.372 229.12C182.052 229.717 181.892 230.421 181.892 231.232L181.476 227.296C182.009 226.101 182.788 225.152 183.812 224.448C184.857 223.723 186.137 223.36 187.652 223.36C189.465 223.36 190.852 223.872 191.812 224.896C192.772 225.899 193.252 227.253 193.252 228.96V240H188.452ZM204.584 240.32C202.771 240.32 201.192 239.968 199.848 239.264C198.504 238.539 197.459 237.536 196.712 236.256C195.987 234.976 195.624 233.504 195.624 231.84C195.624 230.155 195.987 228.683 196.712 227.424C197.459 226.144 198.494 225.152 199.816 224.448C201.139 223.723 202.675 223.36 204.424 223.36C206.11 223.36 207.571 223.701 208.808 224.384C210.046 225.067 211.006 226.016 211.688 227.232C212.371 228.448 212.712 229.877 212.712 231.52C212.712 231.861 212.702 232.181 212.68 232.48C212.659 232.757 212.627 233.024 212.584 233.28H198.44V230.112H208.712L207.88 230.688C207.88 229.365 207.56 228.395 206.92 227.776C206.302 227.136 205.448 226.816 204.36 226.816C203.102 226.816 202.12 227.243 201.416 228.096C200.734 228.949 200.392 230.229 200.392 231.936C200.392 233.6 200.734 234.837 201.416 235.648C202.12 236.459 203.166 236.864 204.552 236.864C205.32 236.864 205.982 236.736 206.536 236.48C207.091 236.224 207.507 235.808 207.784 235.232H212.296C211.763 236.811 210.846 238.059 209.544 238.976C208.264 239.872 206.611 240.32 204.584 240.32ZM222.984 240.32C221.277 240.32 219.773 239.957 218.472 239.232C217.171 238.507 216.147 237.504 215.4 236.224C214.675 234.944 214.312 233.483 214.312 231.84C214.312 230.197 214.675 228.736 215.4 227.456C216.147 226.176 217.171 225.173 218.472 224.448C219.773 223.723 221.277 223.36 222.984 223.36C224.413 223.36 225.693 223.627 226.824 224.16C227.976 224.672 228.915 225.387 229.64 226.304C230.387 227.221 230.867 228.299 231.08 229.536H226.44C226.205 228.747 225.779 228.149 225.16 227.744C224.563 227.339 223.859 227.136 223.048 227.136C222.28 227.136 221.608 227.328 221.032 227.712C220.477 228.096 220.051 228.64 219.752 229.344C219.453 230.048 219.304 230.88 219.304 231.84C219.304 232.8 219.453 233.632 219.752 234.336C220.051 235.04 220.477 235.584 221.032 235.968C221.608 236.352 222.28 236.544 223.048 236.544C223.859 236.544 224.563 236.341 225.16 235.936C225.779 235.531 226.205 234.933 226.44 234.144H231.08C230.867 235.381 230.387 236.459 229.64 237.376C228.915 238.293 227.976 239.019 226.824 239.552C225.693 240.064 224.413 240.32 222.984 240.32ZM241.086 240.352C238.995 240.352 237.438 239.851 236.414 238.848C235.411 237.824 234.91 236.277 234.91 234.208V220.032L239.71 218.24V234.368C239.71 235.093 239.913 235.637 240.318 236C240.723 236.363 241.353 236.544 242.206 236.544C242.526 236.544 242.825 236.512 243.102 236.448C243.379 236.384 243.657 236.309 243.934 236.224V239.872C243.657 240.021 243.262 240.139 242.75 240.224C242.259 240.309 241.705 240.352 241.086 240.352ZM231.87 227.328V223.68H243.934V227.328H231.87Z" fill="#064AB5"/>
<defs>
<clipPath id="clip0_1_17115">
<rect width="332" height="337" fill="white" transform="translate(13 13)"/>
</clipPath>
</defs>
</svg>
