<svg width="275" height="47" viewBox="0 0 275 47" fill="none" xmlns="http://www.w3.org/2000/svg">
<g clip-path="url(#clip0_1_18463)">
<path d="M23.9667 24.5069H24.1687C31.4658 24.5069 33.4916 30.4731 38.5608 30.4731C42.4086 30.4731 45.5511 27.4355 45.5511 23.5981C45.5511 19.7608 42.4086 16.6187 38.5608 16.6187C33.3897 16.6187 31.564 22.9926 24.1687 22.585H23.9667C16.6696 22.6866 14.641 16.6187 9.57549 16.6187C5.72493 16.6187 2.5824 19.7534 2.5824 23.5981C2.5824 27.4428 5.72493 30.4731 9.57549 30.4731C14.641 30.4731 16.6696 24.5069 23.9667 24.5069Z" fill="#90CAF9"/>
<path d="M29.539 25.8196C32.9855 27.6379 35.0132 30.4731 38.5616 30.4731C42.4095 30.4731 45.552 27.4355 45.552 23.5981C45.552 19.7608 42.4095 16.6187 38.5616 16.6187C33.3905 16.6187 31.5649 22.9926 24.1696 22.585H23.9675C21.7369 22.585 19.9113 22.0802 18.3923 21.2723C22.2429 23.2922 25.9934 23.8006 29.54 25.8205L29.539 25.8196Z" fill="#1976D2"/>
<path d="M18.6945 9.03967H18.8975C25.0806 9.03967 26.8016 14.1943 31.1591 14.1943C34.4063 14.1943 37.1402 11.568 37.1402 8.23171C37.1402 4.89542 34.4063 2.36618 31.1591 2.36618C26.7042 2.36618 25.1816 7.82681 18.8975 7.42008H18.6945C12.4104 7.52085 10.7905 2.36618 6.43299 2.36618C3.08842 2.36618 0.455566 4.99252 0.455566 8.23171C0.455566 11.4709 3.08842 14.1943 6.43299 14.1943C10.6895 14.1943 12.5151 9.03967 18.6945 9.03967Z" fill="#42A5F5"/>
<path d="M23.457 10.1509C26.3975 11.666 28.1221 14.1943 31.159 14.1943C34.4063 14.1943 37.1401 11.568 37.1401 8.23171C37.1401 4.89542 34.4063 2.36618 31.159 2.36618C26.7042 2.36618 25.1816 7.82681 18.8975 7.42008H18.6945C16.7706 7.42008 15.2526 6.91533 13.933 6.3089C17.1765 8.02926 20.4201 8.43324 23.457 10.1509Z" fill="#0D47A1"/>
<path d="M18.6945 39.6705H18.8975C25.0806 39.6705 26.8016 44.8252 31.1591 44.8252C34.4063 44.8252 37.1402 42.1952 37.1402 38.8589C37.1402 35.5226 34.4063 32.8963 31.1591 32.8963C26.7042 32.8963 25.1816 38.3569 18.8975 38.0509H18.6945C12.4104 38.0509 10.7905 32.8963 6.43299 32.8963C3.08842 32.8963 0.455566 35.627 0.455566 38.8589C0.455566 42.0908 3.08842 44.8252 6.43299 44.8252C10.6895 44.8252 12.5151 39.6705 18.6945 39.6705Z" fill="#4FC3F7"/>
<path d="M23.457 40.7817C26.3975 42.3005 28.1212 44.8252 31.159 44.8252C34.4063 44.8252 37.1401 42.1952 37.1401 38.8589C37.1401 35.5226 34.4063 32.8963 31.159 32.8963C26.7042 32.8963 25.1816 38.3569 18.8975 38.0509H18.6945C16.7706 38.0509 15.2526 37.5462 13.933 36.839C17.1765 38.6574 20.4201 39.0604 23.457 40.7817Z" fill="#00ACC1"/>
</g>
<path d="M60.1975 35.5V12.8366H84.1714V16.5367H65.2852V21.8557H79.7003V25.6715H65.2852V31.7999H84.3255L85.8673 35.076C85.8673 35.1788 85.5204 35.2816 84.8266 35.3844C84.1328 35.4615 82.938 35.5 81.2421 35.5H60.1975ZM87.78 27.0205V22.5495H100.114V27.0205H87.78ZM101.288 35.5L112.581 12.8366H120.174L131.429 35.5H125.493L123.219 30.605H109.421L106.915 35.5H101.288ZM110.808 26.8278H121.793L116.513 16.3055H116.127L110.808 26.8278ZM132.979 35.5V15.92L132.594 12.8366H156.645V16.5367H138.067V22.164H152.482V25.9798H138.067V35.5H132.979ZM165.226 35.5C163.402 35.5 161.975 35.243 160.948 34.7291C159.92 34.2152 159.2 33.4444 158.789 32.4165C158.378 31.3887 158.173 30.1168 158.173 28.6008V20.0056C158.173 17.5389 158.725 15.7273 159.83 14.571C160.935 13.389 162.733 12.798 165.226 12.798H176.827C178.6 12.798 179.949 12.9008 180.875 13.1064C181.825 13.2863 182.301 13.479 182.301 13.6845L181.53 16.8836C181.093 16.8065 179.795 16.7294 177.637 16.6524C175.504 16.5496 172.395 16.4982 168.309 16.4982H166.344C164.288 16.4982 163.26 17.4104 163.26 19.2348V29.0633C163.26 29.9369 163.479 30.6179 163.915 31.1061C164.378 31.5686 165.187 31.7999 166.344 31.7999H167.924C170.391 31.7999 172.472 31.787 174.168 31.7613C175.864 31.7099 177.264 31.6714 178.369 31.6457V26.4038L176.057 26.4423L171.007 26.8278V23.0505H183.418V33.8812L183.804 34.6906C183.804 34.8962 183.264 35.0889 182.185 35.2687C181.106 35.4229 179.281 35.5 176.712 35.5H165.226ZM187.27 35.5V12.8366H192.357V22.2411H207.466V12.8366H212.554V35.5H207.466V25.9413H192.357V35.5H187.27ZM213.726 35.5L225.019 12.8366H232.612L243.867 35.5H237.931L235.657 30.605H221.859L219.353 35.5H213.726ZM223.246 26.8278H234.231L228.951 16.3055H228.565L223.246 26.8278ZM245.417 35.5V15.92L245.032 12.8366H250.582L263.687 26.558L265.19 28.6393H265.614V12.8366H270.702V35.5H265.807L252.394 21.5474L250.89 19.7358H250.505V35.5H245.417Z" fill="black"/>
<defs>
<clipPath id="clip0_1_18463">
<rect width="45.0956" height="42.4584" fill="white" transform="matrix(1 0 0 -1 0.455566 44.8252)"/>
</clipPath>
</defs>
</svg>
