<svg width="358" height="362" viewBox="0 0 358 362" fill="none" xmlns="http://www.w3.org/2000/svg">
<path d="M308.107 254.716C303.496 247.029 298.008 239.969 292.029 234.21C287.35 229.689 282.407 225.978 277.448 222.955C283.442 209.372 286.783 194.33 286.783 178.494C286.783 163.861 283.934 149.877 278.748 137.126C283.276 134.261 287.751 130.822 292.029 126.687C303.98 115.168 314.01 98.4401 318.855 81.947C324.177 63.7986 322.567 48.273 314.433 39.3235C309.006 33.3521 300.51 30.0414 289.89 29.7542C268.325 29.1797 241 40.8125 223.479 58.0842C218.633 62.8462 214.363 68.2582 210.734 74.1691C200.764 71.0474 190.167 69.3769 179.199 69.3769C168.231 69.3769 157.264 71.1078 147.135 74.3354C143.476 68.3489 139.168 62.8991 134.285 58.0842C116.779 40.805 89.5067 29.1721 67.8886 29.7542C57.2685 30.0338 48.7724 33.3521 43.3452 39.3235C35.2119 48.273 33.5944 63.791 38.9233 81.947C41.3497 90.1936 45.0762 98.493 49.6719 106.18C54.2828 113.867 59.7855 120.927 65.7494 126.687C70.1789 130.973 74.8351 134.51 79.5291 137.451C74.4345 150.119 71.6226 163.989 71.6226 178.494C71.6226 194.216 74.9182 209.145 80.8368 222.66C75.6968 225.736 70.6022 229.531 65.757 234.21C53.8066 245.729 43.776 262.456 38.9309 278.95C33.6019 297.098 35.2195 312.624 43.3528 321.558C48.78 327.544 57.276 330.84 67.8961 331.135C68.4252 331.15 68.9468 331.165 69.491 331.165C90.8068 331.165 117.202 319.661 134.3 302.805C140.075 297.113 145.034 290.545 149.093 283.25C158.647 286.085 168.761 287.604 179.214 287.604C189.668 287.604 199.396 286.145 208.799 283.402C212.828 290.635 217.764 297.151 223.494 302.805C240.584 319.661 266.995 331.165 288.31 331.165C288.847 331.165 289.376 331.15 289.905 331.135C300.525 330.84 309.021 327.537 314.449 321.558C322.582 312.624 324.184 297.098 318.87 278.95C316.444 270.703 312.733 262.404 308.122 254.716H308.107ZM307.313 314.899C302.725 319.925 295.166 321.165 289.626 321.301C289.18 321.316 288.756 321.331 288.295 321.331C269.595 321.331 245.414 310.726 230.236 295.753C225.61 291.187 221.551 285.964 218.142 280.189C216.464 277.392 214.967 274.475 213.63 271.421C210.614 272.585 207.507 273.598 204.347 274.445C196.312 276.621 187.892 277.77 179.192 277.77C170.492 277.77 161.67 276.561 153.484 274.286C150.325 273.432 147.248 272.404 144.232 271.209C142.902 274.256 141.405 277.181 139.727 279.993C136.303 285.836 132.206 291.134 127.527 295.753C111.971 311.082 86.9896 321.868 68.138 321.309C62.5823 321.165 55.0235 319.933 50.4505 314.906C47.1019 311.225 45.5599 305.609 45.5599 298.965C45.5599 281.572 56.0893 257.075 72.4163 241.345C76.5056 237.399 80.8217 234.164 85.1755 231.496C88.0403 229.727 90.9202 228.223 93.7623 226.931C92.1825 224.081 90.7463 221.141 89.4538 218.125H89.4387V218.11C84.2155 205.97 81.3054 192.584 81.3054 178.509C81.3054 165.697 83.7167 153.437 88.0932 142.167C89.2875 139.106 90.6254 136.128 92.0994 133.218C89.2875 131.857 86.4378 130.285 83.626 128.456C79.8012 125.984 76.0218 123.051 72.4238 119.574C49.8457 97.8127 38.3488 59.3087 50.458 46.0054C55.0311 40.9788 62.5899 39.7392 68.1456 39.588C68.5764 39.588 69.0148 39.5729 69.4608 39.5729C88.1612 39.5729 112.342 50.1778 127.535 65.1516C131.375 68.9309 134.807 73.1714 137.815 77.7822V77.7973C139.614 80.5335 141.239 83.4058 142.705 86.3915C145.714 85.1519 148.783 84.071 151.927 83.164C160.582 80.6091 169.736 79.2334 179.199 79.2334C188.663 79.2334 197.423 80.5562 205.927 82.9977C209.087 83.9123 212.163 84.9629 215.179 86.1875C216.645 83.1942 218.293 80.3143 220.085 77.5932C223.063 73.058 226.457 68.8856 230.236 65.1591C245.777 49.8225 270.691 39.0589 289.626 39.5956C295.166 39.7468 302.725 40.9864 307.313 46.0129C310.654 49.694 312.204 55.295 312.204 61.9542C312.204 79.3317 301.667 103.829 285.347 119.574C281.885 122.9 278.272 125.727 274.614 128.146C271.802 129.983 268.975 131.585 266.163 132.961V132.976C267.645 135.871 268.99 138.864 270.192 141.91C274.621 153.248 277.078 165.592 277.078 178.502C277.078 192.659 274.145 206.144 268.839 218.351C267.539 221.36 266.08 224.293 264.493 227.142C267.335 228.45 270.199 229.977 273.049 231.776C277.244 234.376 281.402 237.52 285.347 241.33C307.91 263.091 319.407 301.595 307.313 314.899Z" fill="#FFCE46"/>
<path d="M212.36 144.964C229.518 146.196 243.056 160.709 243.056 178.426C243.056 196.144 229.647 210.521 212.594 211.874C212.579 208.88 212.193 205.993 211.445 203.234C224.015 202.145 233.887 191.442 233.887 178.426C233.887 165.41 224.439 155.161 212.254 153.694C212.488 152.152 212.594 150.557 212.594 148.932C212.594 147.594 212.518 146.272 212.36 144.964Z" fill="#FFCE46"/>
<path d="M212.254 153.694C224.439 155.161 233.887 165.675 233.887 178.426C233.887 191.178 224.015 202.146 211.445 203.234C208.664 192.674 200.908 184.178 190.885 180.46C202.14 176.28 210.531 166.083 212.254 153.694Z" fill="#FFCA36"/>
<path d="M212.594 211.979C212.594 230.513 197.787 245.54 179.509 245.54C161.232 245.54 146.425 230.521 146.425 211.979V211.949C146.893 211.964 147.339 211.979 147.808 211.979C150.121 211.979 152.373 211.745 154.55 211.284C155.019 225.124 166.221 236.19 179.963 236.19C193.705 236.19 204.733 225.313 205.376 211.647C206.88 211.866 208.407 211.979 209.979 211.979C210.863 211.979 211.732 211.949 212.602 211.866V211.979H212.594Z" fill="#FFCE46"/>
<path d="M212.36 144.964C212.518 146.272 212.594 147.594 212.594 148.932C212.594 150.557 212.488 152.145 212.254 153.694C211.294 153.581 210.326 153.52 209.329 153.52C207.575 153.52 205.844 153.709 204.204 154.072C204.31 153.112 204.378 152.114 204.378 151.124C204.378 149.167 204.158 147.277 203.743 145.463C205.761 145.07 207.847 144.866 209.971 144.866C210.78 144.866 211.574 144.896 212.367 144.964H212.36Z" fill="#FFCE46"/>
<path d="M212.594 211.874C211.725 211.949 210.855 211.987 209.971 211.987C208.399 211.987 206.879 211.874 205.368 211.654C205.383 211.246 205.398 210.838 205.398 210.407C205.398 207.762 205.012 205.207 204.264 202.796C205.897 203.143 207.59 203.332 209.329 203.332C210.047 203.332 210.742 203.302 211.445 203.234C212.193 205.993 212.579 208.88 212.594 211.874Z" fill="#FFCE46"/>
<path d="M212.254 153.694C210.531 166.083 202.14 176.28 190.885 180.46C188.943 179.734 186.909 179.197 184.793 178.865C184.778 178.721 184.778 178.562 184.778 178.426C184.778 177.436 184.838 176.438 184.952 175.478C195.118 173.286 202.964 164.7 204.204 154.072C205.852 153.709 207.575 153.52 209.329 153.52C210.327 153.52 211.286 153.581 212.254 153.694Z" fill="#FFCE46"/>
<path d="M211.445 203.234C210.742 203.294 210.047 203.332 209.329 203.332C207.59 203.332 205.897 203.143 204.264 202.796C201.619 194.095 194.551 187.361 185.723 185.282C185.413 184.224 185.193 183.135 185.02 182.017C187.038 181.684 188.995 181.147 190.878 180.46C200.901 184.178 208.656 192.674 211.437 203.234H211.445Z" fill="#FFCE46"/>
<path d="M205.398 210.407C205.398 210.83 205.383 211.246 205.368 211.654C193.123 209.939 183.016 201.412 178.882 189.968C179.502 188.253 179.985 186.469 180.31 184.64C182.177 184.655 183.976 184.874 185.723 185.282C188.194 194.095 195.345 200.906 204.264 202.796C205.013 205.207 205.398 207.762 205.398 210.407Z" fill="#FFCE46"/>
<path d="M178.882 189.961C183.016 201.405 193.115 209.931 205.368 211.647C204.733 225.313 193.591 236.19 179.955 236.19C166.319 236.19 155.011 225.124 154.542 211.284C165.828 208.903 174.997 200.725 178.882 189.961Z" fill="#FFCA36"/>
<path d="M204.37 151.124C204.37 152.114 204.31 153.112 204.196 154.072C194.015 156.249 186.169 164.836 184.944 175.478C183.606 175.781 182.223 175.955 180.794 176C180.575 172.818 179.925 169.756 178.882 166.892C182.828 155.954 192.216 147.693 203.735 145.47C204.151 147.284 204.37 149.174 204.37 151.132V151.124Z" fill="#FFCE46"/>
<path d="M185.723 185.282C194.551 187.361 201.619 194.095 204.264 202.795C195.345 200.906 188.194 194.095 185.723 185.282Z" fill="#FFCA36"/>
<path d="M179.804 126.218C191.46 126.218 201.203 134.427 203.735 145.463C192.216 147.685 182.835 155.947 178.882 166.884C175.133 156.514 166.493 148.554 155.805 145.856C158.186 134.631 168.02 126.218 179.804 126.218Z" fill="#FFCA36"/>
<path d="M204.204 154.072C202.964 164.692 195.111 173.286 184.952 175.478C186.176 164.836 194.03 156.249 204.204 154.072Z" fill="#FFCA36"/>
<path d="M184.793 178.865C186.909 179.197 188.942 179.734 190.885 180.46C189.003 181.155 187.045 181.692 185.027 182.017C184.883 180.989 184.793 179.938 184.793 178.865Z" fill="#FFCE46"/>
<path d="M185.027 182.017C185.201 183.135 185.413 184.224 185.73 185.282C183.992 184.874 182.185 184.655 180.318 184.64C180.462 183.929 180.568 183.203 180.643 182.463C182.132 182.432 183.599 182.274 185.027 182.024V182.017Z" fill="#FFCE46"/>
<path d="M184.793 178.865C184.793 179.938 184.884 180.996 185.027 182.017C183.599 182.266 182.14 182.425 180.643 182.455C180.817 181.147 180.893 179.81 180.893 178.449C182.215 178.494 183.515 178.638 184.793 178.857V178.865Z" fill="#FFCE46"/>
<path d="M184.778 178.426C184.778 178.57 184.778 178.729 184.793 178.865C183.515 178.645 182.215 178.502 180.892 178.457V178.426C180.892 177.61 180.862 176.801 180.802 176C182.23 175.955 183.614 175.781 184.952 175.478C184.846 176.438 184.778 177.436 184.778 178.426Z" fill="#FFCE46"/>
<path d="M180.794 176C180.469 176.03 180.144 176.03 179.796 176.03C178.852 176.03 177.899 175.985 176.985 175.856C177.204 172.735 177.854 169.726 178.882 166.884C179.925 169.756 180.575 172.81 180.794 175.992V176Z" fill="#FFCE46"/>
<path d="M179.955 184.617C180.076 184.617 180.189 184.617 180.31 184.632C179.985 186.461 179.502 188.245 178.882 189.961C178.277 188.275 177.793 186.522 177.468 184.73C178.277 184.67 179.116 184.617 179.955 184.617Z" fill="#FFCE46"/>
<path d="M179.509 182.493C179.88 182.493 180.273 182.493 180.643 182.463C180.567 183.203 180.454 183.929 180.318 184.64C180.197 184.624 180.084 184.624 179.963 184.624C179.124 184.624 178.285 184.67 177.476 184.738C177.317 183.967 177.211 183.196 177.121 182.402C177.914 182.463 178.708 182.5 179.517 182.5L179.509 182.493Z" fill="#FFCE46"/>
<path d="M180.794 176C180.855 176.801 180.885 177.61 180.885 178.426V178.457C180.416 178.441 179.97 178.426 179.502 178.426C178.617 178.426 177.748 178.457 176.879 178.54V178.426C176.879 177.557 176.909 176.71 176.984 175.856C177.899 175.985 178.852 176.03 179.796 176.03C180.136 176.03 180.462 176.03 180.794 176Z" fill="#FFCE46"/>
<path d="M179.509 178.426C179.978 178.426 180.424 178.441 180.892 178.456C180.892 179.81 180.817 181.155 180.643 182.463C180.273 182.493 179.88 182.493 179.509 182.493C178.7 182.493 177.907 182.463 177.113 182.395C176.954 181.132 176.879 179.84 176.879 178.532C177.748 178.456 178.617 178.419 179.502 178.419L179.509 178.426Z" fill="#FFCE46"/>
<path d="M177.468 184.73C177.793 186.529 178.277 188.275 178.882 189.961C174.997 200.724 165.828 208.911 154.542 211.284C154.527 210.997 154.527 210.702 154.527 210.4C154.527 208.238 154.792 206.129 155.276 204.126C163.961 201.616 170.756 194.541 172.948 185.622C174.407 185.184 175.919 184.881 177.468 184.723V184.73Z" fill="#FFCE46"/>
<path d="M177.113 182.395C177.204 183.181 177.317 183.952 177.468 184.73C175.911 184.889 174.407 185.184 172.948 185.63C173.243 184.435 173.462 183.203 173.583 181.941C174.732 182.16 175.911 182.319 177.113 182.395Z" fill="#FFCE46"/>
<path d="M178.882 166.884C177.854 169.719 177.204 172.735 176.985 175.856C175.745 175.728 174.543 175.494 173.364 175.161C171.792 165.327 164.739 157.368 155.472 154.594C155.314 153.46 155.238 152.311 155.238 151.124C155.238 149.31 155.427 147.564 155.797 145.863C166.493 148.562 175.133 156.521 178.874 166.892L178.882 166.884Z" fill="#FFCE46"/>
<path d="M176.879 178.532C176.879 179.84 176.954 181.132 177.113 182.395C175.919 182.319 174.732 182.16 173.583 181.941C173.659 181.087 173.704 180.225 173.704 179.341C173.704 179.212 173.704 179.091 173.689 178.963C174.732 178.759 175.806 178.615 176.871 178.54L176.879 178.532Z" fill="#FFCE46"/>
<path d="M176.879 178.426V178.54C175.806 178.615 174.732 178.759 173.697 178.963C173.697 177.67 173.576 176.408 173.372 175.161C174.551 175.493 175.753 175.728 176.992 175.856C176.917 176.71 176.886 177.557 176.886 178.426H176.879Z" fill="#FFCE46"/>
<path d="M173.697 178.963C173.712 179.092 173.712 179.212 173.712 179.341C173.712 180.225 173.666 181.087 173.591 181.941C171.709 181.609 169.894 181.102 168.133 180.46C169.917 179.794 171.769 179.296 173.697 178.963Z" fill="#FFCE46"/>
<path d="M173.372 175.161C173.576 176.408 173.697 177.67 173.697 178.963C171.769 179.296 169.917 179.802 168.133 180.46C156.833 176.265 148.428 166.007 146.75 153.566C147.248 153.536 147.747 153.52 148.239 153.52C150.756 153.52 153.182 153.883 155.48 154.594C156.848 164.526 163.999 172.591 173.372 175.161Z" fill="#FFCE46"/>
<path d="M173.583 181.941C173.462 183.203 173.243 184.428 172.948 185.63C164.278 188.139 157.483 195.214 155.276 204.133C153.038 204.814 150.672 205.161 148.239 205.161C147.853 205.161 147.475 205.146 147.105 205.131C149.448 193.702 157.521 184.405 168.133 180.467C169.887 181.11 171.709 181.616 173.591 181.949L173.583 181.941Z" fill="#FFCE46"/>
<path d="M155.48 154.594C164.739 157.368 171.799 165.327 173.372 175.161C163.999 172.591 156.848 164.518 155.48 154.594Z" fill="#FFCA36"/>
<path d="M172.948 185.63C170.756 194.549 163.968 201.632 155.276 204.133C157.483 195.214 164.271 188.132 172.948 185.63Z" fill="#FFCA36"/>
<path d="M146.749 153.566C148.427 166 156.833 176.264 168.133 180.46C157.521 184.398 149.455 193.702 147.105 205.124C133.567 204.526 122.781 193.211 122.781 179.333C122.781 165.456 133.378 154.352 146.742 153.566H146.749Z" fill="#FFCA36"/>
<path d="M155.276 204.133C154.792 206.136 154.528 208.245 154.528 210.407C154.528 210.71 154.528 211.004 154.543 211.292C152.366 211.745 150.113 211.987 147.8 211.987C147.332 211.987 146.886 211.972 146.417 211.957C146.417 209.621 146.651 207.338 147.097 205.131C147.468 205.146 147.846 205.161 148.231 205.161C150.673 205.161 153.031 204.814 155.268 204.133H155.276Z" fill="#FFCE46"/>
<path d="M146.75 153.566C146.53 152.054 146.425 150.504 146.425 148.932C146.425 147.564 146.5 146.219 146.674 144.896C147.044 144.866 147.437 144.866 147.808 144.866C150.574 144.866 153.25 145.213 155.813 145.856C155.442 147.556 155.253 149.31 155.253 151.117C155.253 152.296 155.329 153.452 155.488 154.586C153.19 153.876 150.763 153.513 148.246 153.513C147.747 153.513 147.248 153.528 146.757 153.558L146.75 153.566Z" fill="#FFCE46"/>
<path d="M209.971 144.866C207.84 144.866 205.761 145.07 203.743 145.463C201.21 134.427 191.467 126.218 179.812 126.218C168.156 126.218 158.193 134.639 155.812 145.856C153.25 145.206 150.574 144.866 147.808 144.866C147.437 144.866 147.044 144.866 146.674 144.896C148.632 128.267 162.585 115.372 179.509 115.372C196.433 115.372 210.44 128.297 212.36 144.956C211.566 144.896 210.772 144.858 209.964 144.858L209.971 144.866Z" fill="#FFCE46"/>
<path d="M146.417 148.932C146.417 150.512 146.523 152.054 146.742 153.566C133.378 154.352 122.781 165.576 122.781 179.333C122.781 193.09 133.567 204.519 147.105 205.124C146.651 207.331 146.424 209.613 146.424 211.949C128.782 211.223 114.723 196.484 114.723 178.426C114.723 160.369 128.926 145.501 146.674 144.903C146.5 146.226 146.424 147.564 146.424 148.94L146.417 148.932Z" fill="#FFCE46"/>
<path d="M297.834 309.101C289.097 307.514 264.871 301.913 243.653 280.393C222.436 258.874 216.918 234.308 215.345 225.441C224.083 227.029 248.309 232.63 269.527 254.149C290.744 275.669 296.262 300.235 297.834 309.101Z" fill="#FFCA36"/>
<path d="M58.0698 309.101C66.8078 307.514 91.0337 301.913 112.251 280.393C133.469 258.874 138.987 234.308 140.559 225.441C131.821 227.029 107.595 232.63 86.3775 254.149C65.16 275.669 59.6421 300.235 58.0698 309.101Z" fill="#FFCA36"/>
<path d="M297.963 51.3645C289.225 52.9518 264.999 58.5528 243.782 80.0725C222.564 101.592 217.046 126.158 215.474 135.024C224.212 133.437 248.438 127.836 269.655 106.316C290.873 84.7967 296.391 60.2309 297.963 51.3645Z" fill="#FFCA36"/>
<path d="M58.0698 51.3645C66.8078 52.9518 91.0337 58.5528 112.251 80.0725C133.469 101.592 138.987 126.158 140.559 135.024C131.821 133.437 107.595 127.836 86.3775 106.316C65.16 84.7967 59.6421 60.2309 58.0698 51.3645Z" fill="#FFCA36"/>
<path d="M359 233.469C347.17 233.318 337.624 223.552 337.624 211.518C337.624 207.55 338.674 203.839 340.489 200.634C337.624 202.047 334.426 202.864 331.025 202.864C319.067 202.864 309.369 193.03 309.369 180.898C309.369 168.766 319.067 158.932 331.025 158.932C333.406 158.932 335.696 159.341 337.843 160.059C337.714 159.084 337.624 158.093 337.624 157.081C337.624 145.047 347.17 135.281 359 135.13V124.722C344.034 124.865 331.751 136.302 330.02 151.041C314.207 151.585 301.538 164.722 301.538 180.898C301.538 197.074 314.101 210.105 329.831 210.747C329.831 211.004 329.793 211.261 329.793 211.526C329.793 227.951 342.847 241.269 359.008 241.421V233.476L359 233.469Z" fill="#FFCE46"/>
<path d="M-2.00002 233.469C9.82948 233.318 19.3762 223.552 19.3762 211.518C19.3762 207.55 18.3256 203.839 16.5114 200.634C19.3762 202.047 22.5736 202.864 25.9675 202.864C37.9255 202.864 47.6234 193.03 47.6234 180.898C47.6234 168.766 37.9255 158.932 25.9675 158.932C23.5865 158.932 21.2962 159.341 19.1495 160.059C19.278 159.084 19.3687 158.093 19.3687 157.081C19.3687 145.047 9.82192 135.281 -2.00758 135.13V124.722C12.9588 124.865 25.2418 136.302 26.9728 151.041C42.7858 151.585 55.4543 164.722 55.4543 180.898C55.4543 197.074 42.8916 210.105 27.1618 210.747C27.1618 211.004 27.1996 211.261 27.1996 211.526C27.1996 227.951 14.1455 241.269 -2.01514 241.421V233.476L-2.00002 233.469Z" fill="#FFCE46"/>
<path d="M228.581 -1.97729C228.43 10.0259 218.807 19.7086 206.94 19.7086C203.032 19.7086 199.374 18.6428 196.206 16.8061C197.597 19.7086 198.406 22.9589 198.406 26.3981C198.406 38.5298 188.708 48.3637 176.75 48.3637C164.792 48.3637 155.094 38.5298 155.094 26.3981C155.094 23.9793 155.495 21.6588 156.205 19.4819C155.245 19.6179 154.27 19.7086 153.273 19.7086C141.405 19.7086 131.783 10.0259 131.632 -1.97729H121.367C121.503 13.2006 132.788 25.6573 147.316 27.4185C147.853 43.4581 160.809 56.3079 176.75 56.3079C192.692 56.3079 205.542 43.5639 206.177 27.615C206.434 27.615 206.683 27.6528 206.94 27.6528C223.131 27.6528 236.26 14.41 236.412 -1.97729H228.581Z" fill="#FFCE46"/>
<path d="M228.581 363.72C228.43 351.717 218.807 342.034 206.94 342.034C203.032 342.034 199.374 343.1 196.206 344.937C197.597 342.034 198.406 338.784 198.406 335.345C198.406 323.213 188.708 313.379 176.75 313.379C164.792 313.379 155.094 323.213 155.094 335.345C155.094 337.764 155.495 340.084 156.205 342.261C155.245 342.125 154.27 342.034 153.273 342.034C141.405 342.034 131.783 351.717 131.632 363.72H121.367C121.503 348.542 132.788 336.086 147.316 334.325C147.853 318.285 160.809 305.435 176.75 305.435C192.692 305.435 205.542 318.179 206.177 334.128C206.434 334.128 206.683 334.09 206.94 334.09C223.131 334.09 236.26 347.333 236.412 363.72H228.581Z" fill="#FFCE46"/>
<path d="M178.882 106.898C183.791 106.898 187.771 102.814 187.771 97.775C187.771 92.7363 183.791 88.6516 178.882 88.6516C173.972 88.6516 169.993 92.7363 169.993 97.775C169.993 102.814 173.972 106.898 178.882 106.898Z" fill="#FFCA36"/>
<path d="M179.502 271.096C184.411 271.096 188.391 267.011 188.391 261.973C188.391 256.934 184.411 252.849 179.502 252.849C174.592 252.849 170.613 256.934 170.613 261.973C170.613 267.011 174.592 271.096 179.502 271.096Z" fill="#FFCA36"/>
<path d="M98.5545 169.719C103.521 169.719 107.549 173.755 107.549 178.729C107.549 183.702 103.521 187.739 98.5545 187.739C93.5884 187.739 89.5596 183.702 89.5596 178.729C89.5596 173.755 93.5884 169.719 98.5545 169.719Z" fill="#FFCA36"/>
<path d="M260.456 187.119C265.424 187.119 269.451 183.085 269.451 178.109C269.451 173.133 265.424 169.099 260.456 169.099C255.488 169.099 251.461 173.133 251.461 178.109C251.461 183.085 255.488 187.119 260.456 187.119Z" fill="#FFCA36"/>
<path d="M106.726 142.968C111.367 144.752 113.725 149.968 111.986 154.624C110.248 159.28 105.078 161.608 100.429 159.824C95.788 158.041 93.4297 152.825 95.1682 148.169C96.9067 143.513 102.077 141.185 106.726 142.968Z" fill="#FFCA36"/>
<path d="M258.355 200.505C262.996 202.289 265.354 207.505 263.616 212.161C261.877 216.817 256.707 219.145 252.058 217.361C247.41 215.577 245.059 210.362 246.797 205.706C248.536 201.05 253.706 198.721 258.355 200.505Z" fill="#FFCA36"/>
<path d="M141.489 253.061C143.25 248.352 148.39 245.963 152.986 247.724C157.581 249.486 159.872 254.731 158.11 259.448C156.349 264.157 151.209 266.546 146.613 264.784C142.025 263.023 139.727 257.778 141.489 253.061Z" fill="#FFCA36"/>
<path d="M198.217 99.2716C199.978 94.5625 205.118 92.174 209.714 93.9351C214.302 95.6963 216.6 100.942 214.839 105.659C213.078 110.368 207.938 112.756 203.342 110.995C198.754 109.234 196.456 103.988 198.217 99.2716Z" fill="#FFCA36"/>
<path d="M159.312 100.262C161.005 104.994 158.647 110.209 154.028 111.91C149.418 113.61 144.3 111.154 142.607 106.415C140.914 101.683 143.272 96.4673 147.891 94.7666C152.502 93.0659 157.619 95.5225 159.312 100.262Z" fill="#FFCA36"/>
<path d="M215.194 254.376C216.887 259.108 214.529 264.323 209.911 266.024C205.3 267.725 200.182 265.268 198.489 260.529C196.796 255.797 199.154 250.582 203.773 248.881C208.384 247.18 213.501 249.637 215.194 254.376Z" fill="#FFCA36"/>
<path d="M99.6884 198.789C104.36 197.066 109.5 199.47 111.178 204.149C112.856 208.827 110.429 214.013 105.758 215.736C101.087 217.459 95.9468 215.056 94.2687 210.377C92.5907 205.698 95.017 200.513 99.6884 198.789Z" fill="#FFCA36"/>
<path d="M251.643 142.114C256.314 140.391 261.454 142.795 263.132 147.473C264.81 152.152 262.384 157.338 257.712 159.061C253.041 160.784 247.901 158.381 246.223 153.702C244.545 149.023 246.971 143.838 251.643 142.114Z" fill="#FFCA36"/>
<path d="M359 -1.82615C354.654 -2.15117 336.157 -3.05822 319.422 10.298C300.261 25.5817 298.243 47.7287 297.97 51.3871C301.841 51.5156 325.311 51.9087 343.036 33.2614C356.045 19.5725 358.433 3.56321 359 -1.81859V-1.82615Z" fill="#FFCA36"/>
<path d="M-1.84888 -1.97729C2.69395 -2.09823 9.20963 -1.79588 16.7004 0.260086C19.1797 0.940369 29.0817 3.81268 37.4266 10.2376C54.8949 23.677 57.5934 46.5269 58.0696 51.3494C54.139 51.3947 31.0394 51.3267 13.7071 32.6718C1.11417 19.1342 -1.26685 3.48765 -1.84888 -1.97729Z" fill="#FFCA36"/>
<path d="M58.0621 309.252C53.8669 308.92 35.3781 307.892 18.8698 321.286C-0.722618 337.182 -1.75817 360.599 -1.84888 364C2.59569 363.879 25.1738 362.791 42.2566 344.083C54.6908 330.47 57.3591 315.042 58.0696 309.252H58.0621Z" fill="#FFCA36"/>
<path d="M297.834 309.131C302.468 309.003 309.127 309.32 316.777 311.429C319.309 312.125 329.415 315.088 337.934 321.686C355.765 335.511 358.516 359.011 359 363.977C354.986 364.03 331.403 363.962 313.715 344.771C300.873 330.832 298.439 314.747 297.85 309.124L297.834 309.131Z" fill="#FFCA36"/>
<path d="M209.797 39.7241C211.558 35.015 216.698 32.6265 221.294 34.3877C225.882 36.1488 228.18 41.3946 226.419 46.1112C224.658 50.8203 219.518 53.2088 214.922 51.4477C210.334 49.6865 208.036 44.4407 209.797 39.7241Z" fill="#FFCA36"/>
<path d="M127.89 39.7241C129.651 35.015 134.791 32.6265 139.387 34.3877C143.975 36.1488 146.273 41.3946 144.512 46.1112C142.751 50.8203 137.611 53.2088 133.015 51.4477C128.427 49.6865 126.129 44.4407 127.89 39.7241Z" fill="#FFCA36"/>
<path d="M209.797 318.141C211.558 313.432 216.698 311.044 221.294 312.805C225.882 314.566 228.18 319.812 226.419 324.529C224.658 329.238 219.518 331.626 214.922 329.865C210.334 328.104 208.036 322.858 209.797 318.141Z" fill="#FFCA36"/>
<path d="M127.89 318.141C129.651 313.432 134.791 311.044 139.387 312.805C143.975 314.566 146.273 319.812 144.512 324.529C142.751 329.238 137.611 331.626 133.015 329.865C128.427 328.104 126.129 322.858 127.89 318.141Z" fill="#FFCA36"/>
<path d="M43.7987 149.439C39.1576 147.655 36.7993 142.439 38.5378 137.783C40.2763 133.127 45.4465 130.799 50.0952 132.583C54.7363 134.367 57.0946 139.582 55.3561 144.238C53.6176 148.894 48.4474 151.222 43.7987 149.439Z" fill="#FFCA36"/>
<path d="M43.7987 233.688C39.1576 231.904 36.7993 226.689 38.5378 222.032C40.2763 217.376 45.4465 215.048 50.0952 216.832C54.7363 218.616 57.0946 223.831 55.3561 228.488C53.6176 233.144 48.4474 235.472 43.7987 233.688Z" fill="#FFCA36"/>
<path d="M303.783 149.439C299.142 147.655 296.784 142.439 298.522 137.783C300.261 133.127 305.431 130.799 310.08 132.583C314.721 134.367 317.079 139.582 315.34 144.238C313.602 148.894 308.432 151.222 303.783 149.439Z" fill="#FFCA36"/>
<path d="M304.516 230.71C299.875 228.926 297.517 223.71 299.255 219.054C300.994 214.398 306.164 212.07 310.813 213.854C315.454 215.638 317.812 220.853 316.074 225.509C314.335 230.166 309.165 232.494 304.516 230.71Z" fill="#FFCA36"/>
</svg>
