<svg width="39" height="29" viewBox="0 0 39 29" fill="none" xmlns="http://www.w3.org/2000/svg">
<g clip-path="url(#clip0_59_2200)">
<path d="M0 9.66675H38.6667V19.3334H0V9.66675Z" fill="white"/>
<path d="M0 0H38.6667V9.66667H0V0Z" fill="#CE1126"/>
<path d="M0 19.3333H38.6667V28.9999H0V19.3333Z" fill="black"/>
<path d="M23.618 12.7247C23.5628 12.6982 23.5127 12.6624 23.4698 12.6189C23.438 12.5659 23.4592 12.5659 23.5968 12.5977C23.8402 12.6718 23.999 12.64 24.1577 12.513L24.2953 12.3966L24.4541 12.4707C24.5493 12.5236 24.6446 12.5553 24.6658 12.5448C24.7398 12.5236 24.888 12.3331 24.8774 12.2696C24.8774 12.1955 24.9409 12.2167 24.9833 12.3013C25.0468 12.4707 24.9515 12.6718 24.7716 12.7141C24.6975 12.7353 24.6234 12.7247 24.4964 12.6824C24.3482 12.6294 24.3165 12.6294 24.2424 12.6824C24.1537 12.7494 24.0474 12.7891 23.9365 12.7966C23.8256 12.8041 23.7149 12.7791 23.618 12.7247ZM24.2318 12.1637C24.1602 12.0343 24.1237 11.8883 24.126 11.7404C24.1366 11.6769 24.1577 11.6557 24.2107 11.6769C24.3165 11.7086 24.3377 11.7827 24.3165 11.9944C24.3165 12.1849 24.2847 12.2378 24.2318 12.1637ZM17.0771 11.9626C17.0665 12.1002 17.3311 12.4495 17.4475 12.513C17.3629 12.5448 17.2676 12.5342 17.1935 12.5659C16.7702 12.9893 15.2461 14.471 14.9709 14.8309C15.7964 14.8521 16.7067 14.8203 17.4793 14.7886C17.4793 14.2276 18.0085 14.1959 18.3683 13.9948C18.5483 14.2805 19.0034 14.2594 19.0669 14.6933V16.5561H12.0286C12.0019 16.6973 11.946 16.8314 11.8642 16.9496C11.7825 17.0679 11.6769 17.1676 11.5542 17.2424C11.4315 17.3173 11.2944 17.3655 11.1519 17.384C11.0093 17.4025 10.8645 17.3909 10.7267 17.3499C10.9384 17.1382 11.2983 17.0535 11.4253 16.7466C11.5311 16.0692 11.2136 15.6564 11.0019 15.2648C11.2682 15.1795 11.5185 15.0507 11.7428 14.8838C11.4994 15.6247 12.399 15.5506 13.0552 15.5294C13.0764 15.2754 13.0658 14.9791 12.8753 14.9367C13.1187 14.8415 13.161 14.8097 13.5738 14.471V15.4871L18.453 15.4765C18.453 15.159 18.5377 14.6404 18.2837 14.6404C18.0508 14.6404 18.2837 15.2966 18.0931 15.2966H14.3147V14.6615C14.4735 14.4922 14.4523 14.5028 15.5424 13.4126C15.6483 13.3068 16.4209 12.6083 17.0877 11.9626H17.0771ZM26.5074 11.9309C26.772 12.0791 26.9836 12.2696 27.3012 12.3543C27.2694 12.4918 27.1424 12.5448 27.1106 12.6824V15.54C27.4705 15.6141 27.5552 15.4024 27.7245 15.2966C27.7668 15.7517 28.0632 16.1962 28.042 16.5667H26.5074V11.9415V11.9309ZM24.4541 13.4656C24.4541 13.4656 25.015 12.9893 25.015 12.9681V15.4553H25.4172L25.4066 12.6718C25.5654 12.5024 25.8935 12.2696 25.9676 12.1002V16.5455H22.4326C22.3796 15.6247 22.369 14.6721 23.4486 14.8732V14.5028C23.4169 14.4393 23.3534 14.5134 23.3428 14.4287C23.5121 14.2594 23.565 14.217 24.0307 13.8148L24.0413 15.4553H24.4541V13.4656ZM23.1205 15.4342C23.1946 15.54 23.4592 15.54 23.438 15.3495C23.4063 15.1907 23.0676 15.2437 23.1205 15.4342Z" fill="#007A3D"/>
<path d="M12.8753 17.2969C12.9922 17.2969 13.0869 17.2021 13.0869 17.0852C13.0869 16.9683 12.9922 16.8735 12.8753 16.8735C12.7583 16.8735 12.6636 16.9683 12.6636 17.0852C12.6636 17.2021 12.7583 17.2969 12.8753 17.2969Z" fill="#007A3D"/>
<path d="M19.5432 11.9414C19.8077 12.079 20.0194 12.2801 20.3475 12.3648C20.3052 12.4918 20.1888 12.5447 20.157 12.6823V15.5399C20.5169 15.614 20.591 15.4129 20.7603 15.2965C20.8132 15.7516 21.099 16.2067 21.0884 16.5666H19.5432V11.9414Z" fill="#007A3D"/>
</g>
<defs>
<clipPath id="clip0_59_2200">
<rect width="38.6667" height="29" rx="6.2069" fill="white"/>
</clipPath>
</defs>
</svg>
