<svg width="39" height="29" viewBox="0 0 39 29" fill="none" xmlns="http://www.w3.org/2000/svg">
<g clip-path="url(#clip0_59_3997)">
<path fill-rule="evenodd" clip-rule="evenodd" d="M-6.04166 0H44.7083V29H-6.04166V0Z" fill="white"/>
<path fill-rule="evenodd" clip-rule="evenodd" d="M-6.04166 19.4731H44.7083V29.0001H-6.04166V19.4731Z" fill="#DA0000"/>
<path fill-rule="evenodd" clip-rule="evenodd" d="M3.6099 19.8809H6.38529V20.0678H3.6099V19.8809ZM4.02338 20.8324H4.21596V21.0193H4.02338V20.8324ZM6.39662 20.8324V21.0193H5.84154V20.8268L6.39662 20.8324ZM6.69115 19.8809H6.88373V21.0137H6.69115V19.8809Z" fill="white"/>
<path fill-rule="evenodd" clip-rule="evenodd" d="M7.80131 20.8269V21.0194H6.74779V20.8269H7.80131ZM5.84154 20.3794H6.02279V21.0194H5.83588L5.84154 20.3794Z" fill="white"/>
<path fill-rule="evenodd" clip-rule="evenodd" d="M7.64271 19.8809H7.83529V21.0137H7.64271V19.8809ZM7.16693 19.8809H7.35385V21.0137H7.16693V19.8809ZM4.62943 20.334V20.5266H3.6099V20.334H4.62943ZM6.85541 20.334V20.5266H5.83588V20.334H6.85541Z" fill="white"/>
<path fill-rule="evenodd" clip-rule="evenodd" d="M5.84154 20.385H6.02279V21.0137H5.83588L5.84154 20.385Z" fill="white"/>
<path fill-rule="evenodd" clip-rule="evenodd" d="M5.84154 20.385H6.02279V21.0137H5.83588L5.84154 20.385Z" fill="white"/>
<path fill-rule="evenodd" clip-rule="evenodd" d="M5.84154 20.385H6.02279V21.0137H5.83587L5.84154 20.385ZM3.61556 20.385H3.80248V21.0137H3.61556V20.385ZM5.24681 20.385H5.43939V21.0137H5.24681V20.385ZM4.43685 20.385H4.62943V21.0137H4.43685V20.385Z" fill="white"/>
<path fill-rule="evenodd" clip-rule="evenodd" d="M5.37709 20.8268V21.0193H4.52181V20.8268H5.37709ZM5.43373 20.334V20.5266H4.88998V20.334H5.43373Z" fill="white"/>
<path fill-rule="evenodd" clip-rule="evenodd" d="M-0.955338 19.8809H1.82005V20.0678H-0.955338V19.8809ZM-0.541861 20.8324H-0.349283V21.0193H-0.547525L-0.541861 20.8324ZM1.83138 20.8324V21.0193H1.2763V20.8268L1.83138 20.8324ZM2.12591 19.8809H2.31849V21.0137H2.12591V19.8809Z" fill="white"/>
<path fill-rule="evenodd" clip-rule="evenodd" d="M3.23607 20.8269V21.0194H2.18256V20.8269H3.23607ZM1.27631 20.3794H1.46322V21.0194H1.27631V20.3794Z" fill="white"/>
<path fill-rule="evenodd" clip-rule="evenodd" d="M3.07748 19.8809H3.27005V21.0137H3.07748V19.8809ZM2.60169 19.8809H2.78861V21.0137H2.60169V19.8809ZM0.0641938 20.334V20.5266H-0.955338V20.334H0.0641938ZM2.29017 20.334V20.5266H1.27064V20.334H2.29017Z" fill="white"/>
<path fill-rule="evenodd" clip-rule="evenodd" d="M1.27631 20.385H1.46322V21.0137H1.27631V20.385Z" fill="white"/>
<path fill-rule="evenodd" clip-rule="evenodd" d="M1.27631 20.385H1.46322V21.0137H1.27631V20.385Z" fill="white"/>
<path fill-rule="evenodd" clip-rule="evenodd" d="M1.2763 20.385H1.46321V21.0137H1.2763V20.385ZM-0.949677 20.385H-0.762763V21.0137H-0.949677V20.385ZM0.681573 20.385H0.868488V21.0137H0.681573V20.385ZM-0.128387 20.385H0.0641909V21.0137H-0.128387V20.385Z" fill="white"/>
<path fill-rule="evenodd" clip-rule="evenodd" d="M0.811852 20.8268V21.0193H-0.0377579V20.8268H0.811852ZM0.868492 20.334V20.5266H0.324742V20.334H0.868492Z" fill="white"/>
<path fill-rule="evenodd" clip-rule="evenodd" d="M8.13548 19.8809H10.9109V20.0678H8.13548V19.8809ZM8.54896 20.8324H8.74154V21.0193H8.54896V20.8324ZM10.9222 20.8324V21.0193H10.3671V20.8268L10.9222 20.8324ZM11.2224 19.8809H11.415V21.0137H11.2224V19.8809Z" fill="white"/>
<path fill-rule="evenodd" clip-rule="evenodd" d="M12.3269 20.8269V21.0194H11.2734V20.8269H12.3269ZM10.3671 20.3794H10.5597V21.0194H10.3671V20.3794Z" fill="white"/>
<path fill-rule="evenodd" clip-rule="evenodd" d="M12.1683 19.8809H12.3609V21.0137H12.1683V19.8809ZM11.6925 19.8809H11.8851V21.0137H11.6869L11.6925 19.8809ZM9.15501 20.334V20.5266H8.13548V20.334H9.15501ZM11.381 20.334V20.5266H10.3615V20.334H11.381Z" fill="white"/>
<path fill-rule="evenodd" clip-rule="evenodd" d="M10.3671 20.385H10.5597V21.0137H10.3671V20.385Z" fill="white"/>
<path fill-rule="evenodd" clip-rule="evenodd" d="M10.3671 20.385H10.5597V21.0137H10.3671V20.385Z" fill="white"/>
<path fill-rule="evenodd" clip-rule="evenodd" d="M10.3671 20.385H10.5597V21.0137H10.3671V20.385ZM8.14114 20.385H8.33372V21.0137H8.14114V20.385ZM9.77239 20.385H9.96497V21.0137H9.77239V20.385ZM8.96243 20.385H9.15501V21.0137H8.96243V20.385Z" fill="white"/>
<path fill-rule="evenodd" clip-rule="evenodd" d="M9.90833 20.8268V21.0193H9.04739V20.8268H9.90833ZM9.96497 20.334V20.5266H9.42122V20.334H9.96497Z" fill="white"/>
<path fill-rule="evenodd" clip-rule="evenodd" d="M12.6894 19.8809H15.4704V20.0678H12.6951L12.6894 19.8809ZM13.1085 20.8324H13.2954V21.0193H13.1085V20.8324ZM15.4761 20.8324V21.0193H14.921V20.8268L15.4761 20.8324ZM15.7763 19.8809H15.9689V21.0137H15.7763V19.8809Z" fill="white"/>
<path fill-rule="evenodd" clip-rule="evenodd" d="M16.8865 20.8269V21.0194H15.8329V20.8269H16.8865ZM14.921 20.3794H15.1136V21.0194H14.921V20.3794Z" fill="white"/>
<path fill-rule="evenodd" clip-rule="evenodd" d="M16.7279 19.8809H16.9204V21.0137H16.7279V19.8809ZM16.2464 19.8809H16.439V21.0137H16.2464V19.8809ZM13.7089 20.334V20.5266H12.6951V20.334H13.7089ZM15.9349 20.334V20.5266H14.921V20.334H15.9349Z" fill="white"/>
<path fill-rule="evenodd" clip-rule="evenodd" d="M14.921 20.385H15.1136V21.0137H14.921V20.385Z" fill="white"/>
<path fill-rule="evenodd" clip-rule="evenodd" d="M14.921 20.385H15.1136V21.0137H14.921V20.385Z" fill="white"/>
<path fill-rule="evenodd" clip-rule="evenodd" d="M14.921 20.385H15.1136V21.0137H14.921V20.385ZM12.6951 20.385H12.8876V21.0137H12.6951V20.385ZM14.3263 20.385H14.5189V21.0137H14.3263V20.385ZM13.522 20.385H13.7089V21.0137H13.522V20.385Z" fill="white"/>
<path fill-rule="evenodd" clip-rule="evenodd" d="M14.4622 20.8268V21.0193H13.607V20.8268H14.4622ZM14.5189 20.334V20.5266H13.9751V20.334H14.5189Z" fill="white"/>
<path fill-rule="evenodd" clip-rule="evenodd" d="M17.266 19.8809H20.0413V20.0678H17.266V19.8809ZM17.6794 20.8324H17.872V21.0193H17.6794V20.8324ZM20.0527 20.8324V21.0193H19.4976V20.8268L20.0527 20.8324ZM20.3529 19.8809H20.5398V21.0137H20.3529V19.8809Z" fill="white"/>
<path fill-rule="evenodd" clip-rule="evenodd" d="M21.4574 20.8269V21.0194H20.4038V20.8269H21.4574ZM19.4976 20.3794H19.6902V21.0194H19.4976V20.3794Z" fill="white"/>
<path fill-rule="evenodd" clip-rule="evenodd" d="M21.2988 19.8809H21.4913V21.0137H21.2988V19.8809ZM20.823 19.8809H21.0156V21.0137H20.823V19.8809ZM18.2855 20.334V20.5266H17.266V20.334H18.2855ZM20.5115 20.334V20.5266H19.4919V20.334H20.5115Z" fill="white"/>
<path fill-rule="evenodd" clip-rule="evenodd" d="M19.4976 20.385H19.6902V21.0137H19.4976V20.385Z" fill="white"/>
<path fill-rule="evenodd" clip-rule="evenodd" d="M19.4976 20.385H19.6902V21.0137H19.4976V20.385Z" fill="white"/>
<path fill-rule="evenodd" clip-rule="evenodd" d="M19.4976 20.385H19.6902V21.0137H19.4976V20.385ZM17.2716 20.385H17.4585V21.0137H17.2716V20.385ZM18.9029 20.385H19.0954V21.0137H18.9029V20.385ZM18.0929 20.385H18.2855V21.0137H18.0872L18.0929 20.385Z" fill="white"/>
<path fill-rule="evenodd" clip-rule="evenodd" d="M19.0388 20.8268V21.0193H18.1779V20.8268H19.0388ZM19.0954 20.334V20.5266H18.5404V20.334H19.0954Z" fill="white"/>
<path fill-rule="evenodd" clip-rule="evenodd" d="M-6.04166 0H44.7083V9.52695H-6.04166V0Z" fill="#239F40"/>
<path fill-rule="evenodd" clip-rule="evenodd" d="M21.8652 19.8809H24.6406V20.0678H21.8652V19.8809ZM22.2786 20.8324H22.4712V21.0193H22.2786V20.8324ZM24.6519 20.8324V21.0193H24.0912V20.8268L24.6519 20.8324ZM24.9521 19.8809H25.139V21.0137H24.9521V19.8809Z" fill="white"/>
<path fill-rule="evenodd" clip-rule="evenodd" d="M26.0566 20.8269V21.0194H25.0031V20.8269H26.0566ZM24.0968 20.3794H24.2894V21.0194H24.0911L24.0968 20.3794Z" fill="white"/>
<path fill-rule="evenodd" clip-rule="evenodd" d="M25.9036 19.8809H26.0906V21.0137H25.9036V19.8809ZM25.4222 19.8809H25.6148V21.0137H25.4222V19.8809ZM22.8847 20.334V20.5266H21.8652V20.334H22.8847ZM25.1107 20.334V20.5266H24.0911V20.334H25.1107Z" fill="white"/>
<path fill-rule="evenodd" clip-rule="evenodd" d="M24.0911 20.385H24.2894V21.0137H24.0911V20.385Z" fill="white"/>
<path fill-rule="evenodd" clip-rule="evenodd" d="M24.0911 20.385H24.2894V21.0137H24.0911V20.385Z" fill="white"/>
<path fill-rule="evenodd" clip-rule="evenodd" d="M24.0911 20.385H24.2894V21.0137H24.0911V20.385ZM21.8708 20.385H22.0634V21.0137H21.8708V20.385ZM23.5021 20.385H23.6947V21.0137H23.5021V20.385ZM22.6921 20.385H22.8847V21.0137H22.6921V20.385Z" fill="white"/>
<path fill-rule="evenodd" clip-rule="evenodd" d="M23.638 20.8268V21.0193H22.7771V20.8268H23.638ZM23.6947 20.334V20.5266H23.1509V20.334H23.6947Z" fill="white"/>
<path fill-rule="evenodd" clip-rule="evenodd" d="M26.4361 19.8809H29.2115V20.0678H26.4361V19.8809ZM26.8496 20.8324H27.0421V21.0193H26.8496V20.8324ZM29.2285 20.8324V21.0193H28.6677V20.8268L29.2285 20.8324ZM29.523 19.8809H29.7156V21.0137H29.523V19.8809Z" fill="white"/>
<path fill-rule="evenodd" clip-rule="evenodd" d="M30.6275 20.8269V21.0194H29.574V20.8269H30.6275ZM28.6677 20.3794H28.8603V21.0194H28.6677V20.3794Z" fill="white"/>
<path fill-rule="evenodd" clip-rule="evenodd" d="M30.4745 19.8809H30.6615V21.0137H30.4745V19.8809ZM29.9931 19.8809H30.1857V21.0137H29.9931V19.8809ZM27.4556 20.334V20.5266H26.4417V20.334H27.4556ZM29.6816 20.334V20.5266H28.6677V20.334H29.6816Z" fill="white"/>
<path fill-rule="evenodd" clip-rule="evenodd" d="M28.6677 20.385H28.8603V21.0137H28.6677V20.385Z" fill="white"/>
<path fill-rule="evenodd" clip-rule="evenodd" d="M28.6677 20.385H28.8603V21.0137H28.6677V20.385Z" fill="white"/>
<path fill-rule="evenodd" clip-rule="evenodd" d="M28.6677 20.385H28.8603V21.0137H28.6677V20.385ZM26.4417 20.385H26.6343V21.0137H26.4417V20.385ZM28.073 20.385H28.2656V21.0137H28.073V20.385ZM27.263 20.385H27.4556V21.0137H27.2687L27.263 20.385Z" fill="white"/>
<path fill-rule="evenodd" clip-rule="evenodd" d="M28.2089 20.8268V21.0193H27.3537V20.8268H28.2089ZM28.2656 20.334V20.5266H27.7162V20.334H28.2656Z" fill="white"/>
<path fill-rule="evenodd" clip-rule="evenodd" d="M31.0126 19.8809H33.788V20.0678H31.0126V19.8809ZM31.4261 20.8324H31.6187V21.0193H31.4261V20.8324ZM33.7994 20.8324V21.0193H33.2443V20.8268L33.7994 20.8324ZM34.0939 19.8809H34.2865V21.0137H34.0939V19.8809Z" fill="white"/>
<path fill-rule="evenodd" clip-rule="evenodd" d="M35.204 20.8269V21.0194H34.1505V20.8269H35.204ZM33.2386 20.3794H33.4312V21.0194H33.2386V20.3794Z" fill="white"/>
<path fill-rule="evenodd" clip-rule="evenodd" d="M35.0454 19.8809H35.238V21.0137H35.0454V19.8809ZM34.5697 19.8809H34.7566V21.0137H34.5697V19.8809ZM32.0322 20.334V20.5266H31.0126V20.334H32.0322ZM34.2581 20.334V20.5266H33.2386V20.334H34.2581Z" fill="white"/>
<path fill-rule="evenodd" clip-rule="evenodd" d="M33.2443 20.385H33.4312V21.0137H33.2443V20.385Z" fill="white"/>
<path fill-rule="evenodd" clip-rule="evenodd" d="M33.2443 20.385H33.4312V21.0137H33.2443V20.385Z" fill="white"/>
<path fill-rule="evenodd" clip-rule="evenodd" d="M33.2443 20.385H33.4312V21.0137H33.2443V20.385ZM31.0126 20.385H31.2052V21.0137H31.0126V20.385ZM32.6495 20.385H32.8365V21.0137H32.6495V20.385ZM31.8396 20.385H32.0322V21.0137H31.8396V20.385Z" fill="white"/>
<path fill-rule="evenodd" clip-rule="evenodd" d="M32.7798 20.8268V21.0193H31.9245V20.8268H32.7798ZM32.8365 20.334V20.5266H32.2927V20.334H32.8365Z" fill="white"/>
<path fill-rule="evenodd" clip-rule="evenodd" d="M35.6119 19.8809H38.3872V20.0678H35.6119V19.8809ZM36.0253 20.8324H36.2179V21.0193H36.0253V20.8324ZM38.3986 20.8324V21.0193H37.8435V20.8268L38.3986 20.8324ZM38.6931 19.8809H38.8857V21.0137H38.6931V19.8809Z" fill="white"/>
<path fill-rule="evenodd" clip-rule="evenodd" d="M39.8033 20.8269V21.0194H38.7497V20.8269H39.8033ZM37.8435 20.3794H38.0304V21.0194H37.8435V20.3794Z" fill="white"/>
<path fill-rule="evenodd" clip-rule="evenodd" d="M39.6447 19.8809H39.8372V21.0137H39.6447V19.8809ZM39.1689 19.8809H39.3558V21.0137H39.1689V19.8809ZM36.6314 20.334V20.5266H35.6119V20.334H36.6314ZM38.8574 20.334V20.5266H37.8378V20.334H38.8574Z" fill="white"/>
<path fill-rule="evenodd" clip-rule="evenodd" d="M37.8435 20.385H38.0304V21.0137H37.8435V20.385Z" fill="white"/>
<path fill-rule="evenodd" clip-rule="evenodd" d="M37.8435 20.385H38.0304V21.0137H37.8435V20.385Z" fill="white"/>
<path fill-rule="evenodd" clip-rule="evenodd" d="M37.8435 20.385H38.0304V21.0137H37.8435V20.385ZM35.6175 20.385H35.8044V21.0137H35.6175V20.385ZM37.2488 20.385H37.4413V21.0137H37.2488V20.385ZM36.4388 20.385H36.6314V21.0137H36.4388V20.385Z" fill="white"/>
<path fill-rule="evenodd" clip-rule="evenodd" d="M37.379 20.8268V21.0193H36.5238V20.8268H37.379ZM37.4357 20.334V20.5266H36.8919V20.334H37.4357Z" fill="white"/>
<path fill-rule="evenodd" clip-rule="evenodd" d="M3.6099 8.12231H6.38529V8.31489H3.6099V8.12231ZM4.02338 9.08521H4.21596V9.26646H4.02338V9.08521ZM6.39662 9.07388V9.26646H5.84154V9.07388H6.39662ZM6.69115 8.12231H6.88373V9.26646H6.69115V8.12231Z" fill="white"/>
<path fill-rule="evenodd" clip-rule="evenodd" d="M7.80131 9.07392V9.2665H6.74779V9.07392H7.80131ZM5.84154 8.62646H6.02279V9.2665H5.83588L5.84154 8.62646Z" fill="white"/>
<path fill-rule="evenodd" clip-rule="evenodd" d="M7.64271 8.12231H7.83529V9.26646H7.64271V8.12231ZM7.16693 8.12231H7.35385V9.26646H7.16693V8.12231ZM4.62943 8.57544V8.76802H3.6099V8.5811L4.62943 8.57544ZM6.85541 8.57544V8.76802H5.83588V8.5811L6.85541 8.57544Z" fill="white"/>
<path fill-rule="evenodd" clip-rule="evenodd" d="M5.84154 8.62646H6.02279V9.2665H5.83588L5.84154 8.62646Z" fill="white"/>
<path fill-rule="evenodd" clip-rule="evenodd" d="M5.84154 8.62646H6.02279V9.2665H5.83588L5.84154 8.62646Z" fill="white"/>
<path fill-rule="evenodd" clip-rule="evenodd" d="M5.84154 8.62646H6.02279V9.2665H5.83587L5.84154 8.62646ZM3.61556 8.62646H3.80248V9.2665H3.61556V8.62646ZM5.24681 8.62646H5.43939V9.2665H5.24681V8.62646ZM4.43685 8.62646H4.62943V9.2665H4.43685V8.62646Z" fill="white"/>
<path fill-rule="evenodd" clip-rule="evenodd" d="M5.37709 9.07383V9.26641H4.52181V9.07383H5.37709ZM5.43373 8.58105V8.76797H4.88998V8.58105H5.43373Z" fill="white"/>
<path fill-rule="evenodd" clip-rule="evenodd" d="M-0.955338 8.12231H1.82005V8.31489H-0.955338V8.12231ZM-0.541861 9.08521H-0.349283V9.26646H-0.547525L-0.541861 9.08521ZM1.83138 9.07388V9.26646H1.2763V9.07388H1.83138ZM2.12591 8.12231H2.31849V9.26646H2.12591V8.12231Z" fill="white"/>
<path fill-rule="evenodd" clip-rule="evenodd" d="M3.23607 9.07392V9.2665H2.18256V9.07392H3.23607ZM1.27631 8.62646H1.46322V9.2665H1.27631V8.62646Z" fill="white"/>
<path fill-rule="evenodd" clip-rule="evenodd" d="M3.07748 8.12231H3.27005V9.26646H3.07748V8.12231ZM2.60169 8.12231H2.78861V9.26646H2.60169V8.12231ZM0.0641938 8.57544V8.76802H-0.955338V8.5811L0.0641938 8.57544ZM2.29017 8.57544V8.76802H1.27064V8.5811L2.29017 8.57544Z" fill="white"/>
<path fill-rule="evenodd" clip-rule="evenodd" d="M1.27631 8.62646H1.46322V9.2665H1.27631V8.62646Z" fill="white"/>
<path fill-rule="evenodd" clip-rule="evenodd" d="M1.27631 8.62646H1.46322V9.2665H1.27631V8.62646Z" fill="white"/>
<path fill-rule="evenodd" clip-rule="evenodd" d="M1.2763 8.62646H1.46321V9.2665H1.2763V8.62646ZM-0.949677 8.62646H-0.762763V9.2665H-0.949677V8.62646ZM0.681573 8.62646H0.868488V9.2665H0.681573V8.62646ZM-0.128387 8.62646H0.0641909V9.2665H-0.128387V8.62646Z" fill="white"/>
<path fill-rule="evenodd" clip-rule="evenodd" d="M0.811852 9.07383V9.26641H-0.0377579V9.07383H0.811852ZM0.868492 8.58105V8.76797H0.324742V8.58105H0.868492Z" fill="white"/>
<path fill-rule="evenodd" clip-rule="evenodd" d="M8.13548 8.12231H10.9109V8.31489H8.13548V8.12231ZM8.54896 9.08521H8.74154V9.26646H8.54896V9.08521ZM10.9222 9.07388V9.26646H10.3671V9.07388H10.9222ZM11.2224 8.12231H11.415V9.26646H11.2224V8.12231Z" fill="white"/>
<path fill-rule="evenodd" clip-rule="evenodd" d="M12.3269 9.07392V9.2665H11.2734V9.07392H12.3269ZM10.3671 8.62646H10.5597V9.2665H10.3671V8.62646Z" fill="white"/>
<path fill-rule="evenodd" clip-rule="evenodd" d="M12.1683 8.12231H12.3609V9.26646H12.1683V8.12231ZM11.6925 8.12231H11.8851V9.26646H11.6869L11.6925 8.12231ZM9.15501 8.57544V8.76802H8.13548V8.5811L9.15501 8.57544ZM11.381 8.57544V8.76802H10.3615V8.5811L11.381 8.57544Z" fill="white"/>
<path fill-rule="evenodd" clip-rule="evenodd" d="M10.3671 8.62646H10.5597V9.2665H10.3671V8.62646Z" fill="white"/>
<path fill-rule="evenodd" clip-rule="evenodd" d="M10.3671 8.62646H10.5597V9.2665H10.3671V8.62646Z" fill="white"/>
<path fill-rule="evenodd" clip-rule="evenodd" d="M10.3671 8.62646H10.5597V9.2665H10.3671V8.62646ZM8.14114 8.62646H8.33372V9.2665H8.14114V8.62646ZM9.77239 8.62646H9.96497V9.2665H9.77239V8.62646ZM8.96243 8.62646H9.15501V9.2665H8.96243V8.62646Z" fill="white"/>
<path fill-rule="evenodd" clip-rule="evenodd" d="M9.90833 9.07383V9.26641H9.04739V9.07383H9.90833ZM9.96497 8.58105V8.76797H9.42122V8.58105H9.96497Z" fill="white"/>
<path fill-rule="evenodd" clip-rule="evenodd" d="M12.6894 8.12231H15.4704V8.31489H12.6951L12.6894 8.12231ZM13.1085 9.08521H13.2954V9.26646H13.1085V9.08521ZM15.4761 9.07388V9.26646H14.921V9.07388H15.4761ZM15.7763 8.12231H15.9689V9.26646H15.7763V8.12231Z" fill="white"/>
<path fill-rule="evenodd" clip-rule="evenodd" d="M16.8865 9.07392V9.2665H15.8329V9.07392H16.8865ZM14.921 8.62646H15.1136V9.2665H14.921V8.62646Z" fill="white"/>
<path fill-rule="evenodd" clip-rule="evenodd" d="M16.7279 8.12231H16.9204V9.26646H16.7279V8.12231ZM16.2464 8.12231H16.439V9.26646H16.2464V8.12231ZM13.7089 8.57544V8.76802H12.6951V8.5811L13.7089 8.57544ZM15.9349 8.57544V8.76802H14.921V8.5811L15.9349 8.57544Z" fill="white"/>
<path fill-rule="evenodd" clip-rule="evenodd" d="M14.921 8.62646H15.1136V9.2665H14.921V8.62646Z" fill="white"/>
<path fill-rule="evenodd" clip-rule="evenodd" d="M14.921 8.62646H15.1136V9.2665H14.921V8.62646Z" fill="white"/>
<path fill-rule="evenodd" clip-rule="evenodd" d="M14.921 8.62646H15.1136V9.2665H14.921V8.62646ZM12.6951 8.62646H12.8876V9.2665H12.6951V8.62646ZM14.3263 8.62646H14.5189V9.2665H14.3263V8.62646ZM13.522 8.62646H13.7089V9.2665H13.522V8.62646Z" fill="white"/>
<path fill-rule="evenodd" clip-rule="evenodd" d="M14.4622 9.07383V9.26641H13.607V9.07383H14.4622ZM14.5189 8.58105V8.76797H13.9751V8.58105H14.5189Z" fill="white"/>
<path fill-rule="evenodd" clip-rule="evenodd" d="M17.266 8.12231H20.0413V8.31489H17.266V8.12231ZM17.6794 9.08521H17.872V9.26646H17.6794V9.08521ZM20.0527 9.07388V9.26646H19.4976V9.07388H20.0527ZM20.3529 8.12231H20.5398V9.26646H20.3529V8.12231Z" fill="white"/>
<path fill-rule="evenodd" clip-rule="evenodd" d="M21.4574 9.07392V9.2665H20.4038V9.07392H21.4574ZM19.4976 8.62646H19.6902V9.2665H19.4976V8.62646Z" fill="white"/>
<path fill-rule="evenodd" clip-rule="evenodd" d="M21.2988 8.12231H21.4913V9.26646H21.2988V8.12231ZM20.823 8.12231H21.0156V9.26646H20.823V8.12231ZM18.2855 8.57544V8.76802H17.266V8.5811L18.2855 8.57544ZM20.5115 8.57544V8.76802H19.4919V8.5811L20.5115 8.57544Z" fill="white"/>
<path fill-rule="evenodd" clip-rule="evenodd" d="M19.4976 8.62646H19.6902V9.2665H19.4976V8.62646Z" fill="white"/>
<path fill-rule="evenodd" clip-rule="evenodd" d="M19.4976 8.62646H19.6902V9.2665H19.4976V8.62646Z" fill="white"/>
<path fill-rule="evenodd" clip-rule="evenodd" d="M19.4976 8.62646H19.6902V9.2665H19.4976V8.62646ZM17.2716 8.62646H17.4585V9.2665H17.2716V8.62646ZM18.9029 8.62646H19.0954V9.2665H18.9029V8.62646ZM18.0929 8.62646H18.2855V9.2665H18.0872L18.0929 8.62646Z" fill="white"/>
<path fill-rule="evenodd" clip-rule="evenodd" d="M19.0388 9.07383V9.26641H18.1779V9.07383H19.0388ZM19.0954 8.58105V8.76797H18.5404V8.58105H19.0954Z" fill="white"/>
<path fill-rule="evenodd" clip-rule="evenodd" d="M21.8652 8.12231H24.6406V8.31489H21.8652V8.12231ZM22.2786 9.08521H22.4712V9.26646H22.2786V9.08521ZM24.6519 9.07388V9.26646H24.0912V9.07388H24.6519ZM24.9521 8.12231H25.139V9.26646H24.9521V8.12231Z" fill="white"/>
<path fill-rule="evenodd" clip-rule="evenodd" d="M26.0566 9.07392V9.2665H25.0031V9.07392H26.0566ZM24.0968 8.62646H24.2894V9.2665H24.0911L24.0968 8.62646Z" fill="white"/>
<path fill-rule="evenodd" clip-rule="evenodd" d="M25.9036 8.12231H26.0906V9.26646H25.9036V8.12231ZM25.4222 8.12231H25.6148V9.26646H25.4222V8.12231ZM22.8847 8.57544V8.76802H21.8652V8.5811L22.8847 8.57544ZM25.1107 8.57544V8.76802H24.0911V8.5811L25.1107 8.57544Z" fill="white"/>
<path fill-rule="evenodd" clip-rule="evenodd" d="M24.0911 8.62646H24.2894V9.2665H24.0911V8.62646Z" fill="white"/>
<path fill-rule="evenodd" clip-rule="evenodd" d="M24.0911 8.62646H24.2894V9.2665H24.0911V8.62646Z" fill="white"/>
<path fill-rule="evenodd" clip-rule="evenodd" d="M24.0911 8.62646H24.2894V9.2665H24.0911V8.62646ZM21.8708 8.62646H22.0634V9.2665H21.8708V8.62646ZM23.5021 8.62646H23.6947V9.2665H23.5021V8.62646ZM22.6921 8.62646H22.8847V9.2665H22.6921V8.62646Z" fill="white"/>
<path fill-rule="evenodd" clip-rule="evenodd" d="M23.638 9.07383V9.26641H22.7771V9.07383H23.638ZM23.6947 8.58105V8.76797H23.1509V8.58105H23.6947Z" fill="white"/>
<path fill-rule="evenodd" clip-rule="evenodd" d="M26.4361 8.12231H29.2115V8.31489H26.4361V8.12231ZM26.8496 9.08521H27.0421V9.26646H26.8496V9.08521ZM29.2285 9.07388V9.26646H28.6677V9.07388H29.2285ZM29.523 8.12231H29.7156V9.26646H29.523V8.12231Z" fill="white"/>
<path fill-rule="evenodd" clip-rule="evenodd" d="M30.6275 9.07392V9.2665H29.574V9.07392H30.6275ZM28.6677 8.62646H28.8603V9.2665H28.6677V8.62646Z" fill="white"/>
<path fill-rule="evenodd" clip-rule="evenodd" d="M30.4745 8.12231H30.6615V9.26646H30.4745V8.12231ZM29.9931 8.12231H30.1857V9.26646H29.9931V8.12231ZM27.4556 8.57544V8.76802H26.4417V8.5811L27.4556 8.57544ZM29.6816 8.57544V8.76802H28.6677V8.5811L29.6816 8.57544Z" fill="white"/>
<path fill-rule="evenodd" clip-rule="evenodd" d="M28.6677 8.62646H28.8603V9.2665H28.6677V8.62646Z" fill="white"/>
<path fill-rule="evenodd" clip-rule="evenodd" d="M28.6677 8.62646H28.8603V9.2665H28.6677V8.62646Z" fill="white"/>
<path fill-rule="evenodd" clip-rule="evenodd" d="M28.6677 8.62646H28.8603V9.2665H28.6677V8.62646ZM26.4417 8.62646H26.6343V9.2665H26.4417V8.62646ZM28.073 8.62646H28.2656V9.2665H28.073V8.62646ZM27.263 8.62646H27.4556V9.2665H27.2687L27.263 8.62646Z" fill="white"/>
<path fill-rule="evenodd" clip-rule="evenodd" d="M28.2089 9.07383V9.26641H27.3537V9.07383H28.2089ZM28.2656 8.58105V8.76797H27.7162V8.58105H28.2656Z" fill="white"/>
<path fill-rule="evenodd" clip-rule="evenodd" d="M31.0126 8.12231H33.788V8.31489H31.0126V8.12231ZM31.4261 9.08521H31.6187V9.26646H31.4261V9.08521ZM33.7994 9.07388V9.26646H33.2443V9.07388H33.7994ZM34.0939 8.12231H34.2865V9.26646H34.0939V8.12231Z" fill="white"/>
<path fill-rule="evenodd" clip-rule="evenodd" d="M35.204 9.07392V9.2665H34.1505V9.07392H35.204ZM33.2386 8.62646H33.4312V9.2665H33.2386V8.62646Z" fill="white"/>
<path fill-rule="evenodd" clip-rule="evenodd" d="M35.0454 8.12231H35.238V9.26646H35.0454V8.12231ZM34.5697 8.12231H34.7566V9.26646H34.5697V8.12231ZM32.0322 8.57544V8.76802H31.0126V8.5811L32.0322 8.57544ZM34.2581 8.57544V8.76802H33.2386V8.5811L34.2581 8.57544Z" fill="white"/>
<path fill-rule="evenodd" clip-rule="evenodd" d="M33.2443 8.62646H33.4312V9.2665H33.2443V8.62646Z" fill="white"/>
<path fill-rule="evenodd" clip-rule="evenodd" d="M33.2443 8.62646H33.4312V9.2665H33.2443V8.62646Z" fill="white"/>
<path fill-rule="evenodd" clip-rule="evenodd" d="M33.2443 8.62646H33.4312V9.2665H33.2443V8.62646ZM31.0126 8.62646H31.2052V9.2665H31.0126V8.62646ZM32.6495 8.62646H32.8365V9.2665H32.6495V8.62646ZM31.8396 8.62646H32.0322V9.2665H31.8396V8.62646Z" fill="white"/>
<path fill-rule="evenodd" clip-rule="evenodd" d="M32.7798 9.07383V9.26641H31.9245V9.07383H32.7798ZM32.8365 8.58105V8.76797H32.2927V8.58105H32.8365Z" fill="white"/>
<path fill-rule="evenodd" clip-rule="evenodd" d="M35.6119 8.12231H38.3872V8.31489H35.6119V8.12231ZM36.0253 9.08521H36.2179V9.26646H36.0253V9.08521ZM38.3986 9.07388V9.26646H37.8435V9.07388H38.3986ZM38.6931 8.12231H38.8857V9.26646H38.6931V8.12231Z" fill="white"/>
<path fill-rule="evenodd" clip-rule="evenodd" d="M39.8033 9.07392V9.2665H38.7497V9.07392H39.8033ZM37.8435 8.62646H38.0304V9.2665H37.8435V8.62646Z" fill="white"/>
<path fill-rule="evenodd" clip-rule="evenodd" d="M39.6447 8.12231H39.8372V9.26646H39.6447V8.12231ZM39.1689 8.12231H39.3558V9.26646H39.1689V8.12231ZM36.6314 8.57544V8.76802H35.6119V8.5811L36.6314 8.57544ZM38.8574 8.57544V8.76802H37.8378V8.5811L38.8574 8.57544Z" fill="white"/>
<path fill-rule="evenodd" clip-rule="evenodd" d="M37.8435 8.62646H38.0304V9.2665H37.8435V8.62646Z" fill="white"/>
<path fill-rule="evenodd" clip-rule="evenodd" d="M37.8435 8.62646H38.0304V9.2665H37.8435V8.62646Z" fill="white"/>
<path fill-rule="evenodd" clip-rule="evenodd" d="M37.8435 8.62646H38.0304V9.2665H37.8435V8.62646ZM35.6175 8.62646H35.8044V9.2665H35.6175V8.62646ZM37.2488 8.62646H37.4413V9.2665H37.2488V8.62646ZM36.4388 8.62646H36.6314V9.2665H36.4388V8.62646Z" fill="white"/>
<path fill-rule="evenodd" clip-rule="evenodd" d="M37.379 9.07383V9.26641H36.5238V9.07383H37.379ZM37.4357 8.58105V8.76797H36.8919V8.58105H37.4357Z" fill="white"/>
<path fill-rule="evenodd" clip-rule="evenodd" d="M0.936461 19.2295H1.2763V19.8242H0.936461V19.2295ZM10.0273 19.2295H10.3671V19.8242H10.0273V19.2295ZM-6.04166 19.2295H-5.70182V19.8242H-6.04166V19.2295ZM-1.42545 19.2295H-1.08561V19.8242H-1.42545V19.2295ZM3.15677 19.2295H3.49662V19.8242H3.15677V19.2295ZM5.4224 19.2295H5.76224V19.8242H5.4224V19.2295ZM7.739 19.2295H8.07884V19.8242H7.739V19.2295ZM12.2929 19.2295H12.6328V19.8242H12.2929V19.2295ZM23.791 19.2295H24.1365V19.8242H23.7966L23.791 19.2295ZM14.6095 19.2295H14.9494V19.8242H14.6095V19.2295ZM16.8751 19.2295H17.215V19.8242H16.8751V19.2295ZM19.1691 19.2295H19.5089V19.8242H19.1691V19.2295ZM21.4574 19.2295H21.7972V19.8242H21.4574V19.2295ZM39.7636 19.2295H40.1035V19.8242H39.7636V19.2295ZM26.0169 19.2295H26.3568V19.8242H26.0169V19.2295ZM28.3279 19.2295H28.6677V19.8242H28.3279V19.2295ZM30.6671 19.2295H31.007V19.8242H30.6671V19.2295ZM32.8648 19.2295H33.2046V19.8242H32.8648V19.2295ZM35.204 19.2295H35.5439V19.8242H35.204V19.2295ZM37.4923 19.2295H37.8322V19.8242H37.4923V19.2295ZM44.2722 19.2295H44.612V19.8242H44.2722V19.2295ZM42.0745 19.2295H42.4144V19.8242H42.0745V19.2295ZM-3.74205 19.2295H-3.40221V19.8242H-3.74205V19.2295Z" fill="#D90000"/>
<path fill-rule="evenodd" clip-rule="evenodd" d="M0.936461 9.20972H1.2763V9.80444H0.936461V9.20972ZM10.0273 9.20972H10.3671V9.80444H10.0273V9.20972ZM-6.04166 9.20972H-5.70182V9.80444H-6.04166V9.20972ZM-1.42545 9.20972H-1.08561V9.80444H-1.42545V9.20972ZM3.15677 9.20972H3.49662V9.80444H3.15677V9.20972ZM5.4224 9.20972H5.76224V9.80444H5.4224V9.20972ZM7.739 9.20972H8.07884V9.80444H7.739V9.20972ZM12.2929 9.20972H12.6328V9.80444H12.2929V9.20972ZM23.791 9.20972H24.1365V9.80444H23.7966L23.791 9.20972ZM14.6095 9.20972H14.9494V9.80444H14.6095V9.20972ZM16.8751 9.20972H17.215V9.80444H16.8751V9.20972ZM19.1691 9.20972H19.5089V9.80444H19.1691V9.20972ZM21.4574 9.20972H21.7972V9.80444H21.4574V9.20972ZM39.7636 9.20972H40.1035V9.80444H39.7636V9.20972ZM26.0169 9.20972H26.3568V9.80444H26.0169V9.20972ZM28.3279 9.20972H28.6677V9.80444H28.3279V9.20972ZM30.6671 9.20972H31.007V9.80444H30.6671V9.20972ZM32.8648 9.20972H33.2046V9.80444H32.8648V9.20972ZM35.204 9.20972H35.5439V9.80444H35.204V9.20972ZM37.4923 9.20972H37.8322V9.80444H37.4923V9.20972ZM44.2722 9.20972H44.612V9.80444H44.2722V9.20972ZM42.0745 9.20972H42.4144V9.80444H42.0745V9.20972ZM-3.74205 9.20972H-3.40221V9.80444H-3.74205V9.20972Z" fill="#239E3F"/>
<path fill-rule="evenodd" clip-rule="evenodd" d="M20.6814 11.1865C21.1572 11.7756 22.6355 15.0154 19.7921 17.1451C18.4497 18.1533 19.2824 18.1986 19.322 18.3686C21.4743 17.2301 22.171 15.6781 22.154 14.2904C22.1427 12.9084 21.4064 11.685 20.6814 11.1865Z" fill="#DA0000"/>
<path fill-rule="evenodd" clip-rule="evenodd" d="M20.9646 11.0337C21.4901 11.3535 21.938 11.786 22.2759 12.3001C22.6138 12.8141 22.8332 13.3969 22.9183 14.0061C23.0034 14.6154 22.952 15.2359 22.7679 15.8229C22.5838 16.4098 22.2716 16.9486 21.8538 17.4001C23.3945 17.0603 25.3656 12.5063 20.9646 11.0337ZM17.7021 11.0337C17.177 11.3539 16.7296 11.7869 16.3923 12.3012C16.0549 12.8155 15.8361 13.3983 15.7515 14.0075C15.667 14.6167 15.7188 15.2371 15.9033 15.8238C16.0879 16.4105 16.4004 16.9489 16.8185 17.4001C15.2722 17.0603 13.3068 12.5063 17.7021 11.0337Z" fill="#DA0000"/>
<path fill-rule="evenodd" clip-rule="evenodd" d="M17.9853 11.1865C17.5095 11.7756 16.0312 15.0154 18.8745 17.1451C20.2113 18.1533 19.3843 18.1986 19.3447 18.3686C17.1923 17.2301 16.4956 15.6781 16.5126 14.2904C16.524 12.9084 17.2603 11.685 17.9853 11.1865Z" fill="#DA0000"/>
<path fill-rule="evenodd" clip-rule="evenodd" d="M22.0634 18.0741C21.2195 18.0854 20.1603 17.9608 19.373 17.5473C19.5033 17.8022 19.6109 17.9608 19.7411 18.21C20.4888 18.2836 21.5253 18.3686 22.0634 18.0741ZM16.6825 18.0741C17.5265 18.0854 18.5857 17.9608 19.373 17.5473C19.2427 17.8022 19.1351 17.9608 19.0048 18.21C18.2572 18.2836 17.2206 18.3686 16.6825 18.0741ZM18.2288 10.218C18.3988 10.6711 18.8462 10.7391 19.322 10.4729C19.6732 10.6768 20.2113 10.6938 20.3982 10.2407C20.5398 11.3622 19.3617 11.0903 19.322 10.875C18.8802 11.2999 18.0646 11.0563 18.2288 10.218Z" fill="#DA0000"/>
<path fill-rule="evenodd" clip-rule="evenodd" d="M19.356 18.7821L19.7978 18.2724L19.8601 11.4698L19.3333 11.0054L18.8066 11.4472L18.9142 18.3007L19.356 18.7821Z" fill="#DA0000"/>
</g>
<defs>
<clipPath id="clip0_59_3997">
<rect width="38.6667" height="29" rx="6.2069" fill="white"/>
</clipPath>
</defs>
</svg>
