<svg width="245" height="33" viewBox="0 0 245 33" fill="none" xmlns="http://www.w3.org/2000/svg">
<g clip-path="url(#clip0_1_17722)">
<path fill-rule="evenodd" clip-rule="evenodd" d="M134.992 0.439941C134.302 0.439941 132.976 1.16205 131.914 2.12486C130.853 3.06092 130.482 3.06092 129.925 2.07137C129.686 1.61671 129.341 1.26903 129.155 1.26903C128.651 1.26903 126.901 3.38186 126.901 4.02373C126.901 4.6656 127.007 4.50513 127.856 3.56907L128.811 2.52603L129.209 3.30162C129.421 3.72954 129.527 4.29117 129.447 4.55862C129.288 5.06677 129.951 5.30747 130.243 4.82607C130.323 4.69234 131.251 4.50513 132.286 4.4249C134.302 4.23768 136.132 3.48883 136.398 2.76673C136.902 1.45624 136.292 0.466686 134.992 0.466686V0.439941ZM7.57729 0.466686C6.33047 0.466686 6.1713 1.9109 6.96714 5.04003C7.44465 6.88541 7.52423 7.95519 7.07325 6.75168C6.8345 6.10981 5.93255 5.28073 5.45504 5.28073C4.97753 5.28073 5.08365 5.57492 5.08365 5.94934C5.08365 6.32377 5.18976 6.61796 5.29587 6.61796C5.40198 6.61796 5.93255 7.1796 6.41005 7.84822C7.65687 9.53313 8.02826 9.4529 8.02826 7.47379C8.02826 5.49468 7.84257 5.30747 7.63034 4.55862C7.41812 3.83651 7.23242 3.00743 7.23242 2.76673C7.23242 2.20509 8.02826 2.12486 8.5323 2.633C8.79758 2.90045 8.90369 2.90045 9.11592 2.57952C9.46078 2.01788 8.58535 0.573665 7.81604 0.466686H7.55076H7.57729ZM51.5608 0.493431C51.4547 0.493431 51.3486 0.493431 51.1895 0.573665C50.8446 0.680643 49.9692 0.921345 49.2529 1.1353C42.9657 2.87371 40.7639 3.48883 39.5967 3.86326C37.4214 4.53188 37.501 4.55862 37.0235 2.633C36.546 0.653899 35.8562 0.0922607 35.5379 1.45624C35.4583 1.88415 35.3257 2.36556 35.2726 2.52603C35.2195 2.68649 35.2726 3.27488 35.4052 3.83651C35.6175 4.74583 35.5644 4.85281 34.9277 5.12026C34.5298 5.28073 33.787 5.49468 33.283 5.62841C29.3038 6.51098 23.8125 8.62381 22.6187 9.74709C21.982 10.3355 21.7963 11.432 22.2738 11.7262C22.433 11.8064 23.1227 11.5925 23.8125 11.218C24.5022 10.8436 25.749 10.282 26.5714 9.96104C27.3938 9.64011 28.3222 9.26568 28.6936 9.13196C31.5321 7.98194 35.8297 6.75168 35.9889 7.01913C36.2541 7.44705 36.4929 11.2715 36.5459 15.9251L36.599 19.8566L32.2749 24.216C27.6325 28.8695 26.3326 29.8056 25.1123 29.244C23.6268 28.5753 23.6268 26.3555 25.0858 22.4776L25.9347 20.2043L27.6325 19.5624C28.561 19.2147 29.6487 18.9205 30.02 18.9205H30.6832L30.1792 19.6961C29.9139 20.124 29.2242 21.0066 28.6671 21.6217C27.5795 22.8252 26.3326 25.0718 26.3326 25.8206C26.3326 26.5695 26.9693 26.1416 27.4468 25.152C27.6856 24.6706 28.4284 23.6543 29.065 22.9055C30.8689 20.8194 32.4872 18.2786 32.5137 17.5565C32.5137 16.567 31.7709 15.9251 30.6302 15.9251C29.4895 15.9251 28.4814 16.4065 26.9958 17.0216C22.0616 19.081 17.0478 20.6322 14.0236 21.0601C9.91176 21.6485 9.08939 21.6485 6.91408 21.1938C3.49196 20.4717 1.9268 19.1345 1.95333 16.9414C1.95333 15.2565 2.19209 14.6146 2.82876 14.5076C3.59807 14.4007 4.63267 12.796 4.63267 11.6727C4.63267 10.5494 4.4735 10.5762 3.8103 11.1913C2.9614 11.9669 2.66959 11.4053 2.82876 9.26568C2.90834 8.1959 3.09404 7.07262 3.25321 6.80517C4.55309 4.39815 5.00406 2.44579 3.88988 4.02373C2.19209 6.43075 1.60847 8.35636 1.55541 11.8599C1.52888 13.5716 1.34319 15.31 1.18402 15.7379C0.706513 16.9414 0.812625 19.2682 1.39624 20.5787C2.05945 22.0764 2.61654 22.7183 3.96947 23.5206C4.97753 24.1357 5.26934 24.1625 9.32814 24.1625C13.3869 24.1625 16.7295 23.6543 22.4595 21.5682C23.6268 21.1403 24.6348 20.8194 24.6614 20.8729C24.7144 20.9264 24.3696 21.8357 23.9451 22.9322C22.4861 26.5427 22.6452 29.1637 24.4226 30.8486C25.696 32.0521 27.155 32.0521 28.7732 30.8486C29.2773 30.4742 30.5506 29.244 31.5852 28.1207C34.5298 24.9381 36.3337 23.2264 36.7317 23.2264C37.1296 23.2264 37.103 23.7078 37.103 25.045C37.103 27.1579 37.7132 28.7626 38.8539 29.6719C39.6763 30.3405 42.0638 30.501 43.0719 29.9661C44.133 29.3777 45.4063 28.0137 45.9634 26.8637C46.3348 26.0881 46.6531 25.7404 46.9184 25.8474C47.1307 25.9276 47.3164 26.0881 47.3164 26.1951C47.3164 26.5695 49.9426 27.559 51.0038 27.559C52.0649 27.559 52.0914 27.4521 52.4893 26.5962C53.0729 25.3392 53.0729 22.5845 52.4628 21.3275C51.8792 20.124 50.8711 19.5356 49.863 19.8031C48.6428 20.0973 46.3879 22.7985 45.8573 24.5636C45.4063 26.0346 43.3106 27.2648 41.2414 27.2648C39.464 27.2648 38.907 26.5427 38.6417 23.8415C38.4294 21.8624 38.6947 21.595 40.7639 21.595C42.8331 21.595 42.1434 21.7554 42.6739 22.2636C43.6024 23.1997 43.7881 23.1194 44.0003 21.7822C44.3983 19.0275 42.4087 17.6635 39.4906 18.7066L38.4825 19.081V18.2251C38.4825 17.7705 38.3764 15.6844 38.2172 13.5983C38.0846 11.5122 37.9254 8.97149 37.8989 7.92845L37.8193 6.05632L38.6151 5.86911C39.0661 5.76213 40.0742 5.46794 40.8966 5.22724C43.5228 4.45164 46.3613 3.70279 47.5286 3.46209C48.1653 3.32837 48.908 3.11441 49.1998 2.95394C49.4917 2.79347 49.9426 2.68649 50.261 2.68649C50.8446 2.68649 51.9057 1.50973 51.9057 0.867856C51.9057 0.225984 51.8527 0.600409 51.6935 0.573665L51.5608 0.493431ZM55.3013 0.707388C55.1687 0.707388 54.8769 1.21554 54.6381 1.85741C54.2932 2.79347 54.2402 3.30162 54.4789 4.63885C54.6116 5.52143 54.8769 8.81102 55.0095 11.9402C55.1687 15.0693 55.4074 18.5996 55.5666 19.7763C55.7258 20.9531 55.8584 23.9218 55.8849 26.3288C55.8849 28.7358 56.0176 30.6347 56.1237 30.5812C56.2298 30.501 56.5216 29.9928 56.7603 29.4579C57.5031 27.7195 57.6623 25.1788 57.397 19.8031C57.2644 16.9681 57.0256 13.6251 56.8665 12.3681C56.7338 11.1111 56.5481 9.23894 56.4685 8.24939L56.3359 6.43075L57.0522 6.88541L57.7684 7.34007L57.5827 6.404C57.2644 4.77258 55.6196 0.734133 55.2748 0.734133L55.3013 0.707388ZM108.304 0.707388C107.058 0.707388 103.954 3.32837 102.15 5.9226C100.823 7.82147 94.7486 14.7751 94.4037 14.7751C94.0588 14.7751 93.9527 14.5611 93.6874 14.2937C93.4221 14.0262 92.0162 12.7157 90.5571 11.3785C87.8247 8.86451 84.7209 5.70864 84.5618 5.28073C84.5087 5.147 84.7209 5.04003 85.0393 5.04003C85.3576 5.04003 85.5964 4.87956 85.5964 4.69234C85.5964 4.1842 81.5906 1.18879 81.1396 1.376C80.9009 1.48298 80.7683 1.93764 80.7683 2.71324C80.7683 3.48883 80.954 4.13071 81.7233 5.06677C82.2538 5.70864 83.1027 6.85866 83.6068 7.60751C84.4557 8.918 87.7982 12.3146 91.2203 15.3902L92.6528 16.674L91.8835 17.4228C90.7959 18.4926 87.1085 21.4078 84.9862 22.9322C83.2619 24.1625 82.7844 24.7508 83.5272 24.7508C84.27 24.7508 90.5041 20.8996 91.2468 20.1508C91.3264 20.0705 91.9631 19.5356 92.6528 18.974L93.9262 17.931L94.8547 18.6531C95.3587 19.0542 95.7832 19.4821 95.7832 19.5891C95.7832 19.6961 95.3056 20.7659 94.722 21.8892C93.7935 23.7078 93.6609 24.1892 93.6609 25.7671C93.6609 28.7893 94.8547 29.5381 97.3748 28.0939C98.7808 27.2648 98.7543 27.2916 98.7543 28.0404C98.7543 28.923 99.8154 30.073 100.903 30.3405C102.017 30.6347 104.007 30.18 105.121 29.3777C105.545 29.0835 106.235 28.3881 106.686 27.8532C107.641 26.7032 107.906 26.6497 107.906 27.559C107.906 29.1905 109.392 30.1533 111.488 29.9126C112.204 29.8323 112.841 29.4847 113.61 28.7358L114.698 27.6928L115.414 28.3614C116.236 29.1637 117.51 29.2707 118.491 28.6288C119.393 28.0404 120.348 25.6869 120.162 24.5101C120.003 23.5741 119.579 22.8252 119.181 22.8252C118.783 22.8252 118.332 24.6974 118.491 25.4195C118.65 26.0346 118.571 26.0881 117.748 26.0881C116.502 26.0881 115.918 25.3927 116.13 24.109C116.369 22.6648 115.865 22.8252 114.724 24.5904C113.53 26.409 112.814 26.8904 111.329 26.8904C109.843 26.8904 108.968 26.3288 108.968 24.8578C108.968 23.3869 108.861 23.6543 108.623 23.6543C108.437 23.6543 107.535 24.3764 106.607 25.2323C104.856 26.8637 103.635 27.4253 101.832 27.4253C100.028 27.4253 99.4175 26.4893 100.24 24.9916C100.452 24.6171 100.638 23.9753 100.638 23.5741C100.638 22.6915 99.9481 20.8194 99.2318 19.7763L98.7278 19.0275L99.7358 17.7437C100.293 17.0484 100.877 16.3263 101.036 16.1926C101.885 15.417 108.251 6.83192 108.702 5.81562C109.392 4.34466 109.631 2.01788 109.233 1.24228C109.047 0.894601 108.676 0.653899 108.304 0.653899V0.707388ZM14.4746 0.707388C13.9706 0.707388 13.8644 0.894601 13.6787 1.34926C13.493 1.75043 13.2543 2.07137 13.1482 2.07137C13.0421 2.07137 12.8829 2.23183 12.8033 2.44579C12.6972 2.71324 13.0155 2.79347 14.1828 2.79347C15.0051 2.79347 15.7479 2.90045 15.7745 3.03417C15.8275 3.19464 14.7929 3.83651 13.493 4.47839C12.1932 5.12026 10.7076 5.84237 10.2036 6.10981C9.0098 6.69819 8.77105 7.34007 9.83217 7.09936C10.2566 6.99239 10.9464 6.75168 11.3708 6.53773C11.7953 6.32377 12.2993 6.1633 12.4585 6.1633C13.2012 6.1633 16.5703 4.1842 17.3661 3.27488C18.8782 1.56322 18.5599 1.10856 15.6418 0.841111C15.2439 0.814367 14.9256 0.787622 14.6868 0.760877H14.4481L14.4746 0.707388ZM200.781 0.760877C200.569 0.760877 200.41 0.974835 200.304 1.40275C200.171 1.96439 200.277 2.28532 200.728 2.79347C201.285 3.38186 201.338 3.70279 201.338 5.78888C201.338 7.47379 201.206 8.35636 200.861 8.94475C200.622 9.39941 200.41 9.96104 200.41 10.2285C200.41 10.7901 200.808 10.7099 203.885 9.61336C209.085 7.71449 209.933 7.39356 210.172 7.15285C210.305 7.01913 210.597 6.91215 210.809 6.91215C211.021 6.91215 211.578 6.75168 212.029 6.53773C213.86 5.73539 215.849 5.01328 216.168 5.01328C216.486 5.01328 217.918 2.9272 217.733 2.60626C217.627 2.41905 216.512 2.71324 214.629 3.46209C214.417 3.54232 213.329 3.91675 212.215 4.31792C209.642 5.20049 204.15 7.31332 203.408 7.68775C202.506 8.16915 202.267 8.06217 202.559 7.28658C203.063 5.94934 202.877 3.83651 202.081 2.28532C201.551 1.24228 201.1 0.707388 200.755 0.734133L200.781 0.760877ZM145.948 0.787622C145.842 0.787622 145.736 0.814367 145.656 0.841111C145.152 1.00158 145.099 1.16205 145.232 2.55277C145.311 3.38186 145.47 4.31792 145.576 4.61211C145.736 5.06677 145.709 5.09351 145.417 4.82607C144.966 4.4249 144.091 4.37141 144.091 4.77258C144.091 5.17375 145.789 7.1796 146.16 7.1796C146.372 7.1796 146.505 6.77843 146.505 6.05632C146.505 5.33422 146.372 4.47839 146.213 3.91675C145.868 2.73998 146.08 1.75043 146.584 2.25858C147.062 2.73998 147.327 2.633 147.327 1.9109C147.327 1.18879 146.691 0.707388 145.974 0.760877L145.948 0.787622ZM122.497 0.974835C121.94 0.974835 121.277 3.27488 121.542 4.26443C121.675 4.74583 121.966 8.4366 122.205 12.4483C122.444 16.46 122.762 21.1403 122.921 22.852C123.081 24.5636 123.16 27.0776 123.081 28.4416C122.921 31.3033 123.266 31.5975 124.115 29.2707C124.566 28.0404 124.619 27.2381 124.566 22.7183C124.54 19.8833 124.327 15.8181 124.089 13.6518C123.85 11.4855 123.664 9.07847 123.664 8.30288C123.664 6.91215 123.664 6.88541 124.248 7.1796C124.805 7.47379 124.831 7.44705 124.646 6.32377C124.54 5.6819 124.354 5.04003 124.221 4.87956C124.089 4.71909 123.717 3.78303 123.399 2.76673C123.081 1.77717 122.656 0.94809 122.497 0.94809V0.974835ZM115.228 1.00158C114.432 1.00158 114.22 1.16205 113.663 1.9109C113.265 2.41905 112.973 2.90045 112.973 3.00743C112.973 3.11441 113.557 3.08766 114.247 3.00743C115.334 2.87371 116.555 3.1679 116.183 3.48883C116.104 3.54232 114.724 4.23769 113.106 5.04003C109.87 6.61796 109.419 6.88541 109.631 7.23309C109.763 7.44705 112.018 6.80517 112.575 6.404C112.735 6.29702 113.159 6.13656 113.583 6.02958C114.777 5.73539 117.377 4.07722 118.04 3.1679C119.154 1.64345 118.544 1.10856 115.653 1.02832H115.281L115.228 1.00158ZM86.8962 1.00158C86.684 1.00158 86.5514 1.21554 86.3657 1.61671C86.1269 2.17835 86.18 2.36556 86.7636 3.00743C87.135 3.4086 87.586 4.29117 87.7451 4.93305C88.0369 6.13656 88.3818 6.43075 88.6736 5.6819C88.7532 5.4412 88.8328 5.04002 88.8328 4.79932C88.8328 4.39815 89.2572 4.34466 92.2549 4.31792C94.9873 4.31792 96.0219 4.1842 97.4014 3.72954C99.2318 3.11441 99.5767 3.14115 99.0196 3.80977C98.7808 4.10396 98.7543 4.31792 98.94 4.50513C99.3114 4.87956 101.434 2.36556 101.434 1.53647C101.434 0.94809 101.354 0.921346 100.426 1.08181C99.8685 1.18879 99.1257 1.42949 98.7543 1.61671C98.3829 1.80392 96.8443 2.17835 95.3056 2.44579C92.6528 2.90045 92.4671 2.90045 90.4775 2.44579C89.3368 2.17835 88.1165 1.72369 87.7717 1.45624C87.3472 1.1353 87.0819 0.974835 86.8962 1.00158ZM160.406 1.02832C160.353 1.02832 160.273 1.1353 160.14 1.26903C159.265 2.1516 158.84 4.63885 159.451 5.28073C159.848 5.6819 159.822 5.6819 160.326 5.17375C160.883 4.61211 160.857 3.97024 160.326 3.97024C159.795 3.97024 159.902 3.38186 160.379 1.53647C160.459 1.21554 160.512 1.05507 160.459 1.02832H160.406ZM242.351 1.02832C241.873 1.05507 238.876 2.20509 236.78 3.1679C236.196 3.43534 234.87 3.99698 233.835 4.39815C229.326 6.1633 227.522 7.44705 227.522 8.94475C227.522 10.4424 227.522 9.72034 228.132 9.31917C228.477 9.07847 229.511 8.40985 230.466 7.82147C232.509 6.59122 236.143 4.85281 238.796 3.86326C241.369 2.90045 241.9 2.60626 242.218 1.9109C242.404 1.50973 242.483 1.1353 242.43 1.08181H242.377L242.351 1.02832ZM153.774 1.02832C153.561 1.02832 153.376 1.21554 153.243 1.56322C153.057 2.04462 153.137 2.33881 153.482 2.73998C154.702 4.10396 154.835 6.05632 153.906 8.81102C153.243 10.7099 153.27 11.1378 154.012 10.8436C154.251 10.7634 155.445 10.3355 156.718 9.90756C157.965 9.47964 160.565 8.51683 162.475 7.74124C164.385 6.96564 166.321 6.24354 166.772 6.08307C167.223 5.9226 167.966 5.62841 168.417 5.41445C168.895 5.20049 169.372 5.04003 169.505 5.04003C169.823 5.04003 170.672 3.59581 170.672 3.06092C170.672 2.52603 169.213 3.03417 164.915 4.63885C163.881 5.01328 162.74 5.4412 162.369 5.57492C161.997 5.70864 160.432 6.29702 158.893 6.91215C155.604 8.22264 155.259 8.27613 155.577 7.4203C156.028 6.19005 155.79 3.80977 155.1 2.44579C154.622 1.50973 154.171 1.02832 153.827 1.05507L153.774 1.02832ZM197.173 1.02832C197.067 1.02832 196.961 1.08181 196.829 1.18879C196.245 1.6702 196.139 3.08766 196.563 4.47839C197.094 6.24354 197.412 10.068 197.731 18.6798C198.102 28.5218 198.394 29.6184 201.047 30.3672C201.657 30.5277 202.214 30.6882 202.24 30.7149C202.293 30.7149 202.957 30.5544 203.726 30.287C204.495 30.0463 205.318 29.6719 205.53 29.4847C205.769 29.2707 206.087 29.1102 206.22 29.1102C206.352 29.1102 206.724 28.8695 206.989 28.5753C207.652 27.8265 208.077 27.88 209.376 28.9765C210.146 29.6184 211.074 30.0463 212.241 30.3137C213.78 30.6614 214.178 30.6614 215.955 30.3137C218.714 29.7254 220.598 28.4416 221.659 26.3555C222.322 25.045 222.349 21.8892 221.659 20.231C220.677 17.7705 218.184 16.0321 216.645 16.7274C215.584 17.2089 214.523 19.0275 214.364 20.6589L214.231 22.1031L213.17 21.5147C212.215 20.9799 211.684 20.9264 208.607 20.8996C204.124 20.8996 202.559 21.3543 201.763 22.9322C201.073 24.3229 201.073 24.9381 201.763 24.6974C202.055 24.6171 202.506 24.4567 202.771 24.4032C203.036 24.3229 203.912 24.6439 204.707 25.1253L206.167 25.9811L205.556 26.4893C204.363 27.4521 201.551 27.88 200.675 27.1846C199.773 26.4625 199.561 25.0183 199.349 17.3961C199.11 9.29243 198.765 5.30747 198.102 2.9272C197.731 1.58996 197.518 1.08181 197.2 1.10856L197.173 1.02832ZM224.657 1.05507C224.497 1.00158 224.179 1.45624 223.967 2.07137C223.622 2.9272 223.595 3.48883 223.781 4.58537C224.153 6.72494 224.922 19.3752 225.055 25.5264C225.108 28.5486 225.267 31.0091 225.373 31.0091C225.479 31.0091 225.718 30.6614 225.93 30.2603C226.991 27.9602 227.203 25.1253 226.752 19.3217C226.62 17.503 226.354 14.16 226.195 11.9402C226.036 9.72034 225.85 7.58077 225.771 7.20634C225.682 6.77843 225.797 6.70711 226.116 6.99239C226.407 7.25983 226.752 7.36681 226.965 7.23309C227.23 7.07262 227.044 6.35051 226.142 4.07722C225.505 2.47254 224.842 1.10856 224.683 1.05507H224.657ZM71.3773 1.08181C71.2977 1.08181 71.2447 1.08181 71.1916 1.10856C70.7937 1.21554 70.3162 1.48298 70.1305 1.75043C69.653 2.33881 69.8387 5.17375 70.4488 7.34007C70.7141 8.22264 70.9794 9.4529 71.0324 10.0413L71.1386 11.1111L70.6876 10.2552C70.2366 9.37266 68.698 8.00868 68.1674 8.00868C68.0083 8.00868 67.8756 8.40985 67.8756 8.918C67.8756 9.42615 68.0613 9.96105 68.5123 10.2552C68.8572 10.4959 69.5999 11.3518 70.157 12.1809C71.2712 13.8658 71.7487 13.8658 72.067 12.1809C72.1466 11.6994 72.0405 10.3355 71.7752 9.1587C71.112 6.02958 70.9529 3.38186 71.4569 3.38186C71.9609 3.38186 72.067 3.62256 72.3323 3.91675C73.0751 4.74583 73.5526 4.58537 73.5526 3.48883C73.5526 2.3923 72.4119 0.974835 71.4038 1.02832L71.3773 1.08181ZM150.139 1.08181C150.06 1.08181 149.954 1.1353 149.847 1.24228C149.211 1.77718 149.158 3.27488 149.688 5.97609C150.06 7.82147 150.272 10.282 150.378 13.946C150.723 25.7137 151.227 29.2172 152.712 30.18C153.561 30.7149 154.569 31.0091 155.206 30.8754C155.498 30.8219 155.869 30.7684 156.055 30.7684C156.4 30.7684 158.575 28.8428 158.575 28.5486C158.575 28.2544 158.84 27.9335 159.159 27.3718L159.742 26.3823L160.485 27.559C161.148 28.6288 162.554 29.9393 163.085 29.9661C163.191 29.9661 163.775 30.2068 164.358 30.501C165.128 30.8754 166.03 31.0358 167.489 31.0358C169.797 31.0358 171.521 30.501 173.537 29.137C174.174 28.7091 174.757 28.3346 174.81 28.3346C174.863 28.3346 174.969 28.6823 175.076 29.0835C175.288 30.073 176.747 31.0358 178.02 31.0358C179.294 31.0358 181.151 29.9661 182.052 28.7893L182.689 27.9602L183.167 28.9498C183.724 30.1265 184.785 30.6347 186.138 30.4207C187.279 30.2335 187.968 29.6451 188.578 28.3881L189.029 27.4521L189.348 28.2544C189.852 29.5114 190.701 30.1265 191.974 30.1265C193.247 30.1265 194.017 29.5381 194.812 27.8265C195.476 26.3823 195.502 24.9381 194.945 22.959C194.706 22.1566 194.415 20.9798 194.255 20.3915C194.096 19.8031 193.857 19.188 193.725 19.0542C193.3 18.6263 193.46 18.0914 194.017 18.0914C194.574 18.0914 194.706 17.824 193.592 16.1658C192.001 13.8123 191.974 13.7855 191.47 14.989C191.072 15.9519 191.072 16.1926 191.47 18.0914C191.974 20.4182 192.902 23.5206 193.221 23.9218C193.327 24.0822 193.619 24.6439 193.831 25.2055C194.202 26.1148 194.202 26.2486 193.831 26.623C193.592 26.8637 192.956 27.0241 192.266 27.0241C190.833 27.0241 190.117 26.3288 190.17 24.9916C190.223 23.6811 189.719 23.788 188.817 25.259C187.04 28.2277 183.671 28.3346 184.148 25.3927C184.254 24.8043 184.254 24.2962 184.148 24.2962C184.042 24.2962 183.14 25.0985 182.132 26.0613L180.275 27.8265H178.551C176.561 27.8265 176.031 27.3718 176.535 26.0346C176.986 24.8578 176.482 24.7776 174.784 25.8206C171.76 27.666 171.017 27.88 167.94 27.9067C165.313 27.9067 165.021 27.88 163.722 27.1579C161.918 26.1416 161.281 25.4462 161.016 24.1357C160.883 23.5473 160.697 23.0659 160.538 23.0659C160.379 23.0659 159.689 23.9218 158.947 24.9916C157.461 27.1044 156.532 27.7997 155.126 27.7997C152.819 27.7997 152.447 26.73 152.235 19.6961C151.97 10.4959 151.598 5.54817 151.041 3.48883C150.564 1.72369 150.351 1.1353 150.113 1.1353L150.139 1.08181ZM191.337 1.10856C191.019 1.10856 190.541 1.24228 189.958 1.45624C189.56 1.58996 184.122 3.11441 181.363 3.86326C180.54 4.07722 179.241 4.45164 178.471 4.6656C177.702 4.87956 176.429 5.22724 175.659 5.4412C164.756 8.38311 162.926 9.23894 161.652 11.9402C160.83 13.7053 160.803 13.839 161.493 14.5344C162.183 15.2297 162.528 15.203 163.509 14.7483C164.464 14.3204 165.34 12.796 165.181 11.8867C165.048 11.1378 165.552 10.4959 166.295 10.4692C166.507 10.4692 167.038 10.282 167.515 10.068C168.629 9.53313 177.702 6.53773 180.302 5.81562C181.416 5.52143 182.663 5.17375 183.114 5.04003C187.332 3.89 189.454 3.38186 189.56 3.46209C189.64 3.54232 189.427 4.29117 189.135 5.147C188.419 7.25983 188.446 8.59707 189.215 9.47964C189.746 10.0948 189.878 10.1483 190.303 9.82732C190.595 9.61336 190.86 8.97149 190.939 8.30288C191.099 7.1796 191.072 7.15285 190.541 7.4203C190.064 7.661 189.958 7.63426 189.825 7.1796C189.48 6.10981 190.515 2.79347 191.417 2.04462C191.629 1.85741 191.815 1.53647 191.815 1.32252C191.815 1.10856 191.656 1.05507 191.337 1.08181V1.10856ZM60.7661 1.18879C60.6334 1.18879 60.3682 1.42949 60.0233 1.93764C59.254 3.08766 59.0152 5.20049 59.6254 5.78888C60.1559 6.32377 61.164 6.1633 61.8537 5.4412C62.3578 4.93305 62.5169 4.47839 62.5169 3.56907C62.5169 2.65975 62.0129 1.56322 61.4558 1.88415C61.0844 2.12486 61.0844 3.19464 61.4558 3.56907C61.8803 3.99698 61.5089 4.45164 60.7396 4.45164C59.9702 4.45164 60.0764 4.31792 60.0764 3.75628C60.0764 3.19464 60.2621 2.68649 60.5008 2.25858C60.8722 1.53647 60.9253 1.1353 60.7396 1.1353L60.7661 1.18879ZM172.343 1.34926C172.264 1.376 172.104 1.58996 171.919 1.96439C171.362 3.08766 171.149 4.58537 171.441 5.41445C171.76 6.27028 172.104 6.32377 172.635 5.52143C173.192 4.71909 173.166 4.50513 172.529 4.50513C171.892 4.50513 171.892 4.31792 172.264 2.633C172.476 1.75043 172.476 1.29577 172.343 1.34926ZM134.753 1.72369C134.859 1.72369 134.965 1.72369 135.045 1.77718C135.283 1.85741 135.39 1.96439 135.443 2.20509C135.469 2.33881 135.443 2.36556 135.31 2.44579C135.23 2.49928 135.098 2.55277 135.045 2.55277C134.992 2.55277 134.832 2.60626 134.673 2.68649C134.408 2.82022 133.931 2.9272 133.294 3.00743C133.135 3.00743 132.949 3.03417 132.896 3.06092C132.816 3.06092 132.763 3.06092 132.684 2.9272C132.631 2.84696 132.578 2.76673 132.578 2.73998C132.578 2.68649 132.816 2.49928 132.896 2.49928C132.976 2.49928 133.055 2.41905 133.188 2.33881C133.32 2.25858 133.506 2.1516 133.586 2.12486C133.665 2.09811 133.798 2.01788 133.851 1.99113C134.037 1.83066 134.382 1.72369 134.726 1.75043L134.753 1.72369ZM33.7074 2.33881C33.3361 2.33881 28.6936 3.80977 27.7652 4.1842C26.6775 4.6656 24.2635 5.57492 24.0778 5.57492C23.8921 5.57492 22.9636 6.00283 21.7963 6.56447C20.6291 7.09936 19.0639 7.82147 18.2946 8.16915C16.8886 8.78428 15.9867 9.82732 15.6153 11.2448C15.2439 12.6355 16.3581 13.9727 17.8967 13.9727C18.4273 13.9727 18.5069 13.8658 18.4273 13.0902C18.3742 12.3948 18.162 12.1274 17.4723 11.8064C16.9948 11.5925 16.6499 11.2715 16.6764 11.1378C16.7825 10.7901 20.576 8.83777 22.7514 8.03543C23.6533 7.68775 24.4491 7.31332 24.5287 7.1796C24.6083 7.04588 24.8471 6.9389 25.0858 6.9389C25.3246 6.9389 25.8817 6.77843 26.3326 6.56447C26.8101 6.35051 28.6141 5.73539 30.3384 5.17375C32.6729 4.4249 33.6279 3.99698 33.9197 3.54232C34.3441 2.87371 34.2115 2.36556 33.6279 2.36556L33.7074 2.33881ZM220.014 2.60626C219.324 2.60626 217.6 6.404 217.6 7.98194C217.6 8.6773 218.953 10.2017 219.563 10.2017C219.775 10.2017 220.333 9.98779 220.757 9.74709C221.208 9.47964 221.765 8.918 222.03 8.49009C222.667 7.39356 222.667 5.33422 222.03 4.45164C221.394 3.56907 221.155 3.62256 220.704 4.71909C220.386 5.49468 220.412 5.62841 220.996 6.32377L221.659 7.07262L221.075 7.55402C220.757 7.82147 220.226 8.03543 219.882 8.03543C218.582 8.03543 218.529 6.48424 219.722 3.99698C220.386 2.60626 220.386 2.633 220.041 2.633L220.014 2.60626ZM107.641 3.54232C108.304 3.54232 108.145 4.4249 107.19 5.89585C106.713 6.61796 106.103 7.44705 105.837 7.74124C105.572 8.03543 105.254 8.4366 105.148 8.62381C105.041 8.83777 104.219 9.88081 103.317 10.9773C102.442 12.0739 101.407 13.3309 101.062 13.8123C100.691 14.2937 100.266 14.8018 100.107 14.9623C99.9481 15.1228 99.6828 15.417 99.5236 15.6577C98.8869 16.567 97.7462 17.8507 97.5605 17.8507C97.3748 17.8507 96.9769 17.4763 96.5259 16.9949C95.5709 16.0053 95.4913 16.2995 97.3748 14.3472C97.9054 13.8123 98.6217 12.9832 98.993 12.5285C99.3644 12.0739 100.399 10.7901 101.328 9.72034C102.229 8.62381 102.999 7.661 102.999 7.58077C102.999 7.28658 106.607 3.89 107.111 3.70279C107.349 3.62256 107.535 3.56907 107.694 3.56907L107.641 3.54232ZM77.24 4.07722C76.8421 4.13071 76.1789 6.13656 76.3646 6.96564C76.5503 7.84822 77.3992 8.03543 77.691 7.25983C77.7971 6.96564 77.691 6.67145 77.4522 6.48424C76.9747 6.13656 76.9217 5.46794 77.2931 4.74583C77.4522 4.45164 77.4522 4.1842 77.3196 4.07722H77.24ZM94.3506 5.94934C94.2976 5.94934 94.1649 6.10981 93.9527 6.37726C93.316 7.1796 92.9977 8.57032 93.2365 9.64011C93.4487 10.5762 94.0323 10.6564 94.4567 9.85407C94.722 9.37266 94.6955 9.21219 94.2976 8.918C93.8201 8.57032 93.8201 7.661 94.2976 6.24354C94.3772 6.02958 94.4037 5.9226 94.3506 5.94934ZM240.282 6.24354C240.176 6.21679 239.91 6.59122 239.486 7.4203C238.504 9.37266 238.637 11.2448 239.725 11.2448C240.812 11.2448 240.176 11.1111 240.335 10.9239C240.786 10.4692 240.733 9.61336 240.282 9.61336C239.831 9.61336 239.618 9.05173 240.043 7.63426C240.308 6.75168 240.361 6.27028 240.255 6.24354H240.282ZM138.891 6.67145C137.83 6.67145 137.618 6.77843 136.875 7.74124C136.026 8.81102 136.132 9.39941 137.061 8.81102C137.751 8.38311 139.687 8.73079 139.289 9.21219C139.13 9.39941 137.618 10.2017 135.92 11.0308C132.79 12.5285 131.702 13.4111 133.426 13.0367C133.904 12.9297 134.647 12.689 135.071 12.475C135.496 12.2611 135.947 12.1006 136.079 12.1006C136.451 12.1006 138.706 11.0308 139.846 10.3087C140.775 9.72034 141.915 8.27613 141.915 7.68775C141.915 7.28658 140.085 6.69819 138.865 6.69819L138.891 6.67145ZM118.889 7.07262L118.305 7.92845C117.642 8.918 117.35 10.389 117.589 11.3785C117.828 12.3146 118.756 12.3146 119.101 11.3785C119.446 10.4424 119.446 10.4424 118.783 10.4424C118.12 10.4424 118.173 10.5762 118.703 7.87496L118.863 7.07262H118.889ZM49.4651 8.00868C48.8019 8.00868 47.7939 9.34592 47.6082 10.5227L47.4225 11.646L46.8654 10.8436C45.8573 9.42615 44.6635 8.32962 44.3717 8.51683C44.2126 8.62381 44.0003 9.21219 43.8942 9.82732C43.7351 10.7901 43.7881 11.0308 44.3187 11.5122C44.9288 12.1006 45.1676 12.1809 45.9104 12.1006C46.1756 12.1006 46.494 12.5553 46.8123 13.5448C47.3694 15.1763 48.0326 15.5507 48.0326 14.2402C48.0326 12.9297 48.5632 10.6564 48.908 10.2552C49.0937 10.0145 49.306 9.98779 49.6773 10.2017C50.3406 10.5494 50.7119 10.3087 50.7119 9.50639C50.7119 8.70405 50.0753 8.00868 49.4651 8.00868ZM195.237 8.08892C195.184 8.08892 195.078 8.14241 194.945 8.24939C194.441 8.65056 193.884 11.0576 194.123 11.7797C194.362 12.5018 195.237 12.5018 195.476 11.7797C195.582 11.4053 195.476 11.1111 195.21 10.8971C194.812 10.6029 194.812 10.4157 195.051 9.50639C195.317 8.54358 195.396 8.14241 195.263 8.11566L195.237 8.08892ZM212.056 8.22264C211.923 8.22264 211.711 8.49009 211.419 8.97149C210.676 10.2285 210.517 12.475 211.127 12.8762C211.631 13.1972 211.552 13.2239 212.056 12.7157C212.586 12.1809 212.613 11.218 212.109 11.4053C211.472 11.646 211.339 10.9773 211.817 9.74709C212.188 8.73079 212.268 8.16915 212.056 8.22264ZM65.4881 8.27613C65.0636 8.27613 64.4004 9.23894 63.5515 11.1111C62.7822 12.7692 62.6761 13.3309 62.6231 15.6042C62.5965 17.0484 62.4374 18.4391 62.3047 18.7066C61.4028 20.445 61.0579 22.3171 61.0314 25.152C61.0314 28.3614 61.3232 29.3509 62.6761 30.6347C64.6657 32.5068 67.2124 32.9347 70.2631 31.8649C74.9586 30.2335 79.4419 27.666 80.6091 25.9276C82.864 22.531 82.3865 21.1403 78.5664 19.9903C77.8502 19.7763 77.24 19.5089 77.24 19.4019C77.24 19.2949 77.9828 18.8135 78.8848 18.3321C80.3703 17.5298 80.5826 17.4763 80.9805 17.8507C81.5906 18.4124 81.8029 18.3589 81.8029 17.717C81.8029 17.0751 82.917 16.4333 84.4291 16.1926C85.5433 16.0053 85.8086 15.6577 86.233 13.839C86.3922 13.1972 86.233 12.9297 85.3311 12.0739C84.1373 10.9239 82.1212 9.88081 81.1396 9.88081C80.1581 9.88081 80.1316 10.2285 79.6541 10.6564C78.9643 11.2983 78.8317 11.646 78.8317 12.6355C78.8317 13.6251 79.0174 14.053 79.2296 14.3472C79.7867 15.096 79.7602 15.203 78.646 15.7646C76.8156 16.6472 73.8975 18.4659 73.4465 18.974C73.0486 19.4287 72.8364 20.2845 72.9159 21.1403C72.9425 21.5147 73.3935 21.702 75.2239 22.1834C78.4868 23.0392 79.8132 23.4671 80.1316 23.7346C80.4765 24.0287 80.3969 24.0822 78.1685 25.4997C77.8767 25.6869 76.5238 26.3823 75.1708 27.0776C68.751 30.287 64.48 30.073 62.6496 26.4625C61.668 24.5369 62.5169 18.974 63.8168 18.9205C64.5596 18.8938 65.0106 18.3856 65.4085 17.2089C65.9125 15.7112 65.833 15.5239 64.7984 15.7111C64.0556 15.8449 63.8699 15.7914 63.7638 15.3635C63.525 14.4541 64.0556 11.9134 64.8779 10.068C65.3024 9.07847 65.5677 8.27613 65.4616 8.27613H65.4881ZM181.416 8.83777C180.7 8.86451 179.798 9.31917 179.002 10.0948C178.471 10.6029 177.941 10.5227 177.755 9.90756C177.516 9.1587 177.171 9.23894 176.269 10.1483C175.182 11.2448 175.235 12.1006 176.322 11.0843C176.906 10.5494 177.357 10.7901 177.357 11.6727C177.357 12.5553 177.437 12.3146 177.888 12.0739C178.179 11.9134 178.843 11.8064 179.373 11.8064C181.469 11.8064 183.326 10.282 182.477 9.23894C182.238 8.94475 181.867 8.81102 181.442 8.83777H181.416ZM181.389 9.72034C181.548 9.72034 181.628 9.85407 181.628 10.0948C181.628 10.3355 181.522 10.4692 181.257 10.4692C181.151 10.4692 180.912 10.5494 180.726 10.6297C180.381 10.7901 180.275 10.8169 180.089 10.7634C180.036 10.7634 179.957 10.7099 179.904 10.7099C179.718 10.6564 180.169 10.2285 180.646 9.96104C180.991 9.77383 181.23 9.72034 181.389 9.72034ZM233.252 9.90756C233.013 9.90756 232.88 10.282 232.88 11.1111C232.88 11.9402 233.013 12.4483 234.817 14.3739C236.435 16.0856 237.204 16.6472 239.433 17.7705C242.192 19.1612 243.863 20.2845 243.863 20.7124C243.863 21.4613 234.79 27.2916 232.615 27.9067C231.289 28.2811 231.103 28.3079 230.466 27.9067C229.883 27.559 229.75 27.2648 229.697 26.1148C229.644 25.366 229.75 24.109 229.909 23.3334C230.307 21.4345 230.36 20.8194 230.095 20.8194C229.538 20.8194 229.405 19.8566 229.803 18.3856C230.015 17.5298 230.148 16.7809 230.095 16.7274C230.042 16.674 229.67 17.2623 229.272 18.0379C228.503 19.6159 228.344 21.5147 228.954 22.0229C229.272 22.2903 229.272 22.5043 228.954 23.5741C228.742 24.2694 228.583 25.8206 228.583 27.0241C228.583 30.287 229.485 31.3835 231.899 31.0893C232.456 31.0091 233.437 30.7149 234.048 30.394C236.727 29.03 242.643 24.9113 243.783 23.6276C244.685 22.6113 245.136 20.3915 244.738 18.8403C244.34 17.3426 243.889 16.9147 241.21 15.6042C240.096 15.0693 238.557 14.1867 237.761 13.6786C236.462 12.8227 236.382 12.7157 236.886 12.5018C237.204 12.3948 237.47 12.1541 237.47 11.9936C237.47 11.6994 233.862 9.82732 233.278 9.82732L233.252 9.90756ZM10.8933 9.90756C10.7607 9.90756 10.177 10.3355 9.64648 10.8971L8.63841 11.8867L9.43425 13.0367C9.8587 13.6786 10.2301 14.2937 10.2301 14.4274C10.2301 14.5611 9.8587 14.9356 9.43425 15.2565C8.98327 15.5774 8.63841 15.9519 8.63841 16.0588C8.63841 16.1658 9.06286 16.7809 9.59342 17.4228C10.2301 18.1717 10.6545 18.4926 10.8668 18.3321C11.0259 18.1984 11.6361 17.7705 12.1666 17.3426L13.1747 16.5937L12.2462 15.4437C11.7422 14.8018 11.3177 14.16 11.3177 13.9995C11.3177 13.839 11.6891 13.4379 12.1136 13.0902C12.5646 12.7692 12.9094 12.3948 12.9094 12.2611C12.9094 11.9134 11.2116 9.90756 10.9198 9.90756H10.8933ZM33.8666 9.9343C33.7605 9.9343 33.6013 10.0413 33.4422 10.3087C32.1953 12.4216 32.1688 14.7751 33.3891 14.7751C34.6094 14.7751 33.8401 14.6414 33.9993 14.4542C34.5033 13.946 34.3706 13.2239 33.787 13.0634C33.3361 12.9564 33.283 12.7692 33.4156 12.1541C33.4952 11.7262 33.7074 11.1111 33.8666 10.7901C34.1054 10.3087 34.0523 9.96105 33.8666 9.9343ZM129.66 10.4424C129.209 10.4424 127.484 14.2134 127.033 16.2193C126.582 18.1984 126.582 18.4391 126.98 19.5624C127.299 20.445 127.352 21.0066 127.166 21.6217C126.794 22.9322 126.874 25.3927 127.325 26.7032C128.28 29.4044 130.402 31.3568 132.843 31.7847C134.249 32.0254 134.859 31.9987 136.955 31.6777C138.148 31.4905 140.059 30.9021 140.775 30.4742C141.04 30.3137 141.544 30.073 141.915 29.9393C142.287 29.7788 142.817 29.5114 143.109 29.3242C146.478 27.1846 148.097 25.7404 148.76 24.2962C149.025 23.7346 149.211 22.638 149.211 21.6752C149.211 20.3112 149.078 19.6694 148.362 18.2519C147.354 16.1926 147.354 16.1658 148.043 16.1658C148.733 16.1658 148.707 15.8716 147.221 14.2937C145.709 12.689 145.417 12.7157 145.178 14.5344C145.072 15.31 145.152 15.7914 145.444 16.1123C145.656 16.3798 145.921 16.9414 146.001 17.3961C146.08 17.8507 146.584 19.1612 147.115 20.3112C147.646 21.4613 148.07 22.5043 148.07 22.638C148.07 23.5206 142.473 27.0509 139.475 28.0672C137.379 28.7893 133.639 29.0567 132.047 28.6288C130.694 28.2544 129.474 27.2648 128.598 25.8474C128.094 25.045 127.962 24.4567 127.962 23.0927C127.962 21.7287 128.015 21.3275 128.731 20.8194C129.235 20.445 129.606 19.8298 129.792 19.081C130.11 17.7972 129.845 17.2089 129.209 17.7437C128.996 17.931 128.625 17.9844 128.386 17.9042C127.564 17.5833 127.962 15.1495 129.394 11.7797C129.872 10.6297 129.898 10.4959 129.606 10.4959L129.66 10.4424ZM216.963 10.4424C216.592 10.4424 214.921 12.6355 214.921 13.1437C214.921 13.6518 217.043 14.7216 217.6 14.7483C217.812 14.7483 218.343 14.2134 218.741 13.5448C219.139 12.8762 219.484 12.1809 219.484 11.9936C219.484 11.6192 217.574 10.4424 216.963 10.4424ZM164.305 11.325C164.411 11.325 164.517 11.325 164.517 11.3785C164.517 11.432 164.385 11.5925 164.199 11.7797C163.907 12.1274 163.907 12.1809 163.96 12.4216C164.04 12.8495 164.013 13.3844 163.934 13.4913C163.801 13.6251 162.714 13.6518 162.554 13.5448C162.342 13.3844 162.103 12.9832 162.103 12.796C162.103 12.6088 162.554 12.0204 162.74 12.0204C162.82 12.0204 163.005 11.9402 163.164 11.8064C163.324 11.6994 163.509 11.5925 163.562 11.5925C163.615 11.5925 163.775 11.5122 163.934 11.432C164.04 11.3518 164.199 11.325 164.305 11.2983V11.325ZM187.544 11.539C187.225 11.539 185.315 14.5076 185.501 14.7216C185.926 15.1495 187.703 16.0856 188.127 16.1123C188.393 16.1123 188.87 15.6577 189.268 14.9623C190.17 13.4111 190.117 13.0367 189.029 12.5018C188.525 12.2611 188.021 11.9402 187.942 11.8064C187.862 11.6727 187.676 11.539 187.544 11.539ZM114.565 12.6088C113.902 12.6088 113.053 13.732 112.841 14.9356L112.655 15.9251L112.231 15.2832C111.514 14.2134 110.188 12.8762 109.817 12.8762C109.445 12.8762 109.312 13.6786 109.419 15.0425C109.472 15.8181 110.135 16.4065 110.957 16.4065C111.78 16.4065 111.647 16.674 111.859 17.2891C112.628 19.3752 112.682 19.4821 112.973 19.188C113.133 19.0275 113.345 18.1182 113.451 17.1821C113.637 15.5239 114.088 14.2402 114.512 14.2402C114.936 14.2402 114.857 14.3739 115.016 14.5344C115.467 14.989 115.891 14.5611 115.891 13.7053C115.891 12.8495 115.494 12.6088 114.539 12.6088H114.565ZM80.5826 12.7425C80.6621 12.7425 80.7683 12.7425 80.8744 12.7692C81.6967 12.9297 83.2088 13.5983 83.2088 13.8123C83.2088 14.0262 81.4315 14.7751 81.1396 14.7751C80.8478 14.7751 80.8213 14.4274 80.5826 14.0262C80.0255 13.0367 79.9989 12.689 80.5826 12.7157V12.7425ZM20.4169 12.8762C20.019 12.8762 19.3027 14.6414 19.3027 15.6309C19.3027 17.2623 20.4169 17.717 21.5841 16.5402C22.3269 15.7914 22.4861 14.2134 21.8494 13.7053C21.2392 13.1972 20.8679 13.6251 20.9474 14.7216C21.0005 15.4704 20.9209 15.7379 20.5495 15.7914C20.1781 15.8716 20.072 15.7112 20.072 14.9356C20.072 14.16 20.2047 13.9193 20.3373 13.8123C20.6822 13.5983 20.6822 12.8762 20.3638 12.8762H20.4169ZM157.62 13.1437C157.434 13.1437 156.798 13.5181 156.161 13.9727L155.02 14.8018L155.577 15.6577C156.771 17.5565 156.824 17.7705 156.267 18.1717C154.835 19.1612 154.755 19.5356 155.737 20.6054C156.108 21.0066 156.4 21.4345 156.4 21.5682C156.4 22.0764 157.408 21.7287 158.389 20.8729L159.451 19.9636L158.575 18.5728C157.726 17.2356 157.7 17.1554 158.204 16.8077C159.875 15.5774 159.822 15.7914 158.84 14.4007C158.336 13.7053 157.806 13.1437 157.62 13.1437ZM206.405 13.9995C206.193 13.9995 206.113 14.1065 205.954 14.3472C205.795 14.6146 205.397 15.2565 205.052 15.7646C204.363 16.8077 204.31 17.2089 204.787 17.2356C204.973 17.2356 205.556 17.5298 206.06 17.9042C206.564 18.2519 207.095 18.5461 207.201 18.5728C207.307 18.5728 207.758 18.0112 208.209 17.3158C208.66 16.6205 209.005 15.8449 209.005 15.6309C209.005 15.3902 208.368 14.9088 207.626 14.5344C206.962 14.2134 206.617 14.053 206.405 14.0262V13.9995ZM171.892 14.5611C170.964 14.6146 170.274 15.4972 170.009 17.0484L169.823 18.0914L169.266 17.1821C168.55 16.0053 167.382 14.7751 167.011 14.7751C166.64 14.7751 166.374 15.6309 166.374 16.7007C166.374 17.503 167.303 18.4926 168.205 18.6263C168.682 18.7066 168.948 19.0542 169.372 20.1508C169.664 20.9264 170.009 21.5682 170.141 21.5682C170.274 21.5682 170.46 20.9798 170.539 20.2845C170.619 19.5891 170.831 18.4124 170.99 17.6903C171.185 16.8166 171.583 16.4243 172.184 16.5135C173.059 16.6472 173.086 16.6472 173.086 15.7379C173.086 14.8286 172.953 14.7751 172.555 14.6414C172.396 14.5879 172.264 14.5611 172.104 14.5611H171.892ZM118.465 15.3635C118.305 15.3635 117.934 15.8716 117.642 16.5937C117.165 17.7437 117.138 19.1612 117.563 19.5891C117.961 19.9903 117.934 19.9903 118.438 19.4821C118.995 18.9205 118.969 18.2786 118.438 18.2786C117.908 18.2786 118.014 17.5833 118.518 15.8716C118.624 15.4972 118.597 15.3367 118.518 15.3635H118.465ZM180.673 16.1123C179.824 16.1123 179.32 16.4065 178.843 17.0216C177.941 18.1984 177.967 18.3856 179.081 18.1717C180.275 17.9577 181.495 18.2251 181.124 18.6531C180.991 18.8135 179.479 19.6426 177.781 20.445C176.084 21.274 174.625 22.0764 174.545 22.2636C174.333 22.745 174.704 22.6915 177.012 21.8892C179.824 20.9264 181.84 19.7763 182.901 18.5996C184.095 17.2356 184.042 16.8077 182.583 16.4333C181.787 16.2193 181.151 16.1123 180.646 16.1123H180.673ZM139.767 16.3263C139.448 16.3263 139.263 16.46 139.263 16.7542C139.263 16.9147 139.024 17.3693 138.732 17.7437C137.936 18.76 138.069 19.1612 139.475 19.9636C140.165 20.3647 140.775 20.6857 140.801 20.7124C140.801 20.7124 141.146 20.1775 141.544 19.4821C141.915 18.7868 142.234 18.0647 142.234 17.8775C142.234 17.6903 141.73 17.2089 141.12 16.8612C140.563 16.5402 140.112 16.353 139.793 16.353L139.767 16.3263ZM105.068 18.0914C105.015 18.0914 104.909 18.1717 104.776 18.3321C104.299 18.8135 103.954 20.7124 104.219 21.4078C104.431 21.9694 105.095 21.9427 105.307 21.4078C105.413 21.1671 105.307 20.7659 105.068 20.4984C104.856 20.2577 104.697 19.9903 104.75 19.9368C104.803 19.8833 104.935 19.4019 105.015 18.8938C105.121 18.3589 105.148 18.1449 105.068 18.1449V18.0914ZM133.931 18.8135C133.586 18.76 132.657 20.1775 132.206 21.488C131.463 23.6008 131.649 24.5101 132.949 25.259C133.639 25.6602 133.612 25.6602 134.594 25.0718C135.204 24.6974 135.575 24.1625 135.894 23.1729C136.318 21.8624 136.318 21.7554 135.841 20.9264C135.204 19.8298 134.673 19.8031 134.382 20.8729C134.222 21.4613 134.275 21.7554 134.567 21.9961C135.522 22.7183 134.408 23.8148 133.188 23.3334C132.631 23.1194 132.843 21.6217 133.612 20.0705C133.904 19.4821 134.09 18.9473 133.984 18.8403C133.984 18.8403 133.957 18.8135 133.931 18.8135ZM217.07 19.3484C217.547 19.3484 218.051 19.5624 218.529 20.017C218.927 20.3915 218.98 20.5252 218.9 20.6322C218.847 20.7124 218.688 20.7659 218.529 20.7391C218.396 20.7391 217.945 20.7124 217.521 20.6857C216.884 20.6589 216.725 20.6054 216.459 20.3915C216.194 20.1775 216.141 20.0973 216.168 19.8566C216.168 19.6159 216.247 19.5356 216.592 19.4287C216.751 19.3752 216.91 19.3484 217.07 19.3484ZM165.87 19.6694C165.791 19.6694 165.632 19.7763 165.393 20.0705C164.57 21.1403 164.252 23.0927 164.73 24.002C165.075 24.6439 165.366 24.6706 165.897 24.109C166.48 23.5206 166.427 22.9055 165.791 22.9055C165.154 22.9055 165.101 22.2101 165.658 20.8194C165.95 20.124 166.003 19.6961 165.844 19.6694H165.87ZM68.698 20.7926C68.3266 20.7926 68.1144 20.8996 67.8491 21.1403C67.0532 21.8624 67.2124 22.2903 68.3001 22.3973C69.2551 22.4776 69.2285 22.5043 67.1063 23.5741C65.9125 24.1625 64.931 24.7508 64.931 24.8846C64.931 25.2857 66.4962 24.8311 68.3001 23.9485C71.1916 22.531 71.6691 21.3543 69.5204 20.9264C69.1755 20.8461 68.9102 20.8194 68.698 20.8194V20.7926ZM97.2157 20.9531C97.4544 20.9798 97.7197 21.3008 98.2237 21.8892C98.8074 22.531 99.3114 23.2264 99.3644 23.4136C99.4971 23.9218 98.7808 24.5904 97.3218 25.3125C96.1545 25.9009 95.173 26.0346 94.7751 25.6602C94.2976 25.1788 94.5629 24.3229 95.8627 22.4508C96.6055 21.381 96.8708 20.9264 97.1891 20.9531H97.2157ZM49.0937 22.4241C49.5447 22.3973 50.0222 22.638 50.5793 23.1997C51.7465 24.3764 51.3486 24.8043 49.5978 24.2694C49.1468 24.1357 48.5632 23.8415 48.2448 23.6008C47.7143 23.1997 47.7143 23.1729 48.2448 22.7985C48.5366 22.5845 48.8285 22.4508 49.0937 22.4241ZM215.186 22.8787C215.239 22.8787 215.292 22.8787 215.345 22.959C215.637 23.2264 216.433 23.3601 217.627 23.3601C218.82 23.3601 219.643 23.4671 220.333 23.8415C221.5 24.4834 221.553 24.8846 220.598 25.4997C219.855 25.9811 219.59 26.1416 219.351 26.2218C219.218 26.2753 219.006 26.3823 218.873 26.4625C218.741 26.5427 218.555 26.5962 218.502 26.5962C218.422 26.5962 218.237 26.6497 218.104 26.7567C216.725 27.4788 214.098 27.8265 212.533 27.4788C211.711 27.2916 211.048 26.9707 210.809 26.6497L210.65 26.409L211.074 26.2218C211.313 26.1148 211.525 25.9811 211.552 25.9276C211.578 25.8741 211.711 25.8206 211.79 25.8206C211.87 25.8206 212.135 25.7404 212.321 25.6334C212.507 25.5264 212.745 25.4462 212.852 25.4462C212.958 25.4462 213.25 25.3392 213.541 25.2055C214.045 24.9648 214.151 24.8311 214.523 24.0287C214.576 23.895 214.682 23.7346 214.709 23.6543C214.762 23.5741 214.841 23.3601 214.921 23.1997C215 23.0124 215.08 22.9055 215.16 22.9055L215.186 22.8787ZM208.05 23.3334C209.058 23.3334 210.438 23.4938 210.57 23.6008C210.729 23.7613 210.544 24.0822 210.172 24.1892C209.987 24.2427 209.615 24.4032 209.35 24.5636C209.085 24.6974 208.846 24.8311 208.819 24.8311C208.793 24.8311 208.66 24.7776 208.527 24.6974C208.395 24.6171 208.262 24.5101 208.236 24.4567C208.156 24.3497 207.546 23.9485 207.254 23.8148C207.015 23.7078 207.015 23.6811 207.095 23.4938C207.175 23.3334 207.281 23.3066 208.023 23.3066L208.05 23.3334ZM19.5945 25.0985C19.568 25.0718 19.4619 25.1788 19.2496 25.366C18.7721 25.8474 18.0028 27.88 18.0028 28.6556C18.0028 29.8591 18.8783 30.5544 19.5415 29.8591C20.019 29.3777 19.9394 28.5486 19.4353 28.5486C18.9313 28.5486 19.0374 28.3346 19.1435 27.3986C19.2231 26.7567 19.3823 25.9544 19.4884 25.5799C19.568 25.259 19.621 25.0985 19.5945 25.0718V25.0985ZM87.586 25.5799C87.0819 25.5799 86.8697 25.9276 86.4453 26.8102C86.1004 27.559 85.7555 28.2009 85.7025 28.2544C85.6494 28.3079 85.1189 28.1474 84.5087 27.9067L83.4211 27.4521L82.7844 28.8428C82.4395 29.6184 82.2008 30.3405 82.2804 30.4742C82.4395 30.7417 84.5352 31.758 84.9597 31.758C85.1189 31.758 85.5433 31.0893 85.8616 30.287C86.2065 29.4579 86.5248 28.7893 86.5779 28.7893C86.631 28.7893 87.1085 28.9765 87.639 29.1905C88.9389 29.7254 89.045 29.7254 89.3634 28.8428C89.5225 28.4416 89.7613 27.8265 89.9204 27.5055C90.3449 26.6765 90.1327 26.3288 88.9389 25.8741C88.3022 25.6334 87.9043 25.4997 87.586 25.4997V25.5799ZM149.768 26.7032C149.662 26.7032 149.449 26.8637 149.184 27.2381C148.707 27.88 148.123 29.7254 148.123 30.5812C148.123 31.437 148.654 32.3731 149.052 32.3731C149.449 32.3731 149.582 32.1324 149.741 31.8382C150.166 31.0358 150.086 30.5544 149.476 30.394C148.998 30.2603 148.945 30.1265 149.105 29.244C149.211 28.6823 149.449 27.9335 149.635 27.5323C149.9 26.9974 149.927 26.7032 149.794 26.7032H149.768ZM34.5829 26.9974C34.5563 26.9974 34.4502 27.0776 34.2645 27.2648C33.5748 27.9602 33.1504 29.7521 33.5218 30.4475C33.9197 31.2231 34.4502 31.0358 34.5563 30.0998C34.6094 29.6719 34.5033 29.3777 34.3176 29.3777C34.0258 29.3777 34.0788 28.8695 34.5033 27.3718C34.5829 27.1311 34.6094 27.0241 34.5563 26.9974H34.5829ZM92.5202 28.3346C92.4671 28.3346 92.361 28.4416 92.1753 28.6021C91.6978 29.0567 91.3264 30.9824 91.5917 31.6777C91.7774 32.1591 91.8305 32.1591 92.4141 31.9184C92.9446 31.7045 92.9712 31.1696 92.4141 30.7149C92.2019 30.5277 92.0692 30.1533 92.1488 29.8591C92.4671 28.7358 92.5732 28.3346 92.4937 28.3079L92.5202 28.3346ZM79.5745 28.6823C79.5214 28.6823 79.4419 28.7893 79.2827 28.9765C78.6991 29.6986 78.4868 31.1428 78.8582 31.8114C79.2296 32.5336 79.5745 32.5336 79.9459 31.8114C80.1846 31.3835 80.1581 31.2231 79.7867 31.0893C79.4419 30.9556 79.3888 30.6882 79.5214 29.6719C79.6275 28.9498 79.6541 28.6556 79.5745 28.6556V28.6823Z" fill="white"/>
</g>
<defs>
<clipPath id="clip0_1_17722">
<rect width="244" height="32" fill="white" transform="translate(0.884033 0.439941)"/>
</clipPath>
</defs>
</svg>
