<svg width="358" height="362" viewBox="0 0 358 362" fill="none" xmlns="http://www.w3.org/2000/svg">
<g clip-path="url(#clip0_1_17161)">
<path d="M226.218 88.3057C217.032 81.2029 204.021 85.5842 204.021 85.5842C205.161 83.4459 206.586 80.231 207.425 76.1189C207.425 76.1189 208.355 71.5432 208.07 66.9078C207.2 53.0313 193.455 46.5491 195.457 37.2632C196.739 31.2969 204.021 26.5269 208.318 27.6409C212.285 28.6726 212.03 34.2801 217.722 36.4333C218.359 36.6726 222.619 38.2127 226.496 35.9099C229.773 33.966 230.718 30.5193 230.86 29.9661C232.255 24.5755 228.498 19.1101 225.543 16.4559C216.987 8.75509 202.858 13.5401 200.796 14.2354C186.623 19.0279 180.354 32.1866 178.899 35.4763C177.444 32.1941 171.175 19.0354 157.001 14.2354C154.939 13.5401 140.811 8.75509 132.254 16.4559C129.3 19.1101 125.543 24.5755 126.938 29.9661C127.08 30.5193 128.032 33.966 131.302 35.9099C135.187 38.2127 139.439 36.6726 140.076 36.4333C145.768 34.2726 145.513 28.6652 149.48 27.6409C153.777 26.5269 161.051 31.2969 162.341 37.2632C164.343 46.5566 150.597 53.0387 149.727 66.9078C149.435 71.5507 150.372 76.1189 150.372 76.1189C151.212 80.231 152.637 83.4459 153.777 85.5842C153.777 85.5842 140.766 81.2029 131.579 88.3057C126.128 92.5225 123.135 99.2514 123.173 105.263C123.173 106.152 123.21 111.034 125.175 111.677C127.492 112.433 129.547 106.332 134.827 103.834C140.773 101.031 148.43 103.924 152.569 106.698C161.126 112.418 161.103 121.875 166.713 139.729C169.045 147.161 172.795 157.434 178.891 169.337C184.996 157.426 188.738 147.161 191.07 139.729C196.679 121.875 196.657 112.418 205.213 106.698C209.36 103.924 217.017 101.031 222.956 103.834C228.235 106.324 230.29 112.433 232.607 111.677C234.58 111.034 234.61 106.145 234.61 105.263C234.647 99.2514 231.655 92.5225 226.203 88.3057H226.218Z" fill="#273C90"/>
<path d="M188.025 172.581C189.15 164.91 193.732 139.864 212.66 130.279C217.999 127.58 229.098 123.76 233.117 128.275C237.414 133.105 231.258 144.851 230.343 146.6C220.624 165.142 197.721 170.795 188.025 172.581Z" fill="#1E317F"/>
<path d="M169.765 172.581C168.64 164.91 164.058 139.864 145.13 130.279C139.791 127.58 128.692 123.76 124.673 128.275C120.376 133.105 126.533 144.851 127.447 146.6C137.166 165.142 160.069 170.795 169.765 172.581Z" fill="#1E317F"/>
<path d="M178.569 110.989C176.784 108.231 154.422 73.0011 166.57 55.7228C167.687 54.1303 172.509 47.2743 179.274 47.3416C186 47.4088 190.657 54.2873 191.73 55.8723C203.548 73.3151 180.398 108.261 178.561 110.982L178.569 110.989Z" fill="#1E317F"/>
<path d="M178.569 110.99C177.354 112.358 171.527 119.176 171.962 129.397C172.337 138.234 177.151 143.999 178.569 145.584C180.016 143.909 184.651 138.137 185.011 129.389C185.431 119.266 179.829 112.447 178.569 110.982V110.99Z" fill="#1E317F"/>
<path d="M226.346 268.805C217.159 275.907 204.148 271.526 204.148 271.526C205.288 273.665 206.713 276.879 207.553 280.992C207.553 280.992 208.483 285.567 208.198 290.203C207.328 304.079 193.582 310.561 195.584 319.847C196.867 325.814 204.148 330.584 208.445 329.47C212.412 328.438 212.157 322.83 217.849 320.677C218.487 320.438 222.746 318.898 226.623 321.2C229.9 323.144 230.845 326.591 230.988 327.144C232.382 332.535 228.625 338 225.671 340.654C217.114 348.355 202.986 343.57 200.916 342.875C186.743 338.083 180.474 324.924 179.019 321.634C177.564 324.916 171.295 338.075 157.121 342.875C155.059 343.57 140.931 348.355 132.374 340.654C129.42 338 125.663 332.535 127.057 327.144C127.2 326.591 128.152 323.144 131.422 321.2C135.306 318.898 139.558 320.438 140.196 320.677C145.888 322.838 145.633 328.445 149.6 329.47C153.897 330.584 161.171 325.814 162.461 319.847C164.463 310.554 150.717 304.072 149.847 290.203C149.555 285.56 150.492 280.992 150.492 280.992C151.332 276.879 152.757 273.665 153.897 271.526C153.897 271.526 140.886 275.907 131.699 268.805C126.247 264.588 123.255 257.859 123.293 251.848C123.293 250.958 123.33 246.076 125.295 245.433C127.612 244.678 129.667 250.779 134.946 253.276C140.893 256.08 148.55 253.186 152.689 250.412C161.246 244.693 161.223 235.235 166.833 217.381C169.165 209.949 172.914 199.676 179.011 187.774C185.115 199.684 188.858 209.949 191.19 217.381C196.799 235.235 196.777 244.693 205.333 250.412C209.48 253.179 217.137 256.08 223.076 253.276C228.355 250.786 230.41 244.678 232.727 245.433C234.7 246.076 234.73 250.966 234.73 251.848C234.767 257.859 231.775 264.588 226.323 268.805H226.346Z" fill="#273C90"/>
<path d="M178.696 246.121C176.912 248.88 154.549 284.109 166.698 301.388C167.815 302.98 172.637 309.836 179.401 309.769C186.128 309.702 190.785 302.823 191.857 301.238C203.676 283.795 180.534 248.85 178.689 246.128L178.696 246.121Z" fill="#1E317F"/>
<path d="M178.696 246.121C177.481 244.753 171.655 237.934 172.09 227.714C172.464 218.876 177.279 213.112 178.696 211.527C180.144 213.202 184.778 218.973 185.138 227.721C185.558 237.844 179.956 244.663 178.696 246.128V246.121Z" fill="#1E317F"/>
<path d="M89.9067 133.292C82.8876 142.578 87.2146 155.737 87.2146 155.737C85.0998 154.585 81.9202 153.142 77.8482 152.297C77.8482 152.297 73.3262 151.355 68.7368 151.647C55.0134 152.529 48.6016 166.428 39.4152 164.402C33.5134 163.101 28.7965 155.744 29.8989 151.4C30.9187 147.393 36.4606 147.647 38.5978 141.89C38.8378 141.247 40.3526 136.941 38.0804 133.015C36.1606 129.703 32.7485 128.746 32.2011 128.597C26.8692 127.184 21.4699 130.989 18.8377 133.972C11.2261 142.623 15.9505 156.911 16.6404 158.996C21.3799 173.329 34.3983 179.669 37.6454 181.135C34.3983 182.6 21.3874 188.94 16.6404 203.273C15.9505 205.359 11.2261 219.646 18.8377 228.297C21.4624 231.28 26.8692 235.085 32.2011 233.672C32.7485 233.53 36.1606 232.566 38.0804 229.254C40.3526 225.329 38.8378 221.022 38.5978 220.379C36.4681 214.622 30.9187 214.884 29.8989 210.869C28.7965 206.525 33.5134 199.168 39.4152 197.867C48.6016 195.841 55.0134 209.74 68.7368 210.622C73.3262 210.914 77.8482 209.972 77.8482 209.972C81.9127 209.127 85.0923 207.684 87.2146 206.532C87.2146 206.532 82.8801 219.691 89.9067 228.977C94.0762 234.487 100.728 237.515 106.675 237.478C107.552 237.478 112.389 237.441 113.019 235.452C113.769 233.104 107.732 231.033 105.265 225.695C102.49 219.684 105.355 211.938 108.092 207.751C113.746 199.101 123.098 199.116 140.758 193.448C148.115 191.086 158.269 187.303 170.042 181.135C158.269 174.966 148.115 171.176 140.758 168.821C123.098 163.146 113.746 163.168 108.092 154.518C105.355 150.331 102.49 142.585 105.265 136.574C107.732 131.236 113.769 129.165 113.019 126.817C112.382 124.829 107.552 124.799 106.675 124.791C100.728 124.754 94.0762 127.782 89.9067 133.292Z" fill="#273C90"/>
<path d="M112.337 181.471C109.607 183.28 74.7737 205.889 57.6833 193.605C56.1084 192.476 49.3292 187.602 49.3967 180.761C49.4642 173.964 56.2659 169.254 57.8332 168.163C75.0812 156.208 109.645 179.617 112.329 181.478L112.337 181.471Z" fill="#1E317F"/>
<path d="M112.337 181.471C113.687 182.705 120.436 188.596 130.545 188.155C139.281 187.774 144.98 182.906 146.555 181.471C144.898 180.006 139.191 175.325 130.545 174.951C120.533 174.525 113.791 180.185 112.344 181.471H112.337Z" fill="#1E317F"/>
<path d="M268.401 133.157C275.42 142.443 271.093 155.602 271.093 155.602C273.208 154.451 276.387 153.008 280.459 152.163C280.459 152.163 284.981 151.221 289.571 151.512C303.294 152.395 309.706 166.294 318.892 164.267C324.794 162.966 329.511 155.61 328.408 151.266C327.389 147.258 321.847 147.512 319.709 141.755C319.47 141.113 317.955 136.806 320.227 132.881C322.147 129.569 325.559 128.612 326.106 128.462C331.438 127.049 336.837 130.855 339.47 133.838C347.081 142.488 342.357 156.776 341.667 158.862C336.927 173.194 323.909 179.535 320.662 181C323.909 182.473 336.92 188.805 341.667 203.138C342.357 205.224 347.089 219.512 339.47 228.162C336.845 231.145 331.438 234.951 326.106 233.538C325.559 233.396 322.147 232.431 320.227 229.119C317.955 225.194 319.47 220.887 319.709 220.244C321.839 214.487 327.389 214.749 328.408 210.734C329.511 206.39 324.794 199.033 318.892 197.732C309.706 195.706 303.294 209.605 289.571 210.487C284.981 210.779 280.459 209.837 280.459 209.837C276.395 208.992 273.215 207.549 271.093 206.398C271.093 206.398 275.427 219.557 268.401 228.842C264.231 234.353 257.579 237.381 251.633 237.343C250.755 237.343 245.918 237.306 245.288 235.317C244.538 232.969 250.575 230.898 253.042 225.56C255.817 219.549 252.952 211.803 250.215 207.616C244.561 198.966 235.21 198.981 217.549 193.314C210.193 190.951 200.039 187.168 188.265 181C200.039 174.832 210.193 171.041 217.549 168.686C235.21 163.011 244.561 163.034 250.215 154.383C252.952 150.197 255.817 142.451 253.042 136.44C250.575 131.101 244.538 129.03 245.288 126.683C245.926 124.694 250.755 124.664 251.633 124.657C257.572 124.619 264.231 127.647 268.401 133.157Z" fill="#273C90"/>
<path d="M245.978 181.344C248.708 183.153 283.541 205.762 300.632 193.478C302.207 192.349 308.986 187.475 308.918 180.634C308.851 173.837 302.049 169.127 300.482 168.036C283.234 156.081 248.67 179.49 245.986 181.351L245.978 181.344Z" fill="#1E317F"/>
<path d="M245.978 181.344C244.628 182.578 237.879 188.469 227.77 188.028C219.034 187.647 213.335 182.779 211.76 181.344C213.417 179.879 219.124 175.198 227.77 174.824C237.782 174.398 244.523 180.058 245.971 181.344H245.978Z" fill="#1E317F"/>
<path d="M188.288 189.538C189.412 197.209 193.994 222.256 212.922 231.841C218.254 234.54 229.36 238.36 233.38 233.844C237.677 229.014 231.52 217.269 230.605 215.519C220.886 196.977 197.984 191.325 188.288 189.538Z" fill="#1E317F"/>
<path d="M170.027 189.538C168.902 197.209 164.321 222.256 145.393 231.841C140.061 234.54 128.955 238.36 124.935 233.844C120.638 229.014 126.795 217.269 127.71 215.519C137.429 196.977 160.331 191.325 170.027 189.538Z" fill="#1E317F"/>
<path d="M100.166 54.691C97.7959 51.8724 94.9313 48.4705 89.9744 46.2276C78.8757 41.2033 67.3645 46.5341 63.63 41.0089C63.3375 40.5828 62.0852 38.7286 62.5801 36.7772C63.1425 34.5417 65.6622 33.4726 66.0447 33.3156C71.2791 31.1698 75.4486 37.3679 83.1952 37.1735C86.3748 37.0912 88.962 35.9623 90.6568 35.0127C94.8788 32.6501 97.7134 28.082 97.6384 22.8633C97.5784 18.497 95.4862 14.6391 92.2991 12.1868C92.1716 12.0896 92.0216 11.9849 91.8641 11.8728C91.2567 11.4391 90.6118 11.0578 89.9294 10.7363C89.8469 10.699 89.7794 10.6541 89.6969 10.6167C89.6069 10.5719 89.5169 10.542 89.4269 10.5046C89.3219 10.4597 89.2169 10.4074 89.112 10.37C79.9705 6.69901 60.1354 17.226 60.1354 17.226C51.6314 21.8166 36.8582 23.4091 9.37392 9.98869C22.4599 36.6202 21.005 52.2013 16.7755 61.6741C13.9934 67.8946 5.91684 80.6721 10.3938 91.0645C10.4388 91.1692 10.4838 91.2738 10.5363 91.3785C10.5738 91.4682 10.6113 91.558 10.6563 91.6477C10.6938 91.7299 10.7388 91.8047 10.7763 91.8869C11.1062 92.5673 11.4962 93.2177 11.9311 93.8233C12.0436 93.9804 12.1486 94.1299 12.2461 94.2645C14.7208 97.457 18.5603 99.513 22.8798 99.513C28.0392 99.513 32.5237 96.5822 34.7959 92.2832C35.7108 90.5561 36.7982 87.9318 36.8282 84.7094C36.9182 76.874 30.7314 72.7395 32.7786 67.4236C32.9286 67.0348 33.956 64.4779 36.1607 63.8723C38.088 63.3414 39.9328 64.5825 40.3602 64.8741C45.8721 68.575 40.7652 80.2908 45.8871 91.4383C48.1743 96.4177 51.5789 99.2663 54.3986 101.629C71.969 116.328 102.063 104.694 103.345 104.178C103.84 102.877 114.931 72.2909 100.151 54.7284L100.166 54.691Z" fill="#273C90"/>
<path d="M46.0146 47.0649C49.2093 47.7378 89.652 56.6574 93.139 77.5618C93.4615 79.4833 94.8488 87.7823 90.0119 92.5673C85.2125 97.3224 77.106 95.7972 75.2387 95.4458C54.6836 91.5654 46.6146 50.3023 46.0146 47.0649Z" fill="#1E317F"/>
<path d="M46.0146 47.065C45.9171 45.2332 45.2722 36.2389 37.8181 29.3231C31.3764 23.3419 23.9373 22.7064 21.8225 22.6017C21.9725 24.8222 22.7299 32.2165 28.5867 38.6613C35.3659 46.1229 44.0949 46.9379 46.0146 47.0725V47.065Z" fill="#1E317F"/>
<path d="M257.789 54.691C260.159 51.8724 263.024 48.4705 267.981 46.2276C279.079 41.2033 290.591 46.5341 294.325 41.0089C294.618 40.5828 295.87 38.7286 295.375 36.7772C294.812 34.5417 292.293 33.4726 291.91 33.3156C286.676 31.1698 282.506 37.3679 274.76 37.1735C271.58 37.0912 268.993 35.9623 267.298 35.0127C263.076 32.6501 260.242 28.082 260.317 22.8633C260.377 18.497 262.469 14.6391 265.656 12.1868C265.783 12.0896 265.933 11.9849 266.091 11.8728C266.698 11.4391 267.343 11.0578 268.026 10.7363C268.108 10.699 268.176 10.6541 268.258 10.6167C268.348 10.5719 268.438 10.542 268.528 10.5046C268.633 10.4597 268.738 10.4074 268.843 10.37C277.984 6.69901 297.82 17.226 297.82 17.226C306.324 21.8166 321.097 23.4091 348.581 9.98869C335.495 36.6202 336.95 52.2013 341.179 61.6741C343.962 67.8946 352.038 80.6721 347.561 91.0645C347.516 91.1692 347.471 91.2738 347.419 91.3785C347.381 91.4682 347.344 91.558 347.299 91.6477C347.261 91.7299 347.216 91.8047 347.179 91.8869C346.849 92.5673 346.459 93.2177 346.024 93.8233C345.911 93.9804 345.806 94.1299 345.709 94.2645C343.234 97.457 339.395 99.513 335.075 99.513C329.916 99.513 325.431 96.5822 323.159 92.2832C322.244 90.5561 321.157 87.9318 321.127 84.7094C321.037 76.874 327.224 72.7395 325.176 67.4236C325.026 67.0348 323.999 64.4779 321.794 63.8723C319.867 63.3414 318.022 64.5825 317.595 64.8741C312.083 68.575 317.19 80.2908 312.068 91.4383C309.781 96.4177 306.376 99.2663 303.556 101.629C285.986 116.328 255.892 104.694 254.61 104.178C254.115 102.877 243.024 72.2909 257.804 54.7284L257.789 54.691Z" fill="#273C90"/>
<path d="M311.948 47.0649C308.753 47.7378 268.311 56.6574 264.823 77.5618C264.501 79.4833 263.114 87.7823 267.951 92.5673C272.75 97.3224 280.857 95.7972 282.724 95.4458C303.279 91.5654 311.348 50.3023 311.948 47.0649Z" fill="#1E317F"/>
<path d="M311.948 47.065C312.045 45.2332 312.69 36.2389 320.145 29.3231C326.586 23.3419 334.025 22.7064 336.14 22.6017C335.99 24.8222 335.233 32.2165 329.376 38.6613C322.597 46.1229 313.868 46.9379 311.948 47.0725V47.065Z" fill="#1E317F"/>
<path d="M100.083 307.593C97.7134 310.412 94.8487 313.814 89.8918 316.057C78.7932 321.081 67.282 315.75 63.5475 321.275C63.255 321.701 62.0026 323.556 62.4976 325.507C63.06 327.742 65.5797 328.812 65.9622 328.969C71.1966 331.114 75.3661 324.916 83.1126 325.111C86.2923 325.193 88.8794 326.322 90.5742 327.271C94.7962 329.634 97.6309 334.202 97.5559 339.421C97.4959 343.787 95.4037 347.645 92.2166 350.097C92.0891 350.195 91.9391 350.299 91.7816 350.411C91.1742 350.845 90.5293 351.226 89.8468 351.548C89.7643 351.585 89.6969 351.63 89.6144 351.667C89.5244 351.712 89.4344 351.742 89.3444 351.78C89.2394 351.824 89.1344 351.877 89.0294 351.914C79.888 355.585 60.0529 345.058 60.0529 345.058C51.5489 340.468 36.7756 338.875 9.29141 352.295C22.3774 325.664 20.9225 310.083 16.693 300.61C13.9109 294.382 5.83432 281.612 10.3113 271.22C10.3563 271.115 10.4013 271.01 10.4538 270.906C10.4913 270.816 10.5288 270.726 10.5738 270.637C10.6112 270.554 10.6562 270.48 10.6937 270.397C11.0237 269.717 11.4137 269.066 11.8486 268.461C11.9611 268.304 12.0661 268.154 12.1636 268.02C14.6383 264.827 18.4778 262.771 22.7973 262.771C27.9567 262.771 32.4412 265.702 34.7134 270.001C35.6283 271.728 36.7157 274.352 36.7456 277.575C36.8356 285.41 30.6489 289.545 32.6961 294.861C32.8461 295.249 33.8735 297.806 36.0782 298.412C38.0055 298.943 39.8503 297.702 40.2777 297.41C45.7896 293.709 40.6827 281.993 45.8046 270.846C48.0918 265.866 51.4964 263.018 54.3161 260.655C71.8865 245.956 101.98 257.59 103.263 258.106C103.758 259.407 114.849 289.993 100.068 307.556L100.083 307.593Z" fill="#273C90"/>
<path d="M45.9321 315.219C49.1267 314.546 89.5694 305.627 93.0565 284.722C93.379 282.801 94.7663 274.502 89.9294 269.717C85.13 264.962 77.0234 266.487 75.1562 266.838C54.6011 270.719 46.5321 311.982 45.9321 315.219Z" fill="#1E317F"/>
<path d="M45.9321 315.219C45.8346 317.051 45.1897 326.045 37.7356 332.961C31.2939 338.942 23.8547 339.578 21.74 339.682C21.89 337.462 22.6474 330.068 28.5042 323.623C35.2834 316.161 44.0123 315.346 45.9321 315.212V315.219Z" fill="#1E317F"/>
<path d="M257.707 307.593C260.077 310.412 262.941 313.814 267.898 316.057C278.997 321.081 290.508 315.75 294.243 321.275C294.535 321.701 295.787 323.556 295.292 325.507C294.73 327.742 292.21 328.812 291.828 328.969C286.593 331.114 282.424 324.916 274.677 325.111C271.498 325.193 268.911 326.322 267.216 327.271C262.994 329.634 260.159 334.202 260.234 339.421C260.294 343.787 262.386 347.645 265.573 350.097C265.701 350.195 265.851 350.299 266.008 350.411C266.616 350.845 267.261 351.226 267.943 351.548C268.026 351.585 268.093 351.63 268.176 351.667C268.266 351.712 268.356 351.742 268.446 351.78C268.551 351.824 268.656 351.877 268.761 351.914C277.902 355.585 297.737 345.058 297.737 345.058C306.241 340.468 321.014 338.875 348.499 352.295C335.413 325.664 336.867 310.083 341.097 300.61C343.879 294.382 351.956 281.612 347.479 271.22C347.434 271.115 347.389 271.01 347.336 270.906C347.299 270.816 347.261 270.726 347.216 270.637C347.179 270.554 347.134 270.48 347.096 270.397C346.766 269.717 346.376 269.066 345.941 268.461C345.829 268.304 345.724 268.154 345.626 268.02C343.152 264.827 339.312 262.771 334.993 262.771C329.833 262.771 325.349 265.702 323.077 270.001C322.162 271.728 321.074 274.352 321.044 277.575C320.954 285.41 327.141 289.545 325.094 294.861C324.944 295.249 323.917 297.806 321.712 298.412C319.784 298.943 317.94 297.702 317.512 297.41C312 293.709 317.107 281.993 311.985 270.846C309.698 265.866 306.294 263.018 303.474 260.655C285.904 245.956 255.81 257.59 254.527 258.106C254.032 259.407 242.941 289.993 257.722 307.556L257.707 307.593Z" fill="#273C90"/>
<path d="M311.858 315.219C308.663 314.546 268.221 305.627 264.734 284.722C264.411 282.801 263.024 274.502 267.861 269.717C272.66 264.962 280.767 266.487 282.634 266.838C303.189 270.719 311.258 311.982 311.858 315.219Z" fill="#1E317F"/>
<path d="M311.858 315.219C311.955 317.051 312.6 326.045 320.054 332.961C326.496 338.942 333.935 339.578 336.05 339.682C335.9 337.462 335.143 330.068 329.286 323.623C322.507 316.161 313.778 315.346 311.858 315.212V315.219Z" fill="#1E317F"/>
<path d="M179.236 337.215C175.239 341.238 170.117 345.746 163.758 350.075C155.127 355.944 146.93 359.645 140.391 362.007H216.409C210.403 360.288 201.636 356.961 192.645 350.239C186.713 345.798 182.341 341.118 179.229 337.223L179.236 337.215Z" fill="#FEC013"/>
<path d="M179.236 24.7848C175.239 20.7624 170.117 16.2541 163.758 11.9251C155.127 6.05604 146.93 2.35515 140.391 -0.00744629H216.409C210.403 1.71216 201.636 5.03923 192.645 11.7607C186.713 16.2017 182.341 20.8821 179.229 24.7773L179.236 24.7848Z" fill="#FEC013"/>
<path d="M333.485 181.284C337.467 185.329 341.922 190.503 346.204 196.933C352.008 205.658 355.668 213.949 358 220.559V143.692C356.298 149.763 353.013 158.638 346.361 167.722C341.974 173.718 337.34 178.144 333.485 181.284Z" fill="#FEC013"/>
<path d="M24.5146 181.284C20.5326 185.329 16.0781 190.503 11.7961 196.933C5.99179 205.658 2.33222 213.949 0 220.559V143.692C1.7023 149.763 4.98691 158.638 11.6386 167.722C16.0256 173.718 20.66 178.144 24.5146 181.284Z" fill="#FEC013"/>
<path d="M42.3325 100.874C44.3873 103.82 50.3266 111.498 61.1328 115.259C68.8044 117.928 75.5086 117.434 79.0557 116.904C83.4726 116.014 87.5372 117.868 88.7145 120.649C90.2143 124.178 87.4847 130.167 81.2229 131.677C78.3882 132.268 68.5644 133.935 58.7181 128.298C43.8173 119.775 42.4225 102.287 42.3325 100.874Z" fill="#1E317F"/>
<path d="M99.4531 43.4238C102.363 45.5023 109.959 51.506 113.679 62.4367C116.319 70.1974 115.831 76.9711 115.306 80.5599C114.429 85.0234 116.259 89.1355 119.011 90.3318C122.505 91.8495 128.422 89.0906 129.915 82.7505C130.499 79.8795 132.142 69.9507 126.577 59.9994C118.148 44.9341 100.855 43.521 99.4531 43.4313V43.4238Z" fill="#1E317F"/>
<path d="M315.278 100.874C313.223 103.82 307.283 111.498 296.477 115.259C288.806 117.928 282.101 117.434 278.554 116.904C274.137 116.014 270.073 117.868 268.896 120.649C267.396 124.178 270.125 130.167 276.387 131.677C279.222 132.268 289.046 133.935 298.892 128.298C313.793 119.775 315.188 102.287 315.278 100.874Z" fill="#1E317F"/>
<path d="M258.157 43.4238C255.247 45.5023 247.651 51.506 243.931 62.4367C241.291 70.1974 241.779 76.9711 242.304 80.5599C243.181 85.0234 241.351 89.1355 238.599 90.3318C235.105 91.8495 229.188 89.0906 227.695 82.7505C227.11 79.8795 225.468 69.9507 231.032 59.9994C239.461 44.9341 256.754 43.521 258.157 43.4313V43.4238Z" fill="#1E317F"/>
<path d="M42.3325 261.149C44.3873 258.203 50.3266 250.525 61.1328 246.764C68.8044 244.095 75.5086 244.588 79.0557 245.119C83.4726 246.009 87.5372 244.154 88.7145 241.373C90.2143 237.844 87.4847 231.856 81.2229 230.345C78.3882 229.755 68.5644 228.087 58.7181 233.717C43.8173 242.24 42.4225 259.728 42.3325 261.141V261.149Z" fill="#1E317F"/>
<path d="M99.4531 318.591C102.363 316.513 109.959 310.509 113.679 299.578C116.319 291.817 115.831 285.044 115.306 281.455C114.429 276.991 116.259 272.879 119.011 271.683C122.505 270.165 128.422 272.924 129.915 279.264C130.499 282.135 132.142 292.064 126.577 302.016C118.148 317.081 100.855 318.494 99.4531 318.584V318.591Z" fill="#1E317F"/>
<path d="M315.278 261.149C313.223 258.203 307.283 250.525 296.477 246.764C288.806 244.095 282.101 244.588 278.554 245.119C274.137 246.009 270.073 244.154 268.896 241.373C267.396 237.844 270.125 231.856 276.387 230.345C279.222 229.755 289.046 228.087 298.892 233.717C313.793 242.24 315.188 259.728 315.278 261.141V261.149Z" fill="#1E317F"/>
<path d="M258.157 318.591C255.247 316.513 247.651 310.509 243.931 299.578C241.291 291.817 241.779 285.044 242.304 281.455C243.181 276.991 241.351 272.879 238.599 271.683C235.105 270.165 229.188 272.924 227.695 279.264C227.11 282.135 225.468 292.064 231.032 302.016C239.461 317.081 256.754 318.494 258.157 318.584V318.591Z" fill="#1E317F"/>
<path d="M358 362C358 362 355.563 342.553 348.798 324.273C342.034 305.993 358 284.453 358 284.453V362Z" fill="#FEC013"/>
<path d="M358 362C358 362 338.765 359.54 320.692 352.699C302.611 345.858 281.314 362 281.314 362H358.007H358Z" fill="#FEC013"/>
<path d="M0 362C0 362 2.43721 342.553 9.20141 324.273C15.9656 305.993 0 284.453 0 284.453V362Z" fill="#FEC013"/>
<path d="M0 362C0 362 19.2352 359.54 37.3081 352.699C55.3884 345.858 76.6859 362 76.6859 362H0Z" fill="#FEC013"/>
<path d="M358 0C358 0 355.563 19.4465 348.798 37.7267C342.034 56.0069 358 77.5469 358 77.5469V0Z" fill="#FEC013"/>
<path d="M358 0C358 0 338.765 2.45979 320.692 9.30084C302.611 16.1419 281.314 0 281.314 0H358.007H358Z" fill="#FEC013"/>
<path d="M0 0C0 0 2.43721 19.4465 9.20141 37.7267C15.9656 56.0069 0 77.5469 0 77.5469V0Z" fill="#FEC013"/>
<path d="M0 0C0 0 19.2352 2.45979 37.3081 9.30084C55.3884 16.1419 76.6934 0 76.6934 0H0Z" fill="#FEC013"/>
</g>
<defs>
<clipPath id="clip0_1_17161">
<rect width="358" height="362" fill="white"/>
</clipPath>
</defs>
</svg>
