<svg width="39" height="29" viewBox="0 0 39 29" fill="none" xmlns="http://www.w3.org/2000/svg">
<g clip-path="url(#clip0_59_1063)">
<path fill-rule="evenodd" clip-rule="evenodd" d="M-2.41666 0H41.0833V29H-2.41666V0Z" fill="#199D00"/>
<path fill-rule="evenodd" clip-rule="evenodd" d="M8.54321 8.21862C8.4979 8.8983 8.42993 10.0878 9.01333 10.2124C9.71001 10.2803 9.32485 9.03424 9.57973 8.80768C9.62504 8.6944 9.71001 8.6944 9.71567 8.836V9.89518C9.71567 10.235 9.94223 10.337 10.1122 10.4049C10.2934 10.3936 10.418 10.4049 10.486 10.5749L10.5766 12.4044C10.5766 12.4044 10.9957 12.529 11.0184 11.3792C11.0354 10.6995 10.8825 10.1387 10.9731 10.0085C10.9731 9.87819 11.143 9.87252 11.2563 9.93483C11.4375 10.0594 11.5168 10.218 11.8 10.1614C12.2305 10.0368 12.4911 9.82721 12.4967 9.49869C12.4882 9.17585 12.421 8.85725 12.2985 8.55846C12.3211 8.50182 12.2192 8.34889 12.2418 8.29225C12.3155 8.41686 12.4344 8.40553 12.4571 8.29225C12.3834 8.05436 12.2702 7.82213 12.0889 7.72584C11.936 7.5899 11.7094 7.61256 11.6358 7.89576C11.5905 8.21861 11.7491 8.59811 11.9813 8.91529C12.0323 9.03424 12.1002 9.23815 12.0719 9.4194C11.9473 9.49303 11.8227 9.45904 11.7151 9.35143C11.7151 9.35143 11.3752 9.09654 11.3752 9.03424C11.4659 8.45651 11.3922 8.38854 11.3413 8.22428C11.3073 8.00338 11.1997 7.92975 11.1147 7.78248C11.0297 7.69186 10.9165 7.69186 10.8598 7.78248C10.7069 8.04303 10.7805 8.60377 10.8881 8.85865C10.9674 9.09088 11.0864 9.23815 11.0297 9.23815C10.9844 9.36842 10.8881 9.33444 10.8145 9.18151C10.7316 8.85966 10.6916 8.52828 10.6956 8.19596C10.6672 7.93541 10.6332 7.38033 10.4577 7.23307C10.3557 7.09713 10.2028 7.1651 10.1461 7.28971C10.1312 7.54274 10.1369 7.79658 10.1631 8.04869C10.2764 8.46783 10.3161 8.84166 10.3727 9.26647C10.3897 9.83854 10.0442 9.51568 10.0612 9.22682C10.1355 8.86366 10.1297 8.48867 10.0442 8.12799C9.98754 7.98072 9.92524 7.94674 9.78364 7.9694C9.67602 7.9694 9.39848 8.26959 9.31919 8.77936C9.31919 8.77936 9.25122 9.0399 9.2229 9.27213C9.18325 9.53268 9.01333 9.72526 8.88872 9.23815C8.78676 8.88131 8.71879 8.01471 8.54887 8.21862H8.54321Z" fill="white"/>
<path fill-rule="evenodd" clip-rule="evenodd" d="M10.4406 10.9996L8.6281 11.8718C8.64509 11.4583 9.48337 10.7164 10.0611 10.7107C10.4293 10.7164 10.3386 10.8523 10.4349 10.9996H10.4406Z" fill="white"/>
<path fill-rule="evenodd" clip-rule="evenodd" d="M10.1177 11.566C9.16611 14.0298 12.355 14.3753 12.7118 11.6679C12.7458 11.5546 12.8817 11.447 12.9044 11.6283C12.8308 14.0808 10.4349 14.2451 10.027 13.4748C9.93111 13.2097 9.88316 12.9297 9.88545 12.6478C9.8288 12.1664 9.57392 12.3533 9.53427 12.8291C9.49463 13.0953 9.50595 13.1689 9.50595 13.4238C9.63056 15.3609 12.7175 14.5283 13.2216 12.931C13.4878 12.0474 13.1763 11.396 13.3179 11.396C13.6237 11.7246 14.0542 11.4414 14.1505 11.3281C14.1901 11.2714 14.2921 11.2318 14.3601 11.3054C14.5979 11.4753 15.0171 11.396 15.1077 11.0959C15.1587 10.7957 15.1983 10.4898 15.2097 10.1783C15.0114 10.2349 14.8698 10.2746 14.8528 10.3595L14.8132 10.6201C14.7962 10.705 14.6319 10.705 14.6206 10.5974C14.547 10.2576 14.2411 10.2179 14.0542 10.739C13.9353 10.841 13.7087 10.8636 13.686 10.7107C13.7144 10.3595 13.5728 10.3142 13.2895 10.4785L13.0177 8.42808C13.131 8.42808 13.2442 8.51304 13.3519 8.3771C13.2386 8.00894 12.9837 7.26128 12.8421 7.20464C12.7798 7.12535 12.7231 7.17632 12.6325 7.19898C12.4853 7.24429 12.3493 7.3689 12.3946 7.61812C12.5645 8.68296 12.6778 9.49292 12.8534 10.5634C12.8817 10.6824 12.7798 10.8466 12.6438 10.8296C12.4173 10.6767 12.3606 10.3652 11.9642 10.3765C11.681 10.3765 11.3638 10.688 11.3241 10.9826C11.2731 11.2205 11.2561 11.4753 11.3241 11.6793C11.5224 11.9171 11.7603 11.8945 11.9698 11.8435C12.1397 11.7699 12.2813 11.6 12.3436 11.6396C12.3833 11.6906 12.3493 12.257 11.5337 12.6875C11.0409 12.914 10.6444 12.9593 10.4349 12.5572C10.3046 12.3023 10.4462 11.3451 10.1177 11.566Z" fill="white"/>
<path fill-rule="evenodd" clip-rule="evenodd" d="M14.1788 9.06247C14.3658 8.99451 15.272 7.95232 15.272 7.95232L15.1361 7.83904C15.0851 7.79939 15.0908 7.75408 15.1361 7.71443C15.3626 7.57849 15.289 7.29529 15.1757 7.15935C15.0988 7.12186 15.0142 7.10285 14.9287 7.10383C14.8431 7.10482 14.759 7.12577 14.6829 7.16501C14.5244 7.31794 14.4904 7.5615 14.615 7.70876C14.7339 7.7654 14.8529 7.89001 14.7736 7.95798C14.3997 8.35447 13.3859 9.03982 13.5048 9.06247C13.5275 9.09646 14.1562 9.09646 14.1732 9.06247H14.1788ZM8.68471 12.7441C8.34486 13.2879 8.31654 14.0978 8.50346 14.3414C8.60541 14.4547 8.76967 14.5056 8.88861 14.466C9.10385 14.3754 9.20014 13.9392 9.14916 13.7863C9.07553 13.673 9.01889 13.656 8.94525 13.7467C8.79799 14.0525 8.73568 13.8429 8.71869 13.673C8.70246 13.3852 8.71765 13.0966 8.764 12.8121C8.80365 12.5742 8.764 12.6422 8.68471 12.7441ZM23.247 11.8775C22.9185 11.1638 22.4597 10.4615 22.3181 10.1953C21.8767 9.4975 21.4081 8.81729 20.9134 8.15622C20.5622 7.73708 21.4912 8.33181 20.8001 7.49353L20.296 7.06872C20.1828 6.98943 19.9109 6.84216 19.8656 7.08005C19.8429 7.29529 19.8542 7.40857 19.8882 7.58415C19.9165 7.69743 20.0865 7.89568 20.1714 8.00896C21.3326 9.54701 22.3525 11.1868 23.2187 12.9084C23.366 12.8347 23.332 11.9965 23.247 11.8775Z" fill="white"/>
<path fill-rule="evenodd" clip-rule="evenodd" d="M21.8026 14.2451C21.7346 14.3187 21.9612 14.6303 22.2557 14.6303C22.7428 14.5736 23.1733 14.3018 23.5698 13.5768C23.7309 13.3356 23.8336 13.0602 23.87 12.7725C23.9179 11.3975 23.8077 10.0215 23.5414 8.67168C23.5244 8.5584 23.5414 8.42246 23.5528 8.38848C23.5868 8.34883 23.6944 8.38848 23.751 8.29219C23.836 8.20723 23.5244 7.49922 23.3545 7.23301C23.2979 7.1084 23.2696 7.0291 23.1676 7.24434C23.0446 7.48183 22.986 7.74744 22.9977 8.01465C23.2299 9.62891 23.3036 11.0393 23.4508 12.6535C23.4678 12.8121 23.4452 13.0387 23.3375 13.1293C22.9101 13.6052 22.3871 13.9854 21.8026 14.2451ZM28.4012 14.2395C28.05 14.4434 28.05 14.6756 28.3332 14.6813C28.8203 14.6246 29.3981 14.585 29.7946 13.9846C29.9346 13.7018 30.0156 13.3934 30.0325 13.0783C30.1038 11.7245 30.0144 10.367 29.7662 9.03418C29.7549 8.9209 29.7039 8.65469 29.7209 8.6207C29.7549 8.54141 29.9135 8.62637 29.9702 8.53574C30.0494 8.45078 29.5567 7.81641 29.3811 7.54453C29.3244 7.41992 29.3018 7.34062 29.1942 7.55586C29.0801 7.79554 29.0444 8.06507 29.0922 8.32617C29.3528 10.082 29.5453 11.3961 29.585 12.948C29.5623 13.0953 29.5567 13.1746 29.4887 13.3615C29.3358 13.5541 29.1659 13.8033 29.0073 13.9223C28.8487 14.0355 28.5088 14.1488 28.4012 14.2395Z" fill="white"/>
<path fill-rule="evenodd" clip-rule="evenodd" d="M28.6618 12.6705C28.6618 12.2571 28.6674 11.9059 28.6561 11.5944C28.6525 11.3305 28.5946 11.0703 28.4862 10.8297C28.3842 10.5975 28.4466 10.4106 28.3956 10.1614C28.3503 9.91214 28.3616 9.53831 28.2936 9.24945C28.271 9.13617 28.2143 8.768 28.2313 8.72835C28.2596 8.64906 28.3673 8.72835 28.4239 8.63773C28.5032 8.55277 28.1407 7.6182 27.9594 7.35199C27.8971 7.23304 27.7725 7.27269 27.6309 7.46527C27.4893 7.59554 27.5403 7.88441 27.5969 8.16195C27.9424 9.99144 28.2087 11.651 28.152 13.3899C28.1294 13.5371 28.6618 12.9481 28.6618 12.6705ZM26.0733 10.4049C25.8524 10.3936 25.3936 9.96878 25.2577 9.72523C25.2354 9.6657 25.226 9.60216 25.2299 9.53874C25.2338 9.47531 25.251 9.41341 25.2803 9.35706C25.3653 9.30042 25.4899 9.24378 25.5862 9.30042C25.5862 9.30042 25.6825 9.43636 25.6655 9.45335C25.7788 9.50999 25.8354 9.48167 25.8467 9.4307C25.8524 9.34574 25.8128 9.29476 25.8128 9.20413C25.8637 8.94359 26.1526 8.90394 26.2659 9.0682C26.3452 9.17015 26.3792 9.37972 26.3848 9.52132C26.3848 9.59496 26.2716 9.50999 26.1979 9.52132C26.1356 9.54398 26.1186 9.62328 26.113 9.69124C26.1016 9.87816 26.079 10.1784 26.0733 10.3993V10.4049ZM22.0065 13.1237C22.0632 12.5686 21.9839 11.5774 21.9782 11.2489C21.9479 10.404 21.878 9.561 21.7686 8.72269C21.7007 8.24691 21.9612 8.77367 21.9272 8.49613C21.8423 8.02601 21.5817 7.70316 21.2702 7.27835C21.1739 7.13675 21.1739 7.10843 21.021 7.31234C20.851 7.69183 20.9983 7.95804 21.0436 8.25824C21.2645 9.23245 21.3948 10.1274 21.4571 11.0166C21.5223 11.9404 21.5299 12.8673 21.4798 13.792C21.6497 13.7977 21.9102 13.5258 22.0065 13.1237Z" fill="white"/>
<path fill-rule="evenodd" clip-rule="evenodd" d="M29.4153 12.2344C29.0245 11.5773 28.4411 10.875 28.2825 10.6088C27.7573 9.87532 27.2057 9.16117 26.6286 8.46775C26.1472 7.95799 26.8552 8.38279 26.538 7.98631C26.2718 7.69744 26.1982 7.60115 25.9659 7.42557C25.8526 7.35193 25.7847 7.21033 25.7394 7.45389C25.7213 7.66485 25.7175 7.87679 25.728 8.08826C25.728 8.18455 25.83 8.37146 25.9206 8.48475C27.0931 9.92908 28.3788 11.4017 29.4097 13.2539C29.5569 13.1803 29.506 12.3476 29.4097 12.2344H29.4153Z" fill="white"/>
<path fill-rule="evenodd" clip-rule="evenodd" d="M11.7775 11.028C11.7491 11.0789 11.6868 11.1412 11.7095 11.2036C11.7491 11.2602 11.7888 11.2772 11.8568 11.2772C11.9191 11.2772 12.0097 11.2942 12.0267 11.2602C12.0607 11.2205 12.0833 11.1469 12.0607 11.0733C11.9927 10.9034 11.8114 10.9713 11.7775 11.028Z" fill="#1BA400"/>
<path fill-rule="evenodd" clip-rule="evenodd" d="M24.8953 20.5322C25.4164 20.5549 25.7562 20.5606 26.215 20.6115L26.7588 20.5549C27.3591 20.4983 27.3818 21.4102 27.3818 21.4102C27.3818 21.9483 27.1722 21.9766 26.906 22.0332C26.7531 22.0559 26.6795 21.9426 26.5945 21.8293C26.4664 21.8704 26.33 21.8782 26.198 21.852C25.9771 21.8406 25.7619 21.8406 25.5466 21.8237C25.3201 21.8067 25.1955 21.852 24.9632 21.8293C24.9179 21.9029 24.85 22.0049 24.714 21.9766C24.6007 21.9596 24.4591 21.6367 24.4988 21.3819C24.5838 21.2006 24.5554 21.2629 24.5554 21.1836C22.4257 21.127 20.2791 21.0307 18.1947 21.059C16.5634 21.0647 14.9549 21.1326 13.3406 21.2006C12.4797 21.1893 11.8226 21.0533 11.3695 20.3906C11.4148 20.3906 13.5672 20.5096 14.1959 20.4699C15.357 20.4586 16.4218 20.3623 17.6056 20.3283C19.9392 20.368 22.2558 20.368 24.5894 20.5322C24.3629 20.3793 24.3629 20.0225 24.7027 19.9319C24.731 19.9092 24.748 20.1074 24.799 20.1018C25.0765 20.0848 24.9519 20.4586 24.8953 20.5322ZM15.5156 7.66349C15.1644 8.6717 15.7195 9.78185 16.1047 9.67424C16.3879 9.78752 16.5578 9.2551 16.6711 8.67736C16.756 8.5131 16.8127 8.49611 16.8523 8.58107C16.841 9.35138 16.909 9.52697 17.1072 9.7592C17.549 10.099 17.9172 9.80451 17.9455 9.77619L18.2853 9.43068C18.3646 9.34572 18.4666 9.34572 18.5742 9.41369C18.6818 9.50998 18.6648 9.67424 18.8914 9.78752C19.084 9.86681 19.4861 9.81017 19.5824 9.64592C19.707 9.42502 19.741 9.35138 19.7976 9.27209C19.8883 9.15314 20.0412 9.20412 20.0412 9.24377C20.0242 9.31174 19.9336 9.37404 19.9959 9.49865C20.1091 9.57795 20.1318 9.52697 20.1941 9.50998C20.4207 9.3967 20.5906 8.90959 20.5906 8.90959C20.5963 8.72834 20.4943 8.73967 20.4263 8.78498L20.2507 8.90392C20.1375 8.92092 19.9279 8.99455 19.8203 8.83029C19.7127 8.63771 19.7127 8.36017 19.6334 8.16193C19.6334 8.1506 19.4861 7.85041 19.622 7.83342C19.69 7.84474 19.8316 7.88439 19.8543 7.76545C19.9222 7.6465 19.707 7.31232 19.5541 7.1424C19.4238 7.0008 19.2425 6.98381 19.067 7.13107C18.9423 7.24435 18.9593 7.36896 18.9367 7.48791C18.9152 7.57315 18.9143 7.66227 18.934 7.74794C18.9537 7.83361 18.9934 7.91338 19.05 7.98068C19.1746 8.21857 19.3955 8.5301 19.3218 8.97189C19.3218 8.97189 19.1916 9.1758 18.965 9.14748C18.8687 9.13049 18.7158 9.09084 18.6365 8.47912C18.5742 8.02599 18.6478 7.38029 18.4552 7.0801C18.3816 6.89318 18.3306 6.7176 18.1607 7.02912C18.1154 7.15373 17.9172 7.34064 18.0588 7.72013C18.1928 8.06211 18.2319 8.43393 18.172 8.79631C18.0871 8.92092 18.0701 8.96056 17.9625 9.07951C17.8152 9.24943 17.6509 9.20412 17.5263 9.14181C17.4131 9.06818 17.3224 9.02853 17.2658 8.77365C17.2771 8.37717 17.2998 7.7258 17.2261 7.58986C17.1185 7.37463 16.9429 7.45392 16.8693 7.52189C16.5324 7.8962 16.3068 8.35723 16.2179 8.85295C16.116 9.18146 16.0084 9.08517 15.9347 8.9549C15.7535 8.78498 15.7365 7.4426 15.5156 7.66349Z" fill="white"/>
<path fill-rule="evenodd" clip-rule="evenodd" d="M16.5805 9.86113C16.7448 9.74785 16.6711 9.66855 16.909 9.90644C17.2161 10.4497 17.3943 11.0563 17.4301 11.6793C17.4188 11.8266 17.5207 11.9172 17.5717 11.8832C17.5944 11.5434 18.427 11.0676 19.1916 10.9996C19.3049 10.9713 19.2483 10.7504 19.2653 10.6371C19.22 10.2123 19.5032 9.82714 19.8996 9.79882C20.4434 9.87812 20.6246 10.167 20.636 10.6031C20.5737 11.4527 19.6901 11.5943 19.1973 11.6623C19.1237 11.6906 19.0897 11.7246 19.1973 11.7643L21.2703 11.7756L21.378 11.8322C21.3893 11.8889 21.344 11.8436 21.2647 11.9795C21.1506 12.1798 21.0793 12.4016 21.0551 12.6309C20.4377 12.8348 19.7977 12.9141 19.152 12.999C18.9254 13.1123 18.8121 13.2652 18.8575 13.4352C18.9368 13.6221 19.4352 13.8146 19.4352 13.8203C19.5315 13.8769 19.6391 14.0186 19.4069 14.3074C18.3987 14.2621 17.6114 13.8316 17.3395 13.2256C17.2602 13.1633 17.1696 13.2256 17.1129 13.3049C16.7164 13.8146 16.3313 14.2678 15.6573 14.517C15.2608 14.6189 14.8473 14.4547 14.6547 14.1941C14.5244 14.0412 14.5301 13.8769 14.4848 13.843C14.2639 13.9393 12.3948 14.7322 12.6327 14.3584C13.0858 13.8769 13.8787 13.5144 14.5698 13.0387C14.6207 12.8744 14.7114 12.3307 14.9832 12.1551C15.0002 12.1551 14.9436 12.4723 14.9493 12.6082C14.9493 12.7215 14.9379 12.7611 14.9606 12.7328C15.0116 12.7045 15.8498 12.0418 15.9235 11.8379C16.0028 11.7246 15.9405 11.4301 15.9405 11.4187C15.7819 11.0109 15.561 10.9769 15.4817 10.773C15.408 10.5068 15.442 10.201 15.595 10.1103C15.7309 9.9914 15.8895 10.0027 16.0424 10.1387C16.2123 10.2916 16.3596 10.5918 16.4049 10.8127C16.3766 10.8977 16.1784 10.7561 16.1217 10.7957C16.2307 10.921 16.3032 11.0738 16.3313 11.2375C16.4446 11.7019 16.4106 11.8832 16.2973 12.1834C15.9235 12.9707 15.4477 13.2029 15.0286 13.4975C15.0172 13.4975 15.0116 13.6957 15.1645 13.8033C15.2211 13.86 15.442 13.8883 15.6969 13.8033C16.2414 13.5009 16.6818 13.0409 16.96 12.4836C17.0081 12.0596 16.9617 11.6301 16.8241 11.2262C16.6598 10.8467 16.4672 10.3086 16.4672 10.2973C16.4616 10.0594 16.4785 9.98007 16.5805 9.86113ZM11.1543 7.6748C11.3922 7.78808 11.8453 7.73711 11.8227 7.35195L11.8114 7.17636C11.7661 7.06308 11.6301 7.0914 11.6018 7.20468C11.5905 7.24433 11.6188 7.30664 11.5848 7.32363C11.5621 7.34629 11.4885 7.33496 11.4885 7.22734C11.4885 7.19336 11.4659 7.15937 11.4489 7.13671C11.4375 7.12539 11.4262 7.12539 11.3979 7.12539C11.3639 7.12539 11.3639 7.13105 11.3469 7.15937C11.3412 7.18769 11.3299 7.21601 11.3299 7.25C11.3299 7.28964 11.3073 7.30097 11.2846 7.30664C11.2506 7.30664 11.2563 7.30664 11.228 7.29531C11.2166 7.27832 11.1996 7.27265 11.1996 7.23867L11.1827 7.14804C11.1713 7.13105 11.1487 7.11972 11.126 7.11406C10.9957 7.11406 10.9844 7.26699 10.9957 7.32363C10.9844 7.33496 10.9787 7.60117 11.1543 7.6748Z" fill="white"/>
<path fill-rule="evenodd" clip-rule="evenodd" d="M18.1495 10.6314C18.3874 10.7447 18.9594 10.6824 18.8178 10.3142L18.8065 10.133C18.7555 10.0197 18.6252 10.048 18.5969 10.1669C18.5856 10.2009 18.6139 10.2632 18.5743 10.2802C18.5573 10.3029 18.478 10.2916 18.4836 10.1896C18.4836 10.1556 18.461 10.116 18.444 10.0933C18.427 10.0876 18.4213 10.082 18.3874 10.082C18.359 10.082 18.359 10.0933 18.342 10.1216C18.3307 10.15 18.3251 10.1783 18.3251 10.2123C18.3194 10.2462 18.3024 10.2576 18.2741 10.2689C18.2458 10.2689 18.2514 10.2689 18.2288 10.2519C18.2118 10.2349 18.1948 10.2292 18.1948 10.2009L18.1778 10.1103C18.1665 10.0933 18.1438 10.082 18.1211 10.0763C17.9909 10.0763 17.9795 10.2236 17.9852 10.2802C17.9795 10.2916 17.9739 10.5634 18.1551 10.6314H18.1495ZM22.2276 9.40796C22.4655 9.52124 22.9129 9.47026 22.896 9.09077L22.8846 8.90952C22.8336 8.79624 22.7034 8.82456 22.6751 8.93784C22.6637 8.97749 22.692 9.0398 22.6524 9.06245C22.6354 9.07944 22.5561 9.06812 22.5618 8.9605C22.5618 8.92651 22.5391 8.89253 22.5221 8.86987C22.5051 8.85855 22.4995 8.85855 22.4655 8.85855C22.4372 8.85855 22.4372 8.86987 22.4202 8.89819L22.4032 8.98316C22.3975 9.0228 22.3805 9.0398 22.3522 9.0398C22.3239 9.0398 22.3295 9.0398 22.3069 9.02847C22.2899 9.01147 22.2729 9.00581 22.2729 8.97749C22.2729 8.94917 22.2672 8.90386 22.2559 8.8812C22.2446 8.86421 22.2219 8.85855 22.1993 8.85288C22.069 8.85288 22.0577 9.00015 22.0633 9.05679C22.0577 9.06812 22.052 9.33433 22.2333 9.40796H22.2276ZM24.3403 12.4835C23.9268 12.9537 24.1081 13.7296 24.2044 13.8996C24.3403 14.1714 24.4479 14.347 24.7141 14.483C24.9577 14.6585 25.1502 14.5509 25.2522 14.4263C25.4958 14.1714 25.5014 13.5201 25.6147 13.3955C25.694 13.1576 25.8979 13.1972 25.9942 13.3048C26.0843 13.4327 26.205 13.5359 26.3454 13.605C26.5719 13.8033 26.8438 13.8429 27.1157 13.6617C27.2969 13.5541 27.4159 13.4238 27.5235 13.1576C27.6368 12.8404 27.5801 11.3677 27.5518 10.4955L27.3139 9.27769C27.3139 9.26636 27.2856 8.69995 27.2573 8.56968C27.2573 8.51304 27.2403 8.49605 27.2969 8.50171C27.3592 8.55835 27.3649 8.55835 27.4102 8.57534C27.4669 8.58667 27.5235 8.47905 27.4838 8.38843L26.9174 7.33491C26.8721 7.2896 26.8098 7.24429 26.7362 7.34624C26.6927 7.38557 26.6582 7.43368 26.6347 7.48739C26.6113 7.5411 26.5995 7.59917 26.6002 7.65776C26.6172 7.90698 26.6569 8.16187 26.6739 8.41108L26.9004 9.69116C26.9741 10.5974 26.9911 11.3451 27.0647 12.257C27.0534 12.6421 26.9344 12.9763 26.8211 13.0273C26.8211 13.0273 26.6512 13.1236 26.5379 13.016C26.453 12.982 26.1188 12.4552 26.1188 12.4552C25.9489 12.3023 25.8356 12.3419 25.7167 12.4552C25.3768 12.7837 25.2295 13.3841 24.9973 13.8033C24.9407 13.8996 24.7708 13.9732 24.5895 13.7976C24.1251 13.1576 24.3969 12.2513 24.3403 12.4835ZM22.3352 7.17632C22.5504 7.26128 22.6977 7.69741 22.6524 7.91265C22.6071 8.16753 22.4938 8.45073 22.4145 8.41675C22.3239 8.38276 22.4711 8.1562 22.3862 7.91831C22.3409 7.75972 22.0463 7.47651 22.0803 7.39722C22.0237 7.22163 22.2049 7.14233 22.3352 7.17065V7.17632Z" fill="white"/>
<path fill-rule="evenodd" clip-rule="evenodd" d="M25.0313 12.7441C25.0709 12.223 24.9973 11.9059 24.986 11.6C24.9746 11.2941 24.6405 8.96055 24.5725 8.73399C24.4875 8.29219 24.8953 8.67735 24.85 8.4168C24.7084 8.09961 24.3629 7.62949 24.2553 7.35195C24.1873 7.23867 24.2157 7.12539 24.0684 7.32363C23.9416 7.67121 23.897 8.04344 23.9381 8.41113C24.2893 10.2406 24.6461 11.7586 24.5895 13.4975C24.7594 13.4975 24.9463 13.118 25.0313 12.7441ZM28.6789 7.9127C28.8772 8.00899 28.9905 8.55274 28.9678 8.70566C28.9282 8.98887 28.8262 9.29473 28.7526 9.25508C28.6676 9.22109 28.7696 8.83594 28.7299 8.71699C28.6846 8.54707 28.4184 8.24121 28.4467 8.15059C28.3901 7.95801 28.56 7.87871 28.6789 7.9127ZM14.1959 11.7586C14.3828 11.8322 14.4961 12.2287 14.4791 12.342C14.4338 12.5516 14.3375 12.7781 14.2639 12.7441C14.1903 12.7215 14.2809 12.4383 14.2469 12.3477C14.2299 12.1381 13.9694 12.0248 13.975 11.9342C13.9297 11.7643 14.0883 11.7359 14.2016 11.7586H14.1959Z" fill="white"/>
<path fill-rule="evenodd" clip-rule="evenodd" d="M18.7044 12.359C18.9423 12.3704 19.0612 12.5629 18.8403 12.6422C18.6138 12.7159 18.4042 12.7782 18.3985 13.0954C18.4835 13.5485 18.2852 13.3899 18.172 13.3333C18.036 13.2313 17.6509 12.9934 17.5942 12.4836C17.5886 12.3647 17.6849 12.2571 17.8378 12.2571C18.0643 12.3194 18.4042 12.325 18.7044 12.359Z" fill="#1B9D00"/>
<path fill-rule="evenodd" clip-rule="evenodd" d="M9.21728 7.04604C9.48916 7.12533 9.50615 7.53315 9.48916 7.65209C9.44951 7.86733 9.35322 8.09955 9.28525 8.07123C9.20595 8.04291 9.28525 7.74838 9.2456 7.65776C9.20595 7.53315 8.97373 7.29526 8.99638 7.22729C8.94541 7.08569 9.10966 7.01772 9.21728 7.04604ZM14.6491 8.94916C14.4339 9.06244 14.3546 9.40229 14.4849 9.60619C14.6095 9.77612 14.802 9.71381 14.8247 9.71381C15.0343 9.73647 15.1589 9.32299 15.1589 9.32299C15.1589 9.32299 15.1645 9.20971 14.921 9.43061C14.8134 9.4476 14.8077 9.40795 14.7794 9.35131C14.7535 9.24348 14.7634 9.13013 14.8077 9.02846C14.8474 8.92651 14.7681 8.88119 14.6491 8.94916ZM16.2351 6.88744C16.1218 6.96108 15.9122 7.18197 15.9065 7.43119C15.9009 7.5728 15.8726 7.5728 15.9632 7.65776C16.0368 7.75971 16.0991 7.75405 16.2351 7.68041C16.2689 7.65909 16.298 7.63096 16.3204 7.59781C16.3428 7.56466 16.3581 7.52721 16.3653 7.48783C16.3993 7.32924 16.1954 7.56713 16.1728 7.38588C16.1274 7.21596 16.2577 7.14799 16.3823 6.9894C16.3823 6.87612 16.3823 6.80248 16.2294 6.88744H16.2351ZM17.5038 7.11401C17.4539 7.32026 17.4235 7.53076 17.4132 7.74272C17.3792 7.90131 17.5831 7.96928 17.6681 7.76537C17.804 7.39721 17.804 7.23862 17.8153 7.08569C17.7757 6.84213 17.6114 6.8478 17.5038 7.11401ZM25.5468 11.2091C25.5694 11.1808 26.6796 10.3935 26.6796 10.3935C26.7929 10.3538 26.7645 10.8013 26.7136 10.7956C26.3693 11.1275 25.9733 11.401 25.5411 11.6056C25.4845 11.6453 25.4335 11.3054 25.5411 11.2091H25.5468ZM26.5493 11.1978C26.7476 11.2941 26.8269 11.8662 26.8042 12.0191C26.8042 12.3249 26.6173 12.5628 26.538 12.5288C26.4587 12.4892 26.5493 12.1494 26.5097 12.0304C26.4644 11.8605 26.3001 11.549 26.3284 11.4583C26.2718 11.2658 26.4304 11.1638 26.555 11.1978H26.5493ZM19.979 13.656C20.0709 13.5488 20.1777 13.4553 20.2962 13.3785C20.4095 13.3218 20.5114 13.4238 20.5058 13.4181C20.5228 13.5314 20.4378 13.6277 20.4661 13.7749C20.4888 13.8316 20.5058 13.8996 20.6134 13.8769C20.789 13.7353 20.9532 13.724 21.1231 13.7183C21.2647 13.724 21.2704 13.9562 21.1798 13.9562C20.8569 14.0242 20.7153 14.1148 20.4831 14.1997C20.3698 14.2677 20.2792 14.1828 20.2792 14.1771C20.2792 14.1714 20.2169 14.1148 20.2565 13.9675C20.2679 13.8542 20.2226 13.7863 20.1206 13.7976C20.0526 13.8429 19.9847 13.8656 19.9507 13.7806C19.9337 13.724 19.928 13.69 19.979 13.656ZM27.7161 13.9619C27.7614 14.0185 27.7954 14.0751 27.7104 14.1771L27.5009 14.3583C27.4669 14.415 27.4442 14.5169 27.5575 14.5453C27.7614 14.6019 28.2372 14.2904 28.2372 14.2847C28.3165 14.2281 28.2938 14.1148 28.2825 14.1148C28.2372 14.0638 28.1353 14.0978 28.0673 14.0865C28.0333 14.0865 27.9257 14.0751 27.9767 13.9732C28.0147 13.9231 28.0452 13.8678 28.0673 13.8089C28.0956 13.741 28.0673 13.6956 27.954 13.656C27.8351 13.6333 27.7841 13.6447 27.6538 13.656C27.5858 13.6673 27.5632 13.7013 27.5462 13.7863C27.5519 13.9165 27.6311 13.9109 27.7161 13.9562V13.9619Z" fill="white"/>
<path fill-rule="evenodd" clip-rule="evenodd" d="M20.0187 10.7447C19.9903 10.8014 19.8884 10.8014 19.7921 10.7447C19.6958 10.6881 19.6392 10.5975 19.6731 10.5465C19.7071 10.4955 19.8034 10.4955 19.8997 10.5465C19.996 10.5975 20.047 10.6938 20.0187 10.7447ZM14.9776 7.7088C14.921 7.72579 14.8417 7.67481 14.8077 7.59552C14.7737 7.51622 14.7907 7.44825 14.8474 7.43126C14.904 7.41426 14.9776 7.47091 15.0173 7.54454C15.0569 7.61817 15.0343 7.69747 14.972 7.71446L14.9776 7.7088Z" fill="#259F00"/>
<path fill-rule="evenodd" clip-rule="evenodd" d="M24.9519 21.2402C25.4843 21.2629 25.9827 21.2402 26.5095 21.2686C26.6058 21.3535 26.5378 21.5518 26.4755 21.5404L26.0337 21.5234C26.028 21.3535 25.5976 21.3818 25.6089 21.5291C25.3767 21.5574 25.1671 21.5234 24.9292 21.5121C24.8612 21.4271 24.8726 21.2742 24.9519 21.2402Z" fill="#209000"/>
</g>
<defs>
<clipPath id="clip0_59_1063">
<rect width="38.6667" height="29" rx="4" fill="white"/>
</clipPath>
</defs>
</svg>
