<svg width="18" height="18" viewBox="0 0 18 18" fill="none" xmlns="http://www.w3.org/2000/svg">
<g clip-path="url(#clip0_12_9777)">
<path d="M9.84015 12.767L6.6909 11.0495C6.27975 11.4891 5.74589 11.7948 5.15871 11.927C4.57153 12.0591 3.95817 12.0116 3.39835 11.7906C2.83852 11.5695 2.35812 11.1853 2.01958 10.6876C1.68104 10.19 1.5 9.60203 1.5 9.00016C1.5 8.39829 1.68104 7.81033 2.01958 7.3127C2.35812 6.81507 2.83852 6.43078 3.39835 6.20976C3.95817 5.98874 4.57153 5.94122 5.15871 6.07337C5.74589 6.20552 6.27975 6.51124 6.6909 6.95079L9.8409 5.23329C9.66207 4.52534 9.74757 3.77648 10.0814 3.12706C10.4152 2.47765 10.9744 1.97227 11.6542 1.70566C12.3339 1.43905 13.0876 1.42952 13.7739 1.67884C14.4602 1.92816 15.032 2.41922 15.3821 3.05998C15.7323 3.70074 15.8367 4.4472 15.6758 5.15945C15.515 5.87169 15.0999 6.50081 14.5083 6.92889C13.9168 7.35697 13.1894 7.55462 12.4626 7.48478C11.7358 7.41494 11.0594 7.08242 10.5602 6.54954L7.41015 8.26704C7.53106 8.74806 7.53106 9.25152 7.41015 9.73254L10.5594 11.45C11.0586 10.9172 11.735 10.5846 12.4619 10.5148C13.1887 10.445 13.916 10.6426 14.5076 11.0707C15.0991 11.4988 15.5142 12.1279 15.6751 12.8401C15.8359 13.5524 15.7315 14.2988 15.3814 14.9396C15.0312 15.5803 14.4594 16.0714 13.7731 16.3207C13.0868 16.5701 12.3332 16.5605 11.6534 16.2939C10.9736 16.0273 10.4144 15.5219 10.0806 14.8725C9.74682 14.2231 9.66132 13.4742 9.84015 12.7663V12.767ZM4.50015 10.4998C4.89798 10.4998 5.27951 10.3418 5.56081 10.0604C5.84212 9.77914 6.00015 9.39761 6.00015 8.99979C6.00015 8.60196 5.84212 8.22043 5.56081 7.93913C5.27951 7.65782 4.89798 7.49979 4.50015 7.49979C4.10233 7.49979 3.7208 7.65782 3.43949 7.93913C3.15819 8.22043 3.00015 8.60196 3.00015 8.99979C3.00015 9.39761 3.15819 9.77914 3.43949 10.0604C3.7208 10.3418 4.10233 10.4998 4.50015 10.4998ZM12.7502 5.99979C13.148 5.99979 13.5295 5.84175 13.8108 5.56045C14.0921 5.27914 14.2502 4.89761 14.2502 4.49979C14.2502 4.10196 14.0921 3.72043 13.8108 3.43913C13.5295 3.15782 13.148 2.99979 12.7502 2.99979C12.3523 2.99979 11.9708 3.15782 11.6895 3.43913C11.4082 3.72043 11.2502 4.10196 11.2502 4.49979C11.2502 4.89761 11.4082 5.27914 11.6895 5.56045C11.9708 5.84175 12.3523 5.99979 12.7502 5.99979ZM12.7502 14.9998C13.148 14.9998 13.5295 14.8418 13.8108 14.5604C14.0921 14.2791 14.2502 13.8976 14.2502 13.4998C14.2502 13.102 14.0921 12.7204 13.8108 12.4391C13.5295 12.1578 13.148 11.9998 12.7502 11.9998C12.3523 11.9998 11.9708 12.1578 11.6895 12.4391C11.4082 12.7204 11.2502 13.102 11.2502 13.4998C11.2502 13.8976 11.4082 14.2791 11.6895 14.5604C11.9708 14.8418 12.3523 14.9998 12.7502 14.9998Z" fill="#707070"/>
</g>
<defs>
<clipPath id="clip0_12_9777">
<rect width="18" height="18" fill="white"/>
</clipPath>
</defs>
</svg>
