<svg width="18" height="18" viewBox="0 0 18 18" fill="none" xmlns="http://www.w3.org/2000/svg">
<path d="M9.83991 12.767L6.69066 11.0495C6.27951 11.4891 5.74565 11.7948 5.15846 11.927C4.57128 12.0591 3.95792 12.0116 3.3981 11.7906C2.83828 11.5695 2.35788 11.1853 2.01934 10.6876C1.68079 10.19 1.49976 9.60203 1.49976 9.00016C1.49976 8.39829 1.68079 7.81033 2.01934 7.3127C2.35788 6.81507 2.83828 6.43078 3.3981 6.20976C3.95792 5.98874 4.57128 5.94122 5.15846 6.07337C5.74565 6.20552 6.27951 6.51124 6.69066 6.95079L9.84066 5.23329C9.66183 4.52534 9.74733 3.77648 10.0811 3.12706C10.4149 2.47765 10.9741 1.97227 11.6539 1.70566C12.3337 1.43905 13.0873 1.42952 13.7736 1.67884C14.4599 1.92816 15.0318 2.41922 15.3819 3.05998C15.732 3.70074 15.8364 4.4472 15.6756 5.15945C15.5147 5.87169 15.0996 6.50081 14.5081 6.92889C13.9166 7.35697 13.1892 7.55462 12.4624 7.48478C11.7355 7.41494 11.0591 7.08242 10.5599 6.54954L7.40991 8.26704C7.53081 8.74806 7.53081 9.25152 7.40991 9.73254L10.5592 11.45C11.0584 10.9172 11.7348 10.5846 12.4616 10.5148C13.1884 10.445 13.9158 10.6426 14.5073 11.0707C15.0989 11.4988 15.514 12.1279 15.6748 12.8401C15.8357 13.5524 15.7313 14.2988 15.3811 14.9396C15.031 15.5803 14.4592 16.0714 13.7729 16.3207C13.0866 16.5701 12.3329 16.5605 11.6532 16.2939C10.9734 16.0273 10.4142 15.5219 10.0804 14.8725C9.74658 14.2231 9.66108 13.4742 9.83991 12.7663V12.767ZM4.49991 10.4998C4.89774 10.4998 5.27927 10.3418 5.56057 10.0604C5.84188 9.77914 5.99991 9.39761 5.99991 8.99979C5.99991 8.60196 5.84188 8.22043 5.56057 7.93913C5.27927 7.65782 4.89774 7.49979 4.49991 7.49979C4.10209 7.49979 3.72055 7.65782 3.43925 7.93913C3.15795 8.22043 2.99991 8.60196 2.99991 8.99979C2.99991 9.39761 3.15795 9.77914 3.43925 10.0604C3.72055 10.3418 4.10209 10.4998 4.49991 10.4998ZM12.7499 5.99979C13.1477 5.99979 13.5293 5.84175 13.8106 5.56045C14.0919 5.27914 14.2499 4.89761 14.2499 4.49979C14.2499 4.10196 14.0919 3.72043 13.8106 3.43913C13.5293 3.15782 13.1477 2.99979 12.7499 2.99979C12.3521 2.99979 11.9706 3.15782 11.6893 3.43913C11.4079 3.72043 11.2499 4.10196 11.2499 4.49979C11.2499 4.89761 11.4079 5.27914 11.6893 5.56045C11.9706 5.84175 12.3521 5.99979 12.7499 5.99979ZM12.7499 14.9998C13.1477 14.9998 13.5293 14.8418 13.8106 14.5604C14.0919 14.2791 14.2499 13.8976 14.2499 13.4998C14.2499 13.102 14.0919 12.7204 13.8106 12.4391C13.5293 12.1578 13.1477 11.9998 12.7499 11.9998C12.3521 11.9998 11.9706 12.1578 11.6893 12.4391C11.4079 12.7204 11.2499 13.102 11.2499 13.4998C11.2499 13.8976 11.4079 14.2791 11.6893 14.5604C11.9706 14.8418 12.3521 14.9998 12.7499 14.9998Z" fill="white"/>
</svg>
