<svg width="24" height="24" viewBox="0 0 24 24" fill="none" xmlns="http://www.w3.org/2000/svg">
<g clip-path="url(#clip0_12_9967)">
<path d="M19.6236 18.8071C17.586 16.0916 15.5484 13.376 13.5126 10.6589C13.2149 10.975 12.9187 11.2892 12.6228 11.6053C14.6147 14.2624 16.6084 16.9195 18.6003 19.5747C18.6367 19.6242 18.6734 19.6715 18.7098 19.7209H16.1367L11.2448 13.0745C10.947 13.3906 10.649 13.7086 10.3531 14.0247C11.5282 15.6183 12.7012 17.2135 13.8745 18.8071C14.4137 19.538 14.951 20.2691 15.4899 21H21.2683C20.7182 20.2691 20.17 19.538 19.6236 18.8071ZM4.76855 4.27907H7.12788L9.11602 6.92868C10.0171 8.12934 10.9178 9.33156 11.8188 10.5322C12.115 10.2161 12.4109 9.90187 12.7071 9.58576C11.0603 7.39134 9.41377 5.1966 7.76726 3H2.23779C3.7947 5.11602 5.35162 7.23048 6.90853 9.3465C7.79308 10.5453 8.67576 11.7441 9.55814 12.9429C9.85403 12.6268 10.1502 12.3107 10.448 11.9946L4.76855 4.27907Z" fill="#5C5C5C"/>
<path d="M11.245 13.0741C10.9473 13.3902 10.6492 13.7082 10.3533 14.0243C8.85676 15.6179 7.35989 17.2131 5.86334 18.8067C5.17792 19.5376 4.4928 20.2687 3.80582 20.9996H2C2.68543 20.2687 3.37054 19.5376 4.05753 18.8067C5.00959 17.7906 5.96353 16.7747 6.9156 15.7585C7.79642 14.8192 8.67723 13.8818 9.55805 12.9425C9.85394 12.6264 10.1501 12.3103 10.4479 11.9941L11.2447 13.0741H11.245Z" fill="white"/>
<path d="M20.6998 3C18.3041 5.55285 15.9084 8.1057 13.5127 10.6585C13.2149 10.9747 12.9187 11.2889 12.6228 11.605C12.3559 11.2488 12.0874 10.8907 11.8188 10.5322C12.115 10.2161 12.4109 9.90187 12.7071 9.58576C14.7665 7.39134 16.8259 5.19473 18.8853 3H20.6998Z" fill="#5C5C5C"/>
</g>
<defs>
<clipPath id="clip0_12_9967">
<rect width="19.2682" height="18" fill="white" transform="translate(2 3)"/>
</clipPath>
</defs>
</svg>
