<svg width="18" height="19" viewBox="0 0 18 19" fill="none" xmlns="http://www.w3.org/2000/svg">
<g clip-path="url(#clip0_12_8884)">
<path d="M3.75 15.5H14.25V17H3.75V15.5ZM9 14C7.4087 14 5.88258 13.3679 4.75736 12.2426C3.63214 11.1174 3 9.5913 3 8C3 6.4087 3.63214 4.88258 4.75736 3.75736C5.88258 2.63214 7.4087 2 9 2C10.5913 2 12.1174 2.63214 13.2426 3.75736C14.3679 4.88258 15 6.4087 15 8C15 9.5913 14.3679 11.1174 13.2426 12.2426C12.1174 13.3679 10.5913 14 9 14ZM9 12.5C10.1935 12.5 11.3381 12.0259 12.182 11.182C13.0259 10.3381 13.5 9.19347 13.5 8C13.5 6.80653 13.0259 5.66193 12.182 4.81802C11.3381 3.97411 10.1935 3.5 9 3.5C7.80653 3.5 6.66193 3.97411 5.81802 4.81802C4.97411 5.66193 4.5 6.80653 4.5 8C4.5 9.19347 4.97411 10.3381 5.81802 11.182C6.66193 12.0259 7.80653 12.5 9 12.5Z" fill="white"/>
</g>
<defs>
<clipPath id="clip0_12_8884">
<rect width="18" height="18" fill="white" transform="translate(0 0.5)"/>
</clipPath>
</defs>
</svg>
