<svg width="20" height="20" viewBox="0 0 20 20" fill="none" xmlns="http://www.w3.org/2000/svg">
<g clip-path="url(#clip0_1_18396)">
<path d="M3.33333 16.6665V11.6665C3.33333 9.89839 4.03571 8.2027 5.28595 6.95246C6.53619 5.70222 8.23189 4.99984 10 4.99984C11.7681 4.99984 13.4638 5.70222 14.714 6.95246C15.9643 8.2027 16.6667 9.89839 16.6667 11.6665V16.6665H17.5V18.3332H2.5V16.6665H3.33333ZM5 11.6665H6.66666C6.66666 10.7824 7.01785 9.9346 7.64297 9.30948C8.2681 8.68436 9.11594 8.33317 10 8.33317V6.6665C8.67391 6.6665 7.40214 7.19329 6.46446 8.13097C5.52678 9.06865 5 10.3404 5 11.6665ZM9.16666 1.6665H10.8333V4.1665H9.16666V1.6665ZM16.4817 4.0065L17.66 5.18484L15.8933 6.95234L14.7142 5.774L16.4817 4.0065ZM2.34 5.18484L3.51833 4.0065L5.28583 5.77317L4.10833 6.95317L2.34 5.18484Z" fill="#AD1519"/>
</g>
<defs>
<clipPath id="clip0_1_18396">
<rect width="20" height="20" fill="white"/>
</clipPath>
</defs>
</svg>
