<svg width="2692" height="4000" viewBox="0 0 2692 4000" fill="none" xmlns="http://www.w3.org/2000/svg">
<g clip-path="url(#clip0_17_178)">
<rect width="2692" height="4000" fill="#141414"/>
<path d="M-3579.26 3849.69C-3164.63 3572.46 -2921.88 3286.76 -2776.29 3075.19C-2629.06 2861.23 -2544.17 2668.97 -2309.65 2460.97C-2051.26 2231.07 -1841.93 2153.98 -1756.38 2128.45C-1637.75 2093.1 -1635.57 2112.55 -1432.7 2070.61C-1042.98 1990.08 -1005.37 1909.03 -818.433 1895.18C-508.498 1872.2 -486.467 2085.67 -122.114 2134.14C141.767 2169.29 512.564 2108.17 750.256 1876.46C974.079 1658.25 903.466 1460.77 1166.74 1281.35C1274.88 1207.65 1382.67 1178.57 1598.17 1120.44C1874.19 1045.63 2078.13 1028.96 2157.8 1018.66C2393.87 988.27 2733 863.568 3158.84 429.425" stroke="url(#paint0_linear_17_178)" stroke-miterlimit="10"/>
<path d="M-3549.74 3909.87C-3146.56 3645.48 -2890.18 3366.55 -2728.35 3141.21C-2597.53 2956.99 -2513.56 2787.97 -2363.38 2617.23C-2330.51 2579.94 -2295.19 2541.89 -2255.49 2503.93C-2005.23 2264.83 -1806.08 2171.08 -1721.58 2134.42C-1608.29 2085.2 -1601.75 2097.02 -1403.17 2055.47C-1263.26 2026.12 -1166.49 2000.02 -1092.92 1977.31C-967.871 1938.66 -910.89 1909.18 -797.488 1905.27C-755.251 1903.68 -712.971 1906.95 -671.484 1915.03C-479.633 1952.35 -408.052 2094.72 -108.97 2122C151.371 2145.75 512.792 2072.56 745.998 1844.03C764.467 1825.91 782.007 1806.87 798.553 1786.98C965.462 1586.15 932.464 1413.82 1163.69 1255.8C1188.03 1239.11 1213.47 1224.06 1239.82 1210.76C1328.21 1165.79 1429.83 1137.78 1591.19 1094.21C1858.7 1022.37 2059.34 1005.7 2147.23 994.411C2211.49 985.948 2274.93 972.109 2336.87 953.038C2551.52 887.576 2825.28 741.482 3149.26 425.617" stroke="url(#paint1_linear_17_178)" stroke-miterlimit="10"/>
<path d="M-3517.36 3975.22C-3125.77 3723.59 -2854.94 3452.09 -2677.84 3211.87C-2537.17 3021.16 -2449.58 2843.8 -2304.73 2671.59C-2271.71 2632.21 -2237.27 2591.79 -2198.36 2551.93C-1956.27 2303.56 -1770.99 2187.13 -1683.75 2145.39C-1571.26 2091.76 -1564.72 2086.48 -1370.75 2045.4C-1234.88 2016.73 -1136.75 1993.87 -1062.71 1974.98C-938.066 1942.98 -882.522 1919.67 -773.874 1920.65C-732.369 1921.21 -691.025 1925.95 -650.469 1934.8C-463.471 1973.85 -384.707 2101.31 -92.7148 2115.16C164.051 2127.45 516.095 2042.18 744.814 1816.84C764.041 1797.51 781.541 1779.14 796.979 1760.18C969.747 1554.11 941.297 1388.1 1164 1235.84C1188.11 1219.21 1213.29 1204.18 1239.39 1190.87C1328.98 1144.62 1430.13 1116.09 1587.86 1074.1C1846.79 1004.93 2044.11 988.543 2139.91 975.561C2203.64 967.143 2266.6 953.623 2328.17 935.129C2541.61 871.553 2816.63 730.739 3142.58 427.326" stroke="url(#paint2_linear_17_178)" stroke-miterlimit="10"/>
<path d="M-3482.52 4044.85C-3102.37 3806.24 -2817.77 3541.43 -2624.68 3287.15C-2474.73 3089.55 -2383.13 2904.07 -2243.78 2730.4C-2210.54 2688.91 -2176.88 2646.14 -2138.93 2604.39C-1904.95 2346.88 -1726.51 2221.22 -1643.66 2160.75C-1541.13 2086 -1525.44 2080.34 -1336 2039.69C-1204.12 2011.49 -1104.6 1991.93 -1029.76 1976.68C-905.612 1951.29 -851.3 1934.21 -747.442 1940.02C-706.893 1942.91 -666.659 1949.21 -627.168 1958.85C-445.06 1999.57 -358.751 2111.83 -74.4161 2112.49C179.039 2113.16 521.478 2016.04 745.675 1793.8C764.702 1774.58 782.07 1756.29 797.485 1737.6C975.796 1526.03 952.24 1366.51 1165.92 1219.42C1189.82 1202.82 1214.77 1187.81 1240.63 1174.48C1331.39 1126.89 1432.42 1097.82 1586.12 1057.19C1836.3 990.699 2030.4 974.446 2134.34 960.339C2197.58 951.786 2260.1 938.527 2321.37 920.673C2533.6 858.982 2809.94 723.514 3137.73 432.525" stroke="url(#paint3_linear_17_178)" stroke-miterlimit="10"/>
<path d="M-3447.67 4114.65C-3078.97 3888.89 -2780.66 3630.97 -2571.56 3362.53C-2412.28 3157.95 -2316.78 2964.32 -2182.72 2789.24C-2149.34 2745.67 -2116.56 2700.53 -2079.41 2656.87C-1853.41 2390.43 -1685.7 2249.46 -1603.39 2176.28C-1506.15 2089.79 -1486.24 2074.51 -1301.07 2034.14C-1172.81 2006.47 -1072.4 1990.23 -997 1978.49C-873.393 1959.64 -820.305 1948.97 -721.207 1959.5C-681.693 1964.69 -642.57 1972.53 -604.102 1982.95C-426.89 2025.16 -332.999 2122.29 -56.035 2110.11C194.073 2099.1 526.877 1990.23 746.655 1771.13C765.416 1752.06 782.651 1733.84 798.073 1715.32C982.03 1498.28 963.603 1345.99 1168.11 1203.63C1191.85 1187.17 1216.57 1172.17 1242.14 1158.72C1333.97 1109.93 1434.44 1080.48 1584.65 1040.91C1826.28 977.16 2017.14 961.146 2129.1 945.715C2191.86 937.17 2253.94 924.205 2314.88 906.917C2526 847.141 2803.58 716.887 3133.36 438.417" stroke="url(#paint4_linear_17_178)" stroke-miterlimit="10"/>
<path d="M-3426.11 4160.14C-3068.86 3947.23 -2756.74 3696.24 -2531.69 3413.67C-2363.2 3202.08 -2263.84 3000.06 -2134.93 2823.84C-2101.49 2778.16 -2069.32 2730.84 -2033.13 2685.12C-1815.25 2409.81 -1657.9 2253.76 -1576.65 2167.54C-1484.37 2069.74 -1460.15 2044.09 -1279.67 2004.32C-1179.96 1982.46 -1079.04 1966.48 -977.446 1956.46C-854.216 1943.98 -802.411 1939.93 -708.457 1954.95C-667.376 1961.6 -631.395 1972.99 -593.922 1982.69C-421.754 2026.13 -319.957 2108.56 -50.7469 2083.32C196.176 2060.46 519.249 1939.97 734.541 1724.05C753.104 1705.09 770.206 1686.94 785.569 1668.63C975.348 1446.28 961.425 1300.08 1157.27 1163.39C1180.8 1147.03 1205.29 1132.08 1230.59 1118.61C1323.7 1068.68 1423.63 1038.57 1569.78 1000.13C1802.69 938.954 1990.43 923.276 2110.36 906.556C2172.67 897.979 2234.35 885.261 2294.98 868.487C2504.93 810.663 2783.75 685.791 3115.45 419.708" stroke="url(#paint5_linear_17_178)" stroke-miterlimit="10"/>
<path d="M-3411.8 4193.17C-3066.14 3993.01 -2740.24 3748.88 -2499.11 3452.28C-2321.4 3233.67 -2218.4 3023.21 -2094.23 2846.24C-2060.72 2798.35 -2029.32 2748.86 -1993.97 2701.16C-1783.76 2417.01 -1636.66 2245.9 -1556.61 2146.54C-1469.31 2037.88 -1441.02 2001.56 -1265.01 1962.19C-1166.39 1940.14 -1066.06 1926.53 -965.131 1921.53C-842.615 1915.43 -791.755 1917.97 -702.517 1937.95C-662.979 1946.67 -628.239 1960.05 -590.818 1970.12C-423.333 2015.29 -314.263 2081.72 -52.5349 2044.23C191.263 2009.3 504.612 1877.36 715.381 1664.56C733.678 1645.75 750.582 1627.71 766.018 1609.53C961.73 1382.08 952.621 1242.06 1139.61 1111.32C1162.93 1094.99 1187.18 1080.04 1212.25 1066.56C1306.44 1015.43 1406.03 984.725 1548.45 947.828C1772.74 889.432 1957.19 873.927 2085.29 855.979C2147.11 847.348 2208.34 834.901 2268.62 818.711C2477.46 762.803 2757.6 643.277 3091.18 389.514" stroke="url(#paint6_linear_17_178)" stroke-miterlimit="10"/>
<path d="M-3397.04 4226.55C-3062.82 4039.41 -2723.43 3801.95 -2466.08 3491.24C-2279.26 3265.59 -2172.73 3046.59 -2053.55 2868.47C-2020.03 2818.24 -1989.27 2766.49 -1954.74 2717C-1752.27 2424.2 -1615.14 2238.23 -1536.75 2125.39C-1453.55 2005.73 -1421.96 1958.9 -1250.49 1919.96C-1152.63 1897.99 -1052.61 1887.05 -952.306 1887.35C-830.713 1887.58 -780.583 1896.95 -696.253 1921.38C-658.421 1932.35 -624.899 1947.44 -587.486 1958.13C-424.875 2004.52 -308.039 2055.37 -53.9989 2005.57C186.666 1958.4 490.129 1815.2 696.25 1605.75C714.348 1587.05 731.118 1569.08 746.459 1551.04C947.847 1318.01 943.196 1184.64 1121.5 1058.88C1144.61 1042.66 1168.62 1027.74 1193.4 1014.19C1288.6 961.457 1387.92 930.559 1526.51 895.079C1742.15 839.224 1923.36 824.127 2059.51 804.752C2120.89 796.149 2181.72 784.006 2241.69 768.382C2449.21 714.16 2730.66 599.98 3066.2 358.839" stroke="url(#paint7_linear_17_178)" stroke-miterlimit="10"/>
<path d="M-3382.27 4260.1C-3059.5 4085.81 -2706.47 3855.11 -2433.03 3530.37C-2237.03 3297.64 -2127.04 3070.04 -2012.54 2891.13C-1979.04 2838.83 -1948.74 2784.99 -1915.39 2733.2C-1720.6 2431.73 -1593.31 2230.81 -1516.64 2104.53C-1437.63 1974 -1402.76 1916.51 -1235.75 1877.96C-1138.69 1856.06 -1039.07 1847.58 -939.703 1852.78C-818.463 1859.11 -769.661 1875.63 -690.239 1904.51C-654.009 1917.76 -621.646 1934.36 -584.308 1945.69C-426.534 1993.38 -302.175 2028.52 -55.7122 1966.6C181.843 1906.93 475.5 1752.76 677.298 1546.32C695.197 1527.73 711.834 1509.84 727.151 1492.07C934.539 1253.9 934.296 1126.75 1103.86 1006.36C1126.79 990.229 1150.57 975.322 1175.08 961.701C1271.34 907.594 1370.64 876.187 1505.22 842.067C1712.13 788.957 1890.2 774.129 2034.38 753.43C2095.31 744.899 2155.75 733.115 2215.42 718.128C2421.94 666.02 2704.56 556.92 3042.05 328.233" stroke="url(#paint8_linear_17_178)" stroke-miterlimit="10"/>
<path d="M-3367.58 4293.52C-3056.37 4131.88 -2689.6 3907.8 -2400.04 3569.1C-2194.63 3329.07 -2081.6 3093.02 -1971.58 2913.39C-1938.15 2858.77 -1908.37 2802.89 -1875.92 2749.17C-1688.76 2439.25 -1571.2 2223.43 -1496.5 2083.4C-1421.24 1942.19 -1383.43 1873.88 -1220.96 1835.76C-1124.52 1814.09 -1025.2 1808.24 -926.886 1818.44C-806.376 1830.81 -758.49 1854.6 -684.012 1887.87C-649.384 1903.4 -618.416 1921.55 -580.718 1933.38C-427.685 1982.22 -295.89 2001.18 -56.9179 1927.62C177.453 1855.31 461.312 1690.35 658.69 1487.04C676.324 1468.6 692.828 1450.78 708.337 1433.51C921.621 1190.17 925.852 1069.22 1086.61 954.398C1109.33 938.208 1132.92 923.284 1157.29 909.695C1254.91 854.749 1353.32 822.53 1484.24 789.312C1682.5 738.912 1857.35 724.39 2009.63 702.329C2064.67 694.398 2124.51 683.547 2189.33 667.593C2394.64 617.371 2678.57 513.617 3017.91 297.353" stroke="url(#paint9_linear_17_178)" stroke-miterlimit="10"/>
<path d="M-3353.4 4326.01C-3053.93 4177.47 -2673.47 3960.11 -2367.61 3607.44C-2153.39 3360.45 -2036.86 3115.52 -1931.22 2935.19C-1897.92 2878.31 -1868.57 2820.4 -1837.09 2764.62C-1657.28 2446.11 -1549.29 2215.37 -1476.99 2061.92C-1405.7 1909.64 -1364.79 1830.93 -1206.79 1793.2C-1110.87 1771.74 -1011.79 1768.41 -914.643 1783.37C-794.694 1801.78 -748.217 1833.21 -678.359 1870.51C-645.334 1888.31 -615.592 1908.02 -578.167 1920.6C-429.949 1970.46 -290.564 1973.67 -59.2953 1888.25C171.974 1802.82 445.982 1627.43 638.875 1427.31C656.309 1408.98 672.681 1391.23 688.057 1374.04C907.303 1125.48 916.009 1010.73 1068.2 901.264C1090.64 885.165 1113.95 870.31 1138.03 856.766C1236.91 800.34 1334.8 767.804 1461.71 736.283C1651.36 688.49 1822.97 674.377 1983.3 650.888C2038.07 642.935 2097.48 632.237 2161.82 616.983C2365.91 568.647 2651.12 470.173 2992.45 266.428" stroke="url(#paint10_linear_17_178)" stroke-miterlimit="10"/>
<path d="M-3339.37 4358.06C-3051.08 4222.4 -2657.46 4011.72 -2335.27 3645.14C-2111.6 3391.1 -1992.42 3137.32 -1891.01 2956.56C-1857.81 2897.3 -1828.85 2837.44 -1798.21 2779.52C-1625.93 2452.43 -1527.32 2206.93 -1457.72 2039.7C-1389.72 1876.93 -1346.1 1787 -1193.05 1750.02C-1091.43 1725.48 -983.525 1731.39 -902.9 1747.72C-783.518 1771.99 -737.781 1810.86 -673.139 1852.53C-641.849 1872.67 -613.267 1893.89 -575.88 1907.19C-432.484 1957.89 -285.892 1945.14 -62.0103 1848.11C165.685 1749.65 430.351 1563.82 618.758 1366.88C635.927 1348.69 652.166 1331.02 667.475 1313.86C892.581 1060.06 905.695 951.546 1049.01 847.686C1071.26 831.644 1094.34 816.8 1118.17 803.217C1217.95 745.428 1315.62 712.493 1439.08 682.104C1620.07 637.02 1788.26 623.323 1956.7 598.473C2011.15 590.431 2070.2 580.021 2133.92 565.37C2336.91 518.949 2623.39 425.755 2966.5 234.3" stroke="url(#paint11_linear_17_178)" stroke-miterlimit="10"/>
<path d="M-3325.64 4389.76C-3048.76 4267 -2642.38 4062.28 -2303.26 3682.42C-2071.42 3420.72 -1948.3 3158.7 -1851.1 2977.22C-1818.17 2915.6 -1789.36 2853.74 -1759.96 2793.9C-1594.73 2458.48 -1505.74 2197.66 -1438.52 2017.18C-1373.9 1843.61 -1328.07 1743.26 -1179 1706.32C-1081.16 1682.31 -972.183 1691.09 -890.907 1711.57C-772.092 1741.71 -727.861 1788.36 -667.736 1834.09C-637.982 1856.48 -610.764 1879.14 -573.349 1893.12C-434.591 1945.01 -280.851 1915.72 -64.091 1807.7C160.252 1695.83 415.355 1499.94 599.239 1306.11C616.255 1288.07 632.339 1270.48 647.491 1253.35C878.7 994.437 896.148 892.023 1030.73 793.696C1052.73 777.691 1075.57 762.869 1099.14 749.293C1200.02 690.201 1297.43 656.801 1417.07 627.66C1589.32 585.256 1754.61 572.123 1931.06 545.61C1985.28 537.612 2043.78 527.326 2107.06 513.272C2308.87 468.803 2596.63 380.888 2941.76 202.02" stroke="url(#paint12_linear_17_178)" stroke-miterlimit="10"/>
<path d="M-3312.15 4420.98C-3046.83 4311.05 -2626.75 4113.05 -2271.5 3719.22C-2030.49 3450.45 -1904.49 3179.37 -1811.34 2997.62C-1778.61 2933.77 -1750.22 2869.89 -1721.72 2807.95C-1563.68 2464.1 -1483.82 2188.04 -1419.69 1994.17C-1358.35 1809.66 -1310.19 1698.48 -1165.89 1662.18C-1071.8 1638.6 -961.644 1650.29 -879.776 1675.13C-761.396 1711.06 -718.597 1765.61 -663.224 1815.45C-635.368 1840.37 -609.015 1864.29 -571.74 1878.95C-437.236 1931.46 -272.7 1892.37 -66.8797 1766.64C149.504 1634.46 399.651 1435.41 579.116 1244.73C595.91 1226.8 611.839 1209.3 626.903 1192.22C864.501 928.555 885.893 831.851 1011.74 739.057C1033.55 723.126 1056.17 708.337 1079.51 694.749C1181.53 634.42 1278.81 600.312 1394.22 572.471C1557.73 533.255 1720.3 520.679 1904.56 492.443C1958.5 484.423 2016.61 474.358 2079.3 460.974C2280.01 418.42 2569.04 335.785 2916.06 169.406" stroke="url(#paint13_linear_17_178)" stroke-miterlimit="10"/>
<path d="M-3299.12 4452.03C-3045.32 4354.81 -2611.53 4163.7 -2240.2 3755.85C-1990 3479.99 -1861.49 3200.14 -1772.25 3017.61C-1739.58 2951.28 -1711.51 2885.58 -1684.26 2821.38C-1533.38 2468.83 -1462.91 2178.19 -1401.42 1970.61C-1343.03 1775.15 -1292.19 1653.45 -1152.32 1617.44C-1062.05 1594.33 -950.757 1608.86 -868.231 1638.02C-750.359 1679.61 -709.192 1742.18 -658.21 1795.84C-632.118 1823.21 -606.799 1848.4 -569.525 1863.84C-440.072 1917.42 -272.692 1855.58 -69.955 1725.23C146.518 1586.31 383.593 1370.56 558.572 1183.05C574.811 1165.38 591.05 1147.71 605.895 1130.81C849.352 861.897 875.249 771.289 992.401 684.094C1013.96 668.195 1036.33 653.427 1059.43 639.851C1162.54 578.218 1259.23 543.83 1371.16 517.223C1526.17 480.201 1685.07 467.746 1877.54 438.517C1931.29 430.437 1988.88 420.224 2051.37 407.732C2250.68 366.732 2541.24 289.672 2889.88 135.929" stroke="url(#paint14_linear_17_178)" stroke-miterlimit="10"/>
<path d="M-3285.68 4482.41C-3043.32 4398.21 -2596.03 4213.77 -2208.44 3791.87C-1948.8 3508.79 -1818.15 3219.95 -1732.83 3037.25C-1700.74 2968.63 -1672.48 2900.92 -1646.26 2834.86C-1501.62 2474.32 -1441.4 2167.83 -1383.19 1947.14C-1328.29 1740.52 -1275.3 1608.61 -1139.36 1572.87C-1052.91 1550.23 -940.342 1567.52 -857.261 1600.97C-739.611 1648.58 -700.428 1718.85 -653.763 1776.46C-629.599 1806.46 -605.217 1832.77 -568.047 1848.97C-443.18 1903.35 -269.175 1824.65 -73.3026 1683.79C139.236 1531.35 367.396 1305.61 537.786 1121.25C554.026 1103.58 569.8 1086.17 584.939 1069.8C834.322 795.609 864.413 711.005 972.896 629.306C994.461 613.462 1016.83 598.751 1039.93 585.233C1135.29 527.614 1239.46 486.029 1348.28 462.136C1494.64 427.824 1650.33 415.675 1850.9 385.085C1904.33 376.916 1961.56 367.16 2023.23 355.212C2310.79 298.064 2592.25 213.643 2863.8 103.094" stroke="url(#paint15_linear_17_178)" stroke-miterlimit="10"/>
<path d="M-3272.67 4512.77C-3041.76 4441.42 -2580.84 4263.74 -2177.16 3827.82C-1908.61 3537.8 -1775.14 3240.11 -1693.38 3056.61C-1330.72 2241.7 -1424.23 1607.73 -1126.12 1527.71C-1043.48 1505.53 -929.646 1525.59 -846.04 1563.43C-667.541 1644.15 -674.332 1784.12 -566.251 1833.57C-301.245 1954.86 252.724 1348.57 564.08 1007.87C867.641 675.641 859.053 627.56 1019.49 530.01C1299.45 359.568 1512.09 392.13 1995.02 301.948C2281.95 247.94 2563.87 170.122 2837.88 69.3006" stroke="url(#paint16_linear_17_178)" stroke-miterlimit="10"/>
<path d="M-3262.16 4531.76C-3023.49 4461.41 -2578.71 4285.9 -2192.88 3868.98C-1926.73 3580.9 -1803.88 3286.92 -1714.84 3092.27C-1358.87 2315.25 -1437.38 1730.76 -1146.67 1625.77C-1033.1 1584.72 -908.641 1559.59 -810.269 1572.25C-616.936 1597.2 -617.936 1715.84 -493.512 1752.5C-221.062 1832.88 303.942 1282.37 602.858 962.439C893.819 650.381 890.065 609.774 1067.22 520.316C1361.58 371.652 1560.14 394.754 2016.42 312.22C2301.07 260.684 2580.24 182.464 2850.23 78.5963" stroke="url(#paint17_linear_17_178)" stroke-miterlimit="10"/>
<path d="M-3251.2 4551.54C-2851.72 4436.84 -2491.11 4215.33 -2208.2 3910.87C-1944.41 3624.79 -1832.64 3334.6 -1735.89 3128.66C-1388.03 2388.84 -1452.19 1844.81 -1166.75 1724.52C-1021.89 1663.54 -891.305 1596.05 -774.058 1581.86C-573.035 1557.26 -564.212 1648.68 -420.334 1672.23C-145.548 1717.04 355.563 1216.9 642.107 917.705C919.869 626.146 920.648 592.311 1115.41 511.315C1422.68 383.44 1608.95 398.773 2038.25 323.29C2320.53 274.206 2596.88 195.624 2862.75 88.8361" stroke="url(#paint18_linear_17_178)" stroke-miterlimit="10"/>
<path d="M-3231.7 4586.73C-2842.01 4478.72 -2489.99 4264.55 -2214.92 3968.12C-1953.59 3684.01 -1852.84 3397.59 -1748.41 3180.45C-1410.34 2477.63 -1431.06 2019.21 -1178.37 1838.71C-1020.28 1725.8 -866.559 1651.06 -729.283 1606.77C-521.898 1539.78 -503.843 1598.06 -338.591 1607.25C-65.022 1622.46 416.218 1167.43 689.823 888.409C955.286 617.719 959.168 589.8 1172.04 517.687C1491.42 409.48 1666.16 418.097 2068.65 349.658C2348.64 303.109 2622.27 224.148 2884.01 114.368" stroke="url(#paint19_linear_17_178)" stroke-miterlimit="10"/>
<path d="M-3202.03 4640.3C-2822.15 4538.95 -2478.76 4332.07 -2211.63 4043.6C-1952.73 3761.37 -1863.07 3478.74 -1750.86 3250.43C-1423.37 2584.11 -1426.94 2161.04 -1179.84 1971.06C-996.244 1829.96 -844.907 1685.92 -674.499 1649.91C-440.016 1600.36 -430.16 1600.45 -246.84 1560.5C21.7766 1599.19 486.773 1135.98 747.681 877.268C1000.39 627.092 1007.4 604.986 1238.85 542.279C1569.52 452.721 1733.53 455.914 2109.06 394.254C2386.76 350.207 2657.68 270.832 2915.24 158.06" stroke="url(#paint20_linear_17_178)" stroke-miterlimit="10"/>
<path d="M-3140.68 4751.04C-2780.6 4663.02 -2454.38 4470.99 -2202.66 4198.88C-1948.52 3920.58 -1881.51 3645.3 -1753.36 3394.71C-1449.33 2800.21 -1423.05 2440.43 -1180.47 2240.11C-943.955 2044.8 -753.008 1886.27 -562.503 1740.57C-327.278 1560.64 -281.783 1556 -60.9089 1471.38C209.343 1468.39 629.698 1076.67 865.721 859.337C1092.92 650.19 1105.38 637.909 1374.79 595.815C1726.79 540.856 1870.75 536.506 2192.04 487.974C2465.16 448.897 2730.79 368.653 2979.87 249.974" stroke="url(#paint21_linear_17_178)" stroke-miterlimit="10"/>
<path d="M-3109.31 4807.67C-2822.54 4742.25 -2475.45 4581.48 -2197.46 4277.64C-1945.16 4001.84 -1890.24 3729.61 -1753.96 3468.01C-1462.67 2908.94 -1422.26 2578.89 -1180.17 2375.81C-916.188 2154.44 -712.055 1967.87 -505.814 1786.99C-258.86 1570.28 -221.43 1493.76 32.7482 1427.92C296.099 1359.69 701.988 1048.51 925.351 851.552C1139.75 662.852 1154.85 655.013 1443.33 623.697C1806.1 584.725 1940.11 578.248 2234.62 535.705C2417.69 509.252 2687.49 457.833 3013.27 296.802" stroke="url(#paint22_linear_17_178)" stroke-miterlimit="10"/>
<path d="M-3077.39 4865.3C-2782.67 4800.59 -2451.92 4642.28 -2191.82 4357.37C-1941.87 4083.57 -1898.71 3814.73 -1754.05 3542.25C-1476.05 3018.38 -1422.54 2717.78 -1179.29 2512.41C-887.295 2265.8 -669.77 2050.47 -448.676 1834.38C-189.153 1580.69 -148.192 1474.36 126.853 1385.42C389.141 1300.86 774.433 1020.79 985.563 844.66C1187.31 676.334 1204.92 671.785 1512.49 652.538C1885.77 629.089 2010.01 621.258 2277.38 584.55C2458.48 559.708 2724.9 510.166 3046.89 344.81" stroke="url(#paint23_linear_17_178)" stroke-miterlimit="10"/>
<path d="M-3045.1 4923.59C-2742.05 4859.82 -2428.02 4703.74 -2185.77 4437.83C-1938.18 4166.03 -1906.94 3900.58 -1753.74 3617.21C-1489.45 3128.27 -1422.79 2856.74 -1178.07 2649.77C-857.327 2378.48 -626.637 2133.82 -391.134 1882.5C-118.473 1591.6 -73.6369 1457.18 221.364 1343.65C483.103 1242.91 847.466 994.126 1046.11 838.535C1234.73 690.671 1255.35 689.222 1581.99 682.147C1966.03 673.734 2080.35 665.234 2320.54 634.125C2499.78 610.925 2762.83 563.597 3080.88 393.482" stroke="url(#paint24_linear_17_178)" stroke-miterlimit="10"/>
<path d="M-3012.33 4982.74C-2701.68 4919.71 -2403.62 4765.96 -2179.27 4519.09C-1934.09 4249.22 -1915 3987.04 -1752.99 3692.97C-1502.85 3238.76 -1445.5 2966.4 -1176.34 2787.89C-794.772 2534.78 -582.828 2217.91 -333.15 1931.41C-47.0496 1603.22 -20.6446 1367.87 316.315 1302.68C597.923 1248.45 920.454 968.01 1107.17 833.169C1282.89 705.893 1306.28 707.079 1651.97 712.448C2046.81 718.696 2151.15 710.346 2364.15 684.497C2541.49 663.041 2801.19 617.655 3115.35 443.017" stroke="url(#paint25_linear_17_178)" stroke-miterlimit="10"/>
<path d="M-2978.5 5043.82C-2659.82 4981.64 -2378.29 4830.02 -2171.43 4602.63C-1928.71 4334.74 -1922.06 4075.63 -1750.94 3771.05C-1515.02 3351.18 -1441.87 3112.5 -1173.4 2928.38C-764.782 2647.97 -537.429 2304.25 -273.812 1982.61C25.9934 1616.98 55.5515 1365.4 412.621 1263.99C695.875 1183.6 995.452 944.424 1169.45 830.164C1332.24 723.239 1358.89 726.7 1723.19 745.176C2129.07 765.701 2223.35 757.981 2409.11 737.155C2584.53 717.547 2840.8 673.97 3151.13 494.772" stroke="url(#paint26_linear_17_178)" stroke-miterlimit="10"/>
<path d="M-2942.53 5108.74C-2615.9 5047.45 -2350.74 4898.22 -2161.92 4689.34C-1921.6 4423.38 -1927.74 4167.19 -1747.17 3852.25C-1526.3 3466.92 -1436.59 3261.75 -1168.66 3071.94C-733.233 2763.5 -490.132 2393.7 -212.776 2037.04C100.957 1633.59 137.158 1368.78 510.624 1228.53C794.604 1121.88 1071.66 923.81 1233.52 830.242C1383.21 743.677 1413.27 749.235 1796.22 780.988C2213.18 815.584 2297.56 808.928 2455.77 793.037C2629.37 775.476 2882.51 733.289 3188.62 549.75" stroke="url(#paint27_linear_17_178)" stroke-miterlimit="10"/>
<path d="M-2905.94 5174.8C-2571.29 5114.36 -2322.58 4967.39 -2151.57 4777.56C-1913.69 4513.47 -1933.03 4259.91 -1742.56 3934.98C-1536.72 3583.75 -1430.73 3412.5 -1163.14 3217.07C-701.575 2880.01 -441.893 2484.54 -150.931 2092.93C177.163 1651.5 222.644 1375.56 609.437 1194.53C893.293 1061.66 1148.67 904.488 1298.38 831.884C1434.82 765.582 1468.56 772.921 1870.02 818.364C2298.44 866.744 2372.24 862.301 2503.28 850.446C2675.04 835.205 2924.37 794.605 3226.95 606.256" stroke="url(#paint28_linear_17_178)" stroke-miterlimit="10"/>
<path d="M-2866.11 5246.7C-2523.48 5187.04 -2291.6 5042.11 -2138.02 4871.57C-1903.1 4608.86 -1935.74 4358.07 -1734.74 4023.48C-1544.18 3706.23 -1421.77 3569.01 -1154.35 3367.94C-667.284 3001.74 -390.285 2581.15 -86.1518 2154.73C255.773 1675.62 330.882 1416.68 711.184 1166.45C982.218 988.195 1228.55 891.125 1366.23 839.413C1489.56 793.13 1527.05 802.383 1946.79 861.559C2386.76 923.753 2449.91 921.221 2553.64 913.645C2723.62 901.299 2969.49 861.491 3268.17 668.618" stroke="url(#paint29_linear_17_178)" stroke-miterlimit="10"/>
<path d="M-2826.68 5317.87C-2476.1 5259.1 -2260.57 5116.45 -2124.77 4964.87C-1892.31 4704.14 -1939.63 4455.05 -1727.29 4111.33C-1552.19 3827.88 -1413.35 3724.85 -1146 3518.18C-633.824 3122.28 -339.014 2676.99 -21.1052 2215.61C335.175 1698.36 418.368 1416.89 813.198 1137.44C1087.51 943.49 1308.58 876.296 1434.18 846.02C1544.42 819.654 1585.79 830.577 2023.69 903.9C2475.44 979.524 2527.8 979.758 2604.31 975.981C2772.53 967.651 3014.78 927.418 3309.63 729.986" stroke="url(#paint30_linear_17_178)" stroke-miterlimit="10"/>
<path d="M-2787.22 5389.1C-2428.86 5331.23 -2229.1 5190.64 -2111.58 5058.21C-1881.79 4799.56 -1944.57 4551.23 -1719.84 4199.17C-1560.34 3949.26 -1405 3880.73 -1137.58 3668.39C-600.998 3242.31 -287.826 2772.53 43.5716 2276.61C414.243 1721.28 505.905 1416.73 914.842 1108.55C1193.67 898.476 1388.35 861.171 1501.93 852.737C1598.85 845.55 1644.16 858.889 2100.39 946.351C2564.02 1035.44 2605.37 1038.82 2654.61 1038.44C2821.12 1037.21 3059.76 993.597 3350.79 791.603" stroke="url(#paint31_linear_17_178)" stroke-miterlimit="10"/>
</g>
<defs>
<linearGradient id="paint0_linear_17_178" x1="-589.785" y1="1454.35" x2="-82.308" y2="2370.45" gradientUnits="userSpaceOnUse">
<stop stop-color="#1F1F1F" stop-opacity="0.2"/>
<stop offset="0.525" stop-color="#292929"/>
</linearGradient>
<linearGradient id="paint1_linear_17_178" x1="-574.866" y1="1491.46" x2="-100.438" y2="2347.9" gradientUnits="userSpaceOnUse">
<stop stop-color="#1F1F1F" stop-opacity="0.2"/>
<stop offset="0.525" stop-color="#292929"/>
</linearGradient>
<linearGradient id="paint2_linear_17_178" x1="-563.015" y1="1523.19" x2="-115.529" y2="2330.99" gradientUnits="userSpaceOnUse">
<stop stop-color="#1F1F1F" stop-opacity="0.2"/>
<stop offset="0.525" stop-color="#292929"/>
</linearGradient>
<linearGradient id="paint3_linear_17_178" x1="-554.912" y1="1548.16" x2="-126.766" y2="2321.05" gradientUnits="userSpaceOnUse">
<stop stop-color="#1F1F1F" stop-opacity="0.2"/>
<stop offset="0.525" stop-color="#292929"/>
</linearGradient>
<linearGradient id="paint4_linear_17_178" x1="-549.135" y1="1568.92" x2="-136.111" y2="2314.51" gradientUnits="userSpaceOnUse">
<stop stop-color="#1F1F1F" stop-opacity="0.2"/>
<stop offset="0.525" stop-color="#292929"/>
</linearGradient>
<linearGradient id="paint5_linear_17_178" x1="-557.709" y1="1563.55" x2="-130.597" y2="2334.57" gradientUnits="userSpaceOnUse">
<stop stop-color="#1F1F1F" stop-opacity="0.2"/>
<stop offset="0.525" stop-color="#292929"/>
</linearGradient>
<linearGradient id="paint6_linear_17_178" x1="-573.841" y1="1544.84" x2="-117.653" y2="2368.35" gradientUnits="userSpaceOnUse">
<stop stop-color="#1F1F1F" stop-opacity="0.2"/>
<stop offset="0.525" stop-color="#292929"/>
</linearGradient>
<linearGradient id="paint7_linear_17_178" x1="-590.603" y1="1525.16" x2="-104.519" y2="2402.63" gradientUnits="userSpaceOnUse">
<stop stop-color="#1F1F1F" stop-opacity="0.2"/>
<stop offset="0.525" stop-color="#292929"/>
</linearGradient>
<linearGradient id="paint8_linear_17_178" x1="-607.327" y1="1504.91" x2="-90.888" y2="2437.19" gradientUnits="userSpaceOnUse">
<stop stop-color="#1F1F1F" stop-opacity="0.2"/>
<stop offset="0.525" stop-color="#292929"/>
</linearGradient>
<linearGradient id="paint9_linear_17_178" x1="-624.342" y1="1483.99" x2="-76.5957" y2="2472.77" gradientUnits="userSpaceOnUse">
<stop stop-color="#1F1F1F" stop-opacity="0.2"/>
<stop offset="0.525" stop-color="#292929"/>
</linearGradient>
<linearGradient id="paint10_linear_17_178" x1="-642.428" y1="1462.3" x2="-62.4305" y2="2509.31" gradientUnits="userSpaceOnUse">
<stop stop-color="#1F1F1F" stop-opacity="0.2"/>
<stop offset="0.525" stop-color="#292929"/>
</linearGradient>
<linearGradient id="paint11_linear_17_178" x1="-660.938" y1="1439.61" x2="-47.5559" y2="2546.89" gradientUnits="userSpaceOnUse">
<stop stop-color="#1F1F1F" stop-opacity="0.2"/>
<stop offset="0.525" stop-color="#292929"/>
</linearGradient>
<linearGradient id="paint12_linear_17_178" x1="-679.286" y1="1416.12" x2="-31.8446" y2="2584.88" gradientUnits="userSpaceOnUse">
<stop stop-color="#1F1F1F" stop-opacity="0.2"/>
<stop offset="0.525" stop-color="#292929"/>
</linearGradient>
<linearGradient id="paint13_linear_17_178" x1="-698.493" y1="1391.79" x2="-16.0416" y2="2623.75" gradientUnits="userSpaceOnUse">
<stop stop-color="#1F1F1F" stop-opacity="0.2"/>
<stop offset="0.525" stop-color="#292929"/>
</linearGradient>
<linearGradient id="paint14_linear_17_178" x1="-718.078" y1="1367.09" x2="-0.0669529" y2="2663.24" gradientUnits="userSpaceOnUse">
<stop stop-color="#1F1F1F" stop-opacity="0.2"/>
<stop offset="0.525" stop-color="#292929"/>
</linearGradient>
<linearGradient id="paint15_linear_17_178" x1="-737.671" y1="1341.9" x2="16.3891" y2="2703.12" gradientUnits="userSpaceOnUse">
<stop stop-color="#1F1F1F" stop-opacity="0.2"/>
<stop offset="0.525" stop-color="#292929"/>
</linearGradient>
<linearGradient id="paint16_linear_17_178" x1="-757.388" y1="1316.25" x2="33.1278" y2="2743.29" gradientUnits="userSpaceOnUse">
<stop stop-color="#1F1F1F" stop-opacity="0.2"/>
<stop offset="0.525" stop-color="#292929"/>
</linearGradient>
<linearGradient id="paint17_linear_17_178" x1="-716.324" y1="1383.88" x2="47.413" y2="2762.57" gradientUnits="userSpaceOnUse">
<stop stop-color="#1F1F1F" stop-opacity="0.2"/>
<stop offset="0.525" stop-color="#292929"/>
</linearGradient>
<linearGradient id="paint18_linear_17_178" x1="-675.821" y1="1450.81" x2="62.0069" y2="2782.73" gradientUnits="userSpaceOnUse">
<stop stop-color="#1F1F1F" stop-opacity="0.2"/>
<stop offset="0.525" stop-color="#292929"/>
</linearGradient>
<linearGradient id="paint19_linear_17_178" x1="-643.715" y1="1502.34" x2="85.1949" y2="2818.17" gradientUnits="userSpaceOnUse">
<stop stop-color="#1F1F1F" stop-opacity="0.2"/>
<stop offset="0.525" stop-color="#292929"/>
</linearGradient>
<linearGradient id="paint20_linear_17_178" x1="-622.02" y1="1535.16" x2="118.525" y2="2871.99" gradientUnits="userSpaceOnUse">
<stop stop-color="#1F1F1F" stop-opacity="0.2"/>
<stop offset="0.525" stop-color="#292929"/>
</linearGradient>
<linearGradient id="paint21_linear_17_178" x1="-580.297" y1="1598.11" x2="187.183" y2="2983.56" gradientUnits="userSpaceOnUse">
<stop stop-color="#1F1F1F" stop-opacity="0.2"/>
<stop offset="0.525" stop-color="#292929"/>
</linearGradient>
<linearGradient id="paint22_linear_17_178" x1="-560.09" y1="1627.85" x2="222.588" y2="3040.74" gradientUnits="userSpaceOnUse">
<stop stop-color="#1F1F1F" stop-opacity="0.2"/>
<stop offset="0.525" stop-color="#292929"/>
</linearGradient>
<linearGradient id="paint23_linear_17_178" x1="-540.501" y1="1656.87" x2="258.18" y2="3098.65" gradientUnits="userSpaceOnUse">
<stop stop-color="#1F1F1F" stop-opacity="0.2"/>
<stop offset="0.525" stop-color="#292929"/>
</linearGradient>
<linearGradient id="paint24_linear_17_178" x1="-521.319" y1="1685.15" x2="294.213" y2="3157.35" gradientUnits="userSpaceOnUse">
<stop stop-color="#1F1F1F" stop-opacity="0.2"/>
<stop offset="0.525" stop-color="#292929"/>
</linearGradient>
<linearGradient id="paint25_linear_17_178" x1="-502.48" y1="1712.82" x2="330.611" y2="3216.71" gradientUnits="userSpaceOnUse">
<stop stop-color="#1F1F1F" stop-opacity="0.2"/>
<stop offset="0.525" stop-color="#292929"/>
</linearGradient>
<linearGradient id="paint26_linear_17_178" x1="-484.587" y1="1738.7" x2="368.165" y2="3278.08" gradientUnits="userSpaceOnUse">
<stop stop-color="#1F1F1F" stop-opacity="0.2"/>
<stop offset="0.525" stop-color="#292929"/>
</linearGradient>
<linearGradient id="paint27_linear_17_178" x1="-469.181" y1="1760.17" x2="407.82" y2="3343.33" gradientUnits="userSpaceOnUse">
<stop stop-color="#1F1F1F" stop-opacity="0.2"/>
<stop offset="0.525" stop-color="#292929"/>
</linearGradient>
<linearGradient id="paint28_linear_17_178" x1="-454.246" y1="1780.79" x2="448.102" y2="3409.7" gradientUnits="userSpaceOnUse">
<stop stop-color="#1F1F1F" stop-opacity="0.2"/>
<stop offset="0.525" stop-color="#292929"/>
</linearGradient>
<linearGradient id="paint29_linear_17_178" x1="-442.559" y1="1795.85" x2="491.385" y2="3481.8" gradientUnits="userSpaceOnUse">
<stop stop-color="#1F1F1F" stop-opacity="0.2"/>
<stop offset="0.525" stop-color="#292929"/>
</linearGradient>
<linearGradient id="paint30_linear_17_178" x1="-430.297" y1="1811.25" x2="534.681" y2="3553.23" gradientUnits="userSpaceOnUse">
<stop stop-color="#1F1F1F" stop-opacity="0.2"/>
<stop offset="0.525" stop-color="#292929"/>
</linearGradient>
<linearGradient id="paint31_linear_17_178" x1="-418.219" y1="1826.71" x2="577.829" y2="3624.77" gradientUnits="userSpaceOnUse">
<stop stop-color="#1F1F1F" stop-opacity="0.2"/>
<stop offset="0.525" stop-color="#292929"/>
</linearGradient>
<clipPath id="clip0_17_178">
<rect width="2692" height="4000" fill="white"/>
</clipPath>
</defs>
</svg>
