<svg width="212" height="43" viewBox="0 0 212 43" fill="none" xmlns="http://www.w3.org/2000/svg">
<g clip-path="url(#clip0_1_472)">
<path fill-rule="evenodd" clip-rule="evenodd" d="M14.985 13.649H36.0078V15.9441L39.9095 13.2968L43.8112 10.6495L39.9095 8.00618L36.0078 5.35889V7.65004H14.985V8.70262V13.649Z" fill="#E96635"/>
<path fill-rule="evenodd" clip-rule="evenodd" d="M21.0228 25.6471H24.1394H36.0078V19.6481H21.0228H14.985H7.80335V17.353L3.90168 20.0003L0 22.6476L3.90168 25.2909L7.80335 27.9382V25.6471H11.8684H14.985H21.0228Z" fill="white"/>
<path fill-rule="evenodd" clip-rule="evenodd" d="M14.985 31.6423V37.6413H21.0268V31.6423H14.985Z" fill="white"/>
</g>
<path d="M65.6015 11.9103V14.0432H56.868V20.8166H63.9585V22.9495H56.868V32H54.2451V11.9103H65.6015ZM82.2009 16.2049V32H79.578V29.6653C79.0784 30.4724 78.377 31.1065 77.4739 31.5677C76.59 32.0096 75.61 32.2306 74.5339 32.2306C73.3041 32.2306 72.1992 31.9808 71.2193 31.4812C70.2393 30.9624 69.461 30.1938 68.8846 29.1753C68.3273 28.1569 68.0487 26.9175 68.0487 25.4571V16.2049H70.6428V25.1113C70.6428 26.6677 71.0367 27.8687 71.8245 28.7142C72.6124 29.5404 73.6884 29.9536 75.0527 29.9536C76.4555 29.9536 77.5603 29.5212 78.3674 28.6565C79.1744 27.7918 79.578 26.5332 79.578 24.8807V16.2049H82.2009ZM93.7488 15.9167C95.6704 15.9167 97.2268 16.5028 98.4182 17.6749C99.6095 18.8278 100.205 20.4996 100.205 22.6901V32H97.6111V23.0648C97.6111 21.4892 97.2172 20.2882 96.4294 19.4619C95.6415 18.6165 94.5655 18.1937 93.2012 18.1937C91.8177 18.1937 90.7128 18.6261 89.8865 19.4908C89.0795 20.3555 88.6759 21.6141 88.6759 23.2666V32H86.053V16.2049H88.6759V18.4531C89.1948 17.6461 89.8961 17.0216 90.78 16.5796C91.6832 16.1377 92.6728 15.9167 93.7488 15.9167ZM102.933 24.0448C102.933 22.4307 103.26 21.0184 103.913 19.8078C104.567 18.578 105.46 17.6269 106.594 16.9543C107.747 16.2818 109.034 15.9455 110.456 15.9455C111.686 15.9455 112.829 16.2337 113.886 16.8102C114.943 17.3675 115.75 18.1073 116.307 19.0296V10.6709H118.959V32H116.307V29.0312C115.788 29.9728 115.02 30.751 114.001 31.3659C112.983 31.9616 111.792 32.2594 110.427 32.2594C109.025 32.2594 107.747 31.9135 106.594 31.2218C105.46 30.53 104.567 29.5596 103.913 28.3106C103.26 27.0616 102.933 25.6397 102.933 24.0448ZM116.307 24.0736C116.307 22.8823 116.067 21.8447 115.587 20.9607C115.106 20.0768 114.453 19.4043 113.627 18.9431C112.82 18.4627 111.926 18.2225 110.946 18.2225C109.966 18.2225 109.073 18.4531 108.266 18.9143C107.458 19.3755 106.815 20.048 106.334 20.9319C105.854 21.8158 105.614 22.8535 105.614 24.0448C105.614 25.2554 105.854 26.3122 106.334 27.2154C106.815 28.0993 107.458 28.7814 108.266 29.2618C109.073 29.723 109.966 29.9536 110.946 29.9536C111.926 29.9536 112.82 29.723 113.627 29.2618C114.453 28.7814 115.106 28.0993 115.587 27.2154C116.067 26.3122 116.307 25.265 116.307 24.0736ZM124.17 13.6397C123.67 13.6397 123.247 13.4667 122.901 13.1208C122.556 12.775 122.383 12.3522 122.383 11.8526C122.383 11.353 122.556 10.9303 122.901 10.5844C123.247 10.2385 123.67 10.0656 124.17 10.0656C124.65 10.0656 125.054 10.2385 125.38 10.5844C125.726 10.9303 125.899 11.353 125.899 11.8526C125.899 12.3522 125.726 12.775 125.38 13.1208C125.054 13.4667 124.65 13.6397 124.17 13.6397ZM125.438 16.2049V32H122.815V16.2049H125.438ZM137.027 15.9167C138.949 15.9167 140.505 16.5028 141.697 17.6749C142.888 18.8278 143.484 20.4996 143.484 22.6901V32H140.89V23.0648C140.89 21.4892 140.496 20.2882 139.708 19.4619C138.92 18.6165 137.844 18.1937 136.48 18.1937C135.096 18.1937 133.991 18.6261 133.165 19.4908C132.358 20.3555 131.955 21.6141 131.955 23.2666V32H129.332V16.2049H131.955V18.4531C132.473 17.6461 133.175 17.0216 134.059 16.5796C134.962 16.1377 135.951 15.9167 137.027 15.9167ZM153.706 15.9455C155.07 15.9455 156.262 16.2434 157.28 16.839C158.318 17.4347 159.086 18.1841 159.586 19.0872V16.2049H162.238V32.3459C162.238 33.787 161.93 35.0649 161.315 36.1794C160.7 37.3131 159.816 38.197 158.663 38.8311C157.53 39.4652 156.204 39.7822 154.686 39.7822C152.611 39.7822 150.881 39.2923 149.498 38.3123C148.114 37.3323 147.298 35.9968 147.048 34.3059H149.642C149.93 35.2666 150.526 36.0352 151.429 36.6117C152.332 37.2074 153.418 37.5052 154.686 37.5052C156.127 37.5052 157.299 37.0537 158.202 36.1505C159.125 35.2474 159.586 33.9792 159.586 32.3459V29.0312C159.067 29.9536 158.298 30.7222 157.28 31.3371C156.262 31.952 155.07 32.2594 153.706 32.2594C152.303 32.2594 151.025 31.9135 149.872 31.2218C148.739 30.53 147.845 29.5596 147.192 28.3106C146.539 27.0616 146.212 25.6397 146.212 24.0448C146.212 22.4307 146.539 21.0184 147.192 19.8078C147.845 18.578 148.739 17.6269 149.872 16.9543C151.025 16.2818 152.303 15.9455 153.706 15.9455ZM159.586 24.0736C159.586 22.8823 159.346 21.8447 158.865 20.9607C158.385 20.0768 157.732 19.4043 156.905 18.9431C156.098 18.4627 155.205 18.2225 154.225 18.2225C153.245 18.2225 152.351 18.4531 151.544 18.9143C150.737 19.3755 150.093 20.048 149.613 20.9319C149.133 21.8158 148.892 22.8535 148.892 24.0448C148.892 25.2554 149.133 26.3122 149.613 27.2154C150.093 28.0993 150.737 28.7814 151.544 29.2618C152.351 29.723 153.245 29.9536 154.225 29.9536C155.205 29.9536 156.098 29.723 156.905 29.2618C157.732 28.7814 158.385 28.0993 158.865 27.2154C159.346 26.3122 159.586 25.265 159.586 24.0736Z" fill="white"/>
<path d="M180.534 18.1073C180.534 19.1833 180.274 20.1921 179.756 21.1337C179.256 22.0752 178.459 22.8342 177.363 23.4107C176.287 23.9872 174.923 24.2754 173.27 24.2754H169.898V32H165.863V11.8815H173.27C174.827 11.8815 176.153 12.1505 177.248 12.6885C178.343 13.2265 179.16 13.9663 179.698 14.9079C180.255 15.8494 180.534 16.9159 180.534 18.1073ZM173.098 21.0184C174.212 21.0184 175.038 20.7686 175.576 20.269C176.114 19.7502 176.383 19.0296 176.383 18.1073C176.383 16.1473 175.288 15.1673 173.098 15.1673H169.898V21.0184H173.098ZM186.858 18.5108C187.376 17.6653 188.049 17.0024 188.875 16.522C189.721 16.0416 190.682 15.8014 191.758 15.8014V20.0384H190.691C189.423 20.0384 188.462 20.3362 187.809 20.9319C187.175 21.5276 186.858 22.5652 186.858 24.0448V32H182.822V16.032H186.858V18.5108ZM200.99 32.2594C199.452 32.2594 198.069 31.9231 196.839 31.2506C195.609 30.5588 194.639 29.5885 193.928 28.3395C193.236 27.0905 192.89 25.6493 192.89 24.016C192.89 22.3827 193.246 20.9415 193.957 19.6925C194.687 18.4435 195.676 17.4828 196.925 16.8102C198.174 16.1185 199.568 15.7726 201.105 15.7726C202.642 15.7726 204.035 16.1185 205.284 16.8102C206.533 17.4828 207.513 18.4435 208.224 19.6925C208.954 20.9415 209.319 22.3827 209.319 24.016C209.319 25.6493 208.945 27.0905 208.195 28.3395C207.465 29.5885 206.466 30.5588 205.198 31.2506C203.949 31.9231 202.546 32.2594 200.99 32.2594ZM200.99 28.743C201.72 28.743 202.402 28.57 203.036 28.2242C203.689 27.8591 204.208 27.321 204.592 26.6101C204.977 25.8991 205.169 25.0344 205.169 24.016C205.169 22.498 204.765 21.3354 203.958 20.5284C203.17 19.7021 202.2 19.289 201.047 19.289C199.894 19.289 198.924 19.7021 198.136 20.5284C197.367 21.3354 196.983 22.498 196.983 24.016C196.983 25.534 197.358 26.7062 198.107 27.5324C198.876 28.3395 199.837 28.743 200.99 28.743Z" fill="#E96635"/>
<defs>
<clipPath id="clip0_1_472">
<rect width="43.8112" height="32.2819" fill="white" transform="translate(0 5.35913)"/>
</clipPath>
</defs>
</svg>
