<svg width="64" height="64" viewBox="0 0 64 64" fill="none" xmlns="http://www.w3.org/2000/svg">
<rect width="64" height="64" rx="32" fill="#4361EE"/>
<path fill-rule="evenodd" clip-rule="evenodd" d="M40.3866 32.9525C38.0479 33.8994 35.5234 34.4835 32.883 34.6348C32.4277 34.6609 31.9689 34.6741 31.507 34.6741C31.0451 34.6741 30.5863 34.6609 30.1309 34.6348C27.4899 34.4835 24.9648 33.8992 22.6256 32.9519C17.7167 30.9638 13.6262 27.377 11 22.8371C15.0934 15.7609 22.7442 11 31.507 11C40.2697 11 47.9206 15.7609 52.0139 22.8371C49.3874 27.3775 45.2963 30.9646 40.3866 32.9525Z" fill="white"/>
<path d="M22.6259 34.7947C22.0603 34.5657 21.5057 34.3155 20.9628 34.045C19.1987 35.2877 17.7074 36.8355 16.5845 38.6013C18.4932 41.6028 21.4662 43.9741 25.034 45.2885C26.7341 45.9148 28.5693 46.3011 30.4888 46.4011H32.4891C34.4081 46.3011 37.7811 48.2023 32.8832 53C36.4516 51.6858 44.4845 41.6031 46.3934 38.6013C45.2737 36.8405 43.7877 35.2965 42.0301 34.0556C41.4936 34.3223 40.9455 34.5692 40.3868 34.7954C38.0481 35.7423 35.5236 36.3264 32.8832 36.4777C32.4279 36.5038 31.9691 36.517 31.5072 36.517C31.0453 36.517 30.5865 36.5038 30.1311 36.4777C27.4901 36.3263 24.965 35.7421 22.6259 34.7947Z" fill="white"/>
<rect x="21.6172" y="19.8089" width="19.8202" height="7.07865" rx="3.53932" fill="#162550"/>
<ellipse cx="36.995" cy="23.3089" rx="1.29775" ry="1.29775" fill="#04FED1"/>
<ellipse cx="31.4889" cy="40.7697" rx="1.29775" ry="1.29775" fill="#162550"/>
<ellipse cx="26.2975" cy="23.3089" rx="1.29775" ry="1.29775" fill="#04FED1"/>
<ellipse cx="26.2975" cy="40.7697" rx="1.29775" ry="1.29775" fill="#162550"/>
<ellipse cx="36.6801" cy="40.7697" rx="1.29775" ry="1.29775" fill="#162550"/>
</svg>
