<?xml version="1.0" encoding="utf-8"?>
<!-- Generator: Adobe Illustrator 19.0.0, SVG Export Plug-In . SVG Version: 6.00 Build 0)  -->
<svg version="1.1" id="Layer_1" xmlns="http://www.w3.org/2000/svg" xmlns:xlink="http://www.w3.org/1999/xlink" x="0px" y="0px"
	 viewBox="0 0 620 620" style="enable-background:new 0 0 620 620;" xml:space="preserve">
<style type="text/css">
	.st0{fill:#703616;}
</style>
<g>
	<g>
		<g>
			<g>
				
					<rect id="XMLID_219_" x="483.2" y="129.3" transform="matrix(0.7071 0.7071 -0.7071 0.7071 238.7669 -301.846)" class="st0" width="1.2" height="15.9"/>
			</g>
		</g>
	</g>
	<g>
		<g>
			<g>
				
					<rect id="XMLID_218_" x="457.7" y="130.8" transform="matrix(-0.682 0.7314 -0.7314 -0.682 899.3618 -128.3614)" class="st0" width="39.8" height="1.2"/>
			</g>
		</g>
	</g>
	<g>
		<g>
			<g>
				
					<rect id="XMLID_217_" x="453.3" y="125" transform="matrix(-0.656 0.7547 -0.7547 -0.656 875.1829 -147.6095)" class="st0" width="35.8" height="1.1"/>
			</g>
		</g>
	</g>
	<g>
		<g>
			<g>
				
					<rect id="XMLID_216_" x="449.3" y="119.5" transform="matrix(-0.6293 0.7772 -0.7772 -0.6293 850.4348 -165.417)" class="st0" width="30.7" height="1.2"/>
			</g>
		</g>
	</g>
	<g>
		<g>
			<g>
				
					<rect id="XMLID_215_" x="444.7" y="114.3" transform="matrix(-0.6018 0.7986 -0.7986 -0.6018 825.2363 -181.7416)" class="st0" width="26.5" height="1.2"/>
			</g>
		</g>
	</g>
	<g>
		<g>
			<g>
				
					<rect id="XMLID_214_" x="434" y="109.2" transform="matrix(-0.5736 0.8191 -0.8191 -0.5736 799.6401 -196.6243)" class="st0" width="34.1" height="1.1"/>
			</g>
		</g>
	</g>
	<g>
		<g>
			<g>
				
					<rect id="XMLID_213_" x="419.7" y="104.5" transform="matrix(-0.5446 0.8387 -0.8387 -0.5446 773.7562 -210.05)" class="st0" width="48.4" height="1.1"/>
			</g>
		</g>
	</g>
	<g>
		<g>
			<g>
				
					<rect id="XMLID_212_" x="416.3" y="99.9" transform="matrix(-0.515 0.8572 -0.8572 -0.515 747.6693 -222.0213)" class="st0" width="40.7" height="1.1"/>
			</g>
		</g>
	</g>
	<g>
		<g>
			<g>
				
					<rect id="XMLID_211_" x="408.7" y="95.6" transform="matrix(-0.4848 0.8746 -0.8746 -0.4848 721.4684 -232.5556)" class="st0" width="41" height="1.2"/>
			</g>
		</g>
	</g>
	<g>
		<g>
			<g>
				
					<rect id="XMLID_210_" x="411.9" y="91.6" transform="matrix(-0.4541 0.891 -0.891 -0.4541 695.2811 -241.636)" class="st0" width="19.5" height="1.1"/>
			</g>
		</g>
	</g>
	<g>
		<g>
			<g>
				
					<rect id="XMLID_209_" x="410.2" y="87.9" transform="matrix(-0.4227 0.9063 -0.9063 -0.4227 669.1228 -249.3431)" class="st0" width="7.6" height="1.2"/>
			</g>
		</g>
	</g>
	<g>
		<g>
			<g>
				
					<rect id="XMLID_208_" x="380.4" y="84.4" transform="matrix(-0.3908 0.9205 -0.9205 -0.3908 643.0715 -255.703)" class="st0" width="51.5" height="1.1"/>
			</g>
		</g>
	</g>
	<g>
		<g>
			<g>
				
					<rect id="XMLID_207_" x="377" y="81.2" transform="matrix(-0.3584 0.9336 -0.9336 -0.3584 617.2559 -260.7162)" class="st0" width="42.5" height="1.2"/>
			</g>
		</g>
	</g>
	<g>
		<g>
			<g>
				
					<rect id="XMLID_206_" x="376.7" y="78.3" transform="matrix(-0.3256 0.9455 -0.9455 -0.3256 591.7366 -264.4276)" class="st0" width="26.9" height="1.1"/>
			</g>
		</g>
	</g>
	<g>
		<g>
			<g>
				
					<rect id="XMLID_205_" x="372.4" y="75.6" transform="matrix(-0.2924 0.9563 -0.9563 -0.2924 566.5867 -266.8847)" class="st0" width="19.2" height="1.1"/>
			</g>
		</g>
	</g>
	<g>
		<g>
			<g>
				
					<rect id="XMLID_204_" x="350.1" y="73.2" transform="matrix(-0.2588 0.9659 -0.9659 -0.2588 541.8627 -268.1396)" class="st0" width="47.3" height="1.2"/>
			</g>
		</g>
	</g>
	<g>
		<g>
			<g>
				
					<rect id="XMLID_203_" x="348.3" y="71.2" transform="matrix(-0.225 0.9744 -0.9744 -0.225 517.6453 -268.235)" class="st0" width="34.5" height="1.2"/>
			</g>
		</g>
	</g>
	<g>
		<g>
			<g>
				
					<rect id="XMLID_202_" x="331.1" y="69.4" transform="matrix(-0.1908 0.9816 -0.9816 -0.1908 493.9406 -267.2493)" class="st0" width="52" height="1.1"/>
			</g>
		</g>
	</g>
	<g>
		<g>
			<g>
				
					<rect id="XMLID_201_" x="343.3" y="67.9" transform="matrix(-0.1565 0.9877 -0.9877 -0.1565 470.8953 -265.2025)" class="st0" width="10.9" height="1.1"/>
			</g>
		</g>
	</g>
	<g>
		<g>
			<g>
				
					<rect id="XMLID_200_" x="326.2" y="66.7" transform="matrix(-0.1218 0.9925 -0.9925 -0.1218 448.4671 -262.1934)" class="st0" width="28.1" height="1.2"/>
			</g>
		</g>
	</g>
	<g>
		<g>
			<g>
				
					<rect id="XMLID_199_" x="320.9" y="65.8" transform="matrix(-8.715416e-002 0.9962 -0.9962 -8.715416e-002 426.7611 -258.2592)" class="st0" width="21.5" height="1.2"/>
			</g>
		</g>
	</g>
	<g>
		<g>
			<g>
				
					<rect id="XMLID_198_" x="298.1" y="65.2" transform="matrix(-5.235882e-002 0.9986 -0.9986 -5.235882e-002 405.7979 -253.479)" class="st0" width="50.1" height="1.1"/>
			</g>
		</g>
	</g>
	<g>
		<g>
			<g>
				
					<rect id="XMLID_197_" x="289.9" y="64.9" transform="matrix(-1.745566e-002 0.9998 -0.9998 -1.745566e-002 385.5968 -247.9176)" class="st0" width="49.5" height="1.1"/>
			</g>
		</g>
	</g>
	<g>
		<g>
			<g>
				
					<rect id="XMLID_196_" x="278.8" y="64.9" transform="matrix(1.744969e-002 0.9998 -0.9998 1.744969e-002 366.203 -241.647)" class="st0" width="54.5" height="1.2"/>
			</g>
		</g>
	</g>
	<g>
		<g>
			<g>
				
					<rect id="XMLID_195_" x="286.2" y="65.2" transform="matrix(5.233305e-002 0.9986 -0.9986 5.233305e-002 347.6373 -234.7308)" class="st0" width="22.7" height="1.1"/>
			</g>
		</g>
	</g>
	<g>
		<g>
			<g>
				
					<rect id="XMLID_194_" x="275.1" y="65.8" transform="matrix(8.720744e-002 0.9962 -0.9962 8.720744e-002 329.9034 -227.2491)" class="st0" width="27.7" height="1.2"/>
			</g>
		</g>
	</g>
	<g>
		<g>
			<g>
				
					<rect id="XMLID_193_" x="261.7" y="66.7" transform="matrix(0.1219 0.9925 -0.9925 0.1219 313.0539 -219.2639)" class="st0" width="37.6" height="1.2"/>
			</g>
		</g>
	</g>
	<g>
		<g>
			<g>
				
					<rect id="XMLID_192_" x="251.8" y="67.9" transform="matrix(0.1564 0.9877 -0.9877 0.1564 297.063 -210.8489)" class="st0" width="40.4" height="1.1"/>
			</g>
		</g>
	</g>
	<g>
		<g>
			<g>
				
					<rect id="XMLID_191_" x="242.7" y="69.4" transform="matrix(0.1908 0.9816 -0.9816 0.1908 281.938 -202.0757)" class="st0" width="41.8" height="1.1"/>
			</g>
		</g>
	</g>
	<g>
		<g>
			<g>
				
					<rect id="XMLID_190_" x="229.4" y="71.2" transform="matrix(0.2249 0.9744 -0.9744 0.2249 267.6775 -193.0155)" class="st0" width="51.6" height="1.2"/>
			</g>
		</g>
	</g>
	<g>
		<g>
			<g>
				
					<rect id="XMLID_189_" x="222.3" y="73.2" transform="matrix(0.2588 0.9659 -0.9659 0.2588 254.2715 -183.7312)" class="st0" width="49.2" height="1.2"/>
			</g>
		</g>
	</g>
	<g>
		<g>
			<g>
				
					<rect id="XMLID_188_" x="234.6" y="75.6" transform="matrix(0.2922 0.9564 -0.9564 0.2922 241.754 -174.2947)" class="st0" width="8.1" height="1.1"/>
			</g>
		</g>
	</g>
	<g>
		<g>
			<g>
				
					<rect id="XMLID_187_" x="209.2" y="78.3" transform="matrix(0.3256 0.9455 -0.9455 0.3256 229.9794 -164.7693)" class="st0" width="42.5" height="1.1"/>
			</g>
		</g>
	</g>
	<g>
		<g>
			<g>
				
					<rect id="XMLID_186_" x="211.9" y="81.2" transform="matrix(0.3583 0.9336 -0.9336 0.3583 219.0588 -155.2142)" class="st0" width="21.1" height="1.2"/>
			</g>
		</g>
	</g>
	<g>
		<g>
			<g>
				
					<rect id="XMLID_185_" x="193.6" y="84.4" transform="matrix(0.3907 0.9205 -0.9205 0.3907 208.9048 -145.6919)" class="st0" width="41.8" height="1.1"/>
			</g>
		</g>
	</g>
	<g>
		<g>
			<g>
				
					<rect id="XMLID_184_" x="194" y="87.9" transform="matrix(0.4227 0.9063 -0.9063 0.4227 199.4859 -136.2577)" class="st0" width="25.3" height="1.2"/>
			</g>
		</g>
	</g>
	<g>
		<g>
			<g>
				
					<rect id="XMLID_183_" x="174.3" y="91.6" transform="matrix(0.454 0.891 -0.891 0.454 190.7941 -126.9654)" class="st0" width="49.3" height="1.1"/>
			</g>
		</g>
	</g>
	<g>
		<g>
			<g>
				
					<rect id="XMLID_182_" x="164.4" y="95.6" transform="matrix(0.4848 0.8746 -0.8746 0.4848 182.7715 -117.8653)" class="st0" width="54" height="1.2"/>
			</g>
		</g>
	</g>
	<g>
		<g>
			<g>
				
					<rect id="XMLID_181_" x="179.6" y="99.9" transform="matrix(0.5149 0.8572 -0.8572 0.5149 175.4143 -109.0045)" class="st0" width="8.8" height="1.1"/>
			</g>
		</g>
	</g>
	<g>
		<g>
			<g>
				
					<rect id="XMLID_180_" x="151.5" y="104.5" transform="matrix(0.5447 0.8387 -0.8387 0.5447 168.5703 -100.4198)" class="st0" width="50.6" height="1.1"/>
			</g>
		</g>
	</g>
	<g>
		<g>
			<g>
				
					<rect id="XMLID_179_" x="155" y="109.2" transform="matrix(0.5736 0.8191 -0.8191 0.5736 162.2946 -92.1545)" class="st0" width="29.3" height="1.1"/>
			</g>
		</g>
	</g>
	<g>
		<g>
			<g>
				
					<rect id="XMLID_178_" x="159.6" y="114.3" transform="matrix(0.6019 0.7986 -0.7986 0.6019 156.5121 -84.2407)" class="st0" width="6.3" height="1.2"/>
			</g>
		</g>
	</g>
	<g>
		<g>
			<g>
				
					<rect id="XMLID_177_" x="134.1" y="119.5" transform="matrix(0.6293 0.7771 -0.7771 0.6293 151.1664 -76.7061)" class="st0" width="43.7" height="1.2"/>
			</g>
		</g>
	</g>
	<g>
		<g>
			<g>
				
					<rect id="XMLID_176_" x="132.6" y="125" transform="matrix(0.6561 0.7547 -0.7547 0.6561 146.2006 -69.5763)" class="st0" width="33.7" height="1.1"/>
			</g>
		</g>
	</g>
	<g>
		<g>
			<g>
				
					<rect id="XMLID_175_" x="133.5" y="130.8" transform="matrix(0.682 0.7314 -0.7314 0.682 141.5681 -62.8711)" class="st0" width="19.2" height="1.2"/>
			</g>
		</g>
	</g>
	<g>
		<g>
			<g>
				
					<rect id="XMLID_174_" x="132.9" y="136.7" transform="matrix(0.7071 0.7071 -0.7071 0.7071 137.1805 -56.6035)" class="st0" width="8.1" height="1.2"/>
			</g>
		</g>
	</g>
	<g>
		<g>
			<g>
				
					<rect id="XMLID_173_" x="130.4" y="139.1" transform="matrix(-0.6817 0.7316 -0.7316 -0.6817 325.2119 145.416)" class="st0" width="1.2" height="8.8"/>
			</g>
		</g>
	</g>
	<g>
		<g>
			<g>
				
					<rect id="XMLID_172_" x="124.7" y="146.1" transform="matrix(-0.6559 0.7549 -0.7549 -0.6559 320.4794 153.534)" class="st0" width="1.2" height="7.4"/>
			</g>
		</g>
	</g>
	<g>
		<g>
			<g>
				
					<rect id="XMLID_171_" x="119.2" y="129.1" transform="matrix(-0.6283 0.778 -0.778 -0.6283 316.6301 161.4566)" class="st0" width="1.1" height="54.6"/>
			</g>
		</g>
	</g>
	<g>
		<g>
			<g>
				
					<rect id="XMLID_170_" x="113.9" y="140.9" transform="matrix(-0.6009 0.7993 -0.7993 -0.6009 313.6404 169.6331)" class="st0" width="1.2" height="44.3"/>
			</g>
		</g>
	</g>
	<g>
		<g>
			<g>
				
					<rect id="XMLID_169_" x="108.9" y="148.1" transform="matrix(-0.5749 0.8182 -0.8182 -0.5749 311.4914 178.2499)" class="st0" width="1.1" height="43.8"/>
			</g>
		</g>
	</g>
	<g>
		<g>
			<g>
				
					<rect id="XMLID_168_" x="104.1" y="163.9" transform="matrix(-0.5452 0.8383 -0.8383 -0.5452 310.2088 185.9759)" class="st0" width="1.1" height="26.4"/>
			</g>
		</g>
	</g>
	<g>
		<g>
			<g>
				
					<rect id="XMLID_167_" x="99.5" y="172.6" transform="matrix(-0.5146 0.8574 -0.8574 -0.5146 309.7473 193.4369)" class="st0" width="1.1" height="23.7"/>
			</g>
		</g>
	</g>
	<g>
		<g>
			<g>
				
					<rect id="XMLID_166_" x="95.3" y="181.6" transform="matrix(-0.4836 0.8753 -0.8753 -0.4836 310.0748 200.6856)" class="st0" width="1.2" height="20.4"/>
			</g>
		</g>
	</g>
	<g>
		<g>
			<g>
				
					<rect id="XMLID_165_" x="91.2" y="180.1" transform="matrix(-0.4549 0.8905 -0.8905 -0.4549 311.134 208.2946)" class="st0" width="1.2" height="38.4"/>
			</g>
		</g>
	</g>
	<g>
		<g>
			<g>
				<polygon id="XMLID_164_" class="st0" points="72.8,200.6 73.3,199.5 103.3,213.5 102.9,214.6 				"/>
			</g>
		</g>
	</g>
	<g>
		<g>
			<g>
				
					<rect id="XMLID_163_" x="84" y="200" transform="matrix(-0.3915 0.9202 -0.9202 -0.3915 315.4299 221.1671)" class="st0" width="1.2" height="29.7"/>
			</g>
		</g>
	</g>
	<g>
		<g>
			<g>
				
					<rect id="XMLID_162_" x="80.8" y="217.2" transform="matrix(-0.3589 0.9334 -0.9334 -0.3589 318.5588 226.8361)" class="st0" width="1.2" height="11.2"/>
			</g>
		</g>
	</g>
	<g>
		<g>
			<g>
				
					<rect id="XMLID_161_" x="77.9" y="210.6" transform="matrix(-0.3263 0.9453 -0.9453 -0.3263 322.2782 232.0447)" class="st0" width="1.1" height="40.6"/>
			</g>
		</g>
	</g>
	<g>
		<g>
			<g>
				
					<rect id="XMLID_160_" x="75.2" y="216.1" transform="matrix(-0.2929 0.9562 -0.9562 -0.2929 326.5313 236.5249)" class="st0" width="1.1" height="45.9"/>
			</g>
		</g>
	</g>
	<g>
		<g>
			<g>
				
					<rect id="XMLID_159_" x="72.9" y="240.5" transform="matrix(-0.2595 0.9657 -0.9657 -0.2595 331.2673 240.4704)" class="st0" width="1.2" height="13.4"/>
			</g>
		</g>
	</g>
	<g>
		<g>
			<g>
				
					<rect id="XMLID_158_" x="70.8" y="244.3" transform="matrix(-0.2257 0.9742 -0.9742 -0.2257 336.43 243.6918)" class="st0" width="1.2" height="22.5"/>
			</g>
		</g>
	</g>
	<g>
		<g>
			<g>
				
					<rect id="XMLID_157_" x="69" y="255.5" transform="matrix(-0.1906 0.9817 -0.9817 -0.1906 341.9351 245.8936)" class="st0" width="1.1" height="16.9"/>
			</g>
		</g>
	</g>
	<g>
		<g>
			<g>
				
					<rect id="XMLID_156_" x="67.5" y="265.8" transform="matrix(-0.1568 0.9876 -0.9876 -0.1568 347.7613 247.7739)" class="st0" width="1.2" height="13"/>
			</g>
		</g>
	</g>
	<g>
		<g>
			<g>
				
					<rect id="XMLID_155_" x="66.3" y="254.1" transform="matrix(-0.1211 0.9926 -0.9926 -0.1211 353.7751 248.4056)" class="st0" width="1.2" height="53.5"/>
			</g>
		</g>
	</g>
	<g>
		<g>
			<g>
				
					<rect id="XMLID_154_" x="65.4" y="267.9" transform="matrix(-8.530563e-002 0.9964 -0.9964 -8.530563e-002 359.9318 248.2311)" class="st0" width="1.2" height="42.9"/>
			</g>
		</g>
	</g>
	<g>
		<g>
			<g>
				
					<rect id="XMLID_153_" x="64.9" y="294.6" transform="matrix(-5.268677e-002 0.9986 -0.9986 -5.268677e-002 366.3297 248.2306)" class="st0" width="1.1" height="6.5"/>
			</g>
		</g>
	</g>
	<g>
		<g>
			<g>
				
					<rect id="XMLID_152_" x="64.6" y="294.3" transform="matrix(-1.647100e-002 0.9999 -0.9999 -1.647100e-002 372.5846 246.3558)" class="st0" width="1.2" height="24.3"/>
			</g>
		</g>
	</g>
	<g>
		<g>
			<g>
				
					<rect id="XMLID_151_" x="64.6" y="292.3" transform="matrix(1.684523e-002 0.9999 -0.9999 1.684523e-002 378.9734 244.5649)" class="st0" width="1.2" height="45.3"/>
			</g>
		</g>
	</g>
	<g>
		<g>
			<g>
				<polygon id="XMLID_150_" class="st0" points="60.2,324.4 60.1,323.2 70.7,322.7 70.7,323.8 				"/>
			</g>
		</g>
	</g>
	<g>
		<g>
			<g>
				
					<rect id="XMLID_149_" x="65.4" y="323.6" transform="matrix(8.869275e-002 0.9961 -0.9961 8.869275e-002 390.9383 236.8645)" class="st0" width="1.1" height="17"/>
			</g>
		</g>
	</g>
	<g>
		<g>
			<g>
				
					<rect id="XMLID_148_" x="66.3" y="328.4" transform="matrix(0.1214 0.9926 -0.9926 0.1214 396.8658 232.8109)" class="st0" width="1.2" height="24.4"/>
			</g>
		</g>
	</g>
	<g>
		<g>
			<g>
				
					<rect id="XMLID_147_" x="67.5" y="333.6" transform="matrix(0.1575 0.9875 -0.9875 0.1575 402.1006 226.847)" class="st0" width="1.1" height="30.9"/>
			</g>
		</g>
	</g>
	<g>
		<g>
			<g>
				<polygon id="XMLID_146_" class="st0" points="55,360.9 54.8,359.8 84.2,354.1 84.4,355.2 				"/>
			</g>
		</g>
	</g>
	<g>
		<g>
			<g>
				
					<rect id="XMLID_145_" x="70.8" y="357.9" transform="matrix(0.2236 0.9747 -0.9747 0.2236 412.0268 214.4973)" class="st0" width="1.2" height="15.9"/>
			</g>
		</g>
	</g>
	<g>
		<g>
			<g>
				
					<rect id="XMLID_144_" x="72.9" y="366.1" transform="matrix(0.2592 0.9658 -0.9658 0.2592 415.797 206.2513)" class="st0" width="1.2" height="16.1"/>
			</g>
		</g>
	</g>
	<g>
		<g>
			<g>
				
					<rect id="XMLID_143_" x="75.2" y="369.1" transform="matrix(0.2929 0.9562 -0.9562 0.2929 419.2449 197.9303)" class="st0" width="1.1" height="26.5"/>
			</g>
		</g>
	</g>
	<g>
		<g>
			<g>
				
					<rect id="XMLID_142_" x="77.9" y="379.6" transform="matrix(0.3261 0.9453 -0.9453 0.3261 422.0683 189.0305)" class="st0" width="1.1" height="21.9"/>
			</g>
		</g>
	</g>
	<g>
		<g>
			<g>
				
					<rect id="XMLID_141_" x="80.8" y="371.8" transform="matrix(0.3591 0.9333 -0.9333 0.3591 424.1553 179.4978)" class="st0" width="1.2" height="53.6"/>
			</g>
		</g>
	</g>
	<g>
		<g>
			<g>
				
					<rect id="XMLID_140_" x="84" y="384.1" transform="matrix(0.3897 0.9209 -0.9209 0.3897 426.0119 170.2051)" class="st0" width="1.1" height="44.9"/>
			</g>
		</g>
	</g>
	<g>
		<g>
			<g>
				
					<rect id="XMLID_139_" x="87.5" y="398.1" transform="matrix(0.4219 0.9066 -0.9066 0.4219 426.5704 159.6792)" class="st0" width="1.2" height="32.6"/>
			</g>
		</g>
	</g>
	<g>
		<g>
			<g>
				<polygon id="XMLID_138_" class="st0" points="80.5,428.4 80,427.4 103.1,415.7 103.6,416.7 				"/>
			</g>
		</g>
	</g>
	<g>
		<g>
			<g>
				
					<rect id="XMLID_137_" x="95.3" y="411.1" transform="matrix(0.4865 0.8737 -0.8737 0.4865 424.554 136.8763)" class="st0" width="1.1" height="37"/>
			</g>
		</g>
	</g>
	<g>
		<g>
			<g>
				
					<rect id="XMLID_136_" x="99.5" y="427.4" transform="matrix(0.5146 0.8574 -0.8574 0.5146 423.3172 126.2922)" class="st0" width="1.1" height="19.2"/>
			</g>
		</g>
	</g>
	<g>
		<g>
			<g>
				<polygon id="XMLID_135_" class="st0" points="82.8,459.1 82.2,458.2 126.5,429.4 127.1,430.4 				"/>
			</g>
		</g>
	</g>
	<g>
		<g>
			<g>
				
					<rect id="XMLID_134_" x="108.9" y="429.9" transform="matrix(0.5749 0.8182 -0.8182 0.5749 415.8492 102.3337)" class="st0" width="1.1" height="43"/>
			</g>
		</g>
	</g>
	<g>
		<g>
			<g>
				
					<rect id="XMLID_133_" x="113.9" y="445.9" transform="matrix(0.6009 0.7993 -0.7993 0.6009 412.0029 91.396)" class="st0" width="1.2" height="24.7"/>
			</g>
		</g>
	</g>
	<g>
		<g>
			<g>
				<polygon id="XMLID_132_" class="st0" points="106.9,476.2 106.2,475.3 132.6,453.9 133.3,454.8 				"/>
			</g>
		</g>
	</g>
	<g>
		<g>
			<g>
				
					<rect id="XMLID_131_" x="124.7" y="459.9" transform="matrix(0.6557 0.755 -0.755 0.6557 399.2048 67.8185)" class="st0" width="1.1" height="23.4"/>
			</g>
		</g>
	</g>
	<g>
		<g>
			<g>
				<polygon id="XMLID_130_" class="st0" points="113.5,495 112.8,494.2 148.4,460.9 149.2,461.8 				"/>
			</g>
		</g>
	</g>
	<g>
		<g>
			<g>
				
					<rect id="XMLID_129_" x="136.3" y="472.7" transform="matrix(0.707 0.7072 -0.7072 0.707 382.485 45.0125)" class="st0" width="1.2" height="22.8"/>
			</g>
		</g>
	</g>
	<g>
		<g>
			<g>
				<polygon id="XMLID_128_" class="st0" points="134.9,498 150.4,481.3 151.3,482.1 135.7,498.8 				"/>
			</g>
		</g>
	</g>
	<g>
		<g>
			<g>
				
					<rect id="XMLID_127_" x="140.6" y="495.2" transform="matrix(-0.6561 0.7547 -0.7547 -0.6561 621.6568 708.2906)" class="st0" width="17.7" height="1.2"/>
			</g>
		</g>
	</g>
	<g>
		<g>
			<g>
				<polygon id="XMLID_126_" class="st0" points="140.7,519.3 170.4,482.5 171.3,483.3 141.5,520.1 				"/>
			</g>
		</g>
	</g>
	<g>
		<g>
			<g>
				
					<rect id="XMLID_125_" x="136.6" y="506" transform="matrix(-0.6018 0.7987 -0.7987 -0.6018 665.2561 681.4185)" class="st0" width="52.3" height="1.2"/>
			</g>
		</g>
	</g>
	<g>
		<g>
			<g>
				
					<rect id="XMLID_124_" x="146.8" y="511" transform="matrix(-0.5735 0.8192 -0.8192 -0.5735 686.0695 666.0286)" class="st0" width="45.7" height="1.1"/>
			</g>
		</g>
	</g>
	<g>
		<g>
			<g>
				<polygon id="XMLID_123_" class="st0" points="165.7,532.4 186.9,499.7 187.9,500.4 166.6,533 				"/>
			</g>
		</g>
	</g>
	<g>
		<g>
			<g>
				
					<rect id="XMLID_122_" x="178.7" y="520.3" transform="matrix(-0.515 0.8572 -0.8572 -0.515 725.3292 631.419)" class="st0" width="10.7" height="1.1"/>
			</g>
		</g>
	</g>
	<g>
		<g>
			<g>
				
					<rect id="XMLID_121_" x="186.4" y="524.6" transform="matrix(-0.4848 0.8746 -0.8746 -0.4848 743.5971 612.394)" class="st0" width="10" height="1.1"/>
			</g>
		</g>
	</g>
	<g>
		<g>
			<g>
				<polygon id="XMLID_120_" class="st0" points="190,545.6 207,512.3 208,512.8 191,546.1 				"/>
			</g>
		</g>
	</g>
	<g>
		<g>
			<g>
				<polygon id="XMLID_119_" class="st0" points="203.6,538.3 208.8,527.2 209.8,527.7 204.6,538.8 				"/>
			</g>
		</g>
	</g>
	<g>
		<g>
			<g>
				
					<rect id="XMLID_118_" x="207.4" y="535.9" transform="matrix(-0.3907 0.9205 -0.9205 -0.3907 792.1306 548.5927)" class="st0" width="14.2" height="1.2"/>
			</g>
		</g>
	</g>
	<g>
		<g>
			<g>
				
					<rect id="XMLID_117_" x="200.9" y="539.1" transform="matrix(-0.3584 0.9336 -0.9336 -0.3584 805.9823 525.3867)" class="st0" width="43" height="1.2"/>
			</g>
		</g>
	</g>
	<g>
		<g>
			<g>
				
					<rect id="XMLID_116_" x="216.4" y="542" transform="matrix(-0.3256 0.9455 -0.9455 -0.3256 818.555 501.3119)" class="st0" width="28.3" height="1.1"/>
			</g>
		</g>
	</g>
	<g>
		<g>
			<g>
				
					<rect id="XMLID_115_" x="226.7" y="544.7" transform="matrix(-0.2923 0.9563 -0.9563 -0.2923 829.8049 476.4029)" class="st0" width="23.8" height="1.1"/>
			</g>
		</g>
	</g>
	<g>
		<g>
			<g>
				
					<rect id="XMLID_114_" x="235.7" y="547" transform="matrix(-0.259 0.9659 -0.9659 -0.259 839.7002 450.9672)" class="st0" width="22.4" height="1.2"/>
			</g>
		</g>
	</g>
	<g>
		<g>
			<g>
				
					<rect id="XMLID_113_" x="242.1" y="549.1" transform="matrix(-0.2249 0.9744 -0.9744 -0.2249 848.1339 424.6588)" class="st0" width="26.1" height="1.2"/>
			</g>
		</g>
	</g>
	<g>
		<g>
			<g>
				<polygon id="XMLID_112_" class="st0" points="262.2,555.1 263.7,547.6 264.8,547.8 263.4,555.3 				"/>
			</g>
		</g>
	</g>
	<g>
		<g>
			<g>
				<polygon id="XMLID_111_" class="st0" points="267.9,574.8 274.9,530.9 276,531.1 269.1,574.9 				"/>
			</g>
		</g>
	</g>
	<g>
		<g>
			<g>
				
					<rect id="XMLID_110_" x="266.9" y="553.5" transform="matrix(-0.1219 0.9925 -0.9925 -0.1219 864.6221 343.3203)" class="st0" width="27.1" height="1.2"/>
			</g>
		</g>
	</g>
	<g>
		<g>
			<g>
				
					<rect id="XMLID_109_" x="268.5" y="554.4" transform="matrix(-8.709347e-002 0.9962 -0.9962 -8.709347e-002 867.0317 315.4971)" class="st0" width="41" height="1.1"/>
			</g>
		</g>
	</g>
	<g>
		<g>
			<g>
				<polygon id="XMLID_108_" class="st0" points="295.7,579 298.2,532.1 299.3,532.2 296.8,579.1 				"/>
			</g>
		</g>
	</g>
	<g>
		<g>
			<g>
				
					<rect id="XMLID_107_" x="295.9" y="555.3" transform="matrix(-1.741196e-002 0.9998 -0.9998 -1.741196e-002 867.2099 259.5878)" class="st0" width="20.3" height="1.1"/>
			</g>
		</g>
	</g>
	<g>
		<g>
			<g>
				
					<rect id="XMLID_106_" x="294.1" y="555.3" transform="matrix(1.745525e-002 0.9998 -0.9998 1.745525e-002 864.9512 231.6443)" class="st0" width="41" height="1.2"/>
			</g>
		</g>
	</g>
	<g>
		<g>
			<g>
				<polygon id="XMLID_105_" class="st0" points="324,582 321.2,529.3 322.4,529.2 325.1,581.9 				"/>
			</g>
		</g>
	</g>
	<g>
		<g>
			<g>
				
					<rect id="XMLID_104_" x="306.3" y="554.4" transform="matrix(8.716779e-002 0.9962 -0.9962 8.716779e-002 855.6963 176.1921)" class="st0" width="50.9" height="1.1"/>
			</g>
		</g>
	</g>
	<g>
		<g>
			<g>
				
					<rect id="XMLID_103_" x="335.5" y="553.5" transform="matrix(0.1219 0.9925 -0.9925 0.1219 848.7238 148.8763)" class="st0" width="9.5" height="1.2"/>
			</g>
		</g>
	</g>
	<g>
		<g>
			<g>
				<polygon id="XMLID_102_" class="st0" points="349,558.5 347.3,547.5 348.4,547.3 350.1,558.4 				"/>
			</g>
		</g>
	</g>
	<g>
		<g>
			<g>
				<polygon id="XMLID_101_" class="st0" points="361,574.4 352.1,528.7 353.3,528.5 362.1,574.2 				"/>
			</g>
		</g>
	</g>
	<g>
		<g>
			<g>
				
					<rect id="XMLID_100_" x="342" y="549.1" transform="matrix(0.225 0.9744 -0.9744 0.225 818.8378 69.867)" class="st0" width="47" height="1.2"/>
			</g>
		</g>
	</g>
	<g>
		<g>
			<g>
				
					<rect id="XMLID_99_" x="364.1" y="547" transform="matrix(0.2589 0.9659 -0.9659 0.2589 805.9561 44.7661)" class="st0" width="19.5" height="1.2"/>
			</g>
		</g>
	</g>
	<g>
		<g>
			<g>
				
					<rect id="XMLID_98_" x="362.4" y="544.7" transform="matrix(0.2924 0.9563 -0.9563 0.2924 791.7357 20.4725)" class="st0" width="39.3" height="1.1"/>
			</g>
		</g>
	</g>
	<g>
		<g>
			<g>
				
					<rect id="XMLID_97_" x="368.2" y="542" transform="matrix(0.3255 0.9455 -0.9455 0.3255 776.1862 -2.9697)" class="st0" width="43.9" height="1.1"/>
			</g>
		</g>
	</g>
	<g>
		<g>
			<g>
				
					<rect id="XMLID_96_" x="378.7" y="539.1" transform="matrix(0.3584 0.9336 -0.9336 0.3584 759.3322 -25.5044)" class="st0" width="39.1" height="1.2"/>
			</g>
		</g>
	</g>
	<g>
		<g>
			<g>
				
					<rect id="XMLID_95_" x="400.8" y="535.9" transform="matrix(0.3909 0.9204 -0.9204 0.3909 741.1709 -47.0773)" class="st0" width="10.7" height="1.2"/>
			</g>
		</g>
	</g>
	<g>
		<g>
			<g>
				<polygon id="XMLID_94_" class="st0" points="421.9,551.3 405,515.1 406,514.6 422.9,550.9 				"/>
			</g>
		</g>
	</g>
	<g>
		<g>
			<g>
				<polygon id="XMLID_93_" class="st0" points="429.7,546.2 412.6,512.8 413.7,512.2 430.7,545.7 				"/>
			</g>
		</g>
	</g>
	<g>
		<g>
			<g>
				
					<rect id="XMLID_92_" x="409.3" y="524.6" transform="matrix(0.4848 0.8746 -0.8746 0.4848 680.4719 -104.8368)" class="st0" width="39.9" height="1.1"/>
			</g>
		</g>
	</g>
	<g>
		<g>
			<g>
				
					<rect id="XMLID_91_" x="429.3" y="520.3" transform="matrix(0.515 0.8572 -0.8572 0.515 658.2965 -121.6413)" class="st0" width="14.7" height="1.1"/>
			</g>
		</g>
	</g>
	<g>
		<g>
			<g>
				<polygon id="XMLID_90_" class="st0" points="446,520.6 440.9,512.8 441.8,512.2 446.9,520 				"/>
			</g>
		</g>
	</g>
	<g>
		<g>
			<g>
				
					<rect id="XMLID_89_" x="427" y="511" transform="matrix(0.5736 0.8192 -0.8192 0.5736 611.3962 -151.2769)" class="st0" width="48" height="1.1"/>
			</g>
		</g>
	</g>
	<g>
		<g>
			<g>
				
					<rect id="XMLID_88_" x="435.2" y="506" transform="matrix(0.6018 0.7986 -0.7986 0.6018 586.8751 -164.0095)" class="st0" width="45.4" height="1.2"/>
			</g>
		</g>
	</g>
	<g>
		<g>
			<g>
				<polygon id="XMLID_87_" class="st0" points="479.2,520.1 449.3,483.2 450.2,482.5 480.1,519.4 				"/>
			</g>
		</g>
	</g>
	<g>
		<g>
			<g>
				
					<rect id="XMLID_86_" x="453.4" y="495.2" transform="matrix(0.656 0.7548 -0.7548 0.656 536.2996 -185.1107)" class="st0" width="35.7" height="1.2"/>
			</g>
		</g>
	</g>
	<g>
		<g>
			<g>
				<polygon id="XMLID_85_" class="st0" points="492.8,507.3 461.5,473.7 462.3,472.9 493.7,506.5 				"/>
			</g>
		</g>
	</g>
	<g>
		<g>
			<g>
				
					<rect id="XMLID_84_" x="471" y="483.5" transform="matrix(0.7071 0.7071 -0.7071 0.7071 484.006 -200.2635)" class="st0" width="25.5" height="1.2"/>
			</g>
		</g>
	</g>
	<g>
		<g>
			<g>
				<polygon id="XMLID_83_" class="st0" points="484.9,474.3 485.7,473.5 494.5,481.6 493.7,482.5 				"/>
			</g>
		</g>
	</g>
	<g>
		<g>
			<g>
				
					<rect id="XMLID_82_" x="494.8" y="448.6" transform="matrix(-0.6556 0.7551 -0.7551 -0.6556 1176.3235 406.6688)" class="st0" width="1.1" height="45.9"/>
			</g>
		</g>
	</g>
	<g>
		<g>
			<g>
				<polygon id="XMLID_81_" class="st0" points="483.9,452 484.7,451.1 517.9,478.1 517.2,479 				"/>
			</g>
		</g>
	</g>
	<g>
		<g>
			<g>
				
					<rect id="XMLID_80_" x="505.6" y="439.9" transform="matrix(-0.6008 0.7994 -0.7994 -0.6008 1176.6824 329.0242)" class="st0" width="1.2" height="36.8"/>
			</g>
		</g>
	</g>
	<g>
		<g>
			<g>
				
					<rect id="XMLID_79_" x="510.6" y="424.4" transform="matrix(-0.5749 0.8182 -0.8182 -0.5749 1174.4502 292.5679)" class="st0" width="1.1" height="54"/>
			</g>
		</g>
	</g>
	<g>
		<g>
			<g>
				<polygon id="XMLID_78_" class="st0" points="499.1,434 499.7,433 532.9,454.6 532.3,455.5 				"/>
			</g>
		</g>
	</g>
	<g>
		<g>
			<g>
				
					<rect id="XMLID_77_" x="520" y="415" transform="matrix(-0.5145 0.8575 -0.8575 -0.5145 1163.1027 215.4945)" class="st0" width="1.1" height="44"/>
			</g>
		</g>
	</g>
	<g>
		<g>
			<g>
				
					<rect id="XMLID_76_" x="524.3" y="408" transform="matrix(-0.4865 0.8737 -0.8737 -0.4865 1155.4906 180.0765)" class="st0" width="1.1" height="43.2"/>
			</g>
		</g>
	</g>
	<g>
		<g>
			<g>
				<polygon id="XMLID_75_" class="st0" points="507.8,411.9 508.3,410.9 549.9,432.1 549.4,433.2 				"/>
			</g>
		</g>
	</g>
	<g>
		<g>
			<g>
				
					<rect id="XMLID_74_" x="532" y="404.9" transform="matrix(-0.4218 0.9067 -0.9067 -0.4218 1132.9269 106.2119)" class="st0" width="1.2" height="18.9"/>
			</g>
		</g>
	</g>
	<g>
		<g>
			<g>
				
					<rect id="XMLID_73_" x="535.5" y="396.3" transform="matrix(-0.3899 0.9209 -0.9209 -0.3899 1119.4426 71.3629)" class="st0" width="1.1" height="20.4"/>
			</g>
		</g>
	</g>
	<g>
		<g>
			<g>
				
					<rect id="XMLID_72_" x="538.7" y="379.3" transform="matrix(-0.3591 0.9333 -0.9333 -0.3591 1104.9392 38.3938)" class="st0" width="1.2" height="38.5"/>
			</g>
		</g>
	</g>
	<g>
		<g>
			<g>
				
					<rect id="XMLID_71_" x="541.6" y="370.1" transform="matrix(-0.326 0.9454 -0.9454 -0.326 1088.1884 5.272)" class="st0" width="1.1" height="40.8"/>
			</g>
		</g>
	</g>
	<g>
		<g>
			<g>
				
					<rect id="XMLID_70_" x="544.3" y="371.2" transform="matrix(-0.2928 0.9562 -0.9562 -0.2928 1070.0231 -26.625)" class="st0" width="1.1" height="22.5"/>
			</g>
		</g>
	</g>
	<g>
		<g>
			<g>
				
					<rect id="XMLID_69_" x="546.6" y="357.7" transform="matrix(-0.2594 0.9658 -0.9658 -0.2594 1050.538 -57.246)" class="st0" width="1.2" height="33"/>
			</g>
		</g>
	</g>
	<g>
		<g>
			<g>
				
					<rect id="XMLID_68_" x="548.7" y="361.4" transform="matrix(-0.2234 0.9747 -0.9747 -0.2234 1028.6228 -87.8028)" class="st0" width="1.2" height="8.9"/>
			</g>
		</g>
	</g>
	<g>
		<g>
			<g>
				<polygon id="XMLID_67_" class="st0" points="545.8,357.1 546,355.9 556.3,357.9 556.1,359.1 				"/>
			</g>
		</g>
	</g>
	<g>
		<g>
			<g>
				
					<rect id="XMLID_66_" x="552" y="343" transform="matrix(-0.1576 0.9875 -0.9875 -0.1576 984.3694 -141.5446)" class="st0" width="1.1" height="12.2"/>
			</g>
		</g>
	</g>
	<g>
		<g>
			<g>
				
					<rect id="XMLID_65_" x="553.2" y="325.4" transform="matrix(-0.1211 0.9926 -0.9926 -0.1211 958.9001 -167.8264)" class="st0" width="1.2" height="30.3"/>
			</g>
		</g>
	</g>
	<g>
		<g>
			<g>
				
					<rect id="XMLID_64_" x="554.1" y="314.5" transform="matrix(-8.849019e-002 0.9961 -0.9961 -8.849019e-002 934.5006 -190.9978)" class="st0" width="1.1" height="35.1"/>
			</g>
		</g>
	</g>
	<g>
		<g>
			<g>
				<polygon id="XMLID_63_" class="st0" points="531.3,322.9 531.3,321.7 579.2,324.2 579.2,325.4 				"/>
			</g>
		</g>
	</g>
	<g>
		<g>
			<g>
				
					<rect id="XMLID_62_" x="555" y="305" transform="matrix(-1.666435e-002 0.9999 -0.9999 -1.666435e-002 879.738 -235.2245)" class="st0" width="1.1" height="20"/>
			</g>
		</g>
	</g>
	<g>
		<g>
			<g>
				
					<rect id="XMLID_61_" x="555" y="286.3" transform="matrix(1.647408e-002 0.9999 -0.9999 1.647408e-002 852.7717 -254.082)" class="st0" width="1.2" height="40.2"/>
			</g>
		</g>
	</g>
	<g>
		<g>
			<g>
				
					<rect id="XMLID_60_" x="554.7" y="286.3" transform="matrix(5.268677e-002 0.9986 -0.9986 5.268677e-002 823.444 -272.2888)" class="st0" width="1.1" height="23.1"/>
			</g>
		</g>
	</g>
	<g>
		<g>
			<g>
				
					<rect id="XMLID_59_" x="554.1" y="277.9" transform="matrix(8.566108e-002 0.9963 -0.9963 8.566108e-002 795.3998 -288.0557)" class="st0" width="1.2" height="22.9"/>
			</g>
		</g>
	</g>
	<g>
		<g>
			<g>
				
					<rect id="XMLID_58_" x="553.2" y="276.3" transform="matrix(0.1213 0.9926 -0.9926 0.1213 765.3101 -302.9051)" class="st0" width="1.2" height="8.9"/>
			</g>
		</g>
	</g>
	<g>
		<g>
			<g>
				<polygon id="XMLID_57_" class="st0" points="536.8,275.4 536.6,274.3 568.3,269.3 568.5,270.4 				"/>
			</g>
		</g>
	</g>
	<g>
		<g>
			<g>
				
					<rect id="XMLID_56_" x="550.5" y="239.4" transform="matrix(0.1906 0.9817 -0.9817 0.1906 705.1107 -327.355)" class="st0" width="1.1" height="49.1"/>
			</g>
		</g>
	</g>
	<g>
		<g>
			<g>
				
					<rect id="XMLID_55_" x="548.7" y="228.6" transform="matrix(0.2259 0.9742 -0.9742 0.2259 674.1584 -337.273)" class="st0" width="1.2" height="53.9"/>
			</g>
		</g>
	</g>
	<g>
		<g>
			<g>
				
					<rect id="XMLID_54_" x="546.6" y="220.3" transform="matrix(0.2594 0.9658 -0.9658 0.2594 644.0409 -345.3848)" class="st0" width="1.2" height="53.8"/>
			</g>
		</g>
	</g>
	<g>
		<g>
			<g>
				
					<rect id="XMLID_53_" x="544.3" y="227.4" transform="matrix(0.2928 0.9562 -0.9562 0.2928 613.8818 -351.9519)" class="st0" width="1.1" height="23.3"/>
			</g>
		</g>
	</g>
	<g>
		<g>
			<g>
				
					<rect id="XMLID_52_" x="541.6" y="218.9" transform="matrix(0.3263 0.9453 -0.9453 0.3263 583.5021 -357.0045)" class="st0" width="1.1" height="23.9"/>
			</g>
		</g>
	</g>
	<g>
		<g>
			<g>
				
					<rect id="XMLID_51_" x="538.7" y="210" transform="matrix(0.359 0.9334 -0.9334 0.359 553.6691 -360.5075)" class="st0" width="1.2" height="25.7"/>
			</g>
		</g>
	</g>
	<g>
		<g>
			<g>
				
					<rect id="XMLID_50_" x="535.5" y="190.9" transform="matrix(0.3911 0.9204 -0.9204 0.3911 524.2017 -362.5368)" class="st0" width="1.2" height="48"/>
			</g>
		</g>
	</g>
	<g>
		<g>
			<g>
				<polygon id="XMLID_49_" class="st0" points="510.9,217.8 510.4,216.8 554.3,196.3 554.8,197.4 				"/>
			</g>
		</g>
	</g>
	<g>
		<g>
			<g>
				
					<rect id="XMLID_48_" x="528.3" y="172.3" transform="matrix(0.455 0.8905 -0.8905 0.455 465.7764 -362.2777)" class="st0" width="1.2" height="54.2"/>
			</g>
		</g>
	</g>
	<g>
		<g>
			<g>
				
					<rect id="XMLID_47_" x="524.3" y="172.7" transform="matrix(0.4832 0.8755 -0.8755 0.4832 439.1871 -360.3661)" class="st0" width="1.2" height="38.2"/>
			</g>
		</g>
	</g>
	<g>
		<g>
			<g>
				
					<rect id="XMLID_46_" x="520" y="167.5" transform="matrix(0.5144 0.8575 -0.8575 0.5144 410.8813 -356.8459)" class="st0" width="1.1" height="33.8"/>
			</g>
		</g>
	</g>
	<g>
		<g>
			<g>
				
					<rect id="XMLID_45_" x="515.4" y="163.7" transform="matrix(0.5452 0.8383 -0.8383 0.5452 383.1566 -352.0062)" class="st0" width="1.1" height="26.8"/>
			</g>
		</g>
	</g>
	<g>
		<g>
			<g>
				
					<rect id="XMLID_44_" x="510.6" y="165.2" transform="matrix(0.5749 0.8182 -0.8182 0.5749 356.4553 -346.0103)" class="st0" width="1.1" height="9.7"/>
			</g>
		</g>
	</g>
	<g>
		<g>
			<g>
				
					<rect id="XMLID_43_" x="505.6" y="153.2" transform="matrix(0.6009 0.7993 -0.7993 0.6009 332.4062 -339.5116)" class="st0" width="1.2" height="19.9"/>
			</g>
		</g>
	</g>
	<g>
		<g>
			<g>
				
					<rect id="XMLID_42_" x="500.3" y="146.8" transform="matrix(0.6284 0.7779 -0.7779 0.6284 307.7858 -331.5567)" class="st0" width="1.1" height="19.2"/>
			</g>
		</g>
	</g>
	<g>
		<g>
			<g>
				
					<rect id="XMLID_41_" x="494.8" y="134.9" transform="matrix(0.6557 0.755 -0.755 0.6557 283.6957 -322.4753)" class="st0" width="1.2" height="29.8"/>
			</g>
		</g>
	</g>
	<g>
		<g>
			<g>
				
					<rect id="XMLID_40_" x="489.1" y="134.8" transform="matrix(0.6818 0.7316 -0.7316 0.6818 260.7693 -312.5855)" class="st0" width="1.2" height="17.4"/>
			</g>
		</g>
	</g>
</g>
</svg>
