<?xml version="1.0" encoding="utf-8"?>
<!-- Generator: Adobe Illustrator 16.0.0, SVG Export Plug-In . SVG Version: 6.00 Build 0)  -->
<!DOCTYPE svg PUBLIC "-//W3C//DTD SVG 1.1//EN" "http://www.w3.org/Graphics/SVG/1.1/DTD/svg11.dtd">
<svg version="1.1" id="Layer_1" xmlns="http://www.w3.org/2000/svg" xmlns:xlink="http://www.w3.org/1999/xlink" x="0px" y="0px"
	 width="92.25px" height="82.458px" viewBox="0 0 92.25 82.458" enable-background="new 0 0 92.25 82.458" xml:space="preserve">
<g>
	<path fill="#E8EBF9" d="M81.044,53.185H58.842c-2.694,0-4.901-2.205-4.901-4.9V12.224c0-2.697,2.207-4.902,4.901-4.902h22.202
		c2.697,0,4.902,2.205,4.902,4.902v36.061C85.946,50.979,83.741,53.185,81.044,53.185"/>
	<path fill="#E8EBF9" d="M12.583,75.136H7.941c-0.901,0-1.638-0.736-1.638-1.639v-4.643c0-0.9,0.736-1.637,1.638-1.637h4.642
		c0.901,0,1.64,0.736,1.64,1.637v4.643C14.223,74.399,13.484,75.136,12.583,75.136"/>
</g>
<g>
	<g>
		<g>
			<polyline fill="none" stroke="#173665" stroke-width="2" stroke-miterlimit="10" points="70.25,32.001 77.25,32.001 
				77.25,72.001 15.25,72.001 15.25,32.001 22.25,32.001 			"/>
			<polyline fill="none" stroke="#173665" stroke-width="2" stroke-miterlimit="10" points="67.25,42.001 67.25,18.228 59,10.001 
				25.25,10.001 25.25,42.001 			"/>
			<polyline fill="none" stroke="#173665" stroke-width="2" stroke-miterlimit="10" points="77,72.228 46,48.228 15,72.228 			"/>
			<line fill="none" stroke="#173665" stroke-width="2" stroke-miterlimit="10" x1="15" y1="32.228" x2="35" y2="52.228"/>
			<line fill="none" stroke="#173665" stroke-width="2" stroke-miterlimit="10" x1="77" y1="32.228" x2="57" y2="52.228"/>
			<polyline fill="none" stroke="#173665" stroke-width="2" stroke-miterlimit="10" points="67.25,18.001 59.25,18.001 
				59.25,10.001 			"/>
			<line fill="none" stroke="#173665" stroke-width="2" stroke-miterlimit="10" x1="45.25" y1="68.001" x2="47.25" y2="68.001"/>
			<line fill="none" stroke="#173665" stroke-width="2" stroke-miterlimit="10" x1="49.25" y1="68.001" x2="51.25" y2="68.001"/>
			<line fill="none" stroke="#173665" stroke-width="2" stroke-miterlimit="10" x1="41.25" y1="68.001" x2="43.25" y2="68.001"/>
			<rect x="31.25" y="10.001" fill="none" stroke="#173665" stroke-width="2" stroke-miterlimit="10" width="22" height="10"/>
			<line fill="none" stroke="#173665" stroke-width="2" stroke-miterlimit="10" x1="34.25" y1="14.001" x2="36.25" y2="14.001"/>
			<line fill="none" stroke="#173665" stroke-width="2" stroke-miterlimit="10" x1="38.25" y1="14.001" x2="40.25" y2="14.001"/>
			<line fill="none" stroke="#173665" stroke-width="2" stroke-miterlimit="10" x1="42.25" y1="14.001" x2="44.25" y2="14.001"/>
			<line fill="none" stroke="#5F78FB" stroke-width="2" stroke-miterlimit="10" x1="30.25" y1="24.001" x2="62.25" y2="24.001"/>
			<line fill="none" stroke="#5F78FB" stroke-width="2" stroke-miterlimit="10" x1="30.25" y1="28.001" x2="62.25" y2="28.001"/>
			<line fill="none" stroke="#5F78FB" stroke-width="2" stroke-miterlimit="10" x1="30.25" y1="32.001" x2="62.25" y2="32.001"/>
			<line fill="none" stroke="#5F78FB" stroke-width="2" stroke-miterlimit="10" x1="30.25" y1="36.001" x2="62.25" y2="36.001"/>
			<line fill="none" stroke="#5F78FB" stroke-width="2" stroke-miterlimit="10" x1="30.25" y1="40.001" x2="62.25" y2="40.001"/>
		</g>
	</g>
</g>
</svg>
