<?xml version="1.0" encoding="utf-8"?>
<!-- Generator: Adobe Illustrator 16.0.0, SVG Export Plug-In . SVG Version: 6.00 Build 0)  -->
<!DOCTYPE svg PUBLIC "-//W3C//DTD SVG 1.1//EN" "http://www.w3.org/Graphics/SVG/1.1/DTD/svg11.dtd">
<svg version="1.1" id="Layer_1" xmlns="http://www.w3.org/2000/svg" xmlns:xlink="http://www.w3.org/1999/xlink" x="0px" y="0px"
	 width="92.25px" height="82.458px" viewBox="0 0 92.25 82.458" enable-background="new 0 0 92.25 82.458" xml:space="preserve">
<g>
	<path fill="#E8EBF9" d="M81.044,53.185H58.842c-2.694,0-4.901-2.205-4.901-4.9V12.224c0-2.697,2.207-4.902,4.901-4.902h22.202
		c2.697,0,4.902,2.205,4.902,4.902v36.061C85.946,50.979,83.741,53.185,81.044,53.185"/>
	<path fill="#E8EBF9" d="M12.583,75.136H7.941c-0.901,0-1.638-0.736-1.638-1.639v-4.643c0-0.9,0.736-1.637,1.638-1.637h4.642
		c0.901,0,1.64,0.736,1.64,1.637v4.643C14.223,74.399,13.484,75.136,12.583,75.136"/>
</g>
<g>
	<g>
		<g>
			<g>
				<g>
					<g>
						<path fill="none" stroke="#5F78FB" stroke-width="2" stroke-miterlimit="10" d="M37.25,43.001V31.228
							c0-1.656,0.969-3.227,2.625-3.227h1c1.656,0,3.375,1.57,3.375,3.227v11.773"/>
					</g>
					<line fill="none" stroke="#5F78FB" stroke-width="2" stroke-miterlimit="10" x1="37.25" y1="37.001" x2="44.25" y2="37.001"/>
				</g>
				<g>
					<path fill="none" stroke="#5F78FB" stroke-width="2" stroke-miterlimit="10" d="M48.25,42.001h3.625
						c1.656,0,3.375-1.117,3.375-2.773v-8c0-1.656-1.719-3.227-3.375-3.227H48.25V42.001L48.25,42.001z"/>
				</g>
			</g>
			<rect x="15.25" y="18.001" fill="none" stroke="#173665" stroke-width="2" stroke-miterlimit="10" width="62" height="38"/>
			<line fill="none" stroke="#173665" stroke-width="2" stroke-miterlimit="10" x1="24.25" y1="64.001" x2="68.25" y2="64.001"/>
			<line fill="none" stroke="#173665" stroke-width="2" stroke-miterlimit="10" x1="29.25" y1="59.001" x2="29.25" y2="64.001"/>
			<line fill="none" stroke="#173665" stroke-width="2" stroke-miterlimit="10" x1="33.25" y1="59.001" x2="33.25" y2="64.001"/>
			<line fill="none" stroke="#173665" stroke-width="2" stroke-miterlimit="10" x1="63.25" y1="59.001" x2="63.25" y2="64.001"/>
			<line fill="none" stroke="#173665" stroke-width="2" stroke-miterlimit="10" x1="59.25" y1="59.001" x2="59.25" y2="64.001"/>
			<line fill="none" stroke="#173665" stroke-width="2" stroke-miterlimit="10" x1="49.25" y1="52.001" x2="77.25" y2="52.001"/>
			<line fill="none" stroke="#173665" stroke-width="2" stroke-miterlimit="10" x1="15.25" y1="52.001" x2="43.25" y2="52.001"/>
			<line fill="none" stroke="#173665" stroke-width="2" stroke-miterlimit="10" x1="45.25" y1="52.001" x2="47.25" y2="52.001"/>
			<line fill="none" stroke="#5F78FB" stroke-width="2" stroke-miterlimit="10" x1="58.25" y1="35.001" x2="60.25" y2="35.001"/>
			<line fill="none" stroke="#5F78FB" stroke-width="2" stroke-miterlimit="10" x1="32.25" y1="35.001" x2="34.25" y2="35.001"/>
			<line fill="none" stroke="#173665" stroke-width="2" stroke-miterlimit="10" x1="19.25" y1="18.001" x2="19.25" y2="52.001"/>
			<line fill="none" stroke="#173665" stroke-width="2" stroke-miterlimit="10" x1="73.25" y1="18.001" x2="73.25" y2="52.001"/>
		</g>
	</g>
</g>
</svg>
