<?xml version="1.0" encoding="utf-8"?>
<!-- Generator: Adobe Illustrator 16.0.0, SVG Export Plug-In . SVG Version: 6.00 Build 0)  -->
<!DOCTYPE svg PUBLIC "-//W3C//DTD SVG 1.1//EN" "http://www.w3.org/Graphics/SVG/1.1/DTD/svg11.dtd">
<svg version="1.1" id="Layer_1" xmlns="http://www.w3.org/2000/svg" xmlns:xlink="http://www.w3.org/1999/xlink" x="0px" y="0px"
	 width="92.25px" height="82.458px" viewBox="0 0 92.25 82.458" enable-background="new 0 0 92.25 82.458" xml:space="preserve">
<g>
	<path fill="#E8EBF9" d="M81.044,53.185H58.842c-2.694,0-4.901-2.205-4.901-4.9V12.224c0-2.697,2.207-4.902,4.901-4.902h22.202
		c2.697,0,4.902,2.205,4.902,4.902v36.061C85.946,50.979,83.741,53.185,81.044,53.185"/>
	<path fill="#E8EBF9" d="M12.583,75.136H7.941c-0.901,0-1.638-0.736-1.638-1.639v-4.643c0-0.9,0.736-1.637,1.638-1.637h4.642
		c0.901,0,1.64,0.736,1.64,1.637v4.643C14.223,74.399,13.484,75.136,12.583,75.136"/>
</g>
<g>
	<g>
		<rect x="25.25" y="32.001" fill="none" stroke="#173665" stroke-width="2" stroke-miterlimit="10" width="42" height="36"/>
		<polygon fill="none" stroke="#173665" stroke-width="2" stroke-miterlimit="10" points="71.5,14.001 21.5,14.001 25.5,32.001 
			67.5,32.001 		"/>
		<polyline fill="none" stroke="#173665" stroke-width="2" stroke-miterlimit="10" points="20.25,22.001 15.5,22.001 25.5,32.001 
			67.5,32.001 77.5,22.001 72.25,22.001 		"/>
		<line fill="none" stroke="#173665" stroke-width="2" stroke-miterlimit="10" x1="22.25" y1="37.001" x2="14.25" y2="37.001"/>
		<line fill="none" stroke="#173665" stroke-width="2" stroke-miterlimit="10" x1="30.25" y1="43.001" x2="16.25" y2="43.001"/>
		<line fill="none" stroke="#173665" stroke-width="2" stroke-miterlimit="10" x1="22.25" y1="50.001" x2="14.25" y2="50.001"/>
		<line fill="none" stroke="#173665" stroke-width="2" stroke-miterlimit="10" x1="28.25" y1="57.001" x2="18.25" y2="57.001"/>
		<line fill="none" stroke="#173665" stroke-width="2" stroke-miterlimit="10" x1="22.25" y1="64.001" x2="16.25" y2="64.001"/>
		<polyline fill="none" stroke="#173665" stroke-width="2" stroke-miterlimit="10" points="57.25,49.001 57.25,57.001 35.25,57.001 
			35.25,43.001 49.25,43.001 		"/>
		<polyline fill="none" stroke="#5F78FB" stroke-width="2" stroke-miterlimit="10" points="58.5,41.228 47.5,52.228 42.5,47.228 		
			"/>
		<line fill="none" stroke="#173665" stroke-width="2" stroke-miterlimit="10" x1="25.25" y1="18.001" x2="67.25" y2="18.001"/>
		<line fill="none" stroke="#173665" stroke-width="2" stroke-miterlimit="10" x1="34.25" y1="39.001" x2="36.25" y2="39.001"/>
		<line fill="none" stroke="#173665" stroke-width="2" stroke-miterlimit="10" x1="38.25" y1="39.001" x2="40.25" y2="39.001"/>
		<line fill="none" stroke="#173665" stroke-width="2" stroke-miterlimit="10" x1="42.25" y1="39.001" x2="44.25" y2="39.001"/>
	</g>
</g>
</svg>
