<?xml version="1.0" encoding="utf-8"?>
<!-- Generator: Adobe Illustrator 16.0.0, SVG Export Plug-In . SVG Version: 6.00 Build 0)  -->
<!DOCTYPE svg PUBLIC "-//W3C//DTD SVG 1.1//EN" "http://www.w3.org/Graphics/SVG/1.1/DTD/svg11.dtd">
<svg version="1.1" id="Layer_1" xmlns="http://www.w3.org/2000/svg" xmlns:xlink="http://www.w3.org/1999/xlink" x="0px" y="0px"
	 width="102.961px" height="88.253px" viewBox="0 0 102.961 88.253" enable-background="new 0 0 102.961 88.253"
	 xml:space="preserve">
<g>
	<g>
		<path fill="#E8EBF9" d="M91.912,80.35H69.708c-2.694,0-4.9-2.205-4.9-4.9V39.389c0-2.697,2.206-4.902,4.9-4.902h22.204
			c2.694,0,4.9,2.205,4.9,4.902V75.45C96.812,78.145,94.606,80.35,91.912,80.35"/>
		<path fill="#E8EBF9" d="M17.775,20.306h-4.642c-0.901,0-1.638-0.738-1.638-1.639v-4.643c0-0.9,0.736-1.639,1.638-1.639h4.642
			c0.901,0,1.64,0.738,1.64,1.639v4.643C19.415,19.568,18.676,20.306,17.775,20.306"/>
	</g>
</g>
<g>
	<path fill="#5F78FB" d="M54.141,38.056c0.614,0,1.112-0.498,1.112-1.112v-4.417c0-0.614-0.498-1.112-1.112-1.112
		s-1.112,0.498-1.112,1.112v4.417C53.029,37.559,53.527,38.056,54.141,38.056z"/>
	<path fill="#5F78FB" d="M54.141,29.176c0.614,0,1.112-0.499,1.112-1.113v-0.006c0-0.614-0.498-1.108-1.112-1.108
		s-1.112,0.5-1.112,1.114C53.029,28.677,53.527,29.176,54.141,29.176z"/>
	<path fill="#173665" d="M73.611,15.657H30.725c-1.371,0-2.486,1.115-2.486,2.486v49.15c0,2.923,2.378,5.302,5.302,5.302h40.071
		c0.614,0,1.112-0.497,1.112-1.111V16.769C74.723,16.154,74.225,15.657,73.611,15.657z M30.463,18.144
		c0-0.142,0.119-0.262,0.262-0.262h4.683V61.99H33.54c-1.146,0-2.21,0.366-3.077,0.987V18.144z M72.499,61.99h-17.03
		c-0.614,0-1.113,0.497-1.113,1.111s0.499,1.112,1.113,1.112h17.03v6.158H33.54c-1.697,0-3.077-1.379-3.077-3.077
		c0-1.698,1.38-3.081,3.077-3.081h11.941c0.614,0,1.113-0.498,1.113-1.112s-0.499-1.111-1.113-1.111h-7.85V17.882h34.868V61.99z"/>
	<path fill="#5F78FB" d="M54.141,43.087c5.836,0,10.585-4.75,10.585-10.588c0-5.837-4.749-10.585-10.585-10.585
		s-10.586,4.748-10.586,10.585C43.557,38.338,48.305,43.087,54.141,43.087L54.141,43.087z M54.141,24.139
		c4.611,0,8.361,3.751,8.361,8.36c0,4.613-3.75,8.364-8.361,8.364c-4.61,0-8.361-3.751-8.361-8.364
		C45.78,27.89,49.531,24.139,54.141,24.139z"/>
	<path fill="#173665" d="M45.024,57.014H62.25c1.023,0,1.856-0.833,1.856-1.855v-4.701c0-1.021-0.833-1.853-1.856-1.853H45.024
		c-1.022,0-1.853,0.831-1.853,1.853v4.701C43.172,56.181,44.002,57.014,45.024,57.014L45.024,57.014z M45.395,50.83h16.486v3.96
		H45.395V50.83z"/>
	<path fill="#173665" d="M50.475,61.99c-0.614,0-1.111,0.497-1.111,1.111s0.498,1.112,1.111,1.112h0.006
		c0.614,0,1.109-0.498,1.109-1.112S51.089,61.99,50.475,61.99L50.475,61.99z"/>
</g>
</svg>
