<?xml version="1.0" encoding="utf-8"?>
<!-- Generator: Adobe Illustrator 16.0.0, SVG Export Plug-In . SVG Version: 6.00 Build 0)  -->
<!DOCTYPE svg PUBLIC "-//W3C//DTD SVG 1.1//EN" "http://www.w3.org/Graphics/SVG/1.1/DTD/svg11.dtd">
<svg version="1.1" id="Layer_1" xmlns="http://www.w3.org/2000/svg" xmlns:xlink="http://www.w3.org/1999/xlink" x="0px" y="0px"
	 width="92.25px" height="82.458px" viewBox="0 0 92.25 82.458" enable-background="new 0 0 92.25 82.458" xml:space="preserve">
<g>
	<path fill="#E8EBF9" d="M81.044,53.185H58.842c-2.694,0-4.901-2.205-4.901-4.9V12.224c0-2.697,2.207-4.902,4.901-4.902h22.202
		c2.697,0,4.902,2.205,4.902,4.902v36.061C85.946,50.979,83.741,53.185,81.044,53.185"/>
	<path fill="#E8EBF9" d="M12.583,75.136H7.941c-0.901,0-1.638-0.736-1.638-1.639v-4.643c0-0.9,0.736-1.637,1.638-1.637h4.642
		c0.901,0,1.64,0.736,1.64,1.637v4.643C14.223,74.399,13.484,75.136,12.583,75.136"/>
</g>
<g>
	<g>
		<rect x="19.25" y="10.501" fill="none" stroke="#173665" stroke-width="2" stroke-miterlimit="10" width="57" height="62"/>
		<line fill="none" stroke="#173665" stroke-width="2" stroke-miterlimit="10" x1="27.25" y1="10.501" x2="27.25" y2="72.501"/>
		<line fill="none" stroke="#173665" stroke-width="2" stroke-miterlimit="10" x1="24.25" y1="20.501" x2="16.25" y2="20.501"/>
		<line fill="none" stroke="#173665" stroke-width="2" stroke-miterlimit="10" x1="24.25" y1="24.501" x2="16.25" y2="24.501"/>
		<line fill="none" stroke="#173665" stroke-width="2" stroke-miterlimit="10" x1="24.25" y1="28.501" x2="16.25" y2="28.501"/>
		<line fill="none" stroke="#173665" stroke-width="2" stroke-miterlimit="10" x1="24.25" y1="32.501" x2="16.25" y2="32.501"/>
		<line fill="none" stroke="#173665" stroke-width="2" stroke-miterlimit="10" x1="24.25" y1="50.501" x2="16.25" y2="50.501"/>
		<line fill="none" stroke="#173665" stroke-width="2" stroke-miterlimit="10" x1="24.25" y1="54.501" x2="16.25" y2="54.501"/>
		<line fill="none" stroke="#173665" stroke-width="2" stroke-miterlimit="10" x1="24.25" y1="58.501" x2="16.25" y2="58.501"/>
		<line fill="none" stroke="#173665" stroke-width="2" stroke-miterlimit="10" x1="24.25" y1="62.501" x2="16.25" y2="62.501"/>
		<line fill="none" stroke="#5F78FB" stroke-width="2" stroke-miterlimit="10" x1="56.25" y1="41.501" x2="54.25" y2="41.501"/>
		<line fill="none" stroke="#5F78FB" stroke-width="2" stroke-miterlimit="10" x1="52.25" y1="41.501" x2="50.25" y2="41.501"/>
		<line fill="none" stroke="#5F78FB" stroke-width="2" stroke-miterlimit="10" x1="48.25" y1="41.501" x2="46.25" y2="41.501"/>
		<rect x="38.25" y="34.501" fill="none" stroke="#5F78FB" stroke-width="2" stroke-miterlimit="10" width="26" height="14"/>
		<line fill="none" stroke="#173665" stroke-width="2" stroke-miterlimit="10" x1="37.25" y1="16.501" x2="65.25" y2="16.501"/>
		<line fill="none" stroke="#173665" stroke-width="2" stroke-miterlimit="10" x1="37.25" y1="66.501" x2="65.25" y2="66.501"/>
	</g>
</g>
</svg>
