<svg width="45" height="46" viewBox="0 0 45 46" fill="none" xmlns="http://www.w3.org/2000/svg">
<path fill-rule="evenodd" clip-rule="evenodd" d="M12.6555 23.8939C15.2011 24.9246 17.9488 25.5603 20.8227 25.725C21.3183 25.7534 21.8177 25.7678 22.3205 25.7678C22.8232 25.7678 23.3226 25.7534 23.8182 25.725C26.6928 25.5602 29.4412 24.9243 31.9872 23.8932C37.3303 21.7294 41.7826 17.8253 44.641 12.8839C40.1856 5.18188 31.8582 0 22.3205 0C12.7828 0 4.45533 5.18188 -4.30754e-05 12.8839C2.85871 17.8258 7.31162 21.7302 12.6555 23.8939Z" fill="#162550"/>
<path d="M31.9873 25.8991C32.6028 25.6498 33.2065 25.3774 33.7974 25.083C35.7175 26.4356 37.3407 28.1203 38.5629 30.0423C36.4854 33.3092 33.2495 35.8903 29.3662 37.3208C27.5157 38.0025 25.5182 38.423 23.4289 38.5319H21.2518C19.163 38.423 15.4918 40.4923 20.8228 45.7144C16.9388 44.2839 8.19552 33.3095 6.11778 30.0423C7.33655 28.1257 8.95399 26.4452 10.8669 25.0946C11.4509 25.3848 12.0475 25.6536 12.6556 25.8998C15.2011 26.9305 17.9489 27.5661 20.8228 27.7309C21.3184 27.7593 21.8178 27.7737 22.3205 27.7737C22.8233 27.7737 23.3227 27.7593 23.8183 27.7309C26.6929 27.5661 29.4412 26.9302 31.9873 25.8991Z" fill="#162550"/>
<rect width="21.573" height="7.70465" rx="3.85233" transform="matrix(-1 0 0 1 33.0839 9.58789)" fill="#04FED1"/>
<circle cx="1.41252" cy="1.41252" r="1.41252" transform="matrix(-1 0 0 1 17.7599 11.9849)" fill="#162550"/>
<circle cx="1.41252" cy="1.41252" r="1.41252" transform="matrix(-1 0 0 1 23.7528 30.9897)" fill="#04FED1"/>
<circle cx="1.41252" cy="1.41252" r="1.41252" transform="matrix(-1 0 0 1 29.4031 11.9849)" fill="#162550"/>
<circle cx="1.41252" cy="1.41252" r="1.41252" transform="matrix(-1 0 0 1 29.4031 30.9897)" fill="#04FED1"/>
<circle cx="1.41252" cy="1.41252" r="1.41252" transform="matrix(-1 0 0 1 18.1022 30.9897)" fill="#04FED1"/>
</svg>
