<svg width="70" height="70" viewBox="0 0 70 70" fill="none" xmlns="http://www.w3.org/2000/svg">
<rect width="70" height="70" fill="#E7E7E7"/>
<g opacity="0.5">
<path d="M27 45C27 40.5817 30.5817 37 35 37C39.4183 37 43 40.5817 43 45H27ZM36 39.083V43H40.6586C39.9423 40.9735 38.1684 39.4467 36 39.083ZM34 43V39.083C31.8316 39.4467 30.0577 40.9735 29.3414 43H34ZM35 36C31.685 36 29 33.315 29 30C29 26.685 31.685 24 35 24C38.315 24 41 26.685 41 30C41 33.315 38.315 36 35 36ZM35 34C37.2104 34 39 32.2104 39 30C39 27.7896 37.2104 26 35 26C32.7896 26 31 27.7896 31 30C31 32.2104 32.7896 34 35 34Z" fill="#19286C"/>
</g>
</svg>
