<svg width="100" height="47" viewBox="0 0 100 47" fill="none" xmlns="http://www.w3.org/2000/svg">
<path d="M18.8637 20.8549C18.8637 21.3435 18.8319 21.8321 18.7681 22.3207H6.94644C7.01017 23.2979 7.27571 24.0307 7.74305 24.5193C8.23164 24.9867 8.84768 25.2203 9.59119 25.2203C10.6321 25.2203 11.3756 24.753 11.8217 23.8183H18.4814C18.2052 25.0504 17.6635 26.155 16.8563 27.1322C16.0703 28.0881 15.0719 28.8423 13.861 29.3946C12.6502 29.9469 11.3119 30.2231 9.8461 30.2231C8.08294 30.2231 6.51096 29.8513 5.13017 29.1078C3.77062 28.3643 2.69785 27.3021 1.91186 25.9214C1.14712 24.5406 0.764746 22.9155 0.764746 21.0461C0.764746 19.1767 1.14712 17.5623 1.91186 16.2027C2.67661 14.8219 3.73876 13.7598 5.09831 13.0163C6.4791 12.2728 8.0617 11.901 9.8461 11.901C11.6093 11.901 13.1706 12.2621 14.5302 12.9844C15.8897 13.7067 16.9519 14.7476 17.7166 16.1071C18.4814 17.4454 18.8637 19.028 18.8637 20.8549ZM12.4908 19.2936C12.4908 18.5288 12.2359 17.934 11.7261 17.5092C11.2163 17.0631 10.579 16.84 9.81424 16.84C9.04949 16.84 8.42283 17.0524 7.93424 17.4773C7.44565 17.8809 7.12701 18.4863 6.97831 19.2936H12.4908ZM24.4467 30.2549C23.3421 30.2549 22.4499 29.9575 21.7701 29.3627C21.1116 28.7467 20.7823 27.9713 20.7823 27.0366C20.7823 26.1019 21.1116 25.3266 21.7701 24.7105C22.4499 24.0945 23.3421 23.7864 24.4467 23.7864C25.5301 23.7864 26.4011 24.0945 27.0596 24.7105C27.7394 25.3266 28.0793 26.1019 28.0793 27.0366C28.0793 27.9501 27.7394 28.7148 27.0596 29.3308C26.4011 29.9469 25.5301 30.2549 24.4467 30.2549ZM39.5753 24.1051L42.9211 12.1241H49.5808L43.4309 30H35.656L29.5062 12.1241H36.1659L39.5753 24.1051ZM54.8516 10.4671C53.747 10.4671 52.8548 10.1697 52.175 9.57491C51.5164 8.95887 51.1872 8.19412 51.1872 7.28068C51.1872 6.34599 51.5164 5.57062 52.175 4.95458C52.8548 4.33853 53.747 4.03051 54.8516 4.03051C55.935 4.03051 56.8059 4.33853 57.4645 4.95458C58.1442 5.57062 58.4841 6.34599 58.4841 7.28068C58.4841 8.19412 58.1442 8.95887 57.4645 9.57491C56.8059 10.1697 55.935 10.4671 54.8516 10.4671ZM57.9424 12.1241V30H51.697V12.1241H57.9424ZM69.1146 30.2231C67.5002 30.2231 66.0557 29.9575 64.7811 29.4264C63.5278 28.8741 62.5293 28.1306 61.7858 27.1959C61.0636 26.24 60.66 25.1672 60.575 23.9776H66.6292C66.7142 24.5512 66.9797 24.9973 67.4258 25.3159C67.8719 25.6346 68.4243 25.7939 69.0828 25.7939C69.5926 25.7939 69.9962 25.6877 70.2936 25.4753C70.591 25.2628 70.7397 24.9867 70.7397 24.6468C70.7397 24.2007 70.4954 23.8714 70.0068 23.659C69.5183 23.4466 68.711 23.2129 67.5852 22.958C66.3106 22.7031 65.2484 22.4163 64.3987 22.0976C63.549 21.779 62.8055 21.2585 62.1682 20.5363C61.5522 19.814 61.2441 18.8368 61.2441 17.6047C61.2441 16.5426 61.5309 15.5867 62.1045 14.7369C62.678 13.866 63.5171 13.1756 64.6218 12.6658C65.7476 12.1559 67.0966 11.901 68.6685 11.901C71.0053 11.901 72.8428 12.4746 74.1811 13.6217C75.5194 14.7688 76.2948 16.2771 76.5072 18.1464H70.8672C70.761 17.5729 70.5061 17.1374 70.1024 16.84C69.7201 16.5214 69.1996 16.362 68.5411 16.362C68.0313 16.362 67.6383 16.4576 67.3621 16.6488C67.1072 16.84 66.9797 17.1055 66.9797 17.4454C66.9797 17.8703 67.224 18.1995 67.7126 18.4332C68.2012 18.6456 68.9872 18.8687 70.0706 19.1024C71.3664 19.3785 72.4392 19.6866 73.2889 20.0264C74.1598 20.3663 74.914 20.9186 75.5513 21.6834C76.2098 22.4269 76.5391 23.4466 76.5391 24.7424C76.5391 25.7833 76.231 26.718 75.615 27.5464C75.0202 28.3749 74.1598 29.0334 73.034 29.522C71.9293 29.9894 70.6229 30.2231 69.1146 30.2231ZM78.5898 21.0461C78.5898 19.198 78.9191 17.5835 79.5776 16.2027C80.2574 14.8219 81.1708 13.7598 82.318 13.0163C83.4863 12.2728 84.7821 11.901 86.2054 11.901C87.4375 11.901 88.4997 12.1453 89.3919 12.6339C90.2841 13.1225 90.9745 13.781 91.463 14.6095V12.1241H97.7085V30H91.463V27.5146C90.9745 28.3431 90.2734 29.0016 89.36 29.4902C88.4678 29.9788 87.4163 30.2231 86.2054 30.2231C84.7821 30.2231 83.4863 29.8513 82.318 29.1078C81.1708 28.3643 80.2574 27.3021 79.5776 25.9214C78.9191 24.5193 78.5898 22.8942 78.5898 21.0461ZM91.463 21.0461C91.463 19.899 91.1444 18.9962 90.5071 18.3376C89.8911 17.6791 89.1263 17.3498 88.2129 17.3498C87.2782 17.3498 86.5028 17.6791 85.8868 18.3376C85.2707 18.9749 84.9627 19.8777 84.9627 21.0461C84.9627 22.1932 85.2707 23.1067 85.8868 23.7864C86.5028 24.445 87.2782 24.7742 88.2129 24.7742C89.1263 24.7742 89.8911 24.445 90.5071 23.7864C91.1444 23.1279 91.463 22.2145 91.463 21.0461Z" fill="black"/>
<path d="M4.67451 41.1794H1.76847L1.23315 42.6611H0.315458L2.72441 36.0365H3.72814L6.12753 42.6611H5.20983L4.67451 41.1794ZM4.42597 40.472L3.22149 37.1072L2.01702 40.472H4.42597ZM14.1302 35.9983V36.7057H11.2337V38.9521H13.5853V39.6595H11.2337V42.6611H10.3638V35.9983H14.1302ZM23.4146 37.9293C23.2298 37.5405 22.9621 37.241 22.6116 37.0307C22.2611 36.814 21.8533 36.7057 21.388 36.7057C20.9228 36.7057 20.5022 36.814 20.1262 37.0307C19.7566 37.241 19.4634 37.5469 19.2467 37.9484C19.0364 38.3435 18.9313 38.8024 18.9313 39.3249C18.9313 39.8475 19.0364 40.3064 19.2467 40.7015C19.4634 41.0966 19.7566 41.4025 20.1262 41.6192C20.5022 41.8295 20.9228 41.9346 21.388 41.9346C22.0381 41.9346 22.5734 41.7403 22.994 41.3515C23.4146 40.9628 23.66 40.437 23.7301 39.7742H21.0726V39.0668H24.6573V39.736C24.6063 40.284 24.4343 40.7875 24.1411 41.2464C23.848 41.6988 23.4624 42.0589 22.9844 42.3266C22.5065 42.5878 21.9743 42.7185 21.388 42.7185C20.7699 42.7185 20.2059 42.5751 19.696 42.2883C19.1862 41.9952 18.7815 41.5905 18.482 41.0743C18.1889 40.5581 18.0423 39.975 18.0423 39.3249C18.0423 38.6749 18.1889 38.0918 18.482 37.5756C18.7815 37.053 19.1862 36.6483 19.696 36.3615C20.2059 36.0684 20.7699 35.9218 21.388 35.9218C22.0954 35.9218 22.72 36.0971 23.2617 36.4476C23.8097 36.7981 24.208 37.292 24.4566 37.9293H23.4146ZM34.1273 35.9983V42.6611H33.2574V39.6404H29.8638V42.6611H28.9939V35.9983H29.8638V38.9234H33.2574V35.9983H34.1273ZM42.7375 41.1794H39.8315L39.2962 42.6611H38.3785L40.7874 36.0365H41.7912L44.1906 42.6611H43.2729L42.7375 41.1794ZM42.489 40.472L41.2845 37.1072L40.08 40.472H42.489ZM53.6654 42.6611H52.7955L49.2968 37.3557V42.6611H48.4269V35.9887H49.2968L52.7955 41.2846V35.9887H53.6654V42.6611ZM59.2046 35.9983V42.6611H58.3347V35.9983H59.2046ZM65.9863 42.728C65.5465 42.728 65.1514 42.6516 64.8009 42.4986C64.4568 42.3393 64.1859 42.1226 63.9884 41.8486C63.7908 41.5682 63.6888 41.2464 63.6825 40.8831H64.6097C64.6416 41.1954 64.769 41.4598 64.9921 41.6765C65.2215 41.8868 65.5529 41.992 65.9863 41.992C66.4005 41.992 66.7255 41.89 66.9613 41.6861C67.2035 41.4758 67.3246 41.2081 67.3246 40.8831C67.3246 40.6282 67.2545 40.4211 67.1143 40.2617C66.9741 40.1024 66.7988 39.9813 66.5885 39.8985C66.3782 39.8156 66.0946 39.7264 65.7377 39.6308C65.298 39.5161 64.9443 39.4014 64.6766 39.2867C64.4153 39.172 64.1891 38.9935 63.9979 38.7514C63.8131 38.5028 63.7207 38.1714 63.7207 37.7572C63.7207 37.3939 63.8131 37.0721 63.9979 36.7917C64.1827 36.5113 64.4408 36.2946 64.7722 36.1417C65.11 35.9887 65.4955 35.9123 65.9289 35.9123C66.5534 35.9123 67.0633 36.0684 67.4584 36.3807C67.8599 36.6929 68.0861 37.1072 68.1371 37.6234H67.1812C67.1493 37.3685 67.0155 37.1454 66.7797 36.9542C66.5439 36.7567 66.2316 36.6579 65.8429 36.6579C65.4796 36.6579 65.1833 36.7535 64.9539 36.9447C64.7244 37.1295 64.6097 37.3908 64.6097 37.7285C64.6097 37.9707 64.6766 38.1683 64.8105 38.3212C64.9507 38.4741 65.1195 38.592 65.3171 38.6749C65.521 38.7514 65.8046 38.8406 66.1679 38.9426C66.6076 39.0636 66.9613 39.1847 67.229 39.3058C67.4966 39.4205 67.7261 39.6021 67.9172 39.8507C68.1084 40.0929 68.204 40.4243 68.204 40.8449C68.204 41.1699 68.118 41.4758 67.9459 41.7626C67.7739 42.0493 67.5189 42.2819 67.1812 42.4604C66.8434 42.6388 66.4451 42.728 65.9863 42.728ZM76.7715 35.9983V36.7057H74.9553V42.6611H74.0854V36.7057H72.2595V35.9983H76.7715ZM84.9672 41.1794H82.0612L81.5259 42.6611H80.6082L83.0171 36.0365H84.0208L86.4202 42.6611H85.5025L84.9672 41.1794ZM84.7187 40.472L83.5142 37.1072L82.3097 40.472H84.7187ZM95.8951 42.6611H95.0252L91.5265 37.3557V42.6611H90.6566V35.9887H91.5265L95.0252 41.2846V35.9887H95.8951V42.6611Z" fill="black"/>
</svg>
