<svg width="176" height="171" viewBox="0 0 176 171" fill="none" xmlns="http://www.w3.org/2000/svg">
<g clip-path="url(#clip0_539_1838)">
<path d="M60.2989 96.9355C63.4307 105.075 68.412 111.6 74.4489 115.36" stroke="#B14444" stroke-width="5" stroke-linecap="round" stroke-linejoin="round"/>
<path d="M60.2989 75.1083C61.0491 68.1642 65.0621 61.4555 70.9594 57.713C81.9863 62.8862 94.4614 64.0989 106.282 61.1502L106.387 61.124C105.881 63.9418 106.038 66.7771 106.797 69.4378" stroke="#B14444" stroke-width="5" stroke-linecap="round" stroke-linejoin="round"/>
<path d="M49.8214 74.7856V74.7508C49.6644 71.5317 49.8476 67.9025 50.6938 64.0379C51.0166 62.5636 56.4079 39.489 76.2372 34.5688C86.8192 31.9342 98.9977 35.1009 106.5 43.0832C108.638 45.3514 110.033 47.6196 110.914 49.3033C111.08 49.3731 111.368 49.5563 111.752 49.8268C117.388 53.7699 120.825 60.243 121.2 67.2046" stroke="#B14444" stroke-width="5" stroke-linecap="round" stroke-linejoin="round"/>
<path d="M148.733 153.256L155.284 211.619" stroke="#B14444" stroke-width="5" stroke-linecap="round" stroke-linejoin="round"/>
<path d="M21.9404 153.256L15.3801 211.619" stroke="#B14444" stroke-width="5" stroke-linecap="round" stroke-linejoin="round"/>
<path d="M49.7083 130.644L66.554 126.867C70.3402 126.021 74.3095 126.509 77.7729 128.263C82.5186 130.653 88.1106 130.662 92.8564 128.271L92.9087 128.245C96.3721 126.509 100.324 126.021 104.101 126.867L120.965 130.644" stroke="#B14444" stroke-width="5" stroke-linecap="round" stroke-linejoin="round"/>
<path d="M39.1176 186.703L37.3554 144.192C37.2681 142.692 38.1405 141.401 39.2572 141.401H131.363C132.48 141.401 133.352 142.692 133.265 144.192L131.503 186.703" stroke="#B14444" stroke-width="5" stroke-linecap="round" stroke-linejoin="round"/>
<path d="M52.6657 74.0878H57.5161C59.0166 74.0878 60.2292 75.3092 60.2292 76.8009V94.2224C60.2292 95.7229 59.0079 96.9355 57.5161 96.9355H52.6657C49.1063 96.9355 46.2188 94.048 46.2188 90.4886V80.526C46.2188 76.9667 49.1063 74.0791 52.6657 74.0791V74.0878Z" stroke="#B14444" stroke-width="5" stroke-linecap="round" stroke-linejoin="round"/>
<path d="M118.339 96.9356H113.488C111.988 96.9356 110.775 95.7143 110.775 94.2225V76.801C110.775 75.3005 111.997 74.0879 113.488 74.0879H118.339C121.898 74.0879 124.786 76.9755 124.786 80.5348V90.4974C124.786 94.0568 121.898 96.9443 118.339 96.9443V96.9356Z" stroke="#B14444" stroke-width="5" stroke-linecap="round" stroke-linejoin="round"/>
<path d="M96.1279 108.652L99.8181 110.021C101.144 110.518 102.479 110.832 103.814 110.99C112.162 111.984 120.31 106.689 122.465 98.1306L123.381 94.5015" stroke="#B14444" stroke-width="5" stroke-linecap="round" stroke-linejoin="round"/>
<path d="M94.2017 101.772L86.413 99.6951C84.4717 99.1774 82.4783 100.332 81.9607 102.273L80.8594 106.403C80.3418 108.345 81.4959 110.338 83.4372 110.855L91.2259 112.932C93.1672 113.45 95.1605 112.296 95.6781 110.354L96.7795 106.224C97.2971 104.283 96.143 102.289 94.2017 101.772Z" stroke="#B14444" stroke-width="5" stroke-linecap="round" stroke-linejoin="round"/>
<path d="M216.517 23.0533H138.796C136.31 23.0533 134.303 25.0685 134.303 27.5461V77.2283C134.303 79.7146 136.319 81.7211 138.796 81.7211H145.156C145.662 81.7211 146.081 82.1311 146.081 82.6458V97.9387C146.081 99.2647 147.633 99.9975 148.654 99.1426L168.728 82.4801C169.321 81.9828 170.071 81.7124 170.847 81.7124H216.525C219.012 81.7124 221.018 79.6972 221.018 77.2196V27.5461C221.018 25.0598 219.003 23.0533 216.525 23.0533H216.517Z" stroke="#B14444" stroke-width="5" stroke-linecap="round" stroke-linejoin="round"/>
<path d="M156 43.4933H199.314" stroke="#B14444" stroke-width="5" stroke-linecap="round" stroke-linejoin="round"/>
<path d="M156 61.2812H199.314" stroke="#B14444" stroke-width="5" stroke-linecap="round" stroke-linejoin="round"/>
</g>
<defs>
<clipPath id="clip0_539_1838">
<rect width="224.063" height="195.37" fill="white"/>
</clipPath>
</defs>
</svg>
