<svg width="19" height="18" viewBox="0 0 19 18" fill="none" xmlns="http://www.w3.org/2000/svg">
<g clip-path="url(#clip0_111_327)">
<path d="M5 6.75H15.4535L15.8285 5.25H6.5V3.75H16.79C16.904 3.75 17.0165 3.776 17.119 3.826C17.2214 3.87601 17.3111 3.94871 17.3813 4.03859C17.4514 4.12847 17.5001 4.23315 17.5237 4.34468C17.5473 4.45622 17.5452 4.57166 17.5175 4.68225L15.6425 12.1823C15.6019 12.3444 15.5082 12.4884 15.3764 12.5913C15.2446 12.6941 15.0822 12.75 14.915 12.75H4.25C4.05109 12.75 3.86032 12.671 3.71967 12.5303C3.57902 12.3897 3.5 12.1989 3.5 12V3H2V1.5H4.25C4.44891 1.5 4.63968 1.57902 4.78033 1.71967C4.92098 1.86032 5 2.05109 5 2.25V6.75ZM5 17.25C4.60218 17.25 4.22064 17.092 3.93934 16.8107C3.65804 16.5294 3.5 16.1478 3.5 15.75C3.5 15.3522 3.65804 14.9706 3.93934 14.6893C4.22064 14.408 4.60218 14.25 5 14.25C5.39783 14.25 5.77936 14.408 6.06066 14.6893C6.34197 14.9706 6.5 15.3522 6.5 15.75C6.5 16.1478 6.34197 16.5294 6.06066 16.8107C5.77936 17.092 5.39783 17.25 5 17.25ZM14 17.25C13.6022 17.25 13.2206 17.092 12.9393 16.8107C12.658 16.5294 12.5 16.1478 12.5 15.75C12.5 15.3522 12.658 14.9706 12.9393 14.6893C13.2206 14.408 13.6022 14.25 14 14.25C14.3978 14.25 14.7794 14.408 15.0607 14.6893C15.342 14.9706 15.5 15.3522 15.5 15.75C15.5 16.1478 15.342 16.5294 15.0607 16.8107C14.7794 17.092 14.3978 17.25 14 17.25Z" fill="#333333"/>
</g>
<defs>
<clipPath id="clip0_111_327">
<rect width="18" height="18" fill="white" transform="translate(0.5)"/>
</clipPath>
</defs>
</svg>
