<?xml version="1.0" encoding="utf-8"?>
<!-- Generator: Adobe Illustrator 25.2.0, SVG Export Plug-In . SVG Version: 6.00 Build 0)  -->
<svg version="1.1" id="Layer_1" xmlns="http://www.w3.org/2000/svg" xmlns:xlink="http://www.w3.org/1999/xlink" x="0px" y="0px"
	 viewBox="0 0 242 73" style="enable-background:new 0 0 242 73;" xml:space="preserve">
<path d="M66.6,1h8.2v72h-8.2V41.1H9.1V73H1V1h8.1v31.9h57.5V1z M98.1,0.9h48.5c3.3,0,6.2,1.2,8.5,3.6c2.4,2.3,3.6,5.2,3.6,8.6V30
	c0,3.3-1.2,6.2-3.6,8.6c-2.3,2.3-5.2,3.5-8.5,3.5H98.1c-1.1,0-2,0.4-2.8,1.2c-0.7,0.7-1.1,1.6-1.1,2.7v14.9c0,1.1,0.4,2,1.1,2.8
	c0.8,0.7,1.7,1.1,2.8,1.1h60.6V73H86V46c0-3.4,1.2-6.3,3.5-8.6c2.3-2.3,5.2-3.5,8.6-3.5h48.5c1.1,0,2-0.4,2.7-1.1
	c0.8-0.8,1.2-1.7,1.2-2.8V13.1c0-1.1-0.4-2-1.2-2.7c-0.7-0.8-1.6-1.2-2.7-1.2H98.1c-1.1,0-2,0.4-2.8,1.2c-0.7,0.7-1.1,1.6-1.1,2.7
	v2.8H86v-2.8c0-3.4,1.2-6.3,3.5-8.6C91.9,2.1,94.7,0.9,98.1,0.9z M181.1,1h48.5c3.3,0,6.2,1.2,8.5,3.6c2.4,2.3,3.6,5.2,3.6,8.6v47.7
	c0,3.3-1.2,6.2-3.6,8.6c-2.3,2.3-5.2,3.5-8.5,3.5h-48.5c-3.4,0-6.3-1.2-8.6-3.5c-2.3-2.4-3.5-5.3-3.5-8.6V13.2
	c0-3.4,1.2-6.3,3.5-8.6C174.9,2.2,177.7,1,181.1,1z M232.4,9.3h-51.3c-1.1,0-2,0.4-2.8,1.2c-0.7,0.7-1.1,1.6-1.1,2.7v41.7L232.4,9.3
	z M178.2,64.8h51.4c1.1,0,2-0.4,2.7-1.1c0.8-0.8,1.2-1.7,1.2-2.8V19.2L178.2,64.8z"/>
</svg>
