<svg width="28" height="28" viewBox="0 0 28 28" fill="none" xmlns="http://www.w3.org/2000/svg">
<g clip-path="url(#clip0_590_3824)">
<path d="M21.5952 19.4989C21.5952 19.6779 21.5945 19.8569 21.5954 20.0359C21.5977 20.5119 21.6164 20.9875 21.6212 21.4637C21.6269 22.0347 21.6458 22.6057 21.6629 23.1767C21.68 23.7477 21.7065 24.3183 21.7208 24.8894C21.7368 25.529 21.7366 26.1691 21.7581 26.8085C21.7684 27.1134 21.7526 27.417 21.7517 27.7212C21.751 27.9481 21.7158 27.9741 21.4928 27.9749C21.051 27.9763 20.6094 27.9653 20.1678 27.9566C19.5838 27.9452 18.9999 27.9639 18.4158 27.9626C18.0228 27.9617 17.6299 27.9513 17.237 27.9393C16.9453 27.9303 16.6531 27.9379 16.3611 27.9397C15.7473 27.9434 15.1335 27.9361 14.5198 27.9595C13.5545 27.9963 12.589 28.0038 11.623 27.9974C10.6609 27.9911 9.69871 27.9983 8.73652 27.9987C8.39962 27.9989 8.06239 28.0046 7.72583 27.9926C7.43821 27.9824 7.14993 27.9694 6.86433 27.9271C6.67034 27.8983 6.47613 27.9038 6.28159 27.9171C6.25169 27.9191 6.22189 27.9238 6.19199 27.9234C6.08077 27.9215 6.03161 27.8721 6.04561 27.7584C6.09903 27.3224 6.06745 26.8836 6.09388 26.4466C6.13644 25.7432 6.12793 25.0381 6.14405 24.3338C6.15693 23.7701 6.14798 23.2063 6.16511 22.6429C6.18695 21.9231 6.16601 21.2031 6.18661 20.4837C6.20095 19.981 6.19468 19.4781 6.21025 18.9758C6.22537 18.4884 6.21517 18.0008 6.23018 17.5136C6.24732 16.9577 6.23735 16.4015 6.25337 15.8456C6.27375 15.1411 6.26412 14.4365 6.27353 13.7321C6.28036 13.2179 6.28148 12.7039 6.27946 12.1897C6.27935 12.1593 6.28069 12.1287 6.2789 12.0983C6.2742 12.0147 6.26759 12.0081 6.18337 12.0204C5.99218 12.0485 5.81321 12.1077 5.65338 12.224C5.37025 12.43 5.08442 12.6321 4.7995 12.8356C4.67954 12.9213 4.555 12.997 4.41063 13.0345C4.34881 13.0505 4.29494 13.0849 4.24252 13.1233C4.1667 13.1789 4.0874 13.2299 4.00676 13.2778C3.91279 13.3337 3.86194 13.3252 3.79362 13.2368C3.65945 13.0633 3.5293 12.8866 3.39748 12.7112C2.99058 12.1696 2.56017 11.6469 2.14599 11.1112C1.73551 10.5802 1.2949 10.0789 0.799975 9.62693C0.560407 9.4082 0.331143 9.17804 0.0859753 8.96535C-0.0246807 8.86936 -0.0281527 8.81168 0.0734313 8.71021C0.220823 8.56304 0.342791 8.39314 0.483351 8.24082C0.713735 7.99106 0.903351 7.70613 1.14359 7.46511C1.38103 7.227 1.59439 6.96615 1.81828 6.71516C2.32385 6.14821 2.81743 5.57052 3.31079 4.99248C3.76484 4.46048 4.21082 3.92176 4.65289 3.37935C4.96817 2.9925 5.2961 2.61607 5.6265 2.24255C5.7413 2.11274 5.88724 2.01519 6.04639 1.94261C6.60684 1.68703 7.18957 1.49248 7.76906 1.28932C8.49034 1.03642 9.20927 0.77602 9.94197 0.5593C10.2004 0.482804 10.459 0.408213 10.7134 0.319173C10.9008 0.253653 11.0878 0.187349 11.2759 0.123845C11.3264 0.106821 11.3723 0.0829645 11.4158 0.0528365C11.5171 -0.0174995 11.6215 -0.0173875 11.7203 0.0518285C12.0157 0.258581 12.3465 0.392869 12.6731 0.534213C13.055 0.699525 13.4556 0.788117 13.8714 0.804133C14.6335 0.833589 15.3683 0.694037 16.0836 0.435205C16.1821 0.399589 16.2764 0.352101 16.3721 0.308981C16.5568 0.225877 16.7418 0.143333 16.9255 0.0579885C16.9936 0.0264045 17.056 0.0288685 17.1159 0.0729965C17.1491 0.0974125 17.1845 0.121381 17.2109 0.152405C17.2781 0.231477 17.362 0.276725 17.4619 0.290165C17.5443 0.301253 17.6222 0.324773 17.6992 0.355573C17.7546 0.377749 17.8128 0.394549 17.871 0.407541C18.2752 0.497813 18.6565 0.653829 19.0337 0.822725C19.5816 1.068 20.1427 1.28058 20.6987 1.50592C20.9524 1.60874 21.2102 1.70215 21.4587 1.81639C21.814 1.97968 22.154 2.17232 22.4541 2.42992C22.4882 2.45927 22.5197 2.49242 22.5491 2.52669C23.1491 3.22311 23.7139 3.94797 24.2497 4.69669C24.4811 5.01992 24.7159 5.34069 24.9545 5.65844C25.1729 5.94941 25.3675 6.2564 25.5622 6.56373C26.1359 7.46959 26.7116 8.3741 27.2855 9.27984C27.454 9.54573 27.6622 9.78104 27.8437 10.0369C27.881 10.0894 27.9218 10.1393 27.9576 10.1926C28.0248 10.2929 28.0133 10.367 27.9134 10.435C27.7859 10.5218 27.6551 10.6036 27.5246 10.6858C27.3813 10.7762 27.2451 10.8764 27.1091 10.9778C26.5475 11.3965 25.9896 11.8205 25.4588 12.2791C24.9767 12.6957 24.4993 13.1183 24.0613 13.5843C23.9734 13.6777 23.8776 13.7637 23.7819 13.849C23.6802 13.9397 23.6003 13.9504 23.5001 13.8641C23.2181 13.6212 22.9126 13.4055 22.6782 13.1071C22.4516 12.8186 22.213 12.5397 21.9797 12.2566C21.9605 12.2333 21.9376 12.2125 21.9215 12.1871C21.8283 12.0419 21.6779 12.011 21.5273 11.9793C21.4942 11.9723 21.4769 11.9852 21.4737 12.0181C21.4688 12.0711 21.4627 12.1241 21.4608 12.1773C21.4408 12.7293 21.449 13.2815 21.4605 13.8335C21.4766 14.6065 21.491 15.3795 21.5059 16.1525C21.515 16.6323 21.5217 17.1121 21.5331 17.5918C21.5483 18.2275 21.5672 18.8631 21.5846 19.4988C21.5881 19.4988 21.5914 19.4988 21.5949 19.4988L21.5952 19.4989Z" fill="#00ACC1"/>
</g>
<defs>
<clipPath id="clip0_590_3824">
<rect width="28" height="28" fill="white"/>
</clipPath>
</defs>
</svg>
