<svg width="27" height="22" viewBox="0 0 27 22" fill="none" xmlns="http://www.w3.org/2000/svg">
<g clip-path="url(#clip0_590_3832)">
<path d="M9.21882 3.4021H7.6241C7.2724 3.4021 6.7278 3.47281 6.94366 3.23686C6.94366 3.23686 8.58961 0.360674 8.59445 0.355886L8.6308 0.320285C8.83834 0.116746 9.14314 0 9.46693 0H17.5332C17.8569 0 18.1617 0.116624 18.3692 0.32004L18.4056 0.355763C18.4105 0.360551 20.0566 3.23686 20.0566 3.23686C20.2725 3.47281 19.7246 3.4021 19.3728 3.4021H17.7781C17.6341 3.4021 17.5 3.33985 17.4222 3.23686L17.0821 1.50506C17.0557 1.39482 16.953 1.30189 16.8125 1.2712C16.7785 1.26371 16.743 1.2599 16.707 1.2599H10.2928C10.2568 1.2599 10.2214 1.26371 10.1873 1.2712C10.0469 1.30189 9.94417 1.3947 9.91749 1.50481L9.57448 3.23698C9.4967 3.33998 9.3626 3.40222 9.21857 3.40222L9.21882 3.4021Z" fill="#00ACC1"/>
<path d="M26.637 12.344C26.7601 12.2906 26.8809 12.2364 27.0001 12.1818V5.80962C27.0001 4.73987 26.1238 3.87256 25.0427 3.87256H1.95746C0.876322 3.87256 0 4.73975 0 5.80962V12.1818C0.119092 12.2364 0.240046 12.2906 0.363108 12.344C3.59436 13.7465 7.81309 14.568 12.3455 14.6875V13.519C12.3455 13.0853 12.7021 12.7325 13.1404 12.7325H13.8598C14.298 12.7325 14.6546 13.0853 14.6546 13.519V14.6875C19.1869 14.568 23.4058 13.7465 26.637 12.344Z" fill="#00ACC1"/>
<path d="M26.8735 12.8774C25.1312 13.6336 23.1048 14.2269 20.8504 14.6407C18.8749 15.0034 16.7958 15.2143 14.6546 15.27V16.4687C14.6546 16.9024 14.298 17.2552 13.8598 17.2552H13.1404C12.7021 17.2552 12.3455 16.9024 12.3455 16.4687V15.27C10.2044 15.2143 8.12521 15.0034 6.14976 14.6407C3.89532 14.2268 1.86888 13.6336 0.12666 12.8774C0.0841091 12.859 0.0420545 12.8403 0 12.8218V20.063C0 21.1327 0.876322 22.0001 1.95746 22.0001H25.0425C26.1237 22.0001 27 21.1327 27 20.063V12.8218C26.9579 12.8403 26.9159 12.859 26.8733 12.8774H26.8735Z" fill="#00ACC1"/>
<path d="M12.9342 15.2812V16.4686C12.9342 16.5811 13.0268 16.6726 13.1404 16.6726H13.8598C13.9734 16.6726 14.066 16.5812 14.066 16.4686V15.2812C13.8778 15.2836 13.6892 15.2849 13.5 15.2849C13.3108 15.2849 13.1224 15.2836 12.9341 15.2812H12.9342Z" fill="#00ACC1"/>
</g>
<defs>
<clipPath id="clip0_590_3832">
<rect width="27" height="22" fill="white"/>
</clipPath>
</defs>
</svg>
