<svg width="45" height="45" viewBox="0 0 45 45" fill="none" xmlns="http://www.w3.org/2000/svg">
<g clip-path="url(#clip0_590_3711)">
<path d="M4.47554 20.7289C4.46338 20.6541 4.46338 20.5672 4.46338 20.4907C4.46338 10.7381 12.3927 2.80881 22.1314 2.80881C31.8701 2.80881 39.8133 10.7381 39.8133 20.4907C39.8133 20.5655 39.8133 20.6402 39.8012 20.7149C40.8631 21.2399 41.7739 22.0012 42.4726 22.938C42.5735 22.1385 42.6221 21.3146 42.6221 20.4907C42.6239 9.19119 33.4327 0 22.1314 0C10.8301 0 1.65283 9.19119 1.65283 20.4907C1.65283 21.3268 1.70324 22.1385 1.80231 22.9502C2.48887 22.0133 3.41355 21.2399 4.47381 20.7271L4.47554 20.7289Z" fill="#043065"/>
<path d="M3.11475 27.4189C3.11475 29.9966 5.20571 32.0858 7.78334 32.0858C10.361 32.0858 12.4502 29.9966 12.4502 27.4189C12.4502 24.8413 10.361 22.7521 7.78334 22.7521C5.20571 22.7521 3.11475 24.8413 3.11475 27.4189Z" fill="#043065"/>
<path d="M11.7825 33.3146C10.6406 34.0915 9.26398 34.5469 7.78136 34.5469C6.29874 34.5469 4.92041 34.0915 3.77846 33.3146C1.52586 34.5799 -0.00195312 36.9907 -0.00195312 39.7543V40.7138C-0.00195312 41.7601 0.847989 42.5979 1.88217 42.5979H11.9025V42.1547C11.9025 39.6813 12.8254 37.4148 14.3393 35.6923C13.691 34.712 12.8132 33.8951 11.7825 33.3146Z" fill="#043065"/>
<path d="M36.5006 22.7502C33.923 22.7502 31.832 24.8395 31.832 27.4171C31.832 29.9947 33.923 32.084 36.5006 32.084C39.0783 32.084 41.1675 29.9947 41.1675 27.4171C41.1675 24.8395 39.0783 22.7502 36.5006 22.7502Z" fill="#043065"/>
<path d="M40.5016 33.3146C39.3597 34.0933 37.9814 34.5486 36.4987 34.5486C35.0161 34.5486 33.6378 34.0933 32.4958 33.3146C31.4704 33.8916 30.5943 34.7033 29.9478 35.6819C31.4617 37.4044 32.3846 39.6692 32.3846 42.1564V42.5996H42.391C43.4373 42.5996 44.2751 41.7619 44.2751 40.7155V39.7561C44.2751 36.9907 42.7542 34.5817 40.4999 33.3163L40.5016 33.3146Z" fill="#043065"/>
<path d="M17.4731 29.8158C17.4731 32.3934 19.5641 34.4826 22.1417 34.4826C24.7194 34.4826 26.8086 32.3934 26.8086 29.8158C26.8086 27.2381 24.7194 25.1489 22.1417 25.1489C19.5641 25.1489 17.4731 27.2381 17.4731 29.8158Z" fill="#043065"/>
<path d="M26.1433 35.7114C25.0014 36.4884 23.623 36.9455 22.1404 36.9455C20.6578 36.9455 19.2795 36.4901 18.1375 35.7114C15.8849 36.975 14.3623 39.3823 14.3623 42.1494V43.1141C14.3623 44.1552 15.207 45 16.2482 45H28.0326C29.0738 45 29.9185 44.1552 29.9185 43.1141V42.1494C29.9185 39.3823 28.3942 36.975 26.1433 35.7114Z" fill="#043065"/>
<path d="M30.977 16.7399V10.7521C30.977 9.34074 29.8316 8.19531 28.4202 8.19531H15.8571C14.4457 8.19531 13.3003 9.34074 13.3003 10.7521V16.7399C13.3003 18.1513 14.4457 19.2967 15.8571 19.2967H19.6114L21.2279 22.1785C21.6259 22.8877 22.6479 22.8877 23.0459 22.1785L24.6624 19.2967H28.4185C29.8298 19.2967 30.9753 18.1513 30.9753 16.7399H30.977ZM22.1386 12.3147C22.9295 12.3147 23.5726 12.956 23.5726 13.7451C23.5726 14.5342 22.9295 15.1774 22.1386 15.1774C21.3478 15.1774 20.7082 14.536 20.7082 13.7451C20.7082 12.9543 21.3495 12.3147 22.1386 12.3147ZM17.2806 15.1774C16.4915 15.1774 15.8484 14.536 15.8484 13.7451C15.8484 12.9543 16.4915 12.3147 17.2806 12.3147C18.0697 12.3147 18.7128 12.956 18.7128 13.7451C18.7128 14.5342 18.0697 15.1774 17.2806 15.1774ZM26.9967 15.1774C26.2076 15.1774 25.5645 14.536 25.5645 13.7451C25.5645 12.9543 26.2076 12.3147 26.9967 12.3147C27.7858 12.3147 28.4289 12.956 28.4289 13.7451C28.4289 14.5342 27.7858 15.1774 26.9967 15.1774Z" fill="#00ACC1"/>
</g>
<defs>
<clipPath id="clip0_590_3711">
<rect width="44.2769" height="45" fill="white"/>
</clipPath>
</defs>
</svg>
