<svg width="23" height="32" viewBox="0 0 23 32" fill="none" xmlns="http://www.w3.org/2000/svg">
<g clip-path="url(#clip0_590_3844)">
<path fill-rule="evenodd" clip-rule="evenodd" d="M17.6435 11.2085L22.3939 14.8853C23.0693 15.4117 23.1997 16.3948 22.6779 17.0837C22.1637 17.7649 21.1814 17.8965 20.506 17.3701L17.1447 14.777L17.6358 11.2085H17.6435ZM4.00621 29.7088C4.62783 29.8403 5.01922 30.4596 4.88876 31.0789C4.75829 31.7059 4.14435 32.1084 3.5304 31.969C2.90878 31.8374 2.50971 31.2182 2.64785 30.5912C2.77831 29.9642 3.39226 29.5617 4.01388 29.701L4.00621 29.7088ZM7.62082 18.2293L5.22643 29.523C4.9655 29.2211 4.59713 29.0044 4.18272 28.9115C3.12366 28.6792 2.08762 29.3604 1.85739 30.4209L1.36624 30.3203C0.437641 30.119 -0.153284 29.1901 0.0385748 28.2535L1.48903 21.4572C1.68088 20.5206 2.60948 19.9245 3.53807 20.118L6.27781 20.7141L6.85339 18.0048C6.27014 17.641 5.97852 16.9057 6.18572 16.2167L7.74361 11.0924C7.9585 10.4112 8.47268 9.77649 9.10197 9.44364L12.1333 7.83358C12.8547 7.45428 13.6145 6.96662 14.4356 6.90469C15.9935 6.78084 17.2598 8.24383 17.0372 9.79197L15.9628 17.5017C15.8707 18.1751 15.9935 18.477 16.5 18.9182L18.8944 21.0082C19.4316 21.4804 19.8 22.208 19.8537 22.9202L20.3756 29.9797C20.4523 31.0092 19.6772 31.9226 18.6489 32C17.6205 32.0774 16.7226 31.2956 16.6458 30.2583L16.1547 23.6014L12.2561 20.2187C11.0589 19.1892 10.7596 18.1519 10.9899 16.5264L11.6729 11.6033L10.6675 12.1374L9.14802 17.1301C8.94081 17.8113 8.30384 18.2525 7.62082 18.2293ZM15.8784 0C17.5361 0 18.8637 1.34688 18.8637 3.01113C18.8637 4.67538 17.5284 6.02225 15.8784 6.02225C14.2284 6.02225 12.8931 4.67538 12.8931 3.01113C12.8931 1.34688 14.2284 0 15.8784 0ZM9.14802 31.9071C10.1227 32.2167 11.1817 31.6749 11.4964 30.6918L14.0136 22.8118L11.7343 20.8379C11.435 20.5825 11.1817 20.3193 10.9668 20.0484L7.93547 29.5462C7.6285 30.5293 8.1657 31.5975 9.14034 31.9149L9.14802 31.9071Z" fill="#00ACC1"/>
</g>
<defs>
<clipPath id="clip0_590_3844">
<rect width="23" height="32" fill="white"/>
</clipPath>
</defs>
</svg>
