<svg width="33" height="22" viewBox="0 0 33 22" fill="none" xmlns="http://www.w3.org/2000/svg">
<g clip-path="url(#clip0_590_3810)">
<path d="M2.75 18.0376V20.6252C2.75 21.005 3.05766 21.3127 3.4375 21.3127H7.5625C7.94234 21.3127 8.25 21.005 8.25 20.6252V18.5627" stroke="#00ACC1" stroke-width="2" stroke-linecap="round" stroke-linejoin="round"/>
<path d="M30.25 18.0376V20.6252C30.25 21.005 29.9423 21.3127 29.5625 21.3127H25.4375C25.0577 21.3127 24.75 21.005 24.75 20.6252V18.5627" stroke="#00ACC1" stroke-width="2" stroke-linecap="round" stroke-linejoin="round"/>
<path d="M16.5 7.5625H24.75C26.3545 7.5625 26.9423 6.66445 27.0737 6.48227L27.983 5.11844C28.1102 4.9268 28.325 4.8125 28.5553 4.8125H31.625C32.0048 4.8125 32.3125 5.12016 32.3125 5.5V6.875C32.3125 7.25484 32.1604 7.39578 31.7883 7.50578L28.875 8.25L30.8223 10.8264C30.898 10.939 30.9375 11.3438 30.9375 11.6875V16.5C30.9375 17.6395 30.0145 18.5625 28.875 18.5625H4.125C2.98547 18.5625 2.0625 17.6395 2.0625 16.5V11.6875C2.0625 11.3438 2.10289 10.9398 2.17766 10.8264L4.125 8.25L1.21172 7.50578C0.839609 7.39578 0.6875 7.25398 0.6875 6.875V5.5C0.6875 5.12016 0.995156 4.8125 1.375 4.8125H4.44469C4.675 4.8125 4.88898 4.92766 5.01703 5.11844L5.92625 6.48227C6.05859 6.66445 6.64641 7.5625 8.25 7.5625H16.5Z" fill="#00ACC1" stroke="#00ACC1" stroke-width="2" stroke-linecap="round" stroke-linejoin="round"/>
<path d="M27.4057 5.98555C27.4057 5.98555 25.8373 2.74484 25.5021 2.23438C25.2031 1.77977 24.8636 1.48844 23.9828 1.25898C22.6224 0.905781 19.465 0.6875 16.5002 0.6875C13.5354 0.6875 10.378 0.905781 9.01762 1.25898C8.13676 1.48758 7.7973 1.77891 7.49824 2.23438C7.16309 2.74484 5.59473 5.98555 5.59473 5.98555" stroke="#00ACC1" stroke-width="2" stroke-linecap="round" stroke-linejoin="round"/>
<path d="M22.3438 15.125H16.5H10.6562" stroke="#F6F6F6" stroke-width="2" stroke-linecap="round" stroke-linejoin="round"/>
<path d="M4.44727 11C5.28602 11.4426 6.00187 11.6884 7.10102 11.6884H9.28125" stroke="#F6F6F6" stroke-width="2" stroke-linecap="round" stroke-linejoin="round"/>
<path d="M28.5527 11C27.714 11.4426 26.9981 11.6884 25.899 11.6884H23.7188" stroke="#F6F6F6" stroke-width="2" stroke-linecap="round" stroke-linejoin="round"/>
</g>
<defs>
<clipPath id="clip0_590_3810">
<rect width="33" height="22" fill="white"/>
</clipPath>
</defs>
</svg>
