<?xml version="1.0" encoding="UTF-8"?>
<svg width="60px" height="60px" viewBox="0 0 60 60" version="1.1" xmlns="http://www.w3.org/2000/svg" xmlns:xlink="http://www.w3.org/1999/xlink">
    <title>logo</title>
    <defs>
        <radialGradient cx="51.140611%" cy="85.1529948%" fx="51.140611%" fy="85.1529948%" r="50%" gradientTransform="translate(0.5114, 0.8515), rotate(90), scale(1, 1.6055), translate(-0.5114, -0.8515)" id="radialGradient-1">
            <stop stop-color="#96CCF6" offset="0%"></stop>
            <stop stop-color="#1759F8" offset="100%"></stop>
        </radialGradient>
    </defs>
    <g id="Symbols" stroke="none" stroke-width="1" fill="none" fill-rule="evenodd">
        <g id="logo">
            <circle id="gradient-blue" stroke="#FFFFFF" stroke-width="2.35" fill="url(#radialGradient-1)" cx="30" cy="30" r="28.825"></circle>
            <g id="Group-7" transform="translate(13.5294, 14.7059)" fill="#FFFFFF">
                <path d="M29.4723507,21.2037628 C29.4723507,23.2244575 27.8185459,24.8595062 25.7797645,24.8595062 L21.4470692,24.8595062 L12.6427227,29.1782901 L12.6427227,24.8595062 L7.75192528,24.8595062 C5.71314388,24.8595062 4.05933907,23.2244575 4.05933907,21.2037628 L4.05933907,7.98129298 C4.05933907,5.96285353 5.71314388,4.32554957 7.75192528,4.32554957 L25.7797645,4.32554957 C27.8185459,4.32554957 29.4723507,5.96285353 29.4723507,7.98129298 L29.4723507,21.2037628 Z M25.3970658,0 L8.13234595,0 C3.64019295,0 0,3.60612814 0,8.05346065 L0,21.1270847 C0,25.5744172 3.64019295,29.1782901 8.13234595,29.1782901 L12.6404447,29.1782901 L12.6381668,34.7058824 L20.893523,29.1782901 L25.3970658,29.1782901 C29.8869408,29.1782901 33.5294118,25.5744172 33.5294118,21.1270847 L33.5294118,8.05346065 C33.5294118,3.60612814 29.8869408,0 25.3970658,0 L25.3970658,0 Z" id="Fill-1"></path>
                <path d="M10.0926514,8.28193897 C9.1698465,8.28193897 8.57347446,8.89987462 8.57347446,9.85609622 L8.57347446,19.5786597 C8.57347446,20.5348813 9.1698465,21.1528169 10.0926514,21.1528169 C11.0047498,21.1528169 11.5940601,20.5348813 11.5940601,19.5786597 L11.5940601,9.85609622 C11.5940601,8.89987462 11.0047498,8.28193897 10.0926514,8.28193897" id="Fill-3"></path>
                <path d="M21.8862387,14.8293055 C21.8862387,17.0989786 20.5499826,18.4007029 18.2198491,18.4007029 L16.0266215,18.4007029 L16.0266215,11.2581336 L18.2198491,11.2581336 C20.5499826,11.2581336 21.8862387,12.5598579 21.8862387,14.8293055 M18.0651751,8.38789013 L14.520429,8.38789013 C13.5550261,8.38789013 12.9308629,9.00560026 12.9308629,9.96159633 L12.9308629,19.4732949 C12.9308629,20.429291 13.5550261,21.0470011 14.520429,21.0470011 L18.0651751,21.0470011 C22.3798744,21.0470011 24.9560284,18.6808037 24.9560284,14.7174456 C24.9560284,10.7540875 22.3798744,8.38789013 18.0651751,8.38789013" id="Fill-5"></path>
            </g>
        </g>
    </g>
</svg>