<?xml version="1.0" encoding="utf-8"?>
<!-- Generator: Adobe Illustrator 19.0.0, SVG Export Plug-In . SVG Version: 6.00 Build 0)  -->
<svg version="1.1" id="Layer_1" xmlns="http://www.w3.org/2000/svg" xmlns:xlink="http://www.w3.org/1999/xlink" x="0px" y="0px"
	 viewBox="285 -285 620 620" style="enable-background:new 285 -285 620 620;" xml:space="preserve">
<style type="text/css">
	.st0{fill:#812C26;}
</style>
<g>
	<g>
		<g>
			<g>
				
					<rect id="XMLID_219_" x="768.2" y="-155.7" transform="matrix(-0.7071 -0.7071 0.7071 -0.7071 1416.8856 291.4901)" class="st0" width="1.2" height="15.9"/>
			</g>
		</g>
	</g>
	<g>
		<g>
			<g>
				
					<rect id="XMLID_218_" x="742.6" y="-154.3" transform="matrix(0.682 -0.7314 0.7314 0.682 354.8863 508.8295)" class="st0" width="39.8" height="1.2"/>
			</g>
		</g>
	</g>
	<g>
		<g>
			<g>
				
					<rect id="XMLID_217_" x="738.4" y="-159.9" transform="matrix(0.656 -0.7547 0.7547 0.656 380.4236 516.0098)" class="st0" width="35.8" height="1.1"/>
			</g>
		</g>
	</g>
	<g>
		<g>
			<g>
				
					<rect id="XMLID_216_" x="734.3" y="-165.5" transform="matrix(0.6293 -0.7772 0.7772 0.6293 406.0566 521.5209)" class="st0" width="30.7" height="1.2"/>
			</g>
		</g>
	</g>
	<g>
		<g>
			<g>
				
					<rect id="XMLID_215_" x="729.6" y="-170.8" transform="matrix(0.6018 -0.7986 0.7986 0.6018 431.7017 525.5308)" class="st0" width="26.5" height="1.2"/>
			</g>
		</g>
	</g>
	<g>
		<g>
			<g>
				
					<rect id="XMLID_214_" x="719" y="-175.7" transform="matrix(0.5736 -0.8191 0.8191 0.5736 457.2738 528.2238)" class="st0" width="34.1" height="1.1"/>
			</g>
		</g>
	</g>
	<g>
		<g>
			<g>
				
					<rect id="XMLID_213_" x="704.7" y="-180.5" transform="matrix(0.5446 -0.8387 0.8387 0.5446 482.8767 529.374)" class="st0" width="48.4" height="1.1"/>
			</g>
		</g>
	</g>
	<g>
		<g>
			<g>
				
					<rect id="XMLID_212_" x="701.3" y="-185" transform="matrix(0.515 -0.8572 0.8572 0.515 508.1371 529.1642)" class="st0" width="40.7" height="1.1"/>
			</g>
		</g>
	</g>
	<g>
		<g>
			<g>
				
					<rect id="XMLID_211_" x="693.8" y="-189.4" transform="matrix(0.4848 -0.8746 0.8746 0.4848 533.1182 527.4262)" class="st0" width="41" height="1.2"/>
			</g>
		</g>
	</g>
	<g>
		<g>
			<g>
				
					<rect id="XMLID_210_" x="697" y="-193.3" transform="matrix(0.4541 -0.891 0.891 0.4541 557.5733 524.3973)" class="st0" width="19.5" height="1.1"/>
			</g>
		</g>
	</g>
	<g>
		<g>
			<g>
				
					<rect id="XMLID_209_" x="695.1" y="-197.1" transform="matrix(0.4227 -0.9063 0.9063 0.4227 581.616 519.9445)" class="st0" width="7.6" height="1.2"/>
			</g>
		</g>
	</g>
	<g>
		<g>
			<g>
				
					<rect id="XMLID_208_" x="665.4" y="-200.6" transform="matrix(0.3908 -0.9205 0.9205 0.3908 605.1887 514.3244)" class="st0" width="51.5" height="1.1"/>
			</g>
		</g>
	</g>
	<g>
		<g>
			<g>
				
					<rect id="XMLID_207_" x="661.9" y="-203.8" transform="matrix(0.3584 -0.9336 0.9336 0.3584 628.0465 507.3815)" class="st0" width="42.5" height="1.2"/>
			</g>
		</g>
	</g>
	<g>
		<g>
			<g>
				
					<rect id="XMLID_206_" x="661.7" y="-206.8" transform="matrix(0.3256 -0.9455 0.9455 0.3256 650.2974 499.2895)" class="st0" width="26.9" height="1.1"/>
			</g>
		</g>
	</g>
	<g>
		<g>
			<g>
				
					<rect id="XMLID_205_" x="657.5" y="-209.4" transform="matrix(0.2924 -0.9563 0.9563 0.2924 671.7349 490.1359)" class="st0" width="19.2" height="1.1"/>
			</g>
		</g>
	</g>
	<g>
		<g>
			<g>
				
					<rect id="XMLID_204_" x="635.2" y="-211.8" transform="matrix(0.2588 -0.9659 0.9659 0.2588 692.3735 479.84)" class="st0" width="47.3" height="1.2"/>
			</g>
		</g>
	</g>
	<g>
		<g>
			<g>
				
					<rect id="XMLID_203_" x="633.2" y="-213.8" transform="matrix(0.225 -0.9744 0.9744 0.225 711.8246 468.5276)" class="st0" width="34.5" height="1.2"/>
			</g>
		</g>
	</g>
	<g>
		<g>
			<g>
				
					<rect id="XMLID_202_" x="616.1" y="-215.6" transform="matrix(0.1908 -0.9816 0.9816 0.1908 730.7338 456.3149)" class="st0" width="52" height="1.1"/>
			</g>
		</g>
	</g>
	<g>
		<g>
			<g>
				
					<rect id="XMLID_201_" x="628.3" y="-217" transform="matrix(0.1565 -0.9877 0.9877 0.1565 748.3223 443.3195)" class="st0" width="10.9" height="1.1"/>
			</g>
		</g>
	</g>
	<g>
		<g>
			<g>
				
					<rect id="XMLID_200_" x="611.2" y="-218.3" transform="matrix(0.1218 -0.9926 0.9926 0.1218 765.1437 429.3978)" class="st0" width="28.1" height="1.2"/>
			</g>
		</g>
	</g>
	<g>
		<g>
			<g>
				
					<rect id="XMLID_199_" x="606" y="-219.3" transform="matrix(8.715371e-002 -0.9962 0.9962 8.715371e-002 780.7848 414.7623)" class="st0" width="21.5" height="1.2"/>
			</g>
		</g>
	</g>
	<g>
		<g>
			<g>
				
					<rect id="XMLID_198_" x="583.2" y="-219.8" transform="matrix(5.236030e-002 -0.9986 0.9986 5.236030e-002 795.2969 399.6405)" class="st0" width="50.1" height="1.1"/>
			</g>
		</g>
	</g>
	<g>
		<g>
			<g>
				
					<rect id="XMLID_197_" x="574.9" y="-220" transform="matrix(1.745649e-002 -0.9998 0.9998 1.745649e-002 808.6389 383.9343)" class="st0" width="49.5" height="1.1"/>
			</g>
		</g>
	</g>
	<g>
		<g>
			<g>
				
					<rect id="XMLID_196_" x="563.8" y="-220.1" transform="matrix(-1.745052e-002 -0.9998 0.9998 -1.745052e-002 820.8527 367.6207)" class="st0" width="54.5" height="1.2"/>
			</g>
		</g>
	</g>
	<g>
		<g>
			<g>
				
					<rect id="XMLID_195_" x="571.2" y="-219.7" transform="matrix(-5.233460e-002 -0.9986 0.9986 -5.233460e-002 831.8948 351.1268)" class="st0" width="22.7" height="1.1"/>
			</g>
		</g>
	</g>
	<g>
		<g>
			<g>
				
					<rect id="XMLID_194_" x="560.1" y="-219.2" transform="matrix(-8.720658e-002 -0.9962 0.9962 -8.720658e-002 841.7806 334.0973)" class="st0" width="27.7" height="1.2"/>
			</g>
		</g>
	</g>
	<g>
		<g>
			<g>
				
					<rect id="XMLID_193_" x="546.7" y="-218.3" transform="matrix(-0.1219 -0.9925 0.9925 -0.1219 850.4234 317.0362)" class="st0" width="37.6" height="1.2"/>
			</g>
		</g>
	</g>
	<g>
		<g>
			<g>
				
					<rect id="XMLID_192_" x="536.8" y="-217" transform="matrix(-0.1564 -0.9877 0.9877 -0.1564 857.9341 299.7937)" class="st0" width="40.4" height="1.1"/>
			</g>
		</g>
	</g>
	<g>
		<g>
			<g>
				
					<rect id="XMLID_191_" x="527.7" y="-215.5" transform="matrix(-0.1908 -0.9816 0.9816 -0.1908 864.2699 282.4928)" class="st0" width="41.8" height="1.1"/>
			</g>
		</g>
	</g>
	<g>
		<g>
			<g>
				
					<rect id="XMLID_190_" x="514.3" y="-213.8" transform="matrix(-0.2249 -0.9744 0.9744 -0.2249 869.3179 265.1251)" class="st0" width="51.6" height="1.2"/>
			</g>
		</g>
	</g>
	<g>
		<g>
			<g>
				
					<rect id="XMLID_189_" x="507.3" y="-211.8" transform="matrix(-0.2588 -0.9659 0.9659 -0.2588 873.4988 247.9653)" class="st0" width="49.2" height="1.2"/>
			</g>
		</g>
	</g>
	<g>
		<g>
			<g>
				
					<rect id="XMLID_188_" x="519.6" y="-209.3" transform="matrix(-0.2922 -0.9564 0.9564 -0.2922 876.3512 230.9984)" class="st0" width="8.1" height="1.1"/>
			</g>
		</g>
	</g>
	<g>
		<g>
			<g>
				
					<rect id="XMLID_187_" x="494.2" y="-206.8" transform="matrix(-0.3256 -0.9455 0.9455 -0.3256 878.2651 214.0259)" class="st0" width="42.5" height="1.1"/>
			</g>
		</g>
	</g>
	<g>
		<g>
			<g>
				
					<rect id="XMLID_186_" x="496.8" y="-203.8" transform="matrix(-0.3583 -0.9336 0.9336 -0.3583 878.9275 197.6638)" class="st0" width="21.1" height="1.2"/>
			</g>
		</g>
	</g>
	<g>
		<g>
			<g>
				
					<rect id="XMLID_185_" x="478.6" y="-200.6" transform="matrix(-0.3907 -0.9205 0.9205 -0.3907 878.83 181.5925)" class="st0" width="41.8" height="1.1"/>
			</g>
		</g>
	</g>
	<g>
		<g>
			<g>
				
					<rect id="XMLID_184_" x="479" y="-197.2" transform="matrix(-0.4227 -0.9063 0.9063 -0.4227 877.5744 165.9051)" class="st0" width="25.3" height="1.2"/>
			</g>
		</g>
	</g>
	<g>
		<g>
			<g>
				
					<rect id="XMLID_183_" x="459.4" y="-193.4" transform="matrix(-0.454 -0.891 0.891 -0.454 875.5963 150.8295)" class="st0" width="49.3" height="1.1"/>
			</g>
		</g>
	</g>
	<g>
		<g>
			<g>
				
					<rect id="XMLID_182_" x="449.4" y="-189.4" transform="matrix(-0.4848 -0.8746 0.8746 -0.4848 872.5555 136.3156)" class="st0" width="54" height="1.2"/>
			</g>
		</g>
	</g>
	<g>
		<g>
			<g>
				
					<rect id="XMLID_181_" x="464.7" y="-185.1" transform="matrix(-0.5149 -0.8572 0.8572 -0.5149 868.7844 122.4961)" class="st0" width="8.8" height="1.1"/>
			</g>
		</g>
	</g>
	<g>
		<g>
			<g>
				
					<rect id="XMLID_180_" x="436.5" y="-180.5" transform="matrix(-0.5447 -0.8387 0.8387 -0.5447 864.1658 109.3503)" class="st0" width="50.6" height="1.1"/>
			</g>
		</g>
	</g>
	<g>
		<g>
			<g>
				
					<rect id="XMLID_179_" x="440.1" y="-175.8" transform="matrix(-0.5736 -0.8191 0.8191 -0.5736 859.0832 96.7004)" class="st0" width="29.3" height="1.1"/>
			</g>
		</g>
	</g>
	<g>
		<g>
			<g>
				
					<rect id="XMLID_178_" x="444.6" y="-170.7" transform="matrix(-0.6019 -0.7986 0.7986 -0.6019 853.0309 85.0376)" class="st0" width="6.3" height="1.2"/>
			</g>
		</g>
	</g>
	<g>
		<g>
			<g>
				
					<rect id="XMLID_177_" x="419.1" y="-165.5" transform="matrix(-0.6293 -0.7771 0.7771 -0.6293 846.6756 73.9599)" class="st0" width="43.7" height="1.2"/>
			</g>
		</g>
	</g>
	<g>
		<g>
			<g>
				
					<rect id="XMLID_176_" x="417.7" y="-160" transform="matrix(-0.6561 -0.7547 0.7547 -0.6561 839.8801 63.9105)" class="st0" width="33.7" height="1.1"/>
			</g>
		</g>
	</g>
	<g>
		<g>
			<g>
				
					<rect id="XMLID_175_" x="418.5" y="-154.2" transform="matrix(-0.682 -0.7314 0.7314 -0.682 832.3145 54.7298)" class="st0" width="19.2" height="1.2"/>
			</g>
		</g>
	</g>
	<g>
		<g>
			<g>
				
					<rect id="XMLID_174_" x="417.9" y="-148.3" transform="matrix(-0.7071 -0.7071 0.7071 -0.7071 824.7112 46.2439)" class="st0" width="8.1" height="1.2"/>
			</g>
		</g>
	</g>
	<g>
		<g>
			<g>
				
					<rect id="XMLID_173_" x="415.3" y="-146" transform="matrix(0.6817 -0.7316 0.7316 0.6817 235.956 259.2386)" class="st0" width="1.2" height="8.8"/>
			</g>
		</g>
	</g>
	<g>
		<g>
			<g>
				
					<rect id="XMLID_172_" x="409.6" y="-138.8" transform="matrix(0.6559 -0.7549 0.7549 0.6559 243.1705 263.1541)" class="st0" width="1.2" height="7.4"/>
			</g>
		</g>
	</g>
	<g>
		<g>
			<g>
				
					<rect id="XMLID_171_" x="404.2" y="-155.9" transform="matrix(0.6283 -0.778 0.778 0.6283 250.5199 267.04)" class="st0" width="1.1" height="54.6"/>
			</g>
		</g>
	</g>
	<g>
		<g>
			<g>
				
					<rect id="XMLID_170_" x="398.9" y="-144" transform="matrix(0.6009 -0.7993 0.7993 0.6009 256.816 270.7173)" class="st0" width="1.2" height="44.3"/>
			</g>
		</g>
	</g>
	<g>
		<g>
			<g>
				
					<rect id="XMLID_169_" x="393.9" y="-136.8" transform="matrix(0.5749 -0.8182 0.8182 0.5749 261.7252 273.9094)" class="st0" width="1.1" height="43.8"/>
			</g>
		</g>
	</g>
	<g>
		<g>
			<g>
				
					<rect id="XMLID_168_" x="389.1" y="-121.1" transform="matrix(0.5452 -0.8383 0.8383 0.5452 267.6422 277.6291)" class="st0" width="1.1" height="26.4"/>
			</g>
		</g>
	</g>
	<g>
		<g>
			<g>
				
					<rect id="XMLID_167_" x="384.6" y="-112.5" transform="matrix(0.5146 -0.8574 0.8574 0.5146 273.2701 281.3279)" class="st0" width="1.1" height="23.7"/>
			</g>
		</g>
	</g>
	<g>
		<g>
			<g>
				
					<rect id="XMLID_166_" x="380.2" y="-103.3" transform="matrix(0.4836 -0.8753 0.8753 0.4836 278.1685 285.2327)" class="st0" width="1.2" height="20.4"/>
			</g>
		</g>
	</g>
	<g>
		<g>
			<g>
				
					<rect id="XMLID_165_" x="376.3" y="-104.8" transform="matrix(0.4549 -0.8905 0.8905 0.4549 281.687 288.9705)" class="st0" width="1.2" height="38.4"/>
			</g>
		</g>
	</g>
	<g>
		<g>
			<g>
				<polygon id="XMLID_164_" class="st0" points="357.8,-84.4 358.3,-85.5 388.3,-71.5 387.9,-70.4 				"/>
			</g>
		</g>
	</g>
	<g>
		<g>
			<g>
				
					<rect id="XMLID_163_" x="369" y="-84.9" transform="matrix(0.3915 -0.9202 0.9202 0.3915 289.4096 297.4478)" class="st0" width="1.2" height="29.7"/>
			</g>
		</g>
	</g>
	<g>
		<g>
			<g>
				
					<rect id="XMLID_162_" x="365.8" y="-67.7" transform="matrix(0.3589 -0.9334 0.9334 0.3589 292.8987 302.1305)" class="st0" width="1.2" height="11.2"/>
			</g>
		</g>
	</g>
	<g>
		<g>
			<g>
				
					<rect id="XMLID_161_" x="362.9" y="-74.4" transform="matrix(0.3263 -0.9453 0.9453 0.3263 296.0094 307.0466)" class="st0" width="1.1" height="40.6"/>
			</g>
		</g>
	</g>
	<g>
		<g>
			<g>
				
					<rect id="XMLID_160_" x="360.2" y="-69" transform="matrix(0.2929 -0.9561 0.9561 0.2929 299.1432 312.374)" class="st0" width="1.1" height="45.9"/>
			</g>
		</g>
	</g>
	<g>
		<g>
			<g>
				
					<rect id="XMLID_159_" x="357.9" y="-44.4" transform="matrix(0.2595 -0.9657 0.9657 0.2595 301.8529 318.2761)" class="st0" width="1.2" height="13.4"/>
			</g>
		</g>
	</g>
	<g>
		<g>
			<g>
				
					<rect id="XMLID_158_" x="355.8" y="-40.7" transform="matrix(0.2257 -0.9742 0.9742 0.2257 304.597 324.377)" class="st0" width="1.2" height="22.5"/>
			</g>
		</g>
	</g>
	<g>
		<g>
			<g>
				
					<rect id="XMLID_157_" x="354" y="-29.6" transform="matrix(0.1906 -0.9817 0.9817 0.1906 307.7328 330.9505)" class="st0" width="1.1" height="16.9"/>
			</g>
		</g>
	</g>
	<g>
		<g>
			<g>
				
					<rect id="XMLID_156_" x="352.6" y="-19.2" transform="matrix(0.1568 -0.9876 0.9876 0.1568 310.2931 338.1101)" class="st0" width="1.2" height="13"/>
			</g>
		</g>
	</g>
	<g>
		<g>
			<g>
				
					<rect id="XMLID_155_" x="351.3" y="-30.9" transform="matrix(0.1211 -0.9926 0.9926 0.1211 313.4543 345.62)" class="st0" width="1.2" height="53.5"/>
			</g>
		</g>
	</g>
	<g>
		<g>
			<g>
				
					<rect id="XMLID_154_" x="350.4" y="-17.1" transform="matrix(8.530179e-002 -0.9964 0.9964 8.530179e-002 316.7583 353.6566)" class="st0" width="1.2" height="42.9"/>
			</g>
		</g>
	</g>
	<g>
		<g>
			<g>
				
					<rect id="XMLID_153_" x="349.9" y="9.6" transform="matrix(5.268735e-002 -0.9986 0.9986 5.268735e-002 319.1058 362.1783)" class="st0" width="1.1" height="6.5"/>
			</g>
		</g>
	</g>
	<g>
		<g>
			<g>
				
					<rect id="XMLID_152_" x="349.5" y="9.4" transform="matrix(1.647041e-002 -0.9999 0.9999 1.647041e-002 322.8264 371.1915)" class="st0" width="1.2" height="24.3"/>
			</g>
		</g>
	</g>
	<g>
		<g>
			<g>
				
					<rect id="XMLID_151_" x="349.6" y="7.4" transform="matrix(-1.684452e-002 -0.9999 0.9999 -1.684452e-002 325.9919 380.6737)" class="st0" width="1.2" height="45.3"/>
			</g>
		</g>
	</g>
	<g>
		<g>
			<g>
				<polygon id="XMLID_150_" class="st0" points="345.2,39.4 345.1,38.2 355.7,37.7 355.7,38.8 				"/>
			</g>
		</g>
	</g>
	<g>
		<g>
			<g>
				
					<rect id="XMLID_149_" x="350.4" y="38.5" transform="matrix(-8.868913e-002 -0.9961 0.9961 -8.868913e-002 335.2842 400.7813)" class="st0" width="1.1" height="17"/>
			</g>
		</g>
	</g>
	<g>
		<g>
			<g>
				
					<rect id="XMLID_148_" x="351.3" y="43.4" transform="matrix(-0.1214 -0.9926 0.9926 -0.1214 339.476 411.6153)" class="st0" width="1.2" height="24.4"/>
			</g>
		</g>
	</g>
	<g>
		<g>
			<g>
				
					<rect id="XMLID_147_" x="352.6" y="48.6" transform="matrix(-0.1575 -0.9875 0.9875 -0.1575 345.5282 422.8293)" class="st0" width="1.1" height="30.9"/>
			</g>
		</g>
	</g>
	<g>
		<g>
			<g>
				<polygon id="XMLID_146_" class="st0" points="340,75.9 339.8,74.8 369.2,69.1 369.4,70.2 				"/>
			</g>
		</g>
	</g>
	<g>
		<g>
			<g>
				
					<rect id="XMLID_145_" x="355.8" y="72.9" transform="matrix(-0.2236 -0.9747 0.9747 -0.2236 357.2401 446.3573)" class="st0" width="1.2" height="15.9"/>
			</g>
		</g>
	</g>
	<g>
		<g>
			<g>
				
					<rect id="XMLID_144_" x="357.9" y="81.2" transform="matrix(-0.2592 -0.9658 0.9658 -0.2592 365.2499 458.5845)" class="st0" width="1.2" height="16.1"/>
			</g>
		</g>
	</g>
	<g>
		<g>
			<g>
				
					<rect id="XMLID_143_" x="360.3" y="84.1" transform="matrix(-0.2929 -0.9561 0.9561 -0.2929 373.4264 470.8717)" class="st0" width="1.1" height="26.5"/>
			</g>
		</g>
	</g>
	<g>
		<g>
			<g>
				
					<rect id="XMLID_142_" x="362.9" y="94.6" transform="matrix(-0.3261 -0.9453 0.9453 -0.3261 382.216 483.5618)" class="st0" width="1.1" height="21.9"/>
			</g>
		</g>
	</g>
	<g>
		<g>
			<g>
				
					<rect id="XMLID_141_" x="365.8" y="86.8" transform="matrix(-0.3591 -0.9333 0.9333 -0.3591 391.9089 496.3368)" class="st0" width="1.2" height="53.6"/>
			</g>
		</g>
	</g>
	<g>
		<g>
			<g>
				
					<rect id="XMLID_140_" x="369" y="99.1" transform="matrix(-0.3897 -0.9209 0.9209 -0.3897 401.7024 509.1993)" class="st0" width="1.1" height="44.9"/>
			</g>
		</g>
	</g>
	<g>
		<g>
			<g>
				
					<rect id="XMLID_139_" x="372.4" y="113.1" transform="matrix(-0.4219 -0.9066 0.9066 -0.4219 413.1325 522.1915)" class="st0" width="1.2" height="32.6"/>
			</g>
		</g>
	</g>
	<g>
		<g>
			<g>
				<polygon id="XMLID_138_" class="st0" points="365.5,143.4 365,142.4 388.1,130.7 388.6,131.7 				"/>
			</g>
		</g>
	</g>
	<g>
		<g>
			<g>
				
					<rect id="XMLID_137_" x="380.3" y="126.1" transform="matrix(-0.4865 -0.8737 0.8737 -0.4865 439.7676 547.715)" class="st0" width="1.1" height="37"/>
			</g>
		</g>
	</g>
	<g>
		<g>
			<g>
				
					<rect id="XMLID_136_" x="384.6" y="142.4" transform="matrix(-0.5146 -0.8574 0.8574 -0.5146 453.0168 560.3632)" class="st0" width="1.1" height="19.2"/>
			</g>
		</g>
	</g>
	<g>
		<g>
			<g>
				<polygon id="XMLID_135_" class="st0" points="367.8,174.1 367.2,173.2 411.5,144.4 412.1,145.4 				"/>
			</g>
		</g>
	</g>
	<g>
		<g>
			<g>
				
					<rect id="XMLID_134_" x="393.9" y="144.9" transform="matrix(-0.5749 -0.8182 0.8182 -0.5749 485.055 584.7924)" class="st0" width="1.1" height="43"/>
			</g>
		</g>
	</g>
	<g>
		<g>
			<g>
				
					<rect id="XMLID_133_" x="398.9" y="160.9" transform="matrix(-0.6009 -0.7993 0.7993 -0.6009 501.103 596.7511)" class="st0" width="1.2" height="24.7"/>
			</g>
		</g>
	</g>
	<g>
		<g>
			<g>
				<polygon id="XMLID_132_" class="st0" points="391.9,191.2 391.2,190.3 417.6,168.9 418.3,169.8 				"/>
			</g>
		</g>
	</g>
	<g>
		<g>
			<g>
				
					<rect id="XMLID_131_" x="409.7" y="174.9" transform="matrix(-0.6557 -0.755 0.755 -0.6557 538.4006 618.7341)" class="st0" width="1.1" height="23.4"/>
			</g>
		</g>
	</g>
	<g>
		<g>
			<g>
				<polygon id="XMLID_130_" class="st0" points="398.5,210 397.8,209.2 433.4,175.9 434.2,176.8 				"/>
			</g>
		</g>
	</g>
	<g>
		<g>
			<g>
				
					<rect id="XMLID_129_" x="421.3" y="187.7" transform="matrix(-0.707 -0.7072 0.7072 -0.707 579.4209 638.2258)" class="st0" width="1.2" height="22.8"/>
			</g>
		</g>
	</g>
	<g>
		<g>
			<g>
				<polygon id="XMLID_128_" class="st0" points="419.9,213 435.4,196.3 436.3,197.1 420.7,213.8 				"/>
			</g>
		</g>
	</g>
	<g>
		<g>
			<g>
				
					<rect id="XMLID_127_" x="425.6" y="210.2" transform="matrix(0.6561 -0.7547 0.7547 0.6561 -9.6737 400.3442)" class="st0" width="17.7" height="1.2"/>
			</g>
		</g>
	</g>
	<g>
		<g>
			<g>
				<polygon id="XMLID_126_" class="st0" points="425.7,234.3 455.4,197.5 456.3,198.3 426.5,235.1 				"/>
			</g>
		</g>
	</g>
	<g>
		<g>
			<g>
				
					<rect id="XMLID_125_" x="421.5" y="220.9" transform="matrix(0.6018 -0.7987 0.7987 0.6018 1.3498 445.7771)" class="st0" width="52.3" height="1.2"/>
			</g>
		</g>
	</g>
	<g>
		<g>
			<g>
				
					<rect id="XMLID_124_" x="431.9" y="226.1" transform="matrix(0.5735 -0.8192 0.8192 0.5735 8.2763 469.1609)" class="st0" width="45.7" height="1.1"/>
			</g>
		</g>
	</g>
	<g>
		<g>
			<g>
				<polygon id="XMLID_123_" class="st0" points="450.7,247.4 471.9,214.7 472.9,215.4 451.6,248 				"/>
			</g>
		</g>
	</g>
	<g>
		<g>
			<g>
				
					<rect id="XMLID_122_" x="463.7" y="235.4" transform="matrix(0.515 -0.8572 0.8572 0.515 25.2477 516.5204)" class="st0" width="10.7" height="1.1"/>
			</g>
		</g>
	</g>
	<g>
		<g>
			<g>
				
					<rect id="XMLID_121_" x="471.5" y="239.6" transform="matrix(0.4848 -0.8746 0.8746 0.4848 35.4097 540.5133)" class="st0" width="10" height="1.1"/>
			</g>
		</g>
	</g>
	<g>
		<g>
			<g>
				<polygon id="XMLID_120_" class="st0" points="475,260.6 492,227.3 493,227.8 476,261.1 				"/>
			</g>
		</g>
	</g>
	<g>
		<g>
			<g>
				<polygon id="XMLID_119_" class="st0" points="488.6,253.3 493.8,242.2 494.8,242.7 489.6,253.8 				"/>
			</g>
		</g>
	</g>
	<g>
		<g>
			<g>
				
					<rect id="XMLID_118_" x="492.4" y="250.8" transform="matrix(0.3907 -0.9205 0.9205 0.3907 72.8836 612.9707)" class="st0" width="14.2" height="1.2"/>
			</g>
		</g>
	</g>
	<g>
		<g>
			<g>
				
					<rect id="XMLID_117_" x="485.9" y="254" transform="matrix(0.3584 -0.9336 0.9336 0.3584 87.8808 637.0523)" class="st0" width="43" height="1.2"/>
			</g>
		</g>
	</g>
	<g>
		<g>
			<g>
				
					<rect id="XMLID_116_" x="501.4" y="257.1" transform="matrix(0.3256 -0.9455 0.9455 0.3256 104.0538 661.1689)" class="st0" width="28.3" height="1.1"/>
			</g>
		</g>
	</g>
	<g>
		<g>
			<g>
				
					<rect id="XMLID_115_" x="511.7" y="259.6" transform="matrix(0.2923 -0.9563 0.9563 0.2923 121.7406 684.9105)" class="st0" width="23.8" height="1.1"/>
			</g>
		</g>
	</g>
	<g>
		<g>
			<g>
				
					<rect id="XMLID_114_" x="520.6" y="262" transform="matrix(0.259 -0.9659 0.9659 0.259 140.4276 708.2823)" class="st0" width="22.4" height="1.2"/>
			</g>
		</g>
	</g>
	<g>
		<g>
			<g>
				
					<rect id="XMLID_113_" x="527.1" y="264" transform="matrix(0.2249 -0.9744 0.9744 0.2249 160.7816 731.4174)" class="st0" width="26.1" height="1.2"/>
			</g>
		</g>
	</g>
	<g>
		<g>
			<g>
				<polygon id="XMLID_112_" class="st0" points="547.2,270.1 548.7,262.6 549.8,262.8 548.4,270.3 				"/>
			</g>
		</g>
	</g>
	<g>
		<g>
			<g>
				<polygon id="XMLID_111_" class="st0" points="552.9,289.8 559.9,245.9 561,246.1 554.1,289.9 				"/>
			</g>
		</g>
	</g>
	<g>
		<g>
			<g>
				
					<rect id="XMLID_110_" x="551.9" y="268.5" transform="matrix(0.1219 -0.9925 0.9925 0.1219 229.4397 797.5881)" class="st0" width="27.1" height="1.2"/>
			</g>
		</g>
	</g>
	<g>
		<g>
			<g>
				
					<rect id="XMLID_109_" x="553.5" y="269.5" transform="matrix(8.709348e-002 -0.9962 0.9962 8.709348e-002 254.9868 818.3846)" class="st0" width="41" height="1.1"/>
			</g>
		</g>
	</g>
	<g>
		<g>
			<g>
				<polygon id="XMLID_108_" class="st0" points="580.7,294 583.2,247.1 584.3,247.2 581.8,294.1 				"/>
			</g>
		</g>
	</g>
	<g>
		<g>
			<g>
				
					<rect id="XMLID_107_" x="581" y="270.3" transform="matrix(1.741280e-002 -0.9998 0.9998 1.741280e-002 309.9916 857.2336)" class="st0" width="20.3" height="1.1"/>
			</g>
		</g>
	</g>
	<g>
		<g>
			<g>
				
					<rect id="XMLID_106_" x="579.2" y="270.3" transform="matrix(-1.745608e-002 -0.9998 0.9998 -1.745608e-002 339.2779 875.1758)" class="st0" width="41" height="1.2"/>
			</g>
		</g>
	</g>
	<g>
		<g>
			<g>
				<polygon id="XMLID_105_" class="st0" points="609,297 606.2,244.3 607.4,244.2 610.1,296.9 				"/>
			</g>
		</g>
	</g>
	<g>
		<g>
			<g>
				
					<rect id="XMLID_104_" x="591.3" y="269.5" transform="matrix(-8.716724e-002 -0.9962 0.9962 -8.716724e-002 401.5081 908.0205)" class="st0" width="50.9" height="1.1"/>
			</g>
		</g>
	</g>
	<g>
		<g>
			<g>
				
					<rect id="XMLID_103_" x="620.5" y="268.5" transform="matrix(-0.1219 -0.9925 0.9925 -0.1219 434.3659 922.5189)" class="st0" width="9.5" height="1.2"/>
			</g>
		</g>
	</g>
	<g>
		<g>
			<g>
				<polygon id="XMLID_102_" class="st0" points="634,273.5 632.3,262.5 633.4,262.3 635.1,273.4 				"/>
			</g>
		</g>
	</g>
	<g>
		<g>
			<g>
				<polygon id="XMLID_101_" class="st0" points="646,289.4 637.1,243.7 638.3,243.5 647.1,289.2 				"/>
			</g>
		</g>
	</g>
	<g>
		<g>
			<g>
				
					<rect id="XMLID_100_" x="626.9" y="264.1" transform="matrix(-0.225 -0.9744 0.9744 -0.225 538.8864 958.0169)" class="st0" width="47" height="1.2"/>
			</g>
		</g>
	</g>
	<g>
		<g>
			<g>
				
					<rect id="XMLID_99_" x="649.1" y="262" transform="matrix(-0.2589 -0.9659 0.9659 -0.2589 575.7015 966.9954)" class="st0" width="19.5" height="1.2"/>
			</g>
		</g>
	</g>
	<g>
		<g>
			<g>
				
					<rect id="XMLID_98_" x="647.4" y="259.7" transform="matrix(-0.2924 -0.9563 0.9563 -0.2924 613.178 974.2303)" class="st0" width="39.3" height="1.1"/>
			</g>
		</g>
	</g>
	<g>
		<g>
			<g>
				
					<rect id="XMLID_97_" x="653.2" y="257" transform="matrix(-0.3255 -0.9455 0.9455 -0.3255 651.4929 979.7684)" class="st0" width="43.9" height="1.1"/>
			</g>
		</g>
	</g>
	<g>
		<g>
			<g>
				
					<rect id="XMLID_96_" x="663.7" y="254.1" transform="matrix(-0.3584 -0.9336 0.9336 -0.3584 690.244 983.8405)" class="st0" width="39.1" height="1.2"/>
			</g>
		</g>
	</g>
	<g>
		<g>
			<g>
				
					<rect id="XMLID_95_" x="685.8" y="250.9" transform="matrix(-0.3909 -0.9204 0.9204 -0.3909 729.8635 985.905)" class="st0" width="10.7" height="1.2"/>
			</g>
		</g>
	</g>
	<g>
		<g>
			<g>
				<polygon id="XMLID_94_" class="st0" points="706.9,266.3 690,230.1 691,229.6 707.9,265.9 				"/>
			</g>
		</g>
	</g>
	<g>
		<g>
			<g>
				<polygon id="XMLID_93_" class="st0" points="714.7,261.2 697.6,227.8 698.7,227.2 715.7,260.7 				"/>
			</g>
		</g>
	</g>
	<g>
		<g>
			<g>
				
					<rect id="XMLID_92_" x="694.3" y="239.6" transform="matrix(-0.4848 -0.8746 0.8746 -0.4848 850.5006 981.3384)" class="st0" width="39.9" height="1.1"/>
			</g>
		</g>
	</g>
	<g>
		<g>
			<g>
				
					<rect id="XMLID_91_" x="714.3" y="235.3" transform="matrix(-0.515 -0.8572 0.8572 -0.515 891.1647 976.0115)" class="st0" width="14.7" height="1.1"/>
			</g>
		</g>
	</g>
	<g>
		<g>
			<g>
				<polygon id="XMLID_90_" class="st0" points="731,235.6 725.9,227.8 726.8,227.2 731.9,235 				"/>
			</g>
		</g>
	</g>
	<g>
		<g>
			<g>
				
					<rect id="XMLID_89_" x="712" y="226.1" transform="matrix(-0.5736 -0.8192 0.8192 -0.5736 972.5645 959.5048)" class="st0" width="48" height="1.1"/>
			</g>
		</g>
	</g>
	<g>
		<g>
			<g>
				
					<rect id="XMLID_88_" x="720.2" y="220.9" transform="matrix(-0.6018 -0.7986 0.7986 -0.6018 1013.0141 948.147)" class="st0" width="45.4" height="1.2"/>
			</g>
		</g>
	</g>
	<g>
		<g>
			<g>
				<polygon id="XMLID_87_" class="st0" points="764.2,235.1 734.3,198.2 735.2,197.5 765.1,234.4 				"/>
			</g>
		</g>
	</g>
	<g>
		<g>
			<g>
				
					<rect id="XMLID_86_" x="738.4" y="210.2" transform="matrix(-0.656 -0.7548 0.7548 -0.656 1093.1362 919.9067)" class="st0" width="35.7" height="1.2"/>
			</g>
		</g>
	</g>
	<g>
		<g>
			<g>
				<polygon id="XMLID_85_" class="st0" points="777.8,222.3 746.5,188.7 747.3,187.9 778.7,221.5 				"/>
			</g>
		</g>
	</g>
	<g>
		<g>
			<g>
				
					<rect id="XMLID_84_" x="756" y="198.5" transform="matrix(-0.7071 -0.7071 0.7071 -0.7071 1171.5657 883.4848)" class="st0" width="25.5" height="1.2"/>
			</g>
		</g>
	</g>
	<g>
		<g>
			<g>
				<polygon id="XMLID_83_" class="st0" points="769.9,189.3 770.7,188.5 779.5,196.6 778.7,197.5 				"/>
			</g>
		</g>
	</g>
	<g>
		<g>
			<g>
				
					<rect id="XMLID_82_" x="780" y="163.6" transform="matrix(0.6556 -0.7551 0.7551 0.6556 127.9307 653.613)" class="st0" width="1.1" height="45.9"/>
			</g>
		</g>
	</g>
	<g>
		<g>
			<g>
				<polygon id="XMLID_81_" class="st0" points="768.9,167 769.7,166.1 802.9,193.1 802.2,194 				"/>
			</g>
		</g>
	</g>
	<g>
		<g>
			<g>
				
					<rect id="XMLID_80_" x="790.6" y="154.9" transform="matrix(0.6008 -0.7994 0.7994 0.6008 177.2812 701.6738)" class="st0" width="1.2" height="36.8"/>
			</g>
		</g>
	</g>
	<g>
		<g>
			<g>
				
					<rect id="XMLID_79_" x="795.7" y="139.3" transform="matrix(0.5749 -0.8182 0.8182 0.5749 202.4252 722.1923)" class="st0" width="1.1" height="54"/>
			</g>
		</g>
	</g>
	<g>
		<g>
			<g>
				<polygon id="XMLID_78_" class="st0" points="784.1,149 784.7,148 817.9,169.6 817.3,170.5 				"/>
			</g>
		</g>
	</g>
	<g>
		<g>
			<g>
				
					<rect id="XMLID_77_" x="805" y="130" transform="matrix(0.5145 -0.8575 0.8575 0.5145 260.7347 764.5663)" class="st0" width="1.1" height="44"/>
			</g>
		</g>
	</g>
	<g>
		<g>
			<g>
				
					<rect id="XMLID_76_" x="809.3" y="123" transform="matrix(0.4865 -0.8737 0.8737 0.4865 289.4762 781.7912)" class="st0" width="1.1" height="43.2"/>
			</g>
		</g>
	</g>
	<g>
		<g>
			<g>
				<polygon id="XMLID_75_" class="st0" points="792.8,126.9 793.3,125.9 834.9,147.1 834.4,148.2 				"/>
			</g>
		</g>
	</g>
	<g>
		<g>
			<g>
				
					<rect id="XMLID_74_" x="817" y="119.9" transform="matrix(0.4218 -0.9067 0.9067 0.4218 355.4529 816.0862)" class="st0" width="1.2" height="18.9"/>
			</g>
		</g>
	</g>
	<g>
		<g>
			<g>
				
					<rect id="XMLID_73_" x="820.5" y="111.3" transform="matrix(0.3899 -0.9209 0.9209 0.3899 389.0596 830.2522)" class="st0" width="1.1" height="20.4"/>
			</g>
		</g>
	</g>
	<g>
		<g>
			<g>
				
					<rect id="XMLID_72_" x="823.7" y="94.4" transform="matrix(0.3591 -0.9333 0.9333 0.3591 422.2747 842.136)" class="st0" width="1.2" height="38.5"/>
			</g>
		</g>
	</g>
	<g>
		<g>
			<g>
				
					<rect id="XMLID_71_" x="826.7" y="85.1" transform="matrix(0.326 -0.9454 0.9454 0.326 457.8334 853.1974)" class="st0" width="1.1" height="40.8"/>
			</g>
		</g>
	</g>
	<g>
		<g>
			<g>
				
					<rect id="XMLID_70_" x="829.2" y="86.1" transform="matrix(0.2928 -0.9562 0.9562 0.2928 493.7236 862.2947)" class="st0" width="1.1" height="22.5"/>
			</g>
		</g>
	</g>
	<g>
		<g>
			<g>
				
					<rect id="XMLID_69_" x="831.6" y="72.7" transform="matrix(0.2594 -0.9658 0.9658 0.2594 530.2075 869.7493)" class="st0" width="1.2" height="33"/>
			</g>
		</g>
	</g>
	<g>
		<g>
			<g>
				
					<rect id="XMLID_68_" x="833.7" y="76.4" transform="matrix(0.2234 -0.9747 0.9747 0.2234 569.0992 876.0307)" class="st0" width="1.2" height="8.9"/>
			</g>
		</g>
	</g>
	<g>
		<g>
			<g>
				<polygon id="XMLID_67_" class="st0" points="830.8,72.1 831,70.9 841.3,72.9 841.1,74.1 				"/>
			</g>
		</g>
	</g>
	<g>
		<g>
			<g>
				
					<rect id="XMLID_66_" x="837" y="58" transform="matrix(0.1576 -0.9875 0.9875 0.1576 642.2733 881.0656)" class="st0" width="1.1" height="12.2"/>
			</g>
		</g>
	</g>
	<g>
		<g>
			<g>
				
					<rect id="XMLID_65_" x="838.2" y="40.5" transform="matrix(0.1211 -0.9926 0.9926 0.1211 681.9962 881.5284)" class="st0" width="1.2" height="30.3"/>
			</g>
		</g>
	</g>
	<g>
		<g>
			<g>
				
					<rect id="XMLID_64_" x="839.1" y="29.6" transform="matrix(8.848816e-002 -0.9961 0.9961 8.848816e-002 718.4431 879.3083)" class="st0" width="1.1" height="35.1"/>
			</g>
		</g>
	</g>
	<g>
		<g>
			<g>
				<polygon id="XMLID_63_" class="st0" points="816.3,37.9 816.3,36.7 864.2,39.2 864.2,40.4 				"/>
			</g>
		</g>
	</g>
	<g>
		<g>
			<g>
				
					<rect id="XMLID_62_" x="840" y="20" transform="matrix(1.666370e-002 -0.9999 0.9999 1.666370e-002 796.4891 869.9153)" class="st0" width="1.1" height="20"/>
			</g>
		</g>
	</g>
	<g>
		<g>
			<g>
				
					<rect id="XMLID_61_" x="840" y="1.4" transform="matrix(-1.647349e-002 -0.9999 0.9999 -1.647349e-002 832.8951 862.3058)" class="st0" width="1.2" height="40.2"/>
			</g>
		</g>
	</g>
	<g>
		<g>
			<g>
				
					<rect id="XMLID_60_" x="839.7" y="1.3" transform="matrix(-5.268735e-002 -0.9986 0.9986 -5.268735e-002 871.6779 852.6533)" class="st0" width="1.1" height="23.1"/>
			</g>
		</g>
	</g>
	<g>
		<g>
			<g>
				
					<rect id="XMLID_59_" x="839" y="-7.1" transform="matrix(-8.566316e-002 -0.9963 0.9963 -8.566316e-002 907.2007 841.3032)" class="st0" width="1.2" height="22.9"/>
			</g>
		</g>
	</g>
	<g>
		<g>
			<g>
				
					<rect id="XMLID_58_" x="838.2" y="-8.6" transform="matrix(-0.1213 -0.9926 0.9926 -0.1213 944.6809 827.9681)" class="st0" width="1.2" height="8.9"/>
			</g>
		</g>
	</g>
	<g>
		<g>
			<g>
				<polygon id="XMLID_57_" class="st0" points="821.8,-9.6 821.6,-10.7 853.3,-15.7 853.5,-14.6 				"/>
			</g>
		</g>
	</g>
	<g>
		<g>
			<g>
				
					<rect id="XMLID_56_" x="835.5" y="-45.6" transform="matrix(-0.1906 -0.9817 0.9817 -0.1906 1016.0557 795.5978)" class="st0" width="1.1" height="49.1"/>
			</g>
		</g>
	</g>
	<g>
		<g>
			<g>
				
					<rect id="XMLID_55_" x="833.7" y="-56.4" transform="matrix(-0.2259 -0.9742 0.9742 -0.2259 1051.401 776.6636)" class="st0" width="1.2" height="53.9"/>
			</g>
		</g>
	</g>
	<g>
		<g>
			<g>
				
					<rect id="XMLID_54_" x="831.6" y="-64.7" transform="matrix(-0.2594 -0.9658 0.9658 -0.2594 1084.5977 756.1789)" class="st0" width="1.2" height="53.8"/>
			</g>
		</g>
	</g>
	<g>
		<g>
			<g>
				
					<rect id="XMLID_53_" x="829.3" y="-57.6" transform="matrix(-0.2928 -0.9562 0.9562 -0.2928 1116.7615 734.0346)" class="st0" width="1.1" height="23.3"/>
			</g>
		</g>
	</g>
	<g>
		<g>
			<g>
				
					<rect id="XMLID_52_" x="826.6" y="-66.1" transform="matrix(-0.3263 -0.9453 0.9453 -0.3263 1148.3026 710.0479)" class="st0" width="1.1" height="23.9"/>
			</g>
		</g>
	</g>
	<g>
		<g>
			<g>
				
					<rect id="XMLID_51_" x="823.7" y="-75" transform="matrix(-0.359 -0.9333 0.9333 -0.359 1178.1462 684.9063)" class="st0" width="1.2" height="25.7"/>
			</g>
		</g>
	</g>
	<g>
		<g>
			<g>
				
					<rect id="XMLID_50_" x="820.5" y="-94.1" transform="matrix(-0.3911 -0.9204 0.9204 -0.3911 1206.667 658.2195)" class="st0" width="1.2" height="48"/>
			</g>
		</g>
	</g>
	<g>
		<g>
			<g>
				<polygon id="XMLID_49_" class="st0" points="795.9,-67.2 795.4,-68.2 839.3,-88.7 839.8,-87.6 				"/>
			</g>
		</g>
	</g>
	<g>
		<g>
			<g>
				
					<rect id="XMLID_48_" x="813.3" y="-112.7" transform="matrix(-0.455 -0.8905 0.8905 -0.455 1260.359 600.2398)" class="st0" width="1.2" height="54.2"/>
			</g>
		</g>
	</g>
	<g>
		<g>
			<g>
				
					<rect id="XMLID_47_" x="809.3" y="-112.2" transform="matrix(-0.4832 -0.8755 0.8755 -0.4832 1282.7874 570.9286)" class="st0" width="1.2" height="38.2"/>
			</g>
		</g>
	</g>
	<g>
		<g>
			<g>
				
					<rect id="XMLID_46_" x="805" y="-117.5" transform="matrix(-0.5144 -0.8575 0.8575 -0.5144 1306.1958 538.3916)" class="st0" width="1.1" height="33.8"/>
			</g>
		</g>
	</g>
	<g>
		<g>
			<g>
				
					<rect id="XMLID_45_" x="800.4" y="-121.3" transform="matrix(-0.5452 -0.8383 0.8383 -0.5452 1328.1698 504.6986)" class="st0" width="1.1" height="26.8"/>
			</g>
		</g>
	</g>
	<g>
		<g>
			<g>
				
					<rect id="XMLID_44_" x="795.6" y="-119.9" transform="matrix(-0.5749 -0.8182 0.8182 -0.5749 1348.0293 470.2924)" class="st0" width="1.1" height="9.7"/>
			</g>
		</g>
	</g>
	<g>
		<g>
			<g>
				
					<rect id="XMLID_43_" x="790.6" y="-131.8" transform="matrix(-0.6009 -0.7993 0.7993 -0.6009 1364.0146 437.2976)" class="st0" width="1.2" height="19.9"/>
			</g>
		</g>
	</g>
	<g>
		<g>
			<g>
				
					<rect id="XMLID_42_" x="785.3" y="-138.3" transform="matrix(-0.6284 -0.7779 0.7779 -0.6284 1379.7716 401.7977)" class="st0" width="1.1" height="19.2"/>
			</g>
		</g>
	</g>
	<g>
		<g>
			<g>
				
					<rect id="XMLID_41_" x="779.8" y="-150.1" transform="matrix(-0.6557 -0.755 0.755 -0.6557 1394.2632 365.342)" class="st0" width="1.2" height="29.8"/>
			</g>
		</g>
	</g>
	<g>
		<g>
			<g>
				
					<rect id="XMLID_40_" x="774.1" y="-150.2" transform="matrix(-0.6818 -0.7316 0.7316 -0.6818 1406.3073 328.7761)" class="st0" width="1.2" height="17.4"/>
			</g>
		</g>
	</g>
</g>
</svg>
