<?xml version="1.0" encoding="utf-8"?>
<!-- Generator: Adobe Illustrator 19.0.0, SVG Export Plug-In . SVG Version: 6.00 Build 0)  -->
<svg version="1.1" id="Layer_1" xmlns="http://www.w3.org/2000/svg" xmlns:xlink="http://www.w3.org/1999/xlink" x="0px" y="0px"
	 viewBox="0 0 1100 1100" style="enable-background:new 0 0 1100 1100;" xml:space="preserve">
<style type="text/css">
	.st0{fill:#232323;}
</style>
<g id="XMLID_1_">
	<g>
		<g>
			<g>
				
					<rect id="XMLID_181_" x="209.7" y="194.4" transform="matrix(0.7056 -0.7086 0.7086 0.7056 -86.707 211.2312)" class="st0" width="2.3" height="31.1"/>
			</g>
		</g>
	</g>
	<g>
		<g>
			<g>
				
					<rect id="XMLID_180_" x="160.2" y="220.9" transform="matrix(0.7328 0.6805 -0.6805 0.7328 204.3355 -76.2428)" class="st0" width="78" height="2.3"/>
			</g>
		</g>
	</g>
	<g>
		<g>
			<g>
				
					<rect id="XMLID_179_" x="153" y="233.4" transform="matrix(0.7561 0.6545 -0.6545 0.7561 199.3601 -65.8722)" class="st0" width="70.1" height="2.2"/>
			</g>
		</g>
	</g>
	<g>
		<g>
			<g>
				
					<rect id="XMLID_178_" x="147.3" y="246.3" transform="matrix(0.7785 0.6277 -0.6277 0.7785 194.556 -56.4871)" class="st0" width="60.1" height="2.3"/>
			</g>
		</g>
	</g>
	<g>
		<g>
			<g>
				<polygon id="XMLID_177_" class="st0" points="187.1,277.1 145.6,246 147,244.2 188.4,275.3 				"/>
			</g>
		</g>
	</g>
	<g>
		<g>
			<g>
				<polygon id="XMLID_176_" class="st0" points="183.9,294.2 129.2,256.1 130.5,254.2 185.2,292.3 				"/>
			</g>
		</g>
	</g>
	<g>
		<g>
			<g>
				
					<rect id="XMLID_175_" x="100.5" y="287" transform="matrix(0.8398 0.5429 -0.5429 0.8398 180.1038 -34.1086)" class="st0" width="94.8" height="2.2"/>
			</g>
		</g>
	</g>
	<g>
		<g>
			<g>
				
					<rect id="XMLID_174_" x="99.1" y="301.2" transform="matrix(0.8582 0.5132 -0.5132 0.8582 174.8843 -28.4771)" class="st0" width="79.7" height="2.2"/>
			</g>
		</g>
	</g>
	<g>
		<g>
			<g>
				<polygon id="XMLID_173_" class="st0" points="165.2,337.2 95,298.5 96.1,296.5 166.3,335.3 				"/>
			</g>
		</g>
	</g>
	<g>
		<g>
			<g>
				
					<rect id="XMLID_172_" x="103.7" y="330.6" transform="matrix(0.8919 0.4522 -0.4522 0.8919 163.2761 -19.6792)" class="st0" width="38.2" height="2.2"/>
			</g>
		</g>
	</g>
	<g>
		<g>
			<g>
				<polygon id="XMLID_171_" class="st0" points="121.7,350.9 108.3,344.7 109.2,342.6 122.7,348.9 				"/>
			</g>
		</g>
	</g>
	<g>
		<g>
			<g>
				
					<rect id="XMLID_170_" x="58.3" y="361" transform="matrix(0.9213 0.3888 -0.3888 0.9213 149.3594 -13.771)" class="st0" width="100.8" height="2.2"/>
			</g>
		</g>
	</g>
	<g>
		<g>
			<g>
				
					<rect id="XMLID_169_" x="60.9" y="376.5" transform="matrix(0.9343 0.3564 -0.3564 0.9343 141.3397 -11.7133)" class="st0" width="83.2" height="2.3"/>
			</g>
		</g>
	</g>
	<g>
		<g>
			<g>
				
					<rect id="XMLID_168_" x="70.4" y="392.3" transform="matrix(0.9462 0.3236 -0.3236 0.9462 132.517 -10.1405)" class="st0" width="52.7" height="2.3"/>
			</g>
		</g>
	</g>
	<g>
		<g>
			<g>
				
					<rect id="XMLID_167_" x="72.8" y="408.3" transform="matrix(0.9569 0.2904 -0.2904 0.9569 122.8308 -8.9605)" class="st0" width="37.6" height="2.3"/>
			</g>
		</g>
	</g>
	<g>
		<g>
			<g>
				
					<rect id="XMLID_166_" x="40.7" y="424.4" transform="matrix(0.9665 0.2568 -0.2568 0.9665 112.1958 -8.0771)" class="st0" width="92.7" height="2.3"/>
			</g>
		</g>
	</g>
	<g>
		<g>
			<g>
				<polygon id="XMLID_165_" class="st0" points="115.6,450.4 49.9,435.3 50.4,433.2 116.1,448.2 				"/>
			</g>
		</g>
	</g>
	<g>
		<g>
			<g>
				
					<rect id="XMLID_164_" x="28.6" y="457.1" transform="matrix(0.982 0.1887 -0.1887 0.982 87.9033 -6.7791)" class="st0" width="101.8" height="2.2"/>
			</g>
		</g>
	</g>
	<g>
		<g>
			<g>
				<polygon id="XMLID_163_" class="st0" points="87,477.4 66,474.2 66.3,471.9 87.3,475.2 				"/>
			</g>
		</g>
	</g>
	<g>
		<g>
			<g>
				
					<rect id="XMLID_162_" x="46.9" y="490.2" transform="matrix(0.9928 0.1198 -0.1198 0.9928 59.3874 -5.3714)" class="st0" width="55" height="2.3"/>
			</g>
		</g>
	</g>
	<g>
		<g>
			<g>
				<polygon id="XMLID_161_" class="st0" points="93.6,510.9 51.6,507.3 51.8,505.1 93.7,508.6 				"/>
			</g>
		</g>
	</g>
	<g>
		<g>
			<g>
				
					<rect id="XMLID_160_" x="22.5" y="523.6" transform="matrix(0.9987 5.027758e-002 -5.027758e-002 0.9987 26.4707 -2.9323)" class="st0" width="98.1" height="2.2"/>
			</g>
		</g>
	</g>
	<g>
		<g>
			<g>
				
					<rect id="XMLID_159_" x="22.5" y="540.3" transform="matrix(0.9999 1.537050e-002 -1.537050e-002 0.9999 8.3307 -1.0269)" class="st0" width="97" height="2.3"/>
			</g>
		</g>
	</g>
	<g>
		<g>
			<g>
				
					<rect id="XMLID_158_" x="17.7" y="557.1" transform="matrix(0.9998 -1.952910e-002 1.952910e-002 0.9998 -10.8878 1.4931)" class="st0" width="106.6" height="2.3"/>
			</g>
		</g>
	</g>
	<g>
		<g>
			<g>
				
					<rect id="XMLID_157_" x="49.4" y="573.8" transform="matrix(0.9985 -5.441174e-002 5.441174e-002 0.9985 -31.1786 4.7491)" class="st0" width="44.4" height="2.2"/>
			</g>
		</g>
	</g>
	<g>
		<g>
			<g>
				<polygon id="XMLID_156_" class="st0" points="99.9,590.4 45.9,595.2 45.7,593 99.7,588.1 				"/>
			</g>
		</g>
	</g>
	<g>
		<g>
			<g>
				
					<rect id="XMLID_155_" x="37.8" y="607.2" transform="matrix(0.9923 -0.124 0.124 0.9923 -74.83 13.9403)" class="st0" width="73.6" height="2.3"/>
			</g>
		</g>
	</g>
	<g>
		<g>
			<g>
				<polygon id="XMLID_154_" class="st0" points="116.2,619.8 38.1,632.3 37.8,630.1 115.9,617.6 				"/>
			</g>
		</g>
	</g>
	<g>
		<g>
			<g>
				
					<rect id="XMLID_153_" x="39" y="640.3" transform="matrix(0.9812 -0.1928 0.1928 0.9812 -122.1999 27.4546)" class="st0" width="81.8" height="2.2"/>
			</g>
		</g>
	</g>
	<g>
		<g>
			<g>
				<polygon id="XMLID_152_" class="st0" points="132.9,647.5 34.5,670.4 34,668.2 132.4,645.3 				"/>
			</g>
		</g>
	</g>
	<g>
		<g>
			<g>
				
					<rect id="XMLID_151_" x="39.4" y="673" transform="matrix(0.9654 -0.2608 0.2608 0.9654 -172.7994 46.1697)" class="st0" width="96.3" height="2.3"/>
			</g>
		</g>
	</g>
	<g>
		<g>
			<g>
				
					<rect id="XMLID_150_" x="84.3" y="689.1" transform="matrix(0.9557 -0.2942 0.2942 0.9557 -198.9808 57.6713)" class="st0" width="15.9" height="2.3"/>
			</g>
		</g>
	</g>
	<g>
		<g>
			<g>
				
					<rect id="XMLID_149_" x="55.8" y="705" transform="matrix(0.9448 -0.3275 0.3275 0.9448 -225.9078 70.8544)" class="st0" width="83.2" height="2.3"/>
			</g>
		</g>
	</g>
	<g>
		<g>
			<g>
				
					<rect id="XMLID_148_" x="82.5" y="720.7" transform="matrix(0.9328 -0.3603 0.3603 0.9328 -253.1492 85.6517)" class="st0" width="41.4" height="2.3"/>
			</g>
		</g>
	</g>
	<g>
		<g>
			<g>
				
					<rect id="XMLID_147_" x="68.6" y="736.3" transform="matrix(0.9197 -0.3926 0.3926 0.9197 -280.726 102.1989)" class="st0" width="81.8" height="2.2"/>
			</g>
		</g>
	</g>
	<g>
		<g>
			<g>
				<polygon id="XMLID_146_" class="st0" points="139.3,743.2 94.3,764.2 93.4,762.2 138.3,741.1 				"/>
			</g>
		</g>
	</g>
	<g>
		<g>
			<g>
				
					<rect id="XMLID_145_" x="75.4" y="766.6" transform="matrix(0.89 -0.4559 0.4559 0.89 -336.3847 140.8111)" class="st0" width="96.6" height="2.2"/>
			</g>
		</g>
	</g>
	<g>
		<g>
			<g>
				<polygon id="XMLID_144_" class="st0" points="178.3,757.8 86,809.2 84.9,807.3 177.3,755.8 				"/>
			</g>
		</g>
	</g>
	<g>
		<g>
			<g>
				
					<rect id="XMLID_143_" x="131.4" y="795.9" transform="matrix(0.8562 -0.5167 0.5167 0.8562 -391.682 186.9906)" class="st0" width="17.2" height="2.2"/>
			</g>
		</g>
	</g>
	<g>
		<g>
			<g>
				
					<rect id="XMLID_142_" x="99.4" y="810.1" transform="matrix(0.8375 -0.5464 0.5464 0.8375 -419.0578 213.1884)" class="st0" width="99" height="2.2"/>
			</g>
		</g>
	</g>
	<g>
		<g>
			<g>
				<polygon id="XMLID_141_" class="st0" points="182.5,809.5 135.5,842.5 134.2,840.7 181.2,807.6 				"/>
			</g>
		</g>
	</g>
	<g>
		<g>
			<g>
				<polygon id="XMLID_140_" class="st0" points="173.8,835.8 164,843.3 162.6,841.5 172.5,834 				"/>
			</g>
		</g>
	</g>
	<g>
		<g>
			<g>
				
					<rect id="XMLID_139_" x="135.7" y="850.7" transform="matrix(0.7758 -0.631 0.631 0.7758 -497.4372 303.6386)" class="st0" width="85.7" height="2.3"/>
			</g>
		</g>
	</g>
	<g>
		<g>
			<g>
				
					<rect id="XMLID_138_" x="156.4" y="863.5" transform="matrix(0.7533 -0.6577 0.6577 0.7533 -521.9219 337.8279)" class="st0" width="65.9" height="2.2"/>
			</g>
		</g>
	</g>
	<g>
		<g>
			<g>
				
					<rect id="XMLID_137_" x="181.9" y="875.9" transform="matrix(0.73 -0.6835 0.6835 0.73 -545.294 373.9549)" class="st0" width="37.5" height="2.3"/>
			</g>
		</g>
	</g>
	<g>
		<g>
			<g>
				
					<rect id="XMLID_136_" x="204.3" y="888" transform="matrix(0.7056 -0.7086 0.7086 0.7056 -567.5186 412.1468)" class="st0" width="15.9" height="2.3"/>
			</g>
		</g>
	</g>
	<g>
		<g>
			<g>
				
					<rect id="XMLID_135_" x="223.2" y="892.1" transform="matrix(0.7329 0.6804 -0.6804 0.7329 672.7532 87.9601)" class="st0" width="2.3" height="17.2"/>
			</g>
		</g>
	</g>
	<g>
		<g>
			<g>
				
					<rect id="XMLID_134_" x="235.7" y="904.7" transform="matrix(0.7564 0.6541 -0.6541 0.7564 654.1444 67.2002)" class="st0" width="2.3" height="14.4"/>
			</g>
		</g>
	</g>
	<g>
		<g>
			<g>
				<polygon id="XMLID_133_" class="st0" points="217,965 215.2,963.6 282.4,880.3 284.2,881.7 				"/>
			</g>
		</g>
	</g>
	<g>
		<g>
			<g>
				<polygon id="XMLID_132_" class="st0" points="237.8,968.4 236,967 288.1,897.5 289.9,898.9 				"/>
			</g>
		</g>
	</g>
	<g>
		<g>
			<g>
				<polygon id="XMLID_131_" class="st0" points="252.9,978.6 251.1,977.3 300.1,907 302,908.2 				"/>
			</g>
		</g>
	</g>
	<g>
		<g>
			<g>
				
					<rect id="XMLID_130_" x="289.3" y="926.2" transform="matrix(0.8395 0.5434 -0.5434 0.8395 564.0267 -4.9718)" class="st0" width="2.2" height="51.8"/>
			</g>
		</g>
	</g>
	<g>
		<g>
			<g>
				
					<rect id="XMLID_129_" x="303.5" y="937.8" transform="matrix(0.8586 0.5127 -0.5127 0.8586 535.7921 -20.2846)" class="st0" width="2.2" height="46.3"/>
			</g>
		</g>
	</g>
	<g>
		<g>
			<g>
				<polygon id="XMLID_128_" class="st0" points="310.5,987.4 308.5,986.3 327.9,951.3 329.9,952.3 				"/>
			</g>
		</g>
	</g>
	<g>
		<g>
			<g>
				
					<rect id="XMLID_127_" x="332.9" y="939.5" transform="matrix(0.8914 0.4532 -0.4532 0.8914 479.0708 -45.2718)" class="st0" width="2.3" height="75.3"/>
			</g>
		</g>
	</g>
	<g>
		<g>
			<g>
				<polygon id="XMLID_126_" class="st0" points="336.5,1014.4 334.4,1013.5 361.7,954.6 363.8,955.5 				"/>
			</g>
		</g>
	</g>
	<g>
		<g>
			<g>
				
					<rect id="XMLID_125_" x="363.3" y="962.2" transform="matrix(0.9211 0.3893 -0.3893 0.9211 414.6713 -63.6684)" class="st0" width="2.3" height="58.1"/>
			</g>
		</g>
	</g>
	<g>
		<g>
			<g>
				
					<rect id="XMLID_124_" x="378.9" y="986.5" transform="matrix(0.9341 0.357 -0.357 0.9341 381.1959 -69.9202)" class="st0" width="2.3" height="22"/>
			</g>
		</g>
	</g>
	<g>
		<g>
			<g>
				
					<rect id="XMLID_123_" x="394.6" y="963.4" transform="matrix(0.946 0.3243 -0.3243 0.946 346.6889 -74.1178)" class="st0" width="2.3" height="79.5"/>
			</g>
		</g>
	</g>
	<g>
		<g>
			<g>
				
					<rect id="XMLID_122_" x="410.6" y="963.5" transform="matrix(0.9567 0.2909 -0.2909 0.9567 311.1917 -76.1589)" class="st0" width="2.3" height="89.8"/>
			</g>
		</g>
	</g>
	<g>
		<g>
			<g>
				
					<rect id="XMLID_121_" x="426.7" y="999.8" transform="matrix(0.9663 0.2574 -0.2574 0.9663 275.122 -75.9848)" class="st0" width="2.3" height="26.3"/>
			</g>
		</g>
	</g>
	<g>
		<g>
			<g>
				
					<rect id="XMLID_120_" x="443" y="995" transform="matrix(0.9746 0.2237 -0.2237 0.9746 238.7903 -73.5783)" class="st0" width="2.3" height="44"/>
			</g>
		</g>
	</g>
	<g>
		<g>
			<g>
				
					<rect id="XMLID_119_" x="459.4" y="1003.9" transform="matrix(0.982 0.1887 -0.1887 0.982 200.8479 -68.5678)" class="st0" width="2.2" height="33.1"/>
			</g>
		</g>
	</g>
	<g>
		<g>
			<g>
				
					<rect id="XMLID_118_" x="475.9" y="1010.5" transform="matrix(0.988 0.1548 -0.1548 0.988 164.1138 -61.4932)" class="st0" width="2.3" height="25.5"/>
			</g>
		</g>
	</g>
	<g>
		<g>
			<g>
				
					<rect id="XMLID_117_" x="492.5" y="973.2" transform="matrix(0.9929 0.1193 -0.1193 0.9929 125.9121 -51.5745)" class="st0" width="2.3" height="104.8"/>
			</g>
		</g>
	</g>
	<g>
		<g>
			<g>
				<polygon id="XMLID_116_" class="st0" points="507.8,1069.3 505.6,1069.1 512.7,985.4 515,985.6 				"/>
			</g>
		</g>
	</g>
	<g>
		<g>
			<g>
				
					<rect id="XMLID_115_" x="525.9" y="1022.1" transform="matrix(0.9987 5.036070e-002 -5.036070e-002 0.9987 52.462 -25.2353)" class="st0" width="2.2" height="12.7"/>
			</g>
		</g>
	</g>
	<g>
		<g>
			<g>
				
					<rect id="XMLID_114_" x="542.6" y="1005.2" transform="matrix(0.9999 1.447569e-002 -1.447569e-002 0.9999 14.9524 -7.7635)" class="st0" width="2.3" height="47.5"/>
			</g>
		</g>
	</g>
	<g>
		<g>
			<g>
				
					<rect id="XMLID_113_" x="559.4" y="984.6" transform="matrix(0.9998 -1.876546e-002 1.876546e-002 0.9998 -19.2102 10.6997)" class="st0" width="2.3" height="88.8"/>
			</g>
		</g>
	</g>
	<g>
		<g>
			<g>
				<polygon id="XMLID_112_" class="st0" points="579,1038.6 576.7,1038.7 575.6,1018.1 577.8,1018 				"/>
			</g>
		</g>
	</g>
	<g>
		<g>
			<g>
				<polygon id="XMLID_111_" class="st0" points="596.6,1043.6 594.4,1043.8 591.4,1010.6 593.6,1010.4 				"/>
			</g>
		</g>
	</g>
	<g>
		<g>
			<g>
				
					<rect id="XMLID_110_" x="609.5" y="1001.5" transform="matrix(0.9924 -0.1234 0.1234 0.9924 -121.8754 83.2033)" class="st0" width="2.3" height="47.8"/>
			</g>
		</g>
	</g>
	<g>
		<g>
			<g>
				<polygon id="XMLID_109_" class="st0" points="633.2,1052.7 630.9,1053.1 621.3,993.3 623.6,992.9 				"/>
			</g>
		</g>
	</g>
	<g>
		<g>
			<g>
				<polygon id="XMLID_108_" class="st0" points="650.5,1048.6 648.3,1049 637,991.5 639.2,991.1 				"/>
			</g>
		</g>
	</g>
	<g>
		<g>
			<g>
				<polygon id="XMLID_107_" class="st0" points="664.8,1031.5 662.6,1032 655.5,1001.6 657.7,1001.1 				"/>
			</g>
		</g>
	</g>
	<g>
		<g>
			<g>
				
					<rect id="XMLID_106_" x="675.3" y="996.6" transform="matrix(0.9652 -0.2614 0.2614 0.9652 -241.1272 212.0074)" class="st0" width="2.3" height="31.6"/>
			</g>
		</g>
	</g>
	<g>
		<g>
			<g>
				
					<rect id="XMLID_105_" x="691.4" y="981.8" transform="matrix(0.9555 -0.295 0.295 0.9555 -266.4799 249.1423)" class="st0" width="2.3" height="52"/>
			</g>
		</g>
	</g>
	<g>
		<g>
			<g>
				
					<rect id="XMLID_104_" x="707.3" y="981.2" transform="matrix(0.9446 -0.3282 0.3282 0.9446 -289.8317 288.0854)" class="st0" width="2.3" height="42.8"/>
			</g>
		</g>
	</g>
	<g>
		<g>
			<g>
				
					<rect id="XMLID_103_" x="723" y="944.4" transform="matrix(0.9326 -0.3609 0.3609 0.9326 -310.9152 328.4968)" class="st0" width="2.3" height="104.9"/>
			</g>
		</g>
	</g>
	<g>
		<g>
			<g>
				
					<rect id="XMLID_102_" x="738.6" y="946.5" transform="matrix(0.92 -0.3919 0.3919 0.92 -328.9989 369.1164)" class="st0" width="2.2" height="87.9"/>
			</g>
		</g>
	</g>
	<g>
		<g>
			<g>
				
					<rect id="XMLID_101_" x="753.9" y="951.8" transform="matrix(0.9058 -0.4236 0.4236 0.9058 -345.5882 412.4351)" class="st0" width="2.3" height="63.8"/>
			</g>
		</g>
	</g>
	<g>
		<g>
			<g>
				<polygon id="XMLID_100_" class="st0" points="782.6,998.3 780.6,999.3 757.5,954.2 759.5,953.2 				"/>
			</g>
		</g>
	</g>
	<g>
		<g>
			<g>
				<polygon id="XMLID_99_" class="st0" points="803.4,999.4 801.5,1000.5 766.2,937.3 768.2,936.2 				"/>
			</g>
		</g>
	</g>
	<g>
		<g>
			<g>
				
					<rect id="XMLID_98_" x="798.2" y="941.1" transform="matrix(0.8564 -0.5163 0.5163 0.8564 -380.8463 550.5513)" class="st0" width="2.2" height="37.6"/>
			</g>
		</g>
	</g>
	<g>
		<g>
			<g>
				<polygon id="XMLID_97_" class="st0" points="842.7,993.7 840.8,995 784.3,908.3 786.2,907.1 				"/>
			</g>
		</g>
	</g>
	<g>
		<g>
			<g>
				<polygon id="XMLID_96_" class="st0" points="852.5,975.4 850.7,976.7 802.3,907.9 804.1,906.6 				"/>
			</g>
		</g>
	</g>
	<g>
		<g>
			<g>
				<polygon id="XMLID_95_" class="st0" points="856.5,950.4 854.7,951.7 825.4,913.1 827.2,911.8 				"/>
			</g>
		</g>
	</g>
	<g>
		<g>
			<g>
				<polygon id="XMLID_94_" class="st0" points="876,946.5 874.2,947.9 832.3,896.3 834,894.9 				"/>
			</g>
		</g>
	</g>
	<g>
		<g>
			<g>
				
					<rect id="XMLID_93_" x="865.8" y="887.7" transform="matrix(0.7538 -0.6571 0.6571 0.7538 -384.9202 793.9171)" class="st0" width="2.2" height="45.9"/>
			</g>
		</g>
	</g>
	<g>
		<g>
			<g>
				<polygon id="XMLID_92_" class="st0" points="912.8,933.4 911.2,935 845.9,865.3 847.6,863.8 				"/>
			</g>
		</g>
	</g>
	<g>
		<g>
			<g>
				
					<rect id="XMLID_91_" x="890.3" y="865.4" transform="matrix(0.7057 -0.7086 0.7086 0.7057 -366.595 892.9022)" class="st0" width="2.3" height="44.6"/>
			</g>
		</g>
	</g>
	<g>
		<g>
			<g>
				<polygon id="XMLID_90_" class="st0" points="918.6,891.6 885.9,861.2 887.4,859.6 920.2,890 				"/>
			</g>
		</g>
	</g>
	<g>
		<g>
			<g>
				
					<rect id="XMLID_89_" x="896.9" y="862" transform="matrix(0.7561 0.6545 -0.6545 0.7561 787.9044 -387.8101)" class="st0" width="34.7" height="2.3"/>
			</g>
		</g>
	</g>
	<g>
		<g>
			<g>
				<polygon id="XMLID_88_" class="st0" points="960.4,880.2 888.2,822 889.6,820.3 961.8,878.5 				"/>
			</g>
		</g>
	</g>
	<g>
		<g>
			<g>
				<polygon id="XMLID_87_" class="st0" points="975.6,868.7 893.6,807.2 895,805.4 976.9,866.9 				"/>
			</g>
		</g>
	</g>
	<g>
		<g>
			<g>
				<polygon id="XMLID_86_" class="st0" points="981.2,850 907.7,798.8 909,796.9 982.4,848.1 				"/>
			</g>
		</g>
	</g>
	<g>
		<g>
			<g>
				<polygon id="XMLID_85_" class="st0" points="985.8,831.2 921.8,789.8 923,787.9 987.1,829.3 				"/>
			</g>
		</g>
	</g>
	<g>
		<g>
			<g>
				
					<rect id="XMLID_84_" x="952.9" y="794.2" transform="matrix(0.8583 0.5132 -0.5132 0.8583 544.6107 -381.616)" class="st0" width="20.9" height="2.2"/>
			</g>
		</g>
	</g>
	<g>
		<g>
			<g>
				<polygon id="XMLID_83_" class="st0" points="979.7,786.5 962.5,777 963.6,775.1 980.8,784.5 				"/>
			</g>
		</g>
	</g>
	<g>
		<g>
			<g>
				<polygon id="XMLID_82_" class="st0" points="1011.6,783.5 946.3,750.4 947.3,748.4 1012.6,781.5 				"/>
			</g>
		</g>
	</g>
	<g>
		<g>
			<g>
				<polygon id="XMLID_81_" class="st0" points="997.2,756.9 975.4,746.8 976.4,744.8 998.2,754.9 				"/>
			</g>
		</g>
	</g>
	<g>
		<g>
			<g>
				
					<rect id="XMLID_80_" x="979.7" y="734.4" transform="matrix(0.9213 0.3888 -0.3888 0.9213 364.15 -328.4305)" class="st0" width="27.7" height="2.3"/>
			</g>
		</g>
	</g>
	<g>
		<g>
			<g>
				
					<rect id="XMLID_79_" x="957.7" y="718.9" transform="matrix(0.9343 0.3564 -0.3564 0.9343 322.2811 -309.0749)" class="st0" width="84.2" height="2.3"/>
			</g>
		</g>
	</g>
	<g>
		<g>
			<g>
				
					<rect id="XMLID_78_" x="977.8" y="703.1" transform="matrix(0.9462 0.3236 -0.3236 0.9462 282.0115 -287.5105)" class="st0" width="55.4" height="2.3"/>
			</g>
		</g>
	</g>
	<g>
		<g>
			<g>
				
					<rect id="XMLID_77_" x="987.4" y="687.1" transform="matrix(0.9569 0.2903 -0.2903 0.9569 243.3492 -263.7741)" class="st0" width="46.5" height="2.3"/>
			</g>
		</g>
	</g>
	<g>
		<g>
			<g>
				
					<rect id="XMLID_76_" x="993.4" y="671" transform="matrix(0.9664 0.2569 -0.2569 0.9664 206.7874 -238.2952)" class="st0" width="43.8" height="2.3"/>
			</g>
		</g>
	</g>
	<g>
		<g>
			<g>
				
					<rect id="XMLID_75_" x="993.7" y="654.7" transform="matrix(0.9749 0.2229 -0.2229 0.9749 171.8044 -210.6627)" class="st0" width="51.1" height="2.3"/>
			</g>
		</g>
	</g>
	<g>
		<g>
			<g>
				<polygon id="XMLID_74_" class="st0" points="1029.8,642 1015.2,639.2 1015.6,637 1030.3,639.8 				"/>
			</g>
		</g>
	</g>
	<g>
		<g>
			<g>
				<polygon id="XMLID_73_" class="st0" points="1068.4,630.8 982.5,617.4 982.9,615.1 1068.7,628.6 				"/>
			</g>
		</g>
	</g>
	<g>
		<g>
			<g>
				
					<rect id="XMLID_72_" x="1001.4" y="605.2" transform="matrix(0.9928 0.1198 -0.1198 0.9928 80.0672 -118.806)" class="st0" width="53.1" height="2.3"/>
			</g>
		</g>
	</g>
	<g>
		<g>
			<g>
				<polygon id="XMLID_71_" class="st0" points="1069.5,594.2 989.6,587.4 989.8,585.2 1069.7,592 				"/>
			</g>
		</g>
	</g>
	<g>
		<g>
			<g>
				<polygon id="XMLID_70_" class="st0" points="1076.6,576.4 984.8,571.8 984.9,569.5 1076.7,574.1 				"/>
			</g>
		</g>
	</g>
	<g>
		<g>
			<g>
				
					<rect id="XMLID_69_" x="1011.5" y="555.1" transform="matrix(0.9999 1.533054e-002 -1.533054e-002 0.9999 8.6482 -15.7452)" class="st0" width="39.7" height="2.3"/>
			</g>
		</g>
	</g>
	<g>
		<g>
			<g>
				
					<rect id="XMLID_68_" x="991.2" y="538.3" transform="matrix(0.9998 -1.953474e-002 1.953474e-002 0.9998 -10.3411 20.2486)" class="st0" width="80.2" height="2.3"/>
			</g>
		</g>
	</g>
	<g>
		<g>
			<g>
				<polygon id="XMLID_67_" class="st0" points="1082.3,521 979.1,526.6 979,524.4 1082.2,518.8 				"/>
			</g>
		</g>
	</g>
	<g>
		<g>
			<g>
				<polygon id="XMLID_66_" class="st0" points="1079.2,502.6 979.9,511.5 979.7,509.3 1079,500.4 				"/>
			</g>
		</g>
	</g>
	<g>
		<g>
			<g>
				
					<rect id="XMLID_65_" x="1018.4" y="488.2" transform="matrix(0.9923 -0.124 0.124 0.9923 -52.7382 131.192)" class="st0" width="18.5" height="2.3"/>
			</g>
		</g>
	</g>
	<g>
		<g>
			<g>
				<polygon id="XMLID_64_" class="st0" points="1036.3,472.1 1014.7,475.6 1014.3,473.3 1035.9,469.9 				"/>
			</g>
		</g>
	</g>
	<g>
		<g>
			<g>
				<polygon id="XMLID_63_" class="st0" points="1067.2,448.5 977.9,466.1 977.5,463.9 1066.8,446.3 				"/>
			</g>
		</g>
	</g>
	<g>
		<g>
			<g>
				
					<rect id="XMLID_62_" x="972.8" y="438.7" transform="matrix(0.9739 -0.227 0.227 0.9739 -73.2473 242.7773)" class="st0" width="92.1" height="2.3"/>
			</g>
		</g>
	</g>
	<g>
		<g>
			<g>
				
					<rect id="XMLID_61_" x="995.7" y="422.4" transform="matrix(0.9654 -0.2609 0.2609 0.9654 -75.3648 279.4196)" class="st0" width="38.1" height="2.3"/>
			</g>
		</g>
	</g>
	<g>
		<g>
			<g>
				
					<rect id="XMLID_60_" x="971.6" y="406.3" transform="matrix(0.9557 -0.2944 0.2944 0.9557 -75.1921 315.4135)" class="st0" width="76.9" height="2.3"/>
			</g>
		</g>
	</g>
	<g>
		<g>
			<g>
				
					<rect id="XMLID_59_" x="961.9" y="390.4" transform="matrix(0.9448 -0.3275 0.3275 0.9448 -72.8111 350.711)" class="st0" width="86" height="2.3"/>
			</g>
		</g>
	</g>
	<g>
		<g>
			<g>
				
					<rect id="XMLID_58_" x="960.9" y="374.7" transform="matrix(0.9328 -0.3603 0.3603 0.9328 -68.2946 385.2231)" class="st0" width="76.5" height="2.3"/>
			</g>
		</g>
	</g>
	<g>
		<g>
			<g>
				
					<rect id="XMLID_57_" x="982.3" y="359.1" transform="matrix(0.9196 -0.3928 0.3928 0.9196 -61.7164 418.9352)" class="st0" width="20.9" height="2.3"/>
			</g>
		</g>
	</g>
	<g>
		<g>
			<g>
				<polygon id="XMLID_56_" class="st0" points="1021.9,329.4 951,362.6 950,360.6 1020.9,327.3 				"/>
			</g>
		</g>
	</g>
	<g>
		<g>
			<g>
				<polygon id="XMLID_55_" class="st0" points="1011.8,314.2 946.4,347.7 945.4,345.7 1010.8,312.2 				"/>
			</g>
		</g>
	</g>
	<g>
		<g>
			<g>
				<polygon id="XMLID_54_" class="st0" points="1005.4,297.1 937.1,335.1 936,333.2 1004.3,295.1 				"/>
			</g>
		</g>
	</g>
	<g>
		<g>
			<g>
				
					<rect id="XMLID_53_" x="947.9" y="299.5" transform="matrix(0.8561 -0.5168 0.5168 0.8561 -16.9061 540.5411)" class="st0" width="28.8" height="2.2"/>
			</g>
		</g>
	</g>
	<g>
		<g>
			<g>
				<polygon id="XMLID_52_" class="st0" points="961.6,282.4 946.3,292.4 945.1,290.5 960.4,280.5 				"/>
			</g>
		</g>
	</g>
	<g>
		<g>
			<g>
				<polygon id="XMLID_51_" class="st0" points="983.1,246.4 906.1,300.5 904.8,298.7 981.8,244.6 				"/>
			</g>
		</g>
	</g>
	<g>
		<g>
			<g>
				
					<rect id="XMLID_50_" x="889.6" y="257.9" transform="matrix(0.7974 -0.6035 0.6035 0.7974 32.9588 616.2064)" class="st0" width="88.9" height="2.3"/>
			</g>
		</g>
	</g>
	<g>
		<g>
			<g>
				<polygon id="XMLID_49_" class="st0" points="960.5,217.3 888.3,276.1 886.9,274.3 959.1,215.6 				"/>
			</g>
		</g>
	</g>
	<g>
		<g>
			<g>
				
					<rect id="XMLID_48_" x="877.9" y="231.9" transform="matrix(0.7534 -0.6576 0.6576 0.7534 71.914 657.7827)" class="st0" width="69.9" height="2.3"/>
			</g>
		</g>
	</g>
	<g>
		<g>
			<g>
				<polygon id="XMLID_47_" class="st0" points="935.3,190.7 869.6,252.1 868.1,250.5 933.7,189 				"/>
			</g>
		</g>
	</g>
	<g>
		<g>
			<g>
				
					<rect id="XMLID_46_" x="865" y="207.4" transform="matrix(0.7056 -0.7086 0.7086 0.7056 114.2158 692.0297)" class="st0" width="49.9" height="2.3"/>
			</g>
		</g>
	</g>
	<g>
		<g>
			<g>
				<polygon id="XMLID_45_" class="st0" points="870.8,206.3 869.1,204.8 885.1,187.6 886.7,189.1 				"/>
			</g>
		</g>
	</g>
	<g>
		<g>
			<g>
				
					<rect id="XMLID_44_" x="864.3" y="140.8" transform="matrix(0.7566 0.6539 -0.6539 0.7566 332.1355 -520.7098)" class="st0" width="2.2" height="89.9"/>
			</g>
		</g>
	</g>
	<g>
		<g>
			<g>
				<polygon id="XMLID_43_" class="st0" points="827.1,208.3 825.4,206.9 878,141.7 879.8,143.1 				"/>
			</g>
		</g>
	</g>
	<g>
		<g>
			<g>
				<polygon id="XMLID_42_" class="st0" points="818.6,194.2 816.8,192.8 860.1,135.2 861.9,136.6 				"/>
			</g>
		</g>
	</g>
	<g>
		<g>
			<g>
				<polygon id="XMLID_41_" class="st0" points="796.5,198.9 794.6,197.6 855.1,110.9 856.9,112.2 				"/>
			</g>
		</g>
	</g>
	<g>
		<g>
			<g>
				<polygon id="XMLID_40_" class="st0" points="791.7,178.7 789.8,177.5 832,112.3 833.9,113.6 				"/>
			</g>
		</g>
	</g>
	<g>
		<g>
			<g>
				
					<rect id="XMLID_39_" x="796.5" y="93.6" transform="matrix(0.8585 0.5128 -0.5128 0.8585 182.9192 -389.6476)" class="st0" width="2.2" height="86.1"/>
			</g>
		</g>
	</g>
	<g>
		<g>
			<g>
				<polygon id="XMLID_38_" class="st0" points="763.6,166 761.6,164.9 802.5,90.7 804.5,91.8 				"/>
			</g>
		</g>
	</g>
	<g>
		<g>
			<g>
				<polygon id="XMLID_37_" class="st0" points="748.6,161.8 746.6,160.8 788,79.2 790,80.2 				"/>
			</g>
		</g>
	</g>
	<g>
		<g>
			<g>
				
					<rect id="XMLID_36_" x="752.1" y="94.7" transform="matrix(0.9077 0.4197 -0.4197 0.9077 117.0473 -305.6631)" class="st0" width="2.3" height="36.9"/>
			</g>
		</g>
	</g>
	<g>
		<g>
			<g>
				
					<rect id="XMLID_35_" x="736.7" y="86.4" transform="matrix(0.9216 0.388 -0.388 0.9216 99.0993 -277.984)" class="st0" width="2.2" height="39.9"/>
			</g>
		</g>
	</g>
	<g>
		<g>
			<g>
				
					<rect id="XMLID_34_" x="721.2" y="62.4" transform="matrix(0.934 0.3572 -0.3572 0.934 83.4176 -251.3932)" class="st0" width="2.3" height="75.4"/>
			</g>
		</g>
	</g>
	<g>
		<g>
			<g>
				
					<rect id="XMLID_33_" x="705.4" y="54.5" transform="matrix(0.946 0.3241 -0.3241 0.946 68.7561 -223.9162)" class="st0" width="2.3" height="79.9"/>
			</g>
		</g>
	</g>
	<g>
		<g>
			<g>
				
					<rect id="XMLID_32_" x="689.5" y="67.3" transform="matrix(0.9567 0.2909 -0.2909 0.9567 55.8468 -197.042)" class="st0" width="2.3" height="44"/>
			</g>
		</g>
	</g>
	<g>
		<g>
			<g>
				
					<rect id="XMLID_31_" x="673.3" y="52.4" transform="matrix(0.9663 0.2574 -0.2574 0.9663 44.5303 -170.7547)" class="st0" width="2.3" height="64.7"/>
			</g>
		</g>
	</g>
	<g>
		<g>
			<g>
				<polygon id="XMLID_30_" class="st0" points="657.3,89.4 655.2,88.9 659,71.9 661.2,72.4 				"/>
			</g>
		</g>
	</g>
	<g>
		<g>
			<g>
				<polygon id="XMLID_29_" class="st0" points="641,87.5 638.8,87.1 642.6,67 644.8,67.4 				"/>
			</g>
		</g>
	</g>
	<g>
		<g>
			<g>
				<polygon id="XMLID_28_" class="st0" points="624.5,86.3 622.3,86 626,62.4 628.2,62.7 				"/>
			</g>
		</g>
	</g>
	<g>
		<g>
			<g>
				
					<rect id="XMLID_27_" x="607.5" y="42.4" transform="matrix(0.9929 0.1192 -0.1192 0.9929 12.9328 -72.055)" class="st0" width="2.3" height="59.3"/>
			</g>
		</g>
	</g>
	<g>
		<g>
			<g>
				<polygon id="XMLID_26_" class="st0" points="590.2,104.7 588,104.5 593.8,36 596,36.2 				"/>
			</g>
		</g>
	</g>
	<g>
		<g>
			<g>
				<polygon id="XMLID_25_" class="st0" points="574,116.2 571.8,116.1 576.5,22.2 578.8,22.4 				"/>
			</g>
		</g>
	</g>
	<g>
		<g>
			<g>
				
					<rect id="XMLID_24_" x="557.4" y="49.1" transform="matrix(0.9999 1.458134e-002 -1.458134e-002 0.9999 1.0605 -8.1367)" class="st0" width="2.3" height="39.1"/>
			</g>
		</g>
	</g>
	<g>
		<g>
			<g>
				
					<rect id="XMLID_23_" x="540.6" y="29.3" transform="matrix(0.9998 -1.865627e-002 1.865627e-002 0.9998 -1.1873 10.1192)" class="st0" width="2.3" height="78.7"/>
			</g>
		</g>
	</g>
	<g>
		<g>
			<g>
				
					<rect id="XMLID_22_" x="523.9" y="46.7" transform="matrix(0.9985 -5.476818e-002 5.476818e-002 0.9985 -3.0082 28.8578)" class="st0" width="2.2" height="45.2"/>
			</g>
		</g>
	</g>
	<g>
		<g>
			<g>
				<polygon id="XMLID_21_" class="st0" points="511.4,92.7 509.2,92.9 505.2,48.3 507.4,48.1 				"/>
			</g>
		</g>
	</g>
	<g>
		<g>
			<g>
				
					<rect id="XMLID_20_" x="490.5" y="63.6" transform="matrix(0.9924 -0.1234 0.1234 0.9924 -5.1654 61.2264)" class="st0" width="2.3" height="17.5"/>
			</g>
		</g>
	</g>
	<g>
		<g>
			<g>
				<polygon id="XMLID_19_" class="st0" points="481.1,105.5 478.9,105.9 468.9,43.8 471.2,43.5 				"/>
			</g>
		</g>
	</g>
	<g>
		<g>
			<g>
				
					<rect id="XMLID_18_" x="457.4" y="29.6" transform="matrix(0.9812 -0.1928 0.1928 0.9812 -6.3615 89.8659)" class="st0" width="2.2" height="96.1"/>
			</g>
		</g>
	</g>
	<g>
		<g>
			<g>
				
					<rect id="XMLID_17_" x="441" y="28.4" transform="matrix(0.9737 -0.2277 0.2277 0.9737 -6.8614 102.7839)" class="st0" width="2.3" height="105.6"/>
			</g>
		</g>
	</g>
	<g>
		<g>
			<g>
				
					<rect id="XMLID_16_" x="424.8" y="32.6" transform="matrix(0.9652 -0.2614 0.2614 0.9652 -7.4719 114.2738)" class="st0" width="2.3" height="105.3"/>
			</g>
		</g>
	</g>
	<g>
		<g>
			<g>
				
					<rect id="XMLID_15_" x="408.7" y="67.1" transform="matrix(0.9555 -0.2949 0.2949 0.9555 -8.2813 124.8442)" class="st0" width="2.3" height="45.6"/>
			</g>
		</g>
	</g>
	<g>
		<g>
			<g>
				
					<rect id="XMLID_14_" x="392.7" y="71.7" transform="matrix(0.9446 -0.3282 0.3282 0.9446 -9.391 134.5463)" class="st0" width="2.3" height="46.8"/>
			</g>
		</g>
	</g>
	<g>
		<g>
			<g>
				
					<rect id="XMLID_13_" x="377" y="75.7" transform="matrix(0.9326 -0.3609 0.3609 0.9326 -10.9173 143.2519)" class="st0" width="2.3" height="50.4"/>
			</g>
		</g>
	</g>
	<g>
		<g>
			<g>
				
					<rect id="XMLID_12_" x="361.5" y="60.2" transform="matrix(0.9195 -0.3932 0.3932 0.9195 -12.9358 151.1824)" class="st0" width="2.3" height="93.9"/>
			</g>
		</g>
	</g>
	<g>
		<g>
			<g>
				<polygon id="XMLID_11_" class="st0" points="368.4,156.4 366.4,157.4 326.2,71.6 328.2,70.6 				"/>
			</g>
		</g>
	</g>
	<g>
		<g>
			<g>
				
					<rect id="XMLID_10_" x="331.1" y="68.3" transform="matrix(0.8896 -0.4568 0.4568 0.8896 -18.7654 165.1774)" class="st0" width="2.3" height="106.1"/>
			</g>
		</g>
	</g>
	<g>
		<g>
			<g>
				<polygon id="XMLID_9_" class="st0" points="336.6,161.4 334.7,162.5 298.3,97.2 300.2,96.1 				"/>
			</g>
		</g>
	</g>
	<g>
		<g>
			<g>
				
					<rect id="XMLID_8_" x="301.8" y="104.6" transform="matrix(0.8564 -0.5163 0.5163 0.8564 -27.599 176.1837)" class="st0" width="2.2" height="66.1"/>
			</g>
		</g>
	</g>
	<g>
		<g>
			<g>
				
					<rect id="XMLID_7_" x="287.6" y="120.4" transform="matrix(0.8372 -0.5469 0.5469 0.8372 -33.1772 181.8048)" class="st0" width="2.2" height="52.5"/>
			</g>
		</g>
	</g>
	<g>
		<g>
			<g>
				<polygon id="XMLID_6_" class="st0" points="281.3,163.2 279.4,164.5 268.5,148.9 270.3,147.6 				"/>
			</g>
		</g>
	</g>
	<g>
		<g>
			<g>
				<polygon id="XMLID_5_" class="st0" points="274,180.8 272.2,182.1 248.7,151 250.5,149.7 				"/>
			</g>
		</g>
	</g>
	<g>
		<g>
			<g>
				<polygon id="XMLID_4_" class="st0" points="260.9,190.1 259.1,191.6 235.4,162.4 237.2,160.9 				"/>
			</g>
		</g>
	</g>
	<g>
		<g>
			<g>
				
					<rect id="XMLID_3_" x="234.2" y="157.9" transform="matrix(0.7536 -0.6573 0.6573 0.7536 -64.9723 200.7582)" class="st0" width="2.3" height="58.4"/>
			</g>
		</g>
	</g>
	<g>
		<g>
			<g>
				
					<rect id="XMLID_2_" x="221.8" y="181.3" transform="matrix(0.7302 -0.6832 0.6832 0.7302 -75.3465 205.7966)" class="st0" width="2.3" height="34.1"/>
			</g>
		</g>
	</g>
</g>
</svg>
