<?xml version="1.0" encoding="utf-8"?>
<!-- Generator: Adobe Illustrator 19.0.0, SVG Export Plug-In . SVG Version: 6.00 Build 0)  -->
<svg version="1.1" id="Layer_1" xmlns="http://www.w3.org/2000/svg" xmlns:xlink="http://www.w3.org/1999/xlink" x="0px" y="0px"
	 viewBox="0 0 572.8 572.8" style="enable-background:new 0 0 572.8 572.8;" xml:space="preserve">
<style type="text/css">
	.st0{clip-path:url(#SVGID_2_);fill:#B7B2B2;}
	.st1{clip-path:url(#SVGID_4_);fill:#B7B2B2;}
</style>
<g>
	<defs>
		<path id="SVGID_1_" d="M269.5,291.4c2-2,6.3-0.9,9.5,2.3c3.2,3.2,4.2,7.5,2.3,9.5c-2,2-6.3,0.9-9.5-2.3c-2.1-2.1-3.3-4.7-3.3-6.8
			C268.5,293,268.9,292.1,269.5,291.4 M267.4,280.7c4.4-4.4,13.4-2.4,20.2,4.4c6.7,6.7,8.7,15.9,4.4,20.2c-3,3-8.3,2.9-13.5,0.4
			c1.5-0.1,2.9-0.4,3.9-1.4c2.7-2.8,1.8-8-2.1-11.9c-3.9-3.9-9.1-4.8-11.9-2.1c-1,1-1.4,2.4-1.4,3.9c-1.3-2.6-1.9-5.1-1.9-7.4
			C265.1,284.4,265.8,282.2,267.4,280.7 M265.2,270c6.7-6.7,20.5-3.7,30.9,6.6c10.3,10.3,13.3,24.2,6.6,30.9
			c-4.3,4.3-11.5,4.6-18.8,1.6c3.6,0.4,6.9-0.4,9.2-2.7c5.1-5.1,3.2-15.2-4.2-22.6c-7.4-7.4-17.5-9.3-22.6-4.2
			c-2.3,2.3-3.1,5.5-2.8,9c-1.3-3.1-1.9-6.2-1.9-9C261.6,275.8,262.8,272.4,265.2,270 M263,259.3c9.1-9,27.7-5.1,41.6,8.8
			c13.9,13.9,17.8,32.5,8.8,41.6c-5.5,5.5-14.7,6.2-24.1,2.7c5.7,0.9,11-0.2,14.5-3.8c7.4-7.4,4.5-22.3-6.4-33.3
			c-11-10.9-25.9-13.8-33.3-6.4c-3.5,3.5-4.7,8.8-3.8,14.5c-1.4-3.8-2.2-7.6-2.2-11.2C258.2,267.1,259.8,262.6,263,259.3
			 M260.9,248.6c11.4-11.4,34.9-6.5,52.3,10.9c17.4,17.4,22.3,40.9,10.9,52.3c-6.7,6.7-17.7,7.6-29.1,3.8c7.7,1.3,14.7-0.2,19.4-4.9
			c9.8-9.8,5.9-29.5-8.5-44c-14.5-14.5-34.2-18.3-44-8.6c-4.7,4.7-6.2,11.8-4.9,19.5c-1.5-4.4-2.3-8.8-2.3-12.8
			C254.8,258.4,256.7,252.7,260.9,248.6 M258.7,237.9c13.8-13.8,42-7.9,63,13.1c21,21,26.8,49.2,13.1,63c-7.9,7.9-20.6,9.1-33.9,4.9
			c9.6,1.7,18.4-0.1,24.3-6c12.1-12.1,7.3-36.6-10.7-54.6c-18-18-42.6-22.9-54.7-10.7c-5.9,5.9-7.7,14.8-6,24.3
			c-1.6-4.9-2.4-9.8-2.4-14.4C251.4,249.8,253.7,242.9,258.7,237.9 M256.5,227.2c16.1-16.1,49.1-9.3,73.7,15.3
			c24.5,24.5,31.4,57.6,15.2,73.7c-9.3,9.3-24.3,10.9-40,5.9c12,2.4,23.1,0.3,30.4-7c14.5-14.5,8.7-43.8-12.8-65.4
			c-21.6-21.6-50.9-27.4-65.4-12.9c-7.3,7.3-9.4,18.4-7,30.4c-1.8-5.8-2.8-11.5-2.8-16.8C247.8,241.3,250.7,233.1,256.5,227.2
			 M254.4,216.5c18.5-18.5,56.3-10.6,84.4,17.4c28,28.1,35.9,65.9,17.4,84.4c-10.6,10.7-27.7,12.5-45.6,6.8
			c14.2,3.1,27.4,0.7,36-7.9c16.8-16.8,10.1-50.9-15-76c-25.1-25.1-59.2-31.9-76-15.1c-8.6,8.6-11,21.8-7.9,36
			c-2.1-6.5-3.1-13-3.1-19C244.4,232.6,247.6,223.3,254.4,216.5 M252.2,205.8c20.8-20.8,63.4-12,95.1,19.6
			c31.6,31.6,40.4,74.3,19.6,95.1c-12,12-31.2,14.1-51.3,7.8c16.4,3.7,31.7,1.1,41.7-8.9c19.2-19.2,11.4-58.1-17.2-86.7
			c-28.7-28.7-67.6-36.4-86.7-17.2c-9.9,10-12.6,25.3-8.9,41.6c-2.3-7.3-3.5-14.5-3.5-21.2C241,224,244.6,213.5,252.2,205.8
			 M250.1,195.1c23.2-23.2,70.6-13.4,105.8,21.7c35.2,35.2,44.9,82.6,21.7,105.8c-13.3,13.3-34.5,15.7-56.9,8.7
			c18.6,4.4,36,1.5,47.3-9.8c21.5-21.5,12.8-65.2-19.4-97.4c-32.2-32.2-75.9-40.9-97.4-19.4c-11.3,11.3-14.2,28.7-9.8,47.3
			c-2.5-8-3.8-15.9-3.8-23.4C237.5,215.4,241.6,203.6,250.1,195.1 M247.9,184.5c25.5-25.5,77.7-14.8,116.4,23.9
			c38.7,38.7,49.4,90.9,23.9,116.4c-14.6,14.6-37.9,17.3-62.5,9.7c20.8,5,40.3,1.8,52.9-10.8c23.9-23.9,14.2-72.4-21.5-108.1
			c-35.8-35.8-84.3-45.4-108.1-21.5c-12.6,12.6-15.8,32-10.8,52.9c-2.7-8.8-4.1-17.4-4.1-25.6C234.1,206.8,238.5,193.8,247.9,184.5
			 M245.7,173.8c27.9-27.9,84.9-16.2,127.1,26.1c42.2,42.2,54,99.3,26.1,127.1c-15.9,15.9-41.3,18.9-68.1,10.7
			c23,5.6,44.6,2.2,58.5-11.8c26.2-26.2,15.6-79.5-23.7-118.8c-39.3-39.3-92.6-49.9-118.8-23.7c-13.9,13.9-17.4,35.5-11.8,58.5
			c-2.9-9.6-4.4-19-4.4-27.8C230.6,198.1,235.5,184,245.7,173.8 M243.5,163.1c30.2-30.2,92.1-17.5,137.8,28.3
			c45.8,45.8,58.5,107.6,28.2,137.8c-17.2,17.2-44.8,20.5-73.7,11.6c25.2,6.3,48.9,2.5,64.1-12.7c28.6-28.6,17-86.7-25.9-129.5
			c-42.8-42.8-100.9-54.4-129.5-25.9c-15.2,15.2-18.9,38.9-12.7,64.1c-3.2-10.3-4.8-20.5-4.8-30
			C227.2,189.5,232.4,174.2,243.5,163.1 M241.4,152.4c32.6-32.6,99.2-18.9,148.5,30.4c49.3,49.3,63,116,30.4,148.5
			c-18.6,18.6-48.2,22.1-79.3,12.6c27.4,6.9,53.2,2.9,69.7-13.6c30.9-30.9,18.3-93.8-28-140.2c-46.4-46.4-109.3-59-140.2-28
			c-16.5,16.6-20.5,42.3-13.6,69.7c-3.4-11.1-5.1-21.9-5.1-32.2C223.7,180.9,229.4,164.3,241.4,152.4 M239.2,141.7
			c34.9-34.9,106.4-20.3,159.2,32.6c52.9,52.9,67.5,124.3,32.6,159.2c-19.9,19.9-51.6,23.6-85,13.5c29.7,7.5,57.5,3.3,75.4-14.6
			c33.3-33.3,19.8-101-30.2-150.9c-49.9-49.9-117.6-63.5-150.9-30.2c-17.9,17.9-22.1,45.7-14.6,75.4c-3.6-11.8-5.5-23.5-5.5-34.5
			C220.3,172.3,226.4,154.5,239.2,141.7 M237.1,131c37.3-37.3,113.5-21.7,169.9,34.7c56.4,56.4,72,132.7,34.7,169.9
			c-21.2,21.2-55,25.3-90.6,14.5c31.9,8.2,61.8,3.6,81-15.5c35.6-35.6,21.1-108.1-32.4-161.6c-53.5-53.5-126-68-161.6-32.4
			c-19.2,19.2-23.7,49.1-15.6,81c-3.8-12.6-5.8-24.9-5.8-36.6C216.8,163.7,223.4,144.7,237.1,131 M234.9,120.3
			c39.6-39.6,120.6-23.1,180.6,36.9c60,60,76.5,141,36.9,180.6c-22.5,22.5-58.4,26.8-96.2,15.4c34.1,8.8,66.1,4,86.6-16.5
			c38-38,22.5-115.3-34.5-172.3c-57-57-134.3-72.5-172.3-34.5c-20.5,20.5-25.3,52.6-16.5,86.6c-4-13.4-6.1-26.5-6.1-38.8
			C213.4,155,220.3,134.9,234.9,120.3 M232.7,109.6c41.9-42,127.8-24.4,191.3,39.1c63.5,63.5,81,149.3,39.1,191.3
			c-23.9,23.9-61.8,28.4-101.9,16.4c36.3,9.5,70.4,4.4,92.2-17.4c40.3-40.3,23.9-122.4-36.7-183c-60.6-60.6-142.6-77-183-36.7
			c-21.8,21.8-26.9,56-17.4,92.3c-4.3-14.1-6.5-28-6.5-41.1C209.9,146.4,217.3,125,232.7,109.6 M230.6,98.9
			c44.3-44.3,134.9-25.8,202,41.3c67.1,67.1,85.5,157.7,41.2,202c-25.2,25.2-65.2,30-107.5,17.3c38.5,10.1,74.7,4.8,97.9-18.4
			c42.7-42.7,25.2-129.5-38.9-193.7c-64.1-64.1-151-81.5-193.7-38.9c-23.2,23.2-28.5,59.4-18.4,97.9c-4.5-14.9-6.8-29.5-6.8-43.2
			C206.5,137.8,214.3,115.2,230.6,98.9 M228.4,88.2c46.7-46.7,142.1-27.2,212.7,43.4c70.6,70.6,90.1,166,43.4,212.7
			c-26.5,26.5-68.7,31.6-113.1,18.3c40.7,10.7,79,5.1,103.5-19.3c45-45,26.6-136.7-41-204.4c-67.7-67.7-159.3-86.1-204.4-41
			c-24.5,24.5-30.1,62.8-19.3,103.5c-4.7-15.6-7.1-31-7.1-45.5C203,129.1,211.2,105.4,228.4,88.2 M442.4,130.3
			c-71.2-71.2-167.7-90.6-215.1-43.2c-44.7,44.7-29.9,133.1,31.7,202.8c3.6,4.2,7.4,8.3,11.5,12.3c4,4,8.1,7.8,12.3,11.5
			c69.6,61.6,158,76.4,202.8,31.7c17.5-17.5,25.9-41.8,25.9-69C511.5,230,487.2,175.1,442.4,130.3"/>
	</defs>
	<use xlink:href="#SVGID_1_"  style="overflow:visible;fill:#B7B2B2;"/>
	<clipPath id="SVGID_2_">
		<use xlink:href="#SVGID_1_"  style="overflow:visible;"/>
	</clipPath>
	
		<rect x="111.6" y="-30.5" transform="matrix(-0.786 -0.6182 0.6182 -0.786 504.5289 604.4555)" class="st0" width="490.6" height="490.9"/>
</g>
<g>
	<defs>
		<path id="SVGID_3_" d="M220.3,83.6c46-46,136.9-30.9,209.2,32.3c4.8,4.3,9.6,8.6,14.2,13.3c4.6,4.6,9,9.4,13.3,14.2
			c63.2,72.3,78.2,163.2,32.3,209.2c-49,49-149.2,28.6-223.4-45.6c-46.8-46.9-72.3-104.1-72.3-152.3
			C193.6,126.6,202.2,101.6,220.3,83.6 M491.4,363.2c-51.4,51.4-156.4,30-234.1-47.7c-77.7-77.7-99.1-182.7-47.7-234.1
			c29.1-29.1,75.5-34.8,124.4-20.1c-45.2-12-87.6-5.9-114.8,21.2c-49.7,49.7-29.4,151,45.4,225.8c74.7,74.7,176,95.1,225.8,45.4
			c27.1-27.1,33.3-69.6,21.2-114.8C526.2,287.7,520.5,334.1,491.4,363.2 M493.6,373.9C439.8,427.6,330,405.2,248.8,324
			c-81.2-81.2-103.6-191-49.9-244.8c30.5-30.5,78.9-36.4,130-21.1c-47.3-12.7-91.9-6.3-120.4,22.2c-52.1,52.1-30.8,158.2,47.5,236.4
			c78.3,78.3,184.4,99.6,236.5,47.5c28.5-28.5,34.9-73.1,22.2-120.4C530,294.9,524,343.4,493.6,373.9 M495.7,384.6
			c-56.1,56.1-170.7,32.7-255.4-52.1c-84.8-84.8-108.2-199.4-52.1-255.4C220,45.3,270.6,39,323.9,55c-49.6-13.3-96.2-6.6-126,23.2
			c-54.4,54.4-32.2,165.3,49.7,247.1c81.8,81.8,192.7,104.1,247.1,49.7c29.8-29.8,36.5-76.5,23.2-126
			C533.7,302.2,527.5,352.8,495.7,384.6 M497.9,395.3c-58.4,58.4-177.8,34.1-266.2-54.2c-88.3-88.3-112.6-207.7-54.2-266.2
			c33.2-33.2,86-39.7,141.7-22.9c-51.9-14.1-100.8-7.2-132,24c-56.8,56.8-33.6,172.4,51.8,257.8c85.4,85.4,201.1,108.6,257.8,51.8
			c31.2-31.2,38.1-80.1,24-132C537.5,309.3,531.1,362.1,497.9,395.3 M500,406c-60.8,60.8-185,35.5-276.8-56.4
			C131.3,257.7,106,133.5,166.8,72.7c33.4-33.4,85.9-40.8,141.7-25.4c-52-12.8-100.7-4.9-132.1,26.5c-59.1,59.1-34.9,179.6,54,268.5
			c88.9,88.9,209.4,113.1,268.5,54c31.4-31.4,39.3-80.1,26.5-132.1C540.8,320,533.4,372.6,500,406 M502.2,416.7
			c-63.1,63.1-192.1,36.9-287.5-58.6C119.3,262.7,93,133.7,156.1,70.6c34.6-34.7,89.1-42.3,147-26.5C249,30.8,198.4,39,165.7,71.7
			c-61.5,61.5-36.3,186.8,56.2,279.2c92.5,92.5,217.7,117.7,279.2,56.2c32.7-32.7,40.9-83.3,27.5-137.4
			C544.5,327.5,536.9,382,502.2,416.7 M504.4,427.4c-65.5,65.5-199.3,38.3-298.2-60.7c-99-99-126.2-232.8-60.7-298.2
			c35.9-35.9,92.4-43.9,152.3-27.5C241.6,27.1,188.9,35.6,155,69.5c-63.8,63.8-37.7,193.9,58.3,289.9c96,96,226.1,122.2,289.9,58.3
			c33.9-33.9,42.4-86.5,28.6-142.7C548.3,335,540.3,391.4,504.4,427.4 M506.5,438c-67.8,67.8-206.4,39.7-308.9-62.9
			C95.1,272.7,66.9,134.1,134.7,66.2c37.2-37.1,95.5-45.4,157.6-28.5C234,23.3,179.5,32.2,144.4,67.3
			c-66.2,66.2-39.1,201.1,60.5,300.6c99.5,99.6,234.4,126.7,300.6,60.5c35.2-35.1,44-89.7,29.6-148C552,342.5,543.7,400.9,506.5,438
			 M508.7,448.7c-70.2,70.2-213.6,41-319.6-65C83,277.6,53.9,134.3,124.1,64.1c38.4-38.4,98.7-47,162.8-29.6
			c-60.4-14.9-116.8-5.7-153.2,30.7c-68.6,68.6-40.4,208.2,62.7,311.3s242.8,131.2,311.3,62.7c36.4-36.4,45.5-92.9,30.7-153.2
			C555.7,350,547.1,410.3,508.7,448.7 M510.9,459.4c-72.5,72.5-220.7,42.4-330.3-67.2C71,282.6,40.8,134.5,113.4,61.9
			C153,22.3,215.2,13.4,281.4,31.3C219,15.9,160.6,25.4,123,63c-70.9,70.9-41.8,215.4,64.8,322c106.6,106.6,251.1,135.7,322,64.8
			c37.6-37.6,47.1-96,31.7-158.4C559.4,357.6,550.5,419.8,510.9,459.4 M513,470.1c-74.9,74.9-227.9,43.8-341-69.4
			C58.9,287.6,27.8,134.7,102.7,59.8c40.9-40.9,105.1-50.1,173.4-31.7c-64.5-15.9-124.9-6.1-163.8,32.8
			c-73.2,73.3-43.2,222.5,67,332.7c110.2,110.2,259.4,140.2,332.7,67c38.9-38.9,48.7-99.3,32.8-163.8
			C563.2,365,553.9,429.2,513,470.1 M515.2,480.8c-77.2,77.2-235,45.2-351.7-71.5C46.8,292.6,14.7,134.8,92,57.6
			c42.2-42.2,108.5-51.7,179-32.6c-66.8-16.5-129.2-6.5-169.4,33.7C26,134.3,57,288.3,170.7,402.1
			c113.7,113.7,267.8,144.7,343.4,69.1c40.2-40.2,50.3-102.6,33.7-169.4C566.9,372.3,557.4,438.6,515.2,480.8 M517.4,491.5
			c-79.6,79.6-242.2,46.6-362.4-73.7C34.7,297.6,1.7,135,81.3,55.4C124.7,12,192.7,2.2,265.1,21.6C196.5,4.7,132.3,15.1,90.9,56.5
			c-78,78-46,236.8,71.3,354.1c117.3,117.3,276.1,149.3,354.1,71.3c41.4-41.4,51.8-105.6,34.9-174.3
			C570.6,380.1,560.8,448.1,517.4,491.5 M519.5,502.2c-81.9,81.9-249.3,47.9-373.1-75.9C22.7,302.6-11.4,135.2,70.6,53.3
			C115.2,8.6,185.3-1.5,259.8,18.4C189,1,122.8,11.7,80.2,54.3c-80.3,80.3-47.4,243.9,73.5,364.8
			c120.8,120.8,284.4,153.8,364.8,73.5c42.7-42.7,53.4-108.8,35.9-179.6C574.3,387.5,564.2,457.6,519.5,502.2 M521.8,513.2
			c-84.4,84.4-256.7,49.3-384.1-78.1C10.2,307.7-24.8,135.4,59.6,51c47.6-47.6,123.3-57.2,203-33.6C186.7-3.5,115,6.6,69.5,52.2
			c-82.6,82.6-48.7,251.1,75.7,375.5C269.5,552,438,585.9,520.6,503.3c45.6-45.6,55.6-117.2,34.7-193.1
			C579,390,569.4,465.6,521.8,513.2 M523.9,523.9c-86.7,86.7-263.8,50.7-394.8-80.2c-131-131-167-308.1-80.3-394.8
			c47.2-47.2,121.2-58,199.9-37c-75-18.5-145-7.1-190.2,38C-26.6,135,8.3,308.4,136.4,436.4c128,128,301.4,163,386.5,77.9
			c45.2-45.2,56.5-115.3,38-190.2C581.9,402.8,571.1,476.7,523.9,523.9 M455.7,138.9c-3.5-3.7-7.1-7.4-10.7-11.1
			c-3.7-3.7-7.4-7.2-11.1-10.7C353.2,41.1,257,0.1,175.3,0h-0.5c-50.1,0.1-94.7,15.5-127,47.8C15.5,80.1,0,124.8,0,175v0.1
			c0,85.5,44.9,187,127.8,269.9C259.4,576.5,437.6,612.4,525,525c32.3-32.3,47.8-77.1,47.8-127.3C572.8,316,531.7,219.7,455.7,138.9
			"/>
	</defs>
	<use xlink:href="#SVGID_3_"  style="overflow:visible;fill:#B7B2B2;"/>
	<clipPath id="SVGID_4_">
		<use xlink:href="#SVGID_3_"  style="overflow:visible;"/>
	</clipPath>
	
		<rect x="-163.6" y="-134.2" transform="matrix(-0.786 -0.6182 0.6182 -0.786 299.3621 706.9283)" class="st1" width="871.3" height="871.6"/>
</g>
</svg>
