<?xml version="1.0" encoding="utf-8"?>
<!-- Generator: Adobe Illustrator 19.0.0, SVG Export Plug-In . SVG Version: 6.00 Build 0)  -->
<svg version="1.1" id="Layer_1" xmlns="http://www.w3.org/2000/svg" xmlns:xlink="http://www.w3.org/1999/xlink" x="0px" y="0px"
	 viewBox="0 0 36 36" style="enable-background:new 0 0 36 36;" xml:space="preserve">
<style type="text/css">
	.st0{fill:#FD6400;}
	.st1{fill:none;stroke:#FD6400;stroke-miterlimit:10;}
</style>
<path class="st0" d="M22.9,11.5l-4.7,4.7l-4.7-4.7c-0.5-0.5-1.2-0.5-1.7,0c-0.5,0.5-0.5,1.2,0,1.7l4.7,4.7l-4.7,4.7
	c-0.5,0.5-0.5,1.2,0,1.7c0.5,0.5,1.2,0.5,1.7,0l4.7-4.7l4.7,4.7c0.5,0.5,1.2,0.5,1.7,0c0.5-0.5,0.5-1.2,0-1.7l-4.7-4.7l4.7-4.7
	c0.5-0.5,0.5-1.2,0-1.7C24.2,11,23.4,11,22.9,11.5z"/>
<circle class="st1" cx="17.8" cy="17.9" r="16.5"/>
</svg>
