<?xml version="1.0" encoding="utf-8"?>
<!-- Generator: Adobe Illustrator 19.0.0, SVG Export Plug-In . SVG Version: 6.00 Build 0)  -->
<svg version="1.1" id="Layer_1" xmlns="http://www.w3.org/2000/svg" xmlns:xlink="http://www.w3.org/1999/xlink" x="0px" y="0px"
	 viewBox="0 0 24 24" style="enable-background:new 0 0 24 24;" xml:space="preserve">
<style type="text/css">
	.st0{fill:#FFFFFF;}
</style>
<path id="XMLID_12_" class="st0" d="M22.6,1.4c-0.9-0.9-2-1.4-3.3-1.4C18,0,16.9,0.5,16,1.4c-0.4,0.4-0.7,0.8-0.9,1.3l-2.4-2.4
	c-0.3-0.3-0.9-0.3-1.2,0L0.2,11.4c-0.3,0.3-0.3,0.9,0,1.2l11.1,11.1c0.2,0.2,0.4,0.2,0.6,0.2c0.2,0,0.4-0.1,0.6-0.2l3.6-3.6
	c0.2-0.2,0.3-0.6,0.2-0.9c-0.1-0.3-0.4-0.5-0.7-0.5c-0.7-0.1-1.4-0.4-1.9-0.9c-0.6-0.6-0.9-1.3-0.9-2.1c0-0.8,0.3-1.6,0.9-2.1
	c0.6-0.6,1.3-0.9,2.1-0.9s1.6,0.3,2.1,0.9c0.5,0.5,0.8,1.2,0.9,1.9c0,0.3,0.2,0.6,0.5,0.7s0.7,0,0.9-0.2l3.5-3.5
	c0.2-0.2,0.2-0.4,0.2-0.6c0-0.2-0.1-0.4-0.2-0.6L21.3,9c0.5-0.2,1-0.5,1.3-0.9C24.5,6.2,24.5,3.2,22.6,1.4z M21.4,6.9
	c-0.5,0.5-1.1,0.8-1.8,0.9c-0.3,0-0.6,0.2-0.7,0.6c-0.1,0.3,0,0.6,0.2,0.9L22,12l-1.8,1.8c-0.2-0.5-0.6-1-1-1.4
	c-0.9-0.9-2.1-1.4-3.3-1.4c-1.3,0-2.4,0.5-3.3,1.4s-1.4,2.1-1.4,3.3c0,1.3,0.5,2.4,1.4,3.3c0.4,0.4,0.9,0.7,1.4,1l-2,2L2,12L12,2
	l2.9,2.9c0.2,0.2,0.6,0.3,0.9,0.2C16,5,16.2,4.8,16.3,4.4c0.1-0.7,0.4-1.3,0.9-1.8c0.6-0.6,1.3-0.9,2.1-0.9s1.6,0.3,2.1,0.9
	C22.6,3.8,22.6,5.7,21.4,6.9z"/>
</svg>
