<?xml version="1.0" encoding="utf-8"?>
<!-- Generator: Adobe Illustrator 19.0.0, SVG Export Plug-In . SVG Version: 6.00 Build 0)  -->
<svg version="1.1" id="Layer_1" xmlns="http://www.w3.org/2000/svg" xmlns:xlink="http://www.w3.org/1999/xlink" x="0px" y="0px"
	 viewBox="0 0 36 36" style="enable-background:new 0 0 36 36;" xml:space="preserve">
<style type="text/css">
	.st0{fill:#FD6400;}
</style>
<path id="XMLID_4_" class="st0" d="M24.4,22.7c1.9-2.3,3.1-5.2,3.1-8.5C27.4,6.9,21.5,1,14.2,1S1,6.9,1,14.2s5.9,13.2,13.2,13.2
	c3.2,0,6.2-1.2,8.5-3.1L33,34.6c0.2,0.2,0.5,0.4,0.8,0.4s0.6-0.1,0.8-0.4c0.5-0.5,0.5-1.2,0-1.7L24.4,22.7z M14.2,25
	c-6,0-10.8-4.9-10.8-10.8c0-6,4.9-10.8,10.8-10.8c6,0,10.8,4.9,10.8,10.8C25,20.2,20.2,25,14.2,25z"/>
</svg>
