<?xml version="1.0" encoding="utf-8"?>
<!-- Generator: Adobe Illustrator 19.0.0, SVG Export Plug-In . SVG Version: 6.00 Build 0)  -->
<svg version="1.1" id="Layer_1" xmlns="http://www.w3.org/2000/svg" xmlns:xlink="http://www.w3.org/1999/xlink" x="0px" y="0px"
	 viewBox="0 0 24 24" style="enable-background:new 0 0 24 24;" xml:space="preserve">
<style type="text/css">
	.st0{fill:#FFFFFF;}
</style>
<g id="XMLID_8_">
	<path id="XMLID_14_" class="st0" d="M19.3,20.6c0.5,0,0.8-0.4,0.8-0.8V18c0-1.7-0.7-3.3-1.9-4.4c0.1-0.5,0.1-1.1,0.1-1.6
		c0-5.9-5.6-11.5-5.8-11.7C12.4,0.1,12.2,0,12,0l0,0c-0.2,0-0.4,0.1-0.6,0.3C11.2,0.5,5.6,6.2,5.6,12c0,0.5,0,1,0.1,1.6
		c-1.2,1.2-1.9,2.8-1.9,4.5v1.7c0,0.5,0.4,0.8,0.8,0.8s0.8-0.4,0.8-0.8V18c0-0.9,0.3-1.7,0.7-2.4c0.3,0.8,0.6,1.6,1,2.4
		c0.1,0.3,0.4,0.5,0.8,0.5h3.2v1.4c0,0.5,0.4,0.8,0.8,0.8s0.8-0.4,0.8-0.8v-1.4h3.2c0.3,0,0.6-0.2,0.8-0.5c0.4-0.8,0.7-1.6,1-2.3
		c0.5,0.7,0.7,1.5,0.7,2.4v1.7C18.5,20.2,18.9,20.6,19.3,20.6z M15.5,16.7h-2.7v-1.4c0-0.5-0.4-0.8-0.8-0.8s-0.8,0.4-0.8,0.8v1.4
		H8.6c-0.5-1-0.8-2-1-2.9c0-0.1,0-0.1,0-0.2C7.4,13,7.3,12.5,7.3,12c0-4.1,3.3-8.3,4.7-9.9c1.4,1.6,4.7,5.8,4.7,9.9
		C16.7,13.4,16.3,15,15.5,16.7z"/>
	<path id="XMLID_11_" class="st0" d="M12,6.6c-1.7,0-3,1.4-3,3s1.4,3,3,3s3-1.4,3-3S13.7,6.6,12,6.6z M12,11c-0.7,0-1.4-0.6-1.4-1.4
		s0.6-1.4,1.4-1.4s1.4,0.6,1.4,1.4S12.8,11,12,11z"/>
	<path id="XMLID_2_" class="st0" d="M8.2,23.2v-2.8c0-0.5-0.4-0.8-0.8-0.8c-0.5,0-0.8,0.4-0.8,0.8v2.8C6.6,23.7,7,24,7.4,24
		C7.8,24,8.2,23.6,8.2,23.2z"/>
	<path id="XMLID_1_" class="st0" d="M17.5,23.2v-2.8c0-0.5-0.4-0.8-0.8-0.8c-0.5,0-0.8,0.4-0.8,0.8v2.8c0,0.5,0.4,0.8,0.8,0.8
		S17.5,23.6,17.5,23.2z"/>
</g>
</svg>
