<?xml version="1.0" encoding="utf-8"?>
<!-- Generator: Adobe Illustrator 19.0.0, SVG Export Plug-In . SVG Version: 6.00 Build 0)  -->
<svg version="1.1" id="Layer_1" xmlns="http://www.w3.org/2000/svg" xmlns:xlink="http://www.w3.org/1999/xlink" x="0px" y="0px"
	 viewBox="0 0 42 42" style="enable-background:new 0 0 42 42;" xml:space="preserve">
<style type="text/css">
	.st0{fill:#FF6400;}
</style>
<path id="XMLID_2_" class="st0" d="M20.4,3c-0.3-0.3-0.7-0.4-1.1-0.4L5.8,4.1C5.2,4.2,4.8,4.7,4.7,5.3L3.1,18.8
	c0,0.4,0.1,0.8,0.4,1.1L21.6,38c0.3,0.3,0.6,0.4,0.9,0.4s0.7-0.1,0.9-0.4l15.1-15.1c0.2-0.2,0.4-0.6,0.4-0.9c0-0.3-0.1-0.7-0.4-0.9
	L20.4,3z M7.1,6.6L19,5.2l12.3,12.3L18.1,30.8L5.8,18.5L7.1,6.6z M22.5,35.2l-2.6-2.6l13.3-13.3l2.6,2.6L22.5,35.2z"/>
<path class="st0" d="M20.2,15.3c0-1.3-0.5-2.5-1.4-3.5c-0.9-0.9-2.2-1.4-3.5-1.4c-1.3,0-2.5,0.5-3.5,1.4c-1.9,1.9-1.9,5,0,6.9
	c0.9,0.9,2.2,1.4,3.5,1.4c1.3,0,2.5-0.5,3.5-1.4C19.7,17.9,20.2,16.6,20.2,15.3z M16.9,17c-0.9,0.9-2.4,0.9-3.3,0
	c-0.9-0.9-0.9-2.4,0-3.3c0.4-0.4,1-0.7,1.6-0.7c0.6,0,1.2,0.2,1.6,0.7c0.4,0.4,0.7,1,0.7,1.6C17.6,15.9,17.4,16.5,16.9,17z"/>
</svg>
