<?xml version="1.0" encoding="utf-8"?>
<!-- Generator: Adobe Illustrator 19.0.0, SVG Export Plug-In . SVG Version: 6.00 Build 0)  -->
<svg version="1.1" id="Layer_1" xmlns="http://www.w3.org/2000/svg" xmlns:xlink="http://www.w3.org/1999/xlink" x="0px" y="0px"
	 viewBox="-137 139 24 24" style="enable-background:new -137 139 24 24;" xml:space="preserve">
<style type="text/css">
	.st0{fill:#FF6400;}
</style>
<g>
	<g>
		<rect x="-137" y="162.3" class="st0" width="24" height="0.8"/>
		<polygon class="st0" points="-114.1,162.6 -114.9,162.6 -114.9,139.8 -135.1,139.8 -135.1,162.6 -135.9,162.6 -135.9,139 
			-114.1,139 		"/>
		<rect x="-135.5" y="142" class="st0" width="21" height="0.8"/>
		<rect x="-134.4" y="140.5" class="st0" width="0.8" height="0.8"/>
		<rect x="-132.9" y="140.5" class="st0" width="0.8" height="0.8"/>
		<rect x="-131.4" y="140.5" class="st0" width="0.8" height="0.8"/>
		<rect x="-129.9" y="139.4" class="st0" width="0.8" height="3"/>
		<rect x="-128.4" y="140.5" class="st0" width="12.8" height="0.8"/>
		<path class="st0" d="M-115.6,148.8h-18.8v-5.3h18.8V148.8z M-133.6,148h17.3v-3.8h-17.3V148z"/>
		<rect x="-125.4" y="145.8" class="st0" width="0.8" height="0.8"/>
		<rect x="-126.9" y="145.8" class="st0" width="0.8" height="0.8"/>
		<rect x="-123.9" y="145.8" class="st0" width="0.8" height="0.8"/>
		<path class="st0" d="M-128.8,154h-5.6v-3.8h5.6V154z M-133.6,153.3h4.1V151h-4.1V153.3z"/>
		<path class="st0" d="M-122,154h-6v-3.8h6V154z M-127.3,153.3h4.5V151h-4.5V153.3z"/>
		<path class="st0" d="M-115.6,154h-5.6v-3.8h5.6V154z M-120.5,153.3h4.1V151h-4.1V153.3z"/>
		<rect x="-134.4" y="154.8" class="st0" width="5.6" height="0.8"/>
		<rect x="-134.4" y="156.3" class="st0" width="5.6" height="0.8"/>
		<rect x="-134.4" y="157.8" class="st0" width="5.6" height="0.8"/>
		<rect x="-128" y="154.8" class="st0" width="5.6" height="0.8"/>
		<rect x="-128" y="156.3" class="st0" width="5.6" height="0.8"/>
		<rect x="-128" y="157.8" class="st0" width="5.6" height="0.8"/>
		<rect x="-121.3" y="154.8" class="st0" width="5.6" height="0.8"/>
		<rect x="-121.3" y="156.3" class="st0" width="5.6" height="0.8"/>
		<rect x="-121.3" y="157.8" class="st0" width="5.6" height="0.8"/>
		<rect x="-134.4" y="160.8" class="st0" width="18.8" height="0.8"/>
	</g>
</g>
</svg>
