<?xml version="1.0" encoding="utf-8"?>
<!-- Generator: Adobe Illustrator 19.0.0, SVG Export Plug-In . SVG Version: 6.00 Build 0)  -->
<svg version="1.1" id="Layer_1" xmlns="http://www.w3.org/2000/svg" xmlns:xlink="http://www.w3.org/1999/xlink" x="0px" y="0px"
	 viewBox="0 0 2390.7 344.3" style="enable-background:new 0 0 2390.7 344.3;" xml:space="preserve">
<style type="text/css">
	.st0{clip-path:url(#SVGID_2_);fill:#FFFFFF;}
</style>
<g>
	<defs>
		<rect id="SVGID_1_" width="2390.7" height="344.3"/>
	</defs>
	<clipPath id="SVGID_2_">
		<use xlink:href="#SVGID_1_"  style="overflow:visible;"/>
	</clipPath>
	<path class="st0" d="M1594.2,101c16.6-35.1,45-63.5,80.1-80.1c21.6-10.2,45.7-15.9,71.2-15.9h167.2v15.9h-15.9h-3.8h-76.3h-71.2
		c-83.4,0-151.3,67.9-151.3,151.3s67.9,151.3,151.3,151.3h71.2h75.2h4.9h15.9v15.9h-167.2c-25.4,0-49.6-5.7-71.2-15.9
		c-35.1-16.6-63.5-45-80.1-80.1c-10.2-21.6-15.9-45.7-15.9-71.2S1583.9,122.6,1594.2,101"/>
	<polygon class="st0" points="2374.7,302.6 2236.3,25.8 2232.4,17.8 2228.4,9.8 2223.4,0 2218.5,9.8 2214.5,17.8 2210.6,25.8 
		2072.1,302.6 2056.2,334.5 2056.2,344.3 2069.1,344.3 2077.1,328.4 2223.4,35.6 2369.8,328.4 2377.8,344.3 2390.7,344.3 
		2390.7,334.5 	"/>
	<polygon class="st0" points="1369.6,8.4 1369.6,24.3 1369.6,167.7 1369.6,183.6 1369.6,327 1369.6,342.9 1385.5,342.9 1385.5,327 
		1385.5,183.6 1385.5,167.7 1385.5,24.3 1385.5,8.4 	"/>
	<polygon class="st0" points="318.5,323.5 15.9,323.5 15.9,20.8 15.9,4.9 0,4.9 0,20.8 0,323.5 0,339.4 15.9,339.4 318.5,339.4 
		334.5,339.4 334.5,323.5 	"/>
	<path class="st0" d="M606.2,339.4c-92.2,0-167.2-75-167.2-167.2S514,4.9,606.2,4.9c92.2,0,167.2,75,167.2,167.2
		S698.4,339.4,606.2,339.4 M606.2,20.8c-83.4,0-151.3,67.9-151.3,151.3c0,83.4,67.9,151.3,151.3,151.3s151.3-67.9,151.3-151.3
		C757.5,88.7,689.6,20.8,606.2,20.8"/>
	<polygon class="st0" points="1201.1,4.9 1196.4,9.6 1185.1,20.8 1053.1,152.9 1045.1,160.9 1037.1,152.9 905.1,20.8 893.8,9.6 
		889.1,4.9 877.9,4.9 877.9,16.2 882.5,20.8 893.8,32.1 1033.8,172.2 1037.1,175.4 1037.1,191.4 1037.1,323.5 1037.1,339.4 
		1053.1,339.4 1053.1,323.5 1053.1,191.4 1053.1,175.4 1056.4,172.2 1196.4,32.1 1207.7,20.8 1212.3,16.2 1212.3,4.9 	"/>
</g>
</svg>
