<?xml version="1.0" encoding="utf-8"?>
<!-- Generator: Adobe Illustrator 19.0.0, SVG Export Plug-In . SVG Version: 6.00 Build 0)  -->
<svg version="1.1" id="Layer_1" xmlns="http://www.w3.org/2000/svg" xmlns:xlink="http://www.w3.org/1999/xlink" x="0px" y="0px"
	 viewBox="0 0 800 800" style="enable-background:new 0 0 800 800;" xml:space="preserve">
<style type="text/css">
	.st0{clip-path:url(#SVGID_2_);}
	.st1{clip-path:url(#SVGID_4_);fill:url(#SVGID_5_);}
	.st2{clip-path:url(#SVGID_7_);fill:url(#SVGID_8_);}
	.st3{clip-path:url(#SVGID_10_);fill:url(#SVGID_11_);}
	.st4{clip-path:url(#SVGID_13_);fill:url(#SVGID_14_);}
	.st5{clip-path:url(#SVGID_16_);fill:url(#SVGID_17_);}
	.st6{clip-path:url(#SVGID_19_);fill:url(#SVGID_20_);}
	.st7{clip-path:url(#SVGID_22_);fill:url(#SVGID_23_);}
	.st8{clip-path:url(#SVGID_25_);fill:url(#SVGID_26_);}
	.st9{clip-path:url(#SVGID_28_);fill:url(#SVGID_29_);}
	.st10{clip-path:url(#SVGID_31_);fill:url(#SVGID_32_);}
	.st11{clip-path:url(#SVGID_34_);fill:url(#SVGID_35_);}
	.st12{clip-path:url(#SVGID_37_);fill:url(#SVGID_38_);}
	.st13{clip-path:url(#SVGID_40_);fill:url(#SVGID_41_);}
	.st14{clip-path:url(#SVGID_43_);fill:url(#SVGID_44_);}
	.st15{clip-path:url(#SVGID_46_);fill:url(#SVGID_47_);}
	.st16{clip-path:url(#SVGID_49_);fill:url(#SVGID_50_);}
	.st17{clip-path:url(#SVGID_52_);fill:url(#SVGID_53_);}
	.st18{clip-path:url(#SVGID_55_);fill:url(#SVGID_56_);}
	.st19{clip-path:url(#SVGID_58_);fill:url(#SVGID_59_);}
	.st20{clip-path:url(#SVGID_61_);fill:url(#SVGID_62_);}
	.st21{clip-path:url(#SVGID_64_);fill:url(#SVGID_65_);}
	.st22{clip-path:url(#SVGID_67_);fill:url(#SVGID_68_);}
	.st23{clip-path:url(#SVGID_70_);fill:url(#SVGID_71_);}
	.st24{clip-path:url(#SVGID_73_);fill:url(#SVGID_74_);}
	.st25{clip-path:url(#SVGID_76_);fill:url(#SVGID_77_);}
	.st26{clip-path:url(#SVGID_79_);fill:url(#SVGID_80_);}
	.st27{clip-path:url(#SVGID_82_);fill:url(#SVGID_83_);}
	.st28{clip-path:url(#SVGID_85_);fill:url(#SVGID_86_);}
	.st29{clip-path:url(#SVGID_88_);fill:url(#SVGID_89_);}
	.st30{clip-path:url(#SVGID_91_);fill:url(#SVGID_92_);}
	.st31{clip-path:url(#SVGID_94_);fill:url(#SVGID_95_);}
	.st32{clip-path:url(#SVGID_97_);fill:url(#SVGID_98_);}
	.st33{clip-path:url(#SVGID_100_);fill:url(#SVGID_101_);}
	.st34{clip-path:url(#SVGID_103_);fill:url(#SVGID_104_);}
	.st35{clip-path:url(#SVGID_106_);fill:url(#SVGID_107_);}
	.st36{clip-path:url(#SVGID_109_);fill:url(#SVGID_110_);}
	.st37{clip-path:url(#SVGID_112_);fill:url(#SVGID_113_);}
	.st38{clip-path:url(#SVGID_115_);fill:url(#SVGID_116_);}
	.st39{clip-path:url(#SVGID_118_);fill:url(#SVGID_119_);}
</style>
<g>
	<g>
		<defs>
			<rect id="SVGID_1_" x="-22.3" y="7.2" width="844.6" height="785.6"/>
		</defs>
		<clipPath id="SVGID_2_">
			<use xlink:href="#SVGID_1_"  style="overflow:visible;"/>
		</clipPath>
		<g class="st0">
			<defs>
				<path id="SVGID_3_" d="M581.4,602.9c-2.7-2.7-1.5-8.3,2.7-12.5c4.2-4.2,9.9-5.5,12.6-2.8c2.7,2.7,1.5,8.4-2.8,12.6
					c-2.7,2.7-6,4.2-8.7,4.2C583.7,604.3,582.3,603.8,581.4,602.9 M593.5,583.8c-3.4,0-7.5,1.8-10.8,5.1c-5.2,5.3-6.7,12.3-3.2,15.8
					c3.5,3.5,10.5,2,15.8-3.2c5.2-5.2,6.7-12.3,3.2-15.8C597.3,584.4,595.5,583.8,593.5,583.8C593.5,583.8,593.5,583.8,593.5,583.8"
					/>
			</defs>
			<clipPath id="SVGID_4_">
				<use xlink:href="#SVGID_3_"  style="overflow:visible;"/>
			</clipPath>
			
				<linearGradient id="SVGID_5_" gradientUnits="userSpaceOnUse" x1="-338.2389" y1="804.4618" x2="-337.2389" y2="804.4618" gradientTransform="matrix(-590.3934 590.3934 590.3934 590.3934 -673463.125 -275249.6875)">
				<stop  offset="0" style="stop-color:#F04F25"/>
				<stop  offset="0.3754" style="stop-color:#EE5225"/>
				<stop  offset="0.6942" style="stop-color:#EA5B25"/>
				<stop  offset="0.992" style="stop-color:#E56825"/>
				<stop  offset="1" style="stop-color:#E56925"/>
			</linearGradient>
			<polygon class="st1" points="614.2,596 589,621.2 563.8,596 589,570.8 			"/>
		</g>
		<g class="st0">
			<defs>
				<path id="SVGID_6_" d="M567.1,605.9c-5.8-5.8-3.2-17.7,5.8-26.7c9-9,20.9-11.6,26.7-5.8c5.7,5.8,3.2,17.8-5.8,26.7
					c-5.7,5.7-12.7,8.9-18.5,8.9C572.1,609,569.2,608,567.1,605.9 M571.5,577.7c-10,10-12.8,23.4-6.3,30c6.6,6.5,20,3.7,30-6.3
					c10-10,12.8-23.4,6.2-30c-2.4-2.4-5.7-3.5-9.4-3.5C585.6,568,577.9,571.4,571.5,577.7"/>
			</defs>
			<clipPath id="SVGID_7_">
				<use xlink:href="#SVGID_6_"  style="overflow:visible;"/>
			</clipPath>
			
				<linearGradient id="SVGID_8_" gradientUnits="userSpaceOnUse" x1="-338.2348" y1="804.4584" x2="-337.2348" y2="804.4584" gradientTransform="matrix(-595.7845 595.7845 595.7845 595.7845 -679627.5625 -277765.75)">
				<stop  offset="0" style="stop-color:#F04F25"/>
				<stop  offset="0.3754" style="stop-color:#EE5225"/>
				<stop  offset="0.6942" style="stop-color:#EA5B25"/>
				<stop  offset="0.992" style="stop-color:#E56825"/>
				<stop  offset="1" style="stop-color:#E56925"/>
			</linearGradient>
			<polygon class="st2" points="631.4,591 583.4,639 535.4,591 583.4,542.9 			"/>
		</g>
		<g class="st0">
			<defs>
				<path id="SVGID_9_" d="M553,608.9c-8.9-8.8-4.9-27.2,8.8-40.9c13.7-13.7,32-17.6,40.9-8.8c8.8,8.8,4.9,27.2-8.8,40.9
					c-8.7,8.7-19.4,13.5-28.2,13.5C560.6,613.6,556.2,612.1,553,608.9 M560.4,566.6c-14.7,14.7-18.9,34.5-9.3,44.2
					c9.6,9.6,29.5,5.5,44.2-9.2c14.7-14.7,18.8-34.5,9.3-44.2c-3.5-3.5-8.4-5.2-13.9-5.2C581.1,552.1,569.7,557.2,560.4,566.6"/>
			</defs>
			<clipPath id="SVGID_10_">
				<use xlink:href="#SVGID_9_"  style="overflow:visible;"/>
			</clipPath>
			
				<linearGradient id="SVGID_11_" gradientUnits="userSpaceOnUse" x1="-338.2336" y1="804.4573" x2="-337.2336" y2="804.4573" gradientTransform="matrix(-597.3898 597.3898 597.3898 597.3898 -681473.0625 -278512.8438)">
				<stop  offset="0" style="stop-color:#F04F25"/>
				<stop  offset="0.3754" style="stop-color:#EE5225"/>
				<stop  offset="0.6942" style="stop-color:#EA5B25"/>
				<stop  offset="0.992" style="stop-color:#E56825"/>
				<stop  offset="1" style="stop-color:#E56925"/>
			</linearGradient>
			<polygon class="st3" points="649.2,585.4 577.8,656.7 506.5,585.4 577.8,514 			"/>
		</g>
		<g class="st0">
			<defs>
				<path id="SVGID_12_" d="M538.8,611.9c-11.9-12-6.6-36.7,11.8-55.1c18.4-18.4,43.1-23.7,55.1-11.8c11.9,12,6.7,36.7-11.8,55.1
					c-11.8,11.8-26.1,18.2-38,18.2C549.1,618.3,543.1,616.2,538.8,611.9 M589.3,536.3c-12.6,0-27.7,6.7-40.1,19.1
					c-19.4,19.4-25,45.6-12.3,58.4c12.7,12.7,38.9,7.2,58.4-12.3c19.5-19.5,24.9-45.6,12.3-58.4
					C602.9,538.5,596.5,536.3,589.3,536.3C589.3,536.3,589.3,536.3,589.3,536.3"/>
			</defs>
			<clipPath id="SVGID_13_">
				<use xlink:href="#SVGID_12_"  style="overflow:visible;"/>
			</clipPath>
			
				<linearGradient id="SVGID_14_" gradientUnits="userSpaceOnUse" x1="-338.2329" y1="804.4566" x2="-337.2329" y2="804.4566" gradientTransform="matrix(-598.3127 598.3127 598.3127 598.3127 -682540.125 -278941.125)">
				<stop  offset="0" style="stop-color:#F04F25"/>
				<stop  offset="0.3754" style="stop-color:#EE5225"/>
				<stop  offset="0.6942" style="stop-color:#EA5B25"/>
				<stop  offset="0.992" style="stop-color:#E56825"/>
				<stop  offset="1" style="stop-color:#E56925"/>
			</linearGradient>
			<polygon class="st4" points="666.9,579.8 572.2,674.5 477.5,579.8 572.2,485.1 			"/>
		</g>
		<g class="st0">
			<defs>
				<path id="SVGID_15_" d="M524.6,614.9c-15-15-8.4-46.1,14.8-69.2c23.2-23.2,54.2-29.8,69.3-14.8c15,15,8.4,46.1-14.8,69.3
					c-14.8,14.8-32.8,22.8-47.7,22.8C537.6,622.9,530.1,620.3,524.6,614.9 M538,544.2c-24.2,24.2-31.1,56.8-15.3,72.5
					c15.8,15.8,48.4,9,72.6-15.3c24.2-24.2,31-56.8,15.3-72.6c-5.8-5.8-13.7-8.5-22.7-8.5C572.2,520.5,553.4,528.8,538,544.2"/>
			</defs>
			<clipPath id="SVGID_16_">
				<use xlink:href="#SVGID_15_"  style="overflow:visible;"/>
			</clipPath>
			
				<linearGradient id="SVGID_17_" gradientUnits="userSpaceOnUse" x1="-338.2327" y1="804.4564" x2="-337.2327" y2="804.4564" gradientTransform="matrix(-598.6428 598.6428 598.6428 598.6428 -682930.8125 -279092.3438)">
				<stop  offset="0" style="stop-color:#F04F25"/>
				<stop  offset="0.3754" style="stop-color:#EE5225"/>
				<stop  offset="0.6942" style="stop-color:#EA5B25"/>
				<stop  offset="0.992" style="stop-color:#E56825"/>
				<stop  offset="1" style="stop-color:#E56925"/>
			</linearGradient>
			<polygon class="st5" points="684.7,574.2 566.6,692.3 448.6,574.2 566.6,456.1 			"/>
		</g>
		<g class="st0">
			<defs>
				<path id="SVGID_18_" d="M524.6,614.9c-15-15-8.4-46.1,14.8-69.2c23.2-23.2,54.2-29.8,69.3-14.8c15,15,8.4,46.1-14.8,69.3
					c-14.8,14.8-32.8,22.8-47.7,22.8C537.6,622.9,530.1,620.3,524.6,614.9 M538,544.2c-24.2,24.2-31.1,56.8-15.3,72.5
					c15.8,15.8,48.4,9,72.6-15.3c24.2-24.2,31-56.8,15.3-72.6c-5.8-5.8-13.7-8.5-22.7-8.5C572.2,520.5,553.4,528.8,538,544.2"/>
			</defs>
			<clipPath id="SVGID_19_">
				<use xlink:href="#SVGID_18_"  style="overflow:visible;"/>
			</clipPath>
			
				<linearGradient id="SVGID_20_" gradientUnits="userSpaceOnUse" x1="-338.2327" y1="804.4564" x2="-337.2327" y2="804.4564" gradientTransform="matrix(-598.6428 598.6428 598.6428 598.6428 -682930.8125 -279092.3438)">
				<stop  offset="0" style="stop-color:#F04F25"/>
				<stop  offset="0.3754" style="stop-color:#EE5225"/>
				<stop  offset="0.6942" style="stop-color:#EA5B25"/>
				<stop  offset="0.992" style="stop-color:#E56825"/>
				<stop  offset="1" style="stop-color:#E56925"/>
			</linearGradient>
			<polygon class="st6" points="684.7,574.2 566.6,692.3 448.6,574.2 566.6,456.1 			"/>
		</g>
		<g class="st0">
			<defs>
				<path id="SVGID_21_" d="M510.5,617.9c-18.1-18.1-10.1-55.5,17.8-83.4c27.9-27.9,65.3-35.9,83.4-17.8
					c18.1,18.1,10.1,55.5-17.8,83.5c-17.8,17.8-39.4,27.5-57.5,27.5C526.1,627.6,517,624.4,510.5,617.9 M526.9,533.1
					c-28.9,28.9-37.1,67.8-18.3,86.7c18.9,18.9,57.8,10.7,86.7-18.2c28.9-28.9,37.1-67.8,18.2-86.7c-6.9-6.9-16.4-10.2-27.1-10.2
					C567.7,504.6,545.2,514.7,526.9,533.1"/>
			</defs>
			<clipPath id="SVGID_22_">
				<use xlink:href="#SVGID_21_"  style="overflow:visible;"/>
			</clipPath>
			
				<linearGradient id="SVGID_23_" gradientUnits="userSpaceOnUse" x1="-338.2327" y1="804.4564" x2="-337.2327" y2="804.4564" gradientTransform="matrix(-598.7014 598.7014 598.7014 598.7014 -683011.875 -279116.7188)">
				<stop  offset="0" style="stop-color:#F04F25"/>
				<stop  offset="0.3754" style="stop-color:#EE5225"/>
				<stop  offset="0.6942" style="stop-color:#EA5B25"/>
				<stop  offset="0.992" style="stop-color:#E56825"/>
				<stop  offset="1" style="stop-color:#E56925"/>
			</linearGradient>
			<polygon class="st7" points="702.5,568.6 561.1,710 419.7,568.6 561.1,427.2 			"/>
		</g>
		<g class="st0">
			<defs>
				<path id="SVGID_24_" d="M496.2,620.9c-21.2-21.2-11.8-64.9,20.8-97.6c32.7-32.7,76.5-42,97.6-20.8
					c21.2,21.2,11.8,64.9-20.8,97.6c-20.8,20.8-46.1,32.2-67.3,32.2C514.6,632.3,503.9,628.6,496.2,620.9 M585,488.8
					c-21.8,0-47.9,11.7-69.4,33.1c-33.7,33.7-43.3,79-21.3,100.9c21.9,21.9,67.2,12.4,100.9-21.3c33.7-33.7,43.2-79,21.3-100.9
					C608.6,492.6,597.5,488.8,585,488.8C585,488.8,585,488.8,585,488.8"/>
			</defs>
			<clipPath id="SVGID_25_">
				<use xlink:href="#SVGID_24_"  style="overflow:visible;"/>
			</clipPath>
			
				<linearGradient id="SVGID_26_" gradientUnits="userSpaceOnUse" x1="-338.2323" y1="804.456" x2="-337.2323" y2="804.456" gradientTransform="matrix(-599.2022 599.2023 599.2023 599.2022 -683597.4375 -279347.7188)">
				<stop  offset="0" style="stop-color:#F04F25"/>
				<stop  offset="0.3754" style="stop-color:#EE5225"/>
				<stop  offset="0.6942" style="stop-color:#EA5B25"/>
				<stop  offset="0.992" style="stop-color:#E56825"/>
				<stop  offset="1" style="stop-color:#E56925"/>
			</linearGradient>
			<polygon class="st8" points="720.3,563 555.5,727.8 390.7,563 555.5,398.3 			"/>
		</g>
		<g class="st0">
			<defs>
				<path id="SVGID_27_" d="M482.1,623.9c-24.3-24.2-13.6-74.4,23.8-111.8c37.4-37.4,87.5-48.1,111.8-23.8
					c24.3,24.2,13.6,74.4-23.8,111.8c-23.8,23.8-52.8,36.8-77,36.8C503.1,636.9,490.9,632.7,482.1,623.9 M583.6,473
					c-24.9,0-54.7,13.3-79.1,37.8c-38.4,38.4-49.3,90-24.3,115.1c25,25,76.7,14.1,115.1-24.3c38.4-38.4,49.3-90.1,24.3-115.1
					C610.5,477.3,597.9,473,583.6,473C583.6,473,583.6,473,583.6,473"/>
			</defs>
			<clipPath id="SVGID_28_">
				<use xlink:href="#SVGID_27_"  style="overflow:visible;"/>
			</clipPath>
			
				<linearGradient id="SVGID_29_" gradientUnits="userSpaceOnUse" x1="-338.2323" y1="804.4561" x2="-337.2323" y2="804.4561" gradientTransform="matrix(-599.1989 599.1989 599.1989 599.1989 -683607.75 -279343.1563)">
				<stop  offset="0" style="stop-color:#F04F25"/>
				<stop  offset="0.3754" style="stop-color:#EE5225"/>
				<stop  offset="0.6942" style="stop-color:#EA5B25"/>
				<stop  offset="0.992" style="stop-color:#E56825"/>
				<stop  offset="1" style="stop-color:#E56925"/>
			</linearGradient>
			<polygon class="st9" points="738,557.5 549.9,745.6 361.8,557.5 549.9,369.3 			"/>
		</g>
		<g class="st0">
			<defs>
				<path id="SVGID_30_" d="M467.9,627c-27.3-27.4-15.3-83.9,26.9-126c42.1-42.1,98.7-54.2,126-26.8c27.3,27.3,15.3,83.9-26.8,126
					C567,627,534.3,641.6,507,641.6C491.5,641.6,477.8,636.9,467.9,627 M582.3,457.1c-28,0-61.4,15-88.9,42.4
					c-43.2,43.2-55.4,101.2-27.3,129.3c28.1,28.1,86.1,15.8,129.3-27.3c43.2-43.2,55.4-101.2,27.3-129.3
					C612.4,462,598.2,457.1,582.3,457.1C582.3,457.1,582.3,457.1,582.3,457.1"/>
			</defs>
			<clipPath id="SVGID_31_">
				<use xlink:href="#SVGID_30_"  style="overflow:visible;"/>
			</clipPath>
			
				<linearGradient id="SVGID_32_" gradientUnits="userSpaceOnUse" x1="-338.232" y1="804.4557" x2="-337.232" y2="804.4557" gradientTransform="matrix(-599.55 599.5501 599.5501 599.55 -684022.625 -279504.25)">
				<stop  offset="0" style="stop-color:#F04F25"/>
				<stop  offset="0.3754" style="stop-color:#EE5225"/>
				<stop  offset="0.6942" style="stop-color:#EA5B25"/>
				<stop  offset="0.992" style="stop-color:#E56825"/>
				<stop  offset="1" style="stop-color:#E56925"/>
			</linearGradient>
			<polygon class="st10" points="755.8,551.9 544.3,763.3 332.9,551.9 544.3,340.4 			"/>
		</g>
		<g class="st0">
			<defs>
				<path id="SVGID_33_" d="M453.7,629.9c-30.4-30.4-17-93.3,29.9-140.1c46.8-46.9,109.7-60.3,140.1-29.9
					c30.4,30.4,17,93.3-29.8,140.2c-29.9,29.9-66.2,46.2-96.6,46.2C480.1,646.3,464.7,641,453.7,629.9 M580.8,441.3
					c-31,0-68.1,16.6-98.6,47.1c-47.9,47.9-61.5,112.2-30.3,143.4c31.2,31.2,95.5,17.6,143.5-30.3c47.9-47.9,61.5-112.2,30.3-143.5
					C614.2,446.7,598.5,441.3,580.8,441.3C580.8,441.3,580.8,441.3,580.8,441.3"/>
			</defs>
			<clipPath id="SVGID_34_">
				<use xlink:href="#SVGID_33_"  style="overflow:visible;"/>
			</clipPath>
			
				<linearGradient id="SVGID_35_" gradientUnits="userSpaceOnUse" x1="-338.232" y1="804.4557" x2="-337.232" y2="804.4557" gradientTransform="matrix(-599.5772 599.5773 599.5773 599.5772 -684067.75 -279513.9375)">
				<stop  offset="0" style="stop-color:#F04F25"/>
				<stop  offset="0.3754" style="stop-color:#EE5225"/>
				<stop  offset="0.6942" style="stop-color:#EA5B25"/>
				<stop  offset="0.992" style="stop-color:#E56825"/>
				<stop  offset="1" style="stop-color:#E56925"/>
			</linearGradient>
			<polygon class="st11" points="773.5,546.3 538.7,781.1 303.9,546.3 538.7,311.5 			"/>
		</g>
		<g class="st0">
			<defs>
				<path id="SVGID_36_" d="M439.6,632.9c-33.5-33.5-18.8-102.7,32.8-154.3c51.6-51.6,120.8-66.4,154.3-32.9
					c33.5,33.5,18.8,102.7-32.9,154.4C561,633,521,650.9,487.6,650.9C468.6,650.9,451.7,645.1,439.6,632.9 M579.4,425.5
					c-34.1,0-74.9,18.2-108.4,51.7c-52.6,52.7-67.6,123.3-33.3,157.6c34.3,34.3,105,19.3,157.6-33.3
					c52.6-52.7,67.6-123.4,33.3-157.7C616.2,431.4,598.9,425.5,579.4,425.5C579.4,425.5,579.4,425.5,579.4,425.5"/>
			</defs>
			<clipPath id="SVGID_37_">
				<use xlink:href="#SVGID_36_"  style="overflow:visible;"/>
			</clipPath>
			
				<linearGradient id="SVGID_38_" gradientUnits="userSpaceOnUse" x1="-338.2319" y1="804.4557" x2="-337.2319" y2="804.4557" gradientTransform="matrix(-599.6733 599.6733 599.6733 599.6733 -684191.5625 -279555.875)">
				<stop  offset="0" style="stop-color:#F04F25"/>
				<stop  offset="0.3754" style="stop-color:#EE5225"/>
				<stop  offset="0.6942" style="stop-color:#EA5B25"/>
				<stop  offset="0.992" style="stop-color:#E56825"/>
				<stop  offset="1" style="stop-color:#E56925"/>
			</linearGradient>
			<polygon class="st12" points="791.3,540.7 533.2,798.8 275,540.7 533.2,282.5 			"/>
		</g>
		<g class="st0">
			<defs>
				<path id="SVGID_39_" d="M425.4,636c-36.5-36.6-20.4-112.2,35.9-168.5c56.3-56.3,131.9-72.4,168.5-35.9
					c36.5,36.6,20.4,112.2-35.9,168.5c-35.9,35.9-79.6,55.5-116.1,55.5C457,655.6,438.6,649.2,425.4,636 M459.8,466
					c-57.4,57.4-73.7,134.5-36.3,171.8c37.3,37.4,114.4,21,171.8-36.3c57.4-57.4,73.7-134.5,36.3-171.8
					c-13.6-13.6-32.4-20.1-53.7-20.1C540.8,409.6,496.3,429.5,459.8,466"/>
			</defs>
			<clipPath id="SVGID_40_">
				<use xlink:href="#SVGID_39_"  style="overflow:visible;"/>
			</clipPath>
			
				<linearGradient id="SVGID_41_" gradientUnits="userSpaceOnUse" x1="-338.2319" y1="804.4557" x2="-337.2319" y2="804.4557" gradientTransform="matrix(-599.7083 599.7083 599.7083 599.7083 -684245.625 -279569.1563)">
				<stop  offset="0" style="stop-color:#F04F25"/>
				<stop  offset="0.3754" style="stop-color:#EE5225"/>
				<stop  offset="0.6942" style="stop-color:#EA5B25"/>
				<stop  offset="0.992" style="stop-color:#E56825"/>
				<stop  offset="1" style="stop-color:#E56925"/>
			</linearGradient>
			<polygon class="st13" points="809.1,535.1 527.6,816.6 246,535.1 527.6,253.6 			"/>
		</g>
		<g class="st0">
			<defs>
				<path id="SVGID_42_" d="M411.2,639c-39.7-39.7-22.2-121.6,38.9-182.7c61.1-61.1,143-78.5,182.6-38.8
					c39.7,39.7,22.3,121.6-38.8,182.7c-38.9,38.9-86.3,60.1-125.8,60.1C445.6,660.2,425.6,653.4,411.2,639 M576.6,393.8
					c-40.2,0-88.4,21.5-127.9,61.1c-62.1,62.1-79.8,145.5-39.3,186c40.4,40.4,123.8,22.8,186-39.3c62.1-62.1,79.7-145.5,39.3-186
					C619.9,400.8,599.5,393.8,576.6,393.8C576.6,393.8,576.6,393.8,576.6,393.8"/>
			</defs>
			<clipPath id="SVGID_43_">
				<use xlink:href="#SVGID_42_"  style="overflow:visible;"/>
			</clipPath>
			
				<linearGradient id="SVGID_44_" gradientUnits="userSpaceOnUse" x1="-338.2318" y1="804.4556" x2="-337.2318" y2="804.4556" gradientTransform="matrix(-599.8 599.8 599.8 599.8 -684364.375 -279609.0313)">
				<stop  offset="0" style="stop-color:#F04F25"/>
				<stop  offset="0.3754" style="stop-color:#EE5225"/>
				<stop  offset="0.6942" style="stop-color:#EA5B25"/>
				<stop  offset="0.992" style="stop-color:#E56825"/>
				<stop  offset="1" style="stop-color:#E56925"/>
			</linearGradient>
			<polygon class="st14" points="826.8,529.5 521.9,834.3 217.1,529.5 521.9,224.7 			"/>
		</g>
		<g class="st0">
			<defs>
				<path id="SVGID_45_" d="M411.2,639c-39.7-39.7-22.2-121.6,38.9-182.7c61.1-61.1,143-78.5,182.6-38.8
					c39.7,39.7,22.3,121.6-38.8,182.7c-38.9,38.9-86.3,60.1-125.8,60.1C445.6,660.2,425.6,653.4,411.2,639 M576.6,393.8
					c-40.2,0-88.4,21.5-127.9,61.1c-62.1,62.1-79.8,145.5-39.3,186c40.4,40.4,123.8,22.8,186-39.3c62.1-62.1,79.7-145.5,39.3-186
					C619.9,400.8,599.5,393.8,576.6,393.8C576.6,393.8,576.6,393.8,576.6,393.8"/>
			</defs>
			<clipPath id="SVGID_46_">
				<use xlink:href="#SVGID_45_"  style="overflow:visible;"/>
			</clipPath>
			
				<linearGradient id="SVGID_47_" gradientUnits="userSpaceOnUse" x1="-338.2318" y1="804.4556" x2="-337.2318" y2="804.4556" gradientTransform="matrix(-599.8 599.8 599.8 599.8 -684364.375 -279609.0313)">
				<stop  offset="0" style="stop-color:#F04F25"/>
				<stop  offset="0.3754" style="stop-color:#EE5225"/>
				<stop  offset="0.6942" style="stop-color:#EA5B25"/>
				<stop  offset="0.992" style="stop-color:#E56825"/>
				<stop  offset="1" style="stop-color:#E56925"/>
			</linearGradient>
			<polygon class="st15" points="826.8,529.5 521.9,834.3 217.1,529.5 521.9,224.7 			"/>
		</g>
		<g class="st0">
			<defs>
				<path id="SVGID_48_" d="M397,642c-42.7-42.7-23.9-131,41.9-196.9c65.8-65.8,154.1-84.6,196.8-41.9
					c42.8,42.8,24,131.1-41.9,196.9c-41.9,42-93,64.8-135.6,64.8C434,664.9,412.5,657.5,397,642 M575.1,378
					c-43.3,0-95.1,23.1-137.7,65.7c-66.8,66.9-85.8,156.7-42.3,200.2c43.5,43.5,133.3,24.5,200.2-42.3
					c66.8-66.9,85.8-156.6,42.3-200.2C621.8,385.5,599.9,378,575.1,378C575.1,378,575.1,378,575.1,378"/>
			</defs>
			<clipPath id="SVGID_49_">
				<use xlink:href="#SVGID_48_"  style="overflow:visible;"/>
			</clipPath>
			
				<linearGradient id="SVGID_50_" gradientUnits="userSpaceOnUse" x1="-338.2319" y1="804.4556" x2="-337.2319" y2="804.4556" gradientTransform="matrix(-599.7702 599.7703 599.7703 599.7702 -684344.6875 -279592.0938)">
				<stop  offset="0" style="stop-color:#F04F25"/>
				<stop  offset="0.3754" style="stop-color:#EE5225"/>
				<stop  offset="0.6942" style="stop-color:#EA5B25"/>
				<stop  offset="0.992" style="stop-color:#E56825"/>
				<stop  offset="1" style="stop-color:#E56925"/>
			</linearGradient>
			<polygon class="st16" points="844.6,523.9 516.4,852.1 188.2,523.9 516.4,195.7 			"/>
		</g>
		<g class="st0">
			<defs>
				<path id="SVGID_51_" d="M382.8,645c-45.8-45.8-25.7-140.5,44.9-211c70.6-70.6,165.2-90.7,211-44.9
					c45.8,45.8,25.7,140.5-44.9,211.1c-44.9,45-99.7,69.4-145.3,69.4C422.5,669.5,399.4,661.6,382.8,645 M573.7,362.1
					c-46.3,0-101.8,24.8-147.4,70.4c-71.6,71.6-91.9,167.8-45.4,214.3c46.6,46.6,142.7,26.2,214.4-45.3
					c71.6-71.6,91.9-167.8,45.3-214.3C623.7,370.2,600.2,362.1,573.7,362.1C573.7,362.1,573.7,362.1,573.7,362.1"/>
			</defs>
			<clipPath id="SVGID_52_">
				<use xlink:href="#SVGID_51_"  style="overflow:visible;"/>
			</clipPath>
			
				<linearGradient id="SVGID_53_" gradientUnits="userSpaceOnUse" x1="-338.2318" y1="804.4555" x2="-337.2318" y2="804.4555" gradientTransform="matrix(-599.8848 599.8848 599.8848 599.8848 -684489.5 -279642.5938)">
				<stop  offset="0" style="stop-color:#F04F25"/>
				<stop  offset="0.3754" style="stop-color:#EE5225"/>
				<stop  offset="0.6942" style="stop-color:#EA5B25"/>
				<stop  offset="0.992" style="stop-color:#E56825"/>
				<stop  offset="1" style="stop-color:#E56925"/>
			</linearGradient>
			<polygon class="st17" points="862.3,518.3 510.8,869.9 159.3,518.3 510.8,166.8 			"/>
		</g>
		<g class="st0">
			<defs>
				<path id="SVGID_54_" d="M368.7,647.9c-48.9-48.9-27.4-149.9,47.9-225.2c75.3-75.3,176.3-96.8,225.2-47.9
					c48.9,48.9,27.4,150-47.9,225.3c-48,48-106.3,74.1-155.1,74.1C411.1,674.2,386.4,665.7,368.7,647.9 M572.3,346.3
					c-49.4,0-108.6,26.4-157.2,75c-76.3,76.3-98,178.8-48.4,228.5c49.7,49.7,152.2,28,228.5-48.3c76.4-76.4,98-178.8,48.3-228.5
					C625.6,354.9,600.5,346.3,572.3,346.3C572.3,346.3,572.3,346.3,572.3,346.3"/>
			</defs>
			<clipPath id="SVGID_55_">
				<use xlink:href="#SVGID_54_"  style="overflow:visible;"/>
			</clipPath>
			
				<linearGradient id="SVGID_56_" gradientUnits="userSpaceOnUse" x1="-338.2318" y1="804.4556" x2="-337.2318" y2="804.4556" gradientTransform="matrix(-599.8665 599.8666 599.8666 599.8665 -684482.875 -279631.0938)">
				<stop  offset="0" style="stop-color:#F04F25"/>
				<stop  offset="0.3754" style="stop-color:#EE5225"/>
				<stop  offset="0.6942" style="stop-color:#EA5B25"/>
				<stop  offset="0.992" style="stop-color:#E56825"/>
				<stop  offset="1" style="stop-color:#E56925"/>
			</linearGradient>
			<polygon class="st18" points="880.1,512.7 505.2,887.6 130.3,512.7 505.2,137.8 			"/>
		</g>
		<g class="st0">
			<defs>
				<path id="SVGID_57_" d="M354.5,651c-52-52-29.1-159.4,50.9-239.4c80-80.1,187.5-102.9,239.4-50.9c52,52,29.2,159.4-50.9,239.4
					c-51,51-113.1,78.8-164.9,78.8C399.5,678.9,373.3,669.9,354.5,651 M570.9,330.5c-52.5,0-115.4,28.1-167,79.7
					c-81.1,81.1-104.1,190-51.4,242.7c52.7,52.7,161.6,29.7,242.7-51.4c81-81,104.1-190,51.4-242.7
					C627.5,339.6,600.9,330.5,570.9,330.5C570.9,330.5,570.9,330.5,570.9,330.5"/>
			</defs>
			<clipPath id="SVGID_58_">
				<use xlink:href="#SVGID_57_"  style="overflow:visible;"/>
			</clipPath>
			
				<linearGradient id="SVGID_59_" gradientUnits="userSpaceOnUse" x1="-338.2317" y1="804.4554" x2="-337.2317" y2="804.4554" gradientTransform="matrix(-599.9927 599.9928 599.9928 599.9927 -684641.0625 -279687.0313)">
				<stop  offset="0" style="stop-color:#F04F25"/>
				<stop  offset="0.3754" style="stop-color:#EE5225"/>
				<stop  offset="0.6942" style="stop-color:#EA5B25"/>
				<stop  offset="0.992" style="stop-color:#E56825"/>
				<stop  offset="1" style="stop-color:#E56925"/>
			</linearGradient>
			<polygon class="st19" points="897.8,507.2 499.6,905.4 101.4,507.2 499.6,108.9 			"/>
		</g>
		<g class="st0">
			<defs>
				<path id="SVGID_60_" d="M340.3,654c-55.1-55.1-30.9-168.9,53.9-253.7c84.8-84.8,198.6-108.9,253.6-53.9
					c55,55,30.9,168.8-53.9,253.6c-54,54-119.8,83.5-174.7,83.4C388,683.5,360.3,674,340.3,654 M569.5,314.6
					c-55.6,0-122.1,29.7-176.7,84.4c-85.8,85.8-110.2,201-54.3,256.9c55.8,55.8,171,31.4,256.9-54.4
					c85.8-85.8,110.2-201.1,54.4-256.9C629.4,324.3,601.3,314.6,569.5,314.6C569.5,314.6,569.5,314.6,569.5,314.6"/>
			</defs>
			<clipPath id="SVGID_61_">
				<use xlink:href="#SVGID_60_"  style="overflow:visible;"/>
			</clipPath>
			
				<linearGradient id="SVGID_62_" gradientUnits="userSpaceOnUse" x1="-338.2317" y1="804.4554" x2="-337.2317" y2="804.4554" gradientTransform="matrix(-600.0398 600.0399 600.0399 600.0398 -684708.9375 -279706.0313)">
				<stop  offset="0" style="stop-color:#F04F25"/>
				<stop  offset="0.3754" style="stop-color:#EE5225"/>
				<stop  offset="0.6942" style="stop-color:#EA5B25"/>
				<stop  offset="0.992" style="stop-color:#E56825"/>
				<stop  offset="1" style="stop-color:#E56925"/>
			</linearGradient>
			<polygon class="st20" points="915.6,501.6 494,923.2 72.4,501.6 494,80 			"/>
		</g>
		<g class="st0">
			<defs>
				<path id="SVGID_63_" d="M326.1,657C268,598.9,293.5,478.8,383,389.2c89.5-89.5,209.6-115.1,267.8-56.9
					c58.1,58.1,32.6,178.2-56.9,267.8c-57,57-126.5,88.1-184.4,88.1C376.5,688.2,347.2,678.1,326.1,657 M568.1,298.8
					c-58.6,0-128.8,31.4-186.5,89c-90.6,90.6-116.3,212.1-57.4,271c58.9,58.9,180.5,33.2,271.1-57.4
					c90.6-90.6,116.3-212.2,57.4-271.1C631.3,309,601.6,298.8,568.1,298.8C568.1,298.8,568.1,298.8,568.1,298.8"/>
			</defs>
			<clipPath id="SVGID_64_">
				<use xlink:href="#SVGID_63_"  style="overflow:visible;"/>
			</clipPath>
			
				<linearGradient id="SVGID_65_" gradientUnits="userSpaceOnUse" x1="-338.2317" y1="804.4554" x2="-337.2317" y2="804.4554" gradientTransform="matrix(-600.047 600.0471 600.0471 600.047 -684731.3125 -279706.375)">
				<stop  offset="0" style="stop-color:#F04F25"/>
				<stop  offset="0.3754" style="stop-color:#EE5225"/>
				<stop  offset="0.6942" style="stop-color:#EA5B25"/>
				<stop  offset="0.992" style="stop-color:#E56825"/>
				<stop  offset="1" style="stop-color:#E56925"/>
			</linearGradient>
			<polygon class="st21" points="933.4,496 488.5,941 43.5,496 488.5,51 			"/>
		</g>
		<g class="st0">
			<defs>
				<path id="SVGID_66_" d="M311.9,660c-61.2-61.2-34.3-187.7,59.9-281.9c94.2-94.3,220.7-121.1,282-59.9
					c61.2,61.2,34.4,187.7-59.9,281.9c-60,60-133.2,92.7-194.1,92.7C365,692.8,334.2,682.2,311.9,660 M370.4,376.6
					c-95.3,95.3-122.3,223.3-60.4,285.3c62,62,189.9,34.9,285.2-60.4c95.3-95.3,122.4-223.3,60.4-285.2
					c-22.5-22.5-53.8-33.3-89-33.3C505,283,431.1,316,370.4,376.6"/>
			</defs>
			<clipPath id="SVGID_67_">
				<use xlink:href="#SVGID_66_"  style="overflow:visible;"/>
			</clipPath>
			
				<linearGradient id="SVGID_68_" gradientUnits="userSpaceOnUse" x1="-338.2317" y1="804.4554" x2="-337.2317" y2="804.4554" gradientTransform="matrix(-600.066 600.066 600.066 600.066 -684767.125 -279712.25)">
				<stop  offset="0" style="stop-color:#F04F25"/>
				<stop  offset="0.3754" style="stop-color:#EE5225"/>
				<stop  offset="0.6942" style="stop-color:#EA5B25"/>
				<stop  offset="0.992" style="stop-color:#E56825"/>
				<stop  offset="1" style="stop-color:#E56925"/>
			</linearGradient>
			<polygon class="st22" points="951.2,490.4 482.9,958.7 14.6,490.4 482.9,22.2 			"/>
		</g>
		<g class="st0">
			<defs>
				<path id="SVGID_69_" d="M297.8,663c-64.3-64.3-36.1-197.1,62.9-296.1c99-99,231.9-127.2,296.1-62.9
					c64.3,64.3,36,197.2-62.9,296.2c-63,63.1-139.9,97.4-203.9,97.4C353.5,697.5,321.1,686.4,297.8,663 M565.3,267.2
					c-64.7,0-142.3,34.7-206,98.3c-100,100-128.5,234.3-63.4,299.4c65.1,65.1,199.4,36.6,299.4-63.4
					c100.1-100,128.4-234.3,63.3-299.4C635,278.5,602.2,267.2,565.3,267.2C565.3,267.2,565.3,267.2,565.3,267.2"/>
			</defs>
			<clipPath id="SVGID_70_">
				<use xlink:href="#SVGID_69_"  style="overflow:visible;"/>
			</clipPath>
			
				<linearGradient id="SVGID_71_" gradientUnits="userSpaceOnUse" x1="-338.2317" y1="804.4554" x2="-337.2317" y2="804.4554" gradientTransform="matrix(-600.0764 600.0764 600.0764 600.0764 -684793.1875 -279714.125)">
				<stop  offset="0" style="stop-color:#F04F25"/>
				<stop  offset="0.3754" style="stop-color:#EE5225"/>
				<stop  offset="0.6942" style="stop-color:#EA5B25"/>
				<stop  offset="0.992" style="stop-color:#E56825"/>
				<stop  offset="1" style="stop-color:#E56925"/>
			</linearGradient>
			<polygon class="st23" points="968.9,484.8 477.3,976.4 -14.3,484.8 477.3,-6.8 			"/>
		</g>
		<g class="st0">
			<defs>
				<path id="SVGID_72_" d="M283.6,666c-67.4-67.4-37.8-206.6,65.9-310.3C453.3,252,592.4,222.4,659.8,289.8
					c67.4,67.4,37.8,206.6-66,310.3c-66.1,66.1-146.5,102.1-213.7,102.1C342,702.2,308,690.5,283.6,666 M563.9,251.3
					c-67.8,0-149.1,36.3-215.8,103c-104.8,104.7-134.6,245.5-66.4,313.6c68.1,68.2,208.8,38.4,313.6-66.4
					C700,496.8,729.8,356,661.7,287.9C636.9,263.2,602.6,251.3,563.9,251.3C563.9,251.3,563.9,251.3,563.9,251.3"/>
			</defs>
			<clipPath id="SVGID_73_">
				<use xlink:href="#SVGID_72_"  style="overflow:visible;"/>
			</clipPath>
			
				<linearGradient id="SVGID_74_" gradientUnits="userSpaceOnUse" x1="-338.2316" y1="804.4553" x2="-337.2316" y2="804.4553" gradientTransform="matrix(-600.1711 600.1712 600.1712 600.1711 -684915.5 -279755.3438)">
				<stop  offset="0" style="stop-color:#F04F25"/>
				<stop  offset="0.3754" style="stop-color:#EE5225"/>
				<stop  offset="0.6942" style="stop-color:#EA5B25"/>
				<stop  offset="0.992" style="stop-color:#E56825"/>
				<stop  offset="1" style="stop-color:#E56925"/>
			</linearGradient>
			<polygon class="st24" points="986.6,479.2 471.7,994.2 -43.3,479.2 471.7,-35.7 			"/>
		</g>
		<g class="st0">
			<defs>
				<path id="SVGID_75_" d="M269.4,669c-70.5-70.5-39.5-216,68.9-324.5c108.5-108.5,254-139.4,324.5-68.9
					c70.4,70.4,39.6,216-68.9,324.5c-69.1,69.1-153.2,106.7-223.4,106.7C330.5,706.8,295,694.6,269.4,669 M562.5,235.5
					c-70.9,0-155.8,38-225.5,107.6c-109.5,109.5-140.6,256.5-69.4,327.8c71.2,71.2,218.3,40.1,327.8-69.4
					C704.8,492,735.9,345,664.7,273.8C638.8,247.9,602.9,235.5,562.5,235.5C562.5,235.5,562.5,235.5,562.5,235.5"/>
			</defs>
			<clipPath id="SVGID_76_">
				<use xlink:href="#SVGID_75_"  style="overflow:visible;"/>
			</clipPath>
			
				<linearGradient id="SVGID_77_" gradientUnits="userSpaceOnUse" x1="-338.2316" y1="804.4553" x2="-337.2316" y2="804.4553" gradientTransform="matrix(-600.1486 600.1486 600.1486 600.1486 -684903.875 -279741.8125)">
				<stop  offset="0" style="stop-color:#F04F25"/>
				<stop  offset="0.3754" style="stop-color:#EE5225"/>
				<stop  offset="0.6942" style="stop-color:#EA5B25"/>
				<stop  offset="0.992" style="stop-color:#E56825"/>
				<stop  offset="1" style="stop-color:#E56925"/>
			</linearGradient>
			<polygon class="st25" points="1004.4,473.7 466.1,1012 -72.2,473.7 466.1,-64.6 			"/>
		</g>
		<g class="st0">
			<defs>
				<path id="SVGID_78_" d="M255.2,672.1c-73.5-73.5-41.2-225.4,72-338.7c113.2-113.2,265.1-145.5,338.7-72
					c73.5,73.5,41.3,225.5-71.9,338.7c-72.1,72.1-159.9,111.4-233.2,111.4C318.9,711.5,281.9,698.7,255.2,672.1 M561,219.7
					c-74,0-162.6,39.6-235.3,112.3C211.5,446.2,179,599.6,253.4,673.9c74.3,74.3,227.7,41.9,341.9-72.4
					C709.5,487.3,742,333.9,667.7,259.6C640.7,232.6,603.3,219.7,561,219.7C561,219.7,561,219.7,561,219.7"/>
			</defs>
			<clipPath id="SVGID_79_">
				<use xlink:href="#SVGID_78_"  style="overflow:visible;"/>
			</clipPath>
			
				<linearGradient id="SVGID_80_" gradientUnits="userSpaceOnUse" x1="-338.2316" y1="804.4553" x2="-337.2316" y2="804.4553" gradientTransform="matrix(-600.1323 600.1323 600.1323 600.1323 -684899.375 -279731.2188)">
				<stop  offset="0" style="stop-color:#F04F25"/>
				<stop  offset="0.3754" style="stop-color:#EE5225"/>
				<stop  offset="0.6942" style="stop-color:#EA5B25"/>
				<stop  offset="0.992" style="stop-color:#E56825"/>
				<stop  offset="1" style="stop-color:#E56925"/>
			</linearGradient>
			<polygon class="st26" points="1022.2,468 460.5,1029.7 -101.2,468 460.5,-93.6 			"/>
		</g>
		<g class="st0">
			<defs>
				<path id="SVGID_81_" d="M241,675c-76.6-76.6-43-234.9,75-352.8c118-117.9,276.2-151.6,352.9-75c76.6,76.6,43,234.9-75,352.9
					c-75.1,75.1-166.6,116-242.9,116C307.4,716.1,268.8,702.9,241,675 M559.6,203.8c-77,0-169.3,41.2-245,117
					c-119,119-152.8,278.8-75.4,356.1c77.4,77.4,237.1,43.6,356.1-75.4c119-119,152.8-278.7,75.4-356.1
					C642.6,217.3,603.5,203.8,559.6,203.8C559.6,203.8,559.6,203.8,559.6,203.8"/>
			</defs>
			<clipPath id="SVGID_82_">
				<use xlink:href="#SVGID_81_"  style="overflow:visible;"/>
			</clipPath>
			
				<linearGradient id="SVGID_83_" gradientUnits="userSpaceOnUse" x1="-338.2316" y1="804.4554" x2="-337.2316" y2="804.4554" gradientTransform="matrix(-600.1367 600.1367 600.1367 600.1367 -684918.6875 -279730.25)">
				<stop  offset="0" style="stop-color:#F04F25"/>
				<stop  offset="0.3754" style="stop-color:#EE5225"/>
				<stop  offset="0.6942" style="stop-color:#EA5B25"/>
				<stop  offset="0.992" style="stop-color:#E56825"/>
				<stop  offset="1" style="stop-color:#E56925"/>
			</linearGradient>
			<polygon class="st27" points="1040,462.5 454.9,1047.5 -130.1,462.5 454.9,-122.5 			"/>
		</g>
		<g class="st0">
			<defs>
				<path id="SVGID_84_" d="M226.8,678.1c-79.7-79.7-44.7-244.3,78-367c122.7-122.7,287.3-157.7,367-78
					c79.7,79.7,44.8,244.4-77.9,367.1c-78.2,78.2-173.3,120.7-252.7,120.7C295.9,720.8,255.8,707,226.8,678.1 M558.2,188
					c-80.1,0-176,42.9-254.8,121.6C179.7,433.4,144.5,599.5,225,679.9c80.5,80.5,246.6,45.4,370.3-78.4
					C719,477.8,754.2,311.7,673.7,231.2C644.5,202,603.9,188,558.2,188C558.2,188,558.2,188,558.2,188"/>
			</defs>
			<clipPath id="SVGID_85_">
				<use xlink:href="#SVGID_84_"  style="overflow:visible;"/>
			</clipPath>
			
				<linearGradient id="SVGID_86_" gradientUnits="userSpaceOnUse" x1="-338.2316" y1="804.4553" x2="-337.2316" y2="804.4553" gradientTransform="matrix(-600.2017 600.2017 600.2017 600.2017 -685007 -279757.5938)">
				<stop  offset="0" style="stop-color:#F04F25"/>
				<stop  offset="0.3754" style="stop-color:#EE5225"/>
				<stop  offset="0.6942" style="stop-color:#EA5B25"/>
				<stop  offset="0.992" style="stop-color:#E56825"/>
				<stop  offset="1" style="stop-color:#E56925"/>
			</linearGradient>
			<polygon class="st28" points="1057.7,456.9 449.4,1065.2 -159,456.9 449.4,-151.5 			"/>
		</g>
		<g class="st0">
			<defs>
				<path id="SVGID_87_" d="M212.7,681.1c-82.8-82.8-46.5-253.8,81-381.2c127.4-127.4,298.4-163.7,381.2-81
					c82.8,82.8,46.4,253.8-81,381.2c-81.2,81.2-180,125.4-262.5,125.4C284.4,725.5,242.7,711.1,212.7,681.1 M556.8,172.1
					c-83.2,0-182.8,44.5-264.6,126.3c-128.5,128.5-165,301-81.4,384.5c83.5,83.5,256,47,384.5-81.4c128.5-128.5,165-301,81.4-384.5
					C646.4,186.7,604.3,172.1,556.8,172.1C556.8,172.1,556.8,172.1,556.8,172.1"/>
			</defs>
			<clipPath id="SVGID_88_">
				<use xlink:href="#SVGID_87_"  style="overflow:visible;"/>
			</clipPath>
			
				<linearGradient id="SVGID_89_" gradientUnits="userSpaceOnUse" x1="-338.2315" y1="804.4553" x2="-337.2315" y2="804.4553" gradientTransform="matrix(-600.2377 600.2377 600.2377 600.2377 -685062.25 -279771.4063)">
				<stop  offset="0" style="stop-color:#F04F25"/>
				<stop  offset="0.3754" style="stop-color:#EE5225"/>
				<stop  offset="0.6942" style="stop-color:#EA5B25"/>
				<stop  offset="0.992" style="stop-color:#E56825"/>
				<stop  offset="1" style="stop-color:#E56925"/>
			</linearGradient>
			<polygon class="st29" points="1075.5,451.3 443.8,1083 -187.9,451.3 443.8,-180.4 			"/>
		</g>
		<g class="st0">
			<defs>
				<path id="SVGID_90_" d="M198.5,684.1c-85.9-85.9-48.2-263.3,84-395.4c132.2-132.1,309.6-169.8,395.4-84
					c85.8,85.9,48.2,263.3-84,395.4c-84.2,84.2-186.7,130-272.3,130C272.9,730.1,229.6,715.3,198.5,684.1 M555.4,156.3
					c-86.2,0-189.5,46.2-274.3,131C147.9,420.5,110,599.3,196.6,686c86.6,86.6,265.5,48.7,398.7-84.5
					c133.2-133.2,171.1-312.1,84.4-398.7C648.2,171.4,604.6,156.3,555.4,156.3C555.4,156.3,555.4,156.3,555.4,156.3"/>
			</defs>
			<clipPath id="SVGID_91_">
				<use xlink:href="#SVGID_90_"  style="overflow:visible;"/>
			</clipPath>
			
				<linearGradient id="SVGID_92_" gradientUnits="userSpaceOnUse" x1="-338.2315" y1="804.4553" x2="-337.2315" y2="804.4553" gradientTransform="matrix(-600.2495 600.2496 600.2496 600.2495 -685090 -279773.9063)">
				<stop  offset="0" style="stop-color:#F04F25"/>
				<stop  offset="0.3754" style="stop-color:#EE5225"/>
				<stop  offset="0.6942" style="stop-color:#EA5B25"/>
				<stop  offset="0.992" style="stop-color:#E56825"/>
				<stop  offset="1" style="stop-color:#E56925"/>
			</linearGradient>
			<polygon class="st30" points="1093.2,445.7 438.2,1100.8 -216.9,445.7 438.2,-209.4 			"/>
		</g>
		<g class="st0">
			<defs>
				<path id="SVGID_93_" d="M184.3,687.1c-88.9-88.9-49.9-272.6,87-409.6c136.9-136.9,320.6-175.9,409.6-87
					c89,88.9,50,272.7-87,409.6c-87.2,87.2-193.4,134.7-282,134.7C261.4,734.8,216.6,719.4,184.3,687.1 M554,140.5
					c-89.3,0-196.3,47.8-284.1,135.6C132,414,92.7,599.3,182.4,689c89.8,89.7,275,50.5,412.9-87.4
					c137.9-137.9,177.1-323.1,87.5-412.9C650.2,156.1,605,140.5,554,140.5C554,140.5,554,140.5,554,140.5"/>
			</defs>
			<clipPath id="SVGID_94_">
				<use xlink:href="#SVGID_93_"  style="overflow:visible;"/>
			</clipPath>
			
				<linearGradient id="SVGID_95_" gradientUnits="userSpaceOnUse" x1="-338.2315" y1="804.4552" x2="-337.2315" y2="804.4552" gradientTransform="matrix(-600.2829 600.283 600.283 600.2829 -685142.25 -279786.5313)">
				<stop  offset="0" style="stop-color:#F04F25"/>
				<stop  offset="0.3754" style="stop-color:#EE5225"/>
				<stop  offset="0.6942" style="stop-color:#EA5B25"/>
				<stop  offset="0.992" style="stop-color:#E56825"/>
				<stop  offset="1" style="stop-color:#E56925"/>
			</linearGradient>
			<polygon class="st31" points="1111,440.1 432.6,1118.5 -245.8,440.1 432.6,-238.3 			"/>
		</g>
		<g class="st0">
			<defs>
				<path id="SVGID_96_" d="M170.2,690.1c-92.1-92-51.7-282.1,90-423.7c141.6-141.7,331.7-182,423.7-90c92,92,51.7,282.1-90,423.7
					c-90.2,90.2-200.1,139.3-291.7,139.3C249.9,739.4,203.6,723.5,170.2,690.1 M552.5,124.7c-92.3,0-203,49.5-293.8,140.3
					C116,407.6,75.5,599.2,168.3,692c92.8,92.8,284.3,52.2,427-90.5c142.7-142.7,183.2-334.2,90.4-427
					C652,140.8,605.3,124.7,552.5,124.7C552.5,124.7,552.5,124.7,552.5,124.7"/>
			</defs>
			<clipPath id="SVGID_97_">
				<use xlink:href="#SVGID_96_"  style="overflow:visible;"/>
			</clipPath>
			
				<linearGradient id="SVGID_98_" gradientUnits="userSpaceOnUse" x1="-338.2315" y1="804.4553" x2="-337.2315" y2="804.4553" gradientTransform="matrix(-600.2629 600.263 600.263 600.2629 -685133.625 -279774.1875)">
				<stop  offset="0" style="stop-color:#F04F25"/>
				<stop  offset="0.3754" style="stop-color:#EE5225"/>
				<stop  offset="0.6942" style="stop-color:#EA5B25"/>
				<stop  offset="0.992" style="stop-color:#E56825"/>
				<stop  offset="1" style="stop-color:#E56925"/>
			</linearGradient>
			<polygon class="st32" points="1128.7,434.6 427,1136.3 -274.7,434.6 427,-267.2 			"/>
		</g>
		<g class="st0">
			<defs>
				<path id="SVGID_99_" d="M155.9,693.1c-95.1-95.1-53.3-291.5,93-437.9c146.4-146.4,342.8-188.1,437.9-93
					c95.1,95.1,53.4,291.6-93,438c-93.2,93.3-206.8,144-301.5,144C238.4,744.1,190.5,727.6,155.9,693.1 M551.1,108.8
					c-95.4,0-209.7,51.1-303.6,144.9C100.2,401.2,58.2,599.1,154.1,694.9c95.9,95.9,293.8,54,441.2-93.4
					c147.4-147.4,189.3-345.4,93.4-441.2C653.9,125.5,605.6,108.8,551.1,108.8C551.2,108.8,551.2,108.8,551.1,108.8"/>
			</defs>
			<clipPath id="SVGID_100_">
				<use xlink:href="#SVGID_99_"  style="overflow:visible;"/>
			</clipPath>
			
				<linearGradient id="SVGID_101_" gradientUnits="userSpaceOnUse" x1="-338.2315" y1="804.4553" x2="-337.2315" y2="804.4553" gradientTransform="matrix(-600.2473 600.2473 600.2473 600.2473 -685129.9375 -279763.875)">
				<stop  offset="0" style="stop-color:#F04F25"/>
				<stop  offset="0.3754" style="stop-color:#EE5225"/>
				<stop  offset="0.6942" style="stop-color:#EA5B25"/>
				<stop  offset="0.992" style="stop-color:#E56825"/>
				<stop  offset="1" style="stop-color:#E56925"/>
			</linearGradient>
			<polygon class="st33" points="1146.4,429 421.4,1154 -303.6,429 421.4,-296.1 			"/>
		</g>
		<g class="st0">
			<defs>
				<path id="SVGID_102_" d="M141.8,696.1c-98.2-98.2-55.1-301,96-452.1C388.9,92.9,591.7,49.8,689.9,148
					c98.2,98.2,55.1,301-96,452.1c-96.3,96.3-213.5,148.7-311.3,148.7C226.9,748.8,177.4,731.7,141.8,696.1 M549.8,93
					c-98.5,0-216.5,52.7-313.4,149.6C84.2,394.7,41,599,139.9,698c99,99,303.3,55.7,455.4-96.5c152.1-152.1,195.4-356.4,96.5-455.4
					C655.8,110.2,606,93,549.8,93C549.8,93,549.8,93,549.8,93"/>
			</defs>
			<clipPath id="SVGID_103_">
				<use xlink:href="#SVGID_102_"  style="overflow:visible;"/>
			</clipPath>
			
				<linearGradient id="SVGID_104_" gradientUnits="userSpaceOnUse" x1="-338.2315" y1="804.4553" x2="-337.2315" y2="804.4553" gradientTransform="matrix(-600.2891 600.2891 600.2891 600.2891 -685191.75 -279780.4063)">
				<stop  offset="0" style="stop-color:#F04F25"/>
				<stop  offset="0.3754" style="stop-color:#EE5225"/>
				<stop  offset="0.6942" style="stop-color:#EA5B25"/>
				<stop  offset="0.992" style="stop-color:#E56825"/>
				<stop  offset="1" style="stop-color:#E56925"/>
			</linearGradient>
			<polygon class="st34" points="1164.3,423.4 415.8,1171.8 -332.6,423.4 415.8,-325.1 			"/>
		</g>
		<g class="st0">
			<defs>
				<path id="SVGID_105_" d="M127.6,699.1c-101.2-101.3-56.8-310.5,99-466.3c155.9-155.9,365-200.3,466.3-99
					c101.3,101.3,56.8,310.4-99,466.3c-99.3,99.3-220.2,153.4-321.1,153.4C215.3,753.5,164.3,735.9,127.6,699.1 M548.3,77.2
					c-101.6,0-223.2,54.4-323.1,154.3C68.3,388.3,23.7,599,125.7,701c102,102.1,312.7,57.4,469.6-99.5
					C752.2,444.6,796.8,234,694.8,131.9C657.7,94.9,606.3,77.2,548.3,77.2C548.4,77.2,548.4,77.2,548.3,77.2"/>
			</defs>
			<clipPath id="SVGID_106_">
				<use xlink:href="#SVGID_105_"  style="overflow:visible;"/>
			</clipPath>
			
				<linearGradient id="SVGID_107_" gradientUnits="userSpaceOnUse" x1="-338.2315" y1="804.4553" x2="-337.2315" y2="804.4553" gradientTransform="matrix(-600.2921 600.2922 600.2922 600.2921 -685209.4375 -279778.8125)">
				<stop  offset="0" style="stop-color:#F04F25"/>
				<stop  offset="0.3754" style="stop-color:#EE5225"/>
				<stop  offset="0.6942" style="stop-color:#EA5B25"/>
				<stop  offset="0.992" style="stop-color:#E56825"/>
				<stop  offset="1" style="stop-color:#E56925"/>
			</linearGradient>
			<polygon class="st35" points="1182,417.8 410.2,1189.6 -361.6,417.8 410.2,-354 			"/>
		</g>
		<g class="st0">
			<defs>
				<path id="SVGID_108_" d="M113.4,702.1C9.1,597.8,54.8,382.2,215.4,221.6C376,61.1,591.6,15.3,695.9,119.7
					c104.3,104.3,58.6,319.8-102,480.4c-102.3,102.3-226.9,158-330.8,158C203.8,758.1,151.3,740,113.4,702.1 M214,220.3
					C52.4,381.9,6.4,598.9,111.5,704c105.1,105.1,322.1,59.1,483.8-102.5c161.6-161.6,207.6-378.6,102.5-483.7
					c-38.2-38.2-91.1-56.4-150.9-56.4C442.3,61.3,316.9,117.4,214,220.3"/>
			</defs>
			<clipPath id="SVGID_109_">
				<use xlink:href="#SVGID_108_"  style="overflow:visible;"/>
			</clipPath>
			
				<linearGradient id="SVGID_110_" gradientUnits="userSpaceOnUse" x1="-338.2315" y1="804.4552" x2="-337.2315" y2="804.4552" gradientTransform="matrix(-600.3117 600.3117 600.3117 600.3117 -685245.9375 -279784.9688)">
				<stop  offset="0" style="stop-color:#F04F25"/>
				<stop  offset="0.3754" style="stop-color:#EE5225"/>
				<stop  offset="0.6942" style="stop-color:#EA5B25"/>
				<stop  offset="0.992" style="stop-color:#E56825"/>
				<stop  offset="1" style="stop-color:#E56925"/>
			</linearGradient>
			<polygon class="st36" points="1199.8,412.2 404.7,1207.3 -390.5,412.2 404.7,-382.9 			"/>
		</g>
		<g class="st0">
			<defs>
				<path id="SVGID_111_" d="M99.3,705.1C-8.2,597.7,39,375.8,204.3,210.5C369.6,45.2,591.5-2,698.9,105.4
					c107.4,107.5,60.3,329.4-105,494.7C488.6,705.4,360.3,762.8,253.3,762.8C192.3,762.7,138.2,744.1,99.3,705.1 M202.9,209.1
					C36.5,375.4-10.8,598.8,97.4,707C205.6,815.2,429,767.9,595.3,601.5C761.6,435.2,809,211.7,700.8,103.6
					C661.5,64.3,607,45.5,545.5,45.5C437.8,45.5,308.8,103.2,202.9,209.1"/>
			</defs>
			<clipPath id="SVGID_112_">
				<use xlink:href="#SVGID_111_"  style="overflow:visible;"/>
			</clipPath>
			
				<linearGradient id="SVGID_113_" gradientUnits="userSpaceOnUse" x1="-338.2315" y1="804.4553" x2="-337.2315" y2="804.4553" gradientTransform="matrix(-600.2542 600.2542 600.2542 600.2542 -685194.4375 -279755.0938)">
				<stop  offset="0" style="stop-color:#F04F25"/>
				<stop  offset="0.3754" style="stop-color:#EE5225"/>
				<stop  offset="0.6942" style="stop-color:#EA5B25"/>
				<stop  offset="0.992" style="stop-color:#E56825"/>
				<stop  offset="1" style="stop-color:#E56925"/>
			</linearGradient>
			<polygon class="st37" points="1217.5,406.6 399.1,1225 -419.3,406.6 399.1,-411.8 			"/>
		</g>
		<g class="st0">
			<defs>
				<path id="SVGID_114_" d="M84.7,708.2C-25.9,597.7,22.6,369.2,192.8,199C363,28.7,591.4-19.7,702,90.9
					c110.6,110.6,62.1,339-108.2,509.2C485.4,708.5,353.4,767.6,243.3,767.6C180.5,767.6,124.8,748.4,84.7,708.2 M191.4,197.6
					C20.1,368.8-28.6,598.8,82.8,710.1C194.1,821.5,424,772.7,595.3,601.5C766.5,430.3,815.3,200.4,703.9,89
					C663.4,48.5,607.3,29.2,544,29.2C433.2,29.2,300.4,88.6,191.4,197.6"/>
			</defs>
			<clipPath id="SVGID_115_">
				<use xlink:href="#SVGID_114_"  style="overflow:visible;"/>
			</clipPath>
			
				<linearGradient id="SVGID_116_" gradientUnits="userSpaceOnUse" x1="-338.2315" y1="804.4553" x2="-337.2315" y2="804.4553" gradientTransform="matrix(-600.3265 600.3265 600.3265 600.3265 -685291.6875 -279785.7813)">
				<stop  offset="0" style="stop-color:#F04F25"/>
				<stop  offset="0.3754" style="stop-color:#EE5225"/>
				<stop  offset="0.6942" style="stop-color:#EA5B25"/>
				<stop  offset="0.992" style="stop-color:#E56825"/>
				<stop  offset="1" style="stop-color:#E56925"/>
			</linearGradient>
			<polygon class="st38" points="1235.9,400.9 393.3,1243.4 -449.2,400.9 393.3,-441.7 			"/>
		</g>
		<g class="st0">
			<defs>
				<path id="SVGID_117_" d="M70.4,711.2C-43.2,597.5,6.6,362.8,181.6,187.8C356.6,12.8,591.3-37,705,76.7
					c113.7,113.7,63.9,348.5-111.1,523.4C482.5,711.5,346.8,772.2,233.5,772.2C169,772.2,111.7,752.5,70.4,711.2 M542.7,13.4
					c-113.9,0-250.4,61-362.5,173.1C4.2,362.4-45.9,598.7,68.6,713.1C183,827.5,419.3,777.5,595.3,601.5
					c176-176,226-412.3,111.6-526.7C665.3,33.2,607.7,13.4,542.7,13.4C542.7,13.4,542.7,13.4,542.7,13.4"/>
			</defs>
			<clipPath id="SVGID_118_">
				<use xlink:href="#SVGID_117_"  style="overflow:visible;"/>
			</clipPath>
			
				<linearGradient id="SVGID_119_" gradientUnits="userSpaceOnUse" x1="-338.2314" y1="804.4552" x2="-337.2314" y2="804.4552" gradientTransform="matrix(-600.3516 600.3517 600.3517 600.3516 -685334.5 -279794.5)">
				<stop  offset="0" style="stop-color:#F04F25"/>
				<stop  offset="0.3754" style="stop-color:#EE5225"/>
				<stop  offset="0.6942" style="stop-color:#EA5B25"/>
				<stop  offset="0.992" style="stop-color:#E56825"/>
				<stop  offset="1" style="stop-color:#E56925"/>
			</linearGradient>
			<polygon class="st39" points="1253.6,395.3 387.7,1261.1 -478.1,395.3 387.7,-470.6 			"/>
		</g>
	</g>
</g>
</svg>
