<svg width="117" height="91" viewBox="0 0 117 91" fill="none" xmlns="http://www.w3.org/2000/svg">
<g clip-path="url(#clip0_1_7270)">
<path d="M90.5842 31.6161C91.2472 31.9065 91.2109 31.9065 90.5479 31.5383C90.0507 31.2687 89.5327 31.0458 88.9837 30.9058C87.7614 30.5947 86.2282 30.6828 85.0007 30.9835C81.7687 31.7769 79.1272 34.079 77.1382 36.9256C77.304 36.1426 77.3661 35.3441 77.2626 34.5612C77.0813 33.0264 76.4235 31.5643 76.6566 29.9828C76.0713 31.445 76.6307 32.8605 76.8119 34.2708C76.8275 34.416 76.8378 34.5456 76.843 34.6856C76.8948 35.7849 76.8275 36.9619 76.4079 37.9937C76.4028 38.0248 76.3872 38.0507 76.3769 38.0715C75.6414 39.264 75.025 40.5188 74.5019 41.7839C74.4708 41.8721 74.4294 41.9602 74.3879 42.0484C74.0357 42.9194 73.6887 43.8216 73.2847 44.6616C73.2018 43.775 72.7253 43.0231 72.4767 42.1884C72.2592 41.4573 72.3162 40.6899 72.4664 39.9277C72.1815 40.778 71.9898 41.6336 72.2074 42.4943C72.4456 43.3705 72.9895 44.1846 73.1138 45.0194C72.5648 46.0979 71.8914 47.0986 70.9332 47.8556C69.2136 49.2296 67.1833 50.0903 65.1374 50.6814C65.127 50.6814 63.1536 51.174 63.1536 51.174C63.1536 51.174 63.4696 50.4118 63.4437 50.4273C64.8059 47.2074 64.9458 44.3246 64.3035 41.6647C64.288 41.618 64.3035 41.5091 64.3035 41.4676C64.4796 40.0729 64.5573 38.6418 64.9716 37.2989C65.4948 35.5567 66.5514 34.4523 68.0897 33.4775C68.6853 33.1042 71.6635 31.1235 72.0054 30.9058C72.6114 30.5169 73.2226 30.0917 73.8027 29.6614C73.8337 29.6303 74.2429 29.4332 74.3051 29.4021C74.4087 29.3555 74.5019 29.3192 74.6055 29.2829C75.2218 29.0806 75.8589 29.1066 76.4856 28.9718C76.9725 28.8629 77.2315 28.754 77.6355 28.4636C78.0188 28.1785 78.5419 27.6133 78.9977 27.437C78.3761 27.6807 77.6303 28.2666 76.988 28.4999C76.2526 28.7695 75.6932 28.6814 74.9266 28.8784C74.8696 28.8992 74.8178 28.9095 74.7557 28.9303C77.2211 26.9496 79.3654 24.523 80.5256 21.5209C79.5467 23.6831 78.0447 25.6689 76.3095 27.2192C75.776 27.6962 75.3876 28.0799 73.9839 28.9458C71.4926 30.5013 69.6746 31.2687 67.2713 32.9331C67.0693 33.0783 66.8777 33.2338 66.6757 33.3842C66.8052 33.1146 66.8984 32.819 67.0538 32.5805C67.4371 31.9998 67.9084 31.9272 68.3797 31.4243C68.6957 31.108 68.9184 30.8954 69.0738 30.6932C69.4415 30.2162 69.773 29.6925 70.0372 29.1895C70.1511 28.9769 70.2133 28.754 70.2547 28.5362C69.9543 29.2518 69.5658 29.931 69.022 30.5221C68.4523 31.1443 67.7064 31.5383 67.1108 32.1242C66.6135 32.6116 66.3183 33.2027 66.0438 33.8042C66.0283 33.8249 65.935 34.0168 65.8832 34.0583C65.1581 34.7427 64.5314 35.5101 64.086 36.4174C63.8063 36.9826 63.4748 37.7189 63.1847 38.5277C63.1795 38.5329 63.1588 38.5485 63.1588 38.5433C62.066 36.3656 59.0774 32.5702 58.7355 32.1502C58.7252 32.1398 58.7252 32.1346 58.7252 32.1346C58.7097 32.1139 58.7148 32.1035 58.7148 32.0983C58.7925 31.3465 58.8236 29.9984 58.8391 29.8065C58.8495 29.7599 58.8599 29.7184 58.8599 29.6717C58.9013 29.2932 58.9531 28.9251 59.0152 28.5466C59.0774 28.1733 59.1447 27.7999 59.2224 27.4266C59.3157 27.0585 59.4141 26.6955 59.5228 26.3378C59.642 25.9696 59.7611 25.6119 59.9061 25.2541C59.9786 25.0882 60.0615 24.9223 60.1547 24.7563C60.2998 24.4815 60.4914 24.2327 60.7297 24.0149C61.1492 23.6571 61.5739 23.3616 62.299 23.289C63.6561 23.1438 64.9716 23.7712 66.3235 23.7297C67.1056 23.7038 67.8722 23.5379 68.5973 23.2631C69.0013 23.4186 69.5037 23.1853 69.9025 22.9831C70.3842 22.7394 70.8763 22.5061 71.4097 22.4335C71.6894 22.3972 71.938 22.3868 72.197 22.392C71.6894 22.3038 71.1663 22.309 70.6484 22.5268C70.1977 22.7186 69.7523 22.926 69.2862 23.0764C69.1515 23.1127 69.0324 23.1283 68.9081 23.1283C69.4208 22.8949 69.9284 22.6201 70.3842 22.2727C71.0834 21.7179 71.7516 21.1165 72.4094 20.5202C73.0257 19.9602 73.6473 19.3899 74.419 19.0373C72.948 19.4262 71.9173 20.6343 70.783 21.5313C70.1045 22.0705 69.2758 22.589 68.4471 22.8846C67.8514 23.1023 67.2092 23.1646 66.5825 23.2268C65.298 23.3357 63.2417 22.6046 61.6775 22.786C62.4492 22.0964 63.3556 21.5313 64.2413 20.9454C64.3035 20.9039 64.3656 20.8624 64.433 20.8157C66.857 19.2188 69.1411 16.9736 70.3946 14.2774C70.3946 14.2826 70.3946 14.293 70.3894 14.2982C70.726 13.8367 71.2129 13.5101 71.591 13.0849C71.8966 12.7479 72.0261 12.5301 72.1556 12.0946C72.2229 11.8405 72.2747 11.4931 72.3524 11.1716C72.4042 10.9487 72.4197 10.8553 72.3472 11.0213C72.1349 11.5035 71.9484 12.0738 71.6946 12.4523C71.4097 12.893 71.0783 13.1367 70.7519 13.4478C71.0834 12.556 71.301 11.6227 71.3683 10.6531C71.4356 9.59019 71.301 8.30431 70.897 7.31916C70.6587 6.7177 70.2495 6.06957 69.8352 5.54588C69.5503 5.17256 69.6021 5.32293 69.8507 5.68069C71.9743 8.81244 70.638 13.4997 68.4056 16.3826C67.7634 17.2122 66.9813 18.0418 66.1577 18.7262C66.2044 18.4255 66.2095 18.1143 66.3235 17.824C66.5514 17.2381 66.9139 16.6988 67.2972 16.1855C67.696 15.6411 68.1467 15.0189 68.1726 14.3241C68.1881 14.2826 68.1881 14.2515 68.1881 14.2152C67.9654 14.8426 67.608 15.4233 67.1677 15.9937C66.7793 16.4966 66.3287 16.9944 66.1163 17.601C65.9713 18.0418 65.9247 18.498 65.8988 18.9543C65.8729 18.9802 65.8522 19.001 65.8211 19.0269C62.962 21.2409 58.9686 23.1075 58.0726 27.0118C57.8136 28.1577 57.6686 29.6095 57.6116 30.8539C57.6116 30.8539 57.5961 30.8487 57.5961 30.8332C56.8243 29.9777 56.0319 29.1221 55.2446 28.2666C55.1255 28.1422 54.7784 27.7014 54.68 27.5303C54.5971 27.38 54.5195 27.214 54.4521 27.0948C54.4159 27.0066 54.3485 26.7889 54.3226 26.7059C54.2449 26.4363 54.131 26.1615 54.0481 25.9333C53.8927 25.4563 53.7633 24.9689 53.6493 24.4764C53.67 24.4712 53.6804 24.4608 53.7011 24.4608C54.0067 24.0979 54.4521 23.766 54.7318 23.372C55.1824 23.3201 55.286 22.8172 55.343 22.4231C55.4207 21.9824 55.4984 21.5468 55.747 21.1942C55.8713 21.018 56.006 20.8676 56.1562 20.7328C55.7884 20.9557 55.4984 21.2461 55.3896 21.6868C55.2912 22.0809 55.2135 22.4698 55.0685 22.8379C55.0322 22.9312 54.9597 22.9934 54.8924 23.0609C54.9183 23.0142 54.9545 22.9727 54.9649 22.9157C55.2239 22.055 54.8924 21.215 54.9079 20.3491C54.9286 19.6128 55.2083 19.0269 55.4984 18.358C55.6486 18.0107 55.7936 17.6581 56.0008 17.3366C56.0888 17.2018 56.0992 17.1551 56.0111 17.2588C55.198 18.2077 54.7111 19.3847 54.7422 20.6654C54.7681 21.3913 54.9545 22.2364 54.6956 22.9364C54.4987 23.4808 54.0533 23.7868 53.6338 24.1808C53.6182 24.1912 53.5975 24.1964 53.5768 24.2067C53.582 24.2067 53.582 24.2016 53.5923 24.2016C52.8724 20.6602 53.2919 16.647 55.6175 13.7901C56.3012 12.9345 57.2387 12.0738 58.1917 11.5035C57.9949 11.6072 57.7877 11.7057 57.5961 11.8197C56.8347 12.2449 56.1303 12.7375 55.5243 13.3441C54.9752 13.8989 54.5039 14.5989 54.0999 15.3974C54.1776 14.7908 54.1776 14.1789 54.0896 13.5671C53.8617 12.0634 53.121 10.6427 53.3748 9.09243C52.8827 10.5546 53.4214 11.9131 53.6286 13.2923C53.6493 13.4323 53.67 13.5619 53.6752 13.7019C53.7322 14.4745 53.7166 15.2937 53.5716 16.0715C53.525 16.2789 53.2505 17.5803 53.1521 18.021C53.1521 17.7618 53.1469 17.5233 53.121 17.2588C53.0899 17.0307 53.0019 16.7662 52.8258 16.5381C52.717 16.3722 52.2198 15.9315 52.1473 15.7915C52.199 16.0144 52.6548 16.5174 52.7584 16.7196C52.8724 16.9374 52.9138 17.1759 52.919 17.4247C52.9294 17.6166 52.919 17.8136 52.919 18.0106C52.9242 18.0936 52.9449 18.1766 52.9552 18.2543C52.9708 18.3373 53.0122 18.4203 53.0381 18.498C53.0278 18.5447 53.0174 18.581 53.007 18.6225C52.5046 20.9298 52.4425 23.3875 53.2712 25.6274C53.411 26.0111 53.5043 26.2911 53.6389 26.5452C51.5154 24.2067 49.5109 21.832 48.0917 19.2862C48.1176 19.1462 48.1383 19.0114 48.1228 18.8662C48.1228 18.7625 48.1073 18.6588 48.0865 18.5551C48.0399 18.3062 47.9726 18.0625 47.9208 17.8136C47.8586 17.4973 47.8379 17.1862 47.9001 16.8699C47.9571 16.5744 48.3248 15.7966 48.3248 15.4959C48.2782 15.6929 47.8483 16.424 47.7602 16.6625C47.6411 17.0099 47.61 17.3729 47.6463 17.6684C47.7033 18.0936 47.7602 18.4566 47.8897 18.8714C47.8949 18.8921 47.8949 18.918 47.9001 18.944C47.5168 18.2284 47.1801 17.5025 46.9056 16.7611C45.8697 13.9715 46.4239 10.565 47.9415 7.81173C48.3403 7.10139 48.3403 7.04435 47.9415 7.68729C46.398 10.1502 45.6833 12.893 46.1339 15.6567C46.0044 15.5374 45.9008 15.4026 45.8386 15.2211C45.6833 14.7596 45.6056 14.2774 45.5175 13.7952C45.4036 13.256 45.0824 12.8567 44.6681 12.5353C44.8338 12.7271 44.9944 12.9293 45.1083 13.1523C45.3932 13.6138 45.4709 14.1478 45.5331 14.6819C45.5952 15.1641 45.6833 15.7759 46.1908 15.9055C46.3514 16.7507 46.6104 17.601 46.9937 18.4462C47.7084 20.0328 49.5679 22.7394 49.8217 23.1179C49.8372 23.149 49.8476 23.1594 49.8476 23.1594C49.8424 23.1594 49.8217 23.1594 49.8061 23.1594C48.9049 23.0505 47.6463 22.5786 47.0817 22.0031C46.5741 21.4742 46.2375 20.5824 46.0251 19.9965C45.559 18.7573 44.9788 17.6477 43.7099 17.0099C42.4461 16.3826 41.1564 16.4966 39.8045 16.3255C39.1053 16.2426 38.5718 15.9885 37.8933 15.6567C38.9914 16.6574 40.3795 16.6574 41.7158 16.927C41.8815 16.9581 42.8242 17.1603 43.2955 17.3314C43.3318 17.3418 43.4561 17.404 43.5027 17.4144C43.5493 17.4299 43.6115 17.4766 43.6374 17.487C44.2537 17.8136 44.8545 18.4151 45.3725 19.4469C45.8956 20.4891 46.108 22.2675 47.3252 22.9779C47.3407 22.9934 47.3252 22.9831 47.3096 22.9934C47.3044 22.9934 47.2941 22.9986 47.2734 22.9986C47.2578 22.9986 47.1957 23.0194 47.1853 23.0246C47.0196 23.066 46.8642 23.1127 46.7088 23.1749C46.2996 23.3357 45.8801 23.569 45.445 23.6312C44.8804 23.709 44.3055 23.5586 43.7461 23.4912C44.4713 23.7193 45.2171 23.8853 45.9422 23.6727C46.5689 23.4912 47.0299 23.1801 47.5841 23.1127C47.5427 23.0971 49.4487 24.0253 50.1532 24.046C50.1842 24.046 50.2775 24.0512 50.3085 24.0564C50.3396 24.0616 50.3707 24.0667 50.3862 24.0771C50.4069 24.0771 50.438 24.0927 50.438 24.0979C50.4743 24.1186 50.5054 24.1445 50.5364 24.1549C50.5934 24.1964 50.6918 24.2741 50.7125 24.2897C50.7436 24.3208 50.7747 24.3467 50.7954 24.3778C52.2042 26.1252 53.727 27.7896 55.2083 29.5006C56.3892 30.8798 57.5805 32.342 58.6268 33.8664C56.6379 32.8761 54.0999 33.2131 52.0178 32.9798C51.1839 32.8761 50.2826 32.6427 49.4902 32.3368C48.7961 32.0828 47.1594 31.1132 47.1076 31.0302C45.7247 29.9932 44.5904 28.5777 44.3987 27.0066C44.3728 26.8407 44.3418 26.9444 44.347 27.1777C44.3625 27.4059 44.3832 27.634 44.435 27.8622C44.6059 28.5881 45.0462 29.3969 45.5072 29.9984C46.9781 31.9117 49.2726 32.9227 51.5827 33.3272C51.0078 33.5968 50.5779 34.1205 50.1169 34.4731C49.9149 34.6234 49.6611 34.7738 49.4021 34.8879C48.879 35.1212 48.1849 35.2404 47.5789 35.1367C47.1646 35.0745 46.7968 34.8567 46.9419 34.9604C46.9781 34.9864 47.0196 35.0071 47.0558 35.0279C47.0817 35.0434 47.1024 35.0538 47.1283 35.0641C47.351 35.1782 47.6566 35.2456 47.9156 35.2715C48.9722 35.3545 49.9408 34.8567 50.5986 34.2708C50.6089 34.2553 50.6245 34.2449 50.6297 34.2397C50.9301 33.9753 51.2098 33.6901 51.6397 33.5812C51.9919 33.4931 52.3544 33.4827 52.7222 33.4879C52.9863 33.5086 53.2505 33.5346 53.525 33.5449C53.5768 33.5449 53.6338 33.5501 53.6856 33.5501C54.9545 33.5968 56.2546 33.5812 57.42 34.2657C58.5491 34.9345 59.4659 35.8678 60.2946 36.8582C60.336 36.9152 60.4396 37.0552 60.5691 37.2263C60.5794 37.2419 60.595 37.2626 60.6053 37.2781C60.6157 37.2937 60.6416 37.3507 60.6571 37.3611C60.683 37.4026 60.6986 37.4441 60.7141 37.4855C60.7918 37.6463 60.8747 37.8018 60.9368 37.9574C62.6512 41.9135 62.962 46.1756 60.4344 50.4999C60.3515 50.6347 58.8702 53.0561 58.8391 52.9784C58.5698 52.1902 57.7929 50.697 57.7877 50.697C57.5805 50.3184 57.3526 49.9451 57.1144 49.5977C56.8399 49.2192 56.5446 48.8615 56.2235 48.5504C55.9594 48.3015 55.6641 48.0526 55.3792 47.8193C55.3378 47.7778 55.2498 47.6119 55.2342 47.5652C54.9338 46.5645 54.3537 45.7245 53.7477 44.9053V44.8949C53.6079 44.3868 53.5871 43.8424 53.6286 43.3394C53.6286 43.272 53.6338 43.2046 53.6493 43.1476C53.7425 42.4683 54.0222 41.8254 53.815 41.1151C53.9963 41.8669 53.5509 42.5513 53.4369 43.2617C53.38 43.6713 53.3955 44.1016 53.468 44.532C53.1158 44.0394 52.7636 43.5624 52.458 43.0387C51.7018 41.758 51.448 40.2906 51.3755 38.7818C51.2408 40.498 51.2667 42.1935 52.1006 43.7283C52.7481 44.9001 53.7011 45.9267 54.4003 47.0104C50.5882 44.1016 45.4709 41.9343 41.8867 39.9121C41.7986 39.8603 41.4723 39.6166 41.3946 39.544C40.7627 38.9736 40.136 38.5848 40.105 37.6359C40.0583 36.3915 40.913 35.1523 40.9958 33.9079C41.0424 33.2131 40.9078 32.5287 40.6488 31.8909C40.6436 31.8806 40.6436 31.7872 40.6488 31.7613C40.8404 30.9006 40.8197 29.9828 40.5815 29.1532C40.2603 28.054 39.6129 27.0689 39.587 25.8867C39.3384 27.017 39.9133 27.9866 40.2189 28.9925C40.2396 29.0962 40.2655 29.1999 40.2914 29.2932C40.4313 29.9725 40.5038 30.6984 40.4157 31.3983C40.1982 30.9939 39.9392 30.605 39.6077 30.2473C38.4372 29.0081 36.3654 28.1525 36.0546 26.5763C36.2255 28.1785 37.7069 29.0962 38.7945 30.2369C38.8981 30.351 38.9914 30.4702 39.0794 30.5843C39.7994 31.5124 40.3795 32.5805 40.4002 33.7057C40.4157 34.9553 39.2244 37.05 39.4627 38.5018C38.3388 37.8174 37.2355 37.0759 36.355 36.2411C33.5322 33.5709 31.2377 29.708 30.7353 25.8867C30.7405 25.8452 30.7508 25.7985 30.7508 25.7726C30.7664 25.7104 30.7871 25.6534 30.813 25.5911C30.9114 25.3319 31.0409 25.1297 31.1704 24.9119C31.2636 24.7563 31.3413 24.5852 31.3931 24.4193C31.4449 24.2638 31.4915 24.1238 31.5018 23.9682C31.5122 23.8905 31.5122 23.8179 31.5122 23.7505C31.5226 23.6623 31.5226 23.5171 31.5122 23.486C31.5122 23.3771 31.5018 23.3045 31.4915 23.372C31.4863 23.4549 31.4759 23.5327 31.4604 23.6105C31.4397 23.906 31.3672 24.186 31.248 24.4556C31.0512 24.9067 30.6887 25.4097 30.6887 25.4045C30.5592 23.9319 30.699 22.4438 31.2014 21.0646C31.217 21.0231 31.4604 20.2298 31.2739 20.5513C31.2325 20.6291 31.1859 20.7069 31.1445 20.7846C30.958 21.132 30.7974 21.495 30.6576 21.8579C30.0878 23.486 30.1552 25.5808 30.6679 27.7792C30.8544 28.5621 31.0927 29.3192 31.3879 30.0606C31.2584 29.8532 31.1186 29.651 30.9528 29.4695C30.8285 29.3451 30.7042 29.2155 30.5695 29.0962C30.2536 28.811 29.9169 28.5518 29.601 28.277C29.1918 27.914 28.8396 27.5303 28.5651 27.0689C28.3113 26.6437 27.8451 25.3163 27.5188 24.9326C27.6794 25.2282 28.0316 26.5348 28.1973 26.9081C28.4459 27.4733 28.8085 27.9555 29.1659 28.3081C29.544 28.6814 30.5436 29.594 31.1652 30.2162C31.3982 30.4495 31.8489 31.1598 31.9473 31.3672C34.3972 36.4226 39.2141 40.4151 44.6681 42.992C44.7406 43.0335 46.8953 44.0757 49.1276 45.3927C46.4084 45.569 43.2593 46.7408 41.1305 46.7252C38.8671 46.7252 36.6243 46.2534 34.6095 45.3097C34.594 45.2994 34.5215 45.2682 34.48 45.2423C34.4231 45.2164 34.335 45.1646 34.2625 45.0971C34.1693 45.0246 34.0553 44.7705 34.0242 44.7135C33.8689 44.3609 33.8585 43.9772 33.7394 43.6142C33.6513 43.3187 33.5736 43.1735 33.3664 42.9402C33.1696 42.7276 32.8174 42.4476 32.9158 42.5876C32.9366 42.6135 32.9521 42.6395 32.9728 42.6602C33.1386 42.8935 33.3147 43.1217 33.4182 43.3239C33.6254 43.7594 33.5943 44.0964 33.7601 44.5372C33.786 44.6409 33.843 44.7342 33.8844 44.8327C32.3409 43.7905 28.3838 41.2395 25.8562 41.0269C29.0778 41.6647 31.2791 44.1638 34.0139 45.7193C35.345 46.4712 36.7953 46.9793 38.2921 47.2593C38.0642 47.2593 37.8363 47.2386 37.6033 47.2593C37.4064 47.2852 37.2096 47.3163 37.0232 47.3474C36.5622 47.4356 36.1168 47.5704 35.661 47.6585C35.0757 47.7778 34.4956 47.8504 33.8999 47.783C33.3509 47.7311 31.8385 47.2956 31.2843 47.3371C31.6572 47.3682 33.0764 47.8971 33.527 47.9956C34.1848 48.1356 34.8633 48.1356 35.4072 48.0474C36.2048 47.9333 36.873 47.8193 37.6343 47.5963C38.2041 47.4252 38.8826 47.4408 39.4782 47.4563C39.5041 47.4563 39.7735 47.4771 39.8356 47.4771C40.4468 47.5289 41.0632 47.5445 41.6743 47.5134C44.1553 47.3889 46.4654 46.2223 48.9619 46.2638C50.179 46.2897 50.9922 46.6319 51.7484 47.0934C52.2094 47.42 52.6341 47.7467 52.9863 48.0733C53.8513 48.8459 54.4936 49.9399 54.996 51.148C55.2808 51.4643 56.6171 55.5916 56.555 56.499C56.6275 56.7738 56.3426 60.5796 56.2701 61.1862C56.208 61.7099 55.8868 64.2817 55.7884 65.0646C55.7211 65.6298 55.6175 66.1846 55.5036 66.7394C55.3741 67.3771 54.7991 70.3948 54.68 71.2037H60.3567C60.3049 70.7267 60.2169 68.0304 60.2221 67.1334C60.2272 65.6557 60.2376 63.6128 60.2583 61.9795C60.2739 60.6262 60.4137 58.7596 60.5018 58.2982C60.7555 57.0019 61.2372 54.985 61.6775 54.6583C62.3819 54.1294 66.194 52.8798 66.8725 52.4599C66.8932 52.4495 66.9088 52.4495 66.9243 52.4495C67.6857 52.1073 68.3487 51.8014 68.7786 51.6147C69.3431 51.371 69.8559 51.0443 70.3221 50.6814C70.4412 50.5829 70.6794 50.3496 70.7986 50.2459C70.9539 50.0955 71.2492 49.8518 71.6066 49.5407C71.8707 49.297 72.1038 49.0948 72.1608 49.0533C72.86 48.5244 73.3624 48.0111 74.4035 47.9904C75.7657 47.9593 77.0191 48.6955 78.371 48.7681C78.4901 48.7785 78.977 48.7941 79.0236 48.7941C79.0909 48.8044 79.1582 48.82 79.2204 48.8304C79.6089 48.9081 79.9352 49.1155 80.3029 49.2348C80.593 49.3281 80.7639 49.3489 81.0643 49.3177C81.2818 49.2918 81.5771 49.2192 81.8309 49.1881C81.9293 49.1829 81.8723 49.1726 81.7376 49.1622C81.3958 49.1622 81.0073 49.1881 80.7276 49.1363C80.2563 49.0637 79.9921 48.8459 79.5467 48.7267C80.5981 48.6074 81.6237 48.2393 82.5404 47.6482C84.027 46.6941 85.2131 45.1231 86.9741 44.7342C85.2856 44.9001 84.0218 46.0875 82.6544 46.9741C82.5042 47.0623 82.3851 47.1349 82.2349 47.2178C81.142 47.8037 79.8989 48.2756 78.6714 48.2807C77.0657 48.2807 74.362 46.8652 72.7253 47.6948C73.6421 46.0564 74.3103 44.1742 74.9991 42.3958C76.3147 42.2817 77.6096 41.8306 78.6817 41.0891C79.9093 40.2388 80.8312 38.7403 82.3851 38.4188C80.883 38.6418 79.9248 39.7981 78.7335 40.581C78.604 40.6588 78.4901 40.7314 78.3606 40.7988C77.3972 41.3743 76.2888 41.8617 75.1649 42.0069C75.4756 41.2084 75.7916 40.4306 76.149 39.7203C76.8223 38.3722 77.6925 36.8789 78.6558 35.7538C79.1634 35.1678 79.728 34.5923 80.3443 34.0479C80.4013 34.0012 80.5101 33.9183 80.7173 33.8301C80.8882 33.7627 81.0695 33.7109 81.2145 33.6746C81.8412 33.5035 82.6596 33.5761 83.4935 33.7472C83.623 33.7731 83.7473 33.8042 83.8923 33.8353C85.27 34.2397 87.2331 34.919 88.3 34.4782C87 34.7116 84.835 33.6901 83.3329 33.265C82.6907 33.0835 82.0898 33.0213 81.5822 33.0627C82.4783 32.4146 83.4572 31.8702 84.5035 31.5124C86.482 30.8435 88.6522 30.8073 90.5531 31.642L90.5842 31.6161Z" fill="#939393"/>
<path d="M24.8773 38.8026C25.0896 38.9374 25.2865 39.0929 25.447 39.2692C25.504 39.3418 25.6956 39.6218 25.7474 39.7151C25.8096 39.8396 25.8717 39.9692 25.8873 40.0055C26.0996 40.5344 26.1929 40.9907 26.1825 41.001C26.1721 41.0218 24.6183 41.6958 23.6031 41.141C23.1732 40.9077 22.7433 40.5033 22.4688 40.0159C22.0959 39.3574 21.9664 38.7455 21.9716 38.7248C21.9768 38.7196 22.6242 38.4396 23.2613 38.4189C23.8258 38.4085 24.4008 38.5174 24.8721 38.8078L24.8773 38.8026Z" fill="#939393"/>
<path d="M24.8825 38.8596C25.1052 38.9944 25.2917 39.15 25.4522 39.3263C25.5144 39.3937 25.706 39.6737 25.7526 39.7722C25.8148 39.8966 25.8769 40.0263 25.8925 40.0625C26.1048 40.5862 26.1981 41.0477 26.1877 41.0581C26.1773 41.084 24.6235 41.7477 23.6083 41.1929C23.1784 40.9596 22.7537 40.5603 22.474 40.0677C22.1063 39.4092 21.9768 38.7922 21.9871 38.7767C21.9871 38.7663 22.6346 38.4915 23.2717 38.4759C23.8362 38.4604 24.4111 38.5693 24.8825 38.8596Z" fill="#939393"/>
<path d="M70.1097 7.24649C70.2236 7.35538 70.3272 7.47464 70.4049 7.59908C70.4308 7.65093 70.5188 7.84796 70.5344 7.91018C70.5603 7.99314 70.581 8.08128 70.5862 8.10721C70.6535 8.45979 70.6535 8.75533 70.6483 8.76052C70.6431 8.77607 69.6021 8.99903 69.0375 8.53756C68.7992 8.34053 68.5817 8.0398 68.4729 7.70796C68.3227 7.25686 68.3176 6.8628 68.3227 6.85243C68.3227 6.85243 68.763 6.75392 69.1566 6.81614C69.5088 6.87836 69.8507 7.01317 70.1045 7.24649H70.1097Z" fill="#939393"/>
<path d="M70.1044 7.2828C70.2235 7.39169 70.3219 7.51094 70.3996 7.64057C70.4307 7.69242 70.5135 7.88945 70.5343 7.95167C70.555 8.03463 70.5809 8.12277 70.5861 8.1487C70.6534 8.49609 70.6534 8.79682 70.6482 8.80201C70.6378 8.81756 69.5968 9.04052 69.0374 8.57905C68.7991 8.38202 68.5868 8.08648 68.4728 7.74945C68.3226 7.29836 68.3174 6.9043 68.3278 6.89393C68.3278 6.89393 68.7629 6.79541 69.1565 6.86282C69.5087 6.91985 69.8506 7.05466 70.1044 7.29317V7.2828Z" fill="#939393"/>
<path d="M56.0318 6.42214C55.949 6.84213 55.8195 7.24137 55.6382 7.59396C55.5605 7.72877 55.229 8.19542 55.1151 8.33023C54.9545 8.50133 54.7939 8.67762 54.7421 8.7191C54.0377 9.36723 53.3644 9.78203 53.3489 9.77684C53.3074 9.77684 51.334 7.71839 51.6034 5.78439C51.7173 4.96515 52.1006 4.05259 52.7066 3.33188C53.5198 2.35191 54.4158 1.78674 54.4469 1.78674C54.4624 1.79193 55.286 2.64745 55.69 3.64298C56.0474 4.52961 56.2131 5.49921 56.0318 6.41696V6.42214Z" fill="#939393"/>
<path d="M55.9439 6.45847C55.861 6.88883 55.7315 7.27771 55.5502 7.63547C55.4777 7.77547 55.1462 8.24212 55.0271 8.37693C54.8717 8.54285 54.7008 8.71914 54.649 8.7658C53.9446 9.40875 53.2764 9.82873 53.2505 9.82355C53.2039 9.82355 51.2409 7.75991 51.5102 5.83109C51.6242 5.01186 52.0023 4.10448 52.6135 3.37339C53.4318 2.39861 54.3279 1.82826 54.3538 1.84382C54.3641 1.84382 55.1877 2.69416 55.5917 3.69486C55.949 4.57632 56.12 5.54591 55.9439 6.46366V6.45847Z" fill="#939393"/>
<path d="M68.8044 1.47044C69.0064 1.74006 69.1774 2.02523 69.2913 2.32078C69.3328 2.43485 69.4363 2.88076 69.4519 3.02076C69.4726 3.20223 69.483 3.39408 69.4881 3.45111C69.4985 4.21331 69.3949 4.83033 69.3794 4.83551C69.3587 4.86144 67.1004 4.94958 66.0956 3.77258C65.6709 3.27482 65.329 2.56966 65.2202 1.8282C65.07 0.827495 65.2047 0.00307973 65.2202 -0.0176603C65.2306 -0.0280303 66.1733 -0.0643259 66.9761 0.22085C67.6909 0.474915 68.3538 0.884532 68.8044 1.47562V1.47044Z" fill="#939393"/>
<path d="M68.7836 1.54301C68.9908 1.81782 69.1566 2.09781 69.2705 2.39854C69.3171 2.51261 69.4155 2.95852 69.4363 3.09851C69.4518 3.27999 69.4673 3.47184 69.4673 3.52887C69.4829 4.28588 69.3741 4.9029 69.3586 4.91327C69.3379 4.93919 67.0796 5.02734 66.0748 3.85034C65.6501 3.35258 65.3134 2.64742 65.1994 1.90078C65.0544 0.900072 65.1839 0.0704682 65.2098 0.0600981C65.2098 0.0497281 66.1525 0.0134345 66.9553 0.29861C67.6701 0.552676 68.3279 0.957106 68.7836 1.5482V1.54301Z" fill="#939393"/>
<path d="M50.8939 40.0936C51.0182 40.2388 51.1218 40.3943 51.1995 40.5551C51.2254 40.6173 51.3031 40.861 51.3135 40.944C51.329 41.0477 51.3497 41.1514 51.3497 41.1825C51.386 41.6076 51.3497 41.9654 51.3394 41.9654C51.329 41.981 50.0548 42.1158 49.4488 41.4884C49.1899 41.224 48.9723 40.8403 48.8843 40.4203C48.76 39.8603 48.8066 39.3885 48.817 39.3781C48.817 39.3781 49.3556 39.3159 49.8166 39.4455C50.2258 39.5647 50.6194 39.7721 50.8939 40.0884V40.0936Z" fill="#939393"/>
<path d="M50.8835 40.1403C51.013 40.2855 51.1165 40.4411 51.1942 40.6018C51.2253 40.664 51.2978 40.9129 51.3134 40.9907C51.3289 41.0944 51.3444 41.2033 51.3444 41.2292C51.3807 41.6544 51.3444 42.0121 51.3341 42.0173C51.3237 42.0329 50.0496 42.1625 49.4436 41.5351C49.1846 41.2707 48.9671 40.887 48.879 40.467C48.7599 39.907 48.8013 39.4352 48.8169 39.43C48.8169 39.43 49.3452 39.3678 49.8113 39.5026C50.2205 39.6166 50.609 39.824 50.8886 40.1403H50.8835Z" fill="#939393"/>
<path d="M56.0164 10.8656C55.9283 11.016 55.8247 11.1508 55.7056 11.2649C55.659 11.3063 55.4673 11.4412 55.4052 11.4775C55.3223 11.5189 55.2343 11.5656 55.2084 11.576C54.851 11.7315 54.535 11.7989 54.5299 11.7937C54.5091 11.7886 54.0326 10.7256 54.4055 10.0153C54.5609 9.71455 54.8303 9.419 55.1669 9.22197C55.6124 8.95754 56.0371 8.85902 56.0474 8.86421C56.0474 8.86421 56.2546 9.31012 56.2753 9.75084C56.2909 10.1397 56.2235 10.539 56.0267 10.8656H56.0164Z" fill="#939393"/>
<path d="M55.975 10.8657C55.8817 11.0212 55.7833 11.1509 55.6642 11.2649C55.6176 11.3064 55.4259 11.4412 55.3638 11.4775C55.2809 11.519 55.1929 11.5657 55.1618 11.576C54.8044 11.7316 54.4885 11.799 54.4833 11.7938C54.4677 11.7886 53.9912 10.7257 54.359 10.0205C54.5144 9.71979 54.7837 9.42425 55.1204 9.22722C55.571 8.96278 55.9905 8.86427 56.0009 8.87464C56.006 8.87464 56.208 9.31536 56.2236 9.75609C56.2391 10.145 56.1718 10.539 55.9801 10.8709L55.975 10.8657Z" fill="#939393"/>
<path d="M41.0579 17.2692C41.2754 17.2329 41.4877 17.2173 41.6897 17.238C41.7674 17.2484 42.0523 17.3158 42.1404 17.3469C42.2491 17.3884 42.3683 17.4351 42.3993 17.4506C42.8396 17.6632 43.1659 17.9069 43.1659 17.9173C43.1763 17.938 42.5703 19.2706 41.5965 19.5039C41.1873 19.6024 40.6798 19.5972 40.2188 19.4417C39.5972 19.2395 39.1622 18.918 39.157 18.9024C39.157 18.8973 39.4056 18.3373 39.8044 17.9588C40.1618 17.6217 40.5917 17.3573 41.0579 17.2692Z" fill="#939393"/>
<path d="M41.094 17.3055C41.3116 17.264 41.5239 17.2536 41.7259 17.2692C41.8036 17.2744 42.0885 17.347 42.1765 17.3781C42.2853 17.4247 42.3993 17.4714 42.4303 17.487C42.8706 17.6996 43.1969 17.9432 43.1969 17.9536C43.2073 17.9744 42.5961 19.3017 41.6275 19.5402C41.2183 19.6387 40.7108 19.6336 40.2498 19.478C39.6282 19.2706 39.188 18.9543 39.188 18.9388C39.188 18.9336 39.4366 18.3788 39.8354 18.0003C40.1876 17.6633 40.6175 17.3988 41.0889 17.3055H41.094Z" fill="#939393"/>
<path d="M45.4138 24.7615C45.4397 25.0312 45.4397 25.3008 45.393 25.5548C45.3723 25.6534 45.2584 26.0008 45.2118 26.1045C45.1496 26.2393 45.0771 26.3793 45.0564 26.4156C44.7456 26.9444 44.4141 27.3281 44.3986 27.3229C44.3727 27.3333 42.7774 26.4415 42.5806 25.2075C42.4977 24.6838 42.5599 24.0564 42.7929 23.4964C43.1089 22.7446 43.5492 22.2313 43.5699 22.2261C43.5802 22.2261 44.2484 22.5942 44.6783 23.1283C45.0616 23.6053 45.3464 24.1653 45.4086 24.7615H45.4138Z" fill="#939393"/>
<path d="M45.3672 24.7979C45.3931 25.0779 45.3931 25.3371 45.3465 25.5912C45.3309 25.6897 45.2118 26.0371 45.1652 26.1408C45.0979 26.2756 45.0305 26.4104 45.0046 26.4519C44.699 26.9808 44.3624 27.3593 44.3468 27.3593C44.3209 27.3696 42.7257 26.4778 42.5288 25.2438C42.446 24.7201 42.5081 24.0927 42.7412 23.5327C43.0623 22.7809 43.4974 22.2676 43.5233 22.2676C43.5285 22.2676 44.1914 22.6305 44.6265 23.1698C45.0098 23.6416 45.2999 24.2016 45.362 24.7979H45.3672Z" fill="#939393"/>
<path d="M35.4073 25.9644C35.5523 26.0577 35.687 26.1614 35.8009 26.2859C35.8423 26.3325 35.9718 26.5296 36.0081 26.5918C36.0495 26.6799 36.091 26.7681 36.1013 26.794C36.2463 27.157 36.3137 27.4732 36.3033 27.4784C36.2981 27.494 35.226 27.9554 34.5268 27.5718C34.2315 27.411 33.9363 27.1362 33.7446 26.7992C33.4857 26.3481 33.3976 25.9229 33.4028 25.9126C33.4028 25.9126 33.8534 25.7155 34.2937 25.7C34.6821 25.6948 35.081 25.7674 35.4021 25.9644H35.4073Z" fill="#939393"/>
<path d="M35.4124 26.0007C35.5626 26.094 35.6921 26.1977 35.806 26.3222C35.8475 26.3688 35.977 26.5659 36.0132 26.6281C36.0547 26.711 36.0961 26.8044 36.1065 26.8303C36.2515 27.1932 36.3136 27.5095 36.3085 27.5147C36.3033 27.5303 35.2311 27.9917 34.5319 27.608C34.2367 27.4473 33.9414 27.1725 33.7498 26.8355C33.496 26.3844 33.4028 25.9592 33.4131 25.9488C33.4131 25.9437 33.8586 25.7518 34.2988 25.7414C34.6873 25.7311 35.0809 25.8037 35.4072 26.0059L35.4124 26.0007Z" fill="#939393"/>
<path d="M25.6127 41.4469C25.7837 41.4054 25.9494 41.3846 26.1152 41.3898C26.1773 41.3898 26.4104 41.4365 26.4777 41.4572C26.5658 41.4883 26.659 41.5194 26.6901 41.5298C27.0526 41.6802 27.322 41.8565 27.322 41.8668C27.3323 41.8824 26.9076 42.9712 26.1411 43.1994C25.8199 43.2979 25.4159 43.3135 25.043 43.2098C24.5406 43.075 24.178 42.8416 24.1729 42.8313C24.1729 42.8261 24.349 42.3698 24.6494 42.0483C24.9187 41.7631 25.245 41.535 25.6179 41.4417L25.6127 41.4469Z" fill="#939393"/>
<path d="M25.6386 41.4676C25.8095 41.4261 25.9753 41.4054 26.141 41.4106C26.2032 41.4106 26.4363 41.4572 26.5036 41.478C26.5916 41.5091 26.6849 41.5402 26.7108 41.5506C27.0733 41.7009 27.3427 41.8772 27.3427 41.8876C27.353 41.9031 26.9231 42.9868 26.1618 43.2201C25.8406 43.3187 25.4366 43.3342 25.0637 43.2305C24.5613 43.0957 24.1987 42.8624 24.1987 42.8468C24.1987 42.8468 24.3697 42.3905 24.6701 42.0691C24.9342 41.7839 25.2657 41.5558 25.6334 41.4624L25.6386 41.4676Z" fill="#939393"/>
<path d="M77.5525 47.3423C77.335 47.4512 77.1071 47.5289 76.8844 47.5756C76.7963 47.5912 76.47 47.6015 76.3664 47.5964C76.2318 47.5808 76.0971 47.5704 76.0557 47.5601C75.517 47.4667 75.0923 47.3112 75.0871 47.2956C75.0716 47.2749 75.315 45.6572 76.2887 45.1024C76.6979 44.869 77.247 44.7187 77.7908 44.7446C78.5211 44.7705 79.0909 44.9779 79.1012 44.9935C79.1012 45.0038 79.0028 45.6779 78.692 46.212C78.4123 46.6838 78.0342 47.0986 77.5525 47.3423Z" fill="#939393"/>
<path d="M77.5008 47.3163C77.2781 47.4304 77.0554 47.503 76.8275 47.5497C76.7395 47.5652 76.4132 47.5756 76.3096 47.5704C76.1801 47.5548 76.0402 47.5393 75.9988 47.5341C75.4601 47.4408 75.0354 47.2852 75.0302 47.2697C75.0147 47.2489 75.2581 45.6312 76.2319 45.0764C76.641 44.8431 77.1901 44.6979 77.7339 44.7186C78.4642 44.7497 79.034 44.9571 79.0391 44.9727C79.0443 44.9779 78.9459 45.6519 78.6352 46.186C78.3606 46.6578 77.9774 47.0726 77.5008 47.3163Z" fill="#939393"/>
<path d="M42.2181 14.1115C42.3217 14.2723 42.4098 14.4486 42.4616 14.6249C42.4823 14.6923 42.5237 14.9515 42.5237 15.0345C42.5237 15.1434 42.5237 15.2523 42.5237 15.2834C42.503 15.7189 42.415 16.0715 42.4046 16.0767C42.3891 16.0922 41.0838 16.0507 40.5555 15.33C40.3328 15.0241 40.1619 14.6041 40.1308 14.1738C40.0842 13.593 40.1981 13.1212 40.2033 13.1108C40.2085 13.1108 40.7575 13.1264 41.2081 13.3182C41.607 13.4945 41.9747 13.759 42.2078 14.1167L42.2181 14.1115Z" fill="#939393"/>
<path d="M42.2025 14.153C42.3113 14.319 42.3942 14.4901 42.4511 14.6664C42.4719 14.7338 42.5133 14.993 42.5185 15.076C42.5185 15.1797 42.5185 15.2937 42.5185 15.3248C42.4978 15.7604 42.4097 16.113 42.3994 16.1182C42.3838 16.1337 41.0786 16.087 40.5503 15.3715C40.3276 15.0656 40.1618 14.6456 40.1256 14.2101C40.0841 13.6293 40.1929 13.1575 40.2084 13.1471C40.2084 13.142 40.7575 13.1575 41.2081 13.3545C41.6069 13.5308 41.9746 13.7901 42.2129 14.1478L42.2025 14.153Z" fill="#939393"/>
<path d="M35.3138 48.4C35.4847 48.317 35.6608 48.26 35.8421 48.2289C35.9095 48.2185 36.1684 48.2133 36.2461 48.2237C36.3497 48.234 36.4585 48.2496 36.4844 48.2548C36.9039 48.3377 37.2354 48.4674 37.2354 48.4726C37.2458 48.4881 37.0334 49.7429 36.2668 50.1629C35.9457 50.3392 35.5158 50.448 35.0911 50.4169C34.5214 50.3858 34.0811 50.2147 34.0759 50.2043C34.0759 50.1992 34.1588 49.6703 34.4126 49.2607C34.6353 48.8977 34.9409 48.5763 35.3138 48.4Z" fill="#939393"/>
<path d="M35.3501 48.4207C35.5262 48.3377 35.7023 48.2807 35.8785 48.2496C35.9458 48.2392 36.2048 48.234 36.2825 48.2392C36.386 48.2548 36.4948 48.2651 36.5259 48.2703C36.9454 48.3481 37.2717 48.4829 37.2769 48.4933C37.2873 48.5088 37.0749 49.7636 36.3084 50.1836C35.982 50.3599 35.5573 50.4636 35.1326 50.4428C34.5629 50.4066 34.1226 50.2406 34.1174 50.2251C34.1174 50.2251 34.2003 49.7014 34.4541 49.2866C34.6768 48.9236 34.9772 48.6022 35.3553 48.4207H35.3501Z" fill="#939393"/>
<path d="M42.5031 0.843044C42.9382 0.728974 43.5131 0.578608 43.943 0.469723C43.7669 0.438613 43.5338 0.397133 43.3577 0.360838L43.8705 0.174177H43.2075L42.9537 0.334913L43.1402 0.143066H42.9227L42.6171 0.376392L42.674 0.179363L42.4669 0.262323L42.3426 0.277878L41.8971 0.459352L41.576 0.780824C41.633 0.666754 41.6899 0.506017 41.7624 0.402317L41.5397 0.531942H41.431L41.3429 0.620088L40.5505 0.832674L40.3795 0.98304L40.7058 0.858598L40.1827 1.09711L40.7369 0.99341L40.0118 1.22673L40.5712 1.11785L39.9807 1.36673L40.0739 1.41339L40.4883 1.24229L40.3381 1.31488L40.5919 1.23192L40.2241 1.40302L41.4828 0.951929L40.9596 1.19562L40.9182 1.2734L40.0429 1.5171L39.6596 1.86968L39.9393 1.54302L39.7632 1.52228L38.7221 2.39336L38.287 2.4504L37.9659 2.7252L38.4579 2.47632L37.6914 3.02075L37.5205 3.11926L37.7432 2.88075L37.5619 2.90668L37.3703 3.12963L36.785 3.40444L36.583 3.5548C36.8109 3.57036 37.1113 3.58591 37.334 3.60147L37.0388 3.85554L37.3961 3.72072L37.5826 3.60665V3.65332L37.7432 3.57555L37.9659 3.37851L37.8675 3.33704L38.3802 3.02593L38.691 2.78224L38.7739 2.83409L39.2297 2.60595L39.2867 2.48151L39.5405 2.44003L39.5871 2.243H39.8098L39.7684 2.09263L40.3381 1.97338L40.5246 1.82819L40.623 1.87486L41.1098 1.64672L40.9804 1.63117C41.5553 1.4134 42.3167 1.11785 42.8968 0.905264L41.9386 1.12304L42.6171 0.926004L42.5031 0.863785M73.6681 2.22226L74.186 2.243L73.5023 1.78153L73.3728 1.83857L73.1864 1.65709L72.8808 1.54821L72.6011 1.32006L71.8863 1.01415L71.9692 1.21637L72.2023 1.42376L72.1815 1.50154L72.4612 1.74523L72.7668 1.8956L73.0465 1.91634L73.6629 2.22744M38.6548 2.21707L39.0121 2.09263L39.24 1.8956L39.0691 1.99412L39.0121 1.95264L39.4524 1.65191L39.6544 1.48598L39.4472 1.63117L39.5249 1.54302L39.7217 1.41339L40.2086 1.01415L40.0636 1.04008V1.08674L39.613 1.26303L39.5715 1.32525L39.0898 1.53265V1.56894L39.0588 1.5845H39.1313L39.0121 1.64154L38.9189 1.70894L38.8619 1.66746L38.6858 1.84894L38.4735 1.94227L38.3336 2.0356L38.287 2.09263L38.4269 2.0356L38.3388 2.09263L38.5615 1.99412L38.5926 2.05634L38.432 2.09782L38.5512 2.11856L38.0643 2.26374L37.9866 2.36744L37.9245 2.37781L37.8934 2.49188L37.7535 2.52299L37.6914 2.69928L37.8105 2.59558L37.7173 2.7252L38.085 2.43484L37.7794 2.71483L38.1679 2.44521L38.6081 2.20152L38.2818 2.43484L38.6444 2.22226M36.7953 2.8652L37.1424 2.67335L37.5153 2.40373L37.5826 2.28448L37.8986 2.05115L37.5464 2.23781H37.5878L37.3858 2.35188L37.5153 2.29485L37.4169 2.35188L37.3961 2.38299L37.1475 2.50743L37.0284 2.68372L36.7953 2.8652ZM75.108 2.71483L75.1235 2.53336L74.4502 2.16522H74.3414L74.2482 2.07189L74.1705 2.14967L74.7816 2.74594L74.9267 2.64743L75.108 2.71483ZM37.2563 2.77187L37.5464 2.58002L37.6966 2.39336L37.4376 2.51262L37.2045 2.7252L37.0854 2.77187L36.9352 2.91186L37.2615 2.77187M36.8264 2.60595L37.0336 2.50743L37.1424 2.4141L36.816 2.60595L36.7643 2.64224L36.8368 2.60595M36.4535 2.87557L36.6658 2.75113L36.5415 2.80298L36.1531 3.05704L35.9977 3.17111L36.1738 3.0726L36.3603 2.94816L36.4483 2.87557M36.2877 2.95334L36.381 2.89112L36.4897 2.81335L36.2877 2.95334ZM36.5778 2.97927L36.6917 2.9326L36.728 2.8652L36.5726 2.97927M36.0391 3.26963L36.2049 3.16074L36.469 2.93779L36.1841 3.14L36.0339 3.26963M36.873 3.10371L37.1216 2.94816L36.8575 2.98964L36.8678 3.10889M56.9642 15.9211L57.2025 16.1492V15.9003L57.0523 15.8329L56.9642 15.9159M83.9131 6.36508C83.7732 6.22508 83.6334 6.09027 83.4935 5.95028L83.566 6.02287L83.3899 5.86213L83.4469 5.92954L83.3123 5.82584L83.3692 5.90361L83.6955 6.2562L83.3899 6.00731L82.4732 5.15697L82.0329 4.80958L81.9915 4.89772L82.1987 5.12068L82.121 5.21919L81.8413 5.04809L81.7584 4.92365C81.5616 4.90291 81.3026 4.87698 81.111 4.85624L80.9867 5.22438C80.8365 4.87698 80.6241 4.41552 80.4273 4.09405L80.2046 3.88665L79.4225 3.41481L79.0858 3.3474L79.3551 3.56517L79.1842 3.54443L79.0029 3.31629L78.63 3.22815L78.6404 3.10889L78.2726 3.01556L78.3555 3.22296L78.6145 3.49258C78.2882 3.92294 78.2726 3.94368 77.9411 4.20293L78.3451 4.76291C78.112 4.80439 77.8013 4.86661 77.5682 4.90291L78.0913 5.42659L78.3503 5.48363L78.6714 5.78955L77.6925 5.5614L77.7495 5.87769L78.3762 6.13694L77.6925 5.98139L77.3714 5.56659L77.0244 5.2866L77.3041 5.64436L77.2005 5.86732L77.6252 6.26657L77.822 6.68137L78.138 7.08061L78.7491 7.11172L79.1013 7.50578L78.6507 7.14802L78.4435 7.22061L78.7543 7.83762L78.5937 8.42872L77.8686 8.17983L78.2053 8.2265L78.4176 7.90503L78.3089 7.46949L77.9308 7.14802L77.3507 6.19916L76.9622 5.81547L76.7291 5.30734L76.0403 5.28141L76.2371 5.76362L76.1231 6.1162L76.4702 6.33916L76.6307 6.7384L77.2108 7.09098L77.4284 7.49541L76.8793 7.1532C76.4132 7.06506 75.7916 6.9458 75.3203 6.85766L75.5896 7.23616L75.3462 7.35542V7.19468L74.6159 7.26209L74.4243 7.47467L74.0513 7.19468C73.7354 7.3969 73.321 7.6717 72.9999 7.86355L72.9688 8.13835L72.6114 8.11761L72.3525 7.78059L72.6995 7.71318L72.2955 7.38134L71.7724 7.31394L72.0158 7.54726L72.0572 7.95688L72.2851 8.1902L72.3317 8.52205L71.8552 8.38205L71.27 8.8487L71.5289 9.2998L70.9074 9.0924L70.4775 9.14425L70.7883 9.3672L70.9074 9.62127L70.1512 9.36202L69.8508 8.64649L69.2085 8.05021C69.8197 8.17983 70.6381 8.34576 71.2544 8.47538L71.3994 8.25243L71.3425 7.86873C70.5811 7.54726 69.5711 7.12209 68.8097 6.80062L69.048 6.77988L68.7579 6.68137L68.183 6.74359L67.9033 6.54656L68.3021 6.58285L68.4264 6.39619L67.9188 6.21472L67.7168 6.35471L67.8049 6.14213H67.5459L67.3853 6.41174L67.2973 6.18361L66.971 6.59322L67.1989 6.08509L66.7793 6.15768L66.4893 6.48434L65.443 6.86284C65.0701 7.2569 64.5781 7.79096 64.2 8.17983L64.0239 8.45982L63.4541 8.93685L62.6979 9.75608L62.2214 10.145L61.6154 10.4923L61.258 11.2027L61.517 12.1101L62.3302 12.3849L63.0864 11.6382C63.3039 12.2293 63.594 13.0174 63.8167 13.6085L64.0342 13.7382L64.2518 13.65L64.3709 13.4271L64.9406 13.1108L65.039 12.4004L65.7072 11.5501L65.1737 11.1716L65.5 10.0568L66.3132 9.35165L66.3753 8.885L66.914 8.67241L67.4112 9.00425L66.2925 10.2175L66.4634 10.9953L66.9296 11.5138L68.6491 11.182L68.6129 11.3116L69.1464 11.5812L68.4989 11.6331L68.3384 11.7782L67.116 11.9079L67.2041 12.2086L67.3543 12.3538L67.4786 12.3175V12.6856L67.2973 12.9656L66.655 12.6752L66.365 13.8315L66.251 13.9248L66.1371 13.9508L66.0542 14.1478L65.6347 14.0389L65.7745 14.0959L64.1741 14.4693L64.3709 14.49L64.3502 14.6144L63.7752 14.21L63.1278 14.4174L63.2314 14.2204L62.7135 13.8782L62.8119 13.7278L62.8585 13.6552L63.1485 13.2197L63.076 12.6026L62.5373 12.8878L62.2318 13.3804L62.5529 14.4589L62.3198 14.5937H61.864L61.807 14.7078L61.0094 14.9878L60.7815 15.5166L60.6106 15.5633L60.8333 15.6722L61.8847 15.9055L61.776 16.2892L61.3409 16.5329L61.4704 16.5744L61.0094 16.6366L60.9006 16.5121L60.6831 16.4499L60.7867 16.8544L60.4034 17.0099L60.1341 16.9062L59.7042 16.984L59.8285 17.1914L59.7197 17.2277L60.5433 17.5906L60.1962 18.5136L60.2946 20.1365L60.6831 19.7787V19.3639L61.3564 19.5817L62.2007 19.0424H62.5891L62.9465 19.4521L63.2625 19.9706L63.7908 20.4009L64.2569 20.7483L64.7386 21.0283L64.9613 21.5623L64.8267 21.7438L64.8526 21.8112L64.9303 21.7646L65.1478 21.6557L65.3136 21.2772L65.1375 21.0542L65.2721 20.8935L65.6761 21.1683L65.7952 21.1113L65.3187 20.6602L64.8785 20.4372C64.8785 20.3698 64.8785 20.3076 64.8785 20.2402L64.5988 20.1417L64.2777 19.955L63.9824 19.4676L63.8478 19.2706L63.5991 19.0943L63.625 18.695L63.9203 18.4513L64.2207 18.721L64.635 19.3846L65.4068 19.6698L65.5156 19.9498L65.961 20.2298L66.1216 21.0076L66.3805 21.4846L66.5877 21.8112L66.8829 21.9357L66.7327 22.3194L66.9451 22.5216L67.1626 22.6408L67.5097 22.589L67.4475 22.0238L67.8101 22.0757L67.3853 21.5416L67.318 20.7483L67.6909 20.8209V20.629L67.9551 20.5565L68.7372 20.7172L68.53 21.0231L69.0272 20.5357L69.5141 20.4735L69.1049 20.1157L69.3691 18.8973L69.6177 18.7469L69.654 18.3839L70.0217 17.9017H70.6173L70.2548 17.9691L70.5086 18.1299H70.8297L70.5811 18.4928L70.8919 18.8921L71.9795 18.498L71.4616 18.4202L71.415 18.0884L71.819 17.8291C71.819 17.8291 71.819 17.8758 71.8242 17.9017L72.425 17.658L72.6684 17.7306L72.4716 17.9069L72.2282 17.9173L72.5286 18.1921L72.2696 18.5602L72.0106 18.5084L71.9485 18.6173L73.5593 19.7631L73.6318 20.3128L72.5079 20.5305L71.6999 20.2505L71.56 20.038C70.9488 20.1831 70.1305 20.3802 69.5141 20.5202L69.7783 20.655L68.5196 21.2305L68.7942 21.1994L69.2551 22.4334L69.856 22.729L70.0839 22.5164L70.3843 22.4697L70.9126 22.7497L71.2648 22.729L71.5238 22.449L71.7672 22.5268L71.9847 22.4282L71.5756 24.58L71.3166 24.86L70.7572 25.0933L70.0631 24.8445L69.1308 25.14L68.3021 24.8548L68.0898 24.6215L67.5873 24.5178L67.4734 24.3052L66.5722 24.3674L66.3702 24.6993L66.4323 25.0415L65.7176 25.1711C64.8215 24.6993 63.625 24.0771 62.729 23.6104L63.0864 23.1023L63.1019 22.4023L62.4752 22.2727C61.2373 22.5579 59.5902 22.9416 58.3575 23.2319L58.0726 23.0816L57.6738 23.1541L57.218 22.8534L55.8299 24.4348L55.6694 25.4615C54.9546 26.5503 54.0171 28.0125 53.3231 29.1169L53.7426 30.7969L53.4836 31.9842L54.592 33.6019L55.7781 35.1471L56.928 35.8937L58.7771 35.7019C59.3882 35.5308 60.2014 35.3026 60.8178 35.1367L61.3823 35.7796L62.0401 35.8159L62.527 36.3811L62.4804 38.1699L63.4023 39.1914C63.5577 39.8551 63.7649 40.7365 63.9203 41.4002C63.7856 42.0742 63.6043 42.9764 63.4697 43.6505L64.1482 44.9986L64.2103 45.3615L64.2569 45.6675L64.345 46.383L64.9406 47.1763L65.1167 47.9592L65.5415 48.4155C66.0024 48.3015 66.6188 48.1459 67.0798 48.0266C67.5822 47.5859 68.2503 46.9948 68.7527 46.5541L69.1826 45.6467L69.7368 45.4082L69.9596 44.786L69.8663 44.2623C70.4827 43.6712 71.3114 42.8883 71.9277 42.2972C71.9381 41.5091 71.9536 40.4617 71.9381 39.6736C72.5286 38.8907 73.3159 37.8485 73.896 37.0603L75.1805 36.153L75.9626 34.6493L76.5841 33.1871C75.9677 33.3271 75.1494 33.519 74.533 33.659L73.5075 31.9635L73.1139 31.7716L72.8083 30.688L72.4405 30.2887C71.5704 27.5977 71.4823 27.3177 70.8401 25.5237L71.4202 26.4726L71.6481 25.7155L71.5704 26.3481C72.4457 28.2718 73.3521 30.2628 74.2015 32.4872L74.5537 32.7516C75.2633 32.4249 76.2164 31.9946 76.9208 31.6576L77.2367 31.2635L77.5941 31.0872L77.8531 31.1183L78.0654 30.7035L78.7802 30.1539L78.9459 29.5628L78.9874 29.7339L79.4328 29.091L79.1997 28.3755L78.6404 27.971L78.5212 27.1466L77.8997 27.9969L77.0036 28.1318L76.9001 27.1622L76.8068 27.7792L75.9315 25.7467L76.5323 25.4459L77.7184 26.9236L78.3814 26.9029L79.2049 27.4733C79.8783 27.5044 80.7795 27.5458 81.4528 27.5821L81.6704 28.2199L82.1779 28.6347L82.3903 28.6088L81.9915 28.8525L82.4214 29.4747L82.6752 29.3347L82.9652 28.8265C82.8875 29.5836 82.8047 30.5895 82.7062 31.3413L83.0222 33.2649L83.3278 34.499L83.7111 34.193L83.8975 33.7264L84.229 33.0005L84.6071 31.4761C85.0888 30.885 85.7363 30.1021 86.192 29.4902L86.2283 29.1739L86.8861 29.0132L87.1865 28.671L87.575 30.6154L87.4662 31.1494L87.518 31.4553L87.7304 31.3205L87.9841 30.8643L87.9945 31.3879L87.8495 32.4509L87.7459 33.3738L87.9116 33.1249L87.6009 34.6856L87.6423 35.4634L87.5491 36.0026L87.4403 36.5626L87.606 36.9981L87.9324 35.6811L87.7821 34.7893V34.4212L87.8339 33.8664C87.8598 33.7679 87.8806 33.6745 87.9013 33.576L88.3778 32.4561L88.3105 32.7412L88.6834 33.7471L88.5694 34.2864L89.4137 33.099L89.6157 32.2072C89.5742 31.6161 89.538 30.828 89.4707 30.2369L89.5742 29.7806L89.9057 29.1688L90.1751 29.2621L90.1026 29.345L90.1129 29.6924L90.2476 29.2362C90.4755 28.9769 90.7862 28.6451 90.9986 28.3703C91.1799 27.5459 91.4181 26.4466 91.5424 25.6118L91.3974 25.42L91.501 25.0467L91.3146 24.5282L91.4699 24.6526L91.1436 23.2475L91.2938 22.1794L90.9468 22.0134L90.7707 21.5416L90.9106 20.6757L91.0297 20.7794L91.0918 21.5779L91.1954 20.9609L91.3197 21.2253L91.3871 21.832L91.4958 21.9668L91.6926 23.486L91.7911 23.3615L91.76 22.6823L91.4596 21.3394C91.4026 20.7794 91.3508 20.038 91.2628 19.4832L91.3405 19.7269V19.5609C91.097 18.6328 90.7552 17.3936 90.4444 16.481C90.1802 15.7759 89.8902 15.0811 89.5742 14.4018L89.5432 14.3396L89.6468 14.5833L89.5069 14.293L89.3412 13.9974L88.818 12.9086C88.2069 11.7782 87.518 10.6946 86.767 9.66793C85.9124 8.50131 84.9697 7.40208 83.9493 6.38064M50.2361 26.7422L48.8635 26.26L36.9766 3.22296L37.1009 3.19185L37.1683 3.05186L36.9766 3.22296M35.6869 3.3837L35.977 3.18148L36.0236 3.15037L35.3813 3.60665L35.6507 3.41481L35.6921 3.38888M36.1841 4.71625L36.4949 4.53477V4.44663L36.7384 4.30663L36.4794 4.06812L36.179 4.18219L36.1324 4.2496L36.0754 4.1459L35.9407 4.20812L36.1583 3.88146L36.3965 3.77257V3.70517L36.5364 3.56517L36.4587 3.34222L36.0236 3.66369L36.0547 3.81924L35.1534 4.60218L35.3036 4.5607L35.1742 4.72662L35.3813 4.61773L35.2985 4.71625L35.5005 4.55033L35.2726 4.79402L35.4279 4.81476L35.5574 4.69551L35.8268 4.72662L36.0391 4.52959L35.8682 4.75254L36.1945 4.72662M35.5782 3.49258L35.6662 3.43036L35.573 3.49258M36.6762 3.48221L36.5208 3.65332L36.6244 3.56517L36.6762 3.48221ZM34.4128 4.50885L34.8219 4.20812L35.169 3.91776L34.853 4.1459L35.6714 3.48221L35.2777 3.75184L35.0809 3.91776L34.967 3.99035L34.7909 4.1459L34.708 4.16664L34.8686 4.03182L34.9307 3.99035L35.3503 3.65332L35.2363 3.7311L35.0913 3.83998L35.0343 3.87627L34.91 3.96961L34.8996 3.97998L34.7443 4.09405C34.7443 4.09405 34.7235 4.1096 34.7132 4.11479L34.7494 4.09405L34.5371 4.25478C34.4905 4.29108 34.4387 4.33256 34.392 4.36885L34.3817 4.37922L34.2885 4.457L34.2056 4.52959L34.6044 4.21849L34.3092 4.45181L34.4749 4.3533L34.0191 4.67995C34.0968 4.64884 34.1952 4.59699 34.2781 4.57107L34.3817 4.50366H34.4179M70.9178 4.09405L71.156 3.5548C70.7209 3.66369 70.1408 3.80368 69.7058 3.9022C69.54 4.26515 69.3276 4.75773 69.136 5.10512L69.3173 5.43178L69.1826 5.68066L69.2551 5.98657L69.1412 6.22509L69.4882 6.6347L70.2289 6.97691H70.9954L70.058 6.14213L70.0372 5.7688L70.0113 5.19327L70.203 4.65403L70.9126 4.09923M35.2622 4.17701L35.2104 4.23404L35.7439 3.81406L35.9614 3.62739L35.8837 3.57036L35.7076 3.72591H35.6817L35.3969 3.96961L35.3762 3.92294H35.3036L35.2052 3.98516H35.2467L35.0602 4.16145L35.2415 4.10442L35.0965 4.19775L35.0602 4.23404L34.9204 4.31182L34.8996 4.36367L34.8478 4.37922L34.7235 4.51403L34.9877 4.40515L35.0706 4.317L35.2674 4.17182M35.4797 3.74147L35.6144 3.68443L35.7232 3.58073L35.6714 3.5911L35.4797 3.74147ZM79.7073 4.65403C79.4017 4.41033 79.0962 4.16664 78.7854 3.93331L78.6766 3.85035L79.179 4.23923L79.5778 4.55033L79.7643 4.70069L79.7073 4.65403ZM34.7909 4.72662L35.2311 4.44144L35.5108 4.13553L34.9825 4.46218L34.796 4.72662M32.947 5.58733L33.1075 5.44733L33.3976 5.19845L33.5789 5.0429C33.3665 5.21919 33.1542 5.40067 32.947 5.58733ZM27.2029 40.3425L26.8559 40.5136L26.0065 39.1084L25.8873 38.0299L25.5766 37.3092L24.8514 37.2366L24.8618 36.6974L24.753 36.0493L24.7686 35.8367L24.8463 36.1633L24.8255 35.6034L24.8048 35.6552L24.7893 35.6189L24.8204 35.4841L24.753 35.396L24.8204 34.7686L24.6028 34.4575L24.3646 34.5975L24.2817 35.7382C24.2869 35.7952 24.2972 35.8574 24.3076 35.9145L24.2713 36.0078L24.1833 35.8937L23.9709 36.1685L23.598 35.2611L23.3028 33.4049L23.3131 32.1657L23.251 31.6887L23.5514 30.3924L23.7793 30.128L24.1574 30.5583L24.1729 30.3095L24.2662 30.6154L24.3231 30.4495L24.1315 29.9776L24.4941 29.6873L24.8877 30.1228L25.0534 30.0554L25.2917 30.4495L25.328 31.2894L25.3642 31.2065L25.6439 32.5027L25.7941 32.4146C25.7371 31.4916 25.6284 30.268 25.6076 29.345L26.483 27.4992L26.5866 27.5458L26.7264 27.3955L26.5814 27.297L26.628 27.1155L26.8455 26.9962L26.6798 26.8096L26.8818 26.5555L26.8248 26.2133L26.9025 25.7726V25.6585L26.9388 25.5289L27.0268 25.7363L26.9077 26.1615L26.9232 26.1718L27.177 25.5081L27.1926 24.7874L27.2392 25.2282L27.5292 24.3519L28.0783 24.0512L27.9747 24.0408L28.1663 23.8852L28.3062 23.6467L28.5807 23.6726L28.5444 23.543L28.6894 22.7653L29.1556 22.1483L29.1815 22.2312L30.3831 21.3964L30.2381 21.6609L30.5541 21.6246L30.3054 21.7853L30.2381 21.7023L29.7098 22.5579L29.8807 22.6356L30.3003 22.0601L30.4246 22.112L31.1445 21.6764L31.1031 21.5209L31.5123 21.3601L31.3828 21.1631L31.4656 20.6861L31.0979 21.4379L30.9736 21.4949L30.9891 21.3498L30.4867 21.272L30.5385 21.2201L30.4349 20.6809H30.3158L30.5489 20.3283L30.3365 20.3491L30.2381 20.1261L30.5333 20.1002L30.782 19.6802C31.5744 19.1513 32.631 18.4513 33.4338 17.9432L33.7239 17.0151L33.3717 17.0618L33.4908 16.761L33.3613 16.7092L32.688 17.1136L32.7916 16.8595L32.9211 16.7144L33.3769 16.5381L33.4028 16.2114L33.0454 16.0248L33.0713 15.7759L32.9004 15.3455L33.1438 14.9878L33.2008 13.2404L33.3562 12.9967L32.5274 14.0285L32.4808 13.9404L31.7246 14.0441L32.0406 13.6241H31.9577L32.4601 12.7582C32.2011 12.4627 31.8541 12.0686 31.6262 11.7523L31.3413 12.0271L30.1604 14.1063L30.1345 14.5522L29.6114 15.6774L28.85 16.3359L28.5133 17.6891L27.9591 18.2439L28.0938 17.1136L28.5237 16.1492C28.2699 15.7448 27.9591 15.1848 27.7727 14.7441L28.0886 14.013L27.9954 13.873C28.4978 13.1886 29.1504 12.2604 29.6787 11.5916L29.8807 11.5138L30.0465 11.2234L29.9429 11.1664L30.0309 11.0783V10.8916L30.1086 11.0575L30.6887 10.8138L31.2274 10.2383L31.072 9.77163L31.3828 10.0361L31.7816 9.65238L31.7971 9.5072L32.0302 9.4035L31.9318 9.56942L31.9939 9.63164L32.0613 9.52275V9.66275L32.284 9.27906L32.2736 9.48127L32.7191 9.17536L33.2888 8.28353L33.4856 8.23168L33.8223 7.84799L33.7394 7.50578L33.5115 7.61985L33.1956 8.05539L32.2736 8.92648L32.5378 8.37686L32.8227 8.06576L32.9004 7.83244L32.2374 8.46501L32.688 7.84799L32.8745 7.71318L32.7657 7.57319L33.1438 7.30357L33.7912 6.3599L34.4076 5.78436L34.6251 5.77399L35.459 5.13623L35.3399 5.02735L34.8219 5.31252L33.9155 6.17842L33.5374 6.4947L33.4338 6.6347L33.1593 6.83173L32.5844 7.45912L32.5223 7.79096L32.1183 8.12798L32.3099 7.99836L32.0716 8.26798L31.7505 8.52723L31.2067 9.12351L31.3051 8.89018L31.6832 8.47538L31.6625 8.34057L31.2533 8.71389L31.1704 8.39242L31.3879 8.12798L31.3362 8.10206L30.984 8.4339L31.2844 8.22131L30.87 8.59982L30.1708 9.42942L30.668 8.7813L30.6887 8.61537L30.9891 8.2939L31.2429 8.00354L31.1601 8.09169L31.2118 8.03465C30.4556 8.91611 29.4508 10.1035 28.7464 11.0264C27.8711 12.3278 26.7679 14.1063 25.9909 15.47C25.3176 16.9062 24.4941 18.8558 23.9347 20.3387C23.4892 21.889 22.9713 23.9786 22.6502 25.56C22.5155 26.6748 22.329 28.1629 22.2513 29.2828L22.2254 30.8591L22.2151 31.2687L22.2824 32.2487L22.3135 32.8449L22.4274 33.6434L22.4482 33.5397C22.3446 32.2072 22.2669 30.4287 22.2772 29.091L22.2876 29.4643C22.3135 30.2317 22.3187 31.2583 22.3808 32.0257L22.3912 32.3627C22.5 33.0212 22.6139 33.9027 22.7538 34.556L22.8366 35.3026L23.0801 35.9611L23.3753 36.4122L23.7068 36.967C24.8514 38.5484 24.8722 38.5796 25.7164 39.4558L25.9547 40.0988L26.5607 40.8765L26.6332 40.8298L27.1563 41.1669L27.0113 40.861L27.0838 40.5965H27.2288M35.1586 5.82065L35.6869 5.74288L35.8682 5.29178L35.7232 5.16734L35.3451 5.50955L35.1845 5.71177L35.1586 5.82584M32.4135 6.65544L33.2733 6.00731L33.4546 5.81547L33.351 5.88288L33.4649 5.68584L33.8275 5.44215L33.8896 5.36437L34.0606 5.2503L33.8948 5.17771L33.6203 5.37993L33.5012 5.54585L33.1438 5.83621L33.3044 5.63399L33.035 5.85695L32.4135 6.65026M34.8841 9.63164H35.1016L35.3295 9.16499L34.9929 9.17536L35.2208 8.96277C35.0809 8.70871 34.8686 8.38724 34.7494 8.1228L34.9359 8.0865L35.112 7.82725L35.1379 7.66133L35.4849 7.54208L35.573 7.23098L35.1949 7.48504L35.2156 7.32431L35.6403 7.10135L35.4331 6.80581L35.1638 6.90951L35.5419 6.671C35.5264 6.41174 35.4746 6.06435 35.4849 5.8051L35.2726 5.86213L34.967 6.05917L34.7857 6.09546V6.03843L35.1483 5.68584L35.4694 5.23475L34.8737 5.43696L35.1483 5.20364L34.7546 5.29697L33.5633 6.22509L33.2059 6.60878L33.2422 6.85247L33.0557 6.79025L32.8278 7.19468L33.2267 7.53689L33.3562 7.44356V7.568L33.4701 7.31394L33.8068 7.41245L33.9259 7.14802L33.9984 7.32949L33.8275 7.55763L33.8534 7.8791L33.439 8.20576L33.7187 8.07095L33.7446 8.51686L33.5374 8.97314L32.631 9.73534L32.5637 10.0361L31.9111 10.1087L31.5485 10.4561L31.4501 10.7672L31.9681 10.6946L32.082 10.5338L32.227 11.1664L31.9991 11.3064L32.1338 11.4723L32.0509 11.5605L32.2633 11.6953L32.2529 11.9027L32.7087 12.1723L32.8486 11.8508L32.6621 11.4516L32.7605 11.0938L32.8745 11.2545L32.947 11.0783L33.1438 11.7679L33.2163 11.5553L33.2733 11.5916L33.4597 11.1768L33.4338 11.4049L33.6566 10.9538L33.7187 10.4301L33.5219 10.4872L33.698 10.0879L33.5944 10.0464L33.7239 9.77163L33.8586 9.80793L34.0243 9.48127L34.2056 9.45535V9.74052L34.4853 9.62127L34.1538 9.89607L34.2263 10.4094L34.5682 9.83904L34.998 9.74571L34.9152 9.62645M33.1231 5.69103L33.4546 5.42141L33.6669 5.21401L33.3872 5.40067L33.1283 5.69621M73.031 5.65992L73.3159 5.57696L72.9326 5.37993L73.0258 5.65992M31.3362 7.61467L31.6884 7.28801L31.9629 6.81099L32.3151 6.46878L33.1438 5.63918L33.294 5.44215L33.0609 5.64436L32.3099 6.3599L32.2944 6.34953L32.7709 5.88806L32.9314 5.69103L32.6517 5.96584L32.6776 5.91917L32.5171 6.0488L32.6984 5.88806L32.9263 5.65473L32.7035 5.84658L32.6725 5.86732L33.0868 5.49918L32.7709 5.7688C32.486 6.02287 32.2063 6.28212 31.9318 6.54656L31.9422 6.53619L31.8645 6.60878C31.7246 6.74359 31.5796 6.88358 31.4397 7.02358L31.3569 7.1532L31.1134 7.35023L31.0202 7.44356L30.6576 7.84799L30.3054 8.24724C30.5126 8.0865 30.7768 7.85836 30.9891 7.71318L30.8648 7.84281L30.8493 7.93095L30.7716 7.99836L30.7923 8.11243L30.9943 7.95688L31.1963 7.72874L30.9736 7.89466L31.2481 7.58874L31.2118 7.6717L31.3413 7.59911M61.4134 7.10135L61.5325 6.91469L61.0871 6.97691L61.403 7.10135H61.4134ZM71.415 7.23616L72.0521 7.55245L71.503 7.13246L71.415 7.23616ZM61.0094 7.31912L61.3305 7.14283L61.0819 7.16357L61.0094 7.31394M60.6676 7.3606L60.7711 7.26727H60.6313L60.6676 7.3606ZM60.2843 7.49023L60.4293 7.38653L60.1755 7.44356L60.2843 7.49023ZM59.9424 7.63541L60.16 7.64578L60.1341 7.45393L59.9373 7.63541M31.0409 8.29909L31.3672 8.07095L31.6366 7.52134L31.3621 7.79614L31.1186 7.97243L31.0461 8.08132L31.129 8.00873L31.0461 8.13317L31.1134 8.06058L31.0357 8.2939M59.5695 7.84799L59.958 7.708L59.7197 7.65615L59.5695 7.84799ZM69.2189 8.09687L69.5555 7.8791L69.1308 7.68726L69.2189 8.10206M58.9739 8.2265C58.9739 8.13835 58.9739 8.05021 58.9739 7.96725L58.7667 8.1902L58.979 8.23168M58.9998 8.35094L59.4866 8.2265L59.3779 8.03984L59.2432 8.23687L59.1655 8.20057H59.0775L59.0049 8.35094M58.5129 8.51168L58.6994 8.41316L58.5233 8.42353L58.5129 8.50649M59.15 8.5739L59.2484 8.42872L59.1293 8.41316L59.15 8.5739ZM58.9894 8.745L59.0982 8.47538L58.8962 8.67241L58.9894 8.745ZM33.0713 8.96277L33.4856 8.48057L32.8693 8.87981L33.0713 8.96277ZM30.611 11.2442L30.8648 11.0523L30.7198 10.9123L30.9373 10.2953L30.7871 10.1761L31.0513 9.76126L30.3469 10.5649L30.1863 10.8086L29.8237 11.156L30.0724 11.0679L29.8859 11.4464L30.6058 10.8086V11.2494M29.7305 12.0323L30.3262 11.5242L29.9636 11.6693L29.803 11.8612L29.7305 12.0323ZM30.1086 12.3693L30.4608 11.8664L30.2122 12.0841L30.1086 12.3693ZM60.9887 13.2767L61.0249 13.1574H60.9628L60.9887 13.2767ZM61.7501 14.5004L62.2473 14.153L61.6361 14.1685L61.7501 14.5004ZM60.595 14.8166L60.6624 14.49L60.2843 15.0603L60.6002 14.8166M57.8551 16.3359L58.0882 15.947L57.7878 15.5322L57.4977 15.5477L57.4097 15.7499L57.8551 16.3359ZM32.5741 20.8676L32.8278 20.7742L32.9781 19.9394L32.8693 19.2758L32.3565 19.3587L32.3928 19.0528L32.2944 18.9232L32.5896 18.4773L32.7968 18.1402L31.3051 19.8254L31.1445 20.3335L32.1545 20.5668L31.9577 20.8416L32.5482 20.515L32.5689 20.8676M29.8807 20.9764H29.9273L29.8755 20.7172V20.9764M29.9791 21.2564L30.3262 21.0387L29.9222 20.9816L29.974 21.2564M53.6131 22.9727L53.5199 23.1853L53.6131 22.9727ZM92.1536 27.5303C92.0863 26.8718 91.9982 26.2237 91.8947 25.5807L91.9775 26.1148L91.9931 26.2911L91.9464 25.9644L92.0656 27.0325L92.0397 26.9496L91.9775 27.6599V28.3184L92.0034 28.6606L92.0138 28.3962L92.107 29.4539V28.5414L92.0656 28.1888L92.019 28.0177L92.1226 27.5666L92.1899 28.251L92.1692 27.7844L92.1277 27.3851V27.2866L92.1588 27.5355M59.2691 26.2496L59.3986 25.7415L59.3623 25.6118L59.3157 25.5963L58.1348 25.6326L58.8806 26.3585L59.2691 26.2444M62.8585 27.1985L64.0342 27.3436L62.9569 26.9703L62.8585 27.1933M67.2714 27.4059L67.463 26.9859L66.5359 27.2451L67.2714 27.4059ZM92.164 28.2977L92.1536 28.0073L92.0863 27.8518L92.1329 28.5414L92.1433 28.1888L92.164 28.2977ZM91.2679 34.2604L91.4233 33.322V32.6583L91.2576 33.4308L91.2679 34.2604ZM26.2033 35.3078L26.4415 35.1523L25.7112 34.3486L25.7009 34.416L24.9084 33.6953L24.52 33.8249L24.3335 34.3123L24.7789 34.0375L25.8252 35.033L25.732 35.3078H26.1981M89.8021 35.8211L89.9213 35.4737L89.9057 35.1886L89.885 35.2923L89.538 35.6137V36.0752L89.6157 36.1478L89.6571 36.0389L89.8021 35.8263M27.2185 36.0907L27.8193 35.987L27.1097 35.3078L26.6176 35.4219L26.9232 35.9663L26.4933 36.07L26.8611 36.1685H27.0372L27.1874 36.4485L27.2185 36.0856M90.9054 38.3462L90.9779 38.1544L90.9313 38.2373L90.8795 37.9936L90.807 38.1388L90.838 37.7551L90.9365 37.2626L90.9882 37.2055L91.1954 35.9922L91.1022 35.9248L91.0141 36.0752L90.8173 37.2055L90.8018 37.0241L90.693 37.6877L90.7344 37.9107L90.6775 38.3307H90.7552L90.75 38.564L90.8329 38.227V38.8181L90.9054 38.3462ZM28.1508 36.1996L28.4978 36.0907L28.4512 36.0182L28.156 36.1996M25.9754 36.3656L26.1515 36.2878L26.0842 36.127L25.7216 36.1011L25.9806 36.3604M90.5842 38.4085L90.5273 39.0306L90.6516 38.4033L90.5842 38.4136M90.7293 39.238L90.7914 38.9788L90.7603 38.8077L90.6723 39.1395L90.7396 38.9944L90.7241 39.238M90.7655 39.3832L90.8898 39.0203L90.838 38.844L90.7655 39.3832ZM90.3201 40.4876L90.605 39.5751V39.181L90.548 39.1966L90.5066 39.7617L90.3304 40.3165V40.4825M90.6568 39.8084L90.6257 39.9847L90.7707 39.3729L90.7344 39.3003L90.605 40.0106L90.6568 39.8084ZM89.6519 40.7728L90.1906 39.8032L90.2787 39.4247V39.3106L89.6519 40.7728ZM90.3978 40.2854L90.693 39.3988L90.6723 39.4351L90.3978 40.2854ZM90.2787 41.4572L90.5117 40.695V40.6587L90.5428 40.5654L90.5791 40.358L90.605 40.1039L90.5169 40.4617L90.2372 40.9232L90.3149 40.5913L89.942 41.4365L90.1543 41.058L90.1284 41.2135L90.1802 41.0269L90.0456 41.6076L90.0818 41.7891L90.1336 41.7113L90.3046 41.2135L90.1802 41.6906L90.2735 41.4106V41.452M82.4266 41.3224L82.727 41.1047V40.2284L82.5716 40.1558L82.4939 40.415L82.4369 40.5032L82.2971 41.001L82.2505 41.4209L82.4317 41.3276M89.2945 42.2868L89.4448 42.1676L89.4344 41.3898C89.0304 41.9965 88.5021 42.8105 88.0722 43.3964L87.8961 43.8683L87.7873 43.5468L87.6319 43.7023L87.4351 44.169L87.3833 44.4231L87.3056 44.5631L87.1865 44.9571L87.2849 44.8379L87.0104 45.6364H87.2124L87.0933 45.9267L87.4248 45.8749L87.316 46.1808L87.5957 45.9215L87.5284 46.1237C87.9013 45.429 88.4192 44.5216 88.7663 43.8164L88.787 43.5883L88.8802 43.3757L89.0615 42.7224L89.2583 42.5253L89.2945 42.292M85.7673 46.9015L86.2646 45.9112L86.1869 45.6001L86.4303 44.9001L86.3681 44.7342L86.5339 44.4075C86.4044 43.7335 86.2335 42.8364 86.0522 42.1728L85.7414 42.038C85.8502 44.6875 85.8554 44.9053 85.5705 46.943L85.6793 46.7304L85.7621 46.9067M89.1236 44.8327L89.3567 44.3557L89.4551 44.0549L89.5898 43.7283L89.6778 43.552L89.7711 43.2979L89.5742 43.6609L89.2117 44.5475L89.1288 44.8327M89.0045 44.2934L89.1599 44.0757L88.9527 43.9097L88.3674 44.9882L87.922 45.9008L87.8702 46.1341L87.5335 46.7719L87.6216 46.7978L88.2535 45.5638L87.9841 46.2741L87.9375 46.466L88.0877 46.2741L88.1913 45.963L88.3053 45.766L88.4555 45.2475L88.7921 44.8793L88.7818 44.7601L88.6264 44.8793L88.7766 44.2831L89.0149 44.2934M88.5642 46.6474C88.7973 46.1912 89.0252 45.7349 89.2376 45.2682L89.2997 45.1282L89.1599 45.3978L88.9475 45.8126L89.0667 45.5171L89.3412 44.8949L89.4292 44.6357L89.1858 44.9986L89.1961 45.0556L89.0874 45.3097L89.1288 45.3408L89.0459 45.5223L88.9734 45.5482L88.7144 46.1549L88.9268 45.7712L88.7507 46.1704L88.4814 46.7926L88.1033 47.4926L87.8495 47.9333L87.8806 47.8918C88.1136 47.4822 88.3415 47.0674 88.5591 46.6422M86.4614 45.7504L86.5701 45.5327L86.5909 45.0816L86.5546 45.1904L86.4096 45.2941L86.4666 45.3356L86.4148 45.6519L86.4614 45.7452M88.6937 45.8489L88.673 46.0823L88.8439 45.5793L88.6782 45.766L88.6109 45.9837L88.6937 45.8438M87.7925 46.86L88.0515 46.4245L87.8495 46.663L87.7925 46.86ZM86.161 47.8296L86.3526 48.0681L86.4821 47.6222L86.5339 47.28C86.3267 47.1711 86.0626 47.0156 85.8502 46.917L85.7155 47.0311L85.6586 47.363L85.5964 47.4718L86.0833 47.8867L86.1506 47.8244M86.4769 48.0733L86.7307 48.0992L86.8239 47.8037L86.6945 47.9748L86.6789 47.8296L86.4769 48.0733ZM86.9949 48.1355L87.4144 47.8659L86.9741 47.9074L86.9327 48.1459L86.9949 48.1355ZM86.9741 48.5555L87.5284 47.8815L87.3419 47.9852L87.2487 48.1148L87.0311 48.3429L86.8136 48.6851L86.9741 48.5503M86.8498 49.2451H86.9016L87.0259 49.0377L86.8498 49.2451Z" fill="#939393"/>
<path d="M11.0167 80.9618H7.15285V90.7822H4.69259V80.9618H0.844238V78.7374H11.0167V80.9618Z" fill="#939393"/>
<path d="M20.0239 90.7771L16.9058 86.5254H15.0982V90.7771H12.6379V78.7323H17.1596C18.4338 78.7323 19.48 79.0901 20.288 79.8004C21.096 80.5108 21.5 81.4544 21.5 82.6211C21.5 83.3884 21.3136 84.0677 20.9355 84.6588C20.5574 85.2499 20.0446 85.7061 19.3868 86.038L22.7949 90.7823H20.0239V90.7771ZM15.1034 84.3528H17.1648C17.7345 84.3528 18.1852 84.1921 18.5063 83.8758C18.8274 83.5595 18.988 83.1396 18.988 82.6159C18.988 82.0922 18.8222 81.6929 18.4959 81.3767C18.1696 81.0604 17.7242 80.8996 17.1648 80.8996H15.1034V84.3477V84.3528Z" fill="#939393"/>
<path d="M32.3975 80.9618H26.7623V83.4091H30.9007V85.509H26.7623V88.5578H32.6151V90.7822H24.302V78.7374H32.3975V80.9618Z" fill="#939393"/>
<path d="M42.8446 80.9618H37.2093V83.4091H41.3477V85.509H37.2093V88.5578H43.0621V90.7822H34.749V78.7374H42.8446V80.9618Z" fill="#939393"/>
<path d="M51.3649 79.1367C52.0382 79.5515 52.5665 80.1063 52.9394 80.7959L51.2613 82.0921C50.6397 81.1692 49.8784 80.7025 48.9616 80.7025C48.5369 80.7025 48.1795 80.8011 47.8946 81.0033C47.6098 81.2055 47.4647 81.4907 47.4647 81.8692C47.4647 82.1854 47.5735 82.4395 47.7859 82.6262C47.9982 82.8128 48.3608 83.0254 48.8684 83.2536L50.2357 83.855C51.2457 84.3061 51.9916 84.7987 52.4785 85.3431C52.9653 85.8824 53.2088 86.5616 53.2088 87.3808C53.2088 88.4749 52.8151 89.3511 52.0227 90.0096C51.2302 90.6681 50.2254 90.9948 48.9979 90.9948C47.9775 90.9948 47.0607 90.7563 46.2527 90.2741C45.4447 89.7919 44.8077 89.1437 44.3467 88.3297L46.0404 87.0542C46.8794 88.2208 47.8635 88.8067 48.9927 88.8067C49.5262 88.8067 49.9457 88.6875 50.2513 88.4489C50.5569 88.2104 50.7071 87.8838 50.7071 87.4742C50.7071 87.2305 50.6397 87.0127 50.4947 86.826C50.3549 86.6394 50.1943 86.4942 50.0182 86.3957C49.8421 86.2972 49.5572 86.1572 49.1688 85.9757L47.8739 85.3898C46.9364 84.9646 46.2165 84.4772 45.7141 83.9276C45.2117 83.378 44.9579 82.7091 44.9579 81.921C44.9579 80.8996 45.336 80.0751 46.087 79.4478C46.838 78.8204 47.7962 78.5093 48.9512 78.5093C49.8732 78.5093 50.676 78.7167 51.3493 79.1315L51.3649 79.1367Z" fill="#939393"/>
<path d="M57.6736 88.0963C57.9947 88.423 58.1553 88.8274 58.1553 89.2993C58.1553 89.7711 57.9947 90.1911 57.6787 90.5126C57.3628 90.834 56.964 90.9948 56.4771 90.9948C55.9902 90.9948 55.5862 90.834 55.2547 90.5126C54.9284 90.1911 54.7627 89.7866 54.7627 89.2993C54.7627 88.8119 54.9284 88.423 55.2547 88.0963C55.5811 87.7697 55.9902 87.6038 56.4771 87.6038C56.964 87.6038 57.3473 87.7697 57.6736 88.0963Z" fill="#939393"/>
<path d="M68.4002 80.9618H62.7649V83.4091H66.9033V85.509H62.7649V88.5578H68.6178V90.7822H60.3047V78.7374H68.4002V80.9618Z" fill="#939393"/>
<path d="M77.8423 89.2112H72.9218L72.2485 90.7823H69.6069L74.9832 78.5145H75.8016L81.1624 90.7823H78.5208L77.8475 89.2112H77.8423ZM75.3821 83.1344L73.7971 87.1839H76.9722L75.3872 83.1344H75.3821Z" fill="#939393"/>
<path d="M90.185 90.7771L87.067 86.5254H85.2593V90.7771H82.7991V78.7323H87.3208C88.5949 78.7323 89.6412 79.0901 90.4492 79.8004C91.2572 80.5108 91.6612 81.4544 91.6612 82.6211C91.6612 83.3884 91.4747 84.0677 91.0966 84.6588C90.7185 85.2499 90.2057 85.7061 89.5479 86.038L92.956 90.7823H90.185V90.7771ZM85.2645 84.3528H87.3259C87.8957 84.3528 88.3463 84.1921 88.6674 83.8758C88.9886 83.5595 89.1491 83.1396 89.1491 82.6159C89.1491 82.0922 88.9834 81.6929 88.6571 81.3767C88.3308 81.0604 87.8853 80.8996 87.3259 80.8996H85.2645V84.3477V84.3528Z" fill="#939393"/>
<path d="M103.056 80.9618H99.1921V90.7822H96.7319V80.9618H92.8835V78.7374H103.056V80.9618Z" fill="#939393"/>
<path d="M114.922 90.7771H112.462V85.5765H107.137V90.7771H104.677V78.7323H107.137V83.3521H112.462V78.7323H114.922V90.7771Z" fill="#939393"/>
<path d="M0 72.6035C0 72.6035 25.3795 71.9139 45.2687 71.1932C53.2347 70.908 58.3572 70.1821 58.3572 70.1821C58.3572 70.1821 108.945 73.6405 116.538 73.6405C124.131 73.6405 0 72.6035 0 72.6035Z" fill="#939393"/>
</g>
<defs>
<clipPath id="clip0_1_7270">
<rect width="117" height="91" fill="white"/>
</clipPath>
</defs>
</svg>
