<svg width="182" height="40" viewBox="0 0 182 40" fill="none" xmlns="http://www.w3.org/2000/svg">
<g clip-path="url(#clip0_1_7386)">
<path d="M57.1213 34.8679H52.7191C52.0505 34.8679 51.4712 34.6305 50.9838 34.1508C50.3713 33.5689 50.0651 32.7216 50.0651 31.6115C50.0651 30.5014 50.305 29.6031 50.7822 29.0008C51.2415 28.4368 51.8846 28.1536 52.7166 28.1536H55.4421V33.6761H57.1188V34.8653L57.1213 34.8679ZM54.2095 33.6786V29.2611H52.76C52.2521 29.2611 51.877 29.5444 51.6269 30.1084C51.4355 30.5295 51.3411 31.0322 51.3411 31.6141C51.3411 32.1296 51.4508 32.5813 51.6703 32.9641C51.928 33.4413 52.2904 33.6812 52.76 33.6812H54.2095V33.6786Z" fill="#939393"/>
<path d="M59.0991 33.6787H56.6901V34.8705H59.0991V33.6787Z" fill="#939393"/>
<path d="M59.5585 33.6787H57.1494V34.8705H59.5585V33.6787Z" fill="#939393"/>
<path d="M68.3067 33.6786H75.7611V34.8679H59.2012V33.6786H61.5516V28.2301H62.7408V33.625M62.8556 33.6786H66.1554H62.8556ZM64.2516 25.548H65.4842V26.8801H64.2516V25.548Z" fill="#939393"/>
<path d="M77.0652 28.1561V31.9714C77.0652 33.1095 76.5114 33.6786 75.4012 33.6786V34.8679C76.2995 34.8679 77.009 34.6152 77.5245 34.1074C78.04 33.5995 78.2978 32.9079 78.2978 32.0275V28.1536H77.0652V28.1561Z" fill="#939393"/>
<path d="M78.1982 36.1158H76.9784V37.4505H78.1982V36.1158Z" fill="#939393"/>
<path d="M82.6413 34.8679C81.7328 34.8679 81.0157 34.6153 80.49 34.1074C79.9643 33.5996 79.7014 32.908 79.7014 32.0275V25.5302H80.934L80.9187 31.9688C80.9187 33.107 81.4929 33.6761 82.6388 33.6761V34.8654L82.6413 34.8679Z" fill="#939393"/>
<path d="M90.0752 33.6786H92.1526V32.1398C92.1526 31.4712 91.9127 30.8919 91.4354 30.4044C90.851 29.792 90.0063 29.4857 88.8962 29.4857C87.7861 29.4857 86.8878 29.7231 86.2855 30.2028C85.7215 30.6622 85.4408 31.3078 85.4408 32.1372V33.6761H90.0752V33.6786ZM86.5458 32.1832C86.5458 31.6753 86.8291 31.2976 87.3931 31.0501C87.8142 30.8587 88.3143 30.7643 88.8988 30.7643C89.4143 30.7643 89.8634 30.874 90.2462 31.0935C90.7234 31.3512 90.9633 31.7136 90.9633 32.1832V33.6302H86.5458V32.1832Z" fill="#939393"/>
<path d="M90.2642 25.5327H89.0443V26.8649H90.2642V25.5327Z" fill="#939393"/>
<path d="M88.3271 25.5327H87.1226V26.8649H88.3271V25.5327Z" fill="#939393"/>
<path d="M55.3937 25.5327H54.1738V26.8649H55.3937V25.5327Z" fill="#939393"/>
<path d="M53.4566 25.5327H52.2521V26.8649H53.4566V25.5327Z" fill="#939393"/>
<path d="M92.1526 33.6787V34.8526H90.9634V34.8654H90.208C90.2361 34.8654 90.2641 34.8679 90.2922 34.8679H95.044V33.6787H92.1552H92.1526Z" fill="#939393"/>
<path d="M90.9633 34.8526H92.1526V33.6787H85.4408V34.8654H87.1175C87.6355 34.8577 88.1536 34.7684 88.6691 34.5974C89.1693 34.771 89.6822 34.8577 90.2079 34.8654H90.9633V34.8526Z" fill="#939393"/>
<path d="M87.1176 34.8654H90.208C89.6823 34.8577 89.1694 34.7684 88.6717 34.5974C88.1537 34.7709 87.6356 34.8577 87.1201 34.8654" fill="#939393"/>
<path d="M85.4434 33.6787H82.2841V34.8679H87.0359C87.0639 34.8679 87.092 34.8679 87.1175 34.8654H85.4409V33.6787H85.4434Z" fill="#939393"/>
<path d="M97.5807 32.0301C97.5807 32.9106 97.3128 33.6021 96.7769 34.11C96.241 34.6153 95.5213 34.8705 94.6102 34.8705V33.6813C95.7663 33.6813 96.3456 33.1122 96.3456 31.974V25.5353H97.5782V32.0327L97.5807 32.0301Z" fill="#939393"/>
<path d="M100.411 25.5327H99.1782V34.8679H100.411V25.5327Z" fill="#939393"/>
<path d="M106.214 33.6787H111.42V31.2415C111.42 29.9043 111.798 29.0136 112.553 28.5747C113.041 28.2965 113.883 28.1587 115.077 28.1587H115.307V33.6812H119.114V34.8704H114.09V29.4781C113.64 29.4781 113.314 29.575 113.115 29.7639C112.808 30.0599 112.655 30.6443 112.655 31.5146V34.8704H106.092M107.62 36.1056H108.853V37.4531H107.62V36.1056ZM109.486 36.1056H110.718V37.4531H109.486V36.1056ZM103.346 28.2123H104.578V31.9765C104.578 33.1147 105.158 33.6838 106.314 33.6838V34.873C105.405 34.873 104.683 34.6203 104.147 34.1125C103.611 33.6047 103.343 32.9131 103.343 32.0326V28.2123H103.346Z" fill="#939393"/>
<path d="M121.077 33.6787H118.668V34.8705H121.077V33.6787Z" fill="#939393"/>
<path d="M121.536 33.6787H119.127V34.8705H121.536V33.6787Z" fill="#939393"/>
<path d="M120.194 34.8679V33.6786H122.544V28.2301H123.736V33.6786H125.9V28.1561H127.12V33.6786H129.442V28.1561H130.675V33.6786H136.578V34.8679H120.194Z" fill="#939393"/>
<path d="M133.847 34.8679V33.6786H139.855V31.5426C139.855 30.5014 139.285 29.9782 138.147 29.9782H134.391V27.8703C134.391 27.1736 134.636 26.6071 135.123 26.1783C135.611 25.7572 136.261 25.548 137.073 25.548H139.612V26.7372H137.073C136.624 26.7372 136.261 26.8469 135.983 27.069C135.705 27.2782 135.567 27.5564 135.567 27.9009V28.7609H138.15C139.048 28.7609 139.747 28.9957 140.242 29.4627C140.73 29.9323 140.975 30.5907 140.975 31.4431V33.6786H145.602V34.8679H133.847Z" fill="#939393"/>
<path d="M148.45 32.0301C148.45 32.9106 148.182 33.6021 147.646 34.11C147.11 34.6153 146.39 34.8705 145.479 34.8705V33.6813C146.638 33.6813 147.214 33.1122 147.214 31.974V25.5353H148.447V32.0327L148.45 32.0301Z" fill="#939393"/>
<path d="M150.772 25.5327H149.539V32.2445H150.772V25.5327Z" fill="#939393"/>
<path d="M62.4575 33.6786H64.1367V28.1561H66.8623C67.6942 28.1561 68.3399 28.4394 68.7992 29.0034C69.2765 29.6057 69.5163 30.4759 69.5163 31.6141C69.5163 32.7523 69.2101 33.5715 68.5976 34.1533C68.1102 34.6331 67.5309 34.8704 66.8623 34.8704H62.4601V33.6812L62.4575 33.6786ZM66.8189 33.6786C67.2884 33.6786 67.6508 33.4388 67.9086 32.9615C68.1281 32.5787 68.2378 32.1296 68.2378 31.6115C68.2378 31.0297 68.1434 30.5269 67.952 30.1059C67.7019 29.5419 67.3267 29.2586 66.8189 29.2586H65.3693V33.6761H66.8189V33.6786Z" fill="#939393"/>
<path d="M149.774 33.5485C149.728 33.5485 149.687 33.546 149.647 33.5409C149.667 33.4643 149.71 33.398 149.782 33.3444C149.881 33.2678 150.009 33.227 150.17 33.227H151.073V32.8033H150.17C149.881 32.8033 149.649 32.8774 149.476 33.0279C149.376 33.1172 149.299 33.2346 149.256 33.3622C149.21 33.4924 149.205 33.6302 149.203 33.768C149.203 33.819 149.231 33.8701 149.277 33.8905C149.417 33.9517 149.583 33.9824 149.777 33.9824H150.695V34.2554C150.695 34.383 150.644 34.5106 150.542 34.5897C150.445 34.6638 150.315 34.702 150.16 34.702H149.256V35.1257H150.16C150.448 35.1257 150.68 35.0517 150.854 34.9011C151.027 34.748 151.114 34.5464 151.114 34.2988V33.5485H149.777H149.774Z" fill="#939393"/>
<path d="M51.119 17.0856C50.92 16.8814 50.823 16.6007 50.823 16.2383V5.17798H59.0226V6.91844H52.737V10.5857H58.4994V12.3261H52.8544V15.6488H59.0226V17.3893H51.9561C51.5963 17.3893 51.3155 17.2872 51.119 17.083V17.0856Z" fill="#939393"/>
<path d="M63.3303 17.0958C63.1313 16.8993 63.0343 16.6186 63.0343 16.2587V5.17798H64.9509V15.6156H70.9557V17.3918H64.1674C63.8076 17.3918 63.5268 17.2923 63.3303 17.0958Z" fill="#939393"/>
<path d="M77.1367 11.1624L72.9846 5.17798H75.0568L78.4943 10.0982L81.9319 5.17798H83.9862L79.8341 11.1624L84.1623 17.3918H82.0901L78.4969 12.2087L74.8858 17.3918H72.8136L77.1392 11.1624H77.1367Z" fill="#939393"/>
<path d="M87.1302 5.17798H88.9753V17.3918H87.1302V5.17798Z" fill="#939393"/>
<path d="M99.4131 5.17798H100.704V10.6571H107.439V5.17798H108.73V17.3918H107.439V11.8081H100.704V17.3918H99.4131V5.17798Z" fill="#939393"/>
<path d="M114.87 16.9912C114.253 16.6313 113.773 16.1184 113.431 15.4548C113.089 14.7913 112.916 14.0232 112.916 13.1504V9.41682C112.916 8.54404 113.087 7.77589 113.431 7.11492C113.773 6.4514 114.253 5.941 114.87 5.57862C115.488 5.21879 116.203 5.0376 117.017 5.0376H118.867C119.681 5.0376 120.396 5.21879 121.013 5.57862C121.631 5.93845 122.11 6.4514 122.452 7.11492C122.794 7.77844 122.968 8.54659 122.968 9.41682V13.1504C122.968 14.0232 122.797 14.7888 122.452 15.4446C122.11 16.1031 121.626 16.6135 121.005 16.9809C120.383 17.3484 119.671 17.5296 118.867 17.5296H116.999C116.195 17.5296 115.486 17.3484 114.87 16.9886V16.9912ZM118.831 16.3812C119.681 16.3812 120.367 16.0852 120.891 15.4906C121.414 14.8985 121.677 14.1176 121.677 13.1529V9.41938C121.677 8.45472 121.414 7.67381 120.891 7.08175C120.367 6.48968 119.681 6.1911 118.831 6.1911H117.052C116.203 6.1911 115.516 6.48713 114.993 7.08175C114.47 7.67381 114.207 8.45472 114.207 9.41938V13.1529C114.207 14.1176 114.465 14.8985 114.983 15.4906C115.501 16.0826 116.185 16.3812 117.032 16.3812H118.829H118.831Z" fill="#939393"/>
<path d="M127.449 17.0958C127.25 16.8993 127.153 16.6186 127.153 16.2587V5.17798H128.445V16.2409H135.075V17.3918H128.286C127.926 17.3918 127.646 17.2923 127.449 17.0958Z" fill="#939393"/>
<path d="M138.966 17.0958C138.767 16.8993 138.67 16.6186 138.67 16.2587V5.17798H143.731C144.591 5.17798 145.346 5.34386 146 5.67562C146.65 6.00738 147.156 6.4795 147.518 7.08942C147.878 7.69935 148.059 8.40115 148.059 9.19227V13.0305C148.059 14.4621 147.699 15.5467 146.977 16.2843C146.255 17.0218 145.198 17.3918 143.802 17.3918H139.806C139.446 17.3918 139.165 17.2923 138.969 17.0958H138.966ZM143.764 16.2409C144.752 16.2409 145.5 15.9704 146.007 15.4293C146.513 14.8883 146.765 14.0896 146.765 13.0305V9.19227C146.765 8.34245 146.482 7.65342 145.918 7.12515C145.354 6.59689 144.611 6.33148 143.693 6.33148H139.959V16.2409H143.762H143.764Z" fill="#939393"/>
<path d="M152.349 5.17798H153.64V17.3918H152.349V5.17798Z" fill="#939393"/>
<path d="M158.349 5.17798H159.571L166.342 15.3502V5.17798H167.597V17.3918H166.375L159.604 7.28848V17.3918H158.349V5.17798Z" fill="#939393"/>
<path d="M173.676 16.9809C173.076 16.6135 172.612 16.0954 172.28 15.4191C171.948 14.7454 171.783 13.9721 171.783 13.0994V9.47042C171.783 8.59763 171.954 7.82693 172.298 7.15831C172.64 6.48968 173.12 5.96908 173.737 5.59649C174.355 5.22389 175.064 5.0376 175.866 5.0376H177.716C178.484 5.0376 179.16 5.20093 179.75 5.52503C180.337 5.85168 180.794 6.31104 181.12 6.90311C181.447 7.49517 181.608 8.17655 181.608 8.9447H180.352C180.352 8.11786 180.11 7.45179 179.627 6.94649C179.145 6.4412 178.507 6.18855 177.716 6.18855H175.866C175.029 6.18855 174.352 6.48713 173.842 7.08685C173.329 7.68657 173.074 8.48024 173.074 9.46786V13.0968C173.074 14.0844 173.321 14.8806 173.817 15.4778C174.312 16.0775 174.965 16.3761 175.779 16.3761H177.662C178.489 16.3761 179.158 16.0903 179.668 15.5212C180.181 14.9521 180.436 14.2018 180.436 13.2703V12.224H177.052V11.0909H181.695V13.2729C181.695 14.1099 181.529 14.8526 181.197 15.4982C180.865 16.1439 180.393 16.6441 179.783 16.9988C179.173 17.3535 178.466 17.5296 177.662 17.5296H175.779C174.975 17.5296 174.276 17.3459 173.676 16.9809Z" fill="#939393"/>
<path d="M31.854 16.1593V26.9338H30.6725V16.1593H28.2812V29.3251H30.6725H31.854H34.2453V16.1593H31.854Z" fill="#939393"/>
<path d="M38.0377 9.27393H35.6465V36.2077H38.0377V9.27393Z" fill="#939393"/>
<path d="M27.0972 15.4574H34.2453V13.0687H24.7085V32.4154H34.2453V30.0242H27.0972V15.4574Z" fill="#939393"/>
<path d="M23.3049 13.0687H13.7681V15.4574H20.9162V30.0242H13.7681V32.4154H23.3049V13.0687Z" fill="#939393"/>
<path d="M12.3671 13.0687H9.97583V36.2077H34.2453V33.8165H12.3671V13.0687Z" fill="#939393"/>
<path d="M8.57481 11.6651H34.2454V9.27393H6.18359V40H38.0376V37.6087H8.57481V11.6651Z" fill="#939393"/>
<path d="M2.39122 37.6088H0V40H2.39122V37.6088Z" fill="#939393"/>
<path d="M5.4818 37.6088H3.09058V40H5.4818V37.6088Z" fill="#939393"/>
<path d="M5.48169 9.27393H0V11.6651H3.09047V12.3669H0V14.7582H3.09047V15.4574H0V21.6409H3.09047V34.5183H2.39122V23.042H0V36.9095H5.48169V19.2497H2.39122V17.8486H5.48169V9.27393Z" fill="#939393"/>
<path d="M27.0971 3.09047H2.39122V2.39122H27.0971V0H0V5.48169H24.7084V6.18349H0V8.57471H27.0971V3.09047Z" fill="#939393"/>
<path d="M34.2452 2.39122H35.6463V8.57471H38.0375V0H31.854V8.57471H34.2452V2.39122Z" fill="#939393"/>
<path d="M30.6725 0H28.2812V8.57471H30.6725V0Z" fill="#939393"/>
</g>
<defs>
<clipPath id="clip0_1_7386">
<rect width="181.695" height="40" fill="white"/>
</clipPath>
</defs>
</svg>
