<svg width="167" height="45" viewBox="0 0 167 45" fill="none" xmlns="http://www.w3.org/2000/svg">
<path d="M39.5217 9.84199C40.272 8.99945 39.677 7.68298 38.5644 7.68298H21.411C19.5999 7.68298 17.8406 8.47286 16.6246 9.84199L8.55239 18.9519C7.80209 19.7945 8.39715 21.1109 9.4838 21.1109H26.6372C28.4483 21.1109 30.2076 20.3211 31.4236 18.9519L39.5217 9.84199Z" fill="#939393"/>
<path d="M8.55138 26.0082C7.80108 25.1657 8.39615 23.8492 9.50867 23.8492H26.6621C28.4732 23.8492 30.2325 24.6391 31.4485 26.0082L39.5207 35.1182C40.271 35.9607 39.676 37.2772 38.5635 37.2772H21.41C19.5989 37.2772 17.8396 36.4873 16.6236 35.1182L8.55138 26.0082Z" fill="#939393"/>
<path d="M54.9183 32.6399C52.3634 32.6399 50.2016 31.7599 48.5114 29.9999C46.782 28.2399 45.9565 26.0799 45.9565 23.4799C45.9565 20.8799 46.8213 18.7199 48.5114 16.9599C50.2409 15.1999 52.3634 14.3199 54.9183 14.3199C56.5692 14.3199 58.1021 14.7199 59.4385 15.5199C60.8142 16.3199 61.8361 17.3999 62.5437 18.7599L58.7703 20.9999C58.4165 20.2799 57.9056 19.7199 57.2374 19.3199C56.5298 18.9199 55.783 18.6799 54.9183 18.6799C53.6212 18.6799 52.5206 19.1199 51.6559 19.9999C50.7912 20.8799 50.3588 22.0399 50.3588 23.3999C50.3588 24.7599 50.7912 25.8799 51.6559 26.7599C52.5206 27.6399 53.6212 28.0799 54.9183 28.0799C55.8223 28.0799 56.6085 27.8799 57.2767 27.4799C57.9842 27.0799 58.4951 26.5199 58.8096 25.7999L62.6223 27.9999C61.8755 29.3599 60.8142 30.4399 59.4385 31.2799C58.0628 32.1999 56.5692 32.6399 54.9183 32.6399Z" fill="#939393"/>
<path d="M77.5979 14.8H82.0002V32.12H77.5979V30.08C76.3008 31.76 74.4141 32.6 72.0558 32.6C69.776 32.6 67.85 31.72 66.1992 29.96C64.5876 28.2 63.7622 26.04 63.7622 23.48C63.7622 20.92 64.5876 18.76 66.1992 17C67.8107 15.24 69.776 14.36 72.0558 14.36C74.4534 14.36 76.3008 15.2 77.5979 16.88V14.8ZM69.5009 27C70.4049 27.92 71.5055 28.36 72.8812 28.36C74.2569 28.36 75.3575 27.92 76.2615 27C77.1655 26.08 77.5979 24.92 77.5979 23.48C77.5979 22.04 77.1655 20.88 76.2615 19.96C75.3575 19.04 74.2176 18.6 72.8812 18.6C71.5055 18.6 70.4049 19.04 69.5009 19.96C68.5968 20.88 68.1645 22.04 68.1645 23.48C68.1645 24.92 68.5968 26.08 69.5009 27Z" fill="#939393"/>
<path d="M89.8612 19.7199C89.8612 20.1999 90.1757 20.5599 90.7653 20.8399C91.3549 21.1199 92.1017 21.3999 92.9664 21.5999C93.8311 21.7999 94.6959 22.0799 95.5606 22.4399C96.4253 22.7599 97.1721 23.3199 97.7617 24.1199C98.3513 24.9199 98.6658 25.8799 98.6658 27.0799C98.6658 28.8399 97.9976 30.2399 96.7005 31.1999C95.4034 32.1599 93.7525 32.6399 91.8265 32.6399C88.3283 32.6399 85.9306 31.2799 84.6729 28.5199L88.4855 26.3199C88.9965 27.8399 90.0971 28.5599 91.8265 28.5599C93.3988 28.5599 94.1849 28.0799 94.1849 27.0799C94.1849 26.5999 93.8704 26.2399 93.2809 25.9599C92.6913 25.6799 91.9445 25.3999 91.0797 25.1999C90.215 24.9599 89.3503 24.6799 88.4855 24.3199C87.6208 23.9599 86.874 23.4399 86.2844 22.6799C85.6948 21.9199 85.3804 20.9999 85.3804 19.8399C85.3804 18.1199 86.0093 16.7999 87.2277 15.7999C88.4462 14.7999 90.0185 14.3199 91.8265 14.3199C93.2022 14.3199 94.46 14.6399 95.5999 15.2799C96.7398 15.9199 97.6438 16.8399 98.2727 17.9999L94.5386 20.0799C93.9884 18.9199 93.0843 18.3199 91.8265 18.3199C91.2763 18.3199 90.8046 18.4399 90.4115 18.7199C90.0578 18.9599 89.8612 19.2799 89.8612 19.7199Z" fill="#939393"/>
<path d="M110.929 14.32C112.777 14.32 114.31 14.96 115.528 16.24C116.747 17.52 117.336 19.28 117.336 21.52V32.16H112.934V22.04C112.934 20.88 112.619 20 112.03 19.4C111.401 18.8 110.615 18.48 109.593 18.48C108.453 18.48 107.549 18.84 106.881 19.56C106.213 20.28 105.859 21.36 105.859 22.8V32.16H101.457V7.88H105.859V16.76C106.959 15.12 108.65 14.32 110.929 14.32Z" fill="#939393"/>
<path d="M123.311 12.72C122.603 12.72 121.935 12.44 121.424 11.92C120.874 11.36 120.638 10.72 120.638 9.99999C120.638 9.27999 120.913 8.59999 121.424 8.07999C121.974 7.51999 122.603 7.23999 123.311 7.23999C124.057 7.23999 124.686 7.51999 125.236 8.07999C125.787 8.63999 126.023 9.27999 126.023 9.99999C126.023 10.72 125.747 11.4 125.236 11.92C124.686 12.48 124.057 12.72 123.311 12.72ZM121.109 32.12V14.8H125.512V32.12H121.109Z" fill="#939393"/>
<path d="M133.255 25.32C133.845 27.48 135.456 28.56 138.05 28.56C139.741 28.56 140.998 28 141.863 26.84L145.401 28.92C143.71 31.4 141.234 32.64 137.972 32.64C135.142 32.64 132.901 31.76 131.211 30.04C129.521 28.32 128.656 26.12 128.656 23.48C128.656 20.88 129.482 18.68 131.172 16.96C132.862 15.2 135.024 14.36 137.657 14.36C140.173 14.36 142.217 15.24 143.828 17C145.44 18.76 146.265 20.92 146.265 23.52C146.265 24.08 146.226 24.72 146.108 25.36H133.255V25.32ZM133.176 21.84H141.863C141.627 20.68 141.116 19.8 140.33 19.2C139.544 18.64 138.64 18.32 137.657 18.32C136.478 18.32 135.495 18.64 134.749 19.24C133.923 19.88 133.412 20.72 133.176 21.84Z" fill="#939393"/>
<path d="M153.694 17.8C154.087 16.68 154.795 15.88 155.738 15.32C156.681 14.76 157.743 14.48 158.882 14.48V19.48C157.546 19.32 156.328 19.6 155.306 20.32C154.244 21.04 153.733 22.24 153.733 23.88V32.16H149.331V14.8H153.733V17.8H153.694Z" fill="#939393"/>
</svg>
