<svg width="121" height="38" viewBox="0 0 121 38" fill="none" xmlns="http://www.w3.org/2000/svg">
<g clip-path="url(#clip0_1_7256)">
<path d="M119.516 18.5481C119.174 17.9209 118.722 17.3859 118.16 16.9616C117.597 16.5374 116.951 16.1961 116.232 15.9379C115.513 15.6796 114.766 15.4582 114.018 15.283C113.281 15.0985 112.561 14.9325 111.851 14.7849C111.141 14.6282 110.514 14.4529 109.96 14.2592C109.407 14.0655 108.964 13.8165 108.623 13.5029C108.282 13.1893 108.116 12.7927 108.116 12.3039C108.116 11.8888 108.208 11.566 108.411 11.317C108.604 11.0772 108.844 10.8835 109.121 10.7544C109.407 10.6252 109.711 10.5422 110.062 10.4961C110.403 10.4592 110.717 10.4408 111.012 10.4408C111.943 10.4408 112.746 10.6252 113.428 11.0034C114.111 11.3723 114.489 12.0917 114.563 13.1524H119.516C119.423 11.9165 119.119 10.8927 118.621 10.0811C118.123 9.26941 117.486 8.61456 116.73 8.12572C115.974 7.63689 115.107 7.2864 114.148 7.08349C113.179 6.88058 112.183 6.7699 111.159 6.7699C110.135 6.7699 109.13 6.86213 108.152 7.05582C107.175 7.24951 106.299 7.58155 105.515 8.06116C104.731 8.54077 104.103 9.1864 103.624 10.0165C103.144 10.8466 102.904 11.8981 102.904 13.1893C102.904 14.0655 103.07 14.8126 103.421 15.4121C103.762 16.0209 104.214 16.5189 104.777 16.9248C105.339 17.3214 105.976 17.6442 106.704 17.8932C107.424 18.1422 108.162 18.3544 108.918 18.5296C110.772 18.9447 112.22 19.3505 113.262 19.7655C114.304 20.1714 114.821 20.7985 114.821 21.6194C114.821 22.1082 114.71 22.5141 114.489 22.8369C114.267 23.1597 113.991 23.418 113.668 23.6116C113.336 23.8053 112.976 23.9437 112.57 24.0359C112.165 24.1282 111.786 24.1743 111.418 24.1743C110.901 24.1743 110.412 24.1097 109.933 23.9806C109.453 23.8515 109.038 23.6485 108.669 23.3811C108.3 23.1136 108.005 22.7631 107.765 22.3388C107.534 21.9146 107.415 21.4073 107.415 20.8078H102.462C102.508 22.1451 102.794 23.2612 103.319 24.1558C103.845 25.0413 104.518 25.7607 105.339 26.3048C106.16 26.849 107.092 27.2364 108.143 27.467C109.195 27.6976 110.274 27.8175 111.371 27.8175C112.469 27.8175 113.502 27.7068 114.544 27.4854C115.586 27.2641 116.509 26.8859 117.311 26.3417C118.123 25.7976 118.768 25.0874 119.267 24.1927C119.765 23.3073 120.023 22.2005 120.023 20.8908C120.023 19.9592 119.857 19.1752 119.506 18.5481" fill="#939393"/>
<path d="M58.3742 15.1077C58.3926 14.7203 58.4756 14.2776 58.6048 13.7888C58.7339 13.3 58.9645 12.8296 59.2873 12.3868C59.6101 11.9441 60.0436 11.5752 60.5785 11.2801C61.1135 10.9849 61.796 10.8373 62.6077 10.8373C63.8528 10.8373 64.7844 11.197 65.3931 11.9257C66.0018 12.6543 66.4261 13.715 66.6659 15.1169H58.3649L58.3742 15.1077ZM69.7834 10.3208C69.0271 9.20481 68.0586 8.31937 66.8873 7.6553C65.7159 6.99122 64.3324 6.65918 62.7552 6.65918C61.3348 6.65918 60.0528 6.93588 58.8907 7.48005C57.7285 8.02423 56.7324 8.77132 55.8931 9.71209C55.0538 10.6621 54.4081 11.7781 53.9562 13.0786C53.5043 14.3699 53.2737 15.781 53.2737 17.2752C53.2737 18.7694 53.495 20.2543 53.9378 21.5548C54.3805 22.8553 55.0077 23.9621 55.8285 24.9029C56.6402 25.8344 57.6363 26.5538 58.8077 27.0611C59.979 27.5684 61.298 27.8174 62.7645 27.8174C64.8674 27.8174 66.6659 27.3009 68.1509 26.2587C69.6358 25.2257 70.7334 23.5009 71.4528 21.0844H66.9611C66.795 21.7024 66.3339 22.2927 65.596 22.8553C64.8582 23.4179 63.9635 23.6946 62.9397 23.6946C61.5009 23.6946 60.4033 23.2888 59.6378 22.4864C58.8722 21.6839 58.448 20.3835 58.3834 18.5941H71.7848C71.8771 17.0354 71.7572 15.5504 71.4251 14.1208C71.0931 12.6912 70.5489 11.4276 69.7926 10.3116" fill="#939393"/>
<path d="M99.1596 6.76995H95.9038V3.87383C95.9038 3.87383 96.1989 0.986941 90.8863 1.14374V23.5287C90.8863 23.5287 90.4252 27.8267 94.1514 27.8267H98.9844V23.667H96.78C96.78 23.667 95.8116 23.7962 95.8577 22.3389C95.9038 20.9 95.8577 10.8835 95.8577 10.8835C95.8577 10.8835 98.9936 10.7821 99.1688 6.77917" fill="#939393"/>
<path d="M75.1514 15.6335V27.8175H80.1412C80.1412 27.8175 80.012 17.1738 80.1412 16.3622C80.0951 12.0549 83.6829 12.0549 83.6829 12.0549H86.247V6.76996C75.1514 6.31801 75.1514 15.6335 75.1514 15.6335Z" fill="#939393"/>
<path d="M42.6855 23.916C40.1122 23.916 38.037 20.9738 38.037 17.3398C38.037 13.7058 40.1214 10.7728 42.6855 10.7728C45.2496 10.7728 47.3341 13.7151 47.3341 17.3398C47.3341 20.9646 45.2496 23.916 42.6855 23.916ZM42.2336 6.76069C32.8258 7.06506 33.0103 14.8956 33.0103 14.8956V34.7534H35.4083C38.535 34.5505 38.1569 30.9719 38.1569 30.9719V25.1796C40.2413 27.8175 43.4879 27.8175 44.318 27.8175C53.1724 26.8952 51.8258 15.0248 51.7336 14.4806C50.7651 6.54855 43.9491 6.77913 42.2336 6.75146" fill="#939393"/>
<path d="M31.9956 3.69854H25.9267L20.7155 12.0641L13.3553 0H7.80291C7.80291 0 13.0141 8.99272 13.466 9.75825C14.7204 12.0087 14.9141 14.3422 14.9141 14.3422V17.8102H0C0.202913 23.6117 4.0767 23.6485 4.44563 23.6485C8.19951 23.7039 8.90971 20.6602 8.90971 20.6602H14.4345C13.383 26.268 8.71602 27.8175 8.71602 27.8175H16.4913L20.7155 20.7617L24.8384 27.8175H31.3777L23.8883 16.4544L31.9956 3.69854Z" fill="#939393"/>
<path d="M8.58689 14.0655C8.58689 13.9548 8.60534 13.8441 8.60534 13.7242C8.60534 11.2801 6.67767 9.30627 4.30728 9.30627C1.93689 9.30627 0 11.2801 0 13.7242C0 13.8441 0.0092233 13.9548 0.0184466 14.0655H8.58689Z" fill="#939393"/>
<path d="M48.3118 36.1184C48.3118 35.5466 48.3025 35.2422 48.2749 34.9932C48.4686 34.947 48.8283 34.8456 49.022 34.8456C49.1326 34.8456 49.1788 34.9009 49.1788 35.1131V37.3635C49.0312 37.4927 48.7176 37.6771 48.487 37.7694C48.1919 37.8708 47.62 37.9907 47.1404 37.9907C45.4064 37.9907 43.7278 37.1791 43.7278 34.7995C43.7278 32.798 45.2681 31.5344 47.1773 31.5344C48.3302 31.5344 48.9943 31.931 49.1788 32.097C49.1788 32.3737 48.9574 32.6136 48.7268 32.549C48.238 32.2723 47.6661 32.1708 47.1312 32.1708C45.7292 32.1708 44.6686 33.1393 44.6686 34.7349C44.6686 36.6534 45.9967 37.4004 47.2972 37.4004C47.6569 37.4004 48.1181 37.3174 48.3118 37.216V36.1V36.1184Z" fill="#939393"/>
<path d="M51.3461 34.7165C51.6966 34.7349 52.2777 34.7165 52.416 34.6704C52.7757 34.5413 53.2 34.1723 53.2 33.4529C53.2 32.5214 52.5728 32.1893 51.918 32.1893C51.7151 32.1893 51.4845 32.1985 51.3369 32.2262V34.7165H51.3461ZM51.3461 37.6311C51.3461 37.8063 51.3 37.8616 51.1709 37.8801C50.8942 37.9078 50.5806 37.9078 50.4607 37.9078C50.4791 37.5112 50.4884 36.9301 50.4884 36.1184V32.8165C50.4884 32.3369 50.4884 32.0971 50.4699 31.7927C50.7466 31.7374 51.5029 31.6451 51.9456 31.6451C53.2554 31.6451 54.1131 32.0971 54.1131 33.3976C54.1131 34.3752 53.283 34.8549 52.8864 35.0209C53.1355 35.1961 53.4398 35.6204 53.8272 36.2568C54.316 37.0777 54.7126 37.5942 54.9248 37.8063V37.8432C54.851 37.8985 54.6112 37.9354 54.3529 37.9354C54.0578 37.9354 53.8272 37.7971 53.5689 37.4374C53.2369 36.9485 53.0893 36.6718 52.7204 36.0631C52.333 35.4359 52.1486 35.2699 51.6136 35.2699H51.3461V37.6495V37.6311Z" fill="#939393"/>
<path d="M58.2911 32.1063C57.0829 32.1063 56.1698 33.0563 56.1698 34.7626C56.1698 36.4689 57.295 37.4374 58.4295 37.4374C59.6839 37.4374 60.5693 36.5335 60.5693 34.7626C60.5693 33.25 59.6654 32.1063 58.3096 32.1063H58.3004H58.2911ZM58.3834 31.5437C60.2834 31.5437 61.5008 32.9456 61.5008 34.7165C61.5008 36.4874 60.4678 38 58.3741 38C56.096 38 55.229 36.2291 55.229 34.8549C55.229 32.9733 56.4096 31.5529 58.3741 31.5529H58.3834V31.5437Z" fill="#939393"/>
<path d="M63.4562 34.984C63.4562 37.0408 64.4339 37.3544 65.181 37.3544C66.0572 37.3544 66.915 37.0408 66.915 34.8641V31.9311C66.915 31.7558 66.9888 31.7189 67.0994 31.6913C67.3946 31.6636 67.496 31.6544 67.6897 31.6544C67.6713 32.0417 67.6621 32.6228 67.6621 33.4345V34.818C67.6621 37.6495 66.1771 37.9815 65.0795 37.9815C63.6038 37.9815 62.5985 37.2621 62.5985 34.984V32.9825C62.5985 32.3184 62.5892 31.9218 62.5708 31.7282C62.7092 31.7005 63.1426 31.6451 63.2994 31.6451C63.447 31.6451 63.4655 31.7005 63.4655 32.1801V34.9748L63.4562 34.984Z" fill="#939393"/>
<path d="M69.1009 33.0839C69.1009 32.6135 69.1009 32.1985 69.064 31.7465C69.3407 31.7096 69.9402 31.6359 70.5028 31.6359C71.8863 31.6359 72.8824 32.18 72.8824 33.5543C72.8824 34.9286 71.7756 35.4728 71.0101 35.4728C70.7703 35.4728 70.5858 35.4451 70.4659 35.3621C70.3645 35.3067 70.2353 35.0762 70.2538 34.8732C70.3829 34.9101 70.5858 34.9286 70.7334 34.9286C71.2222 34.9286 71.9509 34.6519 71.9509 33.582C71.9509 32.4291 71.1023 32.2169 70.4936 32.2169C70.3091 32.2169 70.1431 32.2262 69.9586 32.2446V36.6441C69.9586 37.3266 69.9771 37.631 69.9863 37.8247C69.8387 37.8708 69.4606 37.8985 69.2577 37.8985C69.1562 37.8985 69.0916 37.8708 69.0916 37.7232V33.0839H69.1009Z" fill="#939393"/>
</g>
<defs>
<clipPath id="clip0_1_7256">
<rect width="120.032" height="38" fill="white"/>
</clipPath>
</defs>
</svg>
