<svg width="111" height="41" viewBox="0 0 111 41" fill="none" xmlns="http://www.w3.org/2000/svg">
<g clip-path="url(#clip0_1_7251)">
<path d="M28.1033 40.592C28.1916 39.8588 28.2682 39.102 28.3683 38.351C28.8157 35.0575 29.2632 31.7641 29.7343 28.4706C29.8167 27.9148 29.7107 27.696 29.0984 27.696C24.8708 27.7137 20.6432 27.7137 16.4216 27.696C15.8799 27.696 15.6797 27.8793 15.6031 28.4174C15.0615 32.3258 14.4844 36.2283 13.9369 40.1367C13.878 40.5743 13.7425 40.7635 13.2774 40.7576C9.00273 40.7457 4.72807 40.7457 0.453402 40.7457C0.341531 40.7457 0.223771 40.7221 -0.00585938 40.6925C0.147228 39.5336 0.288539 38.4042 0.441626 37.2808C1.18351 32.0006 1.91951 26.7204 2.67317 21.4401C3.42094 16.1954 4.18637 10.9507 4.92826 5.70002C4.98714 5.26247 5.1049 5.08508 5.57594 5.08508C9.82705 5.10282 14.0782 5.08508 18.3234 5.091C18.4588 5.091 18.5942 5.13239 18.818 5.16786C18.6413 6.49826 18.4765 7.78727 18.2998 9.0822C17.9407 11.7607 17.5815 14.4393 17.2106 17.1178C17.1399 17.6145 17.2694 17.8096 17.7935 17.8096C22.0681 17.7978 26.3428 17.7978 30.6175 17.8096C31.1592 17.8096 31.2887 17.5495 31.3535 17.0764C31.8598 13.3336 32.3956 9.59071 32.9138 5.84785C32.9727 5.41029 33.0433 5.11465 33.6262 5.12056C39.8792 5.14421 46.1382 5.13239 52.3912 5.13239C52.5325 5.13239 52.6679 5.14421 52.821 5.23291C51.7965 5.51081 50.7661 5.75915 49.7534 6.06662C47.0567 6.8826 44.5366 8.05927 42.3699 9.89818C39.9676 11.9381 38.4661 14.4984 37.9186 17.6263C37.8008 18.3004 38.0128 18.4541 38.6487 18.4482C42.1108 18.4246 45.5729 18.4127 49.035 18.4482C49.8005 18.4541 50.1538 18.2294 50.4128 17.4844C51.3902 14.6167 54.1988 12.831 57.0132 13.1621C58.0495 13.2863 58.7502 13.8243 59.1152 14.7586C59.5038 15.7519 59.5333 16.7985 58.7443 17.5849C57.4313 18.8976 56.1065 20.2398 54.6227 21.3337C48.4875 25.8453 42.2933 30.2799 36.0992 34.7205C35.4927 35.1581 35.1335 35.6134 35.057 36.3879C34.9392 37.6474 34.7155 38.9009 34.4976 40.1485C34.4623 40.3555 34.1974 40.6866 34.0384 40.6866C32.1542 40.7221 30.2642 40.7044 28.38 40.6925C28.3153 40.6925 28.2505 40.6452 28.0974 40.5861L28.1033 40.592Z" fill="#939393"/>
<path d="M87.6601 5.35185e-05C88.2843 2.1287 88.4138 4.29873 88.0605 6.49832C87.56 9.63807 86.1881 12.4526 84.7986 15.2671C83.5857 17.7328 82.308 20.1808 81.307 22.7292C79.729 26.7322 81.7368 31.6872 85.5522 33.4611C90.1095 35.5838 96.2801 33.7331 97.6991 27.2762C98.4233 23.9709 97.8287 20.7543 96.8866 17.585C95.7149 13.6174 93.8955 9.93371 91.8877 6.33868C91.6581 5.93069 91.4461 5.51087 91.1281 4.93141C92.4824 5.01419 93.66 5.05558 94.8376 5.16792C97.5696 5.42218 100.213 6.04303 102.657 7.32022C106.578 9.36608 109.092 12.6123 110.27 16.84C111.477 21.18 111.177 25.4787 109.369 29.6059C107.385 34.1293 103.781 36.9202 99.3006 38.6526C95.3263 40.19 91.187 40.9528 86.9182 40.9941C82.7554 41.0355 78.681 40.527 74.7478 39.1257C73.6468 38.7354 72.5928 38.2151 71.5448 37.7007C71.3681 37.6179 71.2091 37.2572 71.2327 37.0384C71.4034 35.3946 71.586 33.7568 71.8333 32.1248C71.9334 31.4803 71.7155 31.232 71.1208 31.1965C70.5261 31.161 69.9256 31.0782 69.3368 31.096C65.3565 31.2201 61.3703 31.362 57.3901 31.498C57.2076 31.5039 57.025 31.498 56.6482 31.498C56.972 31.2615 57.1487 31.1255 57.3312 31.0014C60.6049 28.7663 63.9552 26.6317 67.117 24.2488C68.695 23.0603 70.0669 21.5171 71.268 19.9324C73.317 17.2361 73.5643 14.2265 72.1041 11.1399C71.8627 10.6255 71.9334 10.3772 72.3926 10.0401C76.1079 7.32022 80.2531 5.76512 84.8162 5.30392C85.5169 5.23296 86.1057 4.93732 86.3589 4.29873C86.7593 3.28762 87.0596 2.23513 87.354 1.18855C87.4599 0.81012 87.4305 0.396217 87.4599 -0.00585938C87.5247 -0.00585938 87.5895 -0.00585938 87.6542 -0.00585938L87.6601 5.35185e-05Z" fill="#939393"/>
<path d="M88.8259 32.651C92.029 31.3028 94.8493 29.529 96.127 25.9517C96.5745 29.1624 92.9711 32.5623 88.8259 32.651Z" fill="#939393"/>
</g>
<defs>
<clipPath id="clip0_1_7251">
<rect width="111" height="41" fill="white"/>
</clipPath>
</defs>
</svg>
