<svg width="118" height="110" viewBox="0 0 118 110" fill="none" xmlns="http://www.w3.org/2000/svg">
<g clip-path="url(#clip0_1_7143)">
<path fill-rule="evenodd" clip-rule="evenodd" d="M58.1552 41.1443H52.2781V35.2672H30.3276V40.4891L51.8116 69.4339V84.3539L65.5374 79.2814V69.4354L87.0214 40.4906V35.2687H75.7865V41.1458H69.9094V35.2687H64.0323V41.1458H58.1552V41.1443ZM69.9094 52.9001H64.0323V47.023H69.9094V52.9001Z" fill="#939393"/>
<path d="M75.7865 29.3885H69.9094V35.2672H75.7865V29.3885Z" fill="#939393"/>
<path d="M75.7865 17.6328H69.9094V23.5099H75.7865V17.6328Z" fill="#939393"/>
<path d="M69.9096 11.7557H64.0325V17.6329H69.9096V11.7557Z" fill="#939393"/>
<path d="M64.0324 23.5115H58.1553V29.3886H64.0324V23.5115Z" fill="#939393"/>
<path d="M75.7865 35.2657H69.9094V41.1429H75.7865V35.2657Z" fill="#939393"/>
<path d="M75.7865 23.5115H69.9094V29.3886H75.7865V23.5115Z" fill="#939393"/>
<path d="M64.0324 29.3885H58.1553V35.2672H64.0324V29.3885Z" fill="#939393"/>
<path d="M64.0324 17.6328H58.1553V23.5099H64.0324V17.6328Z" fill="#939393"/>
<path d="M64.0324 0H58.1553V5.87712H64.0324V0Z" fill="#939393"/>
<path d="M58.1537 29.3885H52.2766V35.2672H58.1537V29.3885Z" fill="#939393"/>
<path d="M52.2765 47.0214H46.3994V52.8985H52.2765V47.0214Z" fill="#939393"/>
<path d="M52.2765 23.5115H46.3994V29.3886H52.2765V23.5115Z" fill="#939393"/>
<path d="M75.7865 5.87708H69.9094V11.7557H75.7865V5.87708Z" fill="#939393"/>
<path d="M69.9096 23.5115H64.0325V29.3886H69.9096V23.5115Z" fill="#939393"/>
<path d="M64.0324 35.2656H58.1553V41.1427H64.0324V35.2656Z" fill="#939393"/>
<path d="M58.1537 29.3885H52.2766V35.2672H58.1537V29.3885Z" fill="#939393"/>
<path d="M58.1537 52.9H52.2766V58.7771H58.1537V52.9Z" fill="#939393"/>
<path d="M40.5209 17.6328H34.6438V23.5099H40.5209V17.6328Z" fill="#939393"/>
<path d="M3.64583 108.034V99.2783H0V98.7333H7.86533V99.2783H4.2195V108.034H3.64583Z" fill="#939393"/>
<path d="M8.58384 107.13C7.88486 106.431 7.53613 105.59 7.53613 104.604C7.53613 103.619 7.88486 102.776 8.58384 102.079C9.28281 101.38 10.1237 101.031 11.1095 101.031C12.0953 101.031 12.9377 101.38 13.6352 102.079C14.3341 102.778 14.6829 103.62 14.6829 104.604C14.6829 105.589 14.3341 106.433 13.6352 107.13C12.9362 107.828 12.0938 108.178 11.1095 108.178C10.1252 108.178 9.2813 107.829 8.58384 107.13ZM8.98541 102.444C8.40117 103.042 8.1098 103.762 8.1098 104.604C8.1098 105.447 8.40117 106.167 8.98541 106.765C9.56965 107.363 10.2777 107.661 11.1095 107.661C11.9413 107.661 12.6494 107.363 13.2336 106.765C13.8178 106.167 14.1092 105.447 14.1092 104.604C14.1092 103.762 13.8178 103.042 13.2336 102.444C12.6494 101.846 11.9413 101.547 11.1095 101.547C10.2777 101.547 9.56814 101.846 8.98541 102.444Z" fill="#939393"/>
<path d="M16.3345 110V101.173H16.8795V102.781C17.1467 102.236 17.5301 101.807 18.0283 101.496C18.525 101.185 19.0851 101.03 19.7071 101.03C20.6446 101.03 21.4462 101.378 22.1119 102.077C22.7762 102.776 23.1098 103.619 23.1098 104.603C23.1098 105.587 22.7777 106.431 22.1119 107.129C21.4462 107.828 20.6461 108.176 19.7071 108.176C19.076 108.176 18.5129 108.021 18.0208 107.71C17.5271 107.399 17.1482 106.97 16.8795 106.425V109.998H16.3345V110ZM17.6977 102.443C17.1527 103.04 16.8795 103.761 16.8795 104.603C16.8795 105.445 17.1527 106.165 17.6977 106.763C18.2427 107.361 18.913 107.66 19.7071 107.66C20.5011 107.66 21.1714 107.361 21.7164 106.763C22.2614 106.165 22.5347 105.445 22.5347 104.603C22.5347 103.761 22.2614 103.04 21.7164 102.443C21.1714 101.845 20.5011 101.546 19.7071 101.546C18.913 101.546 18.2427 101.845 17.6977 102.443Z" fill="#939393"/>
<path d="M28.5493 108.178C27.4683 108.178 26.5565 107.831 25.8153 107.138C25.074 106.445 24.7026 105.546 24.7026 104.446V98.7333H25.8515V104.446C25.8515 105.231 26.1127 105.874 26.6335 106.377C27.1543 106.879 27.7929 107.13 28.5493 107.13C29.3056 107.13 29.9442 106.879 30.465 106.377C30.9858 105.874 31.247 105.231 31.247 104.446V98.7333H32.3959V104.446C32.3959 105.546 32.023 106.443 31.2757 107.138C30.5299 107.832 29.6196 108.178 28.5493 108.178Z" fill="#939393"/>
<path d="M34.2905 110V101.043H35.382V102.249C35.6492 101.828 36.004 101.497 36.4448 101.259C36.8841 101.02 37.3733 100.9 37.9092 100.9C38.8663 100.9 39.6649 101.254 40.3065 101.962C40.9481 102.67 41.2682 103.533 41.2682 104.545C41.2682 105.558 40.9481 106.407 40.3065 107.115C39.6649 107.823 38.8663 108.178 37.9092 108.178C37.3929 108.178 36.9113 108.055 36.4659 107.812C36.0206 107.569 35.6598 107.245 35.382 106.843V110.001H34.2905V110ZM36.0629 102.708C35.6085 103.206 35.3805 103.818 35.3805 104.545C35.3805 105.273 35.607 105.883 36.0629 106.375C36.5173 106.869 37.0849 107.115 37.7643 107.115C38.4436 107.115 39.0097 106.869 39.4656 106.375C39.9201 105.883 40.148 105.273 40.148 104.545C40.148 103.818 39.9201 103.206 39.4656 102.708C39.0112 102.212 38.4436 101.962 37.7643 101.962C37.0849 101.962 36.5173 102.212 36.0629 102.708Z" fill="#939393"/>
<path d="M45.4997 108.034V103.828L41.9973 98.7333H44.2965L45.3171 100.299L46.4855 102.094L47.6631 100.281L48.6685 98.7333H50.9828L47.5091 103.8V108.034H45.4997Z" fill="#939393"/>
<path d="M51.6062 107.086C50.8544 106.359 50.48 105.478 50.48 104.446C50.48 103.413 50.8559 102.532 51.6062 101.805C52.3565 101.078 53.2593 100.714 54.3115 100.714C55.3637 100.714 56.2665 101.078 57.0168 101.805C57.7671 102.533 58.143 103.413 58.143 104.446C58.143 105.478 57.7671 106.36 57.0168 107.086C56.265 107.814 55.3637 108.178 54.3115 108.178C53.2593 108.178 52.3565 107.814 51.6062 107.086ZM52.9845 103.125C52.6162 103.489 52.432 103.928 52.432 104.446C52.432 104.964 52.6162 105.403 52.9845 105.767C53.3529 106.131 53.7952 106.312 54.3115 106.312C54.8278 106.312 55.2701 106.131 55.6385 105.767C56.0068 105.403 56.191 104.964 56.191 104.446C56.191 103.928 56.0068 103.489 55.6385 103.125C55.2701 102.761 54.8278 102.58 54.3115 102.58C53.7952 102.58 53.3514 102.763 52.9845 103.125Z" fill="#939393"/>
<path d="M59.3643 104.918V100.856H61.3012V104.588C61.3012 105.172 61.3963 105.605 61.588 105.886C61.7798 106.168 62.1194 106.309 62.6071 106.309C63.6412 106.309 64.1575 105.658 64.1575 104.357V100.854H66.0808V108.031H64.1575V107.098C63.6125 107.815 62.8939 108.175 62.0047 108.175C61.5926 108.175 61.2302 108.11 60.9132 107.981C60.5977 107.852 60.3441 107.686 60.1523 107.479C59.9606 107.273 59.8051 107.024 59.6859 106.733C59.5666 106.442 59.4821 106.149 59.4353 105.857C59.3869 105.566 59.3628 105.252 59.3628 104.917L59.3643 104.918Z" fill="#939393"/>
<path d="M67.805 108.034V100.857H69.7283V102.192C69.8626 101.819 70.1344 101.479 70.5465 101.173C70.9571 100.866 71.5172 100.714 72.2253 100.714V102.809C71.3829 102.809 70.7564 103.009 70.3442 103.406C69.9321 103.803 69.7268 104.428 69.7268 105.279V108.034H67.8035H67.805Z" fill="#939393"/>
<path d="M73.3015 108.034V98.7333H80.4784V101.045H76.0295V102.178H79.9199V104.461H76.0295V108.034H73.303H73.3015Z" fill="#939393"/>
<path d="M88.3002 100.699V108.033H85.8319V107.23C85.5345 107.613 85.219 107.867 84.8838 107.991C84.5487 108.114 84.1607 108.178 83.7214 108.178C83.1854 108.178 82.7356 108.089 82.3717 107.912C82.0079 107.735 81.7347 107.479 81.5535 107.144C81.3708 106.808 81.2425 106.455 81.1655 106.081C81.0885 105.708 81.0508 105.278 81.0508 104.789V100.697H83.6625V104.458C83.6625 104.899 83.7365 105.222 83.8844 105.427C84.0324 105.632 84.2739 105.735 84.6091 105.735C85.3261 105.735 85.6854 105.208 85.6854 104.156V100.697H88.2972L88.3002 100.699Z" fill="#939393"/>
<path d="M89.449 108.034V100.7H91.9173V101.503C92.4623 100.872 93.199 100.555 94.1274 100.555C94.5773 100.555 94.9668 100.629 95.2974 100.777C95.628 100.925 95.8816 101.105 96.0583 101.315C96.2349 101.526 96.3738 101.793 96.4749 102.118C96.5761 102.444 96.638 102.74 96.6621 103.009C96.6863 103.277 96.6984 103.587 96.6984 103.942V108.033H94.0867V104.272C94.0867 103.421 93.8134 102.995 93.2684 102.995C92.8955 102.995 92.6012 103.141 92.3853 103.433C92.1694 103.724 92.0622 104.105 92.0622 104.574V108.033H89.4505L89.449 108.034Z" fill="#939393"/>
<path d="M97.7732 108.034V100.7H100.241V101.503C100.786 100.872 101.523 100.555 102.452 100.555C102.902 100.555 103.291 100.629 103.622 100.777C103.952 100.925 104.206 101.105 104.382 101.315C104.559 101.526 104.698 101.793 104.799 102.118C104.9 102.444 104.962 102.74 104.986 103.009C105.011 103.277 105.023 103.587 105.023 103.942V108.033H102.411V104.272C102.411 103.421 102.138 102.995 101.593 102.995C101.22 102.995 100.925 103.141 100.709 103.433C100.494 103.724 100.386 104.105 100.386 104.574V108.033H97.7747L97.7732 108.034Z" fill="#939393"/>
<path d="M112.701 107.488C111.955 107.947 111.079 108.176 110.074 108.176C108.916 108.176 107.941 107.834 107.145 107.15C106.351 106.466 105.954 105.54 105.954 104.372C105.954 103.3 106.319 102.396 107.052 101.659C107.784 100.922 108.69 100.554 109.772 100.554C110.854 100.554 111.676 100.925 112.384 101.667C113.092 102.408 113.447 103.311 113.447 104.372L113.389 105.219H108.524C108.724 105.85 109.247 106.165 110.088 106.165C110.719 106.165 111.298 106.017 111.824 105.72L112.699 107.485L112.701 107.488ZM109.772 102.607C109.446 102.607 109.164 102.713 108.925 102.923C108.687 103.132 108.528 103.406 108.451 103.741H111.063C111.025 103.406 110.883 103.134 110.64 102.923C110.396 102.713 110.107 102.607 109.772 102.607Z" fill="#939393"/>
<path d="M114.45 108.034V98.5898H117.062V108.034H114.45Z" fill="#939393"/>
</g>
<defs>
<clipPath id="clip0_1_7143">
<rect width="117.064" height="110" fill="white"/>
</clipPath>
</defs>
</svg>
