<svg width="134" height="80" viewBox="0 0 134 80" fill="none" xmlns="http://www.w3.org/2000/svg">
<g clip-path="url(#clip0_1_7343)">
<path d="M88.5979 42.5992L89.1015 5.73865L75.3621 16.8179" stroke="#939393" stroke-width="1.6" stroke-linecap="round" stroke-linejoin="round"/>
<path d="M45.292 23.0806V6.01892L79.2122 26.951" stroke="#939393" stroke-width="1.6" stroke-linecap="round" stroke-linejoin="round"/>
<path d="M45.292 42.5952L66.8576 0.97876L88.6182 42.6114" stroke="#939393" stroke-width="1.6" stroke-linecap="round" stroke-linejoin="round"/>
<path d="M45.2959 42.6074L100.173 18.0608L88.6181 42.6115L33.3638 17.6709L45.2959 42.6074Z" stroke="#939393" stroke-width="1.6" stroke-linecap="round" stroke-linejoin="round"/>
<path d="M10.6285 55.0594C11.6601 55.628 12.4723 56.3956 13.0653 57.3622L11.4042 58.5847C10.3808 57.0089 8.98365 56.221 7.21292 56.221C5.80364 56.221 4.62585 56.7002 3.68768 57.6627C2.74546 58.6253 2.2784 59.8315 2.2784 61.2814C2.2784 62.7313 2.74952 63.9415 3.68768 64.9C4.62585 65.8625 5.80364 66.3418 7.21292 66.3418C8.98365 66.3418 10.3808 65.5539 11.4042 63.9781L13.0653 65.2005C12.4845 66.1671 11.6804 66.9347 10.6488 67.5033C9.61722 68.0719 8.46786 68.3521 7.19667 68.3521C5.17819 68.3521 3.47243 67.6739 2.08346 66.3174C0.694487 64.9609 0 63.2836 0 61.2773C0 59.271 0.698548 57.6099 2.09564 56.2494C3.49274 54.8888 5.19444 54.2065 7.19667 54.2065C8.45568 54.2065 9.60098 54.4908 10.6285 55.0554V55.0594Z" fill="#939393"/>
<path d="M24.311 68.1247L20.4122 62.8368H17.9023V68.1247H15.7051V54.434H20.7046C22.0895 54.434 23.2063 54.8198 24.0633 55.5955C24.9202 56.3712 25.3507 57.3784 25.3507 58.6253C25.3507 59.5228 25.1192 60.3107 24.6562 60.9889C24.1932 61.6672 23.5475 62.1627 22.7149 62.4835L26.8209 68.1247H24.311ZM17.9023 60.8874H20.6599C21.4194 60.8874 22.0164 60.6803 22.4428 60.266C22.8693 59.8518 23.0845 59.3116 23.0845 58.6496C23.0845 57.9876 22.8693 57.4272 22.4428 57.0129C22.0164 56.5986 21.4194 56.3915 20.6599 56.3915H17.9023V60.8915V60.8874Z" fill="#939393"/>
<path d="M39.9187 56.2494C41.3239 57.6099 42.0224 59.2873 42.0224 61.2773C42.0224 63.2674 41.3198 64.9447 39.9187 66.3052C38.5135 67.6658 36.8199 68.3481 34.8258 68.3481C32.8317 68.3481 31.1218 67.6658 29.7329 66.3052C28.3439 64.9447 27.6494 63.2674 27.6494 61.2773C27.6494 59.2873 28.3439 57.6099 29.7329 56.2494C31.1218 54.8888 32.8195 54.2065 34.8258 54.2065C36.8321 54.2065 38.5135 54.8888 39.9187 56.2494ZM31.3209 57.6505C30.3949 58.605 29.9319 59.8071 29.9319 61.2611C29.9319 62.715 30.3949 63.9415 31.3209 64.9C32.2468 65.8626 33.4246 66.3418 34.8461 66.3418C36.2675 66.3418 37.4291 65.8626 38.3632 64.9C39.2973 63.9375 39.7644 62.7272 39.7644 61.2611C39.7644 59.7949 39.2932 58.6253 38.3551 57.6627C37.4128 56.7002 36.2472 56.221 34.8501 56.221C33.453 56.221 32.2509 56.6961 31.3249 57.6505H31.3209Z" fill="#939393"/>
<path d="M63.576 54.434L58.2475 68.3521H57.5206L53.4349 58.6456L49.3492 68.3521H48.6019L43.2734 54.434H45.698L49.1014 63.6857L53.0409 54.2065H53.8085L57.748 63.6857L61.1717 54.434H63.576Z" fill="#939393"/>
<path d="M77.3275 54.434V68.3521H76.5802L68.2423 58.873V68.1247H66.0452V54.2065H66.8128L75.1304 63.6654V54.434H77.3275Z" fill="#939393"/>
<path d="M100.12 54.434L94.7912 68.3521H94.0643L89.9786 58.6456L85.8929 68.3521H85.1456L79.8171 54.434H82.2418L85.6451 63.6857L89.5846 54.2065H90.3522L94.2917 63.6857L97.7154 54.434H100.12Z" fill="#939393"/>
<path d="M111.593 56.4078H104.79V59.9127H109.912V61.8215H104.79V66.1549H111.841V68.1247H102.589V54.434H111.589V56.4037L111.593 56.4078Z" fill="#939393"/>
<path d="M116.593 66.1549H122.855V68.1247H114.391V54.434H116.589V66.1549H116.593Z" fill="#939393"/>
<path d="M127.274 66.1549H133.536V68.1247H125.073V54.434H127.27V66.1549H127.274Z" fill="#939393"/>
<path d="M35.4879 79.9106L33.8228 77.6607H32.6775V79.9106H32.0439V74.5497H33.9284C34.4483 74.5497 34.8625 74.6959 35.1752 74.9842C35.4879 75.2726 35.6423 75.6462 35.6423 76.1011C35.6423 76.4626 35.5407 76.7753 35.3417 77.0393C35.1427 77.3033 34.8666 77.486 34.5214 77.5876L36.2271 79.9106H35.4879ZM32.6775 77.0921H33.904C34.2492 77.0921 34.5173 77.0027 34.7041 76.824C34.8909 76.6453 34.9843 76.4057 34.9843 76.1092C34.9843 75.8128 34.8909 75.5772 34.7001 75.3944C34.5092 75.2117 34.2452 75.1183 33.904 75.1183H32.6775V77.0921Z" fill="#939393"/>
<path d="M42.5628 75.1183H39.7605V76.759H41.9049V77.3276H39.7605V79.342H42.6603V79.9106H39.127V74.5497H42.5628V75.1183Z" fill="#939393"/>
<path d="M49.0121 78.8222H46.3966L45.9336 79.9106H45.2676L47.5907 74.4603H47.8262L50.1493 79.9106H49.4751L49.0121 78.8222ZM47.7044 75.6219L46.6322 78.2536H48.7766L47.7044 75.6219Z" fill="#939393"/>
<path d="M53.8045 79.342H56.3469V79.9106H53.1709V74.5497H53.8045V79.342Z" fill="#939393"/>
<path d="M66.6463 75.1183H63.844V76.759H65.9884V77.3276H63.844V79.342H66.7438V79.9106H63.2104V74.5497H66.6463V75.1183Z" fill="#939393"/>
<path d="M72.369 74.7121C72.6654 74.8786 72.8969 75.098 73.0716 75.3701L72.6086 75.7193C72.3121 75.2685 71.9019 75.0452 71.382 75.0452C71.1181 75.0452 70.8906 75.1142 70.7079 75.2482C70.5251 75.3822 70.4317 75.5772 70.4317 75.8249C70.4317 75.9427 70.452 76.0483 70.4886 76.1336C70.5251 76.2189 70.5942 76.3001 70.6876 76.3773C70.781 76.4544 70.8663 76.5113 70.9434 76.5519C71.0206 76.5925 71.1343 76.6494 71.2927 76.7265L71.8857 77.0108C72.308 77.2098 72.6208 77.4251 72.8279 77.6525C73.035 77.88 73.1365 78.1643 73.1365 78.5054C73.1365 78.9481 72.9741 79.3096 72.6492 79.5857C72.3243 79.8619 71.91 80 71.4064 80C70.9881 80 70.6104 79.8984 70.2652 79.6913C69.92 79.4842 69.6438 79.204 69.4326 78.8466L69.9037 78.4973C70.3058 79.1105 70.8013 79.4151 71.3983 79.4151C71.7191 79.4151 71.9791 79.3339 72.1781 79.1715C72.3771 79.009 72.4786 78.7938 72.4786 78.5217C72.4786 78.2942 72.4096 78.1196 72.2715 77.9937C72.1334 77.8678 71.906 77.7297 71.5851 77.5794L70.984 77.2951C70.6063 77.1124 70.3099 76.9093 70.0946 76.6941C69.8794 76.4788 69.7738 76.1986 69.7738 75.8574C69.7738 75.4391 69.9322 75.102 70.2449 74.8462C70.5576 74.5903 70.9394 74.4603 71.3902 74.4603C71.7476 74.4603 72.0725 74.5456 72.369 74.7121Z" fill="#939393"/>
<path d="M80.2275 75.1183H78.3349V79.9106H77.7014V75.1183H75.8169V74.5497H80.2275V75.1183Z" fill="#939393"/>
<path d="M85.7997 78.8222H83.1842L82.7212 79.9106H82.0552L84.3783 74.4603H84.6138L86.9369 79.9106H86.2627L85.7997 78.8222ZM84.492 75.6219L83.4198 78.2536H85.5642L84.492 75.6219Z" fill="#939393"/>
<path d="M93.175 75.1183H91.2824V79.9106H90.6489V75.1183H88.7644V74.5497H93.175V75.1183Z" fill="#939393"/>
<path d="M99.535 75.1183H96.7327V76.759H98.8771V77.3276H96.7327V79.342H99.6325V79.9106H96.0991V74.5497H99.535V75.1183Z" fill="#939393"/>
<path d="M23.0157 77.5226H8.1228" stroke="#939393" stroke-width="0.8" stroke-miterlimit="10"/>
<path d="M125.414 77.5226H110.525" stroke="#939393" stroke-width="0.8" stroke-miterlimit="10"/>
</g>
<defs>
<clipPath id="clip0_1_7343">
<rect width="133.536" height="80" fill="white"/>
</clipPath>
</defs>
</svg>
