<svg width="124" height="51" viewBox="0 0 124 51" fill="none" xmlns="http://www.w3.org/2000/svg">
<g clip-path="url(#clip0_1_7213)">
<path d="M92.346 21.5506H93.1884C93.1884 21.5506 89.8188 13.532 89.698 12.5299L86.3284 14.9099C86.3284 14.9099 90.1796 20.0475 92.346 21.5506Z" fill="#939393"/>
<path d="M97.2796 21.0495H98.4828C98.4828 21.0495 96.9188 6.64069 97.5195 5.13574L91.0203 7.13995C91.0203 7.13995 93.7892 16.286 97.2796 21.0477V21.0495Z" fill="#939393"/>
<path d="M103.779 22.9303C103.779 22.9303 109.315 3.38389 110.881 0.876842L101.012 0C101.012 0 100.29 15.2857 102.096 21.9282L103.781 22.9303H103.779Z" fill="#939393"/>
<path d="M108.593 26.0619C108.593 26.0619 119.667 9.8976 124 7.39234L115.695 2.25476C115.695 2.25476 111.241 9.39655 106.788 24.684L108.593 26.0619Z" fill="#939393"/>
<path d="M105.826 33.5795C105.826 33.5795 117.861 34.0805 120.87 35.3332L120.389 28.3167C120.389 28.3167 111.602 29.3188 106.066 32.2016L105.826 33.5795Z" fill="#939393"/>
<path d="M0 43.4967H1.4431L3.34117 49.6292L5.22502 43.4967H6.66812L4.27598 50.8353H2.39213L0 43.4967Z" fill="#939393"/>
<path d="M8.77246 47.3584V46.9701C8.77246 44.9068 9.74815 43.3285 11.9626 43.3285C14.177 43.3285 15.1527 44.9068 15.1527 46.9701V47.3584C15.1527 49.4216 14.177 51 11.9626 51C9.74815 51 8.77246 49.4216 8.77246 47.3584ZM13.7647 47.3584V46.9701C13.7647 45.5027 13.2013 44.5471 11.9626 44.5471C10.7238 44.5471 10.1605 45.5027 10.1605 46.9701V47.3584C10.1605 48.8258 10.7238 49.7813 11.9626 49.7813C13.2013 49.7813 13.7647 48.8258 13.7647 47.3584Z" fill="#939393"/>
<path d="M18.0671 39.7585H19.4427V50.8354H18.0671V39.7585Z" fill="#939393"/>
<path d="M23.9231 43.4967V48.3569C23.9231 49.2713 24.4047 49.7831 25.2845 49.7831C26.2744 49.7831 26.7969 49.2015 27.0581 48.8007V43.4985H28.4337V48.7595L28.5297 50.8353H27.3336L27.1825 49.8243C26.7418 50.4882 25.9722 51.0018 24.7762 51.0018C23.2638 51.0018 22.5493 49.9352 22.5493 48.5788V43.4985H23.9249L23.9231 43.4967Z" fill="#939393"/>
<path d="M36.0509 50.8336V45.9734C36.0509 45.059 35.5693 44.5472 34.6753 44.5472C33.6854 44.5472 33.1629 45.1288 32.9159 45.5296V50.8318H31.5403V45.5708L31.4443 43.4932H32.6262L32.7772 44.5043C33.218 43.8404 33.9875 43.3268 35.1836 43.3268C36.7102 43.3268 37.4105 44.3933 37.4105 45.7497V50.83H36.0491L36.0509 50.8336Z" fill="#939393"/>
<path d="M44.4927 43.4968V44.7298H42.3209V48.468C42.3209 49.5345 42.7741 49.7832 43.6005 49.7832C43.8902 49.7832 44.2474 49.7134 44.3558 49.6723V50.8354C44.2456 50.8909 43.8884 51.0019 43.2842 51.0019C41.9086 51.0019 40.9471 50.3648 40.9471 48.6201V44.7298H39.8062V43.4968H40.9471V41.421H42.3227V43.4968H44.4945H44.4927Z" fill="#939393"/>
<path d="M48.4664 47.6913C48.5215 49.1175 49.1258 49.8923 50.3769 49.8923C51.6281 49.8923 52.1364 49.1443 52.1364 48.4804H53.4569V48.5359C53.4569 49.7689 52.4385 51 50.3627 51C48.0808 51 47.0767 49.3948 47.0767 47.3316V46.9987C47.0767 44.9355 48.095 43.3303 50.2934 43.3303C52.4918 43.3303 53.4569 44.9355 53.4569 46.9987V47.6913H48.4647H48.4664ZM48.4664 46.6391H52.0689C52.0138 45.254 51.4504 44.438 50.2668 44.438C49.0831 44.438 48.5073 45.254 48.4647 46.6391H48.4664Z" fill="#939393"/>
<path d="M57.4166 47.6913C57.4717 49.1175 58.076 49.8923 59.3271 49.8923C60.5783 49.8923 61.0866 49.1443 61.0866 48.4804H62.4071V48.5359C62.4071 49.7689 61.3887 51 59.3129 51C57.031 51 56.0269 49.3948 56.0269 47.3316V46.9987C56.0269 44.9355 57.0452 43.3303 59.2436 43.3303C61.442 43.3303 62.4071 44.9355 62.4071 46.9987V47.6913H57.4149H57.4166ZM57.4166 46.6391H61.0191C60.964 45.254 60.4006 44.438 59.217 44.438C58.0333 44.438 57.4575 45.254 57.4149 46.6391H57.4166Z" fill="#939393"/>
<path d="M68.6913 43.3446V44.6742H68.4443C67.4135 44.6742 66.891 45.2146 66.6297 45.6155V50.8354H65.2542V45.5743L65.1582 43.4967H66.3401L66.4769 44.438C66.8892 43.8153 67.5486 43.3303 68.4852 43.3303C68.5669 43.3303 68.6647 43.3446 68.6913 43.3446Z" fill="#939393"/>
<path d="M75.4269 48.7578C75.4269 47.9544 74.9595 47.7199 73.735 47.6233C71.7409 47.4426 71.0673 46.8198 71.0673 45.6298V45.5332C71.0673 44.1213 72.1817 43.3322 73.9002 43.3322C75.9494 43.3322 76.7473 44.3432 76.7473 45.8249V45.8804H75.386C75.386 44.9946 75.0145 44.4398 73.9002 44.4398C72.9796 44.4398 72.4429 44.8282 72.4429 45.5064C72.4429 46.1846 72.745 46.5031 74.0655 46.614C75.8943 46.7518 76.8291 47.2368 76.8291 48.6487V48.731C76.8291 50.0874 75.8107 51.0018 73.9002 51.0018C71.8102 51.0018 70.9856 49.853 70.9856 48.6201V48.5646H72.3469C72.3469 49.2571 72.7042 49.8942 73.9002 49.8942C74.9186 49.8942 75.4269 49.4378 75.4269 48.7596V48.7578Z" fill="#939393"/>
<path d="M81.3112 50.8336H79.7437V49.2552H81.3112V50.8336Z" fill="#939393"/>
<path d="M88.7223 49.8923C88.2265 50.5151 87.4303 51 86.2467 51C84.8036 51 84.1016 50.0999 84.1016 48.9242V48.7864C84.1016 47.1938 85.2568 46.7088 86.563 46.5156L88.5837 46.1971V46.0861C88.5837 44.9927 88.2407 44.438 87.1264 44.438C85.957 44.438 85.6833 45.1305 85.6833 45.9197H84.377V45.7944C84.377 44.6313 84.928 43.3303 87.169 43.3303C89.4101 43.3303 89.961 44.4237 89.961 46.0861V48.7578L90.057 50.8336H88.8609L88.7241 49.8923H88.7223ZM88.5855 48.8813V47.0954L86.7709 47.3996C85.9179 47.5374 85.4647 47.9525 85.4647 48.6451V48.756C85.4647 49.309 85.8219 49.8351 86.6892 49.8351C87.7751 49.8351 88.3384 49.2535 88.5873 48.8795L88.5855 48.8813Z" fill="#939393"/>
<path d="M94.1535 47.6913C94.2086 49.1175 94.8128 49.8923 96.064 49.8923C97.3151 49.8923 97.8234 49.1443 97.8234 48.4804H99.1439V48.5359C99.1439 49.7689 98.1255 51 96.0497 51C93.7678 51 92.7637 49.3948 92.7637 47.3316V46.9987C92.7637 44.9355 93.782 43.3303 95.9804 43.3303C98.1788 43.3303 99.1439 44.9355 99.1439 46.9987V47.6913H94.1517H94.1535ZM94.1535 46.6391H97.7559C97.7008 45.254 97.1374 44.438 95.9538 44.438C94.7701 44.438 94.1943 45.254 94.1517 46.6391H94.1535Z" fill="#939393"/>
<path d="M13.8001 29.6855C13.9245 30.2188 13.9867 30.6662 13.9867 31.0258C13.9867 31.4947 13.8925 31.9331 13.7023 32.3411C13.5122 32.7491 13.2332 33.0676 12.8671 33.2967C12.4672 33.5472 11.8771 33.7333 11.0969 33.8532C10.3167 33.9731 9.40326 34.0322 8.35292 34.0322H7.29726C5.47916 34.0322 4.10715 33.7906 3.18122 33.3056C2.25529 32.8207 1.79321 32.0548 1.79321 31.0079C1.79321 30.3208 1.8803 29.6891 2.05269 29.1111L3.23809 28.653L3.36783 28.7353C3.27008 29.2704 3.2221 29.7428 3.2221 30.1579C3.2221 30.7574 3.38738 31.2209 3.71794 31.5484C4.0485 31.8758 4.54079 32.1049 5.19481 32.2355C5.84882 32.3662 6.71788 32.4324 7.80021 32.4324H8.82388C9.60231 32.4324 10.3363 32.3912 11.0241 32.3107C11.7119 32.2284 12.2166 32.1228 12.5418 31.9922C12.5525 31.9367 12.5578 31.8454 12.5578 31.7148C12.5578 31.3873 12.4903 31.0276 12.3552 30.6357C12.2201 30.2438 12.0069 29.7267 11.7136 29.0825L13.0768 28.0195H13.2385C13.4873 28.5975 13.6739 29.154 13.7983 29.6873L13.8001 29.6855ZM7.21728 27.5435L5.75641 26.5128L6.64857 25.1403L8.10944 26.1531L7.21728 27.5435ZM9.50634 27.5435L8.04546 26.5128L8.9554 25.1403L10.4163 26.1531L9.50634 27.5435Z" fill="#939393"/>
<path d="M16.0926 33.9517L15.9824 33.8855V23.0145L17.4309 22.6226L17.541 22.7049L17.525 33.6421L16.0926 33.9535V33.9517Z" fill="#939393"/>
<path d="M17.2336 35.6034L17.3314 35.4567C18.2502 35.2938 19.0571 35.054 19.752 34.7373C20.4469 34.4206 20.98 34.0823 21.3515 33.7245C21.7229 33.3666 21.9095 33.0498 21.9095 32.776C21.8882 32.4933 21.7655 32.0817 21.5452 31.5413C21.323 31.0027 21.0547 30.4497 20.7419 29.8825L21.9113 28.5905H22.0517C22.384 29.2329 22.6506 29.9003 22.8479 30.5929C23.0451 31.2854 23.1447 31.8813 23.1447 32.3823C23.1447 32.9926 22.9936 33.5813 22.6897 34.1486C22.4729 34.5512 22.1405 34.9306 21.6909 35.2849C21.2413 35.6392 20.7081 35.947 20.0914 36.2082C19.4747 36.4695 18.8083 36.6663 18.0938 36.797L17.2336 35.6034Z" fill="#939393"/>
<path d="M25.8621 33.1678C25.3485 32.7097 25.0908 31.9474 25.0908 30.8791V23.0162L26.509 22.6243L26.6334 22.7066V30.7324C26.6334 31.135 26.6921 31.4428 26.8094 31.6557C26.9267 31.8687 27.1151 32.019 27.3763 32.1049C27.6376 32.1926 27.9966 32.2355 28.4515 32.2355C28.6968 32.2355 28.8692 32.2821 28.9687 32.3751C29.0682 32.4682 29.1198 32.6006 29.1198 32.776C29.1198 33.0927 29.0416 33.3504 28.8834 33.5526C28.727 33.7548 28.464 33.855 28.0961 33.855C27.1222 33.855 26.3775 33.626 25.8639 33.1678H25.8621Z" fill="#939393"/>
<path d="M34.1509 28.8839C34.5828 29.2329 34.9293 29.691 35.1906 30.2565C35.4501 30.8237 35.5798 31.4178 35.5798 32.0388C35.5798 32.6597 35.4305 33.1375 35.1337 33.5026C34.8352 33.8676 34.3997 34.0501 33.8275 34.0501C33.3725 34.0501 32.8607 33.9517 32.2937 33.7549C31.725 33.558 31.1599 33.2646 30.5965 32.8727C30.305 33.2431 29.9602 33.499 29.5657 33.6404C29.1712 33.7817 28.6807 33.8533 28.0959 33.8533L28.4532 32.2356C28.6913 32.2356 28.885 32.2034 29.0379 32.1372C29.1889 32.071 29.3276 31.9636 29.452 31.8097C29.5764 31.6576 29.7203 31.4339 29.8821 31.1387C29.9247 31.051 30.0989 30.7378 30.401 30.1992C30.7031 29.6606 31.0603 29.2186 31.4727 28.875C31.8832 28.5314 32.3168 28.3596 32.7718 28.3596C33.2588 28.3596 33.7191 28.5332 34.1527 28.8821L34.1509 28.8839ZM33.9785 31.3284C33.8417 30.9526 33.6604 30.6233 33.4365 30.3388C33.2126 30.056 32.9851 29.9129 32.7558 29.9129C32.5923 29.9129 32.4359 29.9809 32.2884 30.1169C32.1409 30.2529 32.0005 30.4283 31.869 30.6394C31.7375 30.8524 31.5562 31.1763 31.3269 31.6129C31.7428 31.8741 32.1391 32.0781 32.5177 32.2267C32.8962 32.3734 33.2161 32.4468 33.4791 32.4468C33.7635 32.4468 33.9874 32.3859 34.1527 32.266C34.174 32.0155 34.1172 31.7024 33.9803 31.3266L33.9785 31.3284Z" fill="#939393"/>
<path d="M37.6041 33.9517L37.4939 33.8855V23.0145L38.9423 22.6226L39.0525 22.7049L39.0365 33.6421L37.6041 33.9535V33.9517Z" fill="#939393"/>
<path d="M41.1071 33.8783C40.9293 33.7745 40.7872 33.6349 40.6859 33.4613C40.5828 33.2877 40.5312 33.0962 40.5312 32.8887C40.5312 32.6811 40.5828 32.4914 40.6859 32.316C40.7889 32.1425 40.9293 32.0029 41.1071 31.8991C41.2866 31.7953 41.4785 31.7434 41.6829 31.7434C41.8873 31.7434 42.081 31.7953 42.2587 31.8991C42.4364 32.0029 42.5786 32.1425 42.6799 32.316C42.783 32.4896 42.8345 32.6811 42.8345 32.8887C42.8345 33.0962 42.783 33.2859 42.6799 33.4613C42.5768 33.6349 42.4364 33.7745 42.2587 33.8783C42.081 33.982 41.8873 34.0339 41.6829 34.0339C41.4785 34.0339 41.2848 33.982 41.1071 33.8783Z" fill="#939393"/>
<path d="M54.8821 32.7742C54.8821 33.0802 54.8039 33.3361 54.6458 33.5418C54.4894 33.7494 54.221 33.8532 53.8425 33.8532C53.6363 33.8532 53.4284 33.821 53.2169 33.7548C53.0054 33.6886 52.8135 33.6027 52.6411 33.4935C52.5007 34.2451 52.2074 34.875 51.7649 35.3814C51.3206 35.8878 50.7661 36.2672 50.1014 36.5177C49.435 36.7683 48.6814 36.8935 47.8373 36.8935C46.9931 36.8935 46.3106 36.7522 45.7259 36.4676C45.1412 36.1831 44.7005 35.7894 44.4019 35.283C44.1033 34.7766 43.9558 34.1843 43.9558 33.5096C43.9558 33.1714 43.9842 32.8314 44.0393 32.4878C44.0944 32.1443 44.162 31.8526 44.2402 31.6128L45.4984 31.1547L45.6442 31.2209C45.5464 31.8096 45.4984 32.3161 45.4984 32.742C45.4984 33.5597 45.6975 34.1861 46.0991 34.6227C46.499 35.0575 47.1903 35.2758 48.1714 35.2758C49.5061 35.2758 50.4764 34.8786 51.0842 34.0823C51.1695 33.7888 51.2122 33.5096 51.2122 33.2484C51.2122 32.835 51.1358 32.4055 50.9847 31.9653C50.8336 31.5233 50.6008 30.9489 50.2863 30.2403L51.7027 29.2274H51.8004C51.8769 29.4243 51.9533 29.648 52.0297 29.8985C52.0741 30.0076 52.1523 30.2385 52.2679 30.5928C52.3834 30.9471 52.4882 31.2173 52.5878 31.4016C52.7406 31.6951 52.9379 31.9081 53.1778 32.0387C53.4177 32.1693 53.7287 32.2355 54.1108 32.2355C54.6244 32.2355 54.8804 32.4145 54.8804 32.7742H54.8821ZM48.2904 28.687L46.7798 27.6241L47.7217 26.2175L49.2324 27.2644L48.2904 28.687Z" fill="#939393"/>
<path d="M60.3704 32.3734C60.4681 32.4664 60.5161 32.5988 60.5161 32.7742C60.5161 33.0802 60.4432 33.3361 60.2975 33.5419C60.1518 33.7495 59.8887 33.8533 59.5102 33.8533C58.9362 33.8533 58.4065 33.7906 57.9196 33.6654C57.4326 33.5401 57.0328 33.3468 56.7182 33.0856C56.4356 33.3468 56.1086 33.5401 55.7354 33.6654C55.3622 33.7906 54.9214 33.8533 54.4114 33.8533H53.8586L54.2319 32.2356H54.6708C54.909 32.2356 55.1365 32.2141 55.3533 32.1694C55.5701 32.1264 55.7372 32.0602 55.8562 31.9725C56.0624 31.5806 56.2881 30.7789 56.5387 29.5693L58.1613 29.1774L58.323 29.2919C58.1933 29.8484 58.0689 30.3298 57.9498 30.7396C57.8307 31.1476 57.701 31.5108 57.5606 31.8258C58.0795 32.0978 58.8491 32.2338 59.8656 32.2338C60.1038 32.2338 60.2708 32.2803 60.3686 32.3734H60.3704ZM55.8562 37.4823L54.3794 36.4516L55.2893 35.0791L56.7502 36.0919L55.858 37.4823H55.8562ZM58.1773 37.4823L56.7164 36.4516L57.6263 35.0791L59.0872 36.0919L58.1773 37.4823Z" fill="#939393"/>
<path d="M67.2375 31.9905L66.7506 33.4453C66.0681 33.5759 65.1653 33.6761 64.0386 33.7477C62.9136 33.8193 61.3976 33.8533 59.4924 33.8533L59.8497 32.2356H61.3763C60.9977 31.6254 60.8076 30.9991 60.8076 30.3549C60.8076 29.7554 60.948 29.2382 61.2305 28.8016C61.5114 28.365 61.8988 28.0339 62.3911 27.8049C62.8834 27.5758 63.4379 27.4613 64.0546 27.4613C64.4224 27.4613 64.8116 27.5078 65.224 27.6009C65.6345 27.6939 65.997 27.8156 66.3116 27.9695L66.1037 29.376L66.0344 29.4261C65.3039 29.1649 64.6624 29.0342 64.1061 29.0342C63.5498 29.0342 63.118 29.1559 62.8123 29.4011C62.5066 29.6463 62.352 29.997 62.352 30.4551C62.352 30.7271 62.4213 31.017 62.5581 31.3212C62.695 31.6272 62.8958 31.9153 63.1588 32.1873C64.6677 32.1551 65.9935 32.062 67.1362 31.9099L67.2393 31.9922L67.2375 31.9905Z" fill="#939393"/>
<path d="M75.8269 32.3734C75.9246 32.4664 75.9726 32.5988 75.9726 32.7742C75.9726 33.0802 75.8944 33.3361 75.738 33.5419C75.5816 33.7495 75.3133 33.8533 74.9347 33.8533H73.8151C73.6089 34.3973 73.2961 34.8858 72.8731 35.3171C72.4519 35.7483 71.9099 36.0901 71.2505 36.3478C70.5894 36.6037 69.8217 36.7379 68.9455 36.7486L68.1333 35.5389L68.2311 35.3922C69.237 35.3707 70.0918 35.2294 70.7956 34.9663C71.4994 34.7051 72.0183 34.3346 72.3542 33.8551H72.0627C71.0337 33.8551 70.266 33.6618 69.7577 33.2753C69.2494 32.8887 68.9953 32.3412 68.9953 31.6325C68.9953 31.1207 69.109 30.6107 69.3365 30.1043C69.564 29.5979 69.8696 29.1809 70.2535 28.8535C70.6374 28.526 71.0515 28.3632 71.4958 28.3632C71.9934 28.3632 72.4377 28.5367 72.8269 28.8857C73.2161 29.2346 73.5218 29.7053 73.744 30.2994C73.9661 30.8935 74.0816 31.5395 74.0923 32.2374H75.2937C75.5532 32.2374 75.7327 32.2839 75.8304 32.3769L75.8269 32.3734ZM70.6641 32.0298C70.9555 32.1658 71.4371 32.2338 72.1089 32.2338H72.7914C72.7914 31.8312 72.7203 31.4482 72.5799 31.0885C72.4395 30.7288 72.2636 30.4425 72.0521 30.2296C71.8406 30.0166 71.6273 29.9111 71.4105 29.9111C71.215 29.9111 71.0266 29.9773 70.8418 30.1079C70.6569 30.2385 70.5094 30.4193 70.3957 30.6465C70.282 30.8756 70.2251 31.1261 70.2251 31.3981C70.2251 31.6701 70.3708 31.892 70.6641 32.028V32.0298Z" fill="#939393"/>
<path d="M86.266 32.3734C86.3638 32.4664 86.4118 32.5988 86.4118 32.7742C86.4118 33.0802 86.3354 33.3361 86.1843 33.5419C86.0332 33.7495 85.7667 33.8533 85.3881 33.8533C85.0096 33.8533 84.6132 33.796 84.2027 33.6815C83.7922 33.5669 83.4296 33.4005 83.115 33.1822C82.7258 33.4542 82.2282 33.6349 81.6222 33.7208C81.0161 33.8085 80.14 33.8515 78.9919 33.8515H74.9487L75.3219 32.2338H75.9884L76.7028 31.5466V23.0126L78.1495 22.6207L78.2615 22.703L78.2455 30.0918C79.0079 29.4171 79.6797 28.9143 80.2608 28.5886C80.8438 28.2611 81.3734 28.0983 81.8532 28.0983C82.3331 28.0983 82.7401 28.2325 83.1097 28.4991C83.4794 28.7658 83.7708 29.1094 83.9823 29.5299C84.1938 29.9504 84.3004 30.3835 84.3004 30.829C84.3004 31.2317 84.224 31.6021 84.073 31.9403C84.5599 32.1371 85.1233 32.2356 85.7613 32.2356C85.9995 32.2356 86.1665 32.2821 86.2643 32.3751L86.266 32.3734ZM80.9664 32.2105C81.4107 32.1944 81.7626 32.1676 82.0203 32.1282C82.278 32.0888 82.4912 32.028 82.6636 31.9403C82.7276 31.8311 82.7791 31.7041 82.8165 31.5556C82.8538 31.4088 82.8733 31.2531 82.8733 31.0903C82.8733 30.872 82.82 30.6519 82.7116 30.4282C82.605 30.2045 82.4575 30.0202 82.2691 29.8717C82.0807 29.7231 81.8692 29.6516 81.6346 29.6516C81.217 29.6516 80.6909 29.8717 80.0582 30.3137C79.4255 30.7557 78.6702 31.3945 77.7905 32.2338H79.0932C79.8965 32.2338 80.5221 32.2248 80.9664 32.2087V32.2105Z" fill="#939393"/>
<path d="M91.8999 32.3733C91.9977 32.4664 92.0456 32.5988 92.0456 32.7742C92.0456 33.0802 91.9728 33.3361 91.827 33.5419C91.6813 33.7494 91.4183 33.8532 91.0397 33.8532C90.4657 33.8532 89.9361 33.7906 89.4491 33.6653C88.9622 33.5401 88.5623 33.3468 88.2477 33.0855C87.9651 33.3468 87.6381 33.5401 87.2649 33.6653C86.8917 33.7906 86.451 33.8532 85.9409 33.8532H85.3882L85.7614 32.2355H86.2004C86.4385 32.2355 86.666 32.2141 86.8828 32.1693C87.0996 32.1264 87.2667 32.0602 87.3858 31.9725C87.5919 31.5806 87.8176 30.7789 88.0682 29.5692L89.6908 29.1773L89.8526 29.2919C89.7228 29.8484 89.5984 30.3298 89.4793 30.7395C89.3603 31.1475 89.2305 31.5108 89.0901 31.8258C89.6091 32.0978 90.3786 32.2338 91.3952 32.2338C91.6333 32.2338 91.8004 32.2803 91.8981 32.3733H91.8999ZM88.0362 27.429L86.5754 26.3983L87.4675 25.0258L88.9284 26.0386L88.0362 27.429ZM90.3253 27.429L88.8644 26.3983L89.7744 25.0258L91.2352 26.0386L90.3253 27.429Z" fill="#939393"/>
<path d="M97.0787 28.8839C97.5105 29.2329 97.8571 29.691 98.1183 30.2565C98.3778 30.8237 98.5076 31.4178 98.5076 32.0388C98.5076 32.6597 98.3583 33.1375 98.0615 33.5026C97.7629 33.8676 97.3275 34.0501 96.7552 34.0501C96.3002 34.0501 95.7884 33.9517 95.2215 33.7549C94.6528 33.558 94.0876 33.2646 93.5242 32.8727C93.2328 33.2431 92.888 33.499 92.4934 33.6404C92.0989 33.7817 91.6084 33.8533 91.0237 33.8533L91.3809 32.2356C91.6191 32.2356 91.8128 32.2034 91.9656 32.1372C92.1167 32.071 92.2553 31.9636 92.3797 31.8097C92.5041 31.6576 92.6481 31.4339 92.8098 31.1387C92.8524 31.051 93.0266 30.7378 93.3287 30.1992C93.6309 29.6606 93.9881 29.2186 94.4004 28.875C94.8109 28.5314 95.2446 28.3596 95.6995 28.3596C96.1865 28.3596 96.6468 28.5332 97.0804 28.8821L97.0787 28.8839ZM96.9063 31.3284C96.7694 30.9526 96.5881 30.6233 96.3642 30.3388C96.1403 30.056 95.9128 29.9129 95.6836 29.9129C95.52 29.9129 95.3637 29.9809 95.2161 30.1169C95.0686 30.2529 94.9282 30.4283 94.7967 30.6394C94.6652 30.8524 94.4839 31.1763 94.2547 31.6129C94.6705 31.8741 95.0669 32.0781 95.4454 32.2267C95.8239 32.3734 96.1439 32.4468 96.4069 32.4468C96.6912 32.4468 96.9152 32.3859 97.0804 32.266C97.1018 32.0155 97.0449 31.7024 96.9081 31.3266L96.9063 31.3284Z" fill="#939393"/>
</g>
<defs>
<clipPath id="clip0_1_7213">
<rect width="124" height="51" fill="white"/>
</clipPath>
</defs>
</svg>
