<svg width="226" height="16" viewBox="0 0 226 16" fill="none" xmlns="http://www.w3.org/2000/svg">
<g clip-path="url(#clip0_1_7132)">
<path d="M16.4832 12.1219L26.2821 3.72299C26.2821 3.72299 29.5321 2.1976 32.8423 5.3518L22.6939 13.6214C22.6939 13.6214 18.576 14.0757 16.4832 12.1219Z" fill="#939393"/>
<path d="M38.805 3.91137C37.8206 2.90675 36.8362 1.87628 35.6451 1.10065C35.3408 0.897516 35.0176 0.72023 34.6832 0.561412C34.2474 0.354579 33.7928 0.195761 33.3269 0.0886514C31.0688 -0.358255 29.5208 1.00463 29.5208 1.00463L26.3196 3.71561C27.8262 3.60481 29.1112 3.34258 30.5766 4.0074C31.8841 4.60204 32.8685 5.66944 33.8341 6.69992C35.6601 8.63897 37.5463 10.5189 39.4888 12.3472C39.6466 12.4949 39.8082 12.6464 40.0186 12.7091C40.1726 12.7572 40.3417 12.7535 40.5033 12.7498C41.5252 12.7091 42.5397 12.5725 43.5354 12.3361C44.486 12.1071 45.5042 11.723 45.9588 10.8883C43.5504 8.59096 41.1382 6.28994 38.8087 3.91506L38.805 3.91137Z" fill="#939393"/>
<path d="M57.2682 6.64456C59.4849 4.44327 61.6905 4.96405 62.8327 5.48482C63.1257 5.58085 63.4 5.7249 63.6292 5.94281C62.6636 4.65749 61.6679 3.34632 60.3191 2.41926C58.9702 1.49221 57.1817 1.00467 55.6225 1.5513C54.8034 1.8357 54.1121 2.38233 53.4696 2.95481C51.3317 4.86802 49.6033 7.16164 47.4467 9.049C46.8568 9.56608 46.2143 10.0573 45.5342 10.4968C45.4253 10.567 41.39 13.0675 38.9966 11.8893L39.8269 12.6464C39.8795 12.7092 39.9509 12.7683 40.0186 12.82L41.6229 14.2826C42.0963 14.7184 42.581 15.158 43.1521 15.4571C44.5836 16.2069 46.4021 15.9779 47.8487 15.2614C49.2952 14.5448 50.4525 13.3999 51.5834 12.2771C53.2779 10.5929 54.9687 8.91234 56.6632 7.22443C56.8624 7.02868 57.0615 6.83293 57.2719 6.64456H57.2682Z" fill="#939393"/>
<path d="M6.56393 6.64453C4.34714 4.44324 2.13787 4.96402 0.999421 5.48479C0.702597 5.58082 0.432074 5.72486 0.202881 5.94278C1.1685 4.65746 2.16417 3.34629 3.51303 2.41923C4.86189 1.49218 6.65035 1.00834 8.20961 1.55127C9.0287 1.83567 9.72003 2.3823 10.3625 2.95478C12.5004 4.86799 14.2287 7.16161 16.3854 9.04896C16.9753 9.56605 17.6178 10.0573 18.2979 10.4968C18.4068 10.567 22.4421 13.0674 24.8355 11.8892L24.0052 12.6464C23.9525 12.7092 23.8774 12.7683 23.8135 12.82L22.2092 14.2826C21.7358 14.7184 21.2511 15.1579 20.68 15.4571C19.2522 16.2069 17.4299 15.9779 15.9834 15.2613C14.5368 14.5448 13.3796 13.3998 12.2487 12.277C10.5541 10.5928 8.86338 8.91231 7.16885 7.2244C6.96971 7.02865 6.77058 6.8329 6.56017 6.64453H6.56393Z" fill="#939393"/>
<path d="M73.879 13.8541H80.8262V15.2207H72.3611V0.565114H73.8753V13.8541H73.879ZM88.8292 15.2207H87.315V0.565114H88.8292V15.2207ZM112.338 15.2207H103.809C102.727 15.2207 101.724 15.036 100.8 14.663C99.8868 14.29 99.094 13.7729 98.4215 13.1117C97.7489 12.4358 97.2229 11.6418 96.8434 10.7332C96.4639 9.8098 96.2761 8.80149 96.2761 7.71193C96.2761 6.62236 96.4639 5.62144 96.8434 4.70916C97.2229 3.7858 97.7489 2.99171 98.4215 2.33058C99.094 1.65468 99.8868 1.13021 100.8 0.757173C101.728 0.384135 102.731 0.199463 103.809 0.199463C104.888 0.199463 105.865 0.384135 106.778 0.757173C107.706 1.13021 108.506 1.65468 109.179 2.33058C109.851 2.99171 110.377 3.7858 110.757 4.70916C111.136 5.62144 111.324 6.61867 111.324 7.71193C111.324 9.03787 111.042 10.2309 110.482 11.2909C109.934 12.3398 109.051 13.1819 107.83 13.8172V13.8578H112.335V15.2244L112.338 15.2207ZM97.9142 7.70823C97.9142 8.52079 98.0457 9.30011 98.3125 10.0462C98.5793 10.7775 98.9663 11.4275 99.4697 11.9926C99.9732 12.5577 100.593 13.012 101.322 13.3592C102.051 13.6916 102.881 13.8541 103.806 13.8541C104.73 13.8541 105.538 13.6879 106.27 13.3592C106.999 13.0157 107.619 12.5577 108.123 11.9926C108.63 11.4275 109.013 10.7775 109.28 10.0462C109.547 9.30011 109.678 8.52079 109.678 7.70823C109.678 6.89568 109.547 6.12005 109.28 5.38875C109.013 4.64268 108.626 3.98894 108.123 3.42384C107.619 2.85874 106.999 2.40814 106.27 2.07943C105.541 1.73594 104.719 1.56234 103.806 1.56234C102.893 1.56234 102.051 1.73594 101.322 2.07943C100.593 2.41184 99.9732 2.85874 99.4697 3.42384C98.9625 3.98894 98.5793 4.64637 98.3125 5.38875C98.0457 6.12005 97.9142 6.89198 97.9142 7.70823ZM129.915 9.7581C129.915 10.3638 129.836 11.0139 129.682 11.7045C129.543 12.3804 129.269 13.0083 128.859 13.5882C128.453 14.1681 127.89 14.6519 127.176 15.036C126.473 15.4091 125.568 15.5937 124.459 15.5937C123.351 15.5937 122.423 15.4091 121.724 15.036C121.021 14.6482 120.469 14.1681 120.06 13.5882C119.654 13.0083 119.372 12.3804 119.218 11.7045C119.079 11.0139 119.008 10.3675 119.008 9.7581V0.565114H120.522V9.5882C120.522 10.2936 120.593 10.8994 120.732 11.4091C120.871 11.904 121.055 12.325 121.281 12.6722C121.521 13.0157 121.78 13.2927 122.058 13.4996C122.351 13.6916 122.641 13.843 122.923 13.9538C123.216 14.0647 123.497 14.1385 123.764 14.1828C124.031 14.2087 124.264 14.2235 124.459 14.2235C124.643 14.2235 124.865 14.2087 125.132 14.1828C125.414 14.1422 125.692 14.0647 125.973 13.9538C126.267 13.843 126.556 13.6916 126.838 13.4996C127.131 13.2927 127.394 13.0157 127.615 12.6722C127.856 12.3287 128.044 11.9077 128.183 11.4091C128.322 10.8994 128.393 10.29 128.393 9.5882V0.565114H129.907V9.7544L129.915 9.7581ZM139.631 15.2207H138.113V0.565114H139.631V15.2207ZM149.393 13.8541H152.342C153.48 13.8541 154.461 13.6879 155.291 13.3592C156.133 13.0157 156.828 12.5651 157.377 12.0148C157.937 11.4497 158.354 10.8144 158.62 10.109C158.887 9.39245 159.022 8.65376 159.022 7.89291C159.022 7.13206 158.887 6.40445 158.62 5.699C158.354 4.98247 157.94 4.3472 157.377 3.79318C156.828 3.22809 156.133 2.77749 155.291 2.44877C154.465 2.10528 153.48 1.93169 152.342 1.93169H149.393V13.8541ZM147.878 0.565114H152.827C153.755 0.565114 154.679 0.716545 155.607 1.01941C156.546 1.32227 157.388 1.78395 158.132 2.40445C158.891 3.01017 159.5 3.77841 159.965 4.70177C160.428 5.61405 160.661 6.67407 160.661 7.88921C160.661 9.10436 160.428 10.1865 159.965 11.0988C159.503 12.0111 158.891 12.7756 158.132 13.3961C157.388 14.0019 156.546 14.4599 155.607 14.7627C154.679 15.0656 153.755 15.217 152.827 15.217H147.878V0.565114ZM169.633 15.217H168.115V0.565114H169.633V15.2207V15.217ZM182.87 15.217H181.356V1.93169H176.366V0.565114H187.863V1.93169H182.874V15.2207L182.87 15.217ZM199.383 15.217H197.869V8.9086L192.289 0.568807H194.183L198.624 7.48293L203.065 0.568807H204.959L199.379 8.9086V15.2207L199.383 15.217Z" fill="#939393"/>
</g>
<defs>
<clipPath id="clip0_1_7132">
<rect width="225.778" height="16" fill="white"/>
</clipPath>
</defs>
</svg>
