<svg width="120" height="50" viewBox="0 0 120 50" fill="none" xmlns="http://www.w3.org/2000/svg">
<g clip-path="url(#clip0_1_7373)">
<path d="M15.758 26.3954L25.2179 21.7023C25.2179 21.7023 28.7861 19.5348 28.7524 15.718L28.6155 -0.00219727C28.6155 -0.00219727 7.34494 6.63301 7.25858 18.6543C7.25858 18.6543 6.42233 27.7435 18.2141 32.2955L18.2688 45.8145C18.2688 45.8145 2.76349 43.213 2.66027 25.5655C2.66027 25.5655 2.2432 12.809 12.5667 6.38446C12.5667 6.38656 0.926693 10.9786 0.0104022 25.536C0.0104022 25.536 -1.21553 48.4159 21.7823 49.9999L21.7086 30.5113C21.7086 30.5113 10.6878 26.9431 10.6162 18.7028C10.6162 18.7028 9.78839 11.3072 25.4601 5.60087L25.5507 15.9792C25.5507 15.9792 25.5675 17.8876 23.676 19.8108L15.758 26.3975V26.3954Z" fill="#939393"/>
<path opacity="0.5" d="M22.6734 18.5195C22.6734 18.5195 24.0995 15.836 23.5771 8.43823C23.5771 8.43823 12.3899 12.1224 12.3899 20.8219C12.3899 20.8219 14.0813 13.5568 22.3027 11.0439L22.6734 18.5195Z" fill="#939393"/>
<path d="M42.8402 37.0203C41.8039 37.0203 41.2246 36.3778 41.2246 35.2319V20.9589C41.2246 19.8003 41.7912 19.1579 42.815 19.1579C43.7776 19.1579 44.3442 19.714 44.4179 20.725V21.3549H44.578C45.1088 19.9478 46.5517 19.0736 48.3906 19.0736C51.4386 19.0736 53.2628 21.258 53.2628 24.8957V26.7094C53.2628 30.3493 51.4133 32.5441 48.3401 32.5441C46.5517 32.5441 45.2057 31.7542 44.6265 30.3724H44.4664V35.2319C44.4664 36.3799 43.8871 37.0203 42.8381 37.0203H42.8402ZM47.2447 29.9385C48.9594 29.9385 49.9452 28.6431 49.9452 26.3976V25.2138C49.9452 22.9557 48.9594 21.6729 47.2195 21.6729C45.4796 21.6729 44.4685 22.9199 44.4685 25.0158V26.7557C44.4685 28.681 45.5786 29.9385 47.2447 29.9385Z" fill="#939393"/>
<path d="M59.6074 32.5419C57.0544 32.5419 55.3271 30.939 55.3271 28.5566C55.3271 26.1742 57.1155 24.6471 60.0877 24.6471H63.1967V23.5749C63.1967 22.2542 62.371 21.5633 60.8776 21.5633C59.8918 21.5633 59.1882 21.934 58.4594 22.587C58.0887 22.884 57.7432 23.0188 57.2124 23.0188C56.4962 23.0188 56.0518 22.5386 56.0518 21.8708C56.0518 21.1062 56.5826 20.3289 57.7285 19.7497C58.5542 19.3179 59.6537 19.0714 61.084 19.0714C64.5132 19.0714 66.4385 20.6997 66.4385 23.5981V30.7536C66.4385 31.8637 65.8698 32.4935 64.8587 32.4935C63.9951 32.4935 63.4284 32.0132 63.3294 31.1601V30.703H63.1693C62.5037 31.8742 61.2083 32.5419 59.6053 32.5419H59.6074ZM60.6922 30.1975C62.0993 30.1975 63.1967 29.2349 63.1967 28.0026V26.6461H60.6796C59.3462 26.6461 58.5584 27.2885 58.5584 28.3607C58.5584 29.4329 59.422 30.1996 60.6922 30.1996V30.1975Z" fill="#939393"/>
<path d="M71.241 14.2604C72.3132 14.2604 73.0904 14.9766 73.0904 15.9624C73.0904 16.9482 72.3132 17.677 71.241 17.677C70.1688 17.677 69.4021 16.9482 69.4021 15.9624C69.4021 14.9766 70.192 14.2604 71.241 14.2604ZM71.241 32.4935C70.2426 32.4935 69.6254 31.8763 69.6254 30.7052V20.9609C69.6254 19.7771 70.2426 19.1599 71.2536 19.1599C72.2647 19.1599 72.8693 19.7771 72.8693 20.9609V30.7052C72.8693 31.889 72.2521 32.4935 71.241 32.4935Z" fill="#939393"/>
<path d="M77.9646 14.2604C79.0368 14.2604 79.8141 14.9766 79.8141 15.9624C79.8141 16.9482 79.0368 17.677 77.9646 17.677C76.8925 17.677 76.1257 16.9482 76.1257 15.9624C76.1257 14.9766 76.9156 14.2604 77.9646 14.2604ZM77.9646 32.4935C76.9662 32.4935 76.349 31.8763 76.349 30.7052V20.9609C76.349 19.7771 76.9662 19.1599 77.9773 19.1599C78.9884 19.1599 79.5929 19.7771 79.5929 20.9609V30.7052C79.5929 31.889 78.9757 32.4935 77.9646 32.4935Z" fill="#939393"/>
<path d="M83.5658 28.5314C83.9849 28.5314 84.3051 28.7041 84.8738 29.1485C85.8238 29.9005 86.6748 30.246 87.747 30.246C89.0909 30.246 89.9187 29.6793 89.9187 28.7652C89.9187 28.0132 89.3394 27.4571 88.143 27.198L86.0703 26.7283C83.6395 26.1974 82.5062 25.0136 82.5062 23.0778C82.5062 20.6112 84.5789 18.9956 87.8102 18.9956C89.0572 18.9956 90.241 19.2673 91.1783 19.7729C92.1157 20.2784 92.6718 21.0072 92.6718 21.7592C92.6718 22.4628 92.1789 22.8946 91.4374 22.8946C91.0541 22.8946 90.7107 22.7703 90.1041 22.3385C89.1667 21.6223 88.5011 21.3759 87.6375 21.3759C86.3905 21.3759 85.6385 21.9678 85.6385 22.8798C85.6385 23.6318 86.144 24.0763 87.2667 24.3354L89.6238 24.8409C91.9556 25.3591 93.0531 26.5303 93.0531 28.4808C93.0531 31.0591 90.993 32.6494 87.5764 32.6494C86.1461 32.6494 84.8507 32.3524 83.8754 31.8363C82.877 31.3055 82.3335 30.5661 82.3335 29.7383C82.3335 29.0116 82.8264 28.5292 83.5679 28.5292L83.5658 28.5314Z" fill="#939393"/>
<path d="M99.2944 32.5419C96.7414 32.5419 95.0142 30.939 95.0142 28.5566C95.0142 26.1742 96.8025 24.6471 99.7747 24.6471H102.884V23.5749C102.884 22.2542 102.058 21.5633 100.565 21.5633C99.5788 21.5633 98.8752 21.934 98.1464 22.587C97.7757 22.884 97.4302 23.0188 96.8994 23.0188C96.1832 23.0188 95.7388 22.5386 95.7388 21.8708C95.7388 21.1062 96.2696 20.3289 97.4155 19.7497C98.2412 19.3179 99.3407 19.0714 100.771 19.0714C104.2 19.0714 106.126 20.6997 106.126 23.5981V30.7536C106.126 31.8637 105.557 32.4935 104.546 32.4935C103.682 32.4935 103.115 32.0132 103.016 31.1601V30.703H102.856C102.191 31.8742 100.895 32.5419 99.2923 32.5419H99.2944ZM100.379 30.1975C101.786 30.1975 102.884 29.2349 102.884 28.0026V26.6461H100.367C99.0332 26.6461 98.2454 27.2885 98.2454 28.3607C98.2454 29.4329 99.109 30.1996 100.379 30.1996V30.1975Z" fill="#939393"/>
<path d="M109.46 34.5515C109.719 34.5515 109.94 34.6125 110.311 34.6125C111.05 34.6125 111.667 34.0691 111.939 33.2307C111.975 33.157 112.099 32.6135 112.099 32.5272L108.251 21.6096C108.128 21.2515 108.091 20.9672 108.091 20.7334C108.091 19.8571 108.769 19.2041 109.694 19.2041C110.57 19.2041 111.124 19.7096 111.383 20.7586L113.923 29.6772H114.058L116.624 20.7586C116.895 19.7096 117.439 19.2041 118.29 19.2041C119.141 19.2041 119.832 19.8466 119.832 20.7207C119.832 20.9672 119.783 21.2263 119.646 21.6096L115.712 32.8979C114.688 35.8343 113.171 37.0433 110.542 37.0433C109.691 37.0433 109.026 36.8453 108.642 36.4767C108.409 36.2429 108.284 35.9459 108.284 35.6004C108.284 34.9959 108.754 34.5515 109.456 34.5515H109.46Z" fill="#939393"/>
</g>
<defs>
<clipPath id="clip0_1_7373">
<rect width="119.834" height="50" fill="white"/>
</clipPath>
</defs>
</svg>
