<svg width="141" height="43" viewBox="0 0 141 43" fill="none" xmlns="http://www.w3.org/2000/svg">
<g clip-path="url(#clip0_1_7185)">
<path d="M23.9576 42.5232L28.3414 33.6327C28.3863 33.5507 28.4536 33.4874 28.592 33.4874H28.7341C28.8613 33.4874 28.9324 33.5545 28.9773 33.6327L33.3349 42.5232C33.4209 42.6908 33.305 42.8621 33.088 42.8621H32.512C32.3848 42.8621 32.2913 42.7802 32.2651 42.7169L31.1953 40.538H26.0747L25.0236 42.7169C24.9937 42.7839 24.9114 42.8621 24.773 42.8621H24.2007C23.9838 42.8621 23.8678 42.6908 23.9538 42.5232M30.8063 39.7186C30.0994 38.2772 29.4074 36.8284 28.7005 35.3869H28.5883L26.4786 39.7186H30.8063Z" fill="#939393"/>
<path d="M34.4646 37.834C34.4646 37.7036 34.5918 37.5807 34.7377 37.5807H35.0144C35.1304 37.5807 35.2314 37.6478 35.2613 37.7632L35.3735 38.1469C35.3735 38.1469 35.9084 37.4467 37.1054 37.4467C37.5392 37.4467 38.2612 37.5137 38.1153 37.8824L37.9432 38.3331C37.8722 38.5044 37.7412 38.5044 37.5991 38.4486C37.4682 38.3964 37.255 38.3443 37.0343 38.3443C35.9383 38.3443 35.4633 39.0817 35.4633 39.0817V42.6052C35.4633 42.7392 35.3324 42.8584 35.1865 42.8584H34.7377C34.5955 42.8584 34.4646 42.743 34.4646 42.6052V37.8266V37.834Z" fill="#939393"/>
<path d="M39.6601 38.3741H38.9269C38.7661 38.3741 38.6501 38.2587 38.6501 38.1246V37.8341C38.6501 37.6888 38.7624 37.5771 38.9269 37.5771H39.6601V36.1133C39.6601 35.983 39.7872 35.8601 39.9331 35.8601L40.3969 35.834C40.5391 35.834 40.6588 35.9532 40.6588 36.0835V37.5771H42.3307C42.4878 37.5771 42.6075 37.6851 42.6075 37.8341V38.1246C42.6075 38.2549 42.4916 38.3741 42.3307 38.3741H40.6588V41.4655C40.6588 41.9907 40.8009 42.0987 41.1338 42.0987C41.4929 42.0987 42.0016 41.9013 42.1886 41.8044C42.4018 41.7002 42.4617 41.7821 42.529 41.8864L42.7497 42.2179C42.8507 42.3743 42.8058 42.4525 42.6449 42.5456C42.4467 42.6648 41.6687 42.9963 40.9842 42.9963C39.8321 42.9963 39.6601 42.3594 39.6601 41.54V38.3704V38.3741Z" fill="#939393"/>
<path d="M44.0176 34.5192C44.0176 34.1617 44.3206 33.8823 44.6983 33.8823C45.0761 33.8823 45.3903 34.1617 45.3903 34.5192C45.3903 34.8768 45.0873 35.1375 44.6983 35.1375C44.3093 35.1375 44.0176 34.8619 44.0176 34.5192ZM44.2233 37.8341C44.2233 37.7037 44.3505 37.5808 44.4964 37.5808H44.9452C45.0873 37.5808 45.222 37.7 45.222 37.8341V42.6127C45.222 42.7468 45.0911 42.866 44.9452 42.866H44.4964C44.3542 42.866 44.2233 42.7505 44.2233 42.6127V37.8341Z" fill="#939393"/>
<path d="M46.9203 42.1248C46.9802 42.0428 47.0774 41.8603 47.1223 41.797C47.1934 41.6927 47.3505 41.6629 47.5076 41.756C47.5076 41.756 48.1285 42.2179 48.8653 42.2179C49.4563 42.2179 49.8042 41.9385 49.8042 41.5847C49.8042 41.1229 49.374 40.9105 48.5362 40.5269C47.7731 40.188 46.8904 39.7224 46.8904 38.8248C46.8904 38.2661 47.3841 37.4504 48.7232 37.4504C49.4713 37.4504 50.0548 37.6888 50.3241 37.8601C50.4513 37.9384 50.4962 38.1246 50.4101 38.2661L50.2979 38.4821C50.2119 38.6237 50.0099 38.6646 49.8827 38.5976C49.8827 38.5976 49.2618 38.281 48.7269 38.281C48.0761 38.281 47.9078 38.5864 47.9078 38.8099C47.9078 39.2457 48.3828 39.4431 48.9738 39.7112C49.9688 40.147 50.8627 40.553 50.8627 41.5028C50.8627 42.2663 50.0585 42.9963 48.8691 42.9963C47.9078 42.9963 47.3093 42.6276 46.9951 42.4004C46.924 42.352 46.8829 42.2179 46.924 42.1248" fill="#939393"/>
<path d="M52.7777 38.3741H52.0445C51.8874 38.3741 51.7715 38.2587 51.7715 38.1246V37.8341C51.7715 37.6888 51.8837 37.5771 52.0445 37.5771H52.7777V36.1133C52.7777 35.983 52.9048 35.8601 53.0545 35.8601L53.5145 35.834C53.6604 35.834 53.7764 35.9532 53.7764 36.0835V37.5771H55.4521C55.6092 37.5771 55.7251 37.6851 55.7251 37.8341V38.1246C55.7251 38.2549 55.6129 38.3741 55.4521 38.3741H53.7764V41.4655C53.7764 41.9907 53.9222 42.0987 54.2514 42.0987C54.6142 42.0987 55.1192 41.9013 55.3062 41.8044C55.5232 41.7002 55.583 41.7821 55.6503 41.8864L55.871 42.2179C55.972 42.3743 55.9234 42.4525 55.7663 42.5456C55.568 42.6648 54.79 42.9963 54.1093 42.9963C52.9572 42.9963 52.7814 42.3594 52.7814 41.54V38.3704L52.7777 38.3741Z" fill="#939393"/>
<path d="M59.7499 37.4467C61.2648 37.4467 62.3645 38.4784 62.3645 39.864C62.3645 39.9571 62.3495 40.1284 62.3346 40.2215C62.3196 40.3519 62.2074 40.4413 62.0727 40.4413H57.9208C57.9769 41.3277 58.8298 42.162 59.8546 42.162C60.4606 42.162 60.9506 41.9497 61.2835 41.7635C61.4817 41.6592 61.5715 41.5959 61.6837 41.7411C61.7697 41.8454 61.8408 41.9348 61.9268 42.0465C62.0316 42.162 62.0839 42.2402 61.8707 42.3855C61.5266 42.6388 60.7449 42.9926 59.7499 42.9926C58.0031 42.9926 56.9221 41.7411 56.9221 40.2215C56.9221 38.7019 58.0031 37.443 59.7499 37.443M61.3658 39.7038C61.3209 38.9365 60.6327 38.2512 59.7499 38.2512C58.7849 38.2512 58.033 38.8807 57.932 39.7038H61.3695H61.3658Z" fill="#939393"/>
<path d="M65.8281 39.5101C66.4453 39.5101 67.0512 39.6814 67.0512 39.6814C67.0625 38.7019 66.9353 38.2549 66.1124 38.2549C65.2895 38.2549 64.6386 38.4523 64.3806 38.5455C64.2384 38.6013 64.1449 38.5343 64.1038 38.4151L63.9916 38.0873C63.9317 37.9272 64.0177 37.849 64.1449 37.7931C64.2384 37.7521 65.0725 37.4504 66.1498 37.4504C67.6235 37.4504 67.9826 38.1432 67.9826 39.6852V42.6127C67.9826 42.743 67.8517 42.8697 67.7058 42.8697H67.4328C67.2719 42.8697 67.227 42.784 67.1859 42.6723L67.0699 42.311C66.767 42.5903 66.176 43.0038 65.2857 43.0038C64.2758 43.0038 63.509 42.3259 63.509 41.2718C63.509 40.2178 64.3319 39.5138 65.8206 39.5138M65.4429 42.2067C66.1648 42.2067 66.7857 41.797 67.0288 41.4692V40.4264C66.8567 40.3295 66.449 40.2141 65.8206 40.2141C65.009 40.2141 64.4367 40.5828 64.4367 41.2718C64.4367 41.797 64.8219 42.2104 65.4429 42.2104" fill="#939393"/>
<path d="M78.123 33.4838C79.578 33.4838 80.6328 33.9493 81.6091 34.7129C81.7213 34.8172 81.7362 34.9773 81.624 35.0816L81.2388 35.4392C81.1228 35.5658 81.0031 35.5546 80.861 35.4243C80.1129 34.8283 79.0843 34.4335 78.1043 34.4335C75.8263 34.4335 74.0795 36.1915 74.0795 38.24C74.0795 40.2885 75.8263 42.0316 78.1043 42.0316C79.3611 42.0316 80.0979 41.5698 80.861 41.0409C81.0031 40.9366 81.1228 40.9478 81.2088 41.0036L81.639 41.3538C81.7512 41.4357 81.725 41.6219 81.624 41.7113C80.6478 42.5829 79.4059 42.9963 78.123 42.9963C75.2391 42.9963 72.9163 40.8919 72.9163 38.2549C72.9163 35.6179 75.2391 33.4838 78.123 33.4838Z" fill="#939393"/>
<path d="M83.2175 37.834C83.2175 37.7036 83.3447 37.5807 83.4943 37.5807H83.7674C83.8833 37.5807 83.9843 37.6478 84.0142 37.7632L84.1265 38.1469C84.1265 38.1469 84.6613 37.4467 85.862 37.4467C86.2922 37.4467 87.0141 37.5137 86.8682 37.8824L86.6961 38.3331C86.6213 38.5044 86.4942 38.5044 86.352 38.4486C86.2211 38.3964 86.0079 38.3443 85.791 38.3443C84.6913 38.3443 84.2162 39.0817 84.2162 39.0817V42.6052C84.2162 42.7392 84.0853 42.8584 83.9394 42.8584H83.4943C83.3484 42.8584 83.2175 42.743 83.2175 42.6052V37.8266V37.834Z" fill="#939393"/>
<path d="M90.403 37.4467C91.9179 37.4467 93.0175 38.4784 93.0175 39.864C93.0175 39.9571 93.0026 40.1284 92.9876 40.2215C92.9727 40.3519 92.8604 40.4413 92.7221 40.4413H88.5739C88.63 41.3277 89.4828 42.162 90.5077 42.162C91.1137 42.162 91.6037 41.9497 91.9328 41.7635C92.1348 41.6592 92.2246 41.5959 92.3368 41.7411C92.4228 41.8454 92.4939 41.9348 92.5837 42.0465C92.6846 42.162 92.7408 42.2402 92.5238 42.3855C92.1797 42.6388 91.3979 42.9926 90.403 42.9926C88.6562 42.9926 87.5752 41.7411 87.5752 40.2215C87.5752 38.7019 88.6562 37.443 90.403 37.443M92.0188 39.7038C91.974 38.9365 91.2857 38.2512 90.403 38.2512C89.4379 38.2512 88.6861 38.8807 88.5851 39.7038H92.0226H92.0188Z" fill="#939393"/>
<path d="M96.485 39.5101C97.1022 39.5101 97.7081 39.6814 97.7081 39.6814C97.7194 38.7019 97.5922 38.2549 96.7693 38.2549C95.9464 38.2549 95.2956 38.4523 95.0375 38.5455C94.8953 38.6013 94.8018 38.5343 94.7607 38.4151L94.6485 38.0873C94.5886 37.9272 94.6746 37.849 94.8018 37.7931C94.8953 37.7521 95.7294 37.4504 96.8067 37.4504C98.2804 37.4504 98.6395 38.1432 98.6395 39.6852V42.6127C98.6395 42.743 98.5123 42.8697 98.3627 42.8697H98.0897C97.9326 42.8697 97.8877 42.784 97.8465 42.6723L97.7306 42.311C97.4239 42.5903 96.8329 43.0038 95.9427 43.0038C94.9327 43.0038 94.1697 42.3259 94.1697 41.2718C94.1697 40.2178 94.9888 39.5138 96.4775 39.5138M96.0998 42.2067C96.8217 42.2067 97.4426 41.797 97.6857 41.4692V40.4264C97.5136 40.3295 97.1097 40.2141 96.4775 40.2141C95.6659 40.2141 95.0936 40.5828 95.0936 41.2718C95.0936 41.797 95.4788 42.2104 96.0998 42.2104" fill="#939393"/>
<path d="M101.029 38.3741H100.296C100.135 38.3741 100.02 38.2587 100.02 38.1246V37.8341C100.02 37.6888 100.132 37.5771 100.296 37.5771H101.029V36.1133C101.029 35.983 101.157 35.8601 101.303 35.8601L101.766 35.834C101.908 35.834 102.028 35.9532 102.028 36.0835V37.5771H103.7C103.857 37.5771 103.977 37.6851 103.977 37.8341V38.1246C103.977 38.2549 103.861 38.3741 103.7 38.3741H102.028V41.4655C102.028 41.9907 102.17 42.0987 102.503 42.0987C102.862 42.0987 103.371 41.9013 103.558 41.8044C103.771 41.7002 103.835 41.7821 103.898 41.8864L104.119 42.2179C104.22 42.3743 104.175 42.4525 104.014 42.5456C103.812 42.6648 103.034 42.9963 102.357 42.9963C101.205 42.9963 101.029 42.3594 101.029 41.54V38.3704V38.3741Z" fill="#939393"/>
<path d="M107.998 37.4467C109.513 37.4467 110.609 38.4784 110.609 39.864C110.609 39.9571 110.598 40.1284 110.579 40.2215C110.564 40.3519 110.452 40.4413 110.317 40.4413H106.165C106.225 41.3277 107.078 42.162 108.099 42.162C108.705 42.162 109.195 41.9497 109.528 41.7635C109.726 41.6592 109.82 41.5959 109.928 41.7411C110.018 41.8454 110.085 41.9348 110.175 42.0465C110.28 42.162 110.332 42.2402 110.119 42.3855C109.771 42.6388 108.989 42.9926 107.998 42.9926C106.251 42.9926 105.167 41.7411 105.167 40.2215C105.167 38.7019 106.251 37.443 107.998 37.443M109.61 39.7038C109.565 38.9365 108.877 38.2512 107.998 38.2512C107.033 38.2512 106.277 38.8807 106.176 39.7038H109.614H109.61Z" fill="#939393"/>
<path d="M114.536 37.4467C115.486 37.4467 116.081 37.7894 116.081 37.7894V33.8674C116.081 33.7333 116.208 33.6141 116.354 33.6141H116.803C116.945 33.6141 117.076 33.7296 117.076 33.8674V42.6089C117.076 42.743 116.949 42.8622 116.803 42.8622H116.5C116.369 42.8622 116.279 42.7691 116.253 42.6499L116.163 42.2961C116.163 42.2961 115.471 43 114.387 43C112.913 43 111.765 41.7299 111.765 40.2103C111.765 38.6907 112.801 37.4467 114.536 37.4467ZM114.491 42.162C115.528 42.162 116.062 41.2904 116.062 41.2904V38.6497C116.062 38.6497 115.456 38.3331 114.663 38.3331C113.407 38.3331 112.771 39.1674 112.771 40.2252C112.771 41.283 113.437 42.1657 114.491 42.1657" fill="#939393"/>
<path d="M16.4766 37.9644H3.5459V38.5119H16.4766V37.9644Z" fill="#939393"/>
<path d="M19.3831 38.24C19.3831 37.8862 19.6973 37.5957 20.0825 37.5957C20.4678 37.5957 20.7895 37.8862 20.7895 38.24C20.7895 38.5939 20.4753 38.8844 20.0825 38.8844C19.6898 38.8844 19.3831 38.5976 19.3831 38.24Z" fill="#939393"/>
<path d="M137.454 37.9644H124.523V38.5119H137.454V37.9644Z" fill="#939393"/>
<path d="M121.617 38.24C121.617 37.8862 121.303 37.5957 120.918 37.5957C120.532 37.5957 120.211 37.8862 120.211 38.24C120.211 38.5939 120.525 38.8844 120.918 38.8844C121.31 38.8844 121.617 38.5976 121.617 38.24Z" fill="#939393"/>
<path d="M141 29.1707H0V0H141V29.1707ZM0.673281 28.5562H140.33V0.614552H0.673281V28.5562Z" fill="#939393"/>
<path d="M44.6947 10.0153C43.8344 11.4307 39.1776 19.1405 37.7525 21.6955C37.2475 22.6006 36.6079 22.6043 35.583 22.3213C38.6128 17.2224 41.5902 12.1942 44.7247 6.9165C47.8405 12.1607 50.8403 17.2 53.8439 22.2468C52.7143 22.7086 52.2692 22.5857 51.7679 21.7477C49.5648 18.0269 44.8967 10.2574 44.6947 10.0153Z" fill="#939393"/>
<path d="M87.0254 22.0568C90.0664 16.9393 93.055 11.9148 96.182 6.64087C99.3053 11.8962 102.294 16.9281 105.335 22.0494C104.321 22.2766 103.697 22.3361 103.192 21.4572C101.101 17.822 98.92 14.2315 96.7767 10.6224C96.6234 10.3617 96.4625 10.101 96.2082 9.68011C95.9389 10.0973 95.7406 10.3915 95.5686 10.6857C93.4702 14.2129 91.3456 17.7289 89.3071 21.2933C88.7946 22.1723 88.1774 22.3548 87.0254 22.0568Z" fill="#939393"/>
<path d="M113.534 21.1853C113.874 20.459 114.252 20.2243 115.183 20.6154C118.868 22.1611 122.9 20.4776 124.194 16.9467C125.384 13.7101 123.147 10.0004 119.418 9.18476C117.892 8.85327 116.313 8.93521 114.899 9.69502C114.334 10.0004 114.001 9.91104 113.702 9.42313C113.343 8.84954 113.807 8.69684 114.23 8.49199C118.157 6.62598 123.035 8.07111 125.066 11.7175C127.104 15.375 125.556 19.8184 121.61 21.6695C119.1 22.8502 116.605 22.798 114.11 21.6471C113.968 21.5764 113.826 21.5019 113.699 21.405C113.624 21.3529 113.59 21.2635 113.534 21.1853Z" fill="#939393"/>
<path d="M27.4063 20.9134C25.2219 22.9358 20.2434 22.5671 17.4717 20.1797C14.3447 17.4868 14.21 12.7268 17.1725 9.76953C19.8207 7.12882 24.8516 6.58504 27.4101 8.66334C27.0585 9.71366 26.9425 9.76953 25.9476 9.33748C23.131 8.10093 19.9367 8.7937 17.943 11.0769C16.0578 13.2296 15.9942 16.3694 17.7896 18.4738C19.7908 20.8277 22.9664 21.5652 25.8466 20.3435C26.5448 20.0481 27.0647 20.2393 27.4063 20.9171" fill="#939393"/>
<path d="M65.6224 17.5091V8.39885H70.2269C73.3689 8.39885 75.1531 9.62051 75.1531 12.0266C75.1531 14.4326 73.3689 15.7623 70.2269 15.7623H68.8803V17.5128H70.2269C70.6196 17.5128 71.0199 17.5128 71.3864 17.4681C71.839 17.4123 72.7367 17.241 73.1706 17.1292C75.7029 16.4811 77.0532 14.6114 77.0532 11.9819C77.0532 8.6037 74.5546 6.65576 70.2232 6.65576H63.6362V22.5186H65.6187V17.5091H65.6224Z" fill="#939393"/>
<path d="M74.9363 19.4683H72.8154L74.9812 22.5187H77.2329L74.9363 19.4683Z" fill="#939393"/>
</g>
<defs>
<clipPath id="clip0_1_7185">
<rect width="141" height="43" fill="white"/>
</clipPath>
</defs>
</svg>
