<svg width="18" height="17" viewBox="0 0 18 17" fill="none" xmlns="http://www.w3.org/2000/svg">
<path d="M9.00002 16.8334C4.39752 16.8334 0.666687 13.1025 0.666687 8.50002C0.666687 3.89752 4.39752 0.166687 9.00002 0.166687C13.6025 0.166687 17.3334 3.89752 17.3334 8.50002C17.3334 13.1025 13.6025 16.8334 9.00002 16.8334ZM9.00002 15.1667C10.7681 15.1667 12.4638 14.4643 13.7141 13.2141C14.9643 11.9638 15.6667 10.2681 15.6667 8.50002C15.6667 6.73191 14.9643 5.03622 13.7141 3.78598C12.4638 2.53573 10.7681 1.83335 9.00002 1.83335C7.23191 1.83335 5.53622 2.53573 4.28598 3.78598C3.03573 5.03622 2.33335 6.73191 2.33335 8.50002C2.33335 10.2681 3.03573 11.9638 4.28598 13.2141C5.53622 14.4643 7.23191 15.1667 9.00002 15.1667V15.1667ZM8.16919 11.8334L4.63335 8.29752L5.81169 7.11919L8.16919 9.47669L12.8825 4.76252L14.0617 5.94085L8.16919 11.8334Z" fill="#47C094"/>
</svg>
