<?xml version="1.0" encoding="utf-8"?>
<!-- Generator: Adobe Illustrator 21.1.0, SVG Export Plug-In . SVG Version: 6.00 Build 0)  -->
<svg version="1.1" id="Layer_1" xmlns="http://www.w3.org/2000/svg" xmlns:xlink="http://www.w3.org/1999/xlink" x="0px" y="0px"
	 viewBox="0 0 1000 347" style="enable-background:new 0 0 1000 347;" xml:space="preserve">
<style type="text/css">
	.st0{fill:#FFFFFF;stroke:#FFFFFF;stroke-miterlimit:10;}
</style>
<g>
	<polyline class="st0" points="302.7,227.8 90,129.1 45.7,149.4 45.7,161.7 246.1,253.8 211.9,269.5 45.7,192.7 45.7,242.5 
		211.9,320.1 379.6,242.5 379.6,192.5 379.6,192.5 379.6,180.2 179.4,88 213.4,72.4 379.6,149.2 379.6,99.4 213.4,21.8 45.7,99.4 
		45.7,149.4 122.5,114.1 335.1,212.9 	"/>
	<polygon class="st0" points="90,129.1 45.7,149.4 45.7,161.7 92.2,182.9 145.8,154.8 	"/>
	<polyline class="st0" points="122.5,114.1 179,140.4 234.7,113.5 179.2,87.9 	"/>
	<polygon class="st0" points="335.1,212.9 379.6,193.3 379.6,180.2 334.3,159.4 280.6,187.6 	"/>
	<polyline class="st0" points="302.7,227.8 245.6,201.4 190.8,228.4 246.1,253.8 	"/>
</g>
<g>
	<path class="st0" d="M428.9,245.5v-21.4h16.2v2.3h-13.6v6.5h12.7v2.3h-12.7v7.9h14v2.3H428.9z"/>
	<path class="st0" d="M452.6,245.5v-21.4h2.6l10.1,13.3c0.4,0.5,0.8,1.1,1.3,1.8c0.5,0.7,0.9,1.2,1.1,1.6l0.4,0.6v-17.3h2.6v21.4
		h-2.6l-9.8-12.9c-0.5-0.6-1-1.3-1.5-2c-0.5-0.7-0.9-1.3-1.2-1.7l-0.4-0.6v17.2H452.6z"/>
	<path class="st0" d="M479.1,245.5v-21.4h8.1c3.3,0,6,1,8.1,3.1s3.1,4.6,3.1,7.6c0,3-1,5.5-3.1,7.6s-4.8,3.1-8.1,3.1H479.1z
		 M481.7,243.2h5.3c2.6,0,4.6-0.8,6.2-2.4c1.6-1.6,2.4-3.6,2.4-6c0-2.4-0.8-4.4-2.4-6c-1.6-1.6-3.7-2.4-6.2-2.4h-5.3V243.2z"/>
	<path class="st0" d="M505.7,245.5v-21.4h2.6v19h13.5v2.3H505.7z"/>
	<path class="st0" d="M528.9,245.5v-21.4h16.2v2.3h-13.6v6.5h12.7v2.3h-12.7v7.9h14v2.3H528.9z"/>
	<path class="st0" d="M551.6,242.6l1.2-2c1.9,1.9,4.2,2.9,7.1,2.9c1.5,0,2.8-0.3,3.9-1s1.7-1.6,1.7-2.9c0-0.5-0.1-0.9-0.3-1.3
		c-0.2-0.4-0.5-0.7-0.8-0.9c-0.3-0.2-0.7-0.5-1.2-0.7c-0.5-0.2-1-0.4-1.4-0.5c-0.4-0.1-0.9-0.3-1.6-0.4c-1-0.3-1.7-0.5-2.3-0.6
		c-0.6-0.2-1.2-0.4-2-0.7c-0.8-0.3-1.4-0.7-1.8-1.1c-0.4-0.4-0.8-0.9-1.1-1.5s-0.5-1.3-0.5-2.1c0-1.8,0.7-3.2,2.2-4.2
		s3.2-1.6,5.2-1.6c2.7,0,5.1,0.8,7.3,2.4l-1.2,2c-1.8-1.4-3.8-2-6-2c-1.1,0-2.2,0.3-3.2,0.9s-1.5,1.4-1.5,2.5c0,0.4,0.1,0.8,0.3,1.2
		c0.2,0.4,0.5,0.6,0.7,0.9c0.3,0.2,0.7,0.4,1.2,0.7c0.5,0.2,1,0.4,1.4,0.5c0.4,0.1,1,0.3,1.7,0.5c0.9,0.2,1.6,0.4,2.3,0.6
		s1.3,0.4,2.1,0.8c0.7,0.4,1.3,0.7,1.8,1.2c0.4,0.4,0.8,1,1.1,1.6c0.3,0.6,0.5,1.4,0.5,2.2c0,2-0.8,3.6-2.5,4.7
		c-1.7,1.1-3.6,1.6-5.9,1.6C556.5,245.9,553.7,244.8,551.6,242.6z"/>
	<path class="st0" d="M574.6,242.6l1.2-2c1.9,1.9,4.2,2.9,7.1,2.9c1.5,0,2.8-0.3,3.9-1s1.7-1.6,1.7-2.9c0-0.5-0.1-0.9-0.3-1.3
		c-0.2-0.4-0.5-0.7-0.8-0.9c-0.3-0.2-0.7-0.5-1.2-0.7c-0.5-0.2-1-0.4-1.4-0.5c-0.4-0.1-0.9-0.3-1.6-0.4c-1-0.3-1.7-0.5-2.3-0.6
		c-0.6-0.2-1.2-0.4-2-0.7c-0.8-0.3-1.4-0.7-1.8-1.1c-0.4-0.4-0.8-0.9-1.1-1.5s-0.5-1.3-0.5-2.1c0-1.8,0.7-3.2,2.2-4.2
		s3.2-1.6,5.2-1.6c2.7,0,5.1,0.8,7.3,2.4l-1.2,2c-1.8-1.4-3.8-2-6-2c-1.1,0-2.2,0.3-3.2,0.9s-1.5,1.4-1.5,2.5c0,0.4,0.1,0.8,0.3,1.2
		c0.2,0.4,0.5,0.6,0.7,0.9c0.3,0.2,0.7,0.4,1.2,0.7c0.5,0.2,1,0.4,1.4,0.5c0.4,0.1,1,0.3,1.7,0.5c0.9,0.2,1.6,0.4,2.3,0.6
		s1.3,0.4,2.1,0.8c0.7,0.4,1.3,0.7,1.8,1.2c0.4,0.4,0.8,1,1.1,1.6c0.3,0.6,0.5,1.4,0.5,2.2c0,2-0.8,3.6-2.5,4.7
		c-1.7,1.1-3.6,1.6-5.9,1.6C579.5,245.9,576.8,244.8,574.6,242.6z"/>
	<path class="st0" d="M610,245.5v-21.4h8.8c2.8,0,5.1,0.8,6.7,2.3c1.6,1.5,2.4,3.4,2.4,5.7c0,2.3-0.8,4.2-2.4,5.7
		c-1.6,1.5-3.9,2.3-6.7,2.3h-6.1v5.3H610z M612.7,237.8h6.4c1.8,0,3.3-0.5,4.4-1.6c1.1-1.1,1.7-2.4,1.7-4s-0.6-3-1.7-4
		c-1.1-1.1-2.6-1.6-4.4-1.6h-6.4V237.8z"/>
	<path class="st0" d="M637.5,227c2.2-2.1,4.8-3.2,7.9-3.2c3.1,0,5.8,1.1,7.9,3.2s3.2,4.7,3.2,7.8c0,3.1-1.1,5.7-3.2,7.8
		s-4.8,3.2-7.9,3.2c-3.1,0-5.8-1.1-7.9-3.2s-3.2-4.7-3.2-7.8C634.3,231.8,635.4,229.2,637.5,227z M639.5,240.9
		c1.6,1.7,3.6,2.5,6,2.5c2.4,0,4.3-0.8,6-2.5s2.4-3.7,2.4-6.1c0-2.4-0.8-4.4-2.4-6.1c-1.6-1.7-3.6-2.5-6-2.5c-2.4,0-4.3,0.8-6,2.5
		c-1.6,1.7-2.4,3.7-2.4,6.1C637.1,237.2,637.9,239.3,639.5,240.9z"/>
	<path class="st0" d="M662.2,242.6l1.2-2c1.9,1.9,4.2,2.9,7.1,2.9c1.5,0,2.8-0.3,3.9-1s1.7-1.6,1.7-2.9c0-0.5-0.1-0.9-0.3-1.3
		c-0.2-0.4-0.5-0.7-0.8-0.9c-0.3-0.2-0.7-0.5-1.2-0.7c-0.5-0.2-1-0.4-1.4-0.5c-0.4-0.1-0.9-0.3-1.6-0.4c-1-0.3-1.7-0.5-2.3-0.6
		c-0.6-0.2-1.2-0.4-2-0.7c-0.8-0.3-1.4-0.7-1.8-1.1c-0.4-0.4-0.8-0.9-1.1-1.5s-0.5-1.3-0.5-2.1c0-1.8,0.7-3.2,2.2-4.2
		s3.2-1.6,5.2-1.6c2.7,0,5.1,0.8,7.3,2.4l-1.2,2c-1.8-1.4-3.8-2-6-2c-1.1,0-2.2,0.3-3.2,0.9s-1.5,1.4-1.5,2.5c0,0.4,0.1,0.8,0.3,1.2
		c0.2,0.4,0.5,0.6,0.7,0.9c0.3,0.2,0.7,0.4,1.2,0.7c0.5,0.2,1,0.4,1.4,0.5c0.4,0.1,1,0.3,1.7,0.5c0.9,0.2,1.6,0.4,2.3,0.6
		s1.3,0.4,2.1,0.8c0.7,0.4,1.3,0.7,1.8,1.2c0.4,0.4,0.8,1,1.1,1.6c0.3,0.6,0.5,1.4,0.5,2.2c0,2-0.8,3.6-2.5,4.7
		c-1.7,1.1-3.6,1.6-5.9,1.6C667.1,245.9,664.4,244.8,662.2,242.6z"/>
	<path class="st0" d="M685.3,242.6l1.2-2c1.9,1.9,4.2,2.9,7.1,2.9c1.5,0,2.8-0.3,3.9-1s1.7-1.6,1.7-2.9c0-0.5-0.1-0.9-0.3-1.3
		c-0.2-0.4-0.5-0.7-0.8-0.9c-0.3-0.2-0.7-0.5-1.2-0.7c-0.5-0.2-1-0.4-1.4-0.5c-0.4-0.1-0.9-0.3-1.6-0.4c-1-0.3-1.7-0.5-2.3-0.6
		c-0.6-0.2-1.2-0.4-2-0.7c-0.8-0.3-1.4-0.7-1.8-1.1c-0.4-0.4-0.8-0.9-1.1-1.5s-0.5-1.3-0.5-2.1c0-1.8,0.7-3.2,2.2-4.2
		s3.2-1.6,5.2-1.6c2.7,0,5.1,0.8,7.3,2.4l-1.2,2c-1.8-1.4-3.8-2-6-2c-1.1,0-2.2,0.3-3.2,0.9s-1.5,1.4-1.5,2.5c0,0.4,0.1,0.8,0.3,1.2
		c0.2,0.4,0.5,0.6,0.7,0.9c0.3,0.2,0.7,0.4,1.2,0.7c0.5,0.2,1,0.4,1.4,0.5c0.4,0.1,1,0.3,1.7,0.5c0.9,0.2,1.6,0.4,2.3,0.6
		s1.3,0.4,2.1,0.8c0.7,0.4,1.3,0.7,1.8,1.2c0.4,0.4,0.8,1,1.1,1.6c0.3,0.6,0.5,1.4,0.5,2.2c0,2-0.8,3.6-2.5,4.7
		c-1.7,1.1-3.6,1.6-5.9,1.6C690.2,245.9,687.4,244.8,685.3,242.6z"/>
	<path class="st0" d="M709.4,245.5v-21.4h2.6v21.4H709.4z"/>
	<path class="st0" d="M720.3,245.5v-21.4h9.9c1.8,0,3.2,0.5,4.3,1.4c1.1,0.9,1.7,2.2,1.7,3.8c0,0.9-0.2,1.7-0.7,2.4
		c-0.5,0.7-1,1.2-1.7,1.5c1.3,0.2,2.3,0.9,3.2,1.9c0.9,1.1,1.3,2.4,1.3,3.8c0,2-0.7,3.6-2.2,4.8s-3.4,1.8-5.9,1.8H720.3z M723,232.4
		h7.4c0.9,0,1.7-0.3,2.2-0.8c0.5-0.5,0.8-1.2,0.8-2.1c0-0.9-0.3-1.6-0.9-2.2s-1.4-0.8-2.5-0.8H723V232.4z M723,243.2h7.1
		c1.7,0,3-0.4,4-1.1c1-0.8,1.5-1.8,1.5-3c0-1.3-0.4-2.3-1.3-3.1c-0.8-0.8-2.1-1.2-3.6-1.2H723V243.2z"/>
	<path class="st0" d="M745.6,245.5v-21.4h2.6v21.4H745.6z"/>
	<path class="st0" d="M756.6,245.5v-21.4h2.6v19h13.5v2.3H756.6z"/>
	<path class="st0" d="M779.7,245.5v-21.4h2.6v21.4H779.7z"/>
	<path class="st0" d="M796.8,245.5v-19h-7.9v-2.3h18.5v2.3h-7.9v19H796.8z"/>
	<path class="st0" d="M813.8,245.5v-21.4h2.6v21.4H813.8z"/>
	<path class="st0" d="M824.7,245.5v-21.4H841v2.3h-13.6v6.5h12.7v2.3h-12.7v7.9h14v2.3H824.7z"/>
	<path class="st0" d="M847.4,242.6l1.2-2c1.9,1.9,4.2,2.9,7.1,2.9c1.5,0,2.8-0.3,3.9-1s1.7-1.6,1.7-2.9c0-0.5-0.1-0.9-0.3-1.3
		c-0.2-0.4-0.5-0.7-0.8-0.9c-0.3-0.2-0.7-0.5-1.2-0.7c-0.5-0.2-1-0.4-1.4-0.5c-0.4-0.1-0.9-0.3-1.6-0.4c-1-0.3-1.7-0.5-2.3-0.6
		c-0.6-0.2-1.2-0.4-2-0.7c-0.8-0.3-1.4-0.7-1.8-1.1c-0.4-0.4-0.8-0.9-1.1-1.5s-0.5-1.3-0.5-2.1c0-1.8,0.7-3.2,2.2-4.2
		s3.2-1.6,5.2-1.6c2.7,0,5.1,0.8,7.3,2.4l-1.2,2c-1.8-1.4-3.8-2-6-2c-1.1,0-2.2,0.3-3.2,0.9s-1.5,1.4-1.5,2.5c0,0.4,0.1,0.8,0.3,1.2
		c0.2,0.4,0.5,0.6,0.7,0.9c0.3,0.2,0.7,0.4,1.2,0.7c0.5,0.2,1,0.4,1.4,0.5c0.4,0.1,1,0.3,1.7,0.5c0.9,0.2,1.6,0.4,2.3,0.6
		s1.3,0.4,2.1,0.8c0.7,0.4,1.3,0.7,1.8,1.2c0.4,0.4,0.8,1,1.1,1.6c0.3,0.6,0.5,1.4,0.5,2.2c0,2-0.8,3.6-2.5,4.7
		c-1.7,1.1-3.6,1.6-5.9,1.6C852.3,245.9,849.6,244.8,847.4,242.6z"/>
</g>
<g>
	<path class="st0" d="M431.2,159.1l3.8-4.3c8.4,9.7,19.1,14.5,32.2,14.5c4.8,0,9.4-0.6,13.7-1.8c4.3-1.2,8.2-3.5,11.6-6.9
		c3.4-3.4,5.1-7.6,5.1-12.6c0-2.7-0.6-5-1.7-7.2c-1.1-2.1-2.5-3.8-4.1-5.2c-1.6-1.3-3.8-2.6-6.6-3.8c-2.9-1.2-5.3-2.1-7.4-2.7
		s-5-1.4-8.7-2.4c-11.3-3-19-5.6-22.9-7.8c-7-4-10.5-9.9-10.5-17.6c0-7.4,3.2-13.4,9.6-18c6.4-4.6,13.8-6.9,22.2-6.9
		c11.3,0,21.6,3.7,30.7,11.1l-3.7,4.4c-7.9-6.6-16.9-9.9-27-9.9c-6.2,0-12,1.7-17.4,5c-5.4,3.4-8.1,8.1-8.1,14.2c0,2.1,0.3,4,1,5.6
		c0.6,1.7,1.8,3.2,3.5,4.5s3.1,2.4,4.3,3.2c1.2,0.8,3.2,1.7,6.2,2.7c2.9,1,5,1.7,6.3,2c1.2,0.3,3.7,1,7.3,2c4.3,1.2,7.6,2.1,10,2.8
		c2.4,0.7,5.3,1.7,8.8,3.3c3.5,1.5,6.1,3.1,7.8,4.8c1.8,1.7,3.4,3.9,4.7,6.6c1.4,2.7,2.1,5.9,2.1,9.4c0,8.6-3.6,15.2-10.9,19.9
		c-7.2,4.7-15.8,7.1-25.6,7.1C453,175,440.9,169.7,431.2,159.1z"/>
	<path class="st0" d="M528.2,164.2c-6.8-7.2-10.3-15.9-10.3-26c0-10.1,3.4-18.8,10.3-26c6.8-7.2,15.1-10.8,24.7-10.8
		c6.4,0,12.1,1.6,17.2,4.8c5.1,3.2,9,7.6,11.9,13.2v-16.5h5.6v70.6H582v-16.5c-2.9,5.6-6.8,10-11.9,13.2c-5.1,3.2-10.8,4.8-17.2,4.8
		C543.3,175,535.1,171.4,528.2,164.2z M532.3,115.9c-5.6,6.2-8.4,13.6-8.4,22.2c0,8.7,2.8,16.1,8.4,22.2c5.6,6.2,12.5,9.2,20.7,9.2
		c8.1,0,14.9-3,20.6-9c5.7-6,8.5-13.5,8.5-22.5c0-8.7-2.8-16.1-8.4-22.2c-5.6-6.2-12.5-9.2-20.7-9.2
		C544.8,106.7,537.9,109.8,532.3,115.9z"/>
	<path class="st0" d="M608.3,193.7v-90.8h5.6v16.5c2.8-5.6,6.7-10,11.8-13.2c5.1-3.2,10.9-4.8,17.3-4.8c9.6,0,17.9,3.6,24.7,10.8
		c6.8,7.2,10.3,15.9,10.3,26c0,10.1-3.4,18.8-10.3,26c-6.8,7.2-15.1,10.8-24.7,10.8c-6.5,0-12.3-1.6-17.4-4.8
		c-5.1-3.2-9-7.6-11.7-13.2v36.8H608.3z M622.4,115.9c-5.6,6.2-8.4,13.6-8.4,22.2c0,8.7,2.8,16.1,8.4,22.2
		c5.6,6.2,12.5,9.2,20.7,9.2c8.2,0,15.1-3.1,20.7-9.2c5.6-6.2,8.4-13.6,8.4-22.2c0-8.7-2.8-16.1-8.4-22.2
		c-5.6-6.2-12.5-9.2-20.7-9.2C634.9,106.7,628,109.8,622.4,115.9z"/>
	<path class="st0" d="M695,173.5V76.3h5.6v39.4c5.2-9.5,13.7-14.3,25.4-14.3c8.1,0,14.5,2.3,19.3,6.9c4.8,4.6,7.2,11,7.2,19.1v46.1
		H747V129c0-14.9-7.2-22.3-21.7-22.3c-7.3,0-13.2,2.4-17.8,7.2c-4.6,4.8-6.9,10.3-6.9,16.5v43H695z"/>
	<path class="st0" d="M775.5,195.2v-5.3c4.2,0,7.7-0.9,10.3-2.7c2.7-1.8,5.4-5.8,8.3-12l1.6-3.6l-34.3-68.7h6.4l25.3,51.8l5.3,10.8
		l5-11l23.5-51.6h6.2l-34,74.4c-1.9,4.1-3.8,7.5-5.7,10s-4,4.3-6.1,5.4c-2.2,1.1-4.1,1.8-5.7,2.1C780,195,778,195.2,775.5,195.2z"/>
	<path class="st0" d="M850.6,151.5v-43.3h-10.8v-5.3h10.8V85.3h5.6v17.6h27.3v5.3h-27.3v43.3c0,12.1,4.2,18.2,12.7,18.2
		c2.3,0,4.5-0.4,6.7-1.2c2.2-0.8,3.8-1.6,4.8-2.4l1.6-1l2.5,4.6c-4.4,3.5-9.7,5.3-15.7,5.3c-5.3,0-9.7-1.8-13.1-5.3
		C852.3,166.1,850.6,160,850.6,151.5z"/>
	<path class="st0" d="M903.8,164.2c-7.1-7.2-10.6-15.9-10.6-26c0-10.1,3.4-18.8,10.1-26c6.7-7.2,14.8-10.8,24.3-10.8
		c9.3,0,17.2,3.6,23.9,10.7c6.6,7.1,10,15.6,10,25.5l-0.1,3.1H899c0.7,8.2,3.9,15,9.7,20.6c5.8,5.6,12.6,8.3,20.6,8.3
		c9.4,0,17.1-3.5,23.3-10.5l3.8,3.7c-7.6,8.1-16.6,12.1-27.2,12.1C919.4,175,910.8,171.4,903.8,164.2z M899,135.4h56.3
		c-0.6-8-3.5-14.7-8.9-20.3c-5.3-5.6-11.6-8.3-18.9-8.3c-7.4,0-13.8,2.8-19.3,8.3C902.8,120.6,899.7,127.4,899,135.4z"/>
</g>
</svg>
