<svg width="24" height="24" viewBox="0 0 24 24" fill="none" xmlns="http://www.w3.org/2000/svg">
<g clip-path="url(#clip0_1_5317)">
<path d="M3.05496 13H5.06996C5.31225 14.6648 6.14582 16.1867 7.41819 17.2872C8.69055 18.3878 10.3166 18.9935 11.999 18.9935C13.6813 18.9935 15.3074 18.3878 16.5797 17.2872C17.8521 16.1867 18.6857 14.6648 18.928 13H20.944C20.6974 15.1998 19.6489 17.2317 17.9987 18.7072C16.3486 20.1828 14.2126 20.9985 11.999 20.9985C9.78532 20.9985 7.64932 20.1828 5.99918 18.7072C4.34904 17.2317 3.3005 15.1998 3.05396 13H3.05496ZM3.05496 11C3.3015 8.80012 4.35004 6.76825 6.00018 5.29272C7.65032 3.81718 9.78632 3.00146 12 3.00146C14.2136 3.00146 16.3496 3.81718 17.9997 5.29272C19.6499 6.76825 20.6984 8.80012 20.945 11H18.93C18.6877 9.3352 17.8541 7.8133 16.5817 6.71271C15.3094 5.61212 13.6833 5.00643 12.001 5.00643C10.3186 5.00643 8.69255 5.61212 7.42019 6.71271C6.14782 7.8133 5.31425 9.3352 5.07196 11H3.05496Z" fill="#D0011C"/>
</g>
<defs>
<clipPath id="clip0_1_5317">
<rect width="24" height="24" fill="white"/>
</clipPath>
</defs>
</svg>
