<svg width="16" height="16" viewBox="0 0 16 16" fill="none" xmlns="http://www.w3.org/2000/svg">
<g clip-path="url(#clip0_1_3971)">
<path d="M1.33337 2.662C1.33459 2.48692 1.40464 2.31934 1.52838 2.19548C1.65212 2.07161 1.81963 2.0014 1.99471 2H14.0054C14.3707 2 14.6667 2.29667 14.6667 2.662V13.338C14.6655 13.5131 14.5954 13.6807 14.4717 13.8045C14.348 13.9284 14.1805 13.9986 14.0054 14H1.99471C1.81925 13.9998 1.65104 13.93 1.52703 13.8059C1.40303 13.6817 1.33337 13.5135 1.33337 13.338V2.662ZM4.00004 10V11.3333H12V10H4.00004ZM4.00004 4.66667V8.66667H8.00004V4.66667H4.00004ZM9.33337 4.66667V6H12V4.66667H9.33337ZM9.33337 7.33333V8.66667H12V7.33333H9.33337ZM5.33337 6H6.66671V7.33333H5.33337V6Z" fill="#E6E6E6"/>
</g>
<defs>
<clipPath id="clip0_1_3971">
<rect width="16" height="16" fill="white"/>
</clipPath>
</defs>
</svg>
