<svg width="19" height="18" viewBox="0 0 19 18" fill="none" xmlns="http://www.w3.org/2000/svg">
<g clip-path="url(#clip0_1_4028)">
<path d="M2.87075 3.35175C3.7408 2.48155 4.90775 1.97257 6.13745 1.92694C7.36715 1.88131 8.56861 2.30242 9.50075 3.10575C10.4321 2.30375 11.6319 1.88312 12.8602 1.92807C14.0884 1.97302 15.2543 2.48023 16.1245 3.34816C16.9947 4.21608 17.505 5.38067 17.5531 6.60877C17.6013 7.83687 17.1838 9.03784 16.3843 9.97125L10.5605 15.8137C10.2929 16.0814 9.93408 16.238 9.55589 16.2522C9.1777 16.2664 8.80812 16.1371 8.52125 15.8903L8.43875 15.8145L2.61575 9.97125C1.81662 9.03865 1.39894 7.83878 1.44621 6.61154C1.49349 5.38429 2.00224 4.22011 2.87075 3.35175V3.35175ZM3.93125 4.41225C3.31793 5.02574 2.96439 5.85183 2.944 6.71908C2.92361 7.58632 3.23794 8.42812 3.82175 9.06975L3.93125 9.18525L9.5 14.754L13.4773 10.776L10.826 8.12475L10.031 8.91975C9.8221 9.12875 9.57408 9.29456 9.3011 9.4077C9.02812 9.52085 8.73553 9.57912 8.44003 9.57919C7.84324 9.57933 7.27084 9.34239 6.84875 8.9205C6.42666 8.49861 6.18945 7.92632 6.18931 7.32953C6.18917 6.73274 6.42611 6.16034 6.848 5.73825L8.4245 4.161C7.7971 3.66028 7.01181 3.39952 6.20952 3.4255C5.40722 3.45147 4.64044 3.76249 4.04675 4.30275L3.93125 4.41225V4.41225ZM10.2958 6.53325C10.4364 6.39265 10.6271 6.31366 10.826 6.31366C11.0249 6.31366 11.2156 6.39265 11.3563 6.53325L14.5378 9.71475L15.0688 9.18525C15.6923 8.5621 16.0474 7.71969 16.0579 6.83817C16.0684 5.95665 15.7336 5.10601 15.125 4.46817C14.5165 3.83032 13.6825 3.4559 12.8015 3.42499C11.9204 3.39408 11.0623 3.70912 10.4105 4.30275L10.2958 4.41225L7.90925 6.79875C7.77925 6.92866 7.70148 7.10178 7.6907 7.28525C7.67991 7.46872 7.73687 7.64975 7.85075 7.794L7.90925 7.85925C8.03916 7.98925 8.21228 8.06702 8.39575 8.0778C8.57922 8.08859 8.76026 8.03163 8.9045 7.91775L8.96975 7.85925L10.2958 6.53325V6.53325Z" fill="white"/>
</g>
<defs>
<clipPath id="clip0_1_4028">
<rect width="18" height="18" fill="white" transform="translate(0.5)"/>
</clipPath>
</defs>
</svg>
