<?xml version="1.0" encoding="utf-8"?>
<!-- Generator: Adobe Illustrator 19.0.0, SVG Export Plug-In . SVG Version: 6.00 Build 0)  -->
<svg version="1.1" id="Layer_1" xmlns="http://www.w3.org/2000/svg" xmlns:xlink="http://www.w3.org/1999/xlink" x="0px" y="0px"
	 viewBox="878 -6 193.1 106.4" style="enable-background:new 878 -6 193.1 106.4;" xml:space="preserve">
<style type="text/css">
	.st0{fill:#A48746;}
	.st1{fill:none;}
</style>
<g>
	<polygon class="st0" points="878,75.6 878,76.6 881.8,76.6 881.8,99.9 882.8,99.9 882.8,75.6 	"/>
	<path class="st0" d="M905.4,100.3h-0.5c-3.3,0-6.1-1.3-8.5-3.8c-2.4-2.5-3.6-5.5-3.6-8.8c0-3.4,1.2-6.3,3.6-8.8
		c2.4-2.5,5.3-3.7,8.7-3.7s6.3,1.2,8.7,3.7c2.4,2.5,3.6,5.4,3.6,8.9c0,2.2-0.5,4.2-1.6,6.2c-1.1,1.9-2.6,3.5-4.4,4.6
		C909.6,99.7,907.6,100.3,905.4,100.3 M916.5,87.8c0-3.2-1.1-5.9-3.3-8.2s-4.9-3.4-8-3.4s-5.8,1.1-8,3.4c-2.2,2.3-3.3,5-3.3,8.2
		s1.1,5.9,3.3,8.2s4.9,3.4,8,3.4s5.8-1.1,8-3.4C915.4,93.7,916.5,90.9,916.5,87.8"/>
	<polygon class="st0" points="946.1,75.5 946.1,98.9 953.5,98.9 953.5,99.9 945,99.9 945,75.5 	"/>
	<polygon class="st0" points="962.9,75.5 971.4,75.5 971.4,76.5 963.9,76.5 963.9,89.7 970.2,89.7 970.2,90.7 963.9,90.7 
		963.9,98.9 971.4,98.9 971.4,99.9 962.9,99.9 	"/>
	<path class="st0" d="M991.4,75l11.9,24.9h-1.1l-4.5-9.3H985l-4.5,9.3h-1L991.4,75z M991.3,77.2l-5.9,12.5h12L991.3,77.2z"/>
	<polygon class="st0" points="1019.7,100.4 1007.8,75.5 1008.9,75.5 1019.8,98.1 1030.5,75.5 1031.5,75.5 	"/>
	<polygon class="st0" points="1040.9,75.5 1049.5,75.5 1049.5,76.5 1042,76.5 1042,89.7 1048.2,89.7 1048.2,90.7 1042,90.7 
		1042,98.9 1049.5,98.9 1049.5,99.9 1040.9,99.9 	"/>
	<path class="st0" d="M1066.6,76.8c-0.8-0.5-1.8-0.8-2.8-0.8s-1.9,0.3-2.7,1c-0.7,0.7-1.1,1.6-1.1,2.7v0.2c0,1.4,0.7,2.6,2.2,3.7
		c0.6,0.5,1.4,0.9,2.1,1.4c0.8,0.5,1.6,1,2.4,1.5s1.5,1.1,2.2,1.7c0.6,0.6,1.2,1.3,1.6,2.2c0.4,0.9,0.6,1.8,0.6,2.9v0.3
		c0,2.1-0.7,3.7-2.1,4.9c-1.4,1.2-3.1,1.8-5.1,1.8c-2.7,0-4.7-1.1-6.2-3.3v-1.8c0.6,1.2,1.4,2.2,2.4,3c1.1,0.8,2.4,1.2,4,1.2
		c1.6,0,3-0.5,4.1-1.6c1.2-1,1.8-2.4,1.8-4.2v-0.2c0-1.1-0.3-2.1-0.8-3c-0.6-0.9-1.2-1.6-2.1-2.2c-0.8-0.6-1.7-1.2-2.7-1.8
		s-1.9-1.2-2.7-1.8c-0.8-0.5-1.5-1.2-2.1-2c-0.6-0.8-0.8-1.7-0.8-2.7v-0.2c0-1.5,0.5-2.7,1.4-3.5c1-0.8,2.1-1.2,3.5-1.2
		c2,0,3.5,0.7,4.6,2.2v1.7C1068.1,78.1,1067.5,77.4,1066.6,76.8"/>
</g>
<path class="st1" d="M944.1,11.6c-1.5,14.1,6.7,30.4,31.6,34.6c10.2,1.7,28.4-2.3,29.5,9.3c1.4-9.6-13.3-11.9-23.6-12.7
	c-12.4-1-26.2-8.4-30.8-21.6c7.6,12.6,18.9,18.8,31.2,19c-3-18.3-9.4-18.3-17.8-22.4c-6.6-3.2-13.4-10.5-7.6-23.8
	C949.7-3.3,944.9,4.5,944.1,11.6"/>
<path class="st0" d="M944.1,11.6c-1.5,14.1,6.7,30.4,31.6,34.6c10.2,1.7,28.4-2.3,29.5,9.3c1.4-9.6-13.3-11.9-23.6-12.7
	c-12.4-1-26.2-8.4-30.8-21.6c7.6,12.6,18.9,18.8,31.2,19c-3-18.3-9.4-18.3-17.8-22.4c-6.6-3.2-13.4-10.5-7.6-23.8
	C949.7-3.3,944.9,4.5,944.1,11.6"/>
</svg>
