<?xml version="1.0" encoding="utf-8"?>
<!-- Generator: Adobe Illustrator 19.0.0, SVG Export Plug-In . SVG Version: 6.00 Build 0)  -->
<svg version="1.1" id="Layer_1" xmlns="http://www.w3.org/2000/svg" xmlns:xlink="http://www.w3.org/1999/xlink" x="0px" y="0px"
	 viewBox="0 0 191.5 88.7" style="enable-background:new 0 0 191.5 88.7;" xml:space="preserve">
<style type="text/css">
	.st0{clip-path:url(#XMLID_79_);fill:#CE242A;}
	.st1{clip-path:url(#XMLID_80_);fill:url(#XMLID_81_);}
	.st2{clip-path:url(#XMLID_82_);fill:#231F20;}
</style>
<g id="XMLID_57_">
	<defs>
		<rect id="XMLID_58_" y="6.5" width="191.5" height="82.2"/>
	</defs>
	<clipPath id="XMLID_79_">
		<use xlink:href="#XMLID_58_"  style="overflow:visible;"/>
	</clipPath>
	<path id="XMLID_62_" class="st0" d="M67.2,21.9c-2.3,0.3-4.4,0.7-6.3,1.3c-0.7,0.2-1.2,0.3-1.5,0.5c-0.4,0.1-0.5,0.3-0.5,0.4
		c0,0.3,0.7,0.4,2.2,0.4c0.7,0,1.5,0,2.4-0.1c0.9-0.1,1.9-0.1,2.8-0.2c1-0.1,11-1.2,12-1.3l2.3-3C79.3,20.1,68.6,21.7,67.2,21.9"/>
	<path id="XMLID_61_" class="st0" d="M44.1,45.8c1.2-1.3,2.4-2.7,3.5-4.1c1.1-1.5,2.2-2.9,3.1-4.4c0.2-0.3,0.4-0.7,0.7-1.1
		c0.2-0.4,0.3-0.8,0.4-1c0,0-0.1,0-0.2,0.1c-0.1,0.1-0.2,0.2-0.4,0.3c-0.1,0.1-0.3,0.3-0.4,0.4c-0.1,0.1-0.2,0.2-0.2,0.2
		c-2.6,2.6-5.2,5.2-7.8,7.6c-2.6,2.4-5.3,4.7-8,6.8c-2.7,2.1-5.6,4-8.5,5.7c-2.9,1.7-6.1,3.1-9.3,4.2c-0.9,0.3-1.9,0.5-3,0.8
		c-1.2,0.3-2.3,0.4-3.5,0.4c-1.2,0-2.2-0.1-3.2-0.5c-1-0.3-1.8-1-2.4-1.9C4.2,58.1,4,57,4.1,55.9c0.1-1.2,0.3-2.3,0.5-3.3
		c0.5-2.1,1.3-4.1,2.2-6.1c0.9-2,1.9-3.8,3.1-5.7c1.1-1.8,2.4-3.6,3.7-5.3c1.3-1.7,2.6-3.4,4-5c2.7-3.3,5.7-6.3,8.9-9.3
		c3.2-2.9,6.7-5.4,10.4-7.4c0.9-0.4,1.9-0.9,2.8-1.3c1-0.4,2-0.8,3-1.1c1-0.3,2-0.5,3.1-0.7c1-0.1,2.1-0.1,3.1,0.1
		c1.2,0.4,1.9,0.9,2.3,1.7c0.4,0.7,0.5,1.6,0.5,2.5c-0.1,0.9-0.3,1.8-0.7,2.8c-0.4,0.9-0.8,1.7-1.1,2.4c-0.3,0.6-0.6,1.1-0.9,1.6
		c-0.3,0.5-0.6,1-0.9,1.4c-0.3,0.5-0.7,1-1.2,1.5c-0.4,0.5-1,1.2-1.5,2l-0.2,0.2c0,0-0.1,0.1-0.1,0.1c0,0,0,0.1-0.1,0.1
		c0,0.1,0.1,0.1,0.3,0c0.2-0.1,0.4-0.2,0.6-0.3c0.2-0.1,0.4-0.3,0.6-0.4c0.2-0.1,0.3-0.2,0.4-0.2c0.8-0.6,1.5-1.3,2.2-2
		c0.7-0.7,1.3-1.4,1.9-2.2c0.7-0.9,1.3-1.9,1.8-3.1c0.5-1.2,0.9-2.4,1-3.6c0.1-1.2,0.1-2.4-0.3-3.5c-0.3-1.1-1-2.1-2.1-2.8
		c-1.2-0.8-2.5-1.2-4-1.3c-1.5-0.1-3,0-4.5,0.3c-1.5,0.3-3,0.7-4.4,1.3c-1.4,0.5-2.7,1.1-3.7,1.6c-3.8,2-7.4,4.3-10.6,7.1
		c-3.3,2.8-6.3,5.8-9.1,8.9c-2.8,3.2-5.5,6.6-7.8,10.1C5,40.5,3.1,44.2,1.5,48.2c-0.4,1.2-0.8,2.6-1.1,3.9C0.1,53.6,0,54.9,0,56.3
		c0,1.4,0.2,2.6,0.7,3.9c0.4,1.2,1.2,2.3,2.2,3.2c1.5,1.3,3.2,2,5.1,2.2c1.9,0.2,3.9,0.1,5.9-0.4c2-0.4,4-1.1,5.9-1.9
		c1.9-0.8,3.6-1.6,5-2.3c3.7-2,7.1-4.3,10.3-6.8C38.3,51.6,41.3,48.8,44.1,45.8"/>
	<path id="XMLID_60_" class="st0" d="M60.4,30.5c0.3,0,0.6,0,0.9-0.1c0.3-0.1,0.6-0.1,0.8-0.2c0.3-0.1,0.5-0.3,0.8-0.5
		c0.3-0.2,0.5-0.5,0.7-0.7c0.2-0.3,0.3-0.6,0.4-0.9c0.1-0.3,0.1-0.6,0-0.9c-0.1-0.3-0.4-0.5-0.7-0.7c-0.3-0.1-0.6-0.2-1-0.2
		c-0.3,0-0.7,0-1,0.1c-0.3,0.1-0.6,0.2-0.8,0.4c-0.5,0.3-0.9,0.6-1.3,1.2c-0.4,0.5-0.4,1.1-0.2,1.7c0.1,0.3,0.3,0.5,0.5,0.6
		C59.8,30.4,60.1,30.4,60.4,30.5"/>
	<path id="XMLID_59_" class="st0" d="M86.7,34.2c-0.3,0.1-0.4,0.2-0.5,0.2c-0.1,0.1-0.4,0.3-0.6,0.4c-0.3,0.2-0.5,0.4-0.8,0.6
		c-0.3,0.2-0.5,0.4-0.7,0.6c-0.2,0.2-0.4,0.3-0.4,0.4c-0.3,0.3-0.7,0.6-1.3,1.2c-0.6,0.5-1.2,1.1-1.9,1.7c-0.7,0.6-1.4,1.2-2.1,1.9
		c-0.7,0.7-1.4,1.3-2.1,1.8c-0.6,0.6-1.2,1-1.7,1.5c-0.5,0.4-0.8,0.7-0.9,0.8c-0.9,0.7-1.9,1.5-2.9,2.2c-1,0.7-2,1.4-3,2.2
		c-0.5,0.4-1,0.7-1.6,1.1c-0.5,0.4-1.1,0.7-1.6,1.1c1.3-2,2.6-3.9,3.9-5.9c1.3-1.9,2.7-3.8,4.3-5.5c0.3-0.4,0.7-0.8,1-1.2
		c0.3-0.4,0.7-0.7,1.1-1c0.2-0.2,0.4-0.3,0.5-0.4c0.2-0.1,0.3-0.3,0.5-0.4c0.1-0.1,0.1-0.2,0.1-0.2c-0.1,0-0.2,0-0.3,0
		c-0.1,0-0.3,0-0.4,0.1c-0.1,0-0.2,0.1-0.2,0.1c-0.9,0.3-1.8,0.7-2.7,1.3c-0.8,0.5-1.6,1.1-2.4,1.8c-1.3,1.1-2.6,2.2-3.8,3.5
		c-0.3,0.3-0.5,0.6-0.8,0.9c-0.2,0.1-0.5,0.3-0.7,0.4c-1.4,0.8-2.7,1.7-4,2.5c-1.3,0.9-2.6,1.7-3.9,2.7c1.1-1.6,2.2-3.1,3.3-4.6
		c1.1-1.5,2.3-3,3.5-4.6c1.4-1.9,11.7-16.3,12.8-17.9c0.1,0,2.1-2.9,1.9-2.8c1-1.5,1.9-2.8,2.7-4c0.8-1.2,1.5-2.3,2.2-3.3
		c0.7-1,1.3-2,1.9-3c0.6-0.9,1.1-2,1.6-3c0.1-0.3,0.1-0.4,0-0.4c-0.1,0-0.2,0-0.4,0.1c-0.2,0.1-0.3,0.2-0.5,0.4
		c-0.2,0.1-0.3,0.2-0.3,0.3c-1.6,1.6-3.2,3.3-4.6,5.1c-1.4,1.8-2.9,3.6-4.3,5.4c-0.1,0.1-0.4,0.5-0.8,1c-0.4,0.6-1,1.3-1.6,2.1
		l-2,2.7c-0.8,1.1-11.7,15.8-13.1,17.8c-0.7,0.9-1.3,1.8-2,2.8c-0.8,0.5-1.6,0.9-2.3,1.4c-1,0.7-2.1,1.4-3.1,2.1
		c-0.3,0.2-0.8,0.5-1.3,0.9c-0.5,0.4-1,0.7-1.3,1c0.8-1.2,1.6-2.5,2.4-3.6c0.8-1.2,1.6-2.3,2.4-3.5c0.8-1.1,1.5-2.2,2.1-3.2
		c0.7-1,1.2-2,1.7-2.8c0.1-0.1,0.1-0.3,0-0.3c-0.1-0.1-0.1-0.1-0.2-0.2c-0.1-0.1-0.3-0.1-0.6,0.1c-0.2,0.1-0.7,0.4-1.3,1
		c-0.7,0.6-1.4,1.3-2.4,2.2c-0.9,0.9-1.9,1.9-2.9,3.1c-1,1.2-2,2.3-3,3.5c-1,1.2-1.8,2.4-2.6,3.5c-0.8,1.2-1.3,2.2-1.7,3.1
		c-0.2,0.4-0.3,0.9-0.4,1.4c-0.1,0.5,0,0.9,0.3,1.2c0.3,0.3,0.6,0.5,1,0.5c0.3,0,0.6,0,0.9-0.1c0.3-0.1,0.6-0.3,0.9-0.5
		c0.3-0.2,0.5-0.4,0.7-0.6c0.5-0.5,1.3-1.2,2.1-2c0.9-0.8,1.6-1.5,2.2-2c1.4-1.2,2.8-2.3,4.2-3.4c0.3-0.2,0.6-0.5,0.8-0.7
		c-0.3,0.4-0.5,0.8-0.8,1.2c-0.4,0.6-0.8,1.2-1.2,1.7c-0.4,0.5-0.7,1.1-1.1,1.8c-0.2,0.3-0.4,0.6-0.6,1.1c-0.2,0.4-0.4,0.8-0.5,1.3
		s-0.1,0.8,0,1.2c0.1,0.4,0.4,0.6,1,0.8c0.4,0.1,0.8,0.1,1.2-0.1c0.3-0.2,0.6-0.4,0.9-0.7c0.4-0.3,0.7-0.7,1.1-1
		c0.3-0.3,0.7-0.6,1.1-0.9c0.9-0.8,1.9-1.6,2.8-2.4c0.9-0.8,1.9-1.5,2.8-2.3c0.2-0.1,0.5-0.4,1-0.8c0.1-0.1,0.3-0.2,0.4-0.3
		c-0.2,0.3-0.5,0.7-0.7,1c-0.5,0.7-0.9,1.5-1.3,2.2c-0.4,0.7-0.7,1.5-0.9,2.3c-0.1,0.5-0.2,1-0.2,1.5c0,0.5,0.2,0.9,0.6,1.3
		c0.3,0.2,0.6,0.3,0.9,0.3c0.3,0,0.7-0.1,1-0.2c0.3-0.1,0.6-0.3,0.9-0.5c0.3-0.2,0.5-0.4,0.8-0.6c0.8-0.7,1.7-1.3,2.5-2
		c0.8-0.7,1.6-1.4,2.4-2.1c0.9-0.8,1.9-1.7,2.8-2.5c0.9-0.8,1.9-1.6,2.8-2.4c-1.1,1.5-2,2.9-2.8,4.2c-0.8,1.3-1.7,2.5-2.5,3.7
		c-1.4,2-2.9,4-4.4,6c-1.5,1.9-3.1,3.8-4.7,5.7c-1.5,1.8-3.1,3.5-4.8,5.2c-1.7,1.7-3.4,3.4-5.2,4.9c-1.8,1.5-3.7,2.9-5.7,4.2
		c-2,1.3-4.1,2.4-6.3,3.3c-0.7,0.3-1.4,0.6-2.1,0.8c-0.7,0.3-1.4,0.5-2.2,0.7c-0.1,0-0.3,0.1-0.6,0.2c-0.3,0.1-0.5,0.2-0.4,0.3
		c0.1,0.1,0.3,0.2,0.6,0.2h0.6c0.8,0,1.5-0.1,2.3-0.2c0.8-0.1,1.5-0.3,2.2-0.5c2.3-0.6,4.6-1.5,6.7-2.7c2.1-1.2,4.1-2.4,6.1-3.8
		c3.9-2.8,7.5-6.1,10.8-9.7c3.2-3.6,6.3-7.4,9.1-11.3c0-0.1,0.4-0.5,1-1.4c0.7-0.9,1.5-2,2.4-3.3c1-1.3,2-2.8,3.1-4.3
		c1.1-1.6,2.2-3,3.2-4.5c1-1.4,1.9-2.7,2.6-3.7c0.7-1.1,1.2-1.8,1.4-2.1c0.2-0.3,0.3-0.5,0.5-0.7c0.1-0.2,0.3-0.5,0.4-0.7
		c0.1-0.2,0.2-0.4,0.3-0.5c0.1-0.2,0.2-0.4,0.2-0.5C87.2,34.1,87,34.1,86.7,34.2"/>
</g>
<g id="XMLID_54_">
	<defs>
		<path id="XMLID_55_" d="M122.5,9.6c-0.3,0.2-0.7,0.4-1,0.7c-0.4,0.3-0.7,0.5-1,0.8c-0.3,0.3-0.5,0.4-0.5,0.5
			c-0.5,0.4-0.9,0.8-1.3,1.3c-0.4,0.4-0.8,0.9-1.2,1.3c-1.2,0.2-30.5,4.8-39.1,6.1l-1.9,2.9c8.4-1.1,42.4-6,42.5-6
			c2.1-0.4,4.2-0.8,6.2-1.2c5.9-0.9,13.2-3.2,13.8-3.4c0.4-0.1,0.5-0.3,0.4-0.3c-0.1-0.1-0.3-0.1-0.4-0.1c-0.2,0-0.3,0-0.5,0
			c-2,0.1-9.1,0.3-11,0.5c-2,0.3-4,0.5-5.9,0.9c0.1-0.2,0.3-0.5,0.5-0.8c0.3-0.4,0.5-0.8,0.7-1.2c0.2-0.4,0.4-0.8,0.5-1.2
			c0.1-0.3,0.2-0.6,0.1-0.8c0-0.1-0.1-0.1-0.2-0.1C122.8,9.5,122.7,9.5,122.5,9.6"/>
	</defs>
	<clipPath id="XMLID_80_">
		<use xlink:href="#XMLID_55_"  style="overflow:visible;"/>
	</clipPath>
	
		<linearGradient id="XMLID_81_" gradientUnits="userSpaceOnUse" x1="-319.4559" y1="340.052" x2="-318.903" y2="340.052" gradientTransform="matrix(52.0414 -8.0389 -8.0389 -52.0414 19438.3418 15149.3623)">
		<stop  offset="0" style="stop-color:#CE242A"/>
		<stop  offset="1" style="stop-color:#190000"/>
	</linearGradient>
	<polygon id="XMLID_56_" class="st1" points="74.3,9.8 137.8,0 141.3,22.8 77.8,32.6 	"/>
</g>
<g id="XMLID_1_">
	<defs>
		<rect id="XMLID_13_" y="6.5" width="191.5" height="82.2"/>
	</defs>
	<clipPath id="XMLID_82_">
		<use xlink:href="#XMLID_13_"  style="overflow:visible;"/>
	</clipPath>
	<path id="XMLID_51_" class="st2" d="M133.8,18.6c-0.3-0.5-0.7-0.7-1.2-0.7c-0.5,0-0.9,0.2-1.3,0.5c-1,0.6-1.9,1.2-2.7,1.9
		c-0.9,0.6-1.7,1.3-2.6,1.9c-1.4,1-2.8,2.1-4.1,3.2c-1.3,1.1-2.7,2.2-4,3.4c-2.7,2.3-5.3,4.7-7.8,7c-2.5,2.4-4.9,4.8-7.2,7.3
		c-0.6,0.6-1.2,1.2-1.8,1.9c-0.6,0.6-1.2,1.3-1.8,1.9c-0.9,0.1-1.7,0.3-2.6,0.4c-0.7,0.1-1.5,0.2-2.2,0.3c1.8-2.1,3.5-4.3,5.3-6.4
		c1.3-1.6,16.5-20.9,19.7-25.1l-4.9,0.6c-3,3.7-17,21-18.3,22.7c-2.3,3-4.6,6-6.9,9c-1.7,0.2-3.3,0.5-5,0.8c-0.1,0-0.4,0.1-0.8,0.1
		c-0.4,0-0.7,0.1-1.1,0.2c-0.4,0.1-0.7,0.1-1.1,0.2c-0.3,0.1-0.5,0.2-0.5,0.2c-0.1,0.1,0,0.1,0.3,0.1c0.2,0,0.4,0,0.4,0
		c1.3,0.1,2.5,0.1,3.7,0c1,0,2-0.1,3-0.2c-0.1,0.1-0.2,0.2-0.3,0.4c-2.7,3.6-5.4,7.3-8.1,11.1c-0.9,1.3-1.8,2.6-2.7,3.9
		c-0.9,1.3-1.8,2.7-2.6,4.1c-0.1,0.2-0.2,0.4-0.4,0.6c-0.1,0.2-0.2,0.5-0.2,0.7c0,0.1,0.1,0.1,0.2,0.1c0.1-0.1,0.3-0.2,0.5-0.3
		c0.2-0.1,0.3-0.3,0.5-0.4c0.1-0.1,0.2-0.2,0.3-0.3c1.2-1.1,2.3-2.3,3.4-3.6c1.1-1.3,2.2-2.5,3.3-3.8c3-3.5,6-7,8.9-10.5
		c0.6-0.7,1.2-1.5,1.8-2.2c1.5-0.2,3-0.4,4.5-0.5c-1.9,2.1-3.8,4.3-5.5,6.5c-1.7,2.2-3.4,4.4-5,6.6c-0.1,0.2-0.3,0.4-0.4,0.6
		c-0.1,0.2-0.3,0.5-0.4,0.7c-0.1,0.3-0.3,0.5-0.4,0.7c-0.1,0.2-0.2,0.4-0.2,0.5c0,0.1,0.2-0.1,0.5-0.4c0.3-0.3,0.7-0.7,1.2-1.1
		c0.5-0.6,1.1-1.1,1.6-1.7c0.5-0.6,1-1.1,1.5-1.7c1.9-2,3.7-3.9,5.5-5.7c1.8-1.8,3.6-3.7,5.3-5.6c0.7-0.1,1.4-0.2,2-0.4
		c0.5-0.1,1-0.2,1.4-0.2c0.4-0.1,0.7-0.1,0.8-0.1c2.1-0.3,4.2-0.7,6.2-1.1c2-0.4,4-0.7,6.1-1c-0.6,1.6-1.2,3.2-1.7,4.8
		c-0.6,1.6-1.1,3.3-1.7,4.9c-0.5,1.5-1,3.1-1.5,4.6c-0.5,1.5-0.9,3.1-1.4,4.7c-0.6,2-1.1,3.9-1.5,5.8c-0.4,1.9-0.8,3.7-1,5.5
		c0,0.1,0,0.1,0.1,0.1c0,0,0.1,0,0.1-0.1c0.4-0.8,0.7-1.5,1-2.3c0.2-0.7,0.5-1.5,0.8-2.3c0.8-2.3,1.7-4.6,2.5-6.7
		c0.8-2.2,1.7-4.4,2.5-6.6c0.9-2.4,1.8-4.7,2.7-6.9c0.9-2.2,1.7-4.3,2.6-6.3c1-0.2,1.9-0.4,2.9-0.6c1-0.2,1.9-0.5,2.9-0.7
		c0.6-0.2,1-0.3,1.1-0.4c0.2-0.1,0.3-0.1,0.3-0.2c0.2-0.1,0.2-0.1,0-0.2c-0.2,0-0.5,0-0.8,0s-0.6,0-0.9,0c-0.3,0-0.5,0-0.5,0
		c-0.7,0.1-1.5,0.2-2.2,0.2c-0.7,0.1-1.4,0.2-2.2,0.3c0.7-1.6,1.4-3.2,2.1-4.8c0.7-1.6,1.4-3.1,2.2-4.7c1.3-2.6,2.4-4.8,3.4-6.9
		c1-2,2.2-3.9,3.4-5.7c0.2-0.2,0.4-0.5,0.6-0.7c0.2-0.2,0.4-0.5,0.5-0.8c0.1-0.3,0.2-0.5,0.2-0.8C134.1,19.1,134,18.9,133.8,18.6
		 M126.2,26.3c-0.5,1-1,2-1.5,3c-0.5,1-1,2-1.5,3.1c-0.5,1-0.9,1.9-1.2,2.7c-0.1,0.3-0.3,0.7-0.5,1.2c-0.2,0.5-0.5,1.1-0.7,1.7
		c-0.3,0.6-0.5,1.2-0.8,1.9c-0.3,0.7-0.5,1.3-0.8,1.9c-0.2,0.6-0.4,1.1-0.6,1.5c-0.2,0.4-0.3,0.7-0.3,0.8c-1,0.1-2.1,0.3-3.1,0.4
		c-1,0.1-2,0.3-3,0.4c-1.5,0.2-2.9,0.4-4.4,0.6c-1.4,0.2-2.9,0.4-4.4,0.6c1.8-2,3.6-4,5.6-6.1c2-2,4-4,6.1-6c2.1-2,4.2-3.8,6.3-5.6
		c2.1-1.8,4.1-3.4,6.1-4.9C127.1,24.5,126.7,25.3,126.2,26.3"/>
	<polygon id="XMLID_50_" class="st2" points="63.7,88.6 61.9,83.3 60,88.6 59.4,88.6 57.2,82.2 57.9,82.2 59.7,87.5 61.6,82.2 
		62.1,82.2 64,87.5 65.8,82.2 66.5,82.2 64.3,88.6 	"/>
	<polygon id="XMLID_49_" class="st2" points="72.2,88.6 72.2,85.7 68.3,85.7 68.3,88.6 67.7,88.6 67.7,82.2 68.3,82.2 68.3,85.1 
		72.2,85.1 72.2,82.2 72.9,82.2 72.9,88.6 	"/>
	<polygon id="XMLID_48_" class="st2" points="78.8,85 78.8,85.7 75.4,85.7 75.4,88 79.2,88 79.2,88.6 74.8,88.6 74.8,82.2 
		79.2,82.2 79.2,82.8 75.4,82.8 75.4,85 	"/>
	<path id="XMLID_45_" class="st2" d="M83.3,86.2c-0.2,0-0.3,0-0.5,0h-1.3v2.3h-0.7v-6.4c0.6,0,1.4-0.1,2.1-0.1c1.5,0,2.5,0.7,2.5,2
		c0,1-0.6,1.6-1.5,1.9l1.8,2.5H85L83.3,86.2z M83,85.7c1,0,1.8-0.6,1.8-1.5c0-1-0.7-1.4-1.8-1.4c-0.5,0-0.9,0-1.5,0v2.9H83z"/>
	<polygon id="XMLID_44_" class="st2" points="91.1,85 91.1,85.7 87.7,85.7 87.7,88 91.5,88 91.5,88.6 87,88.6 87,82.2 91.5,82.2 
		91.5,82.8 87.7,82.8 87.7,85 	"/>
	<polygon id="XMLID_43_" class="st2" points="97.4,88.6 96.7,88.6 96.7,82.8 94.2,82.8 94.2,82.2 99.9,82.2 99.9,82.8 97.4,82.8 	
		"/>
	<path id="XMLID_40_" class="st2" d="M103.3,86.2c-0.2,0-0.3,0-0.5,0h-1.3v2.3h-0.7v-6.4c0.6,0,1.4-0.1,2.1-0.1c1.5,0,2.5,0.7,2.5,2
		c0,1-0.6,1.6-1.5,1.9l1.8,2.5H105L103.3,86.2z M103,85.7c1,0,1.8-0.6,1.8-1.5c0-1-0.7-1.4-1.8-1.4c-0.5,0-0.9,0-1.5,0v2.9H103z"/>
	<path id="XMLID_37_" class="st2" d="M107.2,88.6h-0.8l2.9-6.5h0.6l2.9,6.5h-0.7l-0.7-1.6h-3.6L107.2,88.6z M108.1,86.4h3.1
		l-1.5-3.4L108.1,86.4z"/>
	<path id="XMLID_34_" class="st2" d="M119.7,85.3c0,2-1.4,3.3-3.3,3.3c-0.8,0-1.7,0-2.2-0.1v-6.4c0.6,0,1.4-0.1,2.2-0.1
		C118.3,82.1,119.7,83.3,119.7,85.3 M119,85.3c0-1.6-1.1-2.6-2.7-2.6c-0.5,0-1,0-1.5,0V88c0.5,0,1.1,0,1.6,0
		C117.9,88,119,87,119,85.3"/>
	<polygon id="XMLID_33_" class="st2" points="125.2,85 125.2,85.7 121.8,85.7 121.8,88 125.6,88 125.6,88.6 121.2,88.6 121.2,82.2 
		125.6,82.2 125.6,82.8 121.8,82.8 121.8,85 	"/>
	<path id="XMLID_30_" class="st2" d="M129.7,86.2c-0.2,0-0.3,0-0.5,0h-1.3v2.3h-0.7v-6.4c0.6,0,1.4-0.1,2.1-0.1c1.5,0,2.5,0.7,2.5,2
		c0,1-0.6,1.6-1.5,1.9l1.8,2.5h-0.8L129.7,86.2z M129.4,85.7c1,0,1.8-0.6,1.8-1.5c0-1-0.7-1.4-1.8-1.4c-0.5,0-0.9,0-1.5,0v2.9H129.4
		z"/>
	<path id="XMLID_29_" class="st2" d="M137.7,83c-0.7-0.2-1.6-0.4-2.2-0.4c-0.9,0-1.5,0.4-1.5,1.2c0,0.7,0.5,0.9,1.6,1.1
		c1.4,0.3,2.4,0.6,2.4,1.9c0,1.2-1,1.9-2.4,1.9c-0.8,0-1.8-0.2-2.7-0.5l0.2-0.6c0.9,0.3,1.8,0.5,2.5,0.5c1,0,1.7-0.4,1.7-1.2
		c0-1-1.1-1.1-2.1-1.4c-1.4-0.3-2-0.7-2-1.7c0-1.1,0.9-1.8,2.3-1.8c0.8,0,1.7,0.2,2.3,0.4L137.7,83z"/>
	<path id="XMLID_26_" class="st2" d="M142.4,88.6h-0.8l2.9-6.5h0.6l2.9,6.5h-0.7l-0.7-1.6h-3.6L142.4,88.6z M143.3,86.4h3.1
		l-1.5-3.4L143.3,86.4z"/>
	<path id="XMLID_23_" class="st2" d="M151.8,86.2c-0.2,0-0.3,0-0.5,0H150v2.3h-0.7v-6.4c0.6,0,1.4-0.1,2.1-0.1c1.5,0,2.5,0.7,2.5,2
		c0,1-0.6,1.6-1.5,1.9l1.8,2.5h-0.8L151.8,86.2z M151.5,85.7c1,0,1.8-0.6,1.8-1.5c0-1-0.7-1.4-1.8-1.4c-0.5,0-0.9,0-1.5,0v2.9H151.5
		z"/>
	<polygon id="XMLID_22_" class="st2" points="159.6,85 159.6,85.7 156.2,85.7 156.2,88 160,88 160,88.6 155.6,88.6 155.6,82.2 
		160,82.2 160,82.8 156.2,82.8 156.2,85 	"/>
	<polygon id="XMLID_21_" class="st2" points="167.8,88.6 167.2,88.6 164.9,83.6 164.6,88.6 163.9,88.6 164.3,82.2 165,82.2 
		167.5,87.8 170.1,82.2 170.7,82.2 171.1,88.6 170.5,88.6 170.2,83.6 	"/>
	<path id="XMLID_18_" class="st2" d="M173.1,88.6h-0.8l2.9-6.5h0.6l2.9,6.5H178l-0.7-1.6h-3.6L173.1,88.6z M174,86.4h3.1l-1.5-3.4
		L174,86.4z"/>
	<path id="XMLID_15_" class="st2" d="M185.6,85.3c0,2-1.4,3.3-3.3,3.3c-0.8,0-1.7,0-2.2-0.1v-6.4c0.6,0,1.4-0.1,2.2-0.1
		C184.2,82.1,185.6,83.3,185.6,85.3 M184.9,85.3c0-1.6-1.1-2.6-2.7-2.6c-0.5,0-1,0-1.5,0V88c0.5,0,1.1,0,1.6,0
		C183.8,88,184.9,87,184.9,85.3"/>
	<polygon id="XMLID_14_" class="st2" points="191.1,85 191.1,85.7 187.8,85.7 187.8,88 191.5,88 191.5,88.6 187.1,88.6 187.1,82.2 
		191.5,82.2 191.5,82.8 187.8,82.8 187.8,85 	"/>
</g>
</svg>
