<?xml version="1.0" encoding="utf-8"?>
<!-- Generator: Adobe Illustrator 19.0.0, SVG Export Plug-In . SVG Version: 6.00 Build 0)  -->
<svg version="1.1" id="Layer_1" xmlns="http://www.w3.org/2000/svg" xmlns:xlink="http://www.w3.org/1999/xlink" x="0px" y="0px"
	 viewBox="0 0 208.5 46.1" style="enable-background:new 0 0 208.5 46.1;" xml:space="preserve">
<style type="text/css">
	.st0{fill:#8B8B8B;}
	.st1{fill:#B61F25;}
</style>
<g id="ELEZER_VENTURES_1_">
	<g>
		<path class="st0" d="M3.6,46.1L0.8,39h0.9l2.5,6.2L6.5,39h0.9l-2.9,7.1H3.6z"/>
		<path class="st0" d="M30.7,39.8v2.3h3.6v0.8h-3.6v2.4h4.2v0.8h-5V39h4.8v0.8H30.7z"/>
		<path class="st0" d="M63.2,46.1L59,40.4v5.7h-0.8V39H59l4.3,5.7V39h0.8v7.1H63.2z"/>
		<path class="st0" d="M90.4,39.8v6.3h-0.8v-6.3h-2.3V39h5.5v0.8H90.4z"/>
		<path class="st0" d="M121.8,43.2c0,1.9-1.1,3-3,3c-1.9,0-3-1.1-3-3V39h0.8v4.2c0,1.4,0.8,2.2,2.2,2.2c1.4,0,2.2-0.8,2.2-2.2V39
			h0.8V43.2z"/>
		<path class="st0" d="M148.7,43.8c-0.2,0-0.3,0-0.5,0h-1.9v2.2h-0.8V39h2.7c1.8,0,2.8,0.9,2.8,2.4c0,1.2-0.6,2-1.6,2.3l1.7,2.4
			h-0.9L148.7,43.8z M148.3,43.1c1.3,0,2-0.6,2-1.7c0-1.1-0.7-1.6-2-1.6h-1.9v3.3H148.3z"/>
		<path class="st0" d="M175.5,39.8v2.3h3.6v0.8h-3.6v2.4h4.2v0.8h-5V39h4.8v0.8H175.5z"/>
		<path class="st0" d="M207.5,39.6l-0.3,0.8c-0.6-0.4-1.4-0.6-2-0.6c-0.9,0-1.5,0.3-1.5,0.9c0,1.8,4,0.9,4,3.5c0,1.2-1,2-2.6,2
			c-1,0-2.1-0.4-2.7-1.1l0.4-0.7c0.7,0.6,1.6,1,2.4,1c1,0,1.7-0.4,1.7-1.1c0-1.9-4-0.9-4-3.4c0-1.1,1-1.8,2.5-1.8
			C206.1,38.9,206.9,39.2,207.5,39.6z"/>
	</g>
	<g>
		<path d="M200.8,19.7c3.5-1.7,5.9-5.2,5.9-9.3c0-5.7-4.6-10.3-10.3-10.3h-18.1v0.1v4.4v22.9h4.5V4.5h13.7c3.2,0,5.8,2.7,5.8,5.9
			s-2.6,5.8-5.8,5.8v4.5l6.7,6.7h5.4L200.8,19.7z"/>
		<g>
			<g id="XMLID_87_">
				<path id="XMLID_88_" class="st1" d="M142.6,0v4.5h22.8V0H142.6z M142.6,15.9h22.8v-4.5h-22.8V15.9z M142.6,27.4h22.8v-4.5h-22.8
					V27.4z"/>
			</g>
		</g>
		<path d="M127.5,0h-23.1v4.5h19l-18,18c-1.8,1.8-0.5,4.9,2,4.9h22.2v-4.5h-18.5l18.2-18.2C131.2,3,130,0,127.5,0z"/>
		<g>
			<g id="XMLID_61_">
				<path id="XMLID_62_" class="st1" d="M70,0v4.5h22.8V0H70z M70,15.9h22.8v-4.5H70V15.9z M70,27.4h22.8v-4.5H70V27.4z"/>
			</g>
		</g>
		<polygon points="40.1,22.9 40.1,0 35.6,0 35.6,22.9 35.6,27.3 35.6,27.4 58.4,27.4 58.4,22.9 		"/>
		<g>
			<g id="XMLID_41_">
				<path id="XMLID_42_" class="st1" d="M0,0v4.5h22.8V0H0z M0,15.9h22.8v-4.5H0V15.9z M0,27.4h22.8v-4.5H0V27.4z"/>
			</g>
		</g>
	</g>
</g>
</svg>
