<?xml version="1.0" encoding="utf-8"?>
<!-- Generator: Adobe Illustrator 19.0.0, SVG Export Plug-In . SVG Version: 6.00 Build 0)  -->
<svg version="1.1" id="Layer_1" xmlns="http://www.w3.org/2000/svg" xmlns:xlink="http://www.w3.org/1999/xlink" x="0px" y="0px"
	 viewBox="0 0 152.3 63.6" style="enable-background:new 0 0 152.3 63.6;" xml:space="preserve">
<style type="text/css">
	.st0{fill:url(#SVGID_1_);}
	.st1{fill:url(#SVGID_2_);}
	.st2{fill:url(#SVGID_3_);}
	.st3{fill:url(#SVGID_4_);}
	.st4{fill:url(#SVGID_5_);}
	.st5{fill:url(#SVGID_6_);}
	.st6{fill:url(#SVGID_7_);}
	.st7{fill:url(#SVGID_8_);}
	.st8{fill:url(#SVGID_9_);}
	.st9{fill:url(#SVGID_10_);}
	.st10{fill:url(#SVGID_11_);}
	.st11{fill:url(#SVGID_12_);}
	.st12{fill:url(#SVGID_13_);}
	.st13{fill:url(#SVGID_14_);}
	.st14{fill:url(#SVGID_15_);}
</style>
<g id="FUSION_MARKETS">
	<linearGradient id="SVGID_1_" gradientUnits="userSpaceOnUse" x1="47.0759" y1="52.7945" x2="64.262" y2="52.7945">
		<stop  offset="0" style="stop-color:#2C3580"/>
		<stop  offset="1" style="stop-color:#333E97"/>
	</linearGradient>
	<path class="st0" d="M47.1,61.8V43.8h3l5.6,15.8l5.6-15.8h3v18.1h-1.6V45.4h-0.4l-5.7,15.8h-1.9l-5.7-15.8h-0.4v16.4H47.1z"/>
	<linearGradient id="SVGID_2_" gradientUnits="userSpaceOnUse" x1="67.1736" y1="52.7945" x2="81.3176" y2="52.7945">
		<stop  offset="0" style="stop-color:#2C3580"/>
		<stop  offset="1" style="stop-color:#333E97"/>
	</linearGradient>
	<path class="st1" d="M67.2,61.8l5.2-18.1h3.8l5.2,18.1h-1.6l-1.5-5h-8.1l-1.4,5H67.2z M73.5,45.2l-2.9,10.2h7.3l-2.9-10.2H73.5z"/>
	<linearGradient id="SVGID_3_" gradientUnits="userSpaceOnUse" x1="84.2297" y1="52.7945" x2="96.7102" y2="52.7945">
		<stop  offset="0" style="stop-color:#2C3580"/>
		<stop  offset="1" style="stop-color:#333E97"/>
	</linearGradient>
	<path class="st2" d="M85.8,54.7v7.1h-1.6V43.8h6.6c1.9,0,3.3,0.4,4.2,1.3c0.9,0.9,1.4,2.2,1.4,4.1c0,2.9-1.2,4.7-3.5,5.3l3.7,7.4
		h-1.8l-3.6-7.1H85.8z M94.8,49.1c0-1.4-0.3-2.3-1-3s-1.6-1-3-1h-5v8.1h5C93.5,53.3,94.8,51.9,94.8,49.1z"/>
	<linearGradient id="SVGID_4_" gradientUnits="userSpaceOnUse" x1="100.219" y1="52.7945" x2="112.1536" y2="52.7945">
		<stop  offset="0" style="stop-color:#2C3580"/>
		<stop  offset="1" style="stop-color:#333E97"/>
	</linearGradient>
	<path class="st3" d="M101.8,61.8h-1.6V43.8h1.6v8.5l3.1-0.1l5-8.5h1.8l-5.5,9.1l5.8,9h-1.9l-5.3-8.2l-3.1,0.1V61.8z"/>
	<linearGradient id="SVGID_5_" gradientUnits="userSpaceOnUse" x1="114.3372" y1="52.7945" x2="125.179" y2="52.7945">
		<stop  offset="0" style="stop-color:#2C3580"/>
		<stop  offset="1" style="stop-color:#333E97"/>
	</linearGradient>
	<path class="st4" d="M114.3,61.8V43.8h10.8v1.5h-9.2v6.7h7.7v1.4h-7.7v7h9.2v1.4H114.3z"/>
	<linearGradient id="SVGID_6_" gradientUnits="userSpaceOnUse" x1="126.2444" y1="52.7945" x2="139.2444" y2="52.7945">
		<stop  offset="0" style="stop-color:#2C3580"/>
		<stop  offset="1" style="stop-color:#333E97"/>
	</linearGradient>
	<path class="st5" d="M126.2,45.2v-1.5h13v1.5h-5.7v16.6H132V45.2H126.2z"/>
	<linearGradient id="SVGID_7_" gradientUnits="userSpaceOnUse" x1="140.9084" y1="52.7554" x2="152.3479" y2="52.7554">
		<stop  offset="0" style="stop-color:#2C3580"/>
		<stop  offset="1" style="stop-color:#333E97"/>
	</linearGradient>
	<path class="st6" d="M146.7,44.9c-2.8,0-4.2,1.1-4.2,3.2c0,1.2,0.3,2.1,0.9,2.5c0.6,0.4,1.9,0.8,3.7,1.2c1.8,0.4,3.2,0.9,4,1.5
		c0.8,0.6,1.2,1.7,1.2,3.2c0,1.9-0.5,3.3-1.4,4.2c-1,0.9-2.4,1.3-4.2,1.3c-1.4,0-2.9-0.1-4.7-0.4l-0.9-0.1l0.2-1.4
		c2.4,0.3,4.2,0.4,5.5,0.4c1.3,0,2.3-0.3,3-0.9s1-1.6,1-2.8s-0.3-2.1-0.9-2.5c-0.6-0.4-1.6-0.8-2.9-1c-1.3-0.2-2.3-0.5-2.9-0.7
		c-0.6-0.2-1.2-0.5-1.7-0.9c-0.5-0.4-0.9-0.8-1.1-1.4c-0.2-0.6-0.3-1.3-0.3-2.2c0-3.2,1.9-4.7,5.7-4.7c1.1,0,2.6,0.1,4.5,0.4L152,44
		l-0.1,1.4C149.4,45.1,147.7,44.9,146.7,44.9z"/>
	<linearGradient id="SVGID_8_" gradientUnits="userSpaceOnUse" x1="67.0759" y1="26.795" x2="77.7356" y2="26.795">
		<stop  offset="0" style="stop-color:#2C3580"/>
		<stop  offset="1" style="stop-color:#333E97"/>
	</linearGradient>
	<path class="st7" d="M67.1,35.8V17.8h10.7v1.5h-9v7.5h7.7v1.4h-7.7v7.7H67.1z"/>
	<linearGradient id="SVGID_9_" gradientUnits="userSpaceOnUse" x1="80.1018" y1="26.9249" x2="92.4778" y2="26.9249">
		<stop  offset="0" style="stop-color:#2C3580"/>
		<stop  offset="1" style="stop-color:#333E97"/>
	</linearGradient>
	<path class="st8" d="M81.7,30.5c0,2.7,1.5,4.1,4.5,4.1c1.6,0,2.7-0.3,3.5-1c0.8-0.6,1.2-1.7,1.2-3.1V17.8h1.6v12.8
		c0,2-0.5,3.4-1.6,4.3c-1.1,0.9-2.6,1.3-4.6,1.3c-2,0-3.6-0.4-4.6-1.3c-1-0.9-1.5-2.3-1.5-4.3V17.8h1.6V30.5z"/>
	<linearGradient id="SVGID_10_" gradientUnits="userSpaceOnUse" x1="95.4417" y1="26.7559" x2="106.8811" y2="26.7559">
		<stop  offset="0" style="stop-color:#2C3580"/>
		<stop  offset="1" style="stop-color:#333E97"/>
	</linearGradient>
	<path class="st9" d="M101.3,18.9c-2.8,0-4.2,1.1-4.2,3.2c0,1.2,0.3,2.1,0.9,2.5c0.6,0.4,1.9,0.8,3.7,1.2c1.8,0.4,3.2,0.9,4,1.5
		c0.8,0.6,1.2,1.7,1.2,3.2c0,1.9-0.5,3.3-1.4,4.2c-1,0.9-2.4,1.3-4.2,1.3c-1.4,0-2.9-0.1-4.7-0.4l-0.9-0.1l0.2-1.4
		c2.4,0.3,4.2,0.4,5.5,0.4s2.3-0.3,3-0.9c0.7-0.6,1-1.6,1-2.8c0-1.2-0.3-2.1-0.9-2.5c-0.6-0.4-1.6-0.8-2.9-1
		c-1.3-0.2-2.3-0.5-2.9-0.7s-1.2-0.5-1.7-0.9c-0.5-0.4-0.9-0.8-1.1-1.4s-0.3-1.3-0.3-2.2c0-3.2,1.9-4.7,5.7-4.7
		c1.1,0,2.6,0.1,4.5,0.4l0.9,0.1l-0.1,1.4C104,19.1,102.3,18.9,101.3,18.9z"/>
	<linearGradient id="SVGID_11_" gradientUnits="userSpaceOnUse" x1="110.4436" y1="26.795" x2="112.0559" y2="26.795">
		<stop  offset="0" style="stop-color:#2C3580"/>
		<stop  offset="1" style="stop-color:#333E97"/>
	</linearGradient>
	<path class="st10" d="M110.4,35.8V17.8h1.6v18.1H110.4z"/>
	<linearGradient id="SVGID_12_" gradientUnits="userSpaceOnUse" x1="115.8772" y1="26.795" x2="129.9954" y2="26.795">
		<stop  offset="0" style="stop-color:#2C3580"/>
		<stop  offset="1" style="stop-color:#333E97"/>
	</linearGradient>
	<path class="st11" d="M130,26.9c0,3.2-0.5,5.6-1.5,7c-1,1.4-2.9,2.2-5.5,2.2s-4.5-0.7-5.5-2.2c-1-1.5-1.5-3.8-1.5-7
		s0.5-5.5,1.5-7.1s2.9-2.3,5.5-2.3c2.7,0,4.5,0.8,5.5,2.3S130,23.7,130,26.9z M118.6,32.8c0.7,1.2,2.2,1.8,4.3,1.8s3.6-0.6,4.3-1.8
		c0.7-1.2,1.1-3.2,1.1-5.9s-0.4-4.8-1.1-6.1c-0.8-1.3-2.2-1.9-4.3-1.9c-2.2,0-3.6,0.7-4.3,2.1c-0.4,0.7-0.7,1.5-0.8,2.4
		c-0.1,0.9-0.2,2.1-0.2,3.4C117.5,29.6,117.9,31.6,118.6,32.8z"/>
	<linearGradient id="SVGID_13_" gradientUnits="userSpaceOnUse" x1="133.2708" y1="26.795" x2="146.1926" y2="26.795">
		<stop  offset="0" style="stop-color:#2C3580"/>
		<stop  offset="1" style="stop-color:#333E97"/>
	</linearGradient>
	<path class="st12" d="M133.3,35.8V17.8h3.2l7.6,16.6h0.6V17.8h1.6v18.1h-3.1l-7.6-16.6h-0.6v16.6H133.3z"/>
</g>
<g>
	<linearGradient id="SVGID_14_" gradientUnits="userSpaceOnUse" x1="0" y1="31.8108" x2="55.6689" y2="31.8108">
		<stop  offset="0" style="stop-color:#2C3580"/>
		<stop  offset="1" style="stop-color:#333E97"/>
	</linearGradient>
	<path class="st13" d="M55.7,0l-7.2,8.2H18c-5.4,0-9.7,4.4-9.7,9.7v36.4l-8,9.2H0V15C0,6.7,6.7,0,15,0H55.7z"/>
	<linearGradient id="SVGID_15_" gradientUnits="userSpaceOnUse" x1="8.2334" y1="20.8289" x2="55.6689" y2="20.8289">
		<stop  offset="0" style="stop-color:#2C3580"/>
		<stop  offset="1" style="stop-color:#333E97"/>
	</linearGradient>
	<path class="st14" d="M55.7,0l-7.2,8.2H18c-5.4,0-9.7,4.4-9.7,9.7v-6.7C8.2,5,13.3,0,19.5,0H55.7z M34.5,24.3l6-6.8
		c0.3-0.4,0.1-1-0.5-1H18.2c-0.9,0-1.7,0.8-1.7,1.7v5.8c0,0.3,0.3,0.6,0.6,0.6H34C34.2,24.5,34.4,24.4,34.5,24.3z M16.5,34.8v4.9
		c0,1.8,2.3,2.7,3.5,1.3l7.2-8.2h-8.6C17.4,32.7,16.5,33.7,16.5,34.8z"/>
</g>
</svg>
