<?xml version="1.0" encoding="utf-8"?>
<!-- Generator: Adobe Illustrator 19.0.0, SVG Export Plug-In . SVG Version: 6.00 Build 0)  -->
<svg version="1.1" id="Layer_1" xmlns="http://www.w3.org/2000/svg" xmlns:xlink="http://www.w3.org/1999/xlink" x="0px" y="0px"
	 viewBox="0 0 177.4 46.5" style="enable-background:new 0 0 177.4 46.5;" xml:space="preserve">
<style type="text/css">
	.st0{clip-path:url(#SVGID_2_);}
	.st1{fill:#8B8B8B;}
	.st2{font-family:'Montserrat-Light';}
	.st3{font-size:8.5px;}
	.st4{letter-spacing:3;}
	.st5{fill:#1B144F;}
	.st6{fill:#632B84;}
	.st7{clip-path:url(#SVGID_4_);fill:#1B144F;}
	.st8{clip-path:url(#SVGID_4_);fill:#632B84;}
</style>
<g>
	<defs>
		<rect id="SVGID_1_" y="0" width="177.4" height="46.5"/>
	</defs>
	<clipPath id="SVGID_2_">
		<use xlink:href="#SVGID_1_"  style="overflow:visible;"/>
	</clipPath>
	<g class="st0">
		<text transform="matrix(1 0 0 1 61.9346 44.6665)"><tspan x="0" y="0" class="st1 st2 st3 st4"> I</tspan><tspan x="12" y="0" class="st1 st2 st3">N</tspan></text>
	</g>
	<g class="st0">
		<text transform="matrix(1 0 0 1 84.2134 44.6665)" class="st1 st2 st3">V</text>
	</g>
	<g class="st0">
		<text transform="matrix(1 0 0 1 93.6055 44.6665)" class="st1 st2 st3">E</text>
	</g>
	<g class="st0">
		<text transform="matrix(1 0 0 1 102.709 44.6665)" class="st1 st2 st3">S</text>
	</g>
	<g class="st0">
		<text transform="matrix(1 0 0 1 111.4727 44.6665)" class="st1 st2 st3">T</text>
	</g>
	<g class="st0">
		<text transform="matrix(1 0 0 1 119.9561 44.6665)" class="st1 st2 st3">M</text>
	</g>
	<g class="st0">
		<text transform="matrix(1 0 0 1 131.3545 44.6665)"><tspan x="0" y="0" class="st1 st2 st3 st4">E</tspan><tspan x="9.1" y="0" class="st1 st2 st3 st4">NT</tspan><tspan x="27.7" y="0" class="st1 st2 st3">S</tspan></text>
	</g>
</g>
<polygon class="st5" points="65.3,30.7 65.3,20.1 53.5,20.1 53.5,30.7 51.3,30.7 51.3,9 53.5,9 53.5,17.8 65.3,17.8 65.3,9 67.5,9 
	67.5,30.7 "/>
<polygon class="st5" points="85.1,11.4 85.1,17.5 94,17.5 94,19.9 85.1,19.9 85.1,28.3 94.5,28.3 94.5,30.7 82.9,30.7 82.9,9 
	94.2,9 94.2,11.4 "/>
<polyline class="st6" points="113.5,17.3 118.3,9 120.6,9 114.8,19.4 "/>
<polygon class="st5" points="121.1,30.7 118.8,30.7 113.5,21.6 108.3,30.7 106,30.7 112.3,19.5 106.4,9 108.7,9 113.5,17.3 
	113.5,17.3 "/>
<g>
	<defs>
		<rect id="SVGID_3_" y="0" width="177.4" height="46.5"/>
	</defs>
	<clipPath id="SVGID_4_">
		<use xlink:href="#SVGID_3_"  style="overflow:visible;"/>
	</clipPath>
	<path class="st7" d="M149.8,21.7c0,5.6-2.9,9.1-7.8,9.1c-4.9,0-7.8-3.4-7.8-9.1V9h2.1v12.8c0,4.2,2.2,6.7,5.7,6.7
		c3.5,0,5.6-2.4,5.6-6.7V9h2.1V21.7z"/>
	<path class="st7" d="M169.3,9c3.9,0,6.3,2,6.3,5.4c0,2.5-1.4,4.1-2.6,4.6c2.8,0.5,4.5,2.8,4.5,5.8c0,3.7-2.6,5.9-7,5.9H165V9H169.3
		z M167.3,18.3h1.9c2.6,0,4.2-1.3,4.2-3.5c0-2.2-1.5-3.4-4.2-3.4h-1.9V18.3z M167.3,28.3h2.9c3.2,0,5-1.4,5-3.9c0-2.4-1.8-4.2-5-4.2
		h-2.9V28.3z"/>
	<path class="st7" d="M37.9,15.6l-3.3-3.3L27,19.8l7.6,7.6l3.3-3.3C40.2,21.7,40.2,17.9,37.9,15.6"/>
	<path class="st8" d="M19.8,12.6l7.6-7.6l-3.3-3.3c-2.3-2.3-6.1-2.3-8.5,0l-3.3,3.3L19.8,12.6z"/>
	<path class="st8" d="M19.8,27l-7.6,7.6l3.3,3.3c2.3,2.3,6.1,2.3,8.5,0l3.3-3.3L19.8,27z"/>
	<path class="st7" d="M5.1,27.4l7.6-7.6l-7.6-7.6l-3.3,3.3c-2.3,2.3-2.3,6.1,0,8.5L5.1,27.4z"/>
</g>
</svg>
