<?xml version="1.0" encoding="utf-8"?>
<!-- Generator: Adobe Illustrator 19.0.0, SVG Export Plug-In . SVG Version: 6.00 Build 0)  -->
<svg version="1.1" id="Layer_1" xmlns="http://www.w3.org/2000/svg" xmlns:xlink="http://www.w3.org/1999/xlink" x="0px" y="0px"
	 viewBox="0 0 362.8 133.2" style="enable-background:new 0 0 362.8 133.2;" xml:space="preserve">
<style type="text/css">
	.st0{fill:#FF2400;}
</style>
<g>
	<path d="M141.2,30.1c2.9,0.3,5.2,1.8,6.9,4.5c1.7,2.6,2.5,5.6,2.5,9v65.3h-9V42.2c0-0.8-0.3-1.5-1-2c-0.7-0.5-1.5-0.9-2.4-1.1
		c-0.9-0.3-1.5-0.4-2-0.4c-1.7,0-3.2,0.6-4.6,1.8c-1.4,1.2-2.1,2.7-2.1,4.3v64.5h-9V30.9h9.8v4.3c0.1-0.2,1.4-1.1,3.8-2.7
		C136.5,31,138.9,30.1,141.2,30.1z"/>
	<path d="M173,108.8l-7.9,0.1V40.4H159v-7.4h6.1V8.5h7.9v24.5h6.1v7.4H173V108.8z"/>
	<path d="M196,72.2v22c0,1.8,0.4,3.4,1.3,4.8c0.8,1.4,2,2.1,3.6,2.1c1.4,0,2.7-0.4,3.8-1.3c1.1-0.9,1.6-2,1.6-3.4V82.6h8v10.2
		c0,4.3-1.2,8.1-3.6,11.4c-2.4,3.3-5.6,5-9.5,5c-4.4,0-7.8-2-10.2-6c-2.4-4-3.6-8.8-3.6-14.2V46.8c0-3.3,1.3-6.7,3.8-10.2
		c2.5-3.5,5.6-5.2,9.3-5.2c5.3,0,8.8,1.8,10.4,5.4c1.6,3.6,2.7,7.2,3.3,10.8v24.6H196z M196,51.5v13.1h10.8V51.8
		c0-3.9-0.3-7-0.9-9.3c-0.6-2.3-2.1-3.4-4.5-3.4c-2.3,0-3.8,1.1-4.5,3.4C196.4,44.7,196,47.7,196,51.5z"/>
	<path d="M222.7,108.9V2.3h8v106.6H222.7z"/>
	<path d="M240,108.9V2.3h8v106.6H240z"/>
	<path d="M259.9,0h7.3v6.9h-7.3V0z M259.9,108.9V31.3h8v77.6H259.9z"/>
	<path d="M298.5,117.5l0.4-12.4c-2.4,2.7-5.4,4.1-9,4.1c-0.8,0-2.1-0.1-4-0.4c-1.9-0.3-3.6-2-5.2-5.4c-1.6-3.3-2.3-7.1-2.3-11.3
		V43.1c0-3.2,0.5-6,1.5-8.3c1-2.3,2.3-3.8,3.9-4.4c1.6-0.6,3-1,4.1-1c2,0,4.2,0.6,6.4,1.8c2.2,1.2,3.7,2.3,4.3,3.3v-4.3h9V115
		c0,6.2-2.2,10.8-6.5,13.7c-4.3,3-8.3,4.4-11.7,4.4c-2.2,0-4.4-0.4-6.6-1.3l1.3-5.3c1,0,1.8,0,2.3,0c2.1,0,4.1-0.5,6.1-1.6
		c2-1.1,3.5-2.2,4.6-3.3C298,120.5,298.5,119.1,298.5,117.5z M291.9,37.7c-1.5,0.3-2.7,0.6-3.6,1.1c-0.8,0.5-1.3,1.4-1.3,2.5v52.1
		c0,1.7,0.3,3.2,0.8,4.4c0.5,1.2,1.2,2,2,2.4c0.8,0.3,1.6,0.5,2.4,0.5c1.7,0,3.2-0.8,4.6-2.3c1.4-1.5,2-3.2,2-5.1V44.9
		c0-0.8-0.8-2.3-2.3-4.4C295.1,38.4,293.5,37.5,291.9,37.7z"/>
	<path d="M318.1,0h7.3v6.9h-7.3V0z M318.1,108.9V31.3h8v77.6H318.1z"/>
	<path d="M355.1,54.3c-0.1-3.5-0.4-7-1-10.4c-0.6-3.5-2.1-5.2-4.5-5.2c-0.8,0-1.8,0.7-3.1,2c-1.3,1.3-2,2.4-2,3.1v50.5
		c0,1.8,0.4,3.4,1.3,4.8c0.8,1.4,2,2.1,3.6,2.1c1.4,0,2.7-0.4,3.8-1.3c1.1-0.9,1.6-2,1.6-3.4V82.6h8v10.2c0,4.3-1.2,8.1-3.6,11.4
		c-2.4,3.3-5.6,5-9.5,5c-4.4,0-7.8-2-10.2-6c-2.4-4-3.6-8.8-3.6-14.2V44.3c0-1.9,1.4-4.5,4.2-7.8c2.8-3.3,5.8-5,8.9-5
		c5.3,0,8.8,1.8,10.4,5.4c1.6,3.6,2.7,7.2,3.3,10.9v6.6H355.1z"/>
	<polygon class="st0" points="88.3,0.1 88.3,8.9 100.2,8.9 100.2,20 109,20 109,0.1 	"/>
	<polygon points="100.2,100.3 100.2,100.3 100.2,109.1 109,109.1 109,30.3 100.2,30.3 	"/>
	<polygon points="8.8,8.9 77.9,8.9 77.9,0.1 0,0.1 0,109.1 89.8,109.1 89.8,100.3 8.8,100.3 	"/>
</g>
<g id="XMLID_27_">
</g>
<g id="XMLID_28_">
</g>
<g id="XMLID_29_">
</g>
<g id="XMLID_30_">
</g>
<g id="XMLID_31_">
</g>
<g id="XMLID_32_">
</g>
<g id="XMLID_33_">
</g>
<g id="XMLID_34_">
</g>
<g id="XMLID_35_">
</g>
<g id="XMLID_36_">
</g>
<g id="XMLID_37_">
</g>
<g id="XMLID_38_">
</g>
<g id="XMLID_39_">
</g>
<g id="XMLID_40_">
</g>
<g id="XMLID_41_">
</g>
</svg>
