<?xml version="1.0" encoding="utf-8"?>
<!-- Generator: Adobe Illustrator 19.0.0, SVG Export Plug-In . SVG Version: 6.00 Build 0)  -->
<svg version="1.1" id="Layer_1" xmlns="http://www.w3.org/2000/svg" xmlns:xlink="http://www.w3.org/1999/xlink" x="0px" y="0px"
	 viewBox="0 0 125.4 42.3" style="enable-background:new 0 0 125.4 42.3;" xml:space="preserve">
<style type="text/css">
	.st0{fill:#525252;}
	.st1{fill:none;stroke:#ED823A;stroke-miterlimit:10;}
	.st2{clip-path:url(#SVGID_2_);fill:url(#SVGID_3_);}
	.st3{clip-path:url(#SVGID_2_);fill:url(#SVGID_4_);}
	.st4{clip-path:url(#SVGID_2_);fill:url(#SVGID_5_);}
	.st5{clip-path:url(#SVGID_2_);fill:url(#SVGID_6_);}
	.st6{clip-path:url(#SVGID_2_);fill:url(#SVGID_7_);}
	.st7{clip-path:url(#SVGID_2_);fill:url(#SVGID_8_);}
	.st8{clip-path:url(#SVGID_2_);fill:url(#SVGID_9_);}
	.st9{clip-path:url(#SVGID_2_);fill:none;}
	.st10{clip-path:url(#SVGID_2_);fill:url(#SVGID_10_);}
	.st11{clip-path:url(#SVGID_2_);fill:url(#SVGID_11_);}
	.st12{clip-path:url(#SVGID_2_);fill:url(#SVGID_12_);}
	.st13{clip-path:url(#SVGID_2_);fill:url(#SVGID_13_);}
	.st14{clip-path:url(#SVGID_2_);fill:url(#SVGID_14_);}
	.st15{clip-path:url(#SVGID_2_);fill:url(#SVGID_15_);}
	.st16{clip-path:url(#SVGID_2_);fill:url(#SVGID_16_);}
	.st17{clip-path:url(#SVGID_2_);fill:url(#SVGID_17_);}
</style>
<g>
	<path class="st0" d="M0,25.9V0.1h1.6v25.9H0z"/>
	<path class="st0" d="M24.8,25.9L7.5,2.4v23.5H6V0.1h1.8l17.3,23.5V0.1h1.5v25.9H24.8z"/>
	<path class="st0" d="M42.1,25.9L31.3,0.1h1.7l9.8,24l9.8-24h1.7L43.7,25.9H42.1z"/>
	<path class="st0" d="M60,1.6v10.3h13.5v1.6H60v11h15.6v1.5H58.4V0.1h16.7v1.5H60z"/>
	<path class="st0" d="M97.4,2.1l-0.7,1.4c-1.9-1.3-4.6-1.9-6.8-1.9c-4.1,0-6.8,1.7-6.8,4.4c0,7.9,15.2,3.8,15.1,13.4
		c0,4-3.6,6.6-9,6.6c-3.4,0-7-1.5-9.2-3.7l0.8-1.4c2.1,2.2,5.4,3.5,8.4,3.5c4.4,0,7.3-1.9,7.3-5c0.1-8.1-15.1-4-15.1-13.3
		C81.5,2.4,84.9,0,90,0C92.6,0,95.5,0.9,97.4,2.1z"/>
	<path class="st0" d="M115.2,25.9h-1.5v-9.4L103.3,0.1h1.7l9.4,14.5l9.3-14.5h1.7l-10.2,16.4V25.9z"/>
</g>
<path class="st0" d="M45.1,38.2v2.3c-0.6,0.5-1.5,0.8-2.3,0.8c-1.8,0-3.3-1.4-3.3-3.2c0-1.8,1.5-3.2,3.3-3.2c0.9,0,1.7,0.3,2.3,0.9
	l-0.4,0.5c-0.5-0.5-1.2-0.7-1.9-0.7c-1.4,0-2.6,1.1-2.6,2.5c0,1.4,1.2,2.5,2.6,2.5c0.6,0,1.2-0.2,1.7-0.5v-1.9H45.1z"/>
<path class="st0" d="M53.1,39.3c-0.1,0-0.3,0-0.4,0H51v2h-0.7V35h2.4c1.6,0,2.5,0.8,2.5,2.1c0,1-0.5,1.7-1.4,2l1.5,2.1h-0.8
	L53.1,39.3z M52.7,38.6c1.1,0,1.8-0.5,1.8-1.5c0-1-0.6-1.4-1.8-1.4H51v2.9H52.7z"/>
<path class="st0" d="M76.1,38.7c0,1.6-1,2.6-2.6,2.6c-1.7,0-2.7-1-2.7-2.6V35h0.7v3.7c0,1.2,0.7,1.9,1.9,1.9s1.9-0.7,1.9-1.9V35h0.7
	V38.7z"/>
<path class="st0" d="M83.7,35c1.6,0,2.5,0.8,2.5,2.1c0,1.4-0.9,2.2-2.5,2.2H82v2h-0.7V35H83.7z M82,38.6h1.6c1.1,0,1.8-0.5,1.8-1.5
	c0-1-0.7-1.4-1.8-1.4H82V38.6z"/>
<g>
	<line class="st1" x1="14.8" y1="38.7" x2="34.1" y2="38.7"/>
	<line class="st1" x1="91.8" y1="38.7" x2="111.1" y2="38.7"/>
</g>
<g>
	<defs>
		<path id="SVGID_1_" d="M62.8,35c-1.8,0-3.2,1.4-3.2,3.2c0,1.8,1.4,3.2,3.2,3.2c1.8,0,3.2-1.4,3.2-3.2C65.9,36.4,64.5,35,62.8,35z
			 M62.8,39.9c-1,0-1.8-0.8-1.8-1.8s0.8-1.8,1.8-1.8c1,0,1.8,0.8,1.8,1.8S63.8,39.9,62.8,39.9z"/>
	</defs>
	<clipPath id="SVGID_2_">
		<use xlink:href="#SVGID_1_"  style="overflow:visible;"/>
	</clipPath>
	<linearGradient id="SVGID_3_" gradientUnits="userSpaceOnUse" x1="55.4317" y1="45.7312" x2="65.0013" y2="35.5656">
		<stop  offset="0" style="stop-color:#FF001C"/>
		<stop  offset="0.2194" style="stop-color:#FF009D"/>
		<stop  offset="0.2587" style="stop-color:#F9049F"/>
		<stop  offset="0.3112" style="stop-color:#E80FA3"/>
		<stop  offset="0.3713" style="stop-color:#CC22AA"/>
		<stop  offset="0.437" style="stop-color:#A53CB4"/>
		<stop  offset="0.5073" style="stop-color:#735DC0"/>
		<stop  offset="0.5802" style="stop-color:#3785CF"/>
		<stop  offset="0.6399" style="stop-color:#00AADD"/>
		<stop  offset="0.898" style="stop-color:#E9D013"/>
		<stop  offset="1" style="stop-color:#FFD400"/>
	</linearGradient>
	<path class="st2" d="M62.8,34.6c-1.9,0-3.4,1.5-3.4,3.4s1.5,3.4,3.4,3.4c1.9,0,3.4-1.5,3.4-3.4S64.6,34.6,62.8,34.6z M62.8,39.8
		c-1.1,0-1.9-0.9-1.9-1.9c0-1.1,0.9-1.9,1.9-1.9c1.1,0,1.9,0.9,1.9,1.9C64.7,39,63.8,39.8,62.8,39.8z"/>
	<linearGradient id="SVGID_4_" gradientUnits="userSpaceOnUse" x1="55.9961" y1="46.2626" x2="65.5658" y2="36.0968">
		<stop  offset="0" style="stop-color:#FF001C"/>
		<stop  offset="0.2194" style="stop-color:#FF009D"/>
		<stop  offset="0.2587" style="stop-color:#F9049F"/>
		<stop  offset="0.3112" style="stop-color:#E80FA3"/>
		<stop  offset="0.3713" style="stop-color:#CC22AA"/>
		<stop  offset="0.437" style="stop-color:#A53CB4"/>
		<stop  offset="0.5073" style="stop-color:#735DC0"/>
		<stop  offset="0.5802" style="stop-color:#3785CF"/>
		<stop  offset="0.6399" style="stop-color:#00AADD"/>
		<stop  offset="0.898" style="stop-color:#E9D013"/>
		<stop  offset="1" style="stop-color:#FFD400"/>
	</linearGradient>
	<path class="st3" d="M63.3,35.5c-1.7,0-3,1.3-3,3c0,1.7,1.3,3,3,3s3-1.3,3-3C66.3,36.8,65,35.5,63.3,35.5z M63.3,40.2
		c-0.9,0-1.7-0.8-1.7-1.7c0-0.9,0.8-1.7,1.7-1.7s1.7,0.8,1.7,1.7C65,39.4,64.2,40.2,63.3,40.2z"/>
	<linearGradient id="SVGID_5_" gradientUnits="userSpaceOnUse" x1="55.7606" y1="46.0408" x2="65.3302" y2="35.8751">
		<stop  offset="0" style="stop-color:#660047"/>
		<stop  offset="0.2444" style="stop-color:#961152"/>
		<stop  offset="0.3871" style="stop-color:#9C134D"/>
		<stop  offset="0.5776" style="stop-color:#AD1940"/>
		<stop  offset="0.6399" style="stop-color:#B41C3B"/>
		<stop  offset="0.898" style="stop-color:#F15A22"/>
		<stop  offset="1" style="stop-color:#FABB16"/>
	</linearGradient>
	<path class="st4" d="M62.5,35.7c-1.8,0-3.2,1.4-3.2,3.2c0,1.8,1.4,3.2,3.2,3.2c1.8,0,3.2-1.4,3.2-3.2
		C65.7,37.1,64.3,35.7,62.5,35.7z M62.5,40.6c-1,0-1.8-0.8-1.8-1.8c0-1,0.8-1.8,1.8-1.8c1,0,1.8,0.8,1.8,1.8
		C64.3,39.8,63.5,40.6,62.5,40.6z"/>
	<radialGradient id="SVGID_6_" cx="61.8847" cy="38.8211" r="3.4748" gradientUnits="userSpaceOnUse">
		<stop  offset="0.7204" style="stop-color:#FFFFFF"/>
		<stop  offset="0.8247" style="stop-color:#FBFBFB"/>
		<stop  offset="0.9366" style="stop-color:#EEEEEE"/>
		<stop  offset="1" style="stop-color:#E3E3E3"/>
	</radialGradient>
	<path class="st5" d="M61.9,35.3c-1.9,0-3.5,1.6-3.5,3.5c0,1.9,1.6,3.5,3.5,3.5c1.9,0,3.5-1.6,3.5-3.5
		C65.4,36.9,63.8,35.3,61.9,35.3z M61.9,40.8c-1.1,0-2-0.9-2-2c0-1.1,0.9-2,2-2c1.1,0,2,0.9,2,2C63.8,39.9,63,40.8,61.9,40.8z"/>
	<radialGradient id="SVGID_7_" cx="63.7986" cy="38.7113" r="3.4749" gradientUnits="userSpaceOnUse">
		<stop  offset="0.7204" style="stop-color:#FFFFFF"/>
		<stop  offset="0.8247" style="stop-color:#FBFBFB"/>
		<stop  offset="0.9366" style="stop-color:#EEEEEE"/>
		<stop  offset="1" style="stop-color:#E3E3E3"/>
	</radialGradient>
	<path class="st6" d="M63.8,35.2c-1.9,0-3.5,1.6-3.5,3.5c0,1.9,1.6,3.5,3.5,3.5c1.9,0,3.5-1.6,3.5-3.5
		C67.3,36.8,65.7,35.2,63.8,35.2z M63.8,40.7c-1.1,0-2-0.9-2-2c0-1.1,0.9-2,2-2c1.1,0,2,0.9,2,2C65.8,39.8,64.9,40.7,63.8,40.7z"/>
	<radialGradient id="SVGID_8_" cx="62.2141" cy="37.1739" r="3.4748" gradientUnits="userSpaceOnUse">
		<stop  offset="0.7688" style="stop-color:#000000"/>
		<stop  offset="1" style="stop-color:#575757"/>
	</radialGradient>
	<path class="st7" d="M62.2,33.7c-1.9,0-3.5,1.6-3.5,3.5s1.6,3.5,3.5,3.5c1.9,0,3.5-1.6,3.5-3.5S64.1,33.7,62.2,33.7z M62.2,39.1
		c-1.1,0-2-0.9-2-2c0-1.1,0.9-2,2-2s2,0.9,2,2C64.2,38.3,63.3,39.1,62.2,39.1z"/>
	<radialGradient id="SVGID_9_" cx="62.622" cy="39.1035" r="2.7689" gradientUnits="userSpaceOnUse">
		<stop  offset="0.7688" style="stop-color:#000000"/>
		<stop  offset="1" style="stop-color:#333333"/>
	</radialGradient>
	<path class="st8" d="M62.6,36.3c-1.5,0-2.8,1.2-2.8,2.8c0,1.5,1.2,2.8,2.8,2.8c1.5,0,2.8-1.2,2.8-2.8
		C65.4,37.6,64.2,36.3,62.6,36.3z M62.6,40.7c-0.9,0-1.6-0.7-1.6-1.6c0-0.9,0.7-1.6,1.6-1.6s1.6,0.7,1.6,1.6
		C64.2,40,63.5,40.7,62.6,40.7z"/>
	<path class="st9" d="M62.8,35c-1.8,0-3.2,1.4-3.2,3.2c0,1.8,1.4,3.2,3.2,3.2c1.8,0,3.2-1.4,3.2-3.2C65.9,36.4,64.5,35,62.8,35z
		 M62.8,39.9c-1,0-1.8-0.8-1.8-1.8s0.8-1.8,1.8-1.8c1,0,1.8,0.8,1.8,1.8S63.8,39.9,62.8,39.9z"/>
	<linearGradient id="SVGID_10_" gradientUnits="userSpaceOnUse" x1="55.4276" y1="45.7274" x2="65.0025" y2="35.5667">
		<stop  offset="0" style="stop-color:#660047"/>
		<stop  offset="0.2444" style="stop-color:#961152"/>
		<stop  offset="0.3871" style="stop-color:#9C134D"/>
		<stop  offset="0.5776" style="stop-color:#AD1940"/>
		<stop  offset="0.6399" style="stop-color:#B41C3B"/>
		<stop  offset="0.898" style="stop-color:#F15A22"/>
		<stop  offset="1" style="stop-color:#FABB16"/>
	</linearGradient>
	<path class="st10" d="M62.8,34.6c-1.9,0-3.4,1.5-3.4,3.4s1.5,3.4,3.4,3.4c1.9,0,3.4-1.5,3.4-3.4S64.6,34.6,62.8,34.6z M62.8,39.8
		c-1.1,0-1.9-0.9-1.9-1.9c0-1.1,0.9-1.9,1.9-1.9c1.1,0,1.9,0.9,1.9,1.9C64.7,39,63.8,39.8,62.8,39.8z"/>
	<linearGradient id="SVGID_11_" gradientUnits="userSpaceOnUse" x1="56.7443" y1="45.4783" x2="65.2877" y2="36.4123">
		<stop  offset="0" style="stop-color:#660047"/>
		<stop  offset="0.2444" style="stop-color:#961152"/>
		<stop  offset="0.3871" style="stop-color:#9C134D"/>
		<stop  offset="0.5776" style="stop-color:#AD1940"/>
		<stop  offset="0.6399" style="stop-color:#B41C3B"/>
		<stop  offset="0.898" style="stop-color:#F15A22"/>
		<stop  offset="1" style="stop-color:#FABB16"/>
	</linearGradient>
	<path class="st11" d="M63.3,35.5c-1.7,0-3,1.3-3,3s1.3,3,3,3c1.7,0,3-1.3,3-3S65,35.5,63.3,35.5z M63.3,40.2
		c-0.9,0-1.7-0.8-1.7-1.7c0-0.9,0.8-1.7,1.7-1.7c0.9,0,1.7,0.8,1.7,1.7C65,39.5,64.2,40.2,63.3,40.2z"/>
	<linearGradient id="SVGID_12_" gradientUnits="userSpaceOnUse" x1="55.9961" y1="46.2626" x2="65.5658" y2="36.0968">
		<stop  offset="0" style="stop-color:#660047"/>
		<stop  offset="0.2444" style="stop-color:#961152"/>
		<stop  offset="0.3871" style="stop-color:#9C134D"/>
		<stop  offset="0.5776" style="stop-color:#AD1940"/>
		<stop  offset="0.6399" style="stop-color:#B41C3B"/>
		<stop  offset="0.898" style="stop-color:#F15A22"/>
		<stop  offset="1" style="stop-color:#FABB16"/>
	</linearGradient>
	<path class="st12" d="M63.3,35.5c-1.7,0-3,1.3-3,3c0,1.7,1.3,3,3,3s3-1.3,3-3C66.3,36.8,65,35.5,63.3,35.5z M63.3,40.2
		c-0.9,0-1.7-0.8-1.7-1.7c0-0.9,0.8-1.7,1.7-1.7s1.7,0.8,1.7,1.7C65,39.4,64.2,40.2,63.3,40.2z"/>
	<linearGradient id="SVGID_13_" gradientUnits="userSpaceOnUse" x1="55.7606" y1="46.0408" x2="65.3302" y2="35.8751">
		<stop  offset="0" style="stop-color:#660047"/>
		<stop  offset="0.2444" style="stop-color:#961152"/>
		<stop  offset="0.3871" style="stop-color:#9C134D"/>
		<stop  offset="0.5776" style="stop-color:#AD1940"/>
		<stop  offset="0.6399" style="stop-color:#B41C3B"/>
		<stop  offset="0.898" style="stop-color:#F15A22"/>
		<stop  offset="1" style="stop-color:#FABB16"/>
	</linearGradient>
	<path class="st13" d="M62.5,35.7c-1.8,0-3.2,1.4-3.2,3.2c0,1.8,1.4,3.2,3.2,3.2c1.8,0,3.2-1.4,3.2-3.2
		C65.7,37.1,64.3,35.7,62.5,35.7z M62.5,40.6c-1,0-1.8-0.8-1.8-1.8c0-1,0.8-1.8,1.8-1.8c1,0,1.8,0.8,1.8,1.8
		C64.3,39.8,63.5,40.6,62.5,40.6z"/>
	<radialGradient id="SVGID_14_" cx="61.8847" cy="38.8211" r="3.4748" gradientUnits="userSpaceOnUse">
		<stop  offset="0.7204" style="stop-color:#FFFFFF"/>
		<stop  offset="0.8247" style="stop-color:#FBFBFB"/>
		<stop  offset="0.9366" style="stop-color:#EEEEEE"/>
		<stop  offset="1" style="stop-color:#E3E3E3"/>
	</radialGradient>
	<path class="st14" d="M61.9,35.3c-1.9,0-3.5,1.6-3.5,3.5c0,1.9,1.6,3.5,3.5,3.5c1.9,0,3.5-1.6,3.5-3.5
		C65.4,36.9,63.8,35.3,61.9,35.3z M61.9,40.8c-1.1,0-2-0.9-2-2c0-1.1,0.9-2,2-2c1.1,0,2,0.9,2,2C63.8,39.9,63,40.8,61.9,40.8z"/>
	<radialGradient id="SVGID_15_" cx="63.7986" cy="38.7113" r="3.4749" gradientUnits="userSpaceOnUse">
		<stop  offset="0.7204" style="stop-color:#FFFFFF"/>
		<stop  offset="0.8247" style="stop-color:#FBFBFB"/>
		<stop  offset="0.9366" style="stop-color:#EEEEEE"/>
		<stop  offset="1" style="stop-color:#E3E3E3"/>
	</radialGradient>
	<path class="st15" d="M63.8,35.2c-1.9,0-3.5,1.6-3.5,3.5c0,1.9,1.6,3.5,3.5,3.5c1.9,0,3.5-1.6,3.5-3.5
		C67.3,36.8,65.7,35.2,63.8,35.2z M63.8,40.7c-1.1,0-2-0.9-2-2c0-1.1,0.9-2,2-2c1.1,0,2,0.9,2,2C65.8,39.8,64.9,40.7,63.8,40.7z"/>
	<radialGradient id="SVGID_16_" cx="62.2141" cy="37.1739" r="3.4748" gradientUnits="userSpaceOnUse">
		<stop  offset="0.7688" style="stop-color:#000000"/>
		<stop  offset="1" style="stop-color:#575757"/>
	</radialGradient>
	<path class="st16" d="M62.2,33.7c-1.9,0-3.5,1.6-3.5,3.5s1.6,3.5,3.5,3.5c1.9,0,3.5-1.6,3.5-3.5S64.1,33.7,62.2,33.7z M62.2,39.1
		c-1.1,0-2-0.9-2-2c0-1.1,0.9-2,2-2s2,0.9,2,2C64.2,38.3,63.3,39.1,62.2,39.1z"/>
	<radialGradient id="SVGID_17_" cx="62.622" cy="39.1035" r="2.7689" gradientUnits="userSpaceOnUse">
		<stop  offset="0.7688" style="stop-color:#000000"/>
		<stop  offset="1" style="stop-color:#333333"/>
	</radialGradient>
	<path class="st17" d="M62.6,36.3c-1.5,0-2.8,1.2-2.8,2.8c0,1.5,1.2,2.8,2.8,2.8c1.5,0,2.8-1.2,2.8-2.8
		C65.4,37.6,64.2,36.3,62.6,36.3z M62.6,40.7c-0.9,0-1.6-0.7-1.6-1.6c0-0.9,0.7-1.6,1.6-1.6s1.6,0.7,1.6,1.6
		C64.2,40,63.5,40.7,62.6,40.7z"/>
</g>
<g id="XMLID_27_">
</g>
<g id="XMLID_28_">
</g>
<g id="XMLID_29_">
</g>
<g id="XMLID_30_">
</g>
<g id="XMLID_31_">
</g>
<g id="XMLID_32_">
</g>
<g id="XMLID_33_">
</g>
<g id="XMLID_34_">
</g>
<g id="XMLID_35_">
</g>
<g id="XMLID_36_">
</g>
<g id="XMLID_37_">
</g>
<g id="XMLID_38_">
</g>
<g id="XMLID_39_">
</g>
<g id="XMLID_40_">
</g>
<g id="XMLID_41_">
</g>
</svg>
