<?xml version="1.0" encoding="utf-8"?>
<!-- Generator: Adobe Illustrator 19.0.0, SVG Export Plug-In . SVG Version: 6.00 Build 0)  -->
<svg version="1.1" id="Layer_1" xmlns="http://www.w3.org/2000/svg" xmlns:xlink="http://www.w3.org/1999/xlink" x="0px" y="0px"
	 viewBox="0 0 288.7 48.8" style="enable-background:new 0 0 288.7 48.8;" xml:space="preserve">
<style type="text/css">
	.st0{fill:#2CA4D9;}
	.st1{fill:#24485E;}
	.st2{fill:#8B8B8B;}
	.st3{opacity:0.5;fill:#8B8B8B;stroke:#000000;stroke-width:0.75;stroke-miterlimit:10;}
</style>
<g id="XSECURITIES_1_">
	<g>
		<path class="st0" d="M4.9,6.2L0.6,0.1h3.1L6.5,4L4.9,6.2z M11.8,11.2l7.9-11.1h-3.1L0,23.3h3.1l7-9.7l7.1,9.7h3.2L11.8,11.2z"/>
		<path class="st1" d="M46.3,2.2l-1.1,2.5c-2.1-1.4-4.5-2-6.4-2c-3,0-4.9,1.1-4.9,3.1c0,6,13,2.8,13,11.3c0,3.9-3.4,6.4-8.4,6.4
			c-3.4,0-6.7-1.5-8.9-3.5l1.2-2.4c2.2,2.1,5.1,3.3,7.7,3.3c3.3,0,5.4-1.4,5.4-3.6c0-6.1-13-2.8-13-11.2c0-3.6,3.2-6,8-6
			C41.6,0,44.4,0.9,46.3,2.2z"/>
		<g>
			<rect x="62.9" y="10.3" class="st1" width="11.7" height="2.5"/>
			<rect x="62.9" y="20.8" class="st1" width="13.5" height="2.5"/>
			<rect x="62.9" y="0.1" class="st1" width="13.1" height="2.6"/>
		</g>
		<path class="st1" d="M108.1,3.4l-1.6,2c-1.8-1.8-4.3-2.9-6.9-2.9c-5.2,0-9.4,4-9.4,9.1c0,5.1,4.2,9.1,9.4,9.1c2.5,0,5-1.1,6.9-2.8
			l1.6,1.8c-2.3,2.2-5.4,3.6-8.6,3.6c-6.7,0-12-5.2-12-11.8C87.6,5.2,92.9,0,99.6,0C102.8,0,105.9,1.3,108.1,3.4z"/>
		<path class="st1" d="M139.1,13.7c0,6-3.6,9.7-9.7,9.7c-6.1,0-9.8-3.6-9.8-9.7V0.1h2.6v13.6c0,4.5,2.7,7.1,7.1,7.1
			c4.4,0,7.1-2.6,7.1-7.1V0.1h2.6V13.7z"/>
		<g>
			<path class="st1" d="M156.2,16v-2.5v-3.1V2.6h6.2c4.2,0,6.6,1.8,6.6,5.3c0,3.6-2.4,5.5-6.6,5.5h-1.8V16h1.8c0.5,0,1.1,0,1.6-0.1
				c0.6-0.1,1.8-0.3,2.4-0.5c3.4-0.9,5.2-3.7,5.2-7.5c0-4.9-3.3-7.8-9.1-7.8h-8.8v23.2h2.6v-4.5V16z"/>
			<polygon class="st1" points="168.7,18.8 165.8,18.8 168.7,23.3 171.7,23.3 			"/>
		</g>
		<path class="st1" d="M185.4,23.3V0.1h2.6v23.2H185.4z"/>
		<g>
			<rect x="206.8" y="5.6" class="st1" width="2.6" height="17.7"/>
			<polygon class="st1" points="199.2,0.1 199.2,2.6 206.8,2.6 209.4,2.6 217,2.6 217,0.1 			"/>
		</g>
		<path class="st1" d="M228.1,23.3V0.1h2.6v23.2H228.1z"/>
		<g>
			<rect x="247.5" y="10.3" class="st1" width="11.7" height="2.5"/>
			<rect x="247.5" y="20.8" class="st1" width="13.5" height="2.5"/>
			<rect x="247.5" y="0.1" class="st1" width="13.1" height="2.6"/>
		</g>
		<path class="st1" d="M288.2,2.2L287,4.6c-2.1-1.4-4.5-2-6.4-2c-3,0-4.9,1.1-4.9,3.1c0,6,13,2.8,13,11.3c0,3.9-3.4,6.4-8.4,6.4
			c-3.4,0-6.7-1.5-8.9-3.5l1.2-2.4c2.2,2.1,5.1,3.3,7.7,3.3c3.3,0,5.4-1.4,5.4-3.6c0-6.1-13-2.8-13-11.2c0-3.6,3.2-6,8-6
			C283.5,0,286.2,0.9,288.2,2.2z"/>
	</g>
	<g>
		<path class="st2" d="M58,41.4v2.4h3.1v0.7H58v2.9h-0.8v-6.7h4.3v0.7H58z"/>
		<path class="st2" d="M65.3,47.4v-6.7h0.8v6.7H65.3z"/>
		<path class="st2" d="M75.4,47.4l-4-5.4v5.4h-0.8v-6.7h0.8l4,5.4v-5.4h0.8v6.7H75.4z"/>
		<path class="st2" d="M81.2,45.7l-0.7,1.7h-0.8l3-6.7h0.8l3,6.7h-0.8l-0.7-1.7H81.2z M83.1,41.5l-1.5,3.4h3L83.1,41.5z"/>
		<path class="st2" d="M94.6,47.4l-4-5.4v5.4h-0.8v-6.7h0.8l4,5.4v-5.4h0.8v6.7H94.6z"/>
		<path class="st2" d="M105,41.6l-0.5,0.6c-0.5-0.5-1.2-0.8-2-0.8c-1.5,0-2.7,1.2-2.7,2.6c0,1.5,1.2,2.6,2.7,2.6
			c0.7,0,1.5-0.3,2-0.8l0.5,0.5c-0.7,0.6-1.6,1-2.5,1c-1.9,0-3.5-1.5-3.5-3.4c0-1.9,1.5-3.4,3.5-3.4C103.5,40.6,104.3,41,105,41.6z"
			/>
		<path class="st2" d="M109.6,47.4v-6.7h0.8v6.7H109.6z"/>
		<path class="st2" d="M115.7,45.7l-0.7,1.7h-0.8l3-6.7h0.8l3,6.7h-0.8l-0.7-1.7H115.7z M117.5,41.5l-1.5,3.4h3L117.5,41.5z"/>
		<path class="st2" d="M127.9,46.6v0.7h-3.7v-6.7h0.8v6H127.9z"/>
		<path class="st2" d="M168.9,47.4v-6.7h0.8v6.7H168.9z"/>
		<path class="st2" d="M179.1,47.4l-4-5.4v5.4h-0.8v-6.7h0.8l4,5.4v-5.4h0.8v6.7H179.1z"/>
		<path class="st2" d="M186.3,47.4l-2.7-6.7h0.8l2.3,5.8l2.3-5.8h0.8l-2.7,6.7H186.3z"/>
		<path class="st2" d="M194.4,41.4v2.2h3.4v0.7h-3.4v2.3h3.9v0.7h-4.7v-6.7h4.5v0.7H194.4z"/>
		<path class="st2" d="M206.6,41.3l-0.3,0.7c-0.6-0.4-1.3-0.6-1.8-0.6c-0.9,0-1.4,0.3-1.4,0.9c0,1.7,3.8,0.8,3.8,3.3
			c0,1.1-1,1.8-2.4,1.8c-1,0-1.9-0.4-2.6-1l0.3-0.7c0.6,0.6,1.5,0.9,2.2,0.9c1,0,1.6-0.4,1.6-1c0-1.8-3.8-0.8-3.8-3.2
			c0-1.1,0.9-1.7,2.3-1.7C205.3,40.6,206.1,40.9,206.6,41.3z"/>
		<path class="st2" d="M212.5,41.4v6h-0.8v-6h-2.2v-0.7h5.1v0.7H212.5z"/>
		<path class="st2" d="M224.1,47.4l0-5.5l-2.4,4.8h-0.5l-2.4-4.8v5.5h-0.7v-6.7h0.9l2.4,4.8l2.4-4.8h0.9v6.7H224.1z"/>
		<path class="st2" d="M230.1,41.4v2.2h3.4v0.7h-3.4v2.3h3.9v0.7h-4.7v-6.7h4.5v0.7H230.1z"/>
		<path class="st2" d="M243,47.4l-4-5.4v5.4h-0.8v-6.7h0.8l4,5.4v-5.4h0.8v6.7H243z"/>
		<path class="st2" d="M250.3,41.4v6h-0.8v-6h-2.2v-0.7h5.1v0.7H250.3z"/>
		<path class="st2" d="M260,41.3l-0.3,0.7c-0.6-0.4-1.3-0.6-1.8-0.6c-0.9,0-1.4,0.3-1.4,0.9c0,1.7,3.8,0.8,3.8,3.3
			c0,1.1-1,1.8-2.4,1.8c-1,0-1.9-0.4-2.6-1l0.3-0.7c0.6,0.6,1.5,0.9,2.2,0.9c1,0,1.6-0.4,1.6-1c0-1.8-3.8-0.8-3.8-3.2
			c0-1.1,0.9-1.7,2.3-1.7C258.7,40.6,259.5,40.9,260,41.3z"/>
		<line class="st3" x1="146.4" y1="41" x2="146.4" y2="48.8"/>
	</g>
</g>
</svg>
