<svg width="16" height="17" viewBox="0 0 16 17" fill="none" xmlns="http://www.w3.org/2000/svg">
<path d="M9.99992 9.13333H5.33325C5.05992 9.13333 4.83325 8.90666 4.83325 8.63333C4.83325 8.36 5.05992 8.13333 5.33325 8.13333H9.99992C10.2733 8.13333 10.4999 8.36 10.4999 8.63333C10.4999 8.90666 10.2733 9.13333 9.99992 9.13333Z" fill="#444444"/>
<path d="M8.25325 11.8H5.33325C5.05992 11.8 4.83325 11.5733 4.83325 11.3C4.83325 11.0267 5.05992 10.8 5.33325 10.8H8.25325C8.52658 10.8 8.75325 11.0267 8.75325 11.3C8.75325 11.5733 8.52658 11.8 8.25325 11.8Z" fill="#444444"/>
<path d="M9.33325 5.00001H6.66659C6.02659 5.00001 4.83325 5.00001 4.83325 3.16668C4.83325 1.33334 6.02659 1.33334 6.66659 1.33334H9.33325C9.97325 1.33334 11.1666 1.33334 11.1666 3.16668C11.1666 3.80668 11.1666 5.00001 9.33325 5.00001ZM6.66659 2.33334C6.00659 2.33334 5.83325 2.33334 5.83325 3.16668C5.83325 4.00001 6.00659 4.00001 6.66659 4.00001H9.33325C10.1666 4.00001 10.1666 3.82668 10.1666 3.16668C10.1666 2.33334 9.99325 2.33334 9.33325 2.33334H6.66659Z" fill="#444444"/>
<path d="M10 15.6667H6C2.25333 15.6667 1.5 13.9467 1.5 11.1667V7.16667C1.5 4.12667 2.6 2.82667 5.30667 2.68667C5.57333 2.67334 5.82 2.88001 5.83333 3.16001C5.84667 3.44001 5.63333 3.66667 5.36 3.68001C3.46667 3.78667 2.5 4.35334 2.5 7.16667V11.1667C2.5 13.6333 2.98667 14.6667 6 14.6667H10C13.0133 14.6667 13.5 13.6333 13.5 11.1667V7.16667C13.5 4.35334 12.5333 3.78667 10.64 3.68001C10.3667 3.66667 10.1533 3.42667 10.1667 3.15334C10.18 2.88001 10.42 2.66667 10.6933 2.68001C13.4 2.82667 14.5 4.12667 14.5 7.16001V11.16C14.5 13.9467 13.7467 15.6667 10 15.6667Z" fill="#444444"/>
</svg>
