<svg width="40" height="37" viewBox="0 0 40 37" fill="none" xmlns="http://www.w3.org/2000/svg">
<path d="M22.7514 31.2889H23.8015C24.1729 31.2889 24.5086 31.1466 24.7518 30.916C24.9949 30.6854 25.1454 30.3675 25.1454 30.0159C25.1454 29.6454 24.978 29.3116 24.7117 29.0791C24.4725 28.8703 24.1527 28.7429 23.8015 28.7429H16.1993C15.8482 28.7429 15.5284 28.8703 15.2891 29.0791C15.2756 29.0912 15.2621 29.1032 15.2486 29.1158C15.0055 29.3464 14.855 29.6642 14.855 30.0159C14.855 30.7192 15.4565 31.2889 16.1989 31.2889H17.249" stroke="#818490" stroke-width="2" stroke-linecap="round" stroke-linejoin="round"/>
<path d="M22.7512 31.2887C23.4935 31.2887 24.0951 31.8584 24.0951 32.5617C24.0951 32.9133 23.9446 33.2317 23.7015 33.4618C23.4583 33.6923 23.1221 33.8346 22.7512 33.8346H17.2493C16.5069 33.8346 15.9054 33.265 15.9054 32.5617C15.9054 32.21 16.0559 31.8917 16.299 31.6616C16.5421 31.431 16.8783 31.2887 17.2493 31.2887H22.7512Z" stroke="#818490" stroke-width="2" stroke-linecap="round" stroke-linejoin="round"/>
<path d="M24.7115 29.0788C25.0188 27.1103 25.8576 25.2396 27.1422 23.6338C28.4692 21.975 29.267 19.8463 29.267 17.5251C29.267 12.2306 25.1181 7.93896 20.0002 7.93896C14.8823 7.93896 10.7334 12.2311 10.7334 17.5251C10.7334 19.8463 11.5312 21.975 12.8582 23.6338C14.1433 25.2396 14.9816 27.1103 15.2889 29.0783" stroke="#818490" stroke-width="2" stroke-linecap="round" stroke-linejoin="round"/>
<path d="M20.0001 2.45447V4.8229" stroke="#818490" stroke-width="2" stroke-linecap="round" stroke-linejoin="round"/>
<path d="M9.07727 6.70959L10.8582 8.38438" stroke="#818490" stroke-width="2" stroke-linecap="round" stroke-linejoin="round"/>
<path d="M4.55322 16.9825H7.07167" stroke="#818490" stroke-width="2" stroke-linecap="round" stroke-linejoin="round"/>
<path d="M35.4466 16.9825H32.9281" stroke="#818490" stroke-width="2" stroke-linecap="round" stroke-linejoin="round"/>
<path d="M30.9225 6.70959L29.1416 8.38438" stroke="#818490" stroke-width="2" stroke-linecap="round" stroke-linejoin="round"/>
<path d="M22.0993 28.7424L22.0969 23.5536C22.0969 23.036 22.5397 22.6158 23.0863 22.6158H23.1104C23.6569 22.6158 24.0997 23.0355 24.0997 23.5531C24.0997 24.0794 23.642 24.5029 23.0863 24.4899L20.0005 24.4185L16.9148 24.4899C16.3591 24.5029 15.9014 24.0794 15.9014 23.5531C15.9014 23.0355 16.3442 22.6158 16.8907 22.6158H16.9148C17.4613 22.6158 17.9042 23.0355 17.9042 23.5536L17.9018 28.7424" stroke="#818490" stroke-width="2" stroke-linecap="round" stroke-linejoin="round"/>
</svg>
