<svg width="174" height="36" viewBox="0 0 174 36" fill="none" xmlns="http://www.w3.org/2000/svg">
<path d="M107.578 8.66744H110.361V9.11663H108.083V9.83853H110.133V10.2877H108.083V11.0979H110.361V11.547H107.578V8.66744ZM113 11.547H112.583L111.472 9.13267V11.547H110.97V8.66744H111.765L112.799 10.9214L113.834 8.66744H114.612V11.547H114.111V9.13267L113 11.547ZM115.358 11.547V8.66744H117.207C117.824 8.66744 118.173 8.93615 118.173 9.42544C118.173 9.78238 117.945 9.96687 117.744 10.0471C118.045 10.1433 118.265 10.392 118.265 10.7449C118.265 11.2503 117.872 11.547 117.279 11.547H115.358ZM115.851 9.85859H117.159C117.487 9.85859 117.688 9.73025 117.688 9.47758C117.688 9.22491 117.487 9.10059 117.159 9.10059H115.851V9.85859ZM115.851 10.2917V11.1139H117.251C117.576 11.1139 117.772 10.9455 117.772 10.7008C117.772 10.4602 117.576 10.2917 117.251 10.2917H115.851ZM119.953 8.66744H120.518L121.982 11.547H121.437L121.072 10.8251H119.399L119.034 11.547H118.485L119.953 8.66744ZM120.238 9.17278L119.628 10.376H120.847L120.238 9.17278ZM122.128 10.8612L122.497 10.5203C122.822 11.0016 123.343 11.146 123.776 11.146C124.294 11.146 124.666 10.9735 124.666 10.7168C124.666 10.412 124.426 10.388 123.584 10.2917C122.85 10.2075 122.328 10.0872 122.328 9.52571C122.328 9.00433 122.842 8.62333 123.644 8.62333C124.281 8.62333 124.859 8.86396 125.104 9.24096L124.735 9.54977C124.526 9.24096 124.125 9.0685 123.624 9.0685C123.054 9.0685 122.814 9.26502 122.814 9.47357C122.814 9.70217 122.998 9.75832 123.752 9.84655C124.626 9.94682 125.168 10.0431 125.168 10.6567C125.168 11.2703 124.546 11.5912 123.764 11.5912C123.054 11.5912 122.397 11.2984 122.128 10.8612ZM125.485 10.8612L125.854 10.5203C126.179 11.0016 126.7 11.146 127.133 11.146C127.651 11.146 128.024 10.9735 128.024 10.7168C128.024 10.412 127.783 10.388 126.941 10.2917C126.207 10.2075 125.686 10.0872 125.686 9.52571C125.686 9.00433 126.199 8.62333 127.001 8.62333C127.639 8.62333 128.216 8.86396 128.461 9.24096L128.092 9.54977C127.883 9.24096 127.482 9.0685 126.981 9.0685C126.412 9.0685 126.171 9.26502 126.171 9.47357C126.171 9.70217 126.355 9.75832 127.109 9.84655C127.984 9.94682 128.525 10.0431 128.525 10.6567C128.525 11.2703 127.903 11.5912 127.121 11.5912C126.412 11.5912 125.754 11.2984 125.485 10.8612ZM130.281 9.89067L131.364 8.66744H131.989L130.533 10.2957V11.547H130.02V10.2957L128.56 8.66744H129.194L130.281 9.89067ZM135.181 8.62333C136.155 8.62333 136.869 9.25299 136.869 10.1072C136.869 10.9615 136.155 11.5912 135.181 11.5912C134.206 11.5912 133.492 10.9615 133.492 10.1072C133.492 9.25299 134.206 8.62333 135.181 8.62333ZM135.181 9.07652C134.487 9.07652 134.018 9.49362 134.018 10.1072C134.018 10.7209 134.487 11.138 135.181 11.138C135.874 11.138 136.344 10.7209 136.344 10.1072C136.344 9.49362 135.874 9.07652 135.181 9.07652ZM137.946 11.547H137.441V8.66744H140.172V9.11663H137.946V9.89869H139.944V10.3479H137.946V11.547Z" fill="#11172F"/>
<path d="M109.848 15.2326H111.029L113.622 20.3748H112.483L111.889 19.1787H108.981L108.379 20.3748H107.255L109.848 15.2326ZM110.435 16.2711L109.425 18.2835H111.438L110.435 16.2711ZM115.426 20.3748H114.388V15.2326H119.287V16.1422H115.426V17.4241H118.878V18.3337H115.426V20.3748ZM122.918 15.1538C124.264 15.1538 125.274 15.7554 125.668 16.7438L124.744 17.1878C124.451 16.4859 123.82 16.0777 122.911 16.0777C121.751 16.0777 120.898 16.7581 120.898 17.8037C120.898 18.8421 121.736 19.5368 122.882 19.5368C123.835 19.5368 124.694 19.0856 124.766 18.4482H122.452V17.5602H125.747V20.3748H124.759V19.7732C124.465 20.1456 123.734 20.4535 122.875 20.4535C121.092 20.4535 119.817 19.3291 119.817 17.7894C119.817 16.2639 121.12 15.1538 122.918 15.1538ZM131.243 15.2326H132.303V20.3748H131.243V18.1904H127.942V20.3748H126.889V15.2326H127.942V17.2809H131.243V15.2326ZM135.647 15.2326H136.828L139.421 20.3748H138.282L137.688 19.1787H134.78L134.179 20.3748H133.054L135.647 15.2326ZM136.234 16.2711L135.224 18.2835H137.237L136.234 16.2711ZM145.494 15.2326V20.3748H144.563L141.204 16.5719V20.3748H140.187V15.2326H141.261L144.47 18.8636V15.2326H145.494ZM147.801 15.2326V20.3748H146.749V15.2326H147.801ZM148.521 19.2575L149.23 18.5199C149.817 19.3077 150.748 19.5512 151.507 19.5512C152.367 19.5512 152.976 19.2933 152.976 18.878C152.976 18.391 152.553 18.348 151.106 18.1904C149.846 18.0472 148.879 17.8109 148.879 16.7939C148.879 15.8199 149.832 15.1538 151.293 15.1538C152.438 15.1538 153.47 15.5621 153.935 16.178L153.233 16.8512C152.839 16.3427 152.109 16.0491 151.235 16.0491C150.319 16.0491 149.903 16.3427 149.903 16.6865C149.903 17.0589 150.247 17.1448 151.55 17.2952C153.011 17.4599 154.043 17.6533 154.043 18.7634C154.043 19.8878 152.918 20.4535 151.464 20.4535C150.24 20.4535 149.022 19.9809 148.521 19.2575ZM160.129 16.1422H157.858V20.3748H156.798V16.1422H154.528V15.2326H160.129V16.1422ZM162.244 15.2326H163.426L166.019 20.3748H164.88L164.286 19.1787H161.378L160.776 20.3748H159.652L162.244 15.2326ZM162.832 16.2711L161.822 18.2835H163.834L162.832 16.2711ZM172.092 15.2326V20.3748H171.161L167.802 16.5719V20.3748H166.785V15.2326H167.859L171.068 18.8636V15.2326H172.092Z" fill="#11172F"/>
<path d="M108.145 24.3305V27.2025H107.557V24.3305H108.145ZM108.347 26.5785L108.743 26.1665C109.071 26.6065 109.591 26.7425 110.015 26.7425C110.495 26.7425 110.835 26.5985 110.835 26.3665C110.835 26.0945 110.599 26.0705 109.791 25.9825C109.087 25.9025 108.547 25.7705 108.547 25.2025C108.547 24.6585 109.079 24.2865 109.895 24.2865C110.535 24.2865 111.111 24.5145 111.371 24.8585L110.979 25.2345C110.759 24.9505 110.351 24.7865 109.863 24.7865C109.351 24.7865 109.119 24.9505 109.119 25.1425C109.119 25.3505 109.311 25.3985 110.039 25.4825C110.855 25.5745 111.431 25.6825 111.431 26.3025C111.431 26.9305 110.803 27.2465 109.991 27.2465C109.307 27.2465 108.627 26.9825 108.347 26.5785ZM111.752 27.2025V24.3305H112.34V26.6945H114.36V27.2025H111.752ZM115.866 24.3305H116.526L117.974 27.2025H117.338L117.006 26.5345H115.382L115.046 27.2025H114.418L115.866 24.3305ZM116.194 24.9105L115.63 26.0345H116.754L116.194 24.9105ZM120.294 27.2025H119.818L118.774 24.8905V27.2025H118.202V24.3305H119.098L120.062 26.4825L121.026 24.3305H121.91V27.2025H121.334V24.8905L120.294 27.2025ZM123.581 24.3305H124.241L125.689 27.2025H125.053L124.721 26.5345H123.097L122.761 27.2025H122.133L123.581 24.3305ZM123.909 24.9105L123.345 26.0345H124.469L123.909 24.9105ZM125.917 27.2025V24.3305H127.801C128.421 24.3305 128.773 24.6025 128.773 25.0945C128.773 25.4385 128.549 25.6265 128.353 25.7105C128.641 25.8065 128.861 26.0505 128.861 26.3985C128.861 26.9025 128.477 27.2025 127.869 27.2025H125.917ZM126.481 25.4985H127.741C128.037 25.4985 128.217 25.3865 128.217 25.1585C128.217 24.9345 128.037 24.8185 127.741 24.8185H126.481V25.4985ZM126.481 25.9745V26.7105H127.829C128.121 26.7105 128.293 26.5625 128.293 26.3425C128.293 26.1265 128.121 25.9745 127.829 25.9745H126.481ZM130.292 24.3305H130.952L132.4 27.2025H131.764L131.432 26.5345H129.808L129.472 27.2025H128.844L130.292 24.3305ZM130.62 24.9105L130.056 26.0345H131.18L130.62 24.9105ZM132.627 27.2025V24.3305H134.095C135.103 24.3305 135.739 24.8905 135.739 25.7665C135.739 26.6425 135.103 27.2025 134.095 27.2025H132.627ZM133.203 26.6985H134.095C134.751 26.6985 135.139 26.3305 135.139 25.7665C135.139 25.1985 134.751 24.8345 134.095 24.8345H133.203V26.6985ZM135.766 27.2025V26.5545H136.422V27.1905C136.422 27.5665 136.162 27.7905 135.766 27.7905V27.4945C135.95 27.4825 136.042 27.4025 136.042 27.2305V27.2025H135.766ZM138.485 26.1465V27.2025H137.897V24.3305H139.693C140.349 24.3305 140.781 24.6425 140.781 25.2385C140.781 25.8305 140.349 26.1465 139.693 26.1465H138.485ZM138.485 25.6465H139.661C140.001 25.6465 140.201 25.4945 140.201 25.2385C140.201 24.9785 140.001 24.8305 139.661 24.8305H138.485V25.6465ZM141.854 24.3305H142.514L143.962 27.2025H143.326L142.994 26.5345H141.37L141.034 27.2025H140.406L141.854 24.3305ZM142.182 24.9105L141.618 26.0345H142.742L142.182 24.9105ZM144.778 24.3305V25.7065L146.39 24.3305H147.218L145.75 25.5465L147.31 27.2025H146.534L145.318 25.9065L144.778 26.3545V27.2025H144.19V24.3305H144.778ZM148.094 24.3305V27.2025H147.506V24.3305H148.094ZM148.296 26.5785L148.692 26.1665C149.02 26.6065 149.54 26.7425 149.964 26.7425C150.444 26.7425 150.784 26.5985 150.784 26.3665C150.784 26.0945 150.548 26.0705 149.74 25.9825C149.036 25.9025 148.496 25.7705 148.496 25.2025C148.496 24.6585 149.028 24.2865 149.844 24.2865C150.484 24.2865 151.06 24.5145 151.32 24.8585L150.928 25.2345C150.708 24.9505 150.3 24.7865 149.812 24.7865C149.3 24.7865 149.068 24.9505 149.068 25.1425C149.068 25.3505 149.26 25.3985 149.988 25.4825C150.804 25.5745 151.38 25.6825 151.38 26.3025C151.38 26.9305 150.752 27.2465 149.94 27.2465C149.256 27.2465 148.576 26.9825 148.296 26.5785ZM154.579 24.8385H153.311V27.2025H152.719V24.8385H151.451V24.3305H154.579V24.8385ZM155.561 24.3305H156.221L157.669 27.2025H157.033L156.701 26.5345H155.077L154.741 27.2025H154.113L155.561 24.3305ZM155.889 24.9105L155.325 26.0345H156.449L155.889 24.9105ZM160.861 24.3305V27.2025H160.341L158.465 25.0785V27.2025H157.897V24.3305H158.497L160.289 26.3585V24.3305H160.861Z" fill="#C59714"/>
<g clip-path="url(#clip0_707_6596)">
<path d="M23.0917 11.9426C22.8875 11.9426 22.716 11.9141 22.5753 11.859C22.4366 11.8039 22.3248 11.7298 22.24 11.6405C22.1572 11.5493 22.0975 11.441 22.0628 11.3175C22.0281 11.194 22.0107 11.0648 22.0107 10.9318V9.77098H22.8046V10.7931C22.8046 10.9432 22.8316 11.0382 22.8836 11.08C22.9356 11.1218 23.0223 11.1427 23.1418 11.1427H35.0594V9.2067H35.8629V11.9426H23.0917ZM28.0495 8.12944C28.0495 8.01924 28.09 7.92424 28.169 7.84635C28.248 7.76845 28.3482 7.73045 28.4676 7.73045C28.5871 7.73045 28.6892 7.76845 28.7682 7.84635C28.8472 7.92424 28.8858 8.01734 28.8858 8.12944C28.8858 8.24153 28.8472 8.33653 28.7682 8.41253C28.6892 8.48852 28.589 8.52652 28.4676 8.52652C28.3462 8.52652 28.248 8.48852 28.169 8.41253C28.09 8.33653 28.0495 8.24153 28.0495 8.12944ZM29.1401 8.12944C29.1401 8.01924 29.1786 7.92424 29.2576 7.84635C29.3366 7.76845 29.4368 7.73045 29.5582 7.73045C29.6796 7.73045 29.7779 7.76845 29.8569 7.84635C29.9359 7.92424 29.9764 8.01734 29.9764 8.12944C29.9764 8.24153 29.9359 8.33653 29.8569 8.41253C29.7779 8.48852 29.6777 8.52652 29.5582 8.52652C29.4388 8.52652 29.3347 8.48852 29.2576 8.41253C29.1786 8.33653 29.1401 8.24153 29.1401 8.12944Z" fill="#11172F"/>
<path d="M37.5934 11.8324C37.5934 12.0395 37.5664 12.2314 37.5106 12.4119C37.4566 12.5905 37.3718 12.7482 37.2601 12.8812C37.1483 13.0142 37.0115 13.1186 36.8477 13.1946C36.6859 13.2706 36.497 13.3086 36.2832 13.3086C36.1926 13.3086 36.1117 13.3048 36.0384 13.2972C35.9652 13.2896 35.8997 13.282 35.8419 13.2706C35.8092 13.2649 35.7783 13.2611 35.7475 13.2554C35.7167 13.2497 35.6858 13.244 35.6531 13.2364L35.7475 12.4518L35.9421 12.4917C35.9961 12.5012 36.0539 12.5107 36.1155 12.5183C36.1772 12.5259 36.2311 12.5297 36.2812 12.5297C36.4855 12.5297 36.6223 12.4651 36.6936 12.3359C36.7629 12.2067 36.7976 12.0186 36.7976 11.7735V9.2067H37.5915V11.8324H37.5934Z" fill="#11172F"/>
<path d="M38.3813 7.01608H39.1752V11.1427H39.6531C39.7282 11.1427 39.7783 11.1617 39.8072 11.1978C39.8361 11.2339 39.8477 11.2795 39.8477 11.3308V11.7507C39.8477 11.7868 39.8303 11.8286 39.7976 11.8742C39.7648 11.9198 39.7167 11.9426 39.6531 11.9426H38.3813V7.01608Z" fill="#11172F"/>
<path d="M47.0176 11.1427H47.694C47.7691 11.1427 47.8192 11.1617 47.8462 11.1978C47.8732 11.2339 47.8847 11.2795 47.8847 11.3308V11.7507C47.8847 11.7868 47.8693 11.8286 47.8385 11.8742C47.8077 11.9198 47.7595 11.9426 47.694 11.9426H39.6166C39.5453 11.9426 39.4952 11.9236 39.4682 11.8875C39.4412 11.8514 39.4297 11.8096 39.4297 11.7659V11.3574C39.4297 11.308 39.4451 11.2605 39.4759 11.213C39.5068 11.1655 39.553 11.1427 39.6166 11.1427H44.3567C44.3239 11.0933 44.2854 11.0097 44.243 10.8919C44.2006 10.7741 44.1775 10.6259 44.1775 10.4454C44.1775 10.2555 44.2141 10.0712 44.2892 9.89257C44.3644 9.71398 44.4684 9.55438 44.6014 9.41759C44.7343 9.28079 44.8981 9.1687 45.0908 9.0832C45.2835 8.9977 45.4974 8.95591 45.7324 8.95591C45.927 8.95591 46.1024 8.9882 46.2623 9.0528C46.4203 9.1174 46.5552 9.2086 46.667 9.32639C46.7787 9.44229 46.8635 9.58478 46.9252 9.74818C46.9868 9.91347 47.0157 10.0978 47.0157 10.3011V11.1427H47.0176ZM46.2141 11.1427V10.2612C46.2141 10.2004 46.2045 10.1358 46.1833 10.0712C46.164 10.0066 46.1294 9.94767 46.085 9.89447C46.0388 9.84127 45.981 9.79947 45.9097 9.76717C45.8384 9.73488 45.7517 9.71968 45.6496 9.71968C45.5629 9.71968 45.4781 9.73678 45.3972 9.77098C45.3162 9.80517 45.243 9.85457 45.1794 9.91727C45.1158 9.97997 45.0657 10.0541 45.0291 10.1396C44.9925 10.2251 44.9752 10.3239 44.9752 10.4341C44.9752 10.5993 45.0079 10.7285 45.0715 10.8235C45.137 10.9185 45.2083 10.9907 45.2893 11.042C45.376 11.0952 45.4819 11.1294 45.6072 11.1408H46.2122L46.2141 11.1427ZM45.2372 8.12944C45.2372 8.01924 45.2777 7.92424 45.3606 7.84635C45.4434 7.76845 45.5417 7.73045 45.6554 7.73045C45.7768 7.73045 45.8789 7.76845 45.9598 7.84635C46.0407 7.92424 46.0812 8.01734 46.0812 8.12944C46.0812 8.24153 46.0407 8.33653 45.9598 8.41253C45.8789 8.48852 45.7768 8.52652 45.6554 8.52652C45.5417 8.52652 45.4415 8.48852 45.3606 8.41253C45.2777 8.33653 45.2372 8.24153 45.2372 8.12944Z" fill="#11172F"/>
<path d="M47.6456 11.9426C47.5782 11.9426 47.53 11.9236 47.5011 11.8875C47.4722 11.8514 47.4587 11.8096 47.4587 11.7659V11.3574C47.4587 11.308 47.4742 11.2605 47.505 11.213C47.5358 11.1655 47.5821 11.1427 47.6456 11.1427H52.7036C52.8115 11.1427 52.879 11.1104 52.9117 11.0477C52.9426 10.9831 52.958 10.8976 52.958 10.7893V9.84507H53.7538V10.5119C53.7538 10.6962 53.7981 10.8482 53.8867 10.966C53.9754 11.0838 57.989 11.1427 58.2202 11.1427H58.3956C58.4996 11.1427 58.569 11.1123 58.6037 11.0534C58.6364 10.9945 58.6538 10.9052 58.6538 10.7874V9.57338H59.4476V10.51C59.4476 10.6943 59.492 10.8463 59.5806 10.9641C59.6692 11.0819 59.8311 11.1408 60.0642 11.1408H64.3303V9.2048H65.1184V11.9407H60.045C59.8484 11.9407 59.6885 11.8932 59.569 11.7982C59.4476 11.7032 59.3532 11.6006 59.2858 11.4866C59.2087 11.6367 59.095 11.7507 58.9447 11.8267C58.7944 11.9027 58.6229 11.9407 58.4283 11.9407H58.2067C57.9967 11.9407 53.9773 11.8951 53.8559 11.8058C53.7345 11.7165 53.642 11.6139 53.5784 11.5018C53.4994 11.6424 53.3838 11.7507 53.2316 11.8267C53.0813 11.9027 52.9002 11.9407 52.6902 11.9407H47.6399L47.6456 11.9426Z" fill="#11172F"/>
</g>
<path d="M4.58508 21.776C4.58508 22.3093 4.42499 22.7511 4.09718 23.0862C3.78462 23.4138 3.3882 23.5814 2.9003 23.5814H2.6716C2.1837 23.5814 1.78728 23.4138 1.47472 23.0786C1.15453 22.7435 0.986816 22.3093 0.986816 21.7684V17.655H1.77203V21.7303C1.77203 22.454 2.10746 22.8196 2.78595 22.8196C3.46444 22.8196 3.78462 22.454 3.78462 21.7303V17.655H4.57746V21.776H4.58508ZM2.3133 17.1675V16.3067H3.09851V17.1675H2.3133Z" fill="#11172F"/>
<path d="M7.33728 21.9284C6.7579 21.9284 6.30049 21.7685 5.96506 21.4409C5.62963 21.121 5.46191 20.6792 5.46191 20.1155V15.9716H6.24713V20.0774C6.23951 20.8011 6.60543 21.1667 7.33728 21.1667V21.9284Z" fill="#11172F"/>
<path d="M6.92554 16.84V15.9792H7.71075V16.84H6.92554ZM10.0969 21.9284H10.013C9.38029 21.9132 8.90763 21.7228 8.60269 21.3419C8.30538 21.7304 7.84797 21.9284 7.2381 21.9284H7.14662V21.1667H7.2381C7.86322 21.1667 8.16816 20.8696 8.16816 20.2678V17.6474H8.95337V20.2983C8.95337 20.8772 9.30405 21.1667 10.0054 21.1667H10.0893V21.9284H10.0969ZM8.16816 16.84V15.9792H8.95337V16.84H8.16816Z" fill="#11172F"/>
<path d="M9.92139 21.9284V21.1667H19.0466V17.6931H19.809V21.1667H21.1888V17.6474H21.9664V21.1667H23.4454V17.6474H24.2306V21.1667H32.9213V21.9284H9.92139Z" fill="#11172F"/>
<path d="M34.8808 20.1231C34.8808 20.6867 34.7207 21.1286 34.3929 21.4485C34.065 21.7684 33.6153 21.936 33.0511 21.936H32.6318V21.1743H33.0511C33.7525 21.1743 34.1032 20.8086 34.1032 20.085V17.655H34.8808V20.1231ZM34.0803 16.8399V15.9868H34.8655V16.8399H34.0803Z" fill="#11172F"/>
<path d="M37.6403 21.9284C37.0609 21.9284 36.6035 21.7685 36.268 21.4409C35.9326 21.121 35.7649 20.6792 35.7649 20.1155V15.9716H36.5501V20.0774C36.5425 20.8011 36.9084 21.1667 37.6403 21.1667V21.9284Z" fill="#11172F"/>
<path d="M48.9383 21.9284C48.6334 21.9284 48.3361 21.8751 48.0388 21.776C47.7414 21.8827 47.4441 21.9284 47.1392 21.9284H37.4041V21.1666H47.1468L45.6907 19.8336C45.6907 19.2013 45.8966 18.6757 46.3006 18.2644C46.7351 17.8226 47.3069 17.5941 48.0311 17.5941C48.7554 17.5941 49.3195 17.815 49.7617 18.2644C50.1733 18.6834 50.3868 19.209 50.3868 19.8336L48.9307 21.1666H58.6658V21.9284H48.9307H48.9383ZM49.533 19.6812C49.533 19.3156 49.3957 19.0033 49.1289 18.7367C48.8468 18.4548 48.4885 18.3101 48.0616 18.2949H48.0159C47.5966 18.2949 47.2459 18.432 46.9639 18.7062C46.6894 18.9728 46.5522 19.3004 46.5522 19.6736C46.8038 19.9174 47.2993 20.3744 48.0464 21.0524L49.5406 19.6736L49.533 19.6812ZM47.65 16.8399V15.9868H48.4352V16.8399H47.65Z" fill="#11172F"/>
<path d="M60.9909 21.9284H58.3914V21.1667H59.5272C59.329 20.8315 59.2376 20.3821 59.2376 19.8108C59.2376 19.1252 59.3976 18.5844 59.7102 18.2035C60.0151 17.8302 60.4421 17.6474 60.9909 17.6474C61.5398 17.6474 61.982 17.8302 62.2869 18.2035C62.5995 18.5844 62.752 19.1328 62.752 19.8412C62.752 21.2276 62.165 21.9284 60.9833 21.9284H60.9909ZM60.9909 18.3254C60.3658 18.3254 60.0456 18.8205 60.0456 19.8184C60.0456 20.3135 60.1219 20.6639 60.282 20.8772C60.4268 21.0753 60.6631 21.1667 60.9833 21.1667C61.3035 21.1667 61.5627 21.0677 61.7152 20.8772C61.8753 20.6715 61.9515 20.3211 61.9515 19.8336C61.9515 18.8281 61.6313 18.3254 60.9833 18.3254H60.9909ZM60.5793 16.8323V15.9792H61.3493V16.8323H60.5793Z" fill="#11172F"/>
<path d="M62.9807 15.4841V15.0575H63.3771V14.9737C63.3771 14.3719 63.6211 14.0672 64.1014 14.0672C64.4215 14.0672 64.6502 14.25 64.7951 14.6157H64.3301C64.2691 14.5243 64.1928 14.4786 64.109 14.4786C63.9184 14.4786 63.8269 14.6385 63.8269 14.9508V15.0499H64.8637V15.4764H62.9883L62.9807 15.4841ZM63.6363 21.9284V15.9792H64.4215V21.9284H63.6363Z" fill="#11172F"/>
<path d="M23.9944 28.9671C23.9944 30.0341 23.494 30.5677 22.4932 30.5677C22.0635 30.5677 21.7287 30.4486 21.4888 30.2105C21.2238 29.9473 21.0913 29.5498 21.0913 29.0181C21.0913 28.6851 21.1352 28.3458 21.2229 28.0003L21.8513 27.8848C21.7475 28.2411 21.6956 28.6001 21.6956 28.9617C21.6956 29.7137 21.9802 30.0896 22.5496 30.0896C23.1099 30.0896 23.3901 29.728 23.3901 29.0047V26.7112H23.9944V28.9671ZM22.5147 27.3128C22.4216 27.3128 22.3428 27.2806 22.2783 27.2161C22.2139 27.1516 22.1816 27.072 22.1816 26.9771C22.1816 26.8858 22.2139 26.8079 22.2783 26.7434C22.3428 26.679 22.4216 26.6468 22.5147 26.6468C22.6095 26.6468 22.6892 26.6781 22.7537 26.7408C22.8181 26.8052 22.8503 26.884 22.8503 26.9771C22.8503 27.0702 22.8181 27.149 22.7537 27.2134C22.6892 27.2797 22.6095 27.3128 22.5147 27.3128ZM24.937 25.4195H25.5413V28.8194H26.124V29.2974H24.937V25.4195ZM26.0435 28.8194H26.8303V26.7112H27.4346V28.8194H27.969V29.2974H26.0435V28.8194ZM27.4668 26.2439C27.3773 26.2439 27.3012 26.2126 27.2385 26.1499C27.1759 26.0873 27.1445 26.0085 27.1445 25.9136C27.1445 25.8241 27.1759 25.7471 27.2385 25.6827C27.3012 25.6182 27.3773 25.586 27.4668 25.586C27.5581 25.586 27.6351 25.6182 27.6978 25.6827C27.7604 25.7471 27.7918 25.8241 27.7918 25.9136C27.7918 26.0049 27.7604 26.0828 27.6978 26.1473C27.6351 26.2117 27.5581 26.2439 27.4668 26.2439ZM26.6101 26.2439C26.5206 26.2439 26.4454 26.2126 26.3845 26.1499C26.3219 26.0855 26.2905 26.0067 26.2905 25.9136C26.2905 25.8241 26.3219 25.7471 26.3845 25.6827C26.4472 25.6182 26.5224 25.586 26.6101 25.586C26.7032 25.586 26.7802 25.6182 26.8411 25.6827C26.9037 25.7453 26.9351 25.8223 26.9351 25.9136C26.9351 26.0067 26.9037 26.0846 26.8411 26.1473C26.7802 26.2117 26.7032 26.2439 26.6101 26.2439ZM27.8857 28.8194H28.1382C28.3333 28.8194 28.4703 28.7692 28.5491 28.669C28.6314 28.5634 28.6726 28.3736 28.6726 28.0996V27.0415H29.2769V28.0486C29.2769 28.3512 29.2992 28.5544 29.344 28.6582C29.4013 28.7943 29.5221 28.8623 29.7065 28.8623C30.0467 28.8623 30.2168 28.5929 30.2168 28.054V26.8213H30.7942V28.2205C30.7942 28.4694 30.8479 28.6332 30.9553 28.712C31.0502 28.7836 31.2427 28.8194 31.5327 28.8194H31.6965C31.7234 28.549 31.7368 28.3091 31.7368 28.0996C31.7368 27.5661 31.6795 27.0693 31.5649 26.6092L32.1531 26.5098C32.2784 26.995 32.3411 27.5097 32.3411 28.054C32.3411 28.3046 32.3303 28.5598 32.3088 28.8194H32.8862V29.2974H31.5059C31.1764 29.2974 30.9347 29.2697 30.7808 29.2141C30.6196 29.1533 30.4997 29.0432 30.4209 28.8838C30.292 29.1846 30.0154 29.335 29.5911 29.335C29.2008 29.335 28.9609 29.1846 28.8713 28.8838C28.7675 29.1595 28.5213 29.2974 28.1328 29.2974H27.8857V28.8194ZM32.8003 28.8194H34.5056C34.4949 28.336 34.3749 27.9546 34.1458 27.6753C33.922 27.405 33.5764 27.2089 33.1091 27.0872V26.6414L35.2361 25.304V25.9082L33.8074 26.7784C34.6685 27.1508 35.0991 27.8839 35.0991 28.9778V29.2974H32.8003V28.8194ZM36.1196 25.4195H36.7239V28.8194H37.3066V29.2974H36.1196V25.4195ZM37.2261 28.8194H38.2976V26.7112H38.9045V29.2974H37.2261V28.8194ZM38.491 30.5462C38.491 30.6285 38.4632 30.6975 38.4077 30.753C38.3522 30.8085 38.2824 30.8362 38.1982 30.8362C38.1195 30.8362 38.0514 30.8085 37.9941 30.753C37.9369 30.6975 37.9082 30.6285 37.9082 30.5462C37.9082 30.4656 37.9369 30.3967 37.9941 30.3394C38.0514 30.2821 38.1195 30.2535 38.1982 30.2535C38.2824 30.2535 38.3522 30.2821 38.4077 30.3394C38.4632 30.3949 38.491 30.4638 38.491 30.5462ZM38.9207 29.907C38.9207 29.993 38.8911 30.0646 38.832 30.1219C38.7747 30.1809 38.7031 30.2105 38.6172 30.2105C38.5348 30.2105 38.4641 30.1809 38.405 30.1219C38.3459 30.0646 38.3164 29.993 38.3164 29.907C38.3164 29.8229 38.3459 29.7504 38.405 29.6895C38.4641 29.6304 38.5348 29.6009 38.6172 29.6009C38.7031 29.6009 38.7747 29.6304 38.832 29.6895C38.8911 29.7504 38.9207 29.8229 38.9207 29.907ZM38.0828 29.907C38.0828 29.993 38.0541 30.0646 37.9968 30.1219C37.9377 30.1809 37.8661 30.2105 37.782 30.2105C37.696 30.2105 37.6244 30.1809 37.5671 30.1219C37.5081 30.0646 37.4785 29.993 37.4785 29.907C37.4785 29.8229 37.5081 29.7504 37.5671 29.6895C37.6244 29.6304 37.696 29.6009 37.782 29.6009C37.8661 29.6009 37.9377 29.6304 37.9968 29.6895C38.0541 29.7504 38.0828 29.8229 38.0828 29.907ZM41.0879 29.3511C40.9733 29.3511 40.8793 29.3072 40.8059 29.2195C40.7325 29.1264 40.6976 29.0065 40.7012 28.8597C40.7101 28.498 40.9277 28.1265 41.3538 27.7452L41.6008 27.9654C41.2804 28.3091 41.2016 28.5804 41.3645 28.7791C41.4576 28.8919 41.4737 29.0154 41.4128 29.1497C41.3538 29.284 41.2454 29.3511 41.0879 29.3511ZM42.0171 28.8194H43.7224C43.7117 28.3557 43.6007 27.9869 43.3894 27.7129C43.1728 27.4336 42.8344 27.2286 42.3743 27.0979L42.5273 26.5904C43.1397 26.7658 43.5872 27.0353 43.8701 27.3987C44.1673 27.7836 44.3159 28.3118 44.3159 28.9832V29.2974H42.0171V28.8194ZM45.127 25.4195H45.7312V28.8194H46.314V29.2974H45.127V25.4195ZM46.2334 28.8194H47.0203V26.7112H47.6245V29.2974H46.2334V28.8194ZM46.937 30.4576C46.8439 30.4576 46.7651 30.4253 46.7007 30.3609C46.6344 30.2946 46.6013 30.215 46.6013 30.1219C46.6013 30.0288 46.6344 29.95 46.7007 29.8855C46.7651 29.8193 46.8439 29.7862 46.937 29.7862C47.0301 29.7862 47.1098 29.8193 47.176 29.8855C47.2405 29.95 47.2727 30.0288 47.2727 30.1219C47.2727 30.215 47.2405 30.2946 47.176 30.3609C47.1098 30.4253 47.0301 30.4576 46.937 30.4576ZM48.3577 25.4195H48.9646V29.2974H48.3577V25.4195ZM47.7534 24.7105L48.2825 24.3211C48.4454 24.4661 48.6173 24.5386 48.7981 24.5386C48.9986 24.5386 49.1911 24.4616 49.3755 24.3077V24.7642C49.209 24.9038 49.0076 24.9737 48.7712 24.9737C48.5618 24.9737 48.3988 24.9155 48.2825 24.7991L47.979 25.014L47.7534 24.7105ZM53.4307 29.2974C52.5283 29.2974 52.0476 28.925 51.9885 28.1802H51.8462C51.6654 28.1802 51.5454 28.2384 51.4863 28.3548C51.4255 28.4711 51.4165 28.6645 51.4595 28.9349L51.7468 30.7261H51.1641L50.8821 28.9778C50.8194 28.5822 50.8651 28.2751 51.019 28.0567C51.1838 27.8204 51.4666 27.7022 51.8677 27.7022H52.0154C52.0727 27.3907 52.215 27.1409 52.4424 26.9529C52.6859 26.7488 52.9965 26.6468 53.3743 26.6468C54.1817 26.6468 54.5855 27.0612 54.5855 27.8902V29.2974H53.4307ZM53.9946 27.9842C53.9946 27.4113 53.7735 27.1248 53.3313 27.1248C53.1003 27.1248 52.9168 27.2027 52.7808 27.3584C52.6483 27.5088 52.582 27.7093 52.582 27.96C52.582 28.5329 52.89 28.8194 53.5059 28.8194H53.9946V27.9842ZM54.9802 29.2974V28.8194H56.6802V25.4195H57.2844V28.8194H57.8618V29.2974H54.9802ZM56.1968 28.3628H55.5791L54.7493 25.4705L55.3481 25.3872L56.1968 28.3628ZM57.7812 28.8194H58.0337C58.2288 28.8194 58.3658 28.7692 58.4446 28.669C58.5269 28.5634 58.5681 28.3736 58.5681 28.0996V27.0415H59.1724V28.0486C59.1724 28.3512 59.1947 28.5544 59.2395 28.6582C59.2968 28.7943 59.4176 28.8623 59.6021 28.8623C59.9422 28.8623 60.1123 28.5929 60.1123 28.054V26.8213H60.6897V28.2205C60.6897 28.4694 60.7434 28.6332 60.8508 28.712C60.9457 28.7836 61.1382 28.8194 61.4282 28.8194H61.592C61.6189 28.549 61.6323 28.3091 61.6323 28.0996C61.6323 27.5661 61.575 27.0693 61.4604 26.6092L62.0486 26.5098C62.1739 26.995 62.2366 27.5097 62.2366 28.054C62.2366 28.4837 62.207 28.8982 62.1479 29.2974H61.4014C61.0719 29.2974 60.8302 29.2697 60.6763 29.2141C60.5151 29.1533 60.3952 29.0432 60.3164 28.8838C60.1875 29.1846 59.9109 29.335 59.4866 29.335C59.0963 29.335 58.8564 29.1846 58.7668 28.8838C58.663 29.1595 58.4168 29.2974 58.0283 29.2974H57.7812V28.8194ZM63.1416 25.4195H63.7458V29.2974H63.1416V25.4195Z" fill="#C59714"/>
<g clip-path="url(#clip1_707_6596)">
<rect x="69.522" y="1.0565" width="33.7709" height="33.7709" rx="16.8855" fill="#5064BA"/>
<g clip-path="url(#clip2_707_6596)">
<path d="M99.4564 17.1913L99.9559 16.4318L99.3444 15.9224L98.8345 16.6818L99.4564 17.1913Z" fill="white"/>
<path d="M98.5442 15.5453L99.1556 16.0291L99.584 15.2493L98.9516 14.755L98.5442 15.5453Z" fill="white"/>
<path d="M92.4605 29.2638L92.483 30.0604C93.1886 30.2675 93.9674 30.4348 94.3241 30.8302C92.6671 31.3444 90.8161 33.7718 89.7485 31.3737C89.2961 29.529 87.1312 30.0321 86.9351 28.5687C86.3843 30.8674 89.3139 30.3449 89.5932 31.9443L89.5628 32.3517C88.8714 31.3423 87.6448 31.3622 87.7076 30.3444L87.4398 31.1048C87.3022 31.7618 88.0732 32.0013 88.3096 32.8141C87.7144 32.4229 86.8713 32.3413 86.7279 31.3847L86.8922 30.813C86.0867 31.2502 85.4946 32.1995 84.8941 32.5395C84.4611 32.7848 83.9406 32.7655 84.0149 32.1634L84.2158 31.8596L84.4469 31.1174C83.5912 31.5144 82.8715 32.2461 82.3328 32.2869C81.7946 32.3282 81.4373 31.6791 81.5943 30.9406C82.9604 26.8762 77.8377 25.4227 78.3263 21.4492C76.9318 25.5555 81.7883 27.1377 81.565 30.5578C81.3432 31.8685 80.9645 32.3931 81.7438 32.9412C82.5389 33.3031 83.1644 32.2539 83.9704 31.9956C83.3559 33.4825 84.0798 33.7618 84.9438 33.0923C85.8403 32.4197 86.0114 31.9145 86.5553 31.6378C86.1536 33.0097 87.4131 33.1216 88.1721 33.6128L88.5748 32.4155C88.8677 32.6106 89.1611 32.8052 89.431 33.311C89.6319 32.8915 89.6936 32.3951 89.703 31.87C90.1005 33.5343 91.2183 33.3429 92.2743 32.7838C93.2121 32.2874 93.7242 31.5604 94.6725 31.6064L94.6976 30.8778C94.6563 29.8062 93.4538 29.6142 92.4605 29.2643V29.2638Z" fill="white"/>
<path d="M91.8491 30.8533L92.0516 30.0876L91.1823 29.8381L90.9709 30.6043L91.8491 30.8533Z" fill="white"/>
<path d="M91.1603 31.2058L91.2153 31.699C91.0039 32.2414 90.5782 32.074 90.4255 31.4553C90.3407 31.1132 90.2319 30.6603 90.2612 30.1247C90.3088 31.3669 90.8146 31.9359 91.1603 31.2053V31.2058Z" fill="white"/>
<path d="M85.6118 30.5269L86.1605 29.9469L85.5213 29.4066L84.969 30.006L85.6118 30.5269Z" fill="white"/>
<path d="M84.8937 30.0217L84.3455 30.5938L83.5803 30.0457L84.1442 29.4693L84.8937 30.0217Z" fill="white"/>
<path d="M86.4916 28.8046L86.7097 28.3344C86.0606 27.7313 83.7184 29.5766 82.5912 28.121C82.3736 27.7674 82.371 27.4912 82.5719 26.8469C82.1906 27.4185 82.1341 27.8694 82.257 28.247C83.0719 30.2565 85.8404 28.1597 86.4921 28.804L86.4916 28.8046Z" fill="white"/>
<path d="M84.2529 27.826L84.6311 27.4918L84.969 27.8406L84.5824 28.1602L84.2529 27.826Z" fill="white"/>
<path d="M83.9139 27.4191L84.2528 27.826L83.8752 28.1602L83.531 27.7292L83.9139 27.4191Z" fill="white"/>
<path d="M88.3075 27.531C88.387 27.1732 88.3792 26.8861 88.2087 26.7287C89.9358 26.2752 91.2622 25.5189 92.3323 24.5686C92.4751 24.5691 92.5578 24.6669 92.5933 24.8411C92.3815 25.2705 92.0143 25.7605 91.598 26.2694C91.9034 26.1601 92.2032 25.919 92.4961 25.5435C92.6891 25.2155 92.7335 24.874 92.6619 24.5215C92.5348 24.146 92.3643 23.9378 92.0515 24.2893C90.736 25.4954 89.1449 26.1648 87.3101 26.3584C87.2698 26.3625 87.2384 26.396 87.2374 26.4368L87.2295 26.8029C87.2285 26.8448 87.2593 26.8798 87.3007 26.8851C87.683 26.9295 88.2876 27.156 88.308 27.5315L88.3075 27.531Z" fill="white"/>
<path d="M82.951 27.1319C83.2125 26.8056 83.5509 26.5738 84.0489 26.5372C82.8317 26.259 81.5147 25.3777 80.1401 24.147C82.4452 25.5053 84.4547 26.4243 85.8063 26.3646C85.8544 26.3625 85.8816 26.4169 85.8534 26.4556C85.1771 27.3798 84.1979 26.3155 82.9515 27.1319H82.951Z" fill="white"/>
<path d="M81.8615 28.293C82.826 26.9515 80.5497 26.2569 80.6815 25.0623C79.6935 26.2637 82.0142 26.8024 81.8615 28.293Z" fill="white"/>
<path d="M78.2369 25.0623L77.8744 25.4326C78.0198 26.3657 78.2641 27.3145 77.5967 28.1163C78.7531 27.1455 78.3771 26.0979 78.2369 25.0628V25.0623Z" fill="white"/>
<path d="M80.0957 29.0336L79.3164 29.2418L79.6328 30.1205L80.396 29.928L80.0957 29.0336Z" fill="white"/>
<path d="M79.5174 28.3317L79.3631 28.6461C79.3301 28.7136 79.2773 28.7695 79.2108 28.804C78.4796 29.1827 78.6732 27.7308 79.4169 26.9515C78.6496 28.0587 79.0278 28.7831 79.5174 28.3317Z" fill="white"/>
<path d="M82.7443 31.1948L83.1643 30.4866C82.407 29.3276 78.5887 32.5254 77.7927 29.7816C77.6044 29.1869 77.9171 28.4222 78.8843 27.2365C78.0955 28.1325 77.6881 28.8386 77.4323 29.4693C76.8836 31.0876 78.3544 31.8512 79.7091 31.5044C80.8614 31.2089 82.1695 30.5316 82.7443 31.1948Z" fill="white"/>
<path d="M80.9101 32.154C80.1444 32.2712 80.2532 31.9982 81.0885 31.4014L80.0868 32.154C79.8807 32.5222 80.1287 32.5599 80.5633 32.4611L80.9106 32.154H80.9101Z" fill="white"/>
<path d="M86.3555 33.1452L86.1238 33.5856C85.6849 33.8011 85.392 33.8099 85.4626 33.3031L85.9826 32.3428C85.4851 33.3764 85.7608 33.4574 86.3555 33.1452Z" fill="white"/>
<path d="M100.288 24.1088L99.7005 23.568C98.8301 23.6146 99.0822 25.0749 97.862 25.1073C99.111 24.2244 99.5603 24.3369 99.9819 24.4838C99.3867 25.0837 99.2538 26.0566 98.7349 26.7433C98.2726 27.3558 97.5706 27.5943 96.6794 26.7177L96.1318 26.0634C95.4853 25.4336 94.2566 25.5283 94.4564 26.5011C94.4915 26.6722 94.5673 26.8322 94.6683 26.9745L95.0218 27.4714C95.3624 27.8934 95.7651 27.837 96.2311 27.3009C96.5837 28.541 96.2165 29.7648 95.3603 29.4013C95.2117 29.3381 95.0825 29.2371 94.9758 29.1152C93.6687 27.621 92.9276 28.0744 91.2732 28.3464C89.6177 28.6178 87.7526 28.7653 86.072 26.6753C89.1857 31.6545 93.3931 27.1356 95.0553 29.4155C95.0857 29.4573 95.1155 29.4991 95.1489 29.5384C96.0847 30.6477 96.91 30.0054 96.8541 28.9761C96.7845 27.6973 96.3697 26.5257 97.0868 25.749L96.4126 24.8374C96.2798 26.0058 95.6971 27.2522 94.901 27.0901C94.9 26.1492 95.9037 26.0346 96.6956 26.8113L97.4739 27.5608C99.6749 28.7245 99.4751 25.9352 100.681 24.9488L100.143 24.3907C99.3636 23.5199 98.3102 23.7709 97.0879 24.7098L97.726 25.2433C99.5436 26.5629 99.3684 24.0455 100.289 24.1088H100.288Z" fill="white"/>
<path d="M93.3251 26.5555L94.14 26.2977L93.8408 25.5445L93.0259 25.8437L93.3251 26.5555Z" fill="white"/>
<path d="M89.5818 27.0137C90.4359 28.1958 93.2441 26.0184 94.4022 28.054C92.8215 26.6696 90.0844 28.8778 89.5818 27.0137Z" fill="white"/>
<path d="M95.7161 28.1016L95.9776 28.5357C95.9415 29.0828 95.7004 29.1513 95.2166 28.6545L94.5627 27.6968C95.2453 28.6053 95.6946 28.9092 95.7161 28.1021V28.1016Z" fill="white"/>
<path d="M96.9817 28.054L97.3321 28.69C97.5382 28.7664 97.613 28.5912 97.6235 28.292L97.8552 28.69C97.896 29.2559 97.5518 29.213 97.3442 28.8443L96.9817 28.054Z" fill="white"/>
<path d="M95.4806 30.0844C95.4864 30.4803 95.3749 30.6896 94.8885 30.2989L94.4905 29.7277L94.9335 30.5206C95.206 31.006 95.8049 31.0808 95.716 30.5206L95.4806 30.0844Z" fill="white"/>
<path d="M95.9021 23.1114L96.7918 22.8917L96.648 22.069L95.7876 22.3274L95.9021 23.1114Z" fill="white"/>
<path d="M93.1363 23.9639C93.5856 23.6454 94.0208 23.5826 94.4324 23.953C94.1829 23.6402 93.947 23.4629 93.7184 23.3635C95.1322 21.7787 94.9738 19.2504 95.5287 19.7107C95.6579 20.0564 95.7834 20.5318 95.9074 21.0732C96.0141 20.3906 95.9325 19.8728 95.5742 19.5982C94.2504 18.3785 95.2358 21.6595 92.8209 23.5764C92.789 23.6015 92.7838 23.648 92.8099 23.6789L93.039 23.9514C93.0631 23.9802 93.1054 23.9849 93.1363 23.9629V23.9639Z" fill="white"/>
<path d="M92.4683 23.8489C95.5908 27.531 98.3337 21.2855 101.242 22.069C98.682 19.3854 95.9952 26.5555 92.4683 23.8489Z" fill="white"/>
<path d="M100.537 23.8489C101.198 21.7222 102.087 20.4638 100.786 19.0051C98.8344 17.7838 96.7511 19.2917 97.2036 20.6459C98.8768 20.7217 98.6969 19.1432 99.6912 19.4591L100.336 20.0072C99.3925 19.5574 98.8768 22.069 97.1805 20.8038L96.7637 20.4434C96.1172 19.6898 96.7255 18.6155 97.7198 18.2148C98.6681 17.8325 99.9689 18.0846 100.833 18.9267C101.824 19.775 102.261 20.6657 102.023 21.6098C101.735 22.3781 101.19 23.1193 100.537 23.8494L100.537 23.8489Z" fill="white"/>
<path d="M101.496 17.5997L101.976 17.7117C102.461 18.2242 102.393 18.526 101.667 18.5752L100.59 18.3513C101.624 18.4993 102.198 18.3963 101.496 17.5997Z" fill="white"/>
<path d="M95.2896 18.2525L95.0035 18.0427C94.9889 18.0318 94.9795 18.0155 94.9784 17.9972C94.9141 17.083 94.8043 16.0793 95.2457 16.1562C95.5914 16.334 95.7473 16.5521 95.8488 16.7812L95.5365 16.4402C95.2687 16.6311 95.3456 17.446 95.388 18.1991C95.3911 18.2514 95.3315 18.2833 95.2896 18.2525Z" fill="white"/>
<path d="M75.6299 27.1335L74.87 27.3641L74.8914 27.5331C74.0273 26.8673 74.3506 26.589 74.8271 25.7349C76.4239 22.6993 74.2726 18.4805 77.8424 16.5767C73.3003 18.0417 75.5128 22.4388 74.3804 25.4624C73.7438 26.7726 72.8416 26.9619 74.6796 28.1157L75.462 28.6984L76.2518 28.4374C75.8648 28.1785 75.6514 27.7496 75.6305 27.133L75.6299 27.1335Z" fill="white"/>
<path d="M75.3544 26.6973L76.1369 26.4823C76.253 25.2182 73.665 25.794 72.1654 23.1993C71.59 22.2034 71.316 20.4591 71.1868 18.5663C70.9697 19.5328 70.9127 19.9596 70.9221 21.7154C70.9242 22.1067 70.9995 22.4953 71.1512 22.8562C72.4437 25.9363 75.5631 25.4567 75.3554 26.6968L75.3544 26.6973Z" fill="white"/>
<path d="M71.9979 18.1986C69.6677 19.3545 74.248 22.6935 73.5801 24.1909L74.3908 24.124C74.7507 22.0549 71.4204 20.4141 72.2719 18.6657C72.3907 18.4219 72.5968 18.23 72.8483 18.1306C73.283 17.9591 73.8699 17.9366 74.4473 18.2504C73.9671 17.9162 73.3782 17.845 72.4712 18.037C72.3075 18.0715 72.1475 18.1238 71.9973 18.1981L71.9979 18.1986Z" fill="white"/>
<path d="M77.4041 17.3377L77.8079 17.6139C77.7927 18.3513 78.0663 19.6139 77.5888 19.5093C77.3534 19.468 77.1437 19.2206 76.9438 18.8953L77.2948 19.1934C77.5736 19.0198 77.4224 18.0558 77.4047 17.3377H77.4041Z" fill="white"/>
<path d="M78.8389 22.8007L79.3541 22.7338C79.579 23.0413 79.8112 23.3494 79.8823 23.6491C79.8959 23.705 79.8557 23.7605 79.7987 23.7683L79.1637 23.8572L79.3331 23.7945C79.3729 23.7798 79.3949 23.7369 79.3844 23.6956C79.296 23.3363 79.0816 23.0596 78.8389 22.8007Z" fill="white"/>
<path d="M75.6628 29.5771C80.0125 28.293 74.7648 22.7913 78.0469 19.6207C73.749 21.4497 78.4993 27.6963 75.6628 29.5771Z" fill="white"/>
<path d="M80.3286 6.40223L80.3061 5.60566C79.6005 5.39854 78.8217 5.23117 78.465 4.83576C80.122 4.32163 81.9731 1.89425 83.0406 4.29234C83.493 6.13705 85.6579 5.6339 85.8541 7.09733C86.4048 4.79863 83.4753 5.32113 83.196 3.72171L83.2263 3.31427C83.9178 4.32372 85.1443 4.30384 85.0815 5.32165L85.3493 4.56117C85.4869 3.90425 84.7159 3.6647 84.4795 2.85192C85.0747 3.24314 85.9179 3.32473 86.0612 4.28135L85.897 4.85302C86.7024 4.41577 87.2945 3.46647 87.895 3.12651C88.3281 2.88121 88.8485 2.90056 88.7742 3.50256L88.5734 3.80644L88.3422 4.54862C89.1979 4.15164 89.9176 3.41993 90.4563 3.37913C90.9946 3.33781 91.3518 3.98689 91.1949 4.7254C89.8287 8.78985 94.9514 10.2433 94.4629 14.2168C95.8573 10.1105 91.0008 8.52834 91.2242 5.10826C91.4459 3.79755 91.8246 3.27295 91.0453 2.72482C90.2503 2.36289 89.6247 3.41208 88.8187 3.67046C89.4333 2.18349 88.7094 1.90419 87.8453 2.57367C86.9488 3.24628 86.7778 3.75152 86.2338 4.02821C86.6355 2.6563 85.376 2.54438 84.6171 2.05325L84.2143 3.25046C83.9214 3.05537 83.628 2.86081 83.3581 2.35504C83.1572 2.77451 83.0955 3.27086 83.0861 3.79598C82.6886 2.13171 81.5708 2.32314 80.5148 2.88225C79.577 3.37861 79.0649 4.10561 78.1167 4.05959L78.0916 4.78817C78.1329 5.85985 79.3354 6.0518 80.3286 6.40171V6.40223Z" fill="white"/>
<path d="M80.9395 4.81275L80.7371 5.57899L81.6064 5.82795L81.8182 5.06171L80.9395 4.81275Z" fill="white"/>
<path d="M81.6282 4.46023L81.5732 3.96701C81.7846 3.42463 82.2103 3.592 82.363 4.21074C82.4478 4.5528 82.5566 5.00575 82.5273 5.54133C82.4797 4.29914 81.9739 3.73008 81.6282 4.46075V4.46023Z" fill="white"/>
<path d="M87.1766 5.13912L86.6279 5.71916L87.2671 6.25944L87.8194 5.66005L87.1766 5.13912Z" fill="white"/>
<path d="M87.8948 5.64436L88.4429 5.07217L89.2081 5.62083L88.6443 6.19668L87.8948 5.64436Z" fill="white"/>
<path d="M86.297 6.86145L86.0789 7.33165C86.728 7.9347 89.0702 6.08946 90.1973 7.54505C90.4149 7.89861 90.4175 8.17477 90.2167 8.81914C90.598 8.24747 90.6545 7.79662 90.5315 7.419C89.7166 5.40952 86.9482 7.50634 86.2964 6.86197L86.297 6.86145Z" fill="white"/>
<path d="M88.5356 7.84004L88.1575 8.17425L87.8196 7.82539L88.2061 7.50582L88.5356 7.84004Z" fill="white"/>
<path d="M88.8746 8.24695L88.5356 7.84004L88.9133 7.50582L89.2574 7.9368L88.8746 8.24695Z" fill="white"/>
<path d="M84.6991 8.08795C84.6112 8.44361 84.6123 8.73128 84.7791 8.89237C83.0421 9.30504 81.6984 10.0305 80.6063 10.9552C80.4635 10.9515 80.3829 10.8516 80.3521 10.6769C80.5739 10.2522 80.9525 9.77158 81.3809 9.27261C81.0728 9.3746 80.7679 9.60839 80.4661 9.97713C80.2658 10.3004 80.213 10.6409 80.2762 10.9955C80.3945 11.3741 80.487 11.5509 80.8809 11.2418C82.2277 10.064 83.8382 9.43161 85.6824 9.28307C85.7159 9.28046 85.7421 9.25378 85.7436 9.22031L85.7614 8.82856C85.763 8.79456 85.7384 8.76423 85.7044 8.76004C85.3242 8.71036 84.7111 8.46872 84.6996 8.08847L84.6991 8.08795Z" fill="white"/>
<path d="M89.8709 8.42949C89.6026 8.7501 89.2589 8.97396 88.7605 9.00011C89.9713 9.30451 91.2685 10.2146 92.6164 11.4751C90.349 10.0713 88.3651 9.10995 87.013 9.13348C86.9596 9.13453 86.9304 9.07333 86.9628 9.03149C87.6584 8.14077 88.6114 9.21507 89.8709 8.42896V8.42949Z" fill="white"/>
<path d="M90.9269 7.37297C89.9624 8.71454 92.2387 9.40912 92.1069 10.6037C93.0949 9.40232 90.7741 8.8636 90.9269 7.37297Z" fill="white"/>
<path d="M94.5516 10.6037L94.914 10.2334C94.7686 9.30033 94.5244 8.35156 95.1918 7.54976C94.0353 8.52049 94.4114 9.56812 94.5516 10.6032V10.6037Z" fill="white"/>
<path d="M92.6933 6.63289L93.4721 6.42472L93.1557 5.54551L92.3926 5.73799L92.6933 6.63289Z" fill="white"/>
<path d="M93.2712 7.33427L93.4255 7.01993C93.4585 6.95246 93.5113 6.89649 93.5777 6.86197C94.309 6.4833 94.1154 7.93522 93.3717 8.71454C94.139 7.60729 93.7608 6.88289 93.2712 7.33427Z" fill="white"/>
<path d="M90.044 4.47121L89.624 5.17939C90.3814 6.33842 94.1996 3.14063 94.9957 5.88443C95.184 6.47912 94.8712 7.24378 93.9041 8.42949C94.6929 7.53354 95.1003 6.82745 95.3561 6.19668C95.9047 4.57843 94.4339 3.81481 93.0793 4.16158C91.927 4.45709 90.6189 5.13441 90.044 4.47121Z" fill="white"/>
<path d="M91.8783 3.51198C92.644 3.39482 92.5353 3.66784 91.7 4.26462L92.7016 3.51198C92.9077 3.14377 92.6597 3.10611 92.2251 3.20496L91.8778 3.51198H91.8783Z" fill="white"/>
<path d="M86.4329 2.52084L86.6646 2.08045C87.1034 1.86496 87.3963 1.85607 87.3257 2.36289L86.8058 3.32317C87.3032 2.28966 87.0276 2.20859 86.4329 2.52084Z" fill="white"/>
<path d="M72.5012 11.5572L73.0886 12.098C73.9589 12.0515 73.7068 10.5912 74.9271 10.5587C73.6781 11.4416 73.2288 11.3292 72.8072 11.1822C73.4024 10.5823 73.5353 9.60944 74.0541 8.9227C74.5165 8.31024 75.2184 8.07174 76.1097 8.94833L76.6573 9.60264C77.3038 10.2324 78.5324 10.1377 78.3326 9.16487C78.2976 8.99383 78.2218 8.83379 78.1208 8.69153L77.7672 8.19465C77.4267 7.77257 77.024 7.82905 76.5579 8.36516C76.2054 7.12506 76.5726 5.90117 77.4288 6.26468C77.5774 6.32796 77.7066 6.42891 77.8133 6.55077C79.1203 8.04506 79.8615 7.5916 81.5159 7.31962C83.1703 7.04765 85.0365 6.90068 86.7171 8.9907C83.6034 4.01147 79.396 8.53043 77.7337 6.25055C77.7034 6.20871 77.6736 6.16687 77.6401 6.12764C76.7044 5.0183 75.879 5.66058 75.935 6.6899C76.0046 7.9687 76.4193 9.14028 75.7022 9.91698L76.3764 10.8286C76.5093 9.66017 77.092 8.4138 77.888 8.57594C77.8891 9.51686 76.8854 9.63141 76.0935 8.85471L75.3152 8.10521C73.1142 6.94147 73.314 9.73078 72.1084 10.7172L72.6461 11.2753C73.4254 12.1461 74.4788 11.8951 75.7012 10.9562L75.0631 10.4227C73.2455 9.10315 73.4207 11.6205 72.4996 11.5572H72.5012Z" fill="white"/>
<path d="M79.4633 9.11047L78.6489 9.36832L78.9476 10.1215L79.7625 9.82231L79.4633 9.11047Z" fill="white"/>
<path d="M83.2069 8.6523C82.3527 7.47026 79.5445 9.64762 78.3865 7.612C79.9671 8.99645 82.7042 6.78823 83.2069 8.6523Z" fill="white"/>
<path d="M77.0726 7.5644L76.811 7.13029C76.8471 6.5832 77.0882 6.51468 77.5721 7.01156L78.2259 7.96922C77.5433 7.06072 77.094 6.75684 77.0726 7.56388V7.5644Z" fill="white"/>
<path d="M75.8067 7.612L75.4563 6.97599C75.2502 6.89963 75.1754 7.07485 75.165 7.37402L74.9333 6.97599C74.8925 6.41008 75.2366 6.45297 75.4443 6.8217L75.8067 7.612Z" fill="white"/>
<path d="M77.308 5.5816C77.3023 5.18567 77.4137 4.97646 77.9001 5.36716L78.2981 5.9383L77.8551 5.14539C77.5826 4.66002 76.9837 4.58523 77.0726 5.14539L77.308 5.5816Z" fill="white"/>
<path d="M76.8862 12.5546L75.9971 12.7748L76.1404 13.597L77.0008 13.3386L76.8862 12.5546Z" fill="white"/>
<path d="M79.6847 11.7805C79.2364 12.0886 78.8044 12.1435 78.3991 11.7727C78.6459 12.0875 78.8803 12.2669 79.1083 12.3679C77.6809 13.9401 77.8174 16.47 77.2667 16.0045C77.1406 15.6577 77.0193 15.1807 76.9 14.6389C76.7876 15.3204 76.8644 15.8387 77.2206 16.1164C78.5314 17.3455 77.5805 14.0709 79.9943 12.1728C80.0336 12.1419 80.0409 12.0849 80.0085 12.0462L79.8029 11.7973C79.7736 11.7622 79.7229 11.7544 79.6852 11.78L79.6847 11.7805Z" fill="white"/>
<path d="M80.3202 11.8171C77.1976 8.13502 74.4548 14.3805 71.5466 13.597C74.1064 16.2807 76.7933 9.11047 80.3202 11.8171Z" fill="white"/>
<path d="M72.2512 11.8171C71.5906 13.9438 70.7014 15.2022 72.0022 16.6609C73.9542 17.8822 76.0375 16.3743 75.5851 15.0202C73.9118 14.9443 74.0918 16.5228 73.0975 16.2069L72.4531 15.6588C73.3961 16.1086 73.9118 13.597 75.6081 14.8622L76.0249 15.2226C76.6714 15.9763 76.0631 17.0506 75.0688 17.4512C74.1205 17.8335 72.8197 17.5814 71.9556 16.7394C70.9645 15.892 70.5267 15.0008 70.7652 14.0567C71.0534 13.2884 71.5984 12.5473 72.2512 11.8171Z" fill="white"/>
<path d="M73.3323 18.4748L72.8328 19.2342L73.4442 19.7436L73.9542 18.9842L73.3323 18.4748Z" fill="white"/>
<path d="M74.2444 20.1213L73.633 19.6369L73.2046 20.4168L73.837 20.911L74.2444 20.1213Z" fill="white"/>
<path d="M71.2928 18.0663L70.8132 17.9544C70.3283 17.4418 70.3958 17.14 71.1223 17.0908L72.1992 17.3147C71.1647 17.1667 70.5909 17.2697 71.2928 18.0663Z" fill="white"/>
<path d="M97.1585 8.53252L97.9185 8.30187L97.8971 8.13293C98.7611 8.79875 98.4379 9.077 97.9614 9.9311C96.3645 12.9668 98.5158 17.1855 94.946 19.0893C99.4882 17.6243 97.2757 13.2272 98.4081 10.2036C99.0446 8.89341 99.9469 8.70408 98.1089 7.55028L97.3264 6.96762L96.5366 7.22862C96.9237 7.48751 97.1371 7.9164 97.158 8.53305L97.1585 8.53252Z" fill="white"/>
<path d="M97.4342 8.96925L96.6517 9.18422C96.5356 10.4484 99.1236 9.87252 100.623 12.4673C101.199 13.4631 101.473 15.2074 101.602 17.1002C101.819 16.1337 101.876 15.7069 101.866 13.9511C101.864 13.5599 101.789 13.1713 101.637 12.8104C100.345 9.73026 97.2255 10.2099 97.4332 8.96978L97.4342 8.96925Z" fill="white"/>
<path d="M100.79 17.4674C103.121 16.3115 98.5403 12.9725 99.2083 11.4751L98.3976 11.542C98.0377 13.6111 101.368 15.2519 100.516 17.0003C100.398 17.2441 100.192 17.436 99.94 17.5354C99.5054 17.707 98.9185 17.7294 98.3411 17.4156C98.8212 17.7498 99.4102 17.821 100.317 17.629C100.481 17.5945 100.641 17.5422 100.791 17.4679L100.79 17.4674Z" fill="white"/>
<path d="M94.0381 13.03L93.5229 13.097C93.298 12.7894 93.0657 12.4814 92.9946 12.1817C92.981 12.1257 93.0213 12.0703 93.0783 12.0624L93.7133 11.9735L93.5438 12.0363C93.504 12.0509 93.4821 12.0938 93.4925 12.1351C93.5809 12.4945 93.7954 12.7711 94.0381 13.03Z" fill="white"/>
<path d="M97.1255 6.08894C92.7759 7.37297 98.0236 12.8747 94.7415 16.0453C99.0393 14.2163 94.289 7.96975 97.1255 6.08894Z" fill="white"/>
</g>
<g clip-path="url(#clip3_707_6596)">
<rect x="79.4546" y="10.9891" width="13.9057" height="13.9057" rx="6.95284" fill="white"/>
<g clip-path="url(#clip4_707_6596)">
<path d="M90.994 15.0469C90.7862 16.132 93.1927 17.2592 92.5867 19.0958L92.4696 19.8133L91.8265 19.3081C91.8123 19.6721 91.6922 20.1987 91.5564 20.7506C91.1227 20.5632 89.6414 20.0763 89.8832 18.3418C89.2796 18.3342 88.931 19.9392 88.5778 20.8049C88.1648 22.1942 86.9496 21.9185 87.0651 20.2632L87.1214 19.5965C87.1255 19.5487 87.1802 19.5244 87.2182 19.5533C88.3305 20.3871 89.0222 20.8156 89.0166 22.8939L88.8109 23.6692C88.2601 22.544 85.8028 24.0693 85.8637 20.3033C85.6964 16.8881 82.0362 16.4032 83.1713 12.368C82.7928 15.9162 86.1282 16.263 86.1125 20.121C86.1966 22.7329 88.0533 22.1713 88.8884 22.7344C88.7668 21.4594 88.0229 20.8354 87.1817 20.3134C87.5349 21.2142 88.1324 21.0324 88.3513 20.5399C88.8241 19.5812 88.9872 17.7106 89.9131 17.5522C89.9587 17.5446 89.9977 17.5837 89.9936 17.6294C89.8203 19.4365 91.3517 19.8316 91.6461 19.957C91.674 19.8011 91.6867 19.7056 91.6968 19.6208C91.709 19.5178 91.6715 19.4152 91.596 19.3441C91 18.7851 90.208 18.2707 90.6712 16.8678C90.4968 17.8752 92.1204 18.5617 92.5304 19.012C92.3789 17.3715 90.2992 16.8891 90.994 15.0474V15.0469Z" fill="#5064BA"/>
<path d="M86.8522 20.6003L86.8816 19.8245C86.3039 19.696 85.7896 20.0702 85.0574 21.0365C84.0398 22.2109 82.9184 23.0467 80.8569 20.808C82.4947 23.3681 83.9917 23.4895 85.3746 21.6326C85.9077 20.8537 86.3997 20.515 86.8517 20.6008L86.8522 20.6003Z" fill="#5064BA"/>
<path d="M85.2241 23.3808C85.7547 23.0985 86.2589 23.396 86.7606 23.7383C86.0815 23.7921 84.9855 23.6124 83.7966 23.3808C84.8122 23.8952 85.8368 24.3009 86.9177 24.044C86.9379 24.0394 86.9557 24.0267 86.9668 24.0094L87.2156 23.6398C87.2405 23.6027 87.2364 23.554 87.207 23.5205C86.8351 23.0939 86.2361 22.7898 85.7522 22.9284C85.63 22.9634 85.5226 23.0366 85.4395 23.1325L85.2241 23.3803V23.3808Z" fill="#5064BA"/>
<path d="M86.7925 18.9019L87.4903 19.1766L87.6894 18.4124L87.0018 18.1539L86.7925 18.9019Z" fill="#5064BA"/>
<path d="M86.4485 19.0257V18.2616C85.4725 17.9437 83.108 20.2794 81.6557 20.0326C80.9422 19.9113 80.0615 19.3192 80.4471 17.1805C79.8881 19.5909 80.7557 20.5343 81.5457 20.7288C83.0604 21.102 85.6402 18.7663 86.4485 19.0257Z" fill="#5064BA"/>
<path d="M83.346 18.8313L83.8214 18.2098L83.0248 17.764L82.5798 18.386L83.346 18.8313Z" fill="#5064BA"/>
<path d="M82.1146 19.0283L82.5798 18.386L81.7629 17.8472L81.3079 18.4378L82.1146 19.0283Z" fill="#5064BA"/>
<path d="M81.4011 16.3549L81.5152 15.8055C81.9337 16.0716 82.2783 16.4869 82.4668 17.2212C82.4835 17.2872 82.4906 17.3552 82.4861 17.4232L82.4628 17.7863C82.4628 17.7934 82.4719 17.797 82.4759 17.7904C82.6224 17.536 82.7232 17.1882 82.7932 16.7759C83.0222 15.4831 81.8942 14.9946 81.807 14.1969C82.1597 13.549 82.704 13.9552 82.5596 14.9301C82.9766 13.546 82.1562 12.8554 81.7604 14.0152C81.4518 15.2825 82.709 15.5349 82.7258 16.8114L82.5935 17.2075C82.5504 16.2168 81.9773 15.5019 81.0662 14.9631C81.0449 14.9505 81.018 14.9637 81.0145 14.988L80.9592 15.3922C80.9567 15.409 80.9638 15.4262 80.9765 15.4369C81.1964 15.6217 81.3819 15.8604 81.4006 16.3544L81.4011 16.3549Z" fill="#5064BA"/>
<path d="M87.2288 12.1446L87.2708 11.7541C87.2739 11.7241 87.3018 11.7033 87.3317 11.7089C88.2448 11.8856 89.834 12.0811 89.7443 13.7491C89.2659 12.3807 88.1987 12.4076 87.2653 12.1958C87.242 12.1908 87.2262 12.1684 87.2288 12.1446Z" fill="#5064BA"/>
<path d="M85.1461 16.4646C84.9601 15.1038 83.1961 14.6722 83.6299 13.1885C83.6806 14.6422 85.4567 14.7677 85.1461 16.4646Z" fill="#5064BA"/>
<path d="M84.3881 13.7674C84.381 13.61 84.3881 13.4779 84.4347 13.416C85.3732 14.3005 86.1211 15.4806 86.0304 17.0429L85.9549 17.273C85.9377 17.3253 85.9271 17.3791 85.9225 17.4339L85.8977 17.7462C85.8961 17.7624 85.9174 17.769 85.9255 17.7548C86.263 17.146 86.7769 16.3981 86.8873 15.6156C87.1792 13.8095 85.5668 13.2972 85.2987 12.367C85.8363 11.9222 86.8509 12.2329 87.1123 14.0289C87.1139 14.04 87.1301 14.0385 87.1296 14.0273L87.0895 12.8696C87.086 12.7666 87.0657 12.664 87.0272 12.568C86.6973 11.7373 85.8019 11.5642 85.4127 11.845C85.3271 11.9069 85.2739 12.0044 85.2587 12.109L85.2105 12.434C85.2024 12.4883 85.1984 12.5432 85.2004 12.598C85.2394 13.7166 86.8275 13.8847 86.8321 15.4856C86.8321 15.5694 86.8194 15.6527 86.7956 15.7329C86.6461 16.2361 86.3867 16.6484 86.0999 17.0394C86.4211 14.8692 84.9815 13.2195 84.1165 12.6772C84.0881 12.6594 84.0506 12.6772 84.046 12.7102L84.0004 13.0631C83.9969 13.0915 84.008 13.119 84.0293 13.1383C84.1838 13.2774 84.3019 13.4896 84.3876 13.7674H84.3881Z" fill="#5064BA"/>
<path d="M90.7729 14.6692C90.815 13.7557 90.0665 13.8725 89.7422 14.7666C89.504 15.5364 89.3328 16.3986 88.6755 16.5905C88.9431 16.9338 89.0454 17.4563 88.9882 18.1534C88.5098 17.6132 87.2688 17.7975 87.2703 16.3077C87.251 15.3628 88.2377 14.5854 88.1318 13.5231C88.3958 14.9413 87.5971 15.251 87.3529 16.3372C87.5531 17.1917 88.3081 17.147 88.8944 17.5776C88.8159 16.949 88.2529 16.7505 87.7882 16.4646C87.7659 16.4509 87.7522 16.426 87.7522 16.3996V16.0076C87.7522 15.9837 87.7776 15.9685 87.7988 15.9787C89.1214 16.6159 89.4681 15.1444 89.5324 14.889C89.6829 14.2183 89.9079 13.6541 90.3447 13.5663C90.401 13.5551 90.4598 13.5546 90.5155 13.5663C90.8657 13.6409 90.964 14.0532 90.7724 14.6686L90.7729 14.6692Z" fill="#5064BA"/>
<path d="M90.5971 21.9261C90.4466 22.3008 90.0883 22.478 89.9257 22.1363L90.0209 21.333C90.062 20.5201 89.2715 20.8146 89.1554 19.6564L89.1047 20.3769C89.1047 20.9887 89.8714 21.0725 89.9353 21.7443C89.7534 22.3617 89.7453 22.77 90.0817 22.7644C90.4892 22.7309 90.6138 22.4019 90.5971 21.9261Z" fill="#5064BA"/>
</g>
</g>
<rect x="79.2063" y="10.7408" width="14.4023" height="14.4023" rx="7.20116" stroke="#C59714" stroke-width="0.496631"/>
</g>
<rect x="69.1909" y="0.725414" width="34.4331" height="34.4331" rx="17.2166" stroke="#C59714" stroke-width="0.662175"/>
<defs>
<clipPath id="clip0_707_6596">
<rect width="43.1096" height="6.29066" fill="white" transform="translate(22.0107 7.01608)"/>
</clipPath>
<clipPath id="clip1_707_6596">
<rect x="69.522" y="1.0565" width="33.7709" height="33.7709" rx="16.8855" fill="white"/>
</clipPath>
<clipPath id="clip2_707_6596">
<rect width="31.7844" height="31.7844" fill="white" transform="translate(70.502 1.9408)"/>
</clipPath>
<clipPath id="clip3_707_6596">
<rect x="79.4546" y="10.9891" width="13.9057" height="13.9057" rx="6.95284" fill="white"/>
</clipPath>
<clipPath id="clip4_707_6596">
<rect width="12.4158" height="12.4158" fill="white" transform="translate(80.269 11.7079)"/>
</clipPath>
</defs>
</svg>
