<svg width="76" height="73" viewBox="0 0 76 73" fill="none" xmlns="http://www.w3.org/2000/svg">
<rect x="5" y="2" width="69" height="69" rx="34.5" fill="#E5F1FF"/>
<rect x="5" y="2" width="69" height="69" rx="34.5" stroke="#03336B" stroke-width="4"/>
<g clip-path="url(#clip0_699_2672)">
<path d="M27 25H51C51.3536 25 51.6927 25.1405 51.9428 25.3905C52.1928 25.6406 52.3333 25.9797 52.3333 26.3333V47.6667C52.3333 48.0203 52.1928 48.3594 51.9428 48.6095C51.6927 48.8595 51.3536 49 51 49H27C26.6463 49 26.3072 48.8595 26.0572 48.6095C25.8071 48.3594 25.6666 48.0203 25.6666 47.6667V26.3333C25.6666 25.9797 25.8071 25.6406 26.0572 25.3905C26.3072 25.1405 26.6463 25 27 25V25ZM49.6666 35.6667H28.3333V46.3333H49.6666V35.6667ZM49.6666 33V27.6667H28.3333V33H49.6666ZM41.6666 41H47V43.6667H41.6666V41Z" fill="#03336B"/>
</g>
<rect y="1" width="24" height="24" rx="12" fill="#42A5F5"/>
<path d="M15.944 13.672C15.944 15.896 14.248 17.256 11.928 17.256C9.272 17.256 7.48 15.496 7.48 11.864C7.48 8.44 9.112 6.456 11.864 6.456C13.944 6.456 15.416 7.624 15.88 9.752H13.384C13.112 8.888 12.536 8.488 11.768 8.488C10.632 8.488 9.96 9.416 9.832 11.144C10.424 10.6 11.208 10.296 12.088 10.296C14.392 10.296 15.944 11.56 15.944 13.672ZM11.848 15.272C12.824 15.272 13.432 14.728 13.432 13.768C13.432 12.808 12.808 12.232 11.848 12.232C10.888 12.232 10.28 12.808 10.28 13.768C10.28 14.712 10.888 15.272 11.848 15.272Z" fill="white"/>
<defs>
<clipPath id="clip0_699_2672">
<rect width="32" height="32" fill="white" transform="translate(23 21)"/>
</clipPath>
</defs>
</svg>
