<svg width="76" height="74" viewBox="0 0 76 74" fill="none" xmlns="http://www.w3.org/2000/svg">
<rect x="5" y="3" width="69" height="69" rx="34.5" fill="#E5F1FF"/>
<rect x="5" y="3" width="69" height="69" rx="34.5" stroke="#03336B" stroke-width="4"/>
<g clip-path="url(#clip0_699_2702)">
<path d="M39 39.3334C41.2093 39.3334 43 41.1241 43 43.3334C43 44.4667 42.5293 45.4881 41.7733 46.2161L39.2266 48.6667H43V51.3334H35V49.0347L39.924 44.2947C40.1773 44.0507 40.3333 43.7107 40.3333 43.3334C40.3333 42.5974 39.736 42.0001 39 42.0001C38.264 42.0001 37.6666 42.5974 37.6666 43.3334H35C35 41.1241 36.7906 39.3334 39 39.3334ZM47 39.3334V44.6667H49.6666V39.3334H52.3333V51.3334H49.6666V47.3334H44.3333V39.3334H47ZM28.3333 38.0001C28.3333 41.3694 29.8946 44.3734 32.3333 46.3281V49.5494C28.348 47.2441 25.6666 42.9361 25.6666 38.0001H28.3333ZM39 24.6667C45.9133 24.6667 51.5986 29.9294 52.2666 36.6667H49.584C48.928 31.4054 44.44 27.3334 39 27.3334C35.7146 27.3334 32.776 28.8187 30.82 31.1534L33.6666 34.0001H25.6666V26.0001L28.9293 29.2614C31.3733 26.4481 34.9786 24.6667 39 24.6667Z" fill="#03336B"/>
</g>
<rect width="24" height="24" rx="12" fill="#42A5F5"/>
<path d="M8.712 16.016V14.144H10.6V8.496H8.712V6.72H9.448C10.68 6.72 11.032 6.432 11.032 5.84V5.712H13.176V14.144H15.08V16.016H8.712Z" fill="white"/>
<defs>
<clipPath id="clip0_699_2702">
<rect width="32" height="32" fill="white" transform="translate(23 22)"/>
</clipPath>
</defs>
</svg>
