<svg width="76" height="73" viewBox="0 0 76 73" fill="none" xmlns="http://www.w3.org/2000/svg">
<rect x="5" y="2" width="69" height="69" rx="34.5" fill="#E5F1FF"/>
<rect x="5" y="2" width="69" height="69" rx="34.5" stroke="#03336B" stroke-width="4"/>
<g clip-path="url(#clip0_699_2675)">
<path d="M39 38.3334C41.2093 38.3334 43 40.1241 43 42.3334C43 43.4667 42.5293 44.4881 41.7733 45.2161L39.2266 47.6667H43V50.3334H35V48.0347L39.924 43.2947C40.1773 43.0507 40.3333 42.7107 40.3333 42.3334C40.3333 41.5974 39.736 41.0001 39 41.0001C38.264 41.0001 37.6666 41.5974 37.6666 42.3334H35C35 40.1241 36.7906 38.3334 39 38.3334ZM47 38.3334V43.6667H49.6666V38.3334H52.3333V50.3334H49.6666V46.3334H44.3333V38.3334H47ZM28.3333 37.0001C28.3333 40.3694 29.8946 43.3734 32.3333 45.3281V48.5494C28.348 46.2441 25.6666 41.9361 25.6666 37.0001H28.3333ZM39 23.6667C45.9133 23.6667 51.5986 28.9294 52.2666 35.6667H49.584C48.928 30.4054 44.44 26.3334 39 26.3334C35.7146 26.3334 32.776 27.8187 30.82 30.1534L33.6666 33.0001H25.6666V25.0001L28.9293 28.2614C31.3733 25.4481 34.9786 23.6667 39 23.6667Z" fill="#03336B"/>
</g>
<rect y="5" width="24" height="24" rx="12" fill="#42A5F5"/>
<path d="M7.528 13.992C7.528 11.832 9.144 10.456 11.528 10.456C14.136 10.456 15.832 12.216 15.832 15.784C15.832 19.288 14.136 21.256 11.448 21.256C9.464 21.256 7.912 20.152 7.464 18.088H9.976C10.168 18.872 10.792 19.224 11.544 19.224C12.664 19.224 13.336 18.376 13.464 16.728C12.92 17.24 12.216 17.544 11.432 17.544C9.08 17.544 7.528 16.248 7.528 13.992ZM11.608 12.44C10.648 12.44 10.04 13 10.04 13.992C10.04 15 10.648 15.592 11.608 15.592C12.552 15.592 13.16 15 13.16 13.992C13.16 13.016 12.552 12.44 11.608 12.44Z" fill="white"/>
<defs>
<clipPath id="clip0_699_2675">
<rect width="32" height="32" fill="white" transform="translate(23 21)"/>
</clipPath>
</defs>
</svg>
