<svg width="76" height="73" viewBox="0 0 76 73" fill="none" xmlns="http://www.w3.org/2000/svg">
<rect x="5" y="2" width="69" height="69" rx="34.5" fill="#E5F1FF"/>
<rect x="5" y="2" width="69" height="69" rx="34.5" stroke="#03336B" stroke-width="4"/>
<g clip-path="url(#clip0_699_2700)">
<path d="M32.3333 34.3334H49.6667C50.0203 34.3334 50.3594 34.4738 50.6095 34.7239C50.8595 34.9739 51 35.3131 51 35.6667V49C51 49.3537 50.8595 49.6928 50.6095 49.9428C50.3594 50.1929 50.0203 50.3334 49.6667 50.3334H28.3333C27.9797 50.3334 27.6406 50.1929 27.3905 49.9428C27.1405 49.6928 27 49.3537 27 49V35.6667C27 35.3131 27.1405 34.9739 27.3905 34.7239C27.6406 34.4738 27.9797 34.3334 28.3333 34.3334H29.6667V33C29.6659 30.897 30.3754 28.8553 31.6803 27.206C32.9851 25.5566 34.8087 24.3963 36.8555 23.9131C38.9023 23.4298 41.0523 23.652 42.957 24.5437C44.8617 25.4353 46.4094 26.944 47.3493 28.8254L44.964 30.0174C44.2927 28.6734 43.1871 27.5956 41.8264 26.9586C40.4658 26.3217 38.9299 26.163 37.4678 26.5083C36.0057 26.8535 34.7031 27.6825 33.7711 28.8609C32.8392 30.0392 32.3325 31.4977 32.3333 33V34.3334ZM29.6667 37V47.6667H48.3333V37H29.6667ZM36.3333 41H41.6667V43.6667H36.3333V41Z" fill="#03336B"/>
</g>
<rect y="1" width="24" height="24" rx="12" fill="#42A5F5"/>
<path d="M7.704 17.016V16.408C7.704 11.816 13.016 11.992 13.016 9.768C13.016 8.92 12.52 8.44 11.688 8.44C10.744 8.44 10.264 8.952 10.12 9.816H7.656C7.928 7.736 9.432 6.456 11.704 6.456C14.168 6.456 15.464 7.944 15.464 9.736C15.464 12.68 11.336 13.112 10.328 15.144H15.448V17.016H7.704Z" fill="white"/>
<defs>
<clipPath id="clip0_699_2700">
<rect width="32" height="32" fill="white" transform="translate(23 21)"/>
</clipPath>
</defs>
</svg>
