<svg width="76" height="73" viewBox="0 0 76 73" fill="none" xmlns="http://www.w3.org/2000/svg">
<g clip-path="url(#clip0_2056_957)">
<path d="M74 36.5C74 17.4462 58.5538 2 39.5 2C20.4462 2 5 17.4462 5 36.5C5 55.5538 20.4462 71 39.5 71C58.5538 71 74 55.5538 74 36.5Z" fill="#E5F1FF"/>
<path d="M74 36.5C74 17.4462 58.5538 2 39.5 2C20.4462 2 5 17.4462 5 36.5C5 55.5538 20.4462 71 39.5 71C58.5538 71 74 55.5538 74 36.5Z" stroke="#03336B" stroke-width="4"/>
<path d="M47.0003 29L32.3337 43.6667L25.667 37" stroke="#03336B" stroke-width="2.66667" stroke-linecap="round" stroke-linejoin="round"/>
<path d="M52.333 34.3333L42.333 44.3333L40.333 42.3333" stroke="#03336B" stroke-width="2.66667" stroke-linecap="round" stroke-linejoin="round"/>
<path d="M24 17C24 10.3726 18.6274 5 12 5C5.37258 5 0 10.3726 0 17C0 23.6274 5.37258 29 12 29C18.6274 29 24 23.6274 24 17Z" fill="#42A5F5"/>
<path d="M7.52787 13.992C7.52787 11.832 9.14387 10.456 11.5279 10.456C14.1359 10.456 15.8319 12.216 15.8319 15.784C15.8319 19.288 14.1359 21.256 11.4479 21.256C9.46387 21.256 7.91187 20.152 7.46387 18.088H9.97587C10.1679 18.872 10.7919 19.224 11.5439 19.224C12.6639 19.224 13.3359 18.376 13.4639 16.728C12.9199 17.24 12.2159 17.544 11.4319 17.544C9.07987 17.544 7.52787 16.248 7.52787 13.992ZM11.6079 12.44C10.6479 12.44 10.0399 13 10.0399 13.992C10.0399 15 10.6479 15.592 11.6079 15.592C12.5519 15.592 13.1599 15 13.1599 13.992C13.1599 13.016 12.5519 12.44 11.6079 12.44Z" fill="white"/>
</g>
<defs>
<clipPath id="clip0_2056_957">
<rect width="76" height="73" fill="white"/>
</clipPath>
</defs>
</svg>
