<svg width="76" height="73" viewBox="0 0 76 73" fill="none" xmlns="http://www.w3.org/2000/svg">
<rect x="5" y="2" width="69" height="69" rx="34.5" fill="#E5F1FF"/>
<rect x="5" y="2" width="69" height="69" rx="34.5" stroke="#03336B" stroke-width="4"/>
<g clip-path="url(#clip0_699_2670)">
<path d="M49.6667 23.6667C50.4027 23.6667 51 24.2641 51 25.0001V30.0094L48.3333 32.6761V26.3334H29.6667V47.6667H48.3333V43.9894L51 41.3227V49.0001C51 49.7361 50.4027 50.3334 49.6667 50.3334H28.3333C27.5973 50.3334 27 49.7361 27 49.0001V25.0001C27 24.2641 27.5973 23.6667 28.3333 23.6667H49.6667ZM52.0373 32.7441L53.9227 34.6294L43.552 45.0001L41.664 44.9974L41.6667 43.1147L52.0373 32.7441V32.7441ZM40.3333 37.0001V39.6667H33.6667V37.0001H40.3333ZM44.3333 31.6667V34.3334H33.6667V31.6667H44.3333Z" fill="#03336B"/>
</g>
<rect y="1" width="24" height="24" rx="12" fill="#42A5F5"/>
<path d="M14.648 17H12.184V14.952H7.56V12.792L12.44 6.712H14.648V13.096H15.88V14.952H14.648V17ZM9.4 13.096H12.184V9.512L9.4 13.096Z" fill="white"/>
<defs>
<clipPath id="clip0_699_2670">
<rect width="32" height="32" fill="white" transform="translate(23 21)"/>
</clipPath>
</defs>
</svg>
