<svg width="75" height="73" viewBox="0 0 75 73" fill="none" xmlns="http://www.w3.org/2000/svg">
<rect x="4" y="2" width="69" height="69" rx="34.5" fill="#E5F1FF"/>
<rect x="4" y="2" width="69" height="69" rx="34.5" stroke="#03336B" stroke-width="4"/>
<g clip-path="url(#clip0_699_2674)">
<path d="M27.3334 40.9999V32.3333C27.3334 30.742 27.9655 29.2158 29.0907 28.0906C30.216 26.9654 31.7421 26.3333 33.3334 26.3333C34.9247 26.3333 36.4508 26.9654 37.576 28.0906C38.7012 29.2158 39.3334 30.742 39.3334 32.3333V41.6666C39.3334 42.5506 39.6846 43.3985 40.3097 44.0236C40.9348 44.6487 41.7827 44.9999 42.6667 44.9999C43.5508 44.9999 44.3986 44.6487 45.0237 44.0236C45.6489 43.3985 46 42.5506 46 41.6666V32.7733C45.1101 32.4587 44.3599 31.8397 43.8822 31.0255C43.4045 30.2114 43.2301 29.2546 43.3896 28.3242C43.5492 27.3938 44.0325 26.5499 44.7542 25.9414C45.4759 25.333 46.3894 24.9993 47.3334 24.9993C48.2773 24.9993 49.1909 25.333 49.9125 25.9414C50.6342 26.5499 51.1176 27.3938 51.2771 28.3242C51.4367 29.2546 51.2622 30.2114 50.7845 31.0255C50.3068 31.8397 49.5567 32.4587 48.6667 32.7733V41.6666C48.6667 43.2579 48.0346 44.784 46.9093 45.9092C45.7841 47.0344 44.258 47.6666 42.6667 47.6666C41.0754 47.6666 39.5493 47.0344 38.4241 45.9092C37.2988 44.784 36.6667 43.2579 36.6667 41.6666V32.3333C36.6667 31.4492 36.3155 30.6014 35.6904 29.9762C35.0653 29.3511 34.2174 28.9999 33.3334 28.9999C32.4493 28.9999 31.6015 29.3511 30.9764 29.9762C30.3512 30.6014 30 31.4492 30 32.3333V40.9999H34L28.6667 47.6666L23.3334 40.9999H27.3334Z" fill="#03336B"/>
</g>
<rect width="24" height="24" rx="12" fill="#42A5F5"/>
<path d="M11.64 16.256C9.144 16.256 7.528 14.992 7.528 13.024C7.528 11.968 8.104 11.136 9.048 10.64C8.296 10.144 7.864 9.408 7.864 8.512C7.864 6.672 9.368 5.456 11.64 5.456C13.912 5.456 15.416 6.656 15.416 8.512C15.416 9.424 14.968 10.16 14.216 10.656C15.176 11.168 15.752 12.016 15.752 13.024C15.752 15.008 14.12 16.256 11.64 16.256ZM11.64 7.392C10.792 7.392 10.264 7.856 10.264 8.624C10.264 9.408 10.792 9.888 11.64 9.888C12.488 9.888 13.016 9.408 13.016 8.624C13.016 7.84 12.488 7.392 11.64 7.392ZM11.64 14.32C12.648 14.32 13.288 13.808 13.288 12.912C13.288 12 12.632 11.472 11.64 11.472C10.632 11.472 9.992 12 9.992 12.912C9.992 13.792 10.632 14.32 11.64 14.32Z" fill="white"/>
<defs>
<clipPath id="clip0_699_2674">
<rect width="32" height="32" fill="white" transform="translate(22 21)"/>
</clipPath>
</defs>
</svg>
