<svg width="76" height="73" viewBox="0 0 76 73" fill="none" xmlns="http://www.w3.org/2000/svg">
<rect x="5" y="2" width="69" height="69" rx="34.5" fill="#E5F1FF"/>
<rect x="5" y="2" width="69" height="69" rx="34.5" stroke="#03336B" stroke-width="4"/>
<g clip-path="url(#clip0_699_2669)">
<path d="M29.375 27.375H32.75V30.75H29.375V27.375Z" fill="#03336B"/>
<path d="M36.125 24V34.125H26V24H36.125ZM34.4375 25.6875H27.6875V32.4375H34.4375V25.6875ZM32.75 44.25H29.375V47.625H32.75V44.25Z" fill="#03336B"/>
<path d="M36.125 40.875V51H26V40.875H36.125ZM27.6875 42.5625V49.3125H34.4375V42.5625H27.6875ZM46.25 27.375H49.625V30.75H46.25V27.375Z" fill="#03336B"/>
<path d="M42.875 24V34.125H53V24H42.875ZM51.3125 25.6875V32.4375H44.5625V25.6875H51.3125ZM39.5 25.6875V24H41.1875V27.375H39.5V30.75H37.8125V25.6875H39.5ZM39.5 34.125V30.75H41.1875V34.125H39.5ZM36.125 37.5V35.8125H37.8125V34.125H39.5V37.5H41.1875V35.8125H49.625V37.5H42.875V39.1875H37.8125V37.5H36.125ZM36.125 37.5V39.1875H29.375V37.5H27.6875V39.1875H26V35.8125H31.0625V37.5H36.125ZM53 39.1875H51.3125V35.8125H53V39.1875ZM51.3125 39.1875H49.625V42.5625H53V40.875H51.3125V39.1875ZM44.5625 39.1875H47.9375V40.875H46.25V42.5625H44.5625V39.1875ZM47.9375 44.25V42.5625H46.25V44.25H44.5625V45.9375H41.1875V47.625H46.25V44.25H47.9375ZM47.9375 44.25H53V45.9375H49.625V47.625H47.9375V44.25ZM41.1875 42.5625V44.25H42.875V40.875H37.8125V42.5625H41.1875Z" fill="#03336B"/>
<path d="M37.8125 44.25H39.5V49.3125H46.25V51H37.8125V44.25ZM53 47.625V51H47.9375V49.3125H51.3125V47.625H53Z" fill="#03336B"/>
</g>
<rect y="1" width="24" height="24" rx="12" fill="#42A5F5"/>
<path d="M15.784 14.024C15.784 15.784 14.36 17.256 11.656 17.256C9.288 17.256 7.672 15.944 7.384 13.816H9.848C10.008 14.712 10.568 15.272 11.64 15.272C12.712 15.272 13.32 14.792 13.32 13.912C13.32 13.224 12.888 12.632 11.24 12.632H10.536V10.856H11.096C12.744 10.856 13.048 10.168 13.048 9.624C13.048 8.904 12.536 8.44 11.656 8.44C10.696 8.44 10.184 8.952 10.04 9.816H7.592C7.864 7.736 9.4 6.456 11.672 6.456C14.168 6.456 15.512 7.912 15.512 9.592C15.512 10.536 15.128 11.192 14.296 11.624C15.336 12.152 15.784 12.968 15.784 14.024Z" fill="white"/>
<defs>
<clipPath id="clip0_699_2669">
<rect width="27" height="27" fill="white" transform="translate(26 24)"/>
</clipPath>
</defs>
</svg>
