<svg width="76" height="73" viewBox="0 0 76 73" fill="none" xmlns="http://www.w3.org/2000/svg">
<rect x="5" y="2" width="69" height="69" rx="34.5" fill="#E5F1FF"/>
<rect x="5" y="2" width="69" height="69" rx="34.5" stroke="#03336B" stroke-width="4"/>
<g clip-path="url(#clip0_699_2671)">
<path d="M28.3333 46.3334H49.6666V37.0001H52.3333V47.6667C52.3333 48.0204 52.1928 48.3595 51.9428 48.6096C51.6927 48.8596 51.3536 49.0001 51 49.0001H27C26.6463 49.0001 26.3072 48.8596 26.0572 48.6096C25.8071 48.3595 25.6666 48.0204 25.6666 47.6667V37.0001H28.3333V46.3334ZM41.6666 33.0001V41.0001H36.3333V33.0001H29.6666L39 23.6667L48.3333 33.0001H41.6666Z" fill="#03336B"/>
</g>
<rect y="3" width="24" height="24" rx="12" fill="#42A5F5"/>
<path d="M15.768 15.544C15.768 17.64 14.344 19.256 11.736 19.256C9.4 19.256 7.832 17.992 7.544 15.944H9.992C10.136 16.776 10.728 17.272 11.72 17.272C12.76 17.272 13.32 16.632 13.32 15.576C13.32 14.6 12.84 13.816 11.688 13.816C10.92 13.816 10.424 14.168 10.136 14.616L7.928 14.408L8.248 8.712H15.192V10.584H10.264L10.152 12.28C10.648 12.024 11.208 11.864 11.912 11.864C14.568 11.864 15.768 13.512 15.768 15.544Z" fill="white"/>
<defs>
<clipPath id="clip0_699_2671">
<rect width="32" height="32" fill="white" transform="translate(23 21)"/>
</clipPath>
</defs>
</svg>
