<svg width="304" height="57" viewBox="0 0 304 57" fill="none" xmlns="http://www.w3.org/2000/svg">
<path d="M186.944 18.1312V9.87428H191.165C194.063 9.87428 195.891 11.4843 195.891 14.0027C195.891 16.5212 194.063 18.1312 191.165 18.1312H186.944ZM188.6 16.6822H191.165C193.051 16.6822 194.166 15.6242 194.166 14.0027C194.166 12.3697 193.051 11.3233 191.165 11.3233H188.6V16.6822ZM199.137 9.87428V18.1312H197.447V9.87428H199.137ZM202.846 15.0607V18.1312H201.155V9.87428H206.342C208.216 9.87428 209.481 10.7713 209.481 12.4732C209.481 13.7382 208.745 14.5777 207.572 14.8997L209.676 18.1312H207.733L205.79 15.0607H202.846ZM202.846 13.6462H206.25C207.238 13.6462 207.802 13.2207 207.802 12.4847C207.802 11.7373 207.238 11.3118 206.25 11.3118H202.846V13.6462ZM211.018 9.87428H219.01V11.3348H212.685V13.1747H218.354V14.6237H212.685V16.6707H219.01V18.1312H211.018V9.87428ZM220.083 14.0027C220.083 11.5533 222.165 9.74779 224.959 9.74779C227.121 9.74779 228.708 10.7253 229.34 12.3467L227.88 13.0827C227.408 11.9213 226.419 11.2313 224.97 11.2313C223.165 11.2313 221.808 12.3352 221.808 14.0027C221.808 15.6702 223.165 16.7742 224.97 16.7742C226.419 16.7742 227.408 16.0842 227.88 14.9227L229.34 15.6587C228.708 17.2802 227.121 18.2577 224.959 18.2577C222.165 18.2577 220.083 16.4522 220.083 14.0027ZM239.016 11.3348H235.37V18.1312H233.668V11.3348H230.023V9.87428H239.016V11.3348ZM244.201 9.74779C247.018 9.74779 249.077 11.5533 249.077 14.0027C249.077 16.4522 247.018 18.2577 244.201 18.2577C241.372 18.2577 239.325 16.4522 239.325 14.0027C239.325 11.5533 241.372 9.74779 244.201 9.74779ZM244.201 11.2313C242.349 11.2313 241.062 12.3352 241.062 14.0027C241.062 15.6702 242.349 16.7742 244.201 16.7742C246.052 16.7742 247.34 15.6702 247.34 14.0027C247.34 12.3352 246.052 11.2313 244.201 11.2313ZM252.326 15.0607V18.1312H250.636V9.87428H255.822C257.697 9.87428 258.962 10.7713 258.962 12.4732C258.962 13.7382 258.226 14.5777 257.053 14.8997L259.157 18.1312H257.214L255.27 15.0607H252.326ZM252.326 13.6462H255.73C256.719 13.6462 257.283 13.2207 257.283 12.4847C257.283 11.7373 256.719 11.3118 255.73 11.3118H252.326V13.6462ZM263.856 9.87428H265.754L269.917 18.1312H268.088L267.134 16.2107H262.465L261.499 18.1312H259.693L263.856 9.87428ZM264.799 11.5418L263.178 14.7732H266.409L264.799 11.5418ZM278.151 11.3348H274.505V18.1312H272.804V11.3348H269.158V9.87428H278.151V11.3348ZM279.662 9.87428H287.654V11.3348H281.329V13.1747H286.998V14.6237H281.329V16.6707H287.654V18.1312H279.662V9.87428ZM297.556 14.807C297.556 15.3685 297.406 15.9244 297.107 16.4747C296.811 17.025 296.397 17.4611 295.866 17.783C295.334 18.1049 294.817 18.2659 294.316 18.2659C293.803 18.2659 293.384 18.1031 293.058 17.7774C292.736 17.448 292.575 17.0231 292.575 16.5028C292.575 15.9525 292.732 15.4003 293.047 14.8463C293.365 14.2923 293.788 13.8543 294.316 13.5323C294.847 13.2104 295.36 13.0494 295.854 13.0494C296.348 13.0494 296.755 13.2123 297.073 13.538C297.395 13.8636 297.556 14.2867 297.556 14.807ZM296.624 14.4195C296.624 14.0714 296.538 13.8056 296.365 13.6222C296.197 13.435 295.978 13.3414 295.708 13.3414C295.158 13.3414 294.651 13.7364 294.187 14.5262C293.726 15.3124 293.496 16.0947 293.496 16.8734C293.496 17.229 293.586 17.5041 293.766 17.6988C293.945 17.8897 294.172 17.9852 294.445 17.9852C294.973 17.9852 295.467 17.594 295.927 16.8116C296.392 16.0255 296.624 15.2281 296.624 14.4195ZM301.972 13.1842L301.87 13.5548H301.051L300.433 16.0086C300.16 17.0905 299.885 17.9271 299.608 18.5186C299.214 19.3534 298.791 19.9299 298.339 20.2481C297.994 20.4914 297.65 20.613 297.305 20.613C297.081 20.613 296.89 20.5457 296.733 20.4109C296.617 20.3173 296.559 20.1957 296.559 20.0459C296.559 19.9261 296.607 19.8213 296.705 19.7315C296.798 19.6454 296.914 19.6023 297.053 19.6023C297.154 19.6023 297.24 19.6341 297.311 19.6978C297.378 19.7614 297.412 19.8344 297.412 19.9168C297.412 19.9991 297.373 20.0759 297.294 20.147C297.234 20.1994 297.204 20.2387 297.204 20.2649C297.204 20.2986 297.217 20.3248 297.244 20.3435C297.277 20.3697 297.33 20.3828 297.401 20.3828C297.562 20.3828 297.732 20.3323 297.912 20.2312C298.088 20.1301 298.245 19.9785 298.383 19.7764C298.522 19.578 298.653 19.2897 298.776 18.9117C298.829 18.7544 298.969 18.236 299.198 17.3563L300.175 13.5548H299.198L299.276 13.1842C299.587 13.1842 299.804 13.1636 299.928 13.1224C300.051 13.0775 300.163 12.9952 300.265 12.8754C300.369 12.7518 300.504 12.5235 300.669 12.1903C300.89 11.7411 301.101 11.393 301.303 11.1459C301.58 10.8127 301.87 10.5638 302.174 10.3991C302.481 10.2306 302.769 10.1464 303.038 10.1464C303.323 10.1464 303.551 10.2194 303.723 10.3654C303.896 10.5077 303.982 10.663 303.982 10.8315C303.982 10.9625 303.939 11.0729 303.853 11.1628C303.766 11.2526 303.656 11.2975 303.521 11.2975C303.405 11.2975 303.31 11.2638 303.235 11.1964C303.164 11.1291 303.128 11.0486 303.128 10.955C303.128 10.8951 303.153 10.8221 303.201 10.736C303.25 10.6462 303.274 10.5863 303.274 10.5563C303.274 10.5039 303.257 10.4646 303.224 10.4384C303.175 10.401 303.104 10.3823 303.01 10.3823C302.774 10.3823 302.563 10.4571 302.376 10.6069C302.125 10.8053 301.9 11.116 301.702 11.539C301.601 11.7598 301.416 12.3082 301.146 13.1842H301.972Z" fill="white"/>
<path d="M186.484 29.0027C186.484 26.5533 188.566 24.7478 191.36 24.7478C193.522 24.7478 195.109 25.7253 195.742 27.3467L194.281 28.0827C193.81 26.9213 192.821 26.2313 191.372 26.2313C189.566 26.2313 188.209 27.3352 188.209 29.0027C188.209 30.6702 189.566 31.7742 191.372 31.7742C192.821 31.7742 193.81 31.0842 194.281 29.9227L195.742 30.6587C195.109 32.2802 193.522 33.2577 191.36 33.2577C188.566 33.2577 186.484 31.4522 186.484 29.0027ZM201.548 24.7478C204.366 24.7478 206.424 26.5533 206.424 29.0027C206.424 31.4522 204.366 33.2577 201.548 33.2577C198.719 33.2577 196.672 31.4522 196.672 29.0027C196.672 26.5533 198.719 24.7478 201.548 24.7478ZM201.548 26.2313C199.697 26.2313 198.409 27.3352 198.409 29.0027C198.409 30.6702 199.697 31.7742 201.548 31.7742C203.4 31.7742 204.688 30.6702 204.688 29.0027C204.688 27.3352 203.4 26.2313 201.548 26.2313ZM216.504 24.8743V33.1312H215.009L209.616 27.0248V33.1312H207.983V24.8743H209.708L214.86 30.7047V24.8743H216.504ZM217.657 31.3372L218.795 30.1527C219.738 31.4177 221.233 31.8087 222.452 31.8087C223.832 31.8087 224.81 31.3947 224.81 30.7277C224.81 29.9457 224.131 29.8767 221.808 29.6237C219.784 29.3937 218.232 29.0142 218.232 27.3812C218.232 25.8173 219.761 24.7478 222.107 24.7478C223.947 24.7478 225.603 25.4033 226.351 26.3923L225.224 27.4732C224.591 26.6568 223.418 26.1853 222.015 26.1853C220.543 26.1853 219.876 26.6568 219.876 27.2087C219.876 27.8067 220.428 27.9447 222.521 28.1862C224.867 28.4507 226.523 28.7612 226.523 30.5437C226.523 32.3492 224.718 33.2577 222.383 33.2577C220.417 33.2577 218.462 32.4987 217.657 31.3372ZM232.036 33.2462C229.138 33.2462 227.792 31.6362 227.792 29.2327V24.8743H229.483V29.1407C229.483 30.6932 230.15 31.7627 232.036 31.7627C233.91 31.7627 234.577 30.6932 234.577 29.1407V24.8743H236.279V29.2327C236.279 31.6362 234.922 33.2462 232.036 33.2462ZM238.076 33.1312V24.8743H239.766V31.6707H245.574V33.1312H238.076ZM250.476 24.8743H252.374L256.537 33.1312H254.708L253.754 31.2107H249.085L248.119 33.1312H246.313L250.476 24.8743ZM251.419 26.5418L249.798 29.7732H253.029L251.419 26.5418ZM259.457 30.0607V33.1312H257.767V24.8743H262.953C264.828 24.8743 266.093 25.7713 266.093 27.4732C266.093 28.7382 265.357 29.5777 264.184 29.8997L266.288 33.1312H264.345L262.401 30.0607H259.457ZM259.457 28.6462H262.861C263.85 28.6462 264.414 28.2207 264.414 27.4847C264.414 26.7373 263.85 26.3118 262.861 26.3118H259.457V28.6462Z" fill="white"/>
<path d="M190.302 39.8743H192.2L196.363 48.1312H194.534L193.58 46.2107H188.911L187.945 48.1312H186.139L190.302 39.8743ZM191.245 41.5418L189.624 44.7732H192.855L191.245 41.5418ZM199.26 48.1312H197.593V39.8743H205.459V41.3348H199.26V43.3932H204.803V44.8537H199.26V48.1312ZM208.685 48.1312H207.017V39.8743H214.883V41.3348H208.685V43.3932H214.228V44.8537H208.685V48.1312ZM218.519 39.8743H220.417L224.58 48.1312H222.751L221.797 46.2107H217.128L216.162 48.1312H214.357L218.519 39.8743ZM219.462 41.5418L217.841 44.7732H221.072L219.462 41.5418ZM227.501 39.8743V48.1312H225.81V39.8743H227.501ZM231.209 45.0607V48.1312H229.518V39.8743H234.705C236.579 39.8743 237.844 40.7713 237.844 42.4732C237.844 43.7382 237.108 44.5777 235.935 44.8997L238.04 48.1312H236.096L234.153 45.0607H231.209ZM231.209 43.6462H234.613C235.602 43.6462 236.165 43.2207 236.165 42.4847C236.165 41.7373 235.602 41.3118 234.613 41.3118H231.209V43.6462ZM238.518 46.3372L239.657 45.1527C240.6 46.4177 242.095 46.8087 243.314 46.8087C244.694 46.8087 245.671 46.3947 245.671 45.7277C245.671 44.9457 244.993 44.8767 242.67 44.6237C240.646 44.3937 239.093 44.0142 239.093 42.3812C239.093 40.8173 240.623 39.7478 242.969 39.7478C244.809 39.7478 246.465 40.4033 247.212 41.3923L246.085 42.4732C245.453 41.6568 244.28 41.1853 242.877 41.1853C241.405 41.1853 240.738 41.6568 240.738 42.2087C240.738 42.8067 241.29 42.9447 243.383 43.1862C245.729 43.4507 247.385 43.7612 247.385 45.5437C247.385 47.3492 245.579 48.2577 243.245 48.2577C241.278 48.2577 239.323 47.4987 238.518 46.3372Z" fill="white"/>
<g clip-path="url(#clip0_673_2497)">
<path d="M44.0504 16.3869C43.6388 16.3869 43.3059 16.287 43.0517 16.0903C42.7975 15.8936 42.628 15.6454 42.5372 15.3519C42.4434 15.5758 42.3163 15.7514 42.1589 15.8875C42.0016 16.0207 41.8018 16.1266 41.5628 16.1992C41.3237 16.2749 41.0332 16.3233 40.6942 16.3506C40.3553 16.3778 39.9558 16.3869 39.5019 16.3869H6.00412C5.39281 16.3869 4.88137 16.3445 4.47283 16.2567C4.06428 16.172 3.73442 16.0358 3.48324 15.8512C3.23206 15.6666 3.05351 15.4306 2.94759 15.137C2.84167 14.8465 2.79022 14.4864 2.79022 14.0657V11.6023H4.09152V13.5906C4.09152 13.9205 4.13086 14.1807 4.21257 14.3744C4.29428 14.5681 4.42743 14.7194 4.61809 14.8223C4.80874 14.9252 5.06598 14.9918 5.39584 15.022C5.72268 15.0523 6.14635 15.0674 6.66384 15.0674H39.4807C39.8317 15.0674 40.1283 15.0553 40.3734 15.0341C40.6186 15.013 40.8122 14.9615 40.9545 14.8798C41.0967 14.7981 41.1996 14.6831 41.2632 14.5348C41.3267 14.3835 41.36 14.1747 41.36 13.9084V10.2617H42.6704V13.3182C42.6704 13.5846 42.6885 13.8267 42.7248 14.0445C42.7612 14.2624 42.8308 14.444 42.9367 14.5923C43.0426 14.7406 43.1848 14.8556 43.3664 14.9433C43.548 15.0311 43.775 15.0735 44.0473 15.0735C44.4771 15.0735 44.6889 15.2853 44.6889 15.709C44.6889 15.9753 44.6375 16.1569 44.5346 16.2507C44.4317 16.3445 44.2682 16.3929 44.0473 16.3929L44.0504 16.3869ZM7.39015 8.52463C7.39015 8.29161 7.47186 8.09188 7.63528 7.92846C7.79869 7.76504 7.99843 7.68333 8.23145 7.68333C8.46447 7.68333 8.66421 7.76504 8.82763 7.92846C8.99104 8.09188 9.07275 8.29161 9.07275 8.52463C9.07275 8.75766 8.99104 8.95739 8.82763 9.12081C8.66421 9.28423 8.46447 9.36594 8.23145 9.36594C7.99843 9.36594 7.79869 9.28423 7.63528 9.12081C7.47186 8.95739 7.39015 8.75766 7.39015 8.52463ZM9.46012 8.52463C9.46012 8.29161 9.54182 8.09188 9.70524 7.92846C9.86866 7.76504 10.0684 7.68333 10.3014 7.68333C10.5344 7.68333 10.7342 7.76504 10.8976 7.92846C11.061 8.09188 11.1427 8.29161 11.1427 8.52463C11.1427 8.75766 11.061 8.95739 10.8976 9.12081C10.7342 9.28423 10.5344 9.36594 10.3014 9.36594C10.0684 9.36594 9.86866 9.28423 9.70524 9.12081C9.54182 8.95739 9.46012 8.75766 9.46012 8.52463Z" fill="white"/>
<path d="M44.6254 15.0674C44.9764 15.0674 45.273 15.0553 45.5151 15.0341C45.7572 15.013 45.9509 14.9615 46.0961 14.8798C46.2414 14.7981 46.3443 14.6831 46.4078 14.5348C46.4714 14.3835 46.5047 14.1747 46.5047 13.9084V11.0455H47.806V13.3152C47.806 13.5815 47.8211 13.8236 47.8514 14.0415C47.8816 14.2594 47.9573 14.441 48.0753 14.5893C48.1964 14.7376 48.3598 14.8526 48.5686 14.9403C48.7774 15.0281 49.0709 15.0704 49.4492 15.0704C49.6762 15.0704 57.0542 15.0583 57.2328 15.0372C57.4113 15.016 57.5596 14.9645 57.6746 14.8828C57.7926 14.8011 57.8774 14.6861 57.9349 14.5378C57.9894 14.3865 58.0196 14.1777 58.0196 13.9114V11.0576H59.3209V13.3213C59.3209 13.5876 59.3391 13.8297 59.3784 14.0476C59.4178 14.2655 59.4874 14.447 59.5902 14.5953C59.6931 14.7436 59.8323 14.8586 60.0109 14.9464C60.1894 15.0341 60.4134 15.0765 60.6858 15.0765H69.1956V10.2678H70.506V16.396H60.6858C60.2802 16.396 59.9504 16.2961 59.6962 16.0994C59.442 15.9027 59.2785 15.6545 59.1999 15.361C59.0062 15.7937 58.7066 16.0752 58.3011 16.2053C57.8955 16.3354 50.2361 16.396 49.6701 16.396C49.304 16.396 48.9983 16.3657 48.7562 16.3082C48.5141 16.2507 48.3144 16.169 48.154 16.0691C47.9966 15.9693 47.8695 15.8543 47.7787 15.7271C47.6879 15.6 47.6093 15.4699 47.5396 15.3428C47.4519 15.5668 47.3339 15.7423 47.1886 15.8785C47.0433 16.0116 46.8587 16.1206 46.6348 16.1992C46.4078 16.281 46.1294 16.3324 45.7905 16.3566C45.4515 16.3808 45.0551 16.3929 44.5921 16.3929H44.0564C43.6327 16.3929 43.4209 16.1811 43.4209 15.7574C43.4209 15.4911 43.4723 15.3095 43.5722 15.2157C43.6721 15.1219 43.8325 15.0735 44.0564 15.0735H44.6163L44.6254 15.0674Z" fill="white"/>
<path d="M102.594 15.7029C102.594 15.9693 75.5266 16.1508 75.4267 16.2446C75.3269 16.3385 75.1665 16.3869 74.9425 16.3869H74.534C74.189 16.3869 73.8773 16.3536 73.5989 16.284C73.3204 16.2144 73.0814 16.0964 72.8847 15.9239C72.6879 15.7544 72.5336 15.5274 72.4216 15.249C72.3097 14.9676 72.2552 14.6165 72.2552 14.1928V5.02627H73.5565V13.8418C73.5565 14.2866 73.6261 14.6044 73.7653 14.789C73.9045 14.9766 74.2102 15.0674 74.6823 15.0674H74.9425C75.3662 15.0674 102.594 15.2793 102.594 15.7029Z" fill="white"/>
<path d="M74.9516 16.3869C74.5279 16.3869 74.316 16.175 74.316 15.7514C74.316 15.485 74.3675 15.3035 74.4674 15.2097C74.5672 15.1158 74.7276 15.0674 74.9516 15.0674H105.072V10.2587H106.373V16.3869H74.9485H74.9516ZM102.609 18.7928C102.609 18.5597 102.69 18.36 102.851 18.1966C103.011 18.0332 103.211 17.9515 103.444 17.9515C103.677 17.9515 103.877 18.0332 104.046 18.1966C104.216 18.36 104.297 18.5597 104.297 18.7928C104.297 19.0258 104.213 19.2255 104.046 19.3889C103.88 19.5524 103.68 19.6341 103.444 19.6341C103.208 19.6341 103.011 19.5524 102.851 19.3889C102.69 19.2255 102.609 19.0258 102.609 18.7928ZM104.673 18.7928C104.673 18.5597 104.757 18.36 104.924 18.1966C105.09 18.0332 105.29 17.9515 105.526 17.9515C105.762 17.9515 105.959 18.0332 106.119 18.1966C106.279 18.36 106.361 18.5597 106.361 18.7928C106.361 19.0258 106.279 19.2255 106.119 19.3889C105.959 19.5524 105.759 19.6341 105.526 19.6341C105.293 19.6341 105.093 19.5524 104.924 19.3889C104.757 19.2255 104.673 19.0258 104.673 18.7928Z" fill="white"/>
<path d="M109.835 11.0546H111.112V15.4972C111.112 16.281 111.07 16.9437 110.982 17.4794C110.895 18.015 110.725 18.4478 110.468 18.7776C110.211 19.1045 109.86 19.3435 109.409 19.4918C108.958 19.6401 108.377 19.7127 107.662 19.7127V18.3933C108.18 18.3933 108.585 18.3388 108.876 18.2268C109.17 18.1149 109.384 17.9363 109.527 17.6882C109.669 17.44 109.754 17.1223 109.787 16.7319C109.817 16.3415 109.832 15.8724 109.832 15.3216V11.0546H109.835Z" fill="white"/>
<path d="M50.0726 29.4967H51.3497V33.9392C51.3497 34.723 51.3074 35.3858 51.2196 35.9214C51.1318 36.4571 50.9624 36.8898 50.7051 37.2197C50.4479 37.5465 50.0969 37.7856 49.6459 37.9339C49.195 38.0822 48.614 38.1548 47.8998 38.1548V36.8354C48.4173 36.8354 48.8228 36.7809 49.1133 36.6689C49.4069 36.5569 49.6217 36.3784 49.764 36.1302C49.9062 35.8821 49.9909 35.5643 50.0242 35.1739C50.0545 34.7836 50.0696 34.3145 50.0696 33.7637V29.4967H50.0726Z" fill="white"/>
<path d="M58.7399 34.829C58.6945 35.4736 58.5583 36.0092 58.3313 36.4359C58.1044 36.8626 57.7957 37.2015 57.4053 37.4558C57.0149 37.71 56.5458 37.8885 55.9981 37.9944C55.4503 38.1004 54.8421 38.1518 54.1732 38.1518H53.5044V36.8323H53.9977C54.494 36.8323 54.948 36.8081 55.3626 36.7627C55.7772 36.7143 56.1373 36.6205 56.4399 36.4752C56.7425 36.33 56.9816 36.1272 57.1541 35.8609C57.3266 35.5976 57.4204 35.2526 57.4386 34.829H55.6349C55.2022 34.829 54.8027 34.7805 54.4365 34.6867C54.0734 34.5929 53.7526 34.4355 53.4802 34.2146C53.2079 33.9937 52.996 33.7123 52.8417 33.3642C52.6873 33.0162 52.6117 32.5835 52.6117 32.066C52.6117 31.6272 52.6843 31.2005 52.8235 30.7859C52.9627 30.3713 53.1716 30.0051 53.4439 29.6873C53.7163 29.3696 54.0461 29.1123 54.4335 28.9156C54.8209 28.7189 55.2627 28.6191 55.7651 28.6191C56.3158 28.6191 56.7819 28.7189 57.1602 28.9156C57.5385 29.1123 57.8502 29.3908 58.0923 29.7509C58.3344 30.111 58.5069 30.5468 58.6128 31.0582C58.7187 31.5697 58.7701 32.1386 58.7701 32.762V33.5125H99.5642C99.994 33.5125 100.206 33.7244 100.206 34.148C100.206 34.4144 100.154 34.5959 100.051 34.6897C99.9486 34.7836 99.7852 34.832 99.5642 34.832H58.7369L58.7399 34.829ZM53.8888 31.9328C53.8888 32.4775 54.0431 32.877 54.3548 33.1312C54.6665 33.3854 55.1235 33.5095 55.7227 33.5095H57.4356V32.4564C57.4356 31.6726 57.3024 31.0461 57.0361 30.577C56.7698 30.111 56.3128 29.875 55.6682 29.875C55.3626 29.875 55.0993 29.9355 54.8753 30.0596C54.6514 30.1806 54.4698 30.341 54.3276 30.5407C54.1854 30.7405 54.0764 30.9584 54.0008 31.2005C53.9251 31.4426 53.8888 31.6847 53.8888 31.9298V31.9328Z" fill="white"/>
<path d="M99.5824 34.829C99.1587 34.829 59.2665 34.6171 59.2665 34.1934C59.2665 33.9271 98.9983 33.7455 99.0982 33.6517C99.1981 33.5579 99.3585 33.5095 99.5824 33.5095H100.242C100.363 33.5095 100.496 33.4944 100.636 33.4641C100.775 33.4338 100.911 33.3642 101.05 33.2553C101.186 33.1463 101.323 32.9981 101.456 32.8135C101.589 32.6258 101.716 32.3777 101.831 32.066C102.076 31.3881 102.333 30.8373 102.603 30.4167C102.872 29.996 103.147 29.6722 103.429 29.4452C103.71 29.2183 103.998 29.0669 104.288 28.9913C104.579 28.9156 104.872 28.8793 105.16 28.8793C105.559 28.8793 105.932 28.955 106.27 29.1093C106.609 29.2636 106.906 29.4785 107.154 29.76C107.405 30.0414 107.599 30.3743 107.741 30.7616C107.883 31.149 107.953 31.5848 107.953 32.069C107.953 32.9769 107.732 33.6971 107.293 34.2358C106.855 34.7715 106.177 35.0408 105.266 35.0408C104.763 35.0408 104.261 34.9561 103.75 34.7866C103.241 34.6171 102.715 34.3296 102.176 33.9241C102.037 34.1359 101.898 34.3024 101.755 34.4234C101.613 34.5445 101.462 34.6353 101.301 34.6958C101.141 34.7533 100.974 34.7926 100.808 34.8078C100.642 34.8229 100.46 34.832 100.266 34.832H99.5824V34.829ZM106.637 32.0176C106.637 31.7785 106.603 31.5485 106.534 31.3245C106.464 31.1006 106.364 30.9069 106.228 30.7405C106.092 30.574 105.935 30.4378 105.744 30.3349C105.553 30.2321 105.332 30.1806 105.075 30.1806C104.624 30.1806 104.213 30.3773 103.843 30.7738C103.474 31.1702 103.126 31.8602 102.805 32.8437C103.196 33.0949 103.583 33.2977 103.971 33.452C104.358 33.6094 104.754 33.685 105.16 33.685C105.605 33.685 105.962 33.5579 106.231 33.3007C106.5 33.0435 106.637 32.6168 106.637 32.0145V32.0176Z" fill="white"/>
<path d="M111.112 23.4683V34.829H109.811V23.4683H111.112Z" fill="white"/>
<path d="M10.2015 48.8708C10.3196 48.9979 10.4194 49.1765 10.5011 49.4065C10.5859 49.6335 10.6252 49.8544 10.6252 50.0662C10.6252 50.384 10.5314 50.6957 10.3468 51.0043C10.1592 51.313 9.85958 51.5884 9.44801 51.8275C9.03644 52.0666 8.50079 52.2572 7.83803 52.3995C7.17528 52.5417 6.36121 52.6113 5.39281 52.6113C4.31848 52.6113 3.43481 52.5145 2.7418 52.3178C2.04878 52.1241 1.498 51.8547 1.08946 51.5128C0.68091 51.1708 0.396441 50.7683 0.239075 50.3053C0.0817092 49.8423 0 49.346 0 48.8103V46.3469H1.29524V48.5682C1.29524 49.5094 1.61905 50.1994 2.26365 50.6382C2.90824 51.077 3.96441 51.2979 5.4261 51.2979C5.97083 51.2979 6.48832 51.2707 6.97555 51.2132C7.46278 51.1557 7.88948 51.074 8.25566 50.962C8.62184 50.85 8.90933 50.7078 9.11814 50.5353C9.32696 50.3628 9.42985 50.1661 9.42985 49.9421C9.42985 49.7031 9.30577 49.4882 9.05762 49.2945C8.80947 49.1008 8.50381 48.9344 8.13461 48.7921C7.76843 48.6499 7.37804 48.5198 6.96647 48.4048C6.5549 48.2868 6.18872 48.1808 5.87399 48.087V46.7918C7.22067 47.2941 8.49776 47.5423 9.70524 47.5423H11.3092C11.7389 47.5423 28.7677 47.7541 28.7677 48.1778C28.7677 48.4441 11.9023 48.6257 11.7994 48.7195C11.6965 48.8133 11.5331 48.8618 11.3122 48.8618H10.2015V48.8708Z" fill="white"/>
<path d="M11.3364 48.8708C10.9127 48.8708 10.7009 48.659 10.7009 48.2353C10.7009 47.969 10.7523 47.7874 10.8522 47.6936C10.952 47.5998 11.1124 47.5514 11.3364 47.5514H29.4274C29.6181 47.5514 29.7875 47.5393 29.9358 47.5181C30.0871 47.4969 30.2112 47.4455 30.3111 47.3637C30.4109 47.282 30.4896 47.167 30.5441 47.0188C30.5986 46.8705 30.6288 46.6586 30.6288 46.3923V37.5102H31.9392V45.7992C31.9392 46.3378 32.0482 46.7676 32.2661 47.0793C32.4839 47.394 32.832 47.5514 33.3101 47.5514C33.7338 47.5514 33.9456 47.7632 33.9456 48.1869C33.9456 48.4532 33.8942 48.6348 33.7943 48.7286C33.6944 48.8224 33.5341 48.8708 33.3101 48.8708C32.8985 48.8708 32.5687 48.771 32.3175 48.5743C32.0663 48.3775 31.8999 48.1294 31.8151 47.8359C31.6215 48.2686 31.3158 48.55 30.8982 48.6802C30.4806 48.8073 29.9419 48.8708 29.2791 48.8708H11.3364Z" fill="white"/>
<path d="M33.8791 47.5514C34.2301 47.5514 34.5267 47.5393 34.7688 47.5181C35.0109 47.4969 35.2046 47.4455 35.3498 47.3637C35.4951 47.282 35.598 47.167 35.6615 47.0188C35.7251 46.8674 35.7584 46.6586 35.7584 46.3923V43.5385H37.0597V45.8022C37.0597 46.0685 37.0748 46.3106 37.1051 46.5285C37.1353 46.7464 37.211 46.928 37.329 47.0763C37.447 47.2245 37.6165 47.3395 37.8344 47.4273C38.0523 47.512 45.5181 47.5574 45.8873 47.5574C46.1203 47.5574 46.3231 47.5453 46.4956 47.5241C46.6681 47.503 46.8133 47.4515 46.9283 47.3698C47.0433 47.2881 47.1311 47.1731 47.1886 47.0248C47.2431 46.8735 47.2733 46.6647 47.2733 46.3984V43.5446H48.5746V45.8082C48.5746 46.0746 48.5928 46.3167 48.6321 46.5346C48.6715 46.7524 48.7471 46.934 48.8561 47.0823C48.965 47.2306 49.1194 47.3456 49.3161 47.4334C49.5128 47.5211 49.77 47.5635 50.0938 47.5635C50.2784 47.5635 57.6171 47.5514 57.7654 47.5302C57.9137 47.509 58.0408 47.4576 58.1437 47.3759C58.2496 47.2941 58.3313 47.1791 58.3888 47.0309C58.4463 46.8795 58.4766 46.6707 58.4766 46.4044V42.7578H59.7779V45.8143C59.7779 46.0806 59.796 46.3227 59.8354 46.5406C59.8747 46.7585 59.9473 46.9401 60.0533 47.0884C60.1592 47.2366 60.3014 47.3516 60.48 47.4394C60.6585 47.5241 60.8855 47.5695 61.1639 47.5695C61.5936 47.5695 61.8055 47.7814 61.8055 48.205C61.8055 48.4714 61.754 48.6529 61.6511 48.7468C61.5482 48.8406 61.3848 48.889 61.1639 48.889C60.7523 48.889 60.4194 48.7891 60.1622 48.5924C59.905 48.3957 59.7355 48.1476 59.6538 47.854C59.56 48.078 59.4268 48.2535 59.2573 48.3897C59.0879 48.5228 58.9063 48.6287 58.7156 48.7014C58.525 48.777 58.3374 48.8254 58.1558 48.8527C57.9742 48.8769 57.8199 48.889 57.6928 48.889C57.3478 48.889 49.8789 48.8557 49.6368 48.7921C49.3947 48.7286 49.195 48.6469 49.0346 48.547C48.8772 48.4472 48.7532 48.3352 48.6624 48.2141C48.5746 48.0901 48.505 47.972 48.4536 47.854C48.2599 48.2868 47.9633 48.5682 47.5638 48.6983C47.1644 48.8254 46.6923 48.889 46.1415 48.889C45.7693 48.889 38.2823 48.8587 38.0372 48.8012C37.789 48.7437 37.5862 48.662 37.4289 48.5622C37.2715 48.4623 37.1414 48.3473 37.0445 48.2202C36.9477 48.0931 36.866 47.963 36.7994 47.8358C36.7117 48.0598 36.5936 48.2353 36.4484 48.3715C36.3031 48.5047 36.1185 48.6136 35.8946 48.6923C35.6676 48.774 35.3892 48.8254 35.0502 48.8496C34.7143 48.8739 34.3148 48.886 33.8518 48.886H33.3162C32.8925 48.886 32.6807 48.6741 32.6807 48.2504C32.6807 47.9841 32.7321 47.8026 32.832 47.7087C32.9318 47.6149 33.0922 47.5665 33.3162 47.5665H33.876L33.8791 47.5514Z" fill="white"/>
<path d="M61.1851 48.8708C60.7614 48.8708 60.5496 48.659 60.5496 48.2353C60.5496 47.969 60.601 47.7874 60.7009 47.6936C60.8007 47.5998 60.9611 47.5514 61.1851 47.5514H74.428V42.7426H75.7384V48.8708H61.1851ZM74.192 40.0614C74.192 39.8283 74.2737 39.6316 74.4371 39.4682C74.6005 39.3078 74.8003 39.2261 75.0333 39.2261C75.2663 39.2261 75.466 39.3078 75.6295 39.4682C75.7929 39.6286 75.8746 39.8283 75.8746 40.0614C75.8746 40.2944 75.7929 40.5032 75.6295 40.6666C75.466 40.83 75.2663 40.9118 75.0333 40.9118C74.8003 40.9118 74.6005 40.83 74.4371 40.6666C74.2737 40.5032 74.192 40.3004 74.192 40.0614Z" fill="white"/>
<path d="M82.6988 48.8708C82.6534 49.5154 82.5172 50.0511 82.2903 50.4778C82.0633 50.9045 81.7546 51.2434 81.3642 51.4976C80.9738 51.7518 80.5048 51.9304 79.957 52.0363C79.4093 52.1422 78.801 52.1937 78.1322 52.1937H77.4634V50.8742H77.9566C78.453 50.8742 78.9069 50.85 79.3215 50.8046C79.7361 50.7562 80.0962 50.6624 80.3988 50.5171C80.7015 50.3719 80.9405 50.1691 81.113 49.9028C81.2855 49.6395 81.3794 49.2945 81.3975 48.8708H79.5939C79.1611 48.8708 78.7616 48.8224 78.3955 48.7286C78.0323 48.6348 77.7115 48.4774 77.4392 48.2565C77.1668 48.0356 76.955 47.7541 76.8006 47.4061C76.6463 47.0581 76.5706 46.6253 76.5706 46.1078C76.5706 45.669 76.6432 45.2423 76.7825 44.8277C76.9247 44.4131 77.1305 44.047 77.4028 43.7292C77.6752 43.4114 78.0051 43.1542 78.3924 42.9575C78.7798 42.7608 79.2216 42.6609 79.724 42.6609C80.2748 42.6609 80.7408 42.7608 81.1191 42.9575C81.4974 43.1542 81.8091 43.4326 82.0512 43.7928C82.2933 44.1529 82.4658 44.5856 82.5717 45.1001C82.6776 45.6115 82.7291 46.1805 82.7291 46.8039V47.5544H83.8397C84.2694 47.5544 104.325 47.7662 104.325 48.1899C104.325 48.4562 104.273 48.6378 104.17 48.7316C104.067 48.8254 84.0637 48.8739 83.8397 48.8739H82.6958L82.6988 48.8708ZM77.8477 45.9717C77.8477 46.5164 78.002 46.9159 78.3137 47.1701C78.6255 47.4243 79.0824 47.5484 79.6816 47.5484H81.3945V46.4952C81.3945 45.7114 81.2613 45.085 80.995 44.6159C80.7287 44.1499 80.2717 43.9138 79.6271 43.9138C79.3215 43.9138 79.0582 43.9743 78.8343 44.0984C78.6103 44.2225 78.4287 44.3798 78.2865 44.5796C78.1443 44.7793 78.0353 44.9972 77.9597 45.2393C77.884 45.4814 77.8477 45.7235 77.8477 45.9686V45.9717Z" fill="white"/>
<path d="M83.8609 48.8708C83.4372 48.8708 83.2254 48.659 83.2254 48.2353C83.2254 47.969 83.2768 47.7874 83.3767 47.6936C83.4766 47.5998 83.637 47.5514 83.8609 47.5514H105.514C105.402 47.3274 105.305 47.0823 105.217 46.813C105.13 46.5436 105.087 46.2319 105.087 45.8809C105.087 45.4633 105.157 45.0547 105.293 44.6492C105.429 44.2437 105.632 43.8896 105.898 43.5779C106.165 43.2662 106.491 43.012 106.879 42.8153C107.266 42.6186 107.714 42.5187 108.228 42.5187C108.806 42.5187 109.282 42.6246 109.657 42.8395C110.029 43.0543 110.326 43.3237 110.547 43.6535C110.767 43.9834 110.916 44.3435 110.997 44.74C111.079 45.1364 111.119 45.5238 111.119 45.9081V48.8708H83.8639H83.8609ZM106.165 40.0614C106.165 39.8283 106.249 39.6316 106.416 39.4682C106.582 39.3078 106.782 39.2261 107.018 39.2261C107.254 39.2261 107.451 39.3078 107.611 39.4682C107.771 39.6286 107.853 39.8283 107.853 40.0614C107.853 40.2944 107.771 40.5032 107.611 40.6666C107.451 40.83 107.251 40.9118 107.018 40.9118C106.785 40.9118 106.585 40.83 106.416 40.6666C106.249 40.5032 106.165 40.3004 106.165 40.0614ZM106.331 45.663C106.331 46.3136 106.522 46.7918 106.903 47.0944C107.284 47.397 107.75 47.5484 108.301 47.5484H109.829V45.9535C109.829 45.6963 109.805 45.439 109.76 45.1818C109.711 44.9216 109.627 44.6916 109.499 44.4858C109.375 44.28 109.2 44.1105 108.973 43.9774C108.749 43.8442 108.464 43.7776 108.126 43.7776C107.563 43.7776 107.124 43.9622 106.806 44.3314C106.488 44.7006 106.331 45.1455 106.331 45.663ZM108.241 40.0614C108.241 39.8283 108.322 39.6316 108.486 39.4682C108.649 39.3078 108.849 39.2261 109.082 39.2261C109.315 39.2261 109.509 39.3078 109.675 39.4682C109.841 39.6286 109.926 39.8283 109.926 40.0614C109.926 40.2944 109.841 40.5032 109.675 40.6666C109.509 40.83 109.309 40.9118 109.082 40.9118C108.855 40.9118 108.649 40.83 108.486 40.6666C108.322 40.5032 108.241 40.3004 108.241 40.0614Z" fill="white"/>
</g>
<g clip-path="url(#clip1_673_2497)">
<rect x="121.959" y="1.99985" width="53.5649" height="53.5649" fill="#5064BA"/>
<g clip-path="url(#clip2_673_2497)">
<path d="M166.647 49.0068C166.217 52.066 172.982 50.1632 172.388 53.3035L172.143 54.1191C169.832 53.3747 169.064 54.2827 167.316 54.3392L163.854 54.1437C167.889 53.6725 170.101 52.4117 171.971 53.1003C171.131 51.2073 165.066 52.9902 166.646 49.0075L166.647 49.0068Z" fill="white"/>
<path d="M164.883 52.4477C165.299 45.017 151.616 49.8344 153.207 43.0613C154.137 47.8801 162.129 43.0613 162.208 47.4172C161.642 46.0464 159.678 46.2023 157.665 46.4104C160.772 47.099 165.859 47.037 164.883 52.447L164.883 52.4477Z" fill="white"/>
<path d="M144.055 54.6419C146.283 49.3518 132.247 48.4995 134.602 42.6733C134.704 46.7343 142.763 44.2219 141.909 49.3814C141.744 46.9438 138.973 46.929 136.57 46.0224C140.142 48.8135 146.583 50.3685 144.055 54.6419Z" fill="white"/>
<path d="M163.467 52.4865C163.326 55.2409 159.454 54.6235 160.043 51.6229C158.611 51.4303 158.279 52.6868 157.287 53.6421C157.287 53.6421 156.197 54.6955 155.749 53.5003L155.397 52.1873C154.233 49.4195 151.629 48.8184 149.819 47.8194C148.475 47.0779 147.893 45.9723 148.177 43.3336C148.079 49.0294 154.825 46.4302 155.923 52.7108C156.567 53.6823 157.483 52.6826 157.937 52.0349C157.451 51.9912 157.016 51.855 156.895 51.1523C156.873 51.0267 156.877 50.8969 156.9 50.7713L157.028 50.0834C157.062 49.8958 157.142 49.7173 157.267 49.5733C158.121 48.5891 159.146 49.6044 159.357 50.7325C159.433 51.5693 159.363 52.5302 159.226 53.5497C159.618 50.7431 158.05 49.3426 157.09 50.5703C158.137 51.9305 159.157 50.2478 160.142 50.5914C160.212 50.6161 160.258 50.6831 160.252 50.7572L160.176 51.6166C160.346 53.6894 162.861 53.755 163.353 52.3468C163.341 52.0476 163.265 51.7767 163.114 51.5389C162.878 50.8884 162.186 50.6239 161.248 50.5674C161.936 51.3082 163.312 50.2556 163.582 50.6789C163.608 50.7205 163.616 50.772 163.611 50.8221L163.635 51.752C163.146 51.1848 162.678 51.6589 162.112 51.7584C161.512 51.8635 160.803 51.6624 160.857 50.6069L161.05 49.5522C162.328 49.967 163.805 50.1455 163.468 52.4858L163.467 52.4865Z" fill="white"/>
<path d="M161.225 43.0613C160.565 46.6221 145.633 46.4323 144.93 52.8378C144.762 55.5224 147.621 54.3589 148.403 52.9182C148.322 53.5123 148.374 53.8679 148.508 54.0774C148.585 54.1981 148.75 54.2185 148.856 54.1219C149.415 53.6146 149.463 52.6184 149.87 52.2233C149.725 53.8425 150.687 54.0972 151.529 54.5L151.709 53.1292L153.151 54.0598L153.275 53.6753C154.375 54.9262 155.214 52.1161 156.345 51.6652L156.45 50.7283C155.593 50.8962 154.382 53.8728 153.548 52.8858C153.458 52.7793 153.422 52.6382 153.436 52.4992C153.636 50.6521 152.237 50.9519 151.679 49.4753C151.364 50.9858 151.901 50.8327 153.22 52.2896C153.261 52.5514 153.265 52.8202 153.22 53.0989C152.148 52.2896 151.295 52.2148 151.244 51.0966C150.768 52.6494 151.576 52.7941 151.541 53.5045C150.706 53.12 149.76 52.8618 150.048 51.1953C149.384 51.582 149.414 53.0756 148.786 53.2731C148.618 53.2731 148.579 53.0932 148.581 52.8576L148.634 51.8282C146.722 54.4676 145.153 53.446 145.082 52.7997C147.262 47.0659 161.878 47.9358 161.226 43.0606L161.225 43.0613Z" fill="white"/>
<path d="M148.468 48.1044L148.615 47.3693C148.627 47.3093 148.573 47.2564 148.514 47.2698C147.603 47.4765 147.095 48.4798 146.288 48.9567C145.532 49.404 144.643 49.373 144.251 48.69C144.019 48.285 144.05 47.7827 144.296 47.3855C144.559 46.9615 144.929 46.7068 145.633 46.433C144.903 46.6574 144.322 46.8408 143.879 48.0882C143.301 49.8231 144.852 50.6048 146.112 49.8534C146.899 49.3835 147.488 48.2307 148.389 48.1715C148.427 48.1686 148.461 48.1418 148.468 48.1037L148.468 48.1044Z" fill="white"/>
<path d="M137.24 54.7357C140.291 49.8619 130.377 49.229 133.994 44.43C132.175 46.414 132.507 47.8088 133.49 49.0117C134.603 50.3748 137.287 51.6645 137.505 53.3768C137.001 52.9288 136.336 52.9091 135.819 53.2188C136.606 51.7823 136.819 50.5336 136.677 49.6947C137.603 50.5575 138.367 51.6391 138.029 52.9133C137.645 54.2672 138.068 54.9798 139.308 52.7278C138.873 54.081 139.787 54.2291 140.566 54.6426C140.655 54.6898 140.766 54.6503 140.803 54.5572L141.19 53.6019L142.633 54.3554C142.767 54.4253 142.931 54.3611 142.982 54.2199L143.246 53.4925C143.266 53.434 143.283 53.3493 143.298 53.2527C143.37 52.7771 143.219 52.2953 142.89 51.9439C142.522 51.5523 141.993 51.0204 141.48 50.6232C141.417 50.5738 141.323 50.5992 141.294 50.6747L141.051 51.2991C141.028 51.3583 141.047 51.4246 141.097 51.4634C141.438 51.7238 142.702 52.7256 142.971 53.4841C142.074 52.9648 140.987 52.847 140.817 51.7584C140.812 51.7273 140.769 51.721 140.755 51.7492C140.127 52.969 140.626 53.0227 140.818 53.7106C140.037 53.3211 139.317 53.2308 139.667 51.8952C139.678 51.8536 139.627 51.8212 139.595 51.8508C139.265 52.1513 139.006 52.8667 138.733 53.1377C138.463 53.4044 138.253 53.4559 138.224 53.0459C138.217 52.9465 138.232 52.8463 138.26 52.7503C139.646 48.0374 131.394 46.9601 132.669 43.6511C130.329 47.3248 137.046 47.8963 136.509 51.1714C136.463 51.4557 136.36 51.728 136.221 51.9813L135.546 53.2096C135.389 53.4968 135.249 53.7938 135.131 54.0986L134.881 54.7378C135.931 53.676 136.982 53.7282 137.241 54.7378L137.24 54.7357Z" fill="white"/>
<path d="M131.409 45.6478C131.322 47.3594 133.329 47.1971 132.712 48.8699L132.422 49.7525C131.594 49.3553 130.574 49.131 130.937 47.6515C130.133 48.5567 128.67 48.7599 129.084 47.0003C128.911 47.0313 128.725 47.2204 128.529 47.5548C128.26 49.9995 135.795 50.1505 134.683 53.5906L134.397 54.4902C133.191 53.0925 131.534 53.7338 129.871 52.0667L128.885 49.7702C131.293 52.8907 132.027 51.7633 134.474 53.4425C133.415 50.4722 127.25 50.904 128.358 47.6155C128.554 46.7562 128.919 46.2538 129.441 46.0471L129.29 46.8839C129.439 48.0247 130.924 47.1872 131.321 46.6341C130.916 47.6282 131.256 48.3648 132.502 48.7895C132.021 47.703 130.551 47.5407 131.409 45.6471V45.6478Z" fill="white"/>
<path d="M127.627 50.0249C126.082 52.4956 131.096 51.5608 130.021 53.7487C130.003 53.7839 129.978 53.8164 129.95 53.8446L129.291 54.5022C129.048 53.5772 126.11 55.4074 123.366 53.3938C126.592 54.2983 127.45 53.1969 129.439 53.5144C129.3 52.8167 128.199 52.6537 127.317 52.188C126.536 51.7753 126.33 50.9717 127.626 50.0256L127.627 50.0249Z" fill="white"/>
<path d="M126.231 51.922C126.742 49.8704 124.086 48.3239 125.511 47.0828C126.898 46.4493 127.331 46.5699 127.966 45.9095C129.364 44.471 129.235 42.1124 131.802 42.0792C128.222 40.3239 128.448 46.4232 124.863 45.4961C125.763 44.1676 126.007 42.3805 128.079 42.154C128.7 42.9752 127.719 44.3228 125.935 44.0688C124.896 43.8536 123.988 41.0287 127.289 41.0273L128.06 41.1585C128.243 39.7587 125.825 39.9916 124.551 37.6548C123.828 36.3292 124.064 35.9693 123.546 34.118C123.326 35.1234 123.336 36.1372 123.546 37.1596C124.795 39.7362 127.054 39.4511 127.161 40.75C123.012 40.2194 123.619 43.9686 125.762 44.1669C127.268 44.6078 128.241 44.387 128.862 43.7294C129.45 42.8807 129.138 42.269 128.033 41.9946C125.487 41.3081 124.856 44.0984 123.858 45.3254C124.773 45.8009 125.776 45.9102 126.821 45.846C126.007 46.5953 124.805 46.2665 124.306 47.2416C123.913 48.9278 125.782 49.7053 125.33 51.6511L126.231 51.9206V51.922Z" fill="white"/>
<path d="M129.563 41.0103L130.477 41.2008C130.469 40.2131 127.584 38.3512 128.554 37.6866C128.702 37.5857 128.886 37.5518 129.063 37.5772L129.613 37.6556C129.695 37.6675 129.754 37.5801 129.715 37.5067C129.396 36.9225 128.297 36.4576 127.743 35.6928C127.337 35.1319 127.437 34.4913 128.246 34.2387L128.949 34.312C129.069 34.3247 129.161 34.2062 129.117 34.0933C128.795 33.2538 128.419 32.3091 128.799 31.7813C129.119 32.6964 127.697 33.3772 126.588 33.2657C125.603 32.829 124.395 31.6071 123.963 30.0013C123.649 28.8364 123.282 27.0642 123.176 24.714C122.923 25.591 122.891 26.9414 122.955 28.502C122.964 28.7207 122.985 28.9387 123.026 29.1539C123.441 31.3573 124.819 33.1007 126.689 33.4062C128.304 33.8048 129.369 33.3081 129.878 31.9048C129.922 31.7813 129.846 31.6466 129.717 31.6183L129.138 31.4913C128.949 31.4497 128.755 31.4307 128.561 31.4455C126.844 31.5767 128.375 33.9134 128.156 34.0482C126.469 33.8873 126.283 34.7452 126.898 35.6095C127.331 36.2184 128.816 37.0065 128.821 37.3994C127.175 37.065 127.265 37.9081 127.86 38.7061C128.46 39.5104 129.551 40.3119 129.562 41.0103H129.563Z" fill="white"/>
<path d="M131.449 27.0592C128.871 25.9163 128.432 27.745 127.579 28.9994C127.406 28.3842 127.117 27.7527 127.553 27.2236C127.67 27.0811 127.832 26.9844 128.006 26.9195C130.808 25.8697 130.084 17.7095 133.225 17.1846C133.757 17.8006 134.981 20.2466 131.632 21.8827C132.068 21.8708 132.482 21.8157 132.868 21.7127C133.733 21.4813 134.444 20.8463 134.692 19.9884C135.122 18.5026 134.007 17.2502 133.118 16.9497C129.78 16.0692 129.685 23.8378 128.064 25.905C127.913 26.099 127.711 26.25 127.484 26.3459C126.921 26.5837 126.672 26.741 126.554 27.1848C126.304 28.1196 127.564 30.0485 125.882 31.7016C125.829 31.7524 125.845 31.8399 125.911 31.8702L126.722 32.2434C126.78 32.2702 126.85 32.2604 126.896 32.2152C128.591 30.5593 128.164 26.801 131.45 27.0592H131.449Z" fill="white"/>
<path d="M124.992 27.3626L125.928 27.6138C126.198 26.0912 124.585 25.5035 123.973 24.2364C123.333 22.9121 123.023 21.8566 122.909 20.8216C122.909 21.5123 122.861 22.5135 122.986 23.339C123.026 23.6056 123.223 24.2498 123.475 24.5891C124.311 25.7187 125.489 26.4574 124.992 27.3626Z" fill="white"/>
<path d="M125.427 24.6872L126.384 24.9588C127 24.9045 125.967 23.6783 126.686 23.1294C126.598 23.7891 126.32 24.1679 125.729 24.0847C124.453 23.1605 123.624 20.7214 122.918 17.8633L123.09 20.8668C123.097 20.9938 123.123 21.1194 123.168 21.2386C123.738 22.7527 124.472 23.9923 125.74 24.3359C127.238 24.726 127.455 23.9775 127.618 23.1816C127.632 23.1125 127.591 23.0433 127.523 23.0229L127.075 22.8874C126.814 22.8084 126.539 22.7752 126.268 22.8013C124.712 22.9537 126.373 24.5228 125.427 24.6872Z" fill="white"/>
<path d="M125.133 21.0799L126.1 21.3614C126.788 21.3458 125.927 19.9891 126.543 19.3506C126.493 19.9482 126.458 20.5571 125.637 20.5768C124.27 19.328 123.515 16.822 123.19 13.4291V17.0964C123.19 17.3356 123.227 17.5734 123.3 17.8006C123.742 19.1665 124.334 20.3433 125.486 20.8075L126.453 21.0086C127.468 20.8872 127.729 19.5594 126.927 19.1686L126.303 19.0282C124.64 18.7573 126.101 21.1617 125.135 21.0791L125.133 21.0799Z" fill="white"/>
<path d="M125.356 18.0531L126.16 18.3149C126.201 18.3283 126.245 18.3043 126.255 18.2627C126.743 16.2526 124.761 15.2148 124.013 13.59C123.504 12.4823 123.491 11.4388 123.608 8.97298C123.099 10.0595 122.902 11.8445 122.994 12.6283C123.259 14.9037 126.227 16.8008 125.323 17.936C125.29 17.9769 125.307 18.0369 125.356 18.0531H125.356Z" fill="white"/>
<path d="M125.967 14.6652L126.582 14.9834C126.648 15.0179 126.73 14.9834 126.752 14.9114C127.325 13.0559 125.532 11.9454 124.622 9.0788C124.492 8.6703 124.193 7.11743 124.064 5.07987C123.721 6.69835 123.783 7.509 123.885 8.76767C124.029 10.5357 126.554 12.7708 125.909 14.5205C125.889 14.5763 125.914 14.6384 125.967 14.6659V14.6652Z" fill="white"/>
<path d="M127.331 13.2584L128.237 13.6203C128.406 12.2128 126.761 11.0014 126.17 9.33068C125.673 7.92526 125.845 7.15765 126.747 6.95869C127.302 6.83663 127.865 7.0109 128.332 7.33262C129.269 7.97606 129.888 8.89607 129.888 8.89607C129.888 8.89607 129.136 7.65434 128.17 7.07792C127.694 6.7943 127.163 6.60945 126.612 6.56007C124.803 6.39779 124.777 7.82437 125.404 9.28693C126.108 10.9294 127.569 11.9235 127.33 13.2591L127.331 13.2584Z" fill="white"/>
<path d="M124.154 16.925C126.657 18.4355 129.889 8.89536 134.83 13.1158C130.921 10.7185 131.278 18.4701 127.775 16.0226C129.208 16.4107 130.006 14.8338 131.067 13.1144C128.554 14.699 126.43 18.6923 124.153 16.925H124.154Z" fill="white"/>
<path d="M157.337 48.9419L157.429 48.072L156.39 47.8589L156.306 48.7662L157.337 48.9419Z" fill="white"/>
<path d="M160.601 49.5289L160.692 48.6597L159.654 48.4459L159.57 49.3539L160.601 49.5289Z" fill="white"/>
<path d="M156.033 50.4461L156.484 49.6975L155.634 49.0647L155.173 49.8513L156.033 50.4461Z" fill="white"/>
<path d="M149.071 51.7287L149.538 50.9893L148.702 50.3395L148.224 51.1163L149.071 51.7287Z" fill="white"/>
<path d="M146.019 48.4523L146.486 47.7129L145.649 47.0631L145.172 47.8399L146.019 48.4523Z" fill="white"/>
<path d="M147.796 52.1217L148.264 51.3823L147.426 50.7325L146.949 51.5093L147.796 52.1217Z" fill="white"/>
<path d="M132.018 53.3546L131.373 53.9987L132.112 54.736L132.757 54.092L132.018 53.3546Z" fill="white"/>
<path d="M130.669 53.2645L130.024 53.9086L130.762 54.6459L131.407 54.0019L130.669 53.2645Z" fill="white"/>
<path d="M124.222 50.2367L123.477 50.9806L124.215 51.7179L124.96 50.9741L124.222 50.2367Z" fill="white"/>
<path d="M125.92 35.3899L125.175 36.1337L125.913 36.8711L126.658 36.1273L125.92 35.3899Z" fill="white"/>
<path d="M123.469 32.0986L123.082 32.4852L123.465 32.8684L123.853 32.4817L123.469 32.0986Z" fill="white"/>
<path d="M123.474 32.9275L123.086 33.3141L123.47 33.6973L123.857 33.3107L123.474 32.9275Z" fill="white"/>
<path d="M126.072 36.8457L125.327 37.5896L126.065 38.3269L126.81 37.5831L126.072 36.8457Z" fill="white"/>
<path d="M131.402 39.5404L130.657 40.2843L131.396 41.0216L132.141 40.2778L131.402 39.5404Z" fill="white"/>
<path d="M125.234 27.9367L124.858 28.7666L125.81 29.1962L126.186 28.3663L125.234 27.9367Z" fill="white"/>
<path d="M125.768 29.3332L125.393 30.1632L126.344 30.5928L126.72 29.7629L125.768 29.3332Z" fill="white"/>
<path d="M127.59 17.6245L126.969 18.2915L127.734 19.0016L128.355 18.3346L127.59 17.6245Z" fill="white"/>
<path d="M128.021 8.29639L127.365 8.92842L128.089 9.67929L128.746 9.04725L128.021 8.29639Z" fill="white"/>
<path d="M127.957 9.64254L127.3 10.2746L128.025 11.0254L128.682 10.3934L127.957 9.64254Z" fill="white"/>
<path d="M124.661 28.8425L124.285 29.6724L125.237 30.102L125.613 29.2721L124.661 28.8425Z" fill="white"/>
<path d="M134.132 11.7563C134.67 12.3976 135.233 12.3398 135.411 11.9757C134.102 10.5992 130.943 12.0173 130.309 9.45133C130.168 8.83822 130.182 8.22723 130.521 7.62259L130.731 8.34647C131.078 9.43157 132.333 9.82384 133.707 10.1244C133.581 9.99106 133.491 9.73565 133.423 9.40406C133.423 9.40406 133.804 10.1159 134.513 10.1427L134.615 10.7537C132.964 10.4108 131.114 10.3805 130.595 8.26533C130.459 8.46923 130.392 8.87138 130.373 9.41323C131.622 11.6406 134.849 9.83725 135.519 11.9263C135.821 12.835 134.614 13.36 134.131 11.7563H134.132Z" fill="white"/>
<path d="M130.545 28.5719L131.115 28.7835C130.355 29.5533 129.502 30.014 128.402 29.6499C128.784 30.1304 129.192 30.5015 129.655 30.7639C131.611 31.8893 131.804 29.3656 133.429 29.3338C133.526 29.9667 133.076 30.5579 132.093 30.3928L133.174 30.6334C133.84 30.5029 134.438 29.6739 133.533 29.2308C131.744 28.4766 131.213 31.2818 129.729 30.6955C129.394 30.4465 129.098 30.196 128.964 29.9427C130.585 30.3519 131.481 29.173 132.448 28.1485L131.849 27.8416C131.459 28.392 131.03 28.672 130.546 28.5726L130.545 28.5719Z" fill="white"/>
<path d="M130.079 34.5117L130.593 34.7022C129.908 35.3957 129.14 35.8099 128.151 35.4818C128.495 35.9143 128.862 36.2487 129.279 36.4844C131.04 37.4975 131.213 35.2257 132.676 35.1968C132.763 35.7661 132.359 36.2988 131.474 36.1499L132.447 36.3665C133.046 36.2494 133.584 35.503 132.769 35.1036C131.158 34.4242 130.68 36.95 129.344 36.4223C129.043 36.1979 128.777 35.9729 128.656 35.7443C130.115 36.1126 130.922 35.0514 131.793 34.1293L131.253 33.8527C130.903 34.348 130.516 34.6006 130.079 34.511V34.5117Z" fill="white"/>
<path d="M149.383 45.6661L149.716 44.9204C150.452 45.5589 150.985 46.3759 150.719 47.3827C152.747 45.0142 150.931 44.454 150.703 43.6391C151.568 43.1058 152.593 43.9242 152.229 45.1842L152.395 44.4477C152.544 43.7929 152.121 43.1283 151.457 43.0232C151.12 42.9696 150.796 43.0726 150.657 43.4077C150.025 44.5965 151.305 44.7757 151.47 45.6795C151.509 45.8968 151.458 46.1205 151.343 46.3089C151.241 46.4725 151.1 46.6588 150.972 46.7364C151.153 45.5349 150.014 44.4971 149.105 43.7436L148.888 44.2861C149.405 44.6043 149.562 45.2125 149.384 45.6647L149.383 45.6661Z" fill="white"/>
<path d="M129.942 45.0022L130.502 45.1243C130.502 45.1243 130.204 45.6831 129.649 45.4693C129.093 45.2555 128.985 45.2336 129.163 44.8625C129.342 44.4914 130.226 44.5613 130.226 44.5613C130.226 44.5613 130.838 44.6311 131.074 43.9587C131.31 43.2864 131.728 42.0707 133.631 42.6211C133.631 42.6211 132.233 42.2302 131.611 44.1528C131.38 44.8682 130.592 44.7376 130.592 44.7376C130.592 44.7376 129.514 44.6636 129.664 45.3049L129.942 45.0022Z" fill="white"/>
<path d="M126.708 49.3067C126.153 49.0929 125.552 48.6674 125.731 48.2963C125.889 47.9697 126.261 48.2596 126.348 48.3344C126.365 48.3485 126.384 48.3598 126.405 48.3655C126.501 48.3909 126.744 48.3909 126.859 47.7778C127.01 46.9657 127.423 46.8867 128.221 47.1604C128.221 47.1604 127.62 46.9213 127.419 47.9351C127.238 48.8502 126.593 48.6103 126.409 48.5207C126.367 48.5002 126.316 48.5108 126.286 48.5475C126.215 48.6336 126.183 48.8431 126.709 49.3074L126.708 49.3067Z" fill="white"/>
<path d="M166.839 52.8124C166.323 53.1094 165.614 53.3105 165.437 52.938C165.282 52.6106 165.741 52.5034 165.854 52.4822C165.876 52.478 165.897 52.4702 165.915 52.4568C165.995 52.399 166.148 52.2092 165.741 51.7351C165.203 51.1079 165.401 50.7375 166.114 50.2887C166.114 50.2887 165.55 50.6055 166.215 51.3978C166.815 52.1132 166.224 52.4639 166.038 52.5507C165.996 52.5704 165.972 52.617 165.981 52.6628C166.003 52.7722 166.148 52.9288 166.839 52.811V52.8124Z" fill="white"/>
<path d="M174.929 54.4323C174.414 54.7293 173.704 54.9304 173.527 54.5579C173.372 54.2305 173.831 54.1233 173.944 54.1021C173.966 54.0979 173.987 54.0901 174.005 54.0767C174.085 54.0189 174.238 53.8291 173.831 53.355C173.293 52.7277 173.491 52.3573 174.204 51.9086C174.204 51.9086 173.64 52.2254 174.305 53.0177C174.905 53.7331 174.314 54.0838 174.128 54.1706C174.086 54.1903 174.062 54.2369 174.071 54.2827C174.093 54.3921 174.238 54.5487 174.929 54.4309V54.4323Z" fill="white"/>
<path d="M125.654 22.7541C125.352 22.3463 125.145 21.7734 125.515 21.6083C125.841 21.463 125.952 21.8355 125.974 21.9272C125.978 21.9448 125.987 21.9618 126 21.9759C126.058 22.0387 126.249 22.1544 126.718 21.7945C127.339 21.3183 127.711 21.4615 128.166 22.0253C128.166 22.0253 127.844 21.5787 127.06 22.1671C126.351 22.6983 125.995 22.2306 125.907 22.0824C125.886 22.0485 125.84 22.0316 125.794 22.0415C125.685 22.0655 125.53 22.1918 125.654 22.7548V22.7541Z" fill="white"/>
<path d="M126.583 52.0878C126.575 52.0751 126.56 52.0709 126.547 52.0787C126.469 52.1273 126.206 52.2819 126.21 52.2903C126.226 52.3178 126.241 52.3454 126.257 52.3736C126.18 52.4159 126.1 52.4547 126.034 52.5104C125.583 52.8957 126.028 53.5292 126.028 53.5292C126.028 53.5292 126.271 53.3698 126.361 53.3112C126.383 53.2964 126.404 53.2802 126.424 53.2618C126.961 52.7567 126.78 52.4399 126.583 52.0885L126.583 52.0878ZM126.276 52.4053C126.397 52.6212 126.499 52.8484 126.341 53.1447C126.236 52.9091 126.067 52.6755 126.276 52.4053Z" fill="white"/>
<path d="M147.037 45.12C147.025 45.113 147.009 45.1172 147.003 45.1299C146.961 45.2125 146.816 45.4806 146.824 45.4848C146.852 45.5003 146.879 45.5158 146.907 45.5314C146.864 45.6076 146.814 45.6823 146.787 45.7642C146.601 46.3272 147.311 46.639 147.311 46.639C147.311 46.639 147.435 46.378 147.482 46.2806C147.493 46.2566 147.503 46.232 147.51 46.2066C147.708 45.4968 147.389 45.319 147.038 45.12H147.037ZM146.94 45.5504C147.155 45.6725 147.361 45.8143 147.379 46.1487C147.167 46.0012 146.901 45.8891 146.94 45.5504Z" fill="white"/>
<path d="M123.613 52.9112C123.308 52.0074 124.683 51.9587 125.313 52.6233C125.369 52.6826 124.887 52.0018 124.16 51.9157C123.436 51.8296 123.246 52.2671 123.376 52.6509C123.391 52.696 123.549 52.8435 123.578 52.8745C123.586 52.8837 123.61 52.9006 123.614 52.9119L123.613 52.9112Z" fill="white"/>
<path d="M124.571 54.263C124.571 54.263 124.14 53.9533 123.316 54.5001C123.465 53.7197 123.125 53.7338 122.942 53.7113C122.887 53.7042 122.818 53.7092 122.766 53.6915C123.159 53.8284 122.964 54.3879 122.925 54.6807C122.945 54.6835 123.275 54.7244 123.275 54.7244C123.831 54.3131 124.571 54.2637 124.571 54.2637L124.571 54.263Z" fill="white"/>
<path d="M141.024 44.5853C140.978 46.3286 143.961 46.3858 143.394 48.9701C143.353 46.8338 140.433 46.7943 141.024 44.5853Z" fill="white"/>
<path d="M133.092 14.7675C131.351 14.9156 131.628 17.8824 128.992 17.6079C131.113 17.3286 130.828 14.4274 133.092 14.7675Z" fill="white"/>
<path d="M137.168 44.9295C137.333 44.4025 137.109 44.0145 136.568 43.74C136.507 43.709 136.484 43.6328 136.519 43.5735L136.688 43.2828C136.768 43.1467 136.926 43.0733 137.08 43.1058C137.733 43.2433 139.505 43.6222 140.889 43.7132C142.992 43.8522 148.018 42.3134 147.334 43.9799C147.057 45.3451 143.529 45.2082 142.552 45.1271C143.196 44.9161 146.614 44.7038 147.11 44.0519C146.757 42.8482 143.219 45.1518 137.521 43.8155C137.617 44.2388 137.43 44.5937 137.168 44.9295Z" fill="white"/>
<path d="M132.706 31.7898C133.24 31.9344 133.619 31.6945 133.873 31.1442C133.902 31.0814 133.977 31.056 134.037 31.0878L134.336 31.2458C134.475 31.3199 134.555 31.4744 134.529 31.6296C134.417 32.2872 134.108 34.0693 134.072 35.4543C134.017 37.5575 135.553 43.1262 133.857 42.5103C133.035 42.202 132.899 41.3624 132.942 40.3852C133.179 41.0195 133.443 41.6615 133.835 42.3395C135.025 41.9395 132.725 37.8355 133.835 32.0981C133.416 32.2103 133.053 32.0381 132.706 31.7898Z" fill="white"/>
<path d="M132.735 22.1678C133.269 22.3124 133.648 22.0725 133.902 21.5222C133.931 21.4594 134.006 21.434 134.066 21.4658L134.365 21.6238C134.504 21.6979 134.584 21.8524 134.557 22.0076C134.446 22.6652 134.137 24.4473 134.101 25.8323C134.046 27.9355 135.373 29.3254 133.678 28.7094C132.856 28.4011 132.982 27.1509 133.025 26.1738C133.262 26.808 133.522 27.8713 133.914 28.55C134.42 27.606 132.97 27.031 133.865 22.4761C133.445 22.5883 133.083 22.4161 132.736 22.1678H132.735Z" fill="white"/>
<path d="M139.738 49.6573C139.614 49.9938 139.504 50.3134 139.471 50.5547C139.467 50.5858 139.474 50.6182 139.491 50.645C139.62 50.8553 139.848 50.7544 140.125 50.4962L139.985 51.0253C139.971 51.0754 139.945 51.122 139.909 51.1594C139.443 51.6476 139.181 51.2864 139.33 50.7572C139.419 50.4009 139.564 50.0319 139.739 49.6573H139.738Z" fill="white"/>
<path d="M152.621 45.0869C152.497 45.4234 152.387 45.743 152.354 45.9843C152.35 46.0154 152.357 46.0478 152.374 46.0746C152.503 46.2849 152.731 46.184 153.008 45.9258L152.868 46.4549C152.854 46.505 152.828 46.5516 152.792 46.589C152.326 47.0772 152.064 46.716 152.213 46.1868C152.302 45.8305 152.447 45.4615 152.622 45.0869H152.621Z" fill="white"/>
<path d="M155.383 52.8879C155.258 53.2244 155.149 53.5441 155.115 53.7853C155.111 53.8164 155.118 53.8488 155.135 53.8756C155.265 54.0859 155.492 53.985 155.769 53.7268L155.629 54.2559C155.616 54.306 155.59 54.3526 155.554 54.39C155.087 54.8782 154.826 54.517 154.974 53.9878C155.063 53.6315 155.209 53.2625 155.383 52.8879H155.383Z" fill="white"/>
<path d="M128.014 48.7585C127.701 48.9348 127.41 49.1084 127.229 49.2707C127.205 49.2918 127.19 49.3208 127.185 49.3525C127.148 49.5966 127.386 49.6665 127.765 49.6481L127.315 49.9614C127.273 49.991 127.223 50.0094 127.171 50.015C126.499 50.0863 126.534 49.6418 126.99 49.3342C127.289 49.1197 127.638 48.9327 128.014 48.7592V48.7585Z" fill="white"/>
<path d="M125.552 40.1136C125.116 39.9266 124.699 39.7608 124.383 39.7009C124.342 39.6931 124.299 39.7009 124.262 39.7206C123.976 39.8773 123.952 40.139 124.275 40.5207L123.726 40.345C123.66 40.3239 123.601 40.2865 123.554 40.2364C122.94 39.5887 123.436 39.2691 124.125 39.4998C124.59 39.6409 125.068 39.8582 125.552 40.1129V40.1136Z" fill="white"/>
<path d="M132.223 38.7202C131.787 38.5332 131.371 38.3674 131.054 38.3075C131.013 38.2997 130.97 38.3075 130.934 38.3272C130.647 38.4838 130.624 38.7456 130.947 39.1273L130.398 38.9516C130.332 38.9304 130.273 38.893 130.226 38.8429C129.612 38.1953 130.107 37.8757 130.797 38.1064C131.262 38.2475 131.74 38.4648 132.223 38.7195V38.7202Z" fill="white"/>
<path d="M164.709 51.4127C164.464 51.8183 164.242 52.2071 164.139 52.5119C164.126 52.5514 164.127 52.5951 164.142 52.6339C164.258 52.9387 164.514 52.9973 164.938 52.7306L164.688 53.2498C164.659 53.3119 164.613 53.3648 164.557 53.4051C163.83 53.9236 163.582 53.3895 163.905 52.739C164.109 52.2981 164.391 51.8557 164.709 51.4127Z" fill="white"/>
<path d="M132.871 32.587C132.435 32.4001 132.019 32.2343 131.703 32.1743C131.662 32.1665 131.618 32.1743 131.582 32.194C131.295 32.3507 131.272 32.6124 131.595 32.9941L131.046 32.8184C130.98 32.7973 130.921 32.7599 130.874 32.7098C130.26 32.0621 130.756 31.7425 131.445 31.9732C131.91 32.1143 132.388 32.3316 132.871 32.5863V32.587Z" fill="white"/>
<path d="M130.3 18.3897C129.949 18.348 129.617 18.317 129.377 18.341C129.346 18.3438 129.317 18.3586 129.296 18.3805C129.124 18.5526 129.163 18.7445 129.474 18.9499L129.045 18.94C128.994 18.9386 128.943 18.9245 128.899 18.8991C128.323 18.5653 128.61 18.2323 129.151 18.2521C129.514 18.2549 129.901 18.3099 130.3 18.3897Z" fill="white"/>
<path d="M150.044 49.332L149.801 49.8111C149.876 49.9063 150.781 50.5575 150.425 51.5121C151.425 50.1603 150.044 49.332 150.044 49.332Z" fill="white"/>
<path d="M123.572 47.9986C123.933 48.1355 124.165 48.4854 124.157 48.8699C124.144 49.4358 124.084 49.8676 123.945 50.0686C123.89 50.1476 123.786 50.1766 123.697 50.1406L123.229 49.9515C123.169 49.9275 123.124 49.8767 123.106 49.8139L123.048 49.6051C123.012 49.476 122.989 49.344 122.979 49.2107C122.94 48.6801 122.974 47.9859 123.103 47.4088C123.106 47.3919 123.131 47.3926 123.135 47.4088L123.54 49.3278C123.641 48.8347 123.667 48.3824 123.573 47.9972L123.572 47.9986Z" fill="white"/>
<path d="M123.557 43.1305C123.836 43.244 124.01 43.5206 123.996 43.8205C123.976 44.2607 123.921 44.5965 123.809 44.7503C123.764 44.811 123.683 44.8315 123.614 44.8018L123.253 44.6459C123.206 44.6262 123.172 44.5853 123.159 44.5366L123.118 44.3729C123.093 44.272 123.077 44.1683 123.072 44.0646C123.051 43.6504 123.092 43.11 123.202 42.6627C123.205 42.6493 123.224 42.6507 123.227 42.6641L123.506 44.1676C123.593 43.7852 123.623 43.4331 123.557 43.1312L123.557 43.1305Z" fill="white"/>
<path d="M160.303 53.9998C158.968 54.148 157.929 54.4217 157.799 53.6922C157.985 54.7385 157.684 54.8472 160.353 54.5501C160.353 54.5501 160.31 53.9991 160.303 53.9998Z" fill="white"/>
<path d="M161.371 43.649C162.492 43.5347 163.356 43.3104 163.506 43.9369C163.29 43.0387 163.539 42.9477 161.298 43.177C161.298 43.177 161.364 43.6497 161.371 43.649Z" fill="white"/>
<path d="M125.891 35.2321L125.535 34.9908C125.506 34.9717 125.483 34.9463 125.467 34.916C125.272 34.5322 125.109 33.8224 124.662 33.3927C124.07 33.2058 124.836 35.1925 124.667 36.6396C124.292 35.613 124.041 34.4475 123.981 33.3144C123.969 33.1028 124.206 32.9701 124.382 33.0887L124.593 33.2319C125.576 33.9261 125.588 34.5406 125.925 35.201C125.936 35.2229 125.911 35.2448 125.891 35.2314V35.2321Z" fill="white"/>
<path d="M156.433 44.9754C156.544 43.946 155.243 43.9919 154.111 43.9101C154.047 43.9058 154.008 43.8381 154.035 43.7809L154.198 43.4303C154.213 43.3971 154.247 43.3767 154.283 43.3774L158.168 43.503C157.985 43.3555 157.907 43.1234 158.354 42.468C158.278 42.9639 158.367 43.5608 160.322 43.1714L160.124 43.5651C160.066 43.6829 159.968 43.7767 159.846 43.8282C159.055 44.164 157.811 44.0032 156.698 43.9855C156.836 44.2551 156.777 44.5768 156.432 44.9754H156.433Z" fill="white"/>
<path d="M134.345 13.4778L134.072 13.6485C133.999 13.6944 133.955 13.7741 133.955 13.8602L133.971 16.2477L133.432 14.1974C133.422 14.1572 133.362 14.1628 133.36 14.2045C133.3 15.109 133.318 15.9648 133.533 16.695C133.543 16.8834 133.755 16.9892 133.912 16.8855L134.061 16.7881C134.35 16.5983 134.522 16.2738 134.515 15.9281L134.466 13.542C134.464 13.4806 134.397 13.4446 134.345 13.4771V13.4778Z" fill="white"/>
<path d="M127.954 19.1404L128.444 19.3675C128.498 19.3929 128.543 19.4353 128.568 19.4896C128.972 20.368 128.9 21.5159 129.19 21.8319L128.717 21.705C128.633 21.6824 128.566 21.6175 128.538 21.5335C128.18 20.4272 128.422 19.7513 127.954 19.1389V19.1404Z" fill="white"/>
<path d="M131.452 24.8227C131.684 25.0068 131.933 25.0075 132.083 26.1519C131.596 25.0668 131.348 23.7305 131.202 22.2856C131.093 22.9319 131.036 23.6141 131.055 24.3472C131.062 24.575 131.1 24.8022 131.173 25.0181C131.401 25.6891 131.773 26.4877 132.179 27.3167C132.189 27.3372 132.208 27.3527 132.23 27.3584L132.642 27.4769C132.7 27.4938 132.754 27.4423 132.743 27.3838C132.495 26.1286 132.789 24.8206 131.452 24.8234V24.8227Z" fill="white"/>
<path d="M133.3 19.0649L132.796 18.8476C132.666 18.9816 132.319 20.4731 131.333 20.5027C132.474 21.1398 132.961 19.6864 133.3 19.0656V19.0649Z" fill="white"/>
<path d="M125.561 6.335L125.949 5.94626C125.871 5.77693 124.607 4.90983 124.94 3.98206C123.93 4.81035 125.106 5.79316 125.562 6.335H125.561Z" fill="white"/>
<path d="M131.24 8.46217C131.67 5.403 124.905 7.30581 125.499 4.1655L125.744 3.34991C128.055 4.09425 128.823 3.18623 130.57 3.12979L134.033 3.32522C129.997 3.79651 127.785 5.05729 125.915 4.3687C126.756 6.26163 132.82 4.47876 131.24 8.46147L131.24 8.46217Z" fill="white"/>
<path d="M133.004 5.02131C132.588 12.4519 146.271 7.63459 144.68 14.4077C143.749 9.5889 135.757 14.4077 135.679 10.0517C136.244 11.4226 138.209 11.2667 140.222 11.0585C137.114 10.3699 132.028 10.432 133.004 5.02202L133.004 5.02131Z" fill="white"/>
<path d="M153.832 2.82712C151.604 8.11717 165.64 8.96945 163.285 14.7957C163.184 10.7347 155.124 13.2471 155.978 8.08754C156.143 10.5251 158.915 10.54 161.317 11.4466C157.746 8.65549 151.304 7.1005 153.832 2.82712Z" fill="white"/>
<path d="M134.42 4.98251C134.561 2.22812 138.433 2.84546 137.844 5.84607C139.275 6.03868 139.608 4.78214 140.6 3.82685C140.6 3.82685 141.69 2.7735 142.138 3.96866L142.489 5.28165C143.654 8.04944 146.257 8.65055 148.068 9.64958C149.412 10.3911 149.994 11.4967 149.709 14.1353C149.808 8.4396 143.062 11.0388 141.963 4.75815C141.32 3.78664 140.404 4.78637 139.949 5.43405C140.436 5.47779 140.871 5.61396 140.992 6.31666C141.014 6.44225 141.01 6.57206 140.987 6.69765L140.859 7.38554C140.824 7.57321 140.744 7.75171 140.619 7.89564C139.766 8.87985 138.741 7.86459 138.53 6.73645C138.453 5.89969 138.523 4.93876 138.66 3.91927C138.269 6.72587 139.837 8.12634 140.797 6.89872C139.749 5.53846 138.73 7.22115 137.745 6.87756C137.675 6.85286 137.629 6.78584 137.635 6.71176L137.711 5.85242C137.541 3.77958 135.025 3.71397 134.534 5.1222C134.546 5.42135 134.622 5.69227 134.773 5.93003C135.009 6.58053 135.701 6.8451 136.639 6.90155C135.95 6.16074 134.575 7.21339 134.305 6.79007C134.278 6.74845 134.271 6.69694 134.276 6.64685L134.252 5.71696C134.741 6.28421 135.209 5.81009 135.775 5.71061C136.375 5.60549 137.084 5.80656 137.03 6.86204L136.837 7.9168C135.559 7.50195 134.082 7.32345 134.418 4.98321L134.42 4.98251Z" fill="white"/>
<path d="M136.662 14.407C137.322 10.8462 152.253 11.0359 152.957 4.63045C153.125 1.94591 150.266 3.10933 149.483 4.55002C149.565 3.95596 149.513 3.60038 149.379 3.39084C149.302 3.27019 149.137 3.24973 149.031 3.34639C148.472 3.85366 148.424 4.84987 148.017 5.24497C148.162 3.62578 147.2 3.37108 146.358 2.96822L146.177 4.33907L144.736 3.40847L144.611 3.79299C143.512 2.54208 142.672 5.35221 141.542 5.80304L141.436 6.73998C142.294 6.57206 143.505 3.59544 144.339 4.58247C144.428 4.68901 144.465 4.83011 144.45 4.9691C144.25 6.81618 145.65 6.51633 146.208 7.993C146.522 6.48246 145.986 6.63556 144.667 5.17865C144.626 4.91689 144.622 4.64809 144.667 4.3694C145.739 5.17865 146.592 5.25343 146.643 6.37169C147.119 4.81883 146.311 4.67419 146.346 3.96372C147.181 4.34824 148.126 4.60646 147.839 6.27292C148.502 5.88629 148.473 4.39269 149.101 4.19514C149.269 4.19514 149.307 4.37505 149.306 4.61069L149.253 5.64006C151.164 3.00068 152.733 4.02228 152.805 4.66855C150.625 10.4024 136.009 9.53246 136.661 14.4077L136.662 14.407Z" fill="white"/>
<path d="M149.419 9.36455L149.272 10.0997C149.26 10.1597 149.314 10.2126 149.373 10.1992C150.284 9.99247 150.791 8.98921 151.598 8.51227C152.355 8.06496 153.244 8.09601 153.636 8.77896C153.868 9.18393 153.836 9.68627 153.59 10.0835C153.328 10.5075 152.957 10.7622 152.253 11.0359C152.983 10.8116 153.564 10.6281 154.007 9.38077C154.585 7.64588 153.034 6.86415 151.775 7.61554C150.988 8.08542 150.398 9.23826 149.498 9.29752C149.459 9.30034 149.426 9.32715 149.418 9.36525L149.419 9.36455Z" fill="white"/>
<path d="M160.647 2.73328C157.596 7.60707 167.509 8.23993 163.893 13.0389C165.711 11.055 165.379 9.66016 164.396 8.45724C163.283 7.09415 160.6 5.80445 160.382 4.09213C160.886 4.54014 161.551 4.55989 162.068 4.25017C161.281 5.68662 161.068 6.93541 161.21 7.77428C160.284 6.91142 159.52 5.82985 159.858 4.55566C160.242 3.20175 159.819 2.48917 158.578 4.74121C159.014 3.38801 158.1 3.23985 157.321 2.82641C157.232 2.77914 157.121 2.81865 157.084 2.91178L156.697 3.86706L155.253 3.11356C155.12 3.04371 154.956 3.10792 154.905 3.24902L154.641 3.97642C154.621 4.03498 154.604 4.11964 154.589 4.2163C154.517 4.69183 154.667 5.1737 154.997 5.52506C155.364 5.91663 155.894 6.44859 156.407 6.84581C156.47 6.89519 156.564 6.8698 156.592 6.7943L156.836 6.16991C156.859 6.11065 156.84 6.04433 156.79 6.00552C156.449 5.74518 155.185 4.74333 154.916 3.98489C155.813 4.50416 156.9 4.62198 157.07 5.71061C157.075 5.74165 157.118 5.748 157.132 5.71978C157.76 4.49992 157.26 4.4463 157.069 3.75841C157.85 4.14786 158.57 4.23817 158.22 5.57374C158.209 5.61537 158.26 5.64782 158.291 5.61819C158.621 5.31763 158.881 4.60223 159.154 4.3313C159.424 4.06461 159.633 4.01311 159.663 4.42302C159.67 4.5225 159.655 4.62269 159.626 4.71864C158.241 9.43157 166.492 10.5089 165.218 13.8178C167.557 10.1442 160.841 9.57268 161.377 6.29761C161.424 6.01328 161.527 5.74095 161.666 5.48766L162.341 4.25934C162.498 3.97219 162.637 3.67516 162.756 3.37037L163.006 2.73116C161.955 3.79298 160.905 3.74077 160.645 2.73116L160.647 2.73328Z" fill="white"/>
<path d="M166.479 11.8212C166.565 10.1096 164.558 10.2719 165.175 8.59905L165.466 7.71643C166.294 8.11364 167.314 8.338 166.95 9.81749C167.754 8.9123 169.217 8.70911 168.803 10.4687C168.976 10.4377 169.162 10.2486 169.359 9.91415C169.628 7.46949 162.093 7.31851 163.204 3.87835L163.49 2.9788C164.696 4.37646 166.353 3.73513 168.017 5.4023L169.002 7.69879C166.595 4.57824 165.861 5.70567 163.413 4.02651C164.473 6.99679 170.637 6.56501 169.529 9.85348C169.334 10.7128 168.969 11.2151 168.446 11.4219L168.598 10.5851C168.448 9.44427 166.964 10.2817 166.567 10.8349C166.971 9.84078 166.632 9.1042 165.386 8.67948C165.866 9.76599 167.336 9.92826 166.479 11.8219V11.8212Z" fill="white"/>
<path d="M170.26 7.4441C171.805 4.97333 166.791 5.90816 167.866 3.72032C167.884 3.68504 167.909 3.65258 167.937 3.62436L168.595 2.96681C168.839 3.89176 171.776 2.06162 174.52 4.0752C171.294 3.17071 170.436 4.27204 168.448 3.95455C168.587 4.65232 169.688 4.8153 170.57 5.28094C171.351 5.69368 171.556 6.49728 170.26 7.44339L170.26 7.4441Z" fill="white"/>
<path d="M171.657 5.54622C171.145 7.5979 173.802 9.14442 172.376 10.3854C170.99 11.019 170.556 10.8984 169.922 11.5587C168.523 12.9973 168.653 15.3559 166.085 15.3891C169.665 17.1444 169.44 11.0451 173.024 11.9722C172.125 13.3007 171.881 15.0878 169.809 15.3143C169.188 14.493 170.169 13.1455 171.953 13.3995C172.992 13.6147 173.9 16.4396 170.599 16.441L169.828 16.3098C169.644 17.7095 172.062 17.4767 173.337 19.8134C174.06 21.1391 173.823 21.4989 174.341 23.3502C174.561 22.3449 174.551 21.331 174.341 20.3087C173.092 17.7321 170.834 18.0172 170.726 16.7183C174.875 17.2488 174.269 13.4996 172.125 13.3014C170.619 12.8604 169.646 13.0813 169.025 13.7388C168.437 14.5876 168.75 15.1993 169.855 15.4737C172.4 16.1602 173.031 13.3698 174.029 12.1429C173.115 11.6674 172.111 11.558 171.066 11.6222C171.881 10.873 173.083 11.2017 173.582 10.2267C173.975 8.54049 172.106 7.76299 172.557 5.81715L171.657 5.54763V5.54622Z" fill="white"/>
<path d="M168.325 16.4586L167.41 16.2681C167.419 17.2559 170.303 19.1178 169.333 19.7824C169.186 19.8833 169.002 19.9171 168.824 19.8917L168.275 19.8134C168.192 19.8014 168.133 19.8889 168.173 19.9623C168.492 20.5465 169.59 21.0114 170.144 21.7762C170.55 22.3371 170.45 22.9777 169.641 23.2303L168.939 23.1569C168.819 23.1442 168.727 23.2628 168.77 23.3756C169.092 24.2152 169.469 25.1599 169.089 25.6877C168.769 24.7726 170.19 24.0918 171.299 24.2032C172.284 24.64 173.492 25.8619 173.925 27.4677C174.238 28.6325 174.606 30.4048 174.711 32.7549C174.964 31.878 174.997 30.5276 174.932 28.967C174.923 28.7482 174.903 28.5302 174.862 28.3151C174.446 26.1117 173.069 24.3683 171.198 24.0628C169.583 23.6642 168.518 24.1609 168.01 25.5642C167.965 25.6877 168.041 25.8224 168.17 25.8506L168.75 25.9776C168.939 26.0193 169.133 26.0383 169.326 26.0235C171.043 25.8923 169.512 23.5556 169.732 23.4208C171.419 23.5817 171.604 22.7237 170.99 21.8595C170.556 21.2506 169.072 20.4625 169.067 20.0695C170.713 20.404 170.623 19.5608 170.028 18.7629C169.428 17.9586 168.336 17.1571 168.325 16.4586H168.325Z" fill="white"/>
<path d="M166.438 30.4098C169.015 31.5527 169.455 29.724 170.308 28.4696C170.481 29.0848 170.77 29.7162 170.334 30.2454C170.217 30.3879 170.055 30.4846 169.881 30.5495C167.079 31.5993 167.803 39.7594 164.661 40.2844C164.129 39.6684 162.905 37.2224 166.255 35.5862C165.818 35.5982 165.405 35.6533 165.018 35.7563C164.154 35.9877 163.442 36.6227 163.194 37.4806C162.765 38.9664 163.88 40.2187 164.769 40.5193C168.106 41.3998 168.202 33.6312 169.822 31.564C169.974 31.37 170.176 31.219 170.403 31.1231C170.966 30.8853 171.215 30.728 171.333 30.2842C171.583 29.3494 170.323 27.4204 172.005 25.7674C172.057 25.7166 172.042 25.6291 171.975 25.5988L171.165 25.2255C171.106 25.1987 171.036 25.2086 170.99 25.2538C169.296 26.9096 169.723 30.668 166.437 30.4098H166.438Z" fill="white"/>
<path d="M172.896 30.1064L171.959 29.8552C171.689 31.3777 173.303 31.9655 173.915 33.2326C174.554 34.5569 174.864 35.6123 174.978 36.6473C174.978 35.9566 175.026 34.9555 174.902 34.13C174.862 33.8633 174.664 33.2192 174.413 32.8798C173.577 31.7503 172.399 31.0116 172.896 30.1064Z" fill="white"/>
<path d="M172.46 32.781L171.503 32.5094C170.888 32.5637 171.92 33.7899 171.202 34.3389C171.289 33.6792 171.567 33.3003 172.159 33.3836C173.435 34.3078 174.264 36.7468 174.969 39.6049L174.797 36.6015C174.79 36.4745 174.765 36.3489 174.72 36.2297C174.149 34.7156 173.416 33.476 172.148 33.1324C170.65 32.7422 170.433 33.4908 170.27 34.2866C170.255 34.3558 170.296 34.4249 170.364 34.4454L170.812 34.5808C171.074 34.6599 171.348 34.693 171.619 34.6669C173.175 34.5145 171.515 32.9454 172.46 32.781Z" fill="white"/>
<path d="M172.754 36.3891L171.788 36.1076C171.099 36.1231 171.961 37.4799 171.344 38.1184C171.395 37.5208 171.429 36.9119 172.25 36.8922C173.617 38.141 174.373 40.647 174.697 44.0399V40.3725C174.697 40.1334 174.661 39.8956 174.587 39.6684C174.145 38.3025 173.553 37.1257 172.401 36.6615L171.434 36.4604C170.419 36.5817 170.158 37.9095 170.961 38.3004L171.585 38.4408C173.248 38.7117 171.787 36.3073 172.753 36.3898L172.754 36.3891Z" fill="white"/>
<path d="M172.531 39.4158L171.727 39.1541C171.686 39.1407 171.641 39.1647 171.631 39.2063C171.144 41.2164 173.126 42.2542 173.874 43.879C174.383 44.9867 174.396 46.0302 174.279 48.496C174.788 47.4095 174.985 45.6245 174.893 44.8407C174.628 42.5653 171.66 40.6682 172.564 39.533C172.597 39.492 172.58 39.4321 172.53 39.4158H172.531Z" fill="white"/>
<path d="M171.92 42.8038L171.305 42.4856C171.238 42.451 171.156 42.4856 171.135 42.5576C170.562 44.4131 172.354 45.5236 173.265 48.3902C173.395 48.7987 173.694 50.3515 173.823 52.3891C174.165 50.7706 174.104 49.96 174.002 48.7013C173.857 46.9333 171.333 44.6981 171.978 42.9484C171.998 42.8927 171.973 42.8306 171.92 42.8031V42.8038Z" fill="white"/>
<path d="M170.556 44.2106L169.65 43.8487C169.482 45.2562 171.127 46.4676 171.718 48.1383C172.214 49.5437 172.043 50.3113 171.14 50.5103C170.585 50.6323 170.023 50.4581 169.555 50.1364C168.619 49.4929 168 48.5729 168 48.5729C168 48.5729 168.752 49.8146 169.718 50.3911C170.193 50.6747 170.725 50.8595 171.276 50.9089C173.084 51.0712 173.11 49.6446 172.484 48.182C171.78 46.5396 170.318 45.5455 170.557 44.2099L170.556 44.2106Z" fill="white"/>
<path d="M173.734 40.544C171.231 39.0334 167.998 48.5736 163.058 44.3531C166.967 46.7505 166.61 38.9989 170.113 41.4464C168.68 41.0583 167.881 42.6352 166.82 44.3545C169.334 42.7699 171.458 38.7766 173.734 40.544H173.734Z" fill="white"/>
<path d="M140.55 8.52708L140.458 9.39629L141.497 9.61007L141.581 8.70276L140.55 8.52708Z" fill="white"/>
<path d="M137.287 7.94008L137.195 8.80929L138.234 9.02236L138.318 8.11505L137.287 7.94008Z" fill="white"/>
<path d="M141.854 7.0229L141.402 7.77146L142.253 8.40362L142.714 7.61766L141.854 7.0229Z" fill="white"/>
<path d="M148.815 5.74024L148.348 6.47964L149.186 7.12943L149.663 6.35264L148.815 5.74024Z" fill="white"/>
<path d="M151.868 9.01672L151.401 9.75612L152.238 10.4059L152.715 9.62912L151.868 9.01672Z" fill="white"/>
<path d="M150.09 5.34656L149.623 6.08595L150.461 6.73645L150.938 5.95896L150.09 5.34656Z" fill="white"/>
<path d="M165.775 2.73291L165.13 3.37697L165.869 4.11432L166.514 3.47026L165.775 2.73291Z" fill="white"/>
<path d="M167.125 2.82367L166.48 3.46773L167.218 4.20508L167.863 3.56102L167.125 2.82367Z" fill="white"/>
<path d="M173.672 5.75101L172.927 6.49485L173.665 7.2322L174.411 6.48836L173.672 5.75101Z" fill="white"/>
<path d="M171.974 20.5978L171.229 21.3417L171.967 22.079L172.712 21.3352L171.974 20.5978Z" fill="white"/>
<path d="M174.422 24.6006L174.034 24.9872L174.418 25.3703L174.805 24.9837L174.422 24.6006Z" fill="white"/>
<path d="M174.417 23.7718L174.029 24.1585L174.413 24.5416L174.8 24.155L174.417 23.7718Z" fill="white"/>
<path d="M171.822 19.142L171.077 19.8858L171.815 20.6232L172.56 19.8794L171.822 19.142Z" fill="white"/>
<path d="M166.492 16.448L165.747 17.1918L166.485 17.9292L167.23 17.1853L166.492 16.448Z" fill="white"/>
<path d="M172.078 28.2742L171.702 29.1042L172.654 29.5338L173.029 28.7038L172.078 28.2742Z" fill="white"/>
<path d="M171.544 26.877L171.168 27.7069L172.12 28.1366L172.496 27.3066L171.544 26.877Z" fill="white"/>
<path d="M170.154 38.4723L169.533 39.1393L170.298 39.8494L170.919 39.1824L170.154 38.4723Z" fill="white"/>
<path d="M169.798 47.7935L169.141 48.4256L169.866 49.1764L170.522 48.5444L169.798 47.7935Z" fill="white"/>
<path d="M169.862 46.4479L169.205 47.0799L169.93 47.8308L170.587 47.1987L169.862 46.4479Z" fill="white"/>
<path d="M172.651 27.3687L172.275 28.1986L173.227 28.6282L173.603 27.7983L172.651 27.3687Z" fill="white"/>
<path d="M163.755 45.7127C163.217 45.0714 162.654 45.1292 162.476 45.4933C163.785 46.8698 166.944 45.4516 167.578 48.0177C167.719 48.6308 167.705 49.2417 167.366 49.8464L167.156 49.1225C166.808 48.0374 165.554 47.6451 164.179 47.3446C164.306 47.4779 164.396 47.7333 164.463 48.0649C164.463 48.0649 164.083 47.353 163.374 47.3262L163.271 46.7152C164.923 47.0581 166.773 47.0885 167.292 49.2036C167.427 48.9997 167.494 48.5976 167.514 48.0557C166.265 45.8284 163.038 47.6317 162.368 45.5427C162.066 44.6339 163.273 44.109 163.756 45.7127H163.755Z" fill="white"/>
<path d="M167.342 28.8971L166.772 28.6855C167.533 27.9157 168.386 27.455 169.485 27.8191C169.104 27.3386 168.696 26.9675 168.232 26.705C166.277 25.5797 166.084 28.1034 164.459 28.1351C164.362 27.5023 164.811 26.911 165.794 27.0761L164.713 26.8356C164.047 26.9661 163.449 27.7951 164.355 28.2381C166.143 28.9924 166.675 26.1872 168.159 26.7735C168.494 27.0225 168.789 27.273 168.923 27.5263C167.303 27.1171 166.406 28.296 165.439 29.3204L166.039 29.6273C166.428 29.077 166.858 28.7969 167.342 28.8964L167.342 28.8971Z" fill="white"/>
<path d="M167.807 22.9573L167.294 22.7668C167.978 22.0732 168.747 21.6591 169.736 21.9872C169.392 21.5547 169.025 21.2203 168.607 20.9846C166.847 19.9715 166.673 22.2433 165.21 22.2722C165.123 21.7028 165.528 21.1702 166.413 21.319L165.44 21.1024C164.841 21.2195 164.302 21.966 165.118 22.3653C166.728 23.0448 167.207 20.519 168.542 21.0467C168.844 21.2711 169.11 21.4961 169.231 21.7247C167.771 21.3564 166.964 22.4175 166.094 23.3397L166.634 23.6162C166.984 23.1209 167.371 22.8684 167.807 22.958V22.9573Z" fill="white"/>
<path d="M148.504 11.8021L148.17 12.5479C147.435 11.9094 146.902 11.0924 147.167 10.0856C145.14 12.4541 146.955 13.0142 147.184 13.8291C146.319 14.3625 145.294 13.5441 145.658 12.284L145.491 13.0206C145.343 13.6753 145.766 14.3399 146.43 14.4451C146.767 14.4987 147.091 14.3957 147.23 14.0605C147.861 12.8717 146.582 12.6925 146.417 11.7887C146.377 11.5714 146.428 11.3478 146.544 11.1594C146.645 10.9957 146.787 10.8095 146.914 10.7319C146.734 11.9334 147.873 12.9712 148.782 13.7247L148.999 13.1822C148.482 12.864 148.325 12.2558 148.502 11.8036L148.504 11.8021Z" fill="white"/>
<path d="M167.945 12.4668L167.386 12.3447C167.386 12.3447 167.683 11.7859 168.239 11.9997C168.794 12.2135 168.903 12.2353 168.724 12.6064C168.545 12.9776 167.661 12.9077 167.661 12.9077C167.661 12.9077 167.049 12.8379 166.813 13.5102C166.577 14.1826 166.159 15.3982 164.256 14.8479C164.256 14.8479 165.655 15.2388 166.276 13.3162C166.507 12.6008 167.295 12.7313 167.295 12.7313C167.295 12.7313 168.374 12.8054 168.223 12.1641L167.945 12.4668Z" fill="white"/>
<path d="M171.179 8.16162C171.734 8.37539 172.336 8.80083 172.156 9.17194C171.999 9.4986 171.626 9.20862 171.539 9.13384C171.522 9.11973 171.503 9.10844 171.482 9.10279C171.387 9.0774 171.143 9.0774 171.029 9.6905C170.877 10.5026 170.465 10.5816 169.667 10.3078C169.667 10.3078 170.267 10.547 170.468 9.53317C170.649 8.6181 171.294 8.85798 171.478 8.94758C171.52 8.96804 171.571 8.95746 171.601 8.92077C171.672 8.83469 171.704 8.62515 171.178 8.16091L171.179 8.16162Z" fill="white"/>
<path d="M131.049 4.65655C131.564 4.35952 132.274 4.15845 132.45 4.53097C132.606 4.85833 132.146 4.96557 132.033 4.98674C132.011 4.99097 131.991 4.99873 131.972 5.01214C131.893 5.06999 131.739 5.25978 132.146 5.73389C132.685 6.36111 132.487 6.73151 131.773 7.18023C131.773 7.18023 132.337 6.86345 131.672 6.07114C131.072 5.35573 131.664 5.00508 131.849 4.9183C131.892 4.89855 131.915 4.85198 131.906 4.80612C131.884 4.69677 131.74 4.54014 131.049 4.65796V4.65655Z" fill="white"/>
<path d="M122.958 3.03666C123.474 2.73963 124.183 2.53856 124.359 2.91108C124.515 3.23844 124.055 3.34568 123.942 3.36685C123.921 3.37108 123.9 3.37884 123.882 3.39225C123.802 3.4501 123.648 3.63989 124.055 4.114C124.594 4.74122 124.396 5.11162 123.682 5.56034C123.682 5.56034 124.246 5.24355 123.581 4.45124C122.981 3.73584 123.573 3.38519 123.759 3.29841C123.801 3.27866 123.824 3.23209 123.815 3.18623C123.793 3.07687 123.649 2.92025 122.958 3.03807V3.03666Z" fill="white"/>
<path d="M172.233 34.7149C172.535 35.1227 172.742 35.6956 172.372 35.8607C172.046 36.006 171.935 35.6335 171.913 35.5418C171.909 35.5241 171.901 35.5072 171.888 35.4931C171.829 35.4303 171.638 35.3146 171.169 35.6744C170.548 36.1507 170.176 36.0074 169.722 35.4437C169.722 35.4437 170.043 35.8903 170.828 35.3019C171.537 34.7706 171.892 35.2384 171.98 35.3866C172.001 35.4204 172.048 35.4374 172.094 35.4275C172.202 35.4035 172.357 35.2772 172.233 34.7142V34.7149Z" fill="white"/>
<path d="M171.304 5.38113C171.311 5.39383 171.327 5.39806 171.339 5.3903C171.418 5.34162 171.681 5.18711 171.677 5.17864C171.661 5.15113 171.645 5.12361 171.629 5.09539C171.706 5.05306 171.787 5.01426 171.853 4.95852C172.304 4.5733 171.858 3.93974 171.858 3.93974C171.858 3.93974 171.616 4.09918 171.526 4.15774C171.504 4.17256 171.483 4.18879 171.463 4.20713C170.926 4.71229 171.106 5.02907 171.303 5.38043L171.304 5.38113ZM171.611 5.06364C171.49 4.84775 171.388 4.62057 171.546 4.32425C171.65 4.5599 171.819 4.79343 171.611 5.06364Z" fill="white"/>
<path d="M150.85 12.3489C150.863 12.356 150.878 12.3518 150.885 12.3391C150.926 12.2565 151.071 11.9884 151.063 11.9842C151.036 11.9687 151.008 11.9531 150.98 11.9376C151.024 11.8614 151.073 11.7866 151.1 11.7048C151.287 11.1418 150.576 10.8299 150.576 10.8299C150.576 10.8299 150.452 11.091 150.405 11.1883C150.394 11.2123 150.384 11.237 150.377 11.2624C150.179 11.9722 150.498 12.15 150.849 12.3489H150.85ZM150.948 11.9186C150.732 11.7965 150.526 11.6547 150.509 11.3203C150.721 11.4677 150.986 11.5799 150.948 11.9186Z" fill="white"/>
<path d="M174.274 4.55778C174.58 5.46156 173.204 5.51024 172.575 4.84563C172.519 4.78637 173 5.46721 173.727 5.55328C174.455 5.63935 174.641 5.20193 174.512 4.81812C174.496 4.77297 174.339 4.62551 174.31 4.59447C174.301 4.58529 174.278 4.56836 174.274 4.55707L174.274 4.55778Z" fill="white"/>
<path d="M173.316 3.20598C173.316 3.20598 173.746 3.51571 174.571 2.96893C174.422 3.74924 174.761 3.73513 174.945 3.75771C174.999 3.76476 175.069 3.75982 175.12 3.77746C174.728 3.64059 174.922 3.08111 174.962 2.78831C174.941 2.78549 174.611 2.74457 174.611 2.74457C174.056 3.15589 173.316 3.20528 173.315 3.20528L173.316 3.20598Z" fill="white"/>
<path d="M156.862 12.8837C156.909 11.1404 153.925 11.0832 154.492 8.49886C154.534 10.6352 157.453 10.6747 156.862 12.8837Z" fill="white"/>
<path d="M164.796 42.7015C166.536 42.5533 166.26 39.5866 168.896 39.861C166.774 40.1404 167.06 43.0416 164.796 42.7015Z" fill="white"/>
<path d="M160.719 12.5394C160.554 13.0665 160.778 13.4545 161.319 13.7289C161.381 13.76 161.404 13.8362 161.369 13.8954L161.199 14.1861C161.119 14.3223 160.962 14.3957 160.808 14.3632C160.154 14.2256 158.382 13.8468 156.998 13.7558C154.895 13.6168 149.87 15.1555 150.554 13.4891C150.83 12.1239 154.359 12.2607 155.335 12.3419C154.691 12.5528 151.273 12.7652 150.777 13.4171C151.131 14.6207 154.668 12.3172 160.366 13.6535C160.271 13.2301 160.457 12.8753 160.719 12.5394Z" fill="white"/>
<path d="M165.181 25.6792C164.647 25.5346 164.268 25.7744 164.015 26.3248C163.986 26.3875 163.911 26.4129 163.85 26.3812L163.552 26.2232C163.413 26.1491 163.333 25.9946 163.359 25.8394C163.471 25.1818 163.779 23.3996 163.815 22.0147C163.871 19.9115 162.335 14.3428 164.03 14.9587C164.853 15.267 164.989 16.1066 164.945 17.0837C164.709 16.4495 164.444 15.8074 164.052 15.1294C162.862 15.5295 165.162 19.6335 164.052 25.3709C164.472 25.2587 164.834 25.4309 165.181 25.6792Z" fill="white"/>
<path d="M165.152 35.3005C164.618 35.1559 164.239 35.3957 163.986 35.9461C163.957 36.0088 163.882 36.0342 163.821 36.0025L163.523 35.8445C163.384 35.7704 163.304 35.6159 163.33 35.4606C163.442 34.8031 163.75 33.0209 163.786 31.636C163.842 29.5328 162.514 28.1429 164.209 28.7588C165.032 29.0671 164.905 30.3173 164.862 31.2945C164.625 30.6602 164.365 29.597 163.973 28.9183C163.467 29.8623 164.917 30.4373 164.022 34.9922C164.442 34.88 164.805 35.0521 165.152 35.3005H165.152Z" fill="white"/>
<path d="M158.149 7.81168C158.274 7.47514 158.383 7.15553 158.416 6.91424C158.421 6.8832 158.414 6.85075 158.397 6.82394C158.267 6.61369 158.04 6.71458 157.763 6.9728L157.903 6.44366C157.916 6.39356 157.942 6.347 157.978 6.30961C158.445 5.82138 158.706 6.18261 158.558 6.71176C158.469 7.06805 158.323 7.43704 158.149 7.81168H158.149Z" fill="white"/>
<path d="M145.266 12.3821C145.391 12.0456 145.5 11.726 145.534 11.4847C145.538 11.4536 145.531 11.4212 145.514 11.3944C145.385 11.1841 145.157 11.285 144.88 11.5432L145.02 11.0141C145.033 10.964 145.059 10.9174 145.095 10.88C145.562 10.3918 145.823 10.753 145.675 11.2822C145.586 11.6385 145.44 12.0075 145.266 12.3821H145.266Z" fill="white"/>
<path d="M142.505 4.58106C142.629 4.24452 142.739 3.92492 142.772 3.68363C142.776 3.65258 142.769 3.62013 142.752 3.59332C142.623 3.38307 142.395 3.48396 142.118 3.74219L142.258 3.21304C142.272 3.16295 142.298 3.11638 142.334 3.07899C142.8 2.59076 143.062 2.95199 142.913 3.48114C142.824 3.83743 142.679 4.20643 142.504 4.58106H142.505Z" fill="white"/>
<path d="M169.874 8.71052C170.187 8.53414 170.477 8.36058 170.659 8.19831C170.682 8.17714 170.698 8.14821 170.703 8.11646C170.74 7.87235 170.501 7.8025 170.123 7.82085L170.572 7.50759C170.614 7.47796 170.665 7.45962 170.716 7.45397C171.388 7.38271 171.354 7.8272 170.898 8.13481C170.599 8.34929 170.249 8.53625 169.874 8.70981V8.71052Z" fill="white"/>
<path d="M172.335 17.3554C172.771 17.5423 173.187 17.7081 173.504 17.7681C173.545 17.7759 173.588 17.7681 173.625 17.7483C173.911 17.5917 173.934 17.33 173.611 16.9483L174.161 17.124C174.226 17.1451 174.286 17.1825 174.332 17.2326C174.946 17.8803 174.451 18.1999 173.761 17.9692C173.296 17.8281 172.819 17.6108 172.335 17.3561V17.3554Z" fill="white"/>
<path d="M165.664 18.7488C166.1 18.9357 166.516 19.1015 166.833 19.1615C166.874 19.1693 166.917 19.1615 166.954 19.1418C167.24 18.9851 167.263 18.7234 166.94 18.3417L167.489 18.5174C167.555 18.5385 167.615 18.5759 167.661 18.626C168.275 19.2737 167.78 19.5933 167.09 19.3626C166.625 19.2215 166.147 19.0042 165.664 18.7495V18.7488Z" fill="white"/>
<path d="M133.178 6.05632C133.423 5.65064 133.645 5.2619 133.748 4.95711C133.762 4.9176 133.76 4.87385 133.745 4.83505C133.63 4.53026 133.373 4.4717 132.95 4.73839L133.199 4.21912C133.229 4.15704 133.274 4.10412 133.33 4.06391C134.057 3.54534 134.306 4.07943 133.982 4.72993C133.778 5.17088 133.497 5.61325 133.178 6.05632Z" fill="white"/>
<path d="M165.016 24.8819C165.452 25.0689 165.868 25.2347 166.185 25.2947C166.226 25.3024 166.269 25.2947 166.306 25.2749C166.592 25.1183 166.615 24.8565 166.292 24.4749L166.841 24.6505C166.907 24.6717 166.967 24.7091 167.013 24.7592C167.627 25.4069 167.132 25.7265 166.442 25.4958C165.977 25.3546 165.499 25.1373 165.016 24.8826V24.8819Z" fill="white"/>
<path d="M167.587 39.0793C167.938 39.1209 168.27 39.152 168.51 39.128C168.541 39.1252 168.57 39.1103 168.592 39.0885C168.764 38.9163 168.725 38.7244 168.413 38.5191L168.843 38.529C168.894 38.5304 168.945 38.5445 168.988 38.5699C169.564 38.9036 169.277 39.2366 168.736 39.2169C168.374 39.2141 167.986 39.159 167.587 39.0793Z" fill="white"/>
<path d="M147.843 8.13693L148.086 7.65787C148.011 7.56263 147.107 6.91142 147.462 5.95684C146.462 7.30864 147.843 8.13693 147.843 8.13693Z" fill="white"/>
<path d="M174.315 9.47038C173.955 9.3335 173.722 8.98356 173.731 8.59905C173.744 8.03321 173.803 7.60143 173.942 7.40035C173.997 7.32133 174.101 7.29241 174.19 7.32839L174.658 7.51747C174.718 7.54146 174.763 7.59226 174.781 7.65505L174.839 7.86389C174.875 7.993 174.898 8.12493 174.908 8.25828C174.948 8.78884 174.913 9.48307 174.785 10.0602C174.781 10.0771 174.756 10.0764 174.752 10.0602L174.347 8.14116C174.247 8.63432 174.221 9.08657 174.315 9.47179L174.315 9.47038Z" fill="white"/>
<path d="M174.33 14.3378C174.052 14.2242 173.877 13.9477 173.891 13.6478C173.912 13.2076 173.966 12.8717 174.079 12.7179C174.123 12.6572 174.204 12.6368 174.274 12.6664L174.635 12.8223C174.681 12.8421 174.715 12.883 174.728 12.9317L174.769 13.0954C174.794 13.1963 174.81 13.3 174.816 13.4037C174.837 13.8178 174.796 14.3583 174.686 14.8056C174.682 14.819 174.663 14.8176 174.66 14.8042L174.381 13.3007C174.294 13.6831 174.264 14.0351 174.331 14.3371L174.33 14.3378Z" fill="white"/>
<path d="M137.585 3.46915C138.919 3.32099 139.959 3.04724 140.089 3.77676C139.902 2.73046 140.203 2.62181 137.534 2.91883C137.534 2.91883 137.577 3.46985 137.585 3.46915Z" fill="white"/>
<path d="M136.516 13.8193C135.396 13.9336 134.531 14.1579 134.382 13.5314C134.597 14.4295 134.348 14.5206 136.59 14.2913C136.59 14.2913 136.523 13.8185 136.516 13.8193Z" fill="white"/>
<path d="M171.997 22.2362L172.353 22.4775C172.381 22.4966 172.404 22.522 172.42 22.5523C172.615 22.9361 172.778 23.6459 173.226 24.0755C173.817 24.2625 173.051 22.2757 173.22 20.8287C173.595 21.8552 173.846 23.0208 173.907 24.1538C173.918 24.3655 173.681 24.4981 173.505 24.3796L173.294 24.2364C172.312 23.5421 172.299 22.9276 171.963 22.2673C171.951 22.2454 171.976 22.2235 171.997 22.2369V22.2362Z" fill="white"/>
<path d="M141.455 12.4929C141.344 13.5222 142.644 13.4764 143.777 13.5582C143.84 13.5624 143.879 13.6302 143.852 13.6873L143.69 14.038C143.674 14.0711 143.64 14.0916 143.604 14.0909L139.719 13.9653C139.903 14.1128 139.981 14.3449 139.533 15.0003C139.61 14.5043 139.52 13.9074 137.566 14.2969L137.763 13.9032C137.822 13.7854 137.92 13.6916 138.041 13.6401C138.833 13.3042 140.076 13.4651 141.189 13.4827C141.052 13.2132 141.111 12.8915 141.455 12.4929H141.455Z" fill="white"/>
<path d="M163.543 43.9912L163.815 43.8205C163.888 43.7746 163.933 43.6949 163.932 43.6088L163.917 41.2213L164.455 43.2716C164.466 43.3118 164.525 43.3061 164.528 43.2645C164.587 42.36 164.57 41.5042 164.355 40.774C164.344 40.5856 164.133 40.4798 163.975 40.5835L163.826 40.6809C163.537 40.8706 163.365 41.1952 163.372 41.5409L163.422 43.927C163.423 43.9884 163.49 44.0244 163.543 43.9919V43.9912Z" fill="white"/>
<path d="M169.933 38.3279L169.443 38.1007C169.388 38.0753 169.344 38.033 169.318 37.9787C168.915 37.1003 168.987 35.9524 168.697 35.6363L169.169 35.7633C169.254 35.7859 169.321 35.8508 169.349 35.9348C169.707 37.041 169.465 37.7169 169.933 38.3293V38.3279Z" fill="white"/>
<path d="M166.436 32.6463C166.203 32.4621 165.955 32.4614 165.805 31.3171C166.291 32.4022 166.54 33.7385 166.685 35.1834C166.795 34.5371 166.851 33.8549 166.832 33.1218C166.826 32.8939 166.787 32.6668 166.714 32.4509C166.487 31.7799 166.114 30.9812 165.708 30.1522C165.698 30.1318 165.68 30.1163 165.658 30.1106L165.245 29.9921C165.187 29.9752 165.133 30.0267 165.145 30.0852C165.392 31.3404 165.098 32.6484 166.436 32.6456V32.6463Z" fill="white"/>
<path d="M164.587 38.4041L165.091 38.6214C165.22 38.4874 165.567 36.9959 166.554 36.9662C165.413 36.3292 164.926 37.7825 164.587 38.4034V38.4041Z" fill="white"/>
<path d="M172.582 51.0451L172.136 51.3647C172.185 51.5446 173.288 52.6078 172.807 53.4679C173.94 52.8174 172.941 51.6539 172.582 51.0451Z" fill="white"/>
</g>
<rect x="136.838" y="16.5956" width="24.09" height="24.09" fill="white"/>
<rect x="136.838" y="16.5956" width="24.09" height="24.09" stroke="#C59714" stroke-width="0.850237"/>
<g clip-path="url(#clip3_673_2497)">
<path d="M158.964 27.2757L158.872 26.6336C157.323 25.5094 154.201 27.2192 154.606 22.945L154.635 21.306C157.455 22.2409 159.361 23.4168 158.847 26.4084C158.495 24.5856 156.758 23.7319 154.727 23.0835C155.309 25.5937 159.917 22.7772 159.157 27.4849L159.106 28.6307C157.624 31.1855 153.009 30.4471 153.349 26.9614C152.483 27.4507 151.874 28.6092 151.153 29.0969C150.136 29.7859 149.242 29.5568 149.388 27.0776L149.463 25.4083C151.963 25.1696 152.638 26.4896 152.497 28.5057C152.23 32.0288 150.655 34.7945 147.292 36.5274C145.869 37.1583 144.26 37.3357 142.601 37.3891C146.574 35.4771 150.9 34.0625 152.301 28.5376C151.952 27.3895 150.905 27.0593 149.523 27.1182C150.649 29.182 152.575 25.2253 153.526 25.2237L153.531 26.562C154.006 28.7031 157.363 29.1295 158.966 27.2749L158.964 27.2757Z" fill="#5064BA"/>
<path d="M155.523 21.0641L156.907 20.0441L155.484 18.4234L154.121 19.453L155.523 21.0641Z" fill="#5064BA"/>
<path d="M139.431 20.7634L140.794 19.7227L139.546 18.2754L138.2 19.3241L139.431 20.7634Z" fill="#5064BA"/>
<path d="M139.438 23.206L140.8 22.1661L139.552 20.7188L138.208 21.7667L139.438 23.206Z" fill="#5064BA"/>
<path d="M158.239 32.0654L159.384 31.1902L158.335 29.9737L157.205 30.8553L158.239 32.0654Z" fill="#5064BA"/>
<path d="M156.475 19.4084L157.958 21.0689L159.311 20.0394L157.814 18.3741L156.475 19.4084Z" fill="#5064BA"/>
<path d="M156.398 30.5298L155.624 31.5833C155.583 31.639 155.583 31.7146 155.622 31.771C156.045 32.371 157.045 33.7808 155.684 35.4015C155.224 33.7745 153.966 32.6423 154.731 31.1433C151.767 33.7275 154.866 35.2647 154.643 37.3278C153.402 35.0896 152.078 34.3935 152.696 32.99C150.099 35.4684 152.372 36.0786 151.654 37.6707C150.9 36.774 150.42 35.7715 150.894 34.399L150.18 35.2536C150.128 35.3156 150.063 35.3641 149.989 35.3976C148.842 35.9131 147.712 34.9966 147.377 33.5C149.854 29.8002 146.159 21.5741 152.436 18.2699C143.117 20.5804 149.751 32.8006 144.392 35.2814C145.975 33.5692 144.033 31.4464 145.691 30.0095L146.238 29.7175C146.383 29.6403 146.485 29.5011 146.512 29.3404C146.96 26.7044 145.036 25.3924 143.697 25.5221L141.941 26.2589C138.656 28.0443 142.119 34.3815 140.566 37.5689C140.629 35.9776 139.65 33.3814 139.654 29.9045C139.657 26.7347 139.561 23.8147 141.238 22.3515C137.953 23.5219 138.26 25.7982 138.23 28.6124C138.16 35.0077 139.643 37.584 138.698 39.0145L140.504 38.2364C144.823 36.7072 140.486 28.3967 142.822 26.2111C144.522 26.8564 145.488 28.5638 144.884 30.1662C142.033 31.2117 144.483 34.3123 142.758 35.9322L144.392 35.5042L146.305 34.621C147.022 36.7748 148.42 37.697 149.754 36.0667C149.472 37.1989 149.867 38.1584 150.674 39.0121C150.704 39.0448 150.758 39.0424 150.786 39.0066L152.466 36.8695L153.581 38.6652C153.671 38.8109 153.881 38.822 153.986 38.6867L154.864 37.5577C155.555 36.6905 155.723 36.0858 155.708 35.5718C158.303 32.2182 157.428 31.8649 156.671 30.5474C156.612 30.4447 156.467 30.436 156.398 30.5306V30.5298Z" fill="#5064BA"/>
<path d="M159.095 37.759C158.384 38.2961 157.139 38.4178 157.133 37.3835L157.913 36.4749C159.352 34.6337 157.297 34.6998 158.114 32.6773C156.383 35.1247 158.156 35.0817 157.76 36.4208L156.913 37.4447C155.853 39.0408 157.583 39.48 158.589 38.5777L159.095 37.7598V37.759Z" fill="#5064BA"/>
<path d="M145.985 37.6484L145.709 38.1767C146.608 37.9102 147.389 37.8991 147.98 38.2953C146.54 38.6183 143.941 38.8618 141.235 39.0981C144.403 39.1466 145.74 39.5842 147.846 39.1029C148.134 39.0368 148.363 38.8188 148.504 38.561L148.809 38.0041C148.917 37.8068 148.85 37.5601 148.657 37.4439C148.089 37.1026 147.431 36.9745 146.638 37.1472C146.356 37.2084 146.118 37.3946 145.986 37.6484H145.985Z" fill="#5064BA"/>
<path d="M141.455 21.9417L142.518 20.6281C142.973 22.1303 142.52 23.2418 141.988 24.3191C141.915 24.4663 141.808 24.5944 141.677 24.6938L141.008 25.1959C140.916 25.2651 140.834 25.3479 140.767 25.4417L140.245 26.1658C142.467 24.6127 144.153 25.2572 145.212 23.79C146.809 21.9887 145.611 20.7777 146.058 19.0639C147.65 18.639 148.05 19.7792 146.685 21.2034C149.763 18.4688 147.412 17.3262 146.1 18.7727C144.387 20.5406 146.075 22.334 145.107 23.6229C144.313 24.3135 142.587 24.2777 141.877 24.7758C144.092 21.6569 143.362 20.0648 142.698 18.4377C142.667 18.3614 142.566 18.3462 142.513 18.4091L141.932 19.1045C141.911 19.1307 141.902 19.1657 141.91 19.1992C142.1 19.9845 142.28 20.7729 141.454 21.9417H141.455Z" fill="#5064BA"/>
<path d="M151.064 23.5879L151.394 22.657C151.394 22.657 152.41 23.8282 152.355 24.9771C152.351 25.0638 152.331 25.1497 152.297 25.2301L152.023 25.8762C152.005 25.9167 152.053 25.9549 152.089 25.9287C152.306 25.7695 152.773 25.3534 153.187 24.4894C154.703 21.8073 152.33 20.3855 152.558 19.2294C152.558 19.2294 153.707 18.8252 153.31 21.1127C153.31 21.1127 153.398 21.0172 153.506 20.835C153.788 20.3616 153.892 19.8054 153.821 19.2596C153.739 18.6279 153.513 17.7845 152.883 18.3733C152.76 18.4887 152.662 18.6279 152.584 18.7783C152.417 19.1005 152.095 19.7728 152.084 20.1714C152.049 21.4938 153.685 22.4804 153.089 24.3461L152.634 24.8466C153.345 23.2179 151.647 21.3243 150.772 20.4929C150.729 20.4523 150.659 20.4595 150.627 20.5088C150.418 20.8246 150.243 21.158 150.107 21.5121C150.092 21.5503 150.104 21.594 150.136 21.6195C150.759 22.1223 151.12 22.7533 151.064 23.5887V23.5879Z" fill="#5064BA"/>
</g>
</g>
<rect x="121.392" y="1.43303" width="54.6986" height="54.6986" stroke="#C59714" stroke-width="1.13365"/>
<defs>
<clipPath id="clip0_673_2497">
<rect width="111.112" height="47.582" fill="white" transform="translate(0 5.02627)"/>
</clipPath>
<clipPath id="clip1_673_2497">
<rect x="121.959" y="1.99985" width="53.5649" height="53.5649" fill="white"/>
</clipPath>
<clipPath id="clip2_673_2497">
<rect width="52.3544" height="52.0518" fill="white" transform="translate(122.766 2.70859)"/>
</clipPath>
<clipPath id="clip3_673_2497">
<rect width="21.1839" height="21.1839" fill="white" transform="translate(138.2 18.1426)"/>
</clipPath>
</defs>
</svg>
