<svg width="148" height="17" viewBox="0 0 148 17" fill="none" xmlns="http://www.w3.org/2000/svg">
<path d="M144.493 11.9559C143.683 11.9559 143.003 11.8407 142.451 11.6104C141.9 11.3801 141.45 11.0835 141.101 10.7205C140.759 10.3506 140.508 9.93184 140.347 9.46421C140.193 8.9896 140.117 8.51151 140.117 8.02992C140.117 7.41573 140.214 6.83294 140.41 6.28156C140.612 5.73018 140.895 5.2451 141.258 4.82633C141.628 4.40756 142.067 4.07953 142.577 3.84222C143.086 3.59794 143.645 3.4758 144.252 3.4758C144.824 3.4758 145.341 3.57351 145.802 3.76894C146.269 3.95739 146.663 4.22261 146.985 4.5646C147.313 4.9066 147.564 5.31839 147.738 5.79997C147.913 6.27458 148 6.79804 148 7.37036V11.6628C148 12.4794 147.878 13.1773 147.634 13.7566C147.389 14.3429 147.04 14.814 146.587 15.17C146.14 15.5259 145.606 15.7876 144.985 15.9551C144.371 16.1227 143.694 16.2064 142.954 16.2064C142.675 16.2064 142.371 16.1959 142.043 16.175C141.715 16.161 141.345 16.1227 140.933 16.0598L141.09 13.8718C141.474 13.9206 141.837 13.959 142.179 13.9869C142.521 14.0148 142.811 14.0288 143.048 14.0288C143.418 14.0288 143.763 14.0009 144.085 13.945C144.406 13.8962 144.692 13.795 144.943 13.6414C145.194 13.4949 145.397 13.289 145.55 13.0238C145.704 12.7585 145.795 12.4026 145.822 11.9559H144.493ZM145.802 9.68407V7.94617C145.802 7.20634 145.655 6.63751 145.362 6.23968C145.069 5.84185 144.66 5.64293 144.137 5.64293C143.907 5.64293 143.683 5.69179 143.467 5.7895C143.25 5.88722 143.055 6.02681 142.881 6.20827C142.706 6.38276 142.567 6.59215 142.462 6.83643C142.357 7.08071 142.305 7.35989 142.305 7.67397C142.305 8.04388 142.361 8.35796 142.472 8.6162C142.591 8.86746 142.748 9.07336 142.943 9.23389C143.146 9.39442 143.376 9.50958 143.634 9.57937C143.9 9.64917 144.168 9.68407 144.441 9.68407H145.802Z" fill="#C59714"/>
<path d="M136.668 11.6418C136.668 12.2281 136.591 12.776 136.438 13.2855C136.284 13.795 136.051 14.2382 135.736 14.6151C135.422 14.992 135.038 15.2886 134.585 15.505C134.131 15.7214 133.604 15.8295 133.004 15.8295C132.753 15.8295 132.522 15.8191 132.313 15.7981C132.111 15.7772 131.929 15.7528 131.769 15.7248C131.678 15.7109 131.591 15.6969 131.507 15.683C131.423 15.669 131.336 15.6516 131.245 15.6306L131.507 13.4007L132.051 13.5158C132.205 13.5438 132.365 13.5682 132.533 13.5891C132.707 13.6101 132.864 13.6205 133.004 13.6205C133.576 13.6205 133.96 13.4356 134.156 13.0657C134.351 12.7027 134.449 12.1723 134.449 11.4743V4.18773H136.668V11.6418Z" fill="#C59714"/>
<path d="M130.068 11.9559H89.4297C89.2413 11.9559 89.1087 11.9035 89.0319 11.7988C88.9481 11.6942 88.9062 11.579 88.9062 11.4534V10.2913C88.9062 10.1517 88.9516 10.0156 89.0424 9.88297C89.1261 9.75036 89.2552 9.68406 89.4297 9.68406H122.625C122.52 9.54447 122.408 9.30717 122.29 8.97215C122.171 8.63713 122.112 8.21487 122.112 7.70537C122.112 7.16795 122.216 6.64449 122.426 6.13498C122.635 5.62548 122.928 5.1753 123.305 4.78445C123.689 4.3936 124.146 4.07952 124.677 3.84222C125.214 3.59793 125.804 3.47579 126.446 3.47579C127.011 3.47579 127.514 3.57001 127.954 3.75846C128.393 3.93993 128.77 4.19817 129.084 4.53319C129.398 4.86122 129.639 5.25905 129.807 5.72668C129.981 6.19431 130.068 6.71777 130.068 7.29707V11.9559ZM127.817 9.68406V7.18191C127.817 7.00742 127.786 6.82944 127.723 6.64798C127.667 6.45953 127.573 6.29202 127.441 6.14545C127.315 5.9919 127.151 5.86976 126.949 5.77903C126.746 5.68829 126.509 5.64293 126.237 5.64293C125.992 5.64293 125.755 5.69178 125.525 5.7895C125.294 5.88721 125.092 6.0268 124.917 6.20827C124.743 6.38275 124.6 6.59214 124.488 6.83642C124.377 7.0807 124.321 7.35988 124.321 7.67396C124.321 8.14159 124.415 8.5115 124.603 8.7837C124.792 9.04892 124.998 9.25482 125.221 9.40139C125.472 9.55494 125.772 9.64916 126.121 9.68406H127.817ZM123.305 1.13068C123.305 0.816602 123.417 0.551381 123.64 0.335016C123.864 0.111672 124.143 0 124.478 0C124.813 0 125.092 0.111672 125.315 0.335016C125.539 0.551381 125.65 0.816602 125.65 1.13068C125.65 1.45174 125.539 1.72045 125.315 1.93681C125.092 2.15318 124.813 2.26136 124.478 2.26136C124.143 2.26136 123.864 2.15318 123.64 1.93681C123.417 1.72045 123.305 1.45174 123.305 1.13068ZM126.352 1.13068C126.352 0.816602 126.46 0.551381 126.676 0.335016C126.9 0.111672 127.182 0 127.524 0C127.866 0 128.149 0.111672 128.372 0.335016C128.596 0.551381 128.707 0.816602 128.707 1.13068C128.707 1.45174 128.596 1.72045 128.372 1.93681C128.149 2.15318 127.866 2.26136 127.524 2.26136C127.182 2.26136 126.9 2.15318 126.676 1.93681C126.46 1.72045 126.352 1.45174 126.352 1.13068Z" fill="#C59714"/>
<path d="M84.8606 9.68406V7.94616C84.8606 7.20634 84.721 6.63751 84.4418 6.23967C84.1626 5.84184 83.7474 5.64293 83.196 5.64293C82.9657 5.64293 82.7423 5.69178 82.5259 5.7895C82.3096 5.88721 82.1176 6.0268 81.9501 6.20827C81.7826 6.38275 81.643 6.59214 81.5314 6.83642C81.4267 7.0807 81.3743 7.35988 81.3743 7.67396C81.3743 8.04388 81.4337 8.35795 81.5523 8.61619C81.671 8.86746 81.828 9.07335 82.0234 9.23388C82.2258 9.39441 82.4527 9.50957 82.7039 9.57937C82.9622 9.64916 83.2274 9.68406 83.4996 9.68406H84.8606ZM83.5519 11.9559C82.7563 11.9559 82.0827 11.8407 81.5314 11.6104C80.98 11.3801 80.5263 11.0834 80.1704 10.7205C79.8214 10.3506 79.5666 9.93183 79.4061 9.4642C79.2526 8.9896 79.1758 8.5115 79.1758 8.02992C79.1758 7.41572 79.2805 6.83293 79.4899 6.28155C79.6992 5.73017 79.9854 5.2451 80.3483 4.82633C80.7113 4.40756 81.1475 4.07952 81.657 3.84222C82.1665 3.59793 82.7249 3.47579 83.3321 3.47579C83.8904 3.47579 84.3999 3.5735 84.8606 3.76893C85.3282 3.95738 85.726 4.2226 86.0541 4.56459C86.3891 4.90659 86.6438 5.31838 86.8183 5.79997C86.9928 6.27457 87.0801 6.79803 87.0801 7.37035V9.68406H88.4725C88.6609 9.68406 88.7935 9.7364 88.8703 9.8411C88.9541 9.94579 88.9959 10.0714 88.9959 10.218V11.4115C88.9959 11.5162 88.9541 11.6348 88.8703 11.7674C88.7935 11.8931 88.6609 11.9559 88.4725 11.9559H83.5519ZM80.5787 1.13068C80.5787 0.816602 80.6903 0.551381 80.9137 0.335016C81.137 0.111672 81.4162 0 81.7512 0C82.0932 0 82.3724 0.111672 82.5888 0.335016C82.8121 0.551381 82.9238 0.816602 82.9238 1.13068C82.9238 1.45174 82.8121 1.72045 82.5888 1.93681C82.3724 2.15318 82.0932 2.26136 81.7512 2.26136C81.4162 2.26136 81.137 2.15318 80.9137 1.93681C80.6903 1.72045 80.5787 1.45174 80.5787 1.13068ZM83.6252 1.13068C83.6252 0.816602 83.7369 0.551381 83.9602 0.335016C84.1836 0.111672 84.4662 0 84.8082 0C85.1433 0 85.4224 0.111672 85.6458 0.335016C85.8691 0.551381 85.9808 0.816602 85.9808 1.13068C85.9808 1.45174 85.8691 1.72045 85.6458 1.93681C85.4224 2.15318 85.1433 2.26136 84.8082 2.26136C84.4662 2.26136 84.1836 2.15318 83.9602 1.93681C83.7369 1.72045 83.6252 1.45174 83.6252 1.13068Z" fill="#C59714"/>
<path d="M65.9137 9.68405C65.5717 9.38393 65.2821 9.00704 65.0448 8.55337C64.8145 8.0997 64.6993 7.57973 64.6993 6.99345C64.6993 6.52583 64.7761 6.07216 64.9296 5.63245C65.0901 5.18576 65.3414 4.78793 65.6834 4.43896C66.0254 4.083 66.4616 3.80382 66.9921 3.60142C67.5295 3.39203 68.1716 3.28734 68.9184 3.28734C69.2185 3.28734 69.5431 3.30479 69.892 3.33968C70.248 3.3676 70.6458 3.41297 71.0855 3.47578L70.8133 5.70574C70.4853 5.6499 70.1922 5.61151 69.9339 5.59057C69.6757 5.56266 69.4174 5.5487 69.1592 5.5487C68.4543 5.5487 67.9099 5.71271 67.526 6.04075C67.1491 6.36879 66.9607 6.80501 66.9607 7.34941C66.9607 7.7263 67.0479 8.06132 67.2224 8.35446C67.4039 8.6476 67.6377 8.89188 67.9238 9.0873C68.21 9.28273 68.5415 9.43279 68.9184 9.53748C69.2953 9.63519 69.6862 9.68405 70.091 9.68405H71.8079V11.9559H32.6978C32.4954 11.9559 32.3593 11.9035 32.2895 11.7988C32.2127 11.6941 32.1743 11.579 32.1743 11.4534V10.2913C32.1743 10.1517 32.2197 10.0156 32.3104 9.88297C32.3942 9.75036 32.5233 9.68405 32.6978 9.68405H65.9137Z" fill="#C59714"/>
<path d="M27.5843 9.68407V7.94617C27.5843 7.20634 27.4377 6.63751 27.1446 6.23968C26.8514 5.84185 26.4466 5.64293 25.9301 5.64293C25.6928 5.64293 25.466 5.69179 25.2496 5.7895C25.0333 5.88722 24.8413 6.02681 24.6738 6.20827C24.5063 6.38276 24.3702 6.59215 24.2655 6.83643C24.1608 7.08071 24.1085 7.35989 24.1085 7.67397C24.1085 8.04388 24.1643 8.35796 24.276 8.6162C24.3946 8.86746 24.5517 9.07336 24.7471 9.23389C24.9495 9.39442 25.1763 9.50958 25.4276 9.57937C25.6859 9.64917 25.9511 9.68407 26.2233 9.68407H27.5843ZM29.7933 11.9559C29.7514 12.7097 29.5979 13.3553 29.3326 13.8927C29.0744 14.4371 28.7254 14.8768 28.2857 15.2118C27.846 15.5538 27.326 15.8051 26.7258 15.9656C26.1325 16.1261 25.4765 16.2064 24.7576 16.2064C24.4575 16.2064 24.1434 16.1959 23.8153 16.175C23.4873 16.161 23.1279 16.1227 22.737 16.0598L22.8941 13.8718C23.2779 13.9206 23.6374 13.959 23.9724 13.9869C24.3074 14.0148 24.6005 14.0288 24.8518 14.0288C25.2217 14.0288 25.5672 14.0009 25.8883 13.945C26.2093 13.8962 26.4955 13.795 26.7467 13.6414C27.005 13.4949 27.2074 13.289 27.354 13.0238C27.5075 12.7585 27.5913 12.4026 27.6052 11.9559H26.2966C25.4869 11.9559 24.8064 11.8407 24.2551 11.6104C23.7037 11.3801 23.2535 11.0835 22.9045 10.7205C22.5625 10.3506 22.3113 9.93184 22.1507 9.46421C21.9972 8.9896 21.9204 8.51151 21.9204 8.02992C21.9204 7.41573 22.0181 6.83294 22.2135 6.28156C22.416 5.73018 22.6986 5.2451 23.0616 4.82633C23.4315 4.40756 23.8677 4.07953 24.3702 3.84222C24.8727 3.59794 25.4311 3.4758 26.0453 3.4758C26.6246 3.4758 27.1446 3.57351 27.6052 3.76894C28.0728 3.95739 28.4672 4.22261 28.7882 4.5646C29.1163 4.9066 29.364 5.31839 29.5316 5.79997C29.706 6.27458 29.7933 6.79804 29.7933 7.37036V9.68407H31.7092C31.9185 9.68407 32.0616 9.73641 32.1384 9.8411C32.2152 9.9458 32.2536 10.0714 32.2536 10.218V11.4115C32.2536 11.5162 32.2117 11.6348 32.1279 11.7674C32.0442 11.8931 31.9046 11.9559 31.7092 11.9559H29.7933Z" fill="#C59714"/>
<path d="M11.0701 11.9559V9.68406H16.3989V7.72631C16.3989 7.27962 16.3466 6.92017 16.2419 6.64797C16.1372 6.36879 15.9836 6.15243 15.7812 5.99888C15.5858 5.84533 15.3415 5.74064 15.0484 5.6848C14.7552 5.62897 14.4237 5.60105 14.0538 5.60105H12.1693V3.43391H14.504C15.0344 3.43391 15.5509 3.48975 16.0534 3.60142C16.556 3.70611 16.9992 3.90852 17.383 4.20864C17.7739 4.50178 18.081 4.91706 18.3043 5.45448C18.5346 5.98492 18.6498 6.67938 18.6498 7.53786V11.9559H11.0701Z" fill="#C59714"/>
<path d="M7.90429 11.9559H4.37615C3.58048 11.9559 2.90696 11.8407 2.35558 11.6104C1.8042 11.3801 1.35053 11.0834 0.994579 10.7205C0.645604 10.3506 0.390852 9.93183 0.230324 9.4642C0.0767745 8.9896 0 8.5115 0 8.02992C0 7.41572 0.097713 6.83293 0.293139 6.28155C0.495545 5.73017 0.781704 5.2451 1.15162 4.82633C1.52851 4.40756 1.97171 4.07952 2.48121 3.84222C2.99072 3.59793 3.54908 3.47579 4.15629 3.47579C4.71465 3.47579 5.22416 3.5735 5.6848 3.76893C6.15243 3.95738 6.55026 4.2226 6.8783 4.56459C7.21332 4.90659 7.46807 5.31838 7.64255 5.79997C7.81704 6.27457 7.90429 6.79803 7.90429 7.37035V11.9559ZM5.6848 9.68406V7.94616C5.6848 7.20634 5.54172 6.63751 5.25556 6.23967C4.96941 5.84184 4.55412 5.64293 4.00972 5.64293C3.78638 5.64293 3.56653 5.69178 3.35016 5.7895C3.1338 5.88721 2.94186 6.0268 2.77435 6.20827C2.60684 6.38275 2.46725 6.59214 2.35558 6.83642C2.25089 7.0807 2.19854 7.35988 2.19854 7.67396C2.19854 8.04388 2.25787 8.35795 2.37652 8.61619C2.49517 8.86746 2.65221 9.07335 2.84764 9.23388C3.05004 9.39441 3.27688 9.50957 3.52814 9.57937C3.78638 9.64916 4.0516 9.68406 4.3238 9.68406H5.6848ZM1.361 1.13068C1.361 0.816602 1.47267 0.551381 1.69602 0.335016C1.91936 0.111672 2.19854 0 2.53356 0C2.87555 0 3.15473 0.111672 3.3711 0.335016C3.59444 0.551381 3.70612 0.816602 3.70612 1.13068C3.70612 1.45174 3.59444 1.72045 3.3711 1.93681C3.15473 2.15318 2.87555 2.26136 2.53356 2.26136C2.19854 2.26136 1.91936 2.15318 1.69602 1.93681C1.47267 1.72045 1.361 1.45174 1.361 1.13068ZM4.41802 1.13068C4.41802 0.816602 4.52621 0.551381 4.74257 0.335016C4.96592 0.111672 5.24859 0 5.59058 0C5.9256 0 6.20478 0.111672 6.42812 0.335016C6.65147 0.551381 6.76314 0.816602 6.76314 1.13068C6.76314 1.45174 6.65147 1.72045 6.42812 1.93681C6.20478 2.15318 5.9256 2.26136 5.59058 2.26136C5.24859 2.26136 4.96592 2.15318 4.74257 1.93681C4.52621 1.72045 4.41802 1.45174 4.41802 1.13068Z" fill="#C59714"/>
</svg>
