<svg width="184" height="12" viewBox="0 0 184 12" fill="none" xmlns="http://www.w3.org/2000/svg">
<path d="M3.15 6.99503V11H0.945V0.23003H7.71C10.155 0.23003 11.805 1.40003 11.805 3.62003C11.805 5.27003 10.845 6.36503 9.315 6.78503L12.06 11H9.525L6.99 6.99503H3.15ZM3.15 5.15003H7.59C8.88 5.15003 9.615 4.59503 9.615 3.63503C9.615 2.66003 8.88 2.10503 7.59 2.10503H3.15V5.15003ZM13.8093 0.23003H24.2343V2.13503H15.9843V4.53503H23.3793V6.42503H15.9843V9.09503H24.2343V11H13.8093V0.23003ZM37.4502 2.13503H32.6952V11H30.4752V2.13503H25.7202V0.23003H37.4502V2.13503ZM44.6556 11.15C40.8756 11.15 39.1206 9.05003 39.1206 5.91503V0.23003H41.3256V5.79503C41.3256 7.82003 42.1956 9.21503 44.6556 9.21503C47.1006 9.21503 47.9706 7.82003 47.9706 5.79503V0.23003H50.1906V5.91503C50.1906 9.05003 48.4206 11.15 44.6556 11.15ZM54.7389 6.99503V11H52.5339V0.23003H59.2989C61.7439 0.23003 63.3939 1.40003 63.3939 3.62003C63.3939 5.27003 62.4339 6.36503 60.9039 6.78503L63.6489 11H61.1139L58.5789 6.99503H54.7389ZM54.7389 5.15003H59.1789C60.4689 5.15003 61.2039 4.59503 61.2039 3.63503C61.2039 2.66003 60.4689 2.10503 59.1789 2.10503H54.7389V5.15003ZM76.5131 0.23003V11H74.5631L67.5281 3.03503V11H65.3981V0.23003H67.6481L74.3681 7.83503V0.23003H76.5131ZM79.1413 0.23003H89.5663V2.13503H81.3163V4.53503H88.7113V6.42503H81.3163V9.09503H89.5663V11H79.1413V0.23003ZM91.7272 0.23003H102.152V2.13503H93.9022V4.53503H101.297V6.42503H93.9022V9.09503H102.152V11H91.7272V0.23003ZM109.077 11V0.23003H111.282V9.09503H118.857V11H109.077ZM120.872 0.23003H131.297V2.13503H123.047V4.53503H130.442V6.42503H123.047V9.09503H131.297V11H120.872V0.23003ZM144.513 2.13503H139.758V11H137.538V2.13503H132.783V0.23003H144.513V2.13503ZM157.538 2.13503H152.783V11H150.563V2.13503H145.808V0.23003H157.538V2.13503ZM159.508 0.23003H169.933V2.13503H161.683V4.53503H169.078V6.42503H161.683V9.09503H169.933V11H159.508V0.23003ZM174.299 6.99503V11H172.094V0.23003H178.859C181.304 0.23003 182.954 1.40003 182.954 3.62003C182.954 5.27003 181.994 6.36503 180.464 6.78503L183.209 11H180.674L178.139 6.99503H174.299ZM174.299 5.15003H178.739C180.029 5.15003 180.764 4.59503 180.764 3.63503C180.764 2.66003 180.029 2.10503 178.739 2.10503H174.299V5.15003Z" fill="#C59714"/>
</svg>
