<svg width="72" height="71" viewBox="0 0 72 71" fill="none" xmlns="http://www.w3.org/2000/svg">
<g clip-path="url(#clip0_1_309)">
<path d="M68.1342 32.6663V64.9476C68.1342 67.1818 66.3234 68.9956 64.0862 68.9956H7.91081C5.67661 68.9956 3.86279 67.1847 3.86279 64.9476V32.6663H68.1313H68.1342Z" stroke="#03336B" stroke-width="2.24428" stroke-linecap="round" stroke-linejoin="round"/>
<path d="M3.86565 32.6664L1.02881 4.29792C1.02881 2.49292 2.83969 1.02893 5.07682 1.02893H66.923C69.1572 1.02893 70.971 2.49292 70.971 4.29792L68.1341 32.6664" stroke="#03336B" stroke-width="2.24428" stroke-linecap="round" stroke-linejoin="round"/>
<path d="M19.7901 48.5879C17.8705 48.5879 16.2389 47.1798 15.9567 45.2807C15.7892 44.1489 15.7892 42.9995 15.9567 41.8677C16.2389 39.9686 17.8676 38.5605 19.7901 38.5605C21.7098 38.5605 23.3413 39.9686 23.6236 41.8677C23.7911 42.9995 23.7911 44.1489 23.6236 45.2807C23.3413 47.1798 21.7127 48.5879 19.7901 48.5879Z" stroke="#03336B" stroke-width="2.24428" stroke-linecap="round" stroke-linejoin="round"/>
<path d="M24.8054 49.9725L26.1401 50.1342C26.4634 50.1724 26.7633 50.29 27.022 50.4723C27.2807 50.6516 27.4923 50.8956 27.6423 51.1837C28.0068 51.8981 28.2831 52.6477 28.4683 53.4208C28.4683 53.4297 28.4713 53.4355 28.4742 53.4444C28.7829 54.7408 28.0921 56.0695 26.8662 56.5928L26.4193 56.7839C22.1861 58.586 17.3973 58.586 13.1641 56.7839L12.7143 56.5928C11.4884 56.0695 10.7976 54.7408 11.1063 53.4444C11.1063 53.4355 11.1092 53.4297 11.1121 53.4208C11.2973 52.6477 11.5737 51.8951 11.9382 51.1837C12.2322 50.6046 12.7937 50.2136 13.4375 50.1342L14.7721 49.9725" stroke="#03336B" stroke-width="2.24428" stroke-linecap="round" stroke-linejoin="round"/>
<path d="M11.8589 63.8628H27.7188" stroke="#03336B" stroke-width="2.24428" stroke-linecap="round" stroke-linejoin="round"/>
<path d="M35.2886 52.1538H44.7281" stroke="#03336B" stroke-width="2.24428" stroke-linecap="round" stroke-linejoin="round"/>
<path d="M35.2886 58.1362H39.6982" stroke="#03336B" stroke-width="2.24428" stroke-linecap="round" stroke-linejoin="round"/>
<path d="M35.2886 64.1215H44.7281" stroke="#03336B" stroke-width="2.24428" stroke-linecap="round" stroke-linejoin="round"/>
<path d="M35.2886 43.5757H60.9672" stroke="#03336B" stroke-width="2.24428" stroke-linecap="round" stroke-linejoin="round"/>
<path d="M35.2886 38.5634H48.5497" stroke="#03336B" stroke-width="2.24428" stroke-linecap="round" stroke-linejoin="round"/>
<path d="M60.9672 52.1538H50.2754V64.1215H60.9672V52.1538Z" stroke="#03336B" stroke-width="2.24428" stroke-linecap="round" stroke-linejoin="round"/>
<path d="M34.53 22.4596C35.3649 23.5385 36.8318 24.2558 38.5046 24.2558C41.1003 24.2558 43.2081 22.5272 43.2081 20.3959C43.2081 18.3763 41.3149 16.7859 38.9132 16.5507H38.9161C36.7319 16.3949 35.018 14.8898 35.018 13.0583C35.018 11.121 36.9289 9.55414 39.2895 9.55414C40.7858 9.55414 42.1028 10.1862 42.8671 11.1445" stroke="#03336B" stroke-width="2.24428" stroke-linecap="round" stroke-linejoin="round"/>
<path d="M24.2087 9.55121L19.17 24.3175L14.1343 9.55121" stroke="#03336B" stroke-width="2.24428" stroke-linecap="round" stroke-linejoin="round"/>
<path d="M30.197 9.55121V24.3175" stroke="#03336B" stroke-width="2.24428" stroke-linecap="round" stroke-linejoin="round"/>
<path d="M57.8657 24.3175L52.439 9.55121L47.0151 24.3175" stroke="#03336B" stroke-width="2.24428" stroke-linecap="round" stroke-linejoin="round"/>
<path d="M55.9021 18.973H48.979" stroke="#03336B" stroke-width="2.24428" stroke-linecap="round" stroke-linejoin="round"/>
</g>
<defs>
<clipPath id="clip0_1_309">
<rect width="72" height="70.0216" fill="white"/>
</clipPath>
</defs>
</svg>
