<?xml version="1.0" encoding="utf-8"?>
<!-- Generator: Adobe Illustrator 19.0.0, SVG Export Plug-In . SVG Version: 6.00 Build 0)  -->
<svg version="1.1" id="Layer_1" xmlns="http://www.w3.org/2000/svg" xmlns:xlink="http://www.w3.org/1999/xlink" x="0px" y="0px"
	 viewBox="0 0 160 62" style="enable-background:new 0 0 160 62;" xml:space="preserve">
<style type="text/css">
	.st0{fill:#525352;}
	.st1{fill:none;stroke:#ED823B;stroke-miterlimit:10;}
	.st2{fill:#B71F25;}
</style>
<g>
	<path class="st0" d="M2.8,38V5.8h1.9V38H2.8z"/>
	<path class="st0" d="M33.7,38L12.2,8.7V38h-1.9V5.8h2.3L34,35V5.8h1.9V38H33.7z"/>
	<path class="st0" d="M55.1,38L41.8,5.8H44l12.2,29.9L68.4,5.8h2.1L57.2,38H55.1z"/>
	<path class="st0" d="M77.4,7.7v12.8h16.8v1.9H77.4v13.6h19.4V38H75.5V5.8h20.8v1.9H77.4z"/>
	<path class="st0" d="M123.9,8.3l-0.9,1.7c-2.4-1.6-5.7-2.3-8.4-2.3c-5.1,0-8.4,2.1-8.4,5.5c0,9.8,18.9,4.7,18.8,16.6
		c0,5-4.5,8.2-11.2,8.2c-4.3,0-8.7-1.9-11.5-4.6l1-1.7c2.6,2.7,6.7,4.4,10.5,4.4c5.5,0,9.1-2.4,9.1-6.2c0.1-10.1-18.8-4.9-18.8-16.5
		c0-4.6,4.2-7.6,10.6-7.6C118,5.7,121.5,6.8,123.9,8.3z"/>
	<path class="st0" d="M146.1,38h-1.9V26.3L131.3,5.8h2.1l11.7,18.1l11.6-18.1h2.1l-12.7,20.4V38z"/>
</g>
<path class="st0" d="M59,53.2V56c-0.8,0.6-1.9,1-2.9,1c-2.3,0-4.1-1.8-4.1-4c0-2.2,1.8-3.9,4.1-3.9c1.1,0,2.1,0.4,2.9,1.1l-0.5,0.7
	C57.8,50.3,57,50,56.1,50c-1.8,0-3.2,1.4-3.2,3.1c0,1.7,1.4,3.1,3.2,3.1c0.7,0,1.5-0.2,2.1-0.7v-2.4H59z"/>
<path class="st0" d="M68.9,54.5c-0.2,0-0.3,0-0.5,0h-2.1V57h-0.9v-7.8h3c2,0,3.1,1,3.1,2.6c0,1.3-0.6,2.2-1.8,2.5l1.8,2.7h-1
	L68.9,54.5z M68.4,53.7c1.4,0,2.2-0.6,2.2-1.8c0-1.2-0.8-1.8-2.2-1.8h-2.1v3.6H68.4z"/>
<path class="st0" d="M97.5,53.8c0,2-1.2,3.3-3.3,3.3c-2.1,0-3.3-1.2-3.3-3.3v-4.6h0.9v4.6c0,1.5,0.9,2.4,2.4,2.4
	c1.5,0,2.4-0.9,2.4-2.4v-4.6h0.9V53.8z"/>
<path class="st0" d="M106.9,49.2c1.9,0,3.1,1,3.1,2.6c0,1.7-1.1,2.7-3.1,2.7h-2V57h-0.9v-7.8H106.9z M104.8,53.7h2
	c1.4,0,2.2-0.6,2.2-1.8c0-1.2-0.8-1.8-2.2-1.8h-2V53.7z"/>
<g>
	<line id="XMLID_36_" class="st1" x1="21.2" y1="53.8" x2="45.2" y2="53.8"/>
	<line id="XMLID_35_" class="st1" x1="117" y1="53.8" x2="140.9" y2="53.8"/>
</g>
<path id="XMLID_50_" class="st2" d="M80.9,49.2c-2.2,0-3.9,1.8-3.9,3.9c0,2.2,1.8,3.9,3.9,3.9c2.2,0,3.9-1.8,3.9-3.9
	C84.8,51,83.1,49.2,80.9,49.2z M80.9,55.4c-1.2,0-2.2-1-2.2-2.2c0-1.2,1-2.2,2.2-2.2c1.2,0,2.2,1,2.2,2.2
	C83.1,54.4,82.1,55.4,80.9,55.4z"/>
</svg>
