<?xml version="1.0" encoding="utf-8"?>
<!-- Generator: Adobe Illustrator 19.0.0, SVG Export Plug-In . SVG Version: 6.00 Build 0)  -->
<svg version="1.1" id="Layer_1" xmlns="http://www.w3.org/2000/svg" xmlns:xlink="http://www.w3.org/1999/xlink" x="0px" y="0px"
	 viewBox="0 0 160 52" style="enable-background:new 0 0 160 52;" xml:space="preserve">
<style type="text/css">
	.st0{fill:#525352;}
	.st1{fill:none;stroke:#ED823B;stroke-miterlimit:10;}
	.st2{clip-path:url(#XMLID_80_);fill:url(#XMLID_81_);}
	.st3{clip-path:url(#XMLID_80_);fill:url(#XMLID_82_);}
	.st4{clip-path:url(#XMLID_80_);fill:url(#XMLID_83_);}
	.st5{clip-path:url(#XMLID_80_);fill:url(#XMLID_84_);}
	.st6{clip-path:url(#XMLID_80_);fill:url(#XMLID_85_);}
	.st7{clip-path:url(#XMLID_80_);fill:url(#XMLID_86_);}
	.st8{clip-path:url(#XMLID_80_);fill:url(#XMLID_87_);}
	.st9{clip-path:url(#XMLID_80_);fill:none;}
	.st10{clip-path:url(#XMLID_80_);fill:url(#XMLID_88_);}
	.st11{clip-path:url(#XMLID_80_);fill:url(#XMLID_89_);}
	.st12{clip-path:url(#XMLID_80_);fill:url(#XMLID_90_);}
	.st13{clip-path:url(#XMLID_80_);fill:url(#XMLID_91_);}
	.st14{clip-path:url(#XMLID_80_);fill:url(#XMLID_92_);}
	.st15{clip-path:url(#XMLID_80_);fill:url(#XMLID_93_);}
	.st16{clip-path:url(#XMLID_80_);fill:url(#XMLID_94_);}
	.st17{clip-path:url(#XMLID_80_);fill:url(#XMLID_95_);}
</style>
<g id="XMLID_2_">
	<path id="XMLID_13_" class="st0" d="M2.8,32.9V1.1h1.9v31.8H2.8z"/>
	<path id="XMLID_11_" class="st0" d="M33.3,32.9L12.1,4v28.8h-1.9V1.1h2.2L33.6,30V1.1h1.9v31.8H33.3z"/>
	<path id="XMLID_9_" class="st0" d="M54.5,32.9L41.3,1.1h2.1l12,29.5L67.6,1.1h2.1L56.5,32.9H54.5z"/>
	<path id="XMLID_7_" class="st0" d="M76.5,3v12.7H93v1.9H76.5V31h19.2v1.9H74.6V1.1H95V3H76.5z"/>
	<path id="XMLID_5_" class="st0" d="M122.4,3.6l-0.9,1.7c-2.4-1.5-5.6-2.3-8.3-2.3c-5,0-8.3,2.1-8.3,5.4c0,9.7,18.7,4.7,18.6,16.4
		c0,4.9-4.4,8.1-11,8.1c-4.2,0-8.5-1.9-11.3-4.6l1-1.7c2.6,2.7,6.6,4.3,10.4,4.3c5.5,0,8.9-2.4,8.9-6.1c0.1-9.9-18.6-4.9-18.6-16.3
		C102.9,4,107,1,113.3,1C116.5,1,120,2.1,122.4,3.6z"/>
	<path id="XMLID_3_" class="st0" d="M144.3,32.9h-1.9V21.4L129.7,1.1h2L143.3,19l11.4-17.9h2l-12.5,20.1V32.9z"/>
</g>
<path id="XMLID_78_" class="st0" d="M58.2,48v2.8c-0.8,0.6-1.8,1-2.9,1c-2.2,0-4-1.7-4-3.9c0-2.2,1.8-3.9,4.1-3.9
	c1.1,0,2.1,0.4,2.9,1.1l-0.5,0.7c-0.6-0.6-1.5-0.9-2.3-0.9c-1.8,0-3.2,1.4-3.2,3.1c0,1.7,1.4,3.1,3.2,3.1c0.7,0,1.4-0.2,2-0.7V48
	H58.2z"/>
<path id="XMLID_75_" class="st0" d="M68,49.3c-0.2,0-0.3,0-0.5,0h-2.1v2.4h-0.9V44h2.9c1.9,0,3.1,1,3.1,2.6c0,1.3-0.6,2.1-1.7,2.5
	l1.8,2.6h-1L68,49.3z M67.5,48.4c1.4,0,2.2-0.6,2.2-1.8c0-1.2-0.8-1.8-2.2-1.8h-2.1v3.6H67.5z"/>
<path id="XMLID_73_" class="st0" d="M96.3,48.6c0,2-1.2,3.2-3.2,3.2c-2,0-3.3-1.2-3.3-3.2V44h0.9v4.6c0,1.5,0.9,2.4,2.4,2.4
	c1.5,0,2.4-0.9,2.4-2.4V44h0.9V48.6z"/>
<path id="XMLID_70_" class="st0" d="M105.5,44c1.9,0,3,1,3,2.6c0,1.7-1.1,2.7-3,2.7h-2v2.4h-0.9V44H105.5z M103.5,48.4h2
	c1.4,0,2.2-0.6,2.2-1.8c0-1.2-0.8-1.8-2.2-1.8h-2V48.4z"/>
<g id="XMLID_67_">
	<line id="XMLID_69_" class="st1" x1="21" y1="48.6" x2="44.6" y2="48.6"/>
	<line id="XMLID_68_" class="st1" x1="115.5" y1="48.6" x2="139.2" y2="48.6"/>
</g>
<g id="XMLID_15_">
	<defs>
		<path id="XMLID_16_" d="M79.9,44c-2.1,0-3.9,1.7-3.9,3.9c0,2.1,1.7,3.9,3.9,3.9c2.1,0,3.9-1.7,3.9-3.9C83.8,45.7,82,44,79.9,44z
			 M79.9,50.1c-1.2,0-2.2-1-2.2-2.2c0-1.2,1-2.2,2.2-2.2s2.2,1,2.2,2.2C82.1,49.1,81.1,50.1,79.9,50.1z"/>
	</defs>
	<clipPath id="XMLID_80_">
		<use xlink:href="#XMLID_16_"  style="overflow:visible;"/>
	</clipPath>
	<linearGradient id="XMLID_81_" gradientUnits="userSpaceOnUse" x1="70.8802" y1="57.2178" x2="82.6294" y2="44.7366">
		<stop  offset="0" style="stop-color:#ED2029"/>
		<stop  offset="0.2194" style="stop-color:#ED2C92"/>
		<stop  offset="0.2644" style="stop-color:#E73794"/>
		<stop  offset="0.3247" style="stop-color:#DC4B9A"/>
		<stop  offset="0.3936" style="stop-color:#CA64A5"/>
		<stop  offset="0.4689" style="stop-color:#AF7BB3"/>
		<stop  offset="0.5495" style="stop-color:#8591C5"/>
		<stop  offset="0.6332" style="stop-color:#26A8DB"/>
		<stop  offset="0.6399" style="stop-color:#01AADD"/>
		<stop  offset="0.898" style="stop-color:#E9D01A"/>
		<stop  offset="1" style="stop-color:#FED401"/>
	</linearGradient>
	<path id="XMLID_64_" class="st2" d="M79.9,43.5c-2.3,0-4.1,1.9-4.1,4.1s1.9,4.1,4.1,4.1s4.1-1.9,4.1-4.1S82.2,43.5,79.9,43.5z
		 M79.9,50c-1.3,0-2.3-1-2.3-2.3c0-1.3,1-2.3,2.3-2.3c1.3,0,2.3,1,2.3,2.3C82.2,48.9,81.2,50,79.9,50z"/>
	<linearGradient id="XMLID_82_" gradientUnits="userSpaceOnUse" x1="71.5731" y1="57.8701" x2="83.3224" y2="45.3889">
		<stop  offset="0" style="stop-color:#ED2029"/>
		<stop  offset="0.2194" style="stop-color:#ED2C92"/>
		<stop  offset="0.2644" style="stop-color:#E73794"/>
		<stop  offset="0.3247" style="stop-color:#DC4B9A"/>
		<stop  offset="0.3936" style="stop-color:#CA64A5"/>
		<stop  offset="0.4689" style="stop-color:#AF7BB3"/>
		<stop  offset="0.5495" style="stop-color:#8591C5"/>
		<stop  offset="0.6332" style="stop-color:#26A8DB"/>
		<stop  offset="0.6399" style="stop-color:#01AADD"/>
		<stop  offset="0.898" style="stop-color:#E9D01A"/>
		<stop  offset="1" style="stop-color:#FED401"/>
	</linearGradient>
	<path id="XMLID_61_" class="st3" d="M80.5,44.7c-2,0-3.7,1.7-3.7,3.7s1.7,3.7,3.7,3.7c2,0,3.7-1.7,3.7-3.7S82.6,44.7,80.5,44.7z
		 M80.5,50.4c-1.2,0-2.1-0.9-2.1-2.1c0-1.2,0.9-2.1,2.1-2.1c1.2,0,2.1,0.9,2.1,2.1C82.6,49.5,81.7,50.4,80.5,50.4z"/>
	<linearGradient id="XMLID_83_" gradientUnits="userSpaceOnUse" x1="71.284" y1="57.5978" x2="83.0332" y2="45.1166">
		<stop  offset="0" style="stop-color:#651348"/>
		<stop  offset="0.2444" style="stop-color:#971C54"/>
		<stop  offset="0.3226" style="stop-color:#991D53"/>
		<stop  offset="0.4272" style="stop-color:#9F1D4E"/>
		<stop  offset="0.5462" style="stop-color:#AA1E46"/>
		<stop  offset="0.6399" style="stop-color:#B51F3C"/>
		<stop  offset="0.898" style="stop-color:#F15C25"/>
		<stop  offset="1" style="stop-color:#F9BB18"/>
	</linearGradient>
	<path id="XMLID_58_" class="st4" d="M79.6,44.9c-2.1,0-3.9,1.7-3.9,3.9c0,2.1,1.7,3.9,3.9,3.9c2.1,0,3.9-1.7,3.9-3.9
		C83.5,46.6,81.7,44.9,79.6,44.9z M79.6,51c-1.2,0-2.2-1-2.2-2.2c0-1.2,1-2.2,2.2-2.2c1.2,0,2.2,1,2.2,2.2C81.8,50,80.8,51,79.6,51z
		"/>
	<radialGradient id="XMLID_84_" cx="78.8029" cy="48.7337" r="4.2663" gradientUnits="userSpaceOnUse">
		<stop  offset="0.7204" style="stop-color:#FFFFFF"/>
		<stop  offset="0.8314" style="stop-color:#F8F8F7"/>
		<stop  offset="0.9505" style="stop-color:#EAEAEA"/>
		<stop  offset="1" style="stop-color:#E3E3E3"/>
	</radialGradient>
	<path id="XMLID_55_" class="st5" d="M78.8,44.5c-2.4,0-4.3,1.9-4.3,4.3c0,2.4,1.9,4.3,4.3,4.3s4.3-1.9,4.3-4.3
		C83.1,46.4,81.2,44.5,78.8,44.5z M78.8,51.1c-1.3,0-2.4-1.1-2.4-2.4c0-1.3,1.1-2.4,2.4-2.4s2.4,1.1,2.4,2.4
		C81.2,50.1,80.1,51.1,78.8,51.1z"/>
	<radialGradient id="XMLID_85_" cx="81.1527" cy="48.5989" r="4.2663" gradientUnits="userSpaceOnUse">
		<stop  offset="0.7204" style="stop-color:#FFFFFF"/>
		<stop  offset="0.8314" style="stop-color:#F8F8F7"/>
		<stop  offset="0.9505" style="stop-color:#EAEAEA"/>
		<stop  offset="1" style="stop-color:#E3E3E3"/>
	</radialGradient>
	<path id="XMLID_52_" class="st6" d="M81.2,44.3c-2.4,0-4.3,1.9-4.3,4.3c0,2.4,1.9,4.3,4.3,4.3c2.4,0,4.3-1.9,4.3-4.3
		C85.4,46.2,83.5,44.3,81.2,44.3z M81.2,51c-1.3,0-2.4-1.1-2.4-2.4c0-1.3,1.1-2.4,2.4-2.4c1.3,0,2.4,1.1,2.4,2.4
		C83.6,49.9,82.5,51,81.2,51z"/>
	<radialGradient id="XMLID_86_" cx="79.2073" cy="46.7113" r="4.2663" gradientUnits="userSpaceOnUse">
		<stop  offset="0.7688" style="stop-color:#010101"/>
		<stop  offset="1" style="stop-color:#575858"/>
	</radialGradient>
	<path id="XMLID_49_" class="st7" d="M79.2,42.4c-2.4,0-4.3,1.9-4.3,4.3s1.9,4.3,4.3,4.3c2.4,0,4.3-1.9,4.3-4.3S81.6,42.4,79.2,42.4
		z M79.2,49.1c-1.3,0-2.4-1.1-2.4-2.4c0-1.3,1.1-2.4,2.4-2.4s2.4,1.1,2.4,2.4C81.6,48,80.5,49.1,79.2,49.1z"/>
	<radialGradient id="XMLID_87_" cx="79.7082" cy="49.0804" r="3.3996" gradientUnits="userSpaceOnUse">
		<stop  offset="0.7688" style="stop-color:#010101"/>
		<stop  offset="1" style="stop-color:#333333"/>
	</radialGradient>
	<path id="XMLID_46_" class="st8" d="M79.7,45.7c-1.9,0-3.4,1.5-3.4,3.4c0,1.9,1.5,3.4,3.4,3.4c1.9,0,3.4-1.5,3.4-3.4
		C83.1,47.2,81.6,45.7,79.7,45.7z M79.7,51c-1.1,0-1.9-0.9-1.9-1.9c0-1.1,0.9-1.9,1.9-1.9c1.1,0,1.9,0.9,1.9,1.9
		C81.6,50.1,80.8,51,79.7,51z"/>
	<path id="XMLID_43_" class="st9" d="M79.9,44c-2.1,0-3.9,1.7-3.9,3.9c0,2.1,1.7,3.9,3.9,3.9c2.1,0,3.9-1.7,3.9-3.9
		C83.8,45.7,82,44,79.9,44z M79.9,50.1c-1.2,0-2.2-1-2.2-2.2c0-1.2,1-2.2,2.2-2.2s2.2,1,2.2,2.2C82.1,49.1,81.1,50.1,79.9,50.1z"/>
	<linearGradient id="XMLID_88_" gradientUnits="userSpaceOnUse" x1="70.8751" y1="57.213" x2="82.6309" y2="44.7381">
		<stop  offset="0" style="stop-color:#651348"/>
		<stop  offset="0.2444" style="stop-color:#971C54"/>
		<stop  offset="0.3226" style="stop-color:#991D53"/>
		<stop  offset="0.4272" style="stop-color:#9F1D4E"/>
		<stop  offset="0.5462" style="stop-color:#AA1E46"/>
		<stop  offset="0.6399" style="stop-color:#B51F3C"/>
		<stop  offset="0.898" style="stop-color:#F15C25"/>
		<stop  offset="1" style="stop-color:#F9BB18"/>
	</linearGradient>
	<path id="XMLID_40_" class="st10" d="M79.9,43.5c-2.3,0-4.1,1.9-4.1,4.1s1.9,4.1,4.1,4.1s4.1-1.9,4.1-4.1S82.2,43.5,79.9,43.5z
		 M79.9,50c-1.3,0-2.3-1-2.3-2.3c0-1.3,1-2.3,2.3-2.3c1.3,0,2.3,1,2.3,2.3C82.2,48.9,81.2,50,79.9,50z"/>
	<linearGradient id="XMLID_89_" gradientUnits="userSpaceOnUse" x1="72.4917" y1="56.9072" x2="82.981" y2="45.7763">
		<stop  offset="0" style="stop-color:#651348"/>
		<stop  offset="0.2444" style="stop-color:#971C54"/>
		<stop  offset="0.3226" style="stop-color:#991D53"/>
		<stop  offset="0.4272" style="stop-color:#9F1D4E"/>
		<stop  offset="0.5462" style="stop-color:#AA1E46"/>
		<stop  offset="0.6399" style="stop-color:#B51F3C"/>
		<stop  offset="0.898" style="stop-color:#F15C25"/>
		<stop  offset="1" style="stop-color:#F9BB18"/>
	</linearGradient>
	<path id="XMLID_37_" class="st11" d="M80.5,44.7c-2,0-3.7,1.7-3.7,3.7c0,2,1.7,3.7,3.7,3.7c2,0,3.7-1.7,3.7-3.7
		C84.2,46.3,82.6,44.7,80.5,44.7z M80.5,50.5c-1.2,0-2.1-0.9-2.1-2.1c0-1.2,0.9-2.1,2.1-2.1s2.1,0.9,2.1,2.1
		C82.6,49.5,81.7,50.5,80.5,50.5z"/>
	<linearGradient id="XMLID_90_" gradientUnits="userSpaceOnUse" x1="71.5731" y1="57.8701" x2="83.3224" y2="45.3889">
		<stop  offset="0" style="stop-color:#651348"/>
		<stop  offset="0.2444" style="stop-color:#971C54"/>
		<stop  offset="0.3226" style="stop-color:#991D53"/>
		<stop  offset="0.4272" style="stop-color:#9F1D4E"/>
		<stop  offset="0.5462" style="stop-color:#AA1E46"/>
		<stop  offset="0.6399" style="stop-color:#B51F3C"/>
		<stop  offset="0.898" style="stop-color:#F15C25"/>
		<stop  offset="1" style="stop-color:#F9BB18"/>
	</linearGradient>
	<path id="XMLID_34_" class="st12" d="M80.5,44.7c-2,0-3.7,1.7-3.7,3.7s1.7,3.7,3.7,3.7c2,0,3.7-1.7,3.7-3.7S82.6,44.7,80.5,44.7z
		 M80.5,50.4c-1.2,0-2.1-0.9-2.1-2.1c0-1.2,0.9-2.1,2.1-2.1c1.2,0,2.1,0.9,2.1,2.1C82.6,49.5,81.7,50.4,80.5,50.4z"/>
	<linearGradient id="XMLID_91_" gradientUnits="userSpaceOnUse" x1="71.284" y1="57.5978" x2="83.0332" y2="45.1166">
		<stop  offset="0" style="stop-color:#651348"/>
		<stop  offset="0.2444" style="stop-color:#971C54"/>
		<stop  offset="0.3226" style="stop-color:#991D53"/>
		<stop  offset="0.4272" style="stop-color:#9F1D4E"/>
		<stop  offset="0.5462" style="stop-color:#AA1E46"/>
		<stop  offset="0.6399" style="stop-color:#B51F3C"/>
		<stop  offset="0.898" style="stop-color:#F15C25"/>
		<stop  offset="1" style="stop-color:#F9BB18"/>
	</linearGradient>
	<path id="XMLID_31_" class="st13" d="M79.6,44.9c-2.1,0-3.9,1.7-3.9,3.9c0,2.1,1.7,3.9,3.9,3.9c2.1,0,3.9-1.7,3.9-3.9
		C83.5,46.6,81.7,44.9,79.6,44.9z M79.6,51c-1.2,0-2.2-1-2.2-2.2c0-1.2,1-2.2,2.2-2.2c1.2,0,2.2,1,2.2,2.2C81.8,50,80.8,51,79.6,51z
		"/>
	<radialGradient id="XMLID_92_" cx="78.8029" cy="48.7337" r="4.2663" gradientUnits="userSpaceOnUse">
		<stop  offset="0.7204" style="stop-color:#FFFFFF"/>
		<stop  offset="0.8314" style="stop-color:#F8F8F7"/>
		<stop  offset="0.9505" style="stop-color:#EAEAEA"/>
		<stop  offset="1" style="stop-color:#E3E3E3"/>
	</radialGradient>
	<path id="XMLID_28_" class="st14" d="M78.8,44.5c-2.4,0-4.3,1.9-4.3,4.3c0,2.4,1.9,4.3,4.3,4.3s4.3-1.9,4.3-4.3
		C83.1,46.4,81.2,44.5,78.8,44.5z M78.8,51.1c-1.3,0-2.4-1.1-2.4-2.4c0-1.3,1.1-2.4,2.4-2.4s2.4,1.1,2.4,2.4
		C81.2,50.1,80.1,51.1,78.8,51.1z"/>
	<radialGradient id="XMLID_93_" cx="81.1527" cy="48.5989" r="4.2663" gradientUnits="userSpaceOnUse">
		<stop  offset="0.7204" style="stop-color:#FFFFFF"/>
		<stop  offset="0.8314" style="stop-color:#F8F8F7"/>
		<stop  offset="0.9505" style="stop-color:#EAEAEA"/>
		<stop  offset="1" style="stop-color:#E3E3E3"/>
	</radialGradient>
	<path id="XMLID_25_" class="st15" d="M81.2,44.3c-2.4,0-4.3,1.9-4.3,4.3c0,2.4,1.9,4.3,4.3,4.3c2.4,0,4.3-1.9,4.3-4.3
		C85.4,46.2,83.5,44.3,81.2,44.3z M81.2,51c-1.3,0-2.4-1.1-2.4-2.4c0-1.3,1.1-2.4,2.4-2.4c1.3,0,2.4,1.1,2.4,2.4
		C83.6,49.9,82.5,51,81.2,51z"/>
	<radialGradient id="XMLID_94_" cx="79.2073" cy="46.7113" r="4.2663" gradientUnits="userSpaceOnUse">
		<stop  offset="0.7688" style="stop-color:#010101"/>
		<stop  offset="1" style="stop-color:#575858"/>
	</radialGradient>
	<path id="XMLID_22_" class="st16" d="M79.2,42.4c-2.4,0-4.3,1.9-4.3,4.3s1.9,4.3,4.3,4.3c2.4,0,4.3-1.9,4.3-4.3
		S81.6,42.4,79.2,42.4z M79.2,49.1c-1.3,0-2.4-1.1-2.4-2.4c0-1.3,1.1-2.4,2.4-2.4s2.4,1.1,2.4,2.4C81.6,48,80.5,49.1,79.2,49.1z"/>
	<radialGradient id="XMLID_95_" cx="79.7082" cy="49.0804" r="3.3996" gradientUnits="userSpaceOnUse">
		<stop  offset="0.7688" style="stop-color:#010101"/>
		<stop  offset="1" style="stop-color:#333333"/>
	</radialGradient>
	<path id="XMLID_19_" class="st17" d="M79.7,45.7c-1.9,0-3.4,1.5-3.4,3.4c0,1.9,1.5,3.4,3.4,3.4c1.9,0,3.4-1.5,3.4-3.4
		C83.1,47.2,81.6,45.7,79.7,45.7z M79.7,51c-1.1,0-1.9-0.9-1.9-1.9c0-1.1,0.9-1.9,1.9-1.9c1.1,0,1.9,0.9,1.9,1.9
		C81.6,50.1,80.8,51,79.7,51z"/>
</g>
</svg>
