<?xml version="1.0" encoding="utf-8"?>
<!-- Generator: Adobe Illustrator 19.0.0, SVG Export Plug-In . SVG Version: 6.00 Build 0)  -->
<svg version="1.1" id="Layer_1" xmlns="http://www.w3.org/2000/svg" xmlns:xlink="http://www.w3.org/1999/xlink" x="0px" y="0px"
	 viewBox="0 0 182 176.5" style="enable-background:new 0 0 182 176.5;" xml:space="preserve">
<style type="text/css">
	.st0{clip-path:url(#SVGID_2_);}
	.st1{clip-path:url(#SVGID_4_);fill:url(#SVGID_5_);}
	.st2{clip-path:url(#SVGID_7_);fill:url(#SVGID_8_);}
	.st3{clip-path:url(#SVGID_10_);fill:url(#SVGID_11_);}
	.st4{clip-path:url(#SVGID_13_);}
	.st5{clip-path:url(#SVGID_15_);}
	.st6{clip-path:url(#SVGID_17_);fill:url(#SVGID_18_);}
	.st7{clip-path:url(#SVGID_20_);}
	.st8{clip-path:url(#SVGID_22_);fill:url(#SVGID_23_);}
	.st9{clip-path:url(#SVGID_25_);}
	.st10{clip-path:url(#SVGID_27_);fill:url(#SVGID_28_);}
	.st11{clip-path:url(#SVGID_30_);}
	.st12{clip-path:url(#SVGID_32_);fill:url(#SVGID_33_);}
	.st13{clip-path:url(#SVGID_35_);fill:url(#SVGID_36_);}
	.st14{clip-path:url(#SVGID_38_);fill:url(#SVGID_39_);}
	.st15{clip-path:url(#SVGID_41_);fill:url(#SVGID_42_);}
	.st16{clip-path:url(#SVGID_44_);fill:url(#SVGID_45_);}
	.st17{clip-path:url(#SVGID_47_);}
	.st18{clip-path:url(#SVGID_49_);}
	.st19{clip-path:url(#SVGID_51_);fill:url(#SVGID_52_);}
	.st20{clip-path:url(#SVGID_54_);}
	.st21{clip-path:url(#SVGID_56_);fill:url(#SVGID_57_);}
	.st22{clip-path:url(#SVGID_59_);}
	.st23{clip-path:url(#SVGID_61_);fill:url(#SVGID_62_);}
	.st24{clip-path:url(#SVGID_64_);}
	.st25{clip-path:url(#SVGID_66_);fill:url(#SVGID_67_);}
</style>
<g>
	<defs>
		<rect id="SVGID_1_" width="182" height="176.5"/>
	</defs>
	<clipPath id="SVGID_2_">
		<use xlink:href="#SVGID_1_"  style="overflow:visible;"/>
	</clipPath>
	<g class="st0">
		<defs>
			<path id="SVGID_3_" d="M50.5,87c0-21.6,17.5-39.1,39.1-39.1s39.1,17.5,39.1,39.1c0,8.8-2.9,16.9-7.8,23.5
				c-6.5,10.5-18.1,17.5-31.3,17.5c-13.2,0-24.8-7-31.3-17.4C53.4,103.9,50.5,95.8,50.5,87 M24.5,91.2c0,35.9,29.1,65.1,65.1,65.1
				c35.9,0,65.1-29.1,65.1-65.1c0-35.9-29.1-65.1-65.1-65.1C53.6,26.1,24.5,55.2,24.5,91.2"/>
		</defs>
		<clipPath id="SVGID_4_">
			<use xlink:href="#SVGID_3_"  style="overflow:visible;"/>
		</clipPath>
		
			<linearGradient id="SVGID_5_" gradientUnits="userSpaceOnUse" x1="0" y1="176.508" x2="1" y2="176.508" gradientTransform="matrix(196.4883 -208.7287 -208.7287 -196.4883 36783.2188 34930.7813)">
			<stop  offset="0" style="stop-color:#FF001C"/>
			<stop  offset="0.2194" style="stop-color:#FF009D"/>
			<stop  offset="0.2587" style="stop-color:#F9049F"/>
			<stop  offset="0.3112" style="stop-color:#E80FA3"/>
			<stop  offset="0.3714" style="stop-color:#CC22AA"/>
			<stop  offset="0.4371" style="stop-color:#A53CB4"/>
			<stop  offset="0.5074" style="stop-color:#735DC0"/>
			<stop  offset="0.5804" style="stop-color:#3786CF"/>
			<stop  offset="0.6399" style="stop-color:#00AADD"/>
			<stop  offset="0.898" style="stop-color:#E9D013"/>
			<stop  offset="1" style="stop-color:#FFD400"/>
		</linearGradient>
		<polygon class="st1" points="-40.5,95.1 85.6,-38.9 219.6,87.2 93.5,221.2 		"/>
	</g>
	<g class="st0">
		<defs>
			<path id="SVGID_6_" d="M52.8,91.2c0-20.3,16.4-36.7,36.7-36.7c12.1,0,22.8,5.8,29.5,14.9c9.7,6.2,16.2,17.1,16.2,29.4
				c0,19.3-15.6,34.9-34.9,34.9c-8,0-15.4-2.7-21.3-7.2C63.9,121.8,52.8,107.8,52.8,91.2 M38.5,98.7c0,24.2,13.9,45.2,34.2,55.3
				c5.4,1.4,11,2.2,16.8,2.2c35.9,0,65.1-29.1,65.1-65.1c0-13.8-4.3-26.6-11.7-37.2c-11.1-10.6-26.1-17-42.6-17
				C66.2,36.9,38.5,64.6,38.5,98.7"/>
		</defs>
		<clipPath id="SVGID_7_">
			<use xlink:href="#SVGID_6_"  style="overflow:visible;"/>
		</clipPath>
		
			<linearGradient id="SVGID_8_" gradientUnits="userSpaceOnUse" x1="0" y1="176.5327" x2="1" y2="176.5327" gradientTransform="matrix(196.4896 -208.73 -208.73 -196.4896 36795.0469 34941.9102)">
			<stop  offset="0" style="stop-color:#FF001C"/>
			<stop  offset="0.2194" style="stop-color:#FF009D"/>
			<stop  offset="0.2587" style="stop-color:#F9049F"/>
			<stop  offset="0.3112" style="stop-color:#E80FA3"/>
			<stop  offset="0.3714" style="stop-color:#CC22AA"/>
			<stop  offset="0.4371" style="stop-color:#A53CB4"/>
			<stop  offset="0.5074" style="stop-color:#735DC0"/>
			<stop  offset="0.5804" style="stop-color:#3786CF"/>
			<stop  offset="0.6399" style="stop-color:#00AADD"/>
			<stop  offset="0.898" style="stop-color:#E9D013"/>
			<stop  offset="1" style="stop-color:#FFD400"/>
		</linearGradient>
		<polygon class="st2" points="-21,100.2 93.1,-21 214.1,93 100.1,214.2 		"/>
	</g>
	<g class="st0">
		<defs>
			<path id="SVGID_9_" d="M89.5,54.4c20.3,0,36.7,16.4,36.7,36.7c0,7-2,13.6-5.4,19.2c-2.2,18.2-17.7,32.3-36.5,32.3
				c-20.3,0-36.7-16.4-36.7-36.7c0-7,2-13.6,5.4-19.2C55.3,68.6,70.7,54.4,89.5,54.4 M26,77.3c-1,4.5-1.5,9.1-1.5,13.8
				c0,35.9,29.1,65.1,65.1,65.1c25.7,0,47.8-14.9,58.4-36.4c1-4.5,1.5-9.1,1.5-13.8c0-35.9-29.1-65.1-65.1-65.1
				C58.7,40.9,36.5,55.8,26,77.3"/>
		</defs>
		<clipPath id="SVGID_10_">
			<use xlink:href="#SVGID_9_"  style="overflow:visible;"/>
		</clipPath>
		
			<linearGradient id="SVGID_11_" gradientUnits="userSpaceOnUse" x1="0" y1="176.5292" x2="1" y2="176.5292" gradientTransform="matrix(196.4889 -208.7293 -208.7293 -196.4889 36790.082 34937.2383)">
			<stop  offset="0" style="stop-color:#660047"/>
			<stop  offset="0.2444" style="stop-color:#961152"/>
			<stop  offset="0.3869" style="stop-color:#9C134D"/>
			<stop  offset="0.5758" style="stop-color:#AD1941"/>
			<stop  offset="0.6399" style="stop-color:#B41C3B"/>
			<stop  offset="0.898" style="stop-color:#F15A22"/>
			<stop  offset="1" style="stop-color:#FABB16"/>
		</linearGradient>
		<polygon class="st3" points="-33.1,102 83.2,-21.5 207,95.1 90.7,218.6 		"/>
	</g>
	<g class="st0">
		<defs>
			<path id="SVGID_12_" d="M52.8,91.2c0-20.3,16.4-36.7,36.7-36.7s36.7,16.4,36.7,36.7c0,20.3-16.4,36.7-36.7,36.7
				S52.8,111.4,52.8,91.2 M24.5,91.2c0,35.9,29.1,65.1,65.1,65.1c35.9,0,65.1-29.1,65.1-65.1c0-35.9-29.1-65.1-65.1-65.1
				C53.6,26.1,24.5,55.2,24.5,91.2"/>
		</defs>
		<clipPath id="SVGID_13_">
			<use xlink:href="#SVGID_12_"  style="overflow:visible;"/>
		</clipPath>
		<g class="st4">
			<g>
				<defs>
					<rect id="SVGID_14_" y="33.8" width="142.7" height="142.7"/>
				</defs>
				<clipPath id="SVGID_15_">
					<use xlink:href="#SVGID_14_"  style="overflow:visible;"/>
				</clipPath>
				<g class="st5">
					<defs>
						<path id="SVGID_16_" d="M71.3,33.8C31.9,33.8,0,65.8,0,105.2c0,39.4,31.9,71.3,71.3,71.3c39.4,0,71.3-31.9,71.3-71.3
							C142.7,65.8,110.8,33.8,71.3,33.8 M71.3,145.4c-22.2,0-40.3-18-40.3-40.3c0-22.2,18-40.3,40.3-40.3c22.2,0,40.3,18,40.3,40.3
							C111.6,127.4,93.6,145.4,71.3,145.4"/>
					</defs>
					<clipPath id="SVGID_17_">
						<use xlink:href="#SVGID_16_"  style="overflow:visible;"/>
					</clipPath>
					
						<radialGradient id="SVGID_18_" cx="4.811962e-006" cy="176.518" r="1" gradientTransform="matrix(71.3478 0 0 -71.3478 71.3476 12699.3359)" gradientUnits="userSpaceOnUse">
						<stop  offset="0" style="stop-color:#FFFFFF"/>
						<stop  offset="0.7204" style="stop-color:#FFFFFF"/>
						<stop  offset="0.8247" style="stop-color:#FBFBFB"/>
						<stop  offset="0.9363" style="stop-color:#EEEEEE"/>
						<stop  offset="1" style="stop-color:#E3E3E3"/>
					</radialGradient>
					<rect y="33.8" class="st6" width="142.7" height="142.7"/>
				</g>
			</g>
		</g>
		<g class="st4">
			<g>
				<defs>
					<rect id="SVGID_19_" x="39.3" y="31.6" width="142.7" height="142.7"/>
				</defs>
				<clipPath id="SVGID_20_">
					<use xlink:href="#SVGID_19_"  style="overflow:visible;"/>
				</clipPath>
				<g class="st7">
					<defs>
						<path id="SVGID_21_" d="M110.6,31.6c-39.4,0-71.3,31.9-71.3,71.3c0,39.4,31.9,71.3,71.3,71.3c39.4,0,71.3-31.9,71.3-71.3
							C182,63.5,150.1,31.6,110.6,31.6 M110.6,143.2c-22.2,0-40.3-18-40.3-40.3c0-22.2,18-40.3,40.3-40.3c22.2,0,40.3,18,40.3,40.3
							C150.9,125.2,132.9,143.2,110.6,143.2"/>
					</defs>
					<clipPath id="SVGID_22_">
						<use xlink:href="#SVGID_21_"  style="overflow:visible;"/>
					</clipPath>
					
						<radialGradient id="SVGID_23_" cx="-5.346556e-008" cy="176.518" r="1" gradientTransform="matrix(71.3483 0 0 -71.3483 110.6455 12697.166)" gradientUnits="userSpaceOnUse">
						<stop  offset="0" style="stop-color:#FFFFFF"/>
						<stop  offset="0.7204" style="stop-color:#FFFFFF"/>
						<stop  offset="0.8247" style="stop-color:#FBFBFB"/>
						<stop  offset="0.9363" style="stop-color:#EEEEEE"/>
						<stop  offset="1" style="stop-color:#E3E3E3"/>
					</radialGradient>
					<rect x="39.3" y="31.6" class="st8" width="142.7" height="142.7"/>
				</g>
			</g>
		</g>
		<g class="st4">
			<g>
				<defs>
					<rect id="SVGID_24_" x="6.8" width="142.7" height="142.7"/>
				</defs>
				<clipPath id="SVGID_25_">
					<use xlink:href="#SVGID_24_"  style="overflow:visible;"/>
				</clipPath>
				<g class="st9">
					<defs>
						<path id="SVGID_26_" d="M78.1,0C38.7,0,6.8,31.9,6.8,71.3s31.9,71.3,71.3,71.3c39.4,0,71.3-31.9,71.3-71.3S117.5,0,78.1,0
							 M78.1,111.6c-22.2,0-40.3-18-40.3-40.3c0-22.2,18-40.3,40.3-40.3c22.2,0,40.3,18,40.3,40.3
							C118.4,93.6,100.3,111.6,78.1,111.6"/>
					</defs>
					<clipPath id="SVGID_27_">
						<use xlink:href="#SVGID_26_"  style="overflow:visible;"/>
					</clipPath>
					
						<radialGradient id="SVGID_28_" cx="1.924782e-006" cy="176.518" r="1" gradientTransform="matrix(71.3479 0 0 -71.3479 78.1114 12665.5371)" gradientUnits="userSpaceOnUse">
						<stop  offset="0" style="stop-color:#000000"/>
						<stop  offset="0.7688" style="stop-color:#000000"/>
						<stop  offset="1" style="stop-color:#575757"/>
					</radialGradient>
					<rect x="6.8" class="st10" width="142.7" height="142.7"/>
				</g>
			</g>
		</g>
		<g class="st4">
			<g>
				<defs>
					<rect id="SVGID_29_" x="29.6" y="54.1" width="113.7" height="113.7"/>
				</defs>
				<clipPath id="SVGID_30_">
					<use xlink:href="#SVGID_29_"  style="overflow:visible;"/>
				</clipPath>
				<g class="st11">
					<defs>
						<path id="SVGID_31_" d="M86.5,54.1c-31.4,0-56.9,25.5-56.9,56.9c0,31.4,25.5,56.9,56.9,56.9c31.4,0,56.9-25.5,56.9-56.9
							C143.3,79.6,117.9,54.1,86.5,54.1 M86.5,143.1c-17.7,0-32.1-14.4-32.1-32.1c0-17.7,14.4-32.1,32.1-32.1
							c17.7,0,32.1,14.4,32.1,32.1C118.6,128.7,104.2,143.1,86.5,143.1"/>
					</defs>
					<clipPath id="SVGID_32_">
						<use xlink:href="#SVGID_31_"  style="overflow:visible;"/>
					</clipPath>
					
						<radialGradient id="SVGID_33_" cx="3.522636e-006" cy="176.518" r="1" gradientTransform="matrix(56.8528 0 0 -56.8528 86.4873 10146.5068)" gradientUnits="userSpaceOnUse">
						<stop  offset="0" style="stop-color:#000000"/>
						<stop  offset="0.7688" style="stop-color:#000000"/>
						<stop  offset="1" style="stop-color:#333333"/>
					</radialGradient>
					<rect x="29.6" y="54.1" class="st12" width="113.7" height="113.7"/>
				</g>
			</g>
		</g>
	</g>
	<g class="st0">
		<defs>
			<path id="SVGID_34_" d="M50.5,87c0-21.6,17.5-39.1,39.1-39.1s39.1,17.5,39.1,39.1c0,8.8-2.9,16.9-7.8,23.5
				c-6.5,10.5-18.1,17.5-31.3,17.5c-13.2,0-24.8-7-31.3-17.4C53.4,103.9,50.5,95.8,50.5,87 M24.5,91.2c0,35.9,29.1,65.1,65.1,65.1
				c35.9,0,65.1-29.1,65.1-65.1c0-35.9-29.1-65.1-65.1-65.1C53.6,26.1,24.5,55.2,24.5,91.2"/>
		</defs>
		<clipPath id="SVGID_35_">
			<use xlink:href="#SVGID_34_"  style="overflow:visible;"/>
		</clipPath>
		
			<linearGradient id="SVGID_36_" gradientUnits="userSpaceOnUse" x1="0" y1="176.508" x2="1" y2="176.508" gradientTransform="matrix(196.5983 -208.6251 -208.6251 -196.5983 36764.8477 34950.1172)">
			<stop  offset="0" style="stop-color:#660047"/>
			<stop  offset="0.2444" style="stop-color:#961152"/>
			<stop  offset="0.3869" style="stop-color:#9C134D"/>
			<stop  offset="0.5758" style="stop-color:#AD1941"/>
			<stop  offset="0.6399" style="stop-color:#B41C3B"/>
			<stop  offset="0.898" style="stop-color:#F15A22"/>
			<stop  offset="1" style="stop-color:#FABB16"/>
		</linearGradient>
		<polygon class="st13" points="-40.5,95 85.7,-38.9 219.6,87.3 93.4,221.2 		"/>
	</g>
	<g class="st0">
		<defs>
			<path id="SVGID_37_" d="M52.8,91.2c0-20.3,16.4-36.7,36.7-36.7c12.4,0,23.4,6.1,30,15.6c9.4,6.2,15.7,16.9,15.7,29.1
				c0,19.3-15.6,34.9-34.9,34.9c-8.4,0-16-2.9-22-7.8C63.5,121.4,52.8,107.5,52.8,91.2 M38.5,99.1c0,23.6,13.2,44.1,32.7,54.5
				c5.8,1.7,12,2.6,18.3,2.6c35.9,0,65.1-29.1,65.1-65.1c0-13.4-4-25.8-10.9-36.1c-11.2-11-26.5-17.8-43.4-17.8
				C66.2,37.3,38.5,65,38.5,99.1"/>
		</defs>
		<clipPath id="SVGID_38_">
			<use xlink:href="#SVGID_37_"  style="overflow:visible;"/>
		</clipPath>
		
			<linearGradient id="SVGID_39_" gradientUnits="userSpaceOnUse" x1="0" y1="176.535" x2="1" y2="176.535" gradientTransform="matrix(175.4181 -186.1492 -186.1492 -175.4181 32824.4883 31206.3203)">
			<stop  offset="0" style="stop-color:#660047"/>
			<stop  offset="0.2444" style="stop-color:#961152"/>
			<stop  offset="0.3869" style="stop-color:#9C134D"/>
			<stop  offset="0.5758" style="stop-color:#AD1941"/>
			<stop  offset="0.6399" style="stop-color:#B41C3B"/>
			<stop  offset="0.898" style="stop-color:#F15A22"/>
			<stop  offset="1" style="stop-color:#FABB16"/>
		</linearGradient>
		<polygon class="st14" points="-20.8,100.3 93.1,-20.6 214,93.2 100,214.2 		"/>
	</g>
	<g class="st0">
		<defs>
			<path id="SVGID_40_" d="M52.8,91.2c0-20.3,16.4-36.7,36.7-36.7c12.1,0,22.8,5.8,29.5,14.9c9.7,6.2,16.2,17.1,16.2,29.4
				c0,19.3-15.6,34.9-34.9,34.9c-8,0-15.4-2.7-21.3-7.2C63.9,121.8,52.8,107.8,52.8,91.2 M38.5,98.7c0,24.2,13.9,45.2,34.2,55.3
				c5.4,1.4,11,2.2,16.8,2.2c35.9,0,65.1-29.1,65.1-65.1c0-13.8-4.3-26.6-11.7-37.2c-11.1-10.6-26.1-17-42.6-17
				C66.2,36.9,38.5,64.6,38.5,98.7"/>
		</defs>
		<clipPath id="SVGID_41_">
			<use xlink:href="#SVGID_40_"  style="overflow:visible;"/>
		</clipPath>
		
			<linearGradient id="SVGID_42_" gradientUnits="userSpaceOnUse" x1="0" y1="176.5327" x2="1" y2="176.5327" gradientTransform="matrix(196.4896 -208.73 -208.73 -196.4896 36795.0469 34941.9102)">
			<stop  offset="0" style="stop-color:#660047"/>
			<stop  offset="0.2444" style="stop-color:#961152"/>
			<stop  offset="0.3869" style="stop-color:#9C134D"/>
			<stop  offset="0.5758" style="stop-color:#AD1941"/>
			<stop  offset="0.6399" style="stop-color:#B41C3B"/>
			<stop  offset="0.898" style="stop-color:#F15A22"/>
			<stop  offset="1" style="stop-color:#FABB16"/>
		</linearGradient>
		<polygon class="st15" points="-21,100.2 93.1,-21 214.1,93 100.1,214.2 		"/>
	</g>
	<g class="st0">
		<defs>
			<path id="SVGID_43_" d="M89.5,54.4c20.3,0,36.7,16.4,36.7,36.7c0,7-2,13.6-5.4,19.2c-2.2,18.2-17.7,32.3-36.5,32.3
				c-20.3,0-36.7-16.4-36.7-36.7c0-7,2-13.6,5.4-19.2C55.3,68.6,70.7,54.4,89.5,54.4 M26,77.3c-1,4.5-1.5,9.1-1.5,13.8
				c0,35.9,29.1,65.1,65.1,65.1c25.7,0,47.8-14.9,58.4-36.4c1-4.5,1.5-9.1,1.5-13.8c0-35.9-29.1-65.1-65.1-65.1
				C58.7,40.9,36.5,55.8,26,77.3"/>
		</defs>
		<clipPath id="SVGID_44_">
			<use xlink:href="#SVGID_43_"  style="overflow:visible;"/>
		</clipPath>
		
			<linearGradient id="SVGID_45_" gradientUnits="userSpaceOnUse" x1="0" y1="176.5292" x2="1" y2="176.5292" gradientTransform="matrix(196.4889 -208.7293 -208.7293 -196.4889 36790.082 34937.2383)">
			<stop  offset="0" style="stop-color:#660047"/>
			<stop  offset="0.2444" style="stop-color:#961152"/>
			<stop  offset="0.3869" style="stop-color:#9C134D"/>
			<stop  offset="0.5758" style="stop-color:#AD1941"/>
			<stop  offset="0.6399" style="stop-color:#B41C3B"/>
			<stop  offset="0.898" style="stop-color:#F15A22"/>
			<stop  offset="1" style="stop-color:#FABB16"/>
		</linearGradient>
		<polygon class="st16" points="-33.1,102 83.2,-21.5 207,95.1 90.7,218.6 		"/>
	</g>
	<g class="st0">
		<defs>
			<path id="SVGID_46_" d="M52.8,91.2c0-20.3,16.4-36.7,36.7-36.7s36.7,16.4,36.7,36.7c0,20.3-16.4,36.7-36.7,36.7
				S52.8,111.4,52.8,91.2 M24.5,91.2c0,35.9,29.1,65.1,65.1,65.1c35.9,0,65.1-29.1,65.1-65.1c0-35.9-29.1-65.1-65.1-65.1
				C53.6,26.1,24.5,55.2,24.5,91.2"/>
		</defs>
		<clipPath id="SVGID_47_">
			<use xlink:href="#SVGID_46_"  style="overflow:visible;"/>
		</clipPath>
		<g class="st17">
			<g>
				<defs>
					<rect id="SVGID_48_" y="33.8" width="142.7" height="142.7"/>
				</defs>
				<clipPath id="SVGID_49_">
					<use xlink:href="#SVGID_48_"  style="overflow:visible;"/>
				</clipPath>
				<g class="st18">
					<defs>
						<path id="SVGID_50_" d="M71.3,33.8C31.9,33.8,0,65.8,0,105.2c0,39.4,31.9,71.3,71.3,71.3c39.4,0,71.3-31.9,71.3-71.3
							C142.7,65.8,110.8,33.8,71.3,33.8 M71.3,145.4c-22.2,0-40.3-18-40.3-40.3c0-22.2,18-40.3,40.3-40.3c22.2,0,40.3,18,40.3,40.3
							C111.6,127.4,93.6,145.4,71.3,145.4"/>
					</defs>
					<clipPath id="SVGID_51_">
						<use xlink:href="#SVGID_50_"  style="overflow:visible;"/>
					</clipPath>
					
						<radialGradient id="SVGID_52_" cx="4.811962e-006" cy="176.518" r="1" gradientTransform="matrix(71.3478 0 0 -71.3478 71.3476 12699.3359)" gradientUnits="userSpaceOnUse">
						<stop  offset="0" style="stop-color:#FFFFFF"/>
						<stop  offset="0.7204" style="stop-color:#FFFFFF"/>
						<stop  offset="0.8247" style="stop-color:#FBFBFB"/>
						<stop  offset="0.9363" style="stop-color:#EEEEEE"/>
						<stop  offset="1" style="stop-color:#E3E3E3"/>
					</radialGradient>
					<rect y="33.8" class="st19" width="142.7" height="142.7"/>
				</g>
			</g>
		</g>
		<g class="st17">
			<g>
				<defs>
					<rect id="SVGID_53_" x="39.3" y="31.6" width="142.7" height="142.7"/>
				</defs>
				<clipPath id="SVGID_54_">
					<use xlink:href="#SVGID_53_"  style="overflow:visible;"/>
				</clipPath>
				<g class="st20">
					<defs>
						<path id="SVGID_55_" d="M110.6,31.6c-39.4,0-71.3,31.9-71.3,71.3c0,39.4,31.9,71.3,71.3,71.3c39.4,0,71.3-31.9,71.3-71.3
							C182,63.5,150.1,31.6,110.6,31.6 M110.6,143.2c-22.2,0-40.3-18-40.3-40.3c0-22.2,18-40.3,40.3-40.3c22.2,0,40.3,18,40.3,40.3
							C150.9,125.2,132.9,143.2,110.6,143.2"/>
					</defs>
					<clipPath id="SVGID_56_">
						<use xlink:href="#SVGID_55_"  style="overflow:visible;"/>
					</clipPath>
					
						<radialGradient id="SVGID_57_" cx="-5.346556e-008" cy="176.518" r="1" gradientTransform="matrix(71.3483 0 0 -71.3483 110.6455 12697.166)" gradientUnits="userSpaceOnUse">
						<stop  offset="0" style="stop-color:#FFFFFF"/>
						<stop  offset="0.7204" style="stop-color:#FFFFFF"/>
						<stop  offset="0.8247" style="stop-color:#FBFBFB"/>
						<stop  offset="0.9363" style="stop-color:#EEEEEE"/>
						<stop  offset="1" style="stop-color:#E3E3E3"/>
					</radialGradient>
					<rect x="39.3" y="31.6" class="st21" width="142.7" height="142.7"/>
				</g>
			</g>
		</g>
		<g class="st17">
			<g>
				<defs>
					<rect id="SVGID_58_" x="6.8" width="142.7" height="142.7"/>
				</defs>
				<clipPath id="SVGID_59_">
					<use xlink:href="#SVGID_58_"  style="overflow:visible;"/>
				</clipPath>
				<g class="st22">
					<defs>
						<path id="SVGID_60_" d="M78.1,0C38.7,0,6.8,31.9,6.8,71.3s31.9,71.3,71.3,71.3c39.4,0,71.3-31.9,71.3-71.3S117.5,0,78.1,0
							 M78.1,111.6c-22.2,0-40.3-18-40.3-40.3c0-22.2,18-40.3,40.3-40.3c22.2,0,40.3,18,40.3,40.3
							C118.4,93.6,100.3,111.6,78.1,111.6"/>
					</defs>
					<clipPath id="SVGID_61_">
						<use xlink:href="#SVGID_60_"  style="overflow:visible;"/>
					</clipPath>
					
						<radialGradient id="SVGID_62_" cx="1.924782e-006" cy="176.518" r="1" gradientTransform="matrix(71.3479 0 0 -71.3479 78.1114 12665.5371)" gradientUnits="userSpaceOnUse">
						<stop  offset="0" style="stop-color:#000000"/>
						<stop  offset="0.7688" style="stop-color:#000000"/>
						<stop  offset="1" style="stop-color:#575757"/>
					</radialGradient>
					<rect x="6.8" class="st23" width="142.7" height="142.7"/>
				</g>
			</g>
		</g>
		<g class="st17">
			<g>
				<defs>
					<rect id="SVGID_63_" x="29.6" y="54.1" width="113.7" height="113.7"/>
				</defs>
				<clipPath id="SVGID_64_">
					<use xlink:href="#SVGID_63_"  style="overflow:visible;"/>
				</clipPath>
				<g class="st24">
					<defs>
						<path id="SVGID_65_" d="M86.5,54.1c-31.4,0-56.9,25.5-56.9,56.9c0,31.4,25.5,56.9,56.9,56.9c31.4,0,56.9-25.5,56.9-56.9
							C143.3,79.6,117.9,54.1,86.5,54.1 M86.5,143.1c-17.7,0-32.1-14.4-32.1-32.1c0-17.7,14.4-32.1,32.1-32.1
							c17.7,0,32.1,14.4,32.1,32.1C118.6,128.7,104.2,143.1,86.5,143.1"/>
					</defs>
					<clipPath id="SVGID_66_">
						<use xlink:href="#SVGID_65_"  style="overflow:visible;"/>
					</clipPath>
					
						<radialGradient id="SVGID_67_" cx="3.522636e-006" cy="176.518" r="1" gradientTransform="matrix(56.8528 0 0 -56.8528 86.4873 10146.5068)" gradientUnits="userSpaceOnUse">
						<stop  offset="0" style="stop-color:#000000"/>
						<stop  offset="0.7688" style="stop-color:#000000"/>
						<stop  offset="1" style="stop-color:#333333"/>
					</radialGradient>
					<rect x="29.6" y="54.1" class="st25" width="113.7" height="113.7"/>
				</g>
			</g>
		</g>
	</g>
</g>
</svg>
