<svg width="64" height="64" viewBox="0 0 64 64" fill="none" xmlns="http://www.w3.org/2000/svg">
<path fill-rule="evenodd" clip-rule="evenodd" d="M40.543 32.9072C38.3156 33.809 35.9113 34.3652 33.3967 34.5094C32.963 34.5342 32.526 34.5468 32.0861 34.5468C31.6462 34.5468 31.2092 34.5342 30.7756 34.5094C28.2603 34.3652 25.8555 33.8087 23.6277 32.9065C18.9525 31.0132 15.0568 27.5971 12.5557 23.2734C16.4541 16.5341 23.7406 12 32.0861 12C40.4316 12 47.7181 16.5341 51.6166 23.2734C49.1152 27.5976 45.2189 31.0139 40.543 32.9072Z" fill="#5A189A"/>
<path d="M23.6272 34.6616C23.0886 34.4434 22.5604 34.2051 22.0434 33.9475C20.3633 35.131 18.943 36.6051 17.8735 38.2868C19.6914 41.1454 22.5228 43.4038 25.9207 44.6556C27.5399 45.2521 29.2877 45.62 31.1158 45.7153H33.0208C34.8485 45.62 38.0608 47.4306 33.3962 51.9999C36.7946 50.7483 44.445 41.1457 46.263 38.2868C45.1966 36.6099 43.7813 35.1394 42.1075 33.9576C41.5965 34.2116 41.0745 34.4468 40.5425 34.6622C38.3151 35.564 35.9108 36.1203 33.3962 36.2644C32.9625 36.2892 32.5255 36.3018 32.0856 36.3018C31.6457 36.3018 31.2088 36.2892 30.7751 36.2644C28.2598 36.1202 25.855 35.5638 23.6272 34.6616Z" fill="#5A189A"/>
<rect x="22.6685" y="20.3896" width="18.8764" height="6.74157" rx="3.37078" fill="white"/>
<ellipse cx="37.3121" cy="23.7229" rx="1.23596" ry="1.23595" fill="#162550"/>
<circle cx="32.0685" cy="40.352" r="1.23596" fill="white"/>
<ellipse cx="27.1251" cy="23.7229" rx="1.23596" ry="1.23595" fill="#162550"/>
<ellipse cx="27.1251" cy="40.352" rx="1.23596" ry="1.23596" fill="white"/>
<circle cx="37.0128" cy="40.352" r="1.23596" fill="white"/>
</svg>
