<svg width="64" height="64" viewBox="0 0 64 64" fill="none" xmlns="http://www.w3.org/2000/svg">
<g clip-path="url(#clip0_7_125)">
<mask id="mask0_7_125" style="mask-type:luminance" maskUnits="userSpaceOnUse" x="0" y="0" width="64" height="64">
<path d="M64 0H0V64H64V0Z" fill="white"/>
</mask>
<g mask="url(#mask0_7_125)">
<path fill-rule="evenodd" clip-rule="evenodd" d="M40.543 32.9072C38.3156 33.809 35.9113 34.3652 33.3967 34.5094C32.963 34.5342 32.526 34.5468 32.0861 34.5468C31.6462 34.5468 31.2092 34.5342 30.7756 34.5094C28.2603 34.3652 25.8555 33.8087 23.6277 32.9065C18.9525 31.0132 15.0568 27.5971 12.5557 23.2734C16.4541 16.5341 23.7406 12 32.0861 12C40.4316 12 47.7181 16.5341 51.6166 23.2734C49.1152 27.5976 45.2189 31.0139 40.543 32.9072Z" fill="white"/>
<path d="M23.6272 34.6616C23.0886 34.4434 22.5604 34.2051 22.0434 33.9475C20.3633 35.131 18.943 36.6051 17.8735 38.2868C19.6914 41.1454 22.5228 43.4038 25.9207 44.6556C27.5399 45.2521 29.2877 45.62 31.1158 45.7153H33.0208C34.8485 45.62 38.0608 47.4306 33.3962 51.9999C36.7946 50.7483 44.445 41.1457 46.263 38.2868C45.1966 36.6099 43.7813 35.1394 42.1075 33.9576C41.5965 34.2116 41.0745 34.4468 40.5425 34.6622C38.3151 35.564 35.9108 36.1203 33.3962 36.2644C32.9625 36.2892 32.5255 36.3018 32.0856 36.3018C31.6457 36.3018 31.2088 36.2892 30.7751 36.2644C28.2598 36.1202 25.855 35.5638 23.6272 34.6616Z" fill="white"/>
<path d="M38.1741 20.3896H26.0393C24.1777 20.3896 22.6685 21.8988 22.6685 23.7604C22.6685 25.622 24.1777 27.1312 26.0393 27.1312H38.1741C40.0358 27.1312 41.5449 25.622 41.5449 23.7604C41.5449 21.8988 40.0358 20.3896 38.1741 20.3896Z" fill="#162550"/>
<path d="M37.3121 24.9589C37.9947 24.9589 38.5481 24.4055 38.5481 23.7229C38.5481 23.0403 37.9947 22.487 37.3121 22.487C36.6295 22.487 36.0761 23.0403 36.0761 23.7229C36.0761 24.4055 36.6295 24.9589 37.3121 24.9589Z" fill="#04FED1"/>
<path d="M32.0685 41.588C32.7511 41.588 33.3045 41.0346 33.3045 40.352C33.3045 39.6694 32.7511 39.116 32.0685 39.116C31.3859 39.116 30.8325 39.6694 30.8325 40.352C30.8325 41.0346 31.3859 41.588 32.0685 41.588Z" fill="#162550"/>
<path d="M27.1251 24.9589C27.8077 24.9589 28.3611 24.4055 28.3611 23.7229C28.3611 23.0403 27.8077 22.487 27.1251 22.487C26.4425 22.487 25.8891 23.0403 25.8891 23.7229C25.8891 24.4055 26.4425 24.9589 27.1251 24.9589Z" fill="#04FED1"/>
<path d="M27.1251 41.588C27.8077 41.588 28.3611 41.0346 28.3611 40.352C28.3611 39.6694 27.8077 39.116 27.1251 39.116C26.4425 39.116 25.8891 39.6694 25.8891 40.352C25.8891 41.0346 26.4425 41.588 27.1251 41.588Z" fill="#162550"/>
<path d="M37.0128 41.588C37.6954 41.588 38.2488 41.0346 38.2488 40.352C38.2488 39.6694 37.6954 39.116 37.0128 39.116C36.3302 39.116 35.7768 39.6694 35.7768 40.352C35.7768 41.0346 36.3302 41.588 37.0128 41.588Z" fill="#162550"/>
</g>
</g>
<defs>
<clipPath id="clip0_7_125">
<rect width="64" height="64" fill="white"/>
</clipPath>
</defs>
</svg>
