<?xml version="1.0" encoding="utf-8"?>
<!-- Generator: Adobe Illustrator 19.0.0, SVG Export Plug-In . SVG Version: 6.00 Build 0)  -->
<svg version="1.1" id="Layer_1" xmlns="http://www.w3.org/2000/svg" xmlns:xlink="http://www.w3.org/1999/xlink" x="0px" y="0px"
	 viewBox="0 0 121.4 108.5" style="enable-background:new 0 0 121.4 108.5;" xml:space="preserve">
<style type="text/css">
	.st0{fill:#FFFFFF;}
</style>
<g id="XMLID_9_">
	<g id="XMLID_101_">
		<path id="XMLID_105_" class="st0" d="M52,67.3H17.4L10.8,83H5.4l28.3-67h2.1L64,83h-5.5L52,67.3z M19.3,62.6H50L34.7,25.3
			L19.3,62.6z"/>
		<path id="XMLID_102_" class="st0" d="M106.5,38.6c3.3,3.3,5,8,5,14.1V83h-4.8v-7.5C102.8,81.2,97,84,89.4,84
			c-4.7,0-8.6-1.2-11.8-3.5s-4.8-5.5-4.8-9.7c0-3.9,1.5-7.1,4.6-9.4c3.1-2.3,7.1-3.5,12.2-3.5h16.8v-5.5c0-4.6-1.2-8.1-3.6-10.5
			c-2.4-2.4-5.6-3.6-9.7-3.6c-5.6,0-10.5,2.7-14.7,8.1l-3.5-2.8c4.7-6.7,10.8-10,18.5-10C98.8,33.7,103.2,35.3,106.5,38.6z
			 M101.5,75.4c3.2-2.8,4.9-6.3,4.9-10.4v-2.7H90c-3.9,0-6.9,0.7-9,2.2c-2.1,1.4-3.1,3.5-3.1,6.2c0,2.9,1.2,5.2,3.5,6.7
			c2.3,1.5,5.1,2.3,8.4,2.3C94.4,79.6,98.3,78.2,101.5,75.4z"/>
	</g>
</g>
<g id="XMLID_28_">
</g>
<g id="XMLID_35_">
</g>
<g id="XMLID_36_">
</g>
<g id="XMLID_37_">
</g>
<g id="XMLID_38_">
</g>
<g id="XMLID_39_">
</g>
<g id="XMLID_40_">
</g>
<g id="XMLID_41_">
</g>
<g id="XMLID_42_">
</g>
<g id="XMLID_43_">
</g>
<g id="XMLID_44_">
</g>
<g id="XMLID_45_">
</g>
<g id="XMLID_46_">
</g>
<g id="XMLID_47_">
</g>
<g id="XMLID_48_">
</g>
</svg>
