<?xml version="1.0" encoding="utf-8"?>
<!-- Generator: Adobe Illustrator 19.0.0, SVG Export Plug-In . SVG Version: 6.00 Build 0)  -->
<svg version="1.1" id="Layer_1" xmlns="http://www.w3.org/2000/svg" xmlns:xlink="http://www.w3.org/1999/xlink" x="0px" y="0px"
	 viewBox="0 0 121.4 108.5" style="enable-background:new 0 0 121.4 108.5;" xml:space="preserve">
<style type="text/css">
	.st0{fill:#FFFFFF;}
</style>
<g id="XMLID_9_">
	<g id="XMLID_101_">
		<path id="XMLID_105_" class="st0" d="M50.4,69.6H18.2L12.5,83H4.2l28.6-67.1h2.9L64.4,83h-8.3L50.4,69.6z M34.3,30.2L21.1,62.6
			h26.4L34.3,30.2z"/>
		<path id="XMLID_102_" class="st0" d="M107.3,38.3c3.5,3.4,5.2,8.3,5.2,14.7v30h-7.2v-6.3c-3.7,4.9-9.1,7.4-16.4,7.4
			c-5,0-9.1-1.2-12.3-3.7c-3.2-2.5-4.8-5.8-4.8-10c0-4.1,1.6-7.4,4.8-9.9s7.4-3.7,12.7-3.7h15.4v-4.2c0-4-1-7.1-3.2-9.2
			c-2.1-2.1-5-3.2-8.7-3.2c-5.5,0-10.2,2.6-14.2,7.8l-5.1-4.2c4.5-7.1,11.1-10.7,19.8-10.7C99.2,33.2,103.8,34.9,107.3,38.3z
			 M100.4,73.8c2.9-2.6,4.4-5.8,4.4-9.5v-1.2H90.3c-7,0-10.5,2.3-10.5,6.9c0,2.5,1,4.4,2.9,5.7c1.9,1.3,4.3,2,7.2,2
			C93.9,77.7,97.4,76.4,100.4,73.8z"/>
	</g>
</g>
<g id="XMLID_28_">
</g>
<g id="XMLID_35_">
</g>
<g id="XMLID_36_">
</g>
<g id="XMLID_37_">
</g>
<g id="XMLID_38_">
</g>
<g id="XMLID_39_">
</g>
<g id="XMLID_40_">
</g>
<g id="XMLID_41_">
</g>
<g id="XMLID_42_">
</g>
<g id="XMLID_43_">
</g>
<g id="XMLID_44_">
</g>
<g id="XMLID_45_">
</g>
<g id="XMLID_46_">
</g>
<g id="XMLID_47_">
</g>
<g id="XMLID_48_">
</g>
</svg>
