<?xml version="1.0" encoding="utf-8"?>
<!-- Generator: Adobe Illustrator 19.0.0, SVG Export Plug-In . SVG Version: 6.00 Build 0)  -->
<svg version="1.1" id="Layer_1" xmlns="http://www.w3.org/2000/svg" xmlns:xlink="http://www.w3.org/1999/xlink" x="0px" y="0px"
	 viewBox="0 0 121.4 108.5" style="enable-background:new 0 0 121.4 108.5;" xml:space="preserve">
<style type="text/css">
	.st0{fill:#FFFFFF;}
</style>
<g id="XMLID_9_">
	<g id="XMLID_101_">
		<path id="XMLID_105_" class="st0" d="M44.8,77.5H21.1L18.7,83H0.2l30-67.2h5.5l30,67.2H47.2L44.8,77.5z M33,48.4l-5.8,15.3h11.5
			L33,48.4z"/>
		<path id="XMLID_102_" class="st0" d="M110.1,37.5c4.1,3.8,6.1,9.3,6.1,16.5v29h-15.7v-4.1c-3.7,3.5-8.5,5.3-14.4,5.3
			c-5.4,0-9.6-1.5-12.7-4.5c-3-3-4.6-6.7-4.6-11.1c0-4.7,1.8-8.3,5.3-11c3.5-2.6,8.3-3.9,14.4-3.9H99V53c0-1.9-0.6-3.5-1.9-4.7
			c-1.2-1.2-3.2-1.8-5.8-1.8c-2.3,0-4.3,0.5-6.2,1.5s-4,2.5-6.4,4.7l-8-10.9c6.5-6.7,14.1-10,22.6-10
			C100.5,31.8,106,33.7,110.1,37.5z M96.9,70c1.4-1.3,2.2-3.1,2.2-5.3v-0.4h-8.1c-3.1,0-4.6,1.3-4.6,3.8c0,2.6,1.7,3.9,5.1,3.9
			C93.6,72,95.4,71.3,96.9,70z"/>
	</g>
</g>
<g id="XMLID_28_">
</g>
<g id="XMLID_35_">
</g>
<g id="XMLID_36_">
</g>
<g id="XMLID_37_">
</g>
<g id="XMLID_38_">
</g>
<g id="XMLID_39_">
</g>
<g id="XMLID_40_">
</g>
<g id="XMLID_41_">
</g>
<g id="XMLID_42_">
</g>
<g id="XMLID_43_">
</g>
<g id="XMLID_44_">
</g>
<g id="XMLID_45_">
</g>
<g id="XMLID_46_">
</g>
<g id="XMLID_47_">
</g>
<g id="XMLID_48_">
</g>
</svg>
