<?xml version="1.0" encoding="utf-8"?>
<!-- Generator: Adobe Illustrator 19.0.0, SVG Export Plug-In . SVG Version: 6.00 Build 0)  -->
<svg version="1.1" id="Layer_1" xmlns="http://www.w3.org/2000/svg" xmlns:xlink="http://www.w3.org/1999/xlink" x="0px" y="0px"
	 viewBox="0 0 123.5 117.1" style="enable-background:new 0 0 123.5 117.1;" xml:space="preserve">
<style type="text/css">
	.st0{fill:#FFFFFF;}
</style>
<g id="XMLID_11_">
	<g id="XMLID_101_">
		<path id="XMLID_105_" class="st0" d="M69.4,83.5v1.7H40.8v-1.7c7.8,0,2.6-10.7,2.6-10.7l-3-7.3H16.7c0,0-6.2,18.8,9.6,18v1.7H1.7
			v-1.7c2.6-0.2,5.1,0.6,14.9-23.1l17.3-45.6h1.7C60.1,73.6,61,76.2,61,76.2C64.4,84.2,66.8,83.3,69.4,83.5z M39.8,63.8L27.9,34.6
			L17,63.8H39.8z"/>
		<path id="XMLID_102_" class="st0" d="M120.9,78.3l1.7,0.7c-0.8,3.2-5.4,7.1-11.7,7.1c0,0-8.9,0-10-8.1c-1.5,4.4-7.4,8.1-14.5,8.1
			c0,0-11.5,0-11.5-10.2c0-10.9,8.4-11.9,25.9-16.3v-6.2c0-10.4-5.8-15.6-12.7-12c-3.2,1.6-3.6,3.3-2.9,3.4c1.5,0.2,2.8,0.9,3.7,2.2
			c1.8,2.6,1.1,6.1-1.5,7.9c-2.6,1.7-6.1,1.1-7.9-1.5c-1.2-1.9-1.3-4.3-0.3-6s2.3-4.4,7.8-7.3c4.5-2.4,9.7-2,9.7-2
			c13.1,0,16.7,8.2,16.7,20V73c0,0-0.1,7,4.8,7C118.2,80,120.3,80,120.9,78.3z M100.8,61.4c-9.8,2.2-13.1,6.9-13.1,12
			c0,0,0,6.6,6.5,6.6c3.4,0,5.7-2.7,6.6-5.1C100.8,74.7,100.8,61.4,100.8,61.4z"/>
	</g>
</g>
<g id="XMLID_28_">
</g>
<g id="XMLID_35_">
</g>
<g id="XMLID_36_">
</g>
<g id="XMLID_37_">
</g>
<g id="XMLID_38_">
</g>
<g id="XMLID_39_">
</g>
<g id="XMLID_40_">
</g>
<g id="XMLID_41_">
</g>
<g id="XMLID_42_">
</g>
<g id="XMLID_43_">
</g>
<g id="XMLID_44_">
</g>
<g id="XMLID_45_">
</g>
<g id="XMLID_46_">
</g>
<g id="XMLID_47_">
</g>
<g id="XMLID_48_">
</g>
</svg>
