<?xml version="1.0" encoding="utf-8"?>
<!-- Generator: Adobe Illustrator 19.0.0, SVG Export Plug-In . SVG Version: 6.00 Build 0)  -->
<svg version="1.1" id="Layer_1" xmlns="http://www.w3.org/2000/svg" xmlns:xlink="http://www.w3.org/1999/xlink" x="0px" y="0px"
	 viewBox="0 0 124.7 105.4" style="enable-background:new 0 0 124.7 105.4;" xml:space="preserve">
<style type="text/css">
	.st0{fill:#FFFFFF;}
</style>
<g id="XMLID_1_">
	<path id="XMLID_29_" class="st0" d="M13.1,63.7L3.4,85H1L33,15h2.2L67.6,85h-2.3l-9.8-21.3H13.1z M34.1,17.4L14,61.7h40.6
		L34.1,17.4z"/>
	<path id="XMLID_32_" class="st0" d="M113.4,73.2c-2.3,3.9-5.3,6.9-9,8.8c-3.7,1.9-8,2.9-12.8,2.9c-4.9,0-9-1.4-12.1-4.2
		c-3.1-2.8-4.7-6.4-4.7-10.7c0-4.2,1.7-7.5,5.2-9.8c3.4-2.3,8.1-3.5,14-3.5h19.2v-6.3c-0.1-4.9-1.5-8.6-4.2-11.3
		c-2.8-2.6-6.8-3.9-12.1-3.9c-3.3,0-6.3,0.6-9.3,1.9c-2.9,1.2-5.9,3-8.9,5.4l-1.2-1.6c6.4-5.1,12.9-7.6,19.3-7.6
		c5.9,0,10.4,1.5,13.5,4.6c3.2,3.1,4.8,7.3,4.8,12.6l0.2,34.5h-2L113.4,73.2z M105,79.6c3.6-2.3,6.4-5.9,8.4-10.8l-0.1-10H94
		c-5.5,0-9.7,1-12.7,3c-3,2-4.5,4.8-4.5,8.4c0,3.9,1.4,7,4.1,9.4c2.7,2.4,6.3,3.5,10.8,3.5C97,83,101.4,81.8,105,79.6z"/>
</g>
<g id="XMLID_28_">
</g>
<g id="XMLID_35_">
</g>
<g id="XMLID_36_">
</g>
<g id="XMLID_37_">
</g>
<g id="XMLID_38_">
</g>
<g id="XMLID_39_">
</g>
<g id="XMLID_40_">
</g>
<g id="XMLID_41_">
</g>
<g id="XMLID_42_">
</g>
<g id="XMLID_43_">
</g>
<g id="XMLID_44_">
</g>
<g id="XMLID_45_">
</g>
<g id="XMLID_46_">
</g>
<g id="XMLID_47_">
</g>
<g id="XMLID_48_">
</g>
</svg>
