<?xml version="1.0" encoding="utf-8"?>
<!-- Generator: Adobe Illustrator 19.0.0, SVG Export Plug-In . SVG Version: 6.00 Build 0)  -->
<svg version="1.1" id="Layer_1" xmlns="http://www.w3.org/2000/svg" xmlns:xlink="http://www.w3.org/1999/xlink" x="0px" y="0px"
	 viewBox="0 0 121.4 108.5" style="enable-background:new 0 0 121.4 108.5;" xml:space="preserve">
<style type="text/css">
	.st0{fill:#FFFFFF;}
</style>
<g id="XMLID_9_">
	<g id="XMLID_101_">
		<path id="XMLID_105_" class="st0" d="M51.7,61.8H16.9L9,83H6.1l26.6-71.1h3.2L62.5,83h-2.9L51.7,61.8z M17.9,59.1h32.8L35.8,19.3
			l-1.4-4.2h-0.3l-1.3,4.2L17.9,59.1z"/>
		<path id="XMLID_102_" class="st0" d="M105.7,73.2c-1.8,3.2-4.5,5.8-8.2,7.8s-8,3-13.1,3c-4.9,0-8.8-1.3-11.6-4
			c-2.8-2.7-4.2-6.3-4.2-10.9c0-4.4,2.1-8.1,6.3-11.1c4.2-3,9.4-4.5,15.7-4.5h15.1v-7.7c0-4.4-1.4-7.8-4.2-10.3
			c-2.8-2.5-6.8-3.7-11.9-3.7c-4.8,0-8.6,1.2-11.5,3.5c-2.9,2.3-4.4,5.3-4.4,8.9l-2.2-0.1l-0.1-0.2c-0.2-4.1,1.4-7.6,4.8-10.4
			c3.4-2.8,7.9-4.3,13.4-4.3c5.7,0,10.2,1.4,13.6,4.3c3.4,2.9,5.1,7,5.1,12.4v26.5c0,1.9,0.1,3.7,0.3,5.4c0.2,1.8,0.6,3.5,1.1,5.2
			h-2.9c-0.4-2.3-0.7-4-0.9-5.2c-0.1-1.2-0.2-2.4-0.2-3.7V73.2z M84.4,81.4c5.2,0,9.7-1.2,13.3-3.5c3.6-2.3,6.3-5.6,8-9.9V56.2H90.8
			c-5.5,0-10.1,1.3-13.8,3.8s-5.6,5.6-5.6,9.4c0,3.5,1.2,6.5,3.6,8.7C77.3,80.3,80.5,81.4,84.4,81.4z"/>
	</g>
</g>
<g id="XMLID_28_">
</g>
<g id="XMLID_35_">
</g>
<g id="XMLID_36_">
</g>
<g id="XMLID_37_">
</g>
<g id="XMLID_38_">
</g>
<g id="XMLID_39_">
</g>
<g id="XMLID_40_">
</g>
<g id="XMLID_41_">
</g>
<g id="XMLID_42_">
</g>
<g id="XMLID_43_">
</g>
<g id="XMLID_44_">
</g>
<g id="XMLID_45_">
</g>
<g id="XMLID_46_">
</g>
<g id="XMLID_47_">
</g>
<g id="XMLID_48_">
</g>
</svg>
