<?xml version="1.0" encoding="utf-8"?>
<!-- Generator: Adobe Illustrator 19.0.0, SVG Export Plug-In . SVG Version: 6.00 Build 0)  -->
<svg version="1.1" id="Layer_1" xmlns="http://www.w3.org/2000/svg" xmlns:xlink="http://www.w3.org/1999/xlink" x="0px" y="0px"
	 viewBox="0 0 137.4 114.5" style="enable-background:new 0 0 137.4 114.5;" xml:space="preserve">
<style type="text/css">
	.st0{fill:#FFFFFF;}
</style>
<g id="XMLID_7_">
	<g id="XMLID_101_">
		<path id="XMLID_105_" class="st0" d="M23.4,72.1L18.3,85H0l30.2-70h18.3L78,85H59l-5-12.9H23.4z M38.8,32.7L28.6,58.6h20.2
			L38.8,32.7z"/>
		<path id="XMLID_102_" class="st0" d="M125.8,35.5c4.1,3.4,6.2,8.2,6.3,14.3V85h-16.9v-6.2c-1.7,2.3-4,4-6.8,5.2
			c-2.8,1.2-6,1.8-9.7,1.8c-5.7,0-10.2-1.6-13.5-4.7c-3.3-3.1-5-7.2-5-12.2c0-5.1,1.8-9.1,5.3-12s8.7-4.3,15.4-4.3H115v-0.8
			c0-2.7-0.9-4.8-2.6-6.3c-1.8-1.5-4.4-2.2-7.9-2.2c-2.3,0-4.8,0.4-7.7,1.1c-2.8,0.8-5.6,1.9-8.4,3.3l-4.9-11.4
			c4.4-2.1,8.6-3.6,12.5-4.6c4-1,8.1-1.5,12.5-1.5C115.9,30.3,121.7,32,125.8,35.5z M111.2,72.1c2.1-1.4,3.4-3.2,3.9-5.4v-4.8h-10.9
			c-2.6,0-4.6,0.5-5.9,1.4c-1.3,0.9-2,2.4-2,4.4c0,2,0.7,3.5,2,4.7c1.3,1.1,3.2,1.7,5.6,1.7C106.7,74.1,109.1,73.4,111.2,72.1z"/>
	</g>
</g>
<g id="XMLID_28_">
</g>
<g id="XMLID_35_">
</g>
<g id="XMLID_36_">
</g>
<g id="XMLID_37_">
</g>
<g id="XMLID_38_">
</g>
<g id="XMLID_39_">
</g>
<g id="XMLID_40_">
</g>
<g id="XMLID_41_">
</g>
<g id="XMLID_42_">
</g>
<g id="XMLID_43_">
</g>
<g id="XMLID_44_">
</g>
<g id="XMLID_45_">
</g>
<g id="XMLID_46_">
</g>
<g id="XMLID_47_">
</g>
<g id="XMLID_48_">
</g>
</svg>
