<?xml version="1.0" encoding="utf-8"?>
<!-- Generator: Adobe Illustrator 19.0.0, SVG Export Plug-In . SVG Version: 6.00 Build 0)  -->
<svg version="1.1" id="Layer_1" xmlns="http://www.w3.org/2000/svg" xmlns:xlink="http://www.w3.org/1999/xlink" x="0px" y="0px"
	 viewBox="0 0 108.7 111.7" style="enable-background:new 0 0 108.7 111.7;" xml:space="preserve">
<style type="text/css">
	.st0{fill:#FFFFFF;}
</style>
<g id="XMLID_5_">
	<g id="XMLID_101_">
		<path id="XMLID_105_" class="st0" d="M2.8,85l21.5-70h10.6l21.5,70h-3.6l-6.5-21.5H12.9L6.4,85H2.8z M26.8,18.4L14,60.1h31.2
			L32.4,18.4H26.8z"/>
		<path id="XMLID_102_" class="st0" d="M100.3,49.7v28.8c0.3,2.4,2.8,3.8,7.5,4.2l-0.2,3.1c-4.9,0-8.3-1.4-10.3-4.2
			c-6.8,2.9-13.5,4.3-20.2,4.3c-4.1,0-7.4-1.2-9.6-3.7c-2.3-2.5-3.5-6-3.5-10.5s1.1-8.1,3.3-10.5c2.2-2.4,5.7-3.8,10.5-4.3l19-2
			v-5.2c0-4.3-0.9-7.4-2.8-9.3c-1.8-1.9-4.6-2.9-8.4-2.9c-3.8,0-9.1,0.4-15.8,1.3l-3.1,0.4l-0.3-3.3c7.5-1.2,13.9-1.8,19.2-1.8
			C95.4,34.1,100.3,39.3,100.3,49.7z M70.1,63.3c-1.6,1.8-2.4,4.5-2.4,8.1c0,3.6,0.8,6.4,2.5,8.3c1.6,2,3.9,3,6.8,3
			c2.9,0,6-0.4,9.3-1c3.3-0.7,5.8-1.4,7.7-2.1l2.8-1V58.1L78.2,60C74.4,60.4,71.7,61.5,70.1,63.3z"/>
	</g>
</g>
<g id="XMLID_28_">
</g>
<g id="XMLID_35_">
</g>
<g id="XMLID_36_">
</g>
<g id="XMLID_37_">
</g>
<g id="XMLID_38_">
</g>
<g id="XMLID_39_">
</g>
<g id="XMLID_40_">
</g>
<g id="XMLID_41_">
</g>
<g id="XMLID_42_">
</g>
<g id="XMLID_43_">
</g>
<g id="XMLID_44_">
</g>
<g id="XMLID_45_">
</g>
<g id="XMLID_46_">
</g>
<g id="XMLID_47_">
</g>
<g id="XMLID_48_">
</g>
</svg>
