<?xml version="1.0" encoding="utf-8"?>
<!-- Generator: Adobe Illustrator 19.0.0, SVG Export Plug-In . SVG Version: 6.00 Build 0)  -->
<svg version="1.1" id="Layer_1" xmlns="http://www.w3.org/2000/svg" xmlns:xlink="http://www.w3.org/1999/xlink" x="0px" y="0px"
	 viewBox="0 0 123.5 117.1" style="enable-background:new 0 0 123.5 117.1;" xml:space="preserve">
<style type="text/css">
	.st0{fill:#FFFFFF;}
</style>
<g id="XMLID_11_">
	<g id="XMLID_101_">
		<path id="XMLID_105_" class="st0" d="M50.5,67.9H19.3l-7.2,19.8H6.1l26.1-71.1h5.5l25.9,71.1h-6.1L50.5,67.9z M21.1,62.7h27.4
			L35.1,25h-0.3L21.1,62.7z"/>
		<path id="XMLID_102_" class="st0" d="M106.7,87.8c-0.4-1.9-0.6-3.5-0.8-4.8c-0.2-1.3-0.3-2.7-0.3-4.1c-1.8,2.9-4.4,5.2-7.7,7.1
			c-3.3,1.9-7.1,2.8-11.3,2.8c-5.2,0-9.2-1.4-12-4.1c-2.8-2.8-4.3-6.5-4.3-11.2c0-4.7,2.1-8.5,6.2-11.5c4.1-2.9,9.5-4.4,16.1-4.4h13
			v-6.5c0-3.8-1.2-6.7-3.6-8.9s-5.8-3.2-10.1-3.2c-4,0-7.2,1-9.7,2.9c-2.5,2-3.7,4.4-3.7,7.4h-5.4L73,49c-0.2-4,1.5-7.5,5.1-10.5
			c3.6-3,8.3-4.5,14.1-4.5c5.8,0,10.4,1.5,14,4.4c3.5,3,5.3,7.2,5.3,12.7v26c0,1.9,0.1,3.7,0.3,5.4c0.2,1.8,0.6,3.5,1.1,5.2H106.7z
			 M87.3,83.6c4.5,0,8.4-1.1,11.7-3.2c3.3-2.1,5.5-4.9,6.7-8.2V62.1h-13c-4.8,0-8.7,1.1-11.8,3.4c-3.1,2.3-4.6,5-4.6,8.2
			c0,3,1,5.4,3,7.2C81.1,82.7,83.8,83.6,87.3,83.6z"/>
	</g>
</g>
<g id="XMLID_28_">
</g>
<g id="XMLID_35_">
</g>
<g id="XMLID_36_">
</g>
<g id="XMLID_37_">
</g>
<g id="XMLID_38_">
</g>
<g id="XMLID_39_">
</g>
<g id="XMLID_40_">
</g>
<g id="XMLID_41_">
</g>
<g id="XMLID_42_">
</g>
<g id="XMLID_43_">
</g>
<g id="XMLID_44_">
</g>
<g id="XMLID_45_">
</g>
<g id="XMLID_46_">
</g>
<g id="XMLID_47_">
</g>
<g id="XMLID_48_">
</g>
</svg>
