<?xml version="1.0" encoding="utf-8"?>
<!-- Generator: Adobe Illustrator 19.0.0, SVG Export Plug-In . SVG Version: 6.00 Build 0)  -->
<svg version="1.1" id="Layer_1" xmlns="http://www.w3.org/2000/svg" xmlns:xlink="http://www.w3.org/1999/xlink" x="0px" y="0px"
	 viewBox="0 0 137.4 114.5" style="enable-background:new 0 0 137.4 114.5;" xml:space="preserve">
<style type="text/css">
	.st0{fill:#FFFFFF;}
</style>
<g id="XMLID_7_">
	<g id="XMLID_101_">
		<path id="XMLID_105_" class="st0" d="M21.8,69.2L15.2,85H2.9l30.9-70h12.1l30.6,70H63.8l-6.7-15.8H21.8z M39.5,27.6L26.2,58.7
			h26.4L39.5,27.6z"/>
		<path id="XMLID_102_" class="st0" d="M116.9,78.5c-3.8,4.7-9.7,7-17.6,7c-3.7,0-7-0.7-9.9-2.1c-2.8-1.4-5-3.4-6.5-5.9
			c-1.5-2.5-2.3-5.3-2.3-8.5c0-4.9,1.8-8.7,5.3-11.6c3.5-2.8,8.5-4.3,14.8-4.4h16.1v-1.6c0-3.4-1.1-6-3.2-7.9
			c-2.2-1.9-5.3-2.8-9.4-2.8c-5.1,0-10.4,1.8-15.7,5.4l-4.7-8c4.1-2.4,7.7-4.1,11-5.2c3.2-1,7.2-1.5,11.9-1.5c6.8,0,12.1,1.7,15.8,5
			c3.7,3.3,5.6,7.9,5.7,13.7l0.1,34.9h-11.3V78.5z M112.1,73.6c2.8-1.9,4.4-4.3,4.7-7.3v-4.9h-14.4c-3.8,0-6.6,0.5-8.3,1.6
			s-2.6,2.9-2.6,5.4c0,2.4,0.9,4.3,2.8,5.8c1.8,1.4,4.4,2.1,7.5,2.1C105.8,76.4,109.3,75.5,112.1,73.6z"/>
	</g>
</g>
<g id="XMLID_28_">
</g>
<g id="XMLID_35_">
</g>
<g id="XMLID_36_">
</g>
<g id="XMLID_37_">
</g>
<g id="XMLID_38_">
</g>
<g id="XMLID_39_">
</g>
<g id="XMLID_40_">
</g>
<g id="XMLID_41_">
</g>
<g id="XMLID_42_">
</g>
<g id="XMLID_43_">
</g>
<g id="XMLID_44_">
</g>
<g id="XMLID_45_">
</g>
<g id="XMLID_46_">
</g>
<g id="XMLID_47_">
</g>
<g id="XMLID_48_">
</g>
</svg>
