<?xml version="1.0" encoding="utf-8"?>
<!-- Generator: Adobe Illustrator 19.0.0, SVG Export Plug-In . SVG Version: 6.00 Build 0)  -->
<svg version="1.1" id="Layer_1" xmlns="http://www.w3.org/2000/svg" xmlns:xlink="http://www.w3.org/1999/xlink" x="0px" y="0px"
	 viewBox="0 0 121.4 108.5" style="enable-background:new 0 0 121.4 108.5;" xml:space="preserve">
<style type="text/css">
	.st0{fill:#FFFFFF;}
</style>
<g id="XMLID_9_">
	<g id="XMLID_101_">
		<path id="XMLID_105_" class="st0" d="M46.6,64.7H19.9L13.5,83H3.7l25.6-71.1h8.3L62.7,83h-9.8L46.6,64.7z M22.6,56.6h21.2
			L33.5,26.1h-0.3L22.6,56.6z"/>
		<path id="XMLID_102_" class="st0" d="M104.3,83c-0.3-1.6-0.6-3-0.8-4.2c-0.2-1.2-0.3-2.4-0.3-3.7c-1.8,2.5-4.1,4.7-7,6.4
			s-6,2.6-9.3,2.6c-5.5,0-9.7-1.4-12.6-4.2C71.4,77,70,73.1,70,68.2c0-5,2-9,6.1-11.8c4.1-2.8,9.6-4.3,16.6-4.3h10.4v-5.2
			c0-3.1-0.9-5.5-2.8-7.3c-1.9-1.8-4.6-2.7-8-2.7c-3.1,0-5.6,0.8-7.6,2.3c-1.9,1.6-2.9,3.4-2.9,5.6l-9.1,0.1l-0.1-0.3
			c-0.2-3.8,1.6-7.4,5.4-10.5c3.8-3.2,8.8-4.8,14.8-4.8c6,0,10.8,1.5,14.5,4.6c3.6,3,5.5,7.4,5.5,13.2v25.4c0,1.9,0.1,3.7,0.3,5.5
			s0.6,3.5,1.1,5.2H104.3z M88.3,76c3.5,0,6.6-0.9,9.4-2.7c2.8-1.8,4.6-3.8,5.5-6.2v-8.6H92.4c-3.9,0-7,1-9.3,2.9
			c-2.3,2-3.5,4.2-3.5,6.9c0,2.3,0.7,4.2,2.2,5.6S85.4,76,88.3,76z"/>
	</g>
</g>
<g id="XMLID_28_">
</g>
<g id="XMLID_35_">
</g>
<g id="XMLID_36_">
</g>
<g id="XMLID_37_">
</g>
<g id="XMLID_38_">
</g>
<g id="XMLID_39_">
</g>
<g id="XMLID_40_">
</g>
<g id="XMLID_41_">
</g>
<g id="XMLID_42_">
</g>
<g id="XMLID_43_">
</g>
<g id="XMLID_44_">
</g>
<g id="XMLID_45_">
</g>
<g id="XMLID_46_">
</g>
<g id="XMLID_47_">
</g>
<g id="XMLID_48_">
</g>
</svg>
