<svg width="194" height="199" viewBox="0 0 194 199" fill="none" xmlns="http://www.w3.org/2000/svg">
<g filter="url(#filter0_d_312_2738)">
<circle cx="97" cy="98" r="63.5" stroke="url(#paint0_linear_312_2738)" shape-rendering="crispEdges"/>
</g>
<g filter="url(#filter1_d_312_2738)">
<circle cx="97" cy="98" r="82.5" stroke="url(#paint1_linear_312_2738)" shape-rendering="crispEdges"/>
</g>
<rect x="84" width="30" height="30" rx="15" fill="url(#paint2_linear_312_2738)"/>
<path d="M89.9012 23.7268L91.1874 19.0564C90.3922 17.6855 89.9751 16.133 89.9795 14.5459C89.9795 9.57271 94.0465 5.5293 99.0391 5.5293C101.464 5.5293 103.741 6.46772 105.448 8.17157C107.16 9.87543 108.103 12.1415 108.099 14.5502C108.099 19.5234 104.032 23.5668 99.0348 23.5668H99.0304C97.514 23.5668 96.0236 23.1863 94.6983 22.4684L89.9012 23.7268ZM94.9286 20.8381L95.2023 21.0024C96.3582 21.6857 97.6834 22.0446 99.0348 22.0489H99.0391C103.189 22.0489 106.569 18.6888 106.569 14.5546C106.569 12.5523 105.787 10.6711 104.366 9.2527C102.945 7.83426 101.051 7.05585 99.0391 7.05585C94.8895 7.05152 91.509 10.4117 91.509 14.5459C91.509 15.96 91.9044 17.3395 92.6604 18.5331L92.8386 18.8185L92.0782 21.5819L94.9286 20.8381Z" fill="white"/>
<path d="M90.2184 23.4111L91.4612 18.9007C90.6921 17.5817 90.288 16.0811 90.288 14.5502C90.2923 9.75 94.216 5.84497 99.0391 5.84497C101.381 5.84497 103.575 6.75312 105.227 8.39643C106.878 10.0397 107.786 12.2279 107.786 14.5545C107.786 19.3547 103.858 23.2598 99.0391 23.2598H99.0348C97.5705 23.2598 96.1322 22.8922 94.8547 22.2003L90.2184 23.4111Z" fill="url(#paint3_linear_312_2738)"/>
<path d="M89.9012 23.7268L91.1874 19.0564C90.3922 17.6855 89.9751 16.133 89.9795 14.5459C89.9795 9.57271 94.0465 5.5293 99.0391 5.5293C101.464 5.5293 103.741 6.46772 105.448 8.17157C107.16 9.87543 108.103 12.1415 108.099 14.5502C108.099 19.5234 104.032 23.5668 99.0348 23.5668H99.0304C97.514 23.5668 96.0236 23.1863 94.6983 22.4684L89.9012 23.7268ZM94.9286 20.8381L95.2023 21.0024C96.3582 21.6857 97.6834 22.0446 99.0348 22.0489H99.0391C103.189 22.0489 106.569 18.6888 106.569 14.5546C106.569 12.5523 105.787 10.6711 104.366 9.2527C102.945 7.83426 101.051 7.05585 99.0391 7.05585C94.8895 7.05152 91.509 10.4117 91.509 14.5459C91.509 15.96 91.9044 17.3395 92.6604 18.5331L92.8386 18.8185L92.0782 21.5819L94.9286 20.8381Z" fill="url(#paint4_linear_312_2738)"/>
<path fill-rule="evenodd" clip-rule="evenodd" d="M96.7752 10.7749C96.6057 10.3986 96.4276 10.39 96.2668 10.3857C96.1365 10.3813 95.9844 10.3813 95.8323 10.3813C95.6802 10.3813 95.4369 10.4376 95.2283 10.6624C95.0198 10.8873 94.4375 11.4322 94.4375 12.5436C94.4375 13.6507 95.25 14.7232 95.363 14.8745C95.476 15.0259 96.9316 17.3741 99.2302 18.2779C101.142 19.0304 101.533 18.879 101.946 18.8401C102.359 18.8012 103.284 18.2952 103.475 17.7676C103.662 17.24 103.662 16.7903 103.606 16.6951C103.549 16.6 103.397 16.5438 103.171 16.4313C102.945 16.3189 101.833 15.774 101.624 15.6962C101.416 15.6227 101.264 15.5837 101.116 15.8086C100.964 16.0335 100.529 16.5395 100.399 16.6908C100.269 16.8422 100.134 16.8595 99.9081 16.747C99.6821 16.6346 98.9521 16.3967 98.0874 15.627C97.4139 15.0302 96.9577 14.2907 96.8273 14.0658C96.697 13.841 96.8143 13.7199 96.9273 13.6074C97.0272 13.508 97.1532 13.3436 97.2662 13.2139C97.3792 13.0842 97.4183 12.989 97.4921 12.8377C97.566 12.6863 97.5313 12.5566 97.4748 12.4441C97.4183 12.336 96.9751 11.2203 96.7752 10.7749Z" fill="white"/>
<rect x="134" y="20" width="30" height="30" rx="15" fill="url(#paint5_linear_312_2738)"/>
<path fill-rule="evenodd" clip-rule="evenodd" d="M140.79 34.8417C145.163 32.9365 148.079 31.6805 149.538 31.0737C153.703 29.3411 154.569 29.0401 155.133 29.0301C155.257 29.0279 155.535 29.0587 155.714 29.2045C155.866 29.3277 155.908 29.494 155.928 29.6107C155.948 29.7275 155.973 29.9934 155.953 30.2012C155.727 32.5731 154.75 38.329 154.254 40.9855C154.043 42.1095 153.629 42.4864 153.228 42.5233C152.357 42.6035 151.696 41.9477 150.852 41.3946C149.532 40.5292 148.786 39.9905 147.505 39.146C146.024 38.1701 146.984 37.6337 147.828 36.7571C148.049 36.5277 151.887 33.0367 151.961 32.72C151.97 32.6804 151.979 32.5328 151.891 32.4548C151.803 32.3769 151.674 32.4035 151.581 32.4247C151.448 32.4548 149.339 33.8488 145.254 36.6067C144.655 37.0178 144.113 37.2181 143.627 37.2076C143.091 37.196 142.061 36.9047 141.295 36.6558C140.356 36.3504 139.609 36.189 139.674 35.6704C139.708 35.4003 140.08 35.1241 140.79 34.8417Z" fill="white"/>
<rect x="161" y="63" width="30" height="30" rx="15" fill="url(#paint6_radial_312_2738)"/>
<path fill-rule="evenodd" clip-rule="evenodd" d="M165.982 77.6986C165.982 72.1162 170.357 67.9813 176 67.9813C181.643 67.9813 186.018 72.1187 186.018 77.7011C186.018 83.2835 181.643 87.4183 176 87.4183C174.986 87.4183 174.014 87.2831 173.1 87.0326C172.922 86.985 172.732 86.9976 172.564 87.0727L170.575 87.9492C170.054 88.1796 169.468 87.809 169.451 87.2405L169.396 85.4573C169.391 85.2369 169.291 85.0316 169.128 84.8863C167.179 83.1432 165.982 80.6187 165.982 77.6986ZM172.927 75.8728L169.984 80.5411C169.701 80.9894 170.252 81.4928 170.673 81.1722L173.833 78.773C174.046 78.6102 174.342 78.6102 174.557 78.7705L176.899 80.5261C177.603 81.052 178.604 80.8692 179.073 80.1254L182.018 75.4596C182.298 75.0113 181.748 74.5054 181.327 74.826L178.166 77.2252C177.953 77.388 177.658 77.388 177.442 77.2277L175.101 75.4721C174.397 74.9462 173.395 75.129 172.927 75.8728Z" fill="white"/>
<defs>
<filter id="filter0_d_312_2738" x="19" y="24" width="156" height="156" filterUnits="userSpaceOnUse" color-interpolation-filters="sRGB">
<feFlood flood-opacity="0" result="BackgroundImageFix"/>
<feColorMatrix in="SourceAlpha" type="matrix" values="0 0 0 0 0 0 0 0 0 0 0 0 0 0 0 0 0 0 127 0" result="hardAlpha"/>
<feOffset dy="4"/>
<feGaussianBlur stdDeviation="7"/>
<feComposite in2="hardAlpha" operator="out"/>
<feColorMatrix type="matrix" values="0 0 0 0 0 0 0 0 0 0 0 0 0 0 0 0 0 0 0.15 0"/>
<feBlend mode="normal" in2="BackgroundImageFix" result="effect1_dropShadow_312_2738"/>
<feBlend mode="normal" in="SourceGraphic" in2="effect1_dropShadow_312_2738" result="shape"/>
</filter>
<filter id="filter1_d_312_2738" x="0" y="5" width="194" height="194" filterUnits="userSpaceOnUse" color-interpolation-filters="sRGB">
<feFlood flood-opacity="0" result="BackgroundImageFix"/>
<feColorMatrix in="SourceAlpha" type="matrix" values="0 0 0 0 0 0 0 0 0 0 0 0 0 0 0 0 0 0 127 0" result="hardAlpha"/>
<feOffset dy="4"/>
<feGaussianBlur stdDeviation="7"/>
<feComposite in2="hardAlpha" operator="out"/>
<feColorMatrix type="matrix" values="0 0 0 0 0 0 0 0 0 0 0 0 0 0 0 0 0 0 0.15 0"/>
<feBlend mode="normal" in2="BackgroundImageFix" result="effect1_dropShadow_312_2738"/>
<feBlend mode="normal" in="SourceGraphic" in2="effect1_dropShadow_312_2738" result="shape"/>
</filter>
<linearGradient id="paint0_linear_312_2738" x1="40.3628" y1="34" x2="173.074" y2="61.3784" gradientUnits="userSpaceOnUse">
<stop stop-color="#BEDCFF"/>
<stop offset="0.525043" stop-color="#FEFEFE"/>
<stop offset="1" stop-color="#8CC1FE"/>
</linearGradient>
<linearGradient id="paint1_linear_312_2738" x1="23.5487" y1="15" x2="195.658" y2="50.5064" gradientUnits="userSpaceOnUse">
<stop stop-color="#BEDCFF"/>
<stop offset="0.525043" stop-color="#FEFEFE"/>
<stop offset="1" stop-color="#8CC1FE"/>
</linearGradient>
<linearGradient id="paint2_linear_312_2738" x1="98.9992" y1="29.9985" x2="98.9992" y2="-0.00104962" gradientUnits="userSpaceOnUse">
<stop stop-color="#20B038"/>
<stop offset="1" stop-color="#60D66A"/>
</linearGradient>
<linearGradient id="paint3_linear_312_2738" x1="99.0017" y1="23.4103" x2="99.0017" y2="5.84436" gradientUnits="userSpaceOnUse">
<stop stop-color="#20B038"/>
<stop offset="1" stop-color="#60D66A"/>
</linearGradient>
<linearGradient id="paint4_linear_312_2738" x1="99.0018" y1="23.7251" x2="99.0018" y2="5.5293" gradientUnits="userSpaceOnUse">
<stop stop-color="#F9F9F9"/>
<stop offset="1" stop-color="white"/>
</linearGradient>
<linearGradient id="paint5_linear_312_2738" x1="149" y1="20" x2="149" y2="49.7775" gradientUnits="userSpaceOnUse">
<stop stop-color="#2AABEE"/>
<stop offset="1" stop-color="#229ED9"/>
</linearGradient>
<radialGradient id="paint6_radial_312_2738" cx="0" cy="0" r="1" gradientUnits="userSpaceOnUse" gradientTransform="translate(166.775 92.839) scale(32.688 32.6851)">
<stop stop-color="#0099FF"/>
<stop offset="0.6098" stop-color="#A033FF"/>
<stop offset="0.9348" stop-color="#FF5280"/>
<stop offset="1" stop-color="#FF7061"/>
</radialGradient>
</defs>
</svg>
