<svg width="187" height="40" viewBox="0 0 187 40" fill="none" xmlns="http://www.w3.org/2000/svg">
<path d="M-2.11e-05 19.9812L-2.09808e-05 29.9712C-2.10466e-05 24.4537 4.47299 19.9812 9.99043 19.9812C15.5079 19.9812 19.9805 15.5081 19.9805 9.9907C19.9805 4.47325 15.5075 0.000656181 9.99043 0.000656247C4.47299 0.000656313 -2.12849e-05 4.47366 -2.12191e-05 9.9907L-2.11e-05 19.9812Z" fill="#4285F4"/>
<path d="M39.961 39.9616L49.9514 39.9616C44.434 39.9616 39.9614 35.4886 39.9614 29.9712C39.9614 24.4537 35.4888 19.9807 29.9709 19.9807C24.4535 19.9807 19.9805 24.4537 19.9805 29.9712C19.9805 35.4886 24.4531 39.9616 29.9709 39.9616L39.961 39.9616Z" fill="#0F9D58"/>
<path d="M19.9803 29.9905C19.9803 35.508 24.4533 39.981 29.9707 39.981L9.99022 39.981C4.47277 39.981 -0.000240379 35.508 -0.000240445 29.9905C-0.000240511 24.4731 4.47277 20.0005 9.99022 20.0001C15.5077 20.0005 19.9803 24.4731 19.9803 29.9905Z" fill="#FBBC05"/>
<path d="M19.9804 -2.64646e-05L9.98999 -2.63455e-05C15.5074 -2.64113e-05 19.98 4.47298 19.98 9.99002C19.98 15.5075 24.4526 19.9805 29.9705 19.9805C35.4879 19.9805 39.9609 15.5075 39.9609 9.99002C39.9609 4.47257 35.4883 -2.66495e-05 29.9705 -2.65837e-05L19.9804 -2.64646e-05Z" fill="#EA4335"/>
<path d="M66.5666 29.384C64.8599 29.384 63.3133 28.9573 61.9266 28.104C60.5399 27.2507 59.4946 26.0347 58.7906 24.456L60.3586 23.4C60.9559 24.7013 61.7773 25.7147 62.8226 26.44C63.8893 27.1653 65.1159 27.528 66.5026 27.528C68.1026 27.528 69.4039 27.0907 70.4066 26.216C71.4093 25.3413 71.9106 24.2533 71.9106 22.952C71.9106 22.056 71.6546 21.2987 71.1426 20.68C70.6306 20.04 69.8519 19.4533 68.8066 18.92C68.1239 18.5787 67.3133 18.2053 66.3746 17.8C65.1799 17.2667 64.4013 16.904 64.0386 16.712C61.3506 15.368 60.0066 13.4907 60.0066 11.08C60.0066 9.30933 60.6253 7.848 61.8626 6.696C63.0999 5.52267 64.7426 4.936 66.7906 4.936C69.6066 4.936 71.8359 6.10933 73.4786 8.456L72.0066 9.64C70.6626 7.72 68.9346 6.76 66.8226 6.76C65.4146 6.76 64.2626 7.15466 63.3666 7.944C62.4919 8.712 62.0546 9.72533 62.0546 10.984C62.0546 12.6053 63.0039 13.9173 64.9026 14.92C65.4359 15.1973 66.2999 15.6027 67.4946 16.136C68.8173 16.712 69.7133 17.128 70.1826 17.384C72.7213 18.7707 73.9906 20.6053 73.9906 22.888C73.9906 24.808 73.2759 26.376 71.8466 27.592C70.4173 28.7867 68.6573 29.384 66.5666 29.384ZM86.6586 26.44L87.4586 27.912C86.2213 28.8933 84.7066 29.384 82.9146 29.384C81.2293 29.384 79.9493 28.8613 79.0746 27.816C78.1999 26.7707 77.7626 25.2987 77.7626 23.4V13.576H74.7226V11.88H77.7946V5.832H79.6826V11.88H86.7226V13.576H79.6826V23.464C79.6826 26.2373 80.8133 27.624 83.0746 27.624C84.3973 27.624 85.5919 27.2293 86.6586 26.44ZM103.082 15.176V11.88H104.938V29H103.082V25.672C102.357 26.8453 101.397 27.7627 100.202 28.424C99.0285 29.0853 97.7379 29.416 96.3299 29.416C93.9192 29.416 91.8925 28.552 90.2499 26.824C88.6285 25.0747 87.8179 22.92 87.8179 20.36C87.8179 17.8427 88.6179 15.7307 90.2179 14.024C91.8605 12.3173 93.8979 11.464 96.3299 11.464C97.7592 11.464 99.0605 11.7947 100.234 12.456C101.407 13.096 102.357 14.0027 103.082 15.176ZM96.4259 27.656C98.4099 27.656 100.042 26.952 101.322 25.544C102.602 24.136 103.242 22.408 103.242 20.36C103.242 18.376 102.602 16.6907 101.322 15.304C100.042 13.9173 98.4099 13.224 96.4259 13.224C94.4632 13.224 92.8525 13.9173 91.5939 15.304C90.3565 16.6693 89.7379 18.376 89.7379 20.424C89.7379 22.4933 90.3565 24.2107 91.5939 25.576C92.8525 26.9627 94.4632 27.656 96.4259 27.656ZM111.117 29H109.197V11.88H111.021V14.632C111.939 12.4987 113.592 11.432 115.981 11.432C116.643 11.432 117.347 11.528 118.093 11.72L117.869 13.544C117.272 13.352 116.664 13.256 116.045 13.256C114.509 13.256 113.304 13.8107 112.429 14.92C111.555 16.008 111.117 17.448 111.117 19.24V29ZM133.748 29H131.252L123.892 20.072L121.876 21.864V29H119.956V4.84H121.876V19.528L130.42 11.88H133.012L125.236 18.856L133.748 29ZM137.166 4.84V29H135.246V4.84H137.166ZM147.587 26.504L153.187 11.88H155.299L148.067 30.28C147.214 32.456 146.35 33.992 145.475 34.888C144.6 35.8053 143.512 36.264 142.211 36.264C141.294 36.264 140.472 36.0613 139.747 35.656L140.035 33.96C140.782 34.3013 141.486 34.472 142.147 34.472C143.022 34.472 143.779 34.1093 144.419 33.384C145.059 32.68 145.667 31.5813 146.243 30.088L146.659 29L139.363 11.88H141.475L147.587 26.504ZM177.163 29H171.659L170.091 24.232H162.155L160.523 29H155.019L163.883 5.352H168.491L177.163 29ZM168.683 19.592L166.155 12.104L163.595 19.592H168.683ZM178.926 29V5.352H184.238V29H178.926Z" fill="white"/>
</svg>
