<svg width="241" height="46" viewBox="0 0 241 46" fill="none" xmlns="http://www.w3.org/2000/svg">
<path d="M56.2795 36.8891C53.5227 36.8891 51.1975 36.4575 49.3039 35.5942C47.4103 34.7031 45.9762 33.5057 45.0016 32.002C44.027 30.4704 43.5396 28.7161 43.5396 26.739H50.1811C50.1811 27.5187 50.3899 28.2427 50.8076 28.911C51.2532 29.5793 51.9215 30.1223 52.8126 30.54C53.7037 30.9299 54.8593 31.1248 56.2795 31.1248C57.5604 31.1248 58.6325 30.9577 59.4958 30.6236C60.359 30.2894 61.0134 29.83 61.459 29.2452C61.9045 28.6326 62.1273 27.9364 62.1273 27.1567C62.1273 26.182 61.7096 25.4163 60.8742 24.8593C60.0388 24.2745 58.6882 23.8986 56.8225 23.7315L54.5251 23.5227C51.4899 23.2721 49.0672 22.3253 47.2572 20.6823C45.4471 19.0394 44.5421 16.8673 44.5421 14.1662C44.5421 12.2169 45.0016 10.5322 45.9205 9.11204C46.8673 7.69186 48.1761 6.60584 49.8469 5.85398C51.5177 5.07427 53.4948 4.68442 55.7782 4.68442C58.1731 4.68442 60.2198 5.10212 61.9184 5.93752C63.6449 6.74507 64.9676 7.90071 65.8866 9.40443C66.8055 10.8803 67.265 12.6207 67.265 14.6257H60.5818C60.5818 13.8738 60.4008 13.1916 60.0388 12.5789C59.6768 11.9385 59.1338 11.4233 58.4098 11.0335C57.7136 10.6436 56.8364 10.4487 55.7782 10.4487C54.7758 10.4487 53.9264 10.6158 53.2303 10.9499C52.562 11.2841 52.0607 11.7435 51.7266 12.3283C51.3924 12.8853 51.2253 13.4979 51.2253 14.1662C51.2253 15.0295 51.5316 15.7813 52.1443 16.4218C52.7569 17.0623 53.7594 17.4382 55.1517 17.5496L57.4908 17.7584C59.7186 17.9534 61.6817 18.4407 63.3804 19.2204C65.079 19.9722 66.4018 21.0165 67.3485 22.3531C68.3232 23.6619 68.8105 25.2631 68.8105 27.1567C68.8105 29.1059 68.2953 30.8185 67.265 32.2944C66.2625 33.7424 64.8284 34.8702 62.9627 35.6778C61.097 36.4853 58.8692 36.8891 56.2795 36.8891ZM83.555 36.3878C81.2437 36.3878 79.378 36.1094 77.9578 35.5524C76.5376 34.9677 75.4934 34.007 74.825 32.6703C74.1846 31.3058 73.8643 29.468 73.8643 27.1567V7.02354H80.0881V27.4073C80.0881 28.4933 80.3665 29.3287 80.9235 29.9135C81.5082 30.4704 82.3297 30.7489 83.3879 30.7489H86.7713V36.3878H83.555ZM70.3974 18.0926V13.2055H86.7713V18.0926H70.3974ZM105.01 36.0955V29.3287H103.882V21.9772C103.882 20.8076 103.603 19.9305 103.047 19.3457C102.49 18.7609 101.599 18.4685 100.373 18.4685C99.7606 18.4685 98.9531 18.4824 97.9506 18.5103C96.9481 18.5381 95.9178 18.5799 94.8596 18.6356C93.8015 18.6913 92.8407 18.747 91.9775 18.8027V13.1637C92.618 13.108 93.3698 13.0523 94.2331 12.9966C95.0963 12.941 95.9874 12.8992 96.9064 12.8713C97.8253 12.8435 98.6885 12.8296 99.4961 12.8296C101.835 12.8296 103.798 13.1637 105.386 13.832C107.001 14.5004 108.226 15.5168 109.061 16.8813C109.897 18.2179 110.315 19.9444 110.315 22.0607V36.0955H105.01ZM97.7 36.6802C96.057 36.6802 94.609 36.3878 93.3559 35.8031C92.1307 35.2183 91.1699 34.3829 90.4738 33.2969C89.7776 32.183 89.4295 30.8603 89.4295 29.3287C89.4295 27.6579 89.8612 26.2934 90.7244 25.2353C91.5876 24.1492 92.799 23.3556 94.3584 22.8544C95.9178 22.3253 97.7139 22.0607 99.7467 22.0607H104.634V25.7783H99.7049C98.5354 25.7783 97.6304 26.0707 96.9899 26.6554C96.3773 27.2124 96.071 27.9782 96.071 28.9528C96.071 29.8717 96.3773 30.6236 96.9899 31.2084C97.6304 31.7653 98.5354 32.0438 99.7049 32.0438C100.457 32.0438 101.125 31.9185 101.71 31.6678C102.323 31.3894 102.824 30.9299 103.214 30.2894C103.603 29.649 103.826 28.7579 103.882 27.6161L105.469 29.2869C105.33 30.8742 104.94 32.2108 104.3 33.2969C103.687 34.3829 102.824 35.2183 101.71 35.8031C100.624 36.3878 99.2872 36.6802 97.7 36.6802ZM115.985 36.0955V13.2055H121.29V23.0214H121.164C121.164 19.7912 121.847 17.299 123.211 15.5446C124.603 13.7903 126.608 12.9131 129.226 12.9131H130.103V18.6774H128.432C126.594 18.6774 125.174 19.1786 124.172 20.1811C123.169 21.1557 122.668 22.5759 122.668 24.4416V36.0955H115.985ZM149.689 36.0955L142.463 25.4023H139.246L148.561 13.2055H155.579L146.807 24.5669L146.89 21.3089L157.208 36.0955H149.689ZM133.566 36.0955V5.60336H140.249V36.0955H133.566ZM160.331 36.0955V5.60336H167.056V36.0955H160.331ZM157.616 10.5322V5.60336H167.056V10.5322H157.616ZM172.964 45.1595V39.4788H177.726C178.45 39.4788 179.062 39.3814 179.564 39.1864C180.065 39.0194 180.469 38.727 180.775 38.3093C181.081 37.8916 181.332 37.3207 181.527 36.5967L187.166 13.2055H193.515L187.124 37.9333C186.678 39.7155 186.052 41.1357 185.244 42.1939C184.465 43.2521 183.406 44.0039 182.07 44.4495C180.761 44.9229 179.09 45.1595 177.057 45.1595H172.964ZM180.148 35.5942V30.373H184.994V35.5942H180.148ZM177.392 35.5942L170.374 13.2055H177.099L183.741 35.5942H177.392ZM194.53 36.0955L204.597 5.60336H215.666L226.108 36.0955H219.008L210.57 10.3234L212.742 11.2005H207.354L209.609 10.3234L201.381 36.0955H194.53ZM202.174 28.5351L204.263 22.8544H216.209L218.339 28.5351H202.174ZM230.17 36.0955V5.60336H237.02V36.0955H230.17Z" fill="white"/>
<path fill-rule="evenodd" clip-rule="evenodd" d="M11.9 20.9073C14.1274 21.8091 16.5317 22.3654 19.0464 22.5095C19.48 22.5343 19.917 22.5469 20.3569 22.5469C20.7968 22.5469 21.2338 22.5343 21.6675 22.5095C24.1827 22.3653 26.5875 21.8089 28.8153 20.9066C33.4906 19.0133 37.3863 15.5972 39.8875 11.2735C35.989 4.53417 28.7025 0 20.3569 0C12.0114 0 4.72483 4.53417 0.826365 11.2735C3.32779 15.5977 7.2241 19.014 11.9 20.9073Z" fill="white"/>
<path d="M28.8154 22.6616C29.354 22.4434 29.8822 22.2051 30.3992 21.9475C32.0793 23.1311 33.4996 24.6051 34.5691 26.2869C32.7513 29.1454 29.9198 31.4039 26.5219 32.6557C24.9027 33.2521 23.1549 33.62 21.3268 33.7153H19.4218C17.5941 33.6201 14.3817 35.4307 19.0464 40C15.6479 38.7484 7.99749 29.1457 6.17945 26.2869C7.24588 24.6099 8.66115 23.1395 10.335 21.9576C10.846 22.2116 11.368 22.4468 11.9 22.6622C14.1274 23.564 16.5317 24.1203 19.0464 24.2644C19.4801 24.2892 19.917 24.3018 20.3569 24.3018C20.7968 24.3018 21.2338 24.2892 21.6675 24.2644C24.1827 24.1202 26.5876 23.5638 28.8154 22.6616Z" fill="white"/>
<rect width="18.8765" height="6.7416" rx="3.3708" transform="matrix(-1 0 0 1 29.7747 8.3894)" fill="#162550"/>
<ellipse cx="1.23596" cy="1.23596" rx="1.23596" ry="1.23596" transform="matrix(-1 0 0 1 16.3665 10.4868)" fill="#04FED1"/>
<ellipse cx="1.23596" cy="1.23596" rx="1.23596" ry="1.23596" transform="matrix(-1 0 0 1 21.6096 27.1162)" fill="#162550"/>
<ellipse cx="1.23596" cy="1.23596" rx="1.23596" ry="1.23596" transform="matrix(-1 0 0 1 26.5535 10.4868)" fill="#04FED1"/>
<ellipse cx="1.23596" cy="1.23596" rx="1.23596" ry="1.23596" transform="matrix(-1 0 0 1 26.5535 27.1162)" fill="#162550"/>
<ellipse cx="1.23596" cy="1.23596" rx="1.23596" ry="1.23596" transform="matrix(-1 0 0 1 16.6658 27.1162)" fill="#162550"/>
</svg>
