<svg width="229" height="123" viewBox="0 0 229 123" fill="none" xmlns="http://www.w3.org/2000/svg">
<path d="M228.407 6.62543C207.091 -6.01289 142.022 1.13757 104.292 19.5026C63.4677 39.2604 44.4358 57.544 13.6231 107.151C12.2992 103.833 11.506 101.005 10.3653 98.6133C9.18098 95.8317 7.90088 92.9035 6.1257 90.5077C5.64703 89.7747 3.45609 89.3234 2.47413 89.7555C1.49217 90.1876 0.685262 92.1784 0.868523 93.1043C2.80508 101.877 5.03707 110.458 7.21706 119.281C8.01029 122.109 10.0453 123.289 13.035 122.382C24.1675 118.459 35.3957 114.681 46.5802 110.514C49.083 109.507 51.3587 107.185 54.3128 105.256C47.8329 100.495 42.9943 104.7 38.1009 105.596C32.9641 106.441 28.0105 108.212 21.6921 109.828C28.5904 93.6129 37.6468 80.3797 48.6864 68.5701C88.9877 25.1048 139.809 6.13761 198.146 6.10148C205.761 6.14759 213.316 7.06948 220.879 7.35865C222.983 7.03066 224.938 6.79912 228.407 6.62543Z" fill="#003C56"/>
</svg>
