<svg width="167" height="31" viewBox="0 0 167 31" fill="none" xmlns="http://www.w3.org/2000/svg">
<path d="M2 1.125H8.61719C10.5859 1.125 12.3542 1.76302 13.9219 3.03906C15.3802 4.54297 16.1094 6.42057 16.1094 8.67188V9.4375C16.1094 11.5885 15.3438 13.2656 13.8125 14.4688C13.4206 14.7148 13.1471 14.8424 12.9922 14.8516C13.3568 15.0977 13.5391 15.3164 13.5391 15.5078V15.5625C13.5391 15.7266 13.4661 15.8906 13.3203 16.0547C13.3203 16.319 13.8854 16.6836 15.0156 17.1484C15.8542 17.7044 16.2734 18.306 16.2734 18.9531C16.5651 19.9466 16.7109 20.931 16.7109 21.9062L16.6562 22.2344V22.4531C16.6562 25.4154 15.5078 27.6393 13.2109 29.125C12.0807 29.7083 11.0964 30 10.2578 30H2V18.2969C2 17.6771 1.52604 17.1484 0.578125 16.7109C0.432292 16.6107 0.359375 16.5195 0.359375 16.4375C0.414062 16.2826 0.760417 15.9909 1.39844 15.5625C1.79948 15.1888 2 14.6966 2 14.0859V1.125ZM6.70312 5.55469V12.8828H8.72656C10.2396 12.8828 11.1328 11.9167 11.4062 9.98438C11.4427 9.98438 11.4609 9.78385 11.4609 9.38281V8.94531C11.4609 7.10417 10.6771 5.99219 9.10938 5.60938C8.8724 5.57292 8.63542 5.55469 8.39844 5.55469H6.70312ZM6.26562 17.0938C6.55729 17.4492 6.70312 17.7773 6.70312 18.0781V25.6797H8.67188C10.0938 25.6797 11.0964 24.8229 11.6797 23.1094C11.7891 22.6719 11.8438 22.2708 11.8438 21.9062V21.0859C11.8438 19.0625 11.1328 17.8229 9.71094 17.3672C9.19141 17.1849 8.57161 17.0938 7.85156 17.0938H6.26562ZM18.1875 1.125H24.4766C26.9831 1.125 28.7695 1.63542 29.8359 2.65625C31.1484 3.8776 31.8047 5.57292 31.8047 7.74219V12.5C31.8047 14.0495 31.3672 15.0339 30.4922 15.4531L28.8516 16.2188V16.3828C28.8516 16.4102 28.9609 16.6836 29.1797 17.2031C29.1797 17.3216 29.3073 17.5586 29.5625 17.9141C29.6719 18.0417 30.4922 21.1953 32.0234 27.375L32.7344 30H27.9766L25.3516 19.1719H22.4531V30H18.0781V18.3516C18.0781 17.6315 17.6042 17.0664 16.6562 16.6562L16.4922 16.4922V16.3281L17.6406 15.3438C17.9323 15.0247 18.0781 14.6419 18.0781 14.1953V1.23438C18.0872 1.16146 18.1237 1.125 18.1875 1.125ZM22.4531 5.60938V14.1406C22.4531 14.3229 22.4167 14.5417 22.3438 14.7969H25.1328C26.2266 14.7969 27.0104 14.1953 27.4844 12.9922C27.5208 12.7917 27.5391 12.6276 27.5391 12.5V7.85156C27.5391 6.73958 27.0286 6.02865 26.0078 5.71875C25.7161 5.64583 25.4062 5.60938 25.0781 5.60938H22.4531ZM33.418 1.125H45.8867V5.5H37.8477V13.375H43.6992V14.3594C43.6992 14.9701 43.1888 15.5352 42.168 16.0547L42.1133 16.3281C42.9792 16.9206 43.4714 17.3945 43.5898 17.75H37.793L37.8477 18.4062V25.625H45.8867V30H33.418V18.0781C33.418 17.4857 32.9076 16.957 31.8867 16.4922L31.832 16.2188C32.8893 15.4896 33.418 14.888 33.418 14.4141V1.125ZM58.082 1.125C58.1732 1.125 58.3555 2.09115 58.6289 4.02344C59.7956 10.7135 60.3789 14.25 60.3789 14.6328C60.3789 15.0885 59.9779 15.5625 59.1758 16.0547L59.1211 16.3281C60.3971 17.0938 61.0352 17.7865 61.0352 18.4062C61.0716 18.4518 61.7279 22.3164 63.0039 30H58.4102L57.3711 23.3828H52.9414C52.8411 23.3828 52.6771 24.3125 52.4492 26.1719L51.793 30H47.2539L49.2773 18.0234H49.2227C49.2227 17.987 49.2409 17.9688 49.2773 17.9688C49.2773 17.4857 48.8581 17.0117 48.0195 16.5469V16.2734C48.7943 15.7357 49.3594 15.2617 49.7148 14.8516C49.8971 14.5417 50.3164 12.2448 50.9727 7.96094C51.0091 7.85156 51.4102 5.57292 52.1758 1.125H58.082ZM55.1289 7.96094C54.5456 12.1719 54.2174 14.3776 54.1445 14.5781C53.9714 14.9154 53.6979 15.207 53.3242 15.4531C52.6315 15.8177 52.2852 16.0911 52.2852 16.2734C53.2331 16.8203 53.707 17.4036 53.707 18.0234L53.543 19.1172H56.7148C56.7148 17.7865 56.1133 16.8932 54.9102 16.4375L54.6914 16.2188V16.0547C55.5664 15.4531 56.0039 14.9792 56.0039 14.6328C56.0039 14.5234 56.0221 14.3958 56.0586 14.25C55.4753 10.3034 55.1836 8.20703 55.1836 7.96094H55.1289ZM63.6875 1.125H68.0625V11.2969H68.1172L73.3125 1.125H77.9609C77.9609 1.20703 75.9922 5.1263 72.0547 12.8828C72.4557 13.8763 72.6562 14.4414 72.6562 14.5781V14.7969C72.6562 15.1615 72.3281 15.5807 71.6719 16.0547C71.6901 16.2188 72.2005 16.5469 73.2031 17.0391C73.7682 17.4219 74.151 17.9323 74.3516 18.5703C77.4505 26.1081 79 29.918 79 30H73.8594L69.375 18.3516C69.0742 18.7253 68.6367 19.582 68.0625 20.9219V30H63.6875V18.2422C63.6875 17.7682 63.3047 17.2943 62.5391 16.8203C62.4115 16.8203 62.2474 16.7109 62.0469 16.4922V16.3828L63.25 15.3438C63.5417 15.0703 63.6875 14.5417 63.6875 13.7578V1.125ZM79.6836 1.125H92.1523V5.5H84.1133V13.375H89.9648V14.3594C89.9648 14.9701 89.4544 15.5352 88.4336 16.0547L88.3789 16.3281C89.2448 16.9206 89.737 17.3945 89.8555 17.75H84.0586L84.1133 18.4062V30H79.6836V18.0781C79.6836 17.4857 79.1732 16.957 78.1523 16.4922L78.0977 16.2188C79.1549 15.4896 79.6836 14.888 79.6836 14.4141V1.125ZM93.6289 1.125H99.918C102.424 1.125 104.211 1.63542 105.277 2.65625C106.59 3.8776 107.246 5.57292 107.246 7.74219V12.5C107.246 14.0495 106.809 15.0339 105.934 15.4531L104.293 16.2188V16.3828C104.293 16.4102 104.402 16.6836 104.621 17.2031C104.621 17.3216 104.749 17.5586 105.004 17.9141C105.113 18.0417 105.934 21.1953 107.465 27.375L108.176 30H103.418L100.793 19.1719H97.8945V30H93.5195V18.3516C93.5195 17.6315 93.0456 17.0664 92.0977 16.6562L91.9336 16.4922V16.3281L93.082 15.3438C93.3737 15.0247 93.5195 14.6419 93.5195 14.1953V1.23438C93.5286 1.16146 93.5651 1.125 93.6289 1.125ZM97.8945 5.60938V14.1406C97.8945 14.3229 97.8581 14.5417 97.7852 14.7969H100.574C101.668 14.7969 102.452 14.1953 102.926 12.9922C102.962 12.7917 102.98 12.6276 102.98 12.5V7.85156C102.98 6.73958 102.47 6.02865 101.449 5.71875C101.158 5.64583 100.848 5.60938 100.52 5.60938H97.8945ZM115.422 0.769531H116.078C118.521 0.769531 120.508 2.08203 122.039 4.70703C122.44 5.66406 122.641 6.55729 122.641 7.38672V14.2773C122.641 15.0156 122.112 15.6354 121.055 16.1367L121 16.2461V16.3555C121.009 16.4102 121.41 16.7018 122.203 17.2305C122.495 17.5495 122.641 17.9141 122.641 18.3242V23.5742C122.641 26.2357 121.292 28.2956 118.594 29.7539C117.618 30.1549 116.652 30.3555 115.695 30.3555C112.979 30.3555 110.883 28.9883 109.406 26.2539C109.042 25.3607 108.859 24.4674 108.859 23.5742V18.3789C108.859 17.5951 108.385 17.0117 107.438 16.6289C107.292 16.4557 107.219 16.3281 107.219 16.2461C108.276 15.5078 108.805 14.9245 108.805 14.4961C108.841 14.3047 108.859 14.1224 108.859 13.9492V7.38672C108.859 4.98047 110.099 3.01172 112.578 1.48047C113.59 1.00651 114.538 0.769531 115.422 0.769531ZM113.125 7.60547V14.0586C113.125 14.8333 112.633 15.4349 111.648 15.8633L111.484 16.082V16.1914C111.521 16.2826 111.904 16.556 112.633 17.0117C112.961 17.3398 113.125 17.7409 113.125 18.2148V23.3555C113.125 24.5221 113.745 25.3242 114.984 25.7617C115.13 25.7982 115.276 25.8164 115.422 25.8164H115.969C116.434 25.8164 116.926 25.5612 117.445 25.0508C117.883 24.5677 118.102 24.0026 118.102 23.3555V18.3789C118.102 17.5039 117.628 16.8659 116.68 16.4648C116.661 16.3919 116.57 16.319 116.406 16.2461C116.406 16.0273 116.716 15.7721 117.336 15.4805C117.846 15.125 118.102 14.6146 118.102 13.9492V7.60547C118.102 6.35677 117.445 5.53646 116.133 5.14453L115.586 5.08984C114.401 5.08984 113.599 5.74609 113.18 7.05859C113.143 7.25 113.125 7.43229 113.125 7.60547ZM124.008 1.125H130.297C131.865 9.16406 132.721 13.612 132.867 14.4688C132.867 14.9792 132.43 15.5078 131.555 16.0547C131.555 16.237 131.974 16.5469 132.812 16.9844C133.396 17.4219 133.688 17.987 133.688 18.6797C133.979 19.9102 134.18 20.931 134.289 21.7422H134.344C134.745 19.5182 134.982 18.2969 135.055 18.0781C135.055 17.3854 134.617 16.8021 133.742 16.3281V16.1094L135.219 15.125C135.538 14.8789 135.775 14.2773 135.93 13.3203C137.388 5.47266 138.154 1.40755 138.227 1.125H144.242V14.3047C144.242 15.0794 143.732 15.6992 142.711 16.1641L142.602 16.3281V16.4375C142.602 16.4648 143.003 16.7565 143.805 17.3125C144.096 17.7135 144.242 18.0052 144.242 18.1875V30H139.867V18.2969C139.867 17.6771 139.339 17.0755 138.281 16.4922C138.281 16.4375 138.245 16.3646 138.172 16.2734C138.254 16.1367 138.618 15.8815 139.266 15.5078C139.667 15.1797 139.867 14.7057 139.867 14.0859V12.0625H139.812C139.484 14.0677 139.211 15.0703 138.992 15.0703C138.992 15.207 138.5 15.5352 137.516 16.0547L137.352 16.2734C137.352 16.401 137.625 16.6745 138.172 17.0938C138.409 17.3398 138.555 17.668 138.609 18.0781L136.094 30H132.648C132.557 30 132.357 29.1979 132.047 27.5938L129.695 17.75C129.24 17.1758 128.693 16.7565 128.055 16.4922C127.891 16.3828 127.781 16.3281 127.727 16.3281V16.1094C128.492 15.4622 128.875 15.043 128.875 14.8516C128.911 14.7057 128.93 14.5781 128.93 14.4688L128.438 12.1172H128.383V14.1406C128.383 14.8607 127.909 15.4805 126.961 16L126.797 16.2188V16.3281C126.797 16.3646 127.198 16.6562 128 17.2031C128.255 17.4948 128.383 17.8411 128.383 18.2422V30H124.008V18.1328C123.798 17.6042 123.27 17.112 122.422 16.6562C122.422 16.6198 122.404 16.5651 122.367 16.4922C122.367 16.3919 122.786 16.0638 123.625 15.5078C123.88 15.125 124.008 14.7422 124.008 14.3594V1.125ZM156.438 1.125C156.529 1.125 156.711 2.09115 156.984 4.02344C158.151 10.7135 158.734 14.25 158.734 14.6328C158.734 15.0885 158.333 15.5625 157.531 16.0547L157.477 16.3281C158.753 17.0938 159.391 17.7865 159.391 18.4062C159.427 18.4518 160.083 22.3164 161.359 30H156.766L155.727 23.3828H151.297C151.197 23.3828 151.033 24.3125 150.805 26.1719L150.148 30H145.609L147.633 18.0234H147.578C147.578 17.987 147.596 17.9688 147.633 17.9688C147.633 17.4857 147.214 17.0117 146.375 16.5469V16.2734C147.15 15.7357 147.715 15.2617 148.07 14.8516C148.253 14.5417 148.672 12.2448 149.328 7.96094C149.365 7.85156 149.766 5.57292 150.531 1.125H156.438ZM153.484 7.96094C152.901 12.1719 152.573 14.3776 152.5 14.5781C152.327 14.9154 152.053 15.207 151.68 15.4531C150.987 15.8177 150.641 16.0911 150.641 16.2734C151.589 16.8203 152.062 17.4036 152.062 18.0234L151.898 19.1172H155.07C155.07 17.7865 154.469 16.8932 153.266 16.4375L153.047 16.2188V16.0547C153.922 15.4531 154.359 14.9792 154.359 14.6328C154.359 14.5234 154.378 14.3958 154.414 14.25C153.831 10.3034 153.539 8.20703 153.539 7.96094H153.484ZM162.043 1.125H166.418V14.25C166.418 14.888 165.908 15.4531 164.887 15.9453L164.777 16.1094V16.3281C165.871 16.8385 166.418 17.4766 166.418 18.2422V30H162.043V18.2969C162.043 17.4857 161.496 16.8294 160.402 16.3281V16C161.496 15.4987 162.043 14.8424 162.043 14.0312V1.125Z" fill="#1E1F24"/>
</svg>
