<svg width="63" height="63" viewBox="0 0 63 63" fill="none" xmlns="http://www.w3.org/2000/svg">
<rect x="0.5" y="0.5" width="62" height="62" rx="9.5" stroke="#B2B2B2"/>
<g clip-path="url(#clip0_1_163)">
<path fill-rule="evenodd" clip-rule="evenodd" d="M13.608 23.9668H14.066V23.0319C14.066 22.6046 14.2426 22.2169 14.5267 21.934L14.5277 21.9331C14.8119 21.6512 15.204 21.476 15.6344 21.476H16.9176V18.7856C16.9176 16.7033 18.6343 15 20.7327 15H42.268C44.3664 15 46.083 16.7029 46.083 18.7856V21.476H47.3663C47.796 21.476 48.1878 21.6512 48.4719 21.9331L48.4739 21.934C48.7581 22.2169 48.9346 22.6049 48.9346 23.0319V23.9668H49.3927C49.7272 23.9668 50 24.2375 50 24.5693V29.2214C50 29.5528 49.7272 29.8238 49.3927 29.8238H47.7977C47.4635 29.8238 47.1904 29.5532 47.1904 29.2214V24.5693C47.1904 24.2378 47.4632 23.9668 47.7977 23.9668H48.2557V23.0319C48.2557 22.7883 48.1564 22.5672 47.9962 22.4079L47.9942 22.407C47.8336 22.2477 47.6108 22.1485 47.3663 22.1485H46.083V41.1578C46.083 43.0313 44.6922 44.5978 42.8846 44.8929V47.1983C42.8846 47.6395 42.5202 48 42.0754 48H39.8998C39.455 48 39.0906 47.6395 39.0906 47.1983V44.9424H23.9097V47.1983C23.9097 47.6395 23.5463 48 23.1006 48H20.9249C20.4802 48 20.1167 47.6395 20.1167 47.1983V44.8929C18.3085 44.5978 16.9183 43.0316 16.9183 41.1578V22.1485H15.6351C15.3896 22.1485 15.1667 22.2477 15.0061 22.407L15.0051 22.4079C14.8446 22.5672 14.7446 22.7883 14.7446 23.0319V23.9668H15.2027C15.5368 23.9668 15.81 24.2375 15.81 24.5693V29.2214C15.81 29.5528 15.5371 29.8238 15.2027 29.8238H13.6086C13.2742 29.8238 13.0003 29.5532 13.0003 29.2214V24.5693C13.0003 24.2378 13.2742 23.9668 13.6086 23.9668H13.608ZM38.6409 16.9035C38.6409 16.7647 38.5266 16.6514 38.3877 16.6514H24.613C24.4731 16.6514 24.3591 16.7647 24.3591 16.9035V18.7136C24.3591 18.8524 24.4734 18.9647 24.613 18.9647H38.3877C38.5266 18.9647 38.6409 18.8524 38.6409 18.7136V16.9035ZM38.0922 41.6261L42.6458 40.8307C43.3757 40.7034 44.0056 40.3323 44.0056 39.7226V38.1515C44.0056 37.5418 43.3154 36.7724 42.6458 37.0434L38.0922 38.8861C35.5397 39.9185 36.9759 41.8211 38.0922 41.6261ZM28.3024 43.525C28.3024 43.6638 28.4167 43.7769 28.5556 43.7769H34.4444C34.5843 43.7769 34.6982 43.6635 34.6982 43.525V41.715C34.6982 41.5762 34.584 41.4639 34.4444 41.4639H28.5556C28.4167 41.4639 28.3024 41.5762 28.3024 41.715V43.525ZM18.9944 39.7226C18.9944 40.3323 19.6243 40.7034 20.3552 40.8307L24.9078 41.6261C26.0644 41.8284 27.3497 39.8733 24.9078 38.8861L20.3552 37.0434C19.6856 36.7727 18.9944 37.5418 18.9944 38.1515V39.7226ZM18.6799 33.1183C18.6799 33.9716 19.3881 34.5787 20.2436 34.6696C27.7481 35.4641 35.2526 35.4641 42.756 34.6696C43.6115 34.5787 44.3198 33.9716 44.3198 33.1183V21.9463C44.3198 21.093 43.6162 20.395 42.756 20.395H20.2436C19.3835 20.395 18.6799 21.093 18.6799 21.9463V33.1183Z" fill="#353844"/>
</g>
<defs>
<clipPath id="clip0_1_163">
<rect width="37" height="33" fill="white" transform="matrix(-1 0 0 1 50 15)"/>
</clipPath>
</defs>
</svg>
