<svg width="42" height="45" viewBox="0 0 42 45" fill="none" xmlns="http://www.w3.org/2000/svg">
<g clip-path="url(#clip0_590_3724)">
<path d="M22.9193 30.0412L21.7032 30.7881L20.5379 21.8335L17.7145 21.4033C16.7017 21.2509 15.7769 20.6818 15.2062 19.8332C15.0791 19.6554 14.9657 19.4911 14.8522 19.3387L13.421 24.164L16.0801 25.2277C17.2962 25.7222 18.1701 26.8113 18.3852 28.09L19.0814 32.3328L15.4839 32.3463L14.8759 28.6744C14.8759 28.61 14.8251 28.5592 14.7624 28.5219L12.4065 27.5836L10.5705 33.764L8.06212 36.3858L6.17534 36.1199L9.10036 26.2405C7.83347 25.6325 7.14922 24.2403 7.46594 22.8463L8.45337 18.502C8.33989 18.5664 8.23827 18.6172 8.12479 18.6917C7.83347 18.8695 7.57942 19.1354 7.41513 19.4522L5.7807 22.5669C5.50124 23.0868 4.96942 23.39 4.41219 23.39C4.15814 23.39 3.91763 23.3392 3.69067 23.2139C2.9302 22.8209 2.65243 21.8843 3.04537 21.1238L4.6798 18.0091C5.11 17.186 5.75699 16.5017 6.56658 16.0343C10.3402 13.7918 10.7958 13.8308 11.2785 13.8562L13.8241 14.0205C14.5964 14.0713 15.1283 14.2745 17.7501 18.0853C17.8517 18.2378 18.0042 18.3258 18.1803 18.3648L20.1315 18.6561L20.0688 18.2259C20.018 17.8584 20.272 17.5298 20.6379 17.479C20.9919 17.4417 21.3221 17.6941 21.3729 18.0498L21.4746 18.8865C22.2096 19.088 22.7025 19.8112 22.589 20.5836C22.5128 21.0646 22.235 21.444 21.8421 21.6862L22.9193 30.0446V30.0412Z" fill="#043065"/>
<path d="M12.718 13.0534C14.5963 13.2583 16.2849 11.9016 16.4882 10.0233C16.6931 8.14501 15.3365 6.45639 13.4581 6.25314C11.5798 6.0482 9.8912 7.40486 9.68796 9.28318C9.48302 11.1615 10.8397 12.8501 12.718 13.0534Z" fill="#043065"/>
<path d="M33.0662 32.3464L26.7351 30.3732C26.3287 30.2462 25.8866 30.3021 25.5241 30.5256L19.7181 34.1095L13.3888 34.1366C12.923 34.1383 12.4776 34.3314 12.1557 34.6684L9.34759 37.6155C8.96989 38.0118 8.42452 38.2032 7.88254 38.1304L4.10727 37.6256C3.40608 37.5325 2.72013 37.8797 2.38139 38.5013L0.215142 42.4696C-0.406448 43.6095 0.418386 44.9983 1.71576 44.9983H39.6259C41.0402 44.9983 41.6397 43.1996 40.51 42.3511L36.5688 39.3905C36.3452 39.2228 36.1742 38.9942 36.0759 38.7316L34.0096 33.2322C33.8504 32.8071 33.5032 32.4802 33.0696 32.3447L33.0662 32.3464Z" fill="#043065"/>
<path d="M29.794 13.3989C32.1093 13.3989 33.9842 11.5223 33.9842 9.20865C33.9842 6.89506 32.1076 5.01843 29.794 5.01843C27.4804 5.01843 25.6021 6.89506 25.6021 9.20865C25.6021 11.5223 27.4787 13.3989 29.794 13.3989Z" fill="#00ACC1"/>
<path d="M29.7924 3.59404C30.3818 3.59404 30.8577 3.11641 30.8577 2.5287V1.06534C30.8577 0.475931 30.3801 0 29.7924 0C29.2047 0 28.7271 0.477624 28.7271 1.06534V2.52701C28.7271 3.11641 29.2047 3.59234 29.7924 3.59234V3.59404Z" fill="#00ACC1"/>
<path d="M24.3164 5.23695C24.5247 5.44528 24.7974 5.55029 25.07 5.55029C25.3427 5.55029 25.6154 5.44697 25.8237 5.23865C26.2404 4.822 26.2404 4.1479 25.8237 3.73125L24.7906 2.6964C24.3756 2.27975 23.6998 2.27975 23.2832 2.6964C22.8665 3.11305 22.8665 3.78714 23.2832 4.2038L24.3164 5.23865V5.23695Z" fill="#00ACC1"/>
<path d="M24.1793 9.20694C24.1793 8.61753 23.7016 8.1416 23.1139 8.1416H21.6523C21.0628 8.1416 20.5869 8.61923 20.5869 9.20694C20.5869 9.79466 21.0645 10.2723 21.6523 10.2723H23.1139C23.7033 10.2723 24.1793 9.79466 24.1793 9.20694Z" fill="#00ACC1"/>
<path d="M24.3164 13.177L23.2832 14.2118C22.8665 14.6285 22.8665 15.3025 23.2832 15.7192C23.4915 15.9275 23.7642 16.0308 24.0369 16.0308C24.3096 16.0308 24.584 15.9275 24.7906 15.7175L25.8237 14.6827C26.2404 14.266 26.2404 13.5919 25.8237 13.1753C25.4071 12.7586 24.7313 12.7603 24.3164 13.1753V13.177Z" fill="#00ACC1"/>
<path d="M28.7271 15.887V17.3487C28.7271 17.9381 29.2047 18.414 29.7924 18.414C30.3801 18.414 30.8577 17.9364 30.8577 17.3487V15.887C30.8577 15.2976 30.3801 14.8217 29.7924 14.8217C29.2047 14.8217 28.7271 15.2993 28.7271 15.887Z" fill="#00ACC1"/>
<path d="M35.2696 13.177C34.8546 12.7603 34.1788 12.7603 33.7622 13.177C33.3455 13.5936 33.3455 14.2677 33.7622 14.6844L34.7954 15.7192C35.0037 15.9276 35.2764 16.0326 35.5491 16.0326C35.8217 16.0326 36.0944 15.9293 36.3028 15.7209C36.7194 15.3043 36.7194 14.6302 36.3028 14.2135L35.2696 13.1787V13.177Z" fill="#00ACC1"/>
<path d="M35.4067 9.20694C35.4067 9.79635 35.8844 10.2723 36.4721 10.2723H37.9337C38.5232 10.2723 38.9991 9.79466 38.9991 9.20694C38.9991 8.61923 38.5215 8.1416 37.9337 8.1416H36.4721C35.8827 8.1416 35.4067 8.61923 35.4067 9.20694Z" fill="#00ACC1"/>
<path d="M34.5159 5.55027C34.7886 5.55027 35.063 5.44696 35.2696 5.23694L36.3028 4.20209C36.7194 3.78544 36.7194 3.11134 36.3028 2.69469C35.8861 2.27804 35.2103 2.27804 34.7954 2.69469L33.7622 3.72954C33.3455 4.14619 33.3455 4.82029 33.7622 5.23694C33.9705 5.44526 34.2432 5.54858 34.5159 5.54858V5.55027Z" fill="#00ACC1"/>
</g>
<defs>
<clipPath id="clip0_590_3724">
<rect width="41.096" height="45" fill="white"/>
</clipPath>
</defs>
</svg>
