<svg width="60" height="40" viewBox="0 0 60 40" fill="none" xmlns="http://www.w3.org/2000/svg">
<g clip-path="url(#clip0_662_2528)">
<path d="M39.7912 26.0294L42.2596 23.1106C42.1708 22.9838 42.0926 22.8358 42.0248 22.6878C41.4574 21.4405 41.6425 19.9955 42.5336 18.9339L45.2277 15.7312L36.4318 0.767082C36.1579 0.295961 35.6477 0 35.0893 0C34.5309 0 34.0312 0.295961 33.7377 0.767082L24.1877 16.823L18.1251 4.91355C17.8707 4.40317 17.3515 4.08909 16.7735 4.05889C16.2151 4.03926 15.6763 4.34428 15.3722 4.83503L0.316534 30.5655C-0.56998 32.08 0.519725 33.9902 2.27018 33.9902H37.8436C37.9701 33.5568 38.1958 33.1552 38.4999 32.7912L40.0862 30.8947C39.7536 30.5912 39.4887 30.2167 39.293 29.7848C38.7061 28.527 38.9017 27.0925 39.7927 26.031L39.7912 26.0294ZM20.1735 17.6384C19.9387 17.7758 19.6347 17.7848 19.3803 17.658L18.1356 17.0389C17.8813 16.9105 17.5878 16.9211 17.3334 17.0585L16.4318 17.5795C16.1474 17.7471 15.7756 17.7274 15.5017 17.5206L15.1103 17.2458C14.8454 17.0495 14.4842 17.0193 14.1907 17.1869L13.3388 17.6776C13.0649 17.8347 12.7217 17.8256 12.4568 17.658L11.7705 17.2156L16.638 8.91204L20.8885 17.2442L20.1735 17.6368V17.6384ZM37.2055 13.7576C36.921 13.6202 36.5974 13.6293 36.3235 13.7878L35.3436 14.3481C35.02 14.5247 34.6377 14.5157 34.3352 14.2892L33.9138 13.9947C33.6188 13.7682 33.2184 13.7486 32.9053 13.9358L31.9752 14.4568C31.6802 14.6334 31.2994 14.6244 31.0149 14.4371L29.7521 13.6217L35.0802 4.6493L40.4776 13.8271L39.439 14.416C39.1546 14.5625 38.8415 14.5836 38.557 14.4356L37.2055 13.7576Z" fill="#043065"/>
<path d="M59.7968 34.5082L55.2845 29.1612H57.8477C58.5731 29.1612 58.966 28.3111 58.4979 27.7554L53.6966 22.0673H55.1069C55.8323 22.0673 56.2252 21.2171 55.7556 20.6599L50.8113 14.8026C50.4711 14.3995 49.8525 14.3995 49.5123 14.8026L44.568 20.6599C44.0999 21.2171 44.4928 22.0673 45.2182 22.0673H46.6285L41.8257 27.7554C41.3591 28.3111 41.752 29.1612 42.4759 29.1612H45.0406L40.5283 34.5082C40.0602 35.0654 40.453 35.9155 41.1785 35.9155H48.1969V39.4474C48.1969 39.7539 48.4437 40.0016 48.7507 40.0016H51.5789C51.8844 40.0016 52.1327 39.7539 52.1327 39.4474V35.9155H59.1511C59.8766 35.9155 60.2694 35.0654 59.8013 34.5082H59.7968Z" fill="#00ACC1"/>
</g>
<defs>
<clipPath id="clip0_662_2528">
<rect width="60" height="40" fill="white"/>
</clipPath>
</defs>
</svg>
