<svg width="22" height="22" viewBox="0 0 22 22" fill="none" xmlns="http://www.w3.org/2000/svg">
<g clip-path="url(#clip0_590_3791)">
<path d="M20.8714 13.1129L17.6047 11.9652L15.1192 14.3504L15.2164 10.931L12.1489 9.33597L15.4754 8.37012L16.0656 4.99902L18.0242 7.82213L21.4561 7.33317L19.3404 10.0436L20.8714 13.1129Z" fill="#00ACC1"/>
<path d="M14.6849 18.7805C9.87899 18.7805 5.98276 14.9366 5.98276 10.1952C5.98276 5.45376 9.87899 1.60979 14.6849 1.60979C15.1506 1.60979 15.604 1.65607 16.0493 1.72583C14.5829 0.969914 12.9186 0.536621 11.1496 0.536621C5.29203 0.536621 0.543945 5.22101 0.543945 11C0.543945 16.7791 5.29203 21.4635 11.1496 21.4635C14.6318 21.4635 17.7122 19.8007 19.6457 17.2439C18.2378 18.2104 16.53 18.7805 14.6849 18.7805Z" fill="#00ACC1"/>
</g>
<defs>
<clipPath id="clip0_590_3791">
<rect width="22" height="22" fill="white"/>
</clipPath>
</defs>
</svg>
