<svg width="63" height="63" viewBox="0 0 63 63" fill="none" xmlns="http://www.w3.org/2000/svg">
<rect x="0.5" y="0.5" width="62" height="62" rx="9.5" stroke="#B2B2B2"/>
<g clip-path="url(#clip0_1_160)">
<path fill-rule="evenodd" clip-rule="evenodd" d="M28.1506 38.3534H35.8495C36.1246 38.3534 36.3486 38.5825 36.3486 38.86V39.7729C36.3486 40.0522 36.1228 40.2795 35.8495 40.2795H28.1506C27.8755 40.2795 27.6515 40.0504 27.6515 39.7729V38.86C27.6515 38.5807 27.8772 38.3534 28.1506 38.3534ZM28.8914 18.8628H30.5158V19.2996H29.9708V20.6243H29.4364V19.2996H28.8914V18.8628ZM34.576 18.8628V20.6243H35.1157V18.8628H34.576ZM34.3309 18.8628H33.7506L33.4507 19.4052L33.1456 18.8628H32.5565L33.0962 19.706L32.5018 20.6243H33.0962L33.4419 20.0568L33.7823 20.6243H34.3873L33.7982 19.7167L34.3326 18.8646L34.3309 18.8628ZM31.6605 20.3343H31.0502L30.9656 20.6243H30.4206L31.0696 18.8628H31.6552L32.306 20.6243H31.7469L31.6623 20.3343H31.6605ZM31.5459 19.953L31.3554 19.3193L31.1649 19.953H31.5441H31.5459ZM37.645 20.9125L36.5849 18.6391C36.4156 18.2793 35.98 18 35.5849 18H28.4152C28.0201 18 27.5844 18.2793 27.4151 18.6391L26.3551 20.9125H26.1046C24.639 20.9125 23.0145 21.7753 22.2455 23.0391L20.0355 26.6462H17.2206C15.926 26.6462 15.5009 28.7209 16.7355 29.1129L18.2347 29.5891L17.5592 30.6954C16.6985 32.1006 16.5045 34.5154 16.5045 36.7584V44.1873C16.5045 44.633 16.8643 45 17.3052 45H20.7058C21.1449 45 21.5065 44.6348 21.5065 44.1873V42.2092H42.4953V44.1873C42.4953 44.633 42.8551 45 43.2961 45H46.6966C47.1358 45 47.4974 44.6348 47.4974 44.1873V36.7584C47.4974 34.5154 47.3016 32.1006 46.4426 30.6954L45.7671 29.5891L47.2663 29.1129C48.5009 28.7227 48.0759 26.6462 46.7813 26.6462H43.9663L41.7563 23.0391C40.9855 21.7753 39.3611 20.9125 37.8972 20.9125H37.6467H37.645ZM42.9345 29.5891H21.0656C20.5558 29.5891 20.3001 29.1022 20.5752 28.6511L23.5207 23.8411C24.0199 23.0248 25.1663 22.4359 26.1064 22.4359H37.8954C38.8355 22.4359 39.9802 23.0248 40.4793 23.8411L43.4248 28.6511C43.7 29.1022 43.4442 29.5891 42.9345 29.5891ZM20.7904 32.7862L23.5101 33.7707C23.9899 33.948 24.3356 34.4152 24.3356 34.9683C24.3356 35.6682 23.78 36.2375 23.0851 36.2375H20.1996C19.2348 36.2375 18.4499 35.4409 18.4499 34.4617C18.4499 33.4825 19.2348 32.6859 20.1996 32.6859C20.4094 32.6859 20.6052 32.7217 20.7887 32.788L20.7904 32.7862ZM43.2096 32.7862C43.3948 32.7199 43.5889 32.6841 43.7987 32.6841C44.7635 32.6841 45.5484 33.4754 45.5484 34.4599C45.5484 35.4445 44.7635 36.2357 43.7987 36.2357H40.9132C40.2236 36.2357 39.6627 35.6682 39.6627 34.9665C39.6627 34.4134 40.0084 33.9462 40.4934 33.7689L43.2079 32.7844L43.2096 32.7862Z" fill="#353844"/>
</g>
<defs>
<clipPath id="clip0_1_160">
<rect width="32" height="27" fill="white" transform="translate(16 18)"/>
</clipPath>
</defs>
</svg>
