<svg width="29" height="22" viewBox="0 0 29 22" fill="none" xmlns="http://www.w3.org/2000/svg">
<g clip-path="url(#clip0_590_3801)">
<path d="M20.0068 21.5417C21.9129 21.5417 23.4573 19.9788 23.4573 18.0515C23.4573 16.1242 21.9122 14.5613 20.0068 14.5613C19.8957 14.5613 19.7862 14.5674 19.6775 14.5781C19.8874 14.0984 20.0068 13.5682 20.0068 13.0098C20.0068 10.8679 18.2902 9.13158 16.1726 9.13158C15.218 9.13158 14.3472 9.48679 13.6758 10.0704C13.0792 7.96206 11.1633 6.41748 8.88707 6.41748C6.13434 6.41748 3.9027 8.67477 3.9027 11.4591C3.9027 12.0137 3.99483 12.5454 4.15796 13.045C2.07056 13.3009 0.452148 15.096 0.452148 17.2769C0.452148 19.6328 2.34017 21.5432 4.66999 21.5432H20.0068V21.5417Z" fill="#00ACC1" stroke="#00ACC1" stroke-width="2" stroke-linecap="round" stroke-linejoin="round"/>
<path d="M23.594 14.1627H25.4201C27.1465 14.1627 28.5466 12.7464 28.5466 11.0002C28.5466 9.25391 27.1465 7.83766 25.4201 7.83766C25.3204 7.83766 25.2207 7.84225 25.121 7.85141C25.3113 7.416 25.4201 6.93933 25.4201 6.43058C25.4201 4.49183 23.8659 2.91975 21.9446 2.91975C21.0791 2.91975 20.2907 3.24058 19.6835 3.76766C19.1443 1.85641 17.4088 0.458496 15.3471 0.458496C12.9002 0.458496 10.911 2.42016 10.834 4.87683" stroke="#00ACC1" stroke-width="2" stroke-linecap="round" stroke-linejoin="round"/>
</g>
<defs>
<clipPath id="clip0_590_3801">
<rect width="29" height="22" fill="white"/>
</clipPath>
</defs>
</svg>
