<svg width="15" height="18" viewBox="0 0 15 18" fill="none" xmlns="http://www.w3.org/2000/svg">
<path fill-rule="evenodd" clip-rule="evenodd" d="M4.09738 0.642003C3.81349 0.668482 3.53005 0.698512 3.24717 0.731962L1.94345 0.880416C1.66908 0.911659 1.47199 1.15941 1.50323 1.43378C1.53448 1.70814 1.78222 1.90524 2.05659 1.874L2.79559 1.78985C2.74947 1.91618 2.71614 2.04408 2.69094 2.16984C2.63356 2.45608 2.6126 2.76453 2.59325 3.04932L2.59269 3.05759L2.5926 3.05898L2.5926 3.05899L2.11876 10.332L1.04831 10.2281C0.773454 10.2015 0.529026 10.4027 0.50236 10.6775C0.475694 10.9524 0.676889 11.1968 0.951741 11.2235L2.48224 11.3719C3.19542 11.4438 3.91151 11.4998 4.62924 11.5387C4.6301 11.5459 4.63112 11.5531 4.6323 11.5604L4.79218 12.5425L4.79224 12.5429L4.79956 12.5886C4.84964 12.903 4.92028 13.3465 5.21439 13.6814C5.55176 14.0656 6.07243 14.2086 6.76008 14.2086H7.35696V17C7.35696 17.2761 7.58081 17.5 7.85696 17.5C8.1331 17.5 8.35696 17.2761 8.35696 17V14.2086H8.7258C9.41934 14.2086 9.93833 14.0571 10.2736 13.6705C10.5633 13.3363 10.6352 12.8984 10.6852 12.5941L10.6933 12.5451L10.6934 12.5442L10.8534 11.5727C10.8573 11.5493 10.8594 11.526 10.86 11.503C12.0881 11.4397 13.3147 11.3465 14.5359 11.2233C14.8107 11.1955 15.0109 10.9503 14.9832 10.6756C14.9555 10.4008 14.7103 10.2006 14.4355 10.2283C14.076 10.2646 13.716 10.2982 13.3556 10.3293L12.8819 3.05898L12.8818 3.05759L12.8813 3.0493C12.8619 2.76451 12.841 2.45608 12.7836 2.16984C12.7584 2.04414 12.7251 1.9163 12.679 1.79003C12.93 1.81617 13.1807 1.84407 13.4312 1.87374C13.7054 1.90622 13.9541 1.71024 13.9866 1.43602C14.019 1.16179 13.8231 0.913158 13.5488 0.880677C12.8643 0.799601 12.1779 0.731479 11.4903 0.676309C11.1207 0.555383 10.6733 0.500061 10.143 0.500061H7.09263H5.33155C4.85428 0.500061 4.44411 0.544876 4.09738 0.642003ZM7.09263 1.50006C8.4858 1.50006 9.88317 1.55422 11.2764 1.66252C11.4555 1.7365 11.557 1.8259 11.6207 1.90891C11.7019 2.01455 11.7613 2.15799 11.8031 2.36636C11.8458 2.57971 11.8636 2.8236 11.8841 3.12482L11.8841 3.12539L12.3586 10.4083C10.5675 10.538 8.76937 10.6029 6.97716 10.6029C5.68799 10.6029 4.39794 10.542 3.11466 10.4275L3.59039 3.12539L3.59044 3.1247C3.61091 2.82353 3.62868 2.57968 3.67144 2.36636C3.7132 2.15799 3.77266 2.01455 3.85379 1.90891C3.92766 1.81274 4.05214 1.70799 4.28935 1.62859C5.22185 1.54444 6.15762 1.50006 7.09263 1.50006ZM5.77931 12.3826L5.64901 11.5822C6.09143 11.5959 6.53425 11.6029 6.97716 11.6029C7.93173 11.6029 8.88795 11.5848 9.84396 11.5484L9.70688 12.3807L9.70682 12.3811C9.64337 12.7617 9.60373 12.9165 9.51803 13.0154C9.46183 13.0802 9.30082 13.2086 8.7258 13.2086H8.20103C8.11139 13.1236 7.99027 13.0714 7.85696 13.0714C7.72365 13.0714 7.60252 13.1236 7.51289 13.2086H6.76008C6.17916 13.2086 6.01983 13.0831 5.96578 13.0215C5.88315 12.9275 5.84276 12.7759 5.77942 12.3833L5.77931 12.3826Z" fill="#444444"/>
</svg>
