<svg width="140" height="13" viewBox="0 0 140 13" fill="none" xmlns="http://www.w3.org/2000/svg">
<path d="M12.8 2.54403H7.728V12H5.36V2.54403H0.288V0.51203H12.8V2.54403ZM20.0145 0.33603C23.9345 0.33603 26.7985 2.84803 26.7985 6.25603C26.7985 9.66403 23.9345 12.176 20.0145 12.176C16.0785 12.176 13.2305 9.66403 13.2305 6.25603C13.2305 2.84803 16.0785 0.33603 20.0145 0.33603ZM20.0145 2.40003C17.4385 2.40003 15.6465 3.93603 15.6465 6.25603C15.6465 8.57603 17.4385 10.112 20.0145 10.112C22.5905 10.112 24.3825 8.57603 24.3825 6.25603C24.3825 3.93603 22.5905 2.40003 20.0145 2.40003ZM34.5514 12.16C30.5194 12.16 28.6474 9.92003 28.6474 6.57603V0.51203H30.9994V6.44803C30.9994 8.60803 31.9274 10.096 34.5514 10.096C37.1594 10.096 38.0874 8.60803 38.0874 6.44803V0.51203H40.4554V6.57603C40.4554 9.92003 38.5674 12.16 34.5514 12.16ZM45.3069 7.72803V12H42.9549V0.51203H50.1709C52.7789 0.51203 54.5389 1.76003 54.5389 4.12803C54.5389 5.88803 53.5149 7.05603 51.8829 7.50403L54.8109 12H52.1069L49.4029 7.72803H45.3069ZM45.3069 5.76003H50.0429C51.4189 5.76003 52.2029 5.16803 52.2029 4.14403C52.2029 3.10403 51.4189 2.51203 50.0429 2.51203H45.3069V5.76003ZM59.0288 0.51203V12H56.6768V0.51203H59.0288ZM60.6361 9.50403L62.2201 7.85603C63.5321 9.61603 65.6121 10.16 67.3081 10.16C69.2281 10.16 70.5881 9.58403 70.5881 8.65603C70.5881 7.56803 69.6441 7.47203 66.4121 7.12003C63.5961 6.80003 61.4361 6.27203 61.4361 4.00003C61.4361 1.82403 63.5641 0.33603 66.8281 0.33603C69.3881 0.33603 71.6921 1.24803 72.7321 2.62403L71.1641 4.12803C70.2841 2.99203 68.6521 2.33603 66.7001 2.33603C64.6521 2.33603 63.7241 2.99203 63.7241 3.76003C63.7241 4.59203 64.4921 4.78403 67.4041 5.12003C70.6681 5.48803 72.9721 5.92003 72.9721 8.40003C72.9721 10.912 70.4601 12.176 67.2121 12.176C64.4761 12.176 61.7561 11.12 60.6361 9.50403ZM86.5688 2.54403H81.4968V12H79.1288V2.54403H74.0568V0.51203H86.5688V2.54403ZM101.128 12H98.4398L92.6318 0.51203H95.1918L99.8158 9.68003L104.424 0.51203H106.936L101.128 12ZM110.997 0.51203V12H108.645V0.51203H110.997ZM112.605 9.50403L114.189 7.85603C115.501 9.61603 117.581 10.16 119.277 10.16C121.197 10.16 122.557 9.58403 122.557 8.65603C122.557 7.56803 121.613 7.47203 118.381 7.12003C115.565 6.80003 113.405 6.27203 113.405 4.00003C113.405 1.82403 115.533 0.33603 118.797 0.33603C121.357 0.33603 123.661 1.24803 124.701 2.62403L123.133 4.12803C122.253 2.99203 120.621 2.33603 118.669 2.33603C116.621 2.33603 115.693 2.99203 115.693 3.76003C115.693 4.59203 116.461 4.78403 119.373 5.12003C122.637 5.48803 124.941 5.92003 124.941 8.40003C124.941 10.912 122.429 12.176 119.181 12.176C116.445 12.176 113.725 11.12 112.605 9.50403ZM131.402 0.51203H134.042L139.834 12H137.29L135.962 9.32803H129.466L128.122 12H125.61L131.402 0.51203ZM132.714 2.83203L130.458 7.32803H134.954L132.714 2.83203Z" fill="#C59714"/>
</svg>
