<svg width="169" height="32" viewBox="0 0 169 32" fill="none" xmlns="http://www.w3.org/2000/svg">
<path d="M103.751 9.81363V5.22073H106.098C107.71 5.22073 108.727 6.11628 108.727 7.51718C108.727 8.91808 107.71 9.81363 106.098 9.81363H103.751ZM104.672 9.00763H106.098C107.147 9.00763 107.768 8.41913 107.768 7.51718C107.768 6.60883 107.147 6.02673 106.098 6.02673H104.672V9.00763ZM110.533 5.22073V9.81363H109.593V5.22073H110.533ZM112.596 8.10568V9.81363H111.655V5.22073H114.54C115.583 5.22073 116.287 5.71968 116.287 6.6664C116.287 7.37005 115.877 7.83702 115.225 8.01613L116.395 9.81363H115.314L114.233 8.10568H112.596ZM112.596 7.31888H114.489C115.039 7.31888 115.353 7.0822 115.353 6.6728C115.353 6.25701 115.039 6.02033 114.489 6.02033H112.596V7.31888ZM117.141 5.22073H121.587V6.03312H118.069V7.05661H121.223V7.86261H118.069V9.00123H121.587V9.81363H117.141V5.22073ZM122.184 7.51718C122.184 6.15466 123.342 5.15036 124.896 5.15036C126.099 5.15036 126.982 5.69409 127.334 6.59604L126.521 7.00543C126.259 6.35936 125.709 5.97555 124.903 5.97555C123.899 5.97555 123.144 6.58964 123.144 7.51718C123.144 8.44471 123.899 9.05881 124.903 9.05881C125.709 9.05881 126.259 8.675 126.521 8.02892L127.334 8.43832C126.982 9.34026 126.099 9.88399 124.896 9.88399C123.342 9.88399 122.184 8.8797 122.184 7.51718ZM132.715 6.03312H130.688V9.81363H129.741V6.03312H127.713V5.22073H132.715V6.03312ZM135.6 5.15036C137.167 5.15036 138.312 6.15466 138.312 7.51718C138.312 8.8797 137.167 9.88399 135.6 9.88399C134.026 9.88399 132.888 8.8797 132.888 7.51718C132.888 6.15466 134.026 5.15036 135.6 5.15036ZM135.6 5.97555C134.57 5.97555 133.853 6.58964 133.853 7.51718C133.853 8.44471 134.57 9.05881 135.6 9.05881C136.63 9.05881 137.346 8.44471 137.346 7.51718C137.346 6.58964 136.63 5.97555 135.6 5.97555ZM140.119 8.10568V9.81363H139.179V5.22073H142.064C143.107 5.22073 143.81 5.71968 143.81 6.6664C143.81 7.37005 143.401 7.83702 142.749 8.01613L143.919 9.81363H142.838L141.757 8.10568H140.119ZM140.119 7.31888H142.013C142.563 7.31888 142.876 7.0822 142.876 6.6728C142.876 6.25701 142.563 6.02033 142.013 6.02033H140.119V7.31888ZM146.533 5.22073H147.588L149.904 9.81363H148.887L148.356 8.74536H145.759L145.222 9.81363H144.217L146.533 5.22073ZM147.058 6.14826L146.156 7.94576H147.953L147.058 6.14826ZM154.485 6.03312H152.457V9.81363H151.51V6.03312H149.482V5.22073H154.485V6.03312ZM155.325 5.22073H159.771V6.03312H156.252V7.05661H159.406V7.86261H156.252V9.00123H159.771V9.81363H155.325V5.22073ZM165.278 7.96455C165.278 8.2769 165.195 8.58612 165.029 8.89221C164.864 9.19831 164.634 9.4409 164.338 9.61997C164.043 9.79905 163.755 9.88859 163.476 9.88859C163.191 9.88859 162.958 9.79801 162.777 9.61685C162.598 9.43361 162.508 9.19727 162.508 8.90783C162.508 8.60173 162.595 8.2946 162.77 7.98642C162.947 7.67824 163.183 7.43461 163.476 7.25553C163.772 7.07646 164.057 6.98692 164.332 6.98692C164.607 6.98692 164.833 7.0775 165.01 7.25866C165.189 7.43982 165.278 7.67512 165.278 7.96455ZM164.76 7.74904C164.76 7.55538 164.712 7.40754 164.616 7.30551C164.523 7.20139 164.401 7.14934 164.251 7.14934C163.945 7.14934 163.663 7.36902 163.404 7.80838C163.148 8.24566 163.02 8.68086 163.02 9.11398C163.02 9.3118 163.07 9.46484 163.17 9.57312C163.27 9.67932 163.396 9.73242 163.548 9.73242C163.842 9.73242 164.117 9.51482 164.373 9.07962C164.631 8.64234 164.76 8.19881 164.76 7.74904ZM167.735 7.06188L167.679 7.26803H167.223L166.879 8.63297C166.727 9.23475 166.574 9.70014 166.42 10.0291C166.201 10.4935 165.966 10.8142 165.714 10.9912C165.522 11.1265 165.331 11.1942 165.139 11.1942C165.014 11.1942 164.908 11.1567 164.821 11.0817C164.756 11.0297 164.724 10.962 164.724 10.8787C164.724 10.8121 164.751 10.7538 164.805 10.7038C164.857 10.6559 164.922 10.632 164.999 10.632C165.055 10.632 165.103 10.6497 165.142 10.6851C165.18 10.7205 165.199 10.7611 165.199 10.8069C165.199 10.8527 165.177 10.8954 165.133 10.9349C165.1 10.9641 165.083 10.986 165.083 11.0005C165.083 11.0193 165.09 11.0338 165.105 11.0443C165.124 11.0588 165.153 11.0661 165.192 11.0661C165.282 11.0661 165.377 11.038 165.477 10.9818C165.574 10.9256 165.662 10.8412 165.739 10.7288C165.816 10.6184 165.889 10.4581 165.958 10.2478C165.987 10.1603 166.065 9.87193 166.192 9.38259L166.735 7.26803H166.192L166.236 7.06188C166.408 7.06188 166.529 7.05043 166.598 7.02752C166.667 7.00254 166.729 6.95673 166.785 6.89009C166.844 6.82138 166.919 6.69436 167.01 6.50903C167.133 6.25916 167.251 6.06551 167.363 5.92807C167.517 5.74275 167.679 5.60428 167.847 5.51266C168.018 5.41895 168.178 5.3721 168.328 5.3721C168.486 5.3721 168.613 5.41271 168.709 5.49392C168.805 5.57304 168.853 5.65946 168.853 5.75316C168.853 5.82604 168.829 5.88747 168.781 5.93745C168.733 5.98742 168.672 6.01241 168.597 6.01241C168.532 6.01241 168.479 5.99367 168.438 5.95619C168.398 5.9187 168.378 5.87394 168.378 5.82188C168.378 5.78856 168.392 5.74796 168.419 5.70006C168.446 5.65009 168.459 5.61677 168.459 5.60011C168.459 5.57096 168.45 5.5491 168.431 5.53452C168.404 5.5137 168.365 5.50329 168.313 5.50329C168.181 5.50329 168.064 5.54493 167.96 5.62823C167.82 5.73859 167.695 5.91142 167.585 6.14672C167.529 6.26957 167.426 6.57463 167.276 7.06188H167.735Z" fill="#11172F"/>
<path d="M103.495 15.5172C103.495 14.1547 104.653 13.1504 106.207 13.1504C107.41 13.1504 108.292 13.6941 108.644 14.596L107.832 15.0054C107.57 14.3594 107.019 13.9756 106.213 13.9756C105.209 13.9756 104.454 14.5896 104.454 15.5172C104.454 16.4447 105.209 17.0588 106.213 17.0588C107.019 17.0588 107.57 16.675 107.832 16.0289L108.644 16.4383C108.292 17.3403 107.41 17.884 106.207 17.884C104.653 17.884 103.495 16.8797 103.495 15.5172ZM111.874 13.1504C113.441 13.1504 114.586 14.1547 114.586 15.5172C114.586 16.8797 113.441 17.884 111.874 17.884C110.301 17.884 109.162 16.8797 109.162 15.5172C109.162 14.1547 110.301 13.1504 111.874 13.1504ZM111.874 13.9756C110.844 13.9756 110.128 14.5896 110.128 15.5172C110.128 16.4447 110.844 17.0588 111.874 17.0588C112.904 17.0588 113.621 16.4447 113.621 15.5172C113.621 14.5896 112.904 13.9756 111.874 13.9756ZM120.194 13.2207V17.8136H119.362L116.362 14.4169V17.8136H115.454V13.2207H116.413L119.279 16.4639V13.2207H120.194ZM120.835 16.8157L121.468 16.1569C121.992 16.8605 122.824 17.078 123.502 17.078C124.27 17.078 124.813 16.8477 124.813 16.4767C124.813 16.0417 124.436 16.0033 123.144 15.8626C122.018 15.7347 121.154 15.5236 121.154 14.6152C121.154 13.7453 122.005 13.1504 123.31 13.1504C124.334 13.1504 125.255 13.515 125.671 14.0651L125.044 14.6664C124.692 14.2122 124.039 13.95 123.259 13.95C122.44 13.95 122.069 14.2122 122.069 14.5193C122.069 14.8519 122.376 14.9287 123.54 15.063C124.845 15.2101 125.767 15.3828 125.767 16.3744C125.767 17.3786 124.762 17.884 123.464 17.884C122.37 17.884 121.282 17.4618 120.835 16.8157ZM128.833 17.8776C127.221 17.8776 126.473 16.982 126.473 15.6451V13.2207H127.413V15.5939C127.413 16.4575 127.784 17.0524 128.833 17.0524C129.876 17.0524 130.247 16.4575 130.247 15.5939V13.2207H131.193V15.6451C131.193 16.982 130.439 17.8776 128.833 17.8776ZM132.193 17.8136V13.2207H133.133V17.0012H136.363V17.8136H132.193ZM139.09 13.2207H140.146L142.462 17.8136H141.445L140.914 16.7454H138.316L137.779 17.8136H136.775L139.09 13.2207ZM139.615 14.1483L138.713 15.9458H140.511L139.615 14.1483ZM144.086 16.1057V17.8136H143.146V13.2207H146.031C147.074 13.2207 147.777 13.7197 147.777 14.6664C147.777 15.3701 147.368 15.837 146.715 16.0161L147.886 17.8136H146.805L145.724 16.1057H144.086ZM144.086 15.3189H145.98C146.53 15.3189 146.843 15.0822 146.843 14.6728C146.843 14.257 146.53 14.0203 145.98 14.0203H144.086V15.3189Z" fill="#11172F"/>
<path d="M105.619 21.2207H106.674L108.99 25.8136H107.973L107.442 24.7454H104.845L104.307 25.8136H103.303L105.619 21.2207ZM106.143 22.1483L105.241 23.9458H107.039L106.143 22.1483ZM110.601 25.8136H109.674V21.2207H114.049V22.0331H110.601V23.1781H113.685V23.9905H110.601V25.8136ZM115.844 25.8136H114.916V21.2207H119.292V22.0331H115.844V23.1781H118.927V23.9905H115.844V25.8136ZM121.314 21.2207H122.37L124.686 25.8136H123.668L123.137 24.7454H120.54L120.003 25.8136H118.999L121.314 21.2207ZM121.839 22.1483L120.937 23.9458H122.734L121.839 22.1483ZM126.31 21.2207V25.8136H125.37V21.2207H126.31ZM128.373 24.1057V25.8136H127.433V21.2207H130.317C131.36 21.2207 132.064 21.7197 132.064 22.6664C132.064 23.3701 131.654 23.837 131.002 24.0161L132.173 25.8136H131.092L130.01 24.1057H128.373ZM128.373 23.3189H130.266C130.816 23.3189 131.13 23.0822 131.13 22.6728C131.13 22.257 130.816 22.0203 130.266 22.0203H128.373V23.3189ZM132.439 24.8157L133.072 24.1569C133.597 24.8605 134.428 25.078 135.106 25.078C135.874 25.078 136.418 24.8477 136.418 24.4767C136.418 24.0417 136.04 24.0033 134.748 23.8626C133.622 23.7347 132.759 23.5236 132.759 22.6152C132.759 21.7453 133.609 21.1504 134.914 21.1504C135.938 21.1504 136.859 21.515 137.275 22.0651L136.648 22.6664C136.296 22.2122 135.644 21.95 134.863 21.95C134.044 21.95 133.673 22.2122 133.673 22.5193C133.673 22.8519 133.98 22.9287 135.145 23.063C136.45 23.2101 137.371 23.3828 137.371 24.3744C137.371 25.3786 136.366 25.884 135.068 25.884C133.974 25.884 132.887 25.4618 132.439 24.8157Z" fill="#11172F"/>
<g clip-path="url(#clip0_707_6417)">
<path d="M24.503 9.00272C24.2741 9.00272 24.0889 8.94717 23.9475 8.83775C23.8061 8.72834 23.7118 8.5903 23.6613 8.42701C23.6092 8.55158 23.5385 8.64922 23.4509 8.72497C23.3634 8.79904 23.2523 8.85795 23.1193 8.89836C22.9863 8.94044 22.8247 8.96737 22.6362 8.98252C22.4476 8.99767 22.2254 9.00272 21.9729 9.00272H3.33974C2.9997 9.00272 2.71521 8.97916 2.48795 8.93034C2.2607 8.88321 2.07721 8.80745 1.93749 8.70477C1.79777 8.60208 1.69845 8.47078 1.63954 8.30749C1.58062 8.14589 1.552 7.94557 1.552 7.71158V6.34132H2.27585V7.44729C2.27585 7.63078 2.29773 7.77555 2.34318 7.88329C2.38864 7.99102 2.4627 8.07519 2.56876 8.13242C2.67481 8.18966 2.81789 8.22669 3.00138 8.24353C3.18318 8.26036 3.41886 8.26878 3.70671 8.26878H21.9611C22.1564 8.26878 22.3214 8.26204 22.4577 8.25026C22.5941 8.23848 22.7018 8.20986 22.7809 8.16441C22.8601 8.11896 22.9173 8.05499 22.9526 7.9725C22.988 7.88834 23.0065 7.77218 23.0065 7.62405V5.59559H23.7354V7.29579C23.7354 7.44393 23.7455 7.5786 23.7657 7.6998C23.7859 7.821 23.8246 7.922 23.8835 8.00449C23.9425 8.08697 24.0216 8.15094 24.1226 8.19976C24.2236 8.24858 24.3498 8.27214 24.5013 8.27214C24.7404 8.27214 24.8582 8.38998 24.8582 8.62565C24.8582 8.77379 24.8296 8.87479 24.7724 8.92697C24.7151 8.97916 24.6242 9.00609 24.5013 9.00609L24.503 9.00272ZM4.11072 4.62934C4.11072 4.49972 4.15617 4.38862 4.24707 4.29771C4.33797 4.20681 4.44908 4.16136 4.5787 4.16136C4.70831 4.16136 4.81942 4.20681 4.91032 4.29771C5.00122 4.38862 5.04667 4.49972 5.04667 4.62934C5.04667 4.75896 5.00122 4.87006 4.91032 4.96096C4.81942 5.05186 4.70831 5.09731 4.5787 5.09731C4.44908 5.09731 4.33797 5.05186 4.24707 4.96096C4.15617 4.87006 4.11072 4.75896 4.11072 4.62934ZM5.26214 4.62934C5.26214 4.49972 5.30759 4.38862 5.39849 4.29771C5.4894 4.20681 5.6005 4.16136 5.73012 4.16136C5.85974 4.16136 5.97084 4.20681 6.06174 4.29771C6.15264 4.38862 6.19809 4.49972 6.19809 4.62934C6.19809 4.75896 6.15264 4.87006 6.06174 4.96096C5.97084 5.05186 5.85974 5.09731 5.73012 5.09731C5.6005 5.09731 5.4894 5.05186 5.39849 4.96096C5.30759 4.87006 5.26214 4.75896 5.26214 4.62934Z" fill="#11172F"/>
<path d="M24.8228 8.26878C25.0181 8.26878 25.1831 8.26204 25.3177 8.25026C25.4524 8.23848 25.5601 8.20986 25.6409 8.16441C25.7217 8.11896 25.779 8.05499 25.8143 7.9725C25.8497 7.88834 25.8682 7.77218 25.8682 7.62405V6.03158H26.592V7.29411C26.592 7.44224 26.6004 7.57691 26.6173 7.69812C26.6341 7.81932 26.6762 7.92032 26.7419 8.0028C26.8092 8.08529 26.9001 8.14926 27.0162 8.19808C27.1324 8.24689 27.2957 8.27046 27.5061 8.27046C27.6324 8.27046 31.7364 8.26373 31.8357 8.25194C31.935 8.24016 32.0175 8.21154 32.0815 8.16609C32.1471 8.12064 32.1943 8.05667 32.2263 7.97419C32.2566 7.89002 32.2734 7.77387 32.2734 7.62573V6.03832H32.9972V7.29747C32.9972 7.44561 33.0073 7.58028 33.0292 7.70148C33.0511 7.82268 33.0898 7.92369 33.1471 8.00617C33.2043 8.08866 33.2817 8.15262 33.3811 8.20144C33.4804 8.25026 33.6049 8.27383 33.7564 8.27383H38.4901V5.59896H39.219V9.00777H33.7564C33.5309 9.00777 33.3474 8.95222 33.206 8.8428C33.0646 8.73339 32.9737 8.59535 32.9299 8.43206C32.8222 8.67279 32.6555 8.82934 32.4299 8.90172C32.2044 8.97411 27.9438 9.00777 27.629 9.00777C27.4253 9.00777 27.2553 8.99094 27.1206 8.95896C26.9859 8.92697 26.8748 8.88152 26.7856 8.82597C26.6981 8.77042 26.6274 8.70645 26.5769 8.63575C26.5264 8.56505 26.4826 8.49266 26.4439 8.42196C26.3951 8.54653 26.3294 8.64417 26.2486 8.71992C26.1678 8.79399 26.0651 8.85459 25.9406 8.89836C25.8143 8.94381 25.6594 8.97242 25.4709 8.98589C25.2824 8.99936 25.0619 9.00609 24.8043 9.00609H24.5063C24.2707 9.00609 24.1528 8.88826 24.1528 8.65258C24.1528 8.50445 24.1814 8.40345 24.237 8.35126C24.2926 8.29908 24.3818 8.27214 24.5063 8.27214H24.8178L24.8228 8.26878Z" fill="#11172F"/>
<path d="M57.0679 8.62228C57.0679 8.77042 42.0119 8.87142 41.9563 8.92361C41.9008 8.97579 41.8115 9.00273 41.687 9.00273H41.4597C41.2678 9.00273 41.0944 8.98421 40.9396 8.94549C40.7847 8.90677 40.6517 8.84112 40.5423 8.74517C40.4329 8.6509 40.347 8.52465 40.2847 8.36978C40.2224 8.21323 40.1921 8.01796 40.1921 7.78228V2.68337H40.916V7.58701C40.916 7.83447 40.9547 8.01122 41.0321 8.11391C41.1096 8.21828 41.2796 8.26878 41.5422 8.26878H41.687C41.9226 8.26878 57.0679 8.38661 57.0679 8.62228Z" fill="#11172F"/>
<path d="M41.6919 9.00273C41.4562 9.00273 41.3384 8.88489 41.3384 8.64922C41.3384 8.50108 41.367 8.40008 41.4225 8.3479C41.4781 8.29571 41.5673 8.26878 41.6919 8.26878H58.4464V5.59391H59.1703V9.00273H41.6902H41.6919ZM57.0762 10.341C57.0762 10.2114 57.1216 10.1003 57.2108 10.0094C57.3001 9.91848 57.4112 9.87303 57.5408 9.87303C57.6704 9.87303 57.7815 9.91848 57.8758 10.0094C57.97 10.1003 58.0155 10.2114 58.0155 10.341C58.0155 10.4706 57.9684 10.5817 57.8758 10.6726C57.7832 10.7635 57.6721 10.809 57.5408 10.809C57.4095 10.809 57.3001 10.7635 57.2108 10.6726C57.1216 10.5817 57.0762 10.4706 57.0762 10.341ZM58.2242 10.341C58.2242 10.2114 58.2714 10.1003 58.3639 10.0094C58.4565 9.91848 58.5676 9.87303 58.6989 9.87303C58.8302 9.87303 58.9397 9.91848 59.0289 10.0094C59.1181 10.1003 59.1635 10.2114 59.1635 10.341C59.1635 10.4706 59.1181 10.5817 59.0289 10.6726C58.9397 10.7635 58.8286 10.809 58.6989 10.809C58.5693 10.809 58.4582 10.7635 58.3639 10.6726C58.2714 10.5817 58.2242 10.4706 58.2242 10.341Z" fill="#11172F"/>
<path d="M61.0961 6.03663H61.8065V8.50781C61.8065 8.94381 61.7829 9.31246 61.7341 9.61042C61.6853 9.90838 61.591 10.1491 61.4479 10.3326C61.3048 10.5144 61.1096 10.6474 60.8588 10.7299C60.6079 10.8123 60.2847 10.8527 59.8875 10.8527V10.1188C60.1753 10.1188 60.4009 10.0885 60.5625 10.0262C60.7258 9.96393 60.8453 9.86461 60.9244 9.72657C61.0035 9.58854 61.0507 9.41178 61.0692 9.19463C61.086 8.97747 61.0944 8.71655 61.0944 8.41018V6.03663H61.0961Z" fill="#11172F"/>
<path d="M27.8529 16.2951H28.5633V18.7663C28.5633 19.2022 28.5398 19.5709 28.4909 19.8689C28.4421 20.1668 28.3479 20.4075 28.2048 20.591C28.0617 20.7728 27.8664 20.9058 27.6156 20.9883C27.3648 21.0708 27.0416 21.1112 26.6443 21.1112V20.3772C26.9321 20.3772 27.1577 20.3469 27.3193 20.2846C27.4826 20.2224 27.6021 20.123 27.6812 19.985C27.7604 19.847 27.8075 19.6702 27.826 19.4531C27.8428 19.2359 27.8513 18.975 27.8513 18.6686V16.2951H27.8529Z" fill="#11172F"/>
<path d="M32.6742 19.2612C32.6489 19.6197 32.5732 19.9177 32.4469 20.155C32.3207 20.3924 32.149 20.5809 31.9318 20.7223C31.7147 20.8637 31.4538 20.963 31.1491 21.022C30.8444 21.0809 30.506 21.1095 30.134 21.1095H29.762V20.3756H30.0364C30.3124 20.3756 30.5649 20.3621 30.7956 20.3368C31.0262 20.3099 31.2265 20.2577 31.3948 20.1769C31.5632 20.0961 31.6962 19.9833 31.7921 19.8352C31.8881 19.6887 31.9403 19.4968 31.9504 19.2612H30.9471C30.7063 19.2612 30.4841 19.2342 30.2805 19.182C30.0784 19.1299 29.9 19.0423 29.7485 18.9194C29.597 18.7966 29.4792 18.64 29.3933 18.4464C29.3075 18.2528 29.2654 18.0121 29.2654 17.7243C29.2654 17.4802 29.3058 17.2428 29.3832 17.0122C29.4607 16.7816 29.5768 16.5779 29.7283 16.4011C29.8798 16.2244 30.0633 16.0813 30.2788 15.9719C30.4942 15.8624 30.74 15.8069 31.0194 15.8069C31.3258 15.8069 31.5851 15.8624 31.7955 15.9719C32.0059 16.0813 32.1793 16.2362 32.314 16.4365C32.4486 16.6368 32.5446 16.8792 32.6035 17.1637C32.6624 17.4482 32.691 17.7647 32.691 18.1114V18.5289H55.3828C55.6219 18.5289 55.7397 18.6467 55.7397 18.8824C55.7397 19.0305 55.7111 19.1315 55.6538 19.1837C55.5966 19.2359 55.5057 19.2628 55.3828 19.2628H32.6725L32.6742 19.2612ZM29.9758 17.6502C29.9758 17.9532 30.0616 18.1754 30.235 18.3168C30.4084 18.4582 30.6626 18.5272 30.9959 18.5272H31.9487V17.9414C31.9487 17.5054 31.8746 17.157 31.7265 16.896C31.5783 16.6368 31.3241 16.5055 30.9656 16.5055C30.7956 16.5055 30.6491 16.5392 30.5245 16.6082C30.4 16.6755 30.299 16.7647 30.2198 16.8758C30.1407 16.9869 30.0801 17.1081 30.038 17.2428C29.996 17.3775 29.9758 17.5121 29.9758 17.6485V17.6502Z" fill="#11172F"/>
<path d="M55.3929 19.2612C55.1572 19.2612 32.967 19.1433 32.967 18.9077C32.967 18.7595 55.068 18.6585 55.1235 18.6063C55.1791 18.5541 55.2683 18.5272 55.3929 18.5272H55.7598C55.8272 18.5272 55.9012 18.5188 55.9787 18.502C56.0561 18.4851 56.1319 18.4464 56.2093 18.3858C56.285 18.3252 56.3608 18.2427 56.4349 18.14C56.5089 18.0357 56.5796 17.8976 56.6436 17.7242C56.7799 17.3472 56.923 17.0408 57.0729 16.8068C57.2227 16.5728 57.3759 16.3927 57.5324 16.2665C57.689 16.1402 57.8489 16.056 58.0105 16.0139C58.1721 15.9719 58.3354 15.9517 58.4953 15.9517C58.7175 15.9517 58.9246 15.9937 59.1131 16.0796C59.3016 16.1655 59.4666 16.285 59.6046 16.4415C59.7444 16.5981 59.8521 16.7832 59.9312 16.9987C60.0103 17.2142 60.049 17.4566 60.049 17.7259C60.049 18.2309 59.9262 18.6316 59.6821 18.9312C59.438 19.2292 59.0609 19.379 58.5542 19.379C58.2748 19.379 57.9953 19.3319 57.7108 19.2376C57.428 19.1433 57.1351 18.9834 56.8355 18.7578C56.7581 18.8757 56.6806 18.9683 56.6015 19.0356C56.5224 19.1029 56.4382 19.1534 56.349 19.1871C56.2598 19.2191 56.1672 19.241 56.0746 19.2494C55.982 19.2578 55.881 19.2628 55.7733 19.2628H55.3929V19.2612ZM59.3168 17.6973C59.3168 17.5643 59.2983 17.4364 59.2595 17.3118C59.2208 17.1873 59.1653 17.0795 59.0895 16.9869C59.0138 16.8943 58.9262 16.8186 58.8202 16.7614C58.7141 16.7041 58.5912 16.6755 58.4482 16.6755C58.1973 16.6755 57.9684 16.7849 57.763 17.0055C57.5577 17.226 57.3641 17.6098 57.1856 18.1569C57.4028 18.2966 57.6183 18.4094 57.8337 18.4952C58.0492 18.5828 58.2697 18.6248 58.4953 18.6248C58.7428 18.6248 58.9414 18.5541 59.0912 18.4111C59.241 18.268 59.3168 18.0306 59.3168 17.6956V17.6973Z" fill="#11172F"/>
<path d="M61.8066 12.9418V19.2612H61.0828V12.9418H61.8066Z" fill="#11172F"/>
<path d="M5.67463 27.072C5.74028 27.1427 5.79583 27.242 5.84128 27.3699C5.88842 27.4962 5.9103 27.6191 5.9103 27.7369C5.9103 27.9137 5.85812 28.0871 5.75543 28.2588C5.65106 28.4305 5.48441 28.5836 5.25547 28.7166C5.02653 28.8496 4.72858 28.9557 4.35992 29.0348C3.99126 29.1139 3.53844 29.1526 2.99976 29.1526C2.40216 29.1526 1.91062 29.0988 1.52513 28.9893C1.13964 28.8816 0.833267 28.7318 0.606012 28.5416C0.378758 28.3513 0.220521 28.1275 0.132986 27.8699C0.0454509 27.6123 0 27.3363 0 27.0383V25.6681H0.720481V26.9036C0.720481 27.4272 0.900601 27.811 1.25916 28.0551C1.61772 28.2992 2.20521 28.422 3.01828 28.422C3.32128 28.422 3.60914 28.4069 3.88016 28.3749C4.15118 28.3429 4.38854 28.2975 4.59223 28.2352C4.79591 28.1729 4.95583 28.0938 5.07198 27.9978C5.18814 27.9019 5.24537 27.7925 5.24537 27.6679C5.24537 27.5349 5.17635 27.4154 5.03832 27.3077C4.90028 27.1999 4.73026 27.1073 4.52489 27.0282C4.3212 26.9491 4.10405 26.8767 3.87511 26.8127C3.64617 26.7471 3.44249 26.6882 3.26742 26.636V25.9155C4.01651 26.195 4.72689 26.333 5.39856 26.333H6.29074C6.52978 26.333 16.0021 26.4508 16.0021 26.6865C16.0021 26.8346 6.62068 26.9356 6.56345 26.9878C6.50621 27.04 6.41531 27.0669 6.29243 27.0669H5.67463V27.072Z" fill="#11172F"/>
<path d="M6.3059 27.072C6.07023 27.072 5.95239 26.9541 5.95239 26.7185C5.95239 26.5703 5.98101 26.4693 6.03656 26.4172C6.09211 26.365 6.18133 26.338 6.3059 26.338H16.3691C16.4751 26.338 16.5694 26.3313 16.6519 26.3195C16.736 26.3077 16.8051 26.2791 16.8606 26.2337C16.9162 26.1882 16.9599 26.1242 16.9902 26.0418C17.0205 25.9593 17.0374 25.8414 17.0374 25.6933V20.7526H17.7663V25.3634C17.7663 25.663 17.8269 25.902 17.9481 26.0754C18.0693 26.2505 18.2629 26.338 18.5288 26.338C18.7645 26.338 18.8823 26.4559 18.8823 26.6915C18.8823 26.8397 18.8537 26.9407 18.7982 26.9929C18.7426 27.0451 18.6534 27.072 18.5288 27.072C18.2999 27.072 18.1164 27.0164 17.9767 26.907C17.837 26.7976 17.7444 26.6596 17.6972 26.4963C17.5895 26.737 17.4195 26.8935 17.1872 26.9659C16.9549 27.0366 16.6552 27.072 16.2866 27.072H6.3059Z" fill="#11172F"/>
<path d="M18.8453 26.338C19.0406 26.338 19.2056 26.3313 19.3402 26.3195C19.4749 26.3077 19.5826 26.2791 19.6634 26.2337C19.7442 26.1882 19.8015 26.1242 19.8368 26.0418C19.8722 25.9576 19.8907 25.8414 19.8907 25.6933V24.1059H20.6145V25.365C20.6145 25.5132 20.623 25.6479 20.6398 25.7691C20.6566 25.8903 20.6987 25.9913 20.7644 26.0737C20.83 26.1562 20.9243 26.2202 21.0455 26.269C21.1667 26.3162 25.3196 26.3414 25.5249 26.3414C25.6545 26.3414 25.7673 26.3347 25.8633 26.3229C25.9592 26.3111 26.04 26.2825 26.104 26.237C26.168 26.1916 26.2168 26.1276 26.2488 26.0451C26.2791 25.961 26.2959 25.8448 26.2959 25.6967V24.1093H27.0198V25.3684C27.0198 25.5166 27.0299 25.6512 27.0517 25.7724C27.0736 25.8936 27.1157 25.9946 27.1763 26.0771C27.2369 26.1596 27.3228 26.2236 27.4322 26.2724C27.5416 26.3212 27.6847 26.3448 27.8648 26.3448C27.9675 26.3448 32.0497 26.338 32.1321 26.3263C32.2146 26.3145 32.2853 26.2859 32.3426 26.2404C32.4015 26.1949 32.4469 26.131 32.4789 26.0485C32.5109 25.9643 32.5277 25.8482 32.5277 25.7V23.6716H33.2516V25.3718C33.2516 25.5199 33.2617 25.6546 33.2836 25.7758C33.3054 25.897 33.3458 25.998 33.4048 26.0805C33.4637 26.163 33.5428 26.2269 33.6421 26.2757C33.7414 26.3229 33.8677 26.3481 34.0226 26.3481C34.2616 26.3481 34.3794 26.466 34.3794 26.7016C34.3794 26.8498 34.3508 26.9508 34.2936 27.003C34.2363 27.0551 34.1454 27.0821 34.0226 27.0821C33.7936 27.0821 33.6085 27.0265 33.4654 26.9171C33.3223 26.8077 33.228 26.6697 33.1826 26.5064C33.1304 26.6309 33.0563 26.7286 32.962 26.8043C32.8678 26.8784 32.7668 26.9373 32.6607 26.9777C32.5547 27.0198 32.4503 27.0467 32.3493 27.0619C32.2483 27.0754 32.1624 27.0821 32.0917 27.0821C31.8998 27.0821 27.7453 27.0636 27.6106 27.0282C27.4759 26.9929 27.3648 26.9474 27.2756 26.8919C27.1881 26.8363 27.1191 26.774 27.0686 26.7067C27.0198 26.6377 26.981 26.572 26.9524 26.5064C26.8447 26.7471 26.6797 26.9036 26.4575 26.976C26.2353 27.0467 25.9727 27.0821 25.6663 27.0821C25.4593 27.0821 21.2946 27.0652 21.1583 27.0333C21.0202 27.0013 20.9074 26.9558 20.8199 26.9003C20.7324 26.8447 20.66 26.7808 20.6061 26.7101C20.5523 26.6394 20.5068 26.567 20.4698 26.4963C20.421 26.6208 20.3553 26.7185 20.2745 26.7942C20.1937 26.8683 20.091 26.9289 19.9664 26.9727C19.8402 27.0181 19.6853 27.0467 19.4968 27.0602C19.3099 27.0737 19.0877 27.0804 18.8302 27.0804H18.5322C18.2965 27.0804 18.1787 26.9626 18.1787 26.7269C18.1787 26.5788 18.2073 26.4778 18.2629 26.4256C18.3184 26.3734 18.4076 26.3465 18.5322 26.3465H18.8436L18.8453 26.338Z" fill="#11172F"/>
<path d="M34.0344 27.072C33.7987 27.072 33.6809 26.9541 33.6809 26.7185C33.6809 26.5703 33.7095 26.4693 33.7651 26.4172C33.8206 26.365 33.9098 26.338 34.0344 26.338H41.4008V23.6632H42.1297V27.072H34.0344ZM41.2695 22.1717C41.2695 22.0421 41.315 21.9327 41.4059 21.8418C41.4968 21.7525 41.6079 21.7071 41.7375 21.7071C41.8671 21.7071 41.9782 21.7525 42.0691 21.8418C42.16 21.931 42.2055 22.0421 42.2055 22.1717C42.2055 22.3013 42.16 22.4175 42.0691 22.5084C41.9782 22.5993 41.8671 22.6447 41.7375 22.6447C41.6079 22.6447 41.4968 22.5993 41.4059 22.5084C41.315 22.4175 41.2695 22.3047 41.2695 22.1717Z" fill="#11172F"/>
<path d="M46.0013 27.072C45.9761 27.4305 45.9003 27.7285 45.7741 27.9659C45.6478 28.2032 45.4761 28.3917 45.259 28.5331C45.0418 28.6745 44.7809 28.7739 44.4762 28.8328C44.1715 28.8917 43.8332 28.9203 43.4611 28.9203H43.0891V28.1864H43.3635C43.6396 28.1864 43.8921 28.1729 44.1227 28.1477C44.3533 28.1207 44.5537 28.0685 44.722 27.9877C44.8903 27.9069 45.0233 27.7941 45.1193 27.646C45.2152 27.4996 45.2674 27.3077 45.2775 27.072H44.2742C44.0335 27.072 43.8113 27.045 43.6076 26.9929C43.4056 26.9407 43.2272 26.8531 43.0757 26.7303C42.9242 26.6074 42.8063 26.4508 42.7205 26.2572C42.6346 26.0636 42.5925 25.8229 42.5925 25.5351C42.5925 25.291 42.6329 25.0536 42.7104 24.823C42.7895 24.5924 42.904 24.3887 43.0555 24.2119C43.207 24.0352 43.3904 23.8921 43.6059 23.7827C43.8214 23.6733 44.0672 23.6177 44.3466 23.6177C44.653 23.6177 44.9122 23.6733 45.1226 23.7827C45.333 23.8921 45.5064 24.047 45.6411 24.2473C45.7758 24.4476 45.8717 24.6883 45.9306 24.9745C45.9896 25.259 46.0182 25.5755 46.0182 25.9222V26.3397H46.636C46.875 26.3397 58.0307 26.4576 58.0307 26.6932C58.0307 26.8414 58.0021 26.9424 57.9448 26.9945C57.8876 27.0467 46.7605 27.0737 46.636 27.0737H45.9997L46.0013 27.072ZM43.3029 25.4593C43.3029 25.7623 43.3888 25.9845 43.5621 26.1259C43.7355 26.2673 43.9897 26.3364 44.323 26.3364H45.2758V25.7505C45.2758 25.3145 45.2017 24.9661 45.0536 24.7052C44.9055 24.4459 44.6513 24.3146 44.2927 24.3146C44.1227 24.3146 43.9763 24.3483 43.8517 24.4173C43.7271 24.4863 43.6261 24.5739 43.547 24.685C43.4679 24.7961 43.4073 24.9173 43.3652 25.0519C43.3231 25.1866 43.3029 25.3213 43.3029 25.4576V25.4593Z" fill="#11172F"/>
<path d="M46.6477 27.072C46.412 27.072 46.2942 26.9541 46.2942 26.7185C46.2942 26.5703 46.3228 26.4693 46.3784 26.4172C46.4339 26.365 46.5231 26.338 46.6477 26.338H58.6922C58.6299 26.2135 58.576 26.0771 58.5272 25.9273C58.4784 25.7775 58.4548 25.6041 58.4548 25.4088C58.4548 25.1765 58.4935 24.9493 58.5693 24.7237C58.645 24.4981 58.7578 24.3012 58.906 24.1278C59.0541 23.9544 59.2359 23.813 59.4514 23.7036C59.6669 23.5942 59.916 23.5386 60.2022 23.5386C60.5237 23.5386 60.788 23.5975 60.9967 23.717C61.2038 23.8366 61.3687 23.9864 61.4916 24.1699C61.6145 24.3533 61.697 24.5537 61.7424 24.7742C61.7879 24.9947 61.8098 25.2102 61.8098 25.424V27.072H46.6494H46.6477ZM59.0541 22.1717C59.0541 22.0421 59.1012 21.9327 59.1938 21.8418C59.2864 21.7525 59.3975 21.7071 59.5288 21.7071C59.6601 21.7071 59.7695 21.7525 59.8588 21.8418C59.948 21.931 59.9934 22.0421 59.9934 22.1717C59.9934 22.3013 59.948 22.4175 59.8588 22.5084C59.7695 22.5993 59.6584 22.6447 59.5288 22.6447C59.3992 22.6447 59.2881 22.5993 59.1938 22.5084C59.1012 22.4175 59.0541 22.3047 59.0541 22.1717ZM59.1467 25.2876C59.1467 25.6495 59.2527 25.9155 59.4648 26.0838C59.677 26.2522 59.9362 26.3364 60.2426 26.3364H61.0927V25.4492C61.0927 25.3061 61.0792 25.163 61.0539 25.02C61.027 24.8752 60.9799 24.7473 60.9092 24.6328C60.8402 24.5183 60.7425 24.4241 60.6163 24.35C60.4917 24.2759 60.3335 24.2389 60.1449 24.2389C59.8318 24.2389 59.5877 24.3416 59.411 24.5469C59.2342 24.7523 59.1467 24.9998 59.1467 25.2876ZM60.2089 22.1717C60.2089 22.0421 60.2543 21.9327 60.3453 21.8418C60.4362 21.7525 60.5473 21.7071 60.6769 21.7071C60.8065 21.7071 60.9142 21.7525 61.0068 21.8418C61.0994 21.931 61.1465 22.0421 61.1465 22.1717C61.1465 22.3013 61.0994 22.4175 61.0068 22.5084C60.9142 22.5993 60.8031 22.6447 60.6769 22.6447C60.5506 22.6447 60.4362 22.5993 60.3453 22.5084C60.2543 22.4175 60.2089 22.3047 60.2089 22.1717Z" fill="#11172F"/>
</g>
<g clip-path="url(#clip1_707_6417)">
<rect x="67.8396" y="0.999918" width="29.7956" height="29.7956" fill="#5064BA"/>
<g clip-path="url(#clip2_707_6417)">
<path d="M92.6977 27.1476C92.4583 28.8493 96.2214 27.7908 95.8912 29.5376L95.7548 29.9913C94.4694 29.5773 94.0421 30.0824 93.07 30.1138L91.1438 30.0051C93.3887 29.7429 94.6191 29.0416 95.6593 29.4246C95.1919 28.3717 91.8183 29.3634 92.6973 27.148L92.6977 27.1476Z" fill="white"/>
<path d="M91.7166 29.0616C91.9477 24.9283 84.3367 27.608 85.2215 23.8404C85.7392 26.5209 90.1847 23.8404 90.2283 26.2634C89.9139 25.5009 88.8211 25.5876 87.7015 25.7034C89.43 26.0864 92.2594 26.0519 91.7162 29.0612L91.7166 29.0616Z" fill="white"/>
<path d="M80.131 30.2821C81.3704 27.3395 73.5628 26.8654 74.8726 23.6246C74.9292 25.8835 79.4124 24.486 78.9372 27.356C78.8456 26.0001 77.3039 25.9918 75.9673 25.4875C77.954 27.0401 81.5371 27.9051 80.131 30.2821Z" fill="white"/>
<path d="M90.9289 29.0832C90.8502 30.6153 88.6965 30.2719 89.0243 28.6028C88.2279 28.4957 88.0428 29.1946 87.4913 29.726C87.4913 29.726 86.8847 30.312 86.6355 29.6471L86.4401 28.9168C85.7923 27.3772 84.3442 27.0428 83.3371 26.4871C82.5894 26.0747 82.2659 25.4597 82.4239 23.9919C82.3693 27.1602 86.1217 25.7144 86.7326 29.208C87.0907 29.7484 87.6002 29.1923 87.8529 28.832C87.5825 28.8077 87.3403 28.7319 87.2731 28.3411C87.2609 28.2712 87.2629 28.199 87.2759 28.1291L87.347 27.7465C87.3663 27.6421 87.4107 27.5428 87.4803 27.4628C87.9551 26.9153 88.5251 27.48 88.6426 28.1076C88.6851 28.573 88.6462 29.1075 88.5699 29.6746C88.7877 28.1134 87.9154 27.3344 87.3816 28.0173C87.9642 28.7739 88.5314 27.8379 89.0794 28.0291C89.1183 28.0428 89.1438 28.0801 89.1403 28.1213L89.0982 28.5993C89.1926 29.7523 90.592 29.7888 90.8652 29.0055C90.8585 28.8391 90.8164 28.6884 90.7323 28.5561C90.601 28.1943 90.2162 28.0471 89.6946 28.0157C90.0774 28.4278 90.8424 27.8423 90.9925 28.0777C91.0075 28.1009 91.0118 28.1295 91.0091 28.1574L91.022 28.6746C90.7504 28.3591 90.4898 28.6228 90.1749 28.6782C89.8412 28.7367 89.4469 28.6248 89.4768 28.0377L89.5841 27.451C90.2952 27.6817 91.1168 27.781 90.9296 29.0828L90.9289 29.0832Z" fill="white"/>
<path d="M89.6817 23.8404C89.3145 25.8211 81.0089 25.7156 80.6177 29.2786C80.5242 30.7719 82.1146 30.1248 82.5498 29.3234C82.5042 29.6538 82.5333 29.8516 82.608 29.9682C82.6508 30.0353 82.7424 30.0467 82.8014 29.9929C83.1123 29.7107 83.139 29.1566 83.3654 28.9368C83.2849 29.8375 83.8199 29.9792 84.2884 30.2032L84.3887 29.4407L85.1906 29.9584L85.2598 29.7445C85.8714 30.4403 86.3384 28.8772 86.9674 28.6264L87.0259 28.1052C86.5487 28.1986 85.8753 29.8544 85.4115 29.3053C85.3616 29.2461 85.3411 29.1676 85.3494 29.0903C85.4606 28.0628 84.6819 28.2296 84.3718 27.4082C84.1968 28.2484 84.4952 28.1633 85.2287 28.9737C85.2519 29.1193 85.2539 29.2688 85.2287 29.4238C84.6328 28.9737 84.1579 28.9321 84.1296 28.3101C83.8651 29.1738 84.3144 29.2543 84.2951 29.6495C83.8305 29.4356 83.3045 29.292 83.4645 28.365C83.0954 28.5801 83.1119 29.4109 82.7624 29.5208C82.6689 29.5208 82.6477 29.4207 82.6484 29.2896L82.6779 28.717C81.6146 30.1852 80.7419 29.6169 80.7022 29.2574C81.9149 26.068 90.0449 26.5519 89.6824 23.84L89.6817 23.8404Z" fill="white"/>
<path d="M82.5855 26.6457L82.6673 26.2367C82.674 26.2034 82.6441 26.1739 82.6111 26.1814C82.1044 26.2964 81.8221 26.8545 81.3732 27.1198C80.9522 27.3686 80.4581 27.3513 80.2399 26.9714C80.1106 26.7461 80.1283 26.4667 80.2651 26.2458C80.4113 26.0099 80.6173 25.8682 81.0088 25.716C80.6028 25.8407 80.2796 25.9428 80.0332 26.6366C79.7116 27.6017 80.5745 28.0365 81.275 27.6186C81.7129 27.3572 82.0407 26.7159 82.5415 26.683C82.5631 26.6814 82.5816 26.6665 82.5859 26.6453L82.5855 26.6457Z" fill="white"/>
<path d="M76.34 30.3343C78.037 27.6233 72.5227 27.2712 74.5342 24.6018C73.5228 25.7054 73.7075 26.4812 74.2543 27.1504C74.8734 27.9086 76.366 28.626 76.4875 29.5785C76.2072 29.3293 75.8373 29.3183 75.5495 29.4906C75.9874 28.6915 76.1058 27.9969 76.0267 27.5303C76.5417 28.0102 76.967 28.6119 76.7787 29.3206C76.5653 30.0737 76.8004 30.4701 77.4906 29.2174C77.2485 29.9701 77.7567 30.0525 78.1899 30.2825C78.2395 30.3088 78.3012 30.2868 78.322 30.235L78.537 29.7037L79.3401 30.1228C79.4144 30.1616 79.5056 30.1259 79.5339 30.0474L79.6809 29.6428C79.6919 29.6103 79.7014 29.5632 79.7096 29.5094C79.7497 29.2449 79.666 28.9768 79.4828 28.7814C79.2784 28.5636 78.984 28.2677 78.6986 28.0467C78.6632 28.0193 78.6113 28.0334 78.5952 28.0754L78.46 28.4227C78.447 28.4557 78.4576 28.4925 78.4855 28.5141C78.675 28.6589 79.3783 29.2162 79.5276 29.6381C79.0288 29.3493 78.4242 29.2837 78.3295 28.6782C78.3267 28.6609 78.3031 28.6574 78.2953 28.6731C77.9458 29.3516 78.2237 29.3815 78.3303 29.7641C77.8959 29.5475 77.4953 29.4972 77.6899 28.7543C77.6962 28.7312 77.6679 28.7131 77.6502 28.7296C77.4666 28.8968 77.3224 29.2947 77.1703 29.4454C77.0201 29.5938 76.9037 29.6224 76.8872 29.3944C76.8833 29.3391 76.8919 29.2833 76.9077 29.23C77.6781 26.6084 73.0884 26.0091 73.7975 24.1685C72.496 26.212 76.2319 26.5299 75.9336 28.3517C75.9076 28.5098 75.8506 28.6613 75.7732 28.8022L75.3978 29.4855C75.3101 29.6452 75.2327 29.8104 75.1667 29.9799L75.0279 30.3355C75.612 29.7449 76.1966 29.7739 76.3408 30.3355L76.34 30.3343Z" fill="white"/>
<path d="M73.0961 25.2792C73.0481 26.2312 74.1645 26.141 73.8213 27.0715L73.6598 27.5624C73.1991 27.3415 72.6318 27.2167 72.8339 26.3937C72.3866 26.8972 71.5729 27.0103 71.8032 26.0315C71.7069 26.0488 71.6035 26.1539 71.4942 26.34C71.3445 27.6998 75.536 27.7838 74.9177 29.6974L74.7585 30.1978C74.0879 29.4203 73.1661 29.777 72.2407 28.8497L71.6924 27.5723C73.0316 29.3081 73.44 28.6809 74.8013 29.615C74.2121 27.9627 70.7831 28.2029 71.3995 26.3737C71.508 25.8957 71.7112 25.6163 72.0017 25.5013L71.9176 25.9667C72.0005 26.6013 72.8264 26.1355 73.0473 25.8278C72.8221 26.3808 73.0112 26.7905 73.7042 27.0267C73.4369 26.4224 72.6193 26.3321 73.0961 25.2788V25.2792Z" fill="white"/>
<path d="M70.9928 27.7139C70.1335 29.0883 72.9224 28.5683 72.3242 29.7853C72.3143 29.8049 72.3006 29.823 72.2849 29.8387L71.9185 30.2044C71.7833 29.6899 70.1492 30.7079 68.6228 29.5879C70.4173 30.091 70.8945 29.4784 72.0006 29.655C71.9232 29.2669 71.3108 29.1762 70.8202 28.9172C70.3858 28.6876 70.2714 28.2406 70.9924 27.7143L70.9928 27.7139Z" fill="white"/>
<path d="M70.2161 28.7692C70.5007 27.628 69.023 26.7677 69.8159 26.0774C70.5871 25.725 70.8281 25.7921 71.1811 25.4248C71.959 24.6245 71.8871 23.3126 73.3152 23.2941C71.3238 22.3177 71.4492 25.7105 69.4554 25.1948C69.9558 24.4558 70.0914 23.4617 71.244 23.3357C71.5895 23.7926 71.0439 24.5421 70.0513 24.4008C69.4735 24.2812 68.9684 22.7098 70.8045 22.709L71.2334 22.782C71.3356 22.0034 69.9904 22.1329 69.2817 20.8331C68.8795 20.0957 69.0108 19.8955 68.7227 18.8657C68.6004 19.425 68.6059 19.9889 68.7227 20.5576C69.4177 21.9908 70.674 21.8323 70.7338 22.5548C68.4259 22.2596 68.7632 24.3451 69.9554 24.4554C70.7931 24.7007 71.3344 24.5778 71.6799 24.2121C72.007 23.74 71.8332 23.3997 71.2184 23.247C69.8025 22.8652 69.4515 24.4173 68.8964 25.0998C69.4051 25.3643 69.9633 25.4251 70.5447 25.3894C70.0914 25.8062 69.4228 25.6233 69.1453 26.1657C68.9267 27.1037 69.9664 27.5361 69.7153 28.6185L70.2161 28.7684V28.7692Z" fill="white"/>
<path d="M72.0695 22.6996L72.5781 22.8055C72.5734 22.2561 70.9688 21.2204 71.5085 20.8507C71.5907 20.7946 71.6929 20.7758 71.7915 20.7899L72.0974 20.8335C72.1434 20.8401 72.176 20.7915 72.154 20.7507C71.9767 20.4257 71.3654 20.1671 71.0572 19.7417C70.8316 19.4297 70.887 19.0733 71.3371 18.9328L71.7279 18.9736C71.7947 18.9807 71.8458 18.9148 71.8218 18.852C71.6426 18.385 71.433 17.8595 71.6445 17.5659C71.8226 18.0749 71.0317 18.4536 70.4149 18.3916C69.867 18.1487 69.1952 17.469 68.9546 16.5758C68.7801 15.9278 68.5757 14.942 68.5171 13.6347C68.3764 14.1225 68.3583 14.8737 68.394 15.7418C68.3992 15.8635 68.4106 15.9847 68.4334 16.1044C68.6645 17.33 69.4306 18.2998 70.4711 18.4697C71.3694 18.6915 71.9618 18.4152 72.2448 17.6346C72.2695 17.5659 72.2271 17.491 72.1555 17.4753L71.8332 17.4046C71.7279 17.3815 71.6202 17.3709 71.5124 17.3791C70.5572 17.4521 71.4091 18.7519 71.2868 18.8269C70.3485 18.7374 70.2451 19.2146 70.5871 19.6954C70.8281 20.034 71.654 20.4724 71.6567 20.691C70.7412 20.505 70.7911 20.974 71.1221 21.4178C71.4558 21.8652 72.0632 22.311 72.0691 22.6996H72.0695Z" fill="white"/>
<path d="M73.1186 14.9392C71.685 14.3035 71.4405 15.3207 70.966 16.0185C70.8697 15.6763 70.7089 15.325 70.9515 15.0307C71.0167 14.9514 71.1067 14.8976 71.2034 14.8615C72.762 14.2776 72.3595 9.73846 74.1068 9.44647C74.4028 9.78908 75.0836 11.1497 73.2204 12.0598C73.4633 12.0531 73.6933 12.0225 73.9083 11.9652C74.3891 11.8365 74.7849 11.4833 74.9229 11.0061C75.1619 10.1796 74.5416 9.48297 74.0471 9.31579C72.1905 8.82601 72.1374 13.1473 71.2361 14.2972C71.1515 14.4051 71.0395 14.4891 70.9129 14.5425C70.6 14.6747 70.4613 14.7622 70.3956 15.0091C70.2569 15.5291 70.9577 16.602 70.0218 17.5216C69.9927 17.5498 70.0014 17.5985 70.0383 17.6154L70.4892 17.823C70.5218 17.8379 70.5607 17.8324 70.5863 17.8073C71.5289 16.8862 71.2915 14.7956 73.1194 14.9392H73.1186Z" fill="white"/>
<path d="M69.527 15.108L70.0479 15.2477C70.1981 14.4008 69.3006 14.0739 68.9602 13.369C68.6045 12.6324 68.4319 12.0453 68.3686 11.4696C68.3686 11.8538 68.3419 12.4107 68.4111 12.8698C68.4335 13.0182 68.5431 13.3765 68.6831 13.5653C69.1481 14.1936 69.8034 14.6045 69.527 15.108Z" fill="white"/>
<path d="M69.769 13.6198L70.3013 13.7709C70.6436 13.7407 70.0693 13.0586 70.4691 12.7533C70.4204 13.1202 70.2659 13.331 69.9369 13.2847C69.2269 12.7705 68.7658 11.4138 68.3735 9.82402L68.4691 11.4947C68.473 11.5653 68.4871 11.6352 68.5123 11.7015C68.8295 12.5437 69.2376 13.2332 69.9428 13.4244C70.7761 13.6414 70.8968 13.225 70.9876 12.7823C70.9955 12.7439 70.9727 12.7054 70.9349 12.694L70.6857 12.6187C70.5403 12.5747 70.3877 12.5563 70.2368 12.5708C69.3712 12.6556 70.295 13.5284 69.769 13.6198Z" fill="white"/>
<path d="M69.6055 11.6132L70.1433 11.7698C70.5261 11.7612 70.047 11.0065 70.3897 10.6513C70.3618 10.9837 70.3426 11.3224 69.8858 11.3334C69.1255 10.6387 68.7053 9.24476 68.5249 7.35746V9.39742C68.5249 9.53046 68.545 9.66272 68.5858 9.78909C68.8319 10.5489 69.1609 11.2035 69.8021 11.4617L70.3398 11.5736C70.9043 11.5061 71.0497 10.7675 70.6032 10.5501L70.2561 10.472C69.3311 10.3213 70.1437 11.6587 69.6063 11.6128L69.6055 11.6132Z" fill="white"/>
<path d="M69.7294 9.92959L70.1768 10.0752C70.1996 10.0826 70.2243 10.0693 70.2298 10.0461C70.5011 8.92805 69.3985 8.35075 68.9826 7.44694C68.6991 6.83079 68.6921 6.25035 68.7573 4.87873C68.4739 5.48311 68.3646 6.47601 68.4157 6.91203C68.5631 8.17768 70.2141 9.23298 69.711 9.86444C69.6929 9.8872 69.7023 9.92056 69.7298 9.92959H69.7294Z" fill="white"/>
<path d="M70.0693 8.04503L70.4113 8.22203C70.4483 8.24126 70.4939 8.22203 70.506 8.182C70.8245 7.14985 69.8276 6.53213 69.3209 4.9376C69.2485 4.71037 69.0823 3.84658 69.0107 2.71318C68.8201 3.61347 68.8543 4.0644 68.9113 4.76453C68.9915 5.74801 70.3956 6.9913 70.0371 7.96458C70.0257 7.99558 70.0398 8.03012 70.0693 8.04543V8.04503Z" fill="white"/>
<path d="M70.8281 7.26248L71.332 7.46381C71.426 6.68087 70.5109 6.00703 70.1822 5.07771C69.9059 4.29594 70.0014 3.86895 70.5034 3.75828C70.812 3.69039 71.1249 3.78732 71.3851 3.96628C71.906 4.3242 72.2503 4.83596 72.2503 4.83596C72.2503 4.83596 71.8321 4.14524 71.2947 3.82461C71.0301 3.66684 70.7345 3.56402 70.4279 3.53655C69.422 3.44628 69.4075 4.23982 69.7561 5.05337C70.1477 5.967 70.9606 6.51997 70.8277 7.26288L70.8281 7.26248Z" fill="white"/>
<path d="M69.0607 9.30205C70.453 10.1423 72.251 4.83556 74.9991 7.18321C72.8249 5.84966 73.0235 10.1615 71.0749 8.80011C71.8721 9.01596 72.3163 8.13883 72.9063 7.18242C71.5081 8.06387 70.3268 10.2851 69.0603 9.30205H69.0607Z" fill="white"/>
<path d="M87.5191 27.1115L87.5702 26.6276L86.9923 26.5091L86.9456 27.0138L87.5191 27.1115Z" fill="white"/>
<path d="M89.3345 27.438L89.3852 26.9545L88.8078 26.8356L88.761 27.3407L89.3345 27.438Z" fill="white"/>
<path d="M86.7934 27.9482L87.0446 27.5318L86.5717 27.1798L86.3154 27.6174L86.7934 27.9482Z" fill="white"/>
<path d="M82.9213 28.6617L83.1811 28.2504L82.7157 27.889L82.45 28.321L82.9213 28.6617Z" fill="white"/>
<path d="M81.2235 26.8392L81.4833 26.4279L81.0175 26.0664L80.7522 26.4985L81.2235 26.8392Z" fill="white"/>
<path d="M82.212 28.8803L82.4719 28.469L82.0061 28.1076L81.7407 28.5396L82.212 28.8803Z" fill="white"/>
<path d="M73.4353 29.5661L73.0764 29.9243L73.4872 30.3345L73.8461 29.9762L73.4353 29.5661Z" fill="white"/>
<path d="M72.6848 29.516L72.3259 29.8743L72.7367 30.2844L73.0956 29.9261L72.6848 29.516Z" fill="white"/>
<path d="M69.0985 27.8318L68.6841 28.2455L69.0949 28.6557L69.5093 28.2419L69.0985 27.8318Z" fill="white"/>
<path d="M70.0431 19.5732L69.6287 19.987L70.0395 20.3971L70.4539 19.9833L70.0431 19.5732Z" fill="white"/>
<path d="M68.6798 17.7424L68.4644 17.9575L68.6778 18.1706L68.8932 17.9555L68.6798 17.7424Z" fill="white"/>
<path d="M68.6825 18.2035L68.467 18.4185L68.6805 18.6317L68.8959 18.4166L68.6825 18.2035Z" fill="white"/>
<path d="M70.1278 20.383L69.7134 20.7968L70.1242 21.2069L70.5386 20.7931L70.1278 20.383Z" fill="white"/>
<path d="M73.0927 21.8819L72.6782 22.2957L73.089 22.7059L73.5035 22.2921L73.0927 21.8819Z" fill="white"/>
<path d="M69.6617 15.4273L69.4526 15.889L69.982 16.1279L70.1911 15.6663L69.6617 15.4273Z" fill="white"/>
<path d="M69.9588 16.2042L69.7498 16.6658L70.2791 16.9048L70.4882 16.4431L69.9588 16.2042Z" fill="white"/>
<path d="M70.972 9.69116L70.6265 10.0622L71.0519 10.4572L71.3975 10.0862L70.972 9.69116Z" fill="white"/>
<path d="M71.2121 4.50238L70.8467 4.85395L71.2498 5.27162L71.6153 4.92005L71.2121 4.50238Z" fill="white"/>
<path d="M71.1765 5.25118L70.811 5.60275L71.2142 6.02042L71.5796 5.66885L71.1765 5.25118Z" fill="white"/>
<path d="M69.3429 15.9312L69.1338 16.3928L69.6632 16.6318L69.8723 16.1701L69.3429 15.9312Z" fill="white"/>
<path d="M74.6111 6.42695C74.9103 6.78369 75.2236 6.75151 75.3226 6.54901C74.5942 5.78333 72.8371 6.57216 72.4845 5.14481C72.4059 4.80377 72.4137 4.46391 72.6024 4.12758L72.7192 4.53023C72.9126 5.13382 73.6103 5.35203 74.3749 5.51921C74.3045 5.44504 74.2546 5.30297 74.2168 5.11852C74.2168 5.11852 74.4287 5.5145 74.823 5.52942L74.88 5.86928C73.9613 5.67855 72.9322 5.66167 72.6437 4.4851C72.5682 4.59852 72.5309 4.82222 72.5203 5.12362C73.2149 6.36259 75.0097 5.35948 75.3824 6.52153C75.5506 7.02701 74.8792 7.319 74.6103 6.42695H74.6111Z" fill="white"/>
<path d="M72.6159 15.7806L72.9332 15.8984C72.5102 16.3265 72.0357 16.5828 71.4241 16.3803C71.6363 16.6476 71.8632 16.854 72.121 17C73.2087 17.626 73.316 16.2222 74.2201 16.2045C74.274 16.5565 74.024 16.8854 73.4772 16.7936L74.0786 16.9274C74.4489 16.8548 74.7815 16.3937 74.2779 16.1472C73.283 15.7277 72.9874 17.2881 72.1619 16.9619C71.9756 16.8234 71.8113 16.6841 71.7366 16.5432C72.6379 16.7708 73.1368 16.115 73.6745 15.5452L73.3412 15.3745C73.1246 15.6806 72.8856 15.8364 72.6163 15.781L72.6159 15.7806Z" fill="white"/>
<path d="M72.3567 19.0847L72.6425 19.1907C72.2616 19.5764 71.8343 19.8068 71.2839 19.6243C71.4754 19.8649 71.6794 20.0509 71.9117 20.182C72.8909 20.7456 72.9876 19.4819 73.8013 19.4658C73.8496 19.7825 73.6248 20.0788 73.1323 19.996L73.6735 20.1165C74.0069 20.0513 74.3064 19.6361 73.8528 19.414C72.9569 19.036 72.6908 20.441 71.9479 20.1475C71.78 20.0227 71.6322 19.8975 71.565 19.7703C72.3767 19.9752 72.8256 19.3849 73.3099 18.872L73.0096 18.7181C72.8146 18.9936 72.5996 19.1341 72.3567 19.0843V19.0847Z" fill="white"/>
<path d="M83.0946 25.2894L83.2802 24.8745C83.6894 25.2297 83.9858 25.6842 83.838 26.2442C84.9658 24.9267 83.9559 24.6151 83.8289 24.1618C84.3101 23.8652 84.8801 24.3204 84.6776 25.0213L84.7704 24.6116C84.853 24.2474 84.6175 23.8777 84.2484 23.8192C84.0609 23.7894 83.8804 23.8467 83.8034 24.0331C83.452 24.6944 84.1639 24.7941 84.2555 25.2968C84.2775 25.4177 84.2492 25.5421 84.1847 25.6469C84.1285 25.7379 84.0499 25.8415 83.9787 25.8847C84.0793 25.2164 83.4457 24.6391 82.9402 24.2199L82.8191 24.5217C83.1068 24.6987 83.1941 25.037 83.0954 25.2886L83.0946 25.2894Z" fill="white"/>
<path d="M72.2807 24.9201L72.592 24.988C72.592 24.988 72.4265 25.2988 72.1175 25.1799C71.8086 25.061 71.748 25.0488 71.8475 24.8424C71.9469 24.6359 72.4387 24.6748 72.4387 24.6748C72.4387 24.6748 72.7791 24.7136 72.9104 24.3396C73.0417 23.9656 73.274 23.2894 74.3326 23.5955C74.3326 23.5955 73.5547 23.3781 73.2091 24.4475C73.0806 24.8455 72.6423 24.7729 72.6423 24.7729C72.6423 24.7729 72.0424 24.7317 72.1262 25.0884L72.2807 24.9201Z" fill="white"/>
<path d="M70.4818 27.3144C70.1728 27.1955 69.8383 26.9589 69.9382 26.7524C70.0258 26.5707 70.233 26.732 70.2813 26.7736C70.2908 26.7815 70.3014 26.7877 70.3132 26.7909C70.3662 26.805 70.5018 26.805 70.5655 26.464C70.6496 26.0123 70.8792 25.9683 71.323 26.1206C71.323 26.1206 70.9889 25.9875 70.8772 26.5515C70.7766 27.0605 70.4177 26.9271 70.3155 26.8772C70.2919 26.8658 70.2636 26.8717 70.2471 26.8921C70.2074 26.94 70.1897 27.0566 70.4822 27.3148L70.4818 27.3144Z" fill="white"/>
<path d="M92.8043 29.2645C92.5177 29.4297 92.123 29.5416 92.0248 29.3344C91.9383 29.1523 92.1938 29.0926 92.2567 29.0808C92.2689 29.0785 92.2803 29.0742 92.2905 29.0667C92.3349 29.0345 92.4202 28.929 92.1938 28.6652C91.8943 28.3163 92.0043 28.1103 92.4013 27.8607C92.4013 27.8607 92.0877 28.0369 92.4576 28.4776C92.7913 28.8756 92.4623 29.0706 92.3589 29.1189C92.3353 29.1299 92.3223 29.1558 92.3274 29.1813C92.3396 29.2421 92.4198 29.3293 92.8043 29.2637V29.2645Z" fill="white"/>
<path d="M97.3045 30.1656C97.0179 30.3308 96.6233 30.4426 96.525 30.2354C96.4385 30.0533 96.694 29.9937 96.7569 29.9819C96.7691 29.9795 96.7805 29.9752 96.7907 29.9678C96.8352 29.9356 96.9205 29.83 96.694 29.5663C96.3945 29.2174 96.5046 29.0114 96.9016 28.7618C96.9016 28.7618 96.5879 28.938 96.9578 29.3787C97.2915 29.7766 96.9625 29.9717 96.8591 30.02C96.8356 30.031 96.8226 30.0569 96.8277 30.0824C96.8399 30.1432 96.9201 30.2303 97.3045 30.1648V30.1656Z" fill="white"/>
<path d="M69.8952 12.5445C69.7274 12.3177 69.6122 11.999 69.8182 11.9071C69.9994 11.8263 70.0611 12.0335 70.0733 12.0845C70.0757 12.0943 70.0804 12.1038 70.0875 12.1116C70.1201 12.1465 70.2262 12.2109 70.4872 12.0108C70.8328 11.7458 71.0395 11.8255 71.2923 12.1391C71.2923 12.1391 71.1134 11.8907 70.6771 12.218C70.2828 12.5135 70.0851 12.2533 70.036 12.1709C70.0246 12.152 69.9986 12.1426 69.9731 12.1481C69.9125 12.1615 69.8264 12.2317 69.8952 12.5449V12.5445Z" fill="white"/>
<path d="M70.4119 28.8615C70.408 28.8544 70.3993 28.852 70.3922 28.8564C70.3486 28.8834 70.2024 28.9694 70.2047 28.9741C70.2134 28.9894 70.222 29.0047 70.2311 29.0204C70.1882 29.0439 70.1434 29.0655 70.1068 29.0965C69.8557 29.3108 70.1037 29.6632 70.1037 29.6632C70.1037 29.6632 70.2385 29.5745 70.2885 29.542C70.3006 29.5337 70.3124 29.5247 70.3234 29.5145C70.6222 29.2335 70.5219 29.0573 70.4123 28.8618L70.4119 28.8615ZM70.2413 29.0381C70.3085 29.1581 70.3655 29.2845 70.2774 29.4493C70.2193 29.3183 70.1253 29.1884 70.2413 29.0381Z" fill="white"/>
<path d="M81.7898 24.9856C81.7828 24.9817 81.7741 24.984 81.7706 24.9911C81.7474 25.037 81.6668 25.1861 81.6711 25.1885C81.6864 25.1971 81.7018 25.2058 81.7175 25.2144C81.6931 25.2568 81.6656 25.2984 81.6507 25.3439C81.5469 25.6571 81.942 25.8305 81.942 25.8305C81.942 25.8305 82.0111 25.6853 82.0371 25.6312C82.0434 25.6178 82.0489 25.6041 82.0528 25.59C82.1629 25.1952 81.9856 25.0963 81.7902 24.9856H81.7898ZM81.7356 25.225C81.8555 25.2929 81.9699 25.3718 81.9797 25.5578C81.8618 25.4758 81.714 25.4134 81.7356 25.225Z" fill="white"/>
<path d="M68.76 29.3194C68.5902 28.8167 69.3551 28.7896 69.7054 29.1593C69.7364 29.1923 69.4687 28.8136 69.0642 28.7657C68.6613 28.7178 68.556 28.9611 68.6279 29.1746C68.6366 29.1997 68.7242 29.2818 68.7403 29.299C68.7451 29.3041 68.758 29.3136 68.7604 29.3198L68.76 29.3194Z" fill="white"/>
<path d="M69.2926 30.0714C69.2926 30.0714 69.0532 29.8991 68.5945 30.2032C68.6774 29.7692 68.4888 29.777 68.3865 29.7645C68.3563 29.7606 68.3178 29.7633 68.2891 29.7535C68.5072 29.8296 68.3991 30.1408 68.3771 30.3037C68.3885 30.3053 68.5721 30.328 68.5721 30.328C68.8811 30.0992 69.2926 30.0718 69.293 30.0718L69.2926 30.0714Z" fill="white"/>
<path d="M78.445 24.6881C78.4191 25.6579 80.0787 25.6897 79.7634 27.1272C79.7403 25.9389 78.1164 25.9169 78.445 24.6881Z" fill="white"/>
<path d="M74.0324 8.10194C73.0642 8.18435 73.2179 9.83461 71.7517 9.68195C72.9318 9.52654 72.773 7.91278 74.0324 8.10194Z" fill="white"/>
<path d="M76.3 24.8796C76.392 24.5865 76.2674 24.3706 75.9662 24.218C75.932 24.2007 75.9195 24.1583 75.9387 24.1253L76.0331 23.9637C76.0775 23.8879 76.1652 23.8471 76.2508 23.8652C76.6145 23.9417 77.5999 24.1524 78.37 24.2031C79.5399 24.2804 82.3351 23.4244 81.9546 24.3514C81.8009 25.1108 79.8382 25.0347 79.295 24.9895C79.6531 24.8722 81.5544 24.7541 81.8304 24.3914C81.6339 23.7219 79.666 25.0033 76.4965 24.26C76.5496 24.4954 76.4458 24.6928 76.3 24.8796Z" fill="white"/>
<path d="M73.8179 17.5706C74.115 17.6511 74.3257 17.5176 74.4669 17.2115C74.483 17.1766 74.5247 17.1625 74.5585 17.1801L74.7243 17.268C74.8018 17.3092 74.8462 17.3952 74.8317 17.4815C74.7695 17.8473 74.5978 18.8386 74.5777 19.609C74.5471 20.7789 75.4012 23.8765 74.4582 23.5339C74.0007 23.3624 73.9252 22.8954 73.9492 22.3519C74.0809 22.7047 74.2279 23.0618 74.446 23.4389C75.108 23.2164 73.8285 20.9335 74.446 17.7421C74.2125 17.8045 74.0109 17.7088 73.8179 17.5706Z" fill="white"/>
<path d="M73.834 12.2184C74.1312 12.2988 74.3419 12.1654 74.483 11.8593C74.4991 11.8243 74.5408 11.8102 74.5746 11.8279L74.7405 11.9158C74.8179 11.957 74.8623 12.0429 74.8478 12.1293C74.7857 12.495 74.6139 13.4864 74.5938 14.2568C74.5632 15.4267 75.3014 16.1998 74.3588 15.8572C73.9012 15.6857 73.9716 14.9902 73.9955 14.4467C74.1272 14.7995 74.2719 15.3909 74.4901 15.7685C74.7715 15.2434 73.9649 14.9235 74.4625 12.3899C74.229 12.4523 74.0274 12.3565 73.8344 12.2184H73.834Z" fill="white"/>
<path d="M77.7296 27.5095C77.6604 27.6967 77.5995 27.8744 77.581 28.0087C77.5787 28.0259 77.5826 28.044 77.592 28.0589C77.664 28.1758 77.7905 28.1197 77.9446 27.9761L77.8668 28.2704C77.8593 28.2983 77.8448 28.3242 77.8247 28.345C77.5653 28.6166 77.4198 28.4156 77.5024 28.1213C77.5519 27.9231 77.6329 27.7179 77.73 27.5095H77.7296Z" fill="white"/>
<path d="M84.8956 24.9672C84.8264 25.1544 84.7655 25.3321 84.747 25.4664C84.7447 25.4836 84.7486 25.5017 84.758 25.5166C84.83 25.6335 84.9565 25.5774 85.1106 25.4338L85.0328 25.7281C85.0253 25.756 85.0108 25.7819 84.9907 25.8027C84.7313 26.0743 84.5859 25.8733 84.6684 25.579C84.7179 25.3808 84.7989 25.1755 84.896 24.9672H84.8956Z" fill="white"/>
<path d="M86.4317 29.3065C86.3626 29.4937 86.3016 29.6715 86.2832 29.8057C86.2808 29.823 86.2847 29.841 86.2942 29.8559C86.3661 29.9729 86.4927 29.9168 86.6468 29.7731L86.5689 30.0675C86.5615 30.0953 86.5469 30.1212 86.5269 30.142C86.2674 30.4136 86.122 30.2127 86.2045 29.9183C86.2541 29.7201 86.335 29.5149 86.4321 29.3065H86.4317Z" fill="white"/>
<path d="M71.2077 27.0095C71.0336 27.1076 70.872 27.2041 70.771 27.2944C70.758 27.3062 70.7494 27.3223 70.7466 27.3399C70.7262 27.4757 70.8587 27.5146 71.0694 27.5044L70.8194 27.6786C70.7958 27.6951 70.7679 27.7053 70.7392 27.7084C70.3653 27.7481 70.3846 27.5008 70.6382 27.3297C70.8044 27.2104 70.999 27.1064 71.2077 27.0099V27.0095Z" fill="white"/>
<path d="M69.8382 22.2008C69.5956 22.0968 69.3641 22.0045 69.188 21.9712C69.1652 21.9669 69.1412 21.9712 69.1208 21.9822C68.9616 22.0693 68.9486 22.2149 69.1282 22.4272L68.8228 22.3295C68.7863 22.3177 68.7532 22.2969 68.7273 22.2691C68.3857 21.9088 68.6613 21.731 69.0449 21.8593C69.3036 21.9378 69.5693 22.0587 69.8382 22.2004V22.2008Z" fill="white"/>
<path d="M73.5494 21.4257C73.3068 21.3217 73.0753 21.2294 72.8992 21.1961C72.8764 21.1918 72.8524 21.1961 72.832 21.2071C72.6728 21.2942 72.6598 21.4398 72.8394 21.6521L72.534 21.5544C72.4974 21.5426 72.4644 21.5218 72.4385 21.494C72.0969 21.1337 72.3724 20.9559 72.7561 21.0842C73.0147 21.1627 73.2805 21.2836 73.5494 21.4253V21.4257Z" fill="white"/>
<path d="M91.6199 28.4859C91.4835 28.7115 91.36 28.9278 91.3027 29.0973C91.2952 29.1193 91.296 29.1436 91.3042 29.1652C91.3687 29.3348 91.5114 29.3673 91.7469 29.219L91.6081 29.5078C91.5916 29.5424 91.5664 29.5718 91.5354 29.5942C91.1309 29.8826 90.9925 29.5855 91.1725 29.2237C91.2861 28.9784 91.4426 28.7323 91.6199 28.4859Z" fill="white"/>
<path d="M73.9099 18.0141C73.6674 17.9101 73.4359 17.8179 73.2598 17.7845C73.237 17.7802 73.213 17.7845 73.1926 17.7955C73.0334 17.8826 73.0204 18.0282 73.2 18.2405L72.8946 18.1428C72.858 18.131 72.825 18.1102 72.7991 18.0824C72.4575 17.7221 72.733 17.5443 73.1167 17.6727C73.3753 17.7511 73.6411 17.872 73.9099 18.0137V18.0141Z" fill="white"/>
<path d="M72.4798 10.1168C72.2845 10.0936 72.0997 10.0764 71.9665 10.0897C71.9492 10.0913 71.933 10.0995 71.9209 10.1117C71.8253 10.2074 71.847 10.3142 72.0203 10.4284L71.7813 10.4229C71.753 10.4221 71.7247 10.4143 71.7003 10.4001C71.38 10.2145 71.5396 10.0293 71.8407 10.0403C72.0423 10.0418 72.2577 10.0724 72.4798 10.1168Z" fill="white"/>
<path d="M83.4624 27.3285L83.3271 27.595C83.3688 27.648 83.872 28.0102 83.6742 28.5412C84.2305 27.7893 83.4624 27.3285 83.4624 27.3285Z" fill="white"/>
<path d="M68.7373 26.5868C68.9378 26.6629 69.0671 26.8576 69.0624 27.0715C69.0553 27.3862 69.0223 27.6264 68.9449 27.7383C68.9142 27.7822 68.8564 27.7983 68.8069 27.7783L68.5467 27.6731C68.5133 27.6598 68.4881 27.6315 68.4783 27.5966L68.4461 27.4804C68.426 27.4086 68.413 27.3352 68.4075 27.261C68.3855 26.9659 68.4048 26.5797 68.4763 26.2587C68.4783 26.2493 68.492 26.2497 68.4944 26.2587L68.7196 27.3262C68.7755 27.0519 68.79 26.8003 68.7377 26.586L68.7373 26.5868Z" fill="white"/>
<path d="M68.7289 23.8789C68.8837 23.9421 68.9808 24.0959 68.973 24.2627C68.9616 24.5076 68.9313 24.6944 68.8688 24.78C68.844 24.8137 68.7988 24.8251 68.7603 24.8086L68.5594 24.7219C68.5335 24.7109 68.5146 24.6881 68.5075 24.661L68.4848 24.57C68.4706 24.5139 68.462 24.4562 68.4588 24.3985C68.447 24.1681 68.4698 23.8675 68.5311 23.6187C68.5331 23.6112 68.5437 23.612 68.5453 23.6195L68.7006 24.4558C68.7489 24.2431 68.7654 24.0473 68.7285 23.8793L68.7289 23.8789Z" fill="white"/>
<path d="M89.1686 29.925C88.4264 30.0074 87.8482 30.1597 87.7759 29.7539C87.8797 30.3359 87.7122 30.3963 89.1969 30.2311C89.1969 30.2311 89.1729 29.9246 89.1686 29.925Z" fill="white"/>
<path d="M89.7631 24.1673C90.3865 24.1038 90.8672 23.979 90.9506 24.3275C90.8307 23.8279 90.9691 23.7772 89.7222 23.9048C89.7222 23.9048 89.7591 24.1677 89.7631 24.1673Z" fill="white"/>
<path d="M70.0269 19.4854L69.8287 19.3512C69.813 19.3406 69.8 19.3265 69.7914 19.3096C69.6829 19.0961 69.5921 18.7013 69.3433 18.4623C69.0143 18.3583 69.4404 19.4634 69.3464 20.2683C69.1377 19.6973 68.9981 19.049 68.9643 18.4187C68.958 18.301 69.0897 18.2272 69.1876 18.2931L69.3051 18.3728C69.8515 18.759 69.8586 19.1008 70.0457 19.4681C70.052 19.4803 70.0383 19.4925 70.0269 19.485V19.4854Z" fill="white"/>
<path d="M87.016 24.9052C87.0778 24.3326 86.3545 24.3581 85.7243 24.3125C85.689 24.3102 85.6673 24.2725 85.6823 24.2407L85.7727 24.0457C85.7813 24.0272 85.8002 24.0159 85.8203 24.0162L87.9815 24.0861C87.8793 24.0041 87.836 23.875 88.0849 23.5104C88.0424 23.7863 88.0919 24.1183 89.1792 23.9017L89.0696 24.1206C89.0369 24.1862 88.9823 24.2384 88.9147 24.267C88.4744 24.4538 87.783 24.3644 87.1638 24.3545C87.2401 24.5045 87.2075 24.6834 87.0157 24.9052H87.016Z" fill="white"/>
<path d="M74.7296 7.38454L74.5779 7.47951C74.5374 7.50502 74.5126 7.54937 74.513 7.59724L74.5217 8.9253L74.2221 7.78484C74.2162 7.76247 74.1832 7.76561 74.1816 7.78876C74.1486 8.29188 74.1585 8.76793 74.278 9.17412C74.2839 9.2789 74.4014 9.33777 74.489 9.28008L74.572 9.22592C74.7328 9.12035 74.8283 8.93982 74.8244 8.74752L74.7968 7.42025C74.7961 7.38611 74.7587 7.36609 74.7296 7.38414V7.38454Z" fill="white"/>
<path d="M71.1743 10.5344L71.4471 10.6607C71.4774 10.6749 71.5022 10.6984 71.5163 10.7286C71.7408 11.2172 71.7007 11.8557 71.8622 12.0316L71.5992 11.9609C71.5521 11.9484 71.5147 11.9123 71.4994 11.8656C71.3001 11.2502 71.4349 10.8742 71.1743 10.5336V10.5344Z" fill="white"/>
<path d="M73.1203 13.6952C73.2496 13.7976 73.388 13.798 73.4713 14.4345C73.2008 13.8309 73.0625 13.0876 72.9815 12.2839C72.9206 12.6434 72.8891 13.0229 72.8997 13.4306C72.9033 13.5574 72.9249 13.6838 72.9654 13.8039C73.092 14.1771 73.2991 14.6213 73.5251 15.0825C73.5307 15.0939 73.5409 15.1025 73.5531 15.1056L73.7826 15.1716C73.8149 15.181 73.8447 15.1523 73.8384 15.1198C73.7009 14.4216 73.8644 13.694 73.1203 13.6956V13.6952Z" fill="white"/>
<path d="M74.1482 10.4924L73.8679 10.3715C73.796 10.446 73.603 11.2757 73.0542 11.2922C73.689 11.6466 73.9599 10.8381 74.1482 10.4928V10.4924Z" fill="white"/>
<path d="M69.8437 3.41136L70.0592 3.19512C70.0159 3.10093 69.3131 2.6186 69.4982 2.10253C68.9361 2.56327 69.5906 3.10995 69.8441 3.41136H69.8437Z" fill="white"/>
<path d="M73.0024 4.5946C73.2417 2.89293 69.4787 3.95137 69.8089 2.20457L69.9453 1.75089C71.2307 2.16493 71.658 1.65984 72.6301 1.62845L74.5562 1.73716C72.3113 1.99931 71.0809 2.70062 70.0408 2.31759C70.5082 3.37054 73.8817 2.37881 73.0027 4.5942L73.0024 4.5946Z" fill="white"/>
<path d="M73.9833 2.68061C73.7522 6.81391 81.3632 4.13425 80.4784 7.90179C79.9607 5.22134 75.5152 7.90179 75.4716 5.47879C75.786 6.24133 76.8788 6.15459 77.9984 6.03882C76.2699 5.65579 73.4404 5.69032 73.9837 2.681L73.9833 2.68061Z" fill="white"/>
<path d="M85.5693 1.46008C84.3299 4.40269 92.1375 4.87677 90.8277 8.11764C90.7711 5.85868 86.2879 7.2562 86.7631 4.3862C86.8547 5.74213 88.3964 5.75037 89.7329 6.25467C87.7463 4.70213 84.1632 3.83716 85.5693 1.46008Z" fill="white"/>
<path d="M74.7711 2.65902C74.8498 1.12689 77.0035 1.47029 76.6757 3.13939C77.4721 3.24652 77.6572 2.54757 78.2087 2.01619C78.2087 2.01619 78.8153 1.43026 79.0645 2.09507L79.2599 2.82542C79.9077 4.36501 81.3558 4.69938 82.3629 5.25509C83.1106 5.66756 83.4341 6.28253 83.2761 7.7503C83.3307 4.58204 79.5783 6.02783 78.9674 2.53423C78.6093 1.99382 78.0998 2.54992 77.8471 2.91019C78.1175 2.93453 78.3597 3.01027 78.4269 3.40115C78.4391 3.47101 78.4371 3.54322 78.4241 3.61307L78.353 3.99572C78.3337 4.10011 78.2893 4.1994 78.2197 4.27946C77.7449 4.82693 77.1749 4.26219 77.0574 3.63466C77.0149 3.16921 77.0538 2.63469 77.1301 2.0676C76.9123 3.62877 77.7846 4.40779 78.3184 3.72492C77.7358 2.96828 77.1686 3.90427 76.6206 3.71315C76.5817 3.69941 76.5562 3.66213 76.5597 3.62092L76.6018 3.14292C76.5074 1.98989 75.108 1.9534 74.8348 2.73673C74.8415 2.90313 74.8836 3.05383 74.9677 3.18609C75.099 3.54793 75.4838 3.6951 76.0055 3.72649C75.6226 3.31442 74.8576 3.89996 74.7075 3.66449C74.6925 3.64133 74.6882 3.61268 74.691 3.58482L74.678 3.06757C74.9496 3.3831 75.2102 3.11937 75.5251 3.06403C75.8588 3.00556 76.2531 3.11741 76.2232 3.70452L76.1159 4.29123C75.4048 4.06047 74.5832 3.96118 74.7704 2.65942L74.7711 2.65902Z" fill="white"/>
<path d="M76.0184 7.9014C76.3855 5.92069 84.6912 6.02626 85.0823 2.46319C85.1759 0.969914 83.5854 1.61707 83.1503 2.41845C83.1959 2.08801 83.1668 1.89021 83.0921 1.77365C83.0492 1.70655 82.9577 1.69516 82.8987 1.74893C82.5878 2.0311 82.561 2.58524 82.3346 2.80502C82.4152 1.90434 81.8802 1.76267 81.4116 1.53858L81.3114 2.30111L80.5095 1.78347L80.4403 1.99735C79.8286 1.30154 79.3617 2.86467 78.7327 3.11545L78.6741 3.63662C79.1513 3.54322 79.8247 1.88747 80.2886 2.43651C80.3385 2.49577 80.3589 2.57426 80.3507 2.65157C80.2394 3.67901 81.0181 3.51222 81.3283 4.33362C81.5032 3.49338 81.2049 3.57854 80.4714 2.76813C80.4482 2.62253 80.4462 2.473 80.4714 2.31799C81.0673 2.76813 81.5421 2.80973 81.5704 3.43176C81.835 2.56798 81.3857 2.48752 81.4049 2.09233C81.8696 2.30621 82.3955 2.44985 82.2355 3.37682C82.6047 3.16176 82.5882 2.33094 82.9376 2.22105C83.0312 2.22105 83.0524 2.32112 83.0516 2.4522L83.0221 3.02479C84.0854 1.55663 84.9581 2.1249 84.9978 2.48438C83.7851 5.67384 75.6552 5.18995 76.0176 7.90179L76.0184 7.9014Z" fill="white"/>
<path d="M83.1144 5.09654L83.0327 5.50548C83.026 5.53884 83.0559 5.56827 83.0889 5.56081C83.5956 5.44583 83.8778 4.88776 84.3267 4.62246C84.7477 4.37365 85.2419 4.39092 85.46 4.77081C85.5894 4.99608 85.5717 5.2755 85.4349 5.49645C85.2886 5.73232 85.0827 5.87399 84.6911 6.02626C85.0972 5.90146 85.4203 5.79942 85.6668 5.10557C85.9883 4.14053 85.1255 3.70569 84.425 4.12366C83.9871 4.38503 83.6593 5.02629 83.1585 5.05926C83.1369 5.06083 83.1184 5.07574 83.1141 5.09694L83.1144 5.09654Z" fill="white"/>
<path d="M89.3599 1.40789C87.6629 4.11895 93.1772 4.47097 91.1658 7.14043C92.1772 6.03686 91.9924 5.26098 91.4456 4.59185C90.8265 3.83363 89.334 3.11623 89.2125 2.16375C89.4928 2.41296 89.8627 2.42395 90.1504 2.25166C89.7125 3.05069 89.5942 3.74533 89.6732 4.21196C89.1582 3.73199 88.7329 3.13036 88.9212 2.42159C89.1347 1.66848 88.8996 1.2721 88.2093 2.52481C88.4515 1.77208 87.9432 1.68967 87.51 1.45969C87.4605 1.4334 87.3988 1.45538 87.3779 1.50718L87.1629 2.03856L86.3598 1.61942C86.2855 1.58057 86.1943 1.61628 86.166 1.69477L86.019 2.09939C86.008 2.13196 85.9986 2.17906 85.9903 2.23282C85.9502 2.49733 86.0339 2.76538 86.2171 2.96082C86.4215 3.17863 86.716 3.47454 87.0013 3.69549C87.0367 3.72296 87.0886 3.70883 87.1047 3.66684L87.24 3.31952C87.2529 3.28656 87.2423 3.24966 87.2144 3.22808C87.0249 3.08327 86.3217 2.52598 86.1723 2.1041C86.6711 2.39294 87.2757 2.45848 87.3705 3.06403C87.3732 3.0813 87.3968 3.08483 87.4047 3.06914C87.7541 2.39059 87.4762 2.36076 87.3697 1.97812C87.804 2.19475 88.2046 2.24499 88.01 2.9879C88.0037 3.01105 88.032 3.02911 88.0497 3.01262C88.2333 2.84544 88.3776 2.44749 88.5297 2.29679C88.6798 2.14845 88.7962 2.1198 88.8127 2.34781C88.8166 2.40315 88.808 2.45887 88.7923 2.51225C88.0218 5.13383 92.6116 5.7331 91.9024 7.5737C93.204 5.5302 89.468 5.21232 89.7664 3.39055C89.7923 3.2324 89.8493 3.08091 89.9267 2.94002L90.3021 2.25676C90.3898 2.09703 90.4672 1.93181 90.5333 1.76227L90.672 1.40671C90.0879 1.99735 89.5034 1.96831 89.3591 1.40671L89.3599 1.40789Z" fill="white"/>
<path d="M92.6041 6.46306C92.6521 5.51097 91.5357 5.60123 91.8789 4.67073L92.0404 4.17978C92.5011 4.40073 93.0683 4.52553 92.8663 5.3485C93.3136 4.84498 94.1273 4.73195 93.897 5.71073C93.9933 5.69346 94.0967 5.58828 94.206 5.40226C94.3557 4.04242 90.1642 3.95843 90.7825 2.04484L90.9417 1.54446C91.6123 2.32191 92.5341 1.96517 93.4595 2.89253L94.0078 4.16996C92.6686 2.43415 92.2602 3.06129 90.8989 2.12725C91.4881 3.77947 94.9171 3.53929 94.3007 5.36851C94.1922 5.84652 93.989 6.12594 93.6985 6.24093L93.7826 5.77548C93.6997 5.14089 92.8738 5.60673 92.6529 5.91441C92.8781 5.36145 92.689 4.95173 91.996 4.71547C92.2633 5.31985 93.0809 5.41011 92.6041 6.46345V6.46306Z" fill="white"/>
<path d="M94.7073 4.02829C95.5666 2.65392 92.7777 3.17392 93.3759 1.95693C93.3858 1.93731 93.3995 1.91925 93.4152 1.90356L93.7816 1.53779C93.9168 2.05229 95.5509 1.03427 97.0773 2.15433C95.2828 1.65121 94.8056 2.26383 93.6995 2.08722C93.7769 2.47536 94.3893 2.56601 94.8799 2.82503C95.3143 3.05462 95.4287 3.50162 94.7077 4.0279L94.7073 4.02829Z" fill="white"/>
<path d="M95.4844 2.9726C95.1998 4.11384 96.6774 4.9741 95.8846 5.66442C95.1133 6.01684 94.8724 5.94973 94.5194 6.31707C93.7414 7.11728 93.8134 8.42924 92.3853 8.44769C94.3767 9.42411 94.2513 6.03136 96.245 6.54705C95.7446 7.28603 95.609 8.28011 94.4565 8.40609C94.1109 7.94928 94.6565 7.19969 95.6491 7.34097C96.2269 7.46067 96.7321 9.03205 94.8959 9.03283L94.4671 8.95984C94.3649 9.73846 95.71 9.60895 96.4188 10.9088C96.8209 11.6462 96.6896 11.8463 96.9778 12.8761C97.1 12.3169 97.0945 11.7529 96.9778 11.1843C96.2828 9.75102 95.0264 9.90957 94.9667 9.18707C97.2745 9.48219 96.9373 7.3967 95.745 7.28642C94.9073 7.04114 94.366 7.16398 94.0205 7.52974C93.6935 8.00186 93.8672 8.34212 94.482 8.49478C95.8979 8.87664 96.249 7.32449 96.804 6.64202C96.2953 6.37751 95.7372 6.31668 95.1558 6.35239C95.609 5.93561 96.2777 6.11849 96.5552 5.57612C96.7737 4.63816 95.734 4.20568 95.9852 3.1233L95.4844 2.97338V2.9726Z" fill="white"/>
<path d="M93.631 9.04265L93.1223 8.93668C93.127 9.48612 94.7316 10.5218 94.1919 10.8915C94.1098 10.9476 94.0076 10.9664 93.9089 10.9523L93.6031 10.9088C93.5571 10.9021 93.5244 10.9507 93.5465 10.9916C93.7237 11.3165 94.335 11.5751 94.6432 12.0006C94.8688 12.3126 94.8134 12.6689 94.3633 12.8094L93.9726 12.7686C93.9057 12.7615 93.8546 12.8274 93.8786 12.8902C94.0579 13.3573 94.2674 13.8828 94.0559 14.1763C93.8778 13.6673 94.6687 13.2886 95.2855 13.3506C95.8335 13.5935 96.5053 14.2732 96.7458 15.1665C96.9204 15.8144 97.1248 16.8002 97.1834 18.1075C97.3241 17.6197 97.3422 16.8685 97.3064 16.0004C97.3013 15.8788 97.2899 15.7575 97.2671 15.6378C97.0359 14.4122 96.2698 13.4424 95.2293 13.2725C94.3311 13.0508 93.7387 13.327 93.4557 14.1076C93.4309 14.1763 93.4733 14.2513 93.5449 14.267L93.8672 14.3376C93.9726 14.3608 94.0803 14.3714 94.188 14.3631C95.1432 14.2901 94.2914 12.9903 94.4136 12.9154C95.3519 13.0048 95.4553 12.5276 95.1133 12.0469C94.8724 11.7082 94.0465 11.2698 94.0437 11.0512C94.9592 11.2372 94.9093 10.7683 94.5783 10.3244C94.2446 9.877 93.6373 9.43117 93.6314 9.04265H93.631Z" fill="white"/>
<path d="M92.5813 16.803C94.0149 17.4388 94.2594 16.4215 94.7339 15.7237C94.8302 16.066 94.991 16.4172 94.7484 16.7115C94.6832 16.7908 94.5931 16.8446 94.4964 16.8807C92.9378 17.4647 93.3404 22.0038 91.5931 22.2957C91.2971 21.9531 90.6162 20.5925 92.4795 19.6824C92.2366 19.6891 92.0066 19.7197 91.7916 19.777C91.3108 19.9057 90.915 20.2589 90.777 20.7361C90.538 21.5626 91.1583 22.2592 91.6528 22.4264C93.5094 22.9162 93.5625 18.5949 94.4638 17.445C94.5483 17.3371 94.6604 17.2531 94.7869 17.1998C95.0998 17.0675 95.2386 16.98 95.3042 16.7331C95.443 16.2131 94.7421 15.1402 95.6781 14.2207C95.7072 14.1924 95.6985 14.1437 95.6616 14.1269L95.2107 13.9192C95.1781 13.9043 95.1392 13.9098 95.1136 13.9349C94.171 14.856 94.4084 16.9466 92.5805 16.803H92.5813Z" fill="white"/>
<path d="M96.1734 16.6342L95.6525 16.4945C95.5024 17.3414 96.3998 17.6683 96.7402 18.3732C97.096 19.1098 97.2685 19.6969 97.3318 20.2726C97.3318 19.8884 97.3586 19.3315 97.2894 18.8724C97.267 18.724 97.1573 18.3657 97.0173 18.177C96.5523 17.5486 95.897 17.1377 96.1734 16.6342Z" fill="white"/>
<path d="M95.9313 18.122L95.3991 17.9709C95.0567 18.0011 95.631 18.6832 95.2312 18.9885C95.28 18.6216 95.4344 18.4109 95.7635 18.4572C96.4734 18.9713 96.9345 20.328 97.3268 21.9178L97.2313 20.2471C97.2273 20.1765 97.2132 20.1066 97.188 20.0403C96.8708 19.1981 96.4628 18.5086 95.7576 18.3175C94.9242 18.1004 94.8035 18.5168 94.7127 18.9595C94.7049 18.998 94.7277 19.0364 94.7654 19.0478L95.0146 19.1232C95.1601 19.1671 95.3126 19.1856 95.4635 19.171C96.3291 19.0863 95.4054 18.2135 95.9313 18.122Z" fill="white"/>
<path d="M96.0949 20.129L95.5572 19.9724C95.1743 19.9811 95.6535 20.7357 95.3107 21.0909C95.3386 20.7585 95.3579 20.4198 95.8146 20.4088C96.5749 21.1035 96.9951 22.4975 97.1755 24.3848V22.3448C97.1755 22.2118 97.1555 22.0795 97.1146 21.9531C96.8685 21.1933 96.5395 20.5387 95.8984 20.2805L95.3606 20.1686C94.7961 20.2362 94.6507 20.9747 95.0972 21.1922L95.4443 21.2703C96.3693 21.421 95.5568 20.0835 96.0941 20.1294L96.0949 20.129Z" fill="white"/>
<path d="M95.9705 21.8126L95.5232 21.667C95.5004 21.6596 95.4756 21.6729 95.4701 21.6961C95.1989 22.8142 96.3015 23.3915 96.7174 24.2953C97.0008 24.9114 97.0079 25.4919 96.9427 26.8635C97.2261 26.2591 97.3354 25.2662 97.2843 24.8302C97.1368 23.5645 95.4859 22.5092 95.989 21.8778C96.0071 21.855 95.9977 21.8217 95.9702 21.8126H95.9705Z" fill="white"/>
<path d="M95.6305 23.6972L95.2886 23.5202C95.2516 23.501 95.206 23.5202 95.1938 23.5602C94.8754 24.5924 95.8723 25.2101 96.379 26.8046C96.4513 27.0318 96.6176 27.8956 96.6891 29.029C96.8798 28.1287 96.8456 27.6778 96.7886 26.9777C96.7084 25.9942 95.3043 24.7509 95.6628 23.7776C95.6742 23.7466 95.66 23.7121 95.6305 23.6968V23.6972Z" fill="white"/>
<path d="M94.8724 24.4797L94.3685 24.2784C94.2745 25.0613 95.1896 25.7352 95.5183 26.6645C95.7946 27.4463 95.6991 27.8733 95.1971 27.9839C94.8885 28.0518 94.5756 27.9549 94.3154 27.7759C93.7945 27.418 93.4502 26.9063 93.4502 26.9063C93.4502 26.9063 93.8684 27.597 94.4058 27.9176C94.6704 28.0754 94.966 28.1782 95.2726 28.2057C96.2785 28.2959 96.293 27.5024 95.9444 26.6888C95.5528 25.7752 94.7399 25.2223 94.8728 24.4793L94.8724 24.4797Z" fill="white"/>
<path d="M96.6396 22.4402C95.2473 21.5999 93.4493 26.9067 90.7012 24.559C92.8754 25.8926 92.6769 21.5807 94.6254 22.9421C93.8282 22.7263 93.384 23.6034 92.794 24.5598C94.1922 23.6783 95.3735 21.4571 96.64 22.4402H96.6396Z" fill="white"/>
<path d="M78.1812 4.6307L78.1301 5.1142L78.708 5.23312L78.7548 4.72842L78.1812 4.6307Z" fill="white"/>
<path d="M76.366 4.30418L76.3149 4.78768L76.8928 4.9062L76.9396 4.40151L76.366 4.30418Z" fill="white"/>
<path d="M78.9065 3.79399L78.6553 4.21039L79.1286 4.56202L79.3849 4.12483L78.9065 3.79399Z" fill="white"/>
<path d="M82.7789 3.08052L82.519 3.49181L82.9849 3.85326L83.2502 3.42117L82.7789 3.08052Z" fill="white"/>
<path d="M84.4766 4.90306L84.2168 5.31435L84.6826 5.6758L84.9479 5.24371L84.4766 4.90306Z" fill="white"/>
<path d="M83.4881 2.86153L83.2283 3.27282L83.6941 3.63466L83.9594 3.20218L83.4881 2.86153Z" fill="white"/>
<path d="M92.2128 1.40769L91.854 1.76594L92.2648 2.1761L92.6237 1.81784L92.2128 1.40769Z" fill="white"/>
<path d="M92.9633 1.45817L92.6045 1.81643L93.0153 2.22658L93.3742 1.86832L92.9633 1.45817Z" fill="white"/>
<path d="M96.6054 3.08651L96.1909 3.50027L96.6017 3.91042L97.0162 3.49666L96.6054 3.08651Z" fill="white"/>
<path d="M95.6608 11.3451L95.2463 11.7588L95.6572 12.169L96.0716 11.7552L95.6608 11.3451Z" fill="white"/>
<path d="M97.0223 13.5716L96.8069 13.7867L97.0204 13.9998L97.2358 13.7847L97.0223 13.5716Z" fill="white"/>
<path d="M97.0196 13.1106L96.8042 13.3257L97.0177 13.5388L97.2331 13.3237L97.0196 13.1106Z" fill="white"/>
<path d="M95.5761 10.5353L95.1616 10.949L95.5724 11.3592L95.9869 10.9454L95.5761 10.5353Z" fill="white"/>
<path d="M92.6112 9.03672L92.1968 9.45048L92.6076 9.86063L93.022 9.44687L92.6112 9.03672Z" fill="white"/>
<path d="M95.7186 15.6151L95.5095 16.0767L96.0389 16.3157L96.248 15.8541L95.7186 15.6151Z" fill="white"/>
<path d="M95.4217 14.8379L95.2126 15.2995L95.742 15.5385L95.9511 15.0768L95.4217 14.8379Z" fill="white"/>
<path d="M94.6486 21.2878L94.303 21.6588L94.7284 22.0538L95.074 21.6828L94.6486 21.2878Z" fill="white"/>
<path d="M94.4501 26.4727L94.0847 26.8243L94.4879 27.242L94.8533 26.8904L94.4501 26.4727Z" fill="white"/>
<path d="M94.486 25.7242L94.1206 26.0758L94.5238 26.4934L94.8892 26.1419L94.486 25.7242Z" fill="white"/>
<path d="M96.0374 15.1114L95.8284 15.573L96.3578 15.812L96.5668 15.3504L96.0374 15.1114Z" fill="white"/>
<path d="M91.0887 25.3153C90.7896 24.9585 90.4763 24.9907 90.3772 25.1932C91.1056 25.9589 92.8627 25.1701 93.2153 26.5974C93.294 26.9384 93.2861 27.2783 93.0974 27.6146L92.9807 27.212C92.7873 26.6084 92.0895 26.3902 91.325 26.223C91.3953 26.2972 91.4452 26.4392 91.483 26.6237C91.483 26.6237 91.2711 26.2277 90.8768 26.2128L90.8198 25.8729C91.7385 26.0637 92.7676 26.0805 93.0561 27.2571C93.1316 27.1437 93.169 26.92 93.1796 26.6186C92.485 25.3796 90.6901 26.3827 90.3175 25.2207C90.1492 24.7152 90.8206 24.4232 91.0895 25.3153H91.0887Z" fill="white"/>
<path d="M93.0845 15.9616L92.7673 15.8438C93.1903 15.4157 93.6647 15.1594 94.2764 15.3619C94.0641 15.0946 93.8373 14.8882 93.5794 14.7422C92.4918 14.1163 92.3844 15.5201 91.4803 15.5377C91.4265 15.1857 91.6765 14.8568 92.2233 14.9487L91.6218 14.8148C91.2515 14.8874 90.919 15.3486 91.4225 15.595C92.4175 16.0145 92.7131 14.4542 93.5386 14.7803C93.7249 14.9188 93.8892 15.0581 93.9639 15.199C93.0625 14.9714 92.5637 15.6272 92.0259 16.197L92.3593 16.3678C92.5759 16.0616 92.8149 15.9058 93.0841 15.9612L93.0845 15.9616Z" fill="white"/>
<path d="M93.3432 12.6575L93.0575 12.5516C93.4384 12.1658 93.8657 11.9354 94.416 12.1179C94.2246 11.8773 94.0205 11.6913 93.7882 11.5602C92.809 10.9967 92.7123 12.2604 91.8986 12.2764C91.8503 11.9597 92.0751 11.6634 92.5677 11.7462L92.0264 11.6258C91.693 11.6909 91.3935 12.1061 91.8471 12.3282C92.743 12.7062 93.0091 11.3012 93.7521 11.5948C93.9199 11.7196 94.0677 11.8447 94.1349 11.9719C93.3232 11.767 92.8743 12.3573 92.39 12.8702L92.6903 13.0241C92.8853 12.7486 93.1003 12.6081 93.3432 12.6579V12.6575Z" fill="white"/>
<path d="M82.6056 6.45246L82.42 6.86729C82.0108 6.51212 81.7144 6.05766 81.8622 5.49763C80.7345 6.81509 81.7443 7.1267 81.8713 7.57998C81.3901 7.87667 80.8202 7.42143 81.0226 6.72051L80.9298 7.13023C80.8473 7.49442 81.0827 7.86411 81.4519 7.92259C81.6394 7.95241 81.8198 7.89512 81.8968 7.7087C82.2483 7.04742 81.5364 6.94774 81.4448 6.44501C81.4228 6.32413 81.4511 6.19973 81.5155 6.09494C81.5717 6.00389 81.6504 5.90028 81.7215 5.85712C81.6209 6.52546 82.2545 7.10276 82.7601 7.52189L82.8811 7.2201C82.5934 7.0431 82.5061 6.70481 82.6048 6.45325L82.6056 6.45246Z" fill="white"/>
<path d="M93.4199 6.82215L93.1085 6.75426C93.1085 6.75426 93.274 6.44344 93.583 6.56235C93.892 6.68126 93.9525 6.69343 93.8531 6.89986C93.7532 7.10629 93.2618 7.06743 93.2618 7.06743C93.2618 7.06743 92.9214 7.02858 92.7901 7.40259C92.6588 7.77659 92.4265 8.45279 91.3679 8.14668C91.3679 8.14668 92.1459 8.36409 92.4914 7.29466C92.6199 6.89672 93.0582 6.96932 93.0582 6.96932C93.0582 6.96932 93.6581 7.01053 93.5743 6.65379L93.4199 6.82215Z" fill="white"/>
<path d="M95.2187 4.42741C95.5276 4.54633 95.8622 4.78297 95.7623 4.9894C95.6746 5.17111 95.4675 5.00981 95.4191 4.96821C95.4097 4.96036 95.3991 4.95408 95.3873 4.95094C95.3342 4.93682 95.1986 4.93682 95.1349 5.27786C95.0508 5.72957 94.8212 5.77352 94.3774 5.62125C94.3774 5.62125 94.7116 5.75429 94.8232 5.19034C94.9238 4.68133 95.2827 4.81476 95.3849 4.8646C95.4085 4.87599 95.4368 4.8701 95.4533 4.84969C95.493 4.80181 95.5107 4.68525 95.2183 4.42702L95.2187 4.42741Z" fill="white"/>
<path d="M72.896 2.47771C73.1826 2.31249 73.5772 2.20064 73.6755 2.40786C73.762 2.58995 73.5065 2.64961 73.4436 2.66138C73.4314 2.66374 73.42 2.66805 73.4098 2.67551C73.3653 2.70769 73.28 2.81326 73.5065 3.07699C73.806 3.42588 73.6959 3.63191 73.2989 3.88151C73.2989 3.88151 73.6126 3.7053 73.2427 3.26458C72.909 2.86663 73.238 2.67158 73.3414 2.62331C73.365 2.61232 73.3779 2.58642 73.3728 2.56091C73.3606 2.50008 73.2804 2.41296 72.896 2.4785V2.47771Z" fill="white"/>
<path d="M68.3955 1.57664C68.6825 1.41142 69.0767 1.29957 69.175 1.50679C69.2615 1.68888 69.006 1.74854 68.9431 1.76031C68.9309 1.76267 68.9195 1.76698 68.9093 1.77444C68.8649 1.80662 68.7796 1.91219 69.006 2.17592C69.3055 2.52481 69.1955 2.73084 68.7984 2.98044C68.7984 2.98044 69.1121 2.80423 68.7422 2.36351C68.4085 1.96556 68.7375 1.77051 68.8409 1.72224C68.8645 1.71125 68.8774 1.68535 68.8723 1.65984C68.8601 1.59901 68.78 1.51189 68.3955 1.57743V1.57664Z" fill="white"/>
<path d="M95.8053 19.1977C95.9731 19.4246 96.0883 19.7432 95.8823 19.8351C95.7011 19.9159 95.6394 19.7087 95.6272 19.6577C95.6248 19.6479 95.6201 19.6384 95.613 19.6306C95.5804 19.5957 95.4743 19.5313 95.2133 19.7315C94.8677 19.9964 94.661 19.9167 94.4082 19.6031C94.4082 19.6031 94.5871 19.8516 95.0234 19.5242C95.4177 19.2287 95.6154 19.4889 95.6645 19.5713C95.6759 19.5902 95.7019 19.5996 95.7274 19.5941C95.788 19.5808 95.874 19.5105 95.8053 19.1973V19.1977Z" fill="white"/>
<path d="M95.2881 2.88076C95.292 2.88782 95.3007 2.89018 95.3078 2.88586C95.3514 2.85878 95.4976 2.77284 95.4953 2.76813C95.4866 2.75282 95.478 2.73752 95.4689 2.72182C95.5118 2.69827 95.5566 2.67669 95.5932 2.64568C95.8443 2.4314 95.5963 2.07898 95.5963 2.07898C95.5963 2.07898 95.4615 2.16768 95.4115 2.20025C95.3994 2.20849 95.3876 2.21752 95.3766 2.22772C95.0778 2.50872 95.1781 2.68493 95.2877 2.88037L95.2881 2.88076ZM95.4587 2.70416C95.3915 2.58407 95.3345 2.4577 95.4226 2.29287C95.4807 2.42395 95.5747 2.55385 95.4587 2.70416Z" fill="white"/>
<path d="M83.9106 6.75661C83.9176 6.76054 83.9263 6.75818 83.9298 6.75112C83.953 6.7052 84.0336 6.55607 84.0293 6.55372C84.014 6.54508 83.9986 6.53645 83.9829 6.52781C84.0073 6.48543 84.0348 6.44383 84.0497 6.39831C84.1535 6.08513 83.7584 5.91166 83.7584 5.91166C83.7584 5.91166 83.6893 6.05687 83.6633 6.11103C83.657 6.12437 83.6515 6.13811 83.6476 6.15224C83.5375 6.54704 83.7148 6.64594 83.9102 6.75661H83.9106ZM83.9648 6.51722C83.8449 6.44932 83.7305 6.37044 83.7207 6.18442C83.8386 6.26644 83.9864 6.32884 83.9648 6.51722Z" fill="white"/>
<path d="M96.9405 2.42277C97.1103 2.9255 96.3454 2.95258 95.9951 2.58289C95.9641 2.54992 96.2318 2.92864 96.6363 2.97652C97.0407 3.0244 97.1445 2.78108 97.0726 2.56758C97.0639 2.54247 96.9763 2.46044 96.9602 2.44318C96.9554 2.43807 96.9425 2.42866 96.9401 2.42238L96.9405 2.42277Z" fill="white"/>
<path d="M96.4074 1.67083C96.4074 1.67083 96.6468 1.84312 97.1055 1.53897C97.0226 1.97302 97.2112 1.96517 97.3135 1.97773C97.3437 1.98165 97.3822 1.97891 97.4109 1.98872C97.1928 1.91258 97.3009 1.60137 97.3229 1.4385C97.3115 1.43693 97.1279 1.41417 97.1279 1.41417C96.8189 1.64297 96.4074 1.67044 96.407 1.67044L96.4074 1.67083Z" fill="white"/>
<path d="M87.255 7.05409C87.281 6.08434 85.6213 6.05256 85.9366 4.61501C85.9598 5.80335 87.5836 5.82533 87.255 7.05409Z" fill="white"/>
<path d="M91.668 23.6403C92.6362 23.5579 92.4825 21.9076 93.9487 22.0603C92.7686 22.2157 92.9274 23.8294 91.668 23.6403Z" fill="white"/>
<path d="M89.4004 6.86258C89.3084 7.15574 89.433 7.37159 89.7341 7.52425C89.7683 7.54152 89.7809 7.5839 89.7616 7.61687L89.6673 7.77856C89.6229 7.8543 89.5352 7.89512 89.4495 7.87706C89.0859 7.80054 88.1004 7.58979 87.3304 7.53916C86.1605 7.46185 83.3652 8.31779 83.7458 7.39082C83.8995 6.63142 85.8622 6.70756 86.4054 6.75269C86.0473 6.87003 84.1459 6.98816 83.87 7.35079C84.0665 8.02031 86.0343 6.73895 89.2038 7.48226C89.1508 7.24679 89.2545 7.04938 89.4004 6.86258Z" fill="white"/>
<path d="M91.8826 14.1716C91.5854 14.0911 91.3747 14.2246 91.2336 14.5307C91.2175 14.5656 91.1758 14.5797 91.142 14.5621L90.9761 14.4742C90.8987 14.433 90.8542 14.347 90.8688 14.2607C90.9309 13.8949 91.1027 12.9036 91.1227 12.1332C91.1534 10.9633 90.2992 7.86568 91.2422 8.20829C91.6998 8.3798 91.7753 8.84681 91.7513 9.39036C91.6196 9.03754 91.4726 8.68041 91.2544 8.30327C90.5924 8.52579 91.872 10.8087 91.2544 14.0001C91.4879 13.9377 91.6896 14.0335 91.8826 14.1716Z" fill="white"/>
<path d="M91.8664 19.5235C91.5692 19.443 91.3585 19.5764 91.2174 19.8826C91.2013 19.9175 91.1596 19.9316 91.1258 19.914L90.9599 19.826C90.8825 19.7848 90.8381 19.6989 90.8526 19.6125C90.9147 19.2468 91.0865 18.2555 91.1065 17.4851C91.1372 16.3152 90.399 15.542 91.3416 15.8846C91.7992 16.0562 91.7288 16.7516 91.7048 17.2951C91.5731 16.9423 91.4285 16.3509 91.2103 15.9733C90.9289 16.4984 91.7355 16.8183 91.2378 19.352C91.4713 19.2896 91.673 19.3853 91.866 19.5235H91.8664Z" fill="white"/>
<path d="M87.9709 4.23276C88.0401 4.04556 88.101 3.86778 88.1195 3.73356C88.1218 3.71629 88.1179 3.69824 88.1085 3.68332C88.0365 3.56637 87.91 3.62249 87.7559 3.76613L87.8337 3.47179C87.8412 3.44393 87.8557 3.41803 87.8758 3.39723C88.1352 3.12565 88.2806 3.32659 88.1981 3.62092C88.1486 3.81911 88.0676 4.02436 87.9705 4.23276H87.9709Z" fill="white"/>
<path d="M80.8049 6.77506C80.874 6.58786 80.935 6.41008 80.9535 6.27586C80.9558 6.25859 80.9519 6.24054 80.9424 6.22563C80.8705 6.10868 80.7439 6.1648 80.5898 6.30843L80.6677 6.0141C80.6751 5.98623 80.6897 5.96033 80.7097 5.93953C80.9692 5.66795 81.1146 5.86889 81.0321 6.16323C80.9825 6.36142 80.9016 6.56667 80.8045 6.77506H80.8049Z" fill="white"/>
<path d="M79.2685 2.43572C79.3377 2.24852 79.3986 2.07074 79.4171 1.93652C79.4194 1.91926 79.4155 1.9012 79.4061 1.88629C79.3341 1.76934 79.2076 1.82546 79.0535 1.9691L79.1313 1.67476C79.1388 1.64689 79.1533 1.62099 79.1734 1.60019C79.4328 1.32862 79.5782 1.52955 79.4957 1.82389C79.4462 2.02208 79.3652 2.22733 79.2681 2.43572H79.2685Z" fill="white"/>
<path d="M94.4927 4.73274C94.6668 4.63463 94.8284 4.53808 94.9294 4.44782C94.9424 4.43605 94.951 4.41996 94.9538 4.4023C94.9742 4.26651 94.8417 4.22766 94.631 4.23786L94.8811 4.06361C94.9046 4.04713 94.9325 4.03692 94.9612 4.03378C95.3351 3.99415 95.3158 4.24139 95.0623 4.4125C94.896 4.53181 94.7014 4.63581 94.4927 4.73235V4.73274Z" fill="white"/>
<path d="M95.8618 9.54145C96.1044 9.64545 96.3359 9.73768 96.512 9.77103C96.5348 9.77535 96.5588 9.77103 96.5792 9.76005C96.7384 9.67292 96.7514 9.52732 96.5717 9.31501L96.8772 9.41273C96.9137 9.4245 96.9468 9.4453 96.9727 9.47316C97.3143 9.83343 97.0387 10.0112 96.6551 9.88288C96.3964 9.80439 96.1307 9.68352 95.8618 9.54184V9.54145Z" fill="white"/>
<path d="M92.1509 10.3165C92.3934 10.4205 92.6249 10.5128 92.8011 10.5461C92.8239 10.5504 92.8478 10.5461 92.8683 10.5351C93.0275 10.448 93.0404 10.3024 92.8608 10.0901L93.1662 10.1878C93.2028 10.1996 93.2358 10.2204 93.2618 10.2483C93.6034 10.6085 93.3278 10.7863 92.9441 10.658C92.6855 10.5795 92.4198 10.4586 92.1509 10.3169V10.3165Z" fill="white"/>
<path d="M74.0806 3.25634C74.217 3.03068 74.3404 2.81444 74.3978 2.6449C74.4053 2.62292 74.4045 2.59859 74.3962 2.577C74.3318 2.40746 74.1891 2.37489 73.9536 2.52324L74.0924 2.23439C74.1089 2.19986 74.134 2.17042 74.1651 2.14805C74.5696 1.8596 74.708 2.15669 74.5279 2.51853C74.4143 2.76381 74.2579 3.00988 74.0806 3.25634Z" fill="white"/>
<path d="M91.7905 13.7281C92.0331 13.8321 92.2646 13.9243 92.4407 13.9577C92.4635 13.962 92.4875 13.9577 92.5079 13.9467C92.6671 13.8596 92.6801 13.714 92.5005 13.5017L92.8059 13.5994C92.8424 13.6112 92.8755 13.632 92.9014 13.6598C93.243 14.0201 92.9674 14.1979 92.5838 14.0696C92.3251 13.9911 92.0594 13.8702 91.7905 13.7285V13.7281Z" fill="white"/>
<path d="M93.2207 21.6254C93.4161 21.6486 93.6008 21.6659 93.7341 21.6525C93.7514 21.6509 93.7675 21.6427 93.7797 21.6305C93.8752 21.5348 93.8536 21.428 93.6802 21.3138L93.9192 21.3193C93.9475 21.3201 93.9758 21.328 94.0002 21.3421C94.3206 21.5277 94.161 21.7129 93.8599 21.702C93.6582 21.7004 93.4428 21.6698 93.2207 21.6254Z" fill="white"/>
<path d="M82.238 4.41368L82.3732 4.1472C82.3315 4.09422 81.8284 3.73199 82.0261 3.201C81.4699 3.95294 82.238 4.41368 82.238 4.41368Z" fill="white"/>
<path d="M96.9632 5.15541C96.7627 5.07927 96.6333 4.88462 96.6381 4.67073C96.6451 4.35599 96.6782 4.11581 96.7556 4.00396C96.7863 3.96 96.844 3.94391 96.8936 3.96393L97.1538 4.0691C97.1872 4.08245 97.2124 4.1107 97.2222 4.14563L97.2544 4.2618C97.2745 4.33362 97.2875 4.40701 97.293 4.48118C97.315 4.7763 97.2957 5.16247 97.2242 5.4835C97.2222 5.49292 97.2084 5.49253 97.2061 5.4835L96.9808 4.41603C96.925 4.69036 96.9105 4.94192 96.9628 5.1562L96.9632 5.15541Z" fill="white"/>
<path d="M96.9714 7.86293C96.8165 7.79975 96.7194 7.64591 96.7273 7.47912C96.7387 7.23423 96.7689 7.04742 96.8314 6.96187C96.8562 6.92811 96.9014 6.91673 96.9399 6.93322L97.1408 7.01995C97.1667 7.03094 97.1856 7.0537 97.1927 7.08078L97.2155 7.17183C97.2296 7.22795 97.2383 7.28564 97.2414 7.34333C97.2532 7.5737 97.2304 7.87432 97.1691 8.12313C97.1671 8.13059 97.1565 8.1298 97.1549 8.12234L96.9997 7.28603C96.9513 7.49874 96.9348 7.69457 96.9718 7.86254L96.9714 7.86293Z" fill="white"/>
<path d="M76.532 1.81722C77.2741 1.7348 77.8524 1.58253 77.9247 1.98833C77.8209 1.40632 77.9884 1.34588 76.5037 1.5111C76.5037 1.5111 76.5276 1.81761 76.532 1.81722Z" fill="white"/>
<path d="M75.9375 7.57448C75.3141 7.63806 74.8333 7.76286 74.75 7.41436C74.8699 7.91395 74.7315 7.96458 75.9784 7.83703C75.9784 7.83703 75.9415 7.57409 75.9375 7.57448Z" fill="white"/>
<path d="M95.6735 12.2564L95.8716 12.3906C95.8874 12.4012 95.9003 12.4154 95.909 12.4322C96.0175 12.6457 96.1083 13.0405 96.3571 13.2796C96.6861 13.3836 96.26 12.2784 96.354 11.4735C96.5627 12.0445 96.7022 12.6928 96.7361 13.3231C96.7423 13.4408 96.6107 13.5146 96.5128 13.4487L96.3952 13.369C95.8488 12.9829 95.8418 12.641 95.6547 12.2737C95.6484 12.2615 95.6621 12.2494 95.6735 12.2568V12.2564Z" fill="white"/>
<path d="M78.6844 6.83667C78.6227 7.40926 79.346 7.38375 79.9761 7.42928C80.0115 7.43163 80.0331 7.46931 80.0182 7.50109L79.9278 7.69614C79.9191 7.71459 79.9003 7.72597 79.8802 7.72558L77.719 7.65572C77.8212 7.73774 77.8644 7.86686 77.6156 8.23145C77.6581 7.95555 77.6085 7.62354 76.5212 7.84017L76.6309 7.62118C76.6635 7.55565 76.7182 7.50345 76.7858 7.4748C77.2261 7.28799 77.9175 7.37747 78.5366 7.38728C78.4604 7.23737 78.493 7.05841 78.6848 6.83667H78.6844Z" fill="white"/>
<path d="M90.9708 24.3577L91.1226 24.2627C91.1631 24.2372 91.1878 24.1929 91.1874 24.145L91.1788 22.8169L91.4783 23.9574C91.4842 23.9797 91.5172 23.9766 91.5188 23.9535C91.5518 23.4503 91.542 22.9743 91.4225 22.5681C91.4166 22.4633 91.2991 22.4044 91.2114 22.4621L91.1285 22.5163C90.9677 22.6219 90.8722 22.8024 90.8761 22.9947L90.9036 24.322C90.9044 24.3561 90.9417 24.3761 90.9708 24.3581V24.3577Z" fill="white"/>
<path d="M94.5256 21.2075L94.2528 21.0811C94.2225 21.067 94.1977 21.0434 94.1836 21.0132C93.9591 20.5246 93.9992 19.8861 93.8376 19.7103L94.1006 19.7809C94.1478 19.7935 94.1851 19.8296 94.2005 19.8763C94.3998 20.4916 94.2649 20.8676 94.5256 21.2083V21.2075Z" fill="white"/>
<path d="M92.5801 18.0471C92.4508 17.9446 92.3124 17.9442 92.2291 17.3077C92.4995 17.9113 92.6379 18.6546 92.7189 19.4583C92.7798 19.0988 92.8112 18.7193 92.8006 18.3116C92.7971 18.1848 92.7755 18.0584 92.735 17.9383C92.6084 17.5651 92.4013 17.1209 92.1752 16.6597C92.1697 16.6484 92.1595 16.6397 92.1473 16.6366L91.9177 16.5707C91.8855 16.5612 91.8556 16.5899 91.8619 16.6225C91.9995 17.3206 91.836 18.0482 92.5801 18.0467V18.0471Z" fill="white"/>
<path d="M91.552 21.2499L91.8323 21.3707C91.9042 21.2962 92.0972 20.4665 92.646 20.45C92.0111 20.0957 91.7403 20.9041 91.552 21.2495V21.2499Z" fill="white"/>
<path d="M95.999 28.2814L95.751 28.4592C95.7781 28.5593 96.3917 29.1507 96.124 29.6291C96.7545 29.2672 96.1991 28.6201 95.999 28.2814Z" fill="white"/>
</g>
<g clip-path="url(#clip3_707_6417)">
<rect x="76.3528" y="9.35529" width="12.9272" height="12.9272" fill="white"/>
<g clip-path="url(#clip4_707_6417)">
<path d="M88.4239 15.0596L88.3727 14.7025C87.5109 14.0771 85.7743 15.0282 85.9997 12.6507L86.0157 11.739C87.5844 12.259 88.6448 12.9132 88.3589 14.5772C88.1629 13.5633 87.1969 13.0884 86.0674 12.7277C86.3907 14.124 88.9539 12.5573 88.5313 15.176L88.5032 15.8134C87.6788 17.2345 85.1116 16.8238 85.3004 14.8848C84.819 15.157 84.48 15.8014 84.0792 16.0727C83.5135 16.456 83.016 16.3285 83.0971 14.9494L83.139 14.0209C84.5299 13.8881 84.9054 14.6224 84.8265 15.7439C84.6782 17.7036 83.8022 19.242 81.9315 20.2059C81.1396 20.5569 80.2449 20.6556 79.322 20.6852C81.532 19.6217 83.9384 18.8348 84.7174 15.7616C84.5237 15.1229 83.9411 14.9393 83.1724 14.972C83.7986 16.1201 84.8702 13.9191 85.3993 13.9182L85.402 14.6627C85.6661 15.8536 87.5331 16.0908 88.4248 15.0592L88.4239 15.0596Z" fill="#5064BA"/>
<path d="M86.5101 11.6045L87.2797 11.0371L86.4882 10.1356L85.7297 10.7082L86.5101 11.6045Z" fill="#5064BA"/>
<path d="M77.5588 11.4372L78.3169 10.8583L77.6225 10.0532L76.8743 10.6365L77.5588 11.4372Z" fill="#5064BA"/>
<path d="M77.5623 12.7959L78.3203 12.2174L77.626 11.4124L76.8782 11.9953L77.5623 12.7959Z" fill="#5064BA"/>
<path d="M88.0205 17.7239L88.6579 17.2371L88.0744 16.5604L87.4456 17.0508L88.0205 17.7239Z" fill="#5064BA"/>
<path d="M87.0398 10.6835L87.8646 11.6071L88.6174 11.0344L87.7845 10.1081L87.0398 10.6835Z" fill="#5064BA"/>
<path d="M86.9965 16.8698L86.5663 17.4557C86.5436 17.4867 86.5431 17.5288 86.565 17.5602C86.8001 17.8939 87.3564 18.6781 86.5993 19.5797C86.3436 18.6746 85.6439 18.0448 86.0692 17.211C84.4204 18.6485 86.1445 19.5035 86.0202 20.6511C85.3299 19.4062 84.5937 19.0189 84.9375 18.2382C83.4931 19.6168 84.7571 19.9563 84.3581 20.8419C83.9385 20.3431 83.6713 19.7855 83.935 19.022L83.5377 19.4973C83.5092 19.5319 83.4726 19.5589 83.4317 19.5775C82.7939 19.8642 82.165 19.3544 81.9788 18.5219C83.3564 16.4639 81.3014 11.8882 84.7928 10.0501C79.6089 11.3354 83.2994 18.1329 80.3184 19.5128C81.1989 18.5604 80.1184 17.3796 81.0408 16.5803L81.345 16.4179C81.4257 16.375 81.4827 16.2975 81.4978 16.2081C81.7468 14.7419 80.6765 14.0121 79.9318 14.0842L78.9551 14.494C77.1277 15.4872 79.054 19.0123 78.1904 20.7852C78.2251 19.9001 77.6804 18.456 77.6826 16.5219C77.6844 14.7587 77.631 13.1344 78.564 12.3205C76.7366 12.9716 76.9077 14.2378 76.8907 15.8032C76.852 19.3606 77.6768 20.7937 77.1508 21.5894L78.1556 21.1566C80.558 20.3059 78.1454 15.6832 79.445 14.4675C80.3906 14.8264 80.9282 15.7762 80.5919 16.6675C79.0063 17.2491 80.3692 18.9738 79.4094 19.8749L80.3184 19.6368L81.3824 19.1455C81.7815 20.3436 82.5587 20.8565 83.3007 19.9497C83.1439 20.5794 83.364 21.1132 83.8125 21.5881C83.8294 21.6062 83.8592 21.6049 83.8748 21.585L84.8097 20.3962L85.4297 21.3951C85.48 21.4761 85.5967 21.4823 85.655 21.4071L86.1432 20.779C86.528 20.2966 86.6211 19.9603 86.6131 19.6744C88.0566 17.8089 87.5697 17.6124 87.1484 16.8795C87.1159 16.8224 87.0353 16.8176 86.9965 16.8702V16.8698Z" fill="#5064BA"/>
<path d="M88.497 20.891C88.1015 21.1898 87.4089 21.2575 87.4053 20.6821L87.8391 20.1767C88.6395 19.1526 87.4966 19.1893 87.9509 18.0643C86.988 19.4257 87.9745 19.4018 87.7541 20.1466L87.2828 20.7162C86.6936 21.604 87.6556 21.8483 88.2155 21.3464L88.497 20.8915V20.891Z" fill="#5064BA"/>
<path d="M81.2043 20.8295L81.0506 21.1234C81.5512 20.9751 81.9855 20.9689 82.3142 21.1893C81.5129 21.369 80.0672 21.5044 78.5623 21.6359C80.3242 21.6629 81.068 21.9063 82.2394 21.6385C82.3997 21.6018 82.5271 21.4805 82.6055 21.3371L82.7752 21.0273C82.8353 20.9176 82.7979 20.7804 82.6905 20.7158C82.3748 20.5259 82.0086 20.4546 81.5677 20.5507C81.4109 20.5848 81.2787 20.6883 81.2047 20.8295H81.2043Z" fill="#5064BA"/>
<path d="M78.6847 12.0926L79.2757 11.3619C79.5287 12.1975 79.277 12.8158 78.9808 13.415C78.9403 13.4969 78.8811 13.5682 78.808 13.6235L78.4357 13.9028C78.3845 13.9413 78.339 13.9873 78.3016 14.0395L78.0112 14.4423C79.2472 13.5783 80.1852 13.9368 80.7744 13.1207C81.6629 12.1187 80.9962 11.4451 81.2452 10.4918C82.1306 10.2555 82.3528 10.8897 81.5939 11.6819C83.306 10.1608 81.9979 9.52524 81.2683 10.3298C80.3152 11.3132 81.2545 12.3108 80.7161 13.0278C80.2742 13.4119 79.314 13.392 78.9194 13.6691C80.1513 11.9342 79.7451 11.0486 79.3759 10.1435C79.3585 10.101 79.3024 10.0926 79.273 10.1276L78.9501 10.5144C78.9381 10.529 78.9332 10.5485 78.9376 10.5671C79.0432 11.0039 79.1434 11.4425 78.6842 12.0926H78.6847Z" fill="#5064BA"/>
<path d="M84.0299 13.0083L84.2134 12.4905C84.2134 12.4905 84.7786 13.142 84.7479 13.781C84.7457 13.8293 84.7345 13.8771 84.7154 13.9218L84.5631 14.2812C84.5533 14.3037 84.58 14.325 84.6 14.3104C84.7207 14.2219 84.9804 13.9904 85.2107 13.5097C86.0542 12.0178 84.7341 11.2269 84.861 10.5839C84.861 10.5839 85.4997 10.3591 85.2792 11.6315C85.2792 11.6315 85.3278 11.5783 85.3884 11.477C85.5451 11.2137 85.6026 10.9043 85.5634 10.6007C85.518 10.2493 85.3919 9.78017 85.0418 10.1077C84.9733 10.1718 84.9185 10.2493 84.8753 10.3329C84.7826 10.5122 84.6031 10.8862 84.5974 11.1079C84.5778 11.8435 85.4877 12.3922 85.1563 13.4301L84.9029 13.7085C85.2984 12.8025 84.3542 11.7492 83.8674 11.2867C83.8433 11.2641 83.8046 11.2681 83.7868 11.2955C83.6705 11.4712 83.573 11.6567 83.4973 11.8536C83.4892 11.8749 83.4959 11.8992 83.5137 11.9134C83.8602 12.1931 84.0611 12.544 84.0299 13.0088V13.0083Z" fill="#5064BA"/>
</g>
</g>
<rect x="76.1163" y="9.11882" width="13.4001" height="13.4001" stroke="#C59714" stroke-width="0.472946"/>
</g>
<rect x="67.5243" y="0.684621" width="30.4262" height="30.4262" stroke="#C59714" stroke-width="0.630595"/>
<defs>
<clipPath id="clip0_707_6417">
<rect width="61.8065" height="26.4676" fill="white" transform="translate(0 2.68337)"/>
</clipPath>
<clipPath id="clip1_707_6417">
<rect x="67.8396" y="0.999918" width="29.7956" height="29.7956" fill="white"/>
</clipPath>
<clipPath id="clip2_707_6417">
<rect width="29.1222" height="28.9539" fill="white" transform="translate(68.2891 1.39415)"/>
</clipPath>
<clipPath id="clip3_707_6417">
<rect x="76.3528" y="9.35529" width="12.9272" height="12.9272" fill="white"/>
</clipPath>
<clipPath id="clip4_707_6417">
<rect width="11.7836" height="11.7836" fill="white" transform="translate(76.8743 9.97932)"/>
</clipPath>
</defs>
</svg>
