<svg width="118" height="30" viewBox="0 0 118 30" fill="none" xmlns="http://www.w3.org/2000/svg">
<path d="M2.15771 7.54367V10H0.549061V3.08375H4.95118C6.55984 3.08375 7.63869 3.864 7.63869 5.3089C7.63869 6.34922 7.0511 7.07167 6.0782 7.37992L7.80245 10H5.96261L4.39249 7.54367H2.15771ZM2.15771 6.23363H4.86449C5.62547 6.23363 6.05894 5.89649 6.05894 5.3378C6.05894 4.76947 5.62547 4.44196 4.86449 4.44196H2.15771V6.23363ZM8.88545 3.08375H15.5898V4.46122H10.4652V5.79053H15.0407V7.14873H10.4652V8.62253H15.5898V10H8.88545V3.08375ZM24.1265 4.46122H21.1307V10H19.5221V4.46122H16.5167V3.08375H24.1265V4.46122ZM28.7619 10.106C26.3537 10.106 25.1593 8.81518 25.1593 6.81159V3.08375H26.7679V6.68637C26.7679 7.90971 27.3363 8.69959 28.7619 8.69959C30.1875 8.69959 30.7462 7.90971 30.7462 6.68637V3.08375H32.3549V6.81159C32.3549 8.81518 31.1604 10.106 28.7619 10.106ZM35.381 7.54367V10H33.7723V3.08375H38.1744C39.7831 3.08375 40.8619 3.864 40.8619 5.3089C40.8619 6.34922 40.2744 7.07167 39.3015 7.37992L41.0257 10H39.1859L37.6157 7.54367H35.381ZM35.381 6.23363H38.0877C38.8487 6.23363 39.2822 5.89649 39.2822 5.3378C39.2822 4.76947 38.8487 4.44196 38.0877 4.44196H35.381V6.23363ZM49.4006 3.08375V10H47.9846L43.6692 5.13551V10H42.1087V3.08375H43.7366L47.8401 7.71706V3.08375H49.4006ZM50.9813 3.08375H57.6856V4.46122H52.561V5.79053H57.1365V7.14873H52.561V8.62253H57.6856V10H50.9813V3.08375ZM58.9978 3.08375H65.7021V4.46122H60.5776V5.79053H65.1531V7.14873H60.5776V8.62253H65.7021V10H58.9978V3.08375ZM70.1582 10V3.08375H71.7668V8.62253H76.4386V10H70.1582ZM77.6761 3.08375H84.3805V4.46122H79.2559V5.79053H83.8314V7.14873H79.2559V8.62253H84.3805V10H77.6761V3.08375ZM92.9172 4.46122H89.9214V10H88.3128V4.46122H85.3074V3.08375H92.9172V4.46122ZM101.338 4.46122H98.3425V10H96.7338V4.46122H93.7284V3.08375H101.338V4.46122ZM102.535 3.08375H109.239V4.46122H104.115V5.79053H108.69V7.14873H104.115V8.62253H109.239V10H102.535V3.08375ZM112.16 7.54367V10H110.551V3.08375H114.953C116.562 3.08375 117.641 3.864 117.641 5.3089C117.641 6.34922 117.053 7.07167 116.08 7.37992L117.805 10H115.965L114.395 7.54367H112.16ZM112.16 6.23363H114.867C115.628 6.23363 116.061 5.89649 116.061 5.3378C116.061 4.76947 115.628 4.44196 114.867 4.44196H112.16V6.23363Z" fill="#11172F"/>
<path d="M114.408 26.3237C113.767 26.3237 113.228 26.2325 112.791 26.0501C112.355 25.8678 111.998 25.6329 111.722 25.3455C111.451 25.0527 111.252 24.7211 111.125 24.3508C111.004 23.975 110.943 23.5965 110.943 23.2152C110.943 22.7288 111.02 22.2674 111.175 21.8308C111.335 21.3942 111.559 21.0102 111.846 20.6786C112.139 20.347 112.487 20.0873 112.891 19.8994C113.294 19.706 113.736 19.6093 114.217 19.6093C114.67 19.6093 115.079 19.6866 115.444 19.8414C115.814 19.9906 116.127 20.2006 116.381 20.4714C116.64 20.7421 116.839 21.0682 116.978 21.4495C117.116 21.8253 117.185 22.2398 117.185 22.6929V26.0916C117.185 26.7382 117.088 27.2908 116.895 27.7495C116.701 28.2137 116.425 28.5867 116.066 28.8686C115.712 29.1504 115.289 29.3576 114.797 29.4903C114.311 29.6229 113.775 29.6892 113.189 29.6892C112.968 29.6892 112.728 29.6809 112.468 29.6643C112.208 29.6533 111.915 29.6229 111.589 29.5732L111.714 27.8407C112.018 27.8793 112.305 27.9097 112.576 27.9318C112.847 27.954 113.076 27.965 113.264 27.965C113.557 27.965 113.83 27.9429 114.085 27.8987C114.339 27.86 114.565 27.7799 114.764 27.6583C114.963 27.5422 115.124 27.3792 115.245 27.1692C115.367 26.9592 115.439 26.6774 115.461 26.3237H114.408ZM115.444 24.5249V23.1488C115.444 22.5631 115.328 22.1127 115.096 21.7977C114.864 21.4827 114.54 21.3252 114.126 21.3252C113.944 21.3252 113.767 21.3639 113.595 21.4412C113.424 21.5186 113.269 21.6291 113.131 21.7728C112.993 21.911 112.883 22.0767 112.8 22.2702C112.717 22.4636 112.675 22.6846 112.675 22.9333C112.675 23.2262 112.72 23.4749 112.808 23.6794C112.902 23.8783 113.026 24.0413 113.181 24.1684C113.341 24.2955 113.524 24.3867 113.728 24.442C113.938 24.4973 114.151 24.5249 114.366 24.5249H115.444Z" fill="#11172F"/>
<path d="M108.212 26.075C108.212 26.5392 108.152 26.973 108.03 27.3765C107.908 27.7799 107.723 28.1308 107.475 28.4292C107.226 28.7276 106.922 28.9625 106.563 29.1338C106.204 29.3051 105.786 29.3908 105.311 29.3908C105.112 29.3908 104.93 29.3825 104.764 29.3659C104.604 29.3493 104.46 29.33 104.333 29.3079C104.261 29.2968 104.192 29.2858 104.126 29.2747C104.059 29.2637 103.99 29.2499 103.918 29.2333L104.126 27.4676L104.557 27.5588C104.678 27.5809 104.805 27.6003 104.938 27.6168C105.076 27.6334 105.201 27.6417 105.311 27.6417C105.764 27.6417 106.068 27.4953 106.223 27.2024C106.378 26.915 106.455 26.495 106.455 25.9424V20.1729H108.212V26.075Z" fill="#11172F"/>
<path d="M102.986 26.3237H70.8092C70.66 26.3237 70.555 26.2822 70.4942 26.1993C70.4279 26.1165 70.3948 26.0253 70.3948 25.9258V25.0057C70.3948 24.8951 70.4307 24.7874 70.5025 24.6824C70.5689 24.5774 70.6711 24.5249 70.8092 24.5249H97.0927C97.0098 24.4144 96.9214 24.2265 96.8274 23.9612C96.7335 23.6959 96.6865 23.3616 96.6865 22.9582C96.6865 22.5327 96.7694 22.1182 96.9352 21.7148C97.101 21.3113 97.3331 20.9549 97.6315 20.6454C97.9355 20.336 98.2974 20.0873 98.7174 19.8994C99.1429 19.706 99.6099 19.6092 100.118 19.6092C100.566 19.6092 100.964 19.6838 101.312 19.8331C101.66 19.9767 101.959 20.1812 102.207 20.4465C102.456 20.7062 102.647 21.0212 102.779 21.3915C102.917 21.7617 102.986 22.1762 102.986 22.6349V26.3237ZM101.204 24.5249V22.5437C101.204 22.4055 101.179 22.2646 101.13 22.1209C101.085 21.9717 101.011 21.8391 100.906 21.7231C100.806 21.6015 100.676 21.5048 100.516 21.4329C100.356 21.3611 100.168 21.3252 99.9525 21.3252C99.7591 21.3252 99.5712 21.3638 99.3889 21.4412C99.2065 21.5186 99.0462 21.6291 98.9081 21.7728C98.7699 21.9109 98.6566 22.0767 98.5682 22.2702C98.4798 22.4636 98.4356 22.6846 98.4356 22.9333C98.4356 23.3036 98.5102 23.5965 98.6594 23.812C98.8086 24.022 98.9716 24.185 99.1485 24.3011C99.3474 24.4226 99.5851 24.4973 99.8614 24.5249H101.204ZM97.6315 17.7524C97.6315 17.5037 97.7199 17.2937 97.8968 17.1224C98.0736 16.9456 98.2947 16.8572 98.5599 16.8572C98.8252 16.8572 99.0462 16.9456 99.2231 17.1224C99.3999 17.2937 99.4883 17.5037 99.4883 17.7524C99.4883 18.0066 99.3999 18.2194 99.2231 18.3907C99.0462 18.562 98.8252 18.6477 98.5599 18.6477C98.2947 18.6477 98.0736 18.562 97.8968 18.3907C97.7199 18.2194 97.6315 18.0066 97.6315 17.7524ZM100.044 17.7524C100.044 17.5037 100.129 17.2937 100.301 17.1224C100.478 16.9456 100.701 16.8572 100.972 16.8572C101.243 16.8572 101.467 16.9456 101.644 17.1224C101.82 17.2937 101.909 17.5037 101.909 17.7524C101.909 18.0066 101.82 18.2194 101.644 18.3907C101.467 18.562 101.243 18.6477 100.972 18.6477C100.701 18.6477 100.478 18.562 100.301 18.3907C100.129 18.2194 100.044 18.0066 100.044 17.7524Z" fill="#11172F"/>
<path d="M67.1916 24.5249V23.1488C67.1916 22.563 67.0811 22.1127 66.86 21.7977C66.639 21.4827 66.3102 21.3252 65.8736 21.3252C65.6912 21.3252 65.5144 21.3638 65.3431 21.4412C65.1717 21.5186 65.0198 21.6291 64.8871 21.7728C64.7545 21.9109 64.644 22.0767 64.5556 22.2702C64.4727 22.4636 64.4312 22.6846 64.4312 22.9333C64.4312 23.2262 64.4782 23.4749 64.5721 23.6794C64.6661 23.8783 64.7904 24.0413 64.9452 24.1684C65.1054 24.2955 65.285 24.3867 65.484 24.442C65.6884 24.4973 65.8984 24.5249 66.114 24.5249H67.1916ZM66.1554 26.3237C65.5254 26.3237 64.9921 26.2325 64.5556 26.0501C64.119 25.8678 63.7598 25.6329 63.4779 25.3455C63.2016 25.0526 62.9999 24.7211 62.8728 24.3508C62.7512 23.975 62.6904 23.5965 62.6904 23.2152C62.6904 22.7288 62.7733 22.2674 62.9391 21.8308C63.1049 21.3942 63.3315 21.0102 63.6188 20.6786C63.9062 20.347 64.2516 20.0873 64.655 19.8994C65.0584 19.706 65.5006 19.6092 65.9813 19.6092C66.4234 19.6092 66.8269 19.6866 67.1916 19.8413C67.5619 19.9906 67.8769 20.2006 68.1366 20.4713C68.4019 20.7421 68.6036 21.0682 68.7417 21.4495C68.8799 21.8253 68.949 22.2398 68.949 22.6929V24.5249H70.0515C70.2007 24.5249 70.3057 24.5663 70.3665 24.6492C70.4328 24.7321 70.4659 24.8316 70.4659 24.9476V25.8926C70.4659 25.9755 70.4328 26.0695 70.3665 26.1745C70.3057 26.274 70.2007 26.3237 70.0515 26.3237H66.1554ZM63.8012 17.7524C63.8012 17.5037 63.8896 17.2937 64.0665 17.1224C64.2433 16.9456 64.4644 16.8572 64.7296 16.8572C65.0004 16.8572 65.2215 16.9456 65.3928 17.1224C65.5696 17.2937 65.658 17.5037 65.658 17.7524C65.658 18.0066 65.5696 18.2194 65.3928 18.3907C65.2215 18.562 65.0004 18.6477 64.7296 18.6477C64.4644 18.6477 64.2433 18.562 64.0665 18.3907C63.8896 18.2194 63.8012 18.0066 63.8012 17.7524ZM66.2134 17.7524C66.2134 17.5037 66.3019 17.2937 66.4787 17.1224C66.6555 16.9456 66.8794 16.8572 67.1501 16.8572C67.4154 16.8572 67.6365 16.9456 67.8133 17.1224C67.9901 17.2937 68.0786 17.5037 68.0786 17.7524C68.0786 18.0066 67.9901 18.2194 67.8133 18.3907C67.6365 18.562 67.4154 18.6477 67.1501 18.6477C66.8794 18.6477 66.6555 18.562 66.4787 18.3907C66.3019 18.2194 66.2134 18.0066 66.2134 17.7524Z" fill="#11172F"/>
<path d="M52.1896 24.5249C51.9188 24.2872 51.6895 23.9888 51.5016 23.6296C51.3192 23.2704 51.228 22.8587 51.228 22.3945C51.228 22.0242 51.2888 21.665 51.4104 21.3169C51.5375 20.9632 51.7364 20.6482 52.0072 20.3719C52.278 20.09 52.6234 19.869 53.0434 19.7087C53.4689 19.5429 53.9773 19.46 54.5687 19.46C54.8063 19.46 55.0633 19.4738 55.3396 19.5015C55.6214 19.5236 55.9364 19.5595 56.2846 19.6092L56.069 21.3749C55.8093 21.3307 55.5772 21.3003 55.3727 21.2837C55.1683 21.2616 54.9638 21.2505 54.7593 21.2505C54.2012 21.2505 53.7701 21.3804 53.4662 21.6402C53.1677 21.8999 53.0185 22.2453 53.0185 22.6763C53.0185 22.9748 53.0876 23.24 53.2258 23.4721C53.3695 23.7042 53.5546 23.8976 53.7812 24.0524C54.0077 24.2071 54.2702 24.3259 54.5687 24.4088C54.8671 24.4862 55.1766 24.5249 55.4971 24.5249H56.8565V26.3237H25.8896C25.7293 26.3237 25.6215 26.2822 25.5663 26.1993C25.5055 26.1164 25.4751 26.0253 25.4751 25.9258V25.0057C25.4751 24.8951 25.511 24.7874 25.5829 24.6824C25.6492 24.5774 25.7514 24.5249 25.8896 24.5249H52.1896Z" fill="#11172F"/>
<path d="M21.8408 24.5249V23.1488C21.8408 22.5631 21.7247 22.1127 21.4926 21.7977C21.2605 21.4827 20.94 21.3252 20.5311 21.3252C20.3432 21.3252 20.1636 21.3639 19.9922 21.4412C19.8209 21.5186 19.669 21.6291 19.5363 21.7728C19.4037 21.911 19.2959 22.0767 19.213 22.2702C19.1301 22.4636 19.0887 22.6846 19.0887 22.9333C19.0887 23.2262 19.1329 23.4749 19.2213 23.6794C19.3153 23.8783 19.4396 24.0413 19.5943 24.1684C19.7546 24.2955 19.9342 24.3867 20.1332 24.442C20.3376 24.4973 20.5476 24.5249 20.7632 24.5249H21.8408ZM23.5899 26.3237C23.5567 26.9205 23.4351 27.4317 23.2251 27.8572C23.0207 28.2883 22.7443 28.6365 22.3962 28.9017C22.048 29.1725 21.6363 29.3714 21.1611 29.4986C20.6913 29.6257 20.1718 29.6892 19.6026 29.6892C19.365 29.6892 19.1163 29.6809 18.8566 29.6643C18.5969 29.6533 18.3122 29.6229 18.0028 29.5732L18.1271 27.8407C18.4311 27.8793 18.7157 27.9097 18.9809 27.9318C19.2462 27.954 19.4783 27.965 19.6772 27.965C19.9701 27.965 20.2437 27.9429 20.4979 27.8987C20.7521 27.86 20.9787 27.7799 21.1776 27.6583C21.3821 27.5422 21.5424 27.3792 21.6584 27.1692C21.78 26.9592 21.8463 26.6774 21.8574 26.3237H20.8212C20.1801 26.3237 19.6413 26.2325 19.2047 26.0501C18.7682 25.8678 18.4117 25.6329 18.1354 25.3455C17.8646 25.0527 17.6657 24.7211 17.5386 24.3508C17.417 23.975 17.3562 23.5965 17.3562 23.2152C17.3562 22.7288 17.4336 22.2674 17.5883 21.8308C17.7486 21.3942 17.9724 21.0102 18.2598 20.6786C18.5526 20.347 18.898 20.0873 19.2959 19.8994C19.6938 19.706 20.1359 19.6093 20.6222 19.6093C21.0809 19.6093 21.4926 19.6866 21.8574 19.8414C22.2276 19.9906 22.5399 20.2006 22.7941 20.4714C23.0538 20.7421 23.25 21.0682 23.3826 21.4495C23.5208 21.8253 23.5899 22.2398 23.5899 22.6929V24.5249H25.1068C25.2726 24.5249 25.3859 24.5663 25.4467 24.6492C25.5075 24.7321 25.5379 24.8316 25.5379 24.9477V25.8926C25.5379 25.9755 25.5047 26.0695 25.4384 26.1745C25.3721 26.274 25.2616 26.3237 25.1068 26.3237H23.5899Z" fill="#11172F"/>
<path d="M8.76514 26.3237V24.5249H12.9845V22.9747C12.9845 22.6211 12.943 22.3365 12.8601 22.1209C12.7772 21.8999 12.6556 21.7286 12.4954 21.607C12.3406 21.4854 12.1472 21.4025 11.9151 21.3583C11.683 21.3141 11.4205 21.292 11.1276 21.292H9.63553V19.5761H11.4841C11.9041 19.5761 12.313 19.6203 12.7109 19.7087C13.1088 19.7916 13.4597 19.9519 13.7637 20.1895C14.0731 20.4216 14.3163 20.7504 14.4931 21.1759C14.6755 21.5959 14.7667 22.1458 14.7667 22.8255V26.3237H8.76514Z" fill="#11172F"/>
<path d="M6.25853 26.3237H3.46499C2.83499 26.3237 2.3017 26.2325 1.86512 26.0501C1.42855 25.8678 1.06934 25.6329 0.787497 25.3455C0.511182 25.0526 0.309472 24.7211 0.182368 24.3508C0.0607892 23.975 0 23.5965 0 23.2151C0 22.7288 0.0773681 22.2674 0.232104 21.8308C0.392367 21.3942 0.618945 21.0102 0.911838 20.6786C1.21026 20.347 1.56118 20.0873 1.9646 19.8994C2.36802 19.706 2.81012 19.6092 3.29091 19.6092C3.73301 19.6092 4.13643 19.6866 4.50117 19.8413C4.87143 19.9906 5.18643 20.2006 5.44616 20.4713C5.71142 20.7421 5.91313 21.0682 6.05129 21.4495C6.18945 21.8253 6.25853 22.2398 6.25853 22.6929V26.3237ZM4.50117 24.5249V23.1488C4.50117 22.563 4.38788 22.1127 4.1613 21.7977C3.93472 21.4827 3.60591 21.3252 3.17486 21.3252C2.99801 21.3252 2.82394 21.3638 2.65262 21.4412C2.48131 21.5186 2.32933 21.6291 2.1967 21.7728C2.06407 21.9109 1.95354 22.0767 1.86512 22.2702C1.78223 22.4636 1.74078 22.6846 1.74078 22.9333C1.74078 23.2262 1.78776 23.4749 1.8817 23.6794C1.97565 23.8783 2.09999 24.0413 2.25473 24.1684C2.41499 24.2955 2.59459 24.3867 2.79354 24.442C2.99801 24.4972 3.20801 24.5249 3.42354 24.5249H4.50117ZM1.07763 17.7524C1.07763 17.5037 1.16605 17.2937 1.34289 17.1224C1.51973 16.9456 1.74078 16.8571 2.00604 16.8571C2.27683 16.8571 2.49788 16.9456 2.6692 17.1224C2.84604 17.2937 2.93446 17.5037 2.93446 17.7524C2.93446 18.0066 2.84604 18.2194 2.6692 18.3907C2.49788 18.562 2.27683 18.6477 2.00604 18.6477C1.74078 18.6477 1.51973 18.562 1.34289 18.3907C1.16605 18.2194 1.07763 18.0066 1.07763 17.7524ZM3.49814 17.7524C3.49814 17.5037 3.5838 17.2937 3.75512 17.1224C3.93196 16.9456 4.15577 16.8571 4.42656 16.8571C4.69182 16.8571 4.91287 16.9456 5.08972 17.1224C5.26656 17.2937 5.35498 17.5037 5.35498 17.7524C5.35498 18.0066 5.26656 18.2194 5.08972 18.3907C4.91287 18.562 4.69182 18.6477 4.42656 18.6477C4.15577 18.6477 3.93196 18.562 3.75512 18.3907C3.5838 18.2194 3.49814 18.0066 3.49814 17.7524Z" fill="#11172F"/>
</svg>
