<svg width="170" height="26" viewBox="0 0 170 26" fill="none" xmlns="http://www.w3.org/2000/svg">
<path d="M112.702 8.48961L112.702 8.48976C111.976 10.0118 111.567 11.7101 111.567 13.5001C111.567 15.2901 111.976 16.9883 112.702 18.5104C113.883 20.9886 115.905 22.9843 118.398 24.1542L118.398 24.1542C119.934 24.873 121.647 25.2784 123.453 25.2784H135.188H135.338V25.1284V24.0184V23.8684H135.188H123.453C117.682 23.8684 112.987 19.215 112.987 13.5001C112.987 7.7852 117.682 3.1318 123.453 3.1318H135.188H135.338V2.9818V1.87183V1.72183H135.188H123.453C121.647 1.72183 119.934 2.12714 118.398 2.84593C115.897 4.01592 113.883 6.0194 112.702 8.48961Z" fill="white" stroke="white" stroke-width="0.3"/>
<path d="M156.856 1.465L156.514 2.1508L156.513 2.15213L156.232 2.70201L155.95 3.25321L155.95 3.25397L146.241 22.5008L146.241 22.501L145.121 24.7132L145.105 24.7452V24.781V25.4681V25.6181H145.255H146.162H146.254L146.296 25.5353L146.852 24.4257L146.852 24.4253L156.99 4.34152L167.129 24.4253L167.129 24.4257L167.685 25.5353L167.726 25.6181H167.819H168.726H168.876V25.4681V24.781V24.7452L168.86 24.7132L167.74 22.501L167.739 22.5008L158.031 3.25397L158.031 3.25322L157.749 2.70201L157.467 2.15213L157.467 2.1508L157.125 1.465L156.99 1.19607L156.856 1.465Z" fill="white" stroke="white" stroke-width="0.3"/>
<path d="M97.0859 1.97085H96.9359V2.12085V3.22327V13.1904V14.2928V24.2599V25.3698V25.5198H97.0859H98.1985H98.3485V25.3698V24.2599V14.2928V13.1904V3.22327V2.12085V1.97085H98.1985H97.0859Z" fill="white" stroke="white" stroke-width="0.3"/>
<path d="M23.3507 23.8684H2.2702V2.9818V1.87183V1.72183H2.1202H1H0.85V1.87183V2.9818V24.0184V25.1208V25.2708H1H2.1202H23.3507H24.4633H24.6133V25.1208V24.0184V23.8684H24.4633H23.3507Z" fill="white" stroke="white" stroke-width="0.3"/>
<mask id="path-5-outside-1_252_939" maskUnits="userSpaceOnUse" x="30.7939" y="0.871826" width="25" height="25" fill="black">
<rect fill="white" x="30.7939" y="0.871826" width="25" height="25"/>
<path d="M43.5294 25.1208C37.0597 25.1208 31.7939 19.9032 31.7939 13.4925C31.7939 7.08189 37.0597 1.87183 43.5294 1.87183C49.9992 1.87183 55.2649 7.08945 55.2649 13.5001C55.2649 19.9107 49.9992 25.1284 43.5294 25.1284M43.5294 2.9818C37.6769 2.9818 32.9141 7.70106 32.9141 13.5001C32.9141 19.2991 37.6769 24.0184 43.5294 24.0184C49.3819 24.0184 54.1447 19.2991 54.1447 13.5001C54.1447 7.70106 49.3819 2.9818 43.5294 2.9818Z"/>
</mask>
<path d="M43.5294 25.1208C37.0597 25.1208 31.7939 19.9032 31.7939 13.4925C31.7939 7.08189 37.0597 1.87183 43.5294 1.87183C49.9992 1.87183 55.2649 7.08945 55.2649 13.5001C55.2649 19.9107 49.9992 25.1284 43.5294 25.1284M43.5294 2.9818C37.6769 2.9818 32.9141 7.70106 32.9141 13.5001C32.9141 19.2991 37.6769 24.0184 43.5294 24.0184C49.3819 24.0184 54.1447 19.2991 54.1447 13.5001C54.1447 7.70106 49.3819 2.9818 43.5294 2.9818Z" fill="white"/>
<path d="M43.5294 24.8208C37.2227 24.8208 32.0939 19.7349 32.0939 13.4925H31.4939C31.4939 20.0715 36.8966 25.4208 43.5294 25.4208V24.8208ZM32.0939 13.4925C32.0939 7.25042 37.2225 2.17183 43.5294 2.17183V1.57183C36.8968 1.57183 31.4939 6.91337 31.4939 13.4925H32.0939ZM43.5294 2.17183C49.8361 2.17183 54.9649 7.25772 54.9649 13.5001H55.5649C55.5649 6.92117 50.1622 1.57183 43.5294 1.57183V2.17183ZM54.9649 13.5001C54.9649 19.7425 49.8361 24.8284 43.5294 24.8284V25.4284C50.1622 25.4284 55.5649 20.079 55.5649 13.5001H54.9649ZM43.5294 2.6818C37.5138 2.6818 32.6141 7.53279 32.6141 13.5001H33.2141C33.2141 7.86934 37.84 3.2818 43.5294 3.2818V2.6818ZM32.6141 13.5001C32.6141 19.4674 37.5138 24.3184 43.5294 24.3184V23.7184C37.84 23.7184 33.2141 19.1308 33.2141 13.5001H32.6141ZM43.5294 24.3184C49.545 24.3184 54.4447 19.4674 54.4447 13.5001H53.8447C53.8447 19.1308 49.2188 23.7184 43.5294 23.7184V24.3184ZM54.4447 13.5001C54.4447 7.53279 49.545 2.6818 43.5294 2.6818V3.2818C49.2188 3.2818 53.8447 7.86934 53.8447 13.5001H54.4447Z" fill="white" mask="url(#path-5-outside-1_252_939)"/>
<path d="M85.2668 1.72183H85.205L85.1612 1.76527L84.8335 2.08996L84.041 2.87525L74.7746 12.057L74.3231 12.5044L73.8655 12.057L73.8648 12.0563L64.5996 2.87576L64.5991 2.87525L63.8147 2.09047L63.8147 2.09047L63.8142 2.08996L63.4865 1.76527L63.4426 1.72183H63.3809H62.5884H62.4384V1.87183V2.65711V2.71965L62.4828 2.76366L62.8105 3.08835L63.603 3.87363L73.4257 13.6066L73.6099 13.7892V14.8366V24.0184V25.1208V25.2708H73.7599H74.8801H75.0301V25.1208V24.0184V14.8366V13.7892L75.2143 13.6067L75.2143 13.6066L85.0446 3.87368L85.0452 3.87312L85.8296 3.08835L85.8301 3.08784L86.1573 2.76366L86.2017 2.71965V2.65711V1.87183V1.72183H86.0517H85.2668Z" fill="white" stroke="white" stroke-width="0.3"/>
</svg>
