<svg width="168" height="78" viewBox="0 0 168 78" fill="none" xmlns="http://www.w3.org/2000/svg">
<g clip-path="url(#clip0_1_4053)">
<path d="M111.837 7.02232C113.003 4.58341 114.992 2.60509 117.461 1.44981C118.978 0.740037 120.67 0.339844 122.453 0.339844H134.188V1.44981H122.453C116.6 1.44981 111.837 6.16908 111.837 11.9681C111.837 17.7671 116.6 22.4864 122.453 22.4864H134.188V23.5964H122.453C120.67 23.5964 118.978 23.1962 117.461 22.4864C115 21.3311 113.003 19.3604 111.837 16.9139C111.121 15.4113 110.717 13.735 110.717 11.9681C110.717 10.2012 111.121 8.52494 111.837 7.02232Z" fill="white"/>
<path d="M166.606 21.0366L156.897 1.78954L156.615 1.23834L156.333 0.687125L155.99 0L155.647 0.687125L155.365 1.23834L155.084 1.78954L145.375 21.0366L144.255 23.249V23.9361H145.162L145.718 22.8261L155.99 2.47667L166.263 22.8261L166.819 23.9361H167.726V23.249L166.606 21.0366Z" fill="white"/>
<path d="M96.0859 0.588867V1.69129V11.6584V12.7608V22.7279V23.8378H97.1985V22.7279V12.7608V11.6584V1.69129V0.588867H96.0859Z" fill="white"/>
<path d="M22.3507 22.4864H1.1202V1.44981V0.339844H0V1.44981V22.4864V23.5888H1.1202H22.3507H23.4633V22.4864H22.3507Z" fill="white"/>
<path d="M42.5294 23.5888C36.0597 23.5888 30.7939 18.3712 30.7939 11.9606C30.7939 5.54991 36.0597 0.339844 42.5294 0.339844C48.9992 0.339844 54.2649 5.55746 54.2649 11.9681C54.2649 18.3788 48.9992 23.5964 42.5294 23.5964M42.5294 1.44981C36.6769 1.44981 31.9141 6.16908 31.9141 11.9681C31.9141 17.7671 36.6769 22.4864 42.5294 22.4864C48.3819 22.4864 53.1447 17.7671 53.1447 11.9681C53.1447 6.16908 48.3819 1.44981 42.5294 1.44981Z" fill="white"/>
<path d="M84.2668 0.339844L83.9391 0.664529L83.1466 1.44981L73.8801 10.6316L73.3238 11.1828L72.7599 10.6316L63.4935 1.44981L62.7086 0.664529L62.3809 0.339844H61.5884V1.12513L61.9161 1.44981L62.7086 2.2351L72.5313 11.9681L72.7599 12.1946V13.3046V22.4864V23.5888H73.8801V22.4864V13.3046V12.1946L74.1087 11.9681L83.9391 2.2351L84.724 1.44981L85.0517 1.12513V0.339844H84.2668Z" fill="white"/>
<path d="M0 70.147V46.4224H1.21165V68.9465H69.8717V61.2824C69.8717 58.0431 67.2122 55.4154 63.9506 55.4154H30.055L34.8254 46.445H36.197L32.0668 54.2148H63.9506C67.8828 54.2148 71.091 57.3862 71.091 61.2899V68.954H96.3527V52.6971H97.5644V70.1546" fill="white"/>
<path d="M168 46.4224H166.788V68.9465H124.845V52.2214H115.061C110.1 52.2214 106.061 56.2233 106.061 61.1389V61.2295C106.061 66.1451 110.1 70.147 115.061 70.147H123.634V72.3141C123.634 74.7833 121.607 76.7993 119.107 76.7993H115.792V77.9999H119.107C122.27 77.9999 124.845 75.4477 124.845 72.3141V70.147H168V46.4224ZM123.626 68.9465H115.053C110.755 68.9465 107.265 65.4806 107.265 61.2295V61.1389C107.265 56.8803 110.763 53.422 115.053 53.422H123.626V68.9465Z" fill="white"/>
<path d="M96.9548 76.7993H85.6309V77.9999H96.9548V76.7993Z" fill="white"/>
</g>
<defs>
<clipPath id="clip0_1_4053">
<rect width="168" height="78" fill="white"/>
</clipPath>
</defs>
</svg>
