<svg width="30" height="30" viewBox="0 0 30 30" fill="none" xmlns="http://www.w3.org/2000/svg">
<rect width="30" height="30" rx="4" fill="#080C12"/>
<path d="M22 21.747V22H18.3969C18.2157 21.5972 18.1003 21.3405 18.0493 21.2304L17.2892 19.4832C16.8345 18.4358 16.3746 17.5083 15.9124 16.7035C15.4481 15.9048 15.0251 15.359 14.6414 15.0656C14.4469 14.9203 14.2354 14.8155 14.0129 14.7534L14.007 14.7519C13.3992 14.5865 12.7714 15.0042 12.6723 15.633C12.6709 15.6405 12.6701 15.648 12.6686 15.6555L12.6568 17.1782V18.5691H12.6553C12.6568 19.3072 12.699 19.8545 12.781 20.2131C12.8631 20.5769 13.0176 20.8756 13.2417 21.1084C13.4361 21.3143 13.6624 21.4662 13.9197 21.5643C14.177 21.6631 14.5157 21.7238 14.9342 21.7462V21.9993H8V21.7462C8.41925 21.7238 8.75716 21.6631 9.01447 21.5643C9.27031 21.4655 9.49657 21.3143 9.69251 21.1084C9.92321 20.8748 10.0785 20.5776 10.1598 20.219C10.2389 19.8627 10.2781 19.314 10.2781 18.5691V17.3294C10.2781 17.3294 10.0644 14.5228 12.6553 14.421V14.418H13.0687C13.9656 14.418 14.6074 14.3664 14.9948 14.2638C15.3808 14.1605 15.7446 13.9486 16.0862 13.626C16.8448 12.8938 17.2256 11.9865 17.2256 10.901C17.2256 10.3224 17.1147 9.77961 16.8951 9.27055C16.6733 8.76149 16.3679 8.34152 15.9775 8.01138C15.6736 7.76284 15.3113 7.58841 14.892 7.49034C14.4728 7.39153 13.8754 7.34212 13.1019 7.34212H12.6561V10.4504L12.6797 13.3602C10.0637 13.2756 10.2789 10.4504 10.2789 10.4504C10.2789 9.69576 10.2397 9.13954 10.1606 8.78021C10.08 8.42087 9.92395 8.12367 9.69325 7.89085C9.49731 7.6775 9.26957 7.52403 9.0093 7.42896C8.74902 7.33313 8.41185 7.27474 8.00074 7.25303V7H13.2313C14.1053 7 14.6821 7.00449 14.9556 7.01048C16.0781 7.06214 16.9572 7.21635 17.5931 7.47238C18.3103 7.76508 18.8656 8.20302 19.259 8.7847C19.6539 9.36787 19.852 10.0439 19.852 10.8127C19.852 11.9551 19.4239 12.8721 18.5706 13.5601C18.3103 13.7645 18.0227 13.9329 17.7085 14.0647C17.3927 14.1964 16.972 14.3222 16.4433 14.439C16.8774 14.6224 17.199 14.8133 17.409 15.0102C17.5754 15.1644 17.7277 15.356 17.8652 15.5874C18.0013 15.8179 18.2083 16.2252 18.4834 16.8121C19.1266 18.1536 19.6132 19.1321 19.943 19.7519C20.272 20.3703 20.5493 20.8187 20.7733 21.0979C20.9545 21.3255 21.1297 21.4827 21.3005 21.571C21.4698 21.6586 21.7035 21.7178 21.9993 21.747H22Z" fill="white"/>
</svg>
