<svg width="30" height="30" viewBox="0 0 30 30" fill="none" xmlns="http://www.w3.org/2000/svg">
<rect width="30" height="30" rx="4" fill="#FF5757"/>
<path d="M22 22.747V23H18.3969C18.2157 22.5972 18.1003 22.3405 18.0493 22.2304L17.2892 20.4832C16.8345 19.4358 16.3746 18.5083 15.9124 17.7035C15.4481 16.9048 15.0251 16.359 14.6414 16.0656C14.4469 15.9203 14.2354 15.8155 14.0129 15.7534L14.007 15.7519C13.3992 15.5865 12.7714 16.0042 12.6723 16.633C12.6709 16.6405 12.6701 16.648 12.6686 16.6555L12.6568 18.1782V19.5691H12.6553C12.6568 20.3072 12.699 20.8545 12.781 21.2131C12.8631 21.5769 13.0176 21.8756 13.2417 22.1084C13.4361 22.3143 13.6624 22.4662 13.9197 22.5643C14.177 22.6631 14.5157 22.7238 14.9342 22.7462V22.9993H8V22.7462C8.41925 22.7238 8.75716 22.6631 9.01447 22.5643C9.27031 22.4655 9.49657 22.3143 9.69251 22.1084C9.92321 21.8748 10.0785 21.5776 10.1598 21.219C10.2389 20.8627 10.2781 20.314 10.2781 19.5691V18.3294C10.2781 18.3294 10.0644 15.5228 12.6553 15.421V15.418H13.0687C13.9656 15.418 14.6074 15.3664 14.9948 15.2638C15.3808 15.1605 15.7446 14.9486 16.0862 14.626C16.8448 13.8938 17.2256 12.9865 17.2256 11.901C17.2256 11.3224 17.1147 10.7796 16.8951 10.2705C16.6733 9.76149 16.3679 9.34152 15.9775 9.01138C15.6736 8.76284 15.3113 8.58841 14.892 8.49034C14.4728 8.39153 13.8754 8.34212 13.1019 8.34212H12.6561V11.4504L12.6797 14.3602C10.0637 14.2756 10.2789 11.4504 10.2789 11.4504C10.2789 10.6958 10.2397 10.1395 10.1606 9.78021C10.08 9.42087 9.92395 9.12367 9.69325 8.89085C9.49731 8.6775 9.26957 8.52403 9.0093 8.42896C8.74902 8.33313 8.41185 8.27474 8.00074 8.25303V8H13.2313C14.1053 8 14.6821 8.00449 14.9556 8.01048C16.0781 8.06214 16.9572 8.21635 17.5931 8.47238C18.3103 8.76508 18.8656 9.20302 19.259 9.7847C19.6539 10.3679 19.852 11.0439 19.852 11.8127C19.852 12.9551 19.4239 13.8721 18.5706 14.5601C18.3103 14.7645 18.0227 14.9329 17.7085 15.0647C17.3927 15.1964 16.972 15.3222 16.4433 15.439C16.8774 15.6224 17.199 15.8133 17.409 16.0102C17.5754 16.1644 17.7277 16.356 17.8652 16.5874C18.0013 16.8179 18.2083 17.2252 18.4834 17.8121C19.1266 19.1536 19.6132 20.1321 19.943 20.7519C20.272 21.3703 20.5493 21.8187 20.7733 22.0979C20.9545 22.3255 21.1297 22.4827 21.3005 22.571C21.4698 22.6586 21.7035 22.7178 21.9993 22.747H22Z" fill="white"/>
</svg>
