<svg width="150" height="154" viewBox="0 0 150 154" fill="none" xmlns="http://www.w3.org/2000/svg">
<g clip-path="url(#clip0_539_1866)">
<path d="M61.573 171.003H12.5565C7.13274 171.003 2.73132 166.586 2.73132 161.143V28.3491C2.73132 22.9064 7.13274 18.4896 12.5565 18.4896H102.372C107.796 18.4896 112.197 22.9064 112.197 28.3491V62.9945" stroke="#2FC8DB" stroke-opacity="0.5" stroke-width="5" stroke-linecap="round" stroke-linejoin="round"/>
<path d="M96.3629 10.4391C96.3629 5.53674 91.86 1.88738 87.0918 2.91327L38.9572 10.7053" stroke="#2FC8DB" stroke-opacity="0.5" stroke-width="5" stroke-linecap="round" stroke-linejoin="round"/>
<path d="M87.6992 85.03C96.8384 68.2716 90.7092 47.2515 74.0092 38.0803C57.3091 28.9091 36.3623 35.0598 27.2231 51.8183C18.0838 68.5767 24.2131 89.5968 40.9131 98.768C57.6132 107.939 78.56 101.788 87.6992 85.03Z" stroke="#2FC8DB" stroke-opacity="0.5" stroke-width="5" stroke-linecap="round" stroke-linejoin="round"/>
<path d="M57.4603 33.8309C64.6321 33.8309 70.4461 49.3211 70.4461 68.4215C70.4461 78.3358 68.8775 87.2712 66.3724 93.5754" stroke="#2FC8DB" stroke-opacity="0.5" stroke-width="5" stroke-linecap="round" stroke-linejoin="round"/>
<path d="M57.4603 103.012C50.2885 103.012 44.4746 87.5219 44.4746 68.4215C44.4746 60.5746 45.4579 53.3386 47.1045 47.5356" stroke="#2FC8DB" stroke-opacity="0.5" stroke-width="5" stroke-linecap="round" stroke-linejoin="round"/>
<path d="M33.151 78.9466C36.3974 77.3021 40.2838 75.9864 44.6072 75.1093C44.6384 75.1015 44.6774 75.0937 44.7086 75.0858C48.6496 74.2949 52.9496 73.8563 57.4602 73.8563C61.9709 73.8563 66.2631 74.2949 70.2041 75.0858C70.2353 75.0937 70.2743 75.1015 70.3055 75.1093C78.2187 76.7226 84.6726 79.7924 88.4106 83.661" stroke="#2FC8DB" stroke-opacity="0.5" stroke-width="5" stroke-linecap="round" stroke-linejoin="round"/>
<path d="M81.3715 58.0921C78.2109 59.6426 74.465 60.8878 70.3134 61.7258C70.2743 61.7336 70.2431 61.7414 70.2041 61.7492C66.2631 62.548 61.971 62.9866 57.4681 62.9866C52.9652 62.9866 48.6653 62.548 44.7243 61.7492C44.6852 61.7414 44.654 61.7336 44.615 61.7258C36.7018 60.1125 30.248 57.0505 26.5099 53.1819" stroke="#2FC8DB" stroke-opacity="0.5" stroke-width="5" stroke-linecap="round" stroke-linejoin="round"/>
<path d="M28.6873 126.052H62.8841" stroke="#2FC8DB" stroke-opacity="0.5" stroke-width="5" stroke-linecap="round" stroke-linejoin="round"/>
<path d="M28.6873 146.499H81.4418" stroke="#2FC8DB" stroke-opacity="0.5" stroke-width="5" stroke-linecap="round" stroke-linejoin="round"/>
<path d="M92.0708 107.084C97.159 100.107 103.285 93.9512 110.238 88.8452" stroke="#2FC8DB" stroke-opacity="0.5" stroke-width="5" stroke-linecap="round" stroke-linejoin="round"/>
<path d="M130.17 109.308C125.12 116.176 119.057 122.238 112.182 127.273" stroke="#2FC8DB" stroke-opacity="0.5" stroke-width="5" stroke-linecap="round" stroke-linejoin="round"/>
<path d="M120.848 75.5937L117.995 78.4566C115.837 80.6219 115.837 84.1325 117.995 86.2978L133.744 102.102C135.901 104.267 139.4 104.267 141.557 102.102L144.41 99.2389C146.568 97.0737 146.568 93.5631 144.41 91.3978L128.661 75.5937C126.504 73.4285 123.005 73.4285 120.848 75.5937Z" stroke="#2FC8DB" stroke-opacity="0.5" stroke-width="5" stroke-linecap="round" stroke-linejoin="round"/>
<path d="M81.721 114.85L78.8681 117.712C76.7104 119.878 76.7104 123.388 78.8681 125.554L94.6171 141.358C96.7748 143.523 100.273 143.523 102.431 141.358L105.284 138.495C107.441 136.33 107.441 132.819 105.284 130.654L89.5348 114.85C87.3771 112.684 83.8787 112.684 81.721 114.85Z" stroke="#2FC8DB" stroke-opacity="0.5" stroke-width="5" stroke-linecap="round" stroke-linejoin="round"/>
<path d="M139.597 145.144L117.527 123.005" stroke="#2FC8DB" stroke-opacity="0.5" stroke-width="5" stroke-linecap="round" stroke-linejoin="round"/>
<path d="M155.376 144.823L131.801 121.173" stroke="#2FC8DB" stroke-opacity="0.5" stroke-width="5" stroke-linecap="round" stroke-linejoin="round"/>
<path d="M154.237 145.915L148.972 151.198C147.525 152.651 147.525 155.006 148.972 156.459L170.675 178.238C172.123 179.691 174.47 179.691 175.918 178.238L181.182 172.955C182.63 171.503 182.63 169.147 181.182 167.695L159.479 145.915C158.031 144.463 155.684 144.463 154.237 145.915Z" stroke="#2FC8DB" stroke-opacity="0.5" stroke-width="5" stroke-linecap="round" stroke-linejoin="round"/>
</g>
<defs>
<clipPath id="clip0_539_1866">
<rect width="185" height="196" fill="white"/>
</clipPath>
</defs>
</svg>
