<svg width="46" height="46" viewBox="0 0 46 46" xmlns="http://www.w3.org/2000/svg" xmlns:xlink="http://www.w3.org/1999/xlink">
    <defs>
        <filter x="-15%" y="-12.5%" width="125%" height="125%" filterUnits="objectBoundingBox" id="6y6s9g9nha">
            <feOffset dx="-1" in="SourceAlpha" result="shadowOffsetOuter1"/>
            <feGaussianBlur stdDeviation="1.5" in="shadowOffsetOuter1" result="shadowBlurOuter1"/>
            <feColorMatrix values="0 0 0 0 0 0 0 0 0 0 0 0 0 0 0 0 0 0 0.1 0" in="shadowBlurOuter1" result="shadowMatrixOuter1"/>
            <feMerge>
                <feMergeNode in="shadowMatrixOuter1"/>
                <feMergeNode in="SourceGraphic"/>
            </feMerge>
        </filter>
        <circle id="pb7evex6sb" cx="17.333" cy="17.333" r="17.333"/>
    </defs>
    <g transform="translate(4 3)" filter="url(#6y6s9g9nha)" fill="none" fill-rule="evenodd">
        <circle stroke="#FFF" stroke-width="2.667" fill="#D3D6DB" cx="20" cy="20" r="18.667"/>
        <g transform="translate(2.667 2.667)">
            <mask id="jxqcqopfyc" fill="#fff">
                <use xlink:href="#pb7evex6sb"/>
            </mask>
            <path d="M31.333 33.509c.007.343-.188.615-.44.85-.57.526-1.251.852-1.959 1.13-2.334.919-4.783 1.336-7.256 1.64-.638.08-1.278.137-1.918.204h-5.634c-.11-.018-.22-.044-.331-.052-1.262-.099-2.527-.162-3.785-.298-1.656-.178-3.295-.471-4.811-1.204-.884-.427-1.647-1.001-1.865-2.053v-2.245c.02-.133.054-.266.056-.398.012-.723.252-1.38.729-1.898.587-.638 1.196-1.282 1.893-1.788 1.831-1.33 3.93-2.08 6.12-2.569a2.11 2.11 0 0 0 1.374-.957c.376-.578.493-1.171.026-1.794-.712-.952-1.201-2.019-1.542-3.16-.058-.196-.246-.36-.39-.525-.249-.288-.569-.533-.755-.857-.554-.963-.817-2.016-.707-3.131.028-.285.215-.552.315-.832a.528.528 0 0 0 .03-.302c-.8-2.703-.485-5.29.942-7.697 1.22-2.06 3.059-3.104 5.498-2.875 1.16.108 2.242.439 3.05 1.37.07.081.239.124.354.11 1.724-.209 2.963.719 3.58 2.157.712 1.658.804 3.4.708 5.172-.036.674-.165 1.326-.136 2.009.01.249.042.501.107.761.328 1.32-.036 2.624-.943 3.69a5.61 5.61 0 0 0-.516.708.76.76 0 0 0-.138.231c-.103.18-.197.363-.286.551-.059.128-.117.257-.172.388-.356.84-.843 1.626-1.304 2.417-.672 1.149-.328 2.067.946 2.429.576.164 1.162.295 1.736.465 2.18.645 4.231 1.535 5.893 3.154.63.613 1.292 1.243 1.403 2.15.125 1.007.108 2.032.128 3.049" fill="#FFF" mask="url(#jxqcqopfyc)"/>
        </g>
    </g>
</svg>
