<svg width="19" height="18" viewBox="0 0 19 18" fill="none" xmlns="http://www.w3.org/2000/svg">
<g clip-path="url(#clip0_1_6053)">
<path d="M2.87054 3.35175C3.74059 2.48155 4.90754 1.97257 6.13724 1.92694C7.36693 1.88131 8.5684 2.30242 9.50054 3.10575C10.4319 2.30375 11.6317 1.88312 12.8599 1.92807C14.0882 1.97302 15.2541 2.48023 16.1243 3.34816C16.9945 4.21608 17.5048 5.38067 17.5529 6.60877C17.6011 7.83687 17.1836 9.03784 16.384 9.97125L10.5603 15.8137C10.2927 16.0814 9.93387 16.238 9.55568 16.2522C9.17748 16.2664 8.8079 16.1371 8.52104 15.8903L8.43854 15.8145L2.61554 9.97125C1.8164 9.03865 1.39872 7.83878 1.446 6.61154C1.49328 5.38429 2.00203 4.22011 2.87054 3.35175ZM3.93104 4.41225C3.31772 5.02574 2.96418 5.85183 2.94379 6.71908C2.9234 7.58632 3.23773 8.42812 3.82154 9.06975L3.93104 9.18525L9.49979 14.754L13.477 10.776L10.8258 8.12475L10.0308 8.91975C9.82189 9.12875 9.57387 9.29456 9.30089 9.4077C9.02791 9.52085 8.73532 9.57912 8.43982 9.57919C7.84303 9.57933 7.27063 9.34239 6.84854 8.9205C6.42645 8.49861 6.18924 7.92632 6.1891 7.32953C6.18896 6.73274 6.42589 6.16034 6.84779 5.73825L8.42429 4.161C7.79689 3.66028 7.01159 3.39952 6.2093 3.4255C5.40701 3.45147 4.64023 3.76249 4.04654 4.30275L3.93104 4.41225ZM10.2955 6.53325C10.4362 6.39265 10.6269 6.31366 10.8258 6.31366C11.0247 6.31366 11.2154 6.39265 11.356 6.53325L14.5375 9.71475L15.0685 9.18525C15.6921 8.5621 16.0471 7.71969 16.0577 6.83817C16.0682 5.95666 15.7334 5.10601 15.1248 4.46817C14.5163 3.83032 13.6823 3.4559 12.8012 3.42499C11.9202 3.39408 11.062 3.70912 10.4103 4.30275L10.2955 4.41225L7.90904 6.79875C7.77904 6.92866 7.70127 7.10178 7.69048 7.28525C7.6797 7.46872 7.73666 7.64976 7.85054 7.794L7.90904 7.85925C8.03895 7.98925 8.21207 8.06702 8.39554 8.0778C8.579 8.08859 8.76004 8.03163 8.90429 7.91775L8.96954 7.85925L10.2955 6.53325Z" fill="white"/>
</g>
<defs>
<clipPath id="clip0_1_6053">
<rect width="18" height="18" fill="white" transform="translate(0.5)"/>
</clipPath>
</defs>
</svg>
