<svg width="16" height="17" viewBox="0 0 16 17" fill="none" xmlns="http://www.w3.org/2000/svg">
<g clip-path="url(#clip0_1_6022)">
<path d="M4.66634 3.16665V1.83331H11.333V3.16665H14.6663V4.49998H13.333V14.5C13.333 14.6768 13.2628 14.8464 13.1377 14.9714C13.0127 15.0964 12.8432 15.1666 12.6663 15.1666H3.33301C3.1562 15.1666 2.98663 15.0964 2.8616 14.9714C2.73658 14.8464 2.66634 14.6768 2.66634 14.5V4.49998H1.33301V3.16665H4.66634ZM3.99967 4.49998V13.8333H11.9997V4.49998H3.99967ZM5.99967 6.49998H7.33301V11.8333H5.99967V6.49998ZM8.66634 6.49998H9.99967V11.8333H8.66634V6.49998Z" fill="#D0011C"/>
</g>
<defs>
<clipPath id="clip0_1_6022">
<rect width="16" height="16" fill="white" transform="translate(0 0.5)"/>
</clipPath>
</defs>
</svg>
