<svg width="14" height="12" viewBox="0 0 14 12" fill="none" xmlns="http://www.w3.org/2000/svg">
<path d="M0.333008 0.662C0.334228 0.486919 0.404275 0.319345 0.528016 0.195478C0.651758 0.071612 0.819261 0.00139643 0.994341 0H13.005C13.3703 0 13.6663 0.296667 13.6663 0.662V11.338C13.6651 11.5131 13.5951 11.6807 13.4713 11.8045C13.3476 11.9284 13.1801 11.9986 13.005 12H0.994341C0.818883 11.9998 0.650672 11.93 0.526667 11.8059C0.402663 11.6817 0.333008 11.5135 0.333008 11.338V0.662ZM2.99967 8V9.33333H10.9997V8H2.99967ZM2.99967 2.66667V6.66667H6.99967V2.66667H2.99967ZM8.33301 2.66667V4H10.9997V2.66667H8.33301ZM8.33301 5.33333V6.66667H10.9997V5.33333H8.33301ZM4.33301 4H5.66634V5.33333H4.33301V4Z" fill="#E6E6E6"/>
</svg>
