<svg width="40" height="36" viewBox="0 0 40 36" fill="none" xmlns="http://www.w3.org/2000/svg">
<path d="M15.536 8.36873C17.2428 8.36873 18.6264 6.98512 18.6264 5.27836C18.6264 3.57159 17.2428 2.18799 15.536 2.18799C13.8293 2.18799 12.4457 3.57159 12.4457 5.27836C12.4457 6.98512 13.8293 8.36873 15.536 8.36873Z" stroke="#818490" stroke-width="2" stroke-linecap="round" stroke-linejoin="round"/>
<path d="M15.4641 8.3689C13.3554 8.3689 11.5112 9.43473 10.5061 11.0256" stroke="#818490" stroke-width="2" stroke-linecap="round" stroke-linejoin="round"/>
<path d="M24.4639 9.0555C26.1707 9.0555 27.5543 7.67189 27.5543 5.96513C27.5543 4.25836 26.1707 2.87476 24.4639 2.87476C22.7571 2.87476 21.3735 4.25836 21.3735 5.96513C21.3735 7.67189 22.7571 9.0555 24.4639 9.0555Z" stroke="#818490" stroke-width="2" stroke-linecap="round" stroke-linejoin="round"/>
<path d="M24.8073 9.05542C26.6584 9.05542 28.2959 9.96021 29.2914 11.3464" stroke="#818490" stroke-width="2" stroke-linecap="round" stroke-linejoin="round"/>
<path d="M20.0002 16.6099C21.7069 16.6099 23.0905 15.2263 23.0905 13.5196C23.0905 11.8128 21.7069 10.4292 20.0002 10.4292C18.2934 10.4292 16.9098 11.8128 16.9098 13.5196C16.9098 15.2263 18.2934 16.6099 20.0002 16.6099Z" stroke="#818490" stroke-width="2" stroke-linecap="round" stroke-linejoin="round"/>
<path d="M24.6005 19.9313C24.0013 18.0221 22.1684 16.6328 19.9999 16.6328C17.8315 16.6328 15.9986 18.0221 15.3994 19.9313" stroke="#818490" stroke-width="2" stroke-linecap="round" stroke-linejoin="round"/>
<path d="M10.3855 31.7515V30.5353L5.2805 24.462C4.99173 24.1183 4.7548 23.734 4.57762 23.3213C4.3321 22.7499 4.20574 22.1346 4.2054 21.5127L4.20471 16.838C4.20471 16.6856 4.21467 16.5335 4.23493 16.3827C4.28266 16.0229 4.38739 15.6726 4.54431 15.3451L6.38686 11.5051C6.55099 11.1631 6.96132 11.0189 7.30298 11.183L8.01514 11.5247C8.91718 11.9577 9.37799 12.9761 9.10741 13.9393L8.37808 16.5348V17.4225" stroke="#818490" stroke-width="2" stroke-linecap="round" stroke-linejoin="round"/>
<path d="M16.5663 31.7516V25.5709C16.4939 24.6242 16.2521 23.6967 15.5283 22.9725L10.479 17.9232C9.67444 17.1187 8.36996 17.1187 7.56543 17.9232C6.7609 18.7277 6.7609 20.0322 7.56543 20.8368L10.3485 23.6198" stroke="#818490" stroke-width="2" stroke-linecap="round" stroke-linejoin="round"/>
<path d="M29.6146 31.7515V30.5353L34.7196 24.462C35.0083 24.1183 35.2453 23.734 35.4225 23.3213C35.668 22.7499 35.7943 22.1346 35.7947 21.5127L35.7954 16.838C35.7954 16.6856 35.7854 16.5335 35.7651 16.3827C35.7174 16.0229 35.6127 15.6726 35.4558 15.3451L33.6132 11.5051C33.4491 11.1631 33.0388 11.0189 32.6971 11.183L31.9849 11.5247C31.0829 11.9577 30.6221 12.9761 30.8927 13.9393L31.622 16.5348V17.4225" stroke="#818490" stroke-width="2" stroke-linecap="round" stroke-linejoin="round"/>
<path d="M23.4338 31.7516V25.5709C23.5063 24.6242 23.748 23.6967 24.4719 22.9725L29.5212 17.9232C30.3257 17.1187 31.6302 17.1187 32.4347 17.9232C33.2392 18.7277 33.2392 20.0322 32.4347 20.8368L29.6517 23.6198" stroke="#818490" stroke-width="2" stroke-linecap="round" stroke-linejoin="round"/>
<path d="M22.0604 33.812V31.7517H31.6749V33.812" stroke="#818490" stroke-width="2" stroke-linecap="round" stroke-linejoin="round"/>
<path d="M8.32544 33.812V31.7517H17.9399V33.812" stroke="#818490" stroke-width="2" stroke-linecap="round" stroke-linejoin="round"/>
</svg>
