<svg width="20" height="20" viewBox="0 0 20 20" fill="none" xmlns="http://www.w3.org/2000/svg">
<g id="Group">
<path id="Vector" d="M10 18.3334C5.39752 18.3334 1.66669 14.6026 1.66669 10.0001C1.66669 5.39758 5.39752 1.66675 10 1.66675C14.6025 1.66675 18.3334 5.39758 18.3334 10.0001C18.3334 14.6026 14.6025 18.3334 10 18.3334ZM8.09169 16.3892C7.26953 14.6453 6.79325 12.7586 6.68919 10.8334H3.38502C3.54718 12.1158 4.07829 13.3236 4.91383 14.3098C5.74937 15.2961 6.85337 16.0185 8.09169 16.3892ZM8.35835 10.8334C8.48419 12.8659 9.06502 14.7751 10 16.4601C10.9603 14.7305 11.5212 12.808 11.6417 10.8334H8.35835ZM16.615 10.8334H13.3109C13.2068 12.7586 12.7305 14.6453 11.9084 16.3892C13.1467 16.0185 14.2507 15.2961 15.0862 14.3098C15.9218 13.3236 16.4529 12.1158 16.615 10.8334ZM3.38502 9.16675H6.68919C6.79325 7.24157 7.26953 5.35482 8.09169 3.61091C6.85337 3.98165 5.74937 4.70404 4.91383 5.69033C4.07829 6.67661 3.54718 7.88433 3.38502 9.16675ZM8.35919 9.16675H11.6409C11.5206 7.19225 10.96 5.26969 10 3.54008C9.03975 5.26962 8.47882 7.19218 8.35835 9.16675H8.35919ZM11.9084 3.61091C12.7305 5.35482 13.2068 7.24157 13.3109 9.16675H16.615C16.4529 7.88433 15.9218 6.67661 15.0862 5.69033C14.2507 4.70404 13.1467 3.98165 11.9084 3.61091Z" fill="#353844"/>
</g>
</svg>
