<svg width="40" height="36" viewBox="0 0 40 36" fill="none" xmlns="http://www.w3.org/2000/svg">
<path d="M7.58203 18C8.4462 18.456 9.18375 18.7092 10.3162 18.7092H12.5625" stroke="#818490" stroke-width="2" stroke-linecap="round" stroke-linejoin="round"/>
<path d="M5.83337 25.2507V27.9167C5.83337 28.3081 6.15035 28.6251 6.54171 28.6251H10.7917C11.1831 28.6251 11.5 28.3081 11.5 27.9167V25.7917" stroke="#818490" stroke-width="2" stroke-linecap="round" stroke-linejoin="round"/>
<path d="M32.418 18C31.5538 18.456 30.8162 18.7092 29.6838 18.7092H27.4375" stroke="#818490" stroke-width="2" stroke-linecap="round" stroke-linejoin="round"/>
<path d="M34.1667 25.2507V27.9167C34.1667 28.3081 33.8497 28.6251 33.4583 28.6251H29.2083C28.817 28.6251 28.5 28.3081 28.5 27.9167V25.7917" stroke="#818490" stroke-width="2" stroke-linecap="round" stroke-linejoin="round"/>
<path d="M20 14.4583H28.5C30.1531 14.4583 30.7587 13.5331 30.8942 13.3454L31.831 11.9402C31.962 11.7428 32.1834 11.625 32.4207 11.625H35.5834C35.9747 11.625 36.2917 11.942 36.2917 12.3333V13.75C36.2917 14.1414 36.135 14.2866 35.7516 14.3999L32.75 15.1667L34.7564 17.8211C34.8343 17.9371 34.875 18.3542 34.875 18.7083V23.6667C34.875 24.8407 33.9241 25.7917 32.75 25.7917H7.25004C6.07598 25.7917 5.12504 24.8407 5.12504 23.6667V18.7083C5.12504 18.3542 5.16666 17.938 5.24369 17.8211L7.25004 15.1667L4.24848 14.3999C3.86509 14.2866 3.70837 14.1405 3.70837 13.75V12.3333C3.70837 11.942 4.02535 11.625 4.41671 11.625H7.57942C7.81671 11.625 8.03718 11.7436 8.1691 11.9402L9.10587 13.3454C9.24223 13.5331 9.84785 14.4583 11.5 14.4583H20Z" stroke="#818490" stroke-width="2" stroke-linecap="round" stroke-linejoin="round"/>
<path d="M31.2359 12.8336C31.2359 12.8336 29.62 9.49469 29.2747 8.96875C28.9666 8.50036 28.6169 8.20021 27.7093 7.9638C26.3077 7.5999 23.0547 7.375 20 7.375C16.9453 7.375 13.6923 7.5999 12.2907 7.9638C11.3831 8.19932 11.0334 8.49948 10.7252 8.96875C10.3799 9.49469 8.76404 12.8336 8.76404 12.8336" stroke="#818490" stroke-width="2" stroke-linecap="round" stroke-linejoin="round"/>
<path d="M26.0208 22.25H20H13.9791" stroke="#818490" stroke-width="2" stroke-linecap="round" stroke-linejoin="round"/>
</svg>
