<?xml version="1.0" encoding="UTF-8"?><svg id="b" xmlns="http://www.w3.org/2000/svg" viewBox="0 0 280.06 469.02"><defs><style>.d{fill:#a95f43;}</style></defs><g id="c"><path d="m85.11,220.72c-.97,13.68,7.16,20.93,16.46,26.81,12.52,7.91,25.5,15.11,38.43,22.35,25.2,14.09,50.5,28.03,75.78,41.98,47.65,26.28,71.29,75.39,62.45,129.87-1.43,8.81-3.21,17.53-6.49,27.31-4.51-30.33-24.36-47.76-47.37-62.27-55.78-35.18-113.24-67.55-170.09-100.95-15.02-8.83-16.85-15.23-7.29-29.7,12.36-18.69,25.38-36.95,38.11-55.39Z"/><path d="m90.2,0c-13.18,20.14-14.52,41.81-15.46,63.13-1.64,37.01-2.26,74.09.82,111.1.79,9.51,2.82,18.69,9.69,27.74-30.53-7.14-54.04-21.65-65.52-50.28-13.49-33.63-13.45-68.05.68-101.54C32.98,20.34,58.17,6.63,90.2,0Z"/><path d="m147.29,0c13.18,20.14,14.52,41.81,15.46,63.13,1.64,37.01,2.26,74.09-.82,111.1-.79,9.51-2.82,18.69-9.69,27.74,30.53-7.14,54.04-21.65,65.52-50.28,13.49-33.63,13.45-68.05-.68-101.54C204.52,20.34,179.33,6.63,147.29,0Z"/><path class="d" d="m.19,429.81c-1.05-19.72,1.98-38.37,13.66-54.59,10.42-14.47,27.51-17.18,39.3-6.85,10.74,9.41,11.72,23.3,2.27,34.03-7.27,8.25-16.88,11.93-27.41,14.07-10.2,2.07-20.84,3.59-27.82,13.34Z"/></g></svg>