<?xml version="1.0" encoding="UTF-8"?><svg id="b" xmlns="http://www.w3.org/2000/svg" viewBox="0 0 744.77 144.4"><defs><style>.d{fill:#fff;}.e{fill:#813619;}</style></defs><g id="c"><path class="d" d="m30.8,130.4v1.6C11.33,130.4,0,114.85,0,95.99s11.23-34.31,30.59-36.01v1.6c-9.33,1.5-14.95,9.83-14.95,34.41s5.82,33,15.15,34.41Zm6.82-69.01v-1.5c9.43.2,16.45,1.71,22.07,5.42l-.8,16.65h-2.81c-1.91-14.55-8.43-19.66-18.46-20.56Zm29.19,41.83v1.5c-5.72,0-6.72,1.4-6.72,23.27-5.52,2.11-13.14,3.81-22.17,4.11v-1.5c8.83-.5,11.23-3.01,11.23-11.13,0-14.34-2.11-14.75-8.23-14.75v-1.5h25.88Z"/><path class="d" d="m94.23,123.36c0,4.85,1.9,6.88,4.85,6.88v1.05h-18.05v-1.05c3.02,0,4.7-1.97,4.7-7.3v-34.2c0-4.35-1.62-5.83-4.7-5.83v-1.05h13.2v41.5Zm32.79,6.88v1.05h-5.9c-10.74-.07-9.27-.07-13.76-15.31-1.61-5.48-5.76-6.81-8.22-7.16v-1.19c6.04-.21,10.39-1.54,10.39-12.36s-4.49-12.15-10.39-12.36v-.98c12.29.21,20.01,2.39,20.01,13.34,0,9.06-5.41,12.08-13.34,12.78,4.56-.14,9.97,1.62,13.34,15.66,1.4,5.34,6.04,6.39,7.86,6.53Z"/><path class="d" d="m149.29,131.3h-12.57v-1.05c2.95,0,3.86-3.09,3.86-7.86v-31.95c0-4.35-.77-7.51-3.86-7.51v-1.05h12.57v49.44Zm4.99-48.31v-1.12h18.89v12.99h-1.05c-.91-10.04-11.66-11.59-17.84-11.87Zm0,24.02v-1.33c3.3-.21,8.43-1.26,9.13-7.09h1.05v15.45h-1.05c-.7-5.83-5.83-6.81-9.13-7.02Zm19.8,24.3h-19.8v-1.12c6.25-.35,16.99-2.11,18.75-13.83h1.05v14.96Z"/><path class="d" d="m200.2,131.3h-12.57v-1.05c2.95,0,3.86-3.09,3.86-7.86v-31.95c0-4.35-.77-7.51-3.86-7.51v-1.05h12.57v49.44Zm4.99-48.31v-1.12h18.89v12.99h-1.05c-.91-10.04-11.66-11.59-17.84-11.87Zm0,24.02v-1.33c3.3-.21,8.43-1.26,9.13-7.09h1.05v15.45h-1.05c-.7-5.83-5.83-6.81-9.13-7.02Zm19.8,24.3h-19.8v-1.12c6.25-.35,16.99-2.11,18.75-13.83h1.05v14.96Z"/><path class="d" d="m252.23,81.86l30.34,38.34v11.09h-2.95l-34.13-43.26c-4.49-5.62-6.53-4.99-8.36-5.13v-1.05h15.1Zm6.53,48.38v1.05h-20.86v-1.05c10.39,0,10.39-13.48,10.39-16.64h1.05c0,3.09-.07,16.64,9.41,16.64Zm13.34-48.38h20.71v1.05c-10.39-.07-10.25,13.34-10.25,16.64h-1.05c0-3.3.07-16.71-9.41-16.64v-1.05Z"/><path class="d" d="m461.63,131.16v1.73c-21.03-1.73-33.28-18.54-33.28-38.92s12.14-37.07,33.06-38.92v1.73c-10.08,1.63-16.15,10.62-16.15,37.18s6.29,35.66,16.37,37.18Zm7.37-74.58v-1.63c10.19.22,17.78,1.84,23.85,5.85l-.87,17.99h-3.04c-2.06-15.72-9.11-21.25-19.95-22.22Zm31.54,45.2v1.63c-6.18,0-7.26,1.52-7.26,25.15-5.96,2.28-14.2,4.12-23.96,4.44v-1.63c9.54-.54,12.14-3.25,12.14-12.03,0-15.5-2.28-15.93-8.89-15.93v-1.63h27.97Z"/><path class="d" d="m530.18,123.56c0,5.24,2.05,7.44,5.24,7.44v1.14h-19.5v-1.14c3.26,0,5.08-2.12,5.08-7.89v-36.95c0-4.7-1.74-6.3-5.08-6.3v-1.14h14.27v44.85Zm35.44,7.44v1.14h-6.37c-11.61-.08-10.02-.08-14.87-16.54-1.75-5.92-6.22-7.36-8.88-7.74v-1.29c6.53-.23,11.23-1.67,11.23-13.35s-4.86-13.13-11.23-13.36v-1.06c13.28.23,21.63,2.58,21.63,14.42,0,9.79-5.84,13.05-14.42,13.81,4.93-.15,10.78,1.75,14.42,16.92,1.52,5.77,6.53,6.91,8.5,7.06Z"/><path class="d" d="m598.32,131.53v1.14c-14.87-1.21-22.76-12.6-22.76-26.86s7.89-26.33,22.76-27.62v1.21c-7.51,1.14-11.91,7.74-11.91,26.41s4.4,24.66,11.91,25.72Zm5.31,1.14v-1.14c7.44-1.06,11.76-6.98,11.76-25.72s-4.33-25.27-11.76-26.41v-1.21c14.95,1.29,22.76,13.43,22.76,27.62s-7.82,25.72-22.76,26.86Z"/><path class="d" d="m679.97,114.07h1.14c0,14.95-10.55,18.74-18.59,18.74-10.09,0-18.21-6.75-18.21-19.12v-27.17c0-4.93-2.35-6.68-5.69-6.68v-1.14h21.47v1.14c-3.26,0-6.53.99-6.53,6.68v27.77c0,9.18,5.54,14.57,13.28,14.57,6.75,0,13.13-5.08,13.13-14.8Zm-9.64-35.36h21.25v1.14c-10.7,0-10.47,9.11-10.47,12.67h-1.14c0-3.57,0-12.67-9.64-12.67v-1.14Z"/><path class="d" d="m717.3,121.74c0,8.88,4.17,9.26,8.2,9.26v1.14h-22.46v-1.14c3.41,0,5.01-2.96,5.01-9.18v-34.07c0-4.93-1.59-7.89-5.16-7.89v-1.14h14.42v43.02Zm5.31-41.89v-1.06c13.2.3,22.16,3.19,22.16,15.25s-8.95,14.87-22.16,15.25v-1.14c6.75-.3,11.84-2.12,11.84-14.11s-5.16-13.89-11.84-14.19Z"/><path class="d" d="m339.03,67.95c-.3,4.21,2.2,6.44,5.07,8.25,3.86,2.43,7.85,4.65,11.83,6.88,7.76,4.34,15.55,8.63,23.33,12.92,14.67,8.09,21.95,23.21,19.23,39.98-.44,2.71-.99,5.4-2,8.41-1.39-9.34-7.5-14.7-14.58-19.17-17.17-10.83-34.87-20.8-52.37-31.08-4.62-2.72-5.19-4.69-2.25-9.14,3.8-5.76,7.81-11.38,11.73-17.05Z"/><path class="d" d="m340.59,0c-4.06,6.2-4.47,12.87-4.76,19.44-.5,11.39-.7,22.81.25,34.2.24,2.93.87,5.76,2.98,8.54-9.4-2.2-16.64-6.67-20.17-15.48-4.15-10.35-4.14-20.95.21-31.26C322.97,6.26,330.73,2.04,340.59,0Z"/><path class="d" d="m358.17,0c4.06,6.2,4.47,12.87,4.76,19.44.5,11.39.7,22.81-.25,34.2-.24,2.93-.87,5.76-2.98,8.54,9.4-2.2,16.64-6.67,20.17-15.48,4.15-10.35,4.14-20.95-.21-31.26-3.87-9.17-11.63-13.4-21.49-15.44Z"/><path class="e" d="m312.88,132.33c-.32-6.07.61-11.81,4.21-16.81,3.21-4.45,8.47-5.29,12.1-2.11,3.31,2.9,3.61,7.17.7,10.48-2.24,2.54-5.2,3.67-8.44,4.33-3.14.64-6.42,1.11-8.56,4.11Z"/></g></svg>