<?xml version="1.0" encoding="utf-8"?>
<!-- Generator: Adobe Illustrator 25.2.0, SVG Export Plug-In . SVG Version: 6.00 Build 0)  -->
<svg version="1.1" id="Layer_1" xmlns="http://www.w3.org/2000/svg" xmlns:xlink="http://www.w3.org/1999/xlink" x="0px" y="0px"
	 viewBox="0 0 64 64" style="enable-background:new 0 0 64 64;" xml:space="preserve">
<style type="text/css">
	.st0{fill:#FFFFFF;}
</style>
<g>
	<path class="st0" d="M32,10.1c-6,0-6.7,0-9,0.1c-2.3,0.1-3.9,0.5-5.3,1c-1.4,0.6-2.7,1.3-3.9,2.5c-1.2,1.2-2,2.4-2.5,3.9
		c-0.5,1.4-0.9,3-1,5.3c-0.1,2.3-0.1,3.1-0.1,9s0,6.7,0.1,9c0.1,2.3,0.5,3.9,1,5.3c0.6,1.4,1.3,2.7,2.5,3.9c1.2,1.2,2.4,2,3.9,2.5
		c1.4,0.5,3,0.9,5.3,1c2.3,0.1,3.1,0.1,9,0.1c6,0,6.7,0,9-0.1c2.3-0.1,3.9-0.5,5.3-1c1.4-0.6,2.7-1.3,3.9-2.5c1.2-1.2,2-2.4,2.5-3.9
		c0.5-1.4,0.9-3,1-5.3c0.1-2.3,0.1-3.1,0.1-9s0-6.7-0.1-9c-0.1-2.3-0.5-3.9-1-5.3c-0.6-1.4-1.3-2.7-2.5-3.9c-1.2-1.2-2.4-2-3.9-2.5
		c-1.4-0.5-3-0.9-5.3-1C38.7,10.1,38,10.1,32,10.1z M32,14c5.9,0,6.5,0,8.9,0.1c2.1,0.1,3.3,0.5,4.1,0.8c1,0.4,1.8,0.9,2.5,1.6
		c0.8,0.8,1.2,1.5,1.6,2.5c0.3,0.8,0.7,1.9,0.8,4.1c0.1,2.3,0.1,3,0.1,8.9c0,5.9,0,6.5-0.1,8.9c-0.1,2.1-0.5,3.3-0.8,4.1
		c-0.4,1-0.9,1.8-1.6,2.5c-0.8,0.8-1.5,1.2-2.5,1.6c-0.8,0.3-1.9,0.7-4.1,0.8c-2.3,0.1-3,0.1-8.9,0.1c-5.9,0-6.5,0-8.9-0.1
		c-2.1-0.1-3.3-0.5-4.1-0.8c-1-0.4-1.8-0.9-2.5-1.6c-0.8-0.8-1.2-1.5-1.6-2.5c-0.3-0.8-0.7-1.9-0.8-4.1c-0.1-2.3-0.1-3-0.1-8.9
		c0-5.9,0-6.5,0.1-8.9c0.1-2.1,0.5-3.3,0.8-4.1c0.4-1,0.9-1.8,1.6-2.5c0.8-0.8,1.5-1.2,2.5-1.6c0.8-0.3,1.9-0.7,4.1-0.8
		C25.5,14,26.1,14,32,14z"/>
	<path class="st0" d="M32,39.3c-4,0-7.3-3.3-7.3-7.3c0-4,3.3-7.3,7.3-7.3c4,0,7.3,3.3,7.3,7.3C39.3,36,36,39.3,32,39.3z M32,20.7
		c-6.2,0-11.3,5-11.3,11.3c0,6.2,5,11.3,11.3,11.3c6.2,0,11.3-5,11.3-11.3C43.3,25.8,38.2,20.7,32,20.7z"/>
	<path class="st0" d="M43.7,22.9c1.5,0,2.6-1.2,2.6-2.6s-1.2-2.6-2.6-2.6c-1.5,0-2.6,1.2-2.6,2.6S42.3,22.9,43.7,22.9z"/>
</g>
</svg>
