<?xml version="1.0" encoding="utf-8"?>
<!-- Generator: Adobe Illustrator 25.2.0, SVG Export Plug-In . SVG Version: 6.00 Build 0)  -->
<svg version="1.1" id="Layer_1" xmlns="http://www.w3.org/2000/svg" xmlns:xlink="http://www.w3.org/1999/xlink" x="0px" y="0px"
	 viewBox="0 0 64 64" style="enable-background:new 0 0 64 64;" xml:space="preserve">
<style type="text/css">
	.st0{fill:#FFFFFF;}
</style>
<g>
	<path class="st0" d="M51.5,54.4V38.1c0-8-1.5-14.1-9.8-14.1c-4,0-6.7,2.4-7.8,4.8h-0.1v-4.1H26v29.6h8.2V39.6
		c0-3.9,0.6-7.6,4.9-7.6c4.2,0,4.2,4.4,4.2,7.8v14.4L51.5,54.4L51.5,54.4z"/>
	<rect x="12.6" y="24.7" class="st0" width="8.2" height="29.6"/>
	<path class="st0" d="M16.7,9.9c-2.6,0-4.7,2.4-4.7,5.3s2.1,5.4,4.7,5.4c2.6,0,4.7-2.4,4.7-5.4S19.4,9.9,16.7,9.9z"/>
</g>
</svg>
