<?xml version="1.0" encoding="utf-8"?>
<!-- Generator: Adobe Illustrator 25.2.0, SVG Export Plug-In . SVG Version: 6.00 Build 0)  -->
<svg version="1.1" id="Layer_1" xmlns="http://www.w3.org/2000/svg" xmlns:xlink="http://www.w3.org/1999/xlink" x="0px" y="0px"
	 viewBox="0 0 200 200" style="enable-background:new 0 0 200 200;" xml:space="preserve">
<style type="text/css">
	.st0{fill:#FFFFFF;}
</style>
<g>
	<path class="st0" d="M100,0C61.2,0,29.6,32.1,29.6,71.5v57c0,39.4,31.6,71.5,70.4,71.5s70.4-32,70.4-71.3V71.5
		C170.4,32.1,138.8,0,100,0z M157.2,128.7c0,32-25.6,58.1-57.2,58.1s-57.2-26.1-57.2-58.3v-57c0-32.1,25.6-58.3,57.2-58.3
		s57.2,26.1,57.2,58.3V128.7z"/>
	<path class="st0" d="M100,54.7c-3.7,0-6.6,3-6.6,6.6v23.2c0,3.7,3,6.6,6.6,6.6s6.6-3,6.6-6.6V61.4C106.6,57.7,103.7,54.7,100,54.7z
		"/>
</g>
</svg>
