<?xml version="1.0" standalone="no"?>
<!DOCTYPE svg PUBLIC "-//W3C//DTD SVG 20010904//EN"
 "http://www.w3.org/TR/2001/REC-SVG-20010904/DTD/svg10.dtd">
<svg version="1.0" xmlns="http://www.w3.org/2000/svg"
 width="1070.000000pt" height="1070.000000pt" viewBox="0 0 1070.000000 1070.000000"
 preserveAspectRatio="xMidYMid meet">
<metadata>
Created by potrace 1.14, written by Peter Selinger 2001-2017
</metadata>
<g transform="translate(0.000000,1070.000000) scale(0.100000,-0.100000)"
fill="#000000" stroke="none">
<path d="M4318 10684 c-4 -3 -21 -8 -40 -10 -18 -3 -54 -12 -80 -20 -25 -8
-58 -17 -73 -20 -79 -14 -330 -112 -453 -176 -85 -45 -203 -121 -272 -177 -61
-48 -189 -177 -225 -226 -17 -22 -32 -42 -35 -45 -34 -34 -138 -222 -195 -352
-16 -38 -83 -222 -86 -236 -1 -4 -3 -11 -5 -17 -5 -14 -45 -176 -50 -198 -2
-10 -5 -26 -8 -35 -3 -9 -8 -37 -11 -62 -3 -25 -8 -52 -11 -61 -2 -9 -6 -36
-9 -60 -2 -24 -7 -69 -11 -99 -9 -75 -9 -393 0 -460 13 -97 16 -124 20 -160 6
-53 16 -99 41 -205 9 -38 18 -74 19 -80 1 -5 5 -16 9 -22 5 -7 6 -13 3 -13 -5
0 60 -196 94 -280 49 -124 149 -308 172 -318 5 -2 8 -8 8 -14 0 -39 308 -348
347 -348 6 0 13 -3 15 -7 5 -12 78 -65 78 -57 0 4 10 -2 23 -13 20 -18 247
-133 262 -133 4 0 21 -7 38 -15 45 -20 257 -88 282 -90 6 0 16 -4 23 -8 6 -5
12 -6 12 -2 0 3 8 1 19 -4 29 -16 32 -1 7 33 -56 74 -106 190 -132 301 -22 97
-21 90 -29 185 -4 47 -9 99 -10 115 -3 28 -12 167 -21 310 -4 71 -16 434 -15
453 1 16 1 10 0 267 -2 190 7 665 16 865 1 36 6 137 9 225 7 166 12 249 22
349 3 32 7 75 9 95 11 119 53 314 96 446 18 55 32 103 31 108 -1 4 3 7 8 7 6
0 10 5 10 11 0 13 81 182 91 189 3 3 14 20 23 38 13 25 14 32 3 32 -8 0 -16
-3 -19 -6z"/>
<path d="M5500 10685 c0 -4 9 -20 20 -35 35 -49 150 -293 156 -330 0 -3 6 -23
13 -45 19 -62 39 -137 45 -170 2 -16 10 -59 16 -94 6 -36 13 -67 14 -70 2 -3
7 -44 11 -91 3 -47 8 -98 10 -115 5 -34 14 -197 20 -330 2 -49 7 -166 11 -260
5 -93 8 -438 8 -765 1 -525 -3 -727 -19 -930 -2 -30 -7 -98 -10 -150 -4 -52
-9 -108 -11 -125 -2 -16 -6 -52 -9 -79 -6 -55 -52 -225 -65 -241 -5 -5 -8 -14
-8 -18 -1 -13 -81 -155 -92 -162 -50 -31 142 9 260 55 14 5 67 25 119 45 217
84 416 211 571 365 114 114 127 129 195 234 73 112 145 258 175 351 7 22 18
54 25 70 14 34 34 96 40 122 2 10 12 45 21 78 9 33 18 67 19 75 2 8 4 15 5 15
1 0 3 9 5 20 1 11 5 34 9 50 6 32 25 141 32 190 22 157 22 477 0 625 -2 14 -7
48 -10 75 -4 28 -11 66 -16 85 -5 19 -11 49 -13 65 -3 17 -10 50 -17 75 -7 25
-14 52 -15 61 -6 28 -88 274 -95 284 -4 6 -13 28 -20 50 -30 92 -142 285 -229
395 -36 45 -157 168 -202 205 -68 56 -108 85 -118 85 -6 0 -11 4 -11 8 0 5
-12 15 -27 22 -16 8 -35 20 -43 26 -20 16 -202 107 -265 132 -46 18 -82 33
-95 37 -3 1 -12 4 -20 8 -35 14 -220 68 -285 82 -38 9 -78 18 -87 21 -10 3
-18 2 -18 -1z"/>
<path d="M4230 6245 c-7 -14 -17 -25 -22 -25 -4 0 -8 -4 -8 -9 0 -7 -90 -141
-185 -276 -232 -327 -586 -851 -579 -858 2 -2 -2 -10 -11 -17 -8 -7 -15 -16
-15 -21 0 -4 -5 -20 -12 -36 -14 -34 -15 -38 -23 -86 -7 -42 11 -137 26 -137
5 0 9 -6 9 -14 0 -40 127 -135 355 -266 72 -41 132 -78 133 -82 2 -5 7 -8 12
-8 5 0 54 -27 110 -60 56 -33 106 -60 111 -60 5 0 9 -4 9 -10 0 -5 4 -10 10
-10 5 0 50 -25 101 -55 50 -30 93 -55 94 -55 2 0 108 -61 236 -136 129 -75
254 -148 279 -162 25 -13 50 -28 55 -32 9 -7 57 -34 130 -74 11 -6 22 -14 25
-17 3 -3 48 -29 100 -59 52 -30 162 -93 243 -142 82 -48 153 -88 158 -88 5 0
9 -4 9 -10 0 -5 6 -10 14 -10 7 0 19 -7 26 -15 7 -8 16 -12 21 -9 5 3 9 0 9
-5 0 -6 7 -11 15 -11 8 0 15 -4 15 -8 0 -4 12 -13 28 -19 28 -12 103 -54 112
-63 3 -3 73 -46 155 -95 206 -123 206 -123 243 -142 17 -9 32 -20 32 -25 0 -4
5 -8 10 -8 6 0 47 -23 91 -50 44 -28 85 -50 90 -50 5 0 9 -4 9 -10 0 -5 7 -10
15 -10 8 0 15 -4 15 -10 0 -5 5 -10 11 -10 6 0 81 -44 167 -97 86 -54 161
-100 167 -103 5 -3 30 -18 55 -34 25 -16 70 -45 100 -64 244 -156 335 -221
468 -337 63 -55 167 -161 211 -215 20 -25 41 -51 48 -58 41 -44 183 -303 198
-362 0 -3 10 -34 22 -70 12 -36 27 -90 34 -120 14 -59 15 -64 18 -95 2 -18 3
-17 13 5 12 29 66 222 73 263 3 15 12 59 20 97 17 83 22 109 31 175 3 28 8 59
10 70 18 95 26 525 11 630 -3 22 -9 63 -13 90 -12 86 -12 90 -14 90 -1 0 -3 9
-4 20 -2 11 -7 36 -11 55 -5 19 -9 42 -11 50 -10 66 -92 312 -136 410 -46 102
-108 222 -129 252 -11 14 -19 31 -19 37 0 6 -4 11 -10 11 -5 0 -10 4 -10 10 0
9 -35 65 -66 105 -8 11 -35 47 -60 80 -129 171 -316 352 -499 484 -39 27 -75
54 -80 59 -15 12 -216 131 -300 177 -134 73 -180 98 -220 121 -104 59 -172 96
-197 107 -16 6 -28 15 -28 19 0 4 -9 8 -19 8 -11 0 -21 4 -23 8 -1 5 -43 30
-93 57 -49 26 -94 51 -100 55 -5 4 -46 27 -90 50 -44 24 -96 52 -115 63 -19
11 -60 33 -90 50 -30 17 -104 58 -165 92 -60 34 -137 77 -170 95 -224 124
-671 379 -723 412 -15 10 -34 21 -42 25 -8 4 -47 28 -87 55 -40 26 -77 48 -83
48 -5 0 -10 4 -10 8 0 4 -13 15 -29 25 -38 22 -125 110 -160 161 -41 60 -72
151 -78 231 -3 39 -6 71 -8 72 -1 2 -8 -8 -15 -22z"/>
<path d="M3206 3442 c-2 -1 -14 -5 -26 -7 -134 -26 -282 -138 -381 -290 -68
-103 -137 -241 -156 -310 -1 -5 -14 -47 -27 -92 -14 -45 -32 -128 -41 -185
-17 -104 -33 -448 -21 -448 4 0 26 19 49 43 39 40 128 107 142 107 3 0 27 9
52 21 25 11 53 22 62 25 9 2 43 10 76 19 33 8 70 17 82 19 254 49 364 87 488
169 80 52 194 172 227 238 41 82 50 119 52 219 2 83 -12 135 -63 223 -33 58
-136 167 -158 167 -7 0 -13 4 -13 9 0 12 -113 58 -175 71 -42 10 -161 11 -169
2z"/>
<path d="M3650 1944 c0 -8 6 -14 13 -15 135 -8 234 -115 261 -284 2 -11 4 -23
5 -27 1 -7 28 -5 37 4 3 4 7 37 9 75 6 139 7 158 6 169 -1 13 -103 60 -146 67
-16 3 -43 8 -60 11 -75 14 -125 14 -125 0z"/>
<path d="M3468 1944 c-4 -3 -12 -7 -20 -8 -117 -20 -250 -125 -312 -247 -29
-56 -51 -121 -46 -131 1 -2 -4 -16 -10 -32 -11 -30 -15 -189 -5 -241 14 -76
69 -208 101 -241 6 -7 22 -25 35 -40 72 -83 211 -153 307 -154 36 0 25 18 -18
31 -88 27 -153 129 -175 279 -4 25 -9 54 -11 65 -6 27 -5 311 0 355 14 117 56
237 97 281 23 25 93 67 114 67 5 0 11 5 13 11 4 11 -60 16 -70 5z"/>
<path d="M4314 1608 c-3 -4 4 -8 14 -8 23 0 44 -23 50 -53 3 -12 5 -156 6
-319 0 -286 0 -298 -20 -325 -12 -15 -26 -28 -33 -28 -6 0 -12 -4 -13 -9 -2
-6 51 -10 125 -10 127 -1 170 5 128 19 -12 3 -29 18 -39 33 -15 23 -17 62 -17
366 l-1 341 -97 1 c-54 1 -100 -3 -103 -8z"/>
<path d="M4594 1609 c-3 -5 3 -9 13 -10 64 -2 98 -23 121 -72 34 -71 25 -206
-16 -263 -15 -20 -28 -26 -84 -40 -5 -1 -15 -2 -23 -3 -26 -2 -16 -19 15 -26
52 -11 91 -70 115 -170 1 -5 4 -17 7 -25 3 -8 11 -33 18 -55 23 -73 49 -87
168 -89 73 -1 110 8 77 18 -62 21 -100 57 -109 106 -17 85 -83 203 -121 216
-11 4 -29 10 -40 14 -15 5 -9 9 30 19 92 23 137 95 129 206 -6 95 -64 152
-174 170 -69 11 -120 13 -126 4z"/>
<path d="M5170 1613 c0 -2 12 -15 28 -28 l27 -23 0 -311 c1 -265 -2 -315 -15
-343 -9 -18 -22 -32 -28 -30 -7 1 -12 -4 -12 -10 0 -10 26 -13 95 -13 l95 0 0
55 c0 78 0 206 1 270 2 137 0 221 -6 230 -3 5 -3 10 2 10 8 0 12 189 3 191
-16 4 -190 6 -190 2z"/>
<path d="M5440 1608 c0 -4 3 -8 8 -9 4 0 22 -2 41 -4 105 -11 200 -74 216
-144 13 -61 24 -29 22 67 l-2 97 -143 1 c-78 0 -142 -3 -142 -8z"/>
<path d="M5949 1609 c-8 -5 -4 -8 12 -11 42 -6 48 -46 47 -370 -1 -272 -3
-300 -20 -328 -10 -17 -23 -28 -28 -25 -6 3 -10 2 -10 -3 0 -15 18 -18 109
-17 l84 1 -1 349 c0 193 -1 364 -1 380 l-1 31 -90 0 c-49 0 -95 -3 -101 -7z"/>
<path d="M6220 1606 c0 -6 18 -12 41 -13 105 -4 211 -70 225 -141 13 -62 24
-31 24 66 l0 98 -145 0 c-95 0 -145 -3 -145 -10z"/>
<path d="M6710 1610 c0 -4 14 -10 30 -14 39 -7 68 -36 170 -166 46 -58 87
-106 91 -108 5 -2 9 -10 9 -17 0 -7 3 -15 8 -17 4 -1 35 -39 69 -83 35 -44 69
-87 76 -95 7 -8 28 -35 47 -60 19 -25 39 -50 45 -56 5 -7 19 -24 29 -38 11
-15 30 -39 43 -54 13 -15 23 -30 23 -33 0 -10 36 -17 47 -10 5 3 10 42 11 87
l1 81 -75 94 c-41 52 -83 105 -94 119 -11 14 -82 104 -159 201 l-140 175 -115
1 c-64 0 -116 -3 -116 -7z"/>
<path d="M7246 1609 c2 -4 17 -10 32 -14 49 -11 82 -51 98 -115 4 -19 9 -38
10 -42 1 -5 2 -29 3 -55 2 -62 16 -38 24 38 10 110 63 174 146 178 8 1 11 4 7
8 -10 10 -326 12 -320 2z"/>
<path d="M5571 1353 c9 -36 -48 -91 -98 -96 -33 -4 -40 -19 -12 -29 10 -4 19
-5 19 -3 0 3 15 -3 33 -13 17 -10 40 -35 51 -56 10 -21 21 -33 25 -28 12 20 5
226 -7 230 -7 2 -12 0 -11 -5z"/>
<path d="M6342 1319 c-23 -40 -42 -52 -94 -63 -34 -8 -37 -26 -5 -27 12 -1 25
-1 30 0 4 0 7 -2 7 -7 0 -4 14 -13 30 -21 21 -9 33 -22 37 -42 6 -31 22 -49
24 -27 4 43 3 220 -1 223 -3 2 -16 -14 -28 -36z"/>
<path d="M3695 1280 c-3 -5 2 -11 12 -11 10 -1 23 -2 28 -4 6 -1 15 -3 22 -3
30 -4 52 -46 59 -111 21 -191 -9 -263 -115 -277 -31 -4 -51 -12 -51 -19 0 -7
8 -12 18 -10 9 2 44 6 77 9 33 3 71 7 85 10 14 3 41 9 60 12 19 4 40 9 45 13
6 3 12 6 15 6 3 0 12 5 21 10 14 8 18 34 21 145 6 177 25 221 91 211 4 0 7 5
7 13 0 12 -33 15 -194 16 -124 0 -197 -3 -201 -10z"/>
<path d="M6880 1108 c-2 -97 -43 -196 -91 -217 -16 -7 -36 -14 -44 -15 -20 -3
-31 -16 -14 -17 8 0 76 -2 152 -2 134 -2 185 5 142 18 -47 14 -71 33 -92 70
-20 36 -39 121 -36 168 0 9 -4 17 -8 17 -5 0 -9 -10 -9 -22z"/>
<path d="M5721 1078 c5 -27 -35 -100 -72 -132 -40 -34 -118 -64 -177 -68 -33
-2 -56 -17 -30 -19 69 -4 282 -3 289 2 16 10 14 229 -1 229 -6 0 -10 -6 -9
-12z"/>
<path d="M6506 1079 c-2 -8 -10 -31 -16 -51 -6 -21 -15 -38 -19 -38 -4 0 -14
-11 -21 -25 -7 -14 -19 -25 -27 -25 -7 0 -13 -3 -13 -8 0 -8 -71 -41 -100 -45
-11 -2 -22 -6 -26 -9 -3 -4 -12 -4 -20 -1 -19 7 -52 -6 -37 -15 8 -5 230 -7
288 -3 6 1 10 44 10 111 -1 101 -8 143 -19 109z"/>
<path d="M3988 749 c-168 -60 -260 -247 -223 -454 17 -99 99 -215 176 -251 52
-24 75 -33 106 -38 41 -7 53 10 14 19 -35 7 -76 46 -96 89 -30 66 -38 125 -38
271 0 125 3 162 21 221 24 79 66 131 112 141 33 6 31 23 -2 20 -12 -1 -43 -9
-70 -18z"/>
<path d="M4160 762 c0 -5 19 -12 42 -16 70 -11 148 -111 148 -189 0 -15 29
-33 31 -19 11 60 13 157 3 173 -5 8 -27 23 -50 31 -49 20 -174 34 -174 20z"/>
<path d="M4630 530 c0 -3 9 -11 20 -18 19 -12 20 -23 20 -235 0 -122 -4 -227
-8 -233 -4 -6 -16 -16 -27 -22 -19 -11 -18 -11 8 -12 93 -4 167 -5 167 -2 0 2
-10 12 -22 22 -23 18 -23 22 -24 254 0 130 -4 239 -8 243 -9 9 -126 12 -126 3z"/>
<path d="M4821 530 c9 -6 27 -11 40 -13 39 -6 63 -49 63 -115 0 -82 -17 -118
-63 -133 -20 -6 -40 -16 -46 -22 -7 -7 -6 -8 1 -4 6 3 24 -3 42 -13 25 -15 35
-32 51 -88 12 -38 21 -74 21 -79 0 -5 11 -20 24 -32 20 -19 32 -22 92 -19 66
3 68 4 38 16 -26 11 -72 67 -66 82 4 10 -22 76 -40 102 -11 16 -31 31 -46 35
-26 6 -26 7 16 24 55 24 81 66 78 127 -5 94 -43 124 -176 137 -32 3 -40 1 -29
-5z"/>
<path d="M5354 521 c-83 -38 -144 -144 -144 -251 0 -110 61 -214 143 -244 80
-28 95 -29 50 -1 -48 30 -71 73 -79 147 -6 52 -8 156 -4 171 2 4 3 15 4 25 8
75 34 125 81 153 24 15 26 19 10 19 -11 0 -38 -9 -61 -19z"/>
<path d="M5495 530 c3 -5 12 -10 19 -10 15 0 48 -35 65 -67 6 -13 14 -44 16
-70 2 -27 5 -50 5 -53 8 -27 -1 -168 -13 -211 -16 -55 -53 -99 -82 -99 -8 0
-15 -5 -15 -10 0 -11 36 -5 85 16 154 64 184 336 50 458 -34 32 -146 71 -130
46z"/>
<path d="M5833 528 c-2 -5 4 -8 14 -8 36 0 42 -32 43 -211 2 -149 4 -178 21
-209 29 -54 41 -65 89 -84 120 -45 252 33 249 146 l-1 33 -9 -38 c-18 -75 -56
-109 -129 -112 -44 -3 -82 16 -106 52 -17 25 -19 48 -19 215 0 175 1 188 20
202 11 8 23 12 27 10 5 -3 8 -1 8 4 0 11 -200 10 -207 0z"/>
<path d="M6150 528 c0 -5 8 -8 18 -8 32 0 61 -34 68 -79 8 -48 11 -48 19 -1 6
39 45 80 76 80 10 0 19 3 19 8 0 4 -45 7 -100 7 -55 0 -100 -3 -100 -7z"/>
<path d="M6470 528 c0 -3 9 -9 19 -13 10 -3 21 -15 24 -26 3 -12 5 -116 4
-231 -2 -205 -3 -210 -25 -228 -12 -10 -19 -20 -15 -22 5 -2 55 -1 112 2 99 5
102 6 69 18 -22 8 -38 21 -42 35 -3 12 -6 123 -6 247 l0 226 -70 0 c-38 -1
-70 -4 -70 -8z"/>
<path d="M6665 529 c3 -4 21 -10 40 -13 46 -9 67 -42 71 -114 6 -95 -25 -152
-83 -152 -12 0 -24 -4 -27 -8 -9 -15 87 -3 129 15 48 21 62 34 75 68 28 74 2
152 -61 182 -42 20 -153 37 -144 22z"/>
<path d="M4193 297 c-3 -5 0 -7 8 -5 21 8 66 -18 72 -41 2 -11 4 -58 3 -105
-1 -79 -3 -87 -26 -103 -26 -19 -44 -25 -72 -24 -10 0 -18 -5 -18 -11 0 -7 21
-8 63 -3 88 10 88 10 133 25 l41 12 0 57 c0 82 11 161 24 177 6 8 20 14 30 14
11 0 19 5 19 10 0 14 -268 11 -277 -3z"/>
</g>
</svg>
