<?xml version="1.0" encoding="UTF-8"?>
<svg id="Layer_2" data-name="Layer 2" xmlns="http://www.w3.org/2000/svg" viewBox="0 0 798.73 83.8">
  <defs>
    <style>
      .cls-1 {
        fill: #fff;
      }

      .cls-2 {
        fill: #813619;
      }
    </style>
  </defs>
  <g id="Layer_1-2" data-name="Layer 1">
    <g>
      <polygon class="cls-1" points="30.68 0 0 0 0 4.07 30.68 4.07 30.68 83.8 35.49 83.8 35.49 4.07 66.3 4.07 66.3 0 35.49 0 30.68 0"/>
      <polygon class="cls-1" points="138.88 38.32 86.63 38.32 86.63 0 81.82 0 81.82 83.8 86.63 83.8 86.63 42.39 138.88 42.39 138.88 83.8 143.68 83.8 143.68 0 138.88 0 138.88 38.32"/>
      <rect class="cls-1" x="166.36" y="18.24" width="4.81" height="65.56"/>
      <polygon class="cls-1" points="198.64 6.51 202.83 13.43 250.52 83.8 250.89 83.8 254.96 83.8 255.7 83.8 255.7 0 250.89 0 250.89 77.23 246.95 70.86 199.01 0 198.64 0 194.7 0 193.84 0 193.84 83.8 198.64 83.8 198.64 6.51"/>
      <polygon class="cls-1" points="283.18 41.97 328.65 83.8 335.31 83.8 288.9 41.03 334.81 0 328.65 0 283.18 40.85 283.18 0 278.37 0 278.37 83.8 283.18 83.8 283.18 41.97"/>
      <g>
        <path class="cls-1" d="m422.08,46.21c-3.4-3.24-8.09-5.35-14.07-6.36,4.64-1.12,8.26-3.05,10.87-5.78,3.41-3.57,5.11-7.91,5.11-13,0-6.49-2.42-11.62-7.27-15.4-4.85-3.78-11.26-5.67-19.22-5.67h-25.88v83.8h30.19c8.05,0,14.5-1.99,19.35-5.98,4.85-3.98,7.27-9.55,7.27-16.7,0-5.91-2.12-10.89-6.35-14.91Zm-24.71-42.27c6.65,0,11.93,1.54,15.83,4.62,3.9,3.08,5.85,7.29,5.85,12.63s-1.95,9.45-5.85,12.57c-3.9,3.12-9.18,4.68-15.83,4.68h-20.95V3.94h20.95Zm20.21,70.8c-3.94,3.41-9.24,5.11-15.9,5.11h-25.26v-37.46h22.67c7.47,0,13.41,1.66,17.81,4.99,4.39,3.33,6.59,7.87,6.59,13.62s-1.97,10.33-5.91,13.74Z"/>
        <polygon class="cls-1" points="449.5 0 446.42 0 446.42 83.8 449.5 83.8 451.23 83.8 500.77 83.8 500.77 79.85 451.23 79.85 451.23 42.27 496.33 42.27 496.33 38.32 451.23 38.32 451.23 3.94 500.77 3.94 500.77 0 451.23 0 449.5 0"/>
        <polygon class="cls-1" points="542.29 0 511.61 0 511.61 4.07 542.29 4.07 542.29 83.8 547.1 83.8 547.1 4.07 577.91 4.07 577.91 0 547.1 0 542.29 0"/>
        <polygon class="cls-1" points="616.97 0 586.29 0 586.29 4.07 616.97 4.07 616.97 83.8 621.78 83.8 621.78 4.07 652.58 4.07 652.58 0 621.78 0 616.97 0"/>
        <polygon class="cls-1" points="671.19 0 668.11 0 668.11 83.8 671.19 83.8 672.92 83.8 722.45 83.8 722.45 79.85 672.92 79.85 672.92 42.27 718.02 42.27 718.02 38.32 672.92 38.32 672.92 3.94 722.45 3.94 722.45 0 672.92 0 671.19 0"/>
        <path class="cls-1" d="m792.33,59.27c-1.23-4.85-2.82-8.5-4.74-10.97-1.93-2.46-4.5-4.15-7.7-5.05-.52-.15-1.07-.28-1.63-.4,3.27-.96,6.13-2.43,8.59-4.41,4.81-3.86,7.21-9.24,7.21-16.14s-2.42-12.34-7.27-16.33c-4.85-3.98-11.3-5.98-19.35-5.98h-26.99v83.8h4.81v-38.69h21.32c4.27,0,7.76.37,10.47,1.11,2.71.74,4.91,2.22,6.59,4.44,1.68,2.22,3.1,5.5,4.25,9.86l5.79,23.29h5.05l-6.41-24.52Zm-25.02-55.33c6.65,0,11.95,1.66,15.9,4.99,3.94,3.33,5.92,7.87,5.92,13.62s-1.97,10.19-5.92,13.55c-3.94,3.37-9.28,5.05-16.02,5.05h-21.93V3.94h22.06Z"/>
      </g>
      <path class="cls-2" d="m162.57,13.68c-.21-3.99.4-7.76,2.76-11.04,2.11-2.93,5.56-3.47,7.95-1.39,2.17,1.9,2.37,4.71.46,6.88-1.47,1.67-3.41,2.41-5.54,2.85-2.06.42-4.21.73-5.63,2.7Z"/>
    </g>
  </g>
</svg>