<?xml version="1.0" encoding="UTF-8"?><svg id="b" xmlns="http://www.w3.org/2000/svg" viewBox="0 0 280.06 534.64"><defs><style>.d{fill:#fff;}.e{fill:#813619;}</style></defs><g id="c"><path class="d" d="m49.51,491.06v1.23c-14.95-1.23-23.66-13.18-23.66-27.66s8.63-26.35,23.5-27.66v1.23c-7.17,1.16-11.48,7.55-11.48,26.43s4.47,25.35,11.64,26.43Zm5.24-53.02v-1.16c7.24.15,12.64,1.31,16.95,4.16l-.62,12.79h-2.16c-1.46-11.17-6.47-15.1-14.18-15.8Zm22.42,32.13v1.16c-4.39,0-5.16,1.08-5.16,17.88-4.24,1.62-10.09,2.93-17.03,3.16v-1.16c6.78-.39,8.63-2.31,8.63-8.55,0-11.02-1.62-11.33-6.32-11.33v-1.16h19.88Z"/><path class="d" d="m98.25,485.66c0,3.72,1.46,5.29,3.72,5.29v.81h-13.86v-.81c2.32,0,3.61-1.51,3.61-5.61v-26.27c0-3.34-1.24-4.48-3.61-4.48v-.81h10.14v31.88Zm25.19,5.29v.81h-4.53c-8.25-.05-7.12-.05-10.57-11.76-1.24-4.21-4.42-5.23-6.31-5.5v-.92c4.64-.16,7.98-1.19,7.98-9.49s-3.45-9.33-7.98-9.49v-.76c9.44.16,15.37,1.83,15.37,10.25,0,6.96-4.15,9.28-10.25,9.82,3.51-.11,7.66,1.24,10.25,12.03,1.08,4.1,4.64,4.91,6.04,5.02Z"/><path class="d" d="m140.54,491.76h-9.66v-.81c2.27,0,2.97-2.37,2.97-6.04v-24.54c0-3.34-.59-5.77-2.97-5.77v-.81h9.66v37.97Zm3.83-37.11v-.86h14.51v9.98h-.81c-.7-7.71-8.95-8.9-13.7-9.12Zm0,18.45v-1.03c2.54-.16,6.47-.97,7.01-5.45h.81v11.87h-.81c-.54-4.48-4.48-5.23-7.01-5.39Zm15.21,18.66h-15.21v-.86c4.8-.27,13.05-1.62,14.4-10.63h.81v11.49Z"/><path class="d" d="m179.64,491.76h-9.66v-.81c2.27,0,2.97-2.37,2.97-6.04v-24.54c0-3.34-.59-5.77-2.97-5.77v-.81h9.66v37.97Zm3.83-37.11v-.86h14.51v9.98h-.81c-.7-7.71-8.95-8.9-13.7-9.12Zm0,18.45v-1.03c2.54-.16,6.47-.97,7.01-5.45h.81v11.87h-.81c-.54-4.48-4.48-5.23-7.01-5.39Zm15.21,18.66h-15.21v-.86c4.8-.27,13.05-1.62,14.4-10.63h.81v11.49Z"/><path class="d" d="m219.61,453.78l23.3,29.45v8.52h-2.27l-26.21-33.23c-3.45-4.32-5.02-3.83-6.42-3.94v-.81h11.6Zm5.02,37.16v.81h-16.02v-.81c7.98,0,7.98-10.36,7.98-12.78h.81c0,2.37-.05,12.78,7.23,12.78Zm10.25-37.16h15.91v.81c-7.98-.05-7.88,10.25-7.88,12.78h-.81c0-2.54.05-12.84-7.23-12.78v-.81Z"/><path class="d" d="m76.76,533.73v.86c-10.39-.86-16.44-9.16-16.44-19.22s6-18.31,16.33-19.22v.86c-4.98.8-7.98,5.25-7.98,18.37s3.11,17.62,8.08,18.37Zm3.64-36.84v-.8c5.03.11,8.78.91,11.78,2.89l-.43,8.89h-1.5c-1.02-7.76-4.5-10.5-9.85-10.98Zm15.58,22.33v.8c-3.05,0-3.59.75-3.59,12.42-2.95,1.12-7.01,2.03-11.83,2.2v-.8c4.71-.27,6-1.61,6-5.94,0-7.66-1.12-7.87-4.39-7.87v-.8h13.81Z"/><path class="d" d="m110.62,529.97c0,2.59,1.01,3.67,2.59,3.67v.56h-9.63v-.56c1.61,0,2.51-1.05,2.51-3.9v-18.25c0-2.32-.86-3.11-2.51-3.11v-.56h7.04v22.15Zm17.5,3.67v.56h-3.15c-5.73-.04-4.95-.04-7.35-8.17-.86-2.92-3.07-3.63-4.38-3.82v-.64c3.22-.11,5.55-.83,5.55-6.6s-2.4-6.48-5.55-6.6v-.53c6.56.11,10.68,1.27,10.68,7.12,0,4.83-2.89,6.45-7.12,6.82,2.44-.08,5.32.86,7.12,8.36.75,2.85,3.22,3.41,4.2,3.48Z"/><path class="d" d="m144.28,533.91v.56c-7.34-.6-11.24-6.22-11.24-13.27s3.9-13,11.24-13.64v.6c-3.71.56-5.88,3.82-5.88,13.04s2.17,12.18,5.88,12.7Zm2.62.56v-.56c3.67-.52,5.81-3.45,5.81-12.7s-2.14-12.48-5.81-13.04v-.6c7.38.64,11.24,6.63,11.24,13.64s-3.86,12.7-11.24,13.27Z"/><path class="d" d="m184.61,525.29h.56c0,7.38-5.21,9.26-9.18,9.26-4.98,0-8.99-3.33-8.99-9.44v-13.42c0-2.44-1.16-3.3-2.81-3.3v-.56h10.61v.56c-1.61,0-3.22.49-3.22,3.3v13.72c0,4.53,2.74,7.2,6.56,7.2,3.33,0,6.48-2.51,6.48-7.31Zm-4.76-17.46h10.49v.56c-5.28,0-5.17,4.5-5.17,6.26h-.56c0-1.76,0-6.26-4.76-6.26v-.56Z"/><path class="d" d="m203.05,529.08c0,4.38,2.06,4.57,4.05,4.57v.56h-11.09v-.56c1.69,0,2.47-1.46,2.47-4.53v-16.83c0-2.44-.79-3.9-2.55-3.9v-.56h7.12v21.25Zm2.62-20.69v-.53c6.52.15,10.94,1.57,10.94,7.53s-4.42,7.34-10.94,7.53v-.56c3.34-.15,5.85-1.05,5.85-6.97s-2.55-6.86-5.85-7.01Z"/><path class="d" d="m85.11,220.72c-.97,13.68,7.16,20.93,16.46,26.81,12.52,7.91,25.5,15.11,38.43,22.35,25.2,14.09,50.5,28.03,75.78,41.98,47.65,26.28,71.29,75.39,62.45,129.87-1.43,8.81-3.21,17.53-6.49,27.31-4.51-30.33-24.36-47.76-47.37-62.27-55.78-35.18-113.24-67.55-170.09-100.95-15.02-8.83-16.85-15.23-7.29-29.7,12.36-18.69,25.38-36.95,38.11-55.39Z"/><path class="d" d="m90.2,0c-13.18,20.14-14.52,41.81-15.46,63.13-1.64,37.01-2.26,74.09.82,111.1.79,9.51,2.82,18.69,9.69,27.74-30.53-7.14-54.04-21.65-65.52-50.28-13.49-33.63-13.45-68.05.68-101.54C32.98,20.34,58.17,6.63,90.2,0Z"/><path class="d" d="m147.29,0c13.18,20.14,14.52,41.81,15.46,63.13,1.64,37.01,2.26,74.09-.82,111.1-.79,9.51-2.82,18.69-9.69,27.74,30.53-7.14,54.04-21.65,65.52-50.28,13.49-33.63,13.45-68.05-.68-101.54C204.52,20.34,179.33,6.63,147.29,0Z"/><path class="e" d="m.19,429.81c-1.05-19.72,1.98-38.37,13.66-54.59,10.42-14.47,27.51-17.18,39.3-6.85,10.74,9.41,11.72,23.3,2.27,34.03-7.27,8.25-16.88,11.93-27.41,14.07-10.2,2.07-20.84,3.59-27.82,13.34Z"/></g></svg>