<?xml version="1.0" encoding="utf-8"?>
<!-- Generator: Adobe Illustrator 25.2.0, SVG Export Plug-In . SVG Version: 6.00 Build 0)  -->
<svg version="1.1" id="Layer_1" xmlns="http://www.w3.org/2000/svg" xmlns:xlink="http://www.w3.org/1999/xlink" x="0px" y="0px"
	 viewBox="0 0 64 64" style="enable-background:new 0 0 64 64;" xml:space="preserve">
<style type="text/css">
	.st0{fill:#FFFFFF;}
	.st1{display:none;}
	.st2{display:inline;fill:#FFFFFF;}
</style>
<path class="st0" d="M25.6,41.7V22.6l16.1,9.5L25.6,41.7z M61.4,16.8c-0.7-2.7-2.8-4.9-5.5-5.6c-4.8-1.4-24.2-1.4-24.2-1.4
	s-19.4,0-24.2,1.3c-2.6,0.7-4.7,2.9-5.5,5.7c-1.3,5-1.3,15.3-1.3,15.3s0,10.4,1.3,15.3c0.7,2.7,2.8,4.9,5.5,5.6
	c4.9,1.4,24.2,1.4,24.2,1.4s19.4,0,24.2-1.3c2.7-0.7,4.7-2.9,5.5-5.6c1.3-5,1.3-15.3,1.3-15.3S62.8,21.8,61.4,16.8z"/>
<g class="st1">
	<path class="st2" d="M51.5,54.4V38.1c0-8-1.5-14.1-9.8-14.1c-4,0-6.7,2.4-7.8,4.8h-0.1v-4.1H26v29.6h8.2V39.6
		c0-3.9,0.6-7.6,4.9-7.6c4.2,0,4.2,4.4,4.2,7.8v14.4L51.5,54.4L51.5,54.4z"/>
	<rect x="12.6" y="24.7" class="st2" width="8.2" height="29.6"/>
	<path class="st2" d="M16.7,9.9c-2.6,0-4.7,2.4-4.7,5.3s2.1,5.4,4.7,5.4c2.6,0,4.7-2.4,4.7-5.4S19.4,9.9,16.7,9.9z"/>
</g>
</svg>
