<svg width="132" height="26" viewBox="0 0 132 26" fill="none" xmlns="http://www.w3.org/2000/svg">
<path d="M22.8738 24.7544H17.3698L15.8018 19.9864H7.86582L6.23382 24.7544H0.729824L9.59382 1.10639H14.2018L22.8738 24.7544ZM14.3938 15.3464L11.8658 7.85839L9.30582 15.3464H14.3938ZM31.1353 25.2344C28.042 25.2344 25.546 24.1571 23.6473 22.0024L26.1113 18.7384C27.626 20.2744 29.3007 21.0424 31.1353 21.0424C31.7753 21.0424 32.2873 20.9144 32.6713 20.6584C33.0767 20.4024 33.2793 20.0611 33.2793 19.6344C33.2793 19.1224 32.9167 18.6957 32.1913 18.3544C31.9567 18.2477 31.2633 17.9917 30.1113 17.5864C28.874 17.1171 28.1167 16.8184 27.8393 16.6904C25.7487 15.6877 24.7033 14.1411 24.7033 12.0504C24.7033 10.4291 25.322 9.12773 26.5593 8.14639C27.818 7.14373 29.482 6.64239 31.5513 6.64239C34.09 6.64239 36.202 7.45306 37.8873 9.07439L35.5513 12.3384C34.2287 11.2504 32.8633 10.7064 31.4553 10.7064C30.9007 10.7064 30.4527 10.8237 30.1113 11.0584C29.7913 11.2931 29.6313 11.5917 29.6313 11.9544C29.6313 12.5944 30.154 13.0851 31.1993 13.4264C33.162 14.0664 34.5487 14.5997 35.3593 15.0264C37.3433 16.0717 38.3353 17.5651 38.3353 19.5064C38.3353 21.1491 37.674 22.5144 36.3513 23.6024C35.05 24.6904 33.3113 25.2344 31.1353 25.2344ZM46.2951 24.7544H41.2711V0.402393H46.1671V9.55439C46.6577 8.74373 47.3937 8.07173 48.3751 7.53839C49.3564 7.00506 50.4657 6.73839 51.7031 6.73839C53.5804 6.73839 55.1804 7.36773 56.5031 8.62639C57.8257 9.88506 58.4871 11.6877 58.4871 14.0344V24.7544H53.4631V15.3464C53.4631 14.0877 53.1537 13.1064 52.5351 12.4024C51.9377 11.6984 51.1164 11.3464 50.0711 11.3464C48.9404 11.3464 48.0231 11.7304 47.3191 12.4984C46.6364 13.2451 46.2951 14.2371 46.2951 15.4744V24.7544ZM67.1701 24.7544H62.1461V0.402393H67.0421V9.55439C67.5327 8.74373 68.2687 8.07173 69.2501 7.53839C70.2314 7.00506 71.3407 6.73839 72.5781 6.73839C74.4554 6.73839 76.0554 7.36773 77.3781 8.62639C78.7007 9.88506 79.3621 11.6877 79.3621 14.0344V24.7544H74.3381V15.3464C74.3381 14.0877 74.0287 13.1064 73.4101 12.4024C72.8127 11.6984 71.9914 11.3464 70.9461 11.3464C69.8154 11.3464 68.8981 11.7304 68.1941 12.4984C67.5114 13.2451 67.1701 14.2371 67.1701 15.4744V24.7544ZM96.2051 9.07439V7.21839H100.941V24.7544H96.2051V22.9624C94.7117 24.4557 92.9091 25.2024 90.7971 25.2024C88.3011 25.2024 86.2317 24.3171 84.5891 22.5464C82.9677 20.7757 82.1571 18.5571 82.1571 15.8904C82.1571 13.2877 82.9784 11.1117 84.6211 9.36239C86.2637 7.63439 88.3224 6.77039 90.7971 6.77039C92.9091 6.77039 94.7117 7.53839 96.2051 9.07439ZM87.1811 15.9544C87.1811 17.2557 87.5971 18.3651 88.4291 19.2824C89.3037 20.1784 90.3811 20.6264 91.6611 20.6264C92.9624 20.6264 94.0397 20.1677 94.8931 19.2504C95.7677 18.3117 96.2051 17.2131 96.2051 15.9544C96.2051 14.6957 95.7677 13.6077 94.8931 12.6904C94.0184 11.7944 92.9411 11.3464 91.6611 11.3464C90.3811 11.3464 89.3037 11.7944 88.4291 12.6904C87.5971 13.5864 87.1811 14.6744 87.1811 15.9544ZM117.634 8.91439V0.402393H122.658V24.7544H117.794V22.8664C116.429 24.4237 114.69 25.2024 112.578 25.2024C110.125 25.2024 108.066 24.3277 106.402 22.5784C104.76 20.8077 103.938 18.6104 103.938 15.9864C103.938 13.3837 104.76 11.1971 106.402 9.42639C108.066 7.65573 110.125 6.77039 112.578 6.77039C114.584 6.77039 116.269 7.48506 117.634 8.91439ZM117.89 15.9544C117.89 14.6531 117.464 13.5651 116.61 12.6904C115.778 11.7944 114.712 11.3464 113.41 11.3464C112.109 11.3464 111.032 11.7944 110.178 12.6904C109.346 13.5864 108.93 14.6744 108.93 15.9544C108.93 17.2771 109.346 18.3864 110.178 19.2824C111.032 20.1784 112.109 20.6264 113.41 20.6264C114.712 20.6264 115.778 20.1784 116.61 19.2824C117.464 18.4077 117.89 17.2984 117.89 15.9544ZM128.697 25.2664C127.886 25.2664 127.204 24.9997 126.649 24.4664C126.116 23.9331 125.849 23.2611 125.849 22.4504C125.849 21.6611 126.116 20.9997 126.649 20.4664C127.204 19.9331 127.886 19.6664 128.697 19.6664C129.465 19.6664 130.116 19.9437 130.649 20.4984C131.182 21.0317 131.449 21.6824 131.449 22.4504C131.449 23.2611 131.182 23.9331 130.649 24.4664C130.116 24.9997 129.465 25.2664 128.697 25.2664Z" fill="#FFB200"/>
</svg>
