<svg width="101" height="101" viewBox="0 0 101 101" fill="none" xmlns="http://www.w3.org/2000/svg">
<path fill-rule="evenodd" clip-rule="evenodd" d="M50.0615 2.5C48.143 2.5 46.5878 4.05523 46.5878 5.97371C46.5878 7.89218 48.143 9.44742 50.0615 9.44742C51.98 9.44742 53.5352 7.89218 53.5352 5.97371C53.5352 4.05523 51.98 2.5 50.0615 2.5ZM44.1749 4.95164C44.6598 2.13939 47.1108 0 50.0615 0C53.0122 0 55.4633 2.13938 55.9481 4.95164L68.4894 7.73859C69.5182 5.9376 71.4574 4.72371 73.6801 4.72371C76.9792 4.72371 79.6538 7.39823 79.6538 10.6974C79.6538 11.933 79.2786 13.081 78.636 14.0337L86.2725 22.943C87.1877 22.3732 88.2683 22.044 89.4258 22.044C92.7249 22.044 95.3995 24.7185 95.3995 28.0177C95.3995 30.2328 94.1938 32.1663 92.4029 33.1978L95.1461 44.1707C97.9709 44.6451 100.123 47.102 100.123 50.0616C100.123 53.0212 97.9709 55.4782 95.1461 55.9526L92.4029 66.9255C94.1938 67.957 95.3995 69.8905 95.3995 72.1056C95.3995 75.4048 92.7249 78.0793 89.4258 78.0793C88.2683 78.0793 87.1877 77.7501 86.2725 77.1803L78.636 86.0895C79.2786 87.0422 79.6538 88.1903 79.6538 89.4259C79.6538 92.7251 76.9792 95.3996 73.6801 95.3996C71.4574 95.3996 69.5182 94.1857 68.4894 92.3847L55.9481 95.1716C55.4633 97.9839 53.0122 100.123 50.0615 100.123C47.1108 100.123 44.6598 97.9839 44.1749 95.1716L31.6336 92.3847C30.6048 94.1857 28.6657 95.3996 26.443 95.3996C23.1438 95.3996 20.4693 92.7251 20.4693 89.4259C20.4693 88.1903 20.8444 87.0422 21.487 86.0895L13.8505 77.1803C12.9353 77.7501 11.8548 78.0793 10.6973 78.0793C7.39811 78.0793 4.72359 75.4048 4.72359 72.1056C4.72359 69.8905 5.92925 67.957 7.72015 66.9255L4.97692 55.9526C2.15216 55.4782 -0.00012207 53.0212 -0.00012207 50.0616C-0.00012207 47.102 2.15216 44.6451 4.97692 44.1707L7.72015 33.1978C5.92925 32.1663 4.72359 30.2328 4.72359 28.0177C4.72359 24.7185 7.39811 22.044 10.6973 22.044C11.8548 22.044 12.9353 22.3732 13.8505 22.943L21.487 14.0337C20.8444 13.0811 20.4693 11.933 20.4693 10.6974C20.4693 7.39823 23.1438 4.72371 26.443 4.72371C28.6657 4.72371 30.6048 5.9376 31.6336 7.73859L44.1749 4.95164ZM16.671 28.0177C16.671 26.782 16.2958 25.634 15.6532 24.6813L23.2898 15.7721C24.2049 16.3419 25.2855 16.6711 26.443 16.6711C29.7422 16.6711 32.4167 13.9966 32.4167 10.6974C32.4167 10.5065 32.4077 10.3177 32.3902 10.1314L44.2817 7.4889C44.8488 9.65811 46.6047 11.3466 48.8115 11.8164V22.175C46.1124 22.7496 44.0878 25.1472 44.0878 28.0177C44.0878 31.3169 46.7623 33.9914 50.0615 33.9914C52.2259 33.9914 54.1215 32.8403 55.1694 31.1169L64.9572 35.3116C64.6989 35.9797 64.5572 36.7059 64.5572 37.4651C64.5572 38.2441 64.7063 38.9883 64.9776 39.6707L55.0445 46.7658C53.975 45.152 52.1425 44.0879 50.0615 44.0879C47.9805 44.0879 46.1481 45.152 45.0785 46.7658L35.1455 39.6707C35.4167 38.9883 35.5658 38.2441 35.5658 37.4651C35.5658 34.1659 32.8913 31.4914 29.5921 31.4914C27.4486 31.4914 25.5687 32.6204 24.5148 34.3162L16.2635 30.1905C16.5266 29.5171 16.671 28.7843 16.671 28.0177ZM14.8724 32.2901C13.7955 33.3427 12.3222 33.9914 10.6973 33.9914C10.4977 33.9914 10.3005 33.9816 10.1059 33.9625L7.52378 44.291C10.0714 44.9737 11.9473 47.2986 11.9473 50.0616C11.9473 52.8247 10.0714 55.1496 7.52378 55.8322L10.1059 66.1608C10.3005 66.1417 10.4977 66.1319 10.6973 66.1319C12.8408 66.1319 14.7207 67.2609 15.7746 68.9567L24.0259 64.8311C23.7628 64.1576 23.6184 63.4248 23.6184 62.6582C23.6184 59.7877 25.643 57.3901 28.3421 56.8155V43.3078C25.643 42.7332 23.6184 40.3356 23.6184 37.4651C23.6184 37.2018 23.6355 36.9424 23.6685 36.6881L14.8724 32.2901ZM16.6209 71.3286C16.654 71.5829 16.671 71.8423 16.671 72.1056C16.671 73.3412 16.2958 74.4893 15.6532 75.4419L23.2898 84.3512C24.2049 83.7814 25.2855 83.4522 26.443 83.4522C29.7422 83.4522 32.4167 86.1267 32.4167 89.4259C32.4167 89.6168 32.4077 89.8055 32.3902 89.9919L44.2817 92.6344C44.8488 90.4652 46.6047 88.7767 48.8115 88.3069V77.9483C46.352 77.4247 44.4525 75.3873 44.1347 72.8578L33.7654 66.9325C32.6886 67.9839 31.216 68.6319 29.5921 68.6319C27.9673 68.6319 26.4939 67.9832 25.417 66.9306L16.6209 71.3286ZM66.2996 33.167L55.9909 28.749C56.0202 28.5093 56.0352 28.2653 56.0352 28.0177C56.0352 25.1472 54.0106 22.7496 51.3115 22.175V11.8164C53.5184 11.3466 55.2743 9.6581 55.8414 7.4889L67.7328 10.1314C67.7153 10.3177 67.7064 10.5065 67.7064 10.6974C67.7064 13.9966 70.3809 16.6711 73.6801 16.6711C74.8375 16.6711 75.9181 16.3419 76.8333 15.7721L84.4698 24.6813C83.8272 25.634 83.452 26.782 83.452 28.0177C83.452 31.3169 86.1266 33.9914 89.4258 33.9914C89.6253 33.9914 89.8226 33.9816 90.0171 33.9625L92.5993 44.291C90.0516 44.9737 88.1758 47.2986 88.1758 50.0616C88.1758 52.8247 90.0516 55.1496 92.5993 55.8322L90.0171 66.1608C89.8226 66.1417 89.6253 66.1319 89.4258 66.1319C87.2822 66.1319 85.4024 67.2609 84.3484 68.9567L76.0972 64.8311C76.3602 64.1576 76.5046 63.4248 76.5046 62.6582C76.5046 59.7877 74.48 57.3901 71.7809 56.8155V43.3078C74.48 42.7332 76.5046 40.3356 76.5046 37.4651C76.5046 34.1659 73.8301 31.4914 70.5309 31.4914C68.8459 31.4914 67.3238 32.189 66.2378 33.3113L66.2996 33.167ZM66.3682 41.7496C67.1591 42.5182 68.1621 43.0696 69.2809 43.3078V56.8155C66.5818 57.3901 64.5572 59.7877 64.5572 62.6582C64.5572 63.4304 64.7037 64.1683 64.9705 64.8458L55.7045 70.1406C54.8919 67.8067 52.6723 66.1319 50.0615 66.1319C47.4507 66.1319 45.2311 67.8067 44.4185 70.1406L35.1526 64.8458C35.4193 64.1683 35.5658 63.4304 35.5658 62.6582C35.5658 59.7877 33.5412 57.3901 30.8421 56.8155V43.3078C31.961 43.0696 32.9639 42.5182 33.7548 41.7496L44.1529 49.1768C44.11 49.4655 44.0878 49.761 44.0878 50.0616C44.0878 53.3608 46.7623 56.0354 50.0615 56.0354C53.3607 56.0354 56.0352 53.3608 56.0352 50.0616C56.0352 49.761 56.013 49.4655 55.9702 49.1768L66.3682 41.7496ZM74.7061 66.9306L83.5021 71.3286C83.4691 71.5829 83.452 71.8423 83.452 72.1056C83.452 73.3412 83.8272 74.4892 84.4698 75.4419L76.8333 84.3512C75.9181 83.7814 74.8375 83.4522 73.6801 83.4522C70.3809 83.4522 67.7064 86.1267 67.7064 89.4259C67.7064 89.6168 67.7153 89.8055 67.7328 89.9919L55.8414 92.6344C55.2743 90.4652 53.5184 88.7767 51.3115 88.3069V77.9483C53.7711 77.4247 55.6705 75.3873 55.9883 72.8578L66.3577 66.9325C67.4345 67.9839 68.907 68.6319 70.5309 68.6319C72.1558 68.6319 73.6291 67.9832 74.7061 66.9306ZM46.5878 28.0177C46.5878 26.0992 48.143 24.544 50.0615 24.544C51.98 24.544 53.5352 26.0992 53.5352 28.0177C53.5352 29.9362 51.98 31.4914 50.0615 31.4914C48.143 31.4914 46.5878 29.9362 46.5878 28.0177ZM50.0615 46.5879C48.143 46.5879 46.5878 48.1432 46.5878 50.0616C46.5878 51.9801 48.143 53.5354 50.0615 53.5354C51.98 53.5354 53.5352 51.9801 53.5352 50.0616C53.5352 48.1432 51.98 46.5879 50.0615 46.5879ZM46.5878 72.1056C46.5878 70.1871 48.143 68.6319 50.0615 68.6319C51.98 68.6319 53.5352 70.1871 53.5352 72.1056C53.5352 74.0241 51.98 75.5793 50.0615 75.5793C48.143 75.5793 46.5878 74.0241 46.5878 72.1056ZM50.0615 90.6759C48.143 90.6759 46.5878 92.2311 46.5878 94.1496C46.5878 96.0681 48.143 97.6233 50.0615 97.6233C51.98 97.6233 53.5352 96.0681 53.5352 94.1496C53.5352 92.2311 51.98 90.6759 50.0615 90.6759ZM26.1184 37.4651C26.1184 35.5466 27.6736 33.9914 29.5921 33.9914C31.5106 33.9914 33.0658 35.5466 33.0658 37.4651C33.0658 39.3836 31.5106 40.9388 29.5921 40.9388C27.6736 40.9388 26.1184 39.3836 26.1184 37.4651ZM70.5309 33.9914C68.6124 33.9914 67.0572 35.5466 67.0572 37.4651C67.0572 39.3836 68.6124 40.9388 70.5309 40.9388C72.4494 40.9388 74.0046 39.3836 74.0046 37.4651C74.0046 35.5466 72.4494 33.9914 70.5309 33.9914ZM85.952 72.1056C85.952 70.1871 87.5073 68.6319 89.4258 68.6319C91.3442 68.6319 92.8995 70.1871 92.8995 72.1056C92.8995 74.0241 91.3442 75.5793 89.4258 75.5793C87.5073 75.5793 85.952 74.0241 85.952 72.1056ZM73.6801 85.9522C71.7616 85.9522 70.2064 87.5074 70.2064 89.4259C70.2064 91.3444 71.7616 92.8996 73.6801 92.8996C75.5985 92.8996 77.1538 91.3444 77.1538 89.4259C77.1538 87.5074 75.5985 85.9522 73.6801 85.9522ZM26.1184 62.6582C26.1184 60.7397 27.6736 59.1845 29.5921 59.1845C31.5106 59.1845 33.0658 60.7397 33.0658 62.6582C33.0658 64.5767 31.5106 66.1319 29.5921 66.1319C27.6736 66.1319 26.1184 64.5767 26.1184 62.6582ZM70.5309 59.1845C68.6124 59.1845 67.0572 60.7397 67.0572 62.6582C67.0572 64.5767 68.6124 66.1319 70.5309 66.1319C72.4494 66.1319 74.0046 64.5767 74.0046 62.6582C74.0046 60.7397 72.4494 59.1845 70.5309 59.1845ZM32.7413 24.544H35.8904V22.044H32.7413V24.544ZM35.8904 78.0793H32.7413V75.5793H35.8904V78.0793ZM64.2326 78.0793H67.3818V75.5793H64.2326V78.0793ZM21.7193 51.3116H18.5701V48.8116H21.7193V51.3116ZM64.2326 24.544H67.3818V22.044H64.2326V24.544ZM81.5529 51.3116H78.4038V48.8116H81.5529V51.3116ZM89.4258 24.544C87.5073 24.544 85.952 26.0992 85.952 28.0177C85.952 29.9362 87.5073 31.4914 89.4258 31.4914C91.3442 31.4914 92.8995 29.9362 92.8995 28.0177C92.8995 26.0992 91.3442 24.544 89.4258 24.544ZM70.2064 10.6974C70.2064 8.77894 71.7616 7.22371 73.6801 7.22371C75.5985 7.22371 77.1538 8.77894 77.1538 10.6974C77.1538 12.6159 75.5985 14.1711 73.6801 14.1711C71.7616 14.1711 70.2064 12.6159 70.2064 10.6974ZM94.1495 46.5879C92.231 46.5879 90.6758 48.1432 90.6758 50.0616C90.6758 51.9801 92.231 53.5354 94.1495 53.5354C96.0679 53.5354 97.6232 51.9801 97.6232 50.0616C97.6232 48.1432 96.0679 46.5879 94.1495 46.5879ZM10.6973 68.6319C8.77882 68.6319 7.22359 70.1871 7.22359 72.1056C7.22359 74.0241 8.77882 75.5793 10.6973 75.5793C12.6158 75.5793 14.171 74.0241 14.171 72.1056C14.171 70.1871 12.6158 68.6319 10.6973 68.6319ZM22.9693 89.4259C22.9693 87.5074 24.5245 85.9522 26.443 85.9522C28.3615 85.9522 29.9167 87.5074 29.9167 89.4259C29.9167 91.3444 28.3615 92.8996 26.443 92.8996C24.5245 92.8996 22.9693 91.3444 22.9693 89.4259ZM7.22359 28.0177C7.22359 26.0992 8.77882 24.544 10.6973 24.544C12.6158 24.544 14.171 26.0992 14.171 28.0177C14.171 29.9362 12.6158 31.4914 10.6973 31.4914C8.77882 31.4914 7.22359 29.9362 7.22359 28.0177ZM26.443 7.22371C24.5245 7.22371 22.9693 8.77894 22.9693 10.6974C22.9693 12.6159 24.5245 14.1711 26.443 14.1711C28.3615 14.1711 29.9167 12.6159 29.9167 10.6974C29.9167 8.77894 28.3615 7.22371 26.443 7.22371ZM2.49988 50.0616C2.49988 48.1432 4.05511 46.5879 5.97359 46.5879C7.89206 46.5879 9.44729 48.1432 9.44729 50.0616C9.44729 51.9801 7.89206 53.5354 5.97359 53.5354C4.05511 53.5354 2.49988 51.9801 2.49988 50.0616Z" fill="#4FB889"/>
</svg>
