<svg width="25" height="24" viewBox="0 0 25 24" fill="none" xmlns="http://www.w3.org/2000/svg">
<path d="M7.98002 19H5.79502C5.47959 19.0009 5.16928 18.9203 4.89419 18.7659C4.61911 18.6116 4.3886 18.3887 4.22502 18.119C4.06793 17.8481 3.98487 17.5407 3.98417 17.2275C3.98346 16.9144 4.06515 16.6066 4.22102 16.335L8.17602 9.5" stroke="#58B2E8" stroke-width="1.25" stroke-linecap="round" stroke-linejoin="round"/>
<path d="M11.98 19.0001H20.183C20.4969 18.9977 20.8049 18.9145 21.0774 18.7586C21.3499 18.6028 21.5778 18.3794 21.739 18.1101C21.8939 17.84 21.9754 17.534 21.9754 17.2226C21.9754 16.9112 21.8939 16.6052 21.739 16.3351L20.513 14.2151" stroke="#58B2E8" stroke-width="1.25" stroke-linecap="round" stroke-linejoin="round"/>
<path d="M14.98 16L11.98 19L14.98 22" stroke="#58B2E8" stroke-width="1.25" stroke-linecap="round" stroke-linejoin="round"/>
<path d="M9.27302 13.596L8.17602 9.5L4.08002 10.598" stroke="#58B2E8" stroke-width="1.25" stroke-linecap="round" stroke-linejoin="round"/>
<path d="M10.324 5.811L11.417 3.919C11.574 3.6454 11.799 3.41701 12.0702 3.25599C12.3414 3.09497 12.6497 3.00679 12.965 3C13.2779 2.99942 13.5855 3.08116 13.8569 3.23703C14.1282 3.39289 14.3538 3.6174 14.511 3.888L18.454 10.731" stroke="#58B2E8" stroke-width="1.25" stroke-linecap="round" stroke-linejoin="round"/>
<path d="M14.358 9.63301L18.454 10.731L19.551 6.63501" stroke="#58B2E8" stroke-width="1.25" stroke-linecap="round" stroke-linejoin="round"/>
</svg>
