<svg width="25" height="25" viewBox="0 0 25 25" fill="none" xmlns="http://www.w3.org/2000/svg">
<path d="M20.3468 14.9001L19.0976 14.804C18.9534 14.1794 18.7132 13.6028 18.3768 13.0743L19.1937 12.1133C19.3378 11.9211 19.3378 11.6328 19.1937 11.4407L18.0886 10.2875C19.0976 9.23044 20.1546 7.74095 20.1546 6.05927C20.1546 2.8881 16.4549 0.389604 16.2627 0.293508C16.1186 0.197412 15.8783 0.197412 15.7342 0.293508C15.5901 0.389604 11.8423 2.8881 11.8423 6.05927C11.8423 6.82804 12.0345 7.59681 12.4669 8.36558H11.8904C11.6501 8.36558 11.4099 8.55777 11.4099 8.79801L11.3138 10.0953C10.7372 10.2395 10.1606 10.4797 9.6321 10.768L8.62309 9.90312C8.4309 9.75897 8.14261 9.75897 7.95041 9.95116L6.55702 11.3446C6.36483 11.5368 6.36483 11.825 6.55702 12.0172L7.37384 12.9782C7.0375 13.5067 6.79726 14.0833 6.65312 14.7079L5.40387 14.804C5.16363 14.804 4.97144 15.0443 4.97144 15.2845V17.2545C4.97144 17.4947 5.16363 17.7349 5.40387 17.7349L6.60507 17.831C6.74921 18.4557 6.98945 19.0322 7.32579 19.6088L6.55702 20.5217C6.41288 20.7139 6.41288 21.0022 6.55702 21.1944L7.95041 22.5878C8.14261 22.78 8.4309 22.78 8.62309 22.6358L9.536 21.8671C10.1126 22.2034 10.6892 22.4437 11.3618 22.6358L11.4579 23.789C11.4579 24.0292 11.6982 24.2214 11.9384 24.2214H13.9084C14.1486 24.2214 14.3889 24.0292 14.3889 23.789L14.4849 22.6358C15.1096 22.4917 15.7342 22.2034 16.3108 21.8671L17.2237 22.6358C17.4159 22.78 17.7042 22.78 17.8964 22.5878L19.2898 21.1944C19.4819 21.0022 19.4819 20.7139 19.2898 20.5217L18.521 19.6088C18.8573 19.0322 19.0976 18.4557 19.2417 17.831L20.4429 17.7349C20.6831 17.7349 20.8753 17.4947 20.8753 17.2545V15.2845C20.7792 15.1404 20.5871 14.9482 20.3468 14.9001ZM15.9264 1.35056C16.7432 1.92714 19.0976 3.89711 19.0976 6.10732C19.0976 7.64486 17.9444 9.03825 16.9834 9.95116L16.9354 9.99921L16.8874 10.0473C16.6952 10.2395 16.551 10.3836 16.3588 10.4797V6.05927C16.3588 5.77098 16.1666 5.57879 15.8783 5.57879C15.5901 5.57879 15.3979 5.77098 15.3979 6.05927V10.4797C14.8693 10.0473 14.1967 9.37459 13.6201 8.60582C12.9955 7.74095 12.7072 6.87609 12.7072 6.05927C12.7552 3.89711 15.1096 1.97519 15.9264 1.35056ZM19.8183 16.9181L18.6651 17.0142C18.4249 17.0142 18.2807 17.2064 18.2327 17.3986C18.0886 18.1674 17.8003 18.8401 17.3678 19.5127C17.2717 19.7049 17.2717 19.9452 17.4159 20.0893L18.1366 20.9061L17.3678 21.6749L16.551 20.9542C16.4069 20.81 16.1186 20.81 15.9744 20.9061C15.3498 21.3386 14.6291 21.6268 13.8603 21.771C13.6681 21.819 13.4759 22.0112 13.4759 22.2034L13.3798 23.3566H12.2747L12.1786 22.2995C12.1786 22.0593 11.9865 21.9151 11.7943 21.8671C11.0255 21.7229 10.3048 21.4346 9.68014 21.0022C9.48795 20.8581 9.24771 20.9061 9.10357 21.0503L8.28675 21.771L7.51798 21.0022L8.2387 20.1854C8.38285 20.0413 8.38285 19.801 8.28675 19.6088C7.85432 18.9842 7.56603 18.2635 7.42189 17.4947C7.37384 17.2545 7.18165 17.1103 6.98945 17.1103L5.8363 17.0142V15.9091L6.98945 15.813C7.18165 15.813 7.37384 15.6208 7.42189 15.4286C7.56603 14.7079 7.85432 14.0352 8.28675 13.4106C8.4309 13.2184 8.38285 12.9782 8.2387 12.834L7.51798 11.825L8.28675 11.0563L9.19966 11.8731C9.34381 12.0172 9.58405 12.0172 9.77624 11.9211C10.4009 11.4887 11.0735 11.2485 11.7943 11.1043C11.9865 11.0563 12.1786 10.8641 12.1786 10.6719L12.2747 9.42264H13.0435C13.6681 10.2875 14.4369 10.9602 14.9654 11.3926C14.9654 11.3926 15.0135 11.3926 15.0135 11.4407C15.2057 11.5848 15.3498 11.6809 15.4459 11.777V16.3896C15.4459 17.831 14.2928 18.9842 12.8513 18.9842C11.4099 18.9842 10.2567 17.831 10.2567 16.3896C10.2567 14.9482 11.4099 13.795 12.8513 13.795C13.1396 13.795 13.3318 13.6028 13.3318 13.3145C13.3318 13.0262 13.1396 12.834 12.8513 12.834C10.8813 12.834 9.29576 14.4196 9.29576 16.3896C9.29576 18.3596 10.8813 19.9452 12.8513 19.9452C14.8213 19.9452 16.4069 18.3596 16.4069 16.3896V11.777C16.5991 11.6328 16.9354 11.3926 17.3198 11.0563L18.1366 11.8731L17.3678 12.786C17.2237 12.9301 17.2237 13.2184 17.3198 13.3626C17.7522 13.9872 18.0405 14.6599 18.1846 15.3806C18.2327 15.5728 18.4249 15.765 18.6171 15.765L19.7702 15.8611V16.9181H19.8183Z" fill="#58B2E8"/>
</svg>
