<svg width="22" height="23" viewBox="0 0 22 23" fill="none" xmlns="http://www.w3.org/2000/svg">
<g clip-path="url(#clip0_1_1008)">
<path d="M14.7605 18.9188C15.7244 18.3585 21.9596 13.8561 20.4242 7.82178" stroke="#58B2E8" stroke-linecap="round" stroke-linejoin="round"/>
<path d="M19.5882 10.981C18.6031 11.0363 17.2427 11.2738 15.9359 12.1116C12.3679 14.3999 12.6973 21.2744 12.6973 21.2744C12.6973 21.2744 17.2209 20.9904 19.0544 19.062C21.4771 16.5133 21.199 13.1491 21.1419 12.57" stroke="#58B2E8" stroke-linecap="round" stroke-linejoin="round"/>
<path d="M14.9956 4.28861C14.0288 3.7342 7.01173 0.585666 2.55347 4.93199" stroke="#58B2E8" stroke-linecap="round" stroke-linejoin="round"/>
<path d="M5.70673 4.07656C6.247 4.90199 7.13311 5.96132 8.51177 6.67422C12.2772 8.62026 18.0664 4.89728 18.0664 4.89728C18.0664 4.89728 15.5589 1.12187 12.9718 0.497932C9.55343 -0.326319 6.77902 1.59733 6.30591 1.9361" stroke="#58B2E8" stroke-linecap="round" stroke-linejoin="round"/>
<path d="M2.73438 11.6313C2.73791 12.7461 3.51915 20.3971 9.5128 22.085" stroke="#58B2E8" stroke-linecap="round" stroke-linejoin="round"/>
<path d="M7.19497 19.7814C7.63979 18.9006 8.11408 17.6038 8.0422 16.0531C7.84482 11.8187 1.72627 8.66724 1.72627 8.66724C1.72627 8.66724 -0.289873 12.7266 0.463678 15.2789C1.45938 18.6513 4.51188 20.0925 5.04213 20.3328" stroke="#58B2E8" stroke-linecap="round" stroke-linejoin="round"/>
</g>
<defs>
<clipPath id="clip0_1_1008">
<rect width="21.4753" height="22.3797" fill="white"/>
</clipPath>
</defs>
</svg>
