<svg width="25" height="24" viewBox="0 0 25 24" fill="none" xmlns="http://www.w3.org/2000/svg">
<path d="M11.2314 20C9.47542 20.0053 7.78162 19.3505 6.48588 18.1654C5.19015 16.9803 4.38713 15.3515 4.2361 13.6021C4.08507 11.8527 4.59705 10.1104 5.67051 8.72074C6.74397 7.33112 8.30049 6.3957 10.0314 6.1C15.7314 5 17.2314 4.48 19.2314 2C20.2314 4 21.2314 6.18 21.2314 10C21.2314 15.5 16.4514 20 11.2314 20Z" stroke="#58B2E8" stroke-width="1.25" stroke-linecap="round" stroke-linejoin="round"/>
<path d="M2.23138 21C2.23138 18 4.08138 15.64 7.31138 15C9.73138 14.52 12.2314 13 13.2314 12" stroke="#58B2E8" stroke-width="1.25" stroke-linecap="round" stroke-linejoin="round"/>
</svg>
