<svg width="70" height="70" viewBox="0 0 70 70" fill="none" xmlns="http://www.w3.org/2000/svg">
<g clip-path="url(#clip0_1_1165)">
<path d="M35 4.375V65.625" stroke="#58B2E8" stroke-width="3" stroke-miterlimit="10"/>
<path d="M4.375 35H65.625" stroke="#58B2E8" stroke-width="3" stroke-miterlimit="10"/>
<path d="M27.3438 9.84375L17.5 19.6875L14.2188 16.4062" stroke="#4FB889" stroke-width="3" stroke-linejoin="round"/>
<path d="M25.1562 18.5938V25.1562H9.84375V9.84375H19.6875" stroke="#4FB889" stroke-width="3" stroke-miterlimit="10"/>
<path d="M63.4375 9.84375L53.5938 19.6875L50.3125 16.4062" stroke="#4FB889" stroke-width="3" stroke-linejoin="round"/>
<path d="M61.25 18.5938V25.1562H45.9375V9.84375H55.7812" stroke="#4FB889" stroke-width="3" stroke-miterlimit="10"/>
<path d="M25.1562 44.8438H9.84375V60.1562H25.1562V44.8438Z" stroke="#4FB889" stroke-width="3" stroke-miterlimit="10"/>
<path d="M61.25 44.8438H45.9375V60.1562H61.25V44.8438Z" stroke="#4FB889" stroke-width="3" stroke-miterlimit="10"/>
<path d="M7.65625 62.3438L27.3438 42.6562" stroke="#4FB889" stroke-width="3" stroke-linejoin="round"/>
<path d="M7.65625 42.6562L27.3438 62.3438" stroke="#4FB889" stroke-width="3" stroke-linejoin="round"/>
<path d="M70 35H67.8125" stroke="#58B2E8" stroke-width="3" stroke-miterlimit="10"/>
<path d="M0 35H2.1875" stroke="#58B2E8" stroke-width="3" stroke-miterlimit="10"/>
<path d="M35 2.1875V0" stroke="#58B2E8" stroke-width="3" stroke-miterlimit="10"/>
<path d="M35 67.8125V70" stroke="#58B2E8" stroke-width="3" stroke-miterlimit="10"/>
</g>
<defs>
<clipPath id="clip0_1_1165">
<rect width="70" height="70" fill="white"/>
</clipPath>
</defs>
</svg>
