<svg width="126" height="100" viewBox="0 0 126 100" fill="none" xmlns="http://www.w3.org/2000/svg">
<g clip-path="url(#clip0_1_1161)">
<path d="M123.436 47.1507V38.5935C123.436 36.0587 121.552 34.0004 119.233 34.0004C116.913 34.0004 115.029 36.0587 115.029 38.5935V63.0837C115.029 64.3796 114.07 65.4279 112.884 65.4279C111.698 65.4279 110.738 64.3796 110.738 63.0837V43.6059C112.238 43.0341 113.32 41.4713 113.32 39.6417C113.32 37.8121 112.238 36.2493 110.738 35.6775V22.9846C110.738 20.3354 108.767 18.1818 106.343 18.1818C103.919 18.1818 101.948 20.3354 101.948 22.9846V59.5769C100.448 60.1487 99.3663 61.7115 99.3663 63.5411C99.3663 65.3707 100.448 66.9335 101.948 67.5052V74.6141C101.948 75.6432 101.18 76.4627 100.256 76.4627C99.3314 76.4627 98.5639 75.6242 98.5639 74.6141V14.2748C98.5639 11.6257 96.593 9.47208 94.1686 9.47208C91.7442 9.47208 89.7733 11.6257 89.7733 14.2748V26.4532C88.2733 27.025 87.1919 28.5878 87.1919 30.4174C87.1919 32.247 88.2733 33.8098 89.7733 34.3816V80.789C89.7733 81.8563 88.9884 82.7139 88.0116 82.7139C87.0349 82.7139 86.25 81.8563 86.25 80.789V11.2445C86.25 8.74786 84.3837 6.7086 82.0988 6.7086C79.8139 6.7086 77.9477 8.74786 77.9477 11.2445V43.9108C76.4477 44.4826 75.3663 46.0454 75.3663 47.875C75.3663 49.7046 76.4477 51.2674 77.9477 51.8391V95.3307C77.9477 96.3789 77.1802 97.2175 76.2209 97.2175C75.2616 97.2175 74.4942 96.3789 74.4942 95.3307V7.83305C74.4942 5.33638 72.6279 3.29712 70.343 3.29712C68.0581 3.29712 66.1919 5.33638 66.1919 7.83305V14.8085C64.6919 15.3802 63.6105 16.943 63.6105 18.7726C63.6105 20.6022 64.6919 22.165 66.1919 22.7368V80.6175C66.1919 81.7801 65.3198 82.733 64.2558 82.733C63.1919 82.733 62.3198 81.7801 62.3198 80.6175V4.80274C62.3198 2.15361 60.3488 0 57.9244 0C55.5 0 53.5291 2.15361 53.5291 4.80274V55.1744C52.0814 55.7843 51.0349 57.3089 51.0349 59.1004C51.0349 60.8919 52.064 62.4357 53.5291 63.0265V72.0793C53.5291 73.2037 52.6919 74.0995 51.6802 74.0995C50.6686 74.0995 49.8314 73.1847 49.8314 72.0793V11.416C49.8314 8.80503 47.8954 6.68954 45.5058 6.68954C43.1163 6.68954 41.1802 8.80503 41.1802 11.416V28.6831C39.6802 29.2548 38.5988 30.8176 38.5988 32.6472C38.5988 34.4768 39.6802 36.0396 41.1802 36.6114V67.4099C41.1802 68.6106 40.2907 69.6017 39.1744 69.6017C38.0581 69.6017 37.1686 68.6297 37.1686 67.4099V15.3421C37.1686 12.712 35.2151 10.5584 32.7907 10.5584C30.3663 10.5584 28.4128 12.693 28.4128 15.3421V44.8828C26.9128 45.4545 25.8314 47.0173 25.8314 48.847C25.8314 50.6766 26.9128 52.2394 28.4128 52.8111V64.2081C28.4128 65.4279 27.5058 66.3998 26.407 66.3998C25.3081 66.3998 24.4012 65.4088 24.4012 64.2081V23.2895C24.4012 20.4688 22.3081 18.1818 19.7267 18.1818C17.1454 18.1818 15.0523 20.4688 15.0523 23.2895V25.0238C13.5523 25.5956 12.4709 27.1584 12.4709 28.988C12.4709 30.8176 13.5523 32.3804 15.0523 32.9522V54.8123C15.0523 55.9558 14.1977 56.8896 13.1512 56.8896C12.1047 56.8896 11.25 55.9558 11.25 54.8123V33.2762C11.25 30.6651 9.29651 28.5306 6.90698 28.5306C4.51744 28.5306 2.56395 30.6651 2.56395 33.2762V42.9388C1.06395 43.5106 -0.0174408 45.0734 -0.0174408 46.903C-0.0174408 49.2281 1.7093 51.1149 3.83721 51.1149C5.96512 51.1149 7.69186 49.2281 7.69186 46.903C7.69186 45.0734 6.61047 43.5106 5.11047 42.9388V33.2762C5.11047 32.2089 5.91279 31.3322 6.88954 31.3322C7.86628 31.3322 8.66861 32.2089 8.66861 33.2762V54.8123C8.66861 57.4995 10.6744 59.6722 13.1163 59.6722C15.5581 59.6722 17.564 57.4805 17.564 54.8123V32.9522C19.064 32.3804 20.1454 30.8176 20.1454 28.988C20.1454 27.1584 19.064 25.5956 17.564 25.0238V23.2895C17.564 22.0126 18.5233 20.9644 19.6919 20.9644C20.8605 20.9644 21.8198 22.0126 21.8198 23.2895V64.2081C21.8198 66.9525 23.8605 69.2014 26.3895 69.2014C28.9186 69.2014 30.9593 66.9716 30.9593 64.2081V52.8111C32.4593 52.2394 33.5407 50.6766 33.5407 48.847C33.5407 47.0173 32.4593 45.4545 30.9593 44.8828V15.3421C30.9593 14.2558 31.7791 13.36 32.7733 13.36C33.7674 13.36 34.5872 14.2558 34.5872 15.3421V67.4099C34.5872 70.1544 36.6279 72.3842 39.1395 72.3842C41.6512 72.3842 43.6919 70.1544 43.6919 67.4099V36.6114C45.1919 36.0396 46.2733 34.4768 46.2733 32.6472C46.2733 30.8176 45.1919 29.2548 43.6919 28.6831V11.416C43.6919 10.3488 44.4942 9.49114 45.4535 9.49114C46.4128 9.49114 47.2151 10.3678 47.2151 11.416V72.0793C47.2151 74.7475 49.2035 76.9011 51.6279 76.9011C54.0523 76.9011 56.0407 74.7284 56.0407 72.0793V63.1027C57.5756 62.55 58.6919 60.9682 58.6919 59.1004C58.6919 57.2327 57.5756 55.6508 56.0407 55.0981V4.80274C56.0407 3.69735 56.8605 2.78254 57.8895 2.78254C58.9186 2.78254 59.7384 3.67829 59.7384 4.80274V80.6175C59.7384 83.3238 61.7616 85.5346 64.2384 85.5346C66.7151 85.5346 68.7384 83.3238 68.7384 80.6175V22.7368C70.2384 22.165 71.3198 20.6022 71.3198 18.7726C71.3198 16.943 70.2384 15.3802 68.7384 14.8085V7.83305C68.7384 6.88012 69.4535 6.09872 70.3256 6.09872C71.1977 6.09872 71.9128 6.88012 71.9128 7.83305V95.3116C71.9128 97.8845 73.8314 100 76.2035 100C78.5756 100 80.4942 97.9036 80.4942 95.3116V51.8391C81.9942 51.2674 83.0756 49.7046 83.0756 47.875C83.0756 46.0454 81.9942 44.4826 80.4942 43.9108V11.2445C80.4942 10.2725 81.2093 9.49114 82.0988 9.49114C82.9884 9.49114 83.7035 10.2725 83.7035 11.2445V80.8081C83.7035 83.4191 85.6395 85.5346 88.0291 85.5346C90.4186 85.5346 92.3547 83.4191 92.3547 80.8081V34.3816C93.8547 33.8098 94.936 32.247 94.936 30.4174C94.936 28.5878 93.8547 27.025 92.3547 26.4532V14.2748C92.3547 13.1694 93.1744 12.2546 94.2035 12.2546C95.2326 12.2546 96.0523 13.1504 96.0523 14.2748V74.6141C96.0523 77.1679 97.9535 79.2643 100.308 79.2643C102.663 79.2643 104.564 77.187 104.564 74.6141V67.5052C106.064 66.9335 107.145 65.3707 107.145 63.5411C107.145 61.7115 106.064 60.1487 104.564 59.5769V22.9846C104.564 21.8792 105.384 20.9644 106.413 20.9644C107.442 20.9644 108.262 21.8601 108.262 22.9846V35.6775C106.762 36.2493 105.68 37.8121 105.68 39.6417C105.68 41.4713 106.762 43.0341 108.262 43.6059V63.0837C108.262 65.9234 110.372 68.2104 112.953 68.2104C115.535 68.2104 117.645 65.9043 117.645 63.0837V38.5935C117.645 37.6024 118.378 36.802 119.285 36.802C120.192 36.802 120.924 37.6024 120.924 38.5935V47.1507C119.424 47.7225 118.343 49.2853 118.343 51.1149C118.343 53.4401 120.07 55.3269 122.198 55.3269C124.326 55.3269 126.052 53.4401 126.052 51.1149C126.052 49.2853 124.971 47.7225 123.471 47.1507H123.436ZM3.85465 48.8851C2.86047 48.8851 2.0407 48.0084 2.0407 46.9221C2.0407 45.8357 2.84302 44.94 3.85465 44.94C4.86628 44.94 5.65116 45.8167 5.65116 46.9221C5.65116 48.0274 4.84884 48.8851 3.85465 48.8851ZM16.6744 24.7951C16.5523 24.7951 16.4302 24.7761 16.3256 24.7761C16.2209 24.7761 16.0814 24.7761 15.9767 24.7951C16.0988 24.7951 16.2209 24.7761 16.3256 24.7761C16.4302 24.7761 16.5698 24.7761 16.6744 24.7951ZM15.3663 24.9095C15.3663 24.9095 15.3314 24.9095 15.314 24.9095C15.314 24.9095 15.3488 24.9095 15.3663 24.9095ZM15.7674 24.8332C15.7674 24.8332 15.6802 24.8332 15.6279 24.8523C15.6802 24.8523 15.7151 24.8523 15.7674 24.8332ZM15.9593 33.1809C16.0814 33.1809 16.2035 33.1999 16.3081 33.1999C16.4128 33.1999 16.5523 33.1999 16.657 33.1809C16.5349 33.1809 16.4128 33.1999 16.3081 33.1999C16.2035 33.1999 16.064 33.1999 15.9593 33.1809ZM15.314 33.0475C15.314 33.0475 15.3488 33.0475 15.3663 33.0475C15.3663 33.0475 15.3314 33.0475 15.314 33.0475ZM15.6279 33.1237C15.6279 33.1237 15.7151 33.1237 15.7674 33.1427C15.7151 33.1427 15.6802 33.1427 15.6279 33.1237ZM17.25 33.0665C17.25 33.0665 17.2849 33.0665 17.3023 33.0665C17.2849 33.0665 17.2674 33.0665 17.25 33.0665ZM16.8663 33.1427C16.8663 33.1427 16.9535 33.1427 17.0058 33.1237C16.9535 33.1237 16.9186 33.1237 16.8663 33.1427ZM16.3081 30.951C15.314 30.951 14.4942 30.0743 14.4942 28.9689C14.4942 27.8635 15.2965 27.0059 16.3081 27.0059C17.3198 27.0059 18.1221 27.8826 18.1221 28.9689C18.1221 30.0553 17.3198 30.951 16.3081 30.951ZM17.25 24.9095C17.25 24.9095 17.2849 24.9095 17.3023 24.9095C17.2849 24.9095 17.2674 24.9095 17.25 24.9095ZM16.8663 24.8332C16.8663 24.8332 16.9535 24.8332 17.0058 24.8523C16.9535 24.8523 16.9186 24.8523 16.8663 24.8332ZM30.0523 44.6541C29.9302 44.6541 29.8081 44.635 29.7035 44.635C29.5988 44.635 29.4593 44.635 29.3547 44.6541C29.4767 44.6541 29.5988 44.635 29.7035 44.635C29.8081 44.635 29.9477 44.635 30.0523 44.6541ZM28.7616 44.7684C28.7616 44.7684 28.7267 44.7684 28.7093 44.7684C28.7267 44.7684 28.7442 44.7684 28.7616 44.7684ZM29.1453 44.6922C29.1453 44.6922 29.0581 44.6922 29.0058 44.7113C29.0581 44.7113 29.093 44.7113 29.1453 44.6922ZM29.3372 53.0398C29.4593 53.0398 29.5814 53.0589 29.686 53.0589C29.7907 53.0589 29.9302 53.0589 30.0349 53.0398C29.9128 53.0398 29.7907 53.0589 29.686 53.0589C29.5814 53.0589 29.4419 53.0589 29.3372 53.0398ZM28.6919 52.9064C28.6919 52.9064 28.7267 52.9064 28.7442 52.9064C28.7442 52.9064 28.7093 52.9064 28.6919 52.9064ZM29.0058 52.9827C29.0058 52.9827 29.093 52.9827 29.1453 53.0017C29.093 53.0017 29.0581 53.0017 29.0058 52.9827ZM30.6279 52.9255C30.6279 52.9255 30.6628 52.9255 30.6802 52.9255C30.6802 52.9255 30.6453 52.9255 30.6279 52.9255ZM30.2442 53.0017C30.2442 53.0017 30.3314 53.0017 30.3837 52.9827C30.3314 52.9827 30.2965 52.9827 30.2442 53.0017ZM29.686 50.81C28.6919 50.81 27.8895 49.9333 27.8895 48.847C27.8895 47.7606 28.6919 46.8839 29.686 46.8839C30.6802 46.8839 31.4826 47.7606 31.4826 48.847C31.4826 49.9333 30.6802 50.81 29.686 50.81ZM30.6279 44.7684C30.6279 44.7684 30.6628 44.7684 30.6802 44.7684C30.6802 44.7684 30.6453 44.7684 30.6279 44.7684ZM30.2442 44.6922C30.2442 44.6922 30.3314 44.6922 30.3837 44.7113C30.3314 44.7113 30.2965 44.7113 30.2442 44.6922ZM42.436 28.4544C42.5581 28.4544 42.6802 28.4544 42.7849 28.4734C42.6628 28.4734 42.5407 28.4544 42.436 28.4544C42.3314 28.4544 42.1919 28.4544 42.0872 28.4734C42.2093 28.4734 42.3314 28.4544 42.436 28.4544ZM41.4942 28.5878C41.4942 28.5878 41.4593 28.5878 41.4419 28.5878C41.4593 28.5878 41.4767 28.5878 41.4942 28.5878ZM41.8779 28.5115C41.8779 28.5115 41.7907 28.5115 41.7384 28.5306C41.7907 28.5306 41.8256 28.5306 41.8779 28.5115ZM42.0698 36.8592C42.1919 36.8592 42.314 36.8782 42.4186 36.8782C42.5233 36.8782 42.6628 36.8782 42.7674 36.8592C42.6454 36.8592 42.5233 36.8782 42.4186 36.8782C42.314 36.8782 42.1744 36.8782 42.0698 36.8592ZM41.4244 36.7257C41.4244 36.7257 41.4593 36.7257 41.4767 36.7257C41.4767 36.7257 41.4419 36.7257 41.4244 36.7257ZM41.7384 36.802C41.7384 36.802 41.8256 36.802 41.8779 36.821C41.8256 36.821 41.7907 36.821 41.7384 36.802ZM43.3605 36.7448C43.3605 36.7448 43.3953 36.7448 43.4128 36.7448C43.3953 36.7448 43.3779 36.7448 43.3605 36.7448ZM42.9767 36.821C42.9767 36.821 43.064 36.821 43.1163 36.802C43.064 36.802 43.0291 36.802 42.9767 36.821ZM42.4186 34.6293C41.4244 34.6293 40.6047 33.7526 40.6047 32.6472C40.6047 31.5418 41.407 30.6842 42.4186 30.6842C43.4302 30.6842 44.2151 31.5609 44.2151 32.6472C44.2151 33.7336 43.4128 34.6293 42.4186 34.6293ZM43.3605 28.5878C43.3605 28.5878 43.3953 28.5878 43.4128 28.5878C43.3953 28.5878 43.3779 28.5878 43.3605 28.5878ZM42.9767 28.5115C42.9767 28.5115 43.064 28.5115 43.1163 28.5306C43.064 28.5306 43.0291 28.5306 42.9767 28.5115ZM54.8895 54.9266C54.7674 54.9266 54.6454 54.9266 54.5233 54.9457C54.6454 54.9457 54.7674 54.9266 54.8895 54.9266ZM54.2791 54.9838C54.2791 54.9838 54.2093 54.9838 54.1744 54.9838C54.2093 54.9838 54.2442 54.9838 54.2791 54.9838ZM54.5233 63.3314C54.6454 63.3314 54.7674 63.3505 54.8895 63.3505C54.7674 63.3505 54.6454 63.3505 54.5233 63.3314ZM54.1744 63.2743C54.1744 63.2743 54.2442 63.2743 54.2791 63.2743C54.2442 63.2743 54.2093 63.2743 54.1744 63.2743ZM55.4477 63.2933C55.4477 63.2933 55.5174 63.2933 55.5349 63.2933C55.5 63.2933 55.4651 63.2933 55.4477 63.2933ZM56.686 59.1386C56.686 60.2249 55.8837 61.1016 54.8895 61.1016C53.8953 61.1016 53.0756 60.2249 53.0756 59.1386C53.0756 58.0522 53.8779 57.1565 54.8895 57.1565C55.9012 57.1565 56.686 58.0332 56.686 59.1386ZM55.4477 54.9838C55.4477 54.9838 55.5174 54.9838 55.5349 54.9838C55.5 54.9838 55.4651 54.9838 55.4477 54.9838ZM67.4651 14.5988C67.5872 14.5988 67.7093 14.5988 67.8139 14.6179C67.6919 14.6179 67.5698 14.5988 67.4651 14.5988C67.3605 14.5988 67.2209 14.5988 67.1163 14.6179C67.2384 14.6179 67.3605 14.5988 67.4651 14.5988ZM66.5233 14.7322C66.5233 14.7322 66.4884 14.7322 66.4709 14.7322C66.4709 14.7322 66.5058 14.7322 66.5233 14.7322ZM66.907 14.656C66.907 14.656 66.8198 14.656 66.7674 14.6751C66.8198 14.6751 66.8547 14.6751 66.907 14.656ZM67.0988 23.0036C67.2209 23.0036 67.343 23.0227 67.4477 23.0227C67.5523 23.0227 67.6919 23.0227 67.7965 23.0036C67.6744 23.0036 67.5523 23.0227 67.4477 23.0227C67.343 23.0227 67.2035 23.0227 67.0988 23.0036ZM66.4535 22.8702C66.4535 22.8702 66.4884 22.8702 66.5058 22.8702C66.5058 22.8702 66.4709 22.8702 66.4535 22.8702ZM66.7674 22.9464C66.7674 22.9464 66.8547 22.9464 66.907 22.9655C66.8547 22.9655 66.8198 22.9655 66.7674 22.9464ZM68.3895 22.8893C68.3895 22.8893 68.4244 22.8893 68.4419 22.8893C68.4419 22.8893 68.407 22.8893 68.3895 22.8893ZM68.0058 22.9655C68.0058 22.9655 68.093 22.9655 68.1453 22.9464C68.093 22.9464 68.0581 22.9464 68.0058 22.9655ZM67.4477 20.7738C66.4535 20.7738 65.6337 19.8971 65.6337 18.8107C65.6337 17.7244 66.436 16.8477 67.4477 16.8477C68.4593 16.8477 69.2442 17.7244 69.2442 18.8107C69.2442 19.8971 68.4419 20.7738 67.4477 20.7738ZM68.3895 14.7322C68.3895 14.7322 68.4244 14.7322 68.4419 14.7322C68.4419 14.7322 68.407 14.7322 68.3895 14.7322ZM68.0058 14.656C68.0058 14.656 68.093 14.656 68.1453 14.6751C68.093 14.6751 68.0581 14.6751 68.0058 14.656ZM79.1861 43.7012C79.3081 43.7012 79.4302 43.7012 79.5349 43.7202C79.4128 43.7202 79.2907 43.7012 79.1861 43.7012C79.0814 43.7012 78.9419 43.7012 78.8372 43.7202C78.9593 43.7202 79.0814 43.7012 79.1861 43.7012ZM78.2442 43.8346C78.2442 43.8346 78.2093 43.8346 78.1919 43.8346C78.1919 43.8346 78.2267 43.8346 78.2442 43.8346ZM78.6279 43.7583C78.6279 43.7583 78.5407 43.7583 78.4884 43.7774C78.5407 43.7774 78.5756 43.7774 78.6279 43.7583ZM79.1861 52.125C79.064 52.125 78.9419 52.125 78.8372 52.106C78.9593 52.106 79.0814 52.125 79.1861 52.125C79.2907 52.125 79.4302 52.125 79.5349 52.106C79.4128 52.106 79.2907 52.125 79.1861 52.125ZM78.1919 51.9726C78.1919 51.9726 78.2267 51.9726 78.2442 51.9726C78.2442 51.9726 78.2093 51.9726 78.1919 51.9726ZM78.5058 52.0488C78.5058 52.0488 78.593 52.0488 78.6453 52.0678C78.593 52.0678 78.5581 52.0678 78.5058 52.0488ZM80.1279 51.9916C80.1279 51.9916 80.1628 51.9916 80.1802 51.9916C80.1802 51.9916 80.1453 51.9916 80.1279 51.9916ZM79.7442 52.0678C79.7442 52.0678 79.8314 52.0678 79.8837 52.0488C79.8314 52.0488 79.7965 52.0488 79.7442 52.0678ZM79.1861 49.8761C78.1919 49.8761 77.3721 48.9994 77.3721 47.894C77.3721 46.7886 78.1744 45.931 79.1861 45.931C80.1977 45.931 80.9826 46.8077 80.9826 47.894C80.9826 48.9804 80.1802 49.8761 79.1861 49.8761ZM80.1279 43.8346C80.1279 43.8346 80.1628 43.8346 80.1802 43.8346C80.1628 43.8346 80.1453 43.8346 80.1279 43.8346ZM79.7442 43.7583C79.7442 43.7583 79.8314 43.7583 79.8837 43.7774C79.8314 43.7774 79.7965 43.7774 79.7442 43.7583ZM91.3953 26.2817C91.2733 26.2817 91.1512 26.2626 91.0465 26.2626C90.9419 26.2626 90.8023 26.2626 90.6977 26.2817C90.8198 26.2817 90.9419 26.2626 91.0465 26.2626C91.1512 26.2626 91.2907 26.2626 91.3953 26.2817ZM90.0872 26.396C90.0872 26.396 90.0523 26.396 90.0349 26.396C90.0349 26.396 90.0698 26.396 90.0872 26.396ZM90.4709 26.3198C90.4709 26.3198 90.3837 26.3198 90.3314 26.3389C90.3837 26.3389 90.4186 26.3389 90.4709 26.3198ZM91.0291 34.6865C90.907 34.6865 90.7849 34.6865 90.6802 34.6674C90.8023 34.6674 90.9244 34.6865 91.0291 34.6865C91.1337 34.6865 91.2733 34.6865 91.3779 34.6674C91.2558 34.6674 91.1337 34.6865 91.0291 34.6865ZM90.0349 34.534C90.0349 34.534 90.0698 34.534 90.0872 34.534C90.0872 34.534 90.0523 34.534 90.0349 34.534ZM90.3488 34.6103C90.3488 34.6103 90.436 34.6103 90.4884 34.6293C90.436 34.6293 90.4012 34.6293 90.3488 34.6103ZM91.9709 34.5531C91.9709 34.5531 92.0058 34.5531 92.0233 34.5531C92.0233 34.5531 91.9884 34.5531 91.9709 34.5531ZM91.5872 34.6293C91.5872 34.6293 91.6744 34.6293 91.7267 34.6103C91.6744 34.6103 91.6395 34.6103 91.5872 34.6293ZM91.0291 32.4376C90.0349 32.4376 89.2151 31.5609 89.2151 30.4746C89.2151 29.3882 90.0174 28.5115 91.0291 28.5115C92.0407 28.5115 92.8256 29.3882 92.8256 30.4746C92.8256 31.5609 92.0233 32.4376 91.0291 32.4376ZM91.9709 26.396C91.9709 26.396 92.0058 26.396 92.0233 26.396C92.0233 26.396 91.9884 26.396 91.9709 26.396ZM91.5872 26.3198C91.5872 26.3198 91.6744 26.3198 91.7267 26.3389C91.6744 26.3389 91.6395 26.3389 91.5872 26.3198ZM103.57 59.4054C103.448 59.4054 103.326 59.3863 103.221 59.3863C103.116 59.3863 102.977 59.3863 102.872 59.4054C102.994 59.4054 103.116 59.3863 103.221 59.3863C103.326 59.3863 103.465 59.3863 103.57 59.4054ZM102.262 59.5197C102.262 59.5197 102.227 59.5197 102.209 59.5197C102.209 59.5197 102.244 59.5197 102.262 59.5197ZM102.645 59.4435C102.645 59.4435 102.558 59.4435 102.506 59.4625C102.558 59.4625 102.593 59.4625 102.645 59.4435ZM103.203 67.8102C103.081 67.8102 102.959 67.8102 102.855 67.7911C102.977 67.7911 103.099 67.8102 103.203 67.8102C103.308 67.8102 103.448 67.8102 103.552 67.7911C103.43 67.7911 103.308 67.8102 103.203 67.8102ZM102.209 67.6577C102.209 67.6577 102.244 67.6577 102.262 67.6577C102.262 67.6577 102.227 67.6577 102.209 67.6577ZM102.523 67.7339C102.523 67.7339 102.61 67.7339 102.663 67.753C102.61 67.753 102.576 67.753 102.523 67.7339ZM104.145 67.6768C104.145 67.6768 104.18 67.6768 104.198 67.6768C104.198 67.6768 104.163 67.6768 104.145 67.6768ZM103.762 67.753C103.762 67.753 103.849 67.753 103.901 67.7339C103.849 67.7339 103.814 67.7339 103.762 67.753ZM103.203 65.5613C102.209 65.5613 101.407 64.6846 101.407 63.5982C101.407 62.5119 102.209 61.6162 103.203 61.6162C104.198 61.6162 105 62.4928 105 63.5982C105 64.7036 104.198 65.5613 103.203 65.5613ZM104.145 59.5197C104.145 59.5197 104.18 59.5197 104.198 59.5197C104.198 59.5197 104.163 59.5197 104.145 59.5197ZM103.762 59.4435C103.762 59.4435 103.849 59.4435 103.901 59.4625C103.849 59.4625 103.814 59.4625 103.762 59.4435ZM109.448 35.4869C109.57 35.4869 109.692 35.4869 109.797 35.506C109.674 35.506 109.552 35.4869 109.448 35.4869C109.343 35.4869 109.203 35.4869 109.099 35.506C109.221 35.506 109.343 35.4869 109.448 35.4869ZM110.442 35.6394C110.442 35.6394 110.407 35.6394 110.39 35.6394C110.407 35.6394 110.424 35.6394 110.442 35.6394ZM110.128 35.5632C110.128 35.5632 110.041 35.5632 109.988 35.5441C110.041 35.5441 110.076 35.5441 110.128 35.5632ZM108.488 35.6204C108.488 35.6204 108.453 35.6204 108.436 35.6204C108.436 35.6204 108.471 35.6204 108.488 35.6204ZM108.872 35.5441C108.872 35.5441 108.785 35.5441 108.733 35.5632C108.785 35.5632 108.82 35.5632 108.872 35.5441ZM109.43 37.7358C110.424 37.7358 111.227 38.6125 111.227 39.6989C111.227 40.7852 110.424 41.6619 109.43 41.6619C108.436 41.6619 107.616 40.7852 107.616 39.6989C107.616 38.6125 108.419 37.7358 109.43 37.7358ZM109.43 43.9108C109.308 43.9108 109.186 43.9108 109.081 43.8917C109.203 43.8917 109.326 43.9108 109.43 43.9108C109.535 43.9108 109.674 43.9108 109.779 43.8917C109.657 43.8917 109.535 43.9108 109.43 43.9108ZM108.436 43.7583C108.436 43.7583 108.471 43.7583 108.488 43.7583C108.488 43.7583 108.453 43.7583 108.436 43.7583ZM108.75 43.8346C108.75 43.8346 108.837 43.8346 108.89 43.8536C108.837 43.8536 108.802 43.8536 108.75 43.8346ZM110.424 43.7583C110.424 43.7583 110.39 43.7583 110.372 43.7583C110.39 43.7583 110.407 43.7583 110.424 43.7583ZM110.11 43.8346C110.11 43.8346 110.023 43.8346 109.971 43.8536C110.023 43.8536 110.058 43.8536 110.11 43.8346ZM122.093 53.1351C121.099 53.1351 120.297 52.2584 120.297 51.153C120.297 50.0476 121.099 49.19 122.093 49.19C123.087 49.19 123.89 50.0667 123.89 51.153C123.89 52.2394 123.087 53.1351 122.093 53.1351Z" fill="#4FB889"/>
</g>
<defs>
<clipPath id="clip0_1_1161">
<rect width="126" height="100" fill="white"/>
</clipPath>
</defs>
</svg>
