<svg width="113" height="66" viewBox="0 0 113 66" fill="none" xmlns="http://www.w3.org/2000/svg">
<g clip-path="url(#clip0_1_1184)">
<path d="M103.359 66H18.1675C12.8598 66 8.54028 61.6096 8.54028 56.2148V53.087H113V56.2148C113 61.6096 108.68 66 103.373 66H103.359ZM11.3635 55.9565V56.2148C11.3635 60.0313 14.4126 63.1305 18.1675 63.1305H103.359C107.114 63.1305 110.163 60.0313 110.163 56.2148V55.9565H11.3635Z" fill="#58B2E8"/>
<path d="M101.707 55.9565C100.931 55.9565 100.295 55.3109 100.295 54.5217V4.30435C100.295 3.51522 99.6602 2.86957 98.8838 2.86957H22.5718C21.7954 2.86957 21.1601 3.51522 21.1601 4.30435V28.6957C21.1601 29.4848 20.5249 30.1304 19.7485 30.1304C18.9721 30.1304 18.3369 29.4848 18.3369 28.6957V4.30435C18.3369 1.93696 20.2426 0 22.5718 0H98.8838C101.213 0 103.119 1.93696 103.119 4.30435V54.5217C103.119 55.3109 102.483 55.9565 101.707 55.9565Z" fill="#58B2E8"/>
<path d="M19.7485 55.9565C18.9721 55.9565 18.3369 55.3109 18.3369 54.5217V42.6848C18.3369 41.8957 18.9721 41.25 19.7485 41.25C20.5249 41.25 21.1601 41.8957 21.1601 42.6848V54.5217C21.1601 55.3109 20.5249 55.9565 19.7485 55.9565Z" fill="#58B2E8"/>
<path d="M96.0606 50.2174C95.2842 50.2174 94.649 49.5717 94.649 48.7826V8.6087H26.8913V11.4783C26.8913 12.2674 26.2561 12.913 25.4797 12.913C24.7033 12.913 24.0681 12.2674 24.0681 11.4783V7.17392C24.0681 6.38479 24.7033 5.73914 25.4797 5.73914H96.0606C96.837 5.73914 97.4722 6.38479 97.4722 7.17392V48.7826C97.4722 49.5717 96.837 50.2174 96.0606 50.2174Z" fill="#58B2E8"/>
<path d="M25.395 50.2174C24.6186 50.2174 23.9834 49.5717 23.9834 48.7826V35.8695C23.9834 35.0804 24.6186 34.4348 25.395 34.4348C26.1714 34.4348 26.8066 35.0804 26.8066 35.8695V48.7826C26.8066 49.5717 26.1714 50.2174 25.395 50.2174Z" fill="#58B2E8"/>
<path d="M29.1781 37.3043C28.4723 37.3043 27.8512 36.7591 27.7806 36.0274C27.6959 35.2383 28.2606 34.5352 29.037 34.4491C31.1826 34.2196 32.4813 32.0243 33.4412 30.4174C33.8506 29.7287 34.1611 29.1978 34.5423 28.8104C37.2808 25.783 39.8076 27.2178 40.8946 27.8204C40.9934 27.8778 41.0781 27.9209 41.1628 27.9783C41.798 27.677 43.8731 25.5248 47.1763 18.2648L47.2751 18.0639C47.6139 17.3465 48.4608 17.0452 49.1525 17.3896C49.8583 17.7339 50.1548 18.5948 49.816 19.2978L49.7454 19.47C44.0001 32.1248 41.4027 31.1491 40.2876 30.733C40.0052 30.6183 39.7794 30.4891 39.5253 30.3457C38.4807 29.7574 37.8455 29.3987 36.5891 30.8048C36.4197 30.9913 36.1092 31.4935 35.8692 31.9096C34.754 33.7891 32.9048 36.917 29.3475 37.3043C29.2911 37.3043 29.2487 37.3043 29.1922 37.3043H29.1781Z" fill="#4FB889"/>
<path d="M88.4378 41.6087C88.3249 41.6087 88.1979 41.5943 88.0849 41.5656C87.9861 41.5369 87.1391 41.3074 86.4898 40.9917C85.417 40.4609 84.7535 39.3274 84.0477 38.1222C83.2854 36.8309 82.509 35.4965 81.4503 35.3243C80.4904 35.1665 79.0788 35.8552 77.3708 37.3187C76.7779 37.8926 75.5921 38.1509 74.4064 37.8782C73.4465 37.663 71.6678 36.9313 70.6656 34.4204C70.1009 32.8135 68.7317 30.8191 68.167 30.7474C67.9835 30.7474 67.3342 31.0056 66.1202 33.4017C65.7814 34.0043 64.1157 36.7591 61.7583 36.96C60.9395 37.0317 59.7396 36.8165 58.6386 35.4248C57.4528 34.1622 55.8859 30.8478 53.9661 26.6439C53.4156 25.4387 52.9356 24.3913 52.5969 23.7169C52.4133 23.3152 51.8911 22.7269 51.4676 22.3682C50.8747 21.8517 50.8041 20.9478 51.2982 20.3452C51.8064 19.7426 52.6957 19.6709 53.2886 20.173C53.5991 20.4456 54.6437 21.3926 55.1237 22.44C55.4483 23.0713 55.9424 24.1617 56.5212 25.41C57.7916 28.1935 59.7255 32.3974 60.756 33.5165C61.0948 33.9326 61.3207 34.1191 61.5183 34.0761C62.1112 34.033 63.0993 32.9713 63.6357 32.01C64.6662 29.9869 66.0496 27.8491 68.2094 27.8491C71.3149 27.9352 73.2912 33.33 73.3053 33.373C73.6159 34.1335 74.0958 34.693 74.6746 34.9513C75.1122 35.1378 75.4792 35.0948 75.5921 35.0661C78.0342 33 80.0811 32.1535 81.9162 32.4835C84.2594 32.8852 85.4876 34.9656 86.4757 36.6443C86.8709 37.3187 87.4215 38.2513 87.732 38.4091C88.0708 38.5813 88.6213 38.7391 88.8049 38.7822C89.553 38.983 90.0047 39.7722 89.8071 40.5326C89.6377 41.1782 89.0731 41.6087 88.4378 41.6087ZM75.5356 35.0948C75.5356 35.0948 75.4933 35.1378 75.4651 35.1665C75.4933 35.1378 75.5215 35.1235 75.5356 35.0948Z" fill="#4FB889"/>
<path d="M39.7229 43.4165C34.0059 43.4165 28.4864 40.1883 25.7761 34.6357C23.941 30.8622 23.6587 26.5722 24.9856 22.5835C26.3126 18.5948 29.0934 15.3665 32.806 13.487C40.4852 9.62742 49.8019 12.8413 53.5991 20.6322C57.3964 28.4374 54.2344 37.907 46.5693 41.7666C44.3671 42.8713 42.0239 43.4022 39.7088 43.4022L39.7229 43.4165ZM34.0623 16.0696C27.7806 19.2261 25.1974 26.9883 28.3029 33.3587C29.8134 36.4435 32.4107 38.7535 35.6151 39.8583C38.8336 40.9631 42.278 40.7335 45.3129 39.1983C51.5946 36.0418 54.1779 28.2796 51.0723 21.9092C47.9668 15.5244 40.3299 12.9131 34.0623 16.0552V16.0696Z" fill="#4FB889"/>
<path d="M18.5345 40.1596C18.0122 40.1596 17.5182 39.8726 17.2641 39.3705C16.9112 38.6531 17.2076 37.8066 17.8993 37.4479L26.5243 33.0861C27.216 32.7274 28.063 33.0287 28.4159 33.7318C28.7688 34.4492 28.4723 35.2957 27.7806 35.6544L19.1557 40.0161C18.958 40.1166 18.7463 40.1596 18.5345 40.1596Z" fill="#4FB889"/>
<path d="M5.66059 50.9205C5.0536 50.9205 4.4466 50.82 3.83961 50.6192C2.41387 50.1313 1.25635 49.0983 0.592888 47.7209C-0.0705727 46.3435 -0.183502 44.7939 0.310564 43.3448C0.790514 41.8957 1.80688 40.7192 3.16203 40.0448L15.8101 33.6887C16.5159 33.33 17.3488 33.6313 17.7017 34.3344L21.4566 42.0535C21.626 42.3978 21.6542 42.7852 21.5272 43.1439C21.4142 43.5026 21.146 43.8039 20.8214 43.9761L8.17327 50.3322C7.38277 50.7339 6.5358 50.9348 5.67471 50.9348L5.66059 50.9205ZM15.796 36.8883L4.40425 42.6131C3.72668 42.9574 3.2185 43.5457 2.97852 44.2631C2.73855 44.9948 2.79501 45.7696 3.11968 46.4583C3.45847 47.147 4.03723 47.6635 4.74304 47.9074C5.46297 48.1513 6.22524 48.0939 6.90282 47.7639L18.2946 42.0392L15.796 36.9026V36.8883Z" fill="#4FB889"/>
</g>
<defs>
<clipPath id="clip0_1_1184">
<rect width="113" height="66" fill="white"/>
</clipPath>
</defs>
</svg>
