<svg width="71" height="70" viewBox="0 0 71 70" fill="none" xmlns="http://www.w3.org/2000/svg">
<g clip-path="url(#clip0_1_1083)">
<path d="M32.5417 67.0833V37.9167C32.5417 34.6938 29.8939 32.0833 26.625 32.0833H7.39582C4.12686 32.0833 1.47916 34.6938 1.47916 37.9167V67.0833" stroke="#58B2E8" stroke-width="3" stroke-miterlimit="10"/>
<path d="M69.5208 67.0833V37.9167C69.5208 34.6938 66.8731 32.0833 63.6042 32.0833H44.375C41.1061 32.0833 38.4583 34.6938 38.4583 37.9167V67.0833" stroke="#58B2E8" stroke-width="3" stroke-miterlimit="10"/>
<path d="M7.39584 42.2917V70" stroke="#58B2E8" stroke-width="3" stroke-miterlimit="10"/>
<path d="M26.625 42.2917V70" stroke="#58B2E8" stroke-width="3" stroke-miterlimit="10"/>
<path d="M44.375 42.2917V70" stroke="#58B2E8" stroke-width="3" stroke-miterlimit="10"/>
<path d="M63.6042 42.2917V70" stroke="#58B2E8" stroke-width="3" stroke-miterlimit="10"/>
<path d="M17.0104 20.4167C20.6866 20.4167 23.6667 17.4785 23.6667 13.8542C23.6667 10.2298 20.6866 7.29166 17.0104 7.29166C13.3343 7.29166 10.3542 10.2298 10.3542 13.8542C10.3542 17.4785 13.3343 20.4167 17.0104 20.4167Z" stroke="#58B2E8" stroke-width="3" stroke-miterlimit="10"/>
<path d="M7.39584 62.7083H26.625" stroke="#58B2E8" stroke-width="3" stroke-miterlimit="10"/>
<path d="M44.375 62.7083H63.6042" stroke="#58B2E8" stroke-width="3" stroke-miterlimit="10"/>
<path d="M53.9896 20.4167C57.6657 20.4167 60.6458 17.4785 60.6458 13.8542C60.6458 10.2298 57.6657 7.29166 53.9896 7.29166C50.3134 7.29166 47.3333 10.2298 47.3333 13.8542C47.3333 17.4785 50.3134 20.4167 53.9896 20.4167Z" stroke="#58B2E8" stroke-width="3" stroke-miterlimit="10"/>
<path d="M22.1875 1.45834H25.1458" stroke="#4FB889" stroke-width="3" stroke-miterlimit="10"/>
<path d="M28.1042 1.45834H31.0625" stroke="#4FB889" stroke-width="3" stroke-miterlimit="10"/>
<path d="M34.0208 1.45834H36.9792" stroke="#4FB889" stroke-width="3" stroke-miterlimit="10"/>
<path d="M39.9375 1.45834H42.8958" stroke="#4FB889" stroke-width="3" stroke-miterlimit="10"/>
<path d="M45.8542 1.45834H48.8125" stroke="#4FB889" stroke-width="3" stroke-miterlimit="10"/>
<path d="M22.1875 26.25H25.1458" stroke="#4FB889" stroke-width="3" stroke-miterlimit="10"/>
<path d="M28.1042 26.25H31.0625" stroke="#4FB889" stroke-width="3" stroke-miterlimit="10"/>
<path d="M34.0208 26.25H36.9792" stroke="#4FB889" stroke-width="3" stroke-miterlimit="10"/>
<path d="M39.9375 26.25H42.8958" stroke="#4FB889" stroke-width="3" stroke-miterlimit="10"/>
<path d="M45.8542 26.25H48.8125" stroke="#4FB889" stroke-width="3" stroke-miterlimit="10"/>
<path d="M19.2292 26.25H17.0104C10.0731 26.25 4.4375 20.6938 4.4375 13.8542C4.4375 7.01459 10.0731 1.45834 17.0104 1.45834H19.2292" stroke="#4FB889" stroke-width="3" stroke-miterlimit="10"/>
<path d="M51.7708 26.25H53.9896C60.9269 26.25 66.5625 20.6938 66.5625 13.8542C66.5625 7.01459 60.9269 1.45834 53.9896 1.45834H51.7708" stroke="#4FB889" stroke-width="3" stroke-miterlimit="10"/>
</g>
<defs>
<clipPath id="clip0_1_1083">
<rect width="71" height="70" fill="white"/>
</clipPath>
</defs>
</svg>
