<svg width="86" height="71" viewBox="0 0 86 71" fill="none" xmlns="http://www.w3.org/2000/svg">
<g clip-path="url(#clip0_1_1200)">
<path d="M42.7944 41.0404C38.5886 41.0404 35.1788 37.6323 35.1788 33.4248C35.1788 29.2172 38.5886 25.8092 42.7944 25.8092C47.0003 25.8092 50.41 29.2206 50.41 33.4248C50.41 37.629 47.0003 41.0404 42.7944 41.0404Z" stroke="#4FB889" stroke-width="3" stroke-linecap="round" stroke-linejoin="round"/>
<path d="M48.8513 59.2866V52.7039" stroke="#4FB889" stroke-width="3" stroke-linecap="round" stroke-linejoin="round"/>
<path d="M36.7358 52.7039V59.2849" stroke="#4FB889" stroke-width="3" stroke-linecap="round" stroke-linejoin="round"/>
<path d="M31.376 59.2865V53.275C31.376 48.7063 35.0797 45.001 39.6501 45.001H45.9387C50.5074 45.001 54.2127 48.7047 54.2127 53.275V59.2865" stroke="#4FB889" stroke-width="3" stroke-linecap="round" stroke-linejoin="round"/>
<path d="M8.65524 42.7318C4.59045 42.7318 1.29663 39.4397 1.29663 35.3749C1.29663 31.3101 4.59045 28.0179 8.65524 28.0179C12.72 28.0179 16.0122 31.3134 16.0122 35.3749C16.0122 39.4363 12.7183 42.7318 8.65524 42.7318Z" stroke="#4FB889" stroke-width="3" stroke-linecap="round" stroke-linejoin="round"/>
<path d="M14.5056 69.0017V66.5158V64.087" stroke="#4FB889" stroke-width="3" stroke-linecap="round" stroke-linejoin="round"/>
<path d="M9.64288 53.5219L10.6893 55.7139C11.724 57.8823 13.9445 59.2849 16.3481 59.2849H22.1127C23.443 59.2849 24.523 58.2065 24.523 56.8745C24.523 55.5426 23.4447 54.4642 22.1127 54.4642H16.3481C15.7921 54.4642 15.2782 54.14 15.038 53.6378L13.0895 49.5529C11.8634 46.8923 9.97881 46.5547 7.84732 46.5547C5.06075 46.5547 2.79993 48.8138 2.79993 51.6004V62.1033C2.79993 62.1033 2.79993 62.105 2.79993 62.1067V68.9984" stroke="#4FB889" stroke-width="3" stroke-linecap="round" stroke-linejoin="round"/>
<path d="M63.036 69.0017H22.5527C21.1956 69.0017 20.0954 67.9016 20.0954 66.5444C20.0954 65.1872 21.1956 64.087 22.5527 64.087H63.036C64.3932 64.087 65.4934 65.1872 65.4934 66.5444C65.4934 67.9016 64.3932 69.0017 63.036 69.0017Z" stroke="#4FB889" stroke-width="3" stroke-linecap="round" stroke-linejoin="round"/>
<path d="M76.9336 42.7318C80.9984 42.7318 84.2922 39.4397 84.2922 35.3749C84.2922 31.3101 80.9984 28.0179 76.9336 28.0179C72.8688 28.0179 69.5767 31.3134 69.5767 35.3749C69.5767 39.4363 72.8705 42.7318 76.9336 42.7318Z" stroke="#4FB889" stroke-width="3" stroke-linecap="round" stroke-linejoin="round"/>
<path d="M71.0833 69.0017V66.5158V64.087" stroke="#4FB889" stroke-width="3" stroke-linecap="round" stroke-linejoin="round"/>
<path d="M75.9459 53.5219L74.8995 55.7139C73.8648 57.8823 71.6443 59.2849 69.2407 59.2849H63.4761C62.1458 59.2849 61.0658 58.2065 61.0658 56.8745C61.0658 55.5426 62.1441 54.4642 63.4761 54.4642H69.2407C69.7967 54.4642 70.3107 54.14 70.5509 53.6378L72.4993 49.5529C73.7254 46.8923 75.61 46.5547 77.7415 46.5547C80.5281 46.5547 82.7889 48.8138 82.7889 51.6004V62.1033C82.7889 62.1033 82.7889 62.105 82.7889 62.1067V68.9984" stroke="#4FB889" stroke-width="3" stroke-linecap="round" stroke-linejoin="round"/>
<path d="M15.7871 1.59512H36.2018C38.2442 1.59512 39.8987 3.24959 39.8987 5.29206V17.5586C39.8987 19.6011 38.2442 21.2556 36.2018 21.2556H28.4938C28.2452 21.2556 28.0436 21.4571 28.0436 21.7057V26.5297C28.0436 26.9312 27.5582 27.1311 27.276 26.8472L21.8154 21.3866C21.7315 21.3026 21.6172 21.2556 21.498 21.2556H15.7888C13.7463 21.2556 12.0919 19.6011 12.0919 17.5586V5.29206C12.0919 3.24959 13.7463 1.59512 15.7888 1.59512H15.7871Z" stroke="#58B2E8" stroke-width="3" stroke-linecap="round" stroke-linejoin="round"/>
<path d="M20.0333 11.4245H31.9572" stroke="#58B2E8" stroke-width="3" stroke-linecap="round" stroke-linejoin="round"/>
</g>
<defs>
<clipPath id="clip0_1_1200">
<rect width="85.589" height="70" fill="white" transform="translate(0 0.298462)"/>
</clipPath>
</defs>
</svg>
