<svg width="113" height="37" viewBox="0 0 113 37" fill="none" xmlns="http://www.w3.org/2000/svg">
<g clip-path="url(#clip0_1_788)">
<path d="M19.23 29.0535H15.5155C15.1735 28.4018 14.9321 27.5506 14.7913 26.4999C12.4177 28.5281 9.86311 29.5389 7.10734 29.5389C4.90809 29.5389 3.17148 28.9936 1.90423 27.903C0.636979 26.8125 0 25.3694 0 23.5806C0 21.7918 0.610158 20.4552 1.83718 19.3446C3.0642 18.2341 5.1897 17.496 8.21367 17.1302L11.5125 16.6448C12.7463 16.4519 13.7587 16.2125 14.5566 15.9266C14.5566 14.8759 14.5231 14.1311 14.4561 13.6989C14.389 13.2666 14.1946 12.8144 13.8794 12.3423C13.5643 11.8701 13.0413 11.4978 12.3373 11.2118C11.6332 10.9259 10.6811 10.7862 9.48763 10.7862C7.96558 10.7862 6.76538 11.0655 5.88032 11.6241C4.99525 12.1827 4.3918 13.2201 4.06325 14.7429L0.603453 14.2974C0.98564 12.1827 1.95787 10.5867 3.53355 9.52273C5.10924 8.45875 7.26826 7.92676 10.0173 7.92676C12.5183 7.92676 14.3555 8.2925 15.5289 9.03064C16.7022 9.76878 17.4197 10.6532 17.6879 11.6906C17.9561 12.728 18.0902 14.0646 18.0902 15.7071V20.4219C18.0902 23.2947 18.1438 25.2165 18.2578 26.2007C18.3718 27.1848 18.6936 28.1424 19.23 29.0734V29.0535ZM14.5566 19.9498V18.6863C12.7128 19.2981 10.4532 19.7835 7.77784 20.136C5.10253 20.4884 3.76823 21.6122 3.76823 23.4942C3.76823 24.4451 4.1303 25.2231 4.84774 25.8416C5.56518 26.46 6.60446 26.7659 7.95217 26.7659C9.69548 26.7659 11.2309 26.2472 12.5585 25.2165C13.8861 24.1857 14.5499 22.4302 14.5499 19.9498H14.5566Z" fill="white"/>
<path d="M36.8643 28.5613H33.5654V25.9279H33.485C32.2177 28.0027 30.2934 29.0467 27.732 29.0467C25.1707 29.0467 23.0452 28.0426 21.3354 26.0343C19.6256 24.0261 18.7741 21.426 18.7741 18.234C18.7741 15.0421 19.5787 12.2624 21.1879 10.3273C22.7971 8.39216 24.9293 7.42128 27.5711 7.42128C30.0587 7.42128 31.9495 8.36556 33.2503 10.2475H33.3307V0H36.8643V28.5613ZM28.1075 26.1607C29.6497 26.1607 30.9639 25.5289 32.0367 24.2721C33.1095 23.0153 33.6459 21.1001 33.6459 18.5465C33.6459 15.993 33.1564 14.018 32.1708 12.5284C31.1851 11.0388 29.7838 10.2874 27.9466 10.2874C26.1094 10.2874 24.7282 11.0189 23.7895 12.4818C22.8508 13.9448 22.3881 15.86 22.3881 18.2407C22.3881 19.9563 22.6429 21.406 23.1458 22.5963C23.6487 23.7867 24.3527 24.6777 25.2579 25.2762C26.1631 25.8747 27.1085 26.174 28.1075 26.174V26.1607Z" fill="white"/>
<path d="M56.738 29.0535H53.0234C52.6815 28.4018 52.4401 27.5506 52.2993 26.4999C49.9257 28.5281 47.3711 29.5389 44.6153 29.5389C42.4161 29.5389 40.6795 28.9936 39.4122 27.903C38.145 26.8125 37.508 25.3694 37.508 23.5806C37.508 21.7918 38.1181 20.4552 39.3452 19.3446C40.5722 18.2341 42.6977 17.496 45.7217 17.1302L49.0205 16.6448C50.2543 16.4519 51.2667 16.2125 52.0646 15.9266C52.0646 14.8759 52.0311 14.1311 51.964 13.6989C51.897 13.2666 51.7025 12.8144 51.3874 12.3423C51.0723 11.8701 50.5493 11.4978 49.8452 11.2118C49.1412 10.9259 48.1891 10.7862 46.9956 10.7862C45.4736 10.7862 44.2734 11.0655 43.3883 11.6241C42.5032 12.1827 41.8998 13.2201 41.5712 14.7429L38.1114 14.2974C38.4936 12.1827 39.4659 10.5867 41.0415 9.52273C42.6172 8.45875 44.7762 7.92676 47.5253 7.92676C50.0263 7.92676 51.8635 8.2925 53.0368 9.03064C54.2102 9.76878 54.9277 10.6532 55.1959 11.6906C55.4641 12.728 55.5982 14.0646 55.5982 15.7071V20.4219C55.5982 23.2947 55.6518 25.2165 55.7658 26.2007C55.8798 27.1848 56.2016 28.1424 56.738 29.0734V29.0535ZM52.0646 19.9498V18.6863C50.2207 19.2981 47.9611 19.7835 45.2858 20.136C42.6105 20.4884 41.2762 21.6122 41.2762 23.4942C41.2762 24.4451 41.6383 25.2231 42.3557 25.8416C43.0732 26.46 44.1124 26.7659 45.4602 26.7659C47.2035 26.7659 48.7389 26.2472 50.0665 25.2165C51.3941 24.1857 52.0579 22.4302 52.0579 19.9498H52.0646Z" fill="white"/>
<path d="M113 29.0535H109.285C108.943 28.4018 108.702 27.5506 108.561 26.4999C106.188 28.5281 103.633 29.5389 100.877 29.5389C98.678 29.5389 96.9414 28.9936 95.6742 27.903C94.4069 26.8125 93.77 25.3694 93.77 23.5806C93.77 21.7918 94.3801 20.4552 95.6071 19.3446C96.8342 18.2341 98.9597 17.496 101.984 17.1302L105.283 16.6448C106.516 16.4519 107.529 16.2125 108.327 15.9266C108.327 14.8759 108.293 14.1311 108.226 13.6989C108.159 13.2666 107.965 12.8144 107.649 12.3423C107.334 11.8701 106.811 11.4978 106.107 11.2118C105.403 10.9259 104.451 10.7862 103.258 10.7862C101.736 10.7862 100.535 11.0655 99.6503 11.6241C98.7652 12.1827 98.1618 13.2201 97.8332 14.7429L94.3734 14.2974C94.7556 12.1827 95.7278 10.5867 97.3035 9.52273C98.8792 8.45875 101.038 7.92676 103.787 7.92676C106.288 7.92676 108.125 8.2925 109.299 9.03064C110.472 9.76878 111.19 10.6532 111.458 11.6906C111.726 12.728 111.86 14.0646 111.86 15.7071V20.4219C111.86 23.2947 111.914 25.2165 112.028 26.2007C112.142 27.1848 112.464 28.1424 113 29.0734V29.0535ZM108.32 19.9498V18.6863C106.476 19.2981 104.216 19.7835 101.541 20.136C98.8658 20.4884 97.5315 21.6122 97.5315 23.4942C97.5315 24.4451 97.8936 25.2231 98.611 25.8416C99.3284 26.46 100.368 26.7659 101.715 26.7659C103.459 26.7659 104.994 26.2472 106.322 25.2165C107.649 24.1857 108.313 22.4302 108.313 19.9498H108.32Z" fill="white"/>
<path fill-rule="evenodd" clip-rule="evenodd" d="M82.472 15.2949C84.7496 15.7281 89.4536 19.7678 88.338 22.169C87.8825 23.1294 86.7483 23.5438 85.8001 23.0918C84.48 22.4609 84.7217 21.491 84.9262 20.4081C85.0099 19.9843 85.326 17.602 82.472 15.3043" fill="white"/>
<path d="M89.5324 8.37891V19.4244C89.5324 22.3104 88.9423 24.2056 87.7622 25.1233C86.5822 26.041 85.3283 26.4999 83.994 26.4999C82.9614 26.4999 82.0697 26.2405 81.3254 25.7285C80.5811 25.2164 80.1185 24.5647 79.9375 23.7734C79.7564 22.9821 79.6693 21.672 79.6693 19.8367V15.5741C78.7574 15.5275 77.7918 15.5475 76.7593 15.6738C76.5514 15.7004 76.3436 15.7137 76.1357 15.727V21.1999C76.1357 23.0685 76.3436 24.5913 76.7526 25.7684C77.1616 26.9454 77.993 27.8631 79.2267 28.5347C80.4605 29.2064 81.8082 29.5389 83.2632 29.5389C86.0256 29.5389 88.2048 29.6918 89.8073 27.3444L89.9078 29.0534H93.0726V8.37891H89.5391H89.5324Z" fill="white"/>
<path d="M63.3224 7.93311C60.6538 8.69784 60.1308 9.00374 58.6356 10.8657C57.0532 12.8341 56.262 15.3943 56.262 18.553C56.262 21.9178 57.1336 24.5911 58.8836 26.5728C60.6337 28.5544 62.7927 29.5453 65.354 29.5453C67.5801 29.5453 69.377 28.6608 70.7382 26.8986H70.8186V37.0131H74.3522V15.7002C72.9776 15.5738 71.6702 15.2081 70.4699 14.6162C70.946 15.8265 71.1874 17.2297 71.1874 18.8389C71.1874 21.3991 70.6711 23.3409 69.6385 24.6642C68.606 25.9876 67.2582 26.6526 65.5887 26.6526C64.5293 26.6526 63.5503 26.3533 62.6586 25.7482C61.7668 25.143 61.0829 24.2386 60.5934 23.0284C60.104 21.8181 59.8693 20.3285 59.8693 18.5463C59.8693 16.0127 60.3923 14.0643 61.4316 12.7011C62.4708 11.3379 63.8051 10.6529 65.4278 10.6529" fill="white"/>
<path d="M63.9057 -0.664737C63.9057 -0.664737 66.3665 9.17045 76.6721 8.89116C86.9778 8.61186 88.3121 16.7247 88.3121 16.7247C88.3121 16.7247 84.1147 12.8013 76.7526 13.6724C69.3905 14.5436 63.0542 8.41237 63.9057 -0.671387V-0.664737Z" fill="white"/>
</g>
<defs>
<clipPath id="clip0_1_788">
<rect width="113" height="37" fill="white"/>
</clipPath>
</defs>
</svg>
