<svg width="537" height="458" viewBox="0 0 537 458" fill="none" xmlns="http://www.w3.org/2000/svg">
<path d="M77.7615 18.5C77.7615 8.28273 86.0442 0 96.2615 0H208.261C218.479 0 226.761 8.28273 226.761 18.5V18.5C226.761 28.7173 218.479 37 208.261 37H96.2615C86.0442 37 77.7615 28.7173 77.7615 18.5V18.5Z" fill="white"/>
<path d="M93.7893 12.2H97.4013C98.3253 12.2 99.0953 12.508 99.7113 13.124C100.337 13.74 100.649 14.5053 100.649 15.42C100.649 16.3253 100.337 17.0907 99.7113 17.716C99.0953 18.332 98.3253 18.64 97.4013 18.64H95.3993V22H93.7893V12.2ZM95.3993 17.128H97.4013C97.8773 17.128 98.2693 16.9693 98.5773 16.652C98.8853 16.3253 99.0393 15.9147 99.0393 15.42C99.0393 14.9253 98.8853 14.5193 98.5773 14.202C98.2693 13.8753 97.8773 13.712 97.4013 13.712H95.3993V17.128ZM103.461 22H101.949V11.78H103.461V22ZM110.761 15.994V15H112.273V22H110.761V20.992C110.191 21.7853 109.375 22.182 108.311 22.182C107.349 22.182 106.528 21.8273 105.847 21.118C105.165 20.4087 104.825 19.536 104.825 18.5C104.825 17.464 105.165 16.5913 105.847 15.882C106.528 15.1727 107.349 14.818 108.311 14.818C109.375 14.818 110.191 15.21 110.761 15.994ZM106.967 20.11C107.387 20.53 107.914 20.74 108.549 20.74C109.183 20.74 109.711 20.53 110.131 20.11C110.551 19.6807 110.761 19.144 110.761 18.5C110.761 17.856 110.551 17.324 110.131 16.904C109.711 16.4747 109.183 16.26 108.549 16.26C107.914 16.26 107.387 16.4747 106.967 16.904C106.547 17.324 106.337 17.856 106.337 18.5C106.337 19.1347 106.547 19.6713 106.967 20.11ZM117.717 14.818C118.529 14.818 119.178 15.0793 119.663 15.602C120.158 16.1153 120.405 16.8153 120.405 17.702V22H118.893V17.856C118.893 17.3333 118.753 16.932 118.473 16.652C118.193 16.372 117.81 16.232 117.325 16.232C116.774 16.232 116.34 16.4047 116.023 16.75C115.706 17.086 115.547 17.5853 115.547 18.248V22H114.035V15H115.547V15.896C116.014 15.1773 116.737 14.818 117.717 14.818ZM125.939 15V16.456H124.203V19.816C124.203 20.1053 124.268 20.3153 124.399 20.446C124.53 20.5673 124.721 20.6373 124.973 20.656C125.234 20.6653 125.556 20.6607 125.939 20.642V22C124.782 22.14 123.951 22.042 123.447 21.706C122.943 21.3607 122.691 20.7307 122.691 19.816V16.456H121.403V15H122.691V13.488L124.203 13.04V15H125.939ZM132.52 18.472H127.34V17.016H132.52V18.472ZM140.245 16.918C140.674 17.142 141.01 17.4547 141.253 17.856C141.495 18.248 141.617 18.696 141.617 19.2C141.617 20.0027 141.332 20.67 140.763 21.202C140.193 21.734 139.498 22 138.677 22H134.477V12.2H138.369C139.171 12.2 139.848 12.4613 140.399 12.984C140.959 13.5067 141.239 14.1507 141.239 14.916C141.239 15.756 140.907 16.4233 140.245 16.918ZM138.369 13.712H136.087V16.288H138.369C138.723 16.288 139.022 16.1667 139.265 15.924C139.507 15.672 139.629 15.364 139.629 15C139.629 14.636 139.507 14.3327 139.265 14.09C139.022 13.838 138.723 13.712 138.369 13.712ZM136.087 20.488H138.677C139.05 20.488 139.363 20.3573 139.615 20.096C139.876 19.8253 140.007 19.4987 140.007 19.116C140.007 18.7333 139.876 18.4113 139.615 18.15C139.363 17.8793 139.05 17.744 138.677 17.744H136.087V20.488ZM148.536 15.994V15H150.048V22H148.536V20.992C147.967 21.7853 147.15 22.182 146.086 22.182C145.125 22.182 144.303 21.8273 143.622 21.118C142.941 20.4087 142.6 19.536 142.6 18.5C142.6 17.464 142.941 16.5913 143.622 15.882C144.303 15.1727 145.125 14.818 146.086 14.818C147.15 14.818 147.967 15.21 148.536 15.994ZM144.742 20.11C145.162 20.53 145.689 20.74 146.324 20.74C146.959 20.74 147.486 20.53 147.906 20.11C148.326 19.6807 148.536 19.144 148.536 18.5C148.536 17.856 148.326 17.324 147.906 16.904C147.486 16.4747 146.959 16.26 146.324 16.26C145.689 16.26 145.162 16.4747 144.742 16.904C144.322 17.324 144.112 17.856 144.112 18.5C144.112 19.1347 144.322 19.6713 144.742 20.11ZM153.127 16.932C153.127 17.1467 153.239 17.324 153.463 17.464C153.687 17.5947 154.014 17.7207 154.443 17.842C154.77 17.9167 155.055 17.996 155.297 18.08C155.54 18.164 155.797 18.29 156.067 18.458C156.338 18.6167 156.543 18.8313 156.683 19.102C156.833 19.3633 156.903 19.6713 156.893 20.026C156.893 20.698 156.632 21.2253 156.109 21.608C155.587 21.9907 154.938 22.182 154.163 22.182C153.473 22.182 152.88 22.0373 152.385 21.748C151.891 21.4587 151.531 21.0573 151.307 20.544L152.609 19.788C152.843 20.46 153.361 20.796 154.163 20.796C154.957 20.796 155.353 20.5347 155.353 20.012C155.353 19.6293 154.91 19.3307 154.023 19.116C153.687 19.032 153.403 18.948 153.169 18.864C152.945 18.78 152.693 18.6587 152.413 18.5C152.143 18.3413 151.933 18.1313 151.783 17.87C151.643 17.6087 151.578 17.3053 151.587 16.96C151.587 16.316 151.83 15.798 152.315 15.406C152.81 15.014 153.421 14.818 154.149 14.818C154.728 14.818 155.241 14.9487 155.689 15.21C156.147 15.462 156.497 15.8167 156.739 16.274L155.465 16.988C155.232 16.456 154.793 16.19 154.149 16.19C153.851 16.19 153.603 16.2553 153.407 16.386C153.221 16.5167 153.127 16.6987 153.127 16.932ZM164.807 19.144H159.235C159.347 19.6667 159.599 20.0727 159.991 20.362C160.392 20.6513 160.887 20.796 161.475 20.796C162.268 20.796 162.87 20.5067 163.281 19.928L164.527 20.656C163.846 21.6733 162.824 22.182 161.461 22.182C160.332 22.182 159.412 21.8367 158.703 21.146C158.003 20.446 157.653 19.564 157.653 18.5C157.653 17.464 157.998 16.5913 158.689 15.882C159.37 15.1727 160.257 14.818 161.349 14.818C162.366 14.818 163.206 15.1773 163.869 15.896C164.532 16.6147 164.863 17.4873 164.863 18.514C164.863 18.7007 164.844 18.9107 164.807 19.144ZM159.221 17.912H163.337C163.234 17.3613 163.001 16.9367 162.637 16.638C162.282 16.3393 161.848 16.19 161.335 16.19C160.775 16.19 160.308 16.344 159.935 16.652C159.562 16.96 159.324 17.38 159.221 17.912ZM171.696 15.994V12.2H173.208V22H171.696V20.992C171.127 21.7853 170.31 22.182 169.246 22.182C168.285 22.182 167.464 21.8273 166.782 21.118C166.101 20.4087 165.76 19.536 165.76 18.5C165.76 17.464 166.101 16.5913 166.782 15.882C167.464 15.1727 168.285 14.818 169.246 14.818C170.31 14.818 171.127 15.21 171.696 15.994ZM167.902 20.11C168.322 20.53 168.85 20.74 169.484 20.74C170.119 20.74 170.646 20.53 171.066 20.11C171.486 19.6807 171.696 19.144 171.696 18.5C171.696 17.856 171.486 17.324 171.066 16.904C170.646 16.4747 170.119 16.26 169.484 16.26C168.85 16.26 168.322 16.4747 167.902 16.904C167.482 17.324 167.272 17.856 167.272 18.5C167.272 19.1347 167.482 19.6713 167.902 20.11ZM183.203 22.182C181.728 22.182 180.505 21.6967 179.535 20.726C178.564 19.7367 178.079 18.528 178.079 17.1C178.079 15.6627 178.564 14.4587 179.535 13.488C180.496 12.508 181.719 12.018 183.203 12.018C184.089 12.018 184.906 12.228 185.653 12.648C186.409 13.068 186.997 13.6373 187.417 14.356L186.017 15.168C185.755 14.6827 185.373 14.3 184.869 14.02C184.374 13.7307 183.819 13.586 183.203 13.586C182.167 13.586 181.317 13.9173 180.655 14.58C180.011 15.2333 179.689 16.0733 179.689 17.1C179.689 18.1267 180.011 18.9667 180.655 19.62C181.317 20.2827 182.167 20.614 183.203 20.614C183.819 20.614 184.379 20.474 184.883 20.194C185.387 19.9047 185.765 19.5173 186.017 19.032L187.417 19.83C187.015 20.5393 186.432 21.1133 185.667 21.552C184.929 21.972 184.108 22.182 183.203 22.182ZM194.186 15.994V15H195.698V22H194.186V20.992C193.617 21.7853 192.8 22.182 191.736 22.182C190.775 22.182 189.954 21.8273 189.272 21.118C188.591 20.4087 188.25 19.536 188.25 18.5C188.25 17.464 188.591 16.5913 189.272 15.882C189.954 15.1727 190.775 14.818 191.736 14.818C192.8 14.818 193.617 15.21 194.186 15.994ZM190.392 20.11C190.812 20.53 191.34 20.74 191.974 20.74C192.609 20.74 193.136 20.53 193.556 20.11C193.976 19.6807 194.186 19.144 194.186 18.5C194.186 17.856 193.976 17.324 193.556 16.904C193.136 16.4747 192.609 16.26 191.974 16.26C191.34 16.26 190.812 16.4747 190.392 16.904C189.972 17.324 189.762 17.856 189.762 18.5C189.762 19.1347 189.972 19.6713 190.392 20.11ZM201.423 14.818C202.375 14.818 203.196 15.1773 203.887 15.896C204.568 16.6053 204.909 17.4733 204.909 18.5C204.909 19.536 204.568 20.4087 203.887 21.118C203.206 21.8273 202.384 22.182 201.423 22.182C200.368 22.182 199.552 21.79 198.973 21.006V24.8H197.461V15H198.973V16.008C199.542 15.2147 200.359 14.818 201.423 14.818ZM199.603 20.11C200.023 20.53 200.55 20.74 201.185 20.74C201.82 20.74 202.347 20.53 202.767 20.11C203.187 19.6807 203.397 19.144 203.397 18.5C203.397 17.856 203.187 17.324 202.767 16.904C202.347 16.4747 201.82 16.26 201.185 16.26C200.55 16.26 200.023 16.4747 199.603 16.904C199.183 17.324 198.973 17.856 198.973 18.5C198.973 19.1347 199.183 19.6713 199.603 20.11ZM207.5 16.932C207.5 17.1467 207.612 17.324 207.836 17.464C208.06 17.5947 208.387 17.7207 208.816 17.842C209.143 17.9167 209.428 17.996 209.67 18.08C209.913 18.164 210.17 18.29 210.44 18.458C210.711 18.6167 210.916 18.8313 211.056 19.102C211.206 19.3633 211.276 19.6713 211.266 20.026C211.266 20.698 211.005 21.2253 210.482 21.608C209.96 21.9907 209.311 22.182 208.536 22.182C207.846 22.182 207.253 22.0373 206.758 21.748C206.264 21.4587 205.904 21.0573 205.68 20.544L206.982 19.788C207.216 20.46 207.734 20.796 208.536 20.796C209.33 20.796 209.726 20.5347 209.726 20.012C209.726 19.6293 209.283 19.3307 208.396 19.116C208.06 19.032 207.776 18.948 207.542 18.864C207.318 18.78 207.066 18.6587 206.786 18.5C206.516 18.3413 206.306 18.1313 206.156 17.87C206.016 17.6087 205.951 17.3053 205.96 16.96C205.96 16.316 206.203 15.798 206.688 15.406C207.183 15.014 207.794 14.818 208.522 14.818C209.101 14.818 209.614 14.9487 210.062 15.21C210.52 15.462 210.87 15.8167 211.112 16.274L209.838 16.988C209.605 16.456 209.166 16.19 208.522 16.19C208.224 16.19 207.976 16.2553 207.78 16.386C207.594 16.5167 207.5 16.6987 207.5 16.932Z" fill="#1E4F8D"/>
<path d="M2.76147 226.5C2.76147 216.283 11.0442 208 21.2615 208H130.261C140.479 208 148.761 216.283 148.761 226.5V226.5C148.761 236.717 140.479 245 130.261 245H21.2615C11.0442 245 2.76147 236.717 2.76147 226.5V226.5Z" fill="#8CB3E4"/>
<path d="M18.2345 221.11L20.8105 220.2H22.2105V230H20.6005V221.922L18.6265 222.482L18.2345 221.11ZM30.4995 228.796C29.8275 229.72 28.8848 230.182 27.6715 230.182C26.4675 230.182 25.5201 229.72 24.8295 228.796C24.1575 227.872 23.8215 226.64 23.8215 225.1C23.8215 223.56 24.1575 222.328 24.8295 221.404C25.5201 220.48 26.4675 220.018 27.6715 220.018C28.8848 220.018 29.8275 220.48 30.4995 221.404C31.1808 222.319 31.5215 223.551 31.5215 225.1C31.5215 226.649 31.1808 227.881 30.4995 228.796ZM27.6715 228.614C28.3995 228.614 28.9548 228.311 29.3375 227.704C29.7201 227.097 29.9115 226.229 29.9115 225.1C29.9115 223.971 29.7201 223.103 29.3375 222.496C28.9548 221.889 28.3995 221.586 27.6715 221.586C26.9528 221.586 26.3975 221.889 26.0055 222.496C25.6228 223.103 25.4315 223.971 25.4315 225.1C25.4315 226.229 25.6228 227.097 26.0055 227.704C26.3975 228.311 26.9528 228.614 27.6715 228.614ZM39.3178 228.796C38.6458 229.72 37.7032 230.182 36.4898 230.182C35.2858 230.182 34.3385 229.72 33.6478 228.796C32.9758 227.872 32.6398 226.64 32.6398 225.1C32.6398 223.56 32.9758 222.328 33.6478 221.404C34.3385 220.48 35.2858 220.018 36.4898 220.018C37.7032 220.018 38.6458 220.48 39.3178 221.404C39.9992 222.319 40.3398 223.551 40.3398 225.1C40.3398 226.649 39.9992 227.881 39.3178 228.796ZM36.4898 228.614C37.2178 228.614 37.7732 228.311 38.1558 227.704C38.5385 227.097 38.7298 226.229 38.7298 225.1C38.7298 223.971 38.5385 223.103 38.1558 222.496C37.7732 221.889 37.2178 221.586 36.4898 221.586C35.7712 221.586 35.2158 221.889 34.8238 222.496C34.4412 223.103 34.2498 223.971 34.2498 225.1C34.2498 226.229 34.4412 227.097 34.8238 227.704C35.2158 228.311 35.7712 228.614 36.4898 228.614ZM45.2448 220.662C45.6834 221.101 45.9028 221.633 45.9028 222.258C45.9028 222.883 45.6834 223.415 45.2448 223.854C44.8154 224.283 44.2741 224.498 43.6208 224.498C42.9581 224.498 42.4121 224.283 41.9828 223.854C41.5441 223.415 41.3248 222.883 41.3248 222.258C41.3248 221.642 41.5441 221.115 41.9828 220.676C42.4214 220.237 42.9674 220.018 43.6208 220.018C44.2741 220.018 44.8154 220.233 45.2448 220.662ZM43.6068 223.266C43.9054 223.266 44.1481 223.173 44.3348 222.986C44.5214 222.79 44.6148 222.547 44.6148 222.258C44.6148 221.969 44.5214 221.726 44.3348 221.53C44.1481 221.334 43.9054 221.236 43.6068 221.236C43.3174 221.236 43.0794 221.334 42.8928 221.53C42.7061 221.726 42.6128 221.969 42.6128 222.258C42.6128 222.538 42.7061 222.776 42.8928 222.972C43.0888 223.168 43.3268 223.266 43.6068 223.266ZM42.9068 229.006L42.1508 228.558L48.6048 221.376L49.3608 221.81L42.9068 229.006ZM48.1008 230.168C47.4381 230.168 46.8921 229.953 46.4628 229.524C46.0241 229.085 45.8048 228.553 45.8048 227.928C45.8048 227.312 46.0241 226.785 46.4628 226.346C46.9014 225.907 47.4474 225.688 48.1008 225.688C48.7448 225.688 49.2861 225.907 49.7248 226.346C50.1634 226.785 50.3828 227.312 50.3828 227.928C50.3828 228.553 50.1634 229.085 49.7248 229.524C49.2954 229.953 48.7541 230.168 48.1008 230.168ZM48.0868 228.936C48.3854 228.936 48.6281 228.843 48.8148 228.656C49.0014 228.46 49.0948 228.217 49.0948 227.928C49.0948 227.639 49.0014 227.396 48.8148 227.2C48.6281 227.004 48.3854 226.906 48.0868 226.906C47.7974 226.906 47.5594 227.004 47.3728 227.2C47.1861 227.396 47.0928 227.639 47.0928 227.928C47.0928 228.208 47.1861 228.446 47.3728 228.642C47.5688 228.838 47.8068 228.936 48.0868 228.936ZM62.9137 230H61.1497L59.0777 226.43H57.1737V230H55.5637V220.2H59.4837C60.3611 220.2 61.1031 220.508 61.7097 221.124C62.3257 221.721 62.6337 222.463 62.6337 223.35C62.6337 223.975 62.4517 224.549 62.0877 225.072C61.7331 225.585 61.2664 225.959 60.6877 226.192L62.9137 230ZM59.4837 221.712H57.1737V224.988H59.4837C59.9131 224.988 60.2771 224.829 60.5757 224.512C60.8744 224.195 61.0237 223.807 61.0237 223.35C61.0237 222.893 60.8744 222.505 60.5757 222.188C60.2771 221.871 59.9131 221.712 59.4837 221.712ZM70.4445 227.144H64.8725C64.9845 227.667 65.2365 228.073 65.6285 228.362C66.0299 228.651 66.5245 228.796 67.1125 228.796C67.9059 228.796 68.5079 228.507 68.9185 227.928L70.1645 228.656C69.4832 229.673 68.4612 230.182 67.0985 230.182C65.9692 230.182 65.0499 229.837 64.3405 229.146C63.6405 228.446 63.2905 227.564 63.2905 226.5C63.2905 225.464 63.6359 224.591 64.3265 223.882C65.0079 223.173 65.8945 222.818 66.9865 222.818C68.0039 222.818 68.8439 223.177 69.5065 223.896C70.1692 224.615 70.5005 225.487 70.5005 226.514C70.5005 226.701 70.4819 226.911 70.4445 227.144ZM64.8585 225.912H68.9745C68.8719 225.361 68.6385 224.937 68.2745 224.638C67.9199 224.339 67.4859 224.19 66.9725 224.19C66.4125 224.19 65.9459 224.344 65.5725 224.652C65.1992 224.96 64.9612 225.38 64.8585 225.912ZM75.094 230.182C74.0393 230.182 73.1573 229.827 72.448 229.118C71.748 228.399 71.398 227.527 71.398 226.5C71.398 225.455 71.748 224.582 72.448 223.882C73.1573 223.173 74.0393 222.818 75.094 222.818C75.7753 222.818 76.396 222.981 76.956 223.308C77.516 223.635 77.936 224.073 78.216 224.624L76.914 225.38C76.7553 225.044 76.5126 224.783 76.186 224.596C75.8686 224.4 75.5 224.302 75.08 224.302C74.464 224.302 73.946 224.512 73.526 224.932C73.1153 225.361 72.91 225.884 72.91 226.5C72.91 227.116 73.1153 227.639 73.526 228.068C73.946 228.488 74.464 228.698 75.08 228.698C75.4906 228.698 75.8593 228.605 76.186 228.418C76.522 228.222 76.774 227.956 76.942 227.62L78.244 228.362C77.9453 228.922 77.5113 229.365 76.942 229.692C76.382 230.019 75.766 230.182 75.094 230.182ZM82.3038 228.082L84.0958 223H85.7059L83.0178 230.224C82.3458 232.035 81.2072 232.893 79.6018 232.8V231.386C80.0685 231.414 80.4465 231.316 80.7358 231.092C81.0252 230.868 81.2678 230.509 81.4638 230.014L81.5338 229.874L78.5658 223H80.2178L82.3038 228.082ZM89.6818 230.182C88.6272 230.182 87.7452 229.827 87.0358 229.118C86.3358 228.399 85.9858 227.527 85.9858 226.5C85.9858 225.455 86.3358 224.582 87.0358 223.882C87.7452 223.173 88.6272 222.818 89.6818 222.818C90.3632 222.818 90.9838 222.981 91.5438 223.308C92.1038 223.635 92.5238 224.073 92.8038 224.624L91.5018 225.38C91.3432 225.044 91.1005 224.783 90.7738 224.596C90.4565 224.4 90.0878 224.302 89.6678 224.302C89.0518 224.302 88.5338 224.512 88.1138 224.932C87.7032 225.361 87.4978 225.884 87.4978 226.5C87.4978 227.116 87.7032 227.639 88.1138 228.068C88.5338 228.488 89.0518 228.698 89.6678 228.698C90.0785 228.698 90.4472 228.605 90.7738 228.418C91.1098 228.222 91.3618 227.956 91.5298 227.62L92.8319 228.362C92.5332 228.922 92.0992 229.365 91.5298 229.692C90.9698 230.019 90.3538 230.182 89.6818 230.182ZM95.4367 230H93.9247V219.78H95.4367V230ZM103.954 227.144H98.3823C98.4943 227.667 98.7463 228.073 99.1383 228.362C99.5396 228.651 100.034 228.796 100.622 228.796C101.416 228.796 102.018 228.507 102.428 227.928L103.674 228.656C102.993 229.673 101.971 230.182 100.608 230.182C99.479 230.182 98.5596 229.837 97.8503 229.146C97.1503 228.446 96.8003 227.564 96.8003 226.5C96.8003 225.464 97.1456 224.591 97.8363 223.882C98.5176 223.173 99.4043 222.818 100.496 222.818C101.514 222.818 102.354 223.177 103.016 223.896C103.679 224.615 104.01 225.487 104.01 226.514C104.01 226.701 103.992 226.911 103.954 227.144ZM98.3683 225.912H102.484C102.382 225.361 102.148 224.937 101.784 224.638C101.43 224.339 100.996 224.19 100.482 224.19C99.9223 224.19 99.4556 224.344 99.0823 224.652C98.709 224.96 98.471 225.38 98.3683 225.912ZM110.844 223.994V223H112.356V230H110.844V228.992C110.274 229.785 109.458 230.182 108.394 230.182C107.432 230.182 106.611 229.827 105.93 229.118C105.248 228.409 104.908 227.536 104.908 226.5C104.908 225.464 105.248 224.591 105.93 223.882C106.611 223.173 107.432 222.818 108.394 222.818C109.458 222.818 110.274 223.21 110.844 223.994ZM107.05 228.11C107.47 228.53 107.997 228.74 108.632 228.74C109.266 228.74 109.794 228.53 110.214 228.11C110.634 227.681 110.844 227.144 110.844 226.5C110.844 225.856 110.634 225.324 110.214 224.904C109.794 224.475 109.266 224.26 108.632 224.26C107.997 224.26 107.47 224.475 107.05 224.904C106.63 225.324 106.42 225.856 106.42 226.5C106.42 227.135 106.63 227.671 107.05 228.11ZM118.08 222.818C119.041 222.818 119.863 223.173 120.544 223.882C121.225 224.591 121.566 225.464 121.566 226.5C121.566 227.536 121.225 228.409 120.544 229.118C119.863 229.827 119.041 230.182 118.08 230.182C117.016 230.182 116.199 229.785 115.63 228.992V230H114.118V220.2H115.63V223.994C116.209 223.21 117.025 222.818 118.08 222.818ZM116.26 228.11C116.68 228.53 117.207 228.74 117.842 228.74C118.477 228.74 119.004 228.53 119.424 228.11C119.844 227.681 120.054 227.144 120.054 226.5C120.054 225.856 119.844 225.324 119.424 224.904C119.004 224.475 118.477 224.26 117.842 224.26C117.207 224.26 116.68 224.475 116.26 224.904C115.84 225.324 115.63 225.856 115.63 226.5C115.63 227.135 115.84 227.671 116.26 228.11ZM124.448 230H122.936V219.78H124.448V230ZM132.966 227.144H127.394C127.506 227.667 127.758 228.073 128.15 228.362C128.551 228.651 129.046 228.796 129.634 228.796C130.427 228.796 131.029 228.507 131.44 227.928L132.686 228.656C132.005 229.673 130.983 230.182 129.62 230.182C128.491 230.182 127.571 229.837 126.862 229.146C126.162 228.446 125.812 227.564 125.812 226.5C125.812 225.464 126.157 224.591 126.848 223.882C127.529 223.173 128.416 222.818 129.508 222.818C130.525 222.818 131.365 223.177 132.028 223.896C132.691 224.615 133.022 225.487 133.022 226.514C133.022 226.701 133.003 226.911 132.966 227.144ZM127.38 225.912H131.496C131.393 225.361 131.16 224.937 130.796 224.638C130.441 224.339 130.007 224.19 129.494 224.19C128.934 224.19 128.467 224.344 128.094 224.652C127.721 224.96 127.483 225.38 127.38 225.912Z" fill="#1E4F8D"/>
<path d="M387.761 195.5C387.761 185.283 396.044 177 406.261 177H459.261C469.479 177 477.761 185.283 477.761 195.5V195.5C477.761 205.717 469.479 214 459.261 214H406.261C396.044 214 387.761 205.717 387.761 195.5V195.5Z" fill="#82CBE2"/>
<path d="M409.924 193.918C410.353 194.142 410.689 194.455 410.932 194.856C411.174 195.248 411.296 195.696 411.296 196.2C411.296 197.003 411.011 197.67 410.442 198.202C409.872 198.734 409.177 199 408.356 199H404.156V189.2H408.048C408.85 189.2 409.527 189.461 410.078 189.984C410.638 190.507 410.918 191.151 410.918 191.916C410.918 192.756 410.586 193.423 409.924 193.918ZM408.048 190.712H405.766V193.288H408.048C408.402 193.288 408.701 193.167 408.944 192.924C409.186 192.672 409.308 192.364 409.308 192C409.308 191.636 409.186 191.333 408.944 191.09C408.701 190.838 408.402 190.712 408.048 190.712ZM405.766 197.488H408.356C408.729 197.488 409.042 197.357 409.294 197.096C409.555 196.825 409.686 196.499 409.686 196.116C409.686 195.733 409.555 195.411 409.294 195.15C409.042 194.879 408.729 194.744 408.356 194.744H405.766V197.488ZM412.7 189.2H416.312C417.236 189.2 418.006 189.508 418.622 190.124C419.248 190.74 419.56 191.505 419.56 192.42C419.56 193.325 419.248 194.091 418.622 194.716C418.006 195.332 417.236 195.64 416.312 195.64H414.31V199H412.7V189.2ZM414.31 194.128H416.312C416.788 194.128 417.18 193.969 417.488 193.652C417.796 193.325 417.95 192.915 417.95 192.42C417.95 191.925 417.796 191.519 417.488 191.202C417.18 190.875 416.788 190.712 416.312 190.712H414.31V194.128ZM428.094 199H426.358L425.672 197.026H421.5L420.814 199H419.064L422.62 189.2H424.552L428.094 199ZM423.586 191.09L422.032 195.514H425.14L423.586 191.09ZM438.388 189.2V190.74H434.258V193.484H438.248V195.024H434.258V199H432.648V189.2H438.388ZM447.244 199H445.48L443.408 195.43H441.504V199H439.894V189.2H443.814C444.691 189.2 445.433 189.508 446.04 190.124C446.656 190.721 446.964 191.463 446.964 192.35C446.964 192.975 446.782 193.549 446.418 194.072C446.063 194.585 445.596 194.959 445.018 195.192L447.244 199ZM443.814 190.712H441.504V193.988H443.814C444.243 193.988 444.607 193.829 444.906 193.512C445.204 193.195 445.354 192.807 445.354 192.35C445.354 191.893 445.204 191.505 444.906 191.188C444.607 190.871 444.243 190.712 443.814 190.712ZM450.09 194.814V197.46H454.43V199H448.48V189.2H454.36V190.74H450.09V193.288H454.01V194.814H450.09ZM457.514 194.814V197.46H461.854V199H455.904V189.2H461.784V190.74H457.514V193.288H461.434V194.814H457.514Z" fill="#1E4F8D"/>
<path d="M0.761475 402.5C0.761475 392.283 9.04421 384 19.2615 384H177.261C187.479 384 195.761 392.283 195.761 402.5V402.5C195.761 412.717 187.479 421 177.261 421H19.2615C9.04421 421 0.761475 412.717 0.761475 402.5V402.5Z" fill="#96D2B0"/>
<path d="M24.2594 406H22.4954L20.4234 402.43H18.5194V406H16.9094V396.2H20.8294C21.7068 396.2 22.4488 396.508 23.0554 397.124C23.6714 397.721 23.9794 398.463 23.9794 399.35C23.9794 399.975 23.7974 400.549 23.4334 401.072C23.0788 401.585 22.6121 401.959 22.0334 402.192L24.2594 406ZM20.8294 397.712H18.5194V400.988H20.8294C21.2588 400.988 21.6228 400.829 21.9214 400.512C22.2201 400.195 22.3694 399.807 22.3694 399.35C22.3694 398.893 22.2201 398.505 21.9214 398.188C21.6228 397.871 21.2588 397.712 20.8294 397.712ZM31.7902 403.144H26.2182C26.3302 403.667 26.5822 404.073 26.9742 404.362C27.3756 404.651 27.8702 404.796 28.4582 404.796C29.2516 404.796 29.8536 404.507 30.2642 403.928L31.5102 404.656C30.8289 405.673 29.8069 406.182 28.4442 406.182C27.3149 406.182 26.3956 405.837 25.6862 405.146C24.9862 404.446 24.6362 403.564 24.6362 402.5C24.6362 401.464 24.9816 400.591 25.6722 399.882C26.3536 399.173 27.2402 398.818 28.3322 398.818C29.3496 398.818 30.1896 399.177 30.8522 399.896C31.5149 400.615 31.8462 401.487 31.8462 402.514C31.8462 402.701 31.8276 402.911 31.7902 403.144ZM26.2042 401.912H30.3202C30.2176 401.361 29.9842 400.937 29.6202 400.638C29.2656 400.339 28.8316 400.19 28.3182 400.19C27.7582 400.19 27.2916 400.344 26.9182 400.652C26.5449 400.96 26.3069 401.38 26.2042 401.912ZM38.6797 399.994V396.2H40.1917V406H38.6797V404.992C38.1103 405.785 37.2937 406.182 36.2297 406.182C35.2683 406.182 34.447 405.827 33.7657 405.118C33.0843 404.409 32.7437 403.536 32.7437 402.5C32.7437 401.464 33.0843 400.591 33.7657 399.882C34.447 399.173 35.2683 398.818 36.2297 398.818C37.2937 398.818 38.1103 399.21 38.6797 399.994ZM34.8857 404.11C35.3057 404.53 35.833 404.74 36.4677 404.74C37.1023 404.74 37.6297 404.53 38.0497 404.11C38.4697 403.681 38.6797 403.144 38.6797 402.5C38.6797 401.856 38.4697 401.324 38.0497 400.904C37.6297 400.475 37.1023 400.26 36.4677 400.26C35.833 400.26 35.3057 400.475 34.8857 400.904C34.4657 401.324 34.2557 401.856 34.2557 402.5C34.2557 403.135 34.4657 403.671 34.8857 404.11ZM46.672 402.752V399H48.184V406H46.672V405.104C46.2054 405.823 45.482 406.182 44.502 406.182C43.69 406.182 43.0367 405.925 42.542 405.412C42.0567 404.889 41.814 404.185 41.814 403.298V399H43.326V403.144C43.326 403.667 43.466 404.068 43.746 404.348C44.026 404.628 44.4087 404.768 44.894 404.768C45.4447 404.768 45.8787 404.6 46.196 404.264C46.5134 403.919 46.672 403.415 46.672 402.752ZM53.2561 406.182C52.2014 406.182 51.3194 405.827 50.6101 405.118C49.9101 404.399 49.5601 403.527 49.5601 402.5C49.5601 401.455 49.9101 400.582 50.6101 399.882C51.3194 399.173 52.2014 398.818 53.2561 398.818C53.9374 398.818 54.5581 398.981 55.1181 399.308C55.6781 399.635 56.0981 400.073 56.3781 400.624L55.0761 401.38C54.9174 401.044 54.6747 400.783 54.3481 400.596C54.0307 400.4 53.6621 400.302 53.2421 400.302C52.6261 400.302 52.1081 400.512 51.6881 400.932C51.2774 401.361 51.0721 401.884 51.0721 402.5C51.0721 403.116 51.2774 403.639 51.6881 404.068C52.1081 404.488 52.6261 404.698 53.2421 404.698C53.6527 404.698 54.0214 404.605 54.3481 404.418C54.6841 404.222 54.9361 403.956 55.1041 403.62L56.4061 404.362C56.1074 404.922 55.6734 405.365 55.1041 405.692C54.5441 406.019 53.9281 406.182 53.2561 406.182ZM58.9269 397.67C58.7403 397.857 58.5163 397.95 58.2549 397.95C57.9936 397.95 57.7649 397.857 57.5689 397.67C57.3823 397.474 57.2889 397.245 57.2889 396.984C57.2889 396.723 57.3823 396.499 57.5689 396.312C57.7556 396.116 57.9843 396.018 58.2549 396.018C58.5256 396.018 58.7543 396.116 58.9409 396.312C59.1276 396.499 59.2209 396.723 59.2209 396.984C59.2209 397.245 59.1229 397.474 58.9269 397.67ZM59.0109 406H57.4989V399H59.0109V406ZM64.4485 398.818C65.2605 398.818 65.9092 399.079 66.3945 399.602C66.8892 400.115 67.1365 400.815 67.1365 401.702V406H65.6245V401.856C65.6245 401.333 65.4845 400.932 65.2045 400.652C64.9245 400.372 64.5419 400.232 64.0565 400.232C63.5059 400.232 63.0719 400.405 62.7545 400.75C62.4372 401.086 62.2785 401.585 62.2785 402.248V406H60.7665V399H62.2785V399.896C62.7452 399.177 63.4685 398.818 64.4485 398.818ZM74.3366 400.036V399H75.8206V405.678C75.8206 406.742 75.4706 407.559 74.7706 408.128C74.0799 408.697 73.2306 408.982 72.2226 408.982C70.6079 408.982 69.5019 408.417 68.9046 407.288L70.2066 406.532C70.5706 407.251 71.2519 407.61 72.2506 407.61C72.9039 407.61 73.4126 407.437 73.7766 407.092C74.1499 406.756 74.3366 406.285 74.3366 405.678V404.824C73.7672 405.636 72.9552 406.042 71.9006 406.042C70.9206 406.042 70.0852 405.692 69.3946 404.992C68.7132 404.283 68.3726 403.429 68.3726 402.43C68.3726 401.422 68.7132 400.573 69.3946 399.882C70.0759 399.173 70.9112 398.818 71.9006 398.818C72.9552 398.818 73.7672 399.224 74.3366 400.036ZM70.5146 403.998C70.9439 404.418 71.4759 404.628 72.1106 404.628C72.7452 404.628 73.2726 404.418 73.6926 403.998C74.1219 403.578 74.3366 403.055 74.3366 402.43C74.3366 401.805 74.1219 401.282 73.6926 400.862C73.2726 400.442 72.7452 400.232 72.1106 400.232C71.4759 400.232 70.9439 400.442 70.5146 400.862C70.0946 401.282 69.8846 401.805 69.8846 402.43C69.8846 403.055 70.0946 403.578 70.5146 403.998ZM85.8149 406.182C84.3403 406.182 83.1176 405.697 82.1469 404.726C81.1763 403.737 80.6909 402.528 80.6909 401.1C80.6909 399.663 81.1763 398.459 82.1469 397.488C83.1083 396.508 84.3309 396.018 85.8149 396.018C86.7016 396.018 87.5183 396.228 88.2649 396.648C89.0209 397.068 89.6089 397.637 90.0289 398.356L88.6289 399.168C88.3676 398.683 87.9849 398.3 87.4809 398.02C86.9863 397.731 86.4309 397.586 85.8149 397.586C84.7789 397.586 83.9296 397.917 83.2669 398.58C82.6229 399.233 82.3009 400.073 82.3009 401.1C82.3009 402.127 82.6229 402.967 83.2669 403.62C83.9296 404.283 84.7789 404.614 85.8149 404.614C86.4309 404.614 86.9909 404.474 87.4949 404.194C87.9989 403.905 88.3769 403.517 88.6289 403.032L90.0289 403.83C89.6276 404.539 89.0443 405.113 88.2789 405.552C87.5416 405.972 86.7203 406.182 85.8149 406.182ZM99.4881 404.712C98.5081 405.692 97.3088 406.182 95.8901 406.182C94.4714 406.182 93.2674 405.692 92.2781 404.712C91.2981 403.723 90.8081 402.519 90.8081 401.1C90.8081 399.681 91.2981 398.482 92.2781 397.502C93.2674 396.513 94.4714 396.018 95.8901 396.018C97.3088 396.018 98.5081 396.513 99.4881 397.502C100.477 398.482 100.972 399.681 100.972 401.1C100.972 402.519 100.477 403.723 99.4881 404.712ZM93.4121 403.62C94.0934 404.283 94.9194 404.614 95.8901 404.614C96.8701 404.614 97.6914 404.283 98.3541 403.62C99.0261 402.948 99.3621 402.108 99.3621 401.1C99.3621 400.092 99.0261 399.257 98.3541 398.594C97.6914 397.922 96.8701 397.586 95.8901 397.586C94.9101 397.586 94.0841 397.922 93.4121 398.594C92.7494 399.257 92.4181 400.092 92.4181 401.1C92.4181 402.099 92.7494 402.939 93.4121 403.62ZM108.075 406H101.621V404.74L105.037 401.254C105.868 400.423 106.283 399.705 106.283 399.098C106.283 398.631 106.143 398.263 105.863 397.992C105.583 397.721 105.219 397.586 104.771 397.586C103.95 397.586 103.343 397.992 102.951 398.804L101.593 398.006C101.892 397.362 102.321 396.872 102.881 396.536C103.441 396.191 104.067 396.018 104.757 396.018C105.625 396.018 106.363 396.289 106.969 396.83C107.585 397.381 107.893 398.118 107.893 399.042C107.893 400.031 107.338 401.095 106.227 402.234L104.015 404.446H108.075V406ZM113.077 396.2H116.689C117.613 396.2 118.383 396.508 118.999 397.124C119.625 397.74 119.937 398.505 119.937 399.42C119.937 400.325 119.625 401.091 118.999 401.716C118.383 402.332 117.613 402.64 116.689 402.64H114.687V406H113.077V396.2ZM114.687 401.128H116.689C117.165 401.128 117.557 400.969 117.865 400.652C118.173 400.325 118.327 399.915 118.327 399.42C118.327 398.925 118.173 398.519 117.865 398.202C117.557 397.875 117.165 397.712 116.689 397.712H114.687V401.128ZM126.289 399.994V399H127.801V406H126.289V404.992C125.72 405.785 124.903 406.182 123.839 406.182C122.878 406.182 122.056 405.827 121.375 405.118C120.694 404.409 120.353 403.536 120.353 402.5C120.353 401.464 120.694 400.591 121.375 399.882C122.056 399.173 122.878 398.818 123.839 398.818C124.903 398.818 125.72 399.21 126.289 399.994ZM122.495 404.11C122.915 404.53 123.442 404.74 124.077 404.74C124.712 404.74 125.239 404.53 125.659 404.11C126.079 403.681 126.289 403.144 126.289 402.5C126.289 401.856 126.079 401.324 125.659 400.904C125.239 400.475 124.712 400.26 124.077 400.26C123.442 400.26 122.915 400.475 122.495 400.904C122.075 401.324 121.865 401.856 121.865 402.5C121.865 403.135 122.075 403.671 122.495 404.11ZM132.867 406.182C131.813 406.182 130.931 405.827 130.221 405.118C129.521 404.399 129.171 403.527 129.171 402.5C129.171 401.455 129.521 400.582 130.221 399.882C130.931 399.173 131.813 398.818 132.867 398.818C133.549 398.818 134.169 398.981 134.729 399.308C135.289 399.635 135.709 400.073 135.989 400.624L134.687 401.38C134.529 401.044 134.286 400.783 133.959 400.596C133.642 400.4 133.273 400.302 132.853 400.302C132.237 400.302 131.719 400.512 131.299 400.932C130.889 401.361 130.683 401.884 130.683 402.5C130.683 403.116 130.889 403.639 131.299 404.068C131.719 404.488 132.237 404.698 132.853 404.698C133.264 404.698 133.633 404.605 133.959 404.418C134.295 404.222 134.547 403.956 134.715 403.62L136.017 404.362C135.719 404.922 135.285 405.365 134.715 405.692C134.155 406.019 133.539 406.182 132.867 406.182ZM140.106 402.43L143.298 406H141.492L138.622 402.766V406H137.11V396.2H138.622V402.094L141.338 399H143.186L140.106 402.43ZM149.299 399.994V399H150.811V406H149.299V404.992C148.729 405.785 147.913 406.182 146.849 406.182C145.887 406.182 145.066 405.827 144.385 405.118C143.703 404.409 143.363 403.536 143.363 402.5C143.363 401.464 143.703 400.591 144.385 399.882C145.066 399.173 145.887 398.818 146.849 398.818C147.913 398.818 148.729 399.21 149.299 399.994ZM145.505 404.11C145.925 404.53 146.452 404.74 147.087 404.74C147.721 404.74 148.249 404.53 148.669 404.11C149.089 403.681 149.299 403.144 149.299 402.5C149.299 401.856 149.089 401.324 148.669 400.904C148.249 400.475 147.721 400.26 147.087 400.26C146.452 400.26 145.925 400.475 145.505 400.904C145.085 401.324 144.875 401.856 144.875 402.5C144.875 403.135 145.085 403.671 145.505 404.11ZM158.145 400.036V399H159.629V405.678C159.629 406.742 159.279 407.559 158.579 408.128C157.888 408.697 157.039 408.982 156.031 408.982C154.416 408.982 153.31 408.417 152.713 407.288L154.015 406.532C154.379 407.251 155.06 407.61 156.059 407.61C156.712 407.61 157.221 407.437 157.585 407.092C157.958 406.756 158.145 406.285 158.145 405.678V404.824C157.576 405.636 156.764 406.042 155.709 406.042C154.729 406.042 153.894 405.692 153.203 404.992C152.522 404.283 152.181 403.429 152.181 402.43C152.181 401.422 152.522 400.573 153.203 399.882C153.884 399.173 154.72 398.818 155.709 398.818C156.764 398.818 157.576 399.224 158.145 400.036ZM154.323 403.998C154.752 404.418 155.284 404.628 155.919 404.628C156.554 404.628 157.081 404.418 157.501 403.998C157.93 403.578 158.145 403.055 158.145 402.43C158.145 401.805 157.93 401.282 157.501 400.862C157.081 400.442 156.554 400.232 155.919 400.232C155.284 400.232 154.752 400.442 154.323 400.862C153.903 401.282 153.693 401.805 153.693 402.43C153.693 403.055 153.903 403.578 154.323 403.998ZM162.82 397.67C162.633 397.857 162.409 397.95 162.148 397.95C161.886 397.95 161.658 397.857 161.462 397.67C161.275 397.474 161.182 397.245 161.182 396.984C161.182 396.723 161.275 396.499 161.462 396.312C161.648 396.116 161.877 396.018 162.148 396.018C162.418 396.018 162.647 396.116 162.834 396.312C163.02 396.499 163.114 396.723 163.114 396.984C163.114 397.245 163.016 397.474 162.82 397.67ZM162.904 406H161.392V399H162.904V406ZM168.341 398.818C169.153 398.818 169.802 399.079 170.287 399.602C170.782 400.115 171.029 400.815 171.029 401.702V406H169.517V401.856C169.517 401.333 169.377 400.932 169.097 400.652C168.817 400.372 168.434 400.232 167.949 400.232C167.398 400.232 166.964 400.405 166.647 400.75C166.33 401.086 166.171 401.585 166.171 402.248V406H164.659V399H166.171V399.896C166.638 399.177 167.361 398.818 168.341 398.818ZM178.229 400.036V399H179.713V405.678C179.713 406.742 179.363 407.559 178.663 408.128C177.972 408.697 177.123 408.982 176.115 408.982C174.5 408.982 173.394 408.417 172.797 407.288L174.099 406.532C174.463 407.251 175.144 407.61 176.143 407.61C176.796 407.61 177.305 407.437 177.669 407.092C178.042 406.756 178.229 406.285 178.229 405.678V404.824C177.66 405.636 176.848 406.042 175.793 406.042C174.813 406.042 173.978 405.692 173.287 404.992C172.606 404.283 172.265 403.429 172.265 402.43C172.265 401.422 172.606 400.573 173.287 399.882C173.968 399.173 174.804 398.818 175.793 398.818C176.848 398.818 177.66 399.224 178.229 400.036ZM174.407 403.998C174.836 404.418 175.368 404.628 176.003 404.628C176.638 404.628 177.165 404.418 177.585 403.998C178.014 403.578 178.229 403.055 178.229 402.43C178.229 401.805 178.014 401.282 177.585 400.862C177.165 400.442 176.638 400.232 176.003 400.232C175.368 400.232 174.836 400.442 174.407 400.862C173.987 401.282 173.777 401.805 173.777 402.43C173.777 403.055 173.987 403.578 174.407 403.998Z" fill="#1E4F8D"/>
<path d="M460.761 439.5C460.761 429.283 469.044 421 479.261 421H518.261C528.479 421 536.761 429.283 536.761 439.5V439.5C536.761 449.717 528.479 458 518.261 458H479.261C469.044 458 460.761 449.717 460.761 439.5V439.5Z" fill="#9EF9FF"/>
<path d="M483.126 441.796C482.454 442.72 481.512 443.182 480.298 443.182C479.094 443.182 478.147 442.72 477.456 441.796C476.784 440.872 476.448 439.64 476.448 438.1C476.448 436.56 476.784 435.328 477.456 434.404C478.147 433.48 479.094 433.018 480.298 433.018C481.512 433.018 482.454 433.48 483.126 434.404C483.808 435.319 484.148 436.551 484.148 438.1C484.148 439.649 483.808 440.881 483.126 441.796ZM480.298 441.614C481.026 441.614 481.582 441.311 481.964 440.704C482.347 440.097 482.538 439.229 482.538 438.1C482.538 436.971 482.347 436.103 481.964 435.496C481.582 434.889 481.026 434.586 480.298 434.586C479.58 434.586 479.024 434.889 478.632 435.496C478.25 436.103 478.058 436.971 478.058 438.1C478.058 439.229 478.25 440.097 478.632 440.704C479.024 441.311 479.58 441.614 480.298 441.614ZM489.053 433.662C489.492 434.101 489.711 434.633 489.711 435.258C489.711 435.883 489.492 436.415 489.053 436.854C488.624 437.283 488.083 437.498 487.429 437.498C486.767 437.498 486.221 437.283 485.791 436.854C485.353 436.415 485.133 435.883 485.133 435.258C485.133 434.642 485.353 434.115 485.791 433.676C486.23 433.237 486.776 433.018 487.429 433.018C488.083 433.018 488.624 433.233 489.053 433.662ZM487.415 436.266C487.714 436.266 487.957 436.173 488.143 435.986C488.33 435.79 488.423 435.547 488.423 435.258C488.423 434.969 488.33 434.726 488.143 434.53C487.957 434.334 487.714 434.236 487.415 434.236C487.126 434.236 486.888 434.334 486.701 434.53C486.515 434.726 486.421 434.969 486.421 435.258C486.421 435.538 486.515 435.776 486.701 435.972C486.897 436.168 487.135 436.266 487.415 436.266ZM486.715 442.006L485.959 441.558L492.413 434.376L493.169 434.81L486.715 442.006ZM491.909 443.168C491.247 443.168 490.701 442.953 490.271 442.524C489.833 442.085 489.613 441.553 489.613 440.928C489.613 440.312 489.833 439.785 490.271 439.346C490.71 438.907 491.256 438.688 491.909 438.688C492.553 438.688 493.095 438.907 493.533 439.346C493.972 439.785 494.191 440.312 494.191 440.928C494.191 441.553 493.972 442.085 493.533 442.524C493.104 442.953 492.563 443.168 491.909 443.168ZM491.895 441.936C492.194 441.936 492.437 441.843 492.623 441.656C492.81 441.46 492.903 441.217 492.903 440.928C492.903 440.639 492.81 440.396 492.623 440.2C492.437 440.004 492.194 439.906 491.895 439.906C491.606 439.906 491.368 440.004 491.181 440.2C490.995 440.396 490.901 440.639 490.901 440.928C490.901 441.208 490.995 441.446 491.181 441.642C491.377 441.838 491.615 441.936 491.895 441.936ZM499.372 433.2H502.984C503.908 433.2 504.678 433.508 505.294 434.124C505.92 434.74 506.232 435.505 506.232 436.42C506.232 437.325 505.92 438.091 505.294 438.716C504.678 439.332 503.908 439.64 502.984 439.64H500.982V443H499.372V433.2ZM500.982 438.128H502.984C503.46 438.128 503.852 437.969 504.16 437.652C504.468 437.325 504.622 436.915 504.622 436.42C504.622 435.925 504.468 435.519 504.16 435.202C503.852 434.875 503.46 434.712 502.984 434.712H500.982V438.128ZM509.24 438.814V441.46H513.58V443H507.63V433.2H513.51V434.74H509.24V437.288H513.16V438.814H509.24ZM514.284 433.2H521.424V434.74H518.666V443H517.056V434.74H514.284V433.2Z" fill="#1E4F8D"/>
</svg>
