<svg width="16" height="17" viewBox="0 0 16 17" fill="none" xmlns="http://www.w3.org/2000/svg">
<path d="M4.98657 12.7333L7.05324 14.3333C7.31991 14.6 7.91991 14.7333 8.31991 14.7333H10.8532C11.6532 14.7333 12.5199 14.1333 12.7199 13.3333L14.3199 8.46667C14.6532 7.53333 14.0532 6.73333 13.0532 6.73333H10.3866C9.98657 6.73333 9.65324 6.4 9.71991 5.93333L10.0532 3.8C10.1866 3.2 9.78657 2.53333 9.18657 2.33333C8.65324 2.13333 7.98657 2.4 7.71991 2.8L4.98657 6.86667" stroke="#444444" stroke-miterlimit="10"/>
<path d="M1.58667 12.7333V6.19999C1.58667 5.26665 1.98667 4.93332 2.92 4.93332H3.58667C4.52 4.93332 4.92 5.26665 4.92 6.19999V12.7333C4.92 13.6667 4.52 14 3.58667 14H2.92C1.98667 14 1.58667 13.6667 1.58667 12.7333Z" stroke="#444444" stroke-linecap="round" stroke-linejoin="round"/>
</svg>
